%TF.GenerationSoftware,KiCad,Pcbnew,6.0.11+dfsg-1~bpo11+1*%
%TF.CreationDate,2023-04-13T12:19:45+00:00*%
%TF.ProjectId,STEPBUBODC01A,53544550-4255-4424-9f44-433031412e6b,rev?*%
%TF.SameCoordinates,Original*%
%TF.FileFunction,Copper,L1,Top*%
%TF.FilePolarity,Positive*%
%FSLAX46Y46*%
G04 Gerber Fmt 4.6, Leading zero omitted, Abs format (unit mm)*
G04 Created by KiCad (PCBNEW 6.0.11+dfsg-1~bpo11+1) date 2023-04-13 12:19:45*
%MOMM*%
%LPD*%
G01*
G04 APERTURE LIST*
%TA.AperFunction,ComponentPad*%
%ADD10R,1.524000X1.524000*%
%TD*%
%TA.AperFunction,ComponentPad*%
%ADD11C,6.000000*%
%TD*%
%TA.AperFunction,ViaPad*%
%ADD12C,0.800000*%
%TD*%
%TA.AperFunction,Conductor*%
%ADD13C,0.400000*%
%TD*%
G04 APERTURE END LIST*
D10*
%TO.P,J4,1*%
%TO.N,Net-(J4-Pad1)*%
X149860000Y-76200000D03*
%TO.P,J4,2*%
%TO.N,/FB*%
X147320000Y-76200000D03*
%TO.P,J4,3*%
%TO.N,Net-(J4-Pad3)*%
X144780000Y-76200000D03*
%TD*%
D11*
%TO.P,M4,1*%
%TO.N,GND*%
X157480000Y-96520000D03*
%TD*%
D10*
%TO.P,J2,1*%
%TO.N,GND*%
X125730000Y-83820000D03*
%TO.P,J2,2*%
X128270000Y-83820000D03*
%TO.P,J2,3*%
%TO.N,Net-(F1-Pad1)*%
X125730000Y-86360000D03*
%TO.P,J2,4*%
X128270000Y-86360000D03*
%TO.P,J2,5*%
%TO.N,GND*%
X125730000Y-88900000D03*
%TO.P,J2,6*%
X128270000Y-88900000D03*
%TD*%
%TO.P,J1,1*%
%TO.N,GND*%
X139700000Y-76200000D03*
%TO.P,J1,2*%
%TO.N,/en*%
X137160000Y-76200000D03*
%TO.P,J1,3*%
%TO.N,/V_in*%
X134620000Y-76200000D03*
%TD*%
%TO.P,J3,1*%
%TO.N,GND*%
X139700000Y-96520000D03*
%TO.P,J3,2*%
%TO.N,/mod*%
X137160000Y-96520000D03*
%TO.P,J3,3*%
%TO.N,/V_in*%
X134620000Y-96520000D03*
%TD*%
D11*
%TO.P,M1,1*%
%TO.N,GND*%
X127000000Y-76200000D03*
%TD*%
%TO.P,M2,1*%
%TO.N,GND*%
X127000000Y-96520000D03*
%TD*%
D10*
%TO.P,J5,1*%
%TO.N,GND*%
X149860000Y-95250000D03*
%TO.P,J5,2*%
X149860000Y-97790000D03*
%TO.P,J5,3*%
%TO.N,/V_out*%
X147320000Y-95250000D03*
%TO.P,J5,4*%
X147320000Y-97790000D03*
%TO.P,J5,5*%
%TO.N,GND*%
X144780000Y-95250000D03*
%TO.P,J5,6*%
X144780000Y-97790000D03*
%TD*%
D11*
%TO.P,M3,1*%
%TO.N,GND*%
X157480000Y-76200000D03*
%TD*%
D10*
%TO.P,J6,1*%
%TO.N,GND*%
X156210000Y-83820000D03*
%TO.P,J6,2*%
X158750000Y-83820000D03*
%TO.P,J6,3*%
%TO.N,/V_out*%
X156210000Y-86360000D03*
%TO.P,J6,4*%
X158750000Y-86360000D03*
%TO.P,J6,5*%
%TO.N,GND*%
X156210000Y-88900000D03*
%TO.P,J6,6*%
X158750000Y-88900000D03*
%TD*%
D12*
%TO.N,GND*%
X142417800Y-81838800D03*
%TO.N,/mod*%
X141046200Y-80391000D03*
%TD*%
D13*
%TO.N,/mod*%
X137160000Y-84277200D02*
X137160000Y-96520000D01*
X141046200Y-80391000D02*
X137160000Y-84277200D01*
%TD*%
%TA.AperFunction,Conductor*%
%TO.N,GND*%
G36*
X161993621Y-71648502D02*
G01*
X162040114Y-71702158D01*
X162051500Y-71754500D01*
X162051500Y-100965500D01*
X162031498Y-101033621D01*
X161977842Y-101080114D01*
X161925500Y-101091500D01*
X122554500Y-101091500D01*
X122486379Y-101071498D01*
X122439886Y-101017842D01*
X122428500Y-100965500D01*
X122428500Y-98596669D01*
X143510001Y-98596669D01*
X143510371Y-98603490D01*
X143515895Y-98654352D01*
X143519521Y-98669604D01*
X143564676Y-98790054D01*
X143573214Y-98805649D01*
X143649715Y-98907724D01*
X143662276Y-98920285D01*
X143764351Y-98996786D01*
X143779946Y-99005324D01*
X143900394Y-99050478D01*
X143915649Y-99054105D01*
X143966514Y-99059631D01*
X143973328Y-99060000D01*
X144507885Y-99060000D01*
X144523124Y-99055525D01*
X144524329Y-99054135D01*
X144526000Y-99046452D01*
X144526000Y-99041884D01*
X145034000Y-99041884D01*
X145038475Y-99057123D01*
X145039865Y-99058328D01*
X145047548Y-99059999D01*
X145586669Y-99059999D01*
X145593490Y-99059629D01*
X145644352Y-99054105D01*
X145659604Y-99050479D01*
X145780054Y-99005324D01*
X145795649Y-98996786D01*
X145897724Y-98920285D01*
X145910285Y-98907724D01*
X145986786Y-98805649D01*
X145995324Y-98790054D01*
X146040478Y-98669606D01*
X146044105Y-98654351D01*
X146049631Y-98603486D01*
X146050000Y-98596672D01*
X146050000Y-98062115D01*
X146045525Y-98046876D01*
X146044135Y-98045671D01*
X146036452Y-98044000D01*
X145052115Y-98044000D01*
X145036876Y-98048475D01*
X145035671Y-98049865D01*
X145034000Y-98057548D01*
X145034000Y-99041884D01*
X144526000Y-99041884D01*
X144526000Y-98062115D01*
X144521525Y-98046876D01*
X144520135Y-98045671D01*
X144512452Y-98044000D01*
X143528116Y-98044000D01*
X143512877Y-98048475D01*
X143511672Y-98049865D01*
X143510001Y-98057548D01*
X143510001Y-98596669D01*
X122428500Y-98596669D01*
X122428500Y-95732933D01*
X133603500Y-95732933D01*
X133603501Y-97307066D01*
X133618266Y-97381301D01*
X133674516Y-97465484D01*
X133758699Y-97521734D01*
X133832933Y-97536500D01*
X134619872Y-97536500D01*
X135407066Y-97536499D01*
X135442818Y-97529388D01*
X135469126Y-97524156D01*
X135469128Y-97524155D01*
X135481301Y-97521734D01*
X135491621Y-97514839D01*
X135491622Y-97514838D01*
X135555168Y-97472377D01*
X135565484Y-97465484D01*
X135621734Y-97381301D01*
X135636500Y-97307067D01*
X135636499Y-95732934D01*
X135636499Y-95732933D01*
X136143500Y-95732933D01*
X136143501Y-97307066D01*
X136158266Y-97381301D01*
X136214516Y-97465484D01*
X136298699Y-97521734D01*
X136372933Y-97536500D01*
X137159872Y-97536500D01*
X137947066Y-97536499D01*
X137982818Y-97529388D01*
X138009126Y-97524156D01*
X138009128Y-97524155D01*
X138021301Y-97521734D01*
X138031621Y-97514839D01*
X138031622Y-97514838D01*
X138095168Y-97472377D01*
X138105484Y-97465484D01*
X138161734Y-97381301D01*
X138172601Y-97326669D01*
X138430001Y-97326669D01*
X138430371Y-97333490D01*
X138435895Y-97384352D01*
X138439521Y-97399604D01*
X138484676Y-97520054D01*
X138493214Y-97535649D01*
X138569715Y-97637724D01*
X138582276Y-97650285D01*
X138684351Y-97726786D01*
X138699946Y-97735324D01*
X138820394Y-97780478D01*
X138835649Y-97784105D01*
X138886514Y-97789631D01*
X138893328Y-97790000D01*
X139427885Y-97790000D01*
X139443124Y-97785525D01*
X139444329Y-97784135D01*
X139446000Y-97776452D01*
X139446000Y-97771884D01*
X139954000Y-97771884D01*
X139958475Y-97787123D01*
X139959865Y-97788328D01*
X139967548Y-97789999D01*
X140506669Y-97789999D01*
X140513490Y-97789629D01*
X140564352Y-97784105D01*
X140579604Y-97780479D01*
X140700054Y-97735324D01*
X140715649Y-97726786D01*
X140817724Y-97650285D01*
X140830285Y-97637724D01*
X140906786Y-97535649D01*
X140915324Y-97520054D01*
X140916137Y-97517885D01*
X143510000Y-97517885D01*
X143514475Y-97533124D01*
X143515865Y-97534329D01*
X143523548Y-97536000D01*
X144507885Y-97536000D01*
X144523124Y-97531525D01*
X144524329Y-97530135D01*
X144526000Y-97522452D01*
X144526000Y-97517885D01*
X145034000Y-97517885D01*
X145038475Y-97533124D01*
X145039865Y-97534329D01*
X145047548Y-97536000D01*
X146031884Y-97536000D01*
X146047123Y-97531525D01*
X146048328Y-97530135D01*
X146049999Y-97522452D01*
X146049999Y-97002933D01*
X146303500Y-97002933D01*
X146303501Y-98577066D01*
X146318266Y-98651301D01*
X146374516Y-98735484D01*
X146458699Y-98791734D01*
X146532933Y-98806500D01*
X147319872Y-98806500D01*
X148107066Y-98806499D01*
X148142818Y-98799388D01*
X148169126Y-98794156D01*
X148169128Y-98794155D01*
X148181301Y-98791734D01*
X148191621Y-98784839D01*
X148191622Y-98784838D01*
X148255168Y-98742377D01*
X148265484Y-98735484D01*
X148321734Y-98651301D01*
X148332601Y-98596669D01*
X148590001Y-98596669D01*
X148590371Y-98603490D01*
X148595895Y-98654352D01*
X148599521Y-98669604D01*
X148644676Y-98790054D01*
X148653214Y-98805649D01*
X148729715Y-98907724D01*
X148742276Y-98920285D01*
X148844351Y-98996786D01*
X148859946Y-99005324D01*
X148980394Y-99050478D01*
X148995649Y-99054105D01*
X149046514Y-99059631D01*
X149053328Y-99060000D01*
X149587885Y-99060000D01*
X149603124Y-99055525D01*
X149604329Y-99054135D01*
X149606000Y-99046452D01*
X149606000Y-99041884D01*
X150114000Y-99041884D01*
X150118475Y-99057123D01*
X150119865Y-99058328D01*
X150127548Y-99059999D01*
X150666669Y-99059999D01*
X150673490Y-99059629D01*
X150724352Y-99054105D01*
X150739604Y-99050479D01*
X150860054Y-99005324D01*
X150875649Y-98996786D01*
X150977724Y-98920285D01*
X150990285Y-98907724D01*
X151066786Y-98805649D01*
X151075324Y-98790054D01*
X151120478Y-98669606D01*
X151124105Y-98654351D01*
X151129631Y-98603486D01*
X151130000Y-98596672D01*
X151130000Y-98062115D01*
X151125525Y-98046876D01*
X151124135Y-98045671D01*
X151116452Y-98044000D01*
X150132115Y-98044000D01*
X150116876Y-98048475D01*
X150115671Y-98049865D01*
X150114000Y-98057548D01*
X150114000Y-99041884D01*
X149606000Y-99041884D01*
X149606000Y-98062115D01*
X149601525Y-98046876D01*
X149600135Y-98045671D01*
X149592452Y-98044000D01*
X148608116Y-98044000D01*
X148592877Y-98048475D01*
X148591672Y-98049865D01*
X148590001Y-98057548D01*
X148590001Y-98596669D01*
X148332601Y-98596669D01*
X148336500Y-98577067D01*
X148336499Y-97517885D01*
X148590000Y-97517885D01*
X148594475Y-97533124D01*
X148595865Y-97534329D01*
X148603548Y-97536000D01*
X149587885Y-97536000D01*
X149603124Y-97531525D01*
X149604329Y-97530135D01*
X149606000Y-97522452D01*
X149606000Y-97517885D01*
X150114000Y-97517885D01*
X150118475Y-97533124D01*
X150119865Y-97534329D01*
X150127548Y-97536000D01*
X151111884Y-97536000D01*
X151127123Y-97531525D01*
X151128328Y-97530135D01*
X151129999Y-97522452D01*
X151129999Y-96983331D01*
X151129629Y-96976510D01*
X151124105Y-96925648D01*
X151120479Y-96910396D01*
X151075324Y-96789946D01*
X151066786Y-96774351D01*
X150990285Y-96672276D01*
X150977725Y-96659716D01*
X150925835Y-96620827D01*
X150883319Y-96563968D01*
X150878293Y-96493149D01*
X150912353Y-96430856D01*
X150925835Y-96419173D01*
X150977725Y-96380284D01*
X150990285Y-96367724D01*
X151066786Y-96265649D01*
X151075324Y-96250054D01*
X151120478Y-96129606D01*
X151124105Y-96114351D01*
X151129631Y-96063486D01*
X151130000Y-96056672D01*
X151130000Y-95522115D01*
X151125525Y-95506876D01*
X151124135Y-95505671D01*
X151116452Y-95504000D01*
X150132115Y-95504000D01*
X150116876Y-95508475D01*
X150115671Y-95509865D01*
X150114000Y-95517548D01*
X150114000Y-97517885D01*
X149606000Y-97517885D01*
X149606000Y-95522115D01*
X149601525Y-95506876D01*
X149600135Y-95505671D01*
X149592452Y-95504000D01*
X148608116Y-95504000D01*
X148592877Y-95508475D01*
X148591672Y-95509865D01*
X148590001Y-95517548D01*
X148590001Y-96056669D01*
X148590371Y-96063490D01*
X148595895Y-96114352D01*
X148599521Y-96129604D01*
X148644676Y-96250054D01*
X148653214Y-96265649D01*
X148729715Y-96367724D01*
X148742275Y-96380284D01*
X148794165Y-96419173D01*
X148836681Y-96476032D01*
X148841707Y-96546851D01*
X148807647Y-96609144D01*
X148794165Y-96620827D01*
X148742275Y-96659716D01*
X148729715Y-96672276D01*
X148653214Y-96774351D01*
X148644676Y-96789946D01*
X148599522Y-96910394D01*
X148595895Y-96925649D01*
X148590369Y-96976514D01*
X148590000Y-96983328D01*
X148590000Y-97517885D01*
X148336499Y-97517885D01*
X148336499Y-97002934D01*
X148321734Y-96928699D01*
X148265484Y-96844516D01*
X148181301Y-96788266D01*
X148107067Y-96773500D01*
X147320128Y-96773500D01*
X146532934Y-96773501D01*
X146497182Y-96780612D01*
X146470874Y-96785844D01*
X146470872Y-96785845D01*
X146458699Y-96788266D01*
X146448379Y-96795161D01*
X146448378Y-96795162D01*
X146387985Y-96835516D01*
X146374516Y-96844516D01*
X146318266Y-96928699D01*
X146303500Y-97002933D01*
X146049999Y-97002933D01*
X146049999Y-96983331D01*
X146049629Y-96976510D01*
X146044105Y-96925648D01*
X146040479Y-96910396D01*
X145995324Y-96789946D01*
X145986786Y-96774351D01*
X145910285Y-96672276D01*
X145897725Y-96659716D01*
X145845835Y-96620827D01*
X145803319Y-96563968D01*
X145798293Y-96493149D01*
X145832353Y-96430856D01*
X145845835Y-96419173D01*
X145897725Y-96380284D01*
X145910285Y-96367724D01*
X145986786Y-96265649D01*
X145995324Y-96250054D01*
X146040478Y-96129606D01*
X146044105Y-96114351D01*
X146049631Y-96063486D01*
X146050000Y-96056672D01*
X146050000Y-95522115D01*
X146045525Y-95506876D01*
X146044135Y-95505671D01*
X146036452Y-95504000D01*
X145052115Y-95504000D01*
X145036876Y-95508475D01*
X145035671Y-95509865D01*
X145034000Y-95517548D01*
X145034000Y-97517885D01*
X144526000Y-97517885D01*
X144526000Y-95522115D01*
X144521525Y-95506876D01*
X144520135Y-95505671D01*
X144512452Y-95504000D01*
X143528116Y-95504000D01*
X143512877Y-95508475D01*
X143511672Y-95509865D01*
X143510001Y-95517548D01*
X143510001Y-96056669D01*
X143510371Y-96063490D01*
X143515895Y-96114352D01*
X143519521Y-96129604D01*
X143564676Y-96250054D01*
X143573214Y-96265649D01*
X143649715Y-96367724D01*
X143662275Y-96380284D01*
X143714165Y-96419173D01*
X143756681Y-96476032D01*
X143761707Y-96546851D01*
X143727647Y-96609144D01*
X143714165Y-96620827D01*
X143662275Y-96659716D01*
X143649715Y-96672276D01*
X143573214Y-96774351D01*
X143564676Y-96789946D01*
X143519522Y-96910394D01*
X143515895Y-96925649D01*
X143510369Y-96976514D01*
X143510000Y-96983328D01*
X143510000Y-97517885D01*
X140916137Y-97517885D01*
X140960478Y-97399606D01*
X140964105Y-97384351D01*
X140969631Y-97333486D01*
X140970000Y-97326672D01*
X140970000Y-96792115D01*
X140965525Y-96776876D01*
X140964135Y-96775671D01*
X140956452Y-96774000D01*
X139972115Y-96774000D01*
X139956876Y-96778475D01*
X139955671Y-96779865D01*
X139954000Y-96787548D01*
X139954000Y-97771884D01*
X139446000Y-97771884D01*
X139446000Y-96792115D01*
X139441525Y-96776876D01*
X139440135Y-96775671D01*
X139432452Y-96774000D01*
X138448116Y-96774000D01*
X138432877Y-96778475D01*
X138431672Y-96779865D01*
X138430001Y-96787548D01*
X138430001Y-97326669D01*
X138172601Y-97326669D01*
X138176500Y-97307067D01*
X138176499Y-96247885D01*
X138430000Y-96247885D01*
X138434475Y-96263124D01*
X138435865Y-96264329D01*
X138443548Y-96266000D01*
X139427885Y-96266000D01*
X139443124Y-96261525D01*
X139444329Y-96260135D01*
X139446000Y-96252452D01*
X139446000Y-96247885D01*
X139954000Y-96247885D01*
X139958475Y-96263124D01*
X139959865Y-96264329D01*
X139967548Y-96266000D01*
X140951884Y-96266000D01*
X140967123Y-96261525D01*
X140968328Y-96260135D01*
X140969999Y-96252452D01*
X140969999Y-95713331D01*
X140969629Y-95706510D01*
X140964105Y-95655648D01*
X140960479Y-95640396D01*
X140915324Y-95519946D01*
X140906786Y-95504351D01*
X140830285Y-95402276D01*
X140817724Y-95389715D01*
X140715649Y-95313214D01*
X140700054Y-95304676D01*
X140579606Y-95259522D01*
X140564351Y-95255895D01*
X140513486Y-95250369D01*
X140506672Y-95250000D01*
X139972115Y-95250000D01*
X139956876Y-95254475D01*
X139955671Y-95255865D01*
X139954000Y-95263548D01*
X139954000Y-96247885D01*
X139446000Y-96247885D01*
X139446000Y-95268116D01*
X139441525Y-95252877D01*
X139440135Y-95251672D01*
X139432452Y-95250001D01*
X138893331Y-95250001D01*
X138886510Y-95250371D01*
X138835648Y-95255895D01*
X138820396Y-95259521D01*
X138699946Y-95304676D01*
X138684351Y-95313214D01*
X138582276Y-95389715D01*
X138569715Y-95402276D01*
X138493214Y-95504351D01*
X138484676Y-95519946D01*
X138439522Y-95640394D01*
X138435895Y-95655649D01*
X138430369Y-95706514D01*
X138430000Y-95713328D01*
X138430000Y-96247885D01*
X138176499Y-96247885D01*
X138176499Y-95732934D01*
X138161734Y-95658699D01*
X138105484Y-95574516D01*
X138021301Y-95518266D01*
X137947067Y-95503500D01*
X137740500Y-95503500D01*
X137672379Y-95483498D01*
X137625886Y-95429842D01*
X137614500Y-95377500D01*
X137614500Y-94977885D01*
X143510000Y-94977885D01*
X143514475Y-94993124D01*
X143515865Y-94994329D01*
X143523548Y-94996000D01*
X144507885Y-94996000D01*
X144523124Y-94991525D01*
X144524329Y-94990135D01*
X144526000Y-94982452D01*
X144526000Y-94977885D01*
X145034000Y-94977885D01*
X145038475Y-94993124D01*
X145039865Y-94994329D01*
X145047548Y-94996000D01*
X146031884Y-94996000D01*
X146047123Y-94991525D01*
X146048328Y-94990135D01*
X146049999Y-94982452D01*
X146049999Y-94462933D01*
X146303500Y-94462933D01*
X146303501Y-96037066D01*
X146318266Y-96111301D01*
X146374516Y-96195484D01*
X146458699Y-96251734D01*
X146532933Y-96266500D01*
X147319872Y-96266500D01*
X148107066Y-96266499D01*
X148142818Y-96259388D01*
X148169126Y-96254156D01*
X148169128Y-96254155D01*
X148181301Y-96251734D01*
X148191621Y-96244839D01*
X148191622Y-96244838D01*
X148255168Y-96202377D01*
X148265484Y-96195484D01*
X148321734Y-96111301D01*
X148336500Y-96037067D01*
X148336499Y-94977885D01*
X148590000Y-94977885D01*
X148594475Y-94993124D01*
X148595865Y-94994329D01*
X148603548Y-94996000D01*
X149587885Y-94996000D01*
X149603124Y-94991525D01*
X149604329Y-94990135D01*
X149606000Y-94982452D01*
X149606000Y-94977885D01*
X150114000Y-94977885D01*
X150118475Y-94993124D01*
X150119865Y-94994329D01*
X150127548Y-94996000D01*
X151111884Y-94996000D01*
X151127123Y-94991525D01*
X151128328Y-94990135D01*
X151129999Y-94982452D01*
X151129999Y-94443331D01*
X151129629Y-94436510D01*
X151124105Y-94385648D01*
X151120479Y-94370396D01*
X151075324Y-94249946D01*
X151066786Y-94234351D01*
X150990285Y-94132276D01*
X150977724Y-94119715D01*
X150875649Y-94043214D01*
X150860054Y-94034676D01*
X150739606Y-93989522D01*
X150724351Y-93985895D01*
X150673486Y-93980369D01*
X150666672Y-93980000D01*
X150132115Y-93980000D01*
X150116876Y-93984475D01*
X150115671Y-93985865D01*
X150114000Y-93993548D01*
X150114000Y-94977885D01*
X149606000Y-94977885D01*
X149606000Y-93998116D01*
X149601525Y-93982877D01*
X149600135Y-93981672D01*
X149592452Y-93980001D01*
X149053331Y-93980001D01*
X149046510Y-93980371D01*
X148995648Y-93985895D01*
X148980396Y-93989521D01*
X148859946Y-94034676D01*
X148844351Y-94043214D01*
X148742276Y-94119715D01*
X148729715Y-94132276D01*
X148653214Y-94234351D01*
X148644676Y-94249946D01*
X148599522Y-94370394D01*
X148595895Y-94385649D01*
X148590369Y-94436514D01*
X148590000Y-94443328D01*
X148590000Y-94977885D01*
X148336499Y-94977885D01*
X148336499Y-94462934D01*
X148321734Y-94388699D01*
X148265484Y-94304516D01*
X148181301Y-94248266D01*
X148107067Y-94233500D01*
X147320128Y-94233500D01*
X146532934Y-94233501D01*
X146497182Y-94240612D01*
X146470874Y-94245844D01*
X146470872Y-94245845D01*
X146458699Y-94248266D01*
X146448379Y-94255161D01*
X146448378Y-94255162D01*
X146387985Y-94295516D01*
X146374516Y-94304516D01*
X146318266Y-94388699D01*
X146303500Y-94462933D01*
X146049999Y-94462933D01*
X146049999Y-94443331D01*
X146049629Y-94436510D01*
X146044105Y-94385648D01*
X146040479Y-94370396D01*
X145995324Y-94249946D01*
X145986786Y-94234351D01*
X145910285Y-94132276D01*
X145897724Y-94119715D01*
X145795649Y-94043214D01*
X145780054Y-94034676D01*
X145659606Y-93989522D01*
X145644351Y-93985895D01*
X145593486Y-93980369D01*
X145586672Y-93980000D01*
X145052115Y-93980000D01*
X145036876Y-93984475D01*
X145035671Y-93985865D01*
X145034000Y-93993548D01*
X145034000Y-94977885D01*
X144526000Y-94977885D01*
X144526000Y-93998116D01*
X144521525Y-93982877D01*
X144520135Y-93981672D01*
X144512452Y-93980001D01*
X143973331Y-93980001D01*
X143966510Y-93980371D01*
X143915648Y-93985895D01*
X143900396Y-93989521D01*
X143779946Y-94034676D01*
X143764351Y-94043214D01*
X143662276Y-94119715D01*
X143649715Y-94132276D01*
X143573214Y-94234351D01*
X143564676Y-94249946D01*
X143519522Y-94370394D01*
X143515895Y-94385649D01*
X143510369Y-94436514D01*
X143510000Y-94443328D01*
X143510000Y-94977885D01*
X137614500Y-94977885D01*
X137614500Y-89706669D01*
X154940001Y-89706669D01*
X154940371Y-89713490D01*
X154945895Y-89764352D01*
X154949521Y-89779604D01*
X154994676Y-89900054D01*
X155003214Y-89915649D01*
X155079715Y-90017724D01*
X155092276Y-90030285D01*
X155194351Y-90106786D01*
X155209946Y-90115324D01*
X155330394Y-90160478D01*
X155345649Y-90164105D01*
X155396514Y-90169631D01*
X155403328Y-90170000D01*
X155937885Y-90170000D01*
X155953124Y-90165525D01*
X155954329Y-90164135D01*
X155956000Y-90156452D01*
X155956000Y-90151884D01*
X156464000Y-90151884D01*
X156468475Y-90167123D01*
X156469865Y-90168328D01*
X156477548Y-90169999D01*
X157016669Y-90169999D01*
X157023490Y-90169629D01*
X157074352Y-90164105D01*
X157089604Y-90160479D01*
X157210054Y-90115324D01*
X157225649Y-90106786D01*
X157327724Y-90030285D01*
X157340284Y-90017725D01*
X157379173Y-89965835D01*
X157436032Y-89923319D01*
X157506851Y-89918293D01*
X157569144Y-89952353D01*
X157580827Y-89965835D01*
X157619716Y-90017725D01*
X157632276Y-90030285D01*
X157734351Y-90106786D01*
X157749946Y-90115324D01*
X157870394Y-90160478D01*
X157885649Y-90164105D01*
X157936514Y-90169631D01*
X157943328Y-90170000D01*
X158477885Y-90170000D01*
X158493124Y-90165525D01*
X158494329Y-90164135D01*
X158496000Y-90156452D01*
X158496000Y-90151884D01*
X159004000Y-90151884D01*
X159008475Y-90167123D01*
X159009865Y-90168328D01*
X159017548Y-90169999D01*
X159556669Y-90169999D01*
X159563490Y-90169629D01*
X159614352Y-90164105D01*
X159629604Y-90160479D01*
X159750054Y-90115324D01*
X159765649Y-90106786D01*
X159867724Y-90030285D01*
X159880285Y-90017724D01*
X159956786Y-89915649D01*
X159965324Y-89900054D01*
X160010478Y-89779606D01*
X160014105Y-89764351D01*
X160019631Y-89713486D01*
X160020000Y-89706672D01*
X160020000Y-89172115D01*
X160015525Y-89156876D01*
X160014135Y-89155671D01*
X160006452Y-89154000D01*
X159022115Y-89154000D01*
X159006876Y-89158475D01*
X159005671Y-89159865D01*
X159004000Y-89167548D01*
X159004000Y-90151884D01*
X158496000Y-90151884D01*
X158496000Y-89172115D01*
X158491525Y-89156876D01*
X158490135Y-89155671D01*
X158482452Y-89154000D01*
X156482115Y-89154000D01*
X156466876Y-89158475D01*
X156465671Y-89159865D01*
X156464000Y-89167548D01*
X156464000Y-90151884D01*
X155956000Y-90151884D01*
X155956000Y-89172115D01*
X155951525Y-89156876D01*
X155950135Y-89155671D01*
X155942452Y-89154000D01*
X154958116Y-89154000D01*
X154942877Y-89158475D01*
X154941672Y-89159865D01*
X154940001Y-89167548D01*
X154940001Y-89706669D01*
X137614500Y-89706669D01*
X137614500Y-88627885D01*
X154940000Y-88627885D01*
X154944475Y-88643124D01*
X154945865Y-88644329D01*
X154953548Y-88646000D01*
X155937885Y-88646000D01*
X155953124Y-88641525D01*
X155954329Y-88640135D01*
X155956000Y-88632452D01*
X155956000Y-88627885D01*
X156464000Y-88627885D01*
X156468475Y-88643124D01*
X156469865Y-88644329D01*
X156477548Y-88646000D01*
X158477885Y-88646000D01*
X158493124Y-88641525D01*
X158494329Y-88640135D01*
X158496000Y-88632452D01*
X158496000Y-88627885D01*
X159004000Y-88627885D01*
X159008475Y-88643124D01*
X159009865Y-88644329D01*
X159017548Y-88646000D01*
X160001884Y-88646000D01*
X160017123Y-88641525D01*
X160018328Y-88640135D01*
X160019999Y-88632452D01*
X160019999Y-88093331D01*
X160019629Y-88086510D01*
X160014105Y-88035648D01*
X160010479Y-88020396D01*
X159965324Y-87899946D01*
X159956786Y-87884351D01*
X159880285Y-87782276D01*
X159867724Y-87769715D01*
X159765649Y-87693214D01*
X159750054Y-87684676D01*
X159629606Y-87639522D01*
X159614351Y-87635895D01*
X159563486Y-87630369D01*
X159556672Y-87630000D01*
X159022115Y-87630000D01*
X159006876Y-87634475D01*
X159005671Y-87635865D01*
X159004000Y-87643548D01*
X159004000Y-88627885D01*
X158496000Y-88627885D01*
X158496000Y-87648116D01*
X158491525Y-87632877D01*
X158490135Y-87631672D01*
X158482452Y-87630001D01*
X157943331Y-87630001D01*
X157936510Y-87630371D01*
X157885648Y-87635895D01*
X157870396Y-87639521D01*
X157749946Y-87684676D01*
X157734351Y-87693214D01*
X157632276Y-87769715D01*
X157619716Y-87782275D01*
X157580827Y-87834165D01*
X157523968Y-87876681D01*
X157453149Y-87881707D01*
X157390856Y-87847647D01*
X157379173Y-87834165D01*
X157340284Y-87782275D01*
X157327724Y-87769715D01*
X157225649Y-87693214D01*
X157210054Y-87684676D01*
X157089606Y-87639522D01*
X157074351Y-87635895D01*
X157023486Y-87630369D01*
X157016672Y-87630000D01*
X156482115Y-87630000D01*
X156466876Y-87634475D01*
X156465671Y-87635865D01*
X156464000Y-87643548D01*
X156464000Y-88627885D01*
X155956000Y-88627885D01*
X155956000Y-87648116D01*
X155951525Y-87632877D01*
X155950135Y-87631672D01*
X155942452Y-87630001D01*
X155403331Y-87630001D01*
X155396510Y-87630371D01*
X155345648Y-87635895D01*
X155330396Y-87639521D01*
X155209946Y-87684676D01*
X155194351Y-87693214D01*
X155092276Y-87769715D01*
X155079715Y-87782276D01*
X155003214Y-87884351D01*
X154994676Y-87899946D01*
X154949522Y-88020394D01*
X154945895Y-88035649D01*
X154940369Y-88086514D01*
X154940000Y-88093328D01*
X154940000Y-88627885D01*
X137614500Y-88627885D01*
X137614500Y-85572933D01*
X155193500Y-85572933D01*
X155193501Y-87147066D01*
X155208266Y-87221301D01*
X155264516Y-87305484D01*
X155348699Y-87361734D01*
X155422933Y-87376500D01*
X156209872Y-87376500D01*
X156997066Y-87376499D01*
X157032818Y-87369388D01*
X157059126Y-87364156D01*
X157059128Y-87364155D01*
X157071301Y-87361734D01*
X157081621Y-87354839D01*
X157081622Y-87354838D01*
X157145168Y-87312377D01*
X157155484Y-87305484D01*
X157211734Y-87221301D01*
X157226500Y-87147067D01*
X157226499Y-85572934D01*
X157226499Y-85572933D01*
X157733500Y-85572933D01*
X157733501Y-87147066D01*
X157748266Y-87221301D01*
X157804516Y-87305484D01*
X157888699Y-87361734D01*
X157962933Y-87376500D01*
X158749872Y-87376500D01*
X159537066Y-87376499D01*
X159572818Y-87369388D01*
X159599126Y-87364156D01*
X159599128Y-87364155D01*
X159611301Y-87361734D01*
X159621621Y-87354839D01*
X159621622Y-87354838D01*
X159685168Y-87312377D01*
X159695484Y-87305484D01*
X159751734Y-87221301D01*
X159766500Y-87147067D01*
X159766499Y-85572934D01*
X159751734Y-85498699D01*
X159695484Y-85414516D01*
X159611301Y-85358266D01*
X159537067Y-85343500D01*
X158750128Y-85343500D01*
X157962934Y-85343501D01*
X157927182Y-85350612D01*
X157900874Y-85355844D01*
X157900872Y-85355845D01*
X157888699Y-85358266D01*
X157878379Y-85365161D01*
X157878378Y-85365162D01*
X157817985Y-85405516D01*
X157804516Y-85414516D01*
X157748266Y-85498699D01*
X157733500Y-85572933D01*
X157226499Y-85572933D01*
X157211734Y-85498699D01*
X157155484Y-85414516D01*
X157071301Y-85358266D01*
X156997067Y-85343500D01*
X156210128Y-85343500D01*
X155422934Y-85343501D01*
X155387182Y-85350612D01*
X155360874Y-85355844D01*
X155360872Y-85355845D01*
X155348699Y-85358266D01*
X155338379Y-85365161D01*
X155338378Y-85365162D01*
X155277985Y-85405516D01*
X155264516Y-85414516D01*
X155208266Y-85498699D01*
X155193500Y-85572933D01*
X137614500Y-85572933D01*
X137614500Y-84626669D01*
X154940001Y-84626669D01*
X154940371Y-84633490D01*
X154945895Y-84684352D01*
X154949521Y-84699604D01*
X154994676Y-84820054D01*
X155003214Y-84835649D01*
X155079715Y-84937724D01*
X155092276Y-84950285D01*
X155194351Y-85026786D01*
X155209946Y-85035324D01*
X155330394Y-85080478D01*
X155345649Y-85084105D01*
X155396514Y-85089631D01*
X155403328Y-85090000D01*
X155937885Y-85090000D01*
X155953124Y-85085525D01*
X155954329Y-85084135D01*
X155956000Y-85076452D01*
X155956000Y-85071884D01*
X156464000Y-85071884D01*
X156468475Y-85087123D01*
X156469865Y-85088328D01*
X156477548Y-85089999D01*
X157016669Y-85089999D01*
X157023490Y-85089629D01*
X157074352Y-85084105D01*
X157089604Y-85080479D01*
X157210054Y-85035324D01*
X157225649Y-85026786D01*
X157327724Y-84950285D01*
X157340284Y-84937725D01*
X157379173Y-84885835D01*
X157436032Y-84843319D01*
X157506851Y-84838293D01*
X157569144Y-84872353D01*
X157580827Y-84885835D01*
X157619716Y-84937725D01*
X157632276Y-84950285D01*
X157734351Y-85026786D01*
X157749946Y-85035324D01*
X157870394Y-85080478D01*
X157885649Y-85084105D01*
X157936514Y-85089631D01*
X157943328Y-85090000D01*
X158477885Y-85090000D01*
X158493124Y-85085525D01*
X158494329Y-85084135D01*
X158496000Y-85076452D01*
X158496000Y-85071884D01*
X159004000Y-85071884D01*
X159008475Y-85087123D01*
X159009865Y-85088328D01*
X159017548Y-85089999D01*
X159556669Y-85089999D01*
X159563490Y-85089629D01*
X159614352Y-85084105D01*
X159629604Y-85080479D01*
X159750054Y-85035324D01*
X159765649Y-85026786D01*
X159867724Y-84950285D01*
X159880285Y-84937724D01*
X159956786Y-84835649D01*
X159965324Y-84820054D01*
X160010478Y-84699606D01*
X160014105Y-84684351D01*
X160019631Y-84633486D01*
X160020000Y-84626672D01*
X160020000Y-84092115D01*
X160015525Y-84076876D01*
X160014135Y-84075671D01*
X160006452Y-84074000D01*
X159022115Y-84074000D01*
X159006876Y-84078475D01*
X159005671Y-84079865D01*
X159004000Y-84087548D01*
X159004000Y-85071884D01*
X158496000Y-85071884D01*
X158496000Y-84092115D01*
X158491525Y-84076876D01*
X158490135Y-84075671D01*
X158482452Y-84074000D01*
X156482115Y-84074000D01*
X156466876Y-84078475D01*
X156465671Y-84079865D01*
X156464000Y-84087548D01*
X156464000Y-85071884D01*
X155956000Y-85071884D01*
X155956000Y-84092115D01*
X155951525Y-84076876D01*
X155950135Y-84075671D01*
X155942452Y-84074000D01*
X154958116Y-84074000D01*
X154942877Y-84078475D01*
X154941672Y-84079865D01*
X154940001Y-84087548D01*
X154940001Y-84626669D01*
X137614500Y-84626669D01*
X137614500Y-84517650D01*
X137634502Y-84449529D01*
X137651405Y-84428555D01*
X138532075Y-83547885D01*
X154940000Y-83547885D01*
X154944475Y-83563124D01*
X154945865Y-83564329D01*
X154953548Y-83566000D01*
X155937885Y-83566000D01*
X155953124Y-83561525D01*
X155954329Y-83560135D01*
X155956000Y-83552452D01*
X155956000Y-83547885D01*
X156464000Y-83547885D01*
X156468475Y-83563124D01*
X156469865Y-83564329D01*
X156477548Y-83566000D01*
X158477885Y-83566000D01*
X158493124Y-83561525D01*
X158494329Y-83560135D01*
X158496000Y-83552452D01*
X158496000Y-83547885D01*
X159004000Y-83547885D01*
X159008475Y-83563124D01*
X159009865Y-83564329D01*
X159017548Y-83566000D01*
X160001884Y-83566000D01*
X160017123Y-83561525D01*
X160018328Y-83560135D01*
X160019999Y-83552452D01*
X160019999Y-83013331D01*
X160019629Y-83006510D01*
X160014105Y-82955648D01*
X160010479Y-82940396D01*
X159965324Y-82819946D01*
X159956786Y-82804351D01*
X159880285Y-82702276D01*
X159867724Y-82689715D01*
X159765649Y-82613214D01*
X159750054Y-82604676D01*
X159629606Y-82559522D01*
X159614351Y-82555895D01*
X159563486Y-82550369D01*
X159556672Y-82550000D01*
X159022115Y-82550000D01*
X159006876Y-82554475D01*
X159005671Y-82555865D01*
X159004000Y-82563548D01*
X159004000Y-83547885D01*
X158496000Y-83547885D01*
X158496000Y-82568116D01*
X158491525Y-82552877D01*
X158490135Y-82551672D01*
X158482452Y-82550001D01*
X157943331Y-82550001D01*
X157936510Y-82550371D01*
X157885648Y-82555895D01*
X157870396Y-82559521D01*
X157749946Y-82604676D01*
X157734351Y-82613214D01*
X157632276Y-82689715D01*
X157619716Y-82702275D01*
X157580827Y-82754165D01*
X157523968Y-82796681D01*
X157453149Y-82801707D01*
X157390856Y-82767647D01*
X157379173Y-82754165D01*
X157340284Y-82702275D01*
X157327724Y-82689715D01*
X157225649Y-82613214D01*
X157210054Y-82604676D01*
X157089606Y-82559522D01*
X157074351Y-82555895D01*
X157023486Y-82550369D01*
X157016672Y-82550000D01*
X156482115Y-82550000D01*
X156466876Y-82554475D01*
X156465671Y-82555865D01*
X156464000Y-82563548D01*
X156464000Y-83547885D01*
X155956000Y-83547885D01*
X155956000Y-82568116D01*
X155951525Y-82552877D01*
X155950135Y-82551672D01*
X155942452Y-82550001D01*
X155403331Y-82550001D01*
X155396510Y-82550371D01*
X155345648Y-82555895D01*
X155330396Y-82559521D01*
X155209946Y-82604676D01*
X155194351Y-82613214D01*
X155092276Y-82689715D01*
X155079715Y-82702276D01*
X155003214Y-82804351D01*
X154994676Y-82819946D01*
X154949522Y-82940394D01*
X154945895Y-82955649D01*
X154940369Y-83006514D01*
X154940000Y-83013328D01*
X154940000Y-83547885D01*
X138532075Y-83547885D01*
X140996804Y-81083156D01*
X141059116Y-81049130D01*
X141087878Y-81046267D01*
X141092362Y-81046338D01*
X141107519Y-81046576D01*
X141107522Y-81046576D01*
X141115116Y-81046695D01*
X141269532Y-81011329D01*
X141339942Y-80975917D01*
X141404272Y-80943563D01*
X141404275Y-80943561D01*
X141411055Y-80940151D01*
X141416826Y-80935222D01*
X141416829Y-80935220D01*
X141525736Y-80842204D01*
X141525736Y-80842203D01*
X141531514Y-80837269D01*
X141623955Y-80708624D01*
X141683042Y-80561641D01*
X141705362Y-80404807D01*
X141705507Y-80391000D01*
X141686476Y-80233733D01*
X141630480Y-80085546D01*
X141540753Y-79954992D01*
X141422475Y-79849611D01*
X141415089Y-79845700D01*
X141289188Y-79779039D01*
X141289189Y-79779039D01*
X141282474Y-79775484D01*
X141128833Y-79736892D01*
X141121234Y-79736852D01*
X141121233Y-79736852D01*
X141055381Y-79736507D01*
X140970421Y-79736062D01*
X140963041Y-79737834D01*
X140963039Y-79737834D01*
X140823763Y-79771271D01*
X140823760Y-79771272D01*
X140816384Y-79773043D01*
X140675614Y-79845700D01*
X140556239Y-79949838D01*
X140465150Y-80079444D01*
X140407606Y-80227037D01*
X140406614Y-80234570D01*
X140406614Y-80234571D01*
X140388962Y-80368656D01*
X140360240Y-80433583D01*
X140353135Y-80441305D01*
X136862989Y-83931451D01*
X136851900Y-83941306D01*
X136824941Y-83962559D01*
X136819587Y-83970306D01*
X136791258Y-84011294D01*
X136788976Y-84014487D01*
X136753791Y-84062124D01*
X136751377Y-84068997D01*
X136747236Y-84074989D01*
X136744396Y-84083970D01*
X136729374Y-84131470D01*
X136728129Y-84135199D01*
X136708507Y-84191074D01*
X136708224Y-84198278D01*
X136708191Y-84198449D01*
X136706025Y-84205297D01*
X136705500Y-84211968D01*
X136705500Y-84265138D01*
X136705403Y-84270084D01*
X136703142Y-84327637D01*
X136705039Y-84334792D01*
X136705500Y-84343167D01*
X136705500Y-95377501D01*
X136685498Y-95445622D01*
X136631842Y-95492115D01*
X136579500Y-95503501D01*
X136372934Y-95503501D01*
X136337182Y-95510612D01*
X136310874Y-95515844D01*
X136310872Y-95515845D01*
X136298699Y-95518266D01*
X136288379Y-95525161D01*
X136288378Y-95525162D01*
X136227985Y-95565516D01*
X136214516Y-95574516D01*
X136158266Y-95658699D01*
X136143500Y-95732933D01*
X135636499Y-95732933D01*
X135621734Y-95658699D01*
X135565484Y-95574516D01*
X135481301Y-95518266D01*
X135407067Y-95503500D01*
X134620128Y-95503500D01*
X133832934Y-95503501D01*
X133797182Y-95510612D01*
X133770874Y-95515844D01*
X133770872Y-95515845D01*
X133758699Y-95518266D01*
X133748379Y-95525161D01*
X133748378Y-95525162D01*
X133687985Y-95565516D01*
X133674516Y-95574516D01*
X133618266Y-95658699D01*
X133603500Y-95732933D01*
X122428500Y-95732933D01*
X122428500Y-89706669D01*
X124460001Y-89706669D01*
X124460371Y-89713490D01*
X124465895Y-89764352D01*
X124469521Y-89779604D01*
X124514676Y-89900054D01*
X124523214Y-89915649D01*
X124599715Y-90017724D01*
X124612276Y-90030285D01*
X124714351Y-90106786D01*
X124729946Y-90115324D01*
X124850394Y-90160478D01*
X124865649Y-90164105D01*
X124916514Y-90169631D01*
X124923328Y-90170000D01*
X125457885Y-90170000D01*
X125473124Y-90165525D01*
X125474329Y-90164135D01*
X125476000Y-90156452D01*
X125476000Y-90151884D01*
X125984000Y-90151884D01*
X125988475Y-90167123D01*
X125989865Y-90168328D01*
X125997548Y-90169999D01*
X126536669Y-90169999D01*
X126543490Y-90169629D01*
X126594352Y-90164105D01*
X126609604Y-90160479D01*
X126730054Y-90115324D01*
X126745649Y-90106786D01*
X126847724Y-90030285D01*
X126860284Y-90017725D01*
X126899173Y-89965835D01*
X126956032Y-89923319D01*
X127026851Y-89918293D01*
X127089144Y-89952353D01*
X127100827Y-89965835D01*
X127139716Y-90017725D01*
X127152276Y-90030285D01*
X127254351Y-90106786D01*
X127269946Y-90115324D01*
X127390394Y-90160478D01*
X127405649Y-90164105D01*
X127456514Y-90169631D01*
X127463328Y-90170000D01*
X127997885Y-90170000D01*
X128013124Y-90165525D01*
X128014329Y-90164135D01*
X128016000Y-90156452D01*
X128016000Y-90151884D01*
X128524000Y-90151884D01*
X128528475Y-90167123D01*
X128529865Y-90168328D01*
X128537548Y-90169999D01*
X129076669Y-90169999D01*
X129083490Y-90169629D01*
X129134352Y-90164105D01*
X129149604Y-90160479D01*
X129270054Y-90115324D01*
X129285649Y-90106786D01*
X129387724Y-90030285D01*
X129400285Y-90017724D01*
X129476786Y-89915649D01*
X129485324Y-89900054D01*
X129530478Y-89779606D01*
X129534105Y-89764351D01*
X129539631Y-89713486D01*
X129540000Y-89706672D01*
X129540000Y-89172115D01*
X129535525Y-89156876D01*
X129534135Y-89155671D01*
X129526452Y-89154000D01*
X128542115Y-89154000D01*
X128526876Y-89158475D01*
X128525671Y-89159865D01*
X128524000Y-89167548D01*
X128524000Y-90151884D01*
X128016000Y-90151884D01*
X128016000Y-89172115D01*
X128011525Y-89156876D01*
X128010135Y-89155671D01*
X128002452Y-89154000D01*
X126002115Y-89154000D01*
X125986876Y-89158475D01*
X125985671Y-89159865D01*
X125984000Y-89167548D01*
X125984000Y-90151884D01*
X125476000Y-90151884D01*
X125476000Y-89172115D01*
X125471525Y-89156876D01*
X125470135Y-89155671D01*
X125462452Y-89154000D01*
X124478116Y-89154000D01*
X124462877Y-89158475D01*
X124461672Y-89159865D01*
X124460001Y-89167548D01*
X124460001Y-89706669D01*
X122428500Y-89706669D01*
X122428500Y-88627885D01*
X124460000Y-88627885D01*
X124464475Y-88643124D01*
X124465865Y-88644329D01*
X124473548Y-88646000D01*
X125457885Y-88646000D01*
X125473124Y-88641525D01*
X125474329Y-88640135D01*
X125476000Y-88632452D01*
X125476000Y-88627885D01*
X125984000Y-88627885D01*
X125988475Y-88643124D01*
X125989865Y-88644329D01*
X125997548Y-88646000D01*
X127997885Y-88646000D01*
X128013124Y-88641525D01*
X128014329Y-88640135D01*
X128016000Y-88632452D01*
X128016000Y-88627885D01*
X128524000Y-88627885D01*
X128528475Y-88643124D01*
X128529865Y-88644329D01*
X128537548Y-88646000D01*
X129521884Y-88646000D01*
X129537123Y-88641525D01*
X129538328Y-88640135D01*
X129539999Y-88632452D01*
X129539999Y-88093331D01*
X129539629Y-88086510D01*
X129534105Y-88035648D01*
X129530479Y-88020396D01*
X129485324Y-87899946D01*
X129476786Y-87884351D01*
X129400285Y-87782276D01*
X129387724Y-87769715D01*
X129285649Y-87693214D01*
X129270054Y-87684676D01*
X129149606Y-87639522D01*
X129134351Y-87635895D01*
X129083486Y-87630369D01*
X129076672Y-87630000D01*
X128542115Y-87630000D01*
X128526876Y-87634475D01*
X128525671Y-87635865D01*
X128524000Y-87643548D01*
X128524000Y-88627885D01*
X128016000Y-88627885D01*
X128016000Y-87648116D01*
X128011525Y-87632877D01*
X128010135Y-87631672D01*
X128002452Y-87630001D01*
X127463331Y-87630001D01*
X127456510Y-87630371D01*
X127405648Y-87635895D01*
X127390396Y-87639521D01*
X127269946Y-87684676D01*
X127254351Y-87693214D01*
X127152276Y-87769715D01*
X127139716Y-87782275D01*
X127100827Y-87834165D01*
X127043968Y-87876681D01*
X126973149Y-87881707D01*
X126910856Y-87847647D01*
X126899173Y-87834165D01*
X126860284Y-87782275D01*
X126847724Y-87769715D01*
X126745649Y-87693214D01*
X126730054Y-87684676D01*
X126609606Y-87639522D01*
X126594351Y-87635895D01*
X126543486Y-87630369D01*
X126536672Y-87630000D01*
X126002115Y-87630000D01*
X125986876Y-87634475D01*
X125985671Y-87635865D01*
X125984000Y-87643548D01*
X125984000Y-88627885D01*
X125476000Y-88627885D01*
X125476000Y-87648116D01*
X125471525Y-87632877D01*
X125470135Y-87631672D01*
X125462452Y-87630001D01*
X124923331Y-87630001D01*
X124916510Y-87630371D01*
X124865648Y-87635895D01*
X124850396Y-87639521D01*
X124729946Y-87684676D01*
X124714351Y-87693214D01*
X124612276Y-87769715D01*
X124599715Y-87782276D01*
X124523214Y-87884351D01*
X124514676Y-87899946D01*
X124469522Y-88020394D01*
X124465895Y-88035649D01*
X124460369Y-88086514D01*
X124460000Y-88093328D01*
X124460000Y-88627885D01*
X122428500Y-88627885D01*
X122428500Y-85572933D01*
X124713500Y-85572933D01*
X124713501Y-87147066D01*
X124728266Y-87221301D01*
X124784516Y-87305484D01*
X124868699Y-87361734D01*
X124942933Y-87376500D01*
X125729872Y-87376500D01*
X126517066Y-87376499D01*
X126552818Y-87369388D01*
X126579126Y-87364156D01*
X126579128Y-87364155D01*
X126591301Y-87361734D01*
X126601621Y-87354839D01*
X126601622Y-87354838D01*
X126665168Y-87312377D01*
X126675484Y-87305484D01*
X126731734Y-87221301D01*
X126746500Y-87147067D01*
X126746499Y-85572934D01*
X126746499Y-85572933D01*
X127253500Y-85572933D01*
X127253501Y-87147066D01*
X127268266Y-87221301D01*
X127324516Y-87305484D01*
X127408699Y-87361734D01*
X127482933Y-87376500D01*
X128269872Y-87376500D01*
X129057066Y-87376499D01*
X129092818Y-87369388D01*
X129119126Y-87364156D01*
X129119128Y-87364155D01*
X129131301Y-87361734D01*
X129141621Y-87354839D01*
X129141622Y-87354838D01*
X129205168Y-87312377D01*
X129215484Y-87305484D01*
X129271734Y-87221301D01*
X129286500Y-87147067D01*
X129286499Y-85572934D01*
X129271734Y-85498699D01*
X129215484Y-85414516D01*
X129131301Y-85358266D01*
X129057067Y-85343500D01*
X128270128Y-85343500D01*
X127482934Y-85343501D01*
X127447182Y-85350612D01*
X127420874Y-85355844D01*
X127420872Y-85355845D01*
X127408699Y-85358266D01*
X127398379Y-85365161D01*
X127398378Y-85365162D01*
X127337985Y-85405516D01*
X127324516Y-85414516D01*
X127268266Y-85498699D01*
X127253500Y-85572933D01*
X126746499Y-85572933D01*
X126731734Y-85498699D01*
X126675484Y-85414516D01*
X126591301Y-85358266D01*
X126517067Y-85343500D01*
X125730128Y-85343500D01*
X124942934Y-85343501D01*
X124907182Y-85350612D01*
X124880874Y-85355844D01*
X124880872Y-85355845D01*
X124868699Y-85358266D01*
X124858379Y-85365161D01*
X124858378Y-85365162D01*
X124797985Y-85405516D01*
X124784516Y-85414516D01*
X124728266Y-85498699D01*
X124713500Y-85572933D01*
X122428500Y-85572933D01*
X122428500Y-84626669D01*
X124460001Y-84626669D01*
X124460371Y-84633490D01*
X124465895Y-84684352D01*
X124469521Y-84699604D01*
X124514676Y-84820054D01*
X124523214Y-84835649D01*
X124599715Y-84937724D01*
X124612276Y-84950285D01*
X124714351Y-85026786D01*
X124729946Y-85035324D01*
X124850394Y-85080478D01*
X124865649Y-85084105D01*
X124916514Y-85089631D01*
X124923328Y-85090000D01*
X125457885Y-85090000D01*
X125473124Y-85085525D01*
X125474329Y-85084135D01*
X125476000Y-85076452D01*
X125476000Y-85071884D01*
X125984000Y-85071884D01*
X125988475Y-85087123D01*
X125989865Y-85088328D01*
X125997548Y-85089999D01*
X126536669Y-85089999D01*
X126543490Y-85089629D01*
X126594352Y-85084105D01*
X126609604Y-85080479D01*
X126730054Y-85035324D01*
X126745649Y-85026786D01*
X126847724Y-84950285D01*
X126860284Y-84937725D01*
X126899173Y-84885835D01*
X126956032Y-84843319D01*
X127026851Y-84838293D01*
X127089144Y-84872353D01*
X127100827Y-84885835D01*
X127139716Y-84937725D01*
X127152276Y-84950285D01*
X127254351Y-85026786D01*
X127269946Y-85035324D01*
X127390394Y-85080478D01*
X127405649Y-85084105D01*
X127456514Y-85089631D01*
X127463328Y-85090000D01*
X127997885Y-85090000D01*
X128013124Y-85085525D01*
X128014329Y-85084135D01*
X128016000Y-85076452D01*
X128016000Y-85071884D01*
X128524000Y-85071884D01*
X128528475Y-85087123D01*
X128529865Y-85088328D01*
X128537548Y-85089999D01*
X129076669Y-85089999D01*
X129083490Y-85089629D01*
X129134352Y-85084105D01*
X129149604Y-85080479D01*
X129270054Y-85035324D01*
X129285649Y-85026786D01*
X129387724Y-84950285D01*
X129400285Y-84937724D01*
X129476786Y-84835649D01*
X129485324Y-84820054D01*
X129530478Y-84699606D01*
X129534105Y-84684351D01*
X129539631Y-84633486D01*
X129540000Y-84626672D01*
X129540000Y-84092115D01*
X129535525Y-84076876D01*
X129534135Y-84075671D01*
X129526452Y-84074000D01*
X128542115Y-84074000D01*
X128526876Y-84078475D01*
X128525671Y-84079865D01*
X128524000Y-84087548D01*
X128524000Y-85071884D01*
X128016000Y-85071884D01*
X128016000Y-84092115D01*
X128011525Y-84076876D01*
X128010135Y-84075671D01*
X128002452Y-84074000D01*
X126002115Y-84074000D01*
X125986876Y-84078475D01*
X125985671Y-84079865D01*
X125984000Y-84087548D01*
X125984000Y-85071884D01*
X125476000Y-85071884D01*
X125476000Y-84092115D01*
X125471525Y-84076876D01*
X125470135Y-84075671D01*
X125462452Y-84074000D01*
X124478116Y-84074000D01*
X124462877Y-84078475D01*
X124461672Y-84079865D01*
X124460001Y-84087548D01*
X124460001Y-84626669D01*
X122428500Y-84626669D01*
X122428500Y-83547885D01*
X124460000Y-83547885D01*
X124464475Y-83563124D01*
X124465865Y-83564329D01*
X124473548Y-83566000D01*
X125457885Y-83566000D01*
X125473124Y-83561525D01*
X125474329Y-83560135D01*
X125476000Y-83552452D01*
X125476000Y-83547885D01*
X125984000Y-83547885D01*
X125988475Y-83563124D01*
X125989865Y-83564329D01*
X125997548Y-83566000D01*
X127997885Y-83566000D01*
X128013124Y-83561525D01*
X128014329Y-83560135D01*
X128016000Y-83552452D01*
X128016000Y-83547885D01*
X128524000Y-83547885D01*
X128528475Y-83563124D01*
X128529865Y-83564329D01*
X128537548Y-83566000D01*
X129521884Y-83566000D01*
X129537123Y-83561525D01*
X129538328Y-83560135D01*
X129539999Y-83552452D01*
X129539999Y-83013331D01*
X129539629Y-83006510D01*
X129534105Y-82955648D01*
X129530479Y-82940396D01*
X129485324Y-82819946D01*
X129476786Y-82804351D01*
X129400285Y-82702276D01*
X129387724Y-82689715D01*
X129285649Y-82613214D01*
X129270054Y-82604676D01*
X129149606Y-82559522D01*
X129134351Y-82555895D01*
X129083486Y-82550369D01*
X129076672Y-82550000D01*
X128542115Y-82550000D01*
X128526876Y-82554475D01*
X128525671Y-82555865D01*
X128524000Y-82563548D01*
X128524000Y-83547885D01*
X128016000Y-83547885D01*
X128016000Y-82568116D01*
X128011525Y-82552877D01*
X128010135Y-82551672D01*
X128002452Y-82550001D01*
X127463331Y-82550001D01*
X127456510Y-82550371D01*
X127405648Y-82555895D01*
X127390396Y-82559521D01*
X127269946Y-82604676D01*
X127254351Y-82613214D01*
X127152276Y-82689715D01*
X127139716Y-82702275D01*
X127100827Y-82754165D01*
X127043968Y-82796681D01*
X126973149Y-82801707D01*
X126910856Y-82767647D01*
X126899173Y-82754165D01*
X126860284Y-82702275D01*
X126847724Y-82689715D01*
X126745649Y-82613214D01*
X126730054Y-82604676D01*
X126609606Y-82559522D01*
X126594351Y-82555895D01*
X126543486Y-82550369D01*
X126536672Y-82550000D01*
X126002115Y-82550000D01*
X125986876Y-82554475D01*
X125985671Y-82555865D01*
X125984000Y-82563548D01*
X125984000Y-83547885D01*
X125476000Y-83547885D01*
X125476000Y-82568116D01*
X125471525Y-82552877D01*
X125470135Y-82551672D01*
X125462452Y-82550001D01*
X124923331Y-82550001D01*
X124916510Y-82550371D01*
X124865648Y-82555895D01*
X124850396Y-82559521D01*
X124729946Y-82604676D01*
X124714351Y-82613214D01*
X124612276Y-82689715D01*
X124599715Y-82702276D01*
X124523214Y-82804351D01*
X124514676Y-82819946D01*
X124469522Y-82940394D01*
X124465895Y-82955649D01*
X124460369Y-83006514D01*
X124460000Y-83013328D01*
X124460000Y-83547885D01*
X122428500Y-83547885D01*
X122428500Y-75412933D01*
X133603500Y-75412933D01*
X133603501Y-76987066D01*
X133618266Y-77061301D01*
X133674516Y-77145484D01*
X133758699Y-77201734D01*
X133832933Y-77216500D01*
X134619872Y-77216500D01*
X135407066Y-77216499D01*
X135442818Y-77209388D01*
X135469126Y-77204156D01*
X135469128Y-77204155D01*
X135481301Y-77201734D01*
X135491621Y-77194839D01*
X135491622Y-77194838D01*
X135555168Y-77152377D01*
X135565484Y-77145484D01*
X135621734Y-77061301D01*
X135636500Y-76987067D01*
X135636499Y-75412934D01*
X135636499Y-75412933D01*
X136143500Y-75412933D01*
X136143501Y-76987066D01*
X136158266Y-77061301D01*
X136214516Y-77145484D01*
X136298699Y-77201734D01*
X136372933Y-77216500D01*
X137159872Y-77216500D01*
X137947066Y-77216499D01*
X137982818Y-77209388D01*
X138009126Y-77204156D01*
X138009128Y-77204155D01*
X138021301Y-77201734D01*
X138031621Y-77194839D01*
X138031622Y-77194838D01*
X138095168Y-77152377D01*
X138105484Y-77145484D01*
X138161734Y-77061301D01*
X138172601Y-77006669D01*
X138430001Y-77006669D01*
X138430371Y-77013490D01*
X138435895Y-77064352D01*
X138439521Y-77079604D01*
X138484676Y-77200054D01*
X138493214Y-77215649D01*
X138569715Y-77317724D01*
X138582276Y-77330285D01*
X138684351Y-77406786D01*
X138699946Y-77415324D01*
X138820394Y-77460478D01*
X138835649Y-77464105D01*
X138886514Y-77469631D01*
X138893328Y-77470000D01*
X139427885Y-77470000D01*
X139443124Y-77465525D01*
X139444329Y-77464135D01*
X139446000Y-77456452D01*
X139446000Y-77451884D01*
X139954000Y-77451884D01*
X139958475Y-77467123D01*
X139959865Y-77468328D01*
X139967548Y-77469999D01*
X140506669Y-77469999D01*
X140513490Y-77469629D01*
X140564352Y-77464105D01*
X140579604Y-77460479D01*
X140700054Y-77415324D01*
X140715649Y-77406786D01*
X140817724Y-77330285D01*
X140830285Y-77317724D01*
X140906786Y-77215649D01*
X140915324Y-77200054D01*
X140960478Y-77079606D01*
X140964105Y-77064351D01*
X140969631Y-77013486D01*
X140970000Y-77006672D01*
X140970000Y-76472115D01*
X140965525Y-76456876D01*
X140964135Y-76455671D01*
X140956452Y-76454000D01*
X139972115Y-76454000D01*
X139956876Y-76458475D01*
X139955671Y-76459865D01*
X139954000Y-76467548D01*
X139954000Y-77451884D01*
X139446000Y-77451884D01*
X139446000Y-76472115D01*
X139441525Y-76456876D01*
X139440135Y-76455671D01*
X139432452Y-76454000D01*
X138448116Y-76454000D01*
X138432877Y-76458475D01*
X138431672Y-76459865D01*
X138430001Y-76467548D01*
X138430001Y-77006669D01*
X138172601Y-77006669D01*
X138176500Y-76987067D01*
X138176499Y-75927885D01*
X138430000Y-75927885D01*
X138434475Y-75943124D01*
X138435865Y-75944329D01*
X138443548Y-75946000D01*
X139427885Y-75946000D01*
X139443124Y-75941525D01*
X139444329Y-75940135D01*
X139446000Y-75932452D01*
X139446000Y-75927885D01*
X139954000Y-75927885D01*
X139958475Y-75943124D01*
X139959865Y-75944329D01*
X139967548Y-75946000D01*
X140951884Y-75946000D01*
X140967123Y-75941525D01*
X140968328Y-75940135D01*
X140969999Y-75932452D01*
X140969999Y-75412933D01*
X143763500Y-75412933D01*
X143763501Y-76987066D01*
X143778266Y-77061301D01*
X143834516Y-77145484D01*
X143918699Y-77201734D01*
X143992933Y-77216500D01*
X144779872Y-77216500D01*
X145567066Y-77216499D01*
X145602818Y-77209388D01*
X145629126Y-77204156D01*
X145629128Y-77204155D01*
X145641301Y-77201734D01*
X145651621Y-77194839D01*
X145651622Y-77194838D01*
X145715168Y-77152377D01*
X145725484Y-77145484D01*
X145781734Y-77061301D01*
X145796500Y-76987067D01*
X145796499Y-75412934D01*
X145796499Y-75412933D01*
X146303500Y-75412933D01*
X146303501Y-76987066D01*
X146318266Y-77061301D01*
X146374516Y-77145484D01*
X146458699Y-77201734D01*
X146532933Y-77216500D01*
X147319872Y-77216500D01*
X148107066Y-77216499D01*
X148142818Y-77209388D01*
X148169126Y-77204156D01*
X148169128Y-77204155D01*
X148181301Y-77201734D01*
X148191621Y-77194839D01*
X148191622Y-77194838D01*
X148255168Y-77152377D01*
X148265484Y-77145484D01*
X148321734Y-77061301D01*
X148336500Y-76987067D01*
X148336499Y-75412934D01*
X148336499Y-75412933D01*
X148843500Y-75412933D01*
X148843501Y-76987066D01*
X148858266Y-77061301D01*
X148914516Y-77145484D01*
X148998699Y-77201734D01*
X149072933Y-77216500D01*
X149859872Y-77216500D01*
X150647066Y-77216499D01*
X150682818Y-77209388D01*
X150709126Y-77204156D01*
X150709128Y-77204155D01*
X150721301Y-77201734D01*
X150731621Y-77194839D01*
X150731622Y-77194838D01*
X150795168Y-77152377D01*
X150805484Y-77145484D01*
X150861734Y-77061301D01*
X150876500Y-76987067D01*
X150876499Y-75412934D01*
X150861734Y-75338699D01*
X150805484Y-75254516D01*
X150721301Y-75198266D01*
X150647067Y-75183500D01*
X149860128Y-75183500D01*
X149072934Y-75183501D01*
X149037182Y-75190612D01*
X149010874Y-75195844D01*
X149010872Y-75195845D01*
X148998699Y-75198266D01*
X148988379Y-75205161D01*
X148988378Y-75205162D01*
X148927985Y-75245516D01*
X148914516Y-75254516D01*
X148858266Y-75338699D01*
X148843500Y-75412933D01*
X148336499Y-75412933D01*
X148321734Y-75338699D01*
X148265484Y-75254516D01*
X148181301Y-75198266D01*
X148107067Y-75183500D01*
X147320128Y-75183500D01*
X146532934Y-75183501D01*
X146497182Y-75190612D01*
X146470874Y-75195844D01*
X146470872Y-75195845D01*
X146458699Y-75198266D01*
X146448379Y-75205161D01*
X146448378Y-75205162D01*
X146387985Y-75245516D01*
X146374516Y-75254516D01*
X146318266Y-75338699D01*
X146303500Y-75412933D01*
X145796499Y-75412933D01*
X145781734Y-75338699D01*
X145725484Y-75254516D01*
X145641301Y-75198266D01*
X145567067Y-75183500D01*
X144780128Y-75183500D01*
X143992934Y-75183501D01*
X143957182Y-75190612D01*
X143930874Y-75195844D01*
X143930872Y-75195845D01*
X143918699Y-75198266D01*
X143908379Y-75205161D01*
X143908378Y-75205162D01*
X143847985Y-75245516D01*
X143834516Y-75254516D01*
X143778266Y-75338699D01*
X143763500Y-75412933D01*
X140969999Y-75412933D01*
X140969999Y-75393331D01*
X140969629Y-75386510D01*
X140964105Y-75335648D01*
X140960479Y-75320396D01*
X140915324Y-75199946D01*
X140906786Y-75184351D01*
X140830285Y-75082276D01*
X140817724Y-75069715D01*
X140715649Y-74993214D01*
X140700054Y-74984676D01*
X140579606Y-74939522D01*
X140564351Y-74935895D01*
X140513486Y-74930369D01*
X140506672Y-74930000D01*
X139972115Y-74930000D01*
X139956876Y-74934475D01*
X139955671Y-74935865D01*
X139954000Y-74943548D01*
X139954000Y-75927885D01*
X139446000Y-75927885D01*
X139446000Y-74948116D01*
X139441525Y-74932877D01*
X139440135Y-74931672D01*
X139432452Y-74930001D01*
X138893331Y-74930001D01*
X138886510Y-74930371D01*
X138835648Y-74935895D01*
X138820396Y-74939521D01*
X138699946Y-74984676D01*
X138684351Y-74993214D01*
X138582276Y-75069715D01*
X138569715Y-75082276D01*
X138493214Y-75184351D01*
X138484676Y-75199946D01*
X138439522Y-75320394D01*
X138435895Y-75335649D01*
X138430369Y-75386514D01*
X138430000Y-75393328D01*
X138430000Y-75927885D01*
X138176499Y-75927885D01*
X138176499Y-75412934D01*
X138161734Y-75338699D01*
X138105484Y-75254516D01*
X138021301Y-75198266D01*
X137947067Y-75183500D01*
X137160128Y-75183500D01*
X136372934Y-75183501D01*
X136337182Y-75190612D01*
X136310874Y-75195844D01*
X136310872Y-75195845D01*
X136298699Y-75198266D01*
X136288379Y-75205161D01*
X136288378Y-75205162D01*
X136227985Y-75245516D01*
X136214516Y-75254516D01*
X136158266Y-75338699D01*
X136143500Y-75412933D01*
X135636499Y-75412933D01*
X135621734Y-75338699D01*
X135565484Y-75254516D01*
X135481301Y-75198266D01*
X135407067Y-75183500D01*
X134620128Y-75183500D01*
X133832934Y-75183501D01*
X133797182Y-75190612D01*
X133770874Y-75195844D01*
X133770872Y-75195845D01*
X133758699Y-75198266D01*
X133748379Y-75205161D01*
X133748378Y-75205162D01*
X133687985Y-75245516D01*
X133674516Y-75254516D01*
X133618266Y-75338699D01*
X133603500Y-75412933D01*
X122428500Y-75412933D01*
X122428500Y-71754500D01*
X122448502Y-71686379D01*
X122502158Y-71639886D01*
X122554500Y-71628500D01*
X161925500Y-71628500D01*
X161993621Y-71648502D01*
G37*
%TD.AperFunction*%
%TD*%
M02*
