M48
; DRILL file {KiCad 6.0.11+dfsg-1~bpo11+1} date Thu Apr 13 12:19:45 2023
; FORMAT={-:-/ absolute / metric / decimal}
; #@! TF.CreationDate,2023-04-13T12:19:45+00:00
; #@! TF.GenerationSoftware,Kicad,Pcbnew,6.0.11+dfsg-1~bpo11+1
; #@! TF.FileFunction,Plated,1,2,PTH
FMAT,2
METRIC
; #@! TA.AperFunction,Plated,PTH,ViaDrill
T1C0.400
; #@! TA.AperFunction,Plated,PTH,ComponentDrill
T2C0.889
; #@! TA.AperFunction,Plated,PTH,ComponentDrill
T3C3.000
%
G90
G05
T1
X141.046Y-80.391
X142.418Y-81.839
T2
X125.73Y-83.82
X125.73Y-86.36
X125.73Y-88.9
X128.27Y-83.82
X128.27Y-86.36
X128.27Y-88.9
X134.62Y-76.2
X134.62Y-96.52
X137.16Y-76.2
X137.16Y-96.52
X139.7Y-76.2
X139.7Y-96.52
X144.78Y-76.2
X144.78Y-95.25
X144.78Y-97.79
X147.32Y-76.2
X147.32Y-95.25
X147.32Y-97.79
X149.86Y-76.2
X149.86Y-95.25
X149.86Y-97.79
X156.21Y-83.82
X156.21Y-86.36
X156.21Y-88.9
X158.75Y-83.82
X158.75Y-86.36
X158.75Y-88.9
T3
X127.0Y-76.2
X127.0Y-96.52
X157.48Y-76.2
X157.48Y-96.52
T0
M30
