%TF.GenerationSoftware,KiCad,Pcbnew,6.0.10+dfsg-1~bpo11+1*%
%TF.CreationDate,2023-01-24T16:04:12+00:00*%
%TF.ProjectId,STEPBUBODC01A,53544550-4255-4424-9f44-433031412e6b,rev?*%
%TF.SameCoordinates,Original*%
%TF.FileFunction,Soldermask,Bot*%
%TF.FilePolarity,Negative*%
%FSLAX46Y46*%
G04 Gerber Fmt 4.6, Leading zero omitted, Abs format (unit mm)*
G04 Created by KiCad (PCBNEW 6.0.10+dfsg-1~bpo11+1) date 2023-01-24 16:04:12*
%MOMM*%
%LPD*%
G01*
G04 APERTURE LIST*
G04 Aperture macros list*
%AMRoundRect*
0 Rectangle with rounded corners*
0 $1 Rounding radius*
0 $2 $3 $4 $5 $6 $7 $8 $9 X,Y pos of 4 corners*
0 Add a 4 corners polygon primitive as box body*
4,1,4,$2,$3,$4,$5,$6,$7,$8,$9,$2,$3,0*
0 Add four circle primitives for the rounded corners*
1,1,$1+$1,$2,$3*
1,1,$1+$1,$4,$5*
1,1,$1+$1,$6,$7*
1,1,$1+$1,$8,$9*
0 Add four rect primitives between the rounded corners*
20,1,$1+$1,$2,$3,$4,$5,0*
20,1,$1+$1,$4,$5,$6,$7,0*
20,1,$1+$1,$6,$7,$8,$9,0*
20,1,$1+$1,$8,$9,$2,$3,0*%
G04 Aperture macros list end*
%ADD10R,1.524000X1.524000*%
%ADD11C,6.000000*%
%ADD12R,0.889000X1.397000*%
%ADD13R,1.397000X0.889000*%
%ADD14R,0.300000X0.475000*%
%ADD15RoundRect,0.250000X-0.375000X-0.850000X0.375000X-0.850000X0.375000X0.850000X-0.375000X0.850000X0*%
G04 APERTURE END LIST*
D10*
%TO.C,J4*%
X149860000Y-76200000D03*
X147320000Y-76200000D03*
X144780000Y-76200000D03*
%TD*%
%TO.C,J2*%
X125730000Y-83820000D03*
X128270000Y-83820000D03*
X125730000Y-86360000D03*
X128270000Y-86360000D03*
X125730000Y-88900000D03*
X128270000Y-88900000D03*
%TD*%
D11*
%TO.C,H3*%
X127000000Y-96520000D03*
%TD*%
%TO.C,H4*%
X157480000Y-76200000D03*
%TD*%
D10*
%TO.C,J1*%
X139700000Y-76200000D03*
X137160000Y-76200000D03*
X134620000Y-76200000D03*
%TD*%
%TO.C,J3*%
X139700000Y-96520000D03*
X137160000Y-96520000D03*
X134620000Y-96520000D03*
%TD*%
D11*
%TO.C,H2*%
X157480000Y-96520000D03*
%TD*%
D10*
%TO.C,J5*%
X149860000Y-95250000D03*
X149860000Y-97790000D03*
X147320000Y-95250000D03*
X147320000Y-97790000D03*
X144780000Y-95250000D03*
X144780000Y-97790000D03*
%TD*%
D11*
%TO.C,H1*%
X127000000Y-76200000D03*
%TD*%
D10*
%TO.C,J6*%
X156210000Y-83820000D03*
X158750000Y-83820000D03*
X156210000Y-86360000D03*
X158750000Y-86360000D03*
X156210000Y-88900000D03*
X158750000Y-88900000D03*
%TD*%
D12*
%TO.C,R2*%
X146494500Y-78994000D03*
X144589500Y-78994000D03*
%TD*%
D13*
%TO.C,C3*%
X146558000Y-84518500D03*
X146558000Y-82613500D03*
%TD*%
%TO.C,C2*%
X144526000Y-84518500D03*
X144526000Y-82613500D03*
%TD*%
D14*
%TO.C,U1*%
X142736000Y-84658000D03*
X142236000Y-84658000D03*
X141736000Y-84658000D03*
X141236000Y-84658000D03*
X141236000Y-82982000D03*
X141736000Y-82982000D03*
X142236000Y-82982000D03*
X142736000Y-82982000D03*
%TD*%
D12*
%TO.C,R3*%
X148145500Y-78994000D03*
X150050500Y-78994000D03*
%TD*%
D13*
%TO.C,C1*%
X139446000Y-84518500D03*
X139446000Y-82613500D03*
%TD*%
%TO.C,R1*%
X142748000Y-80454500D03*
X142748000Y-78549500D03*
%TD*%
D15*
%TO.C,L1*%
X140911000Y-86614000D03*
X143061000Y-86614000D03*
%TD*%
M02*
