%TF.GenerationSoftware,KiCad,Pcbnew,6.0.11+dfsg-1~bpo11+1*%
%TF.CreationDate,2023-04-13T12:19:45+00:00*%
%TF.ProjectId,STEPBUBODC01A,53544550-4255-4424-9f44-433031412e6b,rev?*%
%TF.SameCoordinates,Original*%
%TF.FileFunction,Legend,Bot*%
%TF.FilePolarity,Positive*%
%FSLAX46Y46*%
G04 Gerber Fmt 4.6, Leading zero omitted, Abs format (unit mm)*
G04 Created by KiCad (PCBNEW 6.0.11+dfsg-1~bpo11+1) date 2023-04-13 12:19:45*
%MOMM*%
%LPD*%
G01*
G04 APERTURE LIST*
%ADD10C,0.150000*%
%ADD11C,0.120000*%
%ADD12C,0.200000*%
G04 APERTURE END LIST*
D10*
%TO.C,L1*%
X142152666Y-89116380D02*
X142628857Y-89116380D01*
X142628857Y-88116380D01*
X141295523Y-89116380D02*
X141866952Y-89116380D01*
X141581238Y-89116380D02*
X141581238Y-88116380D01*
X141676476Y-88259238D01*
X141771714Y-88354476D01*
X141866952Y-88402095D01*
%TO.C,R2*%
X144018000Y-78232000D02*
X144018000Y-79756000D01*
D11*
X145923000Y-78232000D02*
X145161000Y-78232000D01*
D10*
X147066000Y-79756000D02*
X147066000Y-78232000D01*
D11*
X145923000Y-79756000D02*
X145161000Y-79756000D01*
D10*
%TO.C,C3*%
X147320000Y-82042000D02*
X145796000Y-82042000D01*
X145796000Y-85090000D02*
X147320000Y-85090000D01*
D11*
X145796000Y-83947000D02*
X145796000Y-83185000D01*
X147320000Y-83947000D02*
X147320000Y-83185000D01*
D10*
%TO.C,C2*%
X145288000Y-82042000D02*
X143764000Y-82042000D01*
X143764000Y-85090000D02*
X145288000Y-85090000D01*
D11*
X145288000Y-83947000D02*
X145288000Y-83185000D01*
X143764000Y-83947000D02*
X143764000Y-83185000D01*
D12*
%TO.C,U1*%
X143036000Y-84070000D02*
X143036000Y-83570000D01*
X140936000Y-83570000D02*
X140936000Y-84070000D01*
X140936000Y-84070000D02*
X143036000Y-84070000D01*
X143136000Y-84895000D02*
X143136000Y-84420000D01*
X143036000Y-83570000D02*
X140936000Y-83570000D01*
D10*
%TO.C,R3*%
X150622000Y-79756000D02*
X150622000Y-78232000D01*
X147574000Y-78232000D02*
X147574000Y-79756000D01*
D11*
X148717000Y-78232000D02*
X149479000Y-78232000D01*
X148717000Y-79756000D02*
X149479000Y-79756000D01*
%TO.C,C1*%
X138684000Y-83947000D02*
X138684000Y-83185000D01*
D10*
X140208000Y-82042000D02*
X138684000Y-82042000D01*
X138684000Y-85090000D02*
X140208000Y-85090000D01*
D11*
X140208000Y-83947000D02*
X140208000Y-83185000D01*
D10*
%TO.C,R1*%
X141986000Y-81026000D02*
X143510000Y-81026000D01*
X143510000Y-77978000D02*
X141986000Y-77978000D01*
D11*
X141986000Y-79883000D02*
X141986000Y-79121000D01*
X143510000Y-79883000D02*
X143510000Y-79121000D01*
%TO.C,L1*%
X141724748Y-87724000D02*
X142247252Y-87724000D01*
X141724748Y-85504000D02*
X142247252Y-85504000D01*
%TD*%
M02*
