  0
SECTION
  2
HEADER
  9
$ANGBASE
  50
0.0
  9
$ANGDIR
  70
1
  9
$MEASUREMENT
  70
0
  0
ENDSEC
  0
SECTION
  2
TABLES
  0
TABLE
  2
LTYPE
  70
4
  0
LTYPE
  5
40F
  2
CONTINUOUS
  70
0
  3
Solid line
  72
65
  73
0
  40
0.0
  0
LTYPE
  5
410
  2
DASHDOT
 70
0
  3
Dash Dot ____ _ ____ _
 72
65
 73
4
 40
2.0
 49
1.25
 49
-0.25
 49
0.25
 49
-0.25
  0
LTYPE
  5
411
  2
DASHED
 70
0
  3
Dashed __ __ __ __ __
 72
65
 73
2
 40
0.75
 49
0.5
 49
-0.25
  0
LTYPE
  5
43B
  2
DOTTED
 70
0
  3
Dotted .  .  .  .
 72
65
 73
2
 40
0.2
 49
0.0
 49
-0.2
  0
ENDTAB
  0
TABLE
  2
STYLE
  70
4
  0
STYLE
  2
KICAD
  70
0
  40
0
  41
1
  42
1
  50
0
  71
0
  3
isocp.shx
  0
STYLE
  2
KICADB
  70
0
  40
0
  41
1
  42
1
  50
0
  71
0
  3
isocp.shx
  0
STYLE
  2
KICADI
  70
0
  40
0
  41
1
  42
1
  50
15
  71
0
  3
isocp.shx
  0
STYLE
  2
KICADBI
  70
0
  40
0
  41
1
  42
1
  50
15
  71
0
  3
isocp.shx
  0
ENDTAB
  0
TABLE
  2
LAYER
  70
1
  0
LAYER
  2
BLACK
  70
0
  62
7
  6
CONTINUOUS
  0
ENDTAB
  0
ENDSEC
  0
SECTION
  2
ENTITIES
0
LINE
8
BLACK
6
CONTINUOUS
10
0.822406
20
0.387535
11
0.823097
21
0.385637
0
LINE
8
BLACK
6
CONTINUOUS
10
0.823097
20
0.385637
11
0.823097
21
0.357516
0
LINE
8
BLACK
6
CONTINUOUS
10
0.823097
20
0.357516
11
0.822944
21
0.356646
0
LINE
8
BLACK
6
CONTINUOUS
10
0.822944
20
0.356646
11
0.822946
21
0.356582
0
LINE
8
BLACK
6
CONTINUOUS
10
0.822946
20
0.356582
11
0.821071
21
0.350958
0
LINE
8
BLACK
6
CONTINUOUS
10
0.821071
20
0.350958
11
0.820582
21
0.350056
0
LINE
8
BLACK
6
CONTINUOUS
10
0.820582
20
0.350056
11
0.820432
21
0.349963
0
LINE
8
BLACK
6
CONTINUOUS
10
0.820432
20
0.349963
11
0.820358
21
0.349803
0
LINE
8
BLACK
6
CONTINUOUS
10
0.820358
20
0.349803
11
0.816608
21
0.346054
0
LINE
8
BLACK
6
CONTINUOUS
10
0.816608
20
0.346054
11
0.815768
21
0.345466
0
LINE
8
BLACK
6
CONTINUOUS
10
0.815768
20
0.345466
11
0.815592
21
0.34545
0
LINE
8
BLACK
6
CONTINUOUS
10
0.815592
20
0.34545
11
0.815454
21
0.345341
0
LINE
8
BLACK
6
CONTINUOUS
10
0.815454
20
0.345341
11
0.809829
21
0.343466
0
LINE
8
BLACK
6
CONTINUOUS
10
0.809829
20
0.343466
11
0.808956
21
0.343336
0
LINE
8
BLACK
6
CONTINUOUS
10
0.808956
20
0.343336
11
0.808896
21
0.343314
0
LINE
8
BLACK
6
CONTINUOUS
10
0.808896
20
0.343314
11
0.805146
21
0.343314
0
LINE
8
BLACK
6
CONTINUOUS
10
0.805146
20
0.343314
11
0.804136
21
0.343492
0
LINE
8
BLACK
6
CONTINUOUS
10
0.804136
20
0.343492
11
0.802589
21
0.344791
0
LINE
8
BLACK
6
CONTINUOUS
10
0.802589
20
0.344791
11
0.802238
21
0.34678
0
LINE
8
BLACK
6
CONTINUOUS
10
0.802238
20
0.34678
11
0.803248
21
0.348529
0
LINE
8
BLACK
6
CONTINUOUS
10
0.803248
20
0.348529
11
0.805146
21
0.34922
0
LINE
8
BLACK
6
CONTINUOUS
10
0.805146
20
0.34922
11
0.808417
21
0.34922
0
LINE
8
BLACK
6
CONTINUOUS
10
0.808417
20
0.34922
11
0.812925
21
0.350723
0
LINE
8
BLACK
6
CONTINUOUS
10
0.812925
20
0.350723
11
0.815689
21
0.353486
0
LINE
8
BLACK
6
CONTINUOUS
10
0.815689
20
0.353486
11
0.817192
21
0.357995
0
LINE
8
BLACK
6
CONTINUOUS
10
0.817192
20
0.357995
11
0.817192
21
0.385637
0
LINE
8
BLACK
6
CONTINUOUS
10
0.817192
20
0.385637
11
0.81737
21
0.386647
0
LINE
8
BLACK
6
CONTINUOUS
10
0.81737
20
0.386647
11
0.818668
21
0.388194
0
LINE
8
BLACK
6
CONTINUOUS
10
0.818668
20
0.388194
11
0.820657
21
0.388545
0
LINE
8
BLACK
6
CONTINUOUS
10
0.820657
20
0.388545
11
0.822406
21
0.387535
0
LINE
8
BLACK
6
CONTINUOUS
10
0.85865
20
0.388412
11
0.860197
21
0.387113
0
LINE
8
BLACK
6
CONTINUOUS
10
0.860197
20
0.387113
11
0.860548
21
0.385124
0
LINE
8
BLACK
6
CONTINUOUS
10
0.860548
20
0.385124
11
0.859538
21
0.383375
0
LINE
8
BLACK
6
CONTINUOUS
10
0.859538
20
0.383375
11
0.85764
21
0.382684
0
LINE
8
BLACK
6
CONTINUOUS
10
0.85764
20
0.382684
11
0.841564
21
0.382684
0
LINE
8
BLACK
6
CONTINUOUS
10
0.841564
20
0.382684
11
0.840587
21
0.372913
0
LINE
8
BLACK
6
CONTINUOUS
10
0.840587
20
0.372913
11
0.841321
21
0.37328
0
LINE
8
BLACK
6
CONTINUOUS
10
0.841321
20
0.37328
11
0.842304
21
0.373572
0
LINE
8
BLACK
6
CONTINUOUS
10
0.842304
20
0.373572
11
0.842476
21
0.373531
0
LINE
8
BLACK
6
CONTINUOUS
10
0.842476
20
0.373531
11
0.842642
21
0.373592
0
LINE
8
BLACK
6
CONTINUOUS
10
0.842642
20
0.373592
11
0.852015
21
0.373592
0
LINE
8
BLACK
6
CONTINUOUS
10
0.852015
20
0.373592
11
0.853025
21
0.373414
0
LINE
8
BLACK
6
CONTINUOUS
10
0.853025
20
0.373414
11
0.853161
21
0.3733
0
LINE
8
BLACK
6
CONTINUOUS
10
0.853161
20
0.3733
11
0.853336
21
0.37328
0
LINE
8
BLACK
6
CONTINUOUS
10
0.853336
20
0.37328
11
0.857085
21
0.371405
0
LINE
8
BLACK
6
CONTINUOUS
10
0.857085
20
0.371405
11
0.857794
21
0.370879
0
LINE
8
BLACK
6
CONTINUOUS
10
0.857794
20
0.370879
11
0.857853
21
0.370852
0
LINE
8
BLACK
6
CONTINUOUS
10
0.857853
20
0.370852
11
0.859728
21
0.368977
0
LINE
8
BLACK
6
CONTINUOUS
10
0.859728
20
0.368977
11
0.860234
21
0.368254
0
LINE
8
BLACK
6
CONTINUOUS
10
0.860234
20
0.368254
11
0.860281
21
0.36821
0
LINE
8
BLACK
6
CONTINUOUS
10
0.860281
20
0.36821
11
0.862155
21
0.36446
0
LINE
8
BLACK
6
CONTINUOUS
10
0.862155
20
0.36446
11
0.862448
21
0.363477
0
LINE
8
BLACK
6
CONTINUOUS
10
0.862448
20
0.363477
11
0.862407
21
0.363306
0
LINE
8
BLACK
6
CONTINUOUS
10
0.862407
20
0.363306
11
0.862467
21
0.36314
0
LINE
8
BLACK
6
CONTINUOUS
10
0.862467
20
0.36314
11
0.862467
21
0.353766
0
LINE
8
BLACK
6
CONTINUOUS
10
0.862467
20
0.353766
11
0.862289
21
0.352756
0
LINE
8
BLACK
6
CONTINUOUS
10
0.862289
20
0.352756
11
0.862176
21
0.352621
0
LINE
8
BLACK
6
CONTINUOUS
10
0.862176
20
0.352621
11
0.862155
21
0.352446
0
LINE
8
BLACK
6
CONTINUOUS
10
0.862155
20
0.352446
11
0.860281
21
0.348696
0
LINE
8
BLACK
6
CONTINUOUS
10
0.860281
20
0.348696
11
0.859755
21
0.347987
0
LINE
8
BLACK
6
CONTINUOUS
10
0.859755
20
0.347987
11
0.859728
21
0.347929
0
LINE
8
BLACK
6
CONTINUOUS
10
0.859728
20
0.347929
11
0.857853
21
0.346054
0
LINE
8
BLACK
6
CONTINUOUS
10
0.857853
20
0.346054
11
0.85713
21
0.345547
0
LINE
8
BLACK
6
CONTINUOUS
10
0.85713
20
0.345547
11
0.857085
21
0.345501
0
LINE
8
BLACK
6
CONTINUOUS
10
0.857085
20
0.345501
11
0.853336
21
0.343626
0
LINE
8
BLACK
6
CONTINUOUS
10
0.853336
20
0.343626
11
0.852353
21
0.343334
0
LINE
8
BLACK
6
CONTINUOUS
10
0.852353
20
0.343334
11
0.852181
21
0.343375
0
LINE
8
BLACK
6
CONTINUOUS
10
0.852181
20
0.343375
11
0.852015
21
0.343314
0
LINE
8
BLACK
6
CONTINUOUS
10
0.852015
20
0.343314
11
0.842642
21
0.343314
0
LINE
8
BLACK
6
CONTINUOUS
10
0.842642
20
0.343314
11
0.841632
21
0.343492
0
LINE
8
BLACK
6
CONTINUOUS
10
0.841632
20
0.343492
11
0.841496
21
0.343606
0
LINE
8
BLACK
6
CONTINUOUS
10
0.841496
20
0.343606
11
0.841321
21
0.343626
0
LINE
8
BLACK
6
CONTINUOUS
10
0.841321
20
0.343626
11
0.837571
21
0.345501
0
LINE
8
BLACK
6
CONTINUOUS
10
0.837571
20
0.345501
11
0.836862
21
0.346027
0
LINE
8
BLACK
6
CONTINUOUS
10
0.836862
20
0.346027
11
0.836804
21
0.346054
0
LINE
8
BLACK
6
CONTINUOUS
10
0.836804
20
0.346054
11
0.834929
21
0.347929
0
LINE
8
BLACK
6
CONTINUOUS
10
0.834929
20
0.347929
11
0.834341
21
0.348769
0
LINE
8
BLACK
6
CONTINUOUS
10
0.834341
20
0.348769
11
0.834165
21
0.350781
0
LINE
8
BLACK
6
CONTINUOUS
10
0.834165
20
0.350781
11
0.835324
21
0.352435
0
LINE
8
BLACK
6
CONTINUOUS
10
0.835324
20
0.352435
11
0.837275
21
0.352958
0
LINE
8
BLACK
6
CONTINUOUS
10
0.837275
20
0.352958
11
0.839105
21
0.352104
0
LINE
8
BLACK
6
CONTINUOUS
10
0.839105
20
0.352104
11
0.840641
21
0.350568
0
LINE
8
BLACK
6
CONTINUOUS
10
0.840641
20
0.350568
11
0.843339
21
0.34922
0
LINE
8
BLACK
6
CONTINUOUS
10
0.843339
20
0.34922
11
0.851318
21
0.34922
0
LINE
8
BLACK
6
CONTINUOUS
10
0.851318
20
0.34922
11
0.854016
21
0.350568
0
LINE
8
BLACK
6
CONTINUOUS
10
0.854016
20
0.350568
11
0.855213
21
0.351766
0
LINE
8
BLACK
6
CONTINUOUS
10
0.855213
20
0.351766
11
0.856562
21
0.354463
0
LINE
8
BLACK
6
CONTINUOUS
10
0.856562
20
0.354463
11
0.856562
21
0.362443
0
LINE
8
BLACK
6
CONTINUOUS
10
0.856562
20
0.362443
11
0.855213
21
0.36514
0
LINE
8
BLACK
6
CONTINUOUS
10
0.855213
20
0.36514
11
0.854016
21
0.366337
0
LINE
8
BLACK
6
CONTINUOUS
10
0.854016
20
0.366337
11
0.851318
21
0.367686
0
LINE
8
BLACK
6
CONTINUOUS
10
0.851318
20
0.367686
11
0.843339
21
0.367686
0
LINE
8
BLACK
6
CONTINUOUS
10
0.843339
20
0.367686
11
0.840641
21
0.366337
0
LINE
8
BLACK
6
CONTINUOUS
10
0.840641
20
0.366337
11
0.839105
21
0.364801
0
LINE
8
BLACK
6
CONTINUOUS
10
0.839105
20
0.364801
11
0.838265
21
0.364213
0
LINE
8
BLACK
6
CONTINUOUS
10
0.838265
20
0.364213
11
0.838246
21
0.364212
0
LINE
8
BLACK
6
CONTINUOUS
10
0.838246
20
0.364212
11
0.838232
21
0.364198
0
LINE
8
BLACK
6
CONTINUOUS
10
0.838232
20
0.364198
11
0.837241
21
0.364124
0
LINE
8
BLACK
6
CONTINUOUS
10
0.837241
20
0.364124
11
0.836253
21
0.364037
0
LINE
8
BLACK
6
CONTINUOUS
10
0.836253
20
0.364037
11
0.836237
21
0.364048
0
LINE
8
BLACK
6
CONTINUOUS
10
0.836237
20
0.364048
11
0.836218
21
0.364047
0
LINE
8
BLACK
6
CONTINUOUS
10
0.836218
20
0.364047
11
0.835411
21
0.364627
0
LINE
8
BLACK
6
CONTINUOUS
10
0.835411
20
0.364627
11
0.834598
21
0.365196
0
LINE
8
BLACK
6
CONTINUOUS
10
0.834598
20
0.365196
11
0.834593
21
0.365215
0
LINE
8
BLACK
6
CONTINUOUS
10
0.834593
20
0.365215
11
0.834578
21
0.365226
0
LINE
8
BLACK
6
CONTINUOUS
10
0.834578
20
0.365226
11
0.834333
21
0.366188
0
LINE
8
BLACK
6
CONTINUOUS
10
0.834333
20
0.366188
11
0.834076
21
0.367147
0
LINE
8
BLACK
6
CONTINUOUS
10
0.834076
20
0.367147
11
0.834084
21
0.367164
0
LINE
8
BLACK
6
CONTINUOUS
10
0.834084
20
0.367164
11
0.834079
21
0.367183
0
LINE
8
BLACK
6
CONTINUOUS
10
0.834079
20
0.367183
11
0.835954
21
0.385931
0
LINE
8
BLACK
6
CONTINUOUS
10
0.835954
20
0.385931
11
0.835996
21
0.386081
0
LINE
8
BLACK
6
CONTINUOUS
10
0.835996
20
0.386081
11
0.835984
21
0.38615
0
LINE
8
BLACK
6
CONTINUOUS
10
0.835984
20
0.38615
11
0.836045
21
0.386256
0
LINE
8
BLACK
6
CONTINUOUS
10
0.836045
20
0.386256
11
0.836232
21
0.386918
0
LINE
8
BLACK
6
CONTINUOUS
10
0.836232
20
0.386918
11
0.83668
21
0.387356
0
LINE
8
BLACK
6
CONTINUOUS
10
0.83668
20
0.387356
11
0.836994
21
0.387899
0
LINE
8
BLACK
6
CONTINUOUS
10
0.836994
20
0.387899
11
0.837382
21
0.38804
0
LINE
8
BLACK
6
CONTINUOUS
10
0.837382
20
0.38804
11
0.837677
21
0.388328
0
LINE
8
BLACK
6
CONTINUOUS
10
0.837677
20
0.388328
11
0.838303
21
0.388375
0
LINE
8
BLACK
6
CONTINUOUS
10
0.838303
20
0.388375
11
0.838892
21
0.38859
0
LINE
8
BLACK
6
CONTINUOUS
10
0.838892
20
0.38859
11
0.85764
21
0.38859
0
LINE
8
BLACK
6
CONTINUOUS
10
0.85764
20
0.38859
11
0.85865
21
0.388412
0
LINE
8
BLACK
6
CONTINUOUS
10
0.822406
20
0.587535
11
0.823097
21
0.585637
0
LINE
8
BLACK
6
CONTINUOUS
10
0.823097
20
0.585637
11
0.823097
21
0.557516
0
LINE
8
BLACK
6
CONTINUOUS
10
0.823097
20
0.557516
11
0.822944
21
0.556646
0
LINE
8
BLACK
6
CONTINUOUS
10
0.822944
20
0.556646
11
0.822946
21
0.556582
0
LINE
8
BLACK
6
CONTINUOUS
10
0.822946
20
0.556582
11
0.821071
21
0.550958
0
LINE
8
BLACK
6
CONTINUOUS
10
0.821071
20
0.550958
11
0.820582
21
0.550056
0
LINE
8
BLACK
6
CONTINUOUS
10
0.820582
20
0.550056
11
0.820432
21
0.549963
0
LINE
8
BLACK
6
CONTINUOUS
10
0.820432
20
0.549963
11
0.820358
21
0.549803
0
LINE
8
BLACK
6
CONTINUOUS
10
0.820358
20
0.549803
11
0.816608
21
0.546054
0
LINE
8
BLACK
6
CONTINUOUS
10
0.816608
20
0.546054
11
0.815768
21
0.545466
0
LINE
8
BLACK
6
CONTINUOUS
10
0.815768
20
0.545466
11
0.815592
21
0.54545
0
LINE
8
BLACK
6
CONTINUOUS
10
0.815592
20
0.54545
11
0.815454
21
0.545341
0
LINE
8
BLACK
6
CONTINUOUS
10
0.815454
20
0.545341
11
0.809829
21
0.543466
0
LINE
8
BLACK
6
CONTINUOUS
10
0.809829
20
0.543466
11
0.808956
21
0.543336
0
LINE
8
BLACK
6
CONTINUOUS
10
0.808956
20
0.543336
11
0.808896
21
0.543314
0
LINE
8
BLACK
6
CONTINUOUS
10
0.808896
20
0.543314
11
0.805146
21
0.543314
0
LINE
8
BLACK
6
CONTINUOUS
10
0.805146
20
0.543314
11
0.804136
21
0.543492
0
LINE
8
BLACK
6
CONTINUOUS
10
0.804136
20
0.543492
11
0.802589
21
0.544791
0
LINE
8
BLACK
6
CONTINUOUS
10
0.802589
20
0.544791
11
0.802238
21
0.54678
0
LINE
8
BLACK
6
CONTINUOUS
10
0.802238
20
0.54678
11
0.803248
21
0.548529
0
LINE
8
BLACK
6
CONTINUOUS
10
0.803248
20
0.548529
11
0.805146
21
0.54922
0
LINE
8
BLACK
6
CONTINUOUS
10
0.805146
20
0.54922
11
0.808417
21
0.54922
0
LINE
8
BLACK
6
CONTINUOUS
10
0.808417
20
0.54922
11
0.812925
21
0.550723
0
LINE
8
BLACK
6
CONTINUOUS
10
0.812925
20
0.550723
11
0.815689
21
0.553486
0
LINE
8
BLACK
6
CONTINUOUS
10
0.815689
20
0.553486
11
0.817192
21
0.557995
0
LINE
8
BLACK
6
CONTINUOUS
10
0.817192
20
0.557995
11
0.817192
21
0.585637
0
LINE
8
BLACK
6
CONTINUOUS
10
0.817192
20
0.585637
11
0.81737
21
0.586647
0
LINE
8
BLACK
6
CONTINUOUS
10
0.81737
20
0.586647
11
0.818668
21
0.588194
0
LINE
8
BLACK
6
CONTINUOUS
10
0.818668
20
0.588194
11
0.820657
21
0.588545
0
LINE
8
BLACK
6
CONTINUOUS
10
0.820657
20
0.588545
11
0.822406
21
0.587535
0
LINE
8
BLACK
6
CONTINUOUS
10
0.856775
20
0.588412
11
0.858322
21
0.587113
0
LINE
8
BLACK
6
CONTINUOUS
10
0.858322
20
0.587113
11
0.858673
21
0.585124
0
LINE
8
BLACK
6
CONTINUOUS
10
0.858673
20
0.585124
11
0.857663
21
0.583375
0
LINE
8
BLACK
6
CONTINUOUS
10
0.857663
20
0.583375
11
0.855765
21
0.582684
0
LINE
8
BLACK
6
CONTINUOUS
10
0.855765
20
0.582684
11
0.848963
21
0.582684
0
LINE
8
BLACK
6
CONTINUOUS
10
0.848963
20
0.582684
11
0.846265
21
0.581336
0
LINE
8
BLACK
6
CONTINUOUS
10
0.846265
20
0.581336
11
0.844936
21
0.580006
0
LINE
8
BLACK
6
CONTINUOUS
10
0.844936
20
0.580006
11
0.841633
21
0.575051
0
LINE
8
BLACK
6
CONTINUOUS
10
0.841633
20
0.575051
11
0.840903
21
0.572134
0
LINE
8
BLACK
6
CONTINUOUS
10
0.840903
20
0.572134
11
0.843196
21
0.57328
0
LINE
8
BLACK
6
CONTINUOUS
10
0.843196
20
0.57328
11
0.844179
21
0.573572
0
LINE
8
BLACK
6
CONTINUOUS
10
0.844179
20
0.573572
11
0.84435
21
0.573531
0
LINE
8
BLACK
6
CONTINUOUS
10
0.84435
20
0.573531
11
0.844516
21
0.573592
0
LINE
8
BLACK
6
CONTINUOUS
10
0.844516
20
0.573592
11
0.852015
21
0.573592
0
LINE
8
BLACK
6
CONTINUOUS
10
0.852015
20
0.573592
11
0.853025
21
0.573414
0
LINE
8
BLACK
6
CONTINUOUS
10
0.853025
20
0.573414
11
0.853161
21
0.5733
0
LINE
8
BLACK
6
CONTINUOUS
10
0.853161
20
0.5733
11
0.853336
21
0.57328
0
LINE
8
BLACK
6
CONTINUOUS
10
0.853336
20
0.57328
11
0.857085
21
0.571405
0
LINE
8
BLACK
6
CONTINUOUS
10
0.857085
20
0.571405
11
0.857794
21
0.570879
0
LINE
8
BLACK
6
CONTINUOUS
10
0.857794
20
0.570879
11
0.857853
21
0.570852
0
LINE
8
BLACK
6
CONTINUOUS
10
0.857853
20
0.570852
11
0.859728
21
0.568977
0
LINE
8
BLACK
6
CONTINUOUS
10
0.859728
20
0.568977
11
0.860234
21
0.568254
0
LINE
8
BLACK
6
CONTINUOUS
10
0.860234
20
0.568254
11
0.860281
21
0.56821
0
LINE
8
BLACK
6
CONTINUOUS
10
0.860281
20
0.56821
11
0.862155
21
0.56446
0
LINE
8
BLACK
6
CONTINUOUS
10
0.862155
20
0.56446
11
0.862448
21
0.563477
0
LINE
8
BLACK
6
CONTINUOUS
10
0.862448
20
0.563477
11
0.862407
21
0.563306
0
LINE
8
BLACK
6
CONTINUOUS
10
0.862407
20
0.563306
11
0.862467
21
0.56314
0
LINE
8
BLACK
6
CONTINUOUS
10
0.862467
20
0.56314
11
0.862467
21
0.553766
0
LINE
8
BLACK
6
CONTINUOUS
10
0.862467
20
0.553766
11
0.862289
21
0.552756
0
LINE
8
BLACK
6
CONTINUOUS
10
0.862289
20
0.552756
11
0.862176
21
0.552621
0
LINE
8
BLACK
6
CONTINUOUS
10
0.862176
20
0.552621
11
0.862155
21
0.552446
0
LINE
8
BLACK
6
CONTINUOUS
10
0.862155
20
0.552446
11
0.860281
21
0.548696
0
LINE
8
BLACK
6
CONTINUOUS
10
0.860281
20
0.548696
11
0.859755
21
0.547987
0
LINE
8
BLACK
6
CONTINUOUS
10
0.859755
20
0.547987
11
0.859728
21
0.547929
0
LINE
8
BLACK
6
CONTINUOUS
10
0.859728
20
0.547929
11
0.857853
21
0.546054
0
LINE
8
BLACK
6
CONTINUOUS
10
0.857853
20
0.546054
11
0.85713
21
0.545547
0
LINE
8
BLACK
6
CONTINUOUS
10
0.85713
20
0.545547
11
0.857085
21
0.545501
0
LINE
8
BLACK
6
CONTINUOUS
10
0.857085
20
0.545501
11
0.853336
21
0.543626
0
LINE
8
BLACK
6
CONTINUOUS
10
0.853336
20
0.543626
11
0.852353
21
0.543334
0
LINE
8
BLACK
6
CONTINUOUS
10
0.852353
20
0.543334
11
0.852181
21
0.543375
0
LINE
8
BLACK
6
CONTINUOUS
10
0.852181
20
0.543375
11
0.852015
21
0.543314
0
LINE
8
BLACK
6
CONTINUOUS
10
0.852015
20
0.543314
11
0.844516
21
0.543314
0
LINE
8
BLACK
6
CONTINUOUS
10
0.844516
20
0.543314
11
0.843506
21
0.543492
0
LINE
8
BLACK
6
CONTINUOUS
10
0.843506
20
0.543492
11
0.843371
21
0.543606
0
LINE
8
BLACK
6
CONTINUOUS
10
0.843371
20
0.543606
11
0.843196
21
0.543626
0
LINE
8
BLACK
6
CONTINUOUS
10
0.843196
20
0.543626
11
0.839446
21
0.545501
0
LINE
8
BLACK
6
CONTINUOUS
10
0.839446
20
0.545501
11
0.838737
21
0.546027
0
LINE
8
BLACK
6
CONTINUOUS
10
0.838737
20
0.546027
11
0.838679
21
0.546054
0
LINE
8
BLACK
6
CONTINUOUS
10
0.838679
20
0.546054
11
0.836804
21
0.547929
0
LINE
8
BLACK
6
CONTINUOUS
10
0.836804
20
0.547929
11
0.836298
21
0.548652
0
LINE
8
BLACK
6
CONTINUOUS
10
0.836298
20
0.548652
11
0.836251
21
0.548696
0
LINE
8
BLACK
6
CONTINUOUS
10
0.836251
20
0.548696
11
0.834376
21
0.552446
0
LINE
8
BLACK
6
CONTINUOUS
10
0.834376
20
0.552446
11
0.834084
21
0.553429
0
LINE
8
BLACK
6
CONTINUOUS
10
0.834084
20
0.553429
11
0.834125
21
0.5536
0
LINE
8
BLACK
6
CONTINUOUS
10
0.834125
20
0.5536
11
0.834064
21
0.553766
0
LINE
8
BLACK
6
CONTINUOUS
10
0.834064
20
0.553766
11
0.834064
21
0.568764
0
LINE
8
BLACK
6
CONTINUOUS
10
0.834064
20
0.568764
11
0.834167
21
0.569345
0
LINE
8
BLACK
6
CONTINUOUS
10
0.834167
20
0.569345
11
0.834153
21
0.56948
0
LINE
8
BLACK
6
CONTINUOUS
10
0.834153
20
0.56948
11
0.836027
21
0.576979
0
LINE
8
BLACK
6
CONTINUOUS
10
0.836027
20
0.576979
11
0.836431
21
0.577885
0
LINE
8
BLACK
6
CONTINUOUS
10
0.836431
20
0.577885
11
0.836435
21
0.577901
0
LINE
8
BLACK
6
CONTINUOUS
10
0.836435
20
0.577901
11
0.840185
21
0.583525
0
LINE
8
BLACK
6
CONTINUOUS
10
0.840185
20
0.583525
11
0.840495
21
0.583851
0
LINE
8
BLACK
6
CONTINUOUS
10
0.840495
20
0.583851
11
0.840554
21
0.583975
0
LINE
8
BLACK
6
CONTINUOUS
10
0.840554
20
0.583975
11
0.842428
21
0.58585
0
LINE
8
BLACK
6
CONTINUOUS
10
0.842428
20
0.58585
11
0.843151
21
0.586356
0
LINE
8
BLACK
6
CONTINUOUS
10
0.843151
20
0.586356
11
0.843196
21
0.586403
0
LINE
8
BLACK
6
CONTINUOUS
10
0.843196
20
0.586403
11
0.846945
21
0.588278
0
LINE
8
BLACK
6
CONTINUOUS
10
0.846945
20
0.588278
11
0.847928
21
0.58857
0
LINE
8
BLACK
6
CONTINUOUS
10
0.847928
20
0.58857
11
0.8481
21
0.588529
0
LINE
8
BLACK
6
CONTINUOUS
10
0.8481
20
0.588529
11
0.848266
21
0.58859
0
LINE
8
BLACK
6
CONTINUOUS
10
0.848266
20
0.58859
11
0.855765
21
0.58859
0
LINE
8
BLACK
6
CONTINUOUS
10
0.855765
20
0.58859
11
0.856775
21
0.588412
0
LINE
8
BLACK
6
CONTINUOUS
10
0.842516
20
0.566337
11
0.841319
21
0.56514
0
LINE
8
BLACK
6
CONTINUOUS
10
0.841319
20
0.56514
11
0.83997
21
0.562443
0
LINE
8
BLACK
6
CONTINUOUS
10
0.83997
20
0.562443
11
0.83997
21
0.554463
0
LINE
8
BLACK
6
CONTINUOUS
10
0.83997
20
0.554463
11
0.841319
21
0.551766
0
LINE
8
BLACK
6
CONTINUOUS
10
0.841319
20
0.551766
11
0.842516
21
0.550568
0
LINE
8
BLACK
6
CONTINUOUS
10
0.842516
20
0.550568
11
0.845213
21
0.54922
0
LINE
8
BLACK
6
CONTINUOUS
10
0.845213
20
0.54922
11
0.851318
21
0.54922
0
LINE
8
BLACK
6
CONTINUOUS
10
0.851318
20
0.54922
11
0.854016
21
0.550568
0
LINE
8
BLACK
6
CONTINUOUS
10
0.854016
20
0.550568
11
0.855213
21
0.551766
0
LINE
8
BLACK
6
CONTINUOUS
10
0.855213
20
0.551766
11
0.856562
21
0.554463
0
LINE
8
BLACK
6
CONTINUOUS
10
0.856562
20
0.554463
11
0.856562
21
0.562443
0
LINE
8
BLACK
6
CONTINUOUS
10
0.856562
20
0.562443
11
0.855213
21
0.56514
0
LINE
8
BLACK
6
CONTINUOUS
10
0.855213
20
0.56514
11
0.854016
21
0.566337
0
LINE
8
BLACK
6
CONTINUOUS
10
0.854016
20
0.566337
11
0.851318
21
0.567686
0
LINE
8
BLACK
6
CONTINUOUS
10
0.851318
20
0.567686
11
0.845213
21
0.567686
0
LINE
8
BLACK
6
CONTINUOUS
10
0.845213
20
0.567686
11
0.842516
21
0.566337
0
LINE
8
BLACK
6
CONTINUOUS
10
0.983268
20
0.666142
11
0.98466
21
0.665565
0
LINE
8
BLACK
6
CONTINUOUS
10
0.98466
20
0.665565
11
0.985236
21
0.664173
0
LINE
8
BLACK
6
CONTINUOUS
10
0.985236
20
0.664173
11
0.985236
21
0.464173
0
LINE
8
BLACK
6
CONTINUOUS
10
0.985236
20
0.464173
11
0.985236
21
0.464173
0
LINE
8
BLACK
6
CONTINUOUS
10
0.985236
20
0.464173
11
0.985236
21
0.264173
0
LINE
8
BLACK
6
CONTINUOUS
10
0.985236
20
0.264173
11
0.98466
21
0.262781
0
LINE
8
BLACK
6
CONTINUOUS
10
0.98466
20
0.262781
11
0.983268
21
0.262205
0
LINE
8
BLACK
6
CONTINUOUS
10
0.983268
20
0.262205
11
0.733268
21
0.262205
0
LINE
8
BLACK
6
CONTINUOUS
10
0.733268
20
0.262205
11
0.731876
21
0.262781
0
LINE
8
BLACK
6
CONTINUOUS
10
0.731876
20
0.262781
11
0.681876
21
0.312781
0
LINE
8
BLACK
6
CONTINUOUS
10
0.681876
20
0.312781
11
0.681299
21
0.314173
0
LINE
8
BLACK
6
CONTINUOUS
10
0.681299
20
0.314173
11
0.681299
21
0.464173
0
LINE
8
BLACK
6
CONTINUOUS
10
0.681299
20
0.464173
11
0.681876
21
0.465565
0
LINE
8
BLACK
6
CONTINUOUS
10
0.681876
20
0.465565
11
0.683268
21
0.466142
0
LINE
8
BLACK
6
CONTINUOUS
10
0.683268
20
0.466142
11
0.728515
21
0.466142
0
LINE
8
BLACK
6
CONTINUOUS
10
0.728515
20
0.466142
11
0.681876
21
0.512781
0
LINE
8
BLACK
6
CONTINUOUS
10
0.681876
20
0.512781
11
0.681299
21
0.514173
0
LINE
8
BLACK
6
CONTINUOUS
10
0.681299
20
0.514173
11
0.681299
21
0.664173
0
LINE
8
BLACK
6
CONTINUOUS
10
0.681299
20
0.664173
11
0.681876
21
0.665565
0
LINE
8
BLACK
6
CONTINUOUS
10
0.681876
20
0.665565
11
0.683268
21
0.666142
0
LINE
8
BLACK
6
CONTINUOUS
10
0.683268
20
0.666142
11
0.983268
21
0.666142
0
LINE
8
BLACK
6
CONTINUOUS
10
0.685236
20
0.462205
11
0.685236
21
0.314989
0
LINE
8
BLACK
6
CONTINUOUS
10
0.685236
20
0.314989
11
0.734083
21
0.266142
0
LINE
8
BLACK
6
CONTINUOUS
10
0.734083
20
0.266142
11
0.981299
21
0.266142
0
LINE
8
BLACK
6
CONTINUOUS
10
0.981299
20
0.266142
11
0.981299
21
0.462205
0
LINE
8
BLACK
6
CONTINUOUS
10
0.981299
20
0.462205
11
0.733268
21
0.462205
0
LINE
8
BLACK
6
CONTINUOUS
10
0.733268
20
0.462205
11
0.685236
21
0.462205
0
LINE
8
BLACK
6
CONTINUOUS
10
0.685236
20
0.662205
11
0.685236
21
0.514989
0
LINE
8
BLACK
6
CONTINUOUS
10
0.685236
20
0.514989
11
0.734083
21
0.466142
0
LINE
8
BLACK
6
CONTINUOUS
10
0.734083
20
0.466142
11
0.981299
21
0.466142
0
LINE
8
BLACK
6
CONTINUOUS
10
0.981299
20
0.466142
11
0.981299
21
0.662205
0
LINE
8
BLACK
6
CONTINUOUS
10
0.981299
20
0.662205
11
0.685236
21
0.662205
0
LINE
8
BLACK
6
CONTINUOUS
10
0.414063
20
0.52481
11
0.427949
21
0.522451
0
LINE
8
BLACK
6
CONTINUOUS
10
0.427949
20
0.522451
11
0.441483
21
0.518552
0
LINE
8
BLACK
6
CONTINUOUS
10
0.441483
20
0.518552
11
0.454496
21
0.513162
0
LINE
8
BLACK
6
CONTINUOUS
10
0.454496
20
0.513162
11
0.466823
21
0.506349
0
LINE
8
BLACK
6
CONTINUOUS
10
0.466823
20
0.506349
11
0.47831
21
0.498198
0
LINE
8
BLACK
6
CONTINUOUS
10
0.47831
20
0.498198
11
0.488813
21
0.488813
0
LINE
8
BLACK
6
CONTINUOUS
10
0.488813
20
0.488813
11
0.498198
21
0.47831
0
LINE
8
BLACK
6
CONTINUOUS
10
0.498198
20
0.47831
11
0.506349
21
0.466823
0
LINE
8
BLACK
6
CONTINUOUS
10
0.506349
20
0.466823
11
0.513162
21
0.454496
0
LINE
8
BLACK
6
CONTINUOUS
10
0.513162
20
0.454496
11
0.518552
21
0.441483
0
LINE
8
BLACK
6
CONTINUOUS
10
0.518552
20
0.441483
11
0.522451
21
0.427949
0
LINE
8
BLACK
6
CONTINUOUS
10
0.522451
20
0.427949
11
0.52481
21
0.414063
0
LINE
8
BLACK
6
CONTINUOUS
10
0.52481
20
0.414063
11
0.5256
21
0.4
0
LINE
8
BLACK
6
CONTINUOUS
10
0.5256
20
0.4
11
0.52481
21
0.385937
0
LINE
8
BLACK
6
CONTINUOUS
10
0.52481
20
0.385937
11
0.522451
21
0.372051
0
LINE
8
BLACK
6
CONTINUOUS
10
0.522451
20
0.372051
11
0.518552
21
0.358517
0
LINE
8
BLACK
6
CONTINUOUS
10
0.518552
20
0.358517
11
0.513162
21
0.345504
0
LINE
8
BLACK
6
CONTINUOUS
10
0.513162
20
0.345504
11
0.506349
21
0.333177
0
LINE
8
BLACK
6
CONTINUOUS
10
0.506349
20
0.333177
11
0.498198
21
0.32169
0
LINE
8
BLACK
6
CONTINUOUS
10
0.498198
20
0.32169
11
0.488813
21
0.311187
0
LINE
8
BLACK
6
CONTINUOUS
10
0.488813
20
0.311187
11
0.47831
21
0.301802
0
LINE
8
BLACK
6
CONTINUOUS
10
0.47831
20
0.301802
11
0.466823
21
0.293651
0
LINE
8
BLACK
6
CONTINUOUS
10
0.466823
20
0.293651
11
0.454496
21
0.286838
0
LINE
8
BLACK
6
CONTINUOUS
10
0.454496
20
0.286838
11
0.441483
21
0.281448
0
LINE
8
BLACK
6
CONTINUOUS
10
0.441483
20
0.281448
11
0.427949
21
0.277549
0
LINE
8
BLACK
6
CONTINUOUS
10
0.427949
20
0.277549
11
0.414063
21
0.27519
0
LINE
8
BLACK
6
CONTINUOUS
10
0.414063
20
0.27519
11
0.4
21
0.2744
0
LINE
8
BLACK
6
CONTINUOUS
10
0.4
20
0.2744
11
0.385937
21
0.27519
0
LINE
8
BLACK
6
CONTINUOUS
10
0.385937
20
0.27519
11
0.372051
21
0.277549
0
LINE
8
BLACK
6
CONTINUOUS
10
0.372051
20
0.277549
11
0.358517
21
0.281448
0
LINE
8
BLACK
6
CONTINUOUS
10
0.358517
20
0.281448
11
0.345504
21
0.286838
0
LINE
8
BLACK
6
CONTINUOUS
10
0.345504
20
0.286838
11
0.333177
21
0.293651
0
LINE
8
BLACK
6
CONTINUOUS
10
0.333177
20
0.293651
11
0.32169
21
0.301802
0
LINE
8
BLACK
6
CONTINUOUS
10
0.32169
20
0.301802
11
0.311187
21
0.311187
0
LINE
8
BLACK
6
CONTINUOUS
10
0.311187
20
0.311187
11
0.301802
21
0.32169
0
LINE
8
BLACK
6
CONTINUOUS
10
0.301802
20
0.32169
11
0.293651
21
0.333177
0
LINE
8
BLACK
6
CONTINUOUS
10
0.293651
20
0.333177
11
0.286838
21
0.345504
0
LINE
8
BLACK
6
CONTINUOUS
10
0.286838
20
0.345504
11
0.281448
21
0.358517
0
LINE
8
BLACK
6
CONTINUOUS
10
0.281448
20
0.358517
11
0.277549
21
0.372051
0
LINE
8
BLACK
6
CONTINUOUS
10
0.277549
20
0.372051
11
0.27519
21
0.385937
0
LINE
8
BLACK
6
CONTINUOUS
10
0.27519
20
0.385937
11
0.2744
21
0.4
0
LINE
8
BLACK
6
CONTINUOUS
10
0.2744
20
0.4
11
0.27519
21
0.414063
0
LINE
8
BLACK
6
CONTINUOUS
10
0.27519
20
0.414063
11
0.277549
21
0.427949
0
LINE
8
BLACK
6
CONTINUOUS
10
0.277549
20
0.427949
11
0.281448
21
0.441483
0
LINE
8
BLACK
6
CONTINUOUS
10
0.281448
20
0.441483
11
0.286838
21
0.454496
0
LINE
8
BLACK
6
CONTINUOUS
10
0.286838
20
0.454496
11
0.293651
21
0.466823
0
LINE
8
BLACK
6
CONTINUOUS
10
0.293651
20
0.466823
11
0.301802
21
0.47831
0
LINE
8
BLACK
6
CONTINUOUS
10
0.301802
20
0.47831
11
0.311187
21
0.488813
0
LINE
8
BLACK
6
CONTINUOUS
10
0.311187
20
0.488813
11
0.32169
21
0.498198
0
LINE
8
BLACK
6
CONTINUOUS
10
0.32169
20
0.498198
11
0.333177
21
0.506349
0
LINE
8
BLACK
6
CONTINUOUS
10
0.333177
20
0.506349
11
0.345504
21
0.513162
0
LINE
8
BLACK
6
CONTINUOUS
10
0.345504
20
0.513162
11
0.358517
21
0.518552
0
LINE
8
BLACK
6
CONTINUOUS
10
0.358517
20
0.518552
11
0.372051
21
0.522451
0
LINE
8
BLACK
6
CONTINUOUS
10
0.372051
20
0.522451
11
0.385937
21
0.52481
0
LINE
8
BLACK
6
CONTINUOUS
10
0.385937
20
0.52481
11
0.4
21
0.5256
0
LINE
8
BLACK
6
CONTINUOUS
10
0.4
20
0.5256
11
0.414063
21
0.52481
0
LINE
8
BLACK
6
CONTINUOUS
10
0.289962
20
0.387138
11
0.292199
21
0.374451
0
LINE
8
BLACK
6
CONTINUOUS
10
0.292199
20
0.374451
11
0.295894
21
0.362108
0
LINE
8
BLACK
6
CONTINUOUS
10
0.295894
20
0.362108
11
0.300997
21
0.350279
0
LINE
8
BLACK
6
CONTINUOUS
10
0.300997
20
0.350279
11
0.307438
21
0.339121
0
LINE
8
BLACK
6
CONTINUOUS
10
0.307438
20
0.339121
11
0.315132
21
0.328787
0
LINE
8
BLACK
6
CONTINUOUS
10
0.315132
20
0.328787
11
0.323973
21
0.319416
0
LINE
8
BLACK
6
CONTINUOUS
10
0.323973
20
0.319416
11
0.333842
21
0.311135
0
LINE
8
BLACK
6
CONTINUOUS
10
0.333842
20
0.311135
11
0.344606
21
0.304055
0
LINE
8
BLACK
6
CONTINUOUS
10
0.344606
20
0.304055
11
0.356119
21
0.298273
0
LINE
8
BLACK
6
CONTINUOUS
10
0.356119
20
0.298273
11
0.368226
21
0.293867
0
LINE
8
BLACK
6
CONTINUOUS
10
0.368226
20
0.293867
11
0.380762
21
0.290896
0
LINE
8
BLACK
6
CONTINUOUS
10
0.380762
20
0.290896
11
0.393558
21
0.2894
0
LINE
8
BLACK
6
CONTINUOUS
10
0.393558
20
0.2894
11
0.406442
21
0.2894
0
LINE
8
BLACK
6
CONTINUOUS
10
0.406442
20
0.2894
11
0.419238
21
0.290896
0
LINE
8
BLACK
6
CONTINUOUS
10
0.419238
20
0.290896
11
0.431774
21
0.293867
0
LINE
8
BLACK
6
CONTINUOUS
10
0.431774
20
0.293867
11
0.443881
21
0.298273
0
LINE
8
BLACK
6
CONTINUOUS
10
0.443881
20
0.298273
11
0.455394
21
0.304055
0
LINE
8
BLACK
6
CONTINUOUS
10
0.455394
20
0.304055
11
0.466158
21
0.311135
0
LINE
8
BLACK
6
CONTINUOUS
10
0.466158
20
0.311135
11
0.476027
21
0.319416
0
LINE
8
BLACK
6
CONTINUOUS
10
0.476027
20
0.319416
11
0.484868
21
0.328787
0
LINE
8
BLACK
6
CONTINUOUS
10
0.484868
20
0.328787
11
0.492562
21
0.339121
0
LINE
8
BLACK
6
CONTINUOUS
10
0.492562
20
0.339121
11
0.499003
21
0.350279
0
LINE
8
BLACK
6
CONTINUOUS
10
0.499003
20
0.350279
11
0.504106
21
0.362108
0
LINE
8
BLACK
6
CONTINUOUS
10
0.504106
20
0.362108
11
0.507801
21
0.374451
0
LINE
8
BLACK
6
CONTINUOUS
10
0.507801
20
0.374451
11
0.510038
21
0.387138
0
LINE
8
BLACK
6
CONTINUOUS
10
0.510038
20
0.387138
11
0.510787
21
0.4
0
LINE
8
BLACK
6
CONTINUOUS
10
0.510787
20
0.4
11
0.510038
21
0.412862
0
LINE
8
BLACK
6
CONTINUOUS
10
0.510038
20
0.412862
11
0.507801
21
0.425549
0
LINE
8
BLACK
6
CONTINUOUS
10
0.507801
20
0.425549
11
0.504106
21
0.437892
0
LINE
8
BLACK
6
CONTINUOUS
10
0.504106
20
0.437892
11
0.499003
21
0.449721
0
LINE
8
BLACK
6
CONTINUOUS
10
0.499003
20
0.449721
11
0.492562
21
0.460879
0
LINE
8
BLACK
6
CONTINUOUS
10
0.492562
20
0.460879
11
0.484868
21
0.471213
0
LINE
8
BLACK
6
CONTINUOUS
10
0.484868
20
0.471213
11
0.476027
21
0.480584
0
LINE
8
BLACK
6
CONTINUOUS
10
0.476027
20
0.480584
11
0.466158
21
0.488865
0
LINE
8
BLACK
6
CONTINUOUS
10
0.466158
20
0.488865
11
0.455394
21
0.495945
0
LINE
8
BLACK
6
CONTINUOUS
10
0.455394
20
0.495945
11
0.443881
21
0.501727
0
LINE
8
BLACK
6
CONTINUOUS
10
0.443881
20
0.501727
11
0.431774
21
0.506133
0
LINE
8
BLACK
6
CONTINUOUS
10
0.431774
20
0.506133
11
0.419238
21
0.509104
0
LINE
8
BLACK
6
CONTINUOUS
10
0.419238
20
0.509104
11
0.406442
21
0.5106
0
LINE
8
BLACK
6
CONTINUOUS
10
0.406442
20
0.5106
11
0.393558
21
0.5106
0
LINE
8
BLACK
6
CONTINUOUS
10
0.393558
20
0.5106
11
0.380762
21
0.509104
0
LINE
8
BLACK
6
CONTINUOUS
10
0.380762
20
0.509104
11
0.368226
21
0.506133
0
LINE
8
BLACK
6
CONTINUOUS
10
0.368226
20
0.506133
11
0.356119
21
0.501727
0
LINE
8
BLACK
6
CONTINUOUS
10
0.356119
20
0.501727
11
0.344606
21
0.495945
0
LINE
8
BLACK
6
CONTINUOUS
10
0.344606
20
0.495945
11
0.333842
21
0.488865
0
LINE
8
BLACK
6
CONTINUOUS
10
0.333842
20
0.488865
11
0.323973
21
0.480584
0
LINE
8
BLACK
6
CONTINUOUS
10
0.323973
20
0.480584
11
0.315132
21
0.471213
0
LINE
8
BLACK
6
CONTINUOUS
10
0.315132
20
0.471213
11
0.307438
21
0.460879
0
LINE
8
BLACK
6
CONTINUOUS
10
0.307438
20
0.460879
11
0.300997
21
0.449721
0
LINE
8
BLACK
6
CONTINUOUS
10
0.300997
20
0.449721
11
0.295894
21
0.437892
0
LINE
8
BLACK
6
CONTINUOUS
10
0.295894
20
0.437892
11
0.292199
21
0.425549
0
LINE
8
BLACK
6
CONTINUOUS
10
0.292199
20
0.425549
11
0.289962
21
0.412862
0
LINE
8
BLACK
6
CONTINUOUS
10
0.289962
20
0.412862
11
0.289213
21
0.4
0
LINE
8
BLACK
6
CONTINUOUS
10
0.289213
20
0.4
11
0.289962
21
0.387138
0
LINE
8
BLACK
6
CONTINUOUS
10
1.21406
20
0.52481
11
1.22795
21
0.522451
0
LINE
8
BLACK
6
CONTINUOUS
10
1.22795
20
0.522451
11
1.24148
21
0.518552
0
LINE
8
BLACK
6
CONTINUOUS
10
1.24148
20
0.518552
11
1.2545
21
0.513162
0
LINE
8
BLACK
6
CONTINUOUS
10
1.2545
20
0.513162
11
1.26682
21
0.506349
0
LINE
8
BLACK
6
CONTINUOUS
10
1.26682
20
0.506349
11
1.27831
21
0.498198
0
LINE
8
BLACK
6
CONTINUOUS
10
1.27831
20
0.498198
11
1.28881
21
0.488813
0
LINE
8
BLACK
6
CONTINUOUS
10
1.28881
20
0.488813
11
1.2982
21
0.47831
0
LINE
8
BLACK
6
CONTINUOUS
10
1.2982
20
0.47831
11
1.30635
21
0.466823
0
LINE
8
BLACK
6
CONTINUOUS
10
1.30635
20
0.466823
11
1.31316
21
0.454496
0
LINE
8
BLACK
6
CONTINUOUS
10
1.31316
20
0.454496
11
1.31855
21
0.441483
0
LINE
8
BLACK
6
CONTINUOUS
10
1.31855
20
0.441483
11
1.32245
21
0.427949
0
LINE
8
BLACK
6
CONTINUOUS
10
1.32245
20
0.427949
11
1.32481
21
0.414063
0
LINE
8
BLACK
6
CONTINUOUS
10
1.32481
20
0.414063
11
1.3256
21
0.4
0
LINE
8
BLACK
6
CONTINUOUS
10
1.3256
20
0.4
11
1.32481
21
0.385937
0
LINE
8
BLACK
6
CONTINUOUS
10
1.32481
20
0.385937
11
1.32245
21
0.372051
0
LINE
8
BLACK
6
CONTINUOUS
10
1.32245
20
0.372051
11
1.31855
21
0.358517
0
LINE
8
BLACK
6
CONTINUOUS
10
1.31855
20
0.358517
11
1.31316
21
0.345504
0
LINE
8
BLACK
6
CONTINUOUS
10
1.31316
20
0.345504
11
1.30635
21
0.333177
0
LINE
8
BLACK
6
CONTINUOUS
10
1.30635
20
0.333177
11
1.2982
21
0.32169
0
LINE
8
BLACK
6
CONTINUOUS
10
1.2982
20
0.32169
11
1.28881
21
0.311187
0
LINE
8
BLACK
6
CONTINUOUS
10
1.28881
20
0.311187
11
1.27831
21
0.301802
0
LINE
8
BLACK
6
CONTINUOUS
10
1.27831
20
0.301802
11
1.26682
21
0.293651
0
LINE
8
BLACK
6
CONTINUOUS
10
1.26682
20
0.293651
11
1.2545
21
0.286838
0
LINE
8
BLACK
6
CONTINUOUS
10
1.2545
20
0.286838
11
1.24148
21
0.281448
0
LINE
8
BLACK
6
CONTINUOUS
10
1.24148
20
0.281448
11
1.22795
21
0.277549
0
LINE
8
BLACK
6
CONTINUOUS
10
1.22795
20
0.277549
11
1.21406
21
0.27519
0
LINE
8
BLACK
6
CONTINUOUS
10
1.21406
20
0.27519
11
1.2
21
0.2744
0
LINE
8
BLACK
6
CONTINUOUS
10
1.2
20
0.2744
11
1.18594
21
0.27519
0
LINE
8
BLACK
6
CONTINUOUS
10
1.18594
20
0.27519
11
1.17205
21
0.277549
0
LINE
8
BLACK
6
CONTINUOUS
10
1.17205
20
0.277549
11
1.15852
21
0.281448
0
LINE
8
BLACK
6
CONTINUOUS
10
1.15852
20
0.281448
11
1.1455
21
0.286838
0
LINE
8
BLACK
6
CONTINUOUS
10
1.1455
20
0.286838
11
1.13318
21
0.293651
0
LINE
8
BLACK
6
CONTINUOUS
10
1.13318
20
0.293651
11
1.12169
21
0.301802
0
LINE
8
BLACK
6
CONTINUOUS
10
1.12169
20
0.301802
11
1.11119
21
0.311187
0
LINE
8
BLACK
6
CONTINUOUS
10
1.11119
20
0.311187
11
1.1018
21
0.32169
0
LINE
8
BLACK
6
CONTINUOUS
10
1.1018
20
0.32169
11
1.09365
21
0.333177
0
LINE
8
BLACK
6
CONTINUOUS
10
1.09365
20
0.333177
11
1.08684
21
0.345504
0
LINE
8
BLACK
6
CONTINUOUS
10
1.08684
20
0.345504
11
1.08145
21
0.358517
0
LINE
8
BLACK
6
CONTINUOUS
10
1.08145
20
0.358517
11
1.07755
21
0.372051
0
LINE
8
BLACK
6
CONTINUOUS
10
1.07755
20
0.372051
11
1.07519
21
0.385937
0
LINE
8
BLACK
6
CONTINUOUS
10
1.07519
20
0.385937
11
1.0744
21
0.4
0
LINE
8
BLACK
6
CONTINUOUS
10
1.0744
20
0.4
11
1.07519
21
0.414063
0
LINE
8
BLACK
6
CONTINUOUS
10
1.07519
20
0.414063
11
1.07755
21
0.427949
0
LINE
8
BLACK
6
CONTINUOUS
10
1.07755
20
0.427949
11
1.08145
21
0.441483
0
LINE
8
BLACK
6
CONTINUOUS
10
1.08145
20
0.441483
11
1.08684
21
0.454496
0
LINE
8
BLACK
6
CONTINUOUS
10
1.08684
20
0.454496
11
1.09365
21
0.466823
0
LINE
8
BLACK
6
CONTINUOUS
10
1.09365
20
0.466823
11
1.1018
21
0.47831
0
LINE
8
BLACK
6
CONTINUOUS
10
1.1018
20
0.47831
11
1.11119
21
0.488813
0
LINE
8
BLACK
6
CONTINUOUS
10
1.11119
20
0.488813
11
1.12169
21
0.498198
0
LINE
8
BLACK
6
CONTINUOUS
10
1.12169
20
0.498198
11
1.13318
21
0.506349
0
LINE
8
BLACK
6
CONTINUOUS
10
1.13318
20
0.506349
11
1.1455
21
0.513162
0
LINE
8
BLACK
6
CONTINUOUS
10
1.1455
20
0.513162
11
1.15852
21
0.518552
0
LINE
8
BLACK
6
CONTINUOUS
10
1.15852
20
0.518552
11
1.17205
21
0.522451
0
LINE
8
BLACK
6
CONTINUOUS
10
1.17205
20
0.522451
11
1.18594
21
0.52481
0
LINE
8
BLACK
6
CONTINUOUS
10
1.18594
20
0.52481
11
1.2
21
0.5256
0
LINE
8
BLACK
6
CONTINUOUS
10
1.2
20
0.5256
11
1.21406
21
0.52481
0
LINE
8
BLACK
6
CONTINUOUS
10
1.08996
20
0.387138
11
1.0922
21
0.374451
0
LINE
8
BLACK
6
CONTINUOUS
10
1.0922
20
0.374451
11
1.09589
21
0.362108
0
LINE
8
BLACK
6
CONTINUOUS
10
1.09589
20
0.362108
11
1.101
21
0.350279
0
LINE
8
BLACK
6
CONTINUOUS
10
1.101
20
0.350279
11
1.10744
21
0.339121
0
LINE
8
BLACK
6
CONTINUOUS
10
1.10744
20
0.339121
11
1.11513
21
0.328787
0
LINE
8
BLACK
6
CONTINUOUS
10
1.11513
20
0.328787
11
1.12397
21
0.319416
0
LINE
8
BLACK
6
CONTINUOUS
10
1.12397
20
0.319416
11
1.13384
21
0.311135
0
LINE
8
BLACK
6
CONTINUOUS
10
1.13384
20
0.311135
11
1.14461
21
0.304055
0
LINE
8
BLACK
6
CONTINUOUS
10
1.14461
20
0.304055
11
1.15612
21
0.298273
0
LINE
8
BLACK
6
CONTINUOUS
10
1.15612
20
0.298273
11
1.16823
21
0.293867
0
LINE
8
BLACK
6
CONTINUOUS
10
1.16823
20
0.293867
11
1.18076
21
0.290896
0
LINE
8
BLACK
6
CONTINUOUS
10
1.18076
20
0.290896
11
1.19356
21
0.2894
0
LINE
8
BLACK
6
CONTINUOUS
10
1.19356
20
0.2894
11
1.20644
21
0.2894
0
LINE
8
BLACK
6
CONTINUOUS
10
1.20644
20
0.2894
11
1.21924
21
0.290896
0
LINE
8
BLACK
6
CONTINUOUS
10
1.21924
20
0.290896
11
1.23177
21
0.293867
0
LINE
8
BLACK
6
CONTINUOUS
10
1.23177
20
0.293867
11
1.24388
21
0.298273
0
LINE
8
BLACK
6
CONTINUOUS
10
1.24388
20
0.298273
11
1.25539
21
0.304055
0
LINE
8
BLACK
6
CONTINUOUS
10
1.25539
20
0.304055
11
1.26616
21
0.311135
0
LINE
8
BLACK
6
CONTINUOUS
10
1.26616
20
0.311135
11
1.27603
21
0.319416
0
LINE
8
BLACK
6
CONTINUOUS
10
1.27603
20
0.319416
11
1.28487
21
0.328787
0
LINE
8
BLACK
6
CONTINUOUS
10
1.28487
20
0.328787
11
1.29256
21
0.339121
0
LINE
8
BLACK
6
CONTINUOUS
10
1.29256
20
0.339121
11
1.299
21
0.350279
0
LINE
8
BLACK
6
CONTINUOUS
10
1.299
20
0.350279
11
1.30411
21
0.362108
0
LINE
8
BLACK
6
CONTINUOUS
10
1.30411
20
0.362108
11
1.3078
21
0.374451
0
LINE
8
BLACK
6
CONTINUOUS
10
1.3078
20
0.374451
11
1.31004
21
0.387138
0
LINE
8
BLACK
6
CONTINUOUS
10
1.31004
20
0.387138
11
1.31079
21
0.4
0
LINE
8
BLACK
6
CONTINUOUS
10
1.31079
20
0.4
11
1.31004
21
0.412862
0
LINE
8
BLACK
6
CONTINUOUS
10
1.31004
20
0.412862
11
1.3078
21
0.425549
0
LINE
8
BLACK
6
CONTINUOUS
10
1.3078
20
0.425549
11
1.30411
21
0.437892
0
LINE
8
BLACK
6
CONTINUOUS
10
1.30411
20
0.437892
11
1.299
21
0.449721
0
LINE
8
BLACK
6
CONTINUOUS
10
1.299
20
0.449721
11
1.29256
21
0.460879
0
LINE
8
BLACK
6
CONTINUOUS
10
1.29256
20
0.460879
11
1.28487
21
0.471213
0
LINE
8
BLACK
6
CONTINUOUS
10
1.28487
20
0.471213
11
1.27603
21
0.480584
0
LINE
8
BLACK
6
CONTINUOUS
10
1.27603
20
0.480584
11
1.26616
21
0.488865
0
LINE
8
BLACK
6
CONTINUOUS
10
1.26616
20
0.488865
11
1.25539
21
0.495945
0
LINE
8
BLACK
6
CONTINUOUS
10
1.25539
20
0.495945
11
1.24388
21
0.501727
0
LINE
8
BLACK
6
CONTINUOUS
10
1.24388
20
0.501727
11
1.23177
21
0.506133
0
LINE
8
BLACK
6
CONTINUOUS
10
1.23177
20
0.506133
11
1.21924
21
0.509104
0
LINE
8
BLACK
6
CONTINUOUS
10
1.21924
20
0.509104
11
1.20644
21
0.5106
0
LINE
8
BLACK
6
CONTINUOUS
10
1.20644
20
0.5106
11
1.19356
21
0.5106
0
LINE
8
BLACK
6
CONTINUOUS
10
1.19356
20
0.5106
11
1.18076
21
0.509104
0
LINE
8
BLACK
6
CONTINUOUS
10
1.18076
20
0.509104
11
1.16823
21
0.506133
0
LINE
8
BLACK
6
CONTINUOUS
10
1.16823
20
0.506133
11
1.15612
21
0.501727
0
LINE
8
BLACK
6
CONTINUOUS
10
1.15612
20
0.501727
11
1.14461
21
0.495945
0
LINE
8
BLACK
6
CONTINUOUS
10
1.14461
20
0.495945
11
1.13384
21
0.488865
0
LINE
8
BLACK
6
CONTINUOUS
10
1.13384
20
0.488865
11
1.12397
21
0.480584
0
LINE
8
BLACK
6
CONTINUOUS
10
1.12397
20
0.480584
11
1.11513
21
0.471213
0
LINE
8
BLACK
6
CONTINUOUS
10
1.11513
20
0.471213
11
1.10744
21
0.460879
0
LINE
8
BLACK
6
CONTINUOUS
10
1.10744
20
0.460879
11
1.101
21
0.449721
0
LINE
8
BLACK
6
CONTINUOUS
10
1.101
20
0.449721
11
1.09589
21
0.437892
0
LINE
8
BLACK
6
CONTINUOUS
10
1.09589
20
0.437892
11
1.0922
21
0.425549
0
LINE
8
BLACK
6
CONTINUOUS
10
1.0922
20
0.425549
11
1.08996
21
0.412862
0
LINE
8
BLACK
6
CONTINUOUS
10
1.08996
20
0.412862
11
1.08921
21
0.4
0
LINE
8
BLACK
6
CONTINUOUS
10
1.08921
20
0.4
11
1.08996
21
0.387138
0
LINE
8
BLACK
6
CONTINUOUS
10
0.370913
20
0.8007
11
0.370977
21
0.800701
0
LINE
8
BLACK
6
CONTINUOUS
10
0.370977
20
0.800701
11
0.376601
21
0.798827
0
LINE
8
BLACK
6
CONTINUOUS
10
0.376601
20
0.798827
11
0.377503
21
0.798338
0
LINE
8
BLACK
6
CONTINUOUS
10
0.377503
20
0.798338
11
0.377596
21
0.798188
0
LINE
8
BLACK
6
CONTINUOUS
10
0.377596
20
0.798188
11
0.377756
21
0.798113
0
LINE
8
BLACK
6
CONTINUOUS
10
0.377756
20
0.798113
11
0.381505
21
0.794364
0
LINE
8
BLACK
6
CONTINUOUS
10
0.381505
20
0.794364
11
0.382093
21
0.793524
0
LINE
8
BLACK
6
CONTINUOUS
10
0.382093
20
0.793524
11
0.382109
21
0.793348
0
LINE
8
BLACK
6
CONTINUOUS
10
0.382109
20
0.793348
11
0.382219
21
0.79321
0
LINE
8
BLACK
6
CONTINUOUS
10
0.382219
20
0.79321
11
0.384093
21
0.787585
0
LINE
8
BLACK
6
CONTINUOUS
10
0.384093
20
0.787585
11
0.384223
21
0.786712
0
LINE
8
BLACK
6
CONTINUOUS
10
0.384223
20
0.786712
11
0.384245
21
0.786652
0
LINE
8
BLACK
6
CONTINUOUS
10
0.384245
20
0.786652
11
0.384245
21
0.782902
0
LINE
8
BLACK
6
CONTINUOUS
10
0.384245
20
0.782902
11
0.384067
21
0.781892
0
LINE
8
BLACK
6
CONTINUOUS
10
0.384067
20
0.781892
11
0.382768
21
0.780345
0
LINE
8
BLACK
6
CONTINUOUS
10
0.382768
20
0.780345
11
0.380779
21
0.779994
0
LINE
8
BLACK
6
CONTINUOUS
10
0.380779
20
0.779994
11
0.37903
21
0.781004
0
LINE
8
BLACK
6
CONTINUOUS
10
0.37903
20
0.781004
11
0.378339
21
0.782902
0
LINE
8
BLACK
6
CONTINUOUS
10
0.378339
20
0.782902
11
0.378339
21
0.786173
0
LINE
8
BLACK
6
CONTINUOUS
10
0.378339
20
0.786173
11
0.376837
21
0.790681
0
LINE
8
BLACK
6
CONTINUOUS
10
0.376837
20
0.790681
11
0.374073
21
0.793445
0
LINE
8
BLACK
6
CONTINUOUS
10
0.374073
20
0.793445
11
0.369564
21
0.794948
0
LINE
8
BLACK
6
CONTINUOUS
10
0.369564
20
0.794948
11
0.341922
21
0.794948
0
LINE
8
BLACK
6
CONTINUOUS
10
0.341922
20
0.794948
11
0.340912
21
0.795126
0
LINE
8
BLACK
6
CONTINUOUS
10
0.340912
20
0.795126
11
0.339365
21
0.796424
0
LINE
8
BLACK
6
CONTINUOUS
10
0.339365
20
0.796424
11
0.339014
21
0.798413
0
LINE
8
BLACK
6
CONTINUOUS
10
0.339014
20
0.798413
11
0.340024
21
0.800162
0
LINE
8
BLACK
6
CONTINUOUS
10
0.340024
20
0.800162
11
0.341922
21
0.800853
0
LINE
8
BLACK
6
CONTINUOUS
10
0.341922
20
0.800853
11
0.370043
21
0.800853
0
LINE
8
BLACK
6
CONTINUOUS
10
0.370043
20
0.800853
11
0.370913
21
0.8007
0
LINE
8
BLACK
6
CONTINUOUS
10
0.35404
20
0.84007
11
0.354104
21
0.840072
0
LINE
8
BLACK
6
CONTINUOUS
10
0.354104
20
0.840072
11
0.359729
21
0.838197
0
LINE
8
BLACK
6
CONTINUOUS
10
0.359729
20
0.838197
11
0.36063
21
0.837709
0
LINE
8
BLACK
6
CONTINUOUS
10
0.36063
20
0.837709
11
0.360723
21
0.837558
0
LINE
8
BLACK
6
CONTINUOUS
10
0.360723
20
0.837558
11
0.360883
21
0.837484
0
LINE
8
BLACK
6
CONTINUOUS
10
0.360883
20
0.837484
11
0.378339
21
0.820027
0
LINE
8
BLACK
6
CONTINUOUS
10
0.378339
20
0.820027
11
0.378339
21
0.83727
0
LINE
8
BLACK
6
CONTINUOUS
10
0.378339
20
0.83727
11
0.378517
21
0.83828
0
LINE
8
BLACK
6
CONTINUOUS
10
0.378517
20
0.83828
11
0.379816
21
0.839828
0
LINE
8
BLACK
6
CONTINUOUS
10
0.379816
20
0.839828
11
0.381805
21
0.840178
0
LINE
8
BLACK
6
CONTINUOUS
10
0.381805
20
0.840178
11
0.383554
21
0.839168
0
LINE
8
BLACK
6
CONTINUOUS
10
0.383554
20
0.839168
11
0.384245
21
0.83727
0
LINE
8
BLACK
6
CONTINUOUS
10
0.384245
20
0.83727
11
0.384245
21
0.812898
0
LINE
8
BLACK
6
CONTINUOUS
10
0.384245
20
0.812898
11
0.384133
21
0.812264
0
LINE
8
BLACK
6
CONTINUOUS
10
0.384133
20
0.812264
11
0.384144
21
0.812134
0
LINE
8
BLACK
6
CONTINUOUS
10
0.384144
20
0.812134
11
0.384099
21
0.812069
0
LINE
8
BLACK
6
CONTINUOUS
10
0.384099
20
0.812069
11
0.384067
21
0.811889
0
LINE
8
BLACK
6
CONTINUOUS
10
0.384067
20
0.811889
11
0.383495
21
0.811208
0
LINE
8
BLACK
6
CONTINUOUS
10
0.383495
20
0.811208
11
0.382986
21
0.81048
0
LINE
8
BLACK
6
CONTINUOUS
10
0.382986
20
0.81048
11
0.382855
21
0.810445
0
LINE
8
BLACK
6
CONTINUOUS
10
0.382855
20
0.810445
11
0.382768
21
0.810341
0
LINE
8
BLACK
6
CONTINUOUS
10
0.382768
20
0.810341
11
0.381893
21
0.810187
0
LINE
8
BLACK
6
CONTINUOUS
10
0.381893
20
0.810187
11
0.381035
21
0.809957
0
LINE
8
BLACK
6
CONTINUOUS
10
0.381035
20
0.809957
11
0.380912
21
0.810014
0
LINE
8
BLACK
6
CONTINUOUS
10
0.380912
20
0.810014
11
0.380779
21
0.809991
0
LINE
8
BLACK
6
CONTINUOUS
10
0.380779
20
0.809991
11
0.380009
21
0.810435
0
LINE
8
BLACK
6
CONTINUOUS
10
0.380009
20
0.810435
11
0.379204
21
0.810811
0
LINE
8
BLACK
6
CONTINUOUS
10
0.379204
20
0.810811
11
0.3572
21
0.832815
0
LINE
8
BLACK
6
CONTINUOUS
10
0.3572
20
0.832815
11
0.352691
21
0.834318
0
LINE
8
BLACK
6
CONTINUOUS
10
0.352691
20
0.834318
11
0.350118
21
0.834318
0
LINE
8
BLACK
6
CONTINUOUS
10
0.350118
20
0.834318
11
0.347421
21
0.832969
0
LINE
8
BLACK
6
CONTINUOUS
10
0.347421
20
0.832969
11
0.346224
21
0.831772
0
LINE
8
BLACK
6
CONTINUOUS
10
0.346224
20
0.831772
11
0.344875
21
0.829074
0
LINE
8
BLACK
6
CONTINUOUS
10
0.344875
20
0.829074
11
0.344875
21
0.821095
0
LINE
8
BLACK
6
CONTINUOUS
10
0.344875
20
0.821095
11
0.346224
21
0.818397
0
LINE
8
BLACK
6
CONTINUOUS
10
0.346224
20
0.818397
11
0.347759
21
0.816861
0
LINE
8
BLACK
6
CONTINUOUS
10
0.347759
20
0.816861
11
0.348348
21
0.816021
0
LINE
8
BLACK
6
CONTINUOUS
10
0.348348
20
0.816021
11
0.348524
21
0.814009
0
LINE
8
BLACK
6
CONTINUOUS
10
0.348524
20
0.814009
11
0.347365
21
0.812354
0
LINE
8
BLACK
6
CONTINUOUS
10
0.347365
20
0.812354
11
0.345414
21
0.811832
0
LINE
8
BLACK
6
CONTINUOUS
10
0.345414
20
0.811832
11
0.343584
21
0.812685
0
LINE
8
BLACK
6
CONTINUOUS
10
0.343584
20
0.812685
11
0.341709
21
0.81456
0
LINE
8
BLACK
6
CONTINUOUS
10
0.341709
20
0.81456
11
0.341203
21
0.815283
0
LINE
8
BLACK
6
CONTINUOUS
10
0.341203
20
0.815283
11
0.341156
21
0.815327
0
LINE
8
BLACK
6
CONTINUOUS
10
0.341156
20
0.815327
11
0.339281
21
0.819077
0
LINE
8
BLACK
6
CONTINUOUS
10
0.339281
20
0.819077
11
0.338989
21
0.82006
0
LINE
8
BLACK
6
CONTINUOUS
10
0.338989
20
0.82006
11
0.33903
21
0.820232
0
LINE
8
BLACK
6
CONTINUOUS
10
0.33903
20
0.820232
11
0.338969
21
0.820397
0
LINE
8
BLACK
6
CONTINUOUS
10
0.338969
20
0.820397
11
0.338969
21
0.829771
0
LINE
8
BLACK
6
CONTINUOUS
10
0.338969
20
0.829771
11
0.339147
21
0.830781
0
LINE
8
BLACK
6
CONTINUOUS
10
0.339147
20
0.830781
11
0.339261
21
0.830916
0
LINE
8
BLACK
6
CONTINUOUS
10
0.339261
20
0.830916
11
0.339281
21
0.831092
0
LINE
8
BLACK
6
CONTINUOUS
10
0.339281
20
0.831092
11
0.341156
21
0.834841
0
LINE
8
BLACK
6
CONTINUOUS
10
0.341156
20
0.834841
11
0.341682
21
0.83555
0
LINE
8
BLACK
6
CONTINUOUS
10
0.341682
20
0.83555
11
0.341709
21
0.835609
0
LINE
8
BLACK
6
CONTINUOUS
10
0.341709
20
0.835609
11
0.343584
21
0.837484
0
LINE
8
BLACK
6
CONTINUOUS
10
0.343584
20
0.837484
11
0.344307
21
0.83799
0
LINE
8
BLACK
6
CONTINUOUS
10
0.344307
20
0.83799
11
0.344351
21
0.838037
0
LINE
8
BLACK
6
CONTINUOUS
10
0.344351
20
0.838037
11
0.348101
21
0.839911
0
LINE
8
BLACK
6
CONTINUOUS
10
0.348101
20
0.839911
11
0.349083
21
0.840204
0
LINE
8
BLACK
6
CONTINUOUS
10
0.349083
20
0.840204
11
0.349255
21
0.840163
0
LINE
8
BLACK
6
CONTINUOUS
10
0.349255
20
0.840163
11
0.349421
21
0.840223
0
LINE
8
BLACK
6
CONTINUOUS
10
0.349421
20
0.840223
11
0.353171
21
0.840223
0
LINE
8
BLACK
6
CONTINUOUS
10
0.353171
20
0.840223
11
0.35404
21
0.84007
0
LINE
8
BLACK
6
CONTINUOUS
10
0.463386
20
0.962992
11
0.464778
21
0.962416
0
LINE
8
BLACK
6
CONTINUOUS
10
0.464778
20
0.962416
11
0.465354
21
0.961024
0
LINE
8
BLACK
6
CONTINUOUS
10
0.465354
20
0.961024
11
0.465354
21
0.661024
0
LINE
8
BLACK
6
CONTINUOUS
10
0.465354
20
0.661024
11
0.464778
21
0.659632
0
LINE
8
BLACK
6
CONTINUOUS
10
0.464778
20
0.659632
11
0.463386
21
0.659055
0
LINE
8
BLACK
6
CONTINUOUS
10
0.463386
20
0.659055
11
0.263386
21
0.659055
0
LINE
8
BLACK
6
CONTINUOUS
10
0.263386
20
0.659055
11
0.261994
21
0.659632
0
LINE
8
BLACK
6
CONTINUOUS
10
0.261994
20
0.659632
11
0.261417
21
0.661024
0
LINE
8
BLACK
6
CONTINUOUS
10
0.261417
20
0.661024
11
0.261417
21
0.661024
0
LINE
8
BLACK
6
CONTINUOUS
10
0.261417
20
0.661024
11
0.261417
21
0.911024
0
LINE
8
BLACK
6
CONTINUOUS
10
0.261417
20
0.911024
11
0.261994
21
0.912416
0
LINE
8
BLACK
6
CONTINUOUS
10
0.261994
20
0.912416
11
0.311994
21
0.962416
0
LINE
8
BLACK
6
CONTINUOUS
10
0.311994
20
0.962416
11
0.311994
21
0.962416
0
LINE
8
BLACK
6
CONTINUOUS
10
0.311994
20
0.962416
11
0.313386
21
0.962992
0
LINE
8
BLACK
6
CONTINUOUS
10
0.313386
20
0.962992
11
0.463386
21
0.962992
0
LINE
8
BLACK
6
CONTINUOUS
10
0.314201
20
0.959055
11
0.265354
21
0.910208
0
LINE
8
BLACK
6
CONTINUOUS
10
0.265354
20
0.910208
11
0.265354
21
0.662992
0
LINE
8
BLACK
6
CONTINUOUS
10
0.265354
20
0.662992
11
0.461417
21
0.662992
0
LINE
8
BLACK
6
CONTINUOUS
10
0.461417
20
0.662992
11
0.461417
21
0.959055
0
LINE
8
BLACK
6
CONTINUOUS
10
0.461417
20
0.959055
11
0.314201
21
0.959055
0
LINE
8
BLACK
6
CONTINUOUS
10
1.21619
20
0.801093
11
1.21625
21
0.801095
0
LINE
8
BLACK
6
CONTINUOUS
10
1.21625
20
0.801095
11
1.22188
21
0.79922
0
LINE
8
BLACK
6
CONTINUOUS
10
1.22188
20
0.79922
11
1.22278
21
0.798732
0
LINE
8
BLACK
6
CONTINUOUS
10
1.22278
20
0.798732
11
1.22287
21
0.798582
0
LINE
8
BLACK
6
CONTINUOUS
10
1.22287
20
0.798582
11
1.22303
21
0.798507
0
LINE
8
BLACK
6
CONTINUOUS
10
1.22303
20
0.798507
11
1.22678
21
0.794758
0
LINE
8
BLACK
6
CONTINUOUS
10
1.22678
20
0.794758
11
1.22737
21
0.793918
0
LINE
8
BLACK
6
CONTINUOUS
10
1.22737
20
0.793918
11
1.22738
21
0.793742
0
LINE
8
BLACK
6
CONTINUOUS
10
1.22738
20
0.793742
11
1.22749
21
0.793603
0
LINE
8
BLACK
6
CONTINUOUS
10
1.22749
20
0.793603
11
1.22937
21
0.787979
0
LINE
8
BLACK
6
CONTINUOUS
10
1.22937
20
0.787979
11
1.2295
21
0.787106
0
LINE
8
BLACK
6
CONTINUOUS
10
1.2295
20
0.787106
11
1.22952
21
0.787045
0
LINE
8
BLACK
6
CONTINUOUS
10
1.22952
20
0.787045
11
1.22952
21
0.783296
0
LINE
8
BLACK
6
CONTINUOUS
10
1.22952
20
0.783296
11
1.22934
21
0.782286
0
LINE
8
BLACK
6
CONTINUOUS
10
1.22934
20
0.782286
11
1.22804
21
0.780739
0
LINE
8
BLACK
6
CONTINUOUS
10
1.22804
20
0.780739
11
1.22605
21
0.780388
0
LINE
8
BLACK
6
CONTINUOUS
10
1.22605
20
0.780388
11
1.22431
21
0.781398
0
LINE
8
BLACK
6
CONTINUOUS
10
1.22431
20
0.781398
11
1.22361
21
0.783296
0
LINE
8
BLACK
6
CONTINUOUS
10
1.22361
20
0.783296
11
1.22361
21
0.786566
0
LINE
8
BLACK
6
CONTINUOUS
10
1.22361
20
0.786566
11
1.22211
21
0.791075
0
LINE
8
BLACK
6
CONTINUOUS
10
1.22211
20
0.791075
11
1.21935
21
0.793838
0
LINE
8
BLACK
6
CONTINUOUS
10
1.21935
20
0.793838
11
1.21484
21
0.795341
0
LINE
8
BLACK
6
CONTINUOUS
10
1.21484
20
0.795341
11
1.1872
21
0.795341
0
LINE
8
BLACK
6
CONTINUOUS
10
1.1872
20
0.795341
11
1.18619
21
0.795519
0
LINE
8
BLACK
6
CONTINUOUS
10
1.18619
20
0.795519
11
1.18464
21
0.796818
0
LINE
8
BLACK
6
CONTINUOUS
10
1.18464
20
0.796818
11
1.18429
21
0.798807
0
LINE
8
BLACK
6
CONTINUOUS
10
1.18429
20
0.798807
11
1.1853
21
0.800556
0
LINE
8
BLACK
6
CONTINUOUS
10
1.1853
20
0.800556
11
1.1872
21
0.801247
0
LINE
8
BLACK
6
CONTINUOUS
10
1.1872
20
0.801247
11
1.21532
21
0.801247
0
LINE
8
BLACK
6
CONTINUOUS
10
1.21532
20
0.801247
11
1.21619
21
0.801093
0
LINE
8
BLACK
6
CONTINUOUS
10
1.20133
20
0.842314
11
1.20147
21
0.8422
0
LINE
8
BLACK
6
CONTINUOUS
10
1.20147
20
0.8422
11
1.20164
21
0.84218
0
LINE
8
BLACK
6
CONTINUOUS
10
1.20164
20
0.84218
11
1.20539
21
0.840305
0
LINE
8
BLACK
6
CONTINUOUS
10
1.20539
20
0.840305
11
1.2061
21
0.839779
0
LINE
8
BLACK
6
CONTINUOUS
10
1.2061
20
0.839779
11
1.20616
21
0.839752
0
LINE
8
BLACK
6
CONTINUOUS
10
1.20616
20
0.839752
11
1.20803
21
0.837877
0
LINE
8
BLACK
6
CONTINUOUS
10
1.20803
20
0.837877
11
1.20854
21
0.837154
0
LINE
8
BLACK
6
CONTINUOUS
10
1.20854
20
0.837154
11
1.20859
21
0.83711
0
LINE
8
BLACK
6
CONTINUOUS
10
1.20859
20
0.83711
11
1.21046
21
0.83336
0
LINE
8
BLACK
6
CONTINUOUS
10
1.21046
20
0.83336
11
1.21075
21
0.832377
0
LINE
8
BLACK
6
CONTINUOUS
10
1.21075
20
0.832377
11
1.21071
21
0.832206
0
LINE
8
BLACK
6
CONTINUOUS
10
1.21071
20
0.832206
11
1.21077
21
0.83204
0
LINE
8
BLACK
6
CONTINUOUS
10
1.21077
20
0.83204
11
1.21077
21
0.819994
0
LINE
8
BLACK
6
CONTINUOUS
10
1.21077
20
0.819994
11
1.22657
21
0.819994
0
LINE
8
BLACK
6
CONTINUOUS
10
1.22657
20
0.819994
11
1.22758
21
0.819816
0
LINE
8
BLACK
6
CONTINUOUS
10
1.22758
20
0.819816
11
1.22912
21
0.818518
0
LINE
8
BLACK
6
CONTINUOUS
10
1.22912
20
0.818518
11
1.22948
21
0.816529
0
LINE
8
BLACK
6
CONTINUOUS
10
1.22948
20
0.816529
11
1.22847
21
0.81478
0
LINE
8
BLACK
6
CONTINUOUS
10
1.22847
20
0.81478
11
1.22657
21
0.814089
0
LINE
8
BLACK
6
CONTINUOUS
10
1.22657
20
0.814089
11
1.1872
21
0.814089
0
LINE
8
BLACK
6
CONTINUOUS
10
1.1872
20
0.814089
11
1.18681
21
0.814157
0
LINE
8
BLACK
6
CONTINUOUS
10
1.18681
20
0.814157
11
1.18668
21
0.814134
0
LINE
8
BLACK
6
CONTINUOUS
10
1.18668
20
0.814134
11
1.18657
21
0.814199
0
LINE
8
BLACK
6
CONTINUOUS
10
1.18657
20
0.814199
11
1.18619
21
0.814267
0
LINE
8
BLACK
6
CONTINUOUS
10
1.18619
20
0.814267
11
1.1856
21
0.81476
0
LINE
8
BLACK
6
CONTINUOUS
10
1.1856
20
0.81476
11
1.18494
21
0.815144
0
LINE
8
BLACK
6
CONTINUOUS
10
1.18494
20
0.815144
11
1.18484
21
0.815394
0
LINE
8
BLACK
6
CONTINUOUS
10
1.18484
20
0.815394
11
1.18464
21
0.815565
0
LINE
8
BLACK
6
CONTINUOUS
10
1.18464
20
0.815565
11
1.18451
21
0.816321
0
LINE
8
BLACK
6
CONTINUOUS
10
1.18451
20
0.816321
11
1.18424
21
0.817042
0
LINE
8
BLACK
6
CONTINUOUS
10
1.18424
20
0.817042
11
1.18424
21
0.83204
0
LINE
8
BLACK
6
CONTINUOUS
10
1.18424
20
0.83204
11
1.18442
21
0.83305
0
LINE
8
BLACK
6
CONTINUOUS
10
1.18442
20
0.83305
11
1.18454
21
0.833185
0
LINE
8
BLACK
6
CONTINUOUS
10
1.18454
20
0.833185
11
1.18456
21
0.83336
0
LINE
8
BLACK
6
CONTINUOUS
10
1.18456
20
0.83336
11
1.18643
21
0.83711
0
LINE
8
BLACK
6
CONTINUOUS
10
1.18643
20
0.83711
11
1.18696
21
0.837819
0
LINE
8
BLACK
6
CONTINUOUS
10
1.18696
20
0.837819
11
1.18698
21
0.837877
0
LINE
8
BLACK
6
CONTINUOUS
10
1.18698
20
0.837877
11
1.18886
21
0.839752
0
LINE
8
BLACK
6
CONTINUOUS
10
1.18886
20
0.839752
11
1.18958
21
0.840258
0
LINE
8
BLACK
6
CONTINUOUS
10
1.18958
20
0.840258
11
1.18963
21
0.840305
0
LINE
8
BLACK
6
CONTINUOUS
10
1.18963
20
0.840305
11
1.19338
21
0.84218
0
LINE
8
BLACK
6
CONTINUOUS
10
1.19338
20
0.84218
11
1.19436
21
0.842472
0
LINE
8
BLACK
6
CONTINUOUS
10
1.19436
20
0.842472
11
1.19453
21
0.842431
0
LINE
8
BLACK
6
CONTINUOUS
10
1.19453
20
0.842431
11
1.1947
21
0.842492
0
LINE
8
BLACK
6
CONTINUOUS
10
1.1947
20
0.842492
11
1.20032
21
0.842492
0
LINE
8
BLACK
6
CONTINUOUS
10
1.20032
20
0.842492
11
1.20133
21
0.842314
0
LINE
8
BLACK
6
CONTINUOUS
10
1.1927
20
0.835237
11
1.1915
21
0.83404
0
LINE
8
BLACK
6
CONTINUOUS
10
1.1915
20
0.83404
11
1.19015
21
0.831343
0
LINE
8
BLACK
6
CONTINUOUS
10
1.19015
20
0.831343
11
1.19015
21
0.819994
0
LINE
8
BLACK
6
CONTINUOUS
10
1.19015
20
0.819994
11
1.20487
21
0.819994
0
LINE
8
BLACK
6
CONTINUOUS
10
1.20487
20
0.819994
11
1.20487
21
0.831343
0
LINE
8
BLACK
6
CONTINUOUS
10
1.20487
20
0.831343
11
1.20352
21
0.83404
0
LINE
8
BLACK
6
CONTINUOUS
10
1.20352
20
0.83404
11
1.20232
21
0.835237
0
LINE
8
BLACK
6
CONTINUOUS
10
1.20232
20
0.835237
11
1.19962
21
0.836586
0
LINE
8
BLACK
6
CONTINUOUS
10
1.19962
20
0.836586
11
1.19539
21
0.836586
0
LINE
8
BLACK
6
CONTINUOUS
10
1.19539
20
0.836586
11
1.1927
21
0.835237
0
LINE
8
BLACK
6
CONTINUOUS
10
1.21571
20
0.880807
11
1.2164
21
0.878909
0
LINE
8
BLACK
6
CONTINUOUS
10
1.2164
20
0.878909
11
1.2164
21
0.876237
0
LINE
8
BLACK
6
CONTINUOUS
10
1.2164
20
0.876237
11
1.22657
21
0.876237
0
LINE
8
BLACK
6
CONTINUOUS
10
1.22657
20
0.876237
11
1.22758
21
0.876059
0
LINE
8
BLACK
6
CONTINUOUS
10
1.22758
20
0.876059
11
1.22912
21
0.874761
0
LINE
8
BLACK
6
CONTINUOUS
10
1.22912
20
0.874761
11
1.22948
21
0.872772
0
LINE
8
BLACK
6
CONTINUOUS
10
1.22948
20
0.872772
11
1.22847
21
0.871023
0
LINE
8
BLACK
6
CONTINUOUS
10
1.22847
20
0.871023
11
1.22657
21
0.870332
0
LINE
8
BLACK
6
CONTINUOUS
10
1.22657
20
0.870332
11
1.2164
21
0.870332
0
LINE
8
BLACK
6
CONTINUOUS
10
1.2164
20
0.870332
11
1.2164
21
0.854537
0
LINE
8
BLACK
6
CONTINUOUS
10
1.2164
20
0.854537
11
1.21622
21
0.853527
0
LINE
8
BLACK
6
CONTINUOUS
10
1.21622
20
0.853527
11
1.21607
21
0.853354
0
LINE
8
BLACK
6
CONTINUOUS
10
1.21607
20
0.853354
11
1.21604
21
0.853131
0
LINE
8
BLACK
6
CONTINUOUS
10
1.21604
20
0.853131
11
1.21544
21
0.852597
0
LINE
8
BLACK
6
CONTINUOUS
10
1.21544
20
0.852597
11
1.21492
21
0.85198
0
LINE
8
BLACK
6
CONTINUOUS
10
1.21492
20
0.85198
11
1.2147
21
0.851941
0
LINE
8
BLACK
6
CONTINUOUS
10
1.2147
20
0.851941
11
1.21453
21
0.851791
0
LINE
8
BLACK
6
CONTINUOUS
10
1.21453
20
0.851791
11
1.21372
21
0.851769
0
LINE
8
BLACK
6
CONTINUOUS
10
1.21372
20
0.851769
11
1.21293
21
0.851629
0
LINE
8
BLACK
6
CONTINUOUS
10
1.21293
20
0.851629
11
1.21274
21
0.851742
0
LINE
8
BLACK
6
CONTINUOUS
10
1.21274
20
0.851742
11
1.21251
21
0.851736
0
LINE
8
BLACK
6
CONTINUOUS
10
1.21251
20
0.851736
11
1.18439
21
0.86111
0
LINE
8
BLACK
6
CONTINUOUS
10
1.18439
20
0.86111
11
1.18349
21
0.861598
0
LINE
8
BLACK
6
CONTINUOUS
10
1.18349
20
0.861598
11
1.18243
21
0.863319
0
LINE
8
BLACK
6
CONTINUOUS
10
1.18243
20
0.863319
11
1.18273
21
0.865317
0
LINE
8
BLACK
6
CONTINUOUS
10
1.18273
20
0.865317
11
1.18424
21
0.866657
0
LINE
8
BLACK
6
CONTINUOUS
10
1.18424
20
0.866657
11
1.18626
21
0.866712
0
LINE
8
BLACK
6
CONTINUOUS
10
1.18626
20
0.866712
11
1.21049
21
0.858634
0
LINE
8
BLACK
6
CONTINUOUS
10
1.21049
20
0.858634
11
1.21049
21
0.870332
0
LINE
8
BLACK
6
CONTINUOUS
10
1.21049
20
0.870332
11
1.20032
21
0.870332
0
LINE
8
BLACK
6
CONTINUOUS
10
1.20032
20
0.870332
11
1.19931
21
0.87051
0
LINE
8
BLACK
6
CONTINUOUS
10
1.19931
20
0.87051
11
1.19776
21
0.871808
0
LINE
8
BLACK
6
CONTINUOUS
10
1.19776
20
0.871808
11
1.19741
21
0.873797
0
LINE
8
BLACK
6
CONTINUOUS
10
1.19741
20
0.873797
11
1.19842
21
0.875547
0
LINE
8
BLACK
6
CONTINUOUS
10
1.19842
20
0.875547
11
1.20032
21
0.876237
0
LINE
8
BLACK
6
CONTINUOUS
10
1.20032
20
0.876237
11
1.21049
21
0.876237
0
LINE
8
BLACK
6
CONTINUOUS
10
1.21049
20
0.876237
11
1.21049
21
0.878909
0
LINE
8
BLACK
6
CONTINUOUS
10
1.21049
20
0.878909
11
1.21067
21
0.879919
0
LINE
8
BLACK
6
CONTINUOUS
10
1.21067
20
0.879919
11
1.21197
21
0.881466
0
LINE
8
BLACK
6
CONTINUOUS
10
1.21197
20
0.881466
11
1.21396
21
0.881817
0
LINE
8
BLACK
6
CONTINUOUS
10
1.21396
20
0.881817
11
1.21571
21
0.880807
0
LINE
8
BLACK
6
CONTINUOUS
10
1.25866
20
0.983071
11
1.26005
21
0.982494
0
LINE
8
BLACK
6
CONTINUOUS
10
1.26005
20
0.982494
11
1.26063
21
0.981102
0
LINE
8
BLACK
6
CONTINUOUS
10
1.26063
20
0.981102
11
1.26063
21
0.681102
0
LINE
8
BLACK
6
CONTINUOUS
10
1.26063
20
0.681102
11
1.26005
21
0.67971
0
LINE
8
BLACK
6
CONTINUOUS
10
1.26005
20
0.67971
11
1.25866
21
0.679134
0
LINE
8
BLACK
6
CONTINUOUS
10
1.25866
20
0.679134
11
1.15866
21
0.679134
0
LINE
8
BLACK
6
CONTINUOUS
10
1.15866
20
0.679134
11
1.15727
21
0.67971
0
LINE
8
BLACK
6
CONTINUOUS
10
1.15727
20
0.67971
11
1.15669
21
0.681102
0
LINE
8
BLACK
6
CONTINUOUS
10
1.15669
20
0.681102
11
1.15669
21
0.681102
0
LINE
8
BLACK
6
CONTINUOUS
10
1.15669
20
0.681102
11
1.15669
21
0.956102
0
LINE
8
BLACK
6
CONTINUOUS
10
1.15669
20
0.956102
11
1.15727
21
0.957494
0
LINE
8
BLACK
6
CONTINUOUS
10
1.15727
20
0.957494
11
1.15727
21
0.957494
0
LINE
8
BLACK
6
CONTINUOUS
10
1.15727
20
0.957494
11
1.18227
21
0.982494
0
LINE
8
BLACK
6
CONTINUOUS
10
1.18227
20
0.982494
11
1.18366
21
0.983071
0
LINE
8
BLACK
6
CONTINUOUS
10
1.18366
20
0.983071
11
1.25866
21
0.983071
0
LINE
8
BLACK
6
CONTINUOUS
10
1.18448
20
0.979134
11
1.16063
21
0.955287
0
LINE
8
BLACK
6
CONTINUOUS
10
1.16063
20
0.955287
11
1.16063
21
0.683071
0
LINE
8
BLACK
6
CONTINUOUS
10
1.16063
20
0.683071
11
1.25669
21
0.683071
0
LINE
8
BLACK
6
CONTINUOUS
10
1.25669
20
0.683071
11
1.25669
21
0.979134
0
LINE
8
BLACK
6
CONTINUOUS
10
1.25669
20
0.979134
11
1.18448
21
0.979134
0
LINE
8
BLACK
6
CONTINUOUS
10
0.414063
20
1.32481
11
0.427949
21
1.32245
0
LINE
8
BLACK
6
CONTINUOUS
10
0.427949
20
1.32245
11
0.441483
21
1.31855
0
LINE
8
BLACK
6
CONTINUOUS
10
0.441483
20
1.31855
11
0.454496
21
1.31316
0
LINE
8
BLACK
6
CONTINUOUS
10
0.454496
20
1.31316
11
0.466823
21
1.30635
0
LINE
8
BLACK
6
CONTINUOUS
10
0.466823
20
1.30635
11
0.47831
21
1.2982
0
LINE
8
BLACK
6
CONTINUOUS
10
0.47831
20
1.2982
11
0.488813
21
1.28881
0
LINE
8
BLACK
6
CONTINUOUS
10
0.488813
20
1.28881
11
0.498198
21
1.27831
0
LINE
8
BLACK
6
CONTINUOUS
10
0.498198
20
1.27831
11
0.506349
21
1.26682
0
LINE
8
BLACK
6
CONTINUOUS
10
0.506349
20
1.26682
11
0.513162
21
1.2545
0
LINE
8
BLACK
6
CONTINUOUS
10
0.513162
20
1.2545
11
0.518552
21
1.24148
0
LINE
8
BLACK
6
CONTINUOUS
10
0.518552
20
1.24148
11
0.522451
21
1.22795
0
LINE
8
BLACK
6
CONTINUOUS
10
0.522451
20
1.22795
11
0.52481
21
1.21406
0
LINE
8
BLACK
6
CONTINUOUS
10
0.52481
20
1.21406
11
0.5256
21
1.2
0
LINE
8
BLACK
6
CONTINUOUS
10
0.5256
20
1.2
11
0.52481
21
1.18594
0
LINE
8
BLACK
6
CONTINUOUS
10
0.52481
20
1.18594
11
0.522451
21
1.17205
0
LINE
8
BLACK
6
CONTINUOUS
10
0.522451
20
1.17205
11
0.518552
21
1.15852
0
LINE
8
BLACK
6
CONTINUOUS
10
0.518552
20
1.15852
11
0.513162
21
1.1455
0
LINE
8
BLACK
6
CONTINUOUS
10
0.513162
20
1.1455
11
0.506349
21
1.13318
0
LINE
8
BLACK
6
CONTINUOUS
10
0.506349
20
1.13318
11
0.498198
21
1.12169
0
LINE
8
BLACK
6
CONTINUOUS
10
0.498198
20
1.12169
11
0.488813
21
1.11119
0
LINE
8
BLACK
6
CONTINUOUS
10
0.488813
20
1.11119
11
0.47831
21
1.1018
0
LINE
8
BLACK
6
CONTINUOUS
10
0.47831
20
1.1018
11
0.466823
21
1.09365
0
LINE
8
BLACK
6
CONTINUOUS
10
0.466823
20
1.09365
11
0.454496
21
1.08684
0
LINE
8
BLACK
6
CONTINUOUS
10
0.454496
20
1.08684
11
0.441483
21
1.08145
0
LINE
8
BLACK
6
CONTINUOUS
10
0.441483
20
1.08145
11
0.427949
21
1.07755
0
LINE
8
BLACK
6
CONTINUOUS
10
0.427949
20
1.07755
11
0.414063
21
1.07519
0
LINE
8
BLACK
6
CONTINUOUS
10
0.414063
20
1.07519
11
0.4
21
1.0744
0
LINE
8
BLACK
6
CONTINUOUS
10
0.4
20
1.0744
11
0.385937
21
1.07519
0
LINE
8
BLACK
6
CONTINUOUS
10
0.385937
20
1.07519
11
0.372051
21
1.07755
0
LINE
8
BLACK
6
CONTINUOUS
10
0.372051
20
1.07755
11
0.358517
21
1.08145
0
LINE
8
BLACK
6
CONTINUOUS
10
0.358517
20
1.08145
11
0.345504
21
1.08684
0
LINE
8
BLACK
6
CONTINUOUS
10
0.345504
20
1.08684
11
0.333177
21
1.09365
0
LINE
8
BLACK
6
CONTINUOUS
10
0.333177
20
1.09365
11
0.32169
21
1.1018
0
LINE
8
BLACK
6
CONTINUOUS
10
0.32169
20
1.1018
11
0.311187
21
1.11119
0
LINE
8
BLACK
6
CONTINUOUS
10
0.311187
20
1.11119
11
0.301802
21
1.12169
0
LINE
8
BLACK
6
CONTINUOUS
10
0.301802
20
1.12169
11
0.293651
21
1.13318
0
LINE
8
BLACK
6
CONTINUOUS
10
0.293651
20
1.13318
11
0.286838
21
1.1455
0
LINE
8
BLACK
6
CONTINUOUS
10
0.286838
20
1.1455
11
0.281448
21
1.15852
0
LINE
8
BLACK
6
CONTINUOUS
10
0.281448
20
1.15852
11
0.277549
21
1.17205
0
LINE
8
BLACK
6
CONTINUOUS
10
0.277549
20
1.17205
11
0.27519
21
1.18594
0
LINE
8
BLACK
6
CONTINUOUS
10
0.27519
20
1.18594
11
0.2744
21
1.2
0
LINE
8
BLACK
6
CONTINUOUS
10
0.2744
20
1.2
11
0.27519
21
1.21406
0
LINE
8
BLACK
6
CONTINUOUS
10
0.27519
20
1.21406
11
0.277549
21
1.22795
0
LINE
8
BLACK
6
CONTINUOUS
10
0.277549
20
1.22795
11
0.281448
21
1.24148
0
LINE
8
BLACK
6
CONTINUOUS
10
0.281448
20
1.24148
11
0.286838
21
1.2545
0
LINE
8
BLACK
6
CONTINUOUS
10
0.286838
20
1.2545
11
0.293651
21
1.26682
0
LINE
8
BLACK
6
CONTINUOUS
10
0.293651
20
1.26682
11
0.301802
21
1.27831
0
LINE
8
BLACK
6
CONTINUOUS
10
0.301802
20
1.27831
11
0.311187
21
1.28881
0
LINE
8
BLACK
6
CONTINUOUS
10
0.311187
20
1.28881
11
0.32169
21
1.2982
0
LINE
8
BLACK
6
CONTINUOUS
10
0.32169
20
1.2982
11
0.333177
21
1.30635
0
LINE
8
BLACK
6
CONTINUOUS
10
0.333177
20
1.30635
11
0.345504
21
1.31316
0
LINE
8
BLACK
6
CONTINUOUS
10
0.345504
20
1.31316
11
0.358517
21
1.31855
0
LINE
8
BLACK
6
CONTINUOUS
10
0.358517
20
1.31855
11
0.372051
21
1.32245
0
LINE
8
BLACK
6
CONTINUOUS
10
0.372051
20
1.32245
11
0.385937
21
1.32481
0
LINE
8
BLACK
6
CONTINUOUS
10
0.385937
20
1.32481
11
0.4
21
1.3256
0
LINE
8
BLACK
6
CONTINUOUS
10
0.4
20
1.3256
11
0.414063
21
1.32481
0
LINE
8
BLACK
6
CONTINUOUS
10
0.289962
20
1.18714
11
0.292199
21
1.17445
0
LINE
8
BLACK
6
CONTINUOUS
10
0.292199
20
1.17445
11
0.295894
21
1.16211
0
LINE
8
BLACK
6
CONTINUOUS
10
0.295894
20
1.16211
11
0.300997
21
1.15028
0
LINE
8
BLACK
6
CONTINUOUS
10
0.300997
20
1.15028
11
0.307438
21
1.13912
0
LINE
8
BLACK
6
CONTINUOUS
10
0.307438
20
1.13912
11
0.315132
21
1.12879
0
LINE
8
BLACK
6
CONTINUOUS
10
0.315132
20
1.12879
11
0.323973
21
1.11942
0
LINE
8
BLACK
6
CONTINUOUS
10
0.323973
20
1.11942
11
0.333842
21
1.11113
0
LINE
8
BLACK
6
CONTINUOUS
10
0.333842
20
1.11113
11
0.344606
21
1.10406
0
LINE
8
BLACK
6
CONTINUOUS
10
0.344606
20
1.10406
11
0.356119
21
1.09827
0
LINE
8
BLACK
6
CONTINUOUS
10
0.356119
20
1.09827
11
0.368226
21
1.09387
0
LINE
8
BLACK
6
CONTINUOUS
10
0.368226
20
1.09387
11
0.380762
21
1.0909
0
LINE
8
BLACK
6
CONTINUOUS
10
0.380762
20
1.0909
11
0.393558
21
1.0894
0
LINE
8
BLACK
6
CONTINUOUS
10
0.393558
20
1.0894
11
0.406442
21
1.0894
0
LINE
8
BLACK
6
CONTINUOUS
10
0.406442
20
1.0894
11
0.419238
21
1.0909
0
LINE
8
BLACK
6
CONTINUOUS
10
0.419238
20
1.0909
11
0.431774
21
1.09387
0
LINE
8
BLACK
6
CONTINUOUS
10
0.431774
20
1.09387
11
0.443881
21
1.09827
0
LINE
8
BLACK
6
CONTINUOUS
10
0.443881
20
1.09827
11
0.455394
21
1.10406
0
LINE
8
BLACK
6
CONTINUOUS
10
0.455394
20
1.10406
11
0.466158
21
1.11113
0
LINE
8
BLACK
6
CONTINUOUS
10
0.466158
20
1.11113
11
0.476027
21
1.11942
0
LINE
8
BLACK
6
CONTINUOUS
10
0.476027
20
1.11942
11
0.484868
21
1.12879
0
LINE
8
BLACK
6
CONTINUOUS
10
0.484868
20
1.12879
11
0.492562
21
1.13912
0
LINE
8
BLACK
6
CONTINUOUS
10
0.492562
20
1.13912
11
0.499003
21
1.15028
0
LINE
8
BLACK
6
CONTINUOUS
10
0.499003
20
1.15028
11
0.504106
21
1.16211
0
LINE
8
BLACK
6
CONTINUOUS
10
0.504106
20
1.16211
11
0.507801
21
1.17445
0
LINE
8
BLACK
6
CONTINUOUS
10
0.507801
20
1.17445
11
0.510038
21
1.18714
0
LINE
8
BLACK
6
CONTINUOUS
10
0.510038
20
1.18714
11
0.510787
21
1.2
0
LINE
8
BLACK
6
CONTINUOUS
10
0.510787
20
1.2
11
0.510038
21
1.21286
0
LINE
8
BLACK
6
CONTINUOUS
10
0.510038
20
1.21286
11
0.507801
21
1.22555
0
LINE
8
BLACK
6
CONTINUOUS
10
0.507801
20
1.22555
11
0.504106
21
1.23789
0
LINE
8
BLACK
6
CONTINUOUS
10
0.504106
20
1.23789
11
0.499003
21
1.24972
0
LINE
8
BLACK
6
CONTINUOUS
10
0.499003
20
1.24972
11
0.492562
21
1.26088
0
LINE
8
BLACK
6
CONTINUOUS
10
0.492562
20
1.26088
11
0.484868
21
1.27121
0
LINE
8
BLACK
6
CONTINUOUS
10
0.484868
20
1.27121
11
0.476027
21
1.28058
0
LINE
8
BLACK
6
CONTINUOUS
10
0.476027
20
1.28058
11
0.466158
21
1.28887
0
LINE
8
BLACK
6
CONTINUOUS
10
0.466158
20
1.28887
11
0.455394
21
1.29594
0
LINE
8
BLACK
6
CONTINUOUS
10
0.455394
20
1.29594
11
0.443881
21
1.30173
0
LINE
8
BLACK
6
CONTINUOUS
10
0.443881
20
1.30173
11
0.431774
21
1.30613
0
LINE
8
BLACK
6
CONTINUOUS
10
0.431774
20
1.30613
11
0.419238
21
1.3091
0
LINE
8
BLACK
6
CONTINUOUS
10
0.419238
20
1.3091
11
0.406442
21
1.3106
0
LINE
8
BLACK
6
CONTINUOUS
10
0.406442
20
1.3106
11
0.393558
21
1.3106
0
LINE
8
BLACK
6
CONTINUOUS
10
0.393558
20
1.3106
11
0.380762
21
1.3091
0
LINE
8
BLACK
6
CONTINUOUS
10
0.380762
20
1.3091
11
0.368226
21
1.30613
0
LINE
8
BLACK
6
CONTINUOUS
10
0.368226
20
1.30613
11
0.356119
21
1.30173
0
LINE
8
BLACK
6
CONTINUOUS
10
0.356119
20
1.30173
11
0.344606
21
1.29594
0
LINE
8
BLACK
6
CONTINUOUS
10
0.344606
20
1.29594
11
0.333842
21
1.28887
0
LINE
8
BLACK
6
CONTINUOUS
10
0.333842
20
1.28887
11
0.323973
21
1.28058
0
LINE
8
BLACK
6
CONTINUOUS
10
0.323973
20
1.28058
11
0.315132
21
1.27121
0
LINE
8
BLACK
6
CONTINUOUS
10
0.315132
20
1.27121
11
0.307438
21
1.26088
0
LINE
8
BLACK
6
CONTINUOUS
10
0.307438
20
1.26088
11
0.300997
21
1.24972
0
LINE
8
BLACK
6
CONTINUOUS
10
0.300997
20
1.24972
11
0.295894
21
1.23789
0
LINE
8
BLACK
6
CONTINUOUS
10
0.295894
20
1.23789
11
0.292199
21
1.22555
0
LINE
8
BLACK
6
CONTINUOUS
10
0.292199
20
1.22555
11
0.289962
21
1.21286
0
LINE
8
BLACK
6
CONTINUOUS
10
0.289962
20
1.21286
11
0.289213
21
1.2
0
LINE
8
BLACK
6
CONTINUOUS
10
0.289213
20
1.2
11
0.289962
21
1.18714
0
LINE
8
BLACK
6
CONTINUOUS
10
1.21406
20
1.32481
11
1.22795
21
1.32245
0
LINE
8
BLACK
6
CONTINUOUS
10
1.22795
20
1.32245
11
1.24148
21
1.31855
0
LINE
8
BLACK
6
CONTINUOUS
10
1.24148
20
1.31855
11
1.2545
21
1.31316
0
LINE
8
BLACK
6
CONTINUOUS
10
1.2545
20
1.31316
11
1.26682
21
1.30635
0
LINE
8
BLACK
6
CONTINUOUS
10
1.26682
20
1.30635
11
1.27831
21
1.2982
0
LINE
8
BLACK
6
CONTINUOUS
10
1.27831
20
1.2982
11
1.28881
21
1.28881
0
LINE
8
BLACK
6
CONTINUOUS
10
1.28881
20
1.28881
11
1.2982
21
1.27831
0
LINE
8
BLACK
6
CONTINUOUS
10
1.2982
20
1.27831
11
1.30635
21
1.26682
0
LINE
8
BLACK
6
CONTINUOUS
10
1.30635
20
1.26682
11
1.31316
21
1.2545
0
LINE
8
BLACK
6
CONTINUOUS
10
1.31316
20
1.2545
11
1.31855
21
1.24148
0
LINE
8
BLACK
6
CONTINUOUS
10
1.31855
20
1.24148
11
1.32245
21
1.22795
0
LINE
8
BLACK
6
CONTINUOUS
10
1.32245
20
1.22795
11
1.32481
21
1.21406
0
LINE
8
BLACK
6
CONTINUOUS
10
1.32481
20
1.21406
11
1.3256
21
1.2
0
LINE
8
BLACK
6
CONTINUOUS
10
1.3256
20
1.2
11
1.32481
21
1.18594
0
LINE
8
BLACK
6
CONTINUOUS
10
1.32481
20
1.18594
11
1.32245
21
1.17205
0
LINE
8
BLACK
6
CONTINUOUS
10
1.32245
20
1.17205
11
1.31855
21
1.15852
0
LINE
8
BLACK
6
CONTINUOUS
10
1.31855
20
1.15852
11
1.31316
21
1.1455
0
LINE
8
BLACK
6
CONTINUOUS
10
1.31316
20
1.1455
11
1.30635
21
1.13318
0
LINE
8
BLACK
6
CONTINUOUS
10
1.30635
20
1.13318
11
1.2982
21
1.12169
0
LINE
8
BLACK
6
CONTINUOUS
10
1.2982
20
1.12169
11
1.28881
21
1.11119
0
LINE
8
BLACK
6
CONTINUOUS
10
1.28881
20
1.11119
11
1.27831
21
1.1018
0
LINE
8
BLACK
6
CONTINUOUS
10
1.27831
20
1.1018
11
1.26682
21
1.09365
0
LINE
8
BLACK
6
CONTINUOUS
10
1.26682
20
1.09365
11
1.2545
21
1.08684
0
LINE
8
BLACK
6
CONTINUOUS
10
1.2545
20
1.08684
11
1.24148
21
1.08145
0
LINE
8
BLACK
6
CONTINUOUS
10
1.24148
20
1.08145
11
1.22795
21
1.07755
0
LINE
8
BLACK
6
CONTINUOUS
10
1.22795
20
1.07755
11
1.21406
21
1.07519
0
LINE
8
BLACK
6
CONTINUOUS
10
1.21406
20
1.07519
11
1.2
21
1.0744
0
LINE
8
BLACK
6
CONTINUOUS
10
1.2
20
1.0744
11
1.18594
21
1.07519
0
LINE
8
BLACK
6
CONTINUOUS
10
1.18594
20
1.07519
11
1.17205
21
1.07755
0
LINE
8
BLACK
6
CONTINUOUS
10
1.17205
20
1.07755
11
1.15852
21
1.08145
0
LINE
8
BLACK
6
CONTINUOUS
10
1.15852
20
1.08145
11
1.1455
21
1.08684
0
LINE
8
BLACK
6
CONTINUOUS
10
1.1455
20
1.08684
11
1.13318
21
1.09365
0
LINE
8
BLACK
6
CONTINUOUS
10
1.13318
20
1.09365
11
1.12169
21
1.1018
0
LINE
8
BLACK
6
CONTINUOUS
10
1.12169
20
1.1018
11
1.11119
21
1.11119
0
LINE
8
BLACK
6
CONTINUOUS
10
1.11119
20
1.11119
11
1.1018
21
1.12169
0
LINE
8
BLACK
6
CONTINUOUS
10
1.1018
20
1.12169
11
1.09365
21
1.13318
0
LINE
8
BLACK
6
CONTINUOUS
10
1.09365
20
1.13318
11
1.08684
21
1.1455
0
LINE
8
BLACK
6
CONTINUOUS
10
1.08684
20
1.1455
11
1.08145
21
1.15852
0
LINE
8
BLACK
6
CONTINUOUS
10
1.08145
20
1.15852
11
1.07755
21
1.17205
0
LINE
8
BLACK
6
CONTINUOUS
10
1.07755
20
1.17205
11
1.07519
21
1.18594
0
LINE
8
BLACK
6
CONTINUOUS
10
1.07519
20
1.18594
11
1.0744
21
1.2
0
LINE
8
BLACK
6
CONTINUOUS
10
1.0744
20
1.2
11
1.07519
21
1.21406
0
LINE
8
BLACK
6
CONTINUOUS
10
1.07519
20
1.21406
11
1.07755
21
1.22795
0
LINE
8
BLACK
6
CONTINUOUS
10
1.07755
20
1.22795
11
1.08145
21
1.24148
0
LINE
8
BLACK
6
CONTINUOUS
10
1.08145
20
1.24148
11
1.08684
21
1.2545
0
LINE
8
BLACK
6
CONTINUOUS
10
1.08684
20
1.2545
11
1.09365
21
1.26682
0
LINE
8
BLACK
6
CONTINUOUS
10
1.09365
20
1.26682
11
1.1018
21
1.27831
0
LINE
8
BLACK
6
CONTINUOUS
10
1.1018
20
1.27831
11
1.11119
21
1.28881
0
LINE
8
BLACK
6
CONTINUOUS
10
1.11119
20
1.28881
11
1.12169
21
1.2982
0
LINE
8
BLACK
6
CONTINUOUS
10
1.12169
20
1.2982
11
1.13318
21
1.30635
0
LINE
8
BLACK
6
CONTINUOUS
10
1.13318
20
1.30635
11
1.1455
21
1.31316
0
LINE
8
BLACK
6
CONTINUOUS
10
1.1455
20
1.31316
11
1.15852
21
1.31855
0
LINE
8
BLACK
6
CONTINUOUS
10
1.15852
20
1.31855
11
1.17205
21
1.32245
0
LINE
8
BLACK
6
CONTINUOUS
10
1.17205
20
1.32245
11
1.18594
21
1.32481
0
LINE
8
BLACK
6
CONTINUOUS
10
1.18594
20
1.32481
11
1.2
21
1.3256
0
LINE
8
BLACK
6
CONTINUOUS
10
1.2
20
1.3256
11
1.21406
21
1.32481
0
LINE
8
BLACK
6
CONTINUOUS
10
1.08996
20
1.18714
11
1.0922
21
1.17445
0
LINE
8
BLACK
6
CONTINUOUS
10
1.0922
20
1.17445
11
1.09589
21
1.16211
0
LINE
8
BLACK
6
CONTINUOUS
10
1.09589
20
1.16211
11
1.101
21
1.15028
0
LINE
8
BLACK
6
CONTINUOUS
10
1.101
20
1.15028
11
1.10744
21
1.13912
0
LINE
8
BLACK
6
CONTINUOUS
10
1.10744
20
1.13912
11
1.11513
21
1.12879
0
LINE
8
BLACK
6
CONTINUOUS
10
1.11513
20
1.12879
11
1.12397
21
1.11942
0
LINE
8
BLACK
6
CONTINUOUS
10
1.12397
20
1.11942
11
1.13384
21
1.11113
0
LINE
8
BLACK
6
CONTINUOUS
10
1.13384
20
1.11113
11
1.14461
21
1.10406
0
LINE
8
BLACK
6
CONTINUOUS
10
1.14461
20
1.10406
11
1.15612
21
1.09827
0
LINE
8
BLACK
6
CONTINUOUS
10
1.15612
20
1.09827
11
1.16823
21
1.09387
0
LINE
8
BLACK
6
CONTINUOUS
10
1.16823
20
1.09387
11
1.18076
21
1.0909
0
LINE
8
BLACK
6
CONTINUOUS
10
1.18076
20
1.0909
11
1.19356
21
1.0894
0
LINE
8
BLACK
6
CONTINUOUS
10
1.19356
20
1.0894
11
1.20644
21
1.0894
0
LINE
8
BLACK
6
CONTINUOUS
10
1.20644
20
1.0894
11
1.21924
21
1.0909
0
LINE
8
BLACK
6
CONTINUOUS
10
1.21924
20
1.0909
11
1.23177
21
1.09387
0
LINE
8
BLACK
6
CONTINUOUS
10
1.23177
20
1.09387
11
1.24388
21
1.09827
0
LINE
8
BLACK
6
CONTINUOUS
10
1.24388
20
1.09827
11
1.25539
21
1.10406
0
LINE
8
BLACK
6
CONTINUOUS
10
1.25539
20
1.10406
11
1.26616
21
1.11113
0
LINE
8
BLACK
6
CONTINUOUS
10
1.26616
20
1.11113
11
1.27603
21
1.11942
0
LINE
8
BLACK
6
CONTINUOUS
10
1.27603
20
1.11942
11
1.28487
21
1.12879
0
LINE
8
BLACK
6
CONTINUOUS
10
1.28487
20
1.12879
11
1.29256
21
1.13912
0
LINE
8
BLACK
6
CONTINUOUS
10
1.29256
20
1.13912
11
1.299
21
1.15028
0
LINE
8
BLACK
6
CONTINUOUS
10
1.299
20
1.15028
11
1.30411
21
1.16211
0
LINE
8
BLACK
6
CONTINUOUS
10
1.30411
20
1.16211
11
1.3078
21
1.17445
0
LINE
8
BLACK
6
CONTINUOUS
10
1.3078
20
1.17445
11
1.31004
21
1.18714
0
LINE
8
BLACK
6
CONTINUOUS
10
1.31004
20
1.18714
11
1.31079
21
1.2
0
LINE
8
BLACK
6
CONTINUOUS
10
1.31079
20
1.2
11
1.31004
21
1.21286
0
LINE
8
BLACK
6
CONTINUOUS
10
1.31004
20
1.21286
11
1.3078
21
1.22555
0
LINE
8
BLACK
6
CONTINUOUS
10
1.3078
20
1.22555
11
1.30411
21
1.23789
0
LINE
8
BLACK
6
CONTINUOUS
10
1.30411
20
1.23789
11
1.299
21
1.24972
0
LINE
8
BLACK
6
CONTINUOUS
10
1.299
20
1.24972
11
1.29256
21
1.26088
0
LINE
8
BLACK
6
CONTINUOUS
10
1.29256
20
1.26088
11
1.28487
21
1.27121
0
LINE
8
BLACK
6
CONTINUOUS
10
1.28487
20
1.27121
11
1.27603
21
1.28058
0
LINE
8
BLACK
6
CONTINUOUS
10
1.27603
20
1.28058
11
1.26616
21
1.28887
0
LINE
8
BLACK
6
CONTINUOUS
10
1.26616
20
1.28887
11
1.25539
21
1.29594
0
LINE
8
BLACK
6
CONTINUOUS
10
1.25539
20
1.29594
11
1.24388
21
1.30173
0
LINE
8
BLACK
6
CONTINUOUS
10
1.24388
20
1.30173
11
1.23177
21
1.30613
0
LINE
8
BLACK
6
CONTINUOUS
10
1.23177
20
1.30613
11
1.21924
21
1.3091
0
LINE
8
BLACK
6
CONTINUOUS
10
1.21924
20
1.3091
11
1.20644
21
1.3106
0
LINE
8
BLACK
6
CONTINUOUS
10
1.20644
20
1.3106
11
1.19356
21
1.3106
0
LINE
8
BLACK
6
CONTINUOUS
10
1.19356
20
1.3106
11
1.18076
21
1.3091
0
LINE
8
BLACK
6
CONTINUOUS
10
1.18076
20
1.3091
11
1.16823
21
1.30613
0
LINE
8
BLACK
6
CONTINUOUS
10
1.16823
20
1.30613
11
1.15612
21
1.30173
0
LINE
8
BLACK
6
CONTINUOUS
10
1.15612
20
1.30173
11
1.14461
21
1.29594
0
LINE
8
BLACK
6
CONTINUOUS
10
1.14461
20
1.29594
11
1.13384
21
1.28887
0
LINE
8
BLACK
6
CONTINUOUS
10
1.13384
20
1.28887
11
1.12397
21
1.28058
0
LINE
8
BLACK
6
CONTINUOUS
10
1.12397
20
1.28058
11
1.11513
21
1.27121
0
LINE
8
BLACK
6
CONTINUOUS
10
1.11513
20
1.27121
11
1.10744
21
1.26088
0
LINE
8
BLACK
6
CONTINUOUS
10
1.10744
20
1.26088
11
1.101
21
1.24972
0
LINE
8
BLACK
6
CONTINUOUS
10
1.101
20
1.24972
11
1.09589
21
1.23789
0
LINE
8
BLACK
6
CONTINUOUS
10
1.09589
20
1.23789
11
1.0922
21
1.22555
0
LINE
8
BLACK
6
CONTINUOUS
10
1.0922
20
1.22555
11
1.08996
21
1.21286
0
LINE
8
BLACK
6
CONTINUOUS
10
1.08996
20
1.21286
11
1.08921
21
1.2
0
LINE
8
BLACK
6
CONTINUOUS
10
1.08921
20
1.2
11
1.08996
21
1.18714
0
LINE
8
BLACK
6
CONTINUOUS
10
0.888433
20
1.17649
11
0.888497
21
1.17649
0
LINE
8
BLACK
6
CONTINUOUS
10
0.888497
20
1.17649
11
0.894121
21
1.17461
0
LINE
8
BLACK
6
CONTINUOUS
10
0.894121
20
1.17461
11
0.895023
21
1.17413
0
LINE
8
BLACK
6
CONTINUOUS
10
0.895023
20
1.17413
11
0.895115
21
1.17398
0
LINE
8
BLACK
6
CONTINUOUS
10
0.895115
20
1.17398
11
0.895275
21
1.1739
0
LINE
8
BLACK
6
CONTINUOUS
10
0.895275
20
1.1739
11
0.899025
21
1.17015
0
LINE
8
BLACK
6
CONTINUOUS
10
0.899025
20
1.17015
11
0.899613
21
1.16931
0
LINE
8
BLACK
6
CONTINUOUS
10
0.899613
20
1.16931
11
0.899629
21
1.16914
0
LINE
8
BLACK
6
CONTINUOUS
10
0.899629
20
1.16914
11
0.899738
21
1.169
0
LINE
8
BLACK
6
CONTINUOUS
10
0.899738
20
1.169
11
0.901613
21
1.16337
0
LINE
8
BLACK
6
CONTINUOUS
10
0.901613
20
1.16337
11
0.901742
21
1.1625
0
LINE
8
BLACK
6
CONTINUOUS
10
0.901742
20
1.1625
11
0.901765
21
1.16244
0
LINE
8
BLACK
6
CONTINUOUS
10
0.901765
20
1.16244
11
0.901765
21
1.15869
0
LINE
8
BLACK
6
CONTINUOUS
10
0.901765
20
1.15869
11
0.901586
21
1.15768
0
LINE
8
BLACK
6
CONTINUOUS
10
0.901586
20
1.15768
11
0.900288
21
1.15613
0
LINE
8
BLACK
6
CONTINUOUS
10
0.900288
20
1.15613
11
0.898299
21
1.15578
0
LINE
8
BLACK
6
CONTINUOUS
10
0.898299
20
1.15578
11
0.89655
21
1.15679
0
LINE
8
BLACK
6
CONTINUOUS
10
0.89655
20
1.15679
11
0.895859
21
1.15869
0
LINE
8
BLACK
6
CONTINUOUS
10
0.895859
20
1.15869
11
0.895859
21
1.16196
0
LINE
8
BLACK
6
CONTINUOUS
10
0.895859
20
1.16196
11
0.894356
21
1.16647
0
LINE
8
BLACK
6
CONTINUOUS
10
0.894356
20
1.16647
11
0.891592
21
1.16923
0
LINE
8
BLACK
6
CONTINUOUS
10
0.891592
20
1.16923
11
0.887084
21
1.17073
0
LINE
8
BLACK
6
CONTINUOUS
10
0.887084
20
1.17073
11
0.859442
21
1.17073
0
LINE
8
BLACK
6
CONTINUOUS
10
0.859442
20
1.17073
11
0.858432
21
1.17091
0
LINE
8
BLACK
6
CONTINUOUS
10
0.858432
20
1.17091
11
0.856885
21
1.17221
0
LINE
8
BLACK
6
CONTINUOUS
10
0.856885
20
1.17221
11
0.856534
21
1.1742
0
LINE
8
BLACK
6
CONTINUOUS
10
0.856534
20
1.1742
11
0.857544
21
1.17595
0
LINE
8
BLACK
6
CONTINUOUS
10
0.857544
20
1.17595
11
0.859442
21
1.17664
0
LINE
8
BLACK
6
CONTINUOUS
10
0.859442
20
1.17664
11
0.887563
21
1.17664
0
LINE
8
BLACK
6
CONTINUOUS
10
0.887563
20
1.17664
11
0.888433
21
1.17649
0
LINE
8
BLACK
6
CONTINUOUS
10
0.873575
20
1.21771
11
0.87371
21
1.21759
0
LINE
8
BLACK
6
CONTINUOUS
10
0.87371
20
1.21759
11
0.873886
21
1.21757
0
LINE
8
BLACK
6
CONTINUOUS
10
0.873886
20
1.21757
11
0.877635
21
1.2157
0
LINE
8
BLACK
6
CONTINUOUS
10
0.877635
20
1.2157
11
0.878344
21
1.21517
0
LINE
8
BLACK
6
CONTINUOUS
10
0.878344
20
1.21517
11
0.878402
21
1.21515
0
LINE
8
BLACK
6
CONTINUOUS
10
0.878402
20
1.21515
11
0.880277
21
1.21327
0
LINE
8
BLACK
6
CONTINUOUS
10
0.880277
20
1.21327
11
0.880784
21
1.21255
0
LINE
8
BLACK
6
CONTINUOUS
10
0.880784
20
1.21255
11
0.88083
21
1.2125
0
LINE
8
BLACK
6
CONTINUOUS
10
0.88083
20
1.2125
11
0.882705
21
1.20875
0
LINE
8
BLACK
6
CONTINUOUS
10
0.882705
20
1.20875
11
0.882997
21
1.20777
0
LINE
8
BLACK
6
CONTINUOUS
10
0.882997
20
1.20777
11
0.882956
21
1.2076
0
LINE
8
BLACK
6
CONTINUOUS
10
0.882956
20
1.2076
11
0.883017
21
1.20743
0
LINE
8
BLACK
6
CONTINUOUS
10
0.883017
20
1.20743
11
0.883017
21
1.19539
0
LINE
8
BLACK
6
CONTINUOUS
10
0.883017
20
1.19539
11
0.898812
21
1.19539
0
LINE
8
BLACK
6
CONTINUOUS
10
0.898812
20
1.19539
11
0.899822
21
1.19521
0
LINE
8
BLACK
6
CONTINUOUS
10
0.899822
20
1.19521
11
0.901369
21
1.19391
0
LINE
8
BLACK
6
CONTINUOUS
10
0.901369
20
1.19391
11
0.90172
21
1.19192
0
LINE
8
BLACK
6
CONTINUOUS
10
0.90172
20
1.19192
11
0.90071
21
1.19017
0
LINE
8
BLACK
6
CONTINUOUS
10
0.90071
20
1.19017
11
0.898812
21
1.18948
0
LINE
8
BLACK
6
CONTINUOUS
10
0.898812
20
1.18948
11
0.859442
21
1.18948
0
LINE
8
BLACK
6
CONTINUOUS
10
0.859442
20
1.18948
11
0.859058
21
1.18955
0
LINE
8
BLACK
6
CONTINUOUS
10
0.859058
20
1.18955
11
0.858929
21
1.18953
0
LINE
8
BLACK
6
CONTINUOUS
10
0.858929
20
1.18953
11
0.858815
21
1.18959
0
LINE
8
BLACK
6
CONTINUOUS
10
0.858815
20
1.18959
11
0.858432
21
1.18966
0
LINE
8
BLACK
6
CONTINUOUS
10
0.858432
20
1.18966
11
0.857844
21
1.19015
0
LINE
8
BLACK
6
CONTINUOUS
10
0.857844
20
1.19015
11
0.85718
21
1.19054
0
LINE
8
BLACK
6
CONTINUOUS
10
0.85718
20
1.19054
11
0.857089
21
1.19079
0
LINE
8
BLACK
6
CONTINUOUS
10
0.857089
20
1.19079
11
0.856885
21
1.19096
0
LINE
8
BLACK
6
CONTINUOUS
10
0.856885
20
1.19096
11
0.856751
21
1.19171
0
LINE
8
BLACK
6
CONTINUOUS
10
0.856751
20
1.19171
11
0.856489
21
1.19244
0
LINE
8
BLACK
6
CONTINUOUS
10
0.856489
20
1.19244
11
0.856489
21
1.20743
0
LINE
8
BLACK
6
CONTINUOUS
10
0.856489
20
1.20743
11
0.856667
21
1.20844
0
LINE
8
BLACK
6
CONTINUOUS
10
0.856667
20
1.20844
11
0.85678
21
1.20858
0
LINE
8
BLACK
6
CONTINUOUS
10
0.85678
20
1.20858
11
0.856801
21
1.20875
0
LINE
8
BLACK
6
CONTINUOUS
10
0.856801
20
1.20875
11
0.858675
21
1.2125
0
LINE
8
BLACK
6
CONTINUOUS
10
0.858675
20
1.2125
11
0.859201
21
1.21321
0
LINE
8
BLACK
6
CONTINUOUS
10
0.859201
20
1.21321
11
0.859229
21
1.21327
0
LINE
8
BLACK
6
CONTINUOUS
10
0.859229
20
1.21327
11
0.861103
21
1.21515
0
LINE
8
BLACK
6
CONTINUOUS
10
0.861103
20
1.21515
11
0.861826
21
1.21565
0
LINE
8
BLACK
6
CONTINUOUS
10
0.861826
20
1.21565
11
0.861871
21
1.2157
0
LINE
8
BLACK
6
CONTINUOUS
10
0.861871
20
1.2157
11
0.86562
21
1.21757
0
LINE
8
BLACK
6
CONTINUOUS
10
0.86562
20
1.21757
11
0.866603
21
1.21787
0
LINE
8
BLACK
6
CONTINUOUS
10
0.866603
20
1.21787
11
0.866775
21
1.21782
0
LINE
8
BLACK
6
CONTINUOUS
10
0.866775
20
1.21782
11
0.866941
21
1.21789
0
LINE
8
BLACK
6
CONTINUOUS
10
0.866941
20
1.21789
11
0.872565
21
1.21789
0
LINE
8
BLACK
6
CONTINUOUS
10
0.872565
20
1.21789
11
0.873575
21
1.21771
0
LINE
8
BLACK
6
CONTINUOUS
10
0.86494
20
1.21063
11
0.863743
21
1.20943
0
LINE
8
BLACK
6
CONTINUOUS
10
0.863743
20
1.20943
11
0.862394
21
1.20674
0
LINE
8
BLACK
6
CONTINUOUS
10
0.862394
20
1.20674
11
0.862394
21
1.19539
0
LINE
8
BLACK
6
CONTINUOUS
10
0.862394
20
1.19539
11
0.877111
21
1.19539
0
LINE
8
BLACK
6
CONTINUOUS
10
0.877111
20
1.19539
11
0.877111
21
1.20674
0
LINE
8
BLACK
6
CONTINUOUS
10
0.877111
20
1.20674
11
0.875763
21
1.20943
0
LINE
8
BLACK
6
CONTINUOUS
10
0.875763
20
1.20943
11
0.874565
21
1.21063
0
LINE
8
BLACK
6
CONTINUOUS
10
0.874565
20
1.21063
11
0.871868
21
1.21198
0
LINE
8
BLACK
6
CONTINUOUS
10
0.871868
20
1.21198
11
0.867638
21
1.21198
0
LINE
8
BLACK
6
CONTINUOUS
10
0.867638
20
1.21198
11
0.86494
21
1.21063
0
LINE
8
BLACK
6
CONTINUOUS
10
0.901074
20
1.25433
11
0.901765
21
1.25243
0
LINE
8
BLACK
6
CONTINUOUS
10
0.901765
20
1.25243
11
0.901765
21
1.22993
0
LINE
8
BLACK
6
CONTINUOUS
10
0.901765
20
1.22993
11
0.901586
21
1.22892
0
LINE
8
BLACK
6
CONTINUOUS
10
0.901586
20
1.22892
11
0.900288
21
1.22737
0
LINE
8
BLACK
6
CONTINUOUS
10
0.900288
20
1.22737
11
0.898299
21
1.22702
0
LINE
8
BLACK
6
CONTINUOUS
10
0.898299
20
1.22702
11
0.89655
21
1.22803
0
LINE
8
BLACK
6
CONTINUOUS
10
0.89655
20
1.22803
11
0.895859
21
1.22993
0
LINE
8
BLACK
6
CONTINUOUS
10
0.895859
20
1.22993
11
0.895859
21
1.23823
0
LINE
8
BLACK
6
CONTINUOUS
10
0.895859
20
1.23823
11
0.868445
21
1.23823
0
LINE
8
BLACK
6
CONTINUOUS
10
0.868445
20
1.23823
11
0.870903
21
1.23577
0
LINE
8
BLACK
6
CONTINUOUS
10
0.870903
20
1.23577
11
0.87141
21
1.23504
0
LINE
8
BLACK
6
CONTINUOUS
10
0.87141
20
1.23504
11
0.871457
21
1.235
0
LINE
8
BLACK
6
CONTINUOUS
10
0.871457
20
1.235
11
0.873331
21
1.23125
0
LINE
8
BLACK
6
CONTINUOUS
10
0.873331
20
1.23125
11
0.873624
21
1.23027
0
LINE
8
BLACK
6
CONTINUOUS
10
0.873624
20
1.23027
11
0.873154
21
1.2283
0
LINE
8
BLACK
6
CONTINUOUS
10
0.873154
20
1.2283
11
0.871532
21
1.2271
0
LINE
8
BLACK
6
CONTINUOUS
10
0.871532
20
1.2271
11
0.869516
21
1.22722
0
LINE
8
BLACK
6
CONTINUOUS
10
0.869516
20
1.22722
11
0.868049
21
1.22861
0
LINE
8
BLACK
6
CONTINUOUS
10
0.868049
20
1.22861
11
0.866389
21
1.23193
0
LINE
8
BLACK
6
CONTINUOUS
10
0.866389
20
1.23193
11
0.863185
21
1.23514
0
LINE
8
BLACK
6
CONTINUOUS
10
0.863185
20
1.23514
11
0.857804
21
1.23872
0
LINE
8
BLACK
6
CONTINUOUS
10
0.857804
20
1.23872
11
0.857062
21
1.23943
0
LINE
8
BLACK
6
CONTINUOUS
10
0.857062
20
1.23943
11
0.857015
21
1.23959
0
LINE
8
BLACK
6
CONTINUOUS
10
0.857015
20
1.23959
11
0.856885
21
1.2397
0
LINE
8
BLACK
6
CONTINUOUS
10
0.856885
20
1.2397
11
0.856736
21
1.24055
0
LINE
8
BLACK
6
CONTINUOUS
10
0.856736
20
1.24055
11
0.856495
21
1.24137
0
LINE
8
BLACK
6
CONTINUOUS
10
0.856495
20
1.24137
11
0.856563
21
1.24152
0
LINE
8
BLACK
6
CONTINUOUS
10
0.856563
20
1.24152
11
0.856534
21
1.24169
0
LINE
8
BLACK
6
CONTINUOUS
10
0.856534
20
1.24169
11
0.856962
21
1.24243
0
LINE
8
BLACK
6
CONTINUOUS
10
0.856962
20
1.24243
11
0.857307
21
1.24322
0
LINE
8
BLACK
6
CONTINUOUS
10
0.857307
20
1.24322
11
0.857459
21
1.24329
0
LINE
8
BLACK
6
CONTINUOUS
10
0.857459
20
1.24329
11
0.857544
21
1.24344
0
LINE
8
BLACK
6
CONTINUOUS
10
0.857544
20
1.24344
11
0.858349
21
1.24373
0
LINE
8
BLACK
6
CONTINUOUS
10
0.858349
20
1.24373
11
0.859117
21
1.24411
0
LINE
8
BLACK
6
CONTINUOUS
10
0.859117
20
1.24411
11
0.859282
21
1.24407
0
LINE
8
BLACK
6
CONTINUOUS
10
0.859282
20
1.24407
11
0.859442
21
1.24413
0
LINE
8
BLACK
6
CONTINUOUS
10
0.859442
20
1.24413
11
0.895859
21
1.24413
0
LINE
8
BLACK
6
CONTINUOUS
10
0.895859
20
1.24413
11
0.895859
21
1.25243
0
LINE
8
BLACK
6
CONTINUOUS
10
0.895859
20
1.25243
11
0.896037
21
1.25344
0
LINE
8
BLACK
6
CONTINUOUS
10
0.896037
20
1.25344
11
0.897335
21
1.25499
0
LINE
8
BLACK
6
CONTINUOUS
10
0.897335
20
1.25499
11
0.899325
21
1.25534
0
LINE
8
BLACK
6
CONTINUOUS
10
0.899325
20
1.25534
11
0.901074
21
1.25433
0
LINE
8
BLACK
6
CONTINUOUS
10
0.930906
20
1.30846
11
0.932297
21
1.30789
0
LINE
8
BLACK
6
CONTINUOUS
10
0.932297
20
1.30789
11
0.932874
21
1.3065
0
LINE
8
BLACK
6
CONTINUOUS
10
0.932874
20
1.3065
11
0.932874
21
1.1065
0
LINE
8
BLACK
6
CONTINUOUS
10
0.932874
20
1.1065
11
0.932297
21
1.1051
0
LINE
8
BLACK
6
CONTINUOUS
10
0.932297
20
1.1051
11
0.930906
21
1.10453
0
LINE
8
BLACK
6
CONTINUOUS
10
0.930906
20
1.10453
11
0.830906
21
1.10453
0
LINE
8
BLACK
6
CONTINUOUS
10
0.830906
20
1.10453
11
0.829514
21
1.1051
0
LINE
8
BLACK
6
CONTINUOUS
10
0.829514
20
1.1051
11
0.828937
21
1.1065
0
LINE
8
BLACK
6
CONTINUOUS
10
0.828937
20
1.1065
11
0.828937
21
1.2815
0
LINE
8
BLACK
6
CONTINUOUS
10
0.828937
20
1.2815
11
0.829514
21
1.28289
0
LINE
8
BLACK
6
CONTINUOUS
10
0.829514
20
1.28289
11
0.854514
21
1.30789
0
LINE
8
BLACK
6
CONTINUOUS
10
0.854514
20
1.30789
11
0.855906
21
1.30846
0
LINE
8
BLACK
6
CONTINUOUS
10
0.855906
20
1.30846
11
0.930906
21
1.30846
0
LINE
8
BLACK
6
CONTINUOUS
10
0.856721
20
1.30453
11
0.832874
21
1.28068
0
LINE
8
BLACK
6
CONTINUOUS
10
0.832874
20
1.28068
11
0.832874
21
1.10846
0
LINE
8
BLACK
6
CONTINUOUS
10
0.832874
20
1.10846
11
0.928937
21
1.10846
0
LINE
8
BLACK
6
CONTINUOUS
10
0.928937
20
1.10846
11
0.928937
21
1.30453
0
LINE
8
BLACK
6
CONTINUOUS
10
0.928937
20
1.30453
11
0.856721
21
1.30453
0
LINE
8
BLACK
6
CONTINUOUS
10
0.733905
20
1.17688
11
0.733969
21
1.17688
0
LINE
8
BLACK
6
CONTINUOUS
10
0.733969
20
1.17688
11
0.739594
21
1.17501
0
LINE
8
BLACK
6
CONTINUOUS
10
0.739594
20
1.17501
11
0.740495
21
1.17452
0
LINE
8
BLACK
6
CONTINUOUS
10
0.740495
20
1.17452
11
0.740588
21
1.17437
0
LINE
8
BLACK
6
CONTINUOUS
10
0.740588
20
1.17437
11
0.740748
21
1.17429
0
LINE
8
BLACK
6
CONTINUOUS
10
0.740748
20
1.17429
11
0.744497
21
1.17054
0
LINE
8
BLACK
6
CONTINUOUS
10
0.744497
20
1.17054
11
0.745086
21
1.1697
0
LINE
8
BLACK
6
CONTINUOUS
10
0.745086
20
1.1697
11
0.745101
21
1.16953
0
LINE
8
BLACK
6
CONTINUOUS
10
0.745101
20
1.16953
11
0.745211
21
1.16939
0
LINE
8
BLACK
6
CONTINUOUS
10
0.745211
20
1.16939
11
0.747085
21
1.16377
0
LINE
8
BLACK
6
CONTINUOUS
10
0.747085
20
1.16377
11
0.747215
21
1.16289
0
LINE
8
BLACK
6
CONTINUOUS
10
0.747215
20
1.16289
11
0.747237
21
1.16283
0
LINE
8
BLACK
6
CONTINUOUS
10
0.747237
20
1.16283
11
0.747237
21
1.15908
0
LINE
8
BLACK
6
CONTINUOUS
10
0.747237
20
1.15908
11
0.747059
21
1.15807
0
LINE
8
BLACK
6
CONTINUOUS
10
0.747059
20
1.15807
11
0.745761
21
1.15653
0
LINE
8
BLACK
6
CONTINUOUS
10
0.745761
20
1.15653
11
0.743771
21
1.15618
0
LINE
8
BLACK
6
CONTINUOUS
10
0.743771
20
1.15618
11
0.742022
21
1.15719
0
LINE
8
BLACK
6
CONTINUOUS
10
0.742022
20
1.15719
11
0.741331
21
1.15908
0
LINE
8
BLACK
6
CONTINUOUS
10
0.741331
20
1.15908
11
0.741331
21
1.16235
0
LINE
8
BLACK
6
CONTINUOUS
10
0.741331
20
1.16235
11
0.739829
21
1.16686
0
LINE
8
BLACK
6
CONTINUOUS
10
0.739829
20
1.16686
11
0.737065
21
1.16963
0
LINE
8
BLACK
6
CONTINUOUS
10
0.737065
20
1.16963
11
0.732556
21
1.17113
0
LINE
8
BLACK
6
CONTINUOUS
10
0.732556
20
1.17113
11
0.704914
21
1.17113
0
LINE
8
BLACK
6
CONTINUOUS
10
0.704914
20
1.17113
11
0.703904
21
1.17131
0
LINE
8
BLACK
6
CONTINUOUS
10
0.703904
20
1.17131
11
0.702357
21
1.1726
0
LINE
8
BLACK
6
CONTINUOUS
10
0.702357
20
1.1726
11
0.702006
21
1.17459
0
LINE
8
BLACK
6
CONTINUOUS
10
0.702006
20
1.17459
11
0.703016
21
1.17634
0
LINE
8
BLACK
6
CONTINUOUS
10
0.703016
20
1.17634
11
0.704914
21
1.17703
0
LINE
8
BLACK
6
CONTINUOUS
10
0.704914
20
1.17703
11
0.733036
21
1.17703
0
LINE
8
BLACK
6
CONTINUOUS
10
0.733036
20
1.17703
11
0.733905
21
1.17688
0
LINE
8
BLACK
6
CONTINUOUS
10
0.719047
20
1.2181
11
0.719183
21
1.21799
0
LINE
8
BLACK
6
CONTINUOUS
10
0.719183
20
1.21799
11
0.719358
21
1.21797
0
LINE
8
BLACK
6
CONTINUOUS
10
0.719358
20
1.21797
11
0.723108
21
1.21609
0
LINE
8
BLACK
6
CONTINUOUS
10
0.723108
20
1.21609
11
0.723817
21
1.21557
0
LINE
8
BLACK
6
CONTINUOUS
10
0.723817
20
1.21557
11
0.723875
21
1.21554
0
LINE
8
BLACK
6
CONTINUOUS
10
0.723875
20
1.21554
11
0.72575
21
1.21366
0
LINE
8
BLACK
6
CONTINUOUS
10
0.72575
20
1.21366
11
0.726256
21
1.21294
0
LINE
8
BLACK
6
CONTINUOUS
10
0.726256
20
1.21294
11
0.726303
21
1.2129
0
LINE
8
BLACK
6
CONTINUOUS
10
0.726303
20
1.2129
11
0.728178
21
1.20915
0
LINE
8
BLACK
6
CONTINUOUS
10
0.728178
20
1.20915
11
0.72847
21
1.20816
0
LINE
8
BLACK
6
CONTINUOUS
10
0.72847
20
1.20816
11
0.728429
21
1.20799
0
LINE
8
BLACK
6
CONTINUOUS
10
0.728429
20
1.20799
11
0.728489
21
1.20783
0
LINE
8
BLACK
6
CONTINUOUS
10
0.728489
20
1.20783
11
0.728489
21
1.19578
0
LINE
8
BLACK
6
CONTINUOUS
10
0.728489
20
1.19578
11
0.744284
21
1.19578
0
LINE
8
BLACK
6
CONTINUOUS
10
0.744284
20
1.19578
11
0.745294
21
1.1956
0
LINE
8
BLACK
6
CONTINUOUS
10
0.745294
20
1.1956
11
0.746841
21
1.19431
0
LINE
8
BLACK
6
CONTINUOUS
10
0.746841
20
1.19431
11
0.747192
21
1.19232
0
LINE
8
BLACK
6
CONTINUOUS
10
0.747192
20
1.19232
11
0.746182
21
1.19057
0
LINE
8
BLACK
6
CONTINUOUS
10
0.746182
20
1.19057
11
0.744284
21
1.18988
0
LINE
8
BLACK
6
CONTINUOUS
10
0.744284
20
1.18988
11
0.704914
21
1.18988
0
LINE
8
BLACK
6
CONTINUOUS
10
0.704914
20
1.18988
11
0.704531
21
1.18994
0
LINE
8
BLACK
6
CONTINUOUS
10
0.704531
20
1.18994
11
0.704401
21
1.18992
0
LINE
8
BLACK
6
CONTINUOUS
10
0.704401
20
1.18992
11
0.704288
21
1.18999
0
LINE
8
BLACK
6
CONTINUOUS
10
0.704288
20
1.18999
11
0.703904
21
1.19005
0
LINE
8
BLACK
6
CONTINUOUS
10
0.703904
20
1.19005
11
0.703316
21
1.19055
0
LINE
8
BLACK
6
CONTINUOUS
10
0.703316
20
1.19055
11
0.702652
21
1.19093
0
LINE
8
BLACK
6
CONTINUOUS
10
0.702652
20
1.19093
11
0.702561
21
1.19118
0
LINE
8
BLACK
6
CONTINUOUS
10
0.702561
20
1.19118
11
0.702357
21
1.19135
0
LINE
8
BLACK
6
CONTINUOUS
10
0.702357
20
1.19135
11
0.702224
21
1.19211
0
LINE
8
BLACK
6
CONTINUOUS
10
0.702224
20
1.19211
11
0.701961
21
1.19283
0
LINE
8
BLACK
6
CONTINUOUS
10
0.701961
20
1.19283
11
0.701961
21
1.20783
0
LINE
8
BLACK
6
CONTINUOUS
10
0.701961
20
1.20783
11
0.702139
21
1.20884
0
LINE
8
BLACK
6
CONTINUOUS
10
0.702139
20
1.20884
11
0.702253
21
1.20897
0
LINE
8
BLACK
6
CONTINUOUS
10
0.702253
20
1.20897
11
0.702273
21
1.20915
0
LINE
8
BLACK
6
CONTINUOUS
10
0.702273
20
1.20915
11
0.704148
21
1.2129
0
LINE
8
BLACK
6
CONTINUOUS
10
0.704148
20
1.2129
11
0.704674
21
1.21361
0
LINE
8
BLACK
6
CONTINUOUS
10
0.704674
20
1.21361
11
0.704701
21
1.21366
0
LINE
8
BLACK
6
CONTINUOUS
10
0.704701
20
1.21366
11
0.706576
21
1.21554
0
LINE
8
BLACK
6
CONTINUOUS
10
0.706576
20
1.21554
11
0.707299
21
1.21605
0
LINE
8
BLACK
6
CONTINUOUS
10
0.707299
20
1.21605
11
0.707343
21
1.21609
0
LINE
8
BLACK
6
CONTINUOUS
10
0.707343
20
1.21609
11
0.711093
21
1.21797
0
LINE
8
BLACK
6
CONTINUOUS
10
0.711093
20
1.21797
11
0.712076
21
1.21826
0
LINE
8
BLACK
6
CONTINUOUS
10
0.712076
20
1.21826
11
0.712247
21
1.21822
0
LINE
8
BLACK
6
CONTINUOUS
10
0.712247
20
1.21822
11
0.712413
21
1.21828
0
LINE
8
BLACK
6
CONTINUOUS
10
0.712413
20
1.21828
11
0.718037
21
1.21828
0
LINE
8
BLACK
6
CONTINUOUS
10
0.718037
20
1.21828
11
0.719047
21
1.2181
0
LINE
8
BLACK
6
CONTINUOUS
10
0.710413
20
1.21102
11
0.709216
21
1.20983
0
LINE
8
BLACK
6
CONTINUOUS
10
0.709216
20
1.20983
11
0.707867
21
1.20713
0
LINE
8
BLACK
6
CONTINUOUS
10
0.707867
20
1.20713
11
0.707867
21
1.19578
0
LINE
8
BLACK
6
CONTINUOUS
10
0.707867
20
1.19578
11
0.722584
21
1.19578
0
LINE
8
BLACK
6
CONTINUOUS
10
0.722584
20
1.19578
11
0.722584
21
1.20713
0
LINE
8
BLACK
6
CONTINUOUS
10
0.722584
20
1.20713
11
0.721235
21
1.20983
0
LINE
8
BLACK
6
CONTINUOUS
10
0.721235
20
1.20983
11
0.720038
21
1.21102
0
LINE
8
BLACK
6
CONTINUOUS
10
0.720038
20
1.21102
11
0.71734
21
1.21237
0
LINE
8
BLACK
6
CONTINUOUS
10
0.71734
20
1.21237
11
0.71311
21
1.21237
0
LINE
8
BLACK
6
CONTINUOUS
10
0.71311
20
1.21237
11
0.710413
21
1.21102
0
LINE
8
BLACK
6
CONTINUOUS
10
0.717032
20
1.25562
11
0.717096
21
1.25562
0
LINE
8
BLACK
6
CONTINUOUS
10
0.717096
20
1.25562
11
0.722721
21
1.25375
0
LINE
8
BLACK
6
CONTINUOUS
10
0.722721
20
1.25375
11
0.723623
21
1.25326
0
LINE
8
BLACK
6
CONTINUOUS
10
0.723623
20
1.25326
11
0.723715
21
1.25311
0
LINE
8
BLACK
6
CONTINUOUS
10
0.723715
20
1.25311
11
0.723875
21
1.25303
0
LINE
8
BLACK
6
CONTINUOUS
10
0.723875
20
1.25303
11
0.741331
21
1.23558
0
LINE
8
BLACK
6
CONTINUOUS
10
0.741331
20
1.23558
11
0.741331
21
1.25282
0
LINE
8
BLACK
6
CONTINUOUS
10
0.741331
20
1.25282
11
0.74151
21
1.25383
0
LINE
8
BLACK
6
CONTINUOUS
10
0.74151
20
1.25383
11
0.742808
21
1.25538
0
LINE
8
BLACK
6
CONTINUOUS
10
0.742808
20
1.25538
11
0.744797
21
1.25573
0
LINE
8
BLACK
6
CONTINUOUS
10
0.744797
20
1.25573
11
0.746546
21
1.25472
0
LINE
8
BLACK
6
CONTINUOUS
10
0.746546
20
1.25472
11
0.747237
21
1.25282
0
LINE
8
BLACK
6
CONTINUOUS
10
0.747237
20
1.25282
11
0.747237
21
1.22845
0
LINE
8
BLACK
6
CONTINUOUS
10
0.747237
20
1.22845
11
0.747125
21
1.22781
0
LINE
8
BLACK
6
CONTINUOUS
10
0.747125
20
1.22781
11
0.747136
21
1.22769
0
LINE
8
BLACK
6
CONTINUOUS
10
0.747136
20
1.22769
11
0.747091
21
1.22762
0
LINE
8
BLACK
6
CONTINUOUS
10
0.747091
20
1.22762
11
0.747059
21
1.22744
0
LINE
8
BLACK
6
CONTINUOUS
10
0.747059
20
1.22744
11
0.746488
21
1.22676
0
LINE
8
BLACK
6
CONTINUOUS
10
0.746488
20
1.22676
11
0.745978
21
1.22603
0
LINE
8
BLACK
6
CONTINUOUS
10
0.745978
20
1.22603
11
0.745847
21
1.226
0
LINE
8
BLACK
6
CONTINUOUS
10
0.745847
20
1.226
11
0.745761
21
1.22589
0
LINE
8
BLACK
6
CONTINUOUS
10
0.745761
20
1.22589
11
0.744885
21
1.22574
0
LINE
8
BLACK
6
CONTINUOUS
10
0.744885
20
1.22574
11
0.744027
21
1.22551
0
LINE
8
BLACK
6
CONTINUOUS
10
0.744027
20
1.22551
11
0.743905
21
1.22557
0
LINE
8
BLACK
6
CONTINUOUS
10
0.743905
20
1.22557
11
0.743771
21
1.22554
0
LINE
8
BLACK
6
CONTINUOUS
10
0.743771
20
1.22554
11
0.743002
21
1.22599
0
LINE
8
BLACK
6
CONTINUOUS
10
0.743002
20
1.22599
11
0.742196
21
1.22636
0
LINE
8
BLACK
6
CONTINUOUS
10
0.742196
20
1.22636
11
0.720192
21
1.24837
0
LINE
8
BLACK
6
CONTINUOUS
10
0.720192
20
1.24837
11
0.715684
21
1.24987
0
LINE
8
BLACK
6
CONTINUOUS
10
0.715684
20
1.24987
11
0.71311
21
1.24987
0
LINE
8
BLACK
6
CONTINUOUS
10
0.71311
20
1.24987
11
0.710413
21
1.24852
0
LINE
8
BLACK
6
CONTINUOUS
10
0.710413
20
1.24852
11
0.709216
21
1.24732
0
LINE
8
BLACK
6
CONTINUOUS
10
0.709216
20
1.24732
11
0.707867
21
1.24463
0
LINE
8
BLACK
6
CONTINUOUS
10
0.707867
20
1.24463
11
0.707867
21
1.23665
0
LINE
8
BLACK
6
CONTINUOUS
10
0.707867
20
1.23665
11
0.709216
21
1.23395
0
LINE
8
BLACK
6
CONTINUOUS
10
0.709216
20
1.23395
11
0.710752
21
1.23241
0
LINE
8
BLACK
6
CONTINUOUS
10
0.710752
20
1.23241
11
0.71134
21
1.23157
0
LINE
8
BLACK
6
CONTINUOUS
10
0.71134
20
1.23157
11
0.711516
21
1.22956
0
LINE
8
BLACK
6
CONTINUOUS
10
0.711516
20
1.22956
11
0.710357
21
1.22791
0
LINE
8
BLACK
6
CONTINUOUS
10
0.710357
20
1.22791
11
0.708406
21
1.22738
0
LINE
8
BLACK
6
CONTINUOUS
10
0.708406
20
1.22738
11
0.706576
21
1.22824
0
LINE
8
BLACK
6
CONTINUOUS
10
0.706576
20
1.22824
11
0.704701
21
1.23011
0
LINE
8
BLACK
6
CONTINUOUS
10
0.704701
20
1.23011
11
0.704195
21
1.23083
0
LINE
8
BLACK
6
CONTINUOUS
10
0.704195
20
1.23083
11
0.704148
21
1.23088
0
LINE
8
BLACK
6
CONTINUOUS
10
0.704148
20
1.23088
11
0.702273
21
1.23463
0
LINE
8
BLACK
6
CONTINUOUS
10
0.702273
20
1.23463
11
0.701981
21
1.23561
0
LINE
8
BLACK
6
CONTINUOUS
10
0.701981
20
1.23561
11
0.702022
21
1.23578
0
LINE
8
BLACK
6
CONTINUOUS
10
0.702022
20
1.23578
11
0.701961
21
1.23595
0
LINE
8
BLACK
6
CONTINUOUS
10
0.701961
20
1.23595
11
0.701961
21
1.24532
0
LINE
8
BLACK
6
CONTINUOUS
10
0.701961
20
1.24532
11
0.702139
21
1.24633
0
LINE
8
BLACK
6
CONTINUOUS
10
0.702139
20
1.24633
11
0.702253
21
1.24647
0
LINE
8
BLACK
6
CONTINUOUS
10
0.702253
20
1.24647
11
0.702273
21
1.24664
0
LINE
8
BLACK
6
CONTINUOUS
10
0.702273
20
1.24664
11
0.704148
21
1.25039
0
LINE
8
BLACK
6
CONTINUOUS
10
0.704148
20
1.25039
11
0.704674
21
1.2511
0
LINE
8
BLACK
6
CONTINUOUS
10
0.704674
20
1.2511
11
0.704701
21
1.25116
0
LINE
8
BLACK
6
CONTINUOUS
10
0.704701
20
1.25116
11
0.706576
21
1.25303
0
LINE
8
BLACK
6
CONTINUOUS
10
0.706576
20
1.25303
11
0.707299
21
1.25354
0
LINE
8
BLACK
6
CONTINUOUS
10
0.707299
20
1.25354
11
0.707343
21
1.25359
0
LINE
8
BLACK
6
CONTINUOUS
10
0.707343
20
1.25359
11
0.711093
21
1.25546
0
LINE
8
BLACK
6
CONTINUOUS
10
0.711093
20
1.25546
11
0.712076
21
1.25575
0
LINE
8
BLACK
6
CONTINUOUS
10
0.712076
20
1.25575
11
0.712247
21
1.25571
0
LINE
8
BLACK
6
CONTINUOUS
10
0.712247
20
1.25571
11
0.712413
21
1.25577
0
LINE
8
BLACK
6
CONTINUOUS
10
0.712413
20
1.25577
11
0.716163
21
1.25577
0
LINE
8
BLACK
6
CONTINUOUS
10
0.716163
20
1.25577
11
0.717032
21
1.25562
0
LINE
8
BLACK
6
CONTINUOUS
10
0.776378
20
1.30886
11
0.77777
21
1.30828
0
LINE
8
BLACK
6
CONTINUOUS
10
0.77777
20
1.30828
11
0.778346
21
1.30689
0
LINE
8
BLACK
6
CONTINUOUS
10
0.778346
20
1.30689
11
0.778346
21
1.10689
0
LINE
8
BLACK
6
CONTINUOUS
10
0.778346
20
1.10689
11
0.77777
21
1.1055
0
LINE
8
BLACK
6
CONTINUOUS
10
0.77777
20
1.1055
11
0.776378
21
1.10492
0
LINE
8
BLACK
6
CONTINUOUS
10
0.776378
20
1.10492
11
0.676378
21
1.10492
0
LINE
8
BLACK
6
CONTINUOUS
10
0.676378
20
1.10492
11
0.674986
21
1.1055
0
LINE
8
BLACK
6
CONTINUOUS
10
0.674986
20
1.1055
11
0.674409
21
1.10689
0
LINE
8
BLACK
6
CONTINUOUS
10
0.674409
20
1.10689
11
0.674409
21
1.10689
0
LINE
8
BLACK
6
CONTINUOUS
10
0.674409
20
1.10689
11
0.674409
21
1.28189
0
LINE
8
BLACK
6
CONTINUOUS
10
0.674409
20
1.28189
11
0.674986
21
1.28328
0
LINE
8
BLACK
6
CONTINUOUS
10
0.674986
20
1.28328
11
0.699986
21
1.30828
0
LINE
8
BLACK
6
CONTINUOUS
10
0.699986
20
1.30828
11
0.701378
21
1.30886
0
LINE
8
BLACK
6
CONTINUOUS
10
0.701378
20
1.30886
11
0.776378
21
1.30886
0
LINE
8
BLACK
6
CONTINUOUS
10
0.702193
20
1.30492
11
0.678346
21
1.28107
0
LINE
8
BLACK
6
CONTINUOUS
10
0.678346
20
1.28107
11
0.678346
21
1.10886
0
LINE
8
BLACK
6
CONTINUOUS
10
0.678346
20
1.10886
11
0.774409
21
1.10886
0
LINE
8
BLACK
6
CONTINUOUS
10
0.774409
20
1.10886
11
0.774409
21
1.30492
0
LINE
8
BLACK
6
CONTINUOUS
10
0.774409
20
1.30492
11
0.702193
21
1.30492
  0
ENDSEC
  0
EOF
