  0
SECTION
  2
HEADER
  9
$ANGBASE
  50
0.0
  9
$ANGDIR
  70
1
  9
$MEASUREMENT
  70
0
  0
ENDSEC
  0
SECTION
  2
TABLES
  0
TABLE
  2
LTYPE
  70
4
  0
LTYPE
  5
40F
  2
CONTINUOUS
  70
0
  3
Solid line
  72
65
  73
0
  40
0.0
  0
LTYPE
  5
410
  2
DASHDOT
 70
0
  3
Dash Dot ____ _ ____ _
 72
65
 73
4
 40
2.0
 49
1.25
 49
-0.25
 49
0.25
 49
-0.25
  0
LTYPE
  5
411
  2
DASHED
 70
0
  3
Dashed __ __ __ __ __
 72
65
 73
2
 40
0.75
 49
0.5
 49
-0.25
  0
LTYPE
  5
43B
  2
DOTTED
 70
0
  3
Dotted .  .  .  .
 72
65
 73
2
 40
0.2
 49
0.0
 49
-0.2
  0
ENDTAB
  0
TABLE
  2
STYLE
  70
4
  0
STYLE
  2
KICAD
  70
0
  40
0
  41
1
  42
1
  50
0
  71
0
  3
isocp.shx
  0
STYLE
  2
KICADB
  70
0
  40
0
  41
1
  42
1
  50
0
  71
0
  3
isocp.shx
  0
STYLE
  2
KICADI
  70
0
  40
0
  41
1
  42
1
  50
15
  71
0
  3
isocp.shx
  0
STYLE
  2
KICADBI
  70
0
  40
0
  41
1
  42
1
  50
15
  71
0
  3
isocp.shx
  0
ENDTAB
  0
TABLE
  2
LAYER
  70
1
  0
LAYER
  2
BLACK
  70
0
  62
7
  6
CONTINUOUS
  0
ENDTAB
  0
ENDSEC
  0
SECTION
  2
ENTITIES
0
LINE
8
BLACK
6
CONTINUOUS
10
0.766732
20
0.280709
11
0.699803
21
0.280709
0
LINE
8
BLACK
6
CONTINUOUS
10
0.699803
20
0.280709
11
0.699803
21
0.347638
0
LINE
8
BLACK
6
CONTINUOUS
10
0.699803
20
0.347638
11
0.766732
21
0.347638
0
LINE
8
BLACK
6
CONTINUOUS
10
0.766732
20
0.347638
11
0.766732
21
0.280709
0
LINE
8
BLACK
6
CONTINUOUS
10
0.843609
20
0.346
11
0.85
21
0.343154
0
LINE
8
BLACK
6
CONTINUOUS
10
0.85
20
0.343154
11
0.85566
21
0.339042
0
LINE
8
BLACK
6
CONTINUOUS
10
0.85566
20
0.339042
11
0.860341
21
0.333843
0
LINE
8
BLACK
6
CONTINUOUS
10
0.860341
20
0.333843
11
0.863839
21
0.327784
0
LINE
8
BLACK
6
CONTINUOUS
10
0.863839
20
0.327784
11
0.866001
21
0.321131
0
LINE
8
BLACK
6
CONTINUOUS
10
0.866001
20
0.321131
11
0.866732
21
0.314173
0
LINE
8
BLACK
6
CONTINUOUS
10
0.866732
20
0.314173
11
0.866001
21
0.307216
0
LINE
8
BLACK
6
CONTINUOUS
10
0.866001
20
0.307216
11
0.863839
21
0.300562
0
LINE
8
BLACK
6
CONTINUOUS
10
0.863839
20
0.300562
11
0.860341
21
0.294503
0
LINE
8
BLACK
6
CONTINUOUS
10
0.860341
20
0.294503
11
0.85566
21
0.289304
0
LINE
8
BLACK
6
CONTINUOUS
10
0.85566
20
0.289304
11
0.85
21
0.285192
0
LINE
8
BLACK
6
CONTINUOUS
10
0.85
20
0.285192
11
0.843609
21
0.282347
0
LINE
8
BLACK
6
CONTINUOUS
10
0.843609
20
0.282347
11
0.836766
21
0.280892
0
LINE
8
BLACK
6
CONTINUOUS
10
0.836766
20
0.280892
11
0.82977
21
0.280892
0
LINE
8
BLACK
6
CONTINUOUS
10
0.82977
20
0.280892
11
0.822927
21
0.282347
0
LINE
8
BLACK
6
CONTINUOUS
10
0.822927
20
0.282347
11
0.816535
21
0.285192
0
LINE
8
BLACK
6
CONTINUOUS
10
0.816535
20
0.285192
11
0.810876
21
0.289304
0
LINE
8
BLACK
6
CONTINUOUS
10
0.810876
20
0.289304
11
0.806194
21
0.294503
0
LINE
8
BLACK
6
CONTINUOUS
10
0.806194
20
0.294503
11
0.802696
21
0.300562
0
LINE
8
BLACK
6
CONTINUOUS
10
0.802696
20
0.300562
11
0.800534
21
0.307216
0
LINE
8
BLACK
6
CONTINUOUS
10
0.800534
20
0.307216
11
0.799803
21
0.314173
0
LINE
8
BLACK
6
CONTINUOUS
10
0.799803
20
0.314173
11
0.800534
21
0.321131
0
LINE
8
BLACK
6
CONTINUOUS
10
0.800534
20
0.321131
11
0.802696
21
0.327784
0
LINE
8
BLACK
6
CONTINUOUS
10
0.802696
20
0.327784
11
0.806194
21
0.333843
0
LINE
8
BLACK
6
CONTINUOUS
10
0.806194
20
0.333843
11
0.810876
21
0.339042
0
LINE
8
BLACK
6
CONTINUOUS
10
0.810876
20
0.339042
11
0.816535
21
0.343154
0
LINE
8
BLACK
6
CONTINUOUS
10
0.816535
20
0.343154
11
0.822927
21
0.346
0
LINE
8
BLACK
6
CONTINUOUS
10
0.822927
20
0.346
11
0.82977
21
0.347454
0
LINE
8
BLACK
6
CONTINUOUS
10
0.82977
20
0.347454
11
0.836766
21
0.347454
0
LINE
8
BLACK
6
CONTINUOUS
10
0.836766
20
0.347454
11
0.843609
21
0.346
0
LINE
8
BLACK
6
CONTINUOUS
10
0.943609
20
0.346
11
0.95
21
0.343154
0
LINE
8
BLACK
6
CONTINUOUS
10
0.95
20
0.343154
11
0.95566
21
0.339042
0
LINE
8
BLACK
6
CONTINUOUS
10
0.95566
20
0.339042
11
0.960341
21
0.333843
0
LINE
8
BLACK
6
CONTINUOUS
10
0.960341
20
0.333843
11
0.963839
21
0.327784
0
LINE
8
BLACK
6
CONTINUOUS
10
0.963839
20
0.327784
11
0.966001
21
0.321131
0
LINE
8
BLACK
6
CONTINUOUS
10
0.966001
20
0.321131
11
0.966732
21
0.314173
0
LINE
8
BLACK
6
CONTINUOUS
10
0.966732
20
0.314173
11
0.966001
21
0.307216
0
LINE
8
BLACK
6
CONTINUOUS
10
0.966001
20
0.307216
11
0.963839
21
0.300562
0
LINE
8
BLACK
6
CONTINUOUS
10
0.963839
20
0.300562
11
0.960341
21
0.294503
0
LINE
8
BLACK
6
CONTINUOUS
10
0.960341
20
0.294503
11
0.95566
21
0.289304
0
LINE
8
BLACK
6
CONTINUOUS
10
0.95566
20
0.289304
11
0.95
21
0.285192
0
LINE
8
BLACK
6
CONTINUOUS
10
0.95
20
0.285192
11
0.943609
21
0.282347
0
LINE
8
BLACK
6
CONTINUOUS
10
0.943609
20
0.282347
11
0.936766
21
0.280892
0
LINE
8
BLACK
6
CONTINUOUS
10
0.936766
20
0.280892
11
0.92977
21
0.280892
0
LINE
8
BLACK
6
CONTINUOUS
10
0.92977
20
0.280892
11
0.922927
21
0.282347
0
LINE
8
BLACK
6
CONTINUOUS
10
0.922927
20
0.282347
11
0.916535
21
0.285192
0
LINE
8
BLACK
6
CONTINUOUS
10
0.916535
20
0.285192
11
0.910876
21
0.289304
0
LINE
8
BLACK
6
CONTINUOUS
10
0.910876
20
0.289304
11
0.906194
21
0.294503
0
LINE
8
BLACK
6
CONTINUOUS
10
0.906194
20
0.294503
11
0.902696
21
0.300562
0
LINE
8
BLACK
6
CONTINUOUS
10
0.902696
20
0.300562
11
0.900534
21
0.307216
0
LINE
8
BLACK
6
CONTINUOUS
10
0.900534
20
0.307216
11
0.899803
21
0.314173
0
LINE
8
BLACK
6
CONTINUOUS
10
0.899803
20
0.314173
11
0.900534
21
0.321131
0
LINE
8
BLACK
6
CONTINUOUS
10
0.900534
20
0.321131
11
0.902696
21
0.327784
0
LINE
8
BLACK
6
CONTINUOUS
10
0.902696
20
0.327784
11
0.906194
21
0.333843
0
LINE
8
BLACK
6
CONTINUOUS
10
0.906194
20
0.333843
11
0.910876
21
0.339042
0
LINE
8
BLACK
6
CONTINUOUS
10
0.910876
20
0.339042
11
0.916535
21
0.343154
0
LINE
8
BLACK
6
CONTINUOUS
10
0.916535
20
0.343154
11
0.922927
21
0.346
0
LINE
8
BLACK
6
CONTINUOUS
10
0.922927
20
0.346
11
0.92977
21
0.347454
0
LINE
8
BLACK
6
CONTINUOUS
10
0.92977
20
0.347454
11
0.936766
21
0.347454
0
LINE
8
BLACK
6
CONTINUOUS
10
0.936766
20
0.347454
11
0.943609
21
0.346
0
LINE
8
BLACK
6
CONTINUOUS
10
0.42051
20
0.516316
11
0.433874
21
0.513148
0
LINE
8
BLACK
6
CONTINUOUS
10
0.433874
20
0.513148
11
0.446781
21
0.508451
0
LINE
8
BLACK
6
CONTINUOUS
10
0.446781
20
0.508451
11
0.459055
21
0.502286
0
LINE
8
BLACK
6
CONTINUOUS
10
0.459055
20
0.502286
11
0.470531
21
0.494739
0
LINE
8
BLACK
6
CONTINUOUS
10
0.470531
20
0.494739
11
0.481052
21
0.48591
0
LINE
8
BLACK
6
CONTINUOUS
10
0.481052
20
0.48591
11
0.490478
21
0.47592
0
LINE
8
BLACK
6
CONTINUOUS
10
0.490478
20
0.47592
11
0.49868
21
0.464903
0
LINE
8
BLACK
6
CONTINUOUS
10
0.49868
20
0.464903
11
0.505547
21
0.453008
0
LINE
8
BLACK
6
CONTINUOUS
10
0.505547
20
0.453008
11
0.510987
21
0.440396
0
LINE
8
BLACK
6
CONTINUOUS
10
0.510987
20
0.440396
11
0.514927
21
0.427238
0
LINE
8
BLACK
6
CONTINUOUS
10
0.514927
20
0.427238
11
0.517312
21
0.413712
0
LINE
8
BLACK
6
CONTINUOUS
10
0.517312
20
0.413712
11
0.51811
21
0.4
0
LINE
8
BLACK
6
CONTINUOUS
10
0.51811
20
0.4
11
0.517312
21
0.386288
0
LINE
8
BLACK
6
CONTINUOUS
10
0.517312
20
0.386288
11
0.514927
21
0.372762
0
LINE
8
BLACK
6
CONTINUOUS
10
0.514927
20
0.372762
11
0.510987
21
0.359604
0
LINE
8
BLACK
6
CONTINUOUS
10
0.510987
20
0.359604
11
0.505547
21
0.346992
0
LINE
8
BLACK
6
CONTINUOUS
10
0.505547
20
0.346992
11
0.49868
21
0.335097
0
LINE
8
BLACK
6
CONTINUOUS
10
0.49868
20
0.335097
11
0.490478
21
0.32408
0
LINE
8
BLACK
6
CONTINUOUS
10
0.490478
20
0.32408
11
0.481052
21
0.31409
0
LINE
8
BLACK
6
CONTINUOUS
10
0.481052
20
0.31409
11
0.470531
21
0.305261
0
LINE
8
BLACK
6
CONTINUOUS
10
0.470531
20
0.305261
11
0.459055
21
0.297714
0
LINE
8
BLACK
6
CONTINUOUS
10
0.459055
20
0.297714
11
0.446781
21
0.291549
0
LINE
8
BLACK
6
CONTINUOUS
10
0.446781
20
0.291549
11
0.433874
21
0.286852
0
LINE
8
BLACK
6
CONTINUOUS
10
0.433874
20
0.286852
11
0.42051
21
0.283684
0
LINE
8
BLACK
6
CONTINUOUS
10
0.42051
20
0.283684
11
0.406868
21
0.28209
0
LINE
8
BLACK
6
CONTINUOUS
10
0.406868
20
0.28209
11
0.393133
21
0.28209
0
LINE
8
BLACK
6
CONTINUOUS
10
0.393133
20
0.28209
11
0.37949
21
0.283684
0
LINE
8
BLACK
6
CONTINUOUS
10
0.37949
20
0.283684
11
0.366126
21
0.286852
0
LINE
8
BLACK
6
CONTINUOUS
10
0.366126
20
0.286852
11
0.353219
21
0.291549
0
LINE
8
BLACK
6
CONTINUOUS
10
0.353219
20
0.291549
11
0.340945
21
0.297714
0
LINE
8
BLACK
6
CONTINUOUS
10
0.340945
20
0.297714
11
0.329469
21
0.305261
0
LINE
8
BLACK
6
CONTINUOUS
10
0.329469
20
0.305261
11
0.318948
21
0.31409
0
LINE
8
BLACK
6
CONTINUOUS
10
0.318948
20
0.31409
11
0.309522
21
0.32408
0
LINE
8
BLACK
6
CONTINUOUS
10
0.309522
20
0.32408
11
0.30132
21
0.335097
0
LINE
8
BLACK
6
CONTINUOUS
10
0.30132
20
0.335097
11
0.294453
21
0.346992
0
LINE
8
BLACK
6
CONTINUOUS
10
0.294453
20
0.346992
11
0.289013
21
0.359604
0
LINE
8
BLACK
6
CONTINUOUS
10
0.289013
20
0.359604
11
0.285073
21
0.372762
0
LINE
8
BLACK
6
CONTINUOUS
10
0.285073
20
0.372762
11
0.282688
21
0.386288
0
LINE
8
BLACK
6
CONTINUOUS
10
0.282688
20
0.386288
11
0.28189
21
0.4
0
LINE
8
BLACK
6
CONTINUOUS
10
0.28189
20
0.4
11
0.282688
21
0.413712
0
LINE
8
BLACK
6
CONTINUOUS
10
0.282688
20
0.413712
11
0.285073
21
0.427238
0
LINE
8
BLACK
6
CONTINUOUS
10
0.285073
20
0.427238
11
0.289013
21
0.440396
0
LINE
8
BLACK
6
CONTINUOUS
10
0.289013
20
0.440396
11
0.294453
21
0.453008
0
LINE
8
BLACK
6
CONTINUOUS
10
0.294453
20
0.453008
11
0.30132
21
0.464903
0
LINE
8
BLACK
6
CONTINUOUS
10
0.30132
20
0.464903
11
0.309522
21
0.47592
0
LINE
8
BLACK
6
CONTINUOUS
10
0.309522
20
0.47592
11
0.318948
21
0.48591
0
LINE
8
BLACK
6
CONTINUOUS
10
0.318948
20
0.48591
11
0.329469
21
0.494739
0
LINE
8
BLACK
6
CONTINUOUS
10
0.329469
20
0.494739
11
0.340945
21
0.502286
0
LINE
8
BLACK
6
CONTINUOUS
10
0.340945
20
0.502286
11
0.353219
21
0.508451
0
LINE
8
BLACK
6
CONTINUOUS
10
0.353219
20
0.508451
11
0.366126
21
0.513148
0
LINE
8
BLACK
6
CONTINUOUS
10
0.366126
20
0.513148
11
0.37949
21
0.516316
0
LINE
8
BLACK
6
CONTINUOUS
10
0.37949
20
0.516316
11
0.393133
21
0.51791
0
LINE
8
BLACK
6
CONTINUOUS
10
0.393133
20
0.51791
11
0.406868
21
0.51791
0
LINE
8
BLACK
6
CONTINUOUS
10
0.406868
20
0.51791
11
0.42051
21
0.516316
0
LINE
8
BLACK
6
CONTINUOUS
10
1.22051
20
0.516316
11
1.23387
21
0.513148
0
LINE
8
BLACK
6
CONTINUOUS
10
1.23387
20
0.513148
11
1.24678
21
0.508451
0
LINE
8
BLACK
6
CONTINUOUS
10
1.24678
20
0.508451
11
1.25906
21
0.502286
0
LINE
8
BLACK
6
CONTINUOUS
10
1.25906
20
0.502286
11
1.27053
21
0.494739
0
LINE
8
BLACK
6
CONTINUOUS
10
1.27053
20
0.494739
11
1.28105
21
0.48591
0
LINE
8
BLACK
6
CONTINUOUS
10
1.28105
20
0.48591
11
1.29048
21
0.47592
0
LINE
8
BLACK
6
CONTINUOUS
10
1.29048
20
0.47592
11
1.29868
21
0.464903
0
LINE
8
BLACK
6
CONTINUOUS
10
1.29868
20
0.464903
11
1.30555
21
0.453008
0
LINE
8
BLACK
6
CONTINUOUS
10
1.30555
20
0.453008
11
1.31099
21
0.440396
0
LINE
8
BLACK
6
CONTINUOUS
10
1.31099
20
0.440396
11
1.31493
21
0.427238
0
LINE
8
BLACK
6
CONTINUOUS
10
1.31493
20
0.427238
11
1.31731
21
0.413712
0
LINE
8
BLACK
6
CONTINUOUS
10
1.31731
20
0.413712
11
1.31811
21
0.4
0
LINE
8
BLACK
6
CONTINUOUS
10
1.31811
20
0.4
11
1.31731
21
0.386288
0
LINE
8
BLACK
6
CONTINUOUS
10
1.31731
20
0.386288
11
1.31493
21
0.372762
0
LINE
8
BLACK
6
CONTINUOUS
10
1.31493
20
0.372762
11
1.31099
21
0.359604
0
LINE
8
BLACK
6
CONTINUOUS
10
1.31099
20
0.359604
11
1.30555
21
0.346992
0
LINE
8
BLACK
6
CONTINUOUS
10
1.30555
20
0.346992
11
1.29868
21
0.335097
0
LINE
8
BLACK
6
CONTINUOUS
10
1.29868
20
0.335097
11
1.29048
21
0.32408
0
LINE
8
BLACK
6
CONTINUOUS
10
1.29048
20
0.32408
11
1.28105
21
0.31409
0
LINE
8
BLACK
6
CONTINUOUS
10
1.28105
20
0.31409
11
1.27053
21
0.305261
0
LINE
8
BLACK
6
CONTINUOUS
10
1.27053
20
0.305261
11
1.25906
21
0.297714
0
LINE
8
BLACK
6
CONTINUOUS
10
1.25906
20
0.297714
11
1.24678
21
0.291549
0
LINE
8
BLACK
6
CONTINUOUS
10
1.24678
20
0.291549
11
1.23387
21
0.286852
0
LINE
8
BLACK
6
CONTINUOUS
10
1.23387
20
0.286852
11
1.22051
21
0.283684
0
LINE
8
BLACK
6
CONTINUOUS
10
1.22051
20
0.283684
11
1.20687
21
0.28209
0
LINE
8
BLACK
6
CONTINUOUS
10
1.20687
20
0.28209
11
1.19313
21
0.28209
0
LINE
8
BLACK
6
CONTINUOUS
10
1.19313
20
0.28209
11
1.17949
21
0.283684
0
LINE
8
BLACK
6
CONTINUOUS
10
1.17949
20
0.283684
11
1.16613
21
0.286852
0
LINE
8
BLACK
6
CONTINUOUS
10
1.16613
20
0.286852
11
1.15322
21
0.291549
0
LINE
8
BLACK
6
CONTINUOUS
10
1.15322
20
0.291549
11
1.14094
21
0.297714
0
LINE
8
BLACK
6
CONTINUOUS
10
1.14094
20
0.297714
11
1.12947
21
0.305261
0
LINE
8
BLACK
6
CONTINUOUS
10
1.12947
20
0.305261
11
1.11895
21
0.31409
0
LINE
8
BLACK
6
CONTINUOUS
10
1.11895
20
0.31409
11
1.10952
21
0.32408
0
LINE
8
BLACK
6
CONTINUOUS
10
1.10952
20
0.32408
11
1.10132
21
0.335097
0
LINE
8
BLACK
6
CONTINUOUS
10
1.10132
20
0.335097
11
1.09445
21
0.346992
0
LINE
8
BLACK
6
CONTINUOUS
10
1.09445
20
0.346992
11
1.08901
21
0.359604
0
LINE
8
BLACK
6
CONTINUOUS
10
1.08901
20
0.359604
11
1.08507
21
0.372762
0
LINE
8
BLACK
6
CONTINUOUS
10
1.08507
20
0.372762
11
1.08269
21
0.386288
0
LINE
8
BLACK
6
CONTINUOUS
10
1.08269
20
0.386288
11
1.08189
21
0.4
0
LINE
8
BLACK
6
CONTINUOUS
10
1.08189
20
0.4
11
1.08269
21
0.413712
0
LINE
8
BLACK
6
CONTINUOUS
10
1.08269
20
0.413712
11
1.08507
21
0.427238
0
LINE
8
BLACK
6
CONTINUOUS
10
1.08507
20
0.427238
11
1.08901
21
0.440396
0
LINE
8
BLACK
6
CONTINUOUS
10
1.08901
20
0.440396
11
1.09445
21
0.453008
0
LINE
8
BLACK
6
CONTINUOUS
10
1.09445
20
0.453008
11
1.10132
21
0.464903
0
LINE
8
BLACK
6
CONTINUOUS
10
1.10132
20
0.464903
11
1.10952
21
0.47592
0
LINE
8
BLACK
6
CONTINUOUS
10
1.10952
20
0.47592
11
1.11895
21
0.48591
0
LINE
8
BLACK
6
CONTINUOUS
10
1.11895
20
0.48591
11
1.12947
21
0.494739
0
LINE
8
BLACK
6
CONTINUOUS
10
1.12947
20
0.494739
11
1.14094
21
0.502286
0
LINE
8
BLACK
6
CONTINUOUS
10
1.14094
20
0.502286
11
1.15322
21
0.508451
0
LINE
8
BLACK
6
CONTINUOUS
10
1.15322
20
0.508451
11
1.16613
21
0.513148
0
LINE
8
BLACK
6
CONTINUOUS
10
1.16613
20
0.513148
11
1.17949
21
0.516316
0
LINE
8
BLACK
6
CONTINUOUS
10
1.17949
20
0.516316
11
1.19313
21
0.51791
0
LINE
8
BLACK
6
CONTINUOUS
10
1.19313
20
0.51791
11
1.20687
21
0.51791
0
LINE
8
BLACK
6
CONTINUOUS
10
1.20687
20
0.51791
11
1.22051
21
0.516316
0
LINE
8
BLACK
6
CONTINUOUS
10
0.743609
20
0.446
11
0.75
21
0.443154
0
LINE
8
BLACK
6
CONTINUOUS
10
0.75
20
0.443154
11
0.75566
21
0.439042
0
LINE
8
BLACK
6
CONTINUOUS
10
0.75566
20
0.439042
11
0.760341
21
0.433843
0
LINE
8
BLACK
6
CONTINUOUS
10
0.760341
20
0.433843
11
0.763839
21
0.427784
0
LINE
8
BLACK
6
CONTINUOUS
10
0.763839
20
0.427784
11
0.766001
21
0.421131
0
LINE
8
BLACK
6
CONTINUOUS
10
0.766001
20
0.421131
11
0.766732
21
0.414173
0
LINE
8
BLACK
6
CONTINUOUS
10
0.766732
20
0.414173
11
0.766001
21
0.407216
0
LINE
8
BLACK
6
CONTINUOUS
10
0.766001
20
0.407216
11
0.763839
21
0.400562
0
LINE
8
BLACK
6
CONTINUOUS
10
0.763839
20
0.400562
11
0.760341
21
0.394503
0
LINE
8
BLACK
6
CONTINUOUS
10
0.760341
20
0.394503
11
0.75566
21
0.389304
0
LINE
8
BLACK
6
CONTINUOUS
10
0.75566
20
0.389304
11
0.75
21
0.385192
0
LINE
8
BLACK
6
CONTINUOUS
10
0.75
20
0.385192
11
0.743609
21
0.382347
0
LINE
8
BLACK
6
CONTINUOUS
10
0.743609
20
0.382347
11
0.736766
21
0.380892
0
LINE
8
BLACK
6
CONTINUOUS
10
0.736766
20
0.380892
11
0.72977
21
0.380892
0
LINE
8
BLACK
6
CONTINUOUS
10
0.72977
20
0.380892
11
0.722927
21
0.382347
0
LINE
8
BLACK
6
CONTINUOUS
10
0.722927
20
0.382347
11
0.716535
21
0.385192
0
LINE
8
BLACK
6
CONTINUOUS
10
0.716535
20
0.385192
11
0.710876
21
0.389304
0
LINE
8
BLACK
6
CONTINUOUS
10
0.710876
20
0.389304
11
0.706194
21
0.394503
0
LINE
8
BLACK
6
CONTINUOUS
10
0.706194
20
0.394503
11
0.702696
21
0.400562
0
LINE
8
BLACK
6
CONTINUOUS
10
0.702696
20
0.400562
11
0.700534
21
0.407216
0
LINE
8
BLACK
6
CONTINUOUS
10
0.700534
20
0.407216
11
0.699803
21
0.414173
0
LINE
8
BLACK
6
CONTINUOUS
10
0.699803
20
0.414173
11
0.700534
21
0.421131
0
LINE
8
BLACK
6
CONTINUOUS
10
0.700534
20
0.421131
11
0.702696
21
0.427784
0
LINE
8
BLACK
6
CONTINUOUS
10
0.702696
20
0.427784
11
0.706194
21
0.433843
0
LINE
8
BLACK
6
CONTINUOUS
10
0.706194
20
0.433843
11
0.710876
21
0.439042
0
LINE
8
BLACK
6
CONTINUOUS
10
0.710876
20
0.439042
11
0.716535
21
0.443154
0
LINE
8
BLACK
6
CONTINUOUS
10
0.716535
20
0.443154
11
0.722927
21
0.446
0
LINE
8
BLACK
6
CONTINUOUS
10
0.722927
20
0.446
11
0.72977
21
0.447454
0
LINE
8
BLACK
6
CONTINUOUS
10
0.72977
20
0.447454
11
0.736766
21
0.447454
0
LINE
8
BLACK
6
CONTINUOUS
10
0.736766
20
0.447454
11
0.743609
21
0.446
0
LINE
8
BLACK
6
CONTINUOUS
10
0.843609
20
0.446
11
0.85
21
0.443154
0
LINE
8
BLACK
6
CONTINUOUS
10
0.85
20
0.443154
11
0.85566
21
0.439042
0
LINE
8
BLACK
6
CONTINUOUS
10
0.85566
20
0.439042
11
0.860341
21
0.433843
0
LINE
8
BLACK
6
CONTINUOUS
10
0.860341
20
0.433843
11
0.863839
21
0.427784
0
LINE
8
BLACK
6
CONTINUOUS
10
0.863839
20
0.427784
11
0.866001
21
0.421131
0
LINE
8
BLACK
6
CONTINUOUS
10
0.866001
20
0.421131
11
0.866732
21
0.414173
0
LINE
8
BLACK
6
CONTINUOUS
10
0.866732
20
0.414173
11
0.866001
21
0.407216
0
LINE
8
BLACK
6
CONTINUOUS
10
0.866001
20
0.407216
11
0.863839
21
0.400562
0
LINE
8
BLACK
6
CONTINUOUS
10
0.863839
20
0.400562
11
0.860341
21
0.394503
0
LINE
8
BLACK
6
CONTINUOUS
10
0.860341
20
0.394503
11
0.85566
21
0.389304
0
LINE
8
BLACK
6
CONTINUOUS
10
0.85566
20
0.389304
11
0.85
21
0.385192
0
LINE
8
BLACK
6
CONTINUOUS
10
0.85
20
0.385192
11
0.843609
21
0.382347
0
LINE
8
BLACK
6
CONTINUOUS
10
0.843609
20
0.382347
11
0.836766
21
0.380892
0
LINE
8
BLACK
6
CONTINUOUS
10
0.836766
20
0.380892
11
0.82977
21
0.380892
0
LINE
8
BLACK
6
CONTINUOUS
10
0.82977
20
0.380892
11
0.822927
21
0.382347
0
LINE
8
BLACK
6
CONTINUOUS
10
0.822927
20
0.382347
11
0.816535
21
0.385192
0
LINE
8
BLACK
6
CONTINUOUS
10
0.816535
20
0.385192
11
0.810876
21
0.389304
0
LINE
8
BLACK
6
CONTINUOUS
10
0.810876
20
0.389304
11
0.806194
21
0.394503
0
LINE
8
BLACK
6
CONTINUOUS
10
0.806194
20
0.394503
11
0.802696
21
0.400562
0
LINE
8
BLACK
6
CONTINUOUS
10
0.802696
20
0.400562
11
0.800534
21
0.407216
0
LINE
8
BLACK
6
CONTINUOUS
10
0.800534
20
0.407216
11
0.799803
21
0.414173
0
LINE
8
BLACK
6
CONTINUOUS
10
0.799803
20
0.414173
11
0.800534
21
0.421131
0
LINE
8
BLACK
6
CONTINUOUS
10
0.800534
20
0.421131
11
0.802696
21
0.427784
0
LINE
8
BLACK
6
CONTINUOUS
10
0.802696
20
0.427784
11
0.806194
21
0.433843
0
LINE
8
BLACK
6
CONTINUOUS
10
0.806194
20
0.433843
11
0.810876
21
0.439042
0
LINE
8
BLACK
6
CONTINUOUS
10
0.810876
20
0.439042
11
0.816535
21
0.443154
0
LINE
8
BLACK
6
CONTINUOUS
10
0.816535
20
0.443154
11
0.822927
21
0.446
0
LINE
8
BLACK
6
CONTINUOUS
10
0.822927
20
0.446
11
0.82977
21
0.447454
0
LINE
8
BLACK
6
CONTINUOUS
10
0.82977
20
0.447454
11
0.836766
21
0.447454
0
LINE
8
BLACK
6
CONTINUOUS
10
0.836766
20
0.447454
11
0.843609
21
0.446
0
LINE
8
BLACK
6
CONTINUOUS
10
0.943609
20
0.446
11
0.95
21
0.443154
0
LINE
8
BLACK
6
CONTINUOUS
10
0.95
20
0.443154
11
0.95566
21
0.439042
0
LINE
8
BLACK
6
CONTINUOUS
10
0.95566
20
0.439042
11
0.960341
21
0.433843
0
LINE
8
BLACK
6
CONTINUOUS
10
0.960341
20
0.433843
11
0.963839
21
0.427784
0
LINE
8
BLACK
6
CONTINUOUS
10
0.963839
20
0.427784
11
0.966001
21
0.421131
0
LINE
8
BLACK
6
CONTINUOUS
10
0.966001
20
0.421131
11
0.966732
21
0.414173
0
LINE
8
BLACK
6
CONTINUOUS
10
0.966732
20
0.414173
11
0.966001
21
0.407216
0
LINE
8
BLACK
6
CONTINUOUS
10
0.966001
20
0.407216
11
0.963839
21
0.400562
0
LINE
8
BLACK
6
CONTINUOUS
10
0.963839
20
0.400562
11
0.960341
21
0.394503
0
LINE
8
BLACK
6
CONTINUOUS
10
0.960341
20
0.394503
11
0.95566
21
0.389304
0
LINE
8
BLACK
6
CONTINUOUS
10
0.95566
20
0.389304
11
0.95
21
0.385192
0
LINE
8
BLACK
6
CONTINUOUS
10
0.95
20
0.385192
11
0.943609
21
0.382347
0
LINE
8
BLACK
6
CONTINUOUS
10
0.943609
20
0.382347
11
0.936766
21
0.380892
0
LINE
8
BLACK
6
CONTINUOUS
10
0.936766
20
0.380892
11
0.92977
21
0.380892
0
LINE
8
BLACK
6
CONTINUOUS
10
0.92977
20
0.380892
11
0.922927
21
0.382347
0
LINE
8
BLACK
6
CONTINUOUS
10
0.922927
20
0.382347
11
0.916535
21
0.385192
0
LINE
8
BLACK
6
CONTINUOUS
10
0.916535
20
0.385192
11
0.910876
21
0.389304
0
LINE
8
BLACK
6
CONTINUOUS
10
0.910876
20
0.389304
11
0.906194
21
0.394503
0
LINE
8
BLACK
6
CONTINUOUS
10
0.906194
20
0.394503
11
0.902696
21
0.400562
0
LINE
8
BLACK
6
CONTINUOUS
10
0.902696
20
0.400562
11
0.900534
21
0.407216
0
LINE
8
BLACK
6
CONTINUOUS
10
0.900534
20
0.407216
11
0.899803
21
0.414173
0
LINE
8
BLACK
6
CONTINUOUS
10
0.899803
20
0.414173
11
0.900534
21
0.421131
0
LINE
8
BLACK
6
CONTINUOUS
10
0.900534
20
0.421131
11
0.902696
21
0.427784
0
LINE
8
BLACK
6
CONTINUOUS
10
0.902696
20
0.427784
11
0.906194
21
0.433843
0
LINE
8
BLACK
6
CONTINUOUS
10
0.906194
20
0.433843
11
0.910876
21
0.439042
0
LINE
8
BLACK
6
CONTINUOUS
10
0.910876
20
0.439042
11
0.916535
21
0.443154
0
LINE
8
BLACK
6
CONTINUOUS
10
0.916535
20
0.443154
11
0.922927
21
0.446
0
LINE
8
BLACK
6
CONTINUOUS
10
0.922927
20
0.446
11
0.92977
21
0.447454
0
LINE
8
BLACK
6
CONTINUOUS
10
0.92977
20
0.447454
11
0.936766
21
0.447454
0
LINE
8
BLACK
6
CONTINUOUS
10
0.936766
20
0.447454
11
0.943609
21
0.446
0
LINE
8
BLACK
6
CONTINUOUS
10
0.766732
20
0.480709
11
0.699803
21
0.480709
0
LINE
8
BLACK
6
CONTINUOUS
10
0.699803
20
0.480709
11
0.699803
21
0.547638
0
LINE
8
BLACK
6
CONTINUOUS
10
0.699803
20
0.547638
11
0.766732
21
0.547638
0
LINE
8
BLACK
6
CONTINUOUS
10
0.766732
20
0.547638
11
0.766732
21
0.480709
0
LINE
8
BLACK
6
CONTINUOUS
10
0.843609
20
0.546
11
0.85
21
0.543154
0
LINE
8
BLACK
6
CONTINUOUS
10
0.85
20
0.543154
11
0.85566
21
0.539042
0
LINE
8
BLACK
6
CONTINUOUS
10
0.85566
20
0.539042
11
0.860341
21
0.533843
0
LINE
8
BLACK
6
CONTINUOUS
10
0.860341
20
0.533843
11
0.863839
21
0.527784
0
LINE
8
BLACK
6
CONTINUOUS
10
0.863839
20
0.527784
11
0.866001
21
0.521131
0
LINE
8
BLACK
6
CONTINUOUS
10
0.866001
20
0.521131
11
0.866732
21
0.514173
0
LINE
8
BLACK
6
CONTINUOUS
10
0.866732
20
0.514173
11
0.866001
21
0.507216
0
LINE
8
BLACK
6
CONTINUOUS
10
0.866001
20
0.507216
11
0.863839
21
0.500562
0
LINE
8
BLACK
6
CONTINUOUS
10
0.863839
20
0.500562
11
0.860341
21
0.494503
0
LINE
8
BLACK
6
CONTINUOUS
10
0.860341
20
0.494503
11
0.85566
21
0.489304
0
LINE
8
BLACK
6
CONTINUOUS
10
0.85566
20
0.489304
11
0.85
21
0.485192
0
LINE
8
BLACK
6
CONTINUOUS
10
0.85
20
0.485192
11
0.843609
21
0.482347
0
LINE
8
BLACK
6
CONTINUOUS
10
0.843609
20
0.482347
11
0.836766
21
0.480892
0
LINE
8
BLACK
6
CONTINUOUS
10
0.836766
20
0.480892
11
0.82977
21
0.480892
0
LINE
8
BLACK
6
CONTINUOUS
10
0.82977
20
0.480892
11
0.822927
21
0.482347
0
LINE
8
BLACK
6
CONTINUOUS
10
0.822927
20
0.482347
11
0.816535
21
0.485192
0
LINE
8
BLACK
6
CONTINUOUS
10
0.816535
20
0.485192
11
0.810876
21
0.489304
0
LINE
8
BLACK
6
CONTINUOUS
10
0.810876
20
0.489304
11
0.806194
21
0.494503
0
LINE
8
BLACK
6
CONTINUOUS
10
0.806194
20
0.494503
11
0.802696
21
0.500562
0
LINE
8
BLACK
6
CONTINUOUS
10
0.802696
20
0.500562
11
0.800534
21
0.507216
0
LINE
8
BLACK
6
CONTINUOUS
10
0.800534
20
0.507216
11
0.799803
21
0.514173
0
LINE
8
BLACK
6
CONTINUOUS
10
0.799803
20
0.514173
11
0.800534
21
0.521131
0
LINE
8
BLACK
6
CONTINUOUS
10
0.800534
20
0.521131
11
0.802696
21
0.527784
0
LINE
8
BLACK
6
CONTINUOUS
10
0.802696
20
0.527784
11
0.806194
21
0.533843
0
LINE
8
BLACK
6
CONTINUOUS
10
0.806194
20
0.533843
11
0.810876
21
0.539042
0
LINE
8
BLACK
6
CONTINUOUS
10
0.810876
20
0.539042
11
0.816535
21
0.543154
0
LINE
8
BLACK
6
CONTINUOUS
10
0.816535
20
0.543154
11
0.822927
21
0.546
0
LINE
8
BLACK
6
CONTINUOUS
10
0.822927
20
0.546
11
0.82977
21
0.547454
0
LINE
8
BLACK
6
CONTINUOUS
10
0.82977
20
0.547454
11
0.836766
21
0.547454
0
LINE
8
BLACK
6
CONTINUOUS
10
0.836766
20
0.547454
11
0.843609
21
0.546
0
LINE
8
BLACK
6
CONTINUOUS
10
0.943609
20
0.546
11
0.95
21
0.543154
0
LINE
8
BLACK
6
CONTINUOUS
10
0.95
20
0.543154
11
0.95566
21
0.539042
0
LINE
8
BLACK
6
CONTINUOUS
10
0.95566
20
0.539042
11
0.960341
21
0.533843
0
LINE
8
BLACK
6
CONTINUOUS
10
0.960341
20
0.533843
11
0.963839
21
0.527784
0
LINE
8
BLACK
6
CONTINUOUS
10
0.963839
20
0.527784
11
0.966001
21
0.521131
0
LINE
8
BLACK
6
CONTINUOUS
10
0.966001
20
0.521131
11
0.966732
21
0.514173
0
LINE
8
BLACK
6
CONTINUOUS
10
0.966732
20
0.514173
11
0.966001
21
0.507216
0
LINE
8
BLACK
6
CONTINUOUS
10
0.966001
20
0.507216
11
0.963839
21
0.500562
0
LINE
8
BLACK
6
CONTINUOUS
10
0.963839
20
0.500562
11
0.960341
21
0.494503
0
LINE
8
BLACK
6
CONTINUOUS
10
0.960341
20
0.494503
11
0.95566
21
0.489304
0
LINE
8
BLACK
6
CONTINUOUS
10
0.95566
20
0.489304
11
0.95
21
0.485192
0
LINE
8
BLACK
6
CONTINUOUS
10
0.95
20
0.485192
11
0.943609
21
0.482347
0
LINE
8
BLACK
6
CONTINUOUS
10
0.943609
20
0.482347
11
0.936766
21
0.480892
0
LINE
8
BLACK
6
CONTINUOUS
10
0.936766
20
0.480892
11
0.92977
21
0.480892
0
LINE
8
BLACK
6
CONTINUOUS
10
0.92977
20
0.480892
11
0.922927
21
0.482347
0
LINE
8
BLACK
6
CONTINUOUS
10
0.922927
20
0.482347
11
0.916535
21
0.485192
0
LINE
8
BLACK
6
CONTINUOUS
10
0.916535
20
0.485192
11
0.910876
21
0.489304
0
LINE
8
BLACK
6
CONTINUOUS
10
0.910876
20
0.489304
11
0.906194
21
0.494503
0
LINE
8
BLACK
6
CONTINUOUS
10
0.906194
20
0.494503
11
0.902696
21
0.500562
0
LINE
8
BLACK
6
CONTINUOUS
10
0.902696
20
0.500562
11
0.900534
21
0.507216
0
LINE
8
BLACK
6
CONTINUOUS
10
0.900534
20
0.507216
11
0.899803
21
0.514173
0
LINE
8
BLACK
6
CONTINUOUS
10
0.899803
20
0.514173
11
0.900534
21
0.521131
0
LINE
8
BLACK
6
CONTINUOUS
10
0.900534
20
0.521131
11
0.902696
21
0.527784
0
LINE
8
BLACK
6
CONTINUOUS
10
0.902696
20
0.527784
11
0.906194
21
0.533843
0
LINE
8
BLACK
6
CONTINUOUS
10
0.906194
20
0.533843
11
0.910876
21
0.539042
0
LINE
8
BLACK
6
CONTINUOUS
10
0.910876
20
0.539042
11
0.916535
21
0.543154
0
LINE
8
BLACK
6
CONTINUOUS
10
0.916535
20
0.543154
11
0.922927
21
0.546
0
LINE
8
BLACK
6
CONTINUOUS
10
0.922927
20
0.546
11
0.92977
21
0.547454
0
LINE
8
BLACK
6
CONTINUOUS
10
0.92977
20
0.547454
11
0.936766
21
0.547454
0
LINE
8
BLACK
6
CONTINUOUS
10
0.936766
20
0.547454
11
0.943609
21
0.546
0
LINE
8
BLACK
6
CONTINUOUS
10
0.743609
20
0.646
11
0.75
21
0.643154
0
LINE
8
BLACK
6
CONTINUOUS
10
0.75
20
0.643154
11
0.75566
21
0.639042
0
LINE
8
BLACK
6
CONTINUOUS
10
0.75566
20
0.639042
11
0.760341
21
0.633843
0
LINE
8
BLACK
6
CONTINUOUS
10
0.760341
20
0.633843
11
0.763839
21
0.627784
0
LINE
8
BLACK
6
CONTINUOUS
10
0.763839
20
0.627784
11
0.766001
21
0.621131
0
LINE
8
BLACK
6
CONTINUOUS
10
0.766001
20
0.621131
11
0.766732
21
0.614173
0
LINE
8
BLACK
6
CONTINUOUS
10
0.766732
20
0.614173
11
0.766001
21
0.607216
0
LINE
8
BLACK
6
CONTINUOUS
10
0.766001
20
0.607216
11
0.763839
21
0.600562
0
LINE
8
BLACK
6
CONTINUOUS
10
0.763839
20
0.600562
11
0.760341
21
0.594503
0
LINE
8
BLACK
6
CONTINUOUS
10
0.760341
20
0.594503
11
0.75566
21
0.589304
0
LINE
8
BLACK
6
CONTINUOUS
10
0.75566
20
0.589304
11
0.75
21
0.585192
0
LINE
8
BLACK
6
CONTINUOUS
10
0.75
20
0.585192
11
0.743609
21
0.582347
0
LINE
8
BLACK
6
CONTINUOUS
10
0.743609
20
0.582347
11
0.736766
21
0.580892
0
LINE
8
BLACK
6
CONTINUOUS
10
0.736766
20
0.580892
11
0.72977
21
0.580892
0
LINE
8
BLACK
6
CONTINUOUS
10
0.72977
20
0.580892
11
0.722927
21
0.582347
0
LINE
8
BLACK
6
CONTINUOUS
10
0.722927
20
0.582347
11
0.716535
21
0.585192
0
LINE
8
BLACK
6
CONTINUOUS
10
0.716535
20
0.585192
11
0.710876
21
0.589304
0
LINE
8
BLACK
6
CONTINUOUS
10
0.710876
20
0.589304
11
0.706194
21
0.594503
0
LINE
8
BLACK
6
CONTINUOUS
10
0.706194
20
0.594503
11
0.702696
21
0.600562
0
LINE
8
BLACK
6
CONTINUOUS
10
0.702696
20
0.600562
11
0.700534
21
0.607216
0
LINE
8
BLACK
6
CONTINUOUS
10
0.700534
20
0.607216
11
0.699803
21
0.614173
0
LINE
8
BLACK
6
CONTINUOUS
10
0.699803
20
0.614173
11
0.700534
21
0.621131
0
LINE
8
BLACK
6
CONTINUOUS
10
0.700534
20
0.621131
11
0.702696
21
0.627784
0
LINE
8
BLACK
6
CONTINUOUS
10
0.702696
20
0.627784
11
0.706194
21
0.633843
0
LINE
8
BLACK
6
CONTINUOUS
10
0.706194
20
0.633843
11
0.710876
21
0.639042
0
LINE
8
BLACK
6
CONTINUOUS
10
0.710876
20
0.639042
11
0.716535
21
0.643154
0
LINE
8
BLACK
6
CONTINUOUS
10
0.716535
20
0.643154
11
0.722927
21
0.646
0
LINE
8
BLACK
6
CONTINUOUS
10
0.722927
20
0.646
11
0.72977
21
0.647454
0
LINE
8
BLACK
6
CONTINUOUS
10
0.72977
20
0.647454
11
0.736766
21
0.647454
0
LINE
8
BLACK
6
CONTINUOUS
10
0.736766
20
0.647454
11
0.743609
21
0.646
0
LINE
8
BLACK
6
CONTINUOUS
10
0.843609
20
0.646
11
0.85
21
0.643154
0
LINE
8
BLACK
6
CONTINUOUS
10
0.85
20
0.643154
11
0.85566
21
0.639042
0
LINE
8
BLACK
6
CONTINUOUS
10
0.85566
20
0.639042
11
0.860341
21
0.633843
0
LINE
8
BLACK
6
CONTINUOUS
10
0.860341
20
0.633843
11
0.863839
21
0.627784
0
LINE
8
BLACK
6
CONTINUOUS
10
0.863839
20
0.627784
11
0.866001
21
0.621131
0
LINE
8
BLACK
6
CONTINUOUS
10
0.866001
20
0.621131
11
0.866732
21
0.614173
0
LINE
8
BLACK
6
CONTINUOUS
10
0.866732
20
0.614173
11
0.866001
21
0.607216
0
LINE
8
BLACK
6
CONTINUOUS
10
0.866001
20
0.607216
11
0.863839
21
0.600562
0
LINE
8
BLACK
6
CONTINUOUS
10
0.863839
20
0.600562
11
0.860341
21
0.594503
0
LINE
8
BLACK
6
CONTINUOUS
10
0.860341
20
0.594503
11
0.85566
21
0.589304
0
LINE
8
BLACK
6
CONTINUOUS
10
0.85566
20
0.589304
11
0.85
21
0.585192
0
LINE
8
BLACK
6
CONTINUOUS
10
0.85
20
0.585192
11
0.843609
21
0.582347
0
LINE
8
BLACK
6
CONTINUOUS
10
0.843609
20
0.582347
11
0.836766
21
0.580892
0
LINE
8
BLACK
6
CONTINUOUS
10
0.836766
20
0.580892
11
0.82977
21
0.580892
0
LINE
8
BLACK
6
CONTINUOUS
10
0.82977
20
0.580892
11
0.822927
21
0.582347
0
LINE
8
BLACK
6
CONTINUOUS
10
0.822927
20
0.582347
11
0.816535
21
0.585192
0
LINE
8
BLACK
6
CONTINUOUS
10
0.816535
20
0.585192
11
0.810876
21
0.589304
0
LINE
8
BLACK
6
CONTINUOUS
10
0.810876
20
0.589304
11
0.806194
21
0.594503
0
LINE
8
BLACK
6
CONTINUOUS
10
0.806194
20
0.594503
11
0.802696
21
0.600562
0
LINE
8
BLACK
6
CONTINUOUS
10
0.802696
20
0.600562
11
0.800534
21
0.607216
0
LINE
8
BLACK
6
CONTINUOUS
10
0.800534
20
0.607216
11
0.799803
21
0.614173
0
LINE
8
BLACK
6
CONTINUOUS
10
0.799803
20
0.614173
11
0.800534
21
0.621131
0
LINE
8
BLACK
6
CONTINUOUS
10
0.800534
20
0.621131
11
0.802696
21
0.627784
0
LINE
8
BLACK
6
CONTINUOUS
10
0.802696
20
0.627784
11
0.806194
21
0.633843
0
LINE
8
BLACK
6
CONTINUOUS
10
0.806194
20
0.633843
11
0.810876
21
0.639042
0
LINE
8
BLACK
6
CONTINUOUS
10
0.810876
20
0.639042
11
0.816535
21
0.643154
0
LINE
8
BLACK
6
CONTINUOUS
10
0.816535
20
0.643154
11
0.822927
21
0.646
0
LINE
8
BLACK
6
CONTINUOUS
10
0.822927
20
0.646
11
0.82977
21
0.647454
0
LINE
8
BLACK
6
CONTINUOUS
10
0.82977
20
0.647454
11
0.836766
21
0.647454
0
LINE
8
BLACK
6
CONTINUOUS
10
0.836766
20
0.647454
11
0.843609
21
0.646
0
LINE
8
BLACK
6
CONTINUOUS
10
0.943609
20
0.646
11
0.95
21
0.643154
0
LINE
8
BLACK
6
CONTINUOUS
10
0.95
20
0.643154
11
0.95566
21
0.639042
0
LINE
8
BLACK
6
CONTINUOUS
10
0.95566
20
0.639042
11
0.960341
21
0.633843
0
LINE
8
BLACK
6
CONTINUOUS
10
0.960341
20
0.633843
11
0.963839
21
0.627784
0
LINE
8
BLACK
6
CONTINUOUS
10
0.963839
20
0.627784
11
0.966001
21
0.621131
0
LINE
8
BLACK
6
CONTINUOUS
10
0.966001
20
0.621131
11
0.966732
21
0.614173
0
LINE
8
BLACK
6
CONTINUOUS
10
0.966732
20
0.614173
11
0.966001
21
0.607216
0
LINE
8
BLACK
6
CONTINUOUS
10
0.966001
20
0.607216
11
0.963839
21
0.600562
0
LINE
8
BLACK
6
CONTINUOUS
10
0.963839
20
0.600562
11
0.960341
21
0.594503
0
LINE
8
BLACK
6
CONTINUOUS
10
0.960341
20
0.594503
11
0.95566
21
0.589304
0
LINE
8
BLACK
6
CONTINUOUS
10
0.95566
20
0.589304
11
0.95
21
0.585192
0
LINE
8
BLACK
6
CONTINUOUS
10
0.95
20
0.585192
11
0.943609
21
0.582347
0
LINE
8
BLACK
6
CONTINUOUS
10
0.943609
20
0.582347
11
0.936766
21
0.580892
0
LINE
8
BLACK
6
CONTINUOUS
10
0.936766
20
0.580892
11
0.92977
21
0.580892
0
LINE
8
BLACK
6
CONTINUOUS
10
0.92977
20
0.580892
11
0.922927
21
0.582347
0
LINE
8
BLACK
6
CONTINUOUS
10
0.922927
20
0.582347
11
0.916535
21
0.585192
0
LINE
8
BLACK
6
CONTINUOUS
10
0.916535
20
0.585192
11
0.910876
21
0.589304
0
LINE
8
BLACK
6
CONTINUOUS
10
0.910876
20
0.589304
11
0.906194
21
0.594503
0
LINE
8
BLACK
6
CONTINUOUS
10
0.906194
20
0.594503
11
0.902696
21
0.600562
0
LINE
8
BLACK
6
CONTINUOUS
10
0.902696
20
0.600562
11
0.900534
21
0.607216
0
LINE
8
BLACK
6
CONTINUOUS
10
0.900534
20
0.607216
11
0.899803
21
0.614173
0
LINE
8
BLACK
6
CONTINUOUS
10
0.899803
20
0.614173
11
0.900534
21
0.621131
0
LINE
8
BLACK
6
CONTINUOUS
10
0.900534
20
0.621131
11
0.902696
21
0.627784
0
LINE
8
BLACK
6
CONTINUOUS
10
0.902696
20
0.627784
11
0.906194
21
0.633843
0
LINE
8
BLACK
6
CONTINUOUS
10
0.906194
20
0.633843
11
0.910876
21
0.639042
0
LINE
8
BLACK
6
CONTINUOUS
10
0.910876
20
0.639042
11
0.916535
21
0.643154
0
LINE
8
BLACK
6
CONTINUOUS
10
0.916535
20
0.643154
11
0.922927
21
0.646
0
LINE
8
BLACK
6
CONTINUOUS
10
0.922927
20
0.646
11
0.92977
21
0.647454
0
LINE
8
BLACK
6
CONTINUOUS
10
0.92977
20
0.647454
11
0.936766
21
0.647454
0
LINE
8
BLACK
6
CONTINUOUS
10
0.936766
20
0.647454
11
0.943609
21
0.646
0
LINE
8
BLACK
6
CONTINUOUS
10
0.323727
20
0.74285
11
0.330118
21
0.740005
0
LINE
8
BLACK
6
CONTINUOUS
10
0.330118
20
0.740005
11
0.335778
21
0.735893
0
LINE
8
BLACK
6
CONTINUOUS
10
0.335778
20
0.735893
11
0.340459
21
0.730694
0
LINE
8
BLACK
6
CONTINUOUS
10
0.340459
20
0.730694
11
0.343957
21
0.724635
0
LINE
8
BLACK
6
CONTINUOUS
10
0.343957
20
0.724635
11
0.346119
21
0.717981
0
LINE
8
BLACK
6
CONTINUOUS
10
0.346119
20
0.717981
11
0.34685
21
0.711024
0
LINE
8
BLACK
6
CONTINUOUS
10
0.34685
20
0.711024
11
0.346119
21
0.704066
0
LINE
8
BLACK
6
CONTINUOUS
10
0.346119
20
0.704066
11
0.343957
21
0.697412
0
LINE
8
BLACK
6
CONTINUOUS
10
0.343957
20
0.697412
11
0.340459
21
0.691354
0
LINE
8
BLACK
6
CONTINUOUS
10
0.340459
20
0.691354
11
0.335778
21
0.686155
0
LINE
8
BLACK
6
CONTINUOUS
10
0.335778
20
0.686155
11
0.330118
21
0.682042
0
LINE
8
BLACK
6
CONTINUOUS
10
0.330118
20
0.682042
11
0.323727
21
0.679197
0
LINE
8
BLACK
6
CONTINUOUS
10
0.323727
20
0.679197
11
0.316884
21
0.677742
0
LINE
8
BLACK
6
CONTINUOUS
10
0.316884
20
0.677742
11
0.309888
21
0.677742
0
LINE
8
BLACK
6
CONTINUOUS
10
0.309888
20
0.677742
11
0.303045
21
0.679197
0
LINE
8
BLACK
6
CONTINUOUS
10
0.303045
20
0.679197
11
0.296654
21
0.682042
0
LINE
8
BLACK
6
CONTINUOUS
10
0.296654
20
0.682042
11
0.290994
21
0.686155
0
LINE
8
BLACK
6
CONTINUOUS
10
0.290994
20
0.686155
11
0.286312
21
0.691354
0
LINE
8
BLACK
6
CONTINUOUS
10
0.286312
20
0.691354
11
0.282814
21
0.697412
0
LINE
8
BLACK
6
CONTINUOUS
10
0.282814
20
0.697412
11
0.280653
21
0.704066
0
LINE
8
BLACK
6
CONTINUOUS
10
0.280653
20
0.704066
11
0.279921
21
0.711024
0
LINE
8
BLACK
6
CONTINUOUS
10
0.279921
20
0.711024
11
0.280653
21
0.717981
0
LINE
8
BLACK
6
CONTINUOUS
10
0.280653
20
0.717981
11
0.282814
21
0.724635
0
LINE
8
BLACK
6
CONTINUOUS
10
0.282814
20
0.724635
11
0.286312
21
0.730694
0
LINE
8
BLACK
6
CONTINUOUS
10
0.286312
20
0.730694
11
0.290994
21
0.735893
0
LINE
8
BLACK
6
CONTINUOUS
10
0.290994
20
0.735893
11
0.296654
21
0.740005
0
LINE
8
BLACK
6
CONTINUOUS
10
0.296654
20
0.740005
11
0.303045
21
0.74285
0
LINE
8
BLACK
6
CONTINUOUS
10
0.303045
20
0.74285
11
0.309888
21
0.744305
0
LINE
8
BLACK
6
CONTINUOUS
10
0.309888
20
0.744305
11
0.316884
21
0.744305
0
LINE
8
BLACK
6
CONTINUOUS
10
0.316884
20
0.744305
11
0.323727
21
0.74285
0
LINE
8
BLACK
6
CONTINUOUS
10
0.423727
20
0.74285
11
0.430118
21
0.740005
0
LINE
8
BLACK
6
CONTINUOUS
10
0.430118
20
0.740005
11
0.435778
21
0.735893
0
LINE
8
BLACK
6
CONTINUOUS
10
0.435778
20
0.735893
11
0.440459
21
0.730694
0
LINE
8
BLACK
6
CONTINUOUS
10
0.440459
20
0.730694
11
0.443957
21
0.724635
0
LINE
8
BLACK
6
CONTINUOUS
10
0.443957
20
0.724635
11
0.446119
21
0.717981
0
LINE
8
BLACK
6
CONTINUOUS
10
0.446119
20
0.717981
11
0.44685
21
0.711024
0
LINE
8
BLACK
6
CONTINUOUS
10
0.44685
20
0.711024
11
0.446119
21
0.704066
0
LINE
8
BLACK
6
CONTINUOUS
10
0.446119
20
0.704066
11
0.443957
21
0.697412
0
LINE
8
BLACK
6
CONTINUOUS
10
0.443957
20
0.697412
11
0.440459
21
0.691354
0
LINE
8
BLACK
6
CONTINUOUS
10
0.440459
20
0.691354
11
0.435778
21
0.686155
0
LINE
8
BLACK
6
CONTINUOUS
10
0.435778
20
0.686155
11
0.430118
21
0.682042
0
LINE
8
BLACK
6
CONTINUOUS
10
0.430118
20
0.682042
11
0.423727
21
0.679197
0
LINE
8
BLACK
6
CONTINUOUS
10
0.423727
20
0.679197
11
0.416884
21
0.677742
0
LINE
8
BLACK
6
CONTINUOUS
10
0.416884
20
0.677742
11
0.409888
21
0.677742
0
LINE
8
BLACK
6
CONTINUOUS
10
0.409888
20
0.677742
11
0.403045
21
0.679197
0
LINE
8
BLACK
6
CONTINUOUS
10
0.403045
20
0.679197
11
0.396654
21
0.682042
0
LINE
8
BLACK
6
CONTINUOUS
10
0.396654
20
0.682042
11
0.390994
21
0.686155
0
LINE
8
BLACK
6
CONTINUOUS
10
0.390994
20
0.686155
11
0.386312
21
0.691354
0
LINE
8
BLACK
6
CONTINUOUS
10
0.386312
20
0.691354
11
0.382814
21
0.697412
0
LINE
8
BLACK
6
CONTINUOUS
10
0.382814
20
0.697412
11
0.380653
21
0.704066
0
LINE
8
BLACK
6
CONTINUOUS
10
0.380653
20
0.704066
11
0.379921
21
0.711024
0
LINE
8
BLACK
6
CONTINUOUS
10
0.379921
20
0.711024
11
0.380653
21
0.717981
0
LINE
8
BLACK
6
CONTINUOUS
10
0.380653
20
0.717981
11
0.382814
21
0.724635
0
LINE
8
BLACK
6
CONTINUOUS
10
0.382814
20
0.724635
11
0.386312
21
0.730694
0
LINE
8
BLACK
6
CONTINUOUS
10
0.386312
20
0.730694
11
0.390994
21
0.735893
0
LINE
8
BLACK
6
CONTINUOUS
10
0.390994
20
0.735893
11
0.396654
21
0.740005
0
LINE
8
BLACK
6
CONTINUOUS
10
0.396654
20
0.740005
11
0.403045
21
0.74285
0
LINE
8
BLACK
6
CONTINUOUS
10
0.403045
20
0.74285
11
0.409888
21
0.744305
0
LINE
8
BLACK
6
CONTINUOUS
10
0.409888
20
0.744305
11
0.416884
21
0.744305
0
LINE
8
BLACK
6
CONTINUOUS
10
0.416884
20
0.744305
11
0.423727
21
0.74285
0
LINE
8
BLACK
6
CONTINUOUS
10
1.219
20
0.762929
11
1.22539
21
0.760084
0
LINE
8
BLACK
6
CONTINUOUS
10
1.22539
20
0.760084
11
1.23105
21
0.755971
0
LINE
8
BLACK
6
CONTINUOUS
10
1.23105
20
0.755971
11
1.23573
21
0.750772
0
LINE
8
BLACK
6
CONTINUOUS
10
1.23573
20
0.750772
11
1.23923
21
0.744714
0
LINE
8
BLACK
6
CONTINUOUS
10
1.23923
20
0.744714
11
1.24139
21
0.73806
0
LINE
8
BLACK
6
CONTINUOUS
10
1.24139
20
0.73806
11
1.24213
21
0.731102
0
LINE
8
BLACK
6
CONTINUOUS
10
1.24213
20
0.731102
11
1.24139
21
0.724145
0
LINE
8
BLACK
6
CONTINUOUS
10
1.24139
20
0.724145
11
1.23923
21
0.717491
0
LINE
8
BLACK
6
CONTINUOUS
10
1.23923
20
0.717491
11
1.23573
21
0.711432
0
LINE
8
BLACK
6
CONTINUOUS
10
1.23573
20
0.711432
11
1.23105
21
0.706233
0
LINE
8
BLACK
6
CONTINUOUS
10
1.23105
20
0.706233
11
1.22539
21
0.702121
0
LINE
8
BLACK
6
CONTINUOUS
10
1.22539
20
0.702121
11
1.219
21
0.699276
0
LINE
8
BLACK
6
CONTINUOUS
10
1.219
20
0.699276
11
1.21216
21
0.697821
0
LINE
8
BLACK
6
CONTINUOUS
10
1.21216
20
0.697821
11
1.20516
21
0.697821
0
LINE
8
BLACK
6
CONTINUOUS
10
1.20516
20
0.697821
11
1.19832
21
0.699276
0
LINE
8
BLACK
6
CONTINUOUS
10
1.19832
20
0.699276
11
1.19193
21
0.702121
0
LINE
8
BLACK
6
CONTINUOUS
10
1.19193
20
0.702121
11
1.18627
21
0.706233
0
LINE
8
BLACK
6
CONTINUOUS
10
1.18627
20
0.706233
11
1.18159
21
0.711432
0
LINE
8
BLACK
6
CONTINUOUS
10
1.18159
20
0.711432
11
1.17809
21
0.717491
0
LINE
8
BLACK
6
CONTINUOUS
10
1.17809
20
0.717491
11
1.17593
21
0.724145
0
LINE
8
BLACK
6
CONTINUOUS
10
1.17593
20
0.724145
11
1.1752
21
0.731102
0
LINE
8
BLACK
6
CONTINUOUS
10
1.1752
20
0.731102
11
1.17593
21
0.73806
0
LINE
8
BLACK
6
CONTINUOUS
10
1.17593
20
0.73806
11
1.17809
21
0.744714
0
LINE
8
BLACK
6
CONTINUOUS
10
1.17809
20
0.744714
11
1.18159
21
0.750772
0
LINE
8
BLACK
6
CONTINUOUS
10
1.18159
20
0.750772
11
1.18627
21
0.755971
0
LINE
8
BLACK
6
CONTINUOUS
10
1.18627
20
0.755971
11
1.19193
21
0.760084
0
LINE
8
BLACK
6
CONTINUOUS
10
1.19193
20
0.760084
11
1.19832
21
0.762929
0
LINE
8
BLACK
6
CONTINUOUS
10
1.19832
20
0.762929
11
1.20516
21
0.764384
0
LINE
8
BLACK
6
CONTINUOUS
10
1.20516
20
0.764384
11
1.21216
21
0.764384
0
LINE
8
BLACK
6
CONTINUOUS
10
1.21216
20
0.764384
11
1.219
21
0.762929
0
LINE
8
BLACK
6
CONTINUOUS
10
0.323727
20
0.84285
11
0.330118
21
0.840005
0
LINE
8
BLACK
6
CONTINUOUS
10
0.330118
20
0.840005
11
0.335778
21
0.835893
0
LINE
8
BLACK
6
CONTINUOUS
10
0.335778
20
0.835893
11
0.340459
21
0.830694
0
LINE
8
BLACK
6
CONTINUOUS
10
0.340459
20
0.830694
11
0.343957
21
0.824635
0
LINE
8
BLACK
6
CONTINUOUS
10
0.343957
20
0.824635
11
0.346119
21
0.817981
0
LINE
8
BLACK
6
CONTINUOUS
10
0.346119
20
0.817981
11
0.34685
21
0.811024
0
LINE
8
BLACK
6
CONTINUOUS
10
0.34685
20
0.811024
11
0.346119
21
0.804066
0
LINE
8
BLACK
6
CONTINUOUS
10
0.346119
20
0.804066
11
0.343957
21
0.797412
0
LINE
8
BLACK
6
CONTINUOUS
10
0.343957
20
0.797412
11
0.340459
21
0.791354
0
LINE
8
BLACK
6
CONTINUOUS
10
0.340459
20
0.791354
11
0.335778
21
0.786155
0
LINE
8
BLACK
6
CONTINUOUS
10
0.335778
20
0.786155
11
0.330118
21
0.782042
0
LINE
8
BLACK
6
CONTINUOUS
10
0.330118
20
0.782042
11
0.323727
21
0.779197
0
LINE
8
BLACK
6
CONTINUOUS
10
0.323727
20
0.779197
11
0.316884
21
0.777742
0
LINE
8
BLACK
6
CONTINUOUS
10
0.316884
20
0.777742
11
0.309888
21
0.777742
0
LINE
8
BLACK
6
CONTINUOUS
10
0.309888
20
0.777742
11
0.303045
21
0.779197
0
LINE
8
BLACK
6
CONTINUOUS
10
0.303045
20
0.779197
11
0.296654
21
0.782042
0
LINE
8
BLACK
6
CONTINUOUS
10
0.296654
20
0.782042
11
0.290994
21
0.786155
0
LINE
8
BLACK
6
CONTINUOUS
10
0.290994
20
0.786155
11
0.286312
21
0.791354
0
LINE
8
BLACK
6
CONTINUOUS
10
0.286312
20
0.791354
11
0.282814
21
0.797412
0
LINE
8
BLACK
6
CONTINUOUS
10
0.282814
20
0.797412
11
0.280653
21
0.804066
0
LINE
8
BLACK
6
CONTINUOUS
10
0.280653
20
0.804066
11
0.279921
21
0.811024
0
LINE
8
BLACK
6
CONTINUOUS
10
0.279921
20
0.811024
11
0.280653
21
0.817981
0
LINE
8
BLACK
6
CONTINUOUS
10
0.280653
20
0.817981
11
0.282814
21
0.824635
0
LINE
8
BLACK
6
CONTINUOUS
10
0.282814
20
0.824635
11
0.286312
21
0.830694
0
LINE
8
BLACK
6
CONTINUOUS
10
0.286312
20
0.830694
11
0.290994
21
0.835893
0
LINE
8
BLACK
6
CONTINUOUS
10
0.290994
20
0.835893
11
0.296654
21
0.840005
0
LINE
8
BLACK
6
CONTINUOUS
10
0.296654
20
0.840005
11
0.303045
21
0.84285
0
LINE
8
BLACK
6
CONTINUOUS
10
0.303045
20
0.84285
11
0.309888
21
0.844305
0
LINE
8
BLACK
6
CONTINUOUS
10
0.309888
20
0.844305
11
0.316884
21
0.844305
0
LINE
8
BLACK
6
CONTINUOUS
10
0.316884
20
0.844305
11
0.323727
21
0.84285
0
LINE
8
BLACK
6
CONTINUOUS
10
0.423727
20
0.84285
11
0.430118
21
0.840005
0
LINE
8
BLACK
6
CONTINUOUS
10
0.430118
20
0.840005
11
0.435778
21
0.835893
0
LINE
8
BLACK
6
CONTINUOUS
10
0.435778
20
0.835893
11
0.440459
21
0.830694
0
LINE
8
BLACK
6
CONTINUOUS
10
0.440459
20
0.830694
11
0.443957
21
0.824635
0
LINE
8
BLACK
6
CONTINUOUS
10
0.443957
20
0.824635
11
0.446119
21
0.817981
0
LINE
8
BLACK
6
CONTINUOUS
10
0.446119
20
0.817981
11
0.44685
21
0.811024
0
LINE
8
BLACK
6
CONTINUOUS
10
0.44685
20
0.811024
11
0.446119
21
0.804066
0
LINE
8
BLACK
6
CONTINUOUS
10
0.446119
20
0.804066
11
0.443957
21
0.797412
0
LINE
8
BLACK
6
CONTINUOUS
10
0.443957
20
0.797412
11
0.440459
21
0.791354
0
LINE
8
BLACK
6
CONTINUOUS
10
0.440459
20
0.791354
11
0.435778
21
0.786155
0
LINE
8
BLACK
6
CONTINUOUS
10
0.435778
20
0.786155
11
0.430118
21
0.782042
0
LINE
8
BLACK
6
CONTINUOUS
10
0.430118
20
0.782042
11
0.423727
21
0.779197
0
LINE
8
BLACK
6
CONTINUOUS
10
0.423727
20
0.779197
11
0.416884
21
0.777742
0
LINE
8
BLACK
6
CONTINUOUS
10
0.416884
20
0.777742
11
0.409888
21
0.777742
0
LINE
8
BLACK
6
CONTINUOUS
10
0.409888
20
0.777742
11
0.403045
21
0.779197
0
LINE
8
BLACK
6
CONTINUOUS
10
0.403045
20
0.779197
11
0.396654
21
0.782042
0
LINE
8
BLACK
6
CONTINUOUS
10
0.396654
20
0.782042
11
0.390994
21
0.786155
0
LINE
8
BLACK
6
CONTINUOUS
10
0.390994
20
0.786155
11
0.386312
21
0.791354
0
LINE
8
BLACK
6
CONTINUOUS
10
0.386312
20
0.791354
11
0.382814
21
0.797412
0
LINE
8
BLACK
6
CONTINUOUS
10
0.382814
20
0.797412
11
0.380653
21
0.804066
0
LINE
8
BLACK
6
CONTINUOUS
10
0.380653
20
0.804066
11
0.379921
21
0.811024
0
LINE
8
BLACK
6
CONTINUOUS
10
0.379921
20
0.811024
11
0.380653
21
0.817981
0
LINE
8
BLACK
6
CONTINUOUS
10
0.380653
20
0.817981
11
0.382814
21
0.824635
0
LINE
8
BLACK
6
CONTINUOUS
10
0.382814
20
0.824635
11
0.386312
21
0.830694
0
LINE
8
BLACK
6
CONTINUOUS
10
0.386312
20
0.830694
11
0.390994
21
0.835893
0
LINE
8
BLACK
6
CONTINUOUS
10
0.390994
20
0.835893
11
0.396654
21
0.840005
0
LINE
8
BLACK
6
CONTINUOUS
10
0.396654
20
0.840005
11
0.403045
21
0.84285
0
LINE
8
BLACK
6
CONTINUOUS
10
0.403045
20
0.84285
11
0.409888
21
0.844305
0
LINE
8
BLACK
6
CONTINUOUS
10
0.409888
20
0.844305
11
0.416884
21
0.844305
0
LINE
8
BLACK
6
CONTINUOUS
10
0.416884
20
0.844305
11
0.423727
21
0.84285
0
LINE
8
BLACK
6
CONTINUOUS
10
1.219
20
0.862929
11
1.22539
21
0.860084
0
LINE
8
BLACK
6
CONTINUOUS
10
1.22539
20
0.860084
11
1.23105
21
0.855971
0
LINE
8
BLACK
6
CONTINUOUS
10
1.23105
20
0.855971
11
1.23573
21
0.850772
0
LINE
8
BLACK
6
CONTINUOUS
10
1.23573
20
0.850772
11
1.23923
21
0.844714
0
LINE
8
BLACK
6
CONTINUOUS
10
1.23923
20
0.844714
11
1.24139
21
0.83806
0
LINE
8
BLACK
6
CONTINUOUS
10
1.24139
20
0.83806
11
1.24213
21
0.831102
0
LINE
8
BLACK
6
CONTINUOUS
10
1.24213
20
0.831102
11
1.24139
21
0.824145
0
LINE
8
BLACK
6
CONTINUOUS
10
1.24139
20
0.824145
11
1.23923
21
0.817491
0
LINE
8
BLACK
6
CONTINUOUS
10
1.23923
20
0.817491
11
1.23573
21
0.811432
0
LINE
8
BLACK
6
CONTINUOUS
10
1.23573
20
0.811432
11
1.23105
21
0.806233
0
LINE
8
BLACK
6
CONTINUOUS
10
1.23105
20
0.806233
11
1.22539
21
0.802121
0
LINE
8
BLACK
6
CONTINUOUS
10
1.22539
20
0.802121
11
1.219
21
0.799276
0
LINE
8
BLACK
6
CONTINUOUS
10
1.219
20
0.799276
11
1.21216
21
0.797821
0
LINE
8
BLACK
6
CONTINUOUS
10
1.21216
20
0.797821
11
1.20516
21
0.797821
0
LINE
8
BLACK
6
CONTINUOUS
10
1.20516
20
0.797821
11
1.19832
21
0.799276
0
LINE
8
BLACK
6
CONTINUOUS
10
1.19832
20
0.799276
11
1.19193
21
0.802121
0
LINE
8
BLACK
6
CONTINUOUS
10
1.19193
20
0.802121
11
1.18627
21
0.806233
0
LINE
8
BLACK
6
CONTINUOUS
10
1.18627
20
0.806233
11
1.18159
21
0.811432
0
LINE
8
BLACK
6
CONTINUOUS
10
1.18159
20
0.811432
11
1.17809
21
0.817491
0
LINE
8
BLACK
6
CONTINUOUS
10
1.17809
20
0.817491
11
1.17593
21
0.824145
0
LINE
8
BLACK
6
CONTINUOUS
10
1.17593
20
0.824145
11
1.1752
21
0.831102
0
LINE
8
BLACK
6
CONTINUOUS
10
1.1752
20
0.831102
11
1.17593
21
0.83806
0
LINE
8
BLACK
6
CONTINUOUS
10
1.17593
20
0.83806
11
1.17809
21
0.844714
0
LINE
8
BLACK
6
CONTINUOUS
10
1.17809
20
0.844714
11
1.18159
21
0.850772
0
LINE
8
BLACK
6
CONTINUOUS
10
1.18159
20
0.850772
11
1.18627
21
0.855971
0
LINE
8
BLACK
6
CONTINUOUS
10
1.18627
20
0.855971
11
1.19193
21
0.860084
0
LINE
8
BLACK
6
CONTINUOUS
10
1.19193
20
0.860084
11
1.19832
21
0.862929
0
LINE
8
BLACK
6
CONTINUOUS
10
1.19832
20
0.862929
11
1.20516
21
0.864384
0
LINE
8
BLACK
6
CONTINUOUS
10
1.20516
20
0.864384
11
1.21216
21
0.864384
0
LINE
8
BLACK
6
CONTINUOUS
10
1.21216
20
0.864384
11
1.219
21
0.862929
0
LINE
8
BLACK
6
CONTINUOUS
10
0.34685
20
0.877559
11
0.279921
21
0.877559
0
LINE
8
BLACK
6
CONTINUOUS
10
0.279921
20
0.877559
11
0.279921
21
0.944488
0
LINE
8
BLACK
6
CONTINUOUS
10
0.279921
20
0.944488
11
0.34685
21
0.944488
0
LINE
8
BLACK
6
CONTINUOUS
10
0.34685
20
0.944488
11
0.34685
21
0.877559
0
LINE
8
BLACK
6
CONTINUOUS
10
0.423727
20
0.94285
11
0.430118
21
0.940005
0
LINE
8
BLACK
6
CONTINUOUS
10
0.430118
20
0.940005
11
0.435778
21
0.935893
0
LINE
8
BLACK
6
CONTINUOUS
10
0.435778
20
0.935893
11
0.440459
21
0.930694
0
LINE
8
BLACK
6
CONTINUOUS
10
0.440459
20
0.930694
11
0.443957
21
0.924635
0
LINE
8
BLACK
6
CONTINUOUS
10
0.443957
20
0.924635
11
0.446119
21
0.917981
0
LINE
8
BLACK
6
CONTINUOUS
10
0.446119
20
0.917981
11
0.44685
21
0.911024
0
LINE
8
BLACK
6
CONTINUOUS
10
0.44685
20
0.911024
11
0.446119
21
0.904066
0
LINE
8
BLACK
6
CONTINUOUS
10
0.446119
20
0.904066
11
0.443957
21
0.897412
0
LINE
8
BLACK
6
CONTINUOUS
10
0.443957
20
0.897412
11
0.440459
21
0.891354
0
LINE
8
BLACK
6
CONTINUOUS
10
0.440459
20
0.891354
11
0.435778
21
0.886155
0
LINE
8
BLACK
6
CONTINUOUS
10
0.435778
20
0.886155
11
0.430118
21
0.882042
0
LINE
8
BLACK
6
CONTINUOUS
10
0.430118
20
0.882042
11
0.423727
21
0.879197
0
LINE
8
BLACK
6
CONTINUOUS
10
0.423727
20
0.879197
11
0.416884
21
0.877742
0
LINE
8
BLACK
6
CONTINUOUS
10
0.416884
20
0.877742
11
0.409888
21
0.877742
0
LINE
8
BLACK
6
CONTINUOUS
10
0.409888
20
0.877742
11
0.403045
21
0.879197
0
LINE
8
BLACK
6
CONTINUOUS
10
0.403045
20
0.879197
11
0.396654
21
0.882042
0
LINE
8
BLACK
6
CONTINUOUS
10
0.396654
20
0.882042
11
0.390994
21
0.886155
0
LINE
8
BLACK
6
CONTINUOUS
10
0.390994
20
0.886155
11
0.386312
21
0.891354
0
LINE
8
BLACK
6
CONTINUOUS
10
0.386312
20
0.891354
11
0.382814
21
0.897412
0
LINE
8
BLACK
6
CONTINUOUS
10
0.382814
20
0.897412
11
0.380653
21
0.904066
0
LINE
8
BLACK
6
CONTINUOUS
10
0.380653
20
0.904066
11
0.379921
21
0.911024
0
LINE
8
BLACK
6
CONTINUOUS
10
0.379921
20
0.911024
11
0.380653
21
0.917981
0
LINE
8
BLACK
6
CONTINUOUS
10
0.380653
20
0.917981
11
0.382814
21
0.924635
0
LINE
8
BLACK
6
CONTINUOUS
10
0.382814
20
0.924635
11
0.386312
21
0.930694
0
LINE
8
BLACK
6
CONTINUOUS
10
0.386312
20
0.930694
11
0.390994
21
0.935893
0
LINE
8
BLACK
6
CONTINUOUS
10
0.390994
20
0.935893
11
0.396654
21
0.940005
0
LINE
8
BLACK
6
CONTINUOUS
10
0.396654
20
0.940005
11
0.403045
21
0.94285
0
LINE
8
BLACK
6
CONTINUOUS
10
0.403045
20
0.94285
11
0.409888
21
0.944305
0
LINE
8
BLACK
6
CONTINUOUS
10
0.409888
20
0.944305
11
0.416884
21
0.944305
0
LINE
8
BLACK
6
CONTINUOUS
10
0.416884
20
0.944305
11
0.423727
21
0.94285
0
LINE
8
BLACK
6
CONTINUOUS
10
1.24213
20
0.897638
11
1.1752
21
0.897638
0
LINE
8
BLACK
6
CONTINUOUS
10
1.1752
20
0.897638
11
1.1752
21
0.964567
0
LINE
8
BLACK
6
CONTINUOUS
10
1.1752
20
0.964567
11
1.24213
21
0.964567
0
LINE
8
BLACK
6
CONTINUOUS
10
1.24213
20
0.964567
11
1.24213
21
0.897638
0
LINE
8
BLACK
6
CONTINUOUS
10
0.42051
20
1.31632
11
0.433874
21
1.31315
0
LINE
8
BLACK
6
CONTINUOUS
10
0.433874
20
1.31315
11
0.446781
21
1.30845
0
LINE
8
BLACK
6
CONTINUOUS
10
0.446781
20
1.30845
11
0.459055
21
1.30229
0
LINE
8
BLACK
6
CONTINUOUS
10
0.459055
20
1.30229
11
0.470531
21
1.29474
0
LINE
8
BLACK
6
CONTINUOUS
10
0.470531
20
1.29474
11
0.481052
21
1.28591
0
LINE
8
BLACK
6
CONTINUOUS
10
0.481052
20
1.28591
11
0.490478
21
1.27592
0
LINE
8
BLACK
6
CONTINUOUS
10
0.490478
20
1.27592
11
0.49868
21
1.2649
0
LINE
8
BLACK
6
CONTINUOUS
10
0.49868
20
1.2649
11
0.505547
21
1.25301
0
LINE
8
BLACK
6
CONTINUOUS
10
0.505547
20
1.25301
11
0.510987
21
1.2404
0
LINE
8
BLACK
6
CONTINUOUS
10
0.510987
20
1.2404
11
0.514927
21
1.22724
0
LINE
8
BLACK
6
CONTINUOUS
10
0.514927
20
1.22724
11
0.517312
21
1.21371
0
LINE
8
BLACK
6
CONTINUOUS
10
0.517312
20
1.21371
11
0.51811
21
1.2
0
LINE
8
BLACK
6
CONTINUOUS
10
0.51811
20
1.2
11
0.517312
21
1.18629
0
LINE
8
BLACK
6
CONTINUOUS
10
0.517312
20
1.18629
11
0.514927
21
1.17276
0
LINE
8
BLACK
6
CONTINUOUS
10
0.514927
20
1.17276
11
0.510987
21
1.1596
0
LINE
8
BLACK
6
CONTINUOUS
10
0.510987
20
1.1596
11
0.505547
21
1.14699
0
LINE
8
BLACK
6
CONTINUOUS
10
0.505547
20
1.14699
11
0.49868
21
1.1351
0
LINE
8
BLACK
6
CONTINUOUS
10
0.49868
20
1.1351
11
0.490478
21
1.12408
0
LINE
8
BLACK
6
CONTINUOUS
10
0.490478
20
1.12408
11
0.481052
21
1.11409
0
LINE
8
BLACK
6
CONTINUOUS
10
0.481052
20
1.11409
11
0.470531
21
1.10526
0
LINE
8
BLACK
6
CONTINUOUS
10
0.470531
20
1.10526
11
0.459055
21
1.09771
0
LINE
8
BLACK
6
CONTINUOUS
10
0.459055
20
1.09771
11
0.446781
21
1.09155
0
LINE
8
BLACK
6
CONTINUOUS
10
0.446781
20
1.09155
11
0.433874
21
1.08685
0
LINE
8
BLACK
6
CONTINUOUS
10
0.433874
20
1.08685
11
0.42051
21
1.08368
0
LINE
8
BLACK
6
CONTINUOUS
10
0.42051
20
1.08368
11
0.406868
21
1.08209
0
LINE
8
BLACK
6
CONTINUOUS
10
0.406868
20
1.08209
11
0.393133
21
1.08209
0
LINE
8
BLACK
6
CONTINUOUS
10
0.393133
20
1.08209
11
0.37949
21
1.08368
0
LINE
8
BLACK
6
CONTINUOUS
10
0.37949
20
1.08368
11
0.366126
21
1.08685
0
LINE
8
BLACK
6
CONTINUOUS
10
0.366126
20
1.08685
11
0.353219
21
1.09155
0
LINE
8
BLACK
6
CONTINUOUS
10
0.353219
20
1.09155
11
0.340945
21
1.09771
0
LINE
8
BLACK
6
CONTINUOUS
10
0.340945
20
1.09771
11
0.329469
21
1.10526
0
LINE
8
BLACK
6
CONTINUOUS
10
0.329469
20
1.10526
11
0.318948
21
1.11409
0
LINE
8
BLACK
6
CONTINUOUS
10
0.318948
20
1.11409
11
0.309522
21
1.12408
0
LINE
8
BLACK
6
CONTINUOUS
10
0.309522
20
1.12408
11
0.30132
21
1.1351
0
LINE
8
BLACK
6
CONTINUOUS
10
0.30132
20
1.1351
11
0.294453
21
1.14699
0
LINE
8
BLACK
6
CONTINUOUS
10
0.294453
20
1.14699
11
0.289013
21
1.1596
0
LINE
8
BLACK
6
CONTINUOUS
10
0.289013
20
1.1596
11
0.285073
21
1.17276
0
LINE
8
BLACK
6
CONTINUOUS
10
0.285073
20
1.17276
11
0.282688
21
1.18629
0
LINE
8
BLACK
6
CONTINUOUS
10
0.282688
20
1.18629
11
0.28189
21
1.2
0
LINE
8
BLACK
6
CONTINUOUS
10
0.28189
20
1.2
11
0.282688
21
1.21371
0
LINE
8
BLACK
6
CONTINUOUS
10
0.282688
20
1.21371
11
0.285073
21
1.22724
0
LINE
8
BLACK
6
CONTINUOUS
10
0.285073
20
1.22724
11
0.289013
21
1.2404
0
LINE
8
BLACK
6
CONTINUOUS
10
0.289013
20
1.2404
11
0.294453
21
1.25301
0
LINE
8
BLACK
6
CONTINUOUS
10
0.294453
20
1.25301
11
0.30132
21
1.2649
0
LINE
8
BLACK
6
CONTINUOUS
10
0.30132
20
1.2649
11
0.309522
21
1.27592
0
LINE
8
BLACK
6
CONTINUOUS
10
0.309522
20
1.27592
11
0.318948
21
1.28591
0
LINE
8
BLACK
6
CONTINUOUS
10
0.318948
20
1.28591
11
0.329469
21
1.29474
0
LINE
8
BLACK
6
CONTINUOUS
10
0.329469
20
1.29474
11
0.340945
21
1.30229
0
LINE
8
BLACK
6
CONTINUOUS
10
0.340945
20
1.30229
11
0.353219
21
1.30845
0
LINE
8
BLACK
6
CONTINUOUS
10
0.353219
20
1.30845
11
0.366126
21
1.31315
0
LINE
8
BLACK
6
CONTINUOUS
10
0.366126
20
1.31315
11
0.37949
21
1.31632
0
LINE
8
BLACK
6
CONTINUOUS
10
0.37949
20
1.31632
11
0.393133
21
1.31791
0
LINE
8
BLACK
6
CONTINUOUS
10
0.393133
20
1.31791
11
0.406868
21
1.31791
0
LINE
8
BLACK
6
CONTINUOUS
10
0.406868
20
1.31791
11
0.42051
21
1.31632
0
LINE
8
BLACK
6
CONTINUOUS
10
1.22051
20
1.31632
11
1.23387
21
1.31315
0
LINE
8
BLACK
6
CONTINUOUS
10
1.23387
20
1.31315
11
1.24678
21
1.30845
0
LINE
8
BLACK
6
CONTINUOUS
10
1.24678
20
1.30845
11
1.25906
21
1.30229
0
LINE
8
BLACK
6
CONTINUOUS
10
1.25906
20
1.30229
11
1.27053
21
1.29474
0
LINE
8
BLACK
6
CONTINUOUS
10
1.27053
20
1.29474
11
1.28105
21
1.28591
0
LINE
8
BLACK
6
CONTINUOUS
10
1.28105
20
1.28591
11
1.29048
21
1.27592
0
LINE
8
BLACK
6
CONTINUOUS
10
1.29048
20
1.27592
11
1.29868
21
1.2649
0
LINE
8
BLACK
6
CONTINUOUS
10
1.29868
20
1.2649
11
1.30555
21
1.25301
0
LINE
8
BLACK
6
CONTINUOUS
10
1.30555
20
1.25301
11
1.31099
21
1.2404
0
LINE
8
BLACK
6
CONTINUOUS
10
1.31099
20
1.2404
11
1.31493
21
1.22724
0
LINE
8
BLACK
6
CONTINUOUS
10
1.31493
20
1.22724
11
1.31731
21
1.21371
0
LINE
8
BLACK
6
CONTINUOUS
10
1.31731
20
1.21371
11
1.31811
21
1.2
0
LINE
8
BLACK
6
CONTINUOUS
10
1.31811
20
1.2
11
1.31731
21
1.18629
0
LINE
8
BLACK
6
CONTINUOUS
10
1.31731
20
1.18629
11
1.31493
21
1.17276
0
LINE
8
BLACK
6
CONTINUOUS
10
1.31493
20
1.17276
11
1.31099
21
1.1596
0
LINE
8
BLACK
6
CONTINUOUS
10
1.31099
20
1.1596
11
1.30555
21
1.14699
0
LINE
8
BLACK
6
CONTINUOUS
10
1.30555
20
1.14699
11
1.29868
21
1.1351
0
LINE
8
BLACK
6
CONTINUOUS
10
1.29868
20
1.1351
11
1.29048
21
1.12408
0
LINE
8
BLACK
6
CONTINUOUS
10
1.29048
20
1.12408
11
1.28105
21
1.11409
0
LINE
8
BLACK
6
CONTINUOUS
10
1.28105
20
1.11409
11
1.27053
21
1.10526
0
LINE
8
BLACK
6
CONTINUOUS
10
1.27053
20
1.10526
11
1.25906
21
1.09771
0
LINE
8
BLACK
6
CONTINUOUS
10
1.25906
20
1.09771
11
1.24678
21
1.09155
0
LINE
8
BLACK
6
CONTINUOUS
10
1.24678
20
1.09155
11
1.23387
21
1.08685
0
LINE
8
BLACK
6
CONTINUOUS
10
1.23387
20
1.08685
11
1.22051
21
1.08368
0
LINE
8
BLACK
6
CONTINUOUS
10
1.22051
20
1.08368
11
1.20687
21
1.08209
0
LINE
8
BLACK
6
CONTINUOUS
10
1.20687
20
1.08209
11
1.19313
21
1.08209
0
LINE
8
BLACK
6
CONTINUOUS
10
1.19313
20
1.08209
11
1.17949
21
1.08368
0
LINE
8
BLACK
6
CONTINUOUS
10
1.17949
20
1.08368
11
1.16613
21
1.08685
0
LINE
8
BLACK
6
CONTINUOUS
10
1.16613
20
1.08685
11
1.15322
21
1.09155
0
LINE
8
BLACK
6
CONTINUOUS
10
1.15322
20
1.09155
11
1.14094
21
1.09771
0
LINE
8
BLACK
6
CONTINUOUS
10
1.14094
20
1.09771
11
1.12947
21
1.10526
0
LINE
8
BLACK
6
CONTINUOUS
10
1.12947
20
1.10526
11
1.11895
21
1.11409
0
LINE
8
BLACK
6
CONTINUOUS
10
1.11895
20
1.11409
11
1.10952
21
1.12408
0
LINE
8
BLACK
6
CONTINUOUS
10
1.10952
20
1.12408
11
1.10132
21
1.1351
0
LINE
8
BLACK
6
CONTINUOUS
10
1.10132
20
1.1351
11
1.09445
21
1.14699
0
LINE
8
BLACK
6
CONTINUOUS
10
1.09445
20
1.14699
11
1.08901
21
1.1596
0
LINE
8
BLACK
6
CONTINUOUS
10
1.08901
20
1.1596
11
1.08507
21
1.17276
0
LINE
8
BLACK
6
CONTINUOUS
10
1.08507
20
1.17276
11
1.08269
21
1.18629
0
LINE
8
BLACK
6
CONTINUOUS
10
1.08269
20
1.18629
11
1.08189
21
1.2
0
LINE
8
BLACK
6
CONTINUOUS
10
1.08189
20
1.2
11
1.08269
21
1.21371
0
LINE
8
BLACK
6
CONTINUOUS
10
1.08269
20
1.21371
11
1.08507
21
1.22724
0
LINE
8
BLACK
6
CONTINUOUS
10
1.08507
20
1.22724
11
1.08901
21
1.2404
0
LINE
8
BLACK
6
CONTINUOUS
10
1.08901
20
1.2404
11
1.09445
21
1.25301
0
LINE
8
BLACK
6
CONTINUOUS
10
1.09445
20
1.25301
11
1.10132
21
1.2649
0
LINE
8
BLACK
6
CONTINUOUS
10
1.10132
20
1.2649
11
1.10952
21
1.27592
0
LINE
8
BLACK
6
CONTINUOUS
10
1.10952
20
1.27592
11
1.11895
21
1.28591
0
LINE
8
BLACK
6
CONTINUOUS
10
1.11895
20
1.28591
11
1.12947
21
1.29474
0
LINE
8
BLACK
6
CONTINUOUS
10
1.12947
20
1.29474
11
1.14094
21
1.30229
0
LINE
8
BLACK
6
CONTINUOUS
10
1.14094
20
1.30229
11
1.15322
21
1.30845
0
LINE
8
BLACK
6
CONTINUOUS
10
1.15322
20
1.30845
11
1.16613
21
1.31315
0
LINE
8
BLACK
6
CONTINUOUS
10
1.16613
20
1.31315
11
1.17949
21
1.31632
0
LINE
8
BLACK
6
CONTINUOUS
10
1.17949
20
1.31632
11
1.19313
21
1.31791
0
LINE
8
BLACK
6
CONTINUOUS
10
1.19313
20
1.31791
11
1.20687
21
1.31791
0
LINE
8
BLACK
6
CONTINUOUS
10
1.20687
20
1.31791
11
1.22051
21
1.31632
0
LINE
8
BLACK
6
CONTINUOUS
10
0.736719
20
1.18872
11
0.74311
21
1.18587
0
LINE
8
BLACK
6
CONTINUOUS
10
0.74311
20
1.18587
11
0.74877
21
1.18176
0
LINE
8
BLACK
6
CONTINUOUS
10
0.74877
20
1.18176
11
0.753451
21
1.17656
0
LINE
8
BLACK
6
CONTINUOUS
10
0.753451
20
1.17656
11
0.756949
21
1.1705
0
LINE
8
BLACK
6
CONTINUOUS
10
0.756949
20
1.1705
11
0.759111
21
1.16385
0
LINE
8
BLACK
6
CONTINUOUS
10
0.759111
20
1.16385
11
0.759843
21
1.15689
0
LINE
8
BLACK
6
CONTINUOUS
10
0.759843
20
1.15689
11
0.759111
21
1.14993
0
LINE
8
BLACK
6
CONTINUOUS
10
0.759111
20
1.14993
11
0.756949
21
1.14328
0
LINE
8
BLACK
6
CONTINUOUS
10
0.756949
20
1.14328
11
0.753451
21
1.13722
0
LINE
8
BLACK
6
CONTINUOUS
10
0.753451
20
1.13722
11
0.74877
21
1.13202
0
LINE
8
BLACK
6
CONTINUOUS
10
0.74877
20
1.13202
11
0.74311
21
1.12791
0
LINE
8
BLACK
6
CONTINUOUS
10
0.74311
20
1.12791
11
0.736719
21
1.12506
0
LINE
8
BLACK
6
CONTINUOUS
10
0.736719
20
1.12506
11
0.729876
21
1.12361
0
LINE
8
BLACK
6
CONTINUOUS
10
0.729876
20
1.12361
11
0.72288
21
1.12361
0
LINE
8
BLACK
6
CONTINUOUS
10
0.72288
20
1.12361
11
0.716037
21
1.12506
0
LINE
8
BLACK
6
CONTINUOUS
10
0.716037
20
1.12506
11
0.709646
21
1.12791
0
LINE
8
BLACK
6
CONTINUOUS
10
0.709646
20
1.12791
11
0.703986
21
1.13202
0
LINE
8
BLACK
6
CONTINUOUS
10
0.703986
20
1.13202
11
0.699305
21
1.13722
0
LINE
8
BLACK
6
CONTINUOUS
10
0.699305
20
1.13722
11
0.695807
21
1.14328
0
LINE
8
BLACK
6
CONTINUOUS
10
0.695807
20
1.14328
11
0.693645
21
1.14993
0
LINE
8
BLACK
6
CONTINUOUS
10
0.693645
20
1.14993
11
0.692913
21
1.15689
0
LINE
8
BLACK
6
CONTINUOUS
10
0.692913
20
1.15689
11
0.693645
21
1.16385
0
LINE
8
BLACK
6
CONTINUOUS
10
0.693645
20
1.16385
11
0.695807
21
1.1705
0
LINE
8
BLACK
6
CONTINUOUS
10
0.695807
20
1.1705
11
0.699305
21
1.17656
0
LINE
8
BLACK
6
CONTINUOUS
10
0.699305
20
1.17656
11
0.703986
21
1.18176
0
LINE
8
BLACK
6
CONTINUOUS
10
0.703986
20
1.18176
11
0.709646
21
1.18587
0
LINE
8
BLACK
6
CONTINUOUS
10
0.709646
20
1.18587
11
0.716037
21
1.18872
0
LINE
8
BLACK
6
CONTINUOUS
10
0.716037
20
1.18872
11
0.72288
21
1.19017
0
LINE
8
BLACK
6
CONTINUOUS
10
0.72288
20
1.19017
11
0.729876
21
1.19017
0
LINE
8
BLACK
6
CONTINUOUS
10
0.729876
20
1.19017
11
0.736719
21
1.18872
0
LINE
8
BLACK
6
CONTINUOUS
10
0.836719
20
1.18872
11
0.84311
21
1.18587
0
LINE
8
BLACK
6
CONTINUOUS
10
0.84311
20
1.18587
11
0.84877
21
1.18176
0
LINE
8
BLACK
6
CONTINUOUS
10
0.84877
20
1.18176
11
0.853451
21
1.17656
0
LINE
8
BLACK
6
CONTINUOUS
10
0.853451
20
1.17656
11
0.856949
21
1.1705
0
LINE
8
BLACK
6
CONTINUOUS
10
0.856949
20
1.1705
11
0.859111
21
1.16385
0
LINE
8
BLACK
6
CONTINUOUS
10
0.859111
20
1.16385
11
0.859843
21
1.15689
0
LINE
8
BLACK
6
CONTINUOUS
10
0.859843
20
1.15689
11
0.859111
21
1.14993
0
LINE
8
BLACK
6
CONTINUOUS
10
0.859111
20
1.14993
11
0.856949
21
1.14328
0
LINE
8
BLACK
6
CONTINUOUS
10
0.856949
20
1.14328
11
0.853451
21
1.13722
0
LINE
8
BLACK
6
CONTINUOUS
10
0.853451
20
1.13722
11
0.84877
21
1.13202
0
LINE
8
BLACK
6
CONTINUOUS
10
0.84877
20
1.13202
11
0.84311
21
1.12791
0
LINE
8
BLACK
6
CONTINUOUS
10
0.84311
20
1.12791
11
0.836719
21
1.12506
0
LINE
8
BLACK
6
CONTINUOUS
10
0.836719
20
1.12506
11
0.829876
21
1.12361
0
LINE
8
BLACK
6
CONTINUOUS
10
0.829876
20
1.12361
11
0.82288
21
1.12361
0
LINE
8
BLACK
6
CONTINUOUS
10
0.82288
20
1.12361
11
0.816037
21
1.12506
0
LINE
8
BLACK
6
CONTINUOUS
10
0.816037
20
1.12506
11
0.809646
21
1.12791
0
LINE
8
BLACK
6
CONTINUOUS
10
0.809646
20
1.12791
11
0.803986
21
1.13202
0
LINE
8
BLACK
6
CONTINUOUS
10
0.803986
20
1.13202
11
0.799305
21
1.13722
0
LINE
8
BLACK
6
CONTINUOUS
10
0.799305
20
1.13722
11
0.795807
21
1.14328
0
LINE
8
BLACK
6
CONTINUOUS
10
0.795807
20
1.14328
11
0.793645
21
1.14993
0
LINE
8
BLACK
6
CONTINUOUS
10
0.793645
20
1.14993
11
0.792913
21
1.15689
0
LINE
8
BLACK
6
CONTINUOUS
10
0.792913
20
1.15689
11
0.793645
21
1.16385
0
LINE
8
BLACK
6
CONTINUOUS
10
0.793645
20
1.16385
11
0.795807
21
1.1705
0
LINE
8
BLACK
6
CONTINUOUS
10
0.795807
20
1.1705
11
0.799305
21
1.17656
0
LINE
8
BLACK
6
CONTINUOUS
10
0.799305
20
1.17656
11
0.803986
21
1.18176
0
LINE
8
BLACK
6
CONTINUOUS
10
0.803986
20
1.18176
11
0.809646
21
1.18587
0
LINE
8
BLACK
6
CONTINUOUS
10
0.809646
20
1.18587
11
0.816037
21
1.18872
0
LINE
8
BLACK
6
CONTINUOUS
10
0.816037
20
1.18872
11
0.82288
21
1.19017
0
LINE
8
BLACK
6
CONTINUOUS
10
0.82288
20
1.19017
11
0.829876
21
1.19017
0
LINE
8
BLACK
6
CONTINUOUS
10
0.829876
20
1.19017
11
0.836719
21
1.18872
0
LINE
8
BLACK
6
CONTINUOUS
10
0.759843
20
1.22343
11
0.692913
21
1.22343
0
LINE
8
BLACK
6
CONTINUOUS
10
0.692913
20
1.22343
11
0.692913
21
1.29035
0
LINE
8
BLACK
6
CONTINUOUS
10
0.692913
20
1.29035
11
0.759843
21
1.29035
0
LINE
8
BLACK
6
CONTINUOUS
10
0.759843
20
1.29035
11
0.759843
21
1.22343
0
LINE
8
BLACK
6
CONTINUOUS
10
0.859843
20
1.22343
11
0.792913
21
1.22343
0
LINE
8
BLACK
6
CONTINUOUS
10
0.792913
20
1.22343
11
0.792913
21
1.29035
0
LINE
8
BLACK
6
CONTINUOUS
10
0.792913
20
1.29035
11
0.859843
21
1.29035
0
LINE
8
BLACK
6
CONTINUOUS
10
0.859843
20
1.29035
11
0.859843
21
1.22343
  0
ENDSEC
  0
EOF
