  0
SECTION
  2
HEADER
  9
$ANGBASE
  50
0.0
  9
$ANGDIR
  70
1
  9
$MEASUREMENT
  70
0
  0
ENDSEC
  0
SECTION
  2
TABLES
  0
TABLE
  2
LTYPE
  70
4
  0
LTYPE
  5
40F
  2
CONTINUOUS
  70
0
  3
Solid line
  72
65
  73
0
  40
0.0
  0
LTYPE
  5
410
  2
DASHDOT
 70
0
  3
Dash Dot ____ _ ____ _
 72
65
 73
4
 40
2.0
 49
1.25
 49
-0.25
 49
0.25
 49
-0.25
  0
LTYPE
  5
411
  2
DASHED
 70
0
  3
Dashed __ __ __ __ __
 72
65
 73
2
 40
0.75
 49
0.5
 49
-0.25
  0
LTYPE
  5
43B
  2
DOTTED
 70
0
  3
Dotted .  .  .  .
 72
65
 73
2
 40
0.2
 49
0.0
 49
-0.2
  0
ENDTAB
  0
TABLE
  2
STYLE
  70
4
  0
STYLE
  2
KICAD
  70
0
  40
0
  41
1
  42
1
  50
0
  71
0
  3
isocp.shx
  0
STYLE
  2
KICADB
  70
0
  40
0
  41
1
  42
1
  50
0
  71
0
  3
isocp.shx
  0
STYLE
  2
KICADI
  70
0
  40
0
  41
1
  42
1
  50
15
  71
0
  3
isocp.shx
  0
STYLE
  2
KICADBI
  70
0
  40
0
  41
1
  42
1
  50
15
  71
0
  3
isocp.shx
  0
ENDTAB
  0
TABLE
  2
LAYER
  70
1
  0
LAYER
  2
BLACK
  70
0
  62
7
  6
CONTINUOUS
  0
ENDTAB
  0
ENDSEC
  0
SECTION
  2
ENTITIES
0
LINE
8
BLACK
6
CONTINUOUS
10
0.599268
20
0.600615
11
0.60772
21
0.598351
0
LINE
8
BLACK
6
CONTINUOUS
10
0.60772
20
0.598351
11
0.61565
21
0.594653
0
LINE
8
BLACK
6
CONTINUOUS
10
0.61565
20
0.594653
11
0.622817
21
0.589634
0
LINE
8
BLACK
6
CONTINUOUS
10
0.622817
20
0.589634
11
0.629004
21
0.583447
0
LINE
8
BLACK
6
CONTINUOUS
10
0.629004
20
0.583447
11
0.634023
21
0.57628
0
LINE
8
BLACK
6
CONTINUOUS
10
0.634023
20
0.57628
11
0.637721
21
0.568349
0
LINE
8
BLACK
6
CONTINUOUS
10
0.637721
20
0.568349
11
0.639985
21
0.559898
0
LINE
8
BLACK
6
CONTINUOUS
10
0.639985
20
0.559898
11
0.640748
21
0.551181
0
LINE
8
BLACK
6
CONTINUOUS
10
0.640748
20
0.551181
11
0.639985
21
0.542465
0
LINE
8
BLACK
6
CONTINUOUS
10
0.639985
20
0.542465
11
0.637721
21
0.534013
0
LINE
8
BLACK
6
CONTINUOUS
10
0.637721
20
0.534013
11
0.634023
21
0.526083
0
LINE
8
BLACK
6
CONTINUOUS
10
0.634023
20
0.526083
11
0.629004
21
0.518915
0
LINE
8
BLACK
6
CONTINUOUS
10
0.629004
20
0.518915
11
0.622817
21
0.512728
0
LINE
8
BLACK
6
CONTINUOUS
10
0.622817
20
0.512728
11
0.61565
21
0.507709
0
LINE
8
BLACK
6
CONTINUOUS
10
0.61565
20
0.507709
11
0.60772
21
0.504011
0
LINE
8
BLACK
6
CONTINUOUS
10
0.60772
20
0.504011
11
0.599268
21
0.501747
0
LINE
8
BLACK
6
CONTINUOUS
10
0.599268
20
0.501747
11
0.590551
21
0.500984
0
LINE
8
BLACK
6
CONTINUOUS
10
0.590551
20
0.500984
11
0.581835
21
0.501747
0
LINE
8
BLACK
6
CONTINUOUS
10
0.581835
20
0.501747
11
0.573383
21
0.504011
0
LINE
8
BLACK
6
CONTINUOUS
10
0.573383
20
0.504011
11
0.565453
21
0.507709
0
LINE
8
BLACK
6
CONTINUOUS
10
0.565453
20
0.507709
11
0.558285
21
0.512728
0
LINE
8
BLACK
6
CONTINUOUS
10
0.558285
20
0.512728
11
0.552098
21
0.518915
0
LINE
8
BLACK
6
CONTINUOUS
10
0.552098
20
0.518915
11
0.547079
21
0.526083
0
LINE
8
BLACK
6
CONTINUOUS
10
0.547079
20
0.526083
11
0.543382
21
0.534013
0
LINE
8
BLACK
6
CONTINUOUS
10
0.543382
20
0.534013
11
0.541117
21
0.542465
0
LINE
8
BLACK
6
CONTINUOUS
10
0.541117
20
0.542465
11
0.540354
21
0.551181
0
LINE
8
BLACK
6
CONTINUOUS
10
0.540354
20
0.551181
11
0.541117
21
0.559898
0
LINE
8
BLACK
6
CONTINUOUS
10
0.541117
20
0.559898
11
0.543382
21
0.568349
0
LINE
8
BLACK
6
CONTINUOUS
10
0.543382
20
0.568349
11
0.547079
21
0.57628
0
LINE
8
BLACK
6
CONTINUOUS
10
0.547079
20
0.57628
11
0.552098
21
0.583447
0
LINE
8
BLACK
6
CONTINUOUS
10
0.552098
20
0.583447
11
0.558285
21
0.589634
0
LINE
8
BLACK
6
CONTINUOUS
10
0.558285
20
0.589634
11
0.565453
21
0.594653
0
LINE
8
BLACK
6
CONTINUOUS
10
0.565453
20
0.594653
11
0.573383
21
0.598351
0
LINE
8
BLACK
6
CONTINUOUS
10
0.573383
20
0.598351
11
0.581835
21
0.600615
0
LINE
8
BLACK
6
CONTINUOUS
10
0.581835
20
0.600615
11
0.590551
21
0.601378
0
LINE
8
BLACK
6
CONTINUOUS
10
0.590551
20
0.601378
11
0.599268
21
0.600615
0
LINE
8
BLACK
6
CONTINUOUS
10
0.542874
20
0.542774
11
0.545058
21
0.534623
0
LINE
8
BLACK
6
CONTINUOUS
10
0.545058
20
0.534623
11
0.548625
21
0.526975
0
LINE
8
BLACK
6
CONTINUOUS
10
0.548625
20
0.526975
11
0.553465
21
0.520062
0
LINE
8
BLACK
6
CONTINUOUS
10
0.553465
20
0.520062
11
0.559432
21
0.514095
0
LINE
8
BLACK
6
CONTINUOUS
10
0.559432
20
0.514095
11
0.566345
21
0.509255
0
LINE
8
BLACK
6
CONTINUOUS
10
0.566345
20
0.509255
11
0.573993
21
0.505688
0
LINE
8
BLACK
6
CONTINUOUS
10
0.573993
20
0.505688
11
0.582144
21
0.503504
0
LINE
8
BLACK
6
CONTINUOUS
10
0.582144
20
0.503504
11
0.590551
21
0.502769
0
LINE
8
BLACK
6
CONTINUOUS
10
0.590551
20
0.502769
11
0.598958
21
0.503504
0
LINE
8
BLACK
6
CONTINUOUS
10
0.598958
20
0.503504
11
0.607109
21
0.505688
0
LINE
8
BLACK
6
CONTINUOUS
10
0.607109
20
0.505688
11
0.614757
21
0.509255
0
LINE
8
BLACK
6
CONTINUOUS
10
0.614757
20
0.509255
11
0.62167
21
0.514095
0
LINE
8
BLACK
6
CONTINUOUS
10
0.62167
20
0.514095
11
0.627637
21
0.520062
0
LINE
8
BLACK
6
CONTINUOUS
10
0.627637
20
0.520062
11
0.632478
21
0.526975
0
LINE
8
BLACK
6
CONTINUOUS
10
0.632478
20
0.526975
11
0.636044
21
0.534623
0
LINE
8
BLACK
6
CONTINUOUS
10
0.636044
20
0.534623
11
0.638228
21
0.542774
0
LINE
8
BLACK
6
CONTINUOUS
10
0.638228
20
0.542774
11
0.638964
21
0.551181
0
LINE
8
BLACK
6
CONTINUOUS
10
0.638964
20
0.551181
11
0.638228
21
0.559588
0
LINE
8
BLACK
6
CONTINUOUS
10
0.638228
20
0.559588
11
0.636044
21
0.567739
0
LINE
8
BLACK
6
CONTINUOUS
10
0.636044
20
0.567739
11
0.632478
21
0.575387
0
LINE
8
BLACK
6
CONTINUOUS
10
0.632478
20
0.575387
11
0.627637
21
0.5823
0
LINE
8
BLACK
6
CONTINUOUS
10
0.627637
20
0.5823
11
0.62167
21
0.588267
0
LINE
8
BLACK
6
CONTINUOUS
10
0.62167
20
0.588267
11
0.614757
21
0.593108
0
LINE
8
BLACK
6
CONTINUOUS
10
0.614757
20
0.593108
11
0.607109
21
0.596674
0
LINE
8
BLACK
6
CONTINUOUS
10
0.607109
20
0.596674
11
0.598958
21
0.598858
0
LINE
8
BLACK
6
CONTINUOUS
10
0.598958
20
0.598858
11
0.590551
21
0.599594
0
LINE
8
BLACK
6
CONTINUOUS
10
0.590551
20
0.599594
11
0.582144
21
0.598858
0
LINE
8
BLACK
6
CONTINUOUS
10
0.582144
20
0.598858
11
0.573993
21
0.596674
0
LINE
8
BLACK
6
CONTINUOUS
10
0.573993
20
0.596674
11
0.566345
21
0.593108
0
LINE
8
BLACK
6
CONTINUOUS
10
0.566345
20
0.593108
11
0.559432
21
0.588267
0
LINE
8
BLACK
6
CONTINUOUS
10
0.559432
20
0.588267
11
0.553465
21
0.5823
0
LINE
8
BLACK
6
CONTINUOUS
10
0.553465
20
0.5823
11
0.548625
21
0.575387
0
LINE
8
BLACK
6
CONTINUOUS
10
0.548625
20
0.575387
11
0.545058
21
0.567739
0
LINE
8
BLACK
6
CONTINUOUS
10
0.545058
20
0.567739
11
0.542874
21
0.559588
0
LINE
8
BLACK
6
CONTINUOUS
10
0.542874
20
0.559588
11
0.542139
21
0.551181
0
LINE
8
BLACK
6
CONTINUOUS
10
0.542139
20
0.551181
11
0.542874
21
0.542774
0
LINE
8
BLACK
6
CONTINUOUS
10
0.637795
20
0.882874
11
0.638491
21
0.882586
0
LINE
8
BLACK
6
CONTINUOUS
10
0.638491
20
0.882586
11
0.63878
21
0.88189
0
LINE
8
BLACK
6
CONTINUOUS
10
0.63878
20
0.88189
11
0.63878
21
0.606299
0
LINE
8
BLACK
6
CONTINUOUS
10
0.63878
20
0.606299
11
0.638491
21
0.605603
0
LINE
8
BLACK
6
CONTINUOUS
10
0.638491
20
0.605603
11
0.637795
21
0.605315
0
LINE
8
BLACK
6
CONTINUOUS
10
0.637795
20
0.605315
11
0.5
21
0.605315
0
LINE
8
BLACK
6
CONTINUOUS
10
0.5
20
0.605315
11
0.499304
21
0.605603
0
LINE
8
BLACK
6
CONTINUOUS
10
0.499304
20
0.605603
11
0.499016
21
0.606299
0
LINE
8
BLACK
6
CONTINUOUS
10
0.499016
20
0.606299
11
0.499016
21
0.88189
0
LINE
8
BLACK
6
CONTINUOUS
10
0.499016
20
0.88189
11
0.499304
21
0.882586
0
LINE
8
BLACK
6
CONTINUOUS
10
0.499304
20
0.882586
11
0.5
21
0.882874
0
LINE
8
BLACK
6
CONTINUOUS
10
0.5
20
0.882874
11
0.637795
21
0.882874
0
LINE
8
BLACK
6
CONTINUOUS
10
0.500984
20
0.880906
11
0.500984
21
0.607283
0
LINE
8
BLACK
6
CONTINUOUS
10
0.500984
20
0.607283
11
0.636811
21
0.607283
0
LINE
8
BLACK
6
CONTINUOUS
10
0.636811
20
0.607283
11
0.636811
21
0.880906
0
LINE
8
BLACK
6
CONTINUOUS
10
0.636811
20
0.880906
11
0.500984
21
0.880906
0
LINE
8
BLACK
6
CONTINUOUS
10
1.13386
20
0.81565
11
1.13455
21
0.815361
0
LINE
8
BLACK
6
CONTINUOUS
10
1.13455
20
0.815361
11
1.13484
21
0.814665
0
LINE
8
BLACK
6
CONTINUOUS
10
1.13484
20
0.814665
11
1.13484
21
0.682382
0
LINE
8
BLACK
6
CONTINUOUS
10
1.13484
20
0.682382
11
1.13455
21
0.681686
0
LINE
8
BLACK
6
CONTINUOUS
10
1.13455
20
0.681686
11
1.13386
21
0.681398
0
LINE
8
BLACK
6
CONTINUOUS
10
1.13386
20
0.681398
11
1.05906
21
0.681398
0
LINE
8
BLACK
6
CONTINUOUS
10
1.05906
20
0.681398
11
1.05836
21
0.681686
0
LINE
8
BLACK
6
CONTINUOUS
10
1.05836
20
0.681686
11
1.05807
21
0.682382
0
LINE
8
BLACK
6
CONTINUOUS
10
1.05807
20
0.682382
11
1.05807
21
0.814665
0
LINE
8
BLACK
6
CONTINUOUS
10
1.05807
20
0.814665
11
1.05836
21
0.815361
0
LINE
8
BLACK
6
CONTINUOUS
10
1.05836
20
0.815361
11
1.05906
21
0.81565
0
LINE
8
BLACK
6
CONTINUOUS
10
1.05906
20
0.81565
11
1.13386
21
0.81565
0
LINE
8
BLACK
6
CONTINUOUS
10
1.06004
20
0.813681
11
1.06004
21
0.683366
0
LINE
8
BLACK
6
CONTINUOUS
10
1.06004
20
0.683366
11
1.13287
21
0.683366
0
LINE
8
BLACK
6
CONTINUOUS
10
1.13287
20
0.683366
11
1.13287
21
0.813681
0
LINE
8
BLACK
6
CONTINUOUS
10
1.13287
20
0.813681
11
1.06004
21
0.813681
0
LINE
8
BLACK
6
CONTINUOUS
10
0.869213
20
0.824882
11
0.869909
21
0.824594
0
LINE
8
BLACK
6
CONTINUOUS
10
0.869909
20
0.824594
11
0.870197
21
0.823898
0
LINE
8
BLACK
6
CONTINUOUS
10
0.870197
20
0.823898
11
0.870197
21
0.717598
0
LINE
8
BLACK
6
CONTINUOUS
10
0.870197
20
0.717598
11
0.869909
21
0.716902
0
LINE
8
BLACK
6
CONTINUOUS
10
0.869909
20
0.716902
11
0.869213
21
0.716614
0
LINE
8
BLACK
6
CONTINUOUS
10
0.869213
20
0.716614
11
0.715669
21
0.716614
0
LINE
8
BLACK
6
CONTINUOUS
10
0.715669
20
0.716614
11
0.714973
21
0.716902
0
LINE
8
BLACK
6
CONTINUOUS
10
0.714973
20
0.716902
11
0.714685
21
0.717598
0
LINE
8
BLACK
6
CONTINUOUS
10
0.714685
20
0.717598
11
0.714685
21
0.823898
0
LINE
8
BLACK
6
CONTINUOUS
10
0.714685
20
0.823898
11
0.714973
21
0.824594
0
LINE
8
BLACK
6
CONTINUOUS
10
0.714973
20
0.824594
11
0.715669
21
0.824882
0
LINE
8
BLACK
6
CONTINUOUS
10
0.715669
20
0.824882
11
0.869213
21
0.824882
0
LINE
8
BLACK
6
CONTINUOUS
10
0.716654
20
0.822913
11
0.716654
21
0.718583
0
LINE
8
BLACK
6
CONTINUOUS
10
0.716654
20
0.718583
11
0.868228
21
0.718583
0
LINE
8
BLACK
6
CONTINUOUS
10
0.868228
20
0.718583
11
0.868228
21
0.822913
0
LINE
8
BLACK
6
CONTINUOUS
10
0.868228
20
0.822913
11
0.716654
21
0.822913
0
LINE
8
BLACK
6
CONTINUOUS
10
0.930315
20
0.968504
11
0.931011
21
0.968216
0
LINE
8
BLACK
6
CONTINUOUS
10
0.931011
20
0.968216
11
0.931299
21
0.96752
0
LINE
8
BLACK
6
CONTINUOUS
10
0.931299
20
0.96752
11
0.931299
21
0.833858
0
LINE
8
BLACK
6
CONTINUOUS
10
0.931299
20
0.833858
11
1.03937
21
0.833858
0
LINE
8
BLACK
6
CONTINUOUS
10
1.03937
20
0.833858
11
1.04007
21
0.83357
0
LINE
8
BLACK
6
CONTINUOUS
10
1.04007
20
0.83357
11
1.04035
21
0.832874
0
LINE
8
BLACK
6
CONTINUOUS
10
1.04035
20
0.832874
11
1.04035
21
0.755709
0
LINE
8
BLACK
6
CONTINUOUS
10
1.04035
20
0.755709
11
1.04007
21
0.755013
0
LINE
8
BLACK
6
CONTINUOUS
10
1.04007
20
0.755013
11
1.03937
21
0.754724
0
LINE
8
BLACK
6
CONTINUOUS
10
1.03937
20
0.754724
11
0.905512
21
0.754724
0
LINE
8
BLACK
6
CONTINUOUS
10
0.905512
20
0.754724
11
0.904816
21
0.755013
0
LINE
8
BLACK
6
CONTINUOUS
10
0.904816
20
0.755013
11
0.904528
21
0.755709
0
LINE
8
BLACK
6
CONTINUOUS
10
0.904528
20
0.755709
11
0.904528
21
0.832677
0
LINE
8
BLACK
6
CONTINUOUS
10
0.904528
20
0.832677
11
0.85315
21
0.832677
0
LINE
8
BLACK
6
CONTINUOUS
10
0.85315
20
0.832677
11
0.852454
21
0.832965
0
LINE
8
BLACK
6
CONTINUOUS
10
0.852454
20
0.832965
11
0.852165
21
0.833661
0
LINE
8
BLACK
6
CONTINUOUS
10
0.852165
20
0.833661
11
0.852165
21
0.96752
0
LINE
8
BLACK
6
CONTINUOUS
10
0.852165
20
0.96752
11
0.852454
21
0.968216
0
LINE
8
BLACK
6
CONTINUOUS
10
0.852454
20
0.968216
11
0.85315
21
0.968504
0
LINE
8
BLACK
6
CONTINUOUS
10
0.85315
20
0.968504
11
0.930315
21
0.968504
0
LINE
8
BLACK
6
CONTINUOUS
10
0.906496
20
0.83189
11
0.906496
21
0.756693
0
LINE
8
BLACK
6
CONTINUOUS
10
0.906496
20
0.756693
11
1.03839
21
0.756693
0
LINE
8
BLACK
6
CONTINUOUS
10
1.03839
20
0.756693
11
1.03839
21
0.83189
0
LINE
8
BLACK
6
CONTINUOUS
10
1.03839
20
0.83189
11
0.906496
21
0.83189
0
LINE
8
BLACK
6
CONTINUOUS
10
0.854134
20
0.966535
11
0.854134
21
0.834646
0
LINE
8
BLACK
6
CONTINUOUS
10
0.854134
20
0.834646
11
0.929331
21
0.834646
0
LINE
8
BLACK
6
CONTINUOUS
10
0.929331
20
0.834646
11
0.929331
21
0.966535
0
LINE
8
BLACK
6
CONTINUOUS
10
0.929331
20
0.966535
11
0.854134
21
0.966535
0
LINE
8
BLACK
6
CONTINUOUS
10
1.13386
20
0.954429
11
1.13455
21
0.954141
0
LINE
8
BLACK
6
CONTINUOUS
10
1.13455
20
0.954141
11
1.13484
21
0.953445
0
LINE
8
BLACK
6
CONTINUOUS
10
1.13484
20
0.953445
11
1.13484
21
0.821161
0
LINE
8
BLACK
6
CONTINUOUS
10
1.13484
20
0.821161
11
1.13455
21
0.820465
0
LINE
8
BLACK
6
CONTINUOUS
10
1.13455
20
0.820465
11
1.13386
21
0.820177
0
LINE
8
BLACK
6
CONTINUOUS
10
1.13386
20
0.820177
11
1.05906
21
0.820177
0
LINE
8
BLACK
6
CONTINUOUS
10
1.05906
20
0.820177
11
1.05836
21
0.820465
0
LINE
8
BLACK
6
CONTINUOUS
10
1.05836
20
0.820465
11
1.05807
21
0.821161
0
LINE
8
BLACK
6
CONTINUOUS
10
1.05807
20
0.821161
11
1.05807
21
0.953445
0
LINE
8
BLACK
6
CONTINUOUS
10
1.05807
20
0.953445
11
1.05836
21
0.954141
0
LINE
8
BLACK
6
CONTINUOUS
10
1.05836
20
0.954141
11
1.05906
21
0.954429
0
LINE
8
BLACK
6
CONTINUOUS
10
1.05906
20
0.954429
11
1.13386
21
0.954429
0
LINE
8
BLACK
6
CONTINUOUS
10
1.06004
20
0.952461
11
1.06004
21
0.822146
0
LINE
8
BLACK
6
CONTINUOUS
10
1.06004
20
0.822146
11
1.13287
21
0.822146
0
LINE
8
BLACK
6
CONTINUOUS
10
1.13287
20
0.822146
11
1.13287
21
0.952461
0
LINE
8
BLACK
6
CONTINUOUS
10
1.13287
20
0.952461
11
1.06004
21
0.952461
0
LINE
8
BLACK
6
CONTINUOUS
10
0.731024
20
0.963583
11
0.73172
21
0.963294
0
LINE
8
BLACK
6
CONTINUOUS
10
0.73172
20
0.963294
11
0.732008
21
0.962598
0
LINE
8
BLACK
6
CONTINUOUS
10
0.732008
20
0.962598
11
0.732008
21
0.82874
0
LINE
8
BLACK
6
CONTINUOUS
10
0.732008
20
0.82874
11
0.73172
21
0.828044
0
LINE
8
BLACK
6
CONTINUOUS
10
0.73172
20
0.828044
11
0.731024
21
0.827756
0
LINE
8
BLACK
6
CONTINUOUS
10
0.731024
20
0.827756
11
0.653858
21
0.827756
0
LINE
8
BLACK
6
CONTINUOUS
10
0.653858
20
0.827756
11
0.653162
21
0.828044
0
LINE
8
BLACK
6
CONTINUOUS
10
0.653162
20
0.828044
11
0.652874
21
0.82874
0
LINE
8
BLACK
6
CONTINUOUS
10
0.652874
20
0.82874
11
0.652874
21
0.82874
0
LINE
8
BLACK
6
CONTINUOUS
10
0.652874
20
0.82874
11
0.652874
21
0.962598
0
LINE
8
BLACK
6
CONTINUOUS
10
0.652874
20
0.962598
11
0.653162
21
0.963294
0
LINE
8
BLACK
6
CONTINUOUS
10
0.653162
20
0.963294
11
0.653858
21
0.963583
0
LINE
8
BLACK
6
CONTINUOUS
10
0.653858
20
0.963583
11
0.731024
21
0.963583
0
LINE
8
BLACK
6
CONTINUOUS
10
0.654843
20
0.961614
11
0.654843
21
0.829724
0
LINE
8
BLACK
6
CONTINUOUS
10
0.654843
20
0.829724
11
0.730039
21
0.829724
0
LINE
8
BLACK
6
CONTINUOUS
10
0.730039
20
0.829724
11
0.730039
21
0.961614
0
LINE
8
BLACK
6
CONTINUOUS
10
0.730039
20
0.961614
11
0.654843
21
0.961614
0
LINE
8
BLACK
6
CONTINUOUS
10
0.841654
20
0.929961
11
0.84235
21
0.929672
0
LINE
8
BLACK
6
CONTINUOUS
10
0.84235
20
0.929672
11
0.842638
21
0.928976
0
LINE
8
BLACK
6
CONTINUOUS
10
0.842638
20
0.928976
11
0.842638
21
0.83252
0
LINE
8
BLACK
6
CONTINUOUS
10
0.842638
20
0.83252
11
0.84235
21
0.831824
0
LINE
8
BLACK
6
CONTINUOUS
10
0.84235
20
0.831824
11
0.841654
21
0.831535
0
LINE
8
BLACK
6
CONTINUOUS
10
0.841654
20
0.831535
11
0.743228
21
0.831535
0
LINE
8
BLACK
6
CONTINUOUS
10
0.743228
20
0.831535
11
0.742532
21
0.831824
0
LINE
8
BLACK
6
CONTINUOUS
10
0.742532
20
0.831824
11
0.742244
21
0.83252
0
LINE
8
BLACK
6
CONTINUOUS
10
0.742244
20
0.83252
11
0.742244
21
0.83252
0
LINE
8
BLACK
6
CONTINUOUS
10
0.742244
20
0.83252
11
0.742244
21
0.928976
0
LINE
8
BLACK
6
CONTINUOUS
10
0.742244
20
0.928976
11
0.742532
21
0.929672
0
LINE
8
BLACK
6
CONTINUOUS
10
0.742532
20
0.929672
11
0.743228
21
0.929961
0
LINE
8
BLACK
6
CONTINUOUS
10
0.743228
20
0.929961
11
0.841654
21
0.929961
0
LINE
8
BLACK
6
CONTINUOUS
10
0.744213
20
0.927992
11
0.744213
21
0.833504
0
LINE
8
BLACK
6
CONTINUOUS
10
0.744213
20
0.833504
11
0.840669
21
0.833504
0
LINE
8
BLACK
6
CONTINUOUS
10
0.840669
20
0.833504
11
0.840669
21
0.927992
0
LINE
8
BLACK
6
CONTINUOUS
10
0.840669
20
0.927992
11
0.744213
21
0.927992
0
LINE
8
BLACK
6
CONTINUOUS
10
1.03937
20
0.969193
11
1.04007
21
0.968905
0
LINE
8
BLACK
6
CONTINUOUS
10
1.04007
20
0.968905
11
1.04035
21
0.968209
0
LINE
8
BLACK
6
CONTINUOUS
10
1.04035
20
0.968209
11
1.04035
21
0.835925
0
LINE
8
BLACK
6
CONTINUOUS
10
1.04035
20
0.835925
11
1.04007
21
0.835229
0
LINE
8
BLACK
6
CONTINUOUS
10
1.04007
20
0.835229
11
1.03937
21
0.834941
0
LINE
8
BLACK
6
CONTINUOUS
10
1.03937
20
0.834941
11
0.964567
21
0.834941
0
LINE
8
BLACK
6
CONTINUOUS
10
0.964567
20
0.834941
11
0.963871
21
0.835229
0
LINE
8
BLACK
6
CONTINUOUS
10
0.963871
20
0.835229
11
0.963583
21
0.835925
0
LINE
8
BLACK
6
CONTINUOUS
10
0.963583
20
0.835925
11
0.963583
21
0.968209
0
LINE
8
BLACK
6
CONTINUOUS
10
0.963583
20
0.968209
11
0.963871
21
0.968905
0
LINE
8
BLACK
6
CONTINUOUS
10
0.963871
20
0.968905
11
0.964567
21
0.969193
0
LINE
8
BLACK
6
CONTINUOUS
10
0.964567
20
0.969193
11
1.03937
21
0.969193
0
LINE
8
BLACK
6
CONTINUOUS
10
0.965551
20
0.967224
11
0.965551
21
0.836909
0
LINE
8
BLACK
6
CONTINUOUS
10
0.965551
20
0.836909
11
1.03839
21
0.836909
0
LINE
8
BLACK
6
CONTINUOUS
10
1.03839
20
0.836909
11
1.03839
21
0.967224
0
LINE
8
BLACK
6
CONTINUOUS
10
1.03839
20
0.967224
11
0.965551
21
0.967224
0
LINE
8
BLACK
6
CONTINUOUS
10
0.675886
20
1.07382
11
0.676582
21
1.07353
0
LINE
8
BLACK
6
CONTINUOUS
10
0.676582
20
1.07353
11
0.67687
21
1.07283
0
LINE
8
BLACK
6
CONTINUOUS
10
0.67687
20
1.07283
11
0.67687
21
0.998031
0
LINE
8
BLACK
6
CONTINUOUS
10
0.67687
20
0.998031
11
0.676582
21
0.997336
0
LINE
8
BLACK
6
CONTINUOUS
10
0.676582
20
0.997336
11
0.675886
21
0.997047
0
LINE
8
BLACK
6
CONTINUOUS
10
0.675886
20
0.997047
11
0.543602
21
0.997047
0
LINE
8
BLACK
6
CONTINUOUS
10
0.543602
20
0.997047
11
0.542906
21
0.997336
0
LINE
8
BLACK
6
CONTINUOUS
10
0.542906
20
0.997336
11
0.542618
21
0.998031
0
LINE
8
BLACK
6
CONTINUOUS
10
0.542618
20
0.998031
11
0.542618
21
1.07283
0
LINE
8
BLACK
6
CONTINUOUS
10
0.542618
20
1.07283
11
0.542906
21
1.07353
0
LINE
8
BLACK
6
CONTINUOUS
10
0.542906
20
1.07353
11
0.543602
21
1.07382
0
LINE
8
BLACK
6
CONTINUOUS
10
0.543602
20
1.07382
11
0.675886
21
1.07382
0
LINE
8
BLACK
6
CONTINUOUS
10
0.544587
20
1.07185
11
0.544587
21
0.999016
0
LINE
8
BLACK
6
CONTINUOUS
10
0.544587
20
0.999016
11
0.674902
21
0.999016
0
LINE
8
BLACK
6
CONTINUOUS
10
0.674902
20
0.999016
11
0.674902
21
1.07185
0
LINE
8
BLACK
6
CONTINUOUS
10
0.674902
20
1.07185
11
0.544587
21
1.07185
0
LINE
8
BLACK
6
CONTINUOUS
10
0.813681
20
1.07382
11
0.814377
21
1.07353
0
LINE
8
BLACK
6
CONTINUOUS
10
0.814377
20
1.07353
11
0.814665
21
1.07283
0
LINE
8
BLACK
6
CONTINUOUS
10
0.814665
20
1.07283
11
0.814665
21
0.998031
0
LINE
8
BLACK
6
CONTINUOUS
10
0.814665
20
0.998031
11
0.814377
21
0.997336
0
LINE
8
BLACK
6
CONTINUOUS
10
0.814377
20
0.997336
11
0.813681
21
0.997047
0
LINE
8
BLACK
6
CONTINUOUS
10
0.813681
20
0.997047
11
0.681398
21
0.997047
0
LINE
8
BLACK
6
CONTINUOUS
10
0.681398
20
0.997047
11
0.680702
21
0.997336
0
LINE
8
BLACK
6
CONTINUOUS
10
0.680702
20
0.997336
11
0.680413
21
0.998031
0
LINE
8
BLACK
6
CONTINUOUS
10
0.680413
20
0.998031
11
0.680413
21
1.07283
0
LINE
8
BLACK
6
CONTINUOUS
10
0.680413
20
1.07283
11
0.680702
21
1.07353
0
LINE
8
BLACK
6
CONTINUOUS
10
0.680702
20
1.07353
11
0.681398
21
1.07382
0
LINE
8
BLACK
6
CONTINUOUS
10
0.681398
20
1.07382
11
0.813681
21
1.07382
0
LINE
8
BLACK
6
CONTINUOUS
10
0.682382
20
1.07185
11
0.682382
21
0.999016
0
LINE
8
BLACK
6
CONTINUOUS
10
0.682382
20
0.999016
11
0.812697
21
0.999016
0
LINE
8
BLACK
6
CONTINUOUS
10
0.812697
20
0.999016
11
0.812697
21
1.07185
0
LINE
8
BLACK
6
CONTINUOUS
10
0.812697
20
1.07185
11
0.682382
21
1.07185
0
LINE
8
BLACK
6
CONTINUOUS
10
0.992969
20
1.1518
11
1.00142
21
1.14953
0
LINE
8
BLACK
6
CONTINUOUS
10
1.00142
20
1.14953
11
1.00935
21
1.14583
0
LINE
8
BLACK
6
CONTINUOUS
10
1.00935
20
1.14583
11
1.01652
21
1.14082
0
LINE
8
BLACK
6
CONTINUOUS
10
1.01652
20
1.14082
11
1.0227
21
1.13463
0
LINE
8
BLACK
6
CONTINUOUS
10
1.0227
20
1.13463
11
1.02772
21
1.12746
0
LINE
8
BLACK
6
CONTINUOUS
10
1.02772
20
1.12746
11
1.03142
21
1.11953
0
LINE
8
BLACK
6
CONTINUOUS
10
1.03142
20
1.11953
11
1.03369
21
1.11108
0
LINE
8
BLACK
6
CONTINUOUS
10
1.03369
20
1.11108
11
1.03445
21
1.10236
0
LINE
8
BLACK
6
CONTINUOUS
10
1.03445
20
1.10236
11
1.03369
21
1.09365
0
LINE
8
BLACK
6
CONTINUOUS
10
1.03369
20
1.09365
11
1.03142
21
1.08519
0
LINE
8
BLACK
6
CONTINUOUS
10
1.03142
20
1.08519
11
1.02772
21
1.07726
0
LINE
8
BLACK
6
CONTINUOUS
10
1.02772
20
1.07726
11
1.0227
21
1.0701
0
LINE
8
BLACK
6
CONTINUOUS
10
1.0227
20
1.0701
11
1.01652
21
1.06391
0
LINE
8
BLACK
6
CONTINUOUS
10
1.01652
20
1.06391
11
1.00935
21
1.05889
0
LINE
8
BLACK
6
CONTINUOUS
10
1.00935
20
1.05889
11
1.00142
21
1.05519
0
LINE
8
BLACK
6
CONTINUOUS
10
1.00142
20
1.05519
11
0.992969
21
1.05293
0
LINE
8
BLACK
6
CONTINUOUS
10
0.992969
20
1.05293
11
0.984252
21
1.05217
0
LINE
8
BLACK
6
CONTINUOUS
10
0.984252
20
1.05217
11
0.975535
21
1.05293
0
LINE
8
BLACK
6
CONTINUOUS
10
0.975535
20
1.05293
11
0.967084
21
1.05519
0
LINE
8
BLACK
6
CONTINUOUS
10
0.967084
20
1.05519
11
0.959154
21
1.05889
0
LINE
8
BLACK
6
CONTINUOUS
10
0.959154
20
1.05889
11
0.951986
21
1.06391
0
LINE
8
BLACK
6
CONTINUOUS
10
0.951986
20
1.06391
11
0.945799
21
1.0701
0
LINE
8
BLACK
6
CONTINUOUS
10
0.945799
20
1.0701
11
0.94078
21
1.07726
0
LINE
8
BLACK
6
CONTINUOUS
10
0.94078
20
1.07726
11
0.937082
21
1.08519
0
LINE
8
BLACK
6
CONTINUOUS
10
0.937082
20
1.08519
11
0.934818
21
1.09365
0
LINE
8
BLACK
6
CONTINUOUS
10
0.934818
20
1.09365
11
0.934055
21
1.10236
0
LINE
8
BLACK
6
CONTINUOUS
10
0.934055
20
1.10236
11
0.934818
21
1.11108
0
LINE
8
BLACK
6
CONTINUOUS
10
0.934818
20
1.11108
11
0.937082
21
1.11953
0
LINE
8
BLACK
6
CONTINUOUS
10
0.937082
20
1.11953
11
0.94078
21
1.12746
0
LINE
8
BLACK
6
CONTINUOUS
10
0.94078
20
1.12746
11
0.945799
21
1.13463
0
LINE
8
BLACK
6
CONTINUOUS
10
0.945799
20
1.13463
11
0.951986
21
1.14082
0
LINE
8
BLACK
6
CONTINUOUS
10
0.951986
20
1.14082
11
0.959154
21
1.14583
0
LINE
8
BLACK
6
CONTINUOUS
10
0.959154
20
1.14583
11
0.967084
21
1.14953
0
LINE
8
BLACK
6
CONTINUOUS
10
0.967084
20
1.14953
11
0.975535
21
1.1518
0
LINE
8
BLACK
6
CONTINUOUS
10
0.975535
20
1.1518
11
0.984252
21
1.15256
0
LINE
8
BLACK
6
CONTINUOUS
10
0.984252
20
1.15256
11
0.992969
21
1.1518
0
LINE
8
BLACK
6
CONTINUOUS
10
0.936575
20
1.09396
11
0.938759
21
1.0858
0
LINE
8
BLACK
6
CONTINUOUS
10
0.938759
20
1.0858
11
0.942325
21
1.07816
0
LINE
8
BLACK
6
CONTINUOUS
10
0.942325
20
1.07816
11
0.947166
21
1.07124
0
LINE
8
BLACK
6
CONTINUOUS
10
0.947166
20
1.07124
11
0.953133
21
1.06528
0
LINE
8
BLACK
6
CONTINUOUS
10
0.953133
20
1.06528
11
0.960046
21
1.06044
0
LINE
8
BLACK
6
CONTINUOUS
10
0.960046
20
1.06044
11
0.967694
21
1.05687
0
LINE
8
BLACK
6
CONTINUOUS
10
0.967694
20
1.05687
11
0.975845
21
1.05469
0
LINE
8
BLACK
6
CONTINUOUS
10
0.975845
20
1.05469
11
0.984252
21
1.05395
0
LINE
8
BLACK
6
CONTINUOUS
10
0.984252
20
1.05395
11
0.992659
21
1.05469
0
LINE
8
BLACK
6
CONTINUOUS
10
0.992659
20
1.05469
11
1.00081
21
1.05687
0
LINE
8
BLACK
6
CONTINUOUS
10
1.00081
20
1.05687
11
1.00846
21
1.06044
0
LINE
8
BLACK
6
CONTINUOUS
10
1.00846
20
1.06044
11
1.01537
21
1.06528
0
LINE
8
BLACK
6
CONTINUOUS
10
1.01537
20
1.06528
11
1.02134
21
1.07124
0
LINE
8
BLACK
6
CONTINUOUS
10
1.02134
20
1.07124
11
1.02618
21
1.07816
0
LINE
8
BLACK
6
CONTINUOUS
10
1.02618
20
1.07816
11
1.02974
21
1.0858
0
LINE
8
BLACK
6
CONTINUOUS
10
1.02974
20
1.0858
11
1.03193
21
1.09396
0
LINE
8
BLACK
6
CONTINUOUS
10
1.03193
20
1.09396
11
1.03266
21
1.10236
0
LINE
8
BLACK
6
CONTINUOUS
10
1.03266
20
1.10236
11
1.03193
21
1.11077
0
LINE
8
BLACK
6
CONTINUOUS
10
1.03193
20
1.11077
11
1.02974
21
1.11892
0
LINE
8
BLACK
6
CONTINUOUS
10
1.02974
20
1.11892
11
1.02618
21
1.12657
0
LINE
8
BLACK
6
CONTINUOUS
10
1.02618
20
1.12657
11
1.02134
21
1.13348
0
LINE
8
BLACK
6
CONTINUOUS
10
1.02134
20
1.13348
11
1.01537
21
1.13945
0
LINE
8
BLACK
6
CONTINUOUS
10
1.01537
20
1.13945
11
1.00846
21
1.14429
0
LINE
8
BLACK
6
CONTINUOUS
10
1.00846
20
1.14429
11
1.00081
21
1.14786
0
LINE
8
BLACK
6
CONTINUOUS
10
1.00081
20
1.14786
11
0.992659
21
1.15004
0
LINE
8
BLACK
6
CONTINUOUS
10
0.992659
20
1.15004
11
0.984252
21
1.15077
0
LINE
8
BLACK
6
CONTINUOUS
10
0.984252
20
1.15077
11
0.975845
21
1.15004
0
LINE
8
BLACK
6
CONTINUOUS
10
0.975845
20
1.15004
11
0.967694
21
1.14786
0
LINE
8
BLACK
6
CONTINUOUS
10
0.967694
20
1.14786
11
0.960046
21
1.14429
0
LINE
8
BLACK
6
CONTINUOUS
10
0.960046
20
1.14429
11
0.953133
21
1.13945
0
LINE
8
BLACK
6
CONTINUOUS
10
0.953133
20
1.13945
11
0.947166
21
1.13348
0
LINE
8
BLACK
6
CONTINUOUS
10
0.947166
20
1.13348
11
0.942325
21
1.12657
0
LINE
8
BLACK
6
CONTINUOUS
10
0.942325
20
1.12657
11
0.938759
21
1.11892
0
LINE
8
BLACK
6
CONTINUOUS
10
0.938759
20
1.11892
11
0.936575
21
1.11077
0
LINE
8
BLACK
6
CONTINUOUS
10
0.936575
20
1.11077
11
0.935839
21
1.10236
0
LINE
8
BLACK
6
CONTINUOUS
10
0.935839
20
1.10236
11
0.936575
21
1.09396
  0
ENDSEC
  0
EOF
