  0
SECTION
  2
HEADER
  9
$ANGBASE
  50
0.0
  9
$ANGDIR
  70
1
  9
$MEASUREMENT
  70
0
  0
ENDSEC
  0
SECTION
  2
TABLES
  0
TABLE
  2
LTYPE
  70
4
  0
LTYPE
  5
40F
  2
CONTINUOUS
  70
0
  3
Solid line
  72
65
  73
0
  40
0.0
  0
LTYPE
  5
410
  2
DASHDOT
 70
0
  3
Dash Dot ____ _ ____ _
 72
65
 73
4
 40
2.0
 49
1.25
 49
-0.25
 49
0.25
 49
-0.25
  0
LTYPE
  5
411
  2
DASHED
 70
0
  3
Dashed __ __ __ __ __
 72
65
 73
2
 40
0.75
 49
0.5
 49
-0.25
  0
LTYPE
  5
43B
  2
DOTTED
 70
0
  3
Dotted .  .  .  .
 72
65
 73
2
 40
0.2
 49
0.0
 49
-0.2
  0
ENDTAB
  0
TABLE
  2
STYLE
  70
4
  0
STYLE
  2
KICAD
  70
0
  40
0
  41
1
  42
1
  50
0
  71
0
  3
isocp.shx
  0
STYLE
  2
KICADB
  70
0
  40
0
  41
1
  42
1
  50
0
  71
0
  3
isocp.shx
  0
STYLE
  2
KICADI
  70
0
  40
0
  41
1
  42
1
  50
15
  71
0
  3
isocp.shx
  0
STYLE
  2
KICADBI
  70
0
  40
0
  41
1
  42
1
  50
15
  71
0
  3
isocp.shx
  0
ENDTAB
  0
TABLE
  2
LAYER
  70
1
  0
LAYER
  2
BLACK
  70
0
  62
7
  6
CONTINUOUS
  0
ENDTAB
  0
ENDSEC
  0
SECTION
  2
ENTITIES
0
LINE
8
BLACK
6
CONTINUOUS
10
1.09287
20
0.673845
11
1.09442
21
0.672546
0
LINE
8
BLACK
6
CONTINUOUS
10
1.09442
20
0.672546
11
1.09477
21
0.670557
0
LINE
8
BLACK
6
CONTINUOUS
10
1.09477
20
0.670557
11
1.09376
21
0.668808
0
LINE
8
BLACK
6
CONTINUOUS
10
1.09376
20
0.668808
11
1.09186
21
0.668117
0
LINE
8
BLACK
6
CONTINUOUS
10
1.09186
20
0.668117
11
1.074
21
0.668117
0
LINE
8
BLACK
6
CONTINUOUS
10
1.074
20
0.668117
11
1.08284
21
0.658016
0
LINE
8
BLACK
6
CONTINUOUS
10
1.08284
20
0.658016
11
1.08307
21
0.657637
0
LINE
8
BLACK
6
CONTINUOUS
10
1.08307
20
0.657637
11
1.08317
21
0.657548
0
LINE
8
BLACK
6
CONTINUOUS
10
1.08317
20
0.657548
11
1.08319
21
0.657428
0
LINE
8
BLACK
6
CONTINUOUS
10
1.08319
20
0.657428
11
1.08337
21
0.657139
0
LINE
8
BLACK
6
CONTINUOUS
10
1.08337
20
0.657139
11
1.08338
21
0.656343
0
LINE
8
BLACK
6
CONTINUOUS
10
1.08338
20
0.656343
11
1.08352
21
0.655559
0
LINE
8
BLACK
6
CONTINUOUS
10
1.08352
20
0.655559
11
1.0834
21
0.655355
0
LINE
8
BLACK
6
CONTINUOUS
10
1.0834
20
0.655355
11
1.08341
21
0.65512
0
LINE
8
BLACK
6
CONTINUOUS
10
1.08341
20
0.65512
11
1.08291
21
0.654499
0
LINE
8
BLACK
6
CONTINUOUS
10
1.08291
20
0.654499
11
1.08251
21
0.65381
0
LINE
8
BLACK
6
CONTINUOUS
10
1.08251
20
0.65381
11
1.08229
21
0.65373
0
LINE
8
BLACK
6
CONTINUOUS
10
1.08229
20
0.65373
11
1.08214
21
0.653546
0
LINE
8
BLACK
6
CONTINUOUS
10
1.08214
20
0.653546
11
1.08136
21
0.653392
0
LINE
8
BLACK
6
CONTINUOUS
10
1.08136
20
0.653392
11
1.08061
21
0.653119
0
LINE
8
BLACK
6
CONTINUOUS
10
1.08061
20
0.653119
11
1.07569
21
0.653119
0
LINE
8
BLACK
6
CONTINUOUS
10
1.07569
20
0.653119
11
1.07299
21
0.651771
0
LINE
8
BLACK
6
CONTINUOUS
10
1.07299
20
0.651771
11
1.07179
21
0.650573
0
LINE
8
BLACK
6
CONTINUOUS
10
1.07179
20
0.650573
11
1.07044
21
0.647876
0
LINE
8
BLACK
6
CONTINUOUS
10
1.07044
20
0.647876
11
1.07044
21
0.639896
0
LINE
8
BLACK
6
CONTINUOUS
10
1.07044
20
0.639896
11
1.07179
21
0.637199
0
LINE
8
BLACK
6
CONTINUOUS
10
1.07179
20
0.637199
11
1.07299
21
0.636002
0
LINE
8
BLACK
6
CONTINUOUS
10
1.07299
20
0.636002
11
1.07569
21
0.634653
0
LINE
8
BLACK
6
CONTINUOUS
10
1.07569
20
0.634653
11
1.08554
21
0.634653
0
LINE
8
BLACK
6
CONTINUOUS
10
1.08554
20
0.634653
11
1.08824
21
0.636002
0
LINE
8
BLACK
6
CONTINUOUS
10
1.08824
20
0.636002
11
1.08978
21
0.637537
0
LINE
8
BLACK
6
CONTINUOUS
10
1.08978
20
0.637537
11
1.09062
21
0.638126
0
LINE
8
BLACK
6
CONTINUOUS
10
1.09062
20
0.638126
11
1.09263
21
0.638302
0
LINE
8
BLACK
6
CONTINUOUS
10
1.09263
20
0.638302
11
1.09428
21
0.637143
0
LINE
8
BLACK
6
CONTINUOUS
10
1.09428
20
0.637143
11
1.0948
21
0.635192
0
LINE
8
BLACK
6
CONTINUOUS
10
1.0948
20
0.635192
11
1.09395
21
0.633362
0
LINE
8
BLACK
6
CONTINUOUS
10
1.09395
20
0.633362
11
1.09208
21
0.631487
0
LINE
8
BLACK
6
CONTINUOUS
10
1.09208
20
0.631487
11
1.09135
21
0.630981
0
LINE
8
BLACK
6
CONTINUOUS
10
1.09135
20
0.630981
11
1.09131
21
0.630934
0
LINE
8
BLACK
6
CONTINUOUS
10
1.09131
20
0.630934
11
1.08756
21
0.629059
0
LINE
8
BLACK
6
CONTINUOUS
10
1.08756
20
0.629059
11
1.08658
21
0.628767
0
LINE
8
BLACK
6
CONTINUOUS
10
1.08658
20
0.628767
11
1.08641
21
0.628808
0
LINE
8
BLACK
6
CONTINUOUS
10
1.08641
20
0.628808
11
1.08624
21
0.628747
0
LINE
8
BLACK
6
CONTINUOUS
10
1.08624
20
0.628747
11
1.07499
21
0.628747
0
LINE
8
BLACK
6
CONTINUOUS
10
1.07499
20
0.628747
11
1.07398
21
0.628925
0
LINE
8
BLACK
6
CONTINUOUS
10
1.07398
20
0.628925
11
1.07385
21
0.629039
0
LINE
8
BLACK
6
CONTINUOUS
10
1.07385
20
0.629039
11
1.07367
21
0.629059
0
LINE
8
BLACK
6
CONTINUOUS
10
1.07367
20
0.629059
11
1.06992
21
0.630934
0
LINE
8
BLACK
6
CONTINUOUS
10
1.06992
20
0.630934
11
1.06921
21
0.63146
0
LINE
8
BLACK
6
CONTINUOUS
10
1.06921
20
0.63146
11
1.06915
21
0.631487
0
LINE
8
BLACK
6
CONTINUOUS
10
1.06915
20
0.631487
11
1.06728
21
0.633362
0
LINE
8
BLACK
6
CONTINUOUS
10
1.06728
20
0.633362
11
1.06677
21
0.634085
0
LINE
8
BLACK
6
CONTINUOUS
10
1.06677
20
0.634085
11
1.06673
21
0.634129
0
LINE
8
BLACK
6
CONTINUOUS
10
1.06673
20
0.634129
11
1.06485
21
0.637879
0
LINE
8
BLACK
6
CONTINUOUS
10
1.06485
20
0.637879
11
1.06456
21
0.638862
0
LINE
8
BLACK
6
CONTINUOUS
10
1.06456
20
0.638862
11
1.0646
21
0.639033
0
LINE
8
BLACK
6
CONTINUOUS
10
1.0646
20
0.639033
11
1.06454
21
0.639199
0
LINE
8
BLACK
6
CONTINUOUS
10
1.06454
20
0.639199
11
1.06454
21
0.648573
0
LINE
8
BLACK
6
CONTINUOUS
10
1.06454
20
0.648573
11
1.06472
21
0.649583
0
LINE
8
BLACK
6
CONTINUOUS
10
1.06472
20
0.649583
11
1.06483
21
0.649718
0
LINE
8
BLACK
6
CONTINUOUS
10
1.06483
20
0.649718
11
1.06485
21
0.649893
0
LINE
8
BLACK
6
CONTINUOUS
10
1.06485
20
0.649893
11
1.06673
21
0.653643
0
LINE
8
BLACK
6
CONTINUOUS
10
1.06673
20
0.653643
11
1.06725
21
0.654352
0
LINE
8
BLACK
6
CONTINUOUS
10
1.06725
20
0.654352
11
1.06728
21
0.65441
0
LINE
8
BLACK
6
CONTINUOUS
10
1.06728
20
0.65441
11
1.06915
21
0.656285
0
LINE
8
BLACK
6
CONTINUOUS
10
1.06915
20
0.656285
11
1.06988
21
0.656791
0
LINE
8
BLACK
6
CONTINUOUS
10
1.06988
20
0.656791
11
1.06992
21
0.656838
0
LINE
8
BLACK
6
CONTINUOUS
10
1.06992
20
0.656838
11
1.07367
21
0.658713
0
LINE
8
BLACK
6
CONTINUOUS
10
1.07367
20
0.658713
11
1.07423
21
0.658881
0
LINE
8
BLACK
6
CONTINUOUS
10
1.07423
20
0.658881
11
1.06527
21
0.669126
0
LINE
8
BLACK
6
CONTINUOUS
10
1.06527
20
0.669126
11
1.06504
21
0.669506
0
LINE
8
BLACK
6
CONTINUOUS
10
1.06504
20
0.669506
11
1.06493
21
0.669594
0
LINE
8
BLACK
6
CONTINUOUS
10
1.06493
20
0.669594
11
1.06491
21
0.669714
0
LINE
8
BLACK
6
CONTINUOUS
10
1.06491
20
0.669714
11
1.06474
21
0.670003
0
LINE
8
BLACK
6
CONTINUOUS
10
1.06474
20
0.670003
11
1.06472
21
0.670799
0
LINE
8
BLACK
6
CONTINUOUS
10
1.06472
20
0.670799
11
1.06458
21
0.671583
0
LINE
8
BLACK
6
CONTINUOUS
10
1.06458
20
0.671583
11
1.0647
21
0.671787
0
LINE
8
BLACK
6
CONTINUOUS
10
1.0647
20
0.671787
11
1.0647
21
0.672022
0
LINE
8
BLACK
6
CONTINUOUS
10
1.0647
20
0.672022
11
1.0652
21
0.672643
0
LINE
8
BLACK
6
CONTINUOUS
10
1.0652
20
0.672643
11
1.06559
21
0.673332
0
LINE
8
BLACK
6
CONTINUOUS
10
1.06559
20
0.673332
11
1.06581
21
0.673413
0
LINE
8
BLACK
6
CONTINUOUS
10
1.06581
20
0.673413
11
1.06596
21
0.673596
0
LINE
8
BLACK
6
CONTINUOUS
10
1.06596
20
0.673596
11
1.06674
21
0.673751
0
LINE
8
BLACK
6
CONTINUOUS
10
1.06674
20
0.673751
11
1.06749
21
0.674023
0
LINE
8
BLACK
6
CONTINUOUS
10
1.06749
20
0.674023
11
1.09186
21
0.674023
0
LINE
8
BLACK
6
CONTINUOUS
10
1.09186
20
0.674023
11
1.09287
21
0.673845
0
LINE
8
BLACK
6
CONTINUOUS
10
1.12787
20
0.673955
11
1.128
21
0.673978
0
LINE
8
BLACK
6
CONTINUOUS
10
1.128
20
0.673978
11
1.12811
21
0.673912
0
LINE
8
BLACK
6
CONTINUOUS
10
1.12811
20
0.673912
11
1.12849
21
0.673845
0
LINE
8
BLACK
6
CONTINUOUS
10
1.12849
20
0.673845
11
1.12908
21
0.673352
0
LINE
8
BLACK
6
CONTINUOUS
10
1.12908
20
0.673352
11
1.12975
21
0.672968
0
LINE
8
BLACK
6
CONTINUOUS
10
1.12975
20
0.672968
11
1.12984
21
0.672718
0
LINE
8
BLACK
6
CONTINUOUS
10
1.12984
20
0.672718
11
1.13004
21
0.672546
0
LINE
8
BLACK
6
CONTINUOUS
10
1.13004
20
0.672546
11
1.13017
21
0.671791
0
LINE
8
BLACK
6
CONTINUOUS
10
1.13017
20
0.671791
11
1.13044
21
0.67107
0
LINE
8
BLACK
6
CONTINUOUS
10
1.13044
20
0.67107
11
1.13044
21
0.6317
0
LINE
8
BLACK
6
CONTINUOUS
10
1.13044
20
0.6317
11
1.13026
21
0.63069
0
LINE
8
BLACK
6
CONTINUOUS
10
1.13026
20
0.63069
11
1.12896
21
0.629143
0
LINE
8
BLACK
6
CONTINUOUS
10
1.12896
20
0.629143
11
1.12697
21
0.628792
0
LINE
8
BLACK
6
CONTINUOUS
10
1.12697
20
0.628792
11
1.12522
21
0.629802
0
LINE
8
BLACK
6
CONTINUOUS
10
1.12522
20
0.629802
11
1.12453
21
0.6317
0
LINE
8
BLACK
6
CONTINUOUS
10
1.12453
20
0.6317
11
1.12453
21
0.647495
0
LINE
8
BLACK
6
CONTINUOUS
10
1.12453
20
0.647495
11
1.11965
21
0.647495
0
LINE
8
BLACK
6
CONTINUOUS
10
1.11965
20
0.647495
11
1.10741
21
0.630007
0
LINE
8
BLACK
6
CONTINUOUS
10
1.10741
20
0.630007
11
1.10668
21
0.629281
0
LINE
8
BLACK
6
CONTINUOUS
10
1.10668
20
0.629281
11
1.10473
21
0.628758
0
LINE
8
BLACK
6
CONTINUOUS
10
1.10473
20
0.628758
11
1.1029
21
0.629612
0
LINE
8
BLACK
6
CONTINUOUS
10
1.1029
20
0.629612
11
1.10205
21
0.631442
0
LINE
8
BLACK
6
CONTINUOUS
10
1.10205
20
0.631442
11
1.10257
21
0.633393
0
LINE
8
BLACK
6
CONTINUOUS
10
1.10257
20
0.633393
11
1.11244
21
0.647502
0
LINE
8
BLACK
6
CONTINUOUS
10
1.11244
20
0.647502
11
1.11148
21
0.647673
0
LINE
8
BLACK
6
CONTINUOUS
10
1.11148
20
0.647673
11
1.11134
21
0.647787
0
LINE
8
BLACK
6
CONTINUOUS
10
1.11134
20
0.647787
11
1.11117
21
0.647807
0
LINE
8
BLACK
6
CONTINUOUS
10
1.11117
20
0.647807
11
1.10742
21
0.649681
0
LINE
8
BLACK
6
CONTINUOUS
10
1.10742
20
0.649681
11
1.10671
21
0.650207
0
LINE
8
BLACK
6
CONTINUOUS
10
1.10671
20
0.650207
11
1.10665
21
0.650235
0
LINE
8
BLACK
6
CONTINUOUS
10
1.10665
20
0.650235
11
1.10477
21
0.652109
0
LINE
8
BLACK
6
CONTINUOUS
10
1.10477
20
0.652109
11
1.10427
21
0.652832
0
LINE
8
BLACK
6
CONTINUOUS
10
1.10427
20
0.652832
11
1.10422
21
0.652877
0
LINE
8
BLACK
6
CONTINUOUS
10
1.10422
20
0.652877
11
1.10235
21
0.656626
0
LINE
8
BLACK
6
CONTINUOUS
10
1.10235
20
0.656626
11
1.10205
21
0.657609
0
LINE
8
BLACK
6
CONTINUOUS
10
1.10205
20
0.657609
11
1.10209
21
0.657781
0
LINE
8
BLACK
6
CONTINUOUS
10
1.10209
20
0.657781
11
1.10203
21
0.657947
0
LINE
8
BLACK
6
CONTINUOUS
10
1.10203
20
0.657947
11
1.10203
21
0.663571
0
LINE
8
BLACK
6
CONTINUOUS
10
1.10203
20
0.663571
11
1.10221
21
0.664581
0
LINE
8
BLACK
6
CONTINUOUS
10
1.10221
20
0.664581
11
1.10233
21
0.664716
0
LINE
8
BLACK
6
CONTINUOUS
10
1.10233
20
0.664716
11
1.10235
21
0.664892
0
LINE
8
BLACK
6
CONTINUOUS
10
1.10235
20
0.664892
11
1.10422
21
0.668641
0
LINE
8
BLACK
6
CONTINUOUS
10
1.10422
20
0.668641
11
1.10475
21
0.66935
0
LINE
8
BLACK
6
CONTINUOUS
10
1.10475
20
0.66935
11
1.10477
21
0.669409
0
LINE
8
BLACK
6
CONTINUOUS
10
1.10477
20
0.669409
11
1.10665
21
0.671283
0
LINE
8
BLACK
6
CONTINUOUS
10
1.10665
20
0.671283
11
1.10737
21
0.67179
0
LINE
8
BLACK
6
CONTINUOUS
10
1.10737
20
0.67179
11
1.10742
21
0.671836
0
LINE
8
BLACK
6
CONTINUOUS
10
1.10742
20
0.671836
11
1.11117
21
0.673711
0
LINE
8
BLACK
6
CONTINUOUS
10
1.11117
20
0.673711
11
1.11215
21
0.674004
0
LINE
8
BLACK
6
CONTINUOUS
10
1.11215
20
0.674004
11
1.11232
21
0.673963
0
LINE
8
BLACK
6
CONTINUOUS
10
1.11232
20
0.673963
11
1.11249
21
0.674023
0
LINE
8
BLACK
6
CONTINUOUS
10
1.11249
20
0.674023
11
1.12748
21
0.674023
0
LINE
8
BLACK
6
CONTINUOUS
10
1.12748
20
0.674023
11
1.12787
21
0.673955
0
LINE
8
BLACK
6
CONTINUOUS
10
1.11049
20
0.666769
11
1.10929
21
0.665572
0
LINE
8
BLACK
6
CONTINUOUS
10
1.10929
20
0.665572
11
1.10794
21
0.662874
0
LINE
8
BLACK
6
CONTINUOUS
10
1.10794
20
0.662874
11
1.10794
21
0.658644
0
LINE
8
BLACK
6
CONTINUOUS
10
1.10794
20
0.658644
11
1.10929
21
0.655946
0
LINE
8
BLACK
6
CONTINUOUS
10
1.10929
20
0.655946
11
1.11049
21
0.654749
0
LINE
8
BLACK
6
CONTINUOUS
10
1.11049
20
0.654749
11
1.11318
21
0.6534
0
LINE
8
BLACK
6
CONTINUOUS
10
1.11318
20
0.6534
11
1.12453
21
0.6534
0
LINE
8
BLACK
6
CONTINUOUS
10
1.12453
20
0.6534
11
1.12453
21
0.668117
0
LINE
8
BLACK
6
CONTINUOUS
10
1.12453
20
0.668117
11
1.11318
21
0.668117
0
LINE
8
BLACK
6
CONTINUOUS
10
1.11318
20
0.668117
11
1.11049
21
0.666769
0
LINE
8
BLACK
6
CONTINUOUS
10
0.633858
20
0.884646
11
0.635529
21
0.883954
0
LINE
8
BLACK
6
CONTINUOUS
10
0.635529
20
0.883954
11
0.63622
21
0.882283
0
LINE
8
BLACK
6
CONTINUOUS
10
0.63622
20
0.882283
11
0.63622
21
0.665354
0
LINE
8
BLACK
6
CONTINUOUS
10
0.63622
20
0.665354
11
0.635529
21
0.663684
0
LINE
8
BLACK
6
CONTINUOUS
10
0.635529
20
0.663684
11
0.633858
21
0.662992
0
LINE
8
BLACK
6
CONTINUOUS
10
0.633858
20
0.662992
11
0.632188
21
0.663684
0
LINE
8
BLACK
6
CONTINUOUS
10
0.632188
20
0.663684
11
0.631496
21
0.665354
0
LINE
8
BLACK
6
CONTINUOUS
10
0.631496
20
0.665354
11
0.631496
21
0.879921
0
LINE
8
BLACK
6
CONTINUOUS
10
0.631496
20
0.879921
11
0.506299
21
0.879921
0
LINE
8
BLACK
6
CONTINUOUS
10
0.506299
20
0.879921
11
0.506299
21
0.665354
0
LINE
8
BLACK
6
CONTINUOUS
10
0.506299
20
0.665354
11
0.505607
21
0.663684
0
LINE
8
BLACK
6
CONTINUOUS
10
0.505607
20
0.663684
11
0.503937
21
0.662992
0
LINE
8
BLACK
6
CONTINUOUS
10
0.503937
20
0.662992
11
0.502267
21
0.663684
0
LINE
8
BLACK
6
CONTINUOUS
10
0.502267
20
0.663684
11
0.501575
21
0.665354
0
LINE
8
BLACK
6
CONTINUOUS
10
0.501575
20
0.665354
11
0.501575
21
0.882283
0
LINE
8
BLACK
6
CONTINUOUS
10
0.501575
20
0.882283
11
0.502267
21
0.883954
0
LINE
8
BLACK
6
CONTINUOUS
10
0.502267
20
0.883954
11
0.503937
21
0.884646
0
LINE
8
BLACK
6
CONTINUOUS
10
0.503937
20
0.884646
11
0.633858
21
0.884646
0
LINE
8
BLACK
6
CONTINUOUS
10
0.777165
20
0.714326
11
0.777335
21
0.714337
0
LINE
8
BLACK
6
CONTINUOUS
10
0.777335
20
0.714337
11
0.778025
21
0.71383
0
LINE
8
BLACK
6
CONTINUOUS
10
0.778025
20
0.71383
11
0.778767
21
0.713401
0
LINE
8
BLACK
6
CONTINUOUS
10
0.778767
20
0.713401
11
0.778825
21
0.713242
0
LINE
8
BLACK
6
CONTINUOUS
10
0.778825
20
0.713242
11
0.778962
21
0.713141
0
LINE
8
BLACK
6
CONTINUOUS
10
0.778962
20
0.713141
11
0.78255
21
0.70776
0
LINE
8
BLACK
6
CONTINUOUS
10
0.78255
20
0.70776
11
0.785754
21
0.704556
0
LINE
8
BLACK
6
CONTINUOUS
10
0.785754
20
0.704556
11
0.789074
21
0.702896
0
LINE
8
BLACK
6
CONTINUOUS
10
0.789074
20
0.702896
11
0.789898
21
0.702285
0
LINE
8
BLACK
6
CONTINUOUS
10
0.789898
20
0.702285
11
0.790701
21
0.700432
0
LINE
8
BLACK
6
CONTINUOUS
10
0.790701
20
0.700432
11
0.790126
21
0.698496
0
LINE
8
BLACK
6
CONTINUOUS
10
0.790126
20
0.698496
11
0.78844
21
0.697383
0
LINE
8
BLACK
6
CONTINUOUS
10
0.78844
20
0.697383
11
0.786433
21
0.697614
0
LINE
8
BLACK
6
CONTINUOUS
10
0.786433
20
0.697614
11
0.782684
21
0.699488
0
LINE
8
BLACK
6
CONTINUOUS
10
0.782684
20
0.699488
11
0.781975
21
0.700014
0
LINE
8
BLACK
6
CONTINUOUS
10
0.781975
20
0.700014
11
0.781917
21
0.700041
0
LINE
8
BLACK
6
CONTINUOUS
10
0.781917
20
0.700041
11
0.779458
21
0.7025
0
LINE
8
BLACK
6
CONTINUOUS
10
0.779458
20
0.7025
11
0.779458
21
0.675086
0
LINE
8
BLACK
6
CONTINUOUS
10
0.779458
20
0.675086
11
0.787754
21
0.675086
0
LINE
8
BLACK
6
CONTINUOUS
10
0.787754
20
0.675086
11
0.788764
21
0.674908
0
LINE
8
BLACK
6
CONTINUOUS
10
0.788764
20
0.674908
11
0.790311
21
0.673609
0
LINE
8
BLACK
6
CONTINUOUS
10
0.790311
20
0.673609
11
0.790662
21
0.67162
0
LINE
8
BLACK
6
CONTINUOUS
10
0.790662
20
0.67162
11
0.789652
21
0.669871
0
LINE
8
BLACK
6
CONTINUOUS
10
0.789652
20
0.669871
11
0.787754
21
0.66918
0
LINE
8
BLACK
6
CONTINUOUS
10
0.787754
20
0.66918
11
0.765257
21
0.66918
0
LINE
8
BLACK
6
CONTINUOUS
10
0.765257
20
0.66918
11
0.764247
21
0.669358
0
LINE
8
BLACK
6
CONTINUOUS
10
0.764247
20
0.669358
11
0.7627
21
0.670657
0
LINE
8
BLACK
6
CONTINUOUS
10
0.7627
20
0.670657
11
0.762349
21
0.672646
0
LINE
8
BLACK
6
CONTINUOUS
10
0.762349
20
0.672646
11
0.763359
21
0.674395
0
LINE
8
BLACK
6
CONTINUOUS
10
0.763359
20
0.674395
11
0.765257
21
0.675086
0
LINE
8
BLACK
6
CONTINUOUS
10
0.765257
20
0.675086
11
0.773553
21
0.675086
0
LINE
8
BLACK
6
CONTINUOUS
10
0.773553
20
0.675086
11
0.773553
21
0.711503
0
LINE
8
BLACK
6
CONTINUOUS
10
0.773553
20
0.711503
11
0.773731
21
0.712513
0
LINE
8
BLACK
6
CONTINUOUS
10
0.773731
20
0.712513
11
0.77384
21
0.712643
0
LINE
8
BLACK
6
CONTINUOUS
10
0.77384
20
0.712643
11
0.773859
21
0.712812
0
LINE
8
BLACK
6
CONTINUOUS
10
0.773859
20
0.712812
11
0.774478
21
0.713404
0
LINE
8
BLACK
6
CONTINUOUS
10
0.774478
20
0.713404
11
0.775029
21
0.71406
0
LINE
8
BLACK
6
CONTINUOUS
10
0.775029
20
0.71406
11
0.775196
21
0.71409
0
LINE
8
BLACK
6
CONTINUOUS
10
0.775196
20
0.71409
11
0.775319
21
0.714207
0
LINE
8
BLACK
6
CONTINUOUS
10
0.775319
20
0.714207
11
0.776174
21
0.714262
0
LINE
8
BLACK
6
CONTINUOUS
10
0.776174
20
0.714262
11
0.777018
21
0.714411
0
LINE
8
BLACK
6
CONTINUOUS
10
0.777018
20
0.714411
11
0.777165
21
0.714326
0
LINE
8
BLACK
6
CONTINUOUS
10
0.820012
20
0.713401
11
0.820703
21
0.711503
0
LINE
8
BLACK
6
CONTINUOUS
10
0.820703
20
0.711503
11
0.820703
21
0.672133
0
LINE
8
BLACK
6
CONTINUOUS
10
0.820703
20
0.672133
11
0.820635
21
0.67175
0
LINE
8
BLACK
6
CONTINUOUS
10
0.820635
20
0.67175
11
0.820658
21
0.67162
0
LINE
8
BLACK
6
CONTINUOUS
10
0.820658
20
0.67162
11
0.820593
21
0.671507
0
LINE
8
BLACK
6
CONTINUOUS
10
0.820593
20
0.671507
11
0.820525
21
0.671123
0
LINE
8
BLACK
6
CONTINUOUS
10
0.820525
20
0.671123
11
0.820032
21
0.670536
0
LINE
8
BLACK
6
CONTINUOUS
10
0.820032
20
0.670536
11
0.819648
21
0.669871
0
LINE
8
BLACK
6
CONTINUOUS
10
0.819648
20
0.669871
11
0.819398
21
0.66978
0
LINE
8
BLACK
6
CONTINUOUS
10
0.819398
20
0.66978
11
0.819227
21
0.669576
0
LINE
8
BLACK
6
CONTINUOUS
10
0.819227
20
0.669576
11
0.818471
21
0.669443
0
LINE
8
BLACK
6
CONTINUOUS
10
0.818471
20
0.669443
11
0.81775
21
0.66918
0
LINE
8
BLACK
6
CONTINUOUS
10
0.81775
20
0.66918
11
0.799003
21
0.66918
0
LINE
8
BLACK
6
CONTINUOUS
10
0.799003
20
0.66918
11
0.797993
21
0.669358
0
LINE
8
BLACK
6
CONTINUOUS
10
0.797993
20
0.669358
11
0.796445
21
0.670657
0
LINE
8
BLACK
6
CONTINUOUS
10
0.796445
20
0.670657
11
0.796095
21
0.672646
0
LINE
8
BLACK
6
CONTINUOUS
10
0.796095
20
0.672646
11
0.797105
21
0.674395
0
LINE
8
BLACK
6
CONTINUOUS
10
0.797105
20
0.674395
11
0.799003
21
0.675086
0
LINE
8
BLACK
6
CONTINUOUS
10
0.799003
20
0.675086
11
0.814797
21
0.675086
0
LINE
8
BLACK
6
CONTINUOUS
10
0.814797
20
0.675086
11
0.814797
21
0.711503
0
LINE
8
BLACK
6
CONTINUOUS
10
0.814797
20
0.711503
11
0.814976
21
0.712513
0
LINE
8
BLACK
6
CONTINUOUS
10
0.814976
20
0.712513
11
0.816274
21
0.71406
0
LINE
8
BLACK
6
CONTINUOUS
10
0.816274
20
0.71406
11
0.818263
21
0.714411
0
LINE
8
BLACK
6
CONTINUOUS
10
0.818263
20
0.714411
11
0.820012
21
0.713401
0
LINE
8
BLACK
6
CONTINUOUS
10
0.966889
20
0.752388
11
0.968436
21
0.75109
0
LINE
8
BLACK
6
CONTINUOUS
10
0.968436
20
0.75109
11
0.968787
21
0.749101
0
LINE
8
BLACK
6
CONTINUOUS
10
0.968787
20
0.749101
11
0.967777
21
0.747351
0
LINE
8
BLACK
6
CONTINUOUS
10
0.967777
20
0.747351
11
0.965879
21
0.746661
0
LINE
8
BLACK
6
CONTINUOUS
10
0.965879
20
0.746661
11
0.948014
21
0.746661
0
LINE
8
BLACK
6
CONTINUOUS
10
0.948014
20
0.746661
11
0.956853
21
0.73656
0
LINE
8
BLACK
6
CONTINUOUS
10
0.956853
20
0.73656
11
0.957083
21
0.73618
0
LINE
8
BLACK
6
CONTINUOUS
10
0.957083
20
0.73618
11
0.957188
21
0.736092
0
LINE
8
BLACK
6
CONTINUOUS
10
0.957188
20
0.736092
11
0.957209
21
0.735971
0
LINE
8
BLACK
6
CONTINUOUS
10
0.957209
20
0.735971
11
0.957384
21
0.735682
0
LINE
8
BLACK
6
CONTINUOUS
10
0.957384
20
0.735682
11
0.9574
21
0.734887
0
LINE
8
BLACK
6
CONTINUOUS
10
0.9574
20
0.734887
11
0.957539
21
0.734103
0
LINE
8
BLACK
6
CONTINUOUS
10
0.957539
20
0.734103
11
0.957421
21
0.733899
0
LINE
8
BLACK
6
CONTINUOUS
10
0.957421
20
0.733899
11
0.957426
21
0.733663
0
LINE
8
BLACK
6
CONTINUOUS
10
0.957426
20
0.733663
11
0.956927
21
0.733043
0
LINE
8
BLACK
6
CONTINUOUS
10
0.956927
20
0.733043
11
0.956529
21
0.732353
0
LINE
8
BLACK
6
CONTINUOUS
10
0.956529
20
0.732353
11
0.956307
21
0.732273
0
LINE
8
BLACK
6
CONTINUOUS
10
0.956307
20
0.732273
11
0.95616
21
0.732089
0
LINE
8
BLACK
6
CONTINUOUS
10
0.95616
20
0.732089
11
0.955379
21
0.731935
0
LINE
8
BLACK
6
CONTINUOUS
10
0.955379
20
0.731935
11
0.954631
21
0.731663
0
LINE
8
BLACK
6
CONTINUOUS
10
0.954631
20
0.731663
11
0.949703
21
0.731663
0
LINE
8
BLACK
6
CONTINUOUS
10
0.949703
20
0.731663
11
0.947006
21
0.730314
0
LINE
8
BLACK
6
CONTINUOUS
10
0.947006
20
0.730314
11
0.945809
21
0.729117
0
LINE
8
BLACK
6
CONTINUOUS
10
0.945809
20
0.729117
11
0.94446
21
0.726419
0
LINE
8
BLACK
6
CONTINUOUS
10
0.94446
20
0.726419
11
0.94446
21
0.718439
0
LINE
8
BLACK
6
CONTINUOUS
10
0.94446
20
0.718439
11
0.945809
21
0.715742
0
LINE
8
BLACK
6
CONTINUOUS
10
0.945809
20
0.715742
11
0.947006
21
0.714545
0
LINE
8
BLACK
6
CONTINUOUS
10
0.947006
20
0.714545
11
0.949703
21
0.713196
0
LINE
8
BLACK
6
CONTINUOUS
10
0.949703
20
0.713196
11
0.959558
21
0.713196
0
LINE
8
BLACK
6
CONTINUOUS
10
0.959558
20
0.713196
11
0.962255
21
0.714545
0
LINE
8
BLACK
6
CONTINUOUS
10
0.962255
20
0.714545
11
0.963791
21
0.716081
0
LINE
8
BLACK
6
CONTINUOUS
10
0.963791
20
0.716081
11
0.964631
21
0.716669
0
LINE
8
BLACK
6
CONTINUOUS
10
0.964631
20
0.716669
11
0.966643
21
0.716845
0
LINE
8
BLACK
6
CONTINUOUS
10
0.966643
20
0.716845
11
0.968298
21
0.715687
0
LINE
8
BLACK
6
CONTINUOUS
10
0.968298
20
0.715687
11
0.968821
21
0.713736
0
LINE
8
BLACK
6
CONTINUOUS
10
0.968821
20
0.713736
11
0.967967
21
0.711905
0
LINE
8
BLACK
6
CONTINUOUS
10
0.967967
20
0.711905
11
0.966092
21
0.71003
0
LINE
8
BLACK
6
CONTINUOUS
10
0.966092
20
0.71003
11
0.965369
21
0.709524
0
LINE
8
BLACK
6
CONTINUOUS
10
0.965369
20
0.709524
11
0.965325
21
0.709477
0
LINE
8
BLACK
6
CONTINUOUS
10
0.965325
20
0.709477
11
0.961575
21
0.707602
0
LINE
8
BLACK
6
CONTINUOUS
10
0.961575
20
0.707602
11
0.960592
21
0.70731
0
LINE
8
BLACK
6
CONTINUOUS
10
0.960592
20
0.70731
11
0.960421
21
0.707351
0
LINE
8
BLACK
6
CONTINUOUS
10
0.960421
20
0.707351
11
0.960255
21
0.707291
0
LINE
8
BLACK
6
CONTINUOUS
10
0.960255
20
0.707291
11
0.949006
21
0.707291
0
LINE
8
BLACK
6
CONTINUOUS
10
0.949006
20
0.707291
11
0.947996
21
0.707469
0
LINE
8
BLACK
6
CONTINUOUS
10
0.947996
20
0.707469
11
0.947861
21
0.707582
0
LINE
8
BLACK
6
CONTINUOUS
10
0.947861
20
0.707582
11
0.947686
21
0.707602
0
LINE
8
BLACK
6
CONTINUOUS
10
0.947686
20
0.707602
11
0.943936
21
0.709477
0
LINE
8
BLACK
6
CONTINUOUS
10
0.943936
20
0.709477
11
0.943227
21
0.710003
0
LINE
8
BLACK
6
CONTINUOUS
10
0.943227
20
0.710003
11
0.943169
21
0.71003
0
LINE
8
BLACK
6
CONTINUOUS
10
0.943169
20
0.71003
11
0.941294
21
0.711905
0
LINE
8
BLACK
6
CONTINUOUS
10
0.941294
20
0.711905
11
0.940788
21
0.712628
0
LINE
8
BLACK
6
CONTINUOUS
10
0.940788
20
0.712628
11
0.940741
21
0.712672
0
LINE
8
BLACK
6
CONTINUOUS
10
0.940741
20
0.712672
11
0.938866
21
0.716422
0
LINE
8
BLACK
6
CONTINUOUS
10
0.938866
20
0.716422
11
0.938574
21
0.717405
0
LINE
8
BLACK
6
CONTINUOUS
10
0.938574
20
0.717405
11
0.938615
21
0.717577
0
LINE
8
BLACK
6
CONTINUOUS
10
0.938615
20
0.717577
11
0.938555
21
0.717742
0
LINE
8
BLACK
6
CONTINUOUS
10
0.938555
20
0.717742
11
0.938555
21
0.727116
0
LINE
8
BLACK
6
CONTINUOUS
10
0.938555
20
0.727116
11
0.938733
21
0.728126
0
LINE
8
BLACK
6
CONTINUOUS
10
0.938733
20
0.728126
11
0.938846
21
0.728261
0
LINE
8
BLACK
6
CONTINUOUS
10
0.938846
20
0.728261
11
0.938866
21
0.728437
0
LINE
8
BLACK
6
CONTINUOUS
10
0.938866
20
0.728437
11
0.940741
21
0.732186
0
LINE
8
BLACK
6
CONTINUOUS
10
0.940741
20
0.732186
11
0.941267
21
0.732895
0
LINE
8
BLACK
6
CONTINUOUS
10
0.941267
20
0.732895
11
0.941294
21
0.732954
0
LINE
8
BLACK
6
CONTINUOUS
10
0.941294
20
0.732954
11
0.943169
21
0.734828
0
LINE
8
BLACK
6
CONTINUOUS
10
0.943169
20
0.734828
11
0.943892
21
0.735335
0
LINE
8
BLACK
6
CONTINUOUS
10
0.943892
20
0.735335
11
0.943936
21
0.735382
0
LINE
8
BLACK
6
CONTINUOUS
10
0.943936
20
0.735382
11
0.947686
21
0.737256
0
LINE
8
BLACK
6
CONTINUOUS
10
0.947686
20
0.737256
11
0.948249
21
0.737424
0
LINE
8
BLACK
6
CONTINUOUS
10
0.948249
20
0.737424
11
0.939285
21
0.747669
0
LINE
8
BLACK
6
CONTINUOUS
10
0.939285
20
0.747669
11
0.939055
21
0.748049
0
LINE
8
BLACK
6
CONTINUOUS
10
0.939055
20
0.748049
11
0.93895
21
0.748137
0
LINE
8
BLACK
6
CONTINUOUS
10
0.93895
20
0.748137
11
0.938929
21
0.748258
0
LINE
8
BLACK
6
CONTINUOUS
10
0.938929
20
0.748258
11
0.938754
21
0.748546
0
LINE
8
BLACK
6
CONTINUOUS
10
0.938754
20
0.748546
11
0.938738
21
0.749342
0
LINE
8
BLACK
6
CONTINUOUS
10
0.938738
20
0.749342
11
0.938599
21
0.750126
0
LINE
8
BLACK
6
CONTINUOUS
10
0.938599
20
0.750126
11
0.938717
21
0.75033
0
LINE
8
BLACK
6
CONTINUOUS
10
0.938717
20
0.75033
11
0.938712
21
0.750566
0
LINE
8
BLACK
6
CONTINUOUS
10
0.938712
20
0.750566
11
0.939211
21
0.751186
0
LINE
8
BLACK
6
CONTINUOUS
10
0.939211
20
0.751186
11
0.939609
21
0.751875
0
LINE
8
BLACK
6
CONTINUOUS
10
0.939609
20
0.751875
11
0.939831
21
0.751956
0
LINE
8
BLACK
6
CONTINUOUS
10
0.939831
20
0.751956
11
0.939978
21
0.752139
0
LINE
8
BLACK
6
CONTINUOUS
10
0.939978
20
0.752139
11
0.940759
21
0.752294
0
LINE
8
BLACK
6
CONTINUOUS
10
0.940759
20
0.752294
11
0.941507
21
0.752566
0
LINE
8
BLACK
6
CONTINUOUS
10
0.941507
20
0.752566
11
0.965879
21
0.752566
0
LINE
8
BLACK
6
CONTINUOUS
10
0.965879
20
0.752566
11
0.966889
21
0.752388
0
LINE
8
BLACK
6
CONTINUOUS
10
0.991121
20
0.752413
11
0.991185
21
0.752415
0
LINE
8
BLACK
6
CONTINUOUS
10
0.991185
20
0.752415
11
0.996809
21
0.75054
0
LINE
8
BLACK
6
CONTINUOUS
10
0.996809
20
0.75054
11
0.997711
21
0.750052
0
LINE
8
BLACK
6
CONTINUOUS
10
0.997711
20
0.750052
11
0.997803
21
0.749901
0
LINE
8
BLACK
6
CONTINUOUS
10
0.997803
20
0.749901
11
0.997963
21
0.749827
0
LINE
8
BLACK
6
CONTINUOUS
10
0.997963
20
0.749827
11
1.00171
21
0.746077
0
LINE
8
BLACK
6
CONTINUOUS
10
1.00171
20
0.746077
11
1.00222
21
0.745354
0
LINE
8
BLACK
6
CONTINUOUS
10
1.00222
20
0.745354
11
1.00227
21
0.74531
0
LINE
8
BLACK
6
CONTINUOUS
10
1.00227
20
0.74531
11
1.00414
21
0.74156
0
LINE
8
BLACK
6
CONTINUOUS
10
1.00414
20
0.74156
11
1.00429
21
0.741072
0
LINE
8
BLACK
6
CONTINUOUS
10
1.00429
20
0.741072
11
1.00436
21
0.740956
0
LINE
8
BLACK
6
CONTINUOUS
10
1.00436
20
0.740956
11
1.00624
21
0.733457
0
LINE
8
BLACK
6
CONTINUOUS
10
1.00624
20
0.733457
11
1.00628
21
0.732869
0
LINE
8
BLACK
6
CONTINUOUS
10
1.00628
20
0.732869
11
1.00633
21
0.732741
0
LINE
8
BLACK
6
CONTINUOUS
10
1.00633
20
0.732741
11
1.00633
21
0.727116
0
LINE
8
BLACK
6
CONTINUOUS
10
1.00633
20
0.727116
11
1.00622
21
0.726536
0
LINE
8
BLACK
6
CONTINUOUS
10
1.00622
20
0.726536
11
1.00624
21
0.7264
0
LINE
8
BLACK
6
CONTINUOUS
10
1.00624
20
0.7264
11
1.00436
21
0.718901
0
LINE
8
BLACK
6
CONTINUOUS
10
1.00436
20
0.718901
11
1.00416
21
0.718436
0
LINE
8
BLACK
6
CONTINUOUS
10
1.00416
20
0.718436
11
1.00414
21
0.718297
0
LINE
8
BLACK
6
CONTINUOUS
10
1.00414
20
0.718297
11
1.00227
21
0.714547
0
LINE
8
BLACK
6
CONTINUOUS
10
1.00227
20
0.714547
11
1.00174
21
0.713838
0
LINE
8
BLACK
6
CONTINUOUS
10
1.00174
20
0.713838
11
1.00171
21
0.71378
0
LINE
8
BLACK
6
CONTINUOUS
10
1.00171
20
0.71378
11
0.997963
21
0.71003
0
LINE
8
BLACK
6
CONTINUOUS
10
0.997963
20
0.71003
11
0.997123
21
0.709442
0
LINE
8
BLACK
6
CONTINUOUS
10
0.997123
20
0.709442
11
0.996947
21
0.709427
0
LINE
8
BLACK
6
CONTINUOUS
10
0.996947
20
0.709427
11
0.996809
21
0.709317
0
LINE
8
BLACK
6
CONTINUOUS
10
0.996809
20
0.709317
11
0.991185
21
0.707442
0
LINE
8
BLACK
6
CONTINUOUS
10
0.991185
20
0.707442
11
0.990312
21
0.707313
0
LINE
8
BLACK
6
CONTINUOUS
10
0.990312
20
0.707313
11
0.990251
21
0.707291
0
LINE
8
BLACK
6
CONTINUOUS
10
0.990251
20
0.707291
11
0.986502
21
0.707291
0
LINE
8
BLACK
6
CONTINUOUS
10
0.986502
20
0.707291
11
0.985632
21
0.707444
0
LINE
8
BLACK
6
CONTINUOUS
10
0.985632
20
0.707444
11
0.985568
21
0.707442
0
LINE
8
BLACK
6
CONTINUOUS
10
0.985568
20
0.707442
11
0.979944
21
0.709317
0
LINE
8
BLACK
6
CONTINUOUS
10
0.979944
20
0.709317
11
0.979042
21
0.709805
0
LINE
8
BLACK
6
CONTINUOUS
10
0.979042
20
0.709805
11
0.978949
21
0.709956
0
LINE
8
BLACK
6
CONTINUOUS
10
0.978949
20
0.709956
11
0.978789
21
0.71003
0
LINE
8
BLACK
6
CONTINUOUS
10
0.978789
20
0.71003
11
0.976915
21
0.711905
0
LINE
8
BLACK
6
CONTINUOUS
10
0.976915
20
0.711905
11
0.976326
21
0.712745
0
LINE
8
BLACK
6
CONTINUOUS
10
0.976326
20
0.712745
11
0.97615
21
0.714757
0
LINE
8
BLACK
6
CONTINUOUS
10
0.97615
20
0.714757
11
0.977309
21
0.716412
0
LINE
8
BLACK
6
CONTINUOUS
10
0.977309
20
0.716412
11
0.97926
21
0.716934
0
LINE
8
BLACK
6
CONTINUOUS
10
0.97926
20
0.716934
11
0.981091
21
0.716081
0
LINE
8
BLACK
6
CONTINUOUS
10
0.981091
20
0.716081
11
0.982472
21
0.714699
0
LINE
8
BLACK
6
CONTINUOUS
10
0.982472
20
0.714699
11
0.986981
21
0.713196
0
LINE
8
BLACK
6
CONTINUOUS
10
0.986981
20
0.713196
11
0.989772
21
0.713196
0
LINE
8
BLACK
6
CONTINUOUS
10
0.989772
20
0.713196
11
0.99428
21
0.714699
0
LINE
8
BLACK
6
CONTINUOUS
10
0.99428
20
0.714699
11
0.997198
21
0.717617
0
LINE
8
BLACK
6
CONTINUOUS
10
0.997198
20
0.717617
11
0.998714
21
0.720648
0
LINE
8
BLACK
6
CONTINUOUS
10
0.998714
20
0.720648
11
1.00042
21
0.72748
0
LINE
8
BLACK
6
CONTINUOUS
10
1.00042
20
0.72748
11
1.00042
21
0.732377
0
LINE
8
BLACK
6
CONTINUOUS
10
1.00042
20
0.732377
11
0.998714
21
0.739209
0
LINE
8
BLACK
6
CONTINUOUS
10
0.998714
20
0.739209
11
0.997198
21
0.74224
0
LINE
8
BLACK
6
CONTINUOUS
10
0.997198
20
0.74224
11
0.99428
21
0.745158
0
LINE
8
BLACK
6
CONTINUOUS
10
0.99428
20
0.745158
11
0.989772
21
0.746661
0
LINE
8
BLACK
6
CONTINUOUS
10
0.989772
20
0.746661
11
0.986981
21
0.746661
0
LINE
8
BLACK
6
CONTINUOUS
10
0.986981
20
0.746661
11
0.982472
21
0.745158
0
LINE
8
BLACK
6
CONTINUOUS
10
0.982472
20
0.745158
11
0.981091
21
0.743776
0
LINE
8
BLACK
6
CONTINUOUS
10
0.981091
20
0.743776
11
0.98025
21
0.743188
0
LINE
8
BLACK
6
CONTINUOUS
10
0.98025
20
0.743188
11
0.978238
21
0.743012
0
LINE
8
BLACK
6
CONTINUOUS
10
0.978238
20
0.743012
11
0.976584
21
0.74417
0
LINE
8
BLACK
6
CONTINUOUS
10
0.976584
20
0.74417
11
0.976061
21
0.746121
0
LINE
8
BLACK
6
CONTINUOUS
10
0.976061
20
0.746121
11
0.976915
21
0.747952
0
LINE
8
BLACK
6
CONTINUOUS
10
0.976915
20
0.747952
11
0.978789
21
0.749827
0
LINE
8
BLACK
6
CONTINUOUS
10
0.978789
20
0.749827
11
0.979629
21
0.750415
0
LINE
8
BLACK
6
CONTINUOUS
10
0.979629
20
0.750415
11
0.979805
21
0.75043
0
LINE
8
BLACK
6
CONTINUOUS
10
0.979805
20
0.75043
11
0.979944
21
0.75054
0
LINE
8
BLACK
6
CONTINUOUS
10
0.979944
20
0.75054
11
0.985568
21
0.752415
0
LINE
8
BLACK
6
CONTINUOUS
10
0.985568
20
0.752415
11
0.986441
21
0.752544
0
LINE
8
BLACK
6
CONTINUOUS
10
0.986441
20
0.752544
11
0.986502
21
0.752566
0
LINE
8
BLACK
6
CONTINUOUS
10
0.986502
20
0.752566
11
0.990251
21
0.752566
0
LINE
8
BLACK
6
CONTINUOUS
10
0.990251
20
0.752566
11
0.991121
21
0.752413
0
LINE
8
BLACK
6
CONTINUOUS
10
0.804397
20
0.728718
11
0.805089
21
0.727047
0
LINE
8
BLACK
6
CONTINUOUS
10
0.805089
20
0.727047
11
0.804397
21
0.725377
0
LINE
8
BLACK
6
CONTINUOUS
10
0.804397
20
0.725377
11
0.802726
21
0.724685
0
LINE
8
BLACK
6
CONTINUOUS
10
0.802726
20
0.724685
11
0.782155
21
0.724685
0
LINE
8
BLACK
6
CONTINUOUS
10
0.782155
20
0.724685
11
0.780485
21
0.725377
0
LINE
8
BLACK
6
CONTINUOUS
10
0.780485
20
0.725377
11
0.779793
21
0.727047
0
LINE
8
BLACK
6
CONTINUOUS
10
0.779793
20
0.727047
11
0.780485
21
0.728718
0
LINE
8
BLACK
6
CONTINUOUS
10
0.780485
20
0.728718
11
0.782155
21
0.729409
0
LINE
8
BLACK
6
CONTINUOUS
10
0.782155
20
0.729409
11
0.802726
21
0.729409
0
LINE
8
BLACK
6
CONTINUOUS
10
0.802726
20
0.729409
11
0.804397
21
0.728718
0
LINE
8
BLACK
6
CONTINUOUS
10
1.06919
20
0.759133
11
1.06988
21
0.757463
0
LINE
8
BLACK
6
CONTINUOUS
10
1.06988
20
0.757463
11
1.06988
21
0.739584
0
LINE
8
BLACK
6
CONTINUOUS
10
1.06988
20
0.739584
11
1.06919
21
0.737914
0
LINE
8
BLACK
6
CONTINUOUS
10
1.06919
20
0.737914
11
1.06752
21
0.737222
0
LINE
8
BLACK
6
CONTINUOUS
10
1.06752
20
0.737222
11
1.06585
21
0.737914
0
LINE
8
BLACK
6
CONTINUOUS
10
1.06585
20
0.737914
11
1.06516
21
0.739584
0
LINE
8
BLACK
6
CONTINUOUS
10
1.06516
20
0.739584
11
1.06516
21
0.757463
0
LINE
8
BLACK
6
CONTINUOUS
10
1.06516
20
0.757463
11
1.06585
21
0.759133
0
LINE
8
BLACK
6
CONTINUOUS
10
1.06585
20
0.759133
11
1.06752
21
0.759825
0
LINE
8
BLACK
6
CONTINUOUS
10
1.06752
20
0.759825
11
1.06919
21
0.759133
0
LINE
8
BLACK
6
CONTINUOUS
10
1.12706
20
0.759133
11
1.12776
21
0.757463
0
LINE
8
BLACK
6
CONTINUOUS
10
1.12776
20
0.757463
11
1.12776
21
0.739584
0
LINE
8
BLACK
6
CONTINUOUS
10
1.12776
20
0.739584
11
1.12706
21
0.737914
0
LINE
8
BLACK
6
CONTINUOUS
10
1.12706
20
0.737914
11
1.12539
21
0.737222
0
LINE
8
BLACK
6
CONTINUOUS
10
1.12539
20
0.737222
11
1.12372
21
0.737914
0
LINE
8
BLACK
6
CONTINUOUS
10
1.12372
20
0.737914
11
1.12303
21
0.739584
0
LINE
8
BLACK
6
CONTINUOUS
10
1.12303
20
0.739584
11
1.12303
21
0.757463
0
LINE
8
BLACK
6
CONTINUOUS
10
1.12303
20
0.757463
11
1.12372
21
0.759133
0
LINE
8
BLACK
6
CONTINUOUS
10
1.12372
20
0.759133
11
1.12539
21
0.759825
0
LINE
8
BLACK
6
CONTINUOUS
10
1.12539
20
0.759825
11
1.12706
21
0.759133
0
LINE
8
BLACK
6
CONTINUOUS
10
0.984397
20
0.767025
11
0.985089
21
0.765354
0
LINE
8
BLACK
6
CONTINUOUS
10
0.985089
20
0.765354
11
0.984397
21
0.763684
0
LINE
8
BLACK
6
CONTINUOUS
10
0.984397
20
0.763684
11
0.982726
21
0.762992
0
LINE
8
BLACK
6
CONTINUOUS
10
0.982726
20
0.762992
11
0.962155
21
0.762992
0
LINE
8
BLACK
6
CONTINUOUS
10
0.962155
20
0.762992
11
0.960485
21
0.763684
0
LINE
8
BLACK
6
CONTINUOUS
10
0.960485
20
0.763684
11
0.959793
21
0.765354
0
LINE
8
BLACK
6
CONTINUOUS
10
0.959793
20
0.765354
11
0.960485
21
0.767025
0
LINE
8
BLACK
6
CONTINUOUS
10
0.960485
20
0.767025
11
0.962155
21
0.767717
0
LINE
8
BLACK
6
CONTINUOUS
10
0.962155
20
0.767717
11
0.982726
21
0.767717
0
LINE
8
BLACK
6
CONTINUOUS
10
0.982726
20
0.767717
11
0.984397
21
0.767025
0
LINE
8
BLACK
6
CONTINUOUS
10
0.804397
20
0.816119
11
0.805089
21
0.814449
0
LINE
8
BLACK
6
CONTINUOUS
10
0.805089
20
0.814449
11
0.804397
21
0.812779
0
LINE
8
BLACK
6
CONTINUOUS
10
0.804397
20
0.812779
11
0.802726
21
0.812087
0
LINE
8
BLACK
6
CONTINUOUS
10
0.802726
20
0.812087
11
0.782155
21
0.812087
0
LINE
8
BLACK
6
CONTINUOUS
10
0.782155
20
0.812087
11
0.780485
21
0.812779
0
LINE
8
BLACK
6
CONTINUOUS
10
0.780485
20
0.812779
11
0.779793
21
0.814449
0
LINE
8
BLACK
6
CONTINUOUS
10
0.779793
20
0.814449
11
0.780485
21
0.816119
0
LINE
8
BLACK
6
CONTINUOUS
10
0.780485
20
0.816119
11
0.782155
21
0.816811
0
LINE
8
BLACK
6
CONTINUOUS
10
0.782155
20
0.816811
11
0.802726
21
0.816811
0
LINE
8
BLACK
6
CONTINUOUS
10
0.802726
20
0.816811
11
0.804397
21
0.816119
0
LINE
8
BLACK
6
CONTINUOUS
10
0.984397
20
0.824899
11
0.985089
21
0.823228
0
LINE
8
BLACK
6
CONTINUOUS
10
0.985089
20
0.823228
11
0.984397
21
0.821558
0
LINE
8
BLACK
6
CONTINUOUS
10
0.984397
20
0.821558
11
0.982726
21
0.820866
0
LINE
8
BLACK
6
CONTINUOUS
10
0.982726
20
0.820866
11
0.962155
21
0.820866
0
LINE
8
BLACK
6
CONTINUOUS
10
0.962155
20
0.820866
11
0.960485
21
0.821558
0
LINE
8
BLACK
6
CONTINUOUS
10
0.960485
20
0.821558
11
0.959793
21
0.823228
0
LINE
8
BLACK
6
CONTINUOUS
10
0.959793
20
0.823228
11
0.960485
21
0.824899
0
LINE
8
BLACK
6
CONTINUOUS
10
0.960485
20
0.824899
11
0.962155
21
0.825591
0
LINE
8
BLACK
6
CONTINUOUS
10
0.962155
20
0.825591
11
0.982726
21
0.825591
0
LINE
8
BLACK
6
CONTINUOUS
10
0.982726
20
0.825591
11
0.984397
21
0.824899
0
LINE
8
BLACK
6
CONTINUOUS
10
0.840902
20
0.85944
11
0.841654
21
0.857126
0
LINE
8
BLACK
6
CONTINUOUS
10
0.841654
20
0.857126
11
0.841654
21
0.838425
0
LINE
8
BLACK
6
CONTINUOUS
10
0.841654
20
0.838425
11
0.840902
21
0.836111
0
LINE
8
BLACK
6
CONTINUOUS
10
0.840902
20
0.836111
11
0.838933
21
0.834681
0
LINE
8
BLACK
6
CONTINUOUS
10
0.838933
20
0.834681
11
0.8365
21
0.834681
0
LINE
8
BLACK
6
CONTINUOUS
10
0.8365
20
0.834681
11
0.834531
21
0.836111
0
LINE
8
BLACK
6
CONTINUOUS
10
0.834531
20
0.836111
11
0.83378
21
0.838425
0
LINE
8
BLACK
6
CONTINUOUS
10
0.83378
20
0.838425
11
0.83378
21
0.857126
0
LINE
8
BLACK
6
CONTINUOUS
10
0.83378
20
0.857126
11
0.834531
21
0.85944
0
LINE
8
BLACK
6
CONTINUOUS
10
0.834531
20
0.85944
11
0.8365
21
0.86087
0
LINE
8
BLACK
6
CONTINUOUS
10
0.8365
20
0.86087
11
0.838933
21
0.86087
0
LINE
8
BLACK
6
CONTINUOUS
10
0.838933
20
0.86087
11
0.840902
21
0.85944
0
LINE
8
BLACK
6
CONTINUOUS
10
0.834373
20
0.894335
11
0.834996
21
0.894335
0
LINE
8
BLACK
6
CONTINUOUS
10
0.834996
20
0.894335
11
0.835501
21
0.893968
0
LINE
8
BLACK
6
CONTINUOUS
10
0.835501
20
0.893968
11
0.836094
21
0.893776
0
LINE
8
BLACK
6
CONTINUOUS
10
0.836094
20
0.893776
11
0.83646
21
0.893271
0
LINE
8
BLACK
6
CONTINUOUS
10
0.83646
20
0.893271
11
0.836965
21
0.892905
0
LINE
8
BLACK
6
CONTINUOUS
10
0.836965
20
0.892905
11
0.837157
21
0.892312
0
LINE
8
BLACK
6
CONTINUOUS
10
0.837157
20
0.892312
11
0.837524
21
0.891807
0
LINE
8
BLACK
6
CONTINUOUS
10
0.837524
20
0.891807
11
0.837524
21
0.891184
0
LINE
8
BLACK
6
CONTINUOUS
10
0.837524
20
0.891184
11
0.837717
21
0.890591
0
LINE
8
BLACK
6
CONTINUOUS
10
0.837717
20
0.890591
11
0.837717
21
0.870906
0
LINE
8
BLACK
6
CONTINUOUS
10
0.837717
20
0.870906
11
0.837524
21
0.870313
0
LINE
8
BLACK
6
CONTINUOUS
10
0.837524
20
0.870313
11
0.837524
21
0.869689
0
LINE
8
BLACK
6
CONTINUOUS
10
0.837524
20
0.869689
11
0.837157
21
0.869184
0
LINE
8
BLACK
6
CONTINUOUS
10
0.837157
20
0.869184
11
0.836965
21
0.868591
0
LINE
8
BLACK
6
CONTINUOUS
10
0.836965
20
0.868591
11
0.83646
21
0.868225
0
LINE
8
BLACK
6
CONTINUOUS
10
0.83646
20
0.868225
11
0.836094
21
0.86772
0
LINE
8
BLACK
6
CONTINUOUS
10
0.836094
20
0.86772
11
0.835501
21
0.867528
0
LINE
8
BLACK
6
CONTINUOUS
10
0.835501
20
0.867528
11
0.834996
21
0.867161
0
LINE
8
BLACK
6
CONTINUOUS
10
0.834996
20
0.867161
11
0.834373
21
0.867161
0
LINE
8
BLACK
6
CONTINUOUS
10
0.834373
20
0.867161
11
0.83378
21
0.866969
0
LINE
8
BLACK
6
CONTINUOUS
10
0.83378
20
0.866969
11
0.751102
21
0.866969
0
LINE
8
BLACK
6
CONTINUOUS
10
0.751102
20
0.866969
11
0.750509
21
0.867161
0
LINE
8
BLACK
6
CONTINUOUS
10
0.750509
20
0.867161
11
0.749886
21
0.867161
0
LINE
8
BLACK
6
CONTINUOUS
10
0.749886
20
0.867161
11
0.749381
21
0.867528
0
LINE
8
BLACK
6
CONTINUOUS
10
0.749381
20
0.867528
11
0.748788
21
0.86772
0
LINE
8
BLACK
6
CONTINUOUS
10
0.748788
20
0.86772
11
0.748422
21
0.868225
0
LINE
8
BLACK
6
CONTINUOUS
10
0.748422
20
0.868225
11
0.747917
21
0.868591
0
LINE
8
BLACK
6
CONTINUOUS
10
0.747917
20
0.868591
11
0.747725
21
0.869184
0
LINE
8
BLACK
6
CONTINUOUS
10
0.747725
20
0.869184
11
0.747358
21
0.869689
0
LINE
8
BLACK
6
CONTINUOUS
10
0.747358
20
0.869689
11
0.747358
21
0.870313
0
LINE
8
BLACK
6
CONTINUOUS
10
0.747358
20
0.870313
11
0.747165
21
0.870906
0
LINE
8
BLACK
6
CONTINUOUS
10
0.747165
20
0.870906
11
0.747165
21
0.890591
0
LINE
8
BLACK
6
CONTINUOUS
10
0.747165
20
0.890591
11
0.747358
21
0.891184
0
LINE
8
BLACK
6
CONTINUOUS
10
0.747358
20
0.891184
11
0.747358
21
0.891807
0
LINE
8
BLACK
6
CONTINUOUS
10
0.747358
20
0.891807
11
0.747725
21
0.892312
0
LINE
8
BLACK
6
CONTINUOUS
10
0.747725
20
0.892312
11
0.747917
21
0.892905
0
LINE
8
BLACK
6
CONTINUOUS
10
0.747917
20
0.892905
11
0.748422
21
0.893271
0
LINE
8
BLACK
6
CONTINUOUS
10
0.748422
20
0.893271
11
0.748788
21
0.893776
0
LINE
8
BLACK
6
CONTINUOUS
10
0.748788
20
0.893776
11
0.749381
21
0.893968
0
LINE
8
BLACK
6
CONTINUOUS
10
0.749381
20
0.893968
11
0.749886
21
0.894335
0
LINE
8
BLACK
6
CONTINUOUS
10
0.749886
20
0.894335
11
0.750509
21
0.894335
0
LINE
8
BLACK
6
CONTINUOUS
10
0.750509
20
0.894335
11
0.751102
21
0.894528
0
LINE
8
BLACK
6
CONTINUOUS
10
0.751102
20
0.894528
11
0.83378
21
0.894528
0
LINE
8
BLACK
6
CONTINUOUS
10
0.83378
20
0.894528
11
0.834373
21
0.894335
0
LINE
8
BLACK
6
CONTINUOUS
10
0.755039
20
0.886654
11
0.755039
21
0.874843
0
LINE
8
BLACK
6
CONTINUOUS
10
0.755039
20
0.874843
11
0.829843
21
0.874843
0
LINE
8
BLACK
6
CONTINUOUS
10
0.829843
20
0.874843
11
0.829843
21
0.886654
0
LINE
8
BLACK
6
CONTINUOUS
10
0.829843
20
0.886654
11
0.755039
21
0.886654
0
LINE
8
BLACK
6
CONTINUOUS
10
1.06919
20
0.897913
11
1.06988
21
0.896243
0
LINE
8
BLACK
6
CONTINUOUS
10
1.06988
20
0.896243
11
1.06988
21
0.878364
0
LINE
8
BLACK
6
CONTINUOUS
10
1.06988
20
0.878364
11
1.06919
21
0.876693
0
LINE
8
BLACK
6
CONTINUOUS
10
1.06919
20
0.876693
11
1.06752
21
0.876001
0
LINE
8
BLACK
6
CONTINUOUS
10
1.06752
20
0.876001
11
1.06585
21
0.876693
0
LINE
8
BLACK
6
CONTINUOUS
10
1.06585
20
0.876693
11
1.06516
21
0.878364
0
LINE
8
BLACK
6
CONTINUOUS
10
1.06516
20
0.878364
11
1.06516
21
0.896243
0
LINE
8
BLACK
6
CONTINUOUS
10
1.06516
20
0.896243
11
1.06585
21
0.897913
0
LINE
8
BLACK
6
CONTINUOUS
10
1.06585
20
0.897913
11
1.06752
21
0.898605
0
LINE
8
BLACK
6
CONTINUOUS
10
1.06752
20
0.898605
11
1.06919
21
0.897913
0
LINE
8
BLACK
6
CONTINUOUS
10
1.12706
20
0.897913
11
1.12776
21
0.896243
0
LINE
8
BLACK
6
CONTINUOUS
10
1.12776
20
0.896243
11
1.12776
21
0.878364
0
LINE
8
BLACK
6
CONTINUOUS
10
1.12776
20
0.878364
11
1.12706
21
0.876693
0
LINE
8
BLACK
6
CONTINUOUS
10
1.12706
20
0.876693
11
1.12539
21
0.876001
0
LINE
8
BLACK
6
CONTINUOUS
10
1.12539
20
0.876001
11
1.12372
21
0.876693
0
LINE
8
BLACK
6
CONTINUOUS
10
1.12372
20
0.876693
11
1.12303
21
0.878364
0
LINE
8
BLACK
6
CONTINUOUS
10
1.12303
20
0.878364
11
1.12303
21
0.896243
0
LINE
8
BLACK
6
CONTINUOUS
10
1.12303
20
0.896243
11
1.12372
21
0.897913
0
LINE
8
BLACK
6
CONTINUOUS
10
1.12372
20
0.897913
11
1.12539
21
0.898605
0
LINE
8
BLACK
6
CONTINUOUS
10
1.12539
20
0.898605
11
1.12706
21
0.897913
0
LINE
8
BLACK
6
CONTINUOUS
10
0.665174
20
0.907625
11
0.665866
21
0.905955
0
LINE
8
BLACK
6
CONTINUOUS
10
0.665866
20
0.905955
11
0.665866
21
0.885384
0
LINE
8
BLACK
6
CONTINUOUS
10
0.665866
20
0.885384
11
0.665174
21
0.883713
0
LINE
8
BLACK
6
CONTINUOUS
10
0.665174
20
0.883713
11
0.663504
21
0.883022
0
LINE
8
BLACK
6
CONTINUOUS
10
0.663504
20
0.883022
11
0.661834
21
0.883713
0
LINE
8
BLACK
6
CONTINUOUS
10
0.661834
20
0.883713
11
0.661142
21
0.885384
0
LINE
8
BLACK
6
CONTINUOUS
10
0.661142
20
0.885384
11
0.661142
21
0.905955
0
LINE
8
BLACK
6
CONTINUOUS
10
0.661142
20
0.905955
11
0.661834
21
0.907625
0
LINE
8
BLACK
6
CONTINUOUS
10
0.661834
20
0.907625
11
0.663504
21
0.908317
0
LINE
8
BLACK
6
CONTINUOUS
10
0.663504
20
0.908317
11
0.665174
21
0.907625
0
LINE
8
BLACK
6
CONTINUOUS
10
0.723048
20
0.907625
11
0.72374
21
0.905955
0
LINE
8
BLACK
6
CONTINUOUS
10
0.72374
20
0.905955
11
0.72374
21
0.885384
0
LINE
8
BLACK
6
CONTINUOUS
10
0.72374
20
0.885384
11
0.723048
21
0.883713
0
LINE
8
BLACK
6
CONTINUOUS
10
0.723048
20
0.883713
11
0.721378
21
0.883022
0
LINE
8
BLACK
6
CONTINUOUS
10
0.721378
20
0.883022
11
0.719708
21
0.883713
0
LINE
8
BLACK
6
CONTINUOUS
10
0.719708
20
0.883713
11
0.719016
21
0.885384
0
LINE
8
BLACK
6
CONTINUOUS
10
0.719016
20
0.885384
11
0.719016
21
0.905955
0
LINE
8
BLACK
6
CONTINUOUS
10
0.719016
20
0.905955
11
0.719708
21
0.907625
0
LINE
8
BLACK
6
CONTINUOUS
10
0.719708
20
0.907625
11
0.721378
21
0.908317
0
LINE
8
BLACK
6
CONTINUOUS
10
0.721378
20
0.908317
11
0.723048
21
0.907625
0
LINE
8
BLACK
6
CONTINUOUS
10
0.864466
20
0.912546
11
0.865157
21
0.910876
0
LINE
8
BLACK
6
CONTINUOUS
10
0.865157
20
0.910876
11
0.865157
21
0.890305
0
LINE
8
BLACK
6
CONTINUOUS
10
0.865157
20
0.890305
11
0.864466
21
0.888635
0
LINE
8
BLACK
6
CONTINUOUS
10
0.864466
20
0.888635
11
0.862795
21
0.887943
0
LINE
8
BLACK
6
CONTINUOUS
10
0.862795
20
0.887943
11
0.861125
21
0.888635
0
LINE
8
BLACK
6
CONTINUOUS
10
0.861125
20
0.888635
11
0.860433
21
0.890305
0
LINE
8
BLACK
6
CONTINUOUS
10
0.860433
20
0.890305
11
0.860433
21
0.910876
0
LINE
8
BLACK
6
CONTINUOUS
10
0.860433
20
0.910876
11
0.861125
21
0.912546
0
LINE
8
BLACK
6
CONTINUOUS
10
0.861125
20
0.912546
11
0.862795
21
0.913238
0
LINE
8
BLACK
6
CONTINUOUS
10
0.862795
20
0.913238
11
0.864466
21
0.912546
0
LINE
8
BLACK
6
CONTINUOUS
10
0.92234
20
0.912546
11
0.923031
21
0.910876
0
LINE
8
BLACK
6
CONTINUOUS
10
0.923031
20
0.910876
11
0.923031
21
0.890305
0
LINE
8
BLACK
6
CONTINUOUS
10
0.923031
20
0.890305
11
0.92234
21
0.888635
0
LINE
8
BLACK
6
CONTINUOUS
10
0.92234
20
0.888635
11
0.920669
21
0.887943
0
LINE
8
BLACK
6
CONTINUOUS
10
0.920669
20
0.887943
11
0.918999
21
0.888635
0
LINE
8
BLACK
6
CONTINUOUS
10
0.918999
20
0.888635
11
0.918307
21
0.890305
0
LINE
8
BLACK
6
CONTINUOUS
10
0.918307
20
0.890305
11
0.918307
21
0.910876
0
LINE
8
BLACK
6
CONTINUOUS
10
0.918307
20
0.910876
11
0.918999
21
0.912546
0
LINE
8
BLACK
6
CONTINUOUS
10
0.918999
20
0.912546
11
0.920669
21
0.913238
0
LINE
8
BLACK
6
CONTINUOUS
10
0.920669
20
0.913238
11
0.92234
21
0.912546
0
LINE
8
BLACK
6
CONTINUOUS
10
0.516408
20
0.933736
11
0.516577
21
0.933747
0
LINE
8
BLACK
6
CONTINUOUS
10
0.516577
20
0.933747
11
0.517268
21
0.933239
0
LINE
8
BLACK
6
CONTINUOUS
10
0.517268
20
0.933239
11
0.51801
21
0.932811
0
LINE
8
BLACK
6
CONTINUOUS
10
0.51801
20
0.932811
11
0.518068
21
0.932651
0
LINE
8
BLACK
6
CONTINUOUS
10
0.518068
20
0.932651
11
0.518205
21
0.932551
0
LINE
8
BLACK
6
CONTINUOUS
10
0.518205
20
0.932551
11
0.521792
21
0.92717
0
LINE
8
BLACK
6
CONTINUOUS
10
0.521792
20
0.92717
11
0.524996
21
0.923966
0
LINE
8
BLACK
6
CONTINUOUS
10
0.524996
20
0.923966
11
0.528317
21
0.922305
0
LINE
8
BLACK
6
CONTINUOUS
10
0.528317
20
0.922305
11
0.529141
21
0.921694
0
LINE
8
BLACK
6
CONTINUOUS
10
0.529141
20
0.921694
11
0.529944
21
0.919841
0
LINE
8
BLACK
6
CONTINUOUS
10
0.529944
20
0.919841
11
0.529368
21
0.917905
0
LINE
8
BLACK
6
CONTINUOUS
10
0.529368
20
0.917905
11
0.527683
21
0.916792
0
LINE
8
BLACK
6
CONTINUOUS
10
0.527683
20
0.916792
11
0.525676
21
0.917023
0
LINE
8
BLACK
6
CONTINUOUS
10
0.525676
20
0.917023
11
0.521927
21
0.918898
0
LINE
8
BLACK
6
CONTINUOUS
10
0.521927
20
0.918898
11
0.521217
21
0.919424
0
LINE
8
BLACK
6
CONTINUOUS
10
0.521217
20
0.919424
11
0.521159
21
0.919451
0
LINE
8
BLACK
6
CONTINUOUS
10
0.521159
20
0.919451
11
0.518701
21
0.921909
0
LINE
8
BLACK
6
CONTINUOUS
10
0.518701
20
0.921909
11
0.518701
21
0.894495
0
LINE
8
BLACK
6
CONTINUOUS
10
0.518701
20
0.894495
11
0.526997
21
0.894495
0
LINE
8
BLACK
6
CONTINUOUS
10
0.526997
20
0.894495
11
0.528006
21
0.894317
0
LINE
8
BLACK
6
CONTINUOUS
10
0.528006
20
0.894317
11
0.529554
21
0.893019
0
LINE
8
BLACK
6
CONTINUOUS
10
0.529554
20
0.893019
11
0.529904
21
0.89103
0
LINE
8
BLACK
6
CONTINUOUS
10
0.529904
20
0.89103
11
0.528895
21
0.889281
0
LINE
8
BLACK
6
CONTINUOUS
10
0.528895
20
0.889281
11
0.526997
21
0.88859
0
LINE
8
BLACK
6
CONTINUOUS
10
0.526997
20
0.88859
11
0.504499
21
0.88859
0
LINE
8
BLACK
6
CONTINUOUS
10
0.504499
20
0.88859
11
0.503489
21
0.888768
0
LINE
8
BLACK
6
CONTINUOUS
10
0.503489
20
0.888768
11
0.501942
21
0.890066
0
LINE
8
BLACK
6
CONTINUOUS
10
0.501942
20
0.890066
11
0.501591
21
0.892055
0
LINE
8
BLACK
6
CONTINUOUS
10
0.501591
20
0.892055
11
0.502601
21
0.893804
0
LINE
8
BLACK
6
CONTINUOUS
10
0.502601
20
0.893804
11
0.504499
21
0.894495
0
LINE
8
BLACK
6
CONTINUOUS
10
0.504499
20
0.894495
11
0.512795
21
0.894495
0
LINE
8
BLACK
6
CONTINUOUS
10
0.512795
20
0.894495
11
0.512795
21
0.930913
0
LINE
8
BLACK
6
CONTINUOUS
10
0.512795
20
0.930913
11
0.512973
21
0.931923
0
LINE
8
BLACK
6
CONTINUOUS
10
0.512973
20
0.931923
11
0.513082
21
0.932053
0
LINE
8
BLACK
6
CONTINUOUS
10
0.513082
20
0.932053
11
0.513101
21
0.932221
0
LINE
8
BLACK
6
CONTINUOUS
10
0.513101
20
0.932221
11
0.513721
21
0.932813
0
LINE
8
BLACK
6
CONTINUOUS
10
0.513721
20
0.932813
11
0.514272
21
0.93347
0
LINE
8
BLACK
6
CONTINUOUS
10
0.514272
20
0.93347
11
0.514439
21
0.933499
0
LINE
8
BLACK
6
CONTINUOUS
10
0.514439
20
0.933499
11
0.514562
21
0.933617
0
LINE
8
BLACK
6
CONTINUOUS
10
0.514562
20
0.933617
11
0.515417
21
0.933672
0
LINE
8
BLACK
6
CONTINUOUS
10
0.515417
20
0.933672
11
0.516261
21
0.933821
0
LINE
8
BLACK
6
CONTINUOUS
10
0.516261
20
0.933821
11
0.516408
21
0.933736
0
LINE
8
BLACK
6
CONTINUOUS
10
0.564875
20
0.933798
11
0.565005
21
0.933821
0
LINE
8
BLACK
6
CONTINUOUS
10
0.565005
20
0.933821
11
0.565118
21
0.933755
0
LINE
8
BLACK
6
CONTINUOUS
10
0.565118
20
0.933755
11
0.565502
21
0.933687
0
LINE
8
BLACK
6
CONTINUOUS
10
0.565502
20
0.933687
11
0.566089
21
0.933194
0
LINE
8
BLACK
6
CONTINUOUS
10
0.566089
20
0.933194
11
0.566754
21
0.932811
0
LINE
8
BLACK
6
CONTINUOUS
10
0.566754
20
0.932811
11
0.566845
21
0.93256
0
LINE
8
BLACK
6
CONTINUOUS
10
0.566845
20
0.93256
11
0.567049
21
0.932389
0
LINE
8
BLACK
6
CONTINUOUS
10
0.567049
20
0.932389
11
0.567182
21
0.931633
0
LINE
8
BLACK
6
CONTINUOUS
10
0.567182
20
0.931633
11
0.567445
21
0.930913
0
LINE
8
BLACK
6
CONTINUOUS
10
0.567445
20
0.930913
11
0.567445
21
0.891543
0
LINE
8
BLACK
6
CONTINUOUS
10
0.567445
20
0.891543
11
0.567377
21
0.891159
0
LINE
8
BLACK
6
CONTINUOUS
10
0.567377
20
0.891159
11
0.5674
21
0.89103
0
LINE
8
BLACK
6
CONTINUOUS
10
0.5674
20
0.89103
11
0.567334
21
0.890916
0
LINE
8
BLACK
6
CONTINUOUS
10
0.567334
20
0.890916
11
0.567267
21
0.890533
0
LINE
8
BLACK
6
CONTINUOUS
10
0.567267
20
0.890533
11
0.566773
21
0.889945
0
LINE
8
BLACK
6
CONTINUOUS
10
0.566773
20
0.889945
11
0.56639
21
0.889281
0
LINE
8
BLACK
6
CONTINUOUS
10
0.56639
20
0.889281
11
0.56614
21
0.88919
0
LINE
8
BLACK
6
CONTINUOUS
10
0.56614
20
0.88919
11
0.565968
21
0.888985
0
LINE
8
BLACK
6
CONTINUOUS
10
0.565968
20
0.888985
11
0.565213
21
0.888852
0
LINE
8
BLACK
6
CONTINUOUS
10
0.565213
20
0.888852
11
0.564492
21
0.88859
0
LINE
8
BLACK
6
CONTINUOUS
10
0.564492
20
0.88859
11
0.555118
21
0.88859
0
LINE
8
BLACK
6
CONTINUOUS
10
0.555118
20
0.88859
11
0.554249
21
0.888743
0
LINE
8
BLACK
6
CONTINUOUS
10
0.554249
20
0.888743
11
0.554184
21
0.888741
0
LINE
8
BLACK
6
CONTINUOUS
10
0.554184
20
0.888741
11
0.54856
21
0.890616
0
LINE
8
BLACK
6
CONTINUOUS
10
0.54856
20
0.890616
11
0.547658
21
0.891104
0
LINE
8
BLACK
6
CONTINUOUS
10
0.547658
20
0.891104
11
0.547566
21
0.891255
0
LINE
8
BLACK
6
CONTINUOUS
10
0.547566
20
0.891255
11
0.547406
21
0.891329
0
LINE
8
BLACK
6
CONTINUOUS
10
0.547406
20
0.891329
11
0.543656
21
0.895079
0
LINE
8
BLACK
6
CONTINUOUS
10
0.543656
20
0.895079
11
0.54315
21
0.895802
0
LINE
8
BLACK
6
CONTINUOUS
10
0.54315
20
0.895802
11
0.543103
21
0.895846
0
LINE
8
BLACK
6
CONTINUOUS
10
0.543103
20
0.895846
11
0.541228
21
0.899596
0
LINE
8
BLACK
6
CONTINUOUS
10
0.541228
20
0.899596
11
0.541083
21
0.900084
0
LINE
8
BLACK
6
CONTINUOUS
10
0.541083
20
0.900084
11
0.541005
21
0.9002
0
LINE
8
BLACK
6
CONTINUOUS
10
0.541005
20
0.9002
11
0.53913
21
0.907699
0
LINE
8
BLACK
6
CONTINUOUS
10
0.53913
20
0.907699
11
0.539089
21
0.908287
0
LINE
8
BLACK
6
CONTINUOUS
10
0.539089
20
0.908287
11
0.539042
21
0.908415
0
LINE
8
BLACK
6
CONTINUOUS
10
0.539042
20
0.908415
11
0.539042
21
0.91404
0
LINE
8
BLACK
6
CONTINUOUS
10
0.539042
20
0.91404
11
0.539144
21
0.91462
0
LINE
8
BLACK
6
CONTINUOUS
10
0.539144
20
0.91462
11
0.53913
21
0.914756
0
LINE
8
BLACK
6
CONTINUOUS
10
0.53913
20
0.914756
11
0.541005
21
0.922255
0
LINE
8
BLACK
6
CONTINUOUS
10
0.541005
20
0.922255
11
0.541212
21
0.92272
0
LINE
8
BLACK
6
CONTINUOUS
10
0.541212
20
0.92272
11
0.541228
21
0.922859
0
LINE
8
BLACK
6
CONTINUOUS
10
0.541228
20
0.922859
11
0.543103
21
0.926609
0
LINE
8
BLACK
6
CONTINUOUS
10
0.543103
20
0.926609
11
0.543629
21
0.927318
0
LINE
8
BLACK
6
CONTINUOUS
10
0.543629
20
0.927318
11
0.543656
21
0.927376
0
LINE
8
BLACK
6
CONTINUOUS
10
0.543656
20
0.927376
11
0.547406
21
0.931126
0
LINE
8
BLACK
6
CONTINUOUS
10
0.547406
20
0.931126
11
0.548246
21
0.931714
0
LINE
8
BLACK
6
CONTINUOUS
10
0.548246
20
0.931714
11
0.548422
21
0.931729
0
LINE
8
BLACK
6
CONTINUOUS
10
0.548422
20
0.931729
11
0.54856
21
0.931839
0
LINE
8
BLACK
6
CONTINUOUS
10
0.54856
20
0.931839
11
0.554184
21
0.933714
0
LINE
8
BLACK
6
CONTINUOUS
10
0.554184
20
0.933714
11
0.555058
21
0.933843
0
LINE
8
BLACK
6
CONTINUOUS
10
0.555058
20
0.933843
11
0.555118
21
0.933865
0
LINE
8
BLACK
6
CONTINUOUS
10
0.555118
20
0.933865
11
0.564492
21
0.933865
0
LINE
8
BLACK
6
CONTINUOUS
10
0.564492
20
0.933865
11
0.564875
21
0.933798
0
LINE
8
BLACK
6
CONTINUOUS
10
0.551089
20
0.926457
11
0.548171
21
0.923539
0
LINE
8
BLACK
6
CONTINUOUS
10
0.548171
20
0.923539
11
0.546655
21
0.920508
0
LINE
8
BLACK
6
CONTINUOUS
10
0.546655
20
0.920508
11
0.544947
21
0.913676
0
LINE
8
BLACK
6
CONTINUOUS
10
0.544947
20
0.913676
11
0.544947
21
0.908779
0
LINE
8
BLACK
6
CONTINUOUS
10
0.544947
20
0.908779
11
0.546655
21
0.901947
0
LINE
8
BLACK
6
CONTINUOUS
10
0.546655
20
0.901947
11
0.548171
21
0.898916
0
LINE
8
BLACK
6
CONTINUOUS
10
0.548171
20
0.898916
11
0.551089
21
0.895998
0
LINE
8
BLACK
6
CONTINUOUS
10
0.551089
20
0.895998
11
0.555597
21
0.894495
0
LINE
8
BLACK
6
CONTINUOUS
10
0.555597
20
0.894495
11
0.561539
21
0.894495
0
LINE
8
BLACK
6
CONTINUOUS
10
0.561539
20
0.894495
11
0.561539
21
0.92796
0
LINE
8
BLACK
6
CONTINUOUS
10
0.561539
20
0.92796
11
0.555597
21
0.92796
0
LINE
8
BLACK
6
CONTINUOUS
10
0.555597
20
0.92796
11
0.551089
21
0.926457
0
LINE
8
BLACK
6
CONTINUOUS
10
0.974702
20
0.912677
11
0.975394
21
0.911006
0
LINE
8
BLACK
6
CONTINUOUS
10
0.975394
20
0.911006
11
0.975394
21
0.893127
0
LINE
8
BLACK
6
CONTINUOUS
10
0.975394
20
0.893127
11
0.974702
21
0.891457
0
LINE
8
BLACK
6
CONTINUOUS
10
0.974702
20
0.891457
11
0.973031
21
0.890765
0
LINE
8
BLACK
6
CONTINUOUS
10
0.973031
20
0.890765
11
0.971361
21
0.891457
0
LINE
8
BLACK
6
CONTINUOUS
10
0.971361
20
0.891457
11
0.970669
21
0.893127
0
LINE
8
BLACK
6
CONTINUOUS
10
0.970669
20
0.893127
11
0.970669
21
0.911006
0
LINE
8
BLACK
6
CONTINUOUS
10
0.970669
20
0.911006
11
0.971361
21
0.912677
0
LINE
8
BLACK
6
CONTINUOUS
10
0.971361
20
0.912677
11
0.973031
21
0.913369
0
LINE
8
BLACK
6
CONTINUOUS
10
0.973031
20
0.913369
11
0.974702
21
0.912677
0
LINE
8
BLACK
6
CONTINUOUS
10
1.03258
20
0.912677
11
1.03327
21
0.911006
0
LINE
8
BLACK
6
CONTINUOUS
10
1.03327
20
0.911006
11
1.03327
21
0.893127
0
LINE
8
BLACK
6
CONTINUOUS
10
1.03327
20
0.893127
11
1.03258
21
0.891457
0
LINE
8
BLACK
6
CONTINUOUS
10
1.03258
20
0.891457
11
1.03091
21
0.890765
0
LINE
8
BLACK
6
CONTINUOUS
10
1.03091
20
0.890765
11
1.02924
21
0.891457
0
LINE
8
BLACK
6
CONTINUOUS
10
1.02924
20
0.891457
11
1.02854
21
0.893127
0
LINE
8
BLACK
6
CONTINUOUS
10
1.02854
20
0.893127
11
1.02854
21
0.911006
0
LINE
8
BLACK
6
CONTINUOUS
10
1.02854
20
0.911006
11
1.02924
21
0.912677
0
LINE
8
BLACK
6
CONTINUOUS
10
1.02924
20
0.912677
11
1.03091
21
0.913369
0
LINE
8
BLACK
6
CONTINUOUS
10
1.03091
20
0.913369
11
1.03258
21
0.912677
0
LINE
8
BLACK
6
CONTINUOUS
10
0.617528
20
0.93488
11
0.618641
21
0.933194
0
LINE
8
BLACK
6
CONTINUOUS
10
0.618641
20
0.933194
11
0.61841
21
0.931188
0
LINE
8
BLACK
6
CONTINUOUS
10
0.61841
20
0.931188
11
0.616535
21
0.927438
0
LINE
8
BLACK
6
CONTINUOUS
10
0.616535
20
0.927438
11
0.616009
21
0.926729
0
LINE
8
BLACK
6
CONTINUOUS
10
0.616009
20
0.926729
11
0.615982
21
0.926671
0
LINE
8
BLACK
6
CONTINUOUS
10
0.615982
20
0.926671
11
0.613524
21
0.924213
0
LINE
8
BLACK
6
CONTINUOUS
10
0.613524
20
0.924213
11
0.640938
21
0.924213
0
LINE
8
BLACK
6
CONTINUOUS
10
0.640938
20
0.924213
11
0.640938
21
0.932508
0
LINE
8
BLACK
6
CONTINUOUS
10
0.640938
20
0.932508
11
0.641116
21
0.933518
0
LINE
8
BLACK
6
CONTINUOUS
10
0.641116
20
0.933518
11
0.642414
21
0.935066
0
LINE
8
BLACK
6
CONTINUOUS
10
0.642414
20
0.935066
11
0.644403
21
0.935416
0
LINE
8
BLACK
6
CONTINUOUS
10
0.644403
20
0.935416
11
0.646152
21
0.934406
0
LINE
8
BLACK
6
CONTINUOUS
10
0.646152
20
0.934406
11
0.646843
21
0.932508
0
LINE
8
BLACK
6
CONTINUOUS
10
0.646843
20
0.932508
11
0.646843
21
0.910011
0
LINE
8
BLACK
6
CONTINUOUS
10
0.646843
20
0.910011
11
0.646665
21
0.909001
0
LINE
8
BLACK
6
CONTINUOUS
10
0.646665
20
0.909001
11
0.645367
21
0.907454
0
LINE
8
BLACK
6
CONTINUOUS
10
0.645367
20
0.907454
11
0.643378
21
0.907103
0
LINE
8
BLACK
6
CONTINUOUS
10
0.643378
20
0.907103
11
0.641629
21
0.908113
0
LINE
8
BLACK
6
CONTINUOUS
10
0.641629
20
0.908113
11
0.640938
21
0.910011
0
LINE
8
BLACK
6
CONTINUOUS
10
0.640938
20
0.910011
11
0.640938
21
0.918307
0
LINE
8
BLACK
6
CONTINUOUS
10
0.640938
20
0.918307
11
0.60452
21
0.918307
0
LINE
8
BLACK
6
CONTINUOUS
10
0.60452
20
0.918307
11
0.603511
21
0.918485
0
LINE
8
BLACK
6
CONTINUOUS
10
0.603511
20
0.918485
11
0.60338
21
0.918594
0
LINE
8
BLACK
6
CONTINUOUS
10
0.60338
20
0.918594
11
0.603212
21
0.918613
0
LINE
8
BLACK
6
CONTINUOUS
10
0.603212
20
0.918613
11
0.60262
21
0.919233
0
LINE
8
BLACK
6
CONTINUOUS
10
0.60262
20
0.919233
11
0.601963
21
0.919783
0
LINE
8
BLACK
6
CONTINUOUS
10
0.601963
20
0.919783
11
0.601934
21
0.919951
0
LINE
8
BLACK
6
CONTINUOUS
10
0.601934
20
0.919951
11
0.601816
21
0.920073
0
LINE
8
BLACK
6
CONTINUOUS
10
0.601816
20
0.920073
11
0.601761
21
0.920929
0
LINE
8
BLACK
6
CONTINUOUS
10
0.601761
20
0.920929
11
0.601613
21
0.921773
0
LINE
8
BLACK
6
CONTINUOUS
10
0.601613
20
0.921773
11
0.601697
21
0.92192
0
LINE
8
BLACK
6
CONTINUOUS
10
0.601697
20
0.92192
11
0.601686
21
0.922089
0
LINE
8
BLACK
6
CONTINUOUS
10
0.601686
20
0.922089
11
0.602194
21
0.92278
0
LINE
8
BLACK
6
CONTINUOUS
10
0.602194
20
0.92278
11
0.602622
21
0.923522
0
LINE
8
BLACK
6
CONTINUOUS
10
0.602622
20
0.923522
11
0.602782
21
0.92358
0
LINE
8
BLACK
6
CONTINUOUS
10
0.602782
20
0.92358
11
0.602883
21
0.923717
0
LINE
8
BLACK
6
CONTINUOUS
10
0.602883
20
0.923717
11
0.608264
21
0.927304
0
LINE
8
BLACK
6
CONTINUOUS
10
0.608264
20
0.927304
11
0.611467
21
0.930508
0
LINE
8
BLACK
6
CONTINUOUS
10
0.611467
20
0.930508
11
0.613128
21
0.933829
0
LINE
8
BLACK
6
CONTINUOUS
10
0.613128
20
0.933829
11
0.613739
21
0.934653
0
LINE
8
BLACK
6
CONTINUOUS
10
0.613739
20
0.934653
11
0.615592
21
0.935456
0
LINE
8
BLACK
6
CONTINUOUS
10
0.615592
20
0.935456
11
0.617528
21
0.93488
0
LINE
8
BLACK
6
CONTINUOUS
10
0.627598
20
0.974729
11
0.627734
21
0.974743
0
LINE
8
BLACK
6
CONTINUOUS
10
0.627734
20
0.974743
11
0.635233
21
0.972868
0
LINE
8
BLACK
6
CONTINUOUS
10
0.635233
20
0.972868
11
0.635698
21
0.972661
0
LINE
8
BLACK
6
CONTINUOUS
10
0.635698
20
0.972661
11
0.635837
21
0.972645
0
LINE
8
BLACK
6
CONTINUOUS
10
0.635837
20
0.972645
11
0.639587
21
0.97077
0
LINE
8
BLACK
6
CONTINUOUS
10
0.639587
20
0.97077
11
0.640296
21
0.970244
0
LINE
8
BLACK
6
CONTINUOUS
10
0.640296
20
0.970244
11
0.640354
21
0.970217
0
LINE
8
BLACK
6
CONTINUOUS
10
0.640354
20
0.970217
11
0.644104
21
0.966467
0
LINE
8
BLACK
6
CONTINUOUS
10
0.644104
20
0.966467
11
0.644692
21
0.965627
0
LINE
8
BLACK
6
CONTINUOUS
10
0.644692
20
0.965627
11
0.644707
21
0.965451
0
LINE
8
BLACK
6
CONTINUOUS
10
0.644707
20
0.965451
11
0.644817
21
0.965313
0
LINE
8
BLACK
6
CONTINUOUS
10
0.644817
20
0.965313
11
0.646692
21
0.959689
0
LINE
8
BLACK
6
CONTINUOUS
10
0.646692
20
0.959689
11
0.646821
21
0.958816
0
LINE
8
BLACK
6
CONTINUOUS
10
0.646821
20
0.958816
11
0.646843
21
0.958755
0
LINE
8
BLACK
6
CONTINUOUS
10
0.646843
20
0.958755
11
0.646843
21
0.955006
0
LINE
8
BLACK
6
CONTINUOUS
10
0.646843
20
0.955006
11
0.64669
21
0.954136
0
LINE
8
BLACK
6
CONTINUOUS
10
0.64669
20
0.954136
11
0.646692
21
0.954072
0
LINE
8
BLACK
6
CONTINUOUS
10
0.646692
20
0.954072
11
0.644817
21
0.948448
0
LINE
8
BLACK
6
CONTINUOUS
10
0.644817
20
0.948448
11
0.644329
21
0.947546
0
LINE
8
BLACK
6
CONTINUOUS
10
0.644329
20
0.947546
11
0.644178
21
0.947453
0
LINE
8
BLACK
6
CONTINUOUS
10
0.644178
20
0.947453
11
0.644104
21
0.947293
0
LINE
8
BLACK
6
CONTINUOUS
10
0.644104
20
0.947293
11
0.642229
21
0.945419
0
LINE
8
BLACK
6
CONTINUOUS
10
0.642229
20
0.945419
11
0.641389
21
0.94483
0
LINE
8
BLACK
6
CONTINUOUS
10
0.641389
20
0.94483
11
0.639377
21
0.944654
0
LINE
8
BLACK
6
CONTINUOUS
10
0.639377
20
0.944654
11
0.637722
21
0.945813
0
LINE
8
BLACK
6
CONTINUOUS
10
0.637722
20
0.945813
11
0.637199
21
0.947764
0
LINE
8
BLACK
6
CONTINUOUS
10
0.637199
20
0.947764
11
0.638053
21
0.949595
0
LINE
8
BLACK
6
CONTINUOUS
10
0.638053
20
0.949595
11
0.639435
21
0.950976
0
LINE
8
BLACK
6
CONTINUOUS
10
0.639435
20
0.950976
11
0.640938
21
0.955485
0
LINE
8
BLACK
6
CONTINUOUS
10
0.640938
20
0.955485
11
0.640938
21
0.958276
0
LINE
8
BLACK
6
CONTINUOUS
10
0.640938
20
0.958276
11
0.639435
21
0.962784
0
LINE
8
BLACK
6
CONTINUOUS
10
0.639435
20
0.962784
11
0.636517
21
0.965702
0
LINE
8
BLACK
6
CONTINUOUS
10
0.636517
20
0.965702
11
0.633486
21
0.967218
0
LINE
8
BLACK
6
CONTINUOUS
10
0.633486
20
0.967218
11
0.626654
21
0.968926
0
LINE
8
BLACK
6
CONTINUOUS
10
0.626654
20
0.968926
11
0.621757
21
0.968926
0
LINE
8
BLACK
6
CONTINUOUS
10
0.621757
20
0.968926
11
0.614925
21
0.967218
0
LINE
8
BLACK
6
CONTINUOUS
10
0.614925
20
0.967218
11
0.611894
21
0.965702
0
LINE
8
BLACK
6
CONTINUOUS
10
0.611894
20
0.965702
11
0.608976
21
0.962784
0
LINE
8
BLACK
6
CONTINUOUS
10
0.608976
20
0.962784
11
0.607473
21
0.958276
0
LINE
8
BLACK
6
CONTINUOUS
10
0.607473
20
0.958276
11
0.607473
21
0.955485
0
LINE
8
BLACK
6
CONTINUOUS
10
0.607473
20
0.955485
11
0.608976
21
0.950976
0
LINE
8
BLACK
6
CONTINUOUS
10
0.608976
20
0.950976
11
0.610358
21
0.949594
0
LINE
8
BLACK
6
CONTINUOUS
10
0.610358
20
0.949594
11
0.610946
21
0.948754
0
LINE
8
BLACK
6
CONTINUOUS
10
0.610946
20
0.948754
11
0.611122
21
0.946742
0
LINE
8
BLACK
6
CONTINUOUS
10
0.611122
20
0.946742
11
0.609964
21
0.945088
0
LINE
8
BLACK
6
CONTINUOUS
10
0.609964
20
0.945088
11
0.608013
21
0.944565
0
LINE
8
BLACK
6
CONTINUOUS
10
0.608013
20
0.944565
11
0.606182
21
0.945419
0
LINE
8
BLACK
6
CONTINUOUS
10
0.606182
20
0.945419
11
0.604307
21
0.947293
0
LINE
8
BLACK
6
CONTINUOUS
10
0.604307
20
0.947293
11
0.603719
21
0.948133
0
LINE
8
BLACK
6
CONTINUOUS
10
0.603719
20
0.948133
11
0.603704
21
0.948309
0
LINE
8
BLACK
6
CONTINUOUS
10
0.603704
20
0.948309
11
0.603594
21
0.948448
0
LINE
8
BLACK
6
CONTINUOUS
10
0.603594
20
0.948448
11
0.601719
21
0.954072
0
LINE
8
BLACK
6
CONTINUOUS
10
0.601719
20
0.954072
11
0.60159
21
0.954945
0
LINE
8
BLACK
6
CONTINUOUS
10
0.60159
20
0.954945
11
0.601568
21
0.955006
0
LINE
8
BLACK
6
CONTINUOUS
10
0.601568
20
0.955006
11
0.601568
21
0.958755
0
LINE
8
BLACK
6
CONTINUOUS
10
0.601568
20
0.958755
11
0.601721
21
0.959625
0
LINE
8
BLACK
6
CONTINUOUS
10
0.601721
20
0.959625
11
0.601719
21
0.959689
0
LINE
8
BLACK
6
CONTINUOUS
10
0.601719
20
0.959689
11
0.603594
21
0.965313
0
LINE
8
BLACK
6
CONTINUOUS
10
0.603594
20
0.965313
11
0.604082
21
0.966215
0
LINE
8
BLACK
6
CONTINUOUS
10
0.604082
20
0.966215
11
0.604233
21
0.966307
0
LINE
8
BLACK
6
CONTINUOUS
10
0.604233
20
0.966307
11
0.604307
21
0.966467
0
LINE
8
BLACK
6
CONTINUOUS
10
0.604307
20
0.966467
11
0.608057
21
0.970217
0
LINE
8
BLACK
6
CONTINUOUS
10
0.608057
20
0.970217
11
0.60878
21
0.970723
0
LINE
8
BLACK
6
CONTINUOUS
10
0.60878
20
0.970723
11
0.608824
21
0.97077
0
LINE
8
BLACK
6
CONTINUOUS
10
0.608824
20
0.97077
11
0.612574
21
0.972645
0
LINE
8
BLACK
6
CONTINUOUS
10
0.612574
20
0.972645
11
0.613062
21
0.97279
0
LINE
8
BLACK
6
CONTINUOUS
10
0.613062
20
0.97279
11
0.613178
21
0.972868
0
LINE
8
BLACK
6
CONTINUOUS
10
0.613178
20
0.972868
11
0.620677
21
0.974743
0
LINE
8
BLACK
6
CONTINUOUS
10
0.620677
20
0.974743
11
0.621265
21
0.974785
0
LINE
8
BLACK
6
CONTINUOUS
10
0.621265
20
0.974785
11
0.621393
21
0.974831
0
LINE
8
BLACK
6
CONTINUOUS
10
0.621393
20
0.974831
11
0.627018
21
0.974831
0
LINE
8
BLACK
6
CONTINUOUS
10
0.627018
20
0.974831
11
0.627598
21
0.974729
0
LINE
8
BLACK
6
CONTINUOUS
10
1.09719
20
1.00062
11
1.09732
21
1.0005
0
LINE
8
BLACK
6
CONTINUOUS
10
1.09732
20
1.0005
11
1.0975
21
1.00048
0
LINE
8
BLACK
6
CONTINUOUS
10
1.0975
20
1.00048
11
1.10125
21
0.998608
0
LINE
8
BLACK
6
CONTINUOUS
10
1.10125
20
0.998608
11
1.10195
21
0.998082
0
LINE
8
BLACK
6
CONTINUOUS
10
1.10195
20
0.998082
11
1.10201
21
0.998055
0
LINE
8
BLACK
6
CONTINUOUS
10
1.10201
20
0.998055
11
1.10389
21
0.99618
0
LINE
8
BLACK
6
CONTINUOUS
10
1.10389
20
0.99618
11
1.10448
21
0.99534
0
LINE
8
BLACK
6
CONTINUOUS
10
1.10448
20
0.99534
11
1.10465
21
0.993328
0
LINE
8
BLACK
6
CONTINUOUS
10
1.10465
20
0.993328
11
1.10349
21
0.991673
0
LINE
8
BLACK
6
CONTINUOUS
10
1.10349
20
0.991673
11
1.10154
21
0.991151
0
LINE
8
BLACK
6
CONTINUOUS
10
1.10154
20
0.991151
11
1.09971
21
0.992004
0
LINE
8
BLACK
6
CONTINUOUS
10
1.09971
20
0.992004
11
1.09818
21
0.99354
0
LINE
8
BLACK
6
CONTINUOUS
10
1.09818
20
0.99354
11
1.09548
21
0.994889
0
LINE
8
BLACK
6
CONTINUOUS
10
1.09548
20
0.994889
11
1.0875
21
0.994889
0
LINE
8
BLACK
6
CONTINUOUS
10
1.0875
20
0.994889
11
1.0848
21
0.99354
0
LINE
8
BLACK
6
CONTINUOUS
10
1.0848
20
0.99354
11
1.0836
21
0.992343
0
LINE
8
BLACK
6
CONTINUOUS
10
1.0836
20
0.992343
11
1.08226
21
0.989646
0
LINE
8
BLACK
6
CONTINUOUS
10
1.08226
20
0.989646
11
1.08226
21
0.987072
0
LINE
8
BLACK
6
CONTINUOUS
10
1.08226
20
0.987072
11
1.08376
21
0.982564
0
LINE
8
BLACK
6
CONTINUOUS
10
1.08376
20
0.982564
11
1.10576
21
0.96056
0
LINE
8
BLACK
6
CONTINUOUS
10
1.10576
20
0.96056
11
1.10613
21
0.960032
0
LINE
8
BLACK
6
CONTINUOUS
10
1.10613
20
0.960032
11
1.10623
21
0.959948
0
LINE
8
BLACK
6
CONTINUOUS
10
1.10623
20
0.959948
11
1.10625
21
0.95987
0
LINE
8
BLACK
6
CONTINUOUS
10
1.10625
20
0.95987
11
1.10635
21
0.95972
0
LINE
8
BLACK
6
CONTINUOUS
10
1.10635
20
0.95972
11
1.10643
21
0.958834
0
LINE
8
BLACK
6
CONTINUOUS
10
1.10643
20
0.958834
11
1.10658
21
0.957959
0
LINE
8
BLACK
6
CONTINUOUS
10
1.10658
20
0.957959
11
1.10651
21
0.957842
0
LINE
8
BLACK
6
CONTINUOUS
10
1.10651
20
0.957842
11
1.10653
21
0.957707
0
LINE
8
BLACK
6
CONTINUOUS
10
1.10653
20
0.957707
11
1.10602
21
0.956979
0
LINE
8
BLACK
6
CONTINUOUS
10
1.10602
20
0.956979
11
1.10557
21
0.95621
0
LINE
8
BLACK
6
CONTINUOUS
10
1.10557
20
0.95621
11
1.10545
21
0.956164
0
LINE
8
BLACK
6
CONTINUOUS
10
1.10545
20
0.956164
11
1.10537
21
0.956053
0
LINE
8
BLACK
6
CONTINUOUS
10
1.10537
20
0.956053
11
1.10451
21
0.955823
0
LINE
8
BLACK
6
CONTINUOUS
10
1.10451
20
0.955823
11
1.10367
21
0.955519
0
LINE
8
BLACK
6
CONTINUOUS
10
1.10367
20
0.955519
11
1.0793
21
0.955519
0
LINE
8
BLACK
6
CONTINUOUS
10
1.0793
20
0.955519
11
1.07829
21
0.955697
0
LINE
8
BLACK
6
CONTINUOUS
10
1.07829
20
0.955697
11
1.07675
21
0.956995
0
LINE
8
BLACK
6
CONTINUOUS
10
1.07675
20
0.956995
11
1.07639
21
0.958984
0
LINE
8
BLACK
6
CONTINUOUS
10
1.07639
20
0.958984
11
1.0774
21
0.960734
0
LINE
8
BLACK
6
CONTINUOUS
10
1.0774
20
0.960734
11
1.0793
21
0.961424
0
LINE
8
BLACK
6
CONTINUOUS
10
1.0793
20
0.961424
11
1.09655
21
0.961424
0
LINE
8
BLACK
6
CONTINUOUS
10
1.09655
20
0.961424
11
1.07909
21
0.978881
0
LINE
8
BLACK
6
CONTINUOUS
10
1.07909
20
0.978881
11
1.0785
21
0.979721
0
LINE
8
BLACK
6
CONTINUOUS
10
1.0785
20
0.979721
11
1.07849
21
0.979897
0
LINE
8
BLACK
6
CONTINUOUS
10
1.07849
20
0.979897
11
1.07838
21
0.980035
0
LINE
8
BLACK
6
CONTINUOUS
10
1.07838
20
0.980035
11
1.0765
21
0.985659
0
LINE
8
BLACK
6
CONTINUOUS
10
1.0765
20
0.985659
11
1.07637
21
0.986533
0
LINE
8
BLACK
6
CONTINUOUS
10
1.07637
20
0.986533
11
1.07635
21
0.986593
0
LINE
8
BLACK
6
CONTINUOUS
10
1.07635
20
0.986593
11
1.07635
21
0.990343
0
LINE
8
BLACK
6
CONTINUOUS
10
1.07635
20
0.990343
11
1.07653
21
0.991353
0
LINE
8
BLACK
6
CONTINUOUS
10
1.07653
20
0.991353
11
1.07664
21
0.991488
0
LINE
8
BLACK
6
CONTINUOUS
10
1.07664
20
0.991488
11
1.07666
21
0.991663
0
LINE
8
BLACK
6
CONTINUOUS
10
1.07666
20
0.991663
11
1.07854
21
0.995413
0
LINE
8
BLACK
6
CONTINUOUS
10
1.07854
20
0.995413
11
1.07906
21
0.996122
0
LINE
8
BLACK
6
CONTINUOUS
10
1.07906
20
0.996122
11
1.07909
21
0.99618
0
LINE
8
BLACK
6
CONTINUOUS
10
1.07909
20
0.99618
11
1.08096
21
0.998055
0
LINE
8
BLACK
6
CONTINUOUS
10
1.08096
20
0.998055
11
1.08169
21
0.998561
0
LINE
8
BLACK
6
CONTINUOUS
10
1.08169
20
0.998561
11
1.08173
21
0.998608
0
LINE
8
BLACK
6
CONTINUOUS
10
1.08173
20
0.998608
11
1.08548
21
1.00048
0
LINE
8
BLACK
6
CONTINUOUS
10
1.08548
20
1.00048
11
1.08646
21
1.00078
0
LINE
8
BLACK
6
CONTINUOUS
10
1.08646
20
1.00078
11
1.08664
21
1.00073
0
LINE
8
BLACK
6
CONTINUOUS
10
1.08664
20
1.00073
11
1.0868
21
1.00079
0
LINE
8
BLACK
6
CONTINUOUS
10
1.0868
20
1.00079
11
1.09618
21
1.00079
0
LINE
8
BLACK
6
CONTINUOUS
10
1.09618
20
1.00079
11
1.09719
21
1.00062
0
LINE
8
BLACK
6
CONTINUOUS
10
1.13968
20
1.00073
11
1.13981
21
1.00075
0
LINE
8
BLACK
6
CONTINUOUS
10
1.13981
20
1.00075
11
1.13992
21
1.00068
0
LINE
8
BLACK
6
CONTINUOUS
10
1.13992
20
1.00068
11
1.1403
21
1.00062
0
LINE
8
BLACK
6
CONTINUOUS
10
1.1403
20
1.00062
11
1.14089
21
1.00012
0
LINE
8
BLACK
6
CONTINUOUS
10
1.14089
20
1.00012
11
1.14156
21
0.99974
0
LINE
8
BLACK
6
CONTINUOUS
10
1.14156
20
0.99974
11
1.14165
21
0.999489
0
LINE
8
BLACK
6
CONTINUOUS
10
1.14165
20
0.999489
11
1.14185
21
0.999318
0
LINE
8
BLACK
6
CONTINUOUS
10
1.14185
20
0.999318
11
1.14199
21
0.998563
0
LINE
8
BLACK
6
CONTINUOUS
10
1.14199
20
0.998563
11
1.14225
21
0.997842
0
LINE
8
BLACK
6
CONTINUOUS
10
1.14225
20
0.997842
11
1.14225
21
0.958472
0
LINE
8
BLACK
6
CONTINUOUS
10
1.14225
20
0.958472
11
1.14207
21
0.957462
0
LINE
8
BLACK
6
CONTINUOUS
10
1.14207
20
0.957462
11
1.14077
21
0.955915
0
LINE
8
BLACK
6
CONTINUOUS
10
1.14077
20
0.955915
11
1.13878
21
0.955564
0
LINE
8
BLACK
6
CONTINUOUS
10
1.13878
20
0.955564
11
1.13703
21
0.956574
0
LINE
8
BLACK
6
CONTINUOUS
10
1.13703
20
0.956574
11
1.13634
21
0.958472
0
LINE
8
BLACK
6
CONTINUOUS
10
1.13634
20
0.958472
11
1.13634
21
0.974267
0
LINE
8
BLACK
6
CONTINUOUS
10
1.13634
20
0.974267
11
1.13146
21
0.974267
0
LINE
8
BLACK
6
CONTINUOUS
10
1.13146
20
0.974267
11
1.11922
21
0.956778
0
LINE
8
BLACK
6
CONTINUOUS
10
1.11922
20
0.956778
11
1.11849
21
0.956053
0
LINE
8
BLACK
6
CONTINUOUS
10
1.11849
20
0.956053
11
1.11654
21
0.95553
0
LINE
8
BLACK
6
CONTINUOUS
10
1.11654
20
0.95553
11
1.11471
21
0.956383
0
LINE
8
BLACK
6
CONTINUOUS
10
1.11471
20
0.956383
11
1.11386
21
0.958214
0
LINE
8
BLACK
6
CONTINUOUS
10
1.11386
20
0.958214
11
1.11438
21
0.960165
0
LINE
8
BLACK
6
CONTINUOUS
10
1.11438
20
0.960165
11
1.12426
21
0.974274
0
LINE
8
BLACK
6
CONTINUOUS
10
1.12426
20
0.974274
11
1.12329
21
0.974445
0
LINE
8
BLACK
6
CONTINUOUS
10
1.12329
20
0.974445
11
1.12315
21
0.974558
0
LINE
8
BLACK
6
CONTINUOUS
10
1.12315
20
0.974558
11
1.12298
21
0.974578
0
LINE
8
BLACK
6
CONTINUOUS
10
1.12298
20
0.974578
11
1.11923
21
0.976453
0
LINE
8
BLACK
6
CONTINUOUS
10
1.11923
20
0.976453
11
1.11852
21
0.976979
0
LINE
8
BLACK
6
CONTINUOUS
10
1.11852
20
0.976979
11
1.11846
21
0.977006
0
LINE
8
BLACK
6
CONTINUOUS
10
1.11846
20
0.977006
11
1.11658
21
0.978881
0
LINE
8
BLACK
6
CONTINUOUS
10
1.11658
20
0.978881
11
1.11608
21
0.979604
0
LINE
8
BLACK
6
CONTINUOUS
10
1.11608
20
0.979604
11
1.11603
21
0.979648
0
LINE
8
BLACK
6
CONTINUOUS
10
1.11603
20
0.979648
11
1.11416
21
0.983398
0
LINE
8
BLACK
6
CONTINUOUS
10
1.11416
20
0.983398
11
1.11386
21
0.984381
0
LINE
8
BLACK
6
CONTINUOUS
10
1.11386
20
0.984381
11
1.11391
21
0.984553
0
LINE
8
BLACK
6
CONTINUOUS
10
1.11391
20
0.984553
11
1.11385
21
0.984718
0
LINE
8
BLACK
6
CONTINUOUS
10
1.11385
20
0.984718
11
1.11385
21
0.990343
0
LINE
8
BLACK
6
CONTINUOUS
10
1.11385
20
0.990343
11
1.11402
21
0.991353
0
LINE
8
BLACK
6
CONTINUOUS
10
1.11402
20
0.991353
11
1.11414
21
0.991488
0
LINE
8
BLACK
6
CONTINUOUS
10
1.11414
20
0.991488
11
1.11416
21
0.991663
0
LINE
8
BLACK
6
CONTINUOUS
10
1.11416
20
0.991663
11
1.11603
21
0.995413
0
LINE
8
BLACK
6
CONTINUOUS
10
1.11603
20
0.995413
11
1.11656
21
0.996122
0
LINE
8
BLACK
6
CONTINUOUS
10
1.11656
20
0.996122
11
1.11658
21
0.99618
0
LINE
8
BLACK
6
CONTINUOUS
10
1.11658
20
0.99618
11
1.11846
21
0.998055
0
LINE
8
BLACK
6
CONTINUOUS
10
1.11846
20
0.998055
11
1.11918
21
0.998561
0
LINE
8
BLACK
6
CONTINUOUS
10
1.11918
20
0.998561
11
1.11923
21
0.998608
0
LINE
8
BLACK
6
CONTINUOUS
10
1.11923
20
0.998608
11
1.12298
21
1.00048
0
LINE
8
BLACK
6
CONTINUOUS
10
1.12298
20
1.00048
11
1.12396
21
1.00078
0
LINE
8
BLACK
6
CONTINUOUS
10
1.12396
20
1.00078
11
1.12413
21
1.00073
0
LINE
8
BLACK
6
CONTINUOUS
10
1.12413
20
1.00073
11
1.1243
21
1.00079
0
LINE
8
BLACK
6
CONTINUOUS
10
1.1243
20
1.00079
11
1.1393
21
1.00079
0
LINE
8
BLACK
6
CONTINUOUS
10
1.1393
20
1.00079
11
1.13968
21
1.00073
0
LINE
8
BLACK
6
CONTINUOUS
10
1.1223
20
0.99354
11
1.1211
21
0.992343
0
LINE
8
BLACK
6
CONTINUOUS
10
1.1211
20
0.992343
11
1.11975
21
0.989646
0
LINE
8
BLACK
6
CONTINUOUS
10
1.11975
20
0.989646
11
1.11975
21
0.985415
0
LINE
8
BLACK
6
CONTINUOUS
10
1.11975
20
0.985415
11
1.1211
21
0.982718
0
LINE
8
BLACK
6
CONTINUOUS
10
1.1211
20
0.982718
11
1.1223
21
0.981521
0
LINE
8
BLACK
6
CONTINUOUS
10
1.1223
20
0.981521
11
1.12499
21
0.980172
0
LINE
8
BLACK
6
CONTINUOUS
10
1.12499
20
0.980172
11
1.13634
21
0.980172
0
LINE
8
BLACK
6
CONTINUOUS
10
1.13634
20
0.980172
11
1.13634
21
0.994889
0
LINE
8
BLACK
6
CONTINUOUS
10
1.13634
20
0.994889
11
1.12499
21
0.994889
0
LINE
8
BLACK
6
CONTINUOUS
10
1.12499
20
0.994889
11
1.1223
21
0.99354
0
LINE
8
BLACK
6
CONTINUOUS
10
0.876713
20
1.0203
11
0.876848
21
1.02019
0
LINE
8
BLACK
6
CONTINUOUS
10
0.876848
20
1.02019
11
0.877024
21
1.02017
0
LINE
8
BLACK
6
CONTINUOUS
10
0.877024
20
1.02017
11
0.880773
21
1.01829
0
LINE
8
BLACK
6
CONTINUOUS
10
0.880773
20
1.01829
11
0.881482
21
1.01777
0
LINE
8
BLACK
6
CONTINUOUS
10
0.881482
20
1.01777
11
0.88154
21
1.01774
0
LINE
8
BLACK
6
CONTINUOUS
10
0.88154
20
1.01774
11
0.883415
21
1.01587
0
LINE
8
BLACK
6
CONTINUOUS
10
0.883415
20
1.01587
11
0.884003
21
1.01503
0
LINE
8
BLACK
6
CONTINUOUS
10
0.884003
20
1.01503
11
0.884179
21
1.01301
0
LINE
8
BLACK
6
CONTINUOUS
10
0.884179
20
1.01301
11
0.883021
21
1.01136
0
LINE
8
BLACK
6
CONTINUOUS
10
0.883021
20
1.01136
11
0.88107
21
1.01084
0
LINE
8
BLACK
6
CONTINUOUS
10
0.88107
20
1.01084
11
0.879239
21
1.01169
0
LINE
8
BLACK
6
CONTINUOUS
10
0.879239
20
1.01169
11
0.877703
21
1.01323
0
LINE
8
BLACK
6
CONTINUOUS
10
0.877703
20
1.01323
11
0.875006
21
1.01457
0
LINE
8
BLACK
6
CONTINUOUS
10
0.875006
20
1.01457
11
0.867026
21
1.01457
0
LINE
8
BLACK
6
CONTINUOUS
10
0.867026
20
1.01457
11
0.864329
21
1.01323
0
LINE
8
BLACK
6
CONTINUOUS
10
0.864329
20
1.01323
11
0.863132
21
1.01203
0
LINE
8
BLACK
6
CONTINUOUS
10
0.863132
20
1.01203
11
0.861783
21
1.00933
0
LINE
8
BLACK
6
CONTINUOUS
10
0.861783
20
1.00933
11
0.861783
21
1.00676
0
LINE
8
BLACK
6
CONTINUOUS
10
0.861783
20
1.00676
11
0.863286
21
1.00225
0
LINE
8
BLACK
6
CONTINUOUS
10
0.863286
20
1.00225
11
0.88529
21
0.980245
0
LINE
8
BLACK
6
CONTINUOUS
10
0.88529
20
0.980245
11
0.88566
21
0.979717
0
LINE
8
BLACK
6
CONTINUOUS
10
0.88566
20
0.979717
11
0.885759
21
0.979633
0
LINE
8
BLACK
6
CONTINUOUS
10
0.885759
20
0.979633
11
0.885773
21
0.979555
0
LINE
8
BLACK
6
CONTINUOUS
10
0.885773
20
0.979555
11
0.885878
21
0.979405
0
LINE
8
BLACK
6
CONTINUOUS
10
0.885878
20
0.979405
11
0.885956
21
0.978519
0
LINE
8
BLACK
6
CONTINUOUS
10
0.885956
20
0.978519
11
0.88611
21
0.977644
0
LINE
8
BLACK
6
CONTINUOUS
10
0.88611
20
0.977644
11
0.886042
21
0.977527
0
LINE
8
BLACK
6
CONTINUOUS
10
0.886042
20
0.977527
11
0.886054
21
0.977392
0
LINE
8
BLACK
6
CONTINUOUS
10
0.886054
20
0.977392
11
0.885544
21
0.976664
0
LINE
8
BLACK
6
CONTINUOUS
10
0.885544
20
0.976664
11
0.8851
21
0.975895
0
LINE
8
BLACK
6
CONTINUOUS
10
0.8851
20
0.975895
11
0.884973
21
0.975849
0
LINE
8
BLACK
6
CONTINUOUS
10
0.884973
20
0.975849
11
0.884896
21
0.975738
0
LINE
8
BLACK
6
CONTINUOUS
10
0.884896
20
0.975738
11
0.884037
21
0.975508
0
LINE
8
BLACK
6
CONTINUOUS
10
0.884037
20
0.975508
11
0.883202
21
0.975204
0
LINE
8
BLACK
6
CONTINUOUS
10
0.883202
20
0.975204
11
0.85883
21
0.975204
0
LINE
8
BLACK
6
CONTINUOUS
10
0.85883
20
0.975204
11
0.85782
21
0.975382
0
LINE
8
BLACK
6
CONTINUOUS
10
0.85782
20
0.975382
11
0.856273
21
0.97668
0
LINE
8
BLACK
6
CONTINUOUS
10
0.856273
20
0.97668
11
0.855922
21
0.978669
0
LINE
8
BLACK
6
CONTINUOUS
10
0.855922
20
0.978669
11
0.856932
21
0.980419
0
LINE
8
BLACK
6
CONTINUOUS
10
0.856932
20
0.980419
11
0.85883
21
0.981109
0
LINE
8
BLACK
6
CONTINUOUS
10
0.85883
20
0.981109
11
0.876073
21
0.981109
0
LINE
8
BLACK
6
CONTINUOUS
10
0.876073
20
0.981109
11
0.858617
21
0.998566
0
LINE
8
BLACK
6
CONTINUOUS
10
0.858617
20
0.998566
11
0.858029
21
0.999406
0
LINE
8
BLACK
6
CONTINUOUS
10
0.858029
20
0.999406
11
0.858013
21
0.999582
0
LINE
8
BLACK
6
CONTINUOUS
10
0.858013
20
0.999582
11
0.857904
21
0.99972
0
LINE
8
BLACK
6
CONTINUOUS
10
0.857904
20
0.99972
11
0.856029
21
1.00534
0
LINE
8
BLACK
6
CONTINUOUS
10
0.856029
20
1.00534
11
0.855899
21
1.00622
0
LINE
8
BLACK
6
CONTINUOUS
10
0.855899
20
1.00622
11
0.855877
21
1.00628
0
LINE
8
BLACK
6
CONTINUOUS
10
0.855877
20
1.00628
11
0.855877
21
1.01003
0
LINE
8
BLACK
6
CONTINUOUS
10
0.855877
20
1.01003
11
0.856055
21
1.01104
0
LINE
8
BLACK
6
CONTINUOUS
10
0.856055
20
1.01104
11
0.856169
21
1.01117
0
LINE
8
BLACK
6
CONTINUOUS
10
0.856169
20
1.01117
11
0.856189
21
1.01135
0
LINE
8
BLACK
6
CONTINUOUS
10
0.856189
20
1.01135
11
0.858064
21
1.0151
0
LINE
8
BLACK
6
CONTINUOUS
10
0.858064
20
1.0151
11
0.85859
21
1.01581
0
LINE
8
BLACK
6
CONTINUOUS
10
0.85859
20
1.01581
11
0.858617
21
1.01587
0
LINE
8
BLACK
6
CONTINUOUS
10
0.858617
20
1.01587
11
0.860492
21
1.01774
0
LINE
8
BLACK
6
CONTINUOUS
10
0.860492
20
1.01774
11
0.861215
21
1.01825
0
LINE
8
BLACK
6
CONTINUOUS
10
0.861215
20
1.01825
11
0.861259
21
1.01829
0
LINE
8
BLACK
6
CONTINUOUS
10
0.861259
20
1.01829
11
0.865009
21
1.02017
0
LINE
8
BLACK
6
CONTINUOUS
10
0.865009
20
1.02017
11
0.865992
21
1.02046
0
LINE
8
BLACK
6
CONTINUOUS
10
0.865992
20
1.02046
11
0.866163
21
1.02042
0
LINE
8
BLACK
6
CONTINUOUS
10
0.866163
20
1.02042
11
0.866329
21
1.02048
0
LINE
8
BLACK
6
CONTINUOUS
10
0.866329
20
1.02048
11
0.875703
21
1.02048
0
LINE
8
BLACK
6
CONTINUOUS
10
0.875703
20
1.02048
11
0.876713
21
1.0203
0
LINE
8
BLACK
6
CONTINUOUS
10
0.908443
20
1.02033
11
0.908508
21
1.02033
0
LINE
8
BLACK
6
CONTINUOUS
10
0.908508
20
1.02033
11
0.914132
21
1.01845
0
LINE
8
BLACK
6
CONTINUOUS
10
0.914132
20
1.01845
11
0.915034
21
1.01797
0
LINE
8
BLACK
6
CONTINUOUS
10
0.915034
20
1.01797
11
0.915126
21
1.01781
0
LINE
8
BLACK
6
CONTINUOUS
10
0.915126
20
1.01781
11
0.915286
21
1.01774
0
LINE
8
BLACK
6
CONTINUOUS
10
0.915286
20
1.01774
11
0.919036
21
1.01399
0
LINE
8
BLACK
6
CONTINUOUS
10
0.919036
20
1.01399
11
0.919542
21
1.01327
0
LINE
8
BLACK
6
CONTINUOUS
10
0.919542
20
1.01327
11
0.919589
21
1.01322
0
LINE
8
BLACK
6
CONTINUOUS
10
0.919589
20
1.01322
11
0.921464
21
1.00947
0
LINE
8
BLACK
6
CONTINUOUS
10
0.921464
20
1.00947
11
0.921609
21
1.00899
0
LINE
8
BLACK
6
CONTINUOUS
10
0.921609
20
1.00899
11
0.921687
21
1.00887
0
LINE
8
BLACK
6
CONTINUOUS
10
0.921687
20
1.00887
11
0.923562
21
1.00137
0
LINE
8
BLACK
6
CONTINUOUS
10
0.923562
20
1.00137
11
0.923603
21
1.00078
0
LINE
8
BLACK
6
CONTINUOUS
10
0.923603
20
1.00078
11
0.92365
21
1.00065
0
LINE
8
BLACK
6
CONTINUOUS
10
0.92365
20
1.00065
11
0.92365
21
0.99503
0
LINE
8
BLACK
6
CONTINUOUS
10
0.92365
20
0.99503
11
0.923548
21
0.994449
0
LINE
8
BLACK
6
CONTINUOUS
10
0.923548
20
0.994449
11
0.923562
21
0.994314
0
LINE
8
BLACK
6
CONTINUOUS
10
0.923562
20
0.994314
11
0.921687
21
0.986814
0
LINE
8
BLACK
6
CONTINUOUS
10
0.921687
20
0.986814
11
0.92148
21
0.986349
0
LINE
8
BLACK
6
CONTINUOUS
10
0.92148
20
0.986349
11
0.921464
21
0.98621
0
LINE
8
BLACK
6
CONTINUOUS
10
0.921464
20
0.98621
11
0.919589
21
0.982461
0
LINE
8
BLACK
6
CONTINUOUS
10
0.919589
20
0.982461
11
0.919063
21
0.981752
0
LINE
8
BLACK
6
CONTINUOUS
10
0.919063
20
0.981752
11
0.919036
21
0.981693
0
LINE
8
BLACK
6
CONTINUOUS
10
0.919036
20
0.981693
11
0.915286
21
0.977944
0
LINE
8
BLACK
6
CONTINUOUS
10
0.915286
20
0.977944
11
0.914446
21
0.977355
0
LINE
8
BLACK
6
CONTINUOUS
10
0.914446
20
0.977355
11
0.91427
21
0.97734
0
LINE
8
BLACK
6
CONTINUOUS
10
0.91427
20
0.97734
11
0.914132
21
0.97723
0
LINE
8
BLACK
6
CONTINUOUS
10
0.914132
20
0.97723
11
0.908508
21
0.975356
0
LINE
8
BLACK
6
CONTINUOUS
10
0.908508
20
0.975356
11
0.907635
21
0.975226
0
LINE
8
BLACK
6
CONTINUOUS
10
0.907635
20
0.975226
11
0.907574
21
0.975204
0
LINE
8
BLACK
6
CONTINUOUS
10
0.907574
20
0.975204
11
0.903824
21
0.975204
0
LINE
8
BLACK
6
CONTINUOUS
10
0.903824
20
0.975204
11
0.902955
21
0.975357
0
LINE
8
BLACK
6
CONTINUOUS
10
0.902955
20
0.975357
11
0.902891
21
0.975356
0
LINE
8
BLACK
6
CONTINUOUS
10
0.902891
20
0.975356
11
0.897266
21
0.97723
0
LINE
8
BLACK
6
CONTINUOUS
10
0.897266
20
0.97723
11
0.896365
21
0.977719
0
LINE
8
BLACK
6
CONTINUOUS
10
0.896365
20
0.977719
11
0.896272
21
0.977869
0
LINE
8
BLACK
6
CONTINUOUS
10
0.896272
20
0.977869
11
0.896112
21
0.977944
0
LINE
8
BLACK
6
CONTINUOUS
10
0.896112
20
0.977944
11
0.894237
21
0.979818
0
LINE
8
BLACK
6
CONTINUOUS
10
0.894237
20
0.979818
11
0.893649
21
0.980658
0
LINE
8
BLACK
6
CONTINUOUS
10
0.893649
20
0.980658
11
0.893473
21
0.982671
0
LINE
8
BLACK
6
CONTINUOUS
10
0.893473
20
0.982671
11
0.894632
21
0.984325
0
LINE
8
BLACK
6
CONTINUOUS
10
0.894632
20
0.984325
11
0.896583
21
0.984848
0
LINE
8
BLACK
6
CONTINUOUS
10
0.896583
20
0.984848
11
0.898413
21
0.983994
0
LINE
8
BLACK
6
CONTINUOUS
10
0.898413
20
0.983994
11
0.899795
21
0.982612
0
LINE
8
BLACK
6
CONTINUOUS
10
0.899795
20
0.982612
11
0.904304
21
0.981109
0
LINE
8
BLACK
6
CONTINUOUS
10
0.904304
20
0.981109
11
0.907095
21
0.981109
0
LINE
8
BLACK
6
CONTINUOUS
10
0.907095
20
0.981109
11
0.911603
21
0.982612
0
LINE
8
BLACK
6
CONTINUOUS
10
0.911603
20
0.982612
11
0.914521
21
0.98553
0
LINE
8
BLACK
6
CONTINUOUS
10
0.914521
20
0.98553
11
0.916037
21
0.988561
0
LINE
8
BLACK
6
CONTINUOUS
10
0.916037
20
0.988561
11
0.917745
21
0.995393
0
LINE
8
BLACK
6
CONTINUOUS
10
0.917745
20
0.995393
11
0.917745
21
1.00029
0
LINE
8
BLACK
6
CONTINUOUS
10
0.917745
20
1.00029
11
0.916037
21
1.00712
0
LINE
8
BLACK
6
CONTINUOUS
10
0.916037
20
1.00712
11
0.914521
21
1.01015
0
LINE
8
BLACK
6
CONTINUOUS
10
0.914521
20
1.01015
11
0.911603
21
1.01307
0
LINE
8
BLACK
6
CONTINUOUS
10
0.911603
20
1.01307
11
0.907095
21
1.01457
0
LINE
8
BLACK
6
CONTINUOUS
10
0.907095
20
1.01457
11
0.904304
21
1.01457
0
LINE
8
BLACK
6
CONTINUOUS
10
0.904304
20
1.01457
11
0.899795
21
1.01307
0
LINE
8
BLACK
6
CONTINUOUS
10
0.899795
20
1.01307
11
0.898413
21
1.01169
0
LINE
8
BLACK
6
CONTINUOUS
10
0.898413
20
1.01169
11
0.897573
21
1.0111
0
LINE
8
BLACK
6
CONTINUOUS
10
0.897573
20
1.0111
11
0.895561
21
1.01093
0
LINE
8
BLACK
6
CONTINUOUS
10
0.895561
20
1.01093
11
0.893907
21
1.01208
0
LINE
8
BLACK
6
CONTINUOUS
10
0.893907
20
1.01208
11
0.893384
21
1.01403
0
LINE
8
BLACK
6
CONTINUOUS
10
0.893384
20
1.01403
11
0.894238
21
1.01587
0
LINE
8
BLACK
6
CONTINUOUS
10
0.894238
20
1.01587
11
0.896112
21
1.01774
0
LINE
8
BLACK
6
CONTINUOUS
10
0.896112
20
1.01774
11
0.896952
21
1.01833
0
LINE
8
BLACK
6
CONTINUOUS
10
0.896952
20
1.01833
11
0.897128
21
1.01834
0
LINE
8
BLACK
6
CONTINUOUS
10
0.897128
20
1.01834
11
0.897266
21
1.01845
0
LINE
8
BLACK
6
CONTINUOUS
10
0.897266
20
1.01845
11
0.902891
21
1.02033
0
LINE
8
BLACK
6
CONTINUOUS
10
0.902891
20
1.02033
11
0.903764
21
1.02046
0
LINE
8
BLACK
6
CONTINUOUS
10
0.903764
20
1.02046
11
0.903824
21
1.02048
0
LINE
8
BLACK
6
CONTINUOUS
10
0.903824
20
1.02048
11
0.907574
21
1.02048
0
LINE
8
BLACK
6
CONTINUOUS
10
0.907574
20
1.02048
11
0.908443
21
1.02033
0
LINE
8
BLACK
6
CONTINUOUS
10
0.988849
20
1.02035
11
0.989018
21
1.02036
0
LINE
8
BLACK
6
CONTINUOUS
10
0.989018
20
1.02036
11
0.989709
21
1.01985
0
LINE
8
BLACK
6
CONTINUOUS
10
0.989709
20
1.01985
11
0.990451
21
1.01942
0
LINE
8
BLACK
6
CONTINUOUS
10
0.990451
20
1.01942
11
0.990509
21
1.01927
0
LINE
8
BLACK
6
CONTINUOUS
10
0.990509
20
1.01927
11
0.990646
21
1.01916
0
LINE
8
BLACK
6
CONTINUOUS
10
0.990646
20
1.01916
11
0.994233
21
1.01378
0
LINE
8
BLACK
6
CONTINUOUS
10
0.994233
20
1.01378
11
0.997437
21
1.01058
0
LINE
8
BLACK
6
CONTINUOUS
10
0.997437
20
1.01058
11
1.00076
21
1.00892
0
LINE
8
BLACK
6
CONTINUOUS
10
1.00076
20
1.00892
11
1.00158
21
1.00831
0
LINE
8
BLACK
6
CONTINUOUS
10
1.00158
20
1.00831
11
1.00238
21
1.00646
0
LINE
8
BLACK
6
CONTINUOUS
10
1.00238
20
1.00646
11
1.00181
21
1.00452
0
LINE
8
BLACK
6
CONTINUOUS
10
1.00181
20
1.00452
11
1.00012
21
1.00341
0
LINE
8
BLACK
6
CONTINUOUS
10
1.00012
20
1.00341
11
0.998117
21
1.00364
0
LINE
8
BLACK
6
CONTINUOUS
10
0.998117
20
1.00364
11
0.994367
21
1.00551
0
LINE
8
BLACK
6
CONTINUOUS
10
0.994367
20
1.00551
11
0.993658
21
1.00604
0
LINE
8
BLACK
6
CONTINUOUS
10
0.993658
20
1.00604
11
0.9936
21
1.00607
0
LINE
8
BLACK
6
CONTINUOUS
10
0.9936
20
1.00607
11
0.991142
21
1.00852
0
LINE
8
BLACK
6
CONTINUOUS
10
0.991142
20
1.00852
11
0.991142
21
0.981109
0
LINE
8
BLACK
6
CONTINUOUS
10
0.991142
20
0.981109
11
0.999438
21
0.981109
0
LINE
8
BLACK
6
CONTINUOUS
10
0.999438
20
0.981109
11
1.00045
21
0.980931
0
LINE
8
BLACK
6
CONTINUOUS
10
1.00045
20
0.980931
11
1.00199
21
0.979633
0
LINE
8
BLACK
6
CONTINUOUS
10
1.00199
20
0.979633
11
1.00235
21
0.977644
0
LINE
8
BLACK
6
CONTINUOUS
10
1.00235
20
0.977644
11
1.00134
21
0.975895
0
LINE
8
BLACK
6
CONTINUOUS
10
1.00134
20
0.975895
11
0.999438
21
0.975204
0
LINE
8
BLACK
6
CONTINUOUS
10
0.999438
20
0.975204
11
0.97694
21
0.975204
0
LINE
8
BLACK
6
CONTINUOUS
10
0.97694
20
0.975204
11
0.97593
21
0.975382
0
LINE
8
BLACK
6
CONTINUOUS
10
0.97593
20
0.975382
11
0.974383
21
0.97668
0
LINE
8
BLACK
6
CONTINUOUS
10
0.974383
20
0.97668
11
0.974032
21
0.978669
0
LINE
8
BLACK
6
CONTINUOUS
10
0.974032
20
0.978669
11
0.975042
21
0.980419
0
LINE
8
BLACK
6
CONTINUOUS
10
0.975042
20
0.980419
11
0.97694
21
0.981109
0
LINE
8
BLACK
6
CONTINUOUS
10
0.97694
20
0.981109
11
0.985236
21
0.981109
0
LINE
8
BLACK
6
CONTINUOUS
10
0.985236
20
0.981109
11
0.985236
21
1.01753
0
LINE
8
BLACK
6
CONTINUOUS
10
0.985236
20
1.01753
11
0.985414
21
1.01854
0
LINE
8
BLACK
6
CONTINUOUS
10
0.985414
20
1.01854
11
0.985523
21
1.01867
0
LINE
8
BLACK
6
CONTINUOUS
10
0.985523
20
1.01867
11
0.985542
21
1.01884
0
LINE
8
BLACK
6
CONTINUOUS
10
0.985542
20
1.01884
11
0.986162
21
1.01943
0
LINE
8
BLACK
6
CONTINUOUS
10
0.986162
20
1.01943
11
0.986713
21
1.02008
0
LINE
8
BLACK
6
CONTINUOUS
10
0.986713
20
1.02008
11
0.98688
21
1.02011
0
LINE
8
BLACK
6
CONTINUOUS
10
0.98688
20
1.02011
11
0.987003
21
1.02023
0
LINE
8
BLACK
6
CONTINUOUS
10
0.987003
20
1.02023
11
0.987858
21
1.02029
0
LINE
8
BLACK
6
CONTINUOUS
10
0.987858
20
1.02029
11
0.988702
21
1.02043
0
LINE
8
BLACK
6
CONTINUOUS
10
0.988702
20
1.02043
11
0.988849
21
1.02035
0
LINE
8
BLACK
6
CONTINUOUS
10
1.03732
20
1.02041
11
1.03745
21
1.02043
0
LINE
8
BLACK
6
CONTINUOUS
10
1.03745
20
1.02043
11
1.03756
21
1.02037
0
LINE
8
BLACK
6
CONTINUOUS
10
1.03756
20
1.02037
11
1.03794
21
1.0203
0
LINE
8
BLACK
6
CONTINUOUS
10
1.03794
20
1.0203
11
1.03853
21
1.01981
0
LINE
8
BLACK
6
CONTINUOUS
10
1.03853
20
1.01981
11
1.03919
21
1.01942
0
LINE
8
BLACK
6
CONTINUOUS
10
1.03919
20
1.01942
11
1.03929
21
1.01917
0
LINE
8
BLACK
6
CONTINUOUS
10
1.03929
20
1.01917
11
1.03949
21
1.019
0
LINE
8
BLACK
6
CONTINUOUS
10
1.03949
20
1.019
11
1.03962
21
1.01825
0
LINE
8
BLACK
6
CONTINUOUS
10
1.03962
20
1.01825
11
1.03989
21
1.01753
0
LINE
8
BLACK
6
CONTINUOUS
10
1.03989
20
1.01753
11
1.03989
21
0.978157
0
LINE
8
BLACK
6
CONTINUOUS
10
1.03989
20
0.978157
11
1.03971
21
0.977147
0
LINE
8
BLACK
6
CONTINUOUS
10
1.03971
20
0.977147
11
1.03841
21
0.9756
0
LINE
8
BLACK
6
CONTINUOUS
10
1.03841
20
0.9756
11
1.03642
21
0.975249
0
LINE
8
BLACK
6
CONTINUOUS
10
1.03642
20
0.975249
11
1.03467
21
0.976259
0
LINE
8
BLACK
6
CONTINUOUS
10
1.03467
20
0.976259
11
1.03398
21
0.978157
0
LINE
8
BLACK
6
CONTINUOUS
10
1.03398
20
0.978157
11
1.03398
21
0.993952
0
LINE
8
BLACK
6
CONTINUOUS
10
1.03398
20
0.993952
11
1.0291
21
0.993952
0
LINE
8
BLACK
6
CONTINUOUS
10
1.0291
20
0.993952
11
1.01685
21
0.976463
0
LINE
8
BLACK
6
CONTINUOUS
10
1.01685
20
0.976463
11
1.01613
21
0.975738
0
LINE
8
BLACK
6
CONTINUOUS
10
1.01613
20
0.975738
11
1.01418
21
0.975215
0
LINE
8
BLACK
6
CONTINUOUS
10
1.01418
20
0.975215
11
1.01235
21
0.976069
0
LINE
8
BLACK
6
CONTINUOUS
10
1.01235
20
0.976069
11
1.01149
21
0.977899
0
LINE
8
BLACK
6
CONTINUOUS
10
1.01149
20
0.977899
11
1.01202
21
0.97985
0
LINE
8
BLACK
6
CONTINUOUS
10
1.01202
20
0.97985
11
1.02189
21
0.993959
0
LINE
8
BLACK
6
CONTINUOUS
10
1.02189
20
0.993959
11
1.02092
21
0.99413
0
LINE
8
BLACK
6
CONTINUOUS
10
1.02092
20
0.99413
11
1.02079
21
0.994243
0
LINE
8
BLACK
6
CONTINUOUS
10
1.02079
20
0.994243
11
1.02061
21
0.994263
0
LINE
8
BLACK
6
CONTINUOUS
10
1.02061
20
0.994263
11
1.01686
21
0.996138
0
LINE
8
BLACK
6
CONTINUOUS
10
1.01686
20
0.996138
11
1.01616
21
0.996664
0
LINE
8
BLACK
6
CONTINUOUS
10
1.01616
20
0.996664
11
1.0161
21
0.996691
0
LINE
8
BLACK
6
CONTINUOUS
10
1.0161
20
0.996691
11
1.01422
21
0.998566
0
LINE
8
BLACK
6
CONTINUOUS
10
1.01422
20
0.998566
11
1.01372
21
0.999289
0
LINE
8
BLACK
6
CONTINUOUS
10
1.01372
20
0.999289
11
1.01367
21
0.999333
0
LINE
8
BLACK
6
CONTINUOUS
10
1.01367
20
0.999333
11
1.01179
21
1.00308
0
LINE
8
BLACK
6
CONTINUOUS
10
1.01179
20
1.00308
11
1.0115
21
1.00407
0
LINE
8
BLACK
6
CONTINUOUS
10
1.0115
20
1.00407
11
1.01154
21
1.00424
0
LINE
8
BLACK
6
CONTINUOUS
10
1.01154
20
1.00424
11
1.01148
21
1.0044
0
LINE
8
BLACK
6
CONTINUOUS
10
1.01148
20
1.0044
11
1.01148
21
1.01003
0
LINE
8
BLACK
6
CONTINUOUS
10
1.01148
20
1.01003
11
1.01166
21
1.01104
0
LINE
8
BLACK
6
CONTINUOUS
10
1.01166
20
1.01104
11
1.01177
21
1.01117
0
LINE
8
BLACK
6
CONTINUOUS
10
1.01177
20
1.01117
11
1.01179
21
1.01135
0
LINE
8
BLACK
6
CONTINUOUS
10
1.01179
20
1.01135
11
1.01367
21
1.0151
0
LINE
8
BLACK
6
CONTINUOUS
10
1.01367
20
1.0151
11
1.0142
21
1.01581
0
LINE
8
BLACK
6
CONTINUOUS
10
1.0142
20
1.01581
11
1.01422
21
1.01587
0
LINE
8
BLACK
6
CONTINUOUS
10
1.01422
20
1.01587
11
1.0161
21
1.01774
0
LINE
8
BLACK
6
CONTINUOUS
10
1.0161
20
1.01774
11
1.01682
21
1.01825
0
LINE
8
BLACK
6
CONTINUOUS
10
1.01682
20
1.01825
11
1.01686
21
1.01829
0
LINE
8
BLACK
6
CONTINUOUS
10
1.01686
20
1.01829
11
1.02061
21
1.02017
0
LINE
8
BLACK
6
CONTINUOUS
10
1.02061
20
1.02017
11
1.0216
21
1.02046
0
LINE
8
BLACK
6
CONTINUOUS
10
1.0216
20
1.02046
11
1.02177
21
1.02042
0
LINE
8
BLACK
6
CONTINUOUS
10
1.02177
20
1.02042
11
1.02193
21
1.02048
0
LINE
8
BLACK
6
CONTINUOUS
10
1.02193
20
1.02048
11
1.03693
21
1.02048
0
LINE
8
BLACK
6
CONTINUOUS
10
1.03693
20
1.02048
11
1.03732
21
1.02041
0
LINE
8
BLACK
6
CONTINUOUS
10
1.01993
20
1.01323
11
1.01874
21
1.01203
0
LINE
8
BLACK
6
CONTINUOUS
10
1.01874
20
1.01203
11
1.01739
21
1.00933
0
LINE
8
BLACK
6
CONTINUOUS
10
1.01739
20
1.00933
11
1.01739
21
1.0051
0
LINE
8
BLACK
6
CONTINUOUS
10
1.01739
20
1.0051
11
1.01874
21
1.0024
0
LINE
8
BLACK
6
CONTINUOUS
10
1.01874
20
1.0024
11
1.01993
21
1.00121
0
LINE
8
BLACK
6
CONTINUOUS
10
1.01993
20
1.00121
11
1.02263
21
0.999857
0
LINE
8
BLACK
6
CONTINUOUS
10
1.02263
20
0.999857
11
1.03398
21
0.999857
0
LINE
8
BLACK
6
CONTINUOUS
10
1.03398
20
0.999857
11
1.03398
21
1.01457
0
LINE
8
BLACK
6
CONTINUOUS
10
1.03398
20
1.01457
11
1.02263
21
1.01457
0
LINE
8
BLACK
6
CONTINUOUS
10
1.02263
20
1.01457
11
1.01993
21
1.01323
0
LINE
8
BLACK
6
CONTINUOUS
10
0.620354
20
1.00817
11
0.621046
21
1.0065
0
LINE
8
BLACK
6
CONTINUOUS
10
0.621046
20
1.0065
11
0.620354
21
1.00483
0
LINE
8
BLACK
6
CONTINUOUS
10
0.620354
20
1.00483
11
0.618684
21
1.00413
0
LINE
8
BLACK
6
CONTINUOUS
10
0.618684
20
1.00413
11
0.600805
21
1.00413
0
LINE
8
BLACK
6
CONTINUOUS
10
0.600805
20
1.00413
11
0.599134
21
1.00483
0
LINE
8
BLACK
6
CONTINUOUS
10
0.599134
20
1.00483
11
0.598442
21
1.0065
0
LINE
8
BLACK
6
CONTINUOUS
10
0.598442
20
1.0065
11
0.599134
21
1.00817
0
LINE
8
BLACK
6
CONTINUOUS
10
0.599134
20
1.00817
11
0.600805
21
1.00886
0
LINE
8
BLACK
6
CONTINUOUS
10
0.600805
20
1.00886
11
0.618684
21
1.00886
0
LINE
8
BLACK
6
CONTINUOUS
10
0.618684
20
1.00886
11
0.620354
21
1.00817
0
LINE
8
BLACK
6
CONTINUOUS
10
0.758149
20
1.00817
11
0.758841
21
1.0065
0
LINE
8
BLACK
6
CONTINUOUS
10
0.758841
20
1.0065
11
0.758149
21
1.00483
0
LINE
8
BLACK
6
CONTINUOUS
10
0.758149
20
1.00483
11
0.756479
21
1.00413
0
LINE
8
BLACK
6
CONTINUOUS
10
0.756479
20
1.00413
11
0.7386
21
1.00413
0
LINE
8
BLACK
6
CONTINUOUS
10
0.7386
20
1.00413
11
0.73693
21
1.00483
0
LINE
8
BLACK
6
CONTINUOUS
10
0.73693
20
1.00483
11
0.736238
21
1.0065
0
LINE
8
BLACK
6
CONTINUOUS
10
0.736238
20
1.0065
11
0.73693
21
1.00817
0
LINE
8
BLACK
6
CONTINUOUS
10
0.73693
20
1.00817
11
0.7386
21
1.00886
0
LINE
8
BLACK
6
CONTINUOUS
10
0.7386
20
1.00886
11
0.756479
21
1.00886
0
LINE
8
BLACK
6
CONTINUOUS
10
0.756479
20
1.00886
11
0.758149
21
1.00817
0
LINE
8
BLACK
6
CONTINUOUS
10
0.879836
20
1.08734
11
0.879965
21
1.08736
0
LINE
8
BLACK
6
CONTINUOUS
10
0.879965
20
1.08736
11
0.880079
21
1.0873
0
LINE
8
BLACK
6
CONTINUOUS
10
0.880079
20
1.0873
11
0.880462
21
1.08723
0
LINE
8
BLACK
6
CONTINUOUS
10
0.880462
20
1.08723
11
0.88105
21
1.08674
0
LINE
8
BLACK
6
CONTINUOUS
10
0.88105
20
1.08674
11
0.881714
21
1.08635
0
LINE
8
BLACK
6
CONTINUOUS
10
0.881714
20
1.08635
11
0.881806
21
1.0861
0
LINE
8
BLACK
6
CONTINUOUS
10
0.881806
20
1.0861
11
0.88201
21
1.08593
0
LINE
8
BLACK
6
CONTINUOUS
10
0.88201
20
1.08593
11
0.882143
21
1.08518
0
LINE
8
BLACK
6
CONTINUOUS
10
0.882143
20
1.08518
11
0.882405
21
1.08446
0
LINE
8
BLACK
6
CONTINUOUS
10
0.882405
20
1.08446
11
0.882405
21
1.04509
0
LINE
8
BLACK
6
CONTINUOUS
10
0.882405
20
1.04509
11
0.882227
21
1.04408
0
LINE
8
BLACK
6
CONTINUOUS
10
0.882227
20
1.04408
11
0.880929
21
1.04253
0
LINE
8
BLACK
6
CONTINUOUS
10
0.880929
20
1.04253
11
0.87894
21
1.04218
0
LINE
8
BLACK
6
CONTINUOUS
10
0.87894
20
1.04218
11
0.877191
21
1.04319
0
LINE
8
BLACK
6
CONTINUOUS
10
0.877191
20
1.04319
11
0.8765
21
1.04509
0
LINE
8
BLACK
6
CONTINUOUS
10
0.8765
20
1.04509
11
0.8765
21
1.06088
0
LINE
8
BLACK
6
CONTINUOUS
10
0.8765
20
1.06088
11
0.871616
21
1.06088
0
LINE
8
BLACK
6
CONTINUOUS
10
0.871616
20
1.06088
11
0.859374
21
1.04339
0
LINE
8
BLACK
6
CONTINUOUS
10
0.859374
20
1.04339
11
0.858649
21
1.04267
0
LINE
8
BLACK
6
CONTINUOUS
10
0.858649
20
1.04267
11
0.856698
21
1.04214
0
LINE
8
BLACK
6
CONTINUOUS
10
0.856698
20
1.04214
11
0.854868
21
1.043
0
LINE
8
BLACK
6
CONTINUOUS
10
0.854868
20
1.043
11
0.854014
21
1.04483
0
LINE
8
BLACK
6
CONTINUOUS
10
0.854014
20
1.04483
11
0.854536
21
1.04678
0
LINE
8
BLACK
6
CONTINUOUS
10
0.854536
20
1.04678
11
0.864413
21
1.06089
0
LINE
8
BLACK
6
CONTINUOUS
10
0.864413
20
1.06089
11
0.863444
21
1.06106
0
LINE
8
BLACK
6
CONTINUOUS
10
0.863444
20
1.06106
11
0.863309
21
1.06117
0
LINE
8
BLACK
6
CONTINUOUS
10
0.863309
20
1.06117
11
0.863134
21
1.06119
0
LINE
8
BLACK
6
CONTINUOUS
10
0.863134
20
1.06119
11
0.859384
21
1.06307
0
LINE
8
BLACK
6
CONTINUOUS
10
0.859384
20
1.06307
11
0.858675
21
1.06359
0
LINE
8
BLACK
6
CONTINUOUS
10
0.858675
20
1.06359
11
0.858617
21
1.06362
0
LINE
8
BLACK
6
CONTINUOUS
10
0.858617
20
1.06362
11
0.856742
21
1.0655
0
LINE
8
BLACK
6
CONTINUOUS
10
0.856742
20
1.0655
11
0.856236
21
1.06622
0
LINE
8
BLACK
6
CONTINUOUS
10
0.856236
20
1.06622
11
0.856189
21
1.06626
0
LINE
8
BLACK
6
CONTINUOUS
10
0.856189
20
1.06626
11
0.854314
21
1.07001
0
LINE
8
BLACK
6
CONTINUOUS
10
0.854314
20
1.07001
11
0.854022
21
1.071
0
LINE
8
BLACK
6
CONTINUOUS
10
0.854022
20
1.071
11
0.854063
21
1.07117
0
LINE
8
BLACK
6
CONTINUOUS
10
0.854063
20
1.07117
11
0.854003
21
1.07133
0
LINE
8
BLACK
6
CONTINUOUS
10
0.854003
20
1.07133
11
0.854003
21
1.07696
0
LINE
8
BLACK
6
CONTINUOUS
10
0.854003
20
1.07696
11
0.854181
21
1.07797
0
LINE
8
BLACK
6
CONTINUOUS
10
0.854181
20
1.07797
11
0.854294
21
1.0781
0
LINE
8
BLACK
6
CONTINUOUS
10
0.854294
20
1.0781
11
0.854314
21
1.07828
0
LINE
8
BLACK
6
CONTINUOUS
10
0.854314
20
1.07828
11
0.856189
21
1.08203
0
LINE
8
BLACK
6
CONTINUOUS
10
0.856189
20
1.08203
11
0.856715
21
1.08274
0
LINE
8
BLACK
6
CONTINUOUS
10
0.856715
20
1.08274
11
0.856742
21
1.08279
0
LINE
8
BLACK
6
CONTINUOUS
10
0.856742
20
1.08279
11
0.858617
21
1.08467
0
LINE
8
BLACK
6
CONTINUOUS
10
0.858617
20
1.08467
11
0.85934
21
1.08518
0
LINE
8
BLACK
6
CONTINUOUS
10
0.85934
20
1.08518
11
0.859384
21
1.08522
0
LINE
8
BLACK
6
CONTINUOUS
10
0.859384
20
1.08522
11
0.863134
21
1.0871
0
LINE
8
BLACK
6
CONTINUOUS
10
0.863134
20
1.0871
11
0.864117
21
1.08739
0
LINE
8
BLACK
6
CONTINUOUS
10
0.864117
20
1.08739
11
0.864289
21
1.08735
0
LINE
8
BLACK
6
CONTINUOUS
10
0.864289
20
1.08735
11
0.864454
21
1.08741
0
LINE
8
BLACK
6
CONTINUOUS
10
0.864454
20
1.08741
11
0.879453
21
1.08741
0
LINE
8
BLACK
6
CONTINUOUS
10
0.879453
20
1.08741
11
0.879836
21
1.08734
0
LINE
8
BLACK
6
CONTINUOUS
10
0.862454
20
1.08015
11
0.861257
21
1.07896
0
LINE
8
BLACK
6
CONTINUOUS
10
0.861257
20
1.07896
11
0.859908
21
1.07626
0
LINE
8
BLACK
6
CONTINUOUS
10
0.859908
20
1.07626
11
0.859908
21
1.07203
0
LINE
8
BLACK
6
CONTINUOUS
10
0.859908
20
1.07203
11
0.861257
21
1.06933
0
LINE
8
BLACK
6
CONTINUOUS
10
0.861257
20
1.06933
11
0.862454
21
1.06814
0
LINE
8
BLACK
6
CONTINUOUS
10
0.862454
20
1.06814
11
0.865151
21
1.06679
0
LINE
8
BLACK
6
CONTINUOUS
10
0.865151
20
1.06679
11
0.8765
21
1.06679
0
LINE
8
BLACK
6
CONTINUOUS
10
0.8765
20
1.06679
11
0.8765
21
1.0815
0
LINE
8
BLACK
6
CONTINUOUS
10
0.8765
20
1.0815
11
0.865151
21
1.0815
0
LINE
8
BLACK
6
CONTINUOUS
10
0.865151
20
1.0815
11
0.862454
21
1.08015
0
LINE
8
BLACK
6
CONTINUOUS
10
0.834129
20
1.08885
11
0.835385
21
1.08726
0
LINE
8
BLACK
6
CONTINUOUS
10
0.835385
20
1.08726
11
0.844758
21
1.05914
0
LINE
8
BLACK
6
CONTINUOUS
10
0.844758
20
1.05914
11
0.844909
21
1.05813
0
LINE
8
BLACK
6
CONTINUOUS
10
0.844909
20
1.05813
11
0.844826
21
1.05792
0
LINE
8
BLACK
6
CONTINUOUS
10
0.844826
20
1.05792
11
0.844865
21
1.0577
0
LINE
8
BLACK
6
CONTINUOUS
10
0.844865
20
1.0577
11
0.844462
21
1.057
0
LINE
8
BLACK
6
CONTINUOUS
10
0.844462
20
1.057
11
0.844166
21
1.05625
0
LINE
8
BLACK
6
CONTINUOUS
10
0.844166
20
1.05625
11
0.843968
21
1.05614
0
LINE
8
BLACK
6
CONTINUOUS
10
0.843968
20
1.05614
11
0.843855
21
1.05595
0
LINE
8
BLACK
6
CONTINUOUS
10
0.843855
20
1.05595
11
0.843098
21
1.05567
0
LINE
8
BLACK
6
CONTINUOUS
10
0.843098
20
1.05567
11
0.84239
21
1.05529
0
LINE
8
BLACK
6
CONTINUOUS
10
0.84239
20
1.05529
11
0.842169
21
1.05533
0
LINE
8
BLACK
6
CONTINUOUS
10
0.842169
20
1.05533
11
0.841957
21
1.05526
0
LINE
8
BLACK
6
CONTINUOUS
10
0.841957
20
1.05526
11
0.826162
21
1.05526
0
LINE
8
BLACK
6
CONTINUOUS
10
0.826162
20
1.05526
11
0.826162
21
1.04509
0
LINE
8
BLACK
6
CONTINUOUS
10
0.826162
20
1.04509
11
0.825984
21
1.04408
0
LINE
8
BLACK
6
CONTINUOUS
10
0.825984
20
1.04408
11
0.824686
21
1.04253
0
LINE
8
BLACK
6
CONTINUOUS
10
0.824686
20
1.04253
11
0.822697
21
1.04218
0
LINE
8
BLACK
6
CONTINUOUS
10
0.822697
20
1.04218
11
0.820948
21
1.04319
0
LINE
8
BLACK
6
CONTINUOUS
10
0.820948
20
1.04319
11
0.820257
21
1.04509
0
LINE
8
BLACK
6
CONTINUOUS
10
0.820257
20
1.04509
11
0.820257
21
1.05526
0
LINE
8
BLACK
6
CONTINUOUS
10
0.820257
20
1.05526
11
0.817585
21
1.05526
0
LINE
8
BLACK
6
CONTINUOUS
10
0.817585
20
1.05526
11
0.816575
21
1.05543
0
LINE
8
BLACK
6
CONTINUOUS
10
0.816575
20
1.05543
11
0.815028
21
1.05673
0
LINE
8
BLACK
6
CONTINUOUS
10
0.815028
20
1.05673
11
0.814677
21
1.05872
0
LINE
8
BLACK
6
CONTINUOUS
10
0.814677
20
1.05872
11
0.815687
21
1.06047
0
LINE
8
BLACK
6
CONTINUOUS
10
0.815687
20
1.06047
11
0.817585
21
1.06116
0
LINE
8
BLACK
6
CONTINUOUS
10
0.817585
20
1.06116
11
0.820257
21
1.06116
0
LINE
8
BLACK
6
CONTINUOUS
10
0.820257
20
1.06116
11
0.820257
21
1.07133
0
LINE
8
BLACK
6
CONTINUOUS
10
0.820257
20
1.07133
11
0.820435
21
1.07234
0
LINE
8
BLACK
6
CONTINUOUS
10
0.820435
20
1.07234
11
0.821733
21
1.07389
0
LINE
8
BLACK
6
CONTINUOUS
10
0.821733
20
1.07389
11
0.823722
21
1.07424
0
LINE
8
BLACK
6
CONTINUOUS
10
0.823722
20
1.07424
11
0.825471
21
1.07323
0
LINE
8
BLACK
6
CONTINUOUS
10
0.825471
20
1.07323
11
0.826162
21
1.07133
0
LINE
8
BLACK
6
CONTINUOUS
10
0.826162
20
1.07133
11
0.826162
21
1.06116
0
LINE
8
BLACK
6
CONTINUOUS
10
0.826162
20
1.06116
11
0.83786
21
1.06116
0
LINE
8
BLACK
6
CONTINUOUS
10
0.83786
20
1.06116
11
0.829782
21
1.0854
0
LINE
8
BLACK
6
CONTINUOUS
10
0.829782
20
1.0854
11
0.829632
21
1.08641
0
LINE
8
BLACK
6
CONTINUOUS
10
0.829632
20
1.08641
11
0.830374
21
1.08829
0
LINE
8
BLACK
6
CONTINUOUS
10
0.830374
20
1.08829
11
0.83215
21
1.08925
0
LINE
8
BLACK
6
CONTINUOUS
10
0.83215
20
1.08925
11
0.834129
21
1.08885
0
LINE
8
BLACK
6
CONTINUOUS
10
0.620354
20
1.06604
11
0.621046
21
1.06437
0
LINE
8
BLACK
6
CONTINUOUS
10
0.621046
20
1.06437
11
0.620354
21
1.0627
0
LINE
8
BLACK
6
CONTINUOUS
10
0.620354
20
1.0627
11
0.618684
21
1.06201
0
LINE
8
BLACK
6
CONTINUOUS
10
0.618684
20
1.06201
11
0.600805
21
1.06201
0
LINE
8
BLACK
6
CONTINUOUS
10
0.600805
20
1.06201
11
0.599134
21
1.0627
0
LINE
8
BLACK
6
CONTINUOUS
10
0.599134
20
1.0627
11
0.598442
21
1.06437
0
LINE
8
BLACK
6
CONTINUOUS
10
0.598442
20
1.06437
11
0.599134
21
1.06604
0
LINE
8
BLACK
6
CONTINUOUS
10
0.599134
20
1.06604
11
0.600805
21
1.06673
0
LINE
8
BLACK
6
CONTINUOUS
10
0.600805
20
1.06673
11
0.618684
21
1.06673
0
LINE
8
BLACK
6
CONTINUOUS
10
0.618684
20
1.06673
11
0.620354
21
1.06604
0
LINE
8
BLACK
6
CONTINUOUS
10
0.758149
20
1.06604
11
0.758841
21
1.06437
0
LINE
8
BLACK
6
CONTINUOUS
10
0.758841
20
1.06437
11
0.758149
21
1.0627
0
LINE
8
BLACK
6
CONTINUOUS
10
0.758149
20
1.0627
11
0.756479
21
1.06201
0
LINE
8
BLACK
6
CONTINUOUS
10
0.756479
20
1.06201
11
0.7386
21
1.06201
0
LINE
8
BLACK
6
CONTINUOUS
10
0.7386
20
1.06201
11
0.73693
21
1.0627
0
LINE
8
BLACK
6
CONTINUOUS
10
0.73693
20
1.0627
11
0.736238
21
1.06437
0
LINE
8
BLACK
6
CONTINUOUS
10
0.736238
20
1.06437
11
0.73693
21
1.06604
0
LINE
8
BLACK
6
CONTINUOUS
10
0.73693
20
1.06604
11
0.7386
21
1.06673
0
LINE
8
BLACK
6
CONTINUOUS
10
0.7386
20
1.06673
11
0.756479
21
1.06673
0
LINE
8
BLACK
6
CONTINUOUS
10
0.756479
20
1.06673
11
0.758149
21
1.06604
0
LINE
8
BLACK
6
CONTINUOUS
10
0.580394
20
1.12675
11
0.580461
21
1.12677
0
LINE
8
BLACK
6
CONTINUOUS
10
0.580461
20
1.12677
11
0.580572
21
1.12672
0
LINE
8
BLACK
6
CONTINUOUS
10
0.580572
20
1.12672
11
0.58125
21
1.1266
0
LINE
8
BLACK
6
CONTINUOUS
10
0.58125
20
1.1266
11
0.58173
21
1.1262
0
LINE
8
BLACK
6
CONTINUOUS
10
0.58173
20
1.1262
11
0.582302
21
1.12594
0
LINE
8
BLACK
6
CONTINUOUS
10
0.582302
20
1.12594
11
0.582481
21
1.12557
0
LINE
8
BLACK
6
CONTINUOUS
10
0.582481
20
1.12557
11
0.582797
21
1.1253
0
LINE
8
BLACK
6
CONTINUOUS
10
0.582797
20
1.1253
11
0.582906
21
1.12468
0
LINE
8
BLACK
6
CONTINUOUS
10
0.582906
20
1.12468
11
0.583178
21
1.12412
0
LINE
8
BLACK
6
CONTINUOUS
10
0.583178
20
1.12412
11
0.585053
21
1.10537
0
LINE
8
BLACK
6
CONTINUOUS
10
0.585053
20
1.10537
11
0.584976
21
1.10435
0
LINE
8
BLACK
6
CONTINUOUS
10
0.584976
20
1.10435
11
0.584965
21
1.10433
0
LINE
8
BLACK
6
CONTINUOUS
10
0.584965
20
1.10433
11
0.584967
21
1.10431
0
LINE
8
BLACK
6
CONTINUOUS
10
0.584967
20
1.10431
11
0.584398
21
1.1035
0
LINE
8
BLACK
6
CONTINUOUS
10
0.584398
20
1.1035
11
0.583838
21
1.10268
0
LINE
8
BLACK
6
CONTINUOUS
10
0.583838
20
1.10268
11
0.583819
21
1.10268
0
LINE
8
BLACK
6
CONTINUOUS
10
0.583819
20
1.10268
11
0.583808
21
1.10266
0
LINE
8
BLACK
6
CONTINUOUS
10
0.583808
20
1.10266
11
0.582849
21
1.1024
0
LINE
8
BLACK
6
CONTINUOUS
10
0.582849
20
1.1024
11
0.581894
21
1.10213
0
LINE
8
BLACK
6
CONTINUOUS
10
0.581894
20
1.10213
11
0.581876
21
1.10214
0
LINE
8
BLACK
6
CONTINUOUS
10
0.581876
20
1.10214
11
0.581857
21
1.10214
0
LINE
8
BLACK
6
CONTINUOUS
10
0.581857
20
1.10214
11
0.580959
21
1.10256
0
LINE
8
BLACK
6
CONTINUOUS
10
0.580959
20
1.10256
11
0.580053
21
1.10296
0
LINE
8
BLACK
6
CONTINUOUS
10
0.580053
20
1.10296
11
0.580044
21
1.10298
0
LINE
8
BLACK
6
CONTINUOUS
10
0.580044
20
1.10298
11
0.580027
21
1.10299
0
LINE
8
BLACK
6
CONTINUOUS
10
0.580027
20
1.10299
11
0.578491
21
1.10453
0
LINE
8
BLACK
6
CONTINUOUS
10
0.578491
20
1.10453
11
0.575793
21
1.10588
0
LINE
8
BLACK
6
CONTINUOUS
10
0.575793
20
1.10588
11
0.567814
21
1.10588
0
LINE
8
BLACK
6
CONTINUOUS
10
0.567814
20
1.10588
11
0.565116
21
1.10453
0
LINE
8
BLACK
6
CONTINUOUS
10
0.565116
20
1.10453
11
0.563919
21
1.10333
0
LINE
8
BLACK
6
CONTINUOUS
10
0.563919
20
1.10333
11
0.56257
21
1.10063
0
LINE
8
BLACK
6
CONTINUOUS
10
0.56257
20
1.10063
11
0.56257
21
1.09265
0
LINE
8
BLACK
6
CONTINUOUS
10
0.56257
20
1.09265
11
0.563919
21
1.08995
0
LINE
8
BLACK
6
CONTINUOUS
10
0.563919
20
1.08995
11
0.565116
21
1.08876
0
LINE
8
BLACK
6
CONTINUOUS
10
0.565116
20
1.08876
11
0.567814
21
1.08741
0
LINE
8
BLACK
6
CONTINUOUS
10
0.567814
20
1.08741
11
0.575793
21
1.08741
0
LINE
8
BLACK
6
CONTINUOUS
10
0.575793
20
1.08741
11
0.578491
21
1.08876
0
LINE
8
BLACK
6
CONTINUOUS
10
0.578491
20
1.08876
11
0.580027
21
1.09029
0
LINE
8
BLACK
6
CONTINUOUS
10
0.580027
20
1.09029
11
0.580867
21
1.09088
0
LINE
8
BLACK
6
CONTINUOUS
10
0.580867
20
1.09088
11
0.582879
21
1.09106
0
LINE
8
BLACK
6
CONTINUOUS
10
0.582879
20
1.09106
11
0.584533
21
1.0899
0
LINE
8
BLACK
6
CONTINUOUS
10
0.584533
20
1.0899
11
0.585056
21
1.08795
0
LINE
8
BLACK
6
CONTINUOUS
10
0.585056
20
1.08795
11
0.584203
21
1.08612
0
LINE
8
BLACK
6
CONTINUOUS
10
0.584203
20
1.08612
11
0.582328
21
1.08424
0
LINE
8
BLACK
6
CONTINUOUS
10
0.582328
20
1.08424
11
0.581605
21
1.08374
0
LINE
8
BLACK
6
CONTINUOUS
10
0.581605
20
1.08374
11
0.58156
21
1.08369
0
LINE
8
BLACK
6
CONTINUOUS
10
0.58156
20
1.08369
11
0.577811
21
1.08181
0
LINE
8
BLACK
6
CONTINUOUS
10
0.577811
20
1.08181
11
0.576828
21
1.08152
0
LINE
8
BLACK
6
CONTINUOUS
10
0.576828
20
1.08152
11
0.576656
21
1.08156
0
LINE
8
BLACK
6
CONTINUOUS
10
0.576656
20
1.08156
11
0.57649
21
1.0815
0
LINE
8
BLACK
6
CONTINUOUS
10
0.57649
20
1.0815
11
0.567117
21
1.0815
0
LINE
8
BLACK
6
CONTINUOUS
10
0.567117
20
1.0815
11
0.566107
21
1.08168
0
LINE
8
BLACK
6
CONTINUOUS
10
0.566107
20
1.08168
11
0.565971
21
1.08179
0
LINE
8
BLACK
6
CONTINUOUS
10
0.565971
20
1.08179
11
0.565796
21
1.08181
0
LINE
8
BLACK
6
CONTINUOUS
10
0.565796
20
1.08181
11
0.562047
21
1.08369
0
LINE
8
BLACK
6
CONTINUOUS
10
0.562047
20
1.08369
11
0.561337
21
1.08422
0
LINE
8
BLACK
6
CONTINUOUS
10
0.561337
20
1.08422
11
0.561279
21
1.08424
0
LINE
8
BLACK
6
CONTINUOUS
10
0.561279
20
1.08424
11
0.559404
21
1.08612
0
LINE
8
BLACK
6
CONTINUOUS
10
0.559404
20
1.08612
11
0.558898
21
1.08684
0
LINE
8
BLACK
6
CONTINUOUS
10
0.558898
20
1.08684
11
0.558851
21
1.08688
0
LINE
8
BLACK
6
CONTINUOUS
10
0.558851
20
1.08688
11
0.556976
21
1.09063
0
LINE
8
BLACK
6
CONTINUOUS
10
0.556976
20
1.09063
11
0.556684
21
1.09162
0
LINE
8
BLACK
6
CONTINUOUS
10
0.556684
20
1.09162
11
0.556725
21
1.09179
0
LINE
8
BLACK
6
CONTINUOUS
10
0.556725
20
1.09179
11
0.556665
21
1.09196
0
LINE
8
BLACK
6
CONTINUOUS
10
0.556665
20
1.09196
11
0.556665
21
1.10133
0
LINE
8
BLACK
6
CONTINUOUS
10
0.556665
20
1.10133
11
0.556843
21
1.10234
0
LINE
8
BLACK
6
CONTINUOUS
10
0.556843
20
1.10234
11
0.556956
21
1.10247
0
LINE
8
BLACK
6
CONTINUOUS
10
0.556956
20
1.10247
11
0.556976
21
1.10265
0
LINE
8
BLACK
6
CONTINUOUS
10
0.556976
20
1.10265
11
0.558851
21
1.1064
0
LINE
8
BLACK
6
CONTINUOUS
10
0.558851
20
1.1064
11
0.559377
21
1.10711
0
LINE
8
BLACK
6
CONTINUOUS
10
0.559377
20
1.10711
11
0.559404
21
1.10717
0
LINE
8
BLACK
6
CONTINUOUS
10
0.559404
20
1.10717
11
0.561279
21
1.10904
0
LINE
8
BLACK
6
CONTINUOUS
10
0.561279
20
1.10904
11
0.562002
21
1.10955
0
LINE
8
BLACK
6
CONTINUOUS
10
0.562002
20
1.10955
11
0.562047
21
1.10959
0
LINE
8
BLACK
6
CONTINUOUS
10
0.562047
20
1.10959
11
0.565796
21
1.11147
0
LINE
8
BLACK
6
CONTINUOUS
10
0.565796
20
1.11147
11
0.566779
21
1.11176
0
LINE
8
BLACK
6
CONTINUOUS
10
0.566779
20
1.11176
11
0.566951
21
1.11172
0
LINE
8
BLACK
6
CONTINUOUS
10
0.566951
20
1.11172
11
0.567117
21
1.11178
0
LINE
8
BLACK
6
CONTINUOUS
10
0.567117
20
1.11178
11
0.57649
21
1.11178
0
LINE
8
BLACK
6
CONTINUOUS
10
0.57649
20
1.11178
11
0.5775
21
1.1116
0
LINE
8
BLACK
6
CONTINUOUS
10
0.5775
20
1.1116
11
0.577636
21
1.11149
0
LINE
8
BLACK
6
CONTINUOUS
10
0.577636
20
1.11149
11
0.577811
21
1.11147
0
LINE
8
BLACK
6
CONTINUOUS
10
0.577811
20
1.11147
11
0.578545
21
1.1111
0
LINE
8
BLACK
6
CONTINUOUS
10
0.578545
20
1.1111
11
0.577568
21
1.12087
0
LINE
8
BLACK
6
CONTINUOUS
10
0.577568
20
1.12087
11
0.561492
21
1.12087
0
LINE
8
BLACK
6
CONTINUOUS
10
0.561492
20
1.12087
11
0.560482
21
1.12105
0
LINE
8
BLACK
6
CONTINUOUS
10
0.560482
20
1.12105
11
0.558935
21
1.12235
0
LINE
8
BLACK
6
CONTINUOUS
10
0.558935
20
1.12235
11
0.558584
21
1.12434
0
LINE
8
BLACK
6
CONTINUOUS
10
0.558584
20
1.12434
11
0.559594
21
1.12609
0
LINE
8
BLACK
6
CONTINUOUS
10
0.559594
20
1.12609
11
0.561492
21
1.12678
0
LINE
8
BLACK
6
CONTINUOUS
10
0.561492
20
1.12678
11
0.58024
21
1.12678
0
LINE
8
BLACK
6
CONTINUOUS
10
0.58024
20
1.12678
11
0.580394
21
1.12675
0
LINE
8
BLACK
6
CONTINUOUS
10
0.619994
20
1.12671
11
0.620123
21
1.12673
0
LINE
8
BLACK
6
CONTINUOUS
10
0.620123
20
1.12673
11
0.620236
21
1.12667
0
LINE
8
BLACK
6
CONTINUOUS
10
0.620236
20
1.12667
11
0.62062
21
1.1266
0
LINE
8
BLACK
6
CONTINUOUS
10
0.62062
20
1.1266
11
0.621208
21
1.12611
0
LINE
8
BLACK
6
CONTINUOUS
10
0.621208
20
1.12611
11
0.621872
21
1.12572
0
LINE
8
BLACK
6
CONTINUOUS
10
0.621872
20
1.12572
11
0.621963
21
1.12547
0
LINE
8
BLACK
6
CONTINUOUS
10
0.621963
20
1.12547
11
0.622167
21
1.1253
0
LINE
8
BLACK
6
CONTINUOUS
10
0.622167
20
1.1253
11
0.6223
21
1.12455
0
LINE
8
BLACK
6
CONTINUOUS
10
0.6223
20
1.12455
11
0.622563
21
1.12383
0
LINE
8
BLACK
6
CONTINUOUS
10
0.622563
20
1.12383
11
0.622563
21
1.08446
0
LINE
8
BLACK
6
CONTINUOUS
10
0.622563
20
1.08446
11
0.622385
21
1.08345
0
LINE
8
BLACK
6
CONTINUOUS
10
0.622385
20
1.08345
11
0.621086
21
1.0819
0
LINE
8
BLACK
6
CONTINUOUS
10
0.621086
20
1.0819
11
0.619097
21
1.08155
0
LINE
8
BLACK
6
CONTINUOUS
10
0.619097
20
1.08155
11
0.617348
21
1.08256
0
LINE
8
BLACK
6
CONTINUOUS
10
0.617348
20
1.08256
11
0.616657
21
1.08446
0
LINE
8
BLACK
6
CONTINUOUS
10
0.616657
20
1.08446
11
0.616657
21
1.10025
0
LINE
8
BLACK
6
CONTINUOUS
10
0.616657
20
1.10025
11
0.611774
21
1.10025
0
LINE
8
BLACK
6
CONTINUOUS
10
0.611774
20
1.10025
11
0.599532
21
1.08276
0
LINE
8
BLACK
6
CONTINUOUS
10
0.599532
20
1.08276
11
0.598807
21
1.08204
0
LINE
8
BLACK
6
CONTINUOUS
10
0.598807
20
1.08204
11
0.596856
21
1.08151
0
LINE
8
BLACK
6
CONTINUOUS
10
0.596856
20
1.08151
11
0.595025
21
1.08237
0
LINE
8
BLACK
6
CONTINUOUS
10
0.595025
20
1.08237
11
0.594171
21
1.0842
0
LINE
8
BLACK
6
CONTINUOUS
10
0.594171
20
1.0842
11
0.594694
21
1.08615
0
LINE
8
BLACK
6
CONTINUOUS
10
0.594694
20
1.08615
11
0.60457
21
1.10026
0
LINE
8
BLACK
6
CONTINUOUS
10
0.60457
20
1.10026
11
0.603602
21
1.10043
0
LINE
8
BLACK
6
CONTINUOUS
10
0.603602
20
1.10043
11
0.603467
21
1.10054
0
LINE
8
BLACK
6
CONTINUOUS
10
0.603467
20
1.10054
11
0.603291
21
1.10056
0
LINE
8
BLACK
6
CONTINUOUS
10
0.603291
20
1.10056
11
0.599542
21
1.10244
0
LINE
8
BLACK
6
CONTINUOUS
10
0.599542
20
1.10244
11
0.598833
21
1.10296
0
LINE
8
BLACK
6
CONTINUOUS
10
0.598833
20
1.10296
11
0.598774
21
1.10299
0
LINE
8
BLACK
6
CONTINUOUS
10
0.598774
20
1.10299
11
0.5969
21
1.10487
0
LINE
8
BLACK
6
CONTINUOUS
10
0.5969
20
1.10487
11
0.596393
21
1.10559
0
LINE
8
BLACK
6
CONTINUOUS
10
0.596393
20
1.10559
11
0.596347
21
1.10563
0
LINE
8
BLACK
6
CONTINUOUS
10
0.596347
20
1.10563
11
0.594472
21
1.10938
0
LINE
8
BLACK
6
CONTINUOUS
10
0.594472
20
1.10938
11
0.594179
21
1.11037
0
LINE
8
BLACK
6
CONTINUOUS
10
0.594179
20
1.11037
11
0.59422
21
1.11054
0
LINE
8
BLACK
6
CONTINUOUS
10
0.59422
20
1.11054
11
0.59416
21
1.1107
0
LINE
8
BLACK
6
CONTINUOUS
10
0.59416
20
1.1107
11
0.59416
21
1.11633
0
LINE
8
BLACK
6
CONTINUOUS
10
0.59416
20
1.11633
11
0.594338
21
1.11734
0
LINE
8
BLACK
6
CONTINUOUS
10
0.594338
20
1.11734
11
0.594452
21
1.11747
0
LINE
8
BLACK
6
CONTINUOUS
10
0.594452
20
1.11747
11
0.594472
21
1.11765
0
LINE
8
BLACK
6
CONTINUOUS
10
0.594472
20
1.11765
11
0.596347
21
1.1214
0
LINE
8
BLACK
6
CONTINUOUS
10
0.596347
20
1.1214
11
0.596872
21
1.12211
0
LINE
8
BLACK
6
CONTINUOUS
10
0.596872
20
1.12211
11
0.5969
21
1.12216
0
LINE
8
BLACK
6
CONTINUOUS
10
0.5969
20
1.12216
11
0.598774
21
1.12404
0
LINE
8
BLACK
6
CONTINUOUS
10
0.598774
20
1.12404
11
0.599498
21
1.12455
0
LINE
8
BLACK
6
CONTINUOUS
10
0.599498
20
1.12455
11
0.599542
21
1.12459
0
LINE
8
BLACK
6
CONTINUOUS
10
0.599542
20
1.12459
11
0.603291
21
1.12647
0
LINE
8
BLACK
6
CONTINUOUS
10
0.603291
20
1.12647
11
0.604274
21
1.12676
0
LINE
8
BLACK
6
CONTINUOUS
10
0.604274
20
1.12676
11
0.604446
21
1.12672
0
LINE
8
BLACK
6
CONTINUOUS
10
0.604446
20
1.12672
11
0.604612
21
1.12678
0
LINE
8
BLACK
6
CONTINUOUS
10
0.604612
20
1.12678
11
0.61961
21
1.12678
0
LINE
8
BLACK
6
CONTINUOUS
10
0.61961
20
1.12678
11
0.619994
21
1.12671
0
LINE
8
BLACK
6
CONTINUOUS
10
0.602611
20
1.11952
11
0.601414
21
1.11833
0
LINE
8
BLACK
6
CONTINUOUS
10
0.601414
20
1.11833
11
0.600066
21
1.11563
0
LINE
8
BLACK
6
CONTINUOUS
10
0.600066
20
1.11563
11
0.600066
21
1.1114
0
LINE
8
BLACK
6
CONTINUOUS
10
0.600066
20
1.1114
11
0.601414
21
1.1087
0
LINE
8
BLACK
6
CONTINUOUS
10
0.601414
20
1.1087
11
0.602611
21
1.10751
0
LINE
8
BLACK
6
CONTINUOUS
10
0.602611
20
1.10751
11
0.605309
21
1.10616
0
LINE
8
BLACK
6
CONTINUOUS
10
0.605309
20
1.10616
11
0.616657
21
1.10616
0
LINE
8
BLACK
6
CONTINUOUS
10
0.616657
20
1.10616
11
0.616657
21
1.12087
0
LINE
8
BLACK
6
CONTINUOUS
10
0.616657
20
1.12087
11
0.605309
21
1.12087
0
LINE
8
BLACK
6
CONTINUOUS
10
0.605309
20
1.12087
11
0.602611
21
1.11952
0
CIRCLE
8
BLACK
10
1.20866
20
0.931102
40
0.00688976
0
CIRCLE
8
BLACK
10
1.20866
20
0.831102
40
0.00688976
0
CIRCLE
8
BLACK
10
1.20866
20
0.731102
40
0.00688976
0
CIRCLE
8
BLACK
10
0.313386
20
0.911024
40
0.00688976
0
CIRCLE
8
BLACK
10
0.413386
20
0.911024
40
0.00688976
0
CIRCLE
8
BLACK
10
0.313386
20
0.811024
40
0.00688976
0
CIRCLE
8
BLACK
10
0.413386
20
0.811024
40
0.00688976
0
CIRCLE
8
BLACK
10
0.313386
20
0.711024
40
0.00688976
0
CIRCLE
8
BLACK
10
0.413386
20
0.711024
40
0.00688976
0
CIRCLE
8
BLACK
10
0.4
20
0.4
40
0.00688976
0
CIRCLE
8
BLACK
10
1.2
20
0.4
40
0.00688976
0
CIRCLE
8
BLACK
10
0.726378
20
1.25689
40
0.00688976
0
CIRCLE
8
BLACK
10
0.726378
20
1.15689
40
0.00688976
0
CIRCLE
8
BLACK
10
1.2
20
1.2
40
0.00688976
0
CIRCLE
8
BLACK
10
0.733268
20
0.314173
40
0.00688976
0
CIRCLE
8
BLACK
10
0.733268
20
0.414173
40
0.00688976
0
CIRCLE
8
BLACK
10
0.833268
20
0.314173
40
0.00688976
0
CIRCLE
8
BLACK
10
0.833268
20
0.414173
40
0.00688976
0
CIRCLE
8
BLACK
10
0.933268
20
0.314173
40
0.00688976
0
CIRCLE
8
BLACK
10
0.933268
20
0.414173
40
0.00688976
0
CIRCLE
8
BLACK
10
0.826378
20
1.25689
40
0.00688976
0
CIRCLE
8
BLACK
10
0.826378
20
1.15689
40
0.00688976
0
CIRCLE
8
BLACK
10
0.4
20
1.2
40
0.00688976
0
CIRCLE
8
BLACK
10
0.733268
20
0.514173
40
0.00688976
0
CIRCLE
8
BLACK
10
0.733268
20
0.614173
40
0.00688976
0
CIRCLE
8
BLACK
10
0.833268
20
0.514173
40
0.00688976
0
CIRCLE
8
BLACK
10
0.833268
20
0.614173
40
0.00688976
0
CIRCLE
8
BLACK
10
0.933268
20
0.514173
40
0.00688976
0
CIRCLE
8
BLACK
10
0.933268
20
0.614173
40
0.00688976
  0
ENDSEC
  0
EOF
