  0
SECTION
  2
HEADER
  9
$ANGBASE
  50
0.0
  9
$ANGDIR
  70
1
  9
$MEASUREMENT
  70
0
  0
ENDSEC
  0
SECTION
  2
TABLES
  0
TABLE
  2
LTYPE
  70
4
  0
LTYPE
  5
40F
  2
CONTINUOUS
  70
0
  3
Solid line
  72
65
  73
0
  40
0.0
  0
LTYPE
  5
410
  2
DASHDOT
 70
0
  3
Dash Dot ____ _ ____ _
 72
65
 73
4
 40
2.0
 49
1.25
 49
-0.25
 49
0.25
 49
-0.25
  0
LTYPE
  5
411
  2
DASHED
 70
0
  3
Dashed __ __ __ __ __
 72
65
 73
2
 40
0.75
 49
0.5
 49
-0.25
  0
LTYPE
  5
43B
  2
DOTTED
 70
0
  3
Dotted .  .  .  .
 72
65
 73
2
 40
0.2
 49
0.0
 49
-0.2
  0
ENDTAB
  0
TABLE
  2
STYLE
  70
4
  0
STYLE
  2
KICAD
  70
0
  40
0
  41
1
  42
1
  50
0
  71
0
  3
isocp.shx
  0
STYLE
  2
KICADB
  70
0
  40
0
  41
1
  42
1
  50
0
  71
0
  3
isocp.shx
  0
STYLE
  2
KICADI
  70
0
  40
0
  41
1
  42
1
  50
15
  71
0
  3
isocp.shx
  0
STYLE
  2
KICADBI
  70
0
  40
0
  41
1
  42
1
  50
15
  71
0
  3
isocp.shx
  0
ENDTAB
  0
TABLE
  2
LAYER
  70
1
  0
LAYER
  2
BLACK
  70
0
  62
7
  6
CONTINUOUS
  0
ENDTAB
  0
ENDSEC
  0
SECTION
  2
ENTITIES
0
LINE
8
BLACK
6
CONTINUOUS
10
1.00295
20
0.686417
11
1.00365
21
0.686129
0
LINE
8
BLACK
6
CONTINUOUS
10
1.00365
20
0.686129
11
1.00394
21
0.685433
0
LINE
8
BLACK
6
CONTINUOUS
10
1.00394
20
0.685433
11
1.00394
21
0.485433
0
LINE
8
BLACK
6
CONTINUOUS
10
1.00394
20
0.485433
11
1.00394
21
0.485433
0
LINE
8
BLACK
6
CONTINUOUS
10
1.00394
20
0.485433
11
1.00394
21
0.243307
0
LINE
8
BLACK
6
CONTINUOUS
10
1.00394
20
0.243307
11
1.00365
21
0.242611
0
LINE
8
BLACK
6
CONTINUOUS
10
1.00365
20
0.242611
11
1.00295
21
0.242323
0
LINE
8
BLACK
6
CONTINUOUS
10
1.00295
20
0.242323
11
0.662402
21
0.242323
0
LINE
8
BLACK
6
CONTINUOUS
10
0.662402
20
0.242323
11
0.661706
21
0.242611
0
LINE
8
BLACK
6
CONTINUOUS
10
0.661706
20
0.242611
11
0.661417
21
0.243307
0
LINE
8
BLACK
6
CONTINUOUS
10
0.661417
20
0.243307
11
0.661417
21
0.243307
0
LINE
8
BLACK
6
CONTINUOUS
10
0.661417
20
0.243307
11
0.661417
21
0.485433
0
LINE
8
BLACK
6
CONTINUOUS
10
0.661417
20
0.485433
11
0.661417
21
0.685433
0
LINE
8
BLACK
6
CONTINUOUS
10
0.661417
20
0.685433
11
0.661706
21
0.686129
0
LINE
8
BLACK
6
CONTINUOUS
10
0.661706
20
0.686129
11
0.662402
21
0.686417
0
LINE
8
BLACK
6
CONTINUOUS
10
0.662402
20
0.686417
11
1.00295
21
0.686417
0
LINE
8
BLACK
6
CONTINUOUS
10
0.663386
20
0.442323
11
0.663386
21
0.244291
0
LINE
8
BLACK
6
CONTINUOUS
10
0.663386
20
0.244291
11
1.00197
21
0.244291
0
LINE
8
BLACK
6
CONTINUOUS
10
1.00197
20
0.244291
11
1.00197
21
0.442323
0
LINE
8
BLACK
6
CONTINUOUS
10
1.00197
20
0.442323
11
0.663386
21
0.442323
0
LINE
8
BLACK
6
CONTINUOUS
10
0.663386
20
0.484449
11
0.663386
21
0.444291
0
LINE
8
BLACK
6
CONTINUOUS
10
0.663386
20
0.444291
11
1.00197
21
0.444291
0
LINE
8
BLACK
6
CONTINUOUS
10
1.00197
20
0.444291
11
1.00197
21
0.484449
0
LINE
8
BLACK
6
CONTINUOUS
10
1.00197
20
0.484449
11
0.663386
21
0.484449
0
LINE
8
BLACK
6
CONTINUOUS
10
0.663386
20
0.684449
11
0.663386
21
0.486417
0
LINE
8
BLACK
6
CONTINUOUS
10
0.663386
20
0.486417
11
1.00197
21
0.486417
0
LINE
8
BLACK
6
CONTINUOUS
10
1.00197
20
0.486417
11
1.00197
21
0.684449
0
LINE
8
BLACK
6
CONTINUOUS
10
1.00197
20
0.684449
11
0.663386
21
0.684449
0
LINE
8
BLACK
6
CONTINUOUS
10
0.484646
20
0.982874
11
0.485342
21
0.982586
0
LINE
8
BLACK
6
CONTINUOUS
10
0.485342
20
0.982586
11
0.48563
21
0.98189
0
LINE
8
BLACK
6
CONTINUOUS
10
0.48563
20
0.98189
11
0.48563
21
0.641339
0
LINE
8
BLACK
6
CONTINUOUS
10
0.48563
20
0.641339
11
0.485342
21
0.640643
0
LINE
8
BLACK
6
CONTINUOUS
10
0.485342
20
0.640643
11
0.484646
21
0.640354
0
LINE
8
BLACK
6
CONTINUOUS
10
0.484646
20
0.640354
11
0.24252
21
0.640354
0
LINE
8
BLACK
6
CONTINUOUS
10
0.24252
20
0.640354
11
0.241824
21
0.640643
0
LINE
8
BLACK
6
CONTINUOUS
10
0.241824
20
0.640643
11
0.241535
21
0.641339
0
LINE
8
BLACK
6
CONTINUOUS
10
0.241535
20
0.641339
11
0.241535
21
0.98189
0
LINE
8
BLACK
6
CONTINUOUS
10
0.241535
20
0.98189
11
0.241824
21
0.982586
0
LINE
8
BLACK
6
CONTINUOUS
10
0.241824
20
0.982586
11
0.24252
21
0.982874
0
LINE
8
BLACK
6
CONTINUOUS
10
0.24252
20
0.982874
11
0.484646
21
0.982874
0
LINE
8
BLACK
6
CONTINUOUS
10
0.243504
20
0.980906
11
0.243504
21
0.642323
0
LINE
8
BLACK
6
CONTINUOUS
10
0.243504
20
0.642323
11
0.483661
21
0.642323
0
LINE
8
BLACK
6
CONTINUOUS
10
0.483661
20
0.642323
11
0.483661
21
0.980906
0
LINE
8
BLACK
6
CONTINUOUS
10
0.483661
20
0.980906
11
0.243504
21
0.980906
0
LINE
8
BLACK
6
CONTINUOUS
10
1.27953
20
1.00295
11
1.28022
21
1.00266
0
LINE
8
BLACK
6
CONTINUOUS
10
1.28022
20
1.00266
11
1.28051
21
1.00197
0
LINE
8
BLACK
6
CONTINUOUS
10
1.28051
20
1.00197
11
1.28051
21
0.661417
0
LINE
8
BLACK
6
CONTINUOUS
10
1.28051
20
0.661417
11
1.28022
21
0.660721
0
LINE
8
BLACK
6
CONTINUOUS
10
1.28022
20
0.660721
11
1.27953
21
0.660433
0
LINE
8
BLACK
6
CONTINUOUS
10
1.27953
20
0.660433
11
1.1378
21
0.660433
0
LINE
8
BLACK
6
CONTINUOUS
10
1.1378
20
0.660433
11
1.1371
21
0.660721
0
LINE
8
BLACK
6
CONTINUOUS
10
1.1371
20
0.660721
11
1.13681
21
0.661417
0
LINE
8
BLACK
6
CONTINUOUS
10
1.13681
20
0.661417
11
1.13681
21
0.661417
0
LINE
8
BLACK
6
CONTINUOUS
10
1.13681
20
0.661417
11
1.13681
21
1.00197
0
LINE
8
BLACK
6
CONTINUOUS
10
1.13681
20
1.00197
11
1.1371
21
1.00266
0
LINE
8
BLACK
6
CONTINUOUS
10
1.1371
20
1.00266
11
1.1378
21
1.00295
0
LINE
8
BLACK
6
CONTINUOUS
10
1.1378
20
1.00295
11
1.27953
21
1.00295
0
LINE
8
BLACK
6
CONTINUOUS
10
1.13878
20
1.00098
11
1.13878
21
0.662402
0
LINE
8
BLACK
6
CONTINUOUS
10
1.13878
20
0.662402
11
1.27854
21
0.662402
0
LINE
8
BLACK
6
CONTINUOUS
10
1.27854
20
0.662402
11
1.27854
21
1.00098
0
LINE
8
BLACK
6
CONTINUOUS
10
1.27854
20
1.00098
11
1.13878
21
1.00098
0
LINE
8
BLACK
6
CONTINUOUS
10
0.797244
20
1.32874
11
0.897244
21
1.32874
0
LINE
8
BLACK
6
CONTINUOUS
10
0.897244
20
1.32874
11
0.89794
21
1.32845
0
LINE
8
BLACK
6
CONTINUOUS
10
0.89794
20
1.32845
11
0.898228
21
1.32776
0
LINE
8
BLACK
6
CONTINUOUS
10
0.898228
20
1.32776
11
0.898228
21
1.08563
0
LINE
8
BLACK
6
CONTINUOUS
10
0.898228
20
1.08563
11
0.89794
21
1.08493
0
LINE
8
BLACK
6
CONTINUOUS
10
0.89794
20
1.08493
11
0.897244
21
1.08465
0
LINE
8
BLACK
6
CONTINUOUS
10
0.897244
20
1.08465
11
0.797244
21
1.08465
0
LINE
8
BLACK
6
CONTINUOUS
10
0.797244
20
1.08465
11
0.755512
21
1.08465
0
LINE
8
BLACK
6
CONTINUOUS
10
0.755512
20
1.08465
11
0.655512
21
1.08465
0
LINE
8
BLACK
6
CONTINUOUS
10
0.655512
20
1.08465
11
0.654816
21
1.08493
0
LINE
8
BLACK
6
CONTINUOUS
10
0.654816
20
1.08493
11
0.654528
21
1.08563
0
LINE
8
BLACK
6
CONTINUOUS
10
0.654528
20
1.08563
11
0.654528
21
1.08563
0
LINE
8
BLACK
6
CONTINUOUS
10
0.654528
20
1.08563
11
0.654528
21
1.32776
0
LINE
8
BLACK
6
CONTINUOUS
10
0.654528
20
1.32776
11
0.654816
21
1.32845
0
LINE
8
BLACK
6
CONTINUOUS
10
0.654816
20
1.32845
11
0.655512
21
1.32874
0
LINE
8
BLACK
6
CONTINUOUS
10
0.655512
20
1.32874
11
0.797244
21
1.32874
0
LINE
8
BLACK
6
CONTINUOUS
10
0.798228
20
1.32677
11
0.798228
21
1.08661
0
LINE
8
BLACK
6
CONTINUOUS
10
0.798228
20
1.08661
11
0.89626
21
1.08661
0
LINE
8
BLACK
6
CONTINUOUS
10
0.89626
20
1.08661
11
0.89626
21
1.32677
0
LINE
8
BLACK
6
CONTINUOUS
10
0.89626
20
1.32677
11
0.798228
21
1.32677
0
LINE
8
BLACK
6
CONTINUOUS
10
0.656496
20
1.32677
11
0.656496
21
1.08661
0
LINE
8
BLACK
6
CONTINUOUS
10
0.656496
20
1.08661
11
0.754528
21
1.08661
0
LINE
8
BLACK
6
CONTINUOUS
10
0.754528
20
1.08661
11
0.754528
21
1.32677
0
LINE
8
BLACK
6
CONTINUOUS
10
0.754528
20
1.32677
11
0.656496
21
1.32677
0
LINE
8
BLACK
6
CONTINUOUS
10
0.756496
20
1.32677
11
0.756496
21
1.08661
0
LINE
8
BLACK
6
CONTINUOUS
10
0.756496
20
1.08661
11
0.79626
21
1.08661
0
LINE
8
BLACK
6
CONTINUOUS
10
0.79626
20
1.08661
11
0.79626
21
1.32677
0
LINE
8
BLACK
6
CONTINUOUS
10
0.79626
20
1.32677
11
0.756496
21
1.32677
  0
ENDSEC
  0
EOF
