  0
SECTION
  2
HEADER
  9
$ANGBASE
  50
0.0
  9
$ANGDIR
  70
1
  9
$MEASUREMENT
  70
0
  0
ENDSEC
  0
SECTION
  2
TABLES
  0
TABLE
  2
LTYPE
  70
4
  0
LTYPE
  5
40F
  2
CONTINUOUS
  70
0
  3
Solid line
  72
65
  73
0
  40
0.0
  0
LTYPE
  5
410
  2
DASHDOT
 70
0
  3
Dash Dot ____ _ ____ _
 72
65
 73
4
 40
2.0
 49
1.25
 49
-0.25
 49
0.25
 49
-0.25
  0
LTYPE
  5
411
  2
DASHED
 70
0
  3
Dashed __ __ __ __ __
 72
65
 73
2
 40
0.75
 49
0.5
 49
-0.25
  0
LTYPE
  5
43B
  2
DOTTED
 70
0
  3
Dotted .  .  .  .
 72
65
 73
2
 40
0.2
 49
0.0
 49
-0.2
  0
ENDTAB
  0
TABLE
  2
STYLE
  70
4
  0
STYLE
  2
KICAD
  70
0
  40
0
  41
1
  42
1
  50
0
  71
0
  3
isocp.shx
  0
STYLE
  2
KICADB
  70
0
  40
0
  41
1
  42
1
  50
0
  71
0
  3
isocp.shx
  0
STYLE
  2
KICADI
  70
0
  40
0
  41
1
  42
1
  50
15
  71
0
  3
isocp.shx
  0
STYLE
  2
KICADBI
  70
0
  40
0
  41
1
  42
1
  50
15
  71
0
  3
isocp.shx
  0
ENDTAB
  0
TABLE
  2
LAYER
  70
1
  0
LAYER
  2
BLACK
  70
0
  62
7
  6
CONTINUOUS
  0
ENDTAB
  0
ENDSEC
  0
SECTION
  2
ENTITIES
0
LINE
8
BLACK
6
CONTINUOUS
10
5.5394
20
-3.45076
11
5.53882
21
-3.44937
0
LINE
8
BLACK
6
CONTINUOUS
10
5.53882
20
-3.44937
11
5.53882
21
-3.37063
0
LINE
8
BLACK
6
CONTINUOUS
10
5.53882
20
-3.37063
11
5.5394
21
-3.36924
0
LINE
8
BLACK
6
CONTINUOUS
10
5.5394
20
-3.36924
11
5.54079
21
-3.36866
0
LINE
8
BLACK
6
CONTINUOUS
10
5.54079
20
-3.36866
11
5.63921
21
-3.36866
0
LINE
8
BLACK
6
CONTINUOUS
10
5.63921
20
-3.36866
11
5.6406
21
-3.36924
0
LINE
8
BLACK
6
CONTINUOUS
10
5.6406
20
-3.36924
11
5.64118
21
-3.37063
0
LINE
8
BLACK
6
CONTINUOUS
10
5.64118
20
-3.37063
11
5.64118
21
-3.44937
0
LINE
8
BLACK
6
CONTINUOUS
10
5.64118
20
-3.44937
11
5.6406
21
-3.45076
0
LINE
8
BLACK
6
CONTINUOUS
10
5.6406
20
-3.45076
11
5.63921
21
-3.45134
0
LINE
8
BLACK
6
CONTINUOUS
10
5.63921
20
-3.45134
11
5.54079
21
-3.45134
0
LINE
8
BLACK
6
CONTINUOUS
10
5.54079
20
-3.45134
11
5.5394
21
-3.45076
0
LINE
8
BLACK
6
CONTINUOUS
10
5.54276
20
-3.3726
11
5.54276
21
-3.4474
0
LINE
8
BLACK
6
CONTINUOUS
10
5.54276
20
-3.4474
11
5.63724
21
-3.4474
0
LINE
8
BLACK
6
CONTINUOUS
10
5.63724
20
-3.4474
11
5.63724
21
-3.3726
0
LINE
8
BLACK
6
CONTINUOUS
10
5.63724
20
-3.3726
11
5.54276
21
-3.3726
0
LINE
8
BLACK
6
CONTINUOUS
10
5.59282
20
-3.4223
11
5.5923
21
-3.42104
0
LINE
8
BLACK
6
CONTINUOUS
10
5.5923
20
-3.42104
11
5.59282
21
-3.41979
0
LINE
8
BLACK
6
CONTINUOUS
10
5.59282
20
-3.41979
11
5.59407
21
-3.41927
0
LINE
8
BLACK
6
CONTINUOUS
10
5.59407
20
-3.41927
11
5.60392
21
-3.41927
0
LINE
8
BLACK
6
CONTINUOUS
10
5.60392
20
-3.41927
11
5.60392
21
-3.39663
0
LINE
8
BLACK
6
CONTINUOUS
10
5.60392
20
-3.39663
11
5.60444
21
-3.39538
0
LINE
8
BLACK
6
CONTINUOUS
10
5.60444
20
-3.39538
11
5.60569
21
-3.39486
0
LINE
8
BLACK
6
CONTINUOUS
10
5.60569
20
-3.39486
11
5.60694
21
-3.39538
0
LINE
8
BLACK
6
CONTINUOUS
10
5.60694
20
-3.39538
11
5.60746
21
-3.39663
0
LINE
8
BLACK
6
CONTINUOUS
10
5.60746
20
-3.39663
11
5.60746
21
-3.42104
0
LINE
8
BLACK
6
CONTINUOUS
10
5.60746
20
-3.42104
11
5.60694
21
-3.4223
0
LINE
8
BLACK
6
CONTINUOUS
10
5.60694
20
-3.4223
11
5.60569
21
-3.42281
0
LINE
8
BLACK
6
CONTINUOUS
10
5.60569
20
-3.42281
11
5.59407
21
-3.42281
0
LINE
8
BLACK
6
CONTINUOUS
10
5.59407
20
-3.42281
11
5.59282
21
-3.4223
0
LINE
8
BLACK
6
CONTINUOUS
10
5.57189
20
-3.4223
11
5.57137
21
-3.42104
0
LINE
8
BLACK
6
CONTINUOUS
10
5.57137
20
-3.42104
11
5.57189
21
-3.41979
0
LINE
8
BLACK
6
CONTINUOUS
10
5.57189
20
-3.41979
11
5.57315
21
-3.41927
0
LINE
8
BLACK
6
CONTINUOUS
10
5.57315
20
-3.41927
11
5.57835
21
-3.41927
0
LINE
8
BLACK
6
CONTINUOUS
10
5.57835
20
-3.41927
11
5.57835
21
-3.39663
0
LINE
8
BLACK
6
CONTINUOUS
10
5.57835
20
-3.39663
11
5.57842
21
-3.39646
0
LINE
8
BLACK
6
CONTINUOUS
10
5.57842
20
-3.39646
11
5.57838
21
-3.39629
0
LINE
8
BLACK
6
CONTINUOUS
10
5.57838
20
-3.39629
11
5.57867
21
-3.39586
0
LINE
8
BLACK
6
CONTINUOUS
10
5.57867
20
-3.39586
11
5.57887
21
-3.39538
0
LINE
8
BLACK
6
CONTINUOUS
10
5.57887
20
-3.39538
11
5.57904
21
-3.39531
0
LINE
8
BLACK
6
CONTINUOUS
10
5.57904
20
-3.39531
11
5.57914
21
-3.39516
0
LINE
8
BLACK
6
CONTINUOUS
10
5.57914
20
-3.39516
11
5.57964
21
-3.39506
0
LINE
8
BLACK
6
CONTINUOUS
10
5.57964
20
-3.39506
11
5.58012
21
-3.39486
0
LINE
8
BLACK
6
CONTINUOUS
10
5.58012
20
-3.39486
11
5.58029
21
-3.39493
0
LINE
8
BLACK
6
CONTINUOUS
10
5.58029
20
-3.39493
11
5.58047
21
-3.3949
0
LINE
8
BLACK
6
CONTINUOUS
10
5.58047
20
-3.3949
11
5.5809
21
-3.39518
0
LINE
8
BLACK
6
CONTINUOUS
10
5.5809
20
-3.39518
11
5.58137
21
-3.39538
0
LINE
8
BLACK
6
CONTINUOUS
10
5.58137
20
-3.39538
11
5.58144
21
-3.39555
0
LINE
8
BLACK
6
CONTINUOUS
10
5.58144
20
-3.39555
11
5.58159
21
-3.39565
0
LINE
8
BLACK
6
CONTINUOUS
10
5.58159
20
-3.39565
11
5.58382
21
-3.39899
0
LINE
8
BLACK
6
CONTINUOUS
10
5.58382
20
-3.39899
11
5.58582
21
-3.40099
0
LINE
8
BLACK
6
CONTINUOUS
10
5.58582
20
-3.40099
11
5.58789
21
-3.40202
0
LINE
8
BLACK
6
CONTINUOUS
10
5.58789
20
-3.40202
11
5.58877
21
-3.40305
0
LINE
8
BLACK
6
CONTINUOUS
10
5.58877
20
-3.40305
11
5.58868
21
-3.4044
0
LINE
8
BLACK
6
CONTINUOUS
10
5.58868
20
-3.4044
11
5.58765
21
-3.40529
0
LINE
8
BLACK
6
CONTINUOUS
10
5.58765
20
-3.40529
11
5.5863
21
-3.40519
0
LINE
8
BLACK
6
CONTINUOUS
10
5.5863
20
-3.40519
11
5.58398
21
-3.40403
0
LINE
8
BLACK
6
CONTINUOUS
10
5.58398
20
-3.40403
11
5.58379
21
-3.40381
0
LINE
8
BLACK
6
CONTINUOUS
10
5.58379
20
-3.40381
11
5.58352
21
-3.4037
0
LINE
8
BLACK
6
CONTINUOUS
10
5.58352
20
-3.4037
11
5.58189
21
-3.40207
0
LINE
8
BLACK
6
CONTINUOUS
10
5.58189
20
-3.40207
11
5.58189
21
-3.41927
0
LINE
8
BLACK
6
CONTINUOUS
10
5.58189
20
-3.41927
11
5.58709
21
-3.41927
0
LINE
8
BLACK
6
CONTINUOUS
10
5.58709
20
-3.41927
11
5.58835
21
-3.41979
0
LINE
8
BLACK
6
CONTINUOUS
10
5.58835
20
-3.41979
11
5.58887
21
-3.42104
0
LINE
8
BLACK
6
CONTINUOUS
10
5.58887
20
-3.42104
11
5.58835
21
-3.4223
0
LINE
8
BLACK
6
CONTINUOUS
10
5.58835
20
-3.4223
11
5.58709
21
-3.42281
0
LINE
8
BLACK
6
CONTINUOUS
10
5.58709
20
-3.42281
11
5.57315
21
-3.42281
0
LINE
8
BLACK
6
CONTINUOUS
10
5.57315
20
-3.42281
11
5.57189
21
-3.4223
0
LINE
8
BLACK
6
CONTINUOUS
10
5.76543
20
-3.3074
11
5.76606
21
-3.30892
0
LINE
8
BLACK
6
CONTINUOUS
10
5.76606
20
-3.30892
11
5.76543
21
-3.31044
0
LINE
8
BLACK
6
CONTINUOUS
10
5.76543
20
-3.31044
11
5.76391
21
-3.31107
0
LINE
8
BLACK
6
CONTINUOUS
10
5.76391
20
-3.31107
11
5.75574
21
-3.31107
0
LINE
8
BLACK
6
CONTINUOUS
10
5.75574
20
-3.31107
11
5.75574
21
-3.31549
0
LINE
8
BLACK
6
CONTINUOUS
10
5.75574
20
-3.31549
11
5.75511
21
-3.31701
0
LINE
8
BLACK
6
CONTINUOUS
10
5.75511
20
-3.31701
11
5.75359
21
-3.31764
0
LINE
8
BLACK
6
CONTINUOUS
10
5.75359
20
-3.31764
11
5.75207
21
-3.31701
0
LINE
8
BLACK
6
CONTINUOUS
10
5.75207
20
-3.31701
11
5.75144
21
-3.31549
0
LINE
8
BLACK
6
CONTINUOUS
10
5.75144
20
-3.31549
11
5.75144
21
-3.31107
0
LINE
8
BLACK
6
CONTINUOUS
10
5.75144
20
-3.31107
11
5.74636
21
-3.31107
0
LINE
8
BLACK
6
CONTINUOUS
10
5.74636
20
-3.31107
11
5.74636
21
-3.3183
0
LINE
8
BLACK
6
CONTINUOUS
10
5.74636
20
-3.3183
11
5.74573
21
-3.31982
0
LINE
8
BLACK
6
CONTINUOUS
10
5.74573
20
-3.31982
11
5.74421
21
-3.32045
0
LINE
8
BLACK
6
CONTINUOUS
10
5.74421
20
-3.32045
11
5.74295
21
-3.31993
0
LINE
8
BLACK
6
CONTINUOUS
10
5.74295
20
-3.31993
11
5.74295
21
-3.34705
0
LINE
8
BLACK
6
CONTINUOUS
10
5.74295
20
-3.34705
11
5.79705
21
-3.34705
0
LINE
8
BLACK
6
CONTINUOUS
10
5.79705
20
-3.34705
11
5.79705
21
-3.31
0
LINE
8
BLACK
6
CONTINUOUS
10
5.79705
20
-3.31
11
5.79723
21
-3.30899
0
LINE
8
BLACK
6
CONTINUOUS
10
5.79723
20
-3.30899
11
5.79852
21
-3.30744
0
LINE
8
BLACK
6
CONTINUOUS
10
5.79852
20
-3.30744
11
5.80051
21
-3.30709
0
LINE
8
BLACK
6
CONTINUOUS
10
5.80051
20
-3.30709
11
5.80226
21
-3.3081
0
LINE
8
BLACK
6
CONTINUOUS
10
5.80226
20
-3.3081
11
5.80295
21
-3.31
0
LINE
8
BLACK
6
CONTINUOUS
10
5.80295
20
-3.31
11
5.80295
21
-3.35
0
LINE
8
BLACK
6
CONTINUOUS
10
5.80295
20
-3.35
11
5.80289
21
-3.35038
0
LINE
8
BLACK
6
CONTINUOUS
10
5.80289
20
-3.35038
11
5.80291
21
-3.35051
0
LINE
8
BLACK
6
CONTINUOUS
10
5.80291
20
-3.35051
11
5.80284
21
-3.35063
0
LINE
8
BLACK
6
CONTINUOUS
10
5.80284
20
-3.35063
11
5.80277
21
-3.35101
0
LINE
8
BLACK
6
CONTINUOUS
10
5.80277
20
-3.35101
11
5.80228
21
-3.3516
0
LINE
8
BLACK
6
CONTINUOUS
10
5.80228
20
-3.3516
11
5.8019
21
-3.35226
0
LINE
8
BLACK
6
CONTINUOUS
10
5.8019
20
-3.35226
11
5.80165
21
-3.35235
0
LINE
8
BLACK
6
CONTINUOUS
10
5.80165
20
-3.35235
11
5.80148
21
-3.35256
0
LINE
8
BLACK
6
CONTINUOUS
10
5.80148
20
-3.35256
11
5.80072
21
-3.35269
0
LINE
8
BLACK
6
CONTINUOUS
10
5.80072
20
-3.35269
11
5.8
21
-3.35295
0
LINE
8
BLACK
6
CONTINUOUS
10
5.8
20
-3.35295
11
5.74
21
-3.35295
0
LINE
8
BLACK
6
CONTINUOUS
10
5.74
20
-3.35295
11
5.73962
21
-3.35289
0
LINE
8
BLACK
6
CONTINUOUS
10
5.73962
20
-3.35289
11
5.73949
21
-3.35291
0
LINE
8
BLACK
6
CONTINUOUS
10
5.73949
20
-3.35291
11
5.73937
21
-3.35284
0
LINE
8
BLACK
6
CONTINUOUS
10
5.73937
20
-3.35284
11
5.73899
21
-3.35277
0
LINE
8
BLACK
6
CONTINUOUS
10
5.73899
20
-3.35277
11
5.7384
21
-3.35228
0
LINE
8
BLACK
6
CONTINUOUS
10
5.7384
20
-3.35228
11
5.73774
21
-3.3519
0
LINE
8
BLACK
6
CONTINUOUS
10
5.73774
20
-3.3519
11
5.73765
21
-3.35165
0
LINE
8
BLACK
6
CONTINUOUS
10
5.73765
20
-3.35165
11
5.73744
21
-3.35148
0
LINE
8
BLACK
6
CONTINUOUS
10
5.73744
20
-3.35148
11
5.73731
21
-3.35072
0
LINE
8
BLACK
6
CONTINUOUS
10
5.73731
20
-3.35072
11
5.73705
21
-3.35
0
LINE
8
BLACK
6
CONTINUOUS
10
5.73705
20
-3.35
11
5.73705
21
-3.31
0
LINE
8
BLACK
6
CONTINUOUS
10
5.73705
20
-3.31
11
5.73723
21
-3.30899
0
LINE
8
BLACK
6
CONTINUOUS
10
5.73723
20
-3.30899
11
5.73852
21
-3.30744
0
LINE
8
BLACK
6
CONTINUOUS
10
5.73852
20
-3.30744
11
5.74051
21
-3.30709
0
LINE
8
BLACK
6
CONTINUOUS
10
5.74051
20
-3.30709
11
5.74226
21
-3.3081
0
LINE
8
BLACK
6
CONTINUOUS
10
5.74226
20
-3.3081
11
5.74233
21
-3.30828
0
LINE
8
BLACK
6
CONTINUOUS
10
5.74233
20
-3.30828
11
5.74269
21
-3.3074
0
LINE
8
BLACK
6
CONTINUOUS
10
5.74269
20
-3.3074
11
5.74421
21
-3.30677
0
LINE
8
BLACK
6
CONTINUOUS
10
5.74421
20
-3.30677
11
5.76391
21
-3.30677
0
LINE
8
BLACK
6
CONTINUOUS
10
5.76391
20
-3.30677
11
5.76543
21
-3.3074
0
LINE
8
BLACK
6
CONTINUOUS
10
5.48543
20
-3.3074
11
5.48606
21
-3.30892
0
LINE
8
BLACK
6
CONTINUOUS
10
5.48606
20
-3.30892
11
5.48543
21
-3.31044
0
LINE
8
BLACK
6
CONTINUOUS
10
5.48543
20
-3.31044
11
5.48391
21
-3.31107
0
LINE
8
BLACK
6
CONTINUOUS
10
5.48391
20
-3.31107
11
5.47574
21
-3.31107
0
LINE
8
BLACK
6
CONTINUOUS
10
5.47574
20
-3.31107
11
5.47574
21
-3.31549
0
LINE
8
BLACK
6
CONTINUOUS
10
5.47574
20
-3.31549
11
5.47511
21
-3.31701
0
LINE
8
BLACK
6
CONTINUOUS
10
5.47511
20
-3.31701
11
5.47359
21
-3.31764
0
LINE
8
BLACK
6
CONTINUOUS
10
5.47359
20
-3.31764
11
5.47207
21
-3.31701
0
LINE
8
BLACK
6
CONTINUOUS
10
5.47207
20
-3.31701
11
5.47144
21
-3.31549
0
LINE
8
BLACK
6
CONTINUOUS
10
5.47144
20
-3.31549
11
5.47144
21
-3.31107
0
LINE
8
BLACK
6
CONTINUOUS
10
5.47144
20
-3.31107
11
5.46636
21
-3.31107
0
LINE
8
BLACK
6
CONTINUOUS
10
5.46636
20
-3.31107
11
5.46636
21
-3.3183
0
LINE
8
BLACK
6
CONTINUOUS
10
5.46636
20
-3.3183
11
5.46573
21
-3.31982
0
LINE
8
BLACK
6
CONTINUOUS
10
5.46573
20
-3.31982
11
5.46421
21
-3.32045
0
LINE
8
BLACK
6
CONTINUOUS
10
5.46421
20
-3.32045
11
5.46295
21
-3.31993
0
LINE
8
BLACK
6
CONTINUOUS
10
5.46295
20
-3.31993
11
5.46295
21
-3.34705
0
LINE
8
BLACK
6
CONTINUOUS
10
5.46295
20
-3.34705
11
5.51705
21
-3.34705
0
LINE
8
BLACK
6
CONTINUOUS
10
5.51705
20
-3.34705
11
5.51705
21
-3.31
0
LINE
8
BLACK
6
CONTINUOUS
10
5.51705
20
-3.31
11
5.51723
21
-3.30899
0
LINE
8
BLACK
6
CONTINUOUS
10
5.51723
20
-3.30899
11
5.51852
21
-3.30744
0
LINE
8
BLACK
6
CONTINUOUS
10
5.51852
20
-3.30744
11
5.52051
21
-3.30709
0
LINE
8
BLACK
6
CONTINUOUS
10
5.52051
20
-3.30709
11
5.52226
21
-3.3081
0
LINE
8
BLACK
6
CONTINUOUS
10
5.52226
20
-3.3081
11
5.52295
21
-3.31
0
LINE
8
BLACK
6
CONTINUOUS
10
5.52295
20
-3.31
11
5.52295
21
-3.35
0
LINE
8
BLACK
6
CONTINUOUS
10
5.52295
20
-3.35
11
5.52289
21
-3.35038
0
LINE
8
BLACK
6
CONTINUOUS
10
5.52289
20
-3.35038
11
5.52291
21
-3.35051
0
LINE
8
BLACK
6
CONTINUOUS
10
5.52291
20
-3.35051
11
5.52284
21
-3.35063
0
LINE
8
BLACK
6
CONTINUOUS
10
5.52284
20
-3.35063
11
5.52277
21
-3.35101
0
LINE
8
BLACK
6
CONTINUOUS
10
5.52277
20
-3.35101
11
5.52228
21
-3.3516
0
LINE
8
BLACK
6
CONTINUOUS
10
5.52228
20
-3.3516
11
5.5219
21
-3.35226
0
LINE
8
BLACK
6
CONTINUOUS
10
5.5219
20
-3.35226
11
5.52165
21
-3.35235
0
LINE
8
BLACK
6
CONTINUOUS
10
5.52165
20
-3.35235
11
5.52148
21
-3.35256
0
LINE
8
BLACK
6
CONTINUOUS
10
5.52148
20
-3.35256
11
5.52072
21
-3.35269
0
LINE
8
BLACK
6
CONTINUOUS
10
5.52072
20
-3.35269
11
5.52
21
-3.35295
0
LINE
8
BLACK
6
CONTINUOUS
10
5.52
20
-3.35295
11
5.46
21
-3.35295
0
LINE
8
BLACK
6
CONTINUOUS
10
5.46
20
-3.35295
11
5.45962
21
-3.35289
0
LINE
8
BLACK
6
CONTINUOUS
10
5.45962
20
-3.35289
11
5.45949
21
-3.35291
0
LINE
8
BLACK
6
CONTINUOUS
10
5.45949
20
-3.35291
11
5.45937
21
-3.35284
0
LINE
8
BLACK
6
CONTINUOUS
10
5.45937
20
-3.35284
11
5.45899
21
-3.35277
0
LINE
8
BLACK
6
CONTINUOUS
10
5.45899
20
-3.35277
11
5.4584
21
-3.35228
0
LINE
8
BLACK
6
CONTINUOUS
10
5.4584
20
-3.35228
11
5.45774
21
-3.3519
0
LINE
8
BLACK
6
CONTINUOUS
10
5.45774
20
-3.3519
11
5.45765
21
-3.35165
0
LINE
8
BLACK
6
CONTINUOUS
10
5.45765
20
-3.35165
11
5.45744
21
-3.35148
0
LINE
8
BLACK
6
CONTINUOUS
10
5.45744
20
-3.35148
11
5.45731
21
-3.35072
0
LINE
8
BLACK
6
CONTINUOUS
10
5.45731
20
-3.35072
11
5.45705
21
-3.35
0
LINE
8
BLACK
6
CONTINUOUS
10
5.45705
20
-3.35
11
5.45705
21
-3.31
0
LINE
8
BLACK
6
CONTINUOUS
10
5.45705
20
-3.31
11
5.45723
21
-3.30899
0
LINE
8
BLACK
6
CONTINUOUS
10
5.45723
20
-3.30899
11
5.45852
21
-3.30744
0
LINE
8
BLACK
6
CONTINUOUS
10
5.45852
20
-3.30744
11
5.46051
21
-3.30709
0
LINE
8
BLACK
6
CONTINUOUS
10
5.46051
20
-3.30709
11
5.46226
21
-3.3081
0
LINE
8
BLACK
6
CONTINUOUS
10
5.46226
20
-3.3081
11
5.46233
21
-3.30828
0
LINE
8
BLACK
6
CONTINUOUS
10
5.46233
20
-3.30828
11
5.46269
21
-3.3074
0
LINE
8
BLACK
6
CONTINUOUS
10
5.46269
20
-3.3074
11
5.46421
21
-3.30677
0
LINE
8
BLACK
6
CONTINUOUS
10
5.46421
20
-3.30677
11
5.48391
21
-3.30677
0
LINE
8
BLACK
6
CONTINUOUS
10
5.48391
20
-3.30677
11
5.48543
21
-3.3074
0
LINE
8
BLACK
6
CONTINUOUS
10
5.68543
20
-3.3074
11
5.68606
21
-3.30892
0
LINE
8
BLACK
6
CONTINUOUS
10
5.68606
20
-3.30892
11
5.68543
21
-3.31044
0
LINE
8
BLACK
6
CONTINUOUS
10
5.68543
20
-3.31044
11
5.68391
21
-3.31107
0
LINE
8
BLACK
6
CONTINUOUS
10
5.68391
20
-3.31107
11
5.67574
21
-3.31107
0
LINE
8
BLACK
6
CONTINUOUS
10
5.67574
20
-3.31107
11
5.67574
21
-3.31549
0
LINE
8
BLACK
6
CONTINUOUS
10
5.67574
20
-3.31549
11
5.67511
21
-3.31701
0
LINE
8
BLACK
6
CONTINUOUS
10
5.67511
20
-3.31701
11
5.67359
21
-3.31764
0
LINE
8
BLACK
6
CONTINUOUS
10
5.67359
20
-3.31764
11
5.67207
21
-3.31701
0
LINE
8
BLACK
6
CONTINUOUS
10
5.67207
20
-3.31701
11
5.67144
21
-3.31549
0
LINE
8
BLACK
6
CONTINUOUS
10
5.67144
20
-3.31549
11
5.67144
21
-3.31107
0
LINE
8
BLACK
6
CONTINUOUS
10
5.67144
20
-3.31107
11
5.66636
21
-3.31107
0
LINE
8
BLACK
6
CONTINUOUS
10
5.66636
20
-3.31107
11
5.66636
21
-3.3183
0
LINE
8
BLACK
6
CONTINUOUS
10
5.66636
20
-3.3183
11
5.66573
21
-3.31982
0
LINE
8
BLACK
6
CONTINUOUS
10
5.66573
20
-3.31982
11
5.66421
21
-3.32045
0
LINE
8
BLACK
6
CONTINUOUS
10
5.66421
20
-3.32045
11
5.66295
21
-3.31993
0
LINE
8
BLACK
6
CONTINUOUS
10
5.66295
20
-3.31993
11
5.66295
21
-3.34705
0
LINE
8
BLACK
6
CONTINUOUS
10
5.66295
20
-3.34705
11
5.71705
21
-3.34705
0
LINE
8
BLACK
6
CONTINUOUS
10
5.71705
20
-3.34705
11
5.71705
21
-3.31
0
LINE
8
BLACK
6
CONTINUOUS
10
5.71705
20
-3.31
11
5.71723
21
-3.30899
0
LINE
8
BLACK
6
CONTINUOUS
10
5.71723
20
-3.30899
11
5.71852
21
-3.30744
0
LINE
8
BLACK
6
CONTINUOUS
10
5.71852
20
-3.30744
11
5.72051
21
-3.30709
0
LINE
8
BLACK
6
CONTINUOUS
10
5.72051
20
-3.30709
11
5.72226
21
-3.3081
0
LINE
8
BLACK
6
CONTINUOUS
10
5.72226
20
-3.3081
11
5.72295
21
-3.31
0
LINE
8
BLACK
6
CONTINUOUS
10
5.72295
20
-3.31
11
5.72295
21
-3.35
0
LINE
8
BLACK
6
CONTINUOUS
10
5.72295
20
-3.35
11
5.72289
21
-3.35038
0
LINE
8
BLACK
6
CONTINUOUS
10
5.72289
20
-3.35038
11
5.72291
21
-3.35051
0
LINE
8
BLACK
6
CONTINUOUS
10
5.72291
20
-3.35051
11
5.72284
21
-3.35063
0
LINE
8
BLACK
6
CONTINUOUS
10
5.72284
20
-3.35063
11
5.72277
21
-3.35101
0
LINE
8
BLACK
6
CONTINUOUS
10
5.72277
20
-3.35101
11
5.72228
21
-3.3516
0
LINE
8
BLACK
6
CONTINUOUS
10
5.72228
20
-3.3516
11
5.7219
21
-3.35226
0
LINE
8
BLACK
6
CONTINUOUS
10
5.7219
20
-3.35226
11
5.72165
21
-3.35235
0
LINE
8
BLACK
6
CONTINUOUS
10
5.72165
20
-3.35235
11
5.72148
21
-3.35256
0
LINE
8
BLACK
6
CONTINUOUS
10
5.72148
20
-3.35256
11
5.72072
21
-3.35269
0
LINE
8
BLACK
6
CONTINUOUS
10
5.72072
20
-3.35269
11
5.72
21
-3.35295
0
LINE
8
BLACK
6
CONTINUOUS
10
5.72
20
-3.35295
11
5.66
21
-3.35295
0
LINE
8
BLACK
6
CONTINUOUS
10
5.66
20
-3.35295
11
5.65962
21
-3.35289
0
LINE
8
BLACK
6
CONTINUOUS
10
5.65962
20
-3.35289
11
5.65949
21
-3.35291
0
LINE
8
BLACK
6
CONTINUOUS
10
5.65949
20
-3.35291
11
5.65937
21
-3.35284
0
LINE
8
BLACK
6
CONTINUOUS
10
5.65937
20
-3.35284
11
5.65899
21
-3.35277
0
LINE
8
BLACK
6
CONTINUOUS
10
5.65899
20
-3.35277
11
5.6584
21
-3.35228
0
LINE
8
BLACK
6
CONTINUOUS
10
5.6584
20
-3.35228
11
5.65774
21
-3.3519
0
LINE
8
BLACK
6
CONTINUOUS
10
5.65774
20
-3.3519
11
5.65765
21
-3.35165
0
LINE
8
BLACK
6
CONTINUOUS
10
5.65765
20
-3.35165
11
5.65744
21
-3.35148
0
LINE
8
BLACK
6
CONTINUOUS
10
5.65744
20
-3.35148
11
5.65731
21
-3.35072
0
LINE
8
BLACK
6
CONTINUOUS
10
5.65731
20
-3.35072
11
5.65705
21
-3.35
0
LINE
8
BLACK
6
CONTINUOUS
10
5.65705
20
-3.35
11
5.65705
21
-3.31
0
LINE
8
BLACK
6
CONTINUOUS
10
5.65705
20
-3.31
11
5.65723
21
-3.30899
0
LINE
8
BLACK
6
CONTINUOUS
10
5.65723
20
-3.30899
11
5.65852
21
-3.30744
0
LINE
8
BLACK
6
CONTINUOUS
10
5.65852
20
-3.30744
11
5.66051
21
-3.30709
0
LINE
8
BLACK
6
CONTINUOUS
10
5.66051
20
-3.30709
11
5.66226
21
-3.3081
0
LINE
8
BLACK
6
CONTINUOUS
10
5.66226
20
-3.3081
11
5.66233
21
-3.30828
0
LINE
8
BLACK
6
CONTINUOUS
10
5.66233
20
-3.30828
11
5.66269
21
-3.3074
0
LINE
8
BLACK
6
CONTINUOUS
10
5.66269
20
-3.3074
11
5.66421
21
-3.30677
0
LINE
8
BLACK
6
CONTINUOUS
10
5.66421
20
-3.30677
11
5.68391
21
-3.30677
0
LINE
8
BLACK
6
CONTINUOUS
10
5.68391
20
-3.30677
11
5.68543
21
-3.3074
0
LINE
8
BLACK
6
CONTINUOUS
10
5.63331
20
-3.27638
11
5.63331
21
-3.32362
0
LINE
8
BLACK
6
CONTINUOUS
10
5.63331
20
-3.32362
11
5.63273
21
-3.32501
0
LINE
8
BLACK
6
CONTINUOUS
10
5.63273
20
-3.32501
11
5.63134
21
-3.32559
0
LINE
8
BLACK
6
CONTINUOUS
10
5.63134
20
-3.32559
11
5.61762
21
-3.32559
0
LINE
8
BLACK
6
CONTINUOUS
10
5.61762
20
-3.32559
11
5.61762
21
-3.34048
0
LINE
8
BLACK
6
CONTINUOUS
10
5.61762
20
-3.34048
11
5.61741
21
-3.3419
0
LINE
8
BLACK
6
CONTINUOUS
10
5.61741
20
-3.3419
11
5.61589
21
-3.34426
0
LINE
8
BLACK
6
CONTINUOUS
10
5.61589
20
-3.34426
11
5.61332
21
-3.34543
0
LINE
8
BLACK
6
CONTINUOUS
10
5.61332
20
-3.34543
11
5.61054
21
-3.34502
0
LINE
8
BLACK
6
CONTINUOUS
10
5.61054
20
-3.34502
11
5.60841
21
-3.34318
0
LINE
8
BLACK
6
CONTINUOUS
10
5.60841
20
-3.34318
11
5.60762
21
-3.34048
0
LINE
8
BLACK
6
CONTINUOUS
10
5.60762
20
-3.34048
11
5.60762
21
-3.33119
0
LINE
8
BLACK
6
CONTINUOUS
10
5.60762
20
-3.33119
11
5.56262
21
-3.33119
0
LINE
8
BLACK
6
CONTINUOUS
10
5.56262
20
-3.33119
11
5.56136
21
-3.33101
0
LINE
8
BLACK
6
CONTINUOUS
10
5.56136
20
-3.33101
11
5.56128
21
-3.33101
0
LINE
8
BLACK
6
CONTINUOUS
10
5.56128
20
-3.33101
11
5.56126
21
-3.33099
0
LINE
8
BLACK
6
CONTINUOUS
10
5.56126
20
-3.33099
11
5.5612
21
-3.33098
0
LINE
8
BLACK
6
CONTINUOUS
10
5.5612
20
-3.33098
11
5.56005
21
-3.33024
0
LINE
8
BLACK
6
CONTINUOUS
10
5.56005
20
-3.33024
11
5.55889
21
-3.32952
0
LINE
8
BLACK
6
CONTINUOUS
10
5.55889
20
-3.32952
11
5.55887
21
-3.32948
0
LINE
8
BLACK
6
CONTINUOUS
10
5.55887
20
-3.32948
11
5.55883
21
-3.32946
0
LINE
8
BLACK
6
CONTINUOUS
10
5.55883
20
-3.32946
11
5.55827
21
-3.32821
0
LINE
8
BLACK
6
CONTINUOUS
10
5.55827
20
-3.32821
11
5.55768
21
-3.32698
0
LINE
8
BLACK
6
CONTINUOUS
10
5.55768
20
-3.32698
11
5.55769
21
-3.32694
0
LINE
8
BLACK
6
CONTINUOUS
10
5.55769
20
-3.32694
11
5.55767
21
-3.32689
0
LINE
8
BLACK
6
CONTINUOUS
10
5.55767
20
-3.32689
11
5.55786
21
-3.32559
0
LINE
8
BLACK
6
CONTINUOUS
10
5.55786
20
-3.32559
11
5.54866
21
-3.32559
0
LINE
8
BLACK
6
CONTINUOUS
10
5.54866
20
-3.32559
11
5.54727
21
-3.32501
0
LINE
8
BLACK
6
CONTINUOUS
10
5.54727
20
-3.32501
11
5.54669
21
-3.32362
0
LINE
8
BLACK
6
CONTINUOUS
10
5.54669
20
-3.32362
11
5.54669
21
-3.27638
0
LINE
8
BLACK
6
CONTINUOUS
10
5.54669
20
-3.27638
11
5.54727
21
-3.27499
0
LINE
8
BLACK
6
CONTINUOUS
10
5.54727
20
-3.27499
11
5.54866
21
-3.27441
0
LINE
8
BLACK
6
CONTINUOUS
10
5.54866
20
-3.27441
11
5.60762
21
-3.27441
0
LINE
8
BLACK
6
CONTINUOUS
10
5.60762
20
-3.27441
11
5.60762
21
-3.27261
0
LINE
8
BLACK
6
CONTINUOUS
10
5.60762
20
-3.27261
11
5.60613
21
-3.26963
0
LINE
8
BLACK
6
CONTINUOUS
10
5.60613
20
-3.26963
11
5.6049
21
-3.26839
0
LINE
8
BLACK
6
CONTINUOUS
10
5.6049
20
-3.26839
11
5.60191
21
-3.2669
0
LINE
8
BLACK
6
CONTINUOUS
10
5.60191
20
-3.2669
11
5.56262
21
-3.2669
0
LINE
8
BLACK
6
CONTINUOUS
10
5.56262
20
-3.2669
11
5.5612
21
-3.2667
0
LINE
8
BLACK
6
CONTINUOUS
10
5.5612
20
-3.2667
11
5.55883
21
-3.26517
0
LINE
8
BLACK
6
CONTINUOUS
10
5.55883
20
-3.26517
11
5.55767
21
-3.26261
0
LINE
8
BLACK
6
CONTINUOUS
10
5.55767
20
-3.26261
11
5.55807
21
-3.25982
0
LINE
8
BLACK
6
CONTINUOUS
10
5.55807
20
-3.25982
11
5.55992
21
-3.2577
0
LINE
8
BLACK
6
CONTINUOUS
10
5.55992
20
-3.2577
11
5.56262
21
-3.2569
0
LINE
8
BLACK
6
CONTINUOUS
10
5.56262
20
-3.2569
11
5.6031
21
-3.2569
0
LINE
8
BLACK
6
CONTINUOUS
10
5.6031
20
-3.2569
11
5.60452
21
-3.25711
0
LINE
8
BLACK
6
CONTINUOUS
10
5.60452
20
-3.25711
11
5.60489
21
-3.25735
0
LINE
8
BLACK
6
CONTINUOUS
10
5.60489
20
-3.25735
11
5.60533
21
-3.25743
0
LINE
8
BLACK
6
CONTINUOUS
10
5.60533
20
-3.25743
11
5.61009
21
-3.25981
0
LINE
8
BLACK
6
CONTINUOUS
10
5.61009
20
-3.25981
11
5.61127
21
-3.26063
0
LINE
8
BLACK
6
CONTINUOUS
10
5.61127
20
-3.26063
11
5.61132
21
-3.26071
0
LINE
8
BLACK
6
CONTINUOUS
10
5.61132
20
-3.26071
11
5.61139
21
-3.26075
0
LINE
8
BLACK
6
CONTINUOUS
10
5.61139
20
-3.26075
11
5.61377
21
-3.26313
0
LINE
8
BLACK
6
CONTINUOUS
10
5.61377
20
-3.26313
11
5.61463
21
-3.26428
0
LINE
8
BLACK
6
CONTINUOUS
10
5.61463
20
-3.26428
11
5.61465
21
-3.26437
0
LINE
8
BLACK
6
CONTINUOUS
10
5.61465
20
-3.26437
11
5.61471
21
-3.26443
0
LINE
8
BLACK
6
CONTINUOUS
10
5.61471
20
-3.26443
11
5.61709
21
-3.26919
0
LINE
8
BLACK
6
CONTINUOUS
10
5.61709
20
-3.26919
11
5.61754
21
-3.27055
0
LINE
8
BLACK
6
CONTINUOUS
10
5.61754
20
-3.27055
11
5.61749
21
-3.271
0
LINE
8
BLACK
6
CONTINUOUS
10
5.61749
20
-3.271
11
5.61762
21
-3.27143
0
LINE
8
BLACK
6
CONTINUOUS
10
5.61762
20
-3.27143
11
5.61762
21
-3.27441
0
LINE
8
BLACK
6
CONTINUOUS
10
5.61762
20
-3.27441
11
5.63134
21
-3.27441
0
LINE
8
BLACK
6
CONTINUOUS
10
5.63134
20
-3.27441
11
5.63273
21
-3.27499
0
LINE
8
BLACK
6
CONTINUOUS
10
5.63273
20
-3.27499
11
5.63331
21
-3.27638
0
LINE
8
BLACK
6
CONTINUOUS
10
5.61762
20
-3.27835
11
5.61762
21
-3.28095
0
LINE
8
BLACK
6
CONTINUOUS
10
5.61762
20
-3.28095
11
5.61741
21
-3.28237
0
LINE
8
BLACK
6
CONTINUOUS
10
5.61741
20
-3.28237
11
5.61717
21
-3.28275
0
LINE
8
BLACK
6
CONTINUOUS
10
5.61717
20
-3.28275
11
5.61709
21
-3.28319
0
LINE
8
BLACK
6
CONTINUOUS
10
5.61709
20
-3.28319
11
5.61471
21
-3.28795
0
LINE
8
BLACK
6
CONTINUOUS
10
5.61471
20
-3.28795
11
5.61389
21
-3.28913
0
LINE
8
BLACK
6
CONTINUOUS
10
5.61389
20
-3.28913
11
5.61382
21
-3.28917
0
LINE
8
BLACK
6
CONTINUOUS
10
5.61382
20
-3.28917
11
5.61377
21
-3.28925
0
LINE
8
BLACK
6
CONTINUOUS
10
5.61377
20
-3.28925
11
5.61139
21
-3.29163
0
LINE
8
BLACK
6
CONTINUOUS
10
5.61139
20
-3.29163
11
5.61024
21
-3.29249
0
LINE
8
BLACK
6
CONTINUOUS
10
5.61024
20
-3.29249
11
5.61016
21
-3.29251
0
LINE
8
BLACK
6
CONTINUOUS
10
5.61016
20
-3.29251
11
5.61009
21
-3.29257
0
LINE
8
BLACK
6
CONTINUOUS
10
5.61009
20
-3.29257
11
5.60533
21
-3.29495
0
LINE
8
BLACK
6
CONTINUOUS
10
5.60533
20
-3.29495
11
5.60397
21
-3.2954
0
LINE
8
BLACK
6
CONTINUOUS
10
5.60397
20
-3.2954
11
5.60352
21
-3.29535
0
LINE
8
BLACK
6
CONTINUOUS
10
5.60352
20
-3.29535
11
5.6031
21
-3.29548
0
LINE
8
BLACK
6
CONTINUOUS
10
5.6031
20
-3.29548
11
5.56262
21
-3.29548
0
LINE
8
BLACK
6
CONTINUOUS
10
5.56262
20
-3.29548
11
5.5612
21
-3.29527
0
LINE
8
BLACK
6
CONTINUOUS
10
5.5612
20
-3.29527
11
5.55883
21
-3.29374
0
LINE
8
BLACK
6
CONTINUOUS
10
5.55883
20
-3.29374
11
5.55767
21
-3.29118
0
LINE
8
BLACK
6
CONTINUOUS
10
5.55767
20
-3.29118
11
5.55807
21
-3.28839
0
LINE
8
BLACK
6
CONTINUOUS
10
5.55807
20
-3.28839
11
5.55992
21
-3.28627
0
LINE
8
BLACK
6
CONTINUOUS
10
5.55992
20
-3.28627
11
5.56262
21
-3.28548
0
LINE
8
BLACK
6
CONTINUOUS
10
5.56262
20
-3.28548
11
5.60191
21
-3.28548
0
LINE
8
BLACK
6
CONTINUOUS
10
5.60191
20
-3.28548
11
5.6049
21
-3.28399
0
LINE
8
BLACK
6
CONTINUOUS
10
5.6049
20
-3.28399
11
5.60613
21
-3.28275
0
LINE
8
BLACK
6
CONTINUOUS
10
5.60613
20
-3.28275
11
5.60762
21
-3.27977
0
LINE
8
BLACK
6
CONTINUOUS
10
5.60762
20
-3.27977
11
5.60762
21
-3.27835
0
LINE
8
BLACK
6
CONTINUOUS
10
5.60762
20
-3.27835
11
5.55063
21
-3.27835
0
LINE
8
BLACK
6
CONTINUOUS
10
5.55063
20
-3.27835
11
5.55063
21
-3.32165
0
LINE
8
BLACK
6
CONTINUOUS
10
5.55063
20
-3.32165
11
5.56041
21
-3.32165
0
LINE
8
BLACK
6
CONTINUOUS
10
5.56041
20
-3.32165
11
5.56658
21
-3.31754
0
LINE
8
BLACK
6
CONTINUOUS
10
5.56658
20
-3.31754
11
5.57041
21
-3.3137
0
LINE
8
BLACK
6
CONTINUOUS
10
5.57041
20
-3.3137
11
5.57243
21
-3.30967
0
LINE
8
BLACK
6
CONTINUOUS
10
5.57243
20
-3.30967
11
5.57325
21
-3.30849
0
LINE
8
BLACK
6
CONTINUOUS
10
5.57325
20
-3.30849
11
5.57568
21
-3.30706
0
LINE
8
BLACK
6
CONTINUOUS
10
5.57568
20
-3.30706
11
5.57849
21
-3.30716
0
LINE
8
BLACK
6
CONTINUOUS
10
5.57849
20
-3.30716
11
5.5808
21
-3.30877
0
LINE
8
BLACK
6
CONTINUOUS
10
5.5808
20
-3.30877
11
5.58188
21
-3.31137
0
LINE
8
BLACK
6
CONTINUOUS
10
5.58188
20
-3.31137
11
5.58138
21
-3.31414
0
LINE
8
BLACK
6
CONTINUOUS
10
5.58138
20
-3.31414
11
5.579
21
-3.3189
0
LINE
8
BLACK
6
CONTINUOUS
10
5.579
20
-3.3189
11
5.57818
21
-3.32008
0
LINE
8
BLACK
6
CONTINUOUS
10
5.57818
20
-3.32008
11
5.5781
21
-3.32013
0
LINE
8
BLACK
6
CONTINUOUS
10
5.5781
20
-3.32013
11
5.57806
21
-3.3202
0
LINE
8
BLACK
6
CONTINUOUS
10
5.57806
20
-3.3202
11
5.57707
21
-3.32119
0
LINE
8
BLACK
6
CONTINUOUS
10
5.57707
20
-3.32119
11
5.60762
21
-3.32119
0
LINE
8
BLACK
6
CONTINUOUS
10
5.60762
20
-3.32119
11
5.60762
21
-3.3119
0
LINE
8
BLACK
6
CONTINUOUS
10
5.60762
20
-3.3119
11
5.60782
21
-3.31048
0
LINE
8
BLACK
6
CONTINUOUS
10
5.60782
20
-3.31048
11
5.60935
21
-3.30812
0
LINE
8
BLACK
6
CONTINUOUS
10
5.60935
20
-3.30812
11
5.61191
21
-3.30695
0
LINE
8
BLACK
6
CONTINUOUS
10
5.61191
20
-3.30695
11
5.6147
21
-3.30736
0
LINE
8
BLACK
6
CONTINUOUS
10
5.6147
20
-3.30736
11
5.61683
21
-3.3092
0
LINE
8
BLACK
6
CONTINUOUS
10
5.61683
20
-3.3092
11
5.61762
21
-3.3119
0
LINE
8
BLACK
6
CONTINUOUS
10
5.61762
20
-3.3119
11
5.61762
21
-3.31487
0
LINE
8
BLACK
6
CONTINUOUS
10
5.61762
20
-3.31487
11
5.62937
21
-3.30312
0
LINE
8
BLACK
6
CONTINUOUS
10
5.62937
20
-3.30312
11
5.62937
21
-3.27835
0
LINE
8
BLACK
6
CONTINUOUS
10
5.62937
20
-3.27835
11
5.61762
21
-3.27835
0
LINE
8
BLACK
6
CONTINUOUS
10
5.61762
20
-3.32044
11
5.61762
21
-3.32165
0
LINE
8
BLACK
6
CONTINUOUS
10
5.61762
20
-3.32165
11
5.62937
21
-3.32165
0
LINE
8
BLACK
6
CONTINUOUS
10
5.62937
20
-3.32165
11
5.62937
21
-3.30869
0
LINE
8
BLACK
6
CONTINUOUS
10
5.62937
20
-3.30869
11
5.61762
21
-3.32044
0
LINE
8
BLACK
6
CONTINUOUS
10
5.51293
20
-3.2927
11
5.51356
21
-3.29422
0
LINE
8
BLACK
6
CONTINUOUS
10
5.51356
20
-3.29422
11
5.51356
21
-3.30548
0
LINE
8
BLACK
6
CONTINUOUS
10
5.51356
20
-3.30548
11
5.51293
21
-3.307
0
LINE
8
BLACK
6
CONTINUOUS
10
5.51293
20
-3.307
11
5.51141
21
-3.30763
0
LINE
8
BLACK
6
CONTINUOUS
10
5.51141
20
-3.30763
11
5.50989
21
-3.307
0
LINE
8
BLACK
6
CONTINUOUS
10
5.50989
20
-3.307
11
5.50926
21
-3.30548
0
LINE
8
BLACK
6
CONTINUOUS
10
5.50926
20
-3.30548
11
5.50926
21
-3.302
0
LINE
8
BLACK
6
CONTINUOUS
10
5.50926
20
-3.302
11
5.49171
21
-3.302
0
LINE
8
BLACK
6
CONTINUOUS
10
5.49171
20
-3.302
11
5.49151
21
-3.30192
0
LINE
8
BLACK
6
CONTINUOUS
10
5.49151
20
-3.30192
11
5.49129
21
-3.30196
0
LINE
8
BLACK
6
CONTINUOUS
10
5.49129
20
-3.30196
11
5.49077
21
-3.30161
0
LINE
8
BLACK
6
CONTINUOUS
10
5.49077
20
-3.30161
11
5.49019
21
-3.30137
0
LINE
8
BLACK
6
CONTINUOUS
10
5.49019
20
-3.30137
11
5.49011
21
-3.30117
0
LINE
8
BLACK
6
CONTINUOUS
10
5.49011
20
-3.30117
11
5.48992
21
-3.30104
0
LINE
8
BLACK
6
CONTINUOUS
10
5.48992
20
-3.30104
11
5.4898
21
-3.30043
0
LINE
8
BLACK
6
CONTINUOUS
10
5.4898
20
-3.30043
11
5.48956
21
-3.29985
0
LINE
8
BLACK
6
CONTINUOUS
10
5.48956
20
-3.29985
11
5.48965
21
-3.29965
0
LINE
8
BLACK
6
CONTINUOUS
10
5.48965
20
-3.29965
11
5.4896
21
-3.29943
0
LINE
8
BLACK
6
CONTINUOUS
10
5.4896
20
-3.29943
11
5.48995
21
-3.29891
0
LINE
8
BLACK
6
CONTINUOUS
10
5.48995
20
-3.29891
11
5.49019
21
-3.29833
0
LINE
8
BLACK
6
CONTINUOUS
10
5.49019
20
-3.29833
11
5.4904
21
-3.29825
0
LINE
8
BLACK
6
CONTINUOUS
10
5.4904
20
-3.29825
11
5.49052
21
-3.29806
0
LINE
8
BLACK
6
CONTINUOUS
10
5.49052
20
-3.29806
11
5.49316
21
-3.2963
0
LINE
8
BLACK
6
CONTINUOUS
10
5.49316
20
-3.2963
11
5.49464
21
-3.29482
0
LINE
8
BLACK
6
CONTINUOUS
10
5.49464
20
-3.29482
11
5.49542
21
-3.29326
0
LINE
8
BLACK
6
CONTINUOUS
10
5.49542
20
-3.29326
11
5.49666
21
-3.29218
0
LINE
8
BLACK
6
CONTINUOUS
10
5.49666
20
-3.29218
11
5.4983
21
-3.2923
0
LINE
8
BLACK
6
CONTINUOUS
10
5.4983
20
-3.2923
11
5.49938
21
-3.29354
0
LINE
8
BLACK
6
CONTINUOUS
10
5.49938
20
-3.29354
11
5.49926
21
-3.29518
0
LINE
8
BLACK
6
CONTINUOUS
10
5.49926
20
-3.29518
11
5.49833
21
-3.29706
0
LINE
8
BLACK
6
CONTINUOUS
10
5.49833
20
-3.29706
11
5.49806
21
-3.29729
0
LINE
8
BLACK
6
CONTINUOUS
10
5.49806
20
-3.29729
11
5.49792
21
-3.29762
0
LINE
8
BLACK
6
CONTINUOUS
10
5.49792
20
-3.29762
11
5.49784
21
-3.2977
0
LINE
8
BLACK
6
CONTINUOUS
10
5.49784
20
-3.2977
11
5.50926
21
-3.2977
0
LINE
8
BLACK
6
CONTINUOUS
10
5.50926
20
-3.2977
11
5.50926
21
-3.29422
0
LINE
8
BLACK
6
CONTINUOUS
10
5.50926
20
-3.29422
11
5.50989
21
-3.2927
0
LINE
8
BLACK
6
CONTINUOUS
10
5.50989
20
-3.2927
11
5.51141
21
-3.29207
0
LINE
8
BLACK
6
CONTINUOUS
10
5.51141
20
-3.29207
11
5.51293
21
-3.2927
0
LINE
8
BLACK
6
CONTINUOUS
10
5.71293
20
-3.29176
11
5.71356
21
-3.29328
0
LINE
8
BLACK
6
CONTINUOUS
10
5.71356
20
-3.29328
11
5.71356
21
-3.30548
0
LINE
8
BLACK
6
CONTINUOUS
10
5.71356
20
-3.30548
11
5.71293
21
-3.307
0
LINE
8
BLACK
6
CONTINUOUS
10
5.71293
20
-3.307
11
5.71141
21
-3.30763
0
LINE
8
BLACK
6
CONTINUOUS
10
5.71141
20
-3.30763
11
5.70989
21
-3.307
0
LINE
8
BLACK
6
CONTINUOUS
10
5.70989
20
-3.307
11
5.70926
21
-3.30548
0
LINE
8
BLACK
6
CONTINUOUS
10
5.70926
20
-3.30548
11
5.70926
21
-3.29847
0
LINE
8
BLACK
6
CONTINUOUS
10
5.70926
20
-3.29847
11
5.70167
21
-3.30606
0
LINE
8
BLACK
6
CONTINUOUS
10
5.70167
20
-3.30606
11
5.70121
21
-3.30625
0
LINE
8
BLACK
6
CONTINUOUS
10
5.70121
20
-3.30625
11
5.70083
21
-3.30658
0
LINE
8
BLACK
6
CONTINUOUS
10
5.70083
20
-3.30658
11
5.69802
21
-3.30752
0
LINE
8
BLACK
6
CONTINUOUS
10
5.69802
20
-3.30752
11
5.69767
21
-3.30749
0
LINE
8
BLACK
6
CONTINUOUS
10
5.69767
20
-3.30749
11
5.69734
21
-3.30763
0
LINE
8
BLACK
6
CONTINUOUS
10
5.69734
20
-3.30763
11
5.69546
21
-3.30763
0
LINE
8
BLACK
6
CONTINUOUS
10
5.69546
20
-3.30763
11
5.695
21
-3.30744
0
LINE
8
BLACK
6
CONTINUOUS
10
5.695
20
-3.30744
11
5.6945
21
-3.3074
0
LINE
8
BLACK
6
CONTINUOUS
10
5.6945
20
-3.3074
11
5.69263
21
-3.30646
0
LINE
8
BLACK
6
CONTINUOUS
10
5.69263
20
-3.30646
11
5.69239
21
-3.3062
0
LINE
8
BLACK
6
CONTINUOUS
10
5.69239
20
-3.3062
11
5.69207
21
-3.30606
0
LINE
8
BLACK
6
CONTINUOUS
10
5.69207
20
-3.30606
11
5.69113
21
-3.30512
0
LINE
8
BLACK
6
CONTINUOUS
10
5.69113
20
-3.30512
11
5.69099
21
-3.3048
0
LINE
8
BLACK
6
CONTINUOUS
10
5.69099
20
-3.3048
11
5.69073
21
-3.30456
0
LINE
8
BLACK
6
CONTINUOUS
10
5.69073
20
-3.30456
11
5.68979
21
-3.30269
0
LINE
8
BLACK
6
CONTINUOUS
10
5.68979
20
-3.30269
11
5.68975
21
-3.30219
0
LINE
8
BLACK
6
CONTINUOUS
10
5.68975
20
-3.30219
11
5.68956
21
-3.30173
0
LINE
8
BLACK
6
CONTINUOUS
10
5.68956
20
-3.30173
11
5.68956
21
-3.29704
0
LINE
8
BLACK
6
CONTINUOUS
10
5.68956
20
-3.29704
11
5.68975
21
-3.29657
0
LINE
8
BLACK
6
CONTINUOUS
10
5.68975
20
-3.29657
11
5.68979
21
-3.29607
0
LINE
8
BLACK
6
CONTINUOUS
10
5.68979
20
-3.29607
11
5.69073
21
-3.2942
0
LINE
8
BLACK
6
CONTINUOUS
10
5.69073
20
-3.2942
11
5.69099
21
-3.29397
0
LINE
8
BLACK
6
CONTINUOUS
10
5.69099
20
-3.29397
11
5.69113
21
-3.29364
0
LINE
8
BLACK
6
CONTINUOUS
10
5.69113
20
-3.29364
11
5.69207
21
-3.2927
0
LINE
8
BLACK
6
CONTINUOUS
10
5.69207
20
-3.2927
11
5.69359
21
-3.29207
0
LINE
8
BLACK
6
CONTINUOUS
10
5.69359
20
-3.29207
11
5.69511
21
-3.2927
0
LINE
8
BLACK
6
CONTINUOUS
10
5.69511
20
-3.2927
11
5.69574
21
-3.29422
0
LINE
8
BLACK
6
CONTINUOUS
10
5.69574
20
-3.29422
11
5.69511
21
-3.29574
0
LINE
8
BLACK
6
CONTINUOUS
10
5.69511
20
-3.29574
11
5.69442
21
-3.29643
0
LINE
8
BLACK
6
CONTINUOUS
10
5.69442
20
-3.29643
11
5.69386
21
-3.29754
0
LINE
8
BLACK
6
CONTINUOUS
10
5.69386
20
-3.29754
11
5.69386
21
-3.30122
0
LINE
8
BLACK
6
CONTINUOUS
10
5.69386
20
-3.30122
11
5.69442
21
-3.30233
0
LINE
8
BLACK
6
CONTINUOUS
10
5.69442
20
-3.30233
11
5.69486
21
-3.30277
0
LINE
8
BLACK
6
CONTINUOUS
10
5.69486
20
-3.30277
11
5.69597
21
-3.30333
0
LINE
8
BLACK
6
CONTINUOUS
10
5.69597
20
-3.30333
11
5.69699
21
-3.30333
0
LINE
8
BLACK
6
CONTINUOUS
10
5.69699
20
-3.30333
11
5.69899
21
-3.30266
0
LINE
8
BLACK
6
CONTINUOUS
10
5.69899
20
-3.30266
11
5.70989
21
-3.29176
0
LINE
8
BLACK
6
CONTINUOUS
10
5.70989
20
-3.29176
11
5.71141
21
-3.29113
0
LINE
8
BLACK
6
CONTINUOUS
10
5.71141
20
-3.29113
11
5.71293
21
-3.29176
0
LINE
8
BLACK
6
CONTINUOUS
10
5.79106
20
-3.29176
11
5.79199
21
-3.2927
0
LINE
8
BLACK
6
CONTINUOUS
10
5.79199
20
-3.2927
11
5.79213
21
-3.29303
0
LINE
8
BLACK
6
CONTINUOUS
10
5.79213
20
-3.29303
11
5.7924
21
-3.29326
0
LINE
8
BLACK
6
CONTINUOUS
10
5.7924
20
-3.29326
11
5.79333
21
-3.29514
0
LINE
8
BLACK
6
CONTINUOUS
10
5.79333
20
-3.29514
11
5.79337
21
-3.29564
0
LINE
8
BLACK
6
CONTINUOUS
10
5.79337
20
-3.29564
11
5.79356
21
-3.2961
0
LINE
8
BLACK
6
CONTINUOUS
10
5.79356
20
-3.2961
11
5.79356
21
-3.30173
0
LINE
8
BLACK
6
CONTINUOUS
10
5.79356
20
-3.30173
11
5.79337
21
-3.30219
0
LINE
8
BLACK
6
CONTINUOUS
10
5.79337
20
-3.30219
11
5.79333
21
-3.30269
0
LINE
8
BLACK
6
CONTINUOUS
10
5.79333
20
-3.30269
11
5.7924
21
-3.30456
0
LINE
8
BLACK
6
CONTINUOUS
10
5.7924
20
-3.30456
11
5.79213
21
-3.3048
0
LINE
8
BLACK
6
CONTINUOUS
10
5.79213
20
-3.3048
11
5.79199
21
-3.30512
0
LINE
8
BLACK
6
CONTINUOUS
10
5.79199
20
-3.30512
11
5.79106
21
-3.30606
0
LINE
8
BLACK
6
CONTINUOUS
10
5.79106
20
-3.30606
11
5.79073
21
-3.3062
0
LINE
8
BLACK
6
CONTINUOUS
10
5.79073
20
-3.3062
11
5.7905
21
-3.30646
0
LINE
8
BLACK
6
CONTINUOUS
10
5.7905
20
-3.30646
11
5.78862
21
-3.3074
0
LINE
8
BLACK
6
CONTINUOUS
10
5.78862
20
-3.3074
11
5.78812
21
-3.30744
0
LINE
8
BLACK
6
CONTINUOUS
10
5.78812
20
-3.30744
11
5.78766
21
-3.30763
0
LINE
8
BLACK
6
CONTINUOUS
10
5.78766
20
-3.30763
11
5.78297
21
-3.30763
0
LINE
8
BLACK
6
CONTINUOUS
10
5.78297
20
-3.30763
11
5.78251
21
-3.30744
0
LINE
8
BLACK
6
CONTINUOUS
10
5.78251
20
-3.30744
11
5.78201
21
-3.3074
0
LINE
8
BLACK
6
CONTINUOUS
10
5.78201
20
-3.3074
11
5.78013
21
-3.30646
0
LINE
8
BLACK
6
CONTINUOUS
10
5.78013
20
-3.30646
11
5.7799
21
-3.3062
0
LINE
8
BLACK
6
CONTINUOUS
10
5.7799
20
-3.3062
11
5.77957
21
-3.30606
0
LINE
8
BLACK
6
CONTINUOUS
10
5.77957
20
-3.30606
11
5.77863
21
-3.30512
0
LINE
8
BLACK
6
CONTINUOUS
10
5.77863
20
-3.30512
11
5.7785
21
-3.3048
0
LINE
8
BLACK
6
CONTINUOUS
10
5.7785
20
-3.3048
11
5.77823
21
-3.30456
0
LINE
8
BLACK
6
CONTINUOUS
10
5.77823
20
-3.30456
11
5.77756
21
-3.30322
0
LINE
8
BLACK
6
CONTINUOUS
10
5.77756
20
-3.30322
11
5.77313
21
-3.3071
0
LINE
8
BLACK
6
CONTINUOUS
10
5.77313
20
-3.3071
11
5.77241
21
-3.30734
0
LINE
8
BLACK
6
CONTINUOUS
10
5.77241
20
-3.30734
11
5.77171
21
-3.30763
0
LINE
8
BLACK
6
CONTINUOUS
10
5.77171
20
-3.30763
11
5.77164
21
-3.3076
0
LINE
8
BLACK
6
CONTINUOUS
10
5.77164
20
-3.3076
11
5.77157
21
-3.30762
0
LINE
8
BLACK
6
CONTINUOUS
10
5.77157
20
-3.30762
11
5.77089
21
-3.30729
0
LINE
8
BLACK
6
CONTINUOUS
10
5.77089
20
-3.30729
11
5.77019
21
-3.307
0
LINE
8
BLACK
6
CONTINUOUS
10
5.77019
20
-3.307
11
5.77016
21
-3.30693
0
LINE
8
BLACK
6
CONTINUOUS
10
5.77016
20
-3.30693
11
5.77009
21
-3.30689
0
LINE
8
BLACK
6
CONTINUOUS
10
5.77009
20
-3.30689
11
5.76985
21
-3.30618
0
LINE
8
BLACK
6
CONTINUOUS
10
5.76985
20
-3.30618
11
5.76956
21
-3.30548
0
LINE
8
BLACK
6
CONTINUOUS
10
5.76956
20
-3.30548
11
5.76956
21
-3.29328
0
LINE
8
BLACK
6
CONTINUOUS
10
5.76956
20
-3.29328
11
5.77019
21
-3.29176
0
LINE
8
BLACK
6
CONTINUOUS
10
5.77019
20
-3.29176
11
5.77171
21
-3.29113
0
LINE
8
BLACK
6
CONTINUOUS
10
5.77171
20
-3.29113
11
5.77323
21
-3.29176
0
LINE
8
BLACK
6
CONTINUOUS
10
5.77323
20
-3.29176
11
5.77386
21
-3.29328
0
LINE
8
BLACK
6
CONTINUOUS
10
5.77386
20
-3.29328
11
5.77386
21
-3.30074
0
LINE
8
BLACK
6
CONTINUOUS
10
5.77386
20
-3.30074
11
5.7778
21
-3.29729
0
LINE
8
BLACK
6
CONTINUOUS
10
5.7778
20
-3.29729
11
5.77852
21
-3.29705
0
LINE
8
BLACK
6
CONTINUOUS
10
5.77852
20
-3.29705
11
5.77922
21
-3.29676
0
LINE
8
BLACK
6
CONTINUOUS
10
5.77922
20
-3.29676
11
5.77929
21
-3.29679
0
LINE
8
BLACK
6
CONTINUOUS
10
5.77929
20
-3.29679
11
5.77936
21
-3.29677
0
LINE
8
BLACK
6
CONTINUOUS
10
5.77936
20
-3.29677
11
5.78004
21
-3.2971
0
LINE
8
BLACK
6
CONTINUOUS
10
5.78004
20
-3.2971
11
5.78074
21
-3.29739
0
LINE
8
BLACK
6
CONTINUOUS
10
5.78074
20
-3.29739
11
5.78077
21
-3.29746
0
LINE
8
BLACK
6
CONTINUOUS
10
5.78077
20
-3.29746
11
5.78083
21
-3.2975
0
LINE
8
BLACK
6
CONTINUOUS
10
5.78083
20
-3.2975
11
5.78108
21
-3.29821
0
LINE
8
BLACK
6
CONTINUOUS
10
5.78108
20
-3.29821
11
5.78137
21
-3.29891
0
LINE
8
BLACK
6
CONTINUOUS
10
5.78137
20
-3.29891
11
5.78137
21
-3.30122
0
LINE
8
BLACK
6
CONTINUOUS
10
5.78137
20
-3.30122
11
5.78192
21
-3.30233
0
LINE
8
BLACK
6
CONTINUOUS
10
5.78192
20
-3.30233
11
5.78237
21
-3.30277
0
LINE
8
BLACK
6
CONTINUOUS
10
5.78237
20
-3.30277
11
5.78348
21
-3.30333
0
LINE
8
BLACK
6
CONTINUOUS
10
5.78348
20
-3.30333
11
5.78715
21
-3.30333
0
LINE
8
BLACK
6
CONTINUOUS
10
5.78715
20
-3.30333
11
5.78826
21
-3.30277
0
LINE
8
BLACK
6
CONTINUOUS
10
5.78826
20
-3.30277
11
5.78871
21
-3.30233
0
LINE
8
BLACK
6
CONTINUOUS
10
5.78871
20
-3.30233
11
5.78926
21
-3.30122
0
LINE
8
BLACK
6
CONTINUOUS
10
5.78926
20
-3.30122
11
5.78926
21
-3.29661
0
LINE
8
BLACK
6
CONTINUOUS
10
5.78926
20
-3.29661
11
5.78871
21
-3.29549
0
LINE
8
BLACK
6
CONTINUOUS
10
5.78871
20
-3.29549
11
5.78802
21
-3.2948
0
LINE
8
BLACK
6
CONTINUOUS
10
5.78802
20
-3.2948
11
5.78739
21
-3.29328
0
LINE
8
BLACK
6
CONTINUOUS
10
5.78739
20
-3.29328
11
5.78802
21
-3.29176
0
LINE
8
BLACK
6
CONTINUOUS
10
5.78802
20
-3.29176
11
5.78954
21
-3.29113
0
LINE
8
BLACK
6
CONTINUOUS
10
5.78954
20
-3.29113
11
5.79106
21
-3.29176
0
LINE
8
BLACK
6
CONTINUOUS
10
5.66926
20
-3.30106
11
5.66863
21
-3.29954
0
LINE
8
BLACK
6
CONTINUOUS
10
5.66863
20
-3.29954
11
5.66926
21
-3.29802
0
LINE
8
BLACK
6
CONTINUOUS
10
5.66926
20
-3.29802
11
5.67078
21
-3.29739
0
LINE
8
BLACK
6
CONTINUOUS
10
5.67078
20
-3.29739
11
5.68115
21
-3.29739
0
LINE
8
BLACK
6
CONTINUOUS
10
5.68115
20
-3.29739
11
5.68121
21
-3.29733
0
LINE
8
BLACK
6
CONTINUOUS
10
5.68121
20
-3.29733
11
5.68176
21
-3.29622
0
LINE
8
BLACK
6
CONTINUOUS
10
5.68176
20
-3.29622
11
5.68176
21
-3.29442
0
LINE
8
BLACK
6
CONTINUOUS
10
5.68176
20
-3.29442
11
5.68137
21
-3.29364
0
LINE
8
BLACK
6
CONTINUOUS
10
5.68137
20
-3.29364
11
5.68059
21
-3.29325
0
LINE
8
BLACK
6
CONTINUOUS
10
5.68059
20
-3.29325
11
5.67078
21
-3.29325
0
LINE
8
BLACK
6
CONTINUOUS
10
5.67078
20
-3.29325
11
5.66926
21
-3.29262
0
LINE
8
BLACK
6
CONTINUOUS
10
5.66926
20
-3.29262
11
5.66863
21
-3.2911
0
LINE
8
BLACK
6
CONTINUOUS
10
5.66863
20
-3.2911
11
5.66926
21
-3.28958
0
LINE
8
BLACK
6
CONTINUOUS
10
5.66926
20
-3.28958
11
5.67078
21
-3.28895
0
LINE
8
BLACK
6
CONTINUOUS
10
5.67078
20
-3.28895
11
5.6811
21
-3.28895
0
LINE
8
BLACK
6
CONTINUOUS
10
5.6811
20
-3.28895
11
5.68156
21
-3.28914
0
LINE
8
BLACK
6
CONTINUOUS
10
5.68156
20
-3.28914
11
5.68206
21
-3.28917
0
LINE
8
BLACK
6
CONTINUOUS
10
5.68206
20
-3.28917
11
5.68394
21
-3.29011
0
LINE
8
BLACK
6
CONTINUOUS
10
5.68394
20
-3.29011
11
5.68438
21
-3.29063
0
LINE
8
BLACK
6
CONTINUOUS
10
5.68438
20
-3.29063
11
5.6849
21
-3.29107
0
LINE
8
BLACK
6
CONTINUOUS
10
5.6849
20
-3.29107
11
5.68583
21
-3.29295
0
LINE
8
BLACK
6
CONTINUOUS
10
5.68583
20
-3.29295
11
5.68587
21
-3.29345
0
LINE
8
BLACK
6
CONTINUOUS
10
5.68587
20
-3.29345
11
5.68606
21
-3.29391
0
LINE
8
BLACK
6
CONTINUOUS
10
5.68606
20
-3.29391
11
5.68606
21
-3.29673
0
LINE
8
BLACK
6
CONTINUOUS
10
5.68606
20
-3.29673
11
5.68587
21
-3.29719
0
LINE
8
BLACK
6
CONTINUOUS
10
5.68587
20
-3.29719
11
5.68583
21
-3.29769
0
LINE
8
BLACK
6
CONTINUOUS
10
5.68583
20
-3.29769
11
5.68554
21
-3.29828
0
LINE
8
BLACK
6
CONTINUOUS
10
5.68554
20
-3.29828
11
5.68606
21
-3.29954
0
LINE
8
BLACK
6
CONTINUOUS
10
5.68606
20
-3.29954
11
5.68543
21
-3.30106
0
LINE
8
BLACK
6
CONTINUOUS
10
5.68543
20
-3.30106
11
5.68391
21
-3.30169
0
LINE
8
BLACK
6
CONTINUOUS
10
5.68391
20
-3.30169
11
5.67078
21
-3.30169
0
LINE
8
BLACK
6
CONTINUOUS
10
5.67078
20
-3.30169
11
5.66926
21
-3.30106
0
LINE
8
BLACK
6
CONTINUOUS
10
5.46926
20
-3.30106
11
5.46863
21
-3.29954
0
LINE
8
BLACK
6
CONTINUOUS
10
5.46863
20
-3.29954
11
5.46926
21
-3.29802
0
LINE
8
BLACK
6
CONTINUOUS
10
5.46926
20
-3.29802
11
5.47078
21
-3.29739
0
LINE
8
BLACK
6
CONTINUOUS
10
5.47078
20
-3.29739
11
5.48115
21
-3.29739
0
LINE
8
BLACK
6
CONTINUOUS
10
5.48115
20
-3.29739
11
5.48121
21
-3.29733
0
LINE
8
BLACK
6
CONTINUOUS
10
5.48121
20
-3.29733
11
5.48176
21
-3.29622
0
LINE
8
BLACK
6
CONTINUOUS
10
5.48176
20
-3.29622
11
5.48176
21
-3.29442
0
LINE
8
BLACK
6
CONTINUOUS
10
5.48176
20
-3.29442
11
5.48137
21
-3.29364
0
LINE
8
BLACK
6
CONTINUOUS
10
5.48137
20
-3.29364
11
5.48059
21
-3.29325
0
LINE
8
BLACK
6
CONTINUOUS
10
5.48059
20
-3.29325
11
5.47078
21
-3.29325
0
LINE
8
BLACK
6
CONTINUOUS
10
5.47078
20
-3.29325
11
5.46926
21
-3.29262
0
LINE
8
BLACK
6
CONTINUOUS
10
5.46926
20
-3.29262
11
5.46863
21
-3.2911
0
LINE
8
BLACK
6
CONTINUOUS
10
5.46863
20
-3.2911
11
5.46926
21
-3.28958
0
LINE
8
BLACK
6
CONTINUOUS
10
5.46926
20
-3.28958
11
5.47078
21
-3.28895
0
LINE
8
BLACK
6
CONTINUOUS
10
5.47078
20
-3.28895
11
5.4811
21
-3.28895
0
LINE
8
BLACK
6
CONTINUOUS
10
5.4811
20
-3.28895
11
5.48156
21
-3.28914
0
LINE
8
BLACK
6
CONTINUOUS
10
5.48156
20
-3.28914
11
5.48206
21
-3.28917
0
LINE
8
BLACK
6
CONTINUOUS
10
5.48206
20
-3.28917
11
5.48394
21
-3.29011
0
LINE
8
BLACK
6
CONTINUOUS
10
5.48394
20
-3.29011
11
5.48438
21
-3.29063
0
LINE
8
BLACK
6
CONTINUOUS
10
5.48438
20
-3.29063
11
5.4849
21
-3.29107
0
LINE
8
BLACK
6
CONTINUOUS
10
5.4849
20
-3.29107
11
5.48583
21
-3.29295
0
LINE
8
BLACK
6
CONTINUOUS
10
5.48583
20
-3.29295
11
5.48587
21
-3.29345
0
LINE
8
BLACK
6
CONTINUOUS
10
5.48587
20
-3.29345
11
5.48606
21
-3.29391
0
LINE
8
BLACK
6
CONTINUOUS
10
5.48606
20
-3.29391
11
5.48606
21
-3.29673
0
LINE
8
BLACK
6
CONTINUOUS
10
5.48606
20
-3.29673
11
5.48587
21
-3.29719
0
LINE
8
BLACK
6
CONTINUOUS
10
5.48587
20
-3.29719
11
5.48583
21
-3.29769
0
LINE
8
BLACK
6
CONTINUOUS
10
5.48583
20
-3.29769
11
5.48554
21
-3.29828
0
LINE
8
BLACK
6
CONTINUOUS
10
5.48554
20
-3.29828
11
5.48606
21
-3.29954
0
LINE
8
BLACK
6
CONTINUOUS
10
5.48606
20
-3.29954
11
5.48543
21
-3.30106
0
LINE
8
BLACK
6
CONTINUOUS
10
5.48543
20
-3.30106
11
5.48391
21
-3.30169
0
LINE
8
BLACK
6
CONTINUOUS
10
5.48391
20
-3.30169
11
5.47078
21
-3.30169
0
LINE
8
BLACK
6
CONTINUOUS
10
5.47078
20
-3.30169
11
5.46926
21
-3.30106
0
LINE
8
BLACK
6
CONTINUOUS
10
5.74926
20
-3.30106
11
5.74863
21
-3.29954
0
LINE
8
BLACK
6
CONTINUOUS
10
5.74863
20
-3.29954
11
5.74926
21
-3.29802
0
LINE
8
BLACK
6
CONTINUOUS
10
5.74926
20
-3.29802
11
5.75078
21
-3.29739
0
LINE
8
BLACK
6
CONTINUOUS
10
5.75078
20
-3.29739
11
5.76115
21
-3.29739
0
LINE
8
BLACK
6
CONTINUOUS
10
5.76115
20
-3.29739
11
5.76121
21
-3.29733
0
LINE
8
BLACK
6
CONTINUOUS
10
5.76121
20
-3.29733
11
5.76176
21
-3.29622
0
LINE
8
BLACK
6
CONTINUOUS
10
5.76176
20
-3.29622
11
5.76176
21
-3.29442
0
LINE
8
BLACK
6
CONTINUOUS
10
5.76176
20
-3.29442
11
5.76137
21
-3.29364
0
LINE
8
BLACK
6
CONTINUOUS
10
5.76137
20
-3.29364
11
5.76059
21
-3.29325
0
LINE
8
BLACK
6
CONTINUOUS
10
5.76059
20
-3.29325
11
5.75078
21
-3.29325
0
LINE
8
BLACK
6
CONTINUOUS
10
5.75078
20
-3.29325
11
5.74926
21
-3.29262
0
LINE
8
BLACK
6
CONTINUOUS
10
5.74926
20
-3.29262
11
5.74863
21
-3.2911
0
LINE
8
BLACK
6
CONTINUOUS
10
5.74863
20
-3.2911
11
5.74926
21
-3.28958
0
LINE
8
BLACK
6
CONTINUOUS
10
5.74926
20
-3.28958
11
5.75078
21
-3.28895
0
LINE
8
BLACK
6
CONTINUOUS
10
5.75078
20
-3.28895
11
5.7611
21
-3.28895
0
LINE
8
BLACK
6
CONTINUOUS
10
5.7611
20
-3.28895
11
5.76156
21
-3.28914
0
LINE
8
BLACK
6
CONTINUOUS
10
5.76156
20
-3.28914
11
5.76206
21
-3.28917
0
LINE
8
BLACK
6
CONTINUOUS
10
5.76206
20
-3.28917
11
5.76394
21
-3.29011
0
LINE
8
BLACK
6
CONTINUOUS
10
5.76394
20
-3.29011
11
5.76438
21
-3.29063
0
LINE
8
BLACK
6
CONTINUOUS
10
5.76438
20
-3.29063
11
5.7649
21
-3.29107
0
LINE
8
BLACK
6
CONTINUOUS
10
5.7649
20
-3.29107
11
5.76583
21
-3.29295
0
LINE
8
BLACK
6
CONTINUOUS
10
5.76583
20
-3.29295
11
5.76587
21
-3.29345
0
LINE
8
BLACK
6
CONTINUOUS
10
5.76587
20
-3.29345
11
5.76606
21
-3.29391
0
LINE
8
BLACK
6
CONTINUOUS
10
5.76606
20
-3.29391
11
5.76606
21
-3.29673
0
LINE
8
BLACK
6
CONTINUOUS
10
5.76606
20
-3.29673
11
5.76587
21
-3.29719
0
LINE
8
BLACK
6
CONTINUOUS
10
5.76587
20
-3.29719
11
5.76583
21
-3.29769
0
LINE
8
BLACK
6
CONTINUOUS
10
5.76583
20
-3.29769
11
5.76554
21
-3.29828
0
LINE
8
BLACK
6
CONTINUOUS
10
5.76554
20
-3.29828
11
5.76606
21
-3.29954
0
LINE
8
BLACK
6
CONTINUOUS
10
5.76606
20
-3.29954
11
5.76543
21
-3.30106
0
LINE
8
BLACK
6
CONTINUOUS
10
5.76543
20
-3.30106
11
5.76391
21
-3.30169
0
LINE
8
BLACK
6
CONTINUOUS
10
5.76391
20
-3.30169
11
5.75078
21
-3.30169
0
LINE
8
BLACK
6
CONTINUOUS
10
5.75078
20
-3.30169
11
5.74926
21
-3.30106
0
LINE
8
BLACK
6
CONTINUOUS
10
5.50322
20
-3.27248
11
5.50349
21
-3.27244
0
LINE
8
BLACK
6
CONTINUOUS
10
5.50349
20
-3.27244
11
5.50724
21
-3.27337
0
LINE
8
BLACK
6
CONTINUOUS
10
5.50724
20
-3.27337
11
5.50744
21
-3.27352
0
LINE
8
BLACK
6
CONTINUOUS
10
5.50744
20
-3.27352
11
5.50768
21
-3.27354
0
LINE
8
BLACK
6
CONTINUOUS
10
5.50768
20
-3.27354
11
5.50956
21
-3.27447
0
LINE
8
BLACK
6
CONTINUOUS
10
5.50956
20
-3.27447
11
5.50979
21
-3.27474
0
LINE
8
BLACK
6
CONTINUOUS
10
5.50979
20
-3.27474
11
5.51012
21
-3.27488
0
LINE
8
BLACK
6
CONTINUOUS
10
5.51012
20
-3.27488
11
5.51199
21
-3.27675
0
LINE
8
BLACK
6
CONTINUOUS
10
5.51199
20
-3.27675
11
5.51219
21
-3.27722
0
LINE
8
BLACK
6
CONTINUOUS
10
5.51219
20
-3.27722
11
5.51251
21
-3.27759
0
LINE
8
BLACK
6
CONTINUOUS
10
5.51251
20
-3.27759
11
5.51345
21
-3.28041
0
LINE
8
BLACK
6
CONTINUOUS
10
5.51345
20
-3.28041
11
5.51343
21
-3.28076
0
LINE
8
BLACK
6
CONTINUOUS
10
5.51343
20
-3.28076
11
5.51356
21
-3.28109
0
LINE
8
BLACK
6
CONTINUOUS
10
5.51356
20
-3.28109
11
5.51356
21
-3.28296
0
LINE
8
BLACK
6
CONTINUOUS
10
5.51356
20
-3.28296
11
5.51343
21
-3.28329
0
LINE
8
BLACK
6
CONTINUOUS
10
5.51343
20
-3.28329
11
5.51345
21
-3.28364
0
LINE
8
BLACK
6
CONTINUOUS
10
5.51345
20
-3.28364
11
5.51251
21
-3.28646
0
LINE
8
BLACK
6
CONTINUOUS
10
5.51251
20
-3.28646
11
5.51219
21
-3.28684
0
LINE
8
BLACK
6
CONTINUOUS
10
5.51219
20
-3.28684
11
5.51199
21
-3.2873
0
LINE
8
BLACK
6
CONTINUOUS
10
5.51199
20
-3.2873
11
5.51106
21
-3.28824
0
LINE
8
BLACK
6
CONTINUOUS
10
5.51106
20
-3.28824
11
5.50954
21
-3.28887
0
LINE
8
BLACK
6
CONTINUOUS
10
5.50954
20
-3.28887
11
5.50802
21
-3.28824
0
LINE
8
BLACK
6
CONTINUOUS
10
5.50802
20
-3.28824
11
5.50739
21
-3.28672
0
LINE
8
BLACK
6
CONTINUOUS
10
5.50739
20
-3.28672
11
5.50802
21
-3.2852
0
LINE
8
BLACK
6
CONTINUOUS
10
5.50802
20
-3.2852
11
5.50859
21
-3.28462
0
LINE
8
BLACK
6
CONTINUOUS
10
5.50859
20
-3.28462
11
5.50926
21
-3.28262
0
LINE
8
BLACK
6
CONTINUOUS
10
5.50926
20
-3.28262
11
5.50926
21
-3.28144
0
LINE
8
BLACK
6
CONTINUOUS
10
5.50926
20
-3.28144
11
5.50859
21
-3.27944
0
LINE
8
BLACK
6
CONTINUOUS
10
5.50859
20
-3.27944
11
5.50732
21
-3.27816
0
LINE
8
BLACK
6
CONTINUOUS
10
5.50732
20
-3.27816
11
5.50597
21
-3.27749
0
LINE
8
BLACK
6
CONTINUOUS
10
5.50597
20
-3.27749
11
5.5027
21
-3.27667
0
LINE
8
BLACK
6
CONTINUOUS
10
5.5027
20
-3.27667
11
5.50042
21
-3.27667
0
LINE
8
BLACK
6
CONTINUOUS
10
5.50042
20
-3.27667
11
5.49715
21
-3.27749
0
LINE
8
BLACK
6
CONTINUOUS
10
5.49715
20
-3.27749
11
5.4958
21
-3.27816
0
LINE
8
BLACK
6
CONTINUOUS
10
5.4958
20
-3.27816
11
5.49453
21
-3.27944
0
LINE
8
BLACK
6
CONTINUOUS
10
5.49453
20
-3.27944
11
5.49386
21
-3.28144
0
LINE
8
BLACK
6
CONTINUOUS
10
5.49386
20
-3.28144
11
5.49386
21
-3.28262
0
LINE
8
BLACK
6
CONTINUOUS
10
5.49386
20
-3.28262
11
5.49453
21
-3.28462
0
LINE
8
BLACK
6
CONTINUOUS
10
5.49453
20
-3.28462
11
5.49511
21
-3.2852
0
LINE
8
BLACK
6
CONTINUOUS
10
5.49511
20
-3.2852
11
5.49574
21
-3.28672
0
LINE
8
BLACK
6
CONTINUOUS
10
5.49574
20
-3.28672
11
5.49511
21
-3.28824
0
LINE
8
BLACK
6
CONTINUOUS
10
5.49511
20
-3.28824
11
5.49359
21
-3.28887
0
LINE
8
BLACK
6
CONTINUOUS
10
5.49359
20
-3.28887
11
5.49207
21
-3.28824
0
LINE
8
BLACK
6
CONTINUOUS
10
5.49207
20
-3.28824
11
5.49113
21
-3.2873
0
LINE
8
BLACK
6
CONTINUOUS
10
5.49113
20
-3.2873
11
5.49094
21
-3.28684
0
LINE
8
BLACK
6
CONTINUOUS
10
5.49094
20
-3.28684
11
5.49061
21
-3.28646
0
LINE
8
BLACK
6
CONTINUOUS
10
5.49061
20
-3.28646
11
5.48967
21
-3.28364
0
LINE
8
BLACK
6
CONTINUOUS
10
5.48967
20
-3.28364
11
5.4897
21
-3.28329
0
LINE
8
BLACK
6
CONTINUOUS
10
5.4897
20
-3.28329
11
5.48956
21
-3.28296
0
LINE
8
BLACK
6
CONTINUOUS
10
5.48956
20
-3.28296
11
5.48956
21
-3.28109
0
LINE
8
BLACK
6
CONTINUOUS
10
5.48956
20
-3.28109
11
5.4897
21
-3.28076
0
LINE
8
BLACK
6
CONTINUOUS
10
5.4897
20
-3.28076
11
5.48967
21
-3.28041
0
LINE
8
BLACK
6
CONTINUOUS
10
5.48967
20
-3.28041
11
5.49061
21
-3.27759
0
LINE
8
BLACK
6
CONTINUOUS
10
5.49061
20
-3.27759
11
5.49094
21
-3.27722
0
LINE
8
BLACK
6
CONTINUOUS
10
5.49094
20
-3.27722
11
5.49113
21
-3.27675
0
LINE
8
BLACK
6
CONTINUOUS
10
5.49113
20
-3.27675
11
5.49301
21
-3.27488
0
LINE
8
BLACK
6
CONTINUOUS
10
5.49301
20
-3.27488
11
5.49333
21
-3.27474
0
LINE
8
BLACK
6
CONTINUOUS
10
5.49333
20
-3.27474
11
5.49356
21
-3.27447
0
LINE
8
BLACK
6
CONTINUOUS
10
5.49356
20
-3.27447
11
5.49544
21
-3.27354
0
LINE
8
BLACK
6
CONTINUOUS
10
5.49544
20
-3.27354
11
5.49568
21
-3.27352
0
LINE
8
BLACK
6
CONTINUOUS
10
5.49568
20
-3.27352
11
5.49588
21
-3.27337
0
LINE
8
BLACK
6
CONTINUOUS
10
5.49588
20
-3.27337
11
5.49963
21
-3.27244
0
LINE
8
BLACK
6
CONTINUOUS
10
5.49963
20
-3.27244
11
5.4999
21
-3.27248
0
LINE
8
BLACK
6
CONTINUOUS
10
5.4999
20
-3.27248
11
5.50015
21
-3.27237
0
LINE
8
BLACK
6
CONTINUOUS
10
5.50015
20
-3.27237
11
5.50297
21
-3.27237
0
LINE
8
BLACK
6
CONTINUOUS
10
5.50297
20
-3.27237
11
5.50322
21
-3.27248
0
LINE
8
BLACK
6
CONTINUOUS
10
5.78322
20
-3.27248
11
5.78349
21
-3.27244
0
LINE
8
BLACK
6
CONTINUOUS
10
5.78349
20
-3.27244
11
5.78724
21
-3.27337
0
LINE
8
BLACK
6
CONTINUOUS
10
5.78724
20
-3.27337
11
5.78744
21
-3.27352
0
LINE
8
BLACK
6
CONTINUOUS
10
5.78744
20
-3.27352
11
5.78768
21
-3.27354
0
LINE
8
BLACK
6
CONTINUOUS
10
5.78768
20
-3.27354
11
5.78956
21
-3.27447
0
LINE
8
BLACK
6
CONTINUOUS
10
5.78956
20
-3.27447
11
5.78979
21
-3.27474
0
LINE
8
BLACK
6
CONTINUOUS
10
5.78979
20
-3.27474
11
5.79012
21
-3.27488
0
LINE
8
BLACK
6
CONTINUOUS
10
5.79012
20
-3.27488
11
5.79199
21
-3.27675
0
LINE
8
BLACK
6
CONTINUOUS
10
5.79199
20
-3.27675
11
5.79219
21
-3.27722
0
LINE
8
BLACK
6
CONTINUOUS
10
5.79219
20
-3.27722
11
5.79251
21
-3.27759
0
LINE
8
BLACK
6
CONTINUOUS
10
5.79251
20
-3.27759
11
5.79345
21
-3.28041
0
LINE
8
BLACK
6
CONTINUOUS
10
5.79345
20
-3.28041
11
5.79343
21
-3.28076
0
LINE
8
BLACK
6
CONTINUOUS
10
5.79343
20
-3.28076
11
5.79356
21
-3.28109
0
LINE
8
BLACK
6
CONTINUOUS
10
5.79356
20
-3.28109
11
5.79356
21
-3.28296
0
LINE
8
BLACK
6
CONTINUOUS
10
5.79356
20
-3.28296
11
5.79343
21
-3.28329
0
LINE
8
BLACK
6
CONTINUOUS
10
5.79343
20
-3.28329
11
5.79345
21
-3.28364
0
LINE
8
BLACK
6
CONTINUOUS
10
5.79345
20
-3.28364
11
5.79251
21
-3.28646
0
LINE
8
BLACK
6
CONTINUOUS
10
5.79251
20
-3.28646
11
5.79219
21
-3.28684
0
LINE
8
BLACK
6
CONTINUOUS
10
5.79219
20
-3.28684
11
5.79199
21
-3.2873
0
LINE
8
BLACK
6
CONTINUOUS
10
5.79199
20
-3.2873
11
5.79106
21
-3.28824
0
LINE
8
BLACK
6
CONTINUOUS
10
5.79106
20
-3.28824
11
5.78954
21
-3.28887
0
LINE
8
BLACK
6
CONTINUOUS
10
5.78954
20
-3.28887
11
5.78802
21
-3.28824
0
LINE
8
BLACK
6
CONTINUOUS
10
5.78802
20
-3.28824
11
5.78739
21
-3.28672
0
LINE
8
BLACK
6
CONTINUOUS
10
5.78739
20
-3.28672
11
5.78802
21
-3.2852
0
LINE
8
BLACK
6
CONTINUOUS
10
5.78802
20
-3.2852
11
5.78859
21
-3.28462
0
LINE
8
BLACK
6
CONTINUOUS
10
5.78859
20
-3.28462
11
5.78926
21
-3.28262
0
LINE
8
BLACK
6
CONTINUOUS
10
5.78926
20
-3.28262
11
5.78926
21
-3.28144
0
LINE
8
BLACK
6
CONTINUOUS
10
5.78926
20
-3.28144
11
5.78859
21
-3.27944
0
LINE
8
BLACK
6
CONTINUOUS
10
5.78859
20
-3.27944
11
5.78732
21
-3.27816
0
LINE
8
BLACK
6
CONTINUOUS
10
5.78732
20
-3.27816
11
5.78597
21
-3.27749
0
LINE
8
BLACK
6
CONTINUOUS
10
5.78597
20
-3.27749
11
5.7827
21
-3.27667
0
LINE
8
BLACK
6
CONTINUOUS
10
5.7827
20
-3.27667
11
5.78042
21
-3.27667
0
LINE
8
BLACK
6
CONTINUOUS
10
5.78042
20
-3.27667
11
5.77715
21
-3.27749
0
LINE
8
BLACK
6
CONTINUOUS
10
5.77715
20
-3.27749
11
5.7758
21
-3.27816
0
LINE
8
BLACK
6
CONTINUOUS
10
5.7758
20
-3.27816
11
5.77453
21
-3.27944
0
LINE
8
BLACK
6
CONTINUOUS
10
5.77453
20
-3.27944
11
5.77386
21
-3.28144
0
LINE
8
BLACK
6
CONTINUOUS
10
5.77386
20
-3.28144
11
5.77386
21
-3.28262
0
LINE
8
BLACK
6
CONTINUOUS
10
5.77386
20
-3.28262
11
5.77453
21
-3.28462
0
LINE
8
BLACK
6
CONTINUOUS
10
5.77453
20
-3.28462
11
5.77511
21
-3.2852
0
LINE
8
BLACK
6
CONTINUOUS
10
5.77511
20
-3.2852
11
5.77574
21
-3.28672
0
LINE
8
BLACK
6
CONTINUOUS
10
5.77574
20
-3.28672
11
5.77511
21
-3.28824
0
LINE
8
BLACK
6
CONTINUOUS
10
5.77511
20
-3.28824
11
5.77359
21
-3.28887
0
LINE
8
BLACK
6
CONTINUOUS
10
5.77359
20
-3.28887
11
5.77207
21
-3.28824
0
LINE
8
BLACK
6
CONTINUOUS
10
5.77207
20
-3.28824
11
5.77113
21
-3.2873
0
LINE
8
BLACK
6
CONTINUOUS
10
5.77113
20
-3.2873
11
5.77094
21
-3.28684
0
LINE
8
BLACK
6
CONTINUOUS
10
5.77094
20
-3.28684
11
5.77061
21
-3.28646
0
LINE
8
BLACK
6
CONTINUOUS
10
5.77061
20
-3.28646
11
5.76967
21
-3.28364
0
LINE
8
BLACK
6
CONTINUOUS
10
5.76967
20
-3.28364
11
5.7697
21
-3.28329
0
LINE
8
BLACK
6
CONTINUOUS
10
5.7697
20
-3.28329
11
5.76956
21
-3.28296
0
LINE
8
BLACK
6
CONTINUOUS
10
5.76956
20
-3.28296
11
5.76956
21
-3.28109
0
LINE
8
BLACK
6
CONTINUOUS
10
5.76956
20
-3.28109
11
5.7697
21
-3.28076
0
LINE
8
BLACK
6
CONTINUOUS
10
5.7697
20
-3.28076
11
5.76967
21
-3.28041
0
LINE
8
BLACK
6
CONTINUOUS
10
5.76967
20
-3.28041
11
5.77061
21
-3.27759
0
LINE
8
BLACK
6
CONTINUOUS
10
5.77061
20
-3.27759
11
5.77094
21
-3.27722
0
LINE
8
BLACK
6
CONTINUOUS
10
5.77094
20
-3.27722
11
5.77113
21
-3.27675
0
LINE
8
BLACK
6
CONTINUOUS
10
5.77113
20
-3.27675
11
5.77301
21
-3.27488
0
LINE
8
BLACK
6
CONTINUOUS
10
5.77301
20
-3.27488
11
5.77333
21
-3.27474
0
LINE
8
BLACK
6
CONTINUOUS
10
5.77333
20
-3.27474
11
5.77356
21
-3.27447
0
LINE
8
BLACK
6
CONTINUOUS
10
5.77356
20
-3.27447
11
5.77544
21
-3.27354
0
LINE
8
BLACK
6
CONTINUOUS
10
5.77544
20
-3.27354
11
5.77568
21
-3.27352
0
LINE
8
BLACK
6
CONTINUOUS
10
5.77568
20
-3.27352
11
5.77588
21
-3.27337
0
LINE
8
BLACK
6
CONTINUOUS
10
5.77588
20
-3.27337
11
5.77963
21
-3.27244
0
LINE
8
BLACK
6
CONTINUOUS
10
5.77963
20
-3.27244
11
5.7799
21
-3.27248
0
LINE
8
BLACK
6
CONTINUOUS
10
5.7799
20
-3.27248
11
5.78015
21
-3.27237
0
LINE
8
BLACK
6
CONTINUOUS
10
5.78015
20
-3.27237
11
5.78297
21
-3.27237
0
LINE
8
BLACK
6
CONTINUOUS
10
5.78297
20
-3.27237
11
5.78322
21
-3.27248
0
LINE
8
BLACK
6
CONTINUOUS
10
5.70322
20
-3.27248
11
5.70349
21
-3.27244
0
LINE
8
BLACK
6
CONTINUOUS
10
5.70349
20
-3.27244
11
5.70724
21
-3.27337
0
LINE
8
BLACK
6
CONTINUOUS
10
5.70724
20
-3.27337
11
5.70744
21
-3.27352
0
LINE
8
BLACK
6
CONTINUOUS
10
5.70744
20
-3.27352
11
5.70768
21
-3.27354
0
LINE
8
BLACK
6
CONTINUOUS
10
5.70768
20
-3.27354
11
5.70956
21
-3.27447
0
LINE
8
BLACK
6
CONTINUOUS
10
5.70956
20
-3.27447
11
5.70979
21
-3.27474
0
LINE
8
BLACK
6
CONTINUOUS
10
5.70979
20
-3.27474
11
5.71012
21
-3.27488
0
LINE
8
BLACK
6
CONTINUOUS
10
5.71012
20
-3.27488
11
5.71199
21
-3.27675
0
LINE
8
BLACK
6
CONTINUOUS
10
5.71199
20
-3.27675
11
5.71219
21
-3.27722
0
LINE
8
BLACK
6
CONTINUOUS
10
5.71219
20
-3.27722
11
5.71251
21
-3.27759
0
LINE
8
BLACK
6
CONTINUOUS
10
5.71251
20
-3.27759
11
5.71345
21
-3.28041
0
LINE
8
BLACK
6
CONTINUOUS
10
5.71345
20
-3.28041
11
5.71343
21
-3.28076
0
LINE
8
BLACK
6
CONTINUOUS
10
5.71343
20
-3.28076
11
5.71356
21
-3.28109
0
LINE
8
BLACK
6
CONTINUOUS
10
5.71356
20
-3.28109
11
5.71356
21
-3.28296
0
LINE
8
BLACK
6
CONTINUOUS
10
5.71356
20
-3.28296
11
5.71343
21
-3.28329
0
LINE
8
BLACK
6
CONTINUOUS
10
5.71343
20
-3.28329
11
5.71345
21
-3.28364
0
LINE
8
BLACK
6
CONTINUOUS
10
5.71345
20
-3.28364
11
5.71251
21
-3.28646
0
LINE
8
BLACK
6
CONTINUOUS
10
5.71251
20
-3.28646
11
5.71219
21
-3.28684
0
LINE
8
BLACK
6
CONTINUOUS
10
5.71219
20
-3.28684
11
5.71199
21
-3.2873
0
LINE
8
BLACK
6
CONTINUOUS
10
5.71199
20
-3.2873
11
5.71106
21
-3.28824
0
LINE
8
BLACK
6
CONTINUOUS
10
5.71106
20
-3.28824
11
5.70954
21
-3.28887
0
LINE
8
BLACK
6
CONTINUOUS
10
5.70954
20
-3.28887
11
5.70802
21
-3.28824
0
LINE
8
BLACK
6
CONTINUOUS
10
5.70802
20
-3.28824
11
5.70739
21
-3.28672
0
LINE
8
BLACK
6
CONTINUOUS
10
5.70739
20
-3.28672
11
5.70802
21
-3.2852
0
LINE
8
BLACK
6
CONTINUOUS
10
5.70802
20
-3.2852
11
5.70859
21
-3.28462
0
LINE
8
BLACK
6
CONTINUOUS
10
5.70859
20
-3.28462
11
5.70926
21
-3.28262
0
LINE
8
BLACK
6
CONTINUOUS
10
5.70926
20
-3.28262
11
5.70926
21
-3.28144
0
LINE
8
BLACK
6
CONTINUOUS
10
5.70926
20
-3.28144
11
5.70859
21
-3.27944
0
LINE
8
BLACK
6
CONTINUOUS
10
5.70859
20
-3.27944
11
5.70732
21
-3.27816
0
LINE
8
BLACK
6
CONTINUOUS
10
5.70732
20
-3.27816
11
5.70597
21
-3.27749
0
LINE
8
BLACK
6
CONTINUOUS
10
5.70597
20
-3.27749
11
5.7027
21
-3.27667
0
LINE
8
BLACK
6
CONTINUOUS
10
5.7027
20
-3.27667
11
5.70042
21
-3.27667
0
LINE
8
BLACK
6
CONTINUOUS
10
5.70042
20
-3.27667
11
5.69715
21
-3.27749
0
LINE
8
BLACK
6
CONTINUOUS
10
5.69715
20
-3.27749
11
5.6958
21
-3.27816
0
LINE
8
BLACK
6
CONTINUOUS
10
5.6958
20
-3.27816
11
5.69453
21
-3.27944
0
LINE
8
BLACK
6
CONTINUOUS
10
5.69453
20
-3.27944
11
5.69386
21
-3.28144
0
LINE
8
BLACK
6
CONTINUOUS
10
5.69386
20
-3.28144
11
5.69386
21
-3.28262
0
LINE
8
BLACK
6
CONTINUOUS
10
5.69386
20
-3.28262
11
5.69453
21
-3.28462
0
LINE
8
BLACK
6
CONTINUOUS
10
5.69453
20
-3.28462
11
5.69511
21
-3.2852
0
LINE
8
BLACK
6
CONTINUOUS
10
5.69511
20
-3.2852
11
5.69574
21
-3.28672
0
LINE
8
BLACK
6
CONTINUOUS
10
5.69574
20
-3.28672
11
5.69511
21
-3.28824
0
LINE
8
BLACK
6
CONTINUOUS
10
5.69511
20
-3.28824
11
5.69359
21
-3.28887
0
LINE
8
BLACK
6
CONTINUOUS
10
5.69359
20
-3.28887
11
5.69207
21
-3.28824
0
LINE
8
BLACK
6
CONTINUOUS
10
5.69207
20
-3.28824
11
5.69113
21
-3.2873
0
LINE
8
BLACK
6
CONTINUOUS
10
5.69113
20
-3.2873
11
5.69094
21
-3.28684
0
LINE
8
BLACK
6
CONTINUOUS
10
5.69094
20
-3.28684
11
5.69061
21
-3.28646
0
LINE
8
BLACK
6
CONTINUOUS
10
5.69061
20
-3.28646
11
5.68967
21
-3.28364
0
LINE
8
BLACK
6
CONTINUOUS
10
5.68967
20
-3.28364
11
5.6897
21
-3.28329
0
LINE
8
BLACK
6
CONTINUOUS
10
5.6897
20
-3.28329
11
5.68956
21
-3.28296
0
LINE
8
BLACK
6
CONTINUOUS
10
5.68956
20
-3.28296
11
5.68956
21
-3.28109
0
LINE
8
BLACK
6
CONTINUOUS
10
5.68956
20
-3.28109
11
5.6897
21
-3.28076
0
LINE
8
BLACK
6
CONTINUOUS
10
5.6897
20
-3.28076
11
5.68967
21
-3.28041
0
LINE
8
BLACK
6
CONTINUOUS
10
5.68967
20
-3.28041
11
5.69061
21
-3.27759
0
LINE
8
BLACK
6
CONTINUOUS
10
5.69061
20
-3.27759
11
5.69094
21
-3.27722
0
LINE
8
BLACK
6
CONTINUOUS
10
5.69094
20
-3.27722
11
5.69113
21
-3.27675
0
LINE
8
BLACK
6
CONTINUOUS
10
5.69113
20
-3.27675
11
5.69301
21
-3.27488
0
LINE
8
BLACK
6
CONTINUOUS
10
5.69301
20
-3.27488
11
5.69333
21
-3.27474
0
LINE
8
BLACK
6
CONTINUOUS
10
5.69333
20
-3.27474
11
5.69356
21
-3.27447
0
LINE
8
BLACK
6
CONTINUOUS
10
5.69356
20
-3.27447
11
5.69544
21
-3.27354
0
LINE
8
BLACK
6
CONTINUOUS
10
5.69544
20
-3.27354
11
5.69568
21
-3.27352
0
LINE
8
BLACK
6
CONTINUOUS
10
5.69568
20
-3.27352
11
5.69588
21
-3.27337
0
LINE
8
BLACK
6
CONTINUOUS
10
5.69588
20
-3.27337
11
5.69963
21
-3.27244
0
LINE
8
BLACK
6
CONTINUOUS
10
5.69963
20
-3.27244
11
5.6999
21
-3.27248
0
LINE
8
BLACK
6
CONTINUOUS
10
5.6999
20
-3.27248
11
5.70015
21
-3.27237
0
LINE
8
BLACK
6
CONTINUOUS
10
5.70015
20
-3.27237
11
5.70297
21
-3.27237
0
LINE
8
BLACK
6
CONTINUOUS
10
5.70297
20
-3.27237
11
5.70322
21
-3.27248
0
LINE
8
BLACK
6
CONTINUOUS
10
5.72038
20
-3.22711
11
5.72051
21
-3.22709
0
LINE
8
BLACK
6
CONTINUOUS
10
5.72051
20
-3.22709
11
5.72063
21
-3.22716
0
LINE
8
BLACK
6
CONTINUOUS
10
5.72063
20
-3.22716
11
5.72101
21
-3.22723
0
LINE
8
BLACK
6
CONTINUOUS
10
5.72101
20
-3.22723
11
5.7216
21
-3.22772
0
LINE
8
BLACK
6
CONTINUOUS
10
5.7216
20
-3.22772
11
5.72226
21
-3.2281
0
LINE
8
BLACK
6
CONTINUOUS
10
5.72226
20
-3.2281
11
5.72235
21
-3.22835
0
LINE
8
BLACK
6
CONTINUOUS
10
5.72235
20
-3.22835
11
5.72256
21
-3.22852
0
LINE
8
BLACK
6
CONTINUOUS
10
5.72256
20
-3.22852
11
5.72269
21
-3.22928
0
LINE
8
BLACK
6
CONTINUOUS
10
5.72269
20
-3.22928
11
5.72295
21
-3.23
0
LINE
8
BLACK
6
CONTINUOUS
10
5.72295
20
-3.23
11
5.72295
21
-3.27
0
LINE
8
BLACK
6
CONTINUOUS
10
5.72295
20
-3.27
11
5.72277
21
-3.27101
0
LINE
8
BLACK
6
CONTINUOUS
10
5.72277
20
-3.27101
11
5.72148
21
-3.27256
0
LINE
8
BLACK
6
CONTINUOUS
10
5.72148
20
-3.27256
11
5.71949
21
-3.27291
0
LINE
8
BLACK
6
CONTINUOUS
10
5.71949
20
-3.27291
11
5.71774
21
-3.2719
0
LINE
8
BLACK
6
CONTINUOUS
10
5.71774
20
-3.2719
11
5.71705
21
-3.27
0
LINE
8
BLACK
6
CONTINUOUS
10
5.71705
20
-3.27
11
5.71705
21
-3.23295
0
LINE
8
BLACK
6
CONTINUOUS
10
5.71705
20
-3.23295
11
5.66295
21
-3.23295
0
LINE
8
BLACK
6
CONTINUOUS
10
5.66295
20
-3.23295
11
5.66295
21
-3.25517
0
LINE
8
BLACK
6
CONTINUOUS
10
5.66295
20
-3.25517
11
5.67667
21
-3.2506
0
LINE
8
BLACK
6
CONTINUOUS
10
5.67667
20
-3.2506
11
5.67702
21
-3.25062
0
LINE
8
BLACK
6
CONTINUOUS
10
5.67702
20
-3.25062
11
5.67735
21
-3.25049
0
LINE
8
BLACK
6
CONTINUOUS
10
5.67735
20
-3.25049
11
5.67781
21
-3.25068
0
LINE
8
BLACK
6
CONTINUOUS
10
5.67781
20
-3.25068
11
5.67831
21
-3.25071
0
LINE
8
BLACK
6
CONTINUOUS
10
5.67831
20
-3.25071
11
5.67854
21
-3.25098
0
LINE
8
BLACK
6
CONTINUOUS
10
5.67854
20
-3.25098
11
5.67887
21
-3.25112
0
LINE
8
BLACK
6
CONTINUOUS
10
5.67887
20
-3.25112
11
5.67906
21
-3.25158
0
LINE
8
BLACK
6
CONTINUOUS
10
5.67906
20
-3.25158
11
5.67938
21
-3.25196
0
LINE
8
BLACK
6
CONTINUOUS
10
5.67938
20
-3.25196
11
5.67936
21
-3.25231
0
LINE
8
BLACK
6
CONTINUOUS
10
5.67936
20
-3.25231
11
5.6795
21
-3.25264
0
LINE
8
BLACK
6
CONTINUOUS
10
5.6795
20
-3.25264
11
5.6795
21
-3.25987
0
LINE
8
BLACK
6
CONTINUOUS
10
5.6795
20
-3.25987
11
5.68391
21
-3.25987
0
LINE
8
BLACK
6
CONTINUOUS
10
5.68391
20
-3.25987
11
5.68543
21
-3.2605
0
LINE
8
BLACK
6
CONTINUOUS
10
5.68543
20
-3.2605
11
5.68606
21
-3.26202
0
LINE
8
BLACK
6
CONTINUOUS
10
5.68606
20
-3.26202
11
5.68543
21
-3.26354
0
LINE
8
BLACK
6
CONTINUOUS
10
5.68543
20
-3.26354
11
5.68391
21
-3.26417
0
LINE
8
BLACK
6
CONTINUOUS
10
5.68391
20
-3.26417
11
5.6795
21
-3.26417
0
LINE
8
BLACK
6
CONTINUOUS
10
5.6795
20
-3.26417
11
5.6795
21
-3.26483
0
LINE
8
BLACK
6
CONTINUOUS
10
5.6795
20
-3.26483
11
5.67887
21
-3.26635
0
LINE
8
BLACK
6
CONTINUOUS
10
5.67887
20
-3.26635
11
5.67735
21
-3.26698
0
LINE
8
BLACK
6
CONTINUOUS
10
5.67735
20
-3.26698
11
5.67582
21
-3.26635
0
LINE
8
BLACK
6
CONTINUOUS
10
5.67582
20
-3.26635
11
5.6752
21
-3.26483
0
LINE
8
BLACK
6
CONTINUOUS
10
5.6752
20
-3.26483
11
5.6752
21
-3.26417
0
LINE
8
BLACK
6
CONTINUOUS
10
5.6752
20
-3.26417
11
5.67078
21
-3.26417
0
LINE
8
BLACK
6
CONTINUOUS
10
5.67078
20
-3.26417
11
5.66926
21
-3.26354
0
LINE
8
BLACK
6
CONTINUOUS
10
5.66926
20
-3.26354
11
5.66863
21
-3.26202
0
LINE
8
BLACK
6
CONTINUOUS
10
5.66863
20
-3.26202
11
5.66926
21
-3.2605
0
LINE
8
BLACK
6
CONTINUOUS
10
5.66926
20
-3.2605
11
5.67078
21
-3.25987
0
LINE
8
BLACK
6
CONTINUOUS
10
5.67078
20
-3.25987
11
5.6752
21
-3.25987
0
LINE
8
BLACK
6
CONTINUOUS
10
5.6752
20
-3.25987
11
5.6752
21
-3.25562
0
LINE
8
BLACK
6
CONTINUOUS
10
5.6752
20
-3.25562
11
5.66395
21
-3.25937
0
LINE
8
BLACK
6
CONTINUOUS
10
5.66395
20
-3.25937
11
5.66295
21
-3.25929
0
LINE
8
BLACK
6
CONTINUOUS
10
5.66295
20
-3.25929
11
5.66295
21
-3.26883
0
LINE
8
BLACK
6
CONTINUOUS
10
5.66295
20
-3.26883
11
5.66421
21
-3.26831
0
LINE
8
BLACK
6
CONTINUOUS
10
5.66421
20
-3.26831
11
5.66573
21
-3.26894
0
LINE
8
BLACK
6
CONTINUOUS
10
5.66573
20
-3.26894
11
5.66636
21
-3.27046
0
LINE
8
BLACK
6
CONTINUOUS
10
5.66636
20
-3.27046
11
5.66636
21
-3.28033
0
LINE
8
BLACK
6
CONTINUOUS
10
5.66636
20
-3.28033
11
5.68306
21
-3.27317
0
LINE
8
BLACK
6
CONTINUOUS
10
5.68306
20
-3.27317
11
5.68471
21
-3.27315
0
LINE
8
BLACK
6
CONTINUOUS
10
5.68471
20
-3.27315
11
5.68589
21
-3.2743
0
LINE
8
BLACK
6
CONTINUOUS
10
5.68589
20
-3.2743
11
5.68591
21
-3.27595
0
LINE
8
BLACK
6
CONTINUOUS
10
5.68591
20
-3.27595
11
5.68476
21
-3.27713
0
LINE
8
BLACK
6
CONTINUOUS
10
5.68476
20
-3.27713
11
5.66506
21
-3.28557
0
LINE
8
BLACK
6
CONTINUOUS
10
5.66506
20
-3.28557
11
5.66462
21
-3.28557
0
LINE
8
BLACK
6
CONTINUOUS
10
5.66462
20
-3.28557
11
5.66421
21
-3.28574
0
LINE
8
BLACK
6
CONTINUOUS
10
5.66421
20
-3.28574
11
5.66383
21
-3.28558
0
LINE
8
BLACK
6
CONTINUOUS
10
5.66383
20
-3.28558
11
5.66341
21
-3.28559
0
LINE
8
BLACK
6
CONTINUOUS
10
5.66341
20
-3.28559
11
5.6631
21
-3.28528
0
LINE
8
BLACK
6
CONTINUOUS
10
5.6631
20
-3.28528
11
5.66269
21
-3.28511
0
LINE
8
BLACK
6
CONTINUOUS
10
5.66269
20
-3.28511
11
5.66253
21
-3.28473
0
LINE
8
BLACK
6
CONTINUOUS
10
5.66253
20
-3.28473
11
5.66224
21
-3.28444
0
LINE
8
BLACK
6
CONTINUOUS
10
5.66224
20
-3.28444
11
5.66223
21
-3.284
0
LINE
8
BLACK
6
CONTINUOUS
10
5.66223
20
-3.284
11
5.66206
21
-3.28359
0
LINE
8
BLACK
6
CONTINUOUS
10
5.66206
20
-3.28359
11
5.66206
21
-3.27186
0
LINE
8
BLACK
6
CONTINUOUS
10
5.66206
20
-3.27186
11
5.66148
21
-3.27256
0
LINE
8
BLACK
6
CONTINUOUS
10
5.66148
20
-3.27256
11
5.65949
21
-3.27291
0
LINE
8
BLACK
6
CONTINUOUS
10
5.65949
20
-3.27291
11
5.65774
21
-3.2719
0
LINE
8
BLACK
6
CONTINUOUS
10
5.65774
20
-3.2719
11
5.65705
21
-3.27
0
LINE
8
BLACK
6
CONTINUOUS
10
5.65705
20
-3.27
11
5.65705
21
-3.23
0
LINE
8
BLACK
6
CONTINUOUS
10
5.65705
20
-3.23
11
5.65711
21
-3.22962
0
LINE
8
BLACK
6
CONTINUOUS
10
5.65711
20
-3.22962
11
5.65709
21
-3.22949
0
LINE
8
BLACK
6
CONTINUOUS
10
5.65709
20
-3.22949
11
5.65716
21
-3.22937
0
LINE
8
BLACK
6
CONTINUOUS
10
5.65716
20
-3.22937
11
5.65723
21
-3.22899
0
LINE
8
BLACK
6
CONTINUOUS
10
5.65723
20
-3.22899
11
5.65772
21
-3.2284
0
LINE
8
BLACK
6
CONTINUOUS
10
5.65772
20
-3.2284
11
5.6581
21
-3.22774
0
LINE
8
BLACK
6
CONTINUOUS
10
5.6581
20
-3.22774
11
5.65835
21
-3.22765
0
LINE
8
BLACK
6
CONTINUOUS
10
5.65835
20
-3.22765
11
5.65852
21
-3.22744
0
LINE
8
BLACK
6
CONTINUOUS
10
5.65852
20
-3.22744
11
5.65928
21
-3.22731
0
LINE
8
BLACK
6
CONTINUOUS
10
5.65928
20
-3.22731
11
5.66
21
-3.22705
0
LINE
8
BLACK
6
CONTINUOUS
10
5.66
20
-3.22705
11
5.72
21
-3.22705
0
LINE
8
BLACK
6
CONTINUOUS
10
5.72
20
-3.22705
11
5.72038
21
-3.22711
0
LINE
8
BLACK
6
CONTINUOUS
10
5.48543
20
-3.26894
11
5.48606
21
-3.27046
0
LINE
8
BLACK
6
CONTINUOUS
10
5.48606
20
-3.27046
11
5.48606
21
-3.28265
0
LINE
8
BLACK
6
CONTINUOUS
10
5.48606
20
-3.28265
11
5.48543
21
-3.28417
0
LINE
8
BLACK
6
CONTINUOUS
10
5.48543
20
-3.28417
11
5.48391
21
-3.2848
0
LINE
8
BLACK
6
CONTINUOUS
10
5.48391
20
-3.2848
11
5.48239
21
-3.28417
0
LINE
8
BLACK
6
CONTINUOUS
10
5.48239
20
-3.28417
11
5.48176
21
-3.28265
0
LINE
8
BLACK
6
CONTINUOUS
10
5.48176
20
-3.28265
11
5.48176
21
-3.27565
0
LINE
8
BLACK
6
CONTINUOUS
10
5.48176
20
-3.27565
11
5.47417
21
-3.28324
0
LINE
8
BLACK
6
CONTINUOUS
10
5.47417
20
-3.28324
11
5.47371
21
-3.28343
0
LINE
8
BLACK
6
CONTINUOUS
10
5.47371
20
-3.28343
11
5.47333
21
-3.28376
0
LINE
8
BLACK
6
CONTINUOUS
10
5.47333
20
-3.28376
11
5.47052
21
-3.28469
0
LINE
8
BLACK
6
CONTINUOUS
10
5.47052
20
-3.28469
11
5.47017
21
-3.28467
0
LINE
8
BLACK
6
CONTINUOUS
10
5.47017
20
-3.28467
11
5.46984
21
-3.2848
0
LINE
8
BLACK
6
CONTINUOUS
10
5.46984
20
-3.2848
11
5.46796
21
-3.2848
0
LINE
8
BLACK
6
CONTINUOUS
10
5.46796
20
-3.2848
11
5.4675
21
-3.28461
0
LINE
8
BLACK
6
CONTINUOUS
10
5.4675
20
-3.28461
11
5.467
21
-3.28458
0
LINE
8
BLACK
6
CONTINUOUS
10
5.467
20
-3.28458
11
5.46513
21
-3.28364
0
LINE
8
BLACK
6
CONTINUOUS
10
5.46513
20
-3.28364
11
5.46489
21
-3.28337
0
LINE
8
BLACK
6
CONTINUOUS
10
5.46489
20
-3.28337
11
5.46457
21
-3.28324
0
LINE
8
BLACK
6
CONTINUOUS
10
5.46457
20
-3.28324
11
5.46363
21
-3.2823
0
LINE
8
BLACK
6
CONTINUOUS
10
5.46363
20
-3.2823
11
5.46349
21
-3.28197
0
LINE
8
BLACK
6
CONTINUOUS
10
5.46349
20
-3.28197
11
5.46323
21
-3.28174
0
LINE
8
BLACK
6
CONTINUOUS
10
5.46323
20
-3.28174
11
5.46229
21
-3.27986
0
LINE
8
BLACK
6
CONTINUOUS
10
5.46229
20
-3.27986
11
5.46225
21
-3.27936
0
LINE
8
BLACK
6
CONTINUOUS
10
5.46225
20
-3.27936
11
5.46206
21
-3.2789
0
LINE
8
BLACK
6
CONTINUOUS
10
5.46206
20
-3.2789
11
5.46206
21
-3.27421
0
LINE
8
BLACK
6
CONTINUOUS
10
5.46206
20
-3.27421
11
5.46225
21
-3.27375
0
LINE
8
BLACK
6
CONTINUOUS
10
5.46225
20
-3.27375
11
5.46229
21
-3.27325
0
LINE
8
BLACK
6
CONTINUOUS
10
5.46229
20
-3.27325
11
5.46323
21
-3.27137
0
LINE
8
BLACK
6
CONTINUOUS
10
5.46323
20
-3.27137
11
5.46349
21
-3.27114
0
LINE
8
BLACK
6
CONTINUOUS
10
5.46349
20
-3.27114
11
5.46363
21
-3.27082
0
LINE
8
BLACK
6
CONTINUOUS
10
5.46363
20
-3.27082
11
5.46457
21
-3.26988
0
LINE
8
BLACK
6
CONTINUOUS
10
5.46457
20
-3.26988
11
5.46609
21
-3.26925
0
LINE
8
BLACK
6
CONTINUOUS
10
5.46609
20
-3.26925
11
5.46761
21
-3.26988
0
LINE
8
BLACK
6
CONTINUOUS
10
5.46761
20
-3.26988
11
5.46824
21
-3.2714
0
LINE
8
BLACK
6
CONTINUOUS
10
5.46824
20
-3.2714
11
5.46761
21
-3.27292
0
LINE
8
BLACK
6
CONTINUOUS
10
5.46761
20
-3.27292
11
5.46692
21
-3.27361
0
LINE
8
BLACK
6
CONTINUOUS
10
5.46692
20
-3.27361
11
5.46636
21
-3.27472
0
LINE
8
BLACK
6
CONTINUOUS
10
5.46636
20
-3.27472
11
5.46636
21
-3.27839
0
LINE
8
BLACK
6
CONTINUOUS
10
5.46636
20
-3.27839
11
5.46692
21
-3.2795
0
LINE
8
BLACK
6
CONTINUOUS
10
5.46692
20
-3.2795
11
5.46736
21
-3.27995
0
LINE
8
BLACK
6
CONTINUOUS
10
5.46736
20
-3.27995
11
5.46847
21
-3.2805
0
LINE
8
BLACK
6
CONTINUOUS
10
5.46847
20
-3.2805
11
5.46949
21
-3.2805
0
LINE
8
BLACK
6
CONTINUOUS
10
5.46949
20
-3.2805
11
5.47149
21
-3.27984
0
LINE
8
BLACK
6
CONTINUOUS
10
5.47149
20
-3.27984
11
5.48239
21
-3.26894
0
LINE
8
BLACK
6
CONTINUOUS
10
5.48239
20
-3.26894
11
5.48391
21
-3.26831
0
LINE
8
BLACK
6
CONTINUOUS
10
5.48391
20
-3.26831
11
5.48543
21
-3.26894
0
LINE
8
BLACK
6
CONTINUOUS
10
5.75666
20
-3.26935
11
5.75693
21
-3.26931
0
LINE
8
BLACK
6
CONTINUOUS
10
5.75693
20
-3.26931
11
5.76068
21
-3.27025
0
LINE
8
BLACK
6
CONTINUOUS
10
5.76068
20
-3.27025
11
5.76088
21
-3.2704
0
LINE
8
BLACK
6
CONTINUOUS
10
5.76088
20
-3.2704
11
5.76112
21
-3.27041
0
LINE
8
BLACK
6
CONTINUOUS
10
5.76112
20
-3.27041
11
5.763
21
-3.27135
0
LINE
8
BLACK
6
CONTINUOUS
10
5.763
20
-3.27135
11
5.76323
21
-3.27162
0
LINE
8
BLACK
6
CONTINUOUS
10
5.76323
20
-3.27162
11
5.76356
21
-3.27175
0
LINE
8
BLACK
6
CONTINUOUS
10
5.76356
20
-3.27175
11
5.76449
21
-3.27269
0
LINE
8
BLACK
6
CONTINUOUS
10
5.76449
20
-3.27269
11
5.76463
21
-3.27302
0
LINE
8
BLACK
6
CONTINUOUS
10
5.76463
20
-3.27302
11
5.7649
21
-3.27325
0
LINE
8
BLACK
6
CONTINUOUS
10
5.7649
20
-3.27325
11
5.76583
21
-3.27513
0
LINE
8
BLACK
6
CONTINUOUS
10
5.76583
20
-3.27513
11
5.76587
21
-3.27563
0
LINE
8
BLACK
6
CONTINUOUS
10
5.76587
20
-3.27563
11
5.76606
21
-3.27609
0
LINE
8
BLACK
6
CONTINUOUS
10
5.76606
20
-3.27609
11
5.76606
21
-3.27796
0
LINE
8
BLACK
6
CONTINUOUS
10
5.76606
20
-3.27796
11
5.76587
21
-3.27843
0
LINE
8
BLACK
6
CONTINUOUS
10
5.76587
20
-3.27843
11
5.76583
21
-3.27893
0
LINE
8
BLACK
6
CONTINUOUS
10
5.76583
20
-3.27893
11
5.7649
21
-3.2808
0
LINE
8
BLACK
6
CONTINUOUS
10
5.7649
20
-3.2808
11
5.76463
21
-3.28103
0
LINE
8
BLACK
6
CONTINUOUS
10
5.76463
20
-3.28103
11
5.76449
21
-3.28136
0
LINE
8
BLACK
6
CONTINUOUS
10
5.76449
20
-3.28136
11
5.76356
21
-3.2823
0
LINE
8
BLACK
6
CONTINUOUS
10
5.76356
20
-3.2823
11
5.76323
21
-3.28243
0
LINE
8
BLACK
6
CONTINUOUS
10
5.76323
20
-3.28243
11
5.763
21
-3.2827
0
LINE
8
BLACK
6
CONTINUOUS
10
5.763
20
-3.2827
11
5.76112
21
-3.28364
0
LINE
8
BLACK
6
CONTINUOUS
10
5.76112
20
-3.28364
11
5.76088
21
-3.28366
0
LINE
8
BLACK
6
CONTINUOUS
10
5.76088
20
-3.28366
11
5.76068
21
-3.2838
0
LINE
8
BLACK
6
CONTINUOUS
10
5.76068
20
-3.2838
11
5.75693
21
-3.28474
0
LINE
8
BLACK
6
CONTINUOUS
10
5.75693
20
-3.28474
11
5.75666
21
-3.2847
0
LINE
8
BLACK
6
CONTINUOUS
10
5.75666
20
-3.2847
11
5.75641
21
-3.2848
0
LINE
8
BLACK
6
CONTINUOUS
10
5.75641
20
-3.2848
11
5.75172
21
-3.2848
0
LINE
8
BLACK
6
CONTINUOUS
10
5.75172
20
-3.2848
11
5.75146
21
-3.2847
0
LINE
8
BLACK
6
CONTINUOUS
10
5.75146
20
-3.2847
11
5.7512
21
-3.28474
0
LINE
8
BLACK
6
CONTINUOUS
10
5.7512
20
-3.28474
11
5.74744
21
-3.2838
0
LINE
8
BLACK
6
CONTINUOUS
10
5.74744
20
-3.2838
11
5.74725
21
-3.28366
0
LINE
8
BLACK
6
CONTINUOUS
10
5.74725
20
-3.28366
11
5.747
21
-3.28364
0
LINE
8
BLACK
6
CONTINUOUS
10
5.747
20
-3.28364
11
5.74513
21
-3.2827
0
LINE
8
BLACK
6
CONTINUOUS
10
5.74513
20
-3.2827
11
5.74489
21
-3.28243
0
LINE
8
BLACK
6
CONTINUOUS
10
5.74489
20
-3.28243
11
5.74457
21
-3.2823
0
LINE
8
BLACK
6
CONTINUOUS
10
5.74457
20
-3.2823
11
5.74363
21
-3.28136
0
LINE
8
BLACK
6
CONTINUOUS
10
5.74363
20
-3.28136
11
5.74349
21
-3.28103
0
LINE
8
BLACK
6
CONTINUOUS
10
5.74349
20
-3.28103
11
5.74323
21
-3.2808
0
LINE
8
BLACK
6
CONTINUOUS
10
5.74323
20
-3.2808
11
5.74229
21
-3.27893
0
LINE
8
BLACK
6
CONTINUOUS
10
5.74229
20
-3.27893
11
5.74225
21
-3.27843
0
LINE
8
BLACK
6
CONTINUOUS
10
5.74225
20
-3.27843
11
5.74206
21
-3.27796
0
LINE
8
BLACK
6
CONTINUOUS
10
5.74206
20
-3.27796
11
5.74206
21
-3.27609
0
LINE
8
BLACK
6
CONTINUOUS
10
5.74206
20
-3.27609
11
5.74225
21
-3.27563
0
LINE
8
BLACK
6
CONTINUOUS
10
5.74225
20
-3.27563
11
5.74229
21
-3.27513
0
LINE
8
BLACK
6
CONTINUOUS
10
5.74229
20
-3.27513
11
5.74323
21
-3.27325
0
LINE
8
BLACK
6
CONTINUOUS
10
5.74323
20
-3.27325
11
5.74349
21
-3.27302
0
LINE
8
BLACK
6
CONTINUOUS
10
5.74349
20
-3.27302
11
5.74363
21
-3.27269
0
LINE
8
BLACK
6
CONTINUOUS
10
5.74363
20
-3.27269
11
5.74457
21
-3.27175
0
LINE
8
BLACK
6
CONTINUOUS
10
5.74457
20
-3.27175
11
5.74489
21
-3.27162
0
LINE
8
BLACK
6
CONTINUOUS
10
5.74489
20
-3.27162
11
5.74513
21
-3.27135
0
LINE
8
BLACK
6
CONTINUOUS
10
5.74513
20
-3.27135
11
5.747
21
-3.27041
0
LINE
8
BLACK
6
CONTINUOUS
10
5.747
20
-3.27041
11
5.74725
21
-3.2704
0
LINE
8
BLACK
6
CONTINUOUS
10
5.74725
20
-3.2704
11
5.74744
21
-3.27025
0
LINE
8
BLACK
6
CONTINUOUS
10
5.74744
20
-3.27025
11
5.7512
21
-3.26931
0
LINE
8
BLACK
6
CONTINUOUS
10
5.7512
20
-3.26931
11
5.75146
21
-3.26935
0
LINE
8
BLACK
6
CONTINUOUS
10
5.75146
20
-3.26935
11
5.75172
21
-3.26925
0
LINE
8
BLACK
6
CONTINUOUS
10
5.75172
20
-3.26925
11
5.75641
21
-3.26925
0
LINE
8
BLACK
6
CONTINUOUS
10
5.75641
20
-3.26925
11
5.75666
21
-3.26935
0
LINE
8
BLACK
6
CONTINUOUS
10
5.75198
20
-3.27355
11
5.74871
21
-3.27436
0
LINE
8
BLACK
6
CONTINUOUS
10
5.74871
20
-3.27436
11
5.74736
21
-3.27504
0
LINE
8
BLACK
6
CONTINUOUS
10
5.74736
20
-3.27504
11
5.74692
21
-3.27549
0
LINE
8
BLACK
6
CONTINUOUS
10
5.74692
20
-3.27549
11
5.74636
21
-3.2766
0
LINE
8
BLACK
6
CONTINUOUS
10
5.74636
20
-3.2766
11
5.74636
21
-3.27746
0
LINE
8
BLACK
6
CONTINUOUS
10
5.74636
20
-3.27746
11
5.74692
21
-3.27857
0
LINE
8
BLACK
6
CONTINUOUS
10
5.74692
20
-3.27857
11
5.74736
21
-3.27901
0
LINE
8
BLACK
6
CONTINUOUS
10
5.74736
20
-3.27901
11
5.74871
21
-3.27969
0
LINE
8
BLACK
6
CONTINUOUS
10
5.74871
20
-3.27969
11
5.75198
21
-3.2805
0
LINE
8
BLACK
6
CONTINUOUS
10
5.75198
20
-3.2805
11
5.75614
21
-3.2805
0
LINE
8
BLACK
6
CONTINUOUS
10
5.75614
20
-3.2805
11
5.75941
21
-3.27969
0
LINE
8
BLACK
6
CONTINUOUS
10
5.75941
20
-3.27969
11
5.76076
21
-3.27901
0
LINE
8
BLACK
6
CONTINUOUS
10
5.76076
20
-3.27901
11
5.76121
21
-3.27857
0
LINE
8
BLACK
6
CONTINUOUS
10
5.76121
20
-3.27857
11
5.76176
21
-3.27746
0
LINE
8
BLACK
6
CONTINUOUS
10
5.76176
20
-3.27746
11
5.76176
21
-3.2766
0
LINE
8
BLACK
6
CONTINUOUS
10
5.76176
20
-3.2766
11
5.76121
21
-3.27549
0
LINE
8
BLACK
6
CONTINUOUS
10
5.76121
20
-3.27549
11
5.76076
21
-3.27504
0
LINE
8
BLACK
6
CONTINUOUS
10
5.76076
20
-3.27504
11
5.75941
21
-3.27436
0
LINE
8
BLACK
6
CONTINUOUS
10
5.75941
20
-3.27436
11
5.75614
21
-3.27355
0
LINE
8
BLACK
6
CONTINUOUS
10
5.75614
20
-3.27355
11
5.75198
21
-3.27355
0
LINE
8
BLACK
6
CONTINUOUS
10
5.52038
20
-3.22711
11
5.52051
21
-3.22709
0
LINE
8
BLACK
6
CONTINUOUS
10
5.52051
20
-3.22709
11
5.52063
21
-3.22716
0
LINE
8
BLACK
6
CONTINUOUS
10
5.52063
20
-3.22716
11
5.52101
21
-3.22723
0
LINE
8
BLACK
6
CONTINUOUS
10
5.52101
20
-3.22723
11
5.5216
21
-3.22772
0
LINE
8
BLACK
6
CONTINUOUS
10
5.5216
20
-3.22772
11
5.52226
21
-3.2281
0
LINE
8
BLACK
6
CONTINUOUS
10
5.52226
20
-3.2281
11
5.52235
21
-3.22835
0
LINE
8
BLACK
6
CONTINUOUS
10
5.52235
20
-3.22835
11
5.52256
21
-3.22852
0
LINE
8
BLACK
6
CONTINUOUS
10
5.52256
20
-3.22852
11
5.52269
21
-3.22928
0
LINE
8
BLACK
6
CONTINUOUS
10
5.52269
20
-3.22928
11
5.52295
21
-3.23
0
LINE
8
BLACK
6
CONTINUOUS
10
5.52295
20
-3.23
11
5.52295
21
-3.27
0
LINE
8
BLACK
6
CONTINUOUS
10
5.52295
20
-3.27
11
5.52277
21
-3.27101
0
LINE
8
BLACK
6
CONTINUOUS
10
5.52277
20
-3.27101
11
5.52148
21
-3.27256
0
LINE
8
BLACK
6
CONTINUOUS
10
5.52148
20
-3.27256
11
5.51949
21
-3.27291
0
LINE
8
BLACK
6
CONTINUOUS
10
5.51949
20
-3.27291
11
5.51774
21
-3.2719
0
LINE
8
BLACK
6
CONTINUOUS
10
5.51774
20
-3.2719
11
5.51705
21
-3.27
0
LINE
8
BLACK
6
CONTINUOUS
10
5.51705
20
-3.27
11
5.51705
21
-3.23295
0
LINE
8
BLACK
6
CONTINUOUS
10
5.51705
20
-3.23295
11
5.46295
21
-3.23295
0
LINE
8
BLACK
6
CONTINUOUS
10
5.46295
20
-3.23295
11
5.46295
21
-3.25316
0
LINE
8
BLACK
6
CONTINUOUS
10
5.46295
20
-3.25316
11
5.46323
21
-3.25261
0
LINE
8
BLACK
6
CONTINUOUS
10
5.46323
20
-3.25261
11
5.46349
21
-3.25238
0
LINE
8
BLACK
6
CONTINUOUS
10
5.46349
20
-3.25238
11
5.46363
21
-3.25205
0
LINE
8
BLACK
6
CONTINUOUS
10
5.46363
20
-3.25205
11
5.46457
21
-3.25112
0
LINE
8
BLACK
6
CONTINUOUS
10
5.46457
20
-3.25112
11
5.46609
21
-3.25049
0
LINE
8
BLACK
6
CONTINUOUS
10
5.46609
20
-3.25049
11
5.46761
21
-3.25112
0
LINE
8
BLACK
6
CONTINUOUS
10
5.46761
20
-3.25112
11
5.46824
21
-3.25264
0
LINE
8
BLACK
6
CONTINUOUS
10
5.46824
20
-3.25264
11
5.46761
21
-3.25416
0
LINE
8
BLACK
6
CONTINUOUS
10
5.46761
20
-3.25416
11
5.46692
21
-3.25485
0
LINE
8
BLACK
6
CONTINUOUS
10
5.46692
20
-3.25485
11
5.46636
21
-3.25596
0
LINE
8
BLACK
6
CONTINUOUS
10
5.46636
20
-3.25596
11
5.46636
21
-3.25963
0
LINE
8
BLACK
6
CONTINUOUS
10
5.46636
20
-3.25963
11
5.46692
21
-3.26074
0
LINE
8
BLACK
6
CONTINUOUS
10
5.46692
20
-3.26074
11
5.46736
21
-3.26119
0
LINE
8
BLACK
6
CONTINUOUS
10
5.46736
20
-3.26119
11
5.46847
21
-3.26174
0
LINE
8
BLACK
6
CONTINUOUS
10
5.46847
20
-3.26174
11
5.46949
21
-3.26174
0
LINE
8
BLACK
6
CONTINUOUS
10
5.46949
20
-3.26174
11
5.47149
21
-3.26108
0
LINE
8
BLACK
6
CONTINUOUS
10
5.47149
20
-3.26108
11
5.48239
21
-3.25018
0
LINE
8
BLACK
6
CONTINUOUS
10
5.48239
20
-3.25018
11
5.48391
21
-3.24955
0
LINE
8
BLACK
6
CONTINUOUS
10
5.48391
20
-3.24955
11
5.48543
21
-3.25018
0
LINE
8
BLACK
6
CONTINUOUS
10
5.48543
20
-3.25018
11
5.48606
21
-3.2517
0
LINE
8
BLACK
6
CONTINUOUS
10
5.48606
20
-3.2517
11
5.48606
21
-3.26389
0
LINE
8
BLACK
6
CONTINUOUS
10
5.48606
20
-3.26389
11
5.48543
21
-3.26541
0
LINE
8
BLACK
6
CONTINUOUS
10
5.48543
20
-3.26541
11
5.48391
21
-3.26604
0
LINE
8
BLACK
6
CONTINUOUS
10
5.48391
20
-3.26604
11
5.48239
21
-3.26541
0
LINE
8
BLACK
6
CONTINUOUS
10
5.48239
20
-3.26541
11
5.48176
21
-3.26389
0
LINE
8
BLACK
6
CONTINUOUS
10
5.48176
20
-3.26389
11
5.48176
21
-3.25689
0
LINE
8
BLACK
6
CONTINUOUS
10
5.48176
20
-3.25689
11
5.47417
21
-3.26448
0
LINE
8
BLACK
6
CONTINUOUS
10
5.47417
20
-3.26448
11
5.47371
21
-3.26467
0
LINE
8
BLACK
6
CONTINUOUS
10
5.47371
20
-3.26467
11
5.47333
21
-3.26499
0
LINE
8
BLACK
6
CONTINUOUS
10
5.47333
20
-3.26499
11
5.47052
21
-3.26593
0
LINE
8
BLACK
6
CONTINUOUS
10
5.47052
20
-3.26593
11
5.47017
21
-3.26591
0
LINE
8
BLACK
6
CONTINUOUS
10
5.47017
20
-3.26591
11
5.46984
21
-3.26604
0
LINE
8
BLACK
6
CONTINUOUS
10
5.46984
20
-3.26604
11
5.46796
21
-3.26604
0
LINE
8
BLACK
6
CONTINUOUS
10
5.46796
20
-3.26604
11
5.4675
21
-3.26585
0
LINE
8
BLACK
6
CONTINUOUS
10
5.4675
20
-3.26585
11
5.467
21
-3.26582
0
LINE
8
BLACK
6
CONTINUOUS
10
5.467
20
-3.26582
11
5.46513
21
-3.26488
0
LINE
8
BLACK
6
CONTINUOUS
10
5.46513
20
-3.26488
11
5.46489
21
-3.26461
0
LINE
8
BLACK
6
CONTINUOUS
10
5.46489
20
-3.26461
11
5.46457
21
-3.26448
0
LINE
8
BLACK
6
CONTINUOUS
10
5.46457
20
-3.26448
11
5.46363
21
-3.26354
0
LINE
8
BLACK
6
CONTINUOUS
10
5.46363
20
-3.26354
11
5.46349
21
-3.26321
0
LINE
8
BLACK
6
CONTINUOUS
10
5.46349
20
-3.26321
11
5.46323
21
-3.26298
0
LINE
8
BLACK
6
CONTINUOUS
10
5.46323
20
-3.26298
11
5.46295
21
-3.26243
0
LINE
8
BLACK
6
CONTINUOUS
10
5.46295
20
-3.26243
11
5.46295
21
-3.27
0
LINE
8
BLACK
6
CONTINUOUS
10
5.46295
20
-3.27
11
5.46277
21
-3.27101
0
LINE
8
BLACK
6
CONTINUOUS
10
5.46277
20
-3.27101
11
5.46148
21
-3.27256
0
LINE
8
BLACK
6
CONTINUOUS
10
5.46148
20
-3.27256
11
5.45949
21
-3.27291
0
LINE
8
BLACK
6
CONTINUOUS
10
5.45949
20
-3.27291
11
5.45774
21
-3.2719
0
LINE
8
BLACK
6
CONTINUOUS
10
5.45774
20
-3.2719
11
5.45705
21
-3.27
0
LINE
8
BLACK
6
CONTINUOUS
10
5.45705
20
-3.27
11
5.45705
21
-3.23
0
LINE
8
BLACK
6
CONTINUOUS
10
5.45705
20
-3.23
11
5.45711
21
-3.22962
0
LINE
8
BLACK
6
CONTINUOUS
10
5.45711
20
-3.22962
11
5.45709
21
-3.22949
0
LINE
8
BLACK
6
CONTINUOUS
10
5.45709
20
-3.22949
11
5.45716
21
-3.22937
0
LINE
8
BLACK
6
CONTINUOUS
10
5.45716
20
-3.22937
11
5.45723
21
-3.22899
0
LINE
8
BLACK
6
CONTINUOUS
10
5.45723
20
-3.22899
11
5.45772
21
-3.2284
0
LINE
8
BLACK
6
CONTINUOUS
10
5.45772
20
-3.2284
11
5.4581
21
-3.22774
0
LINE
8
BLACK
6
CONTINUOUS
10
5.4581
20
-3.22774
11
5.45835
21
-3.22765
0
LINE
8
BLACK
6
CONTINUOUS
10
5.45835
20
-3.22765
11
5.45852
21
-3.22744
0
LINE
8
BLACK
6
CONTINUOUS
10
5.45852
20
-3.22744
11
5.45928
21
-3.22731
0
LINE
8
BLACK
6
CONTINUOUS
10
5.45928
20
-3.22731
11
5.46
21
-3.22705
0
LINE
8
BLACK
6
CONTINUOUS
10
5.46
20
-3.22705
11
5.52
21
-3.22705
0
LINE
8
BLACK
6
CONTINUOUS
10
5.52
20
-3.22705
11
5.52038
21
-3.22711
0
LINE
8
BLACK
6
CONTINUOUS
10
5.80038
20
-3.22711
11
5.80051
21
-3.22709
0
LINE
8
BLACK
6
CONTINUOUS
10
5.80051
20
-3.22709
11
5.80063
21
-3.22716
0
LINE
8
BLACK
6
CONTINUOUS
10
5.80063
20
-3.22716
11
5.80101
21
-3.22723
0
LINE
8
BLACK
6
CONTINUOUS
10
5.80101
20
-3.22723
11
5.8016
21
-3.22772
0
LINE
8
BLACK
6
CONTINUOUS
10
5.8016
20
-3.22772
11
5.80226
21
-3.2281
0
LINE
8
BLACK
6
CONTINUOUS
10
5.80226
20
-3.2281
11
5.80235
21
-3.22835
0
LINE
8
BLACK
6
CONTINUOUS
10
5.80235
20
-3.22835
11
5.80256
21
-3.22852
0
LINE
8
BLACK
6
CONTINUOUS
10
5.80256
20
-3.22852
11
5.80269
21
-3.22928
0
LINE
8
BLACK
6
CONTINUOUS
10
5.80269
20
-3.22928
11
5.80295
21
-3.23
0
LINE
8
BLACK
6
CONTINUOUS
10
5.80295
20
-3.23
11
5.80295
21
-3.27
0
LINE
8
BLACK
6
CONTINUOUS
10
5.80295
20
-3.27
11
5.80277
21
-3.27101
0
LINE
8
BLACK
6
CONTINUOUS
10
5.80277
20
-3.27101
11
5.80148
21
-3.27256
0
LINE
8
BLACK
6
CONTINUOUS
10
5.80148
20
-3.27256
11
5.79949
21
-3.27291
0
LINE
8
BLACK
6
CONTINUOUS
10
5.79949
20
-3.27291
11
5.79774
21
-3.2719
0
LINE
8
BLACK
6
CONTINUOUS
10
5.79774
20
-3.2719
11
5.79705
21
-3.27
0
LINE
8
BLACK
6
CONTINUOUS
10
5.79705
20
-3.27
11
5.79705
21
-3.23295
0
LINE
8
BLACK
6
CONTINUOUS
10
5.79705
20
-3.23295
11
5.74295
21
-3.23295
0
LINE
8
BLACK
6
CONTINUOUS
10
5.74295
20
-3.23295
11
5.74295
21
-3.25657
0
LINE
8
BLACK
6
CONTINUOUS
10
5.74295
20
-3.25657
11
5.74302
21
-3.25648
0
LINE
8
BLACK
6
CONTINUOUS
10
5.74302
20
-3.25648
11
5.74566
21
-3.25472
0
LINE
8
BLACK
6
CONTINUOUS
10
5.74566
20
-3.25472
11
5.74714
21
-3.25324
0
LINE
8
BLACK
6
CONTINUOUS
10
5.74714
20
-3.25324
11
5.74792
21
-3.25167
0
LINE
8
BLACK
6
CONTINUOUS
10
5.74792
20
-3.25167
11
5.74916
21
-3.2506
0
LINE
8
BLACK
6
CONTINUOUS
10
5.74916
20
-3.2506
11
5.7508
21
-3.25071
0
LINE
8
BLACK
6
CONTINUOUS
10
5.7508
20
-3.25071
11
5.75188
21
-3.25196
0
LINE
8
BLACK
6
CONTINUOUS
10
5.75188
20
-3.25196
11
5.75176
21
-3.2536
0
LINE
8
BLACK
6
CONTINUOUS
10
5.75176
20
-3.2536
11
5.75083
21
-3.25547
0
LINE
8
BLACK
6
CONTINUOUS
10
5.75083
20
-3.25547
11
5.75056
21
-3.25571
0
LINE
8
BLACK
6
CONTINUOUS
10
5.75056
20
-3.25571
11
5.75042
21
-3.25603
0
LINE
8
BLACK
6
CONTINUOUS
10
5.75042
20
-3.25603
11
5.75034
21
-3.25611
0
LINE
8
BLACK
6
CONTINUOUS
10
5.75034
20
-3.25611
11
5.76176
21
-3.25611
0
LINE
8
BLACK
6
CONTINUOUS
10
5.76176
20
-3.25611
11
5.76176
21
-3.25264
0
LINE
8
BLACK
6
CONTINUOUS
10
5.76176
20
-3.25264
11
5.76239
21
-3.25112
0
LINE
8
BLACK
6
CONTINUOUS
10
5.76239
20
-3.25112
11
5.76391
21
-3.25049
0
LINE
8
BLACK
6
CONTINUOUS
10
5.76391
20
-3.25049
11
5.76543
21
-3.25112
0
LINE
8
BLACK
6
CONTINUOUS
10
5.76543
20
-3.25112
11
5.76606
21
-3.25264
0
LINE
8
BLACK
6
CONTINUOUS
10
5.76606
20
-3.25264
11
5.76606
21
-3.26389
0
LINE
8
BLACK
6
CONTINUOUS
10
5.76606
20
-3.26389
11
5.76543
21
-3.26541
0
LINE
8
BLACK
6
CONTINUOUS
10
5.76543
20
-3.26541
11
5.76391
21
-3.26604
0
LINE
8
BLACK
6
CONTINUOUS
10
5.76391
20
-3.26604
11
5.76239
21
-3.26541
0
LINE
8
BLACK
6
CONTINUOUS
10
5.76239
20
-3.26541
11
5.76176
21
-3.26389
0
LINE
8
BLACK
6
CONTINUOUS
10
5.76176
20
-3.26389
11
5.76176
21
-3.26041
0
LINE
8
BLACK
6
CONTINUOUS
10
5.76176
20
-3.26041
11
5.74421
21
-3.26041
0
LINE
8
BLACK
6
CONTINUOUS
10
5.74421
20
-3.26041
11
5.74401
21
-3.26033
0
LINE
8
BLACK
6
CONTINUOUS
10
5.74401
20
-3.26033
11
5.74379
21
-3.26037
0
LINE
8
BLACK
6
CONTINUOUS
10
5.74379
20
-3.26037
11
5.74327
21
-3.26002
0
LINE
8
BLACK
6
CONTINUOUS
10
5.74327
20
-3.26002
11
5.74295
21
-3.25989
0
LINE
8
BLACK
6
CONTINUOUS
10
5.74295
20
-3.25989
11
5.74295
21
-3.27
0
LINE
8
BLACK
6
CONTINUOUS
10
5.74295
20
-3.27
11
5.74277
21
-3.27101
0
LINE
8
BLACK
6
CONTINUOUS
10
5.74277
20
-3.27101
11
5.74148
21
-3.27256
0
LINE
8
BLACK
6
CONTINUOUS
10
5.74148
20
-3.27256
11
5.73949
21
-3.27291
0
LINE
8
BLACK
6
CONTINUOUS
10
5.73949
20
-3.27291
11
5.73774
21
-3.2719
0
LINE
8
BLACK
6
CONTINUOUS
10
5.73774
20
-3.2719
11
5.73705
21
-3.27
0
LINE
8
BLACK
6
CONTINUOUS
10
5.73705
20
-3.27
11
5.73705
21
-3.23
0
LINE
8
BLACK
6
CONTINUOUS
10
5.73705
20
-3.23
11
5.73711
21
-3.22962
0
LINE
8
BLACK
6
CONTINUOUS
10
5.73711
20
-3.22962
11
5.73709
21
-3.22949
0
LINE
8
BLACK
6
CONTINUOUS
10
5.73709
20
-3.22949
11
5.73716
21
-3.22937
0
LINE
8
BLACK
6
CONTINUOUS
10
5.73716
20
-3.22937
11
5.73723
21
-3.22899
0
LINE
8
BLACK
6
CONTINUOUS
10
5.73723
20
-3.22899
11
5.73772
21
-3.2284
0
LINE
8
BLACK
6
CONTINUOUS
10
5.73772
20
-3.2284
11
5.7381
21
-3.22774
0
LINE
8
BLACK
6
CONTINUOUS
10
5.7381
20
-3.22774
11
5.73835
21
-3.22765
0
LINE
8
BLACK
6
CONTINUOUS
10
5.73835
20
-3.22765
11
5.73852
21
-3.22744
0
LINE
8
BLACK
6
CONTINUOUS
10
5.73852
20
-3.22744
11
5.73928
21
-3.22731
0
LINE
8
BLACK
6
CONTINUOUS
10
5.73928
20
-3.22731
11
5.74
21
-3.22705
0
LINE
8
BLACK
6
CONTINUOUS
10
5.74
20
-3.22705
11
5.8
21
-3.22705
0
LINE
8
BLACK
6
CONTINUOUS
10
5.8
20
-3.22705
11
5.80038
21
-3.22711
0
LINE
8
BLACK
6
CONTINUOUS
10
5.65226
20
-3.1481
11
5.65295
21
-3.15
0
LINE
8
BLACK
6
CONTINUOUS
10
5.65295
20
-3.15
11
5.65295
21
-3.19
0
LINE
8
BLACK
6
CONTINUOUS
10
5.65295
20
-3.19
11
5.65289
21
-3.19038
0
LINE
8
BLACK
6
CONTINUOUS
10
5.65289
20
-3.19038
11
5.65291
21
-3.19051
0
LINE
8
BLACK
6
CONTINUOUS
10
5.65291
20
-3.19051
11
5.65284
21
-3.19063
0
LINE
8
BLACK
6
CONTINUOUS
10
5.65284
20
-3.19063
11
5.65277
21
-3.19101
0
LINE
8
BLACK
6
CONTINUOUS
10
5.65277
20
-3.19101
11
5.65228
21
-3.1916
0
LINE
8
BLACK
6
CONTINUOUS
10
5.65228
20
-3.1916
11
5.6519
21
-3.19226
0
LINE
8
BLACK
6
CONTINUOUS
10
5.6519
20
-3.19226
11
5.65165
21
-3.19235
0
LINE
8
BLACK
6
CONTINUOUS
10
5.65165
20
-3.19235
11
5.65148
21
-3.19256
0
LINE
8
BLACK
6
CONTINUOUS
10
5.65148
20
-3.19256
11
5.65072
21
-3.19269
0
LINE
8
BLACK
6
CONTINUOUS
10
5.65072
20
-3.19269
11
5.65
21
-3.19295
0
LINE
8
BLACK
6
CONTINUOUS
10
5.65
20
-3.19295
11
5.59
21
-3.19295
0
LINE
8
BLACK
6
CONTINUOUS
10
5.59
20
-3.19295
11
5.58962
21
-3.19289
0
LINE
8
BLACK
6
CONTINUOUS
10
5.58962
20
-3.19289
11
5.58949
21
-3.19291
0
LINE
8
BLACK
6
CONTINUOUS
10
5.58949
20
-3.19291
11
5.58937
21
-3.19284
0
LINE
8
BLACK
6
CONTINUOUS
10
5.58937
20
-3.19284
11
5.58899
21
-3.19277
0
LINE
8
BLACK
6
CONTINUOUS
10
5.58899
20
-3.19277
11
5.5884
21
-3.19228
0
LINE
8
BLACK
6
CONTINUOUS
10
5.5884
20
-3.19228
11
5.58774
21
-3.1919
0
LINE
8
BLACK
6
CONTINUOUS
10
5.58774
20
-3.1919
11
5.58765
21
-3.19165
0
LINE
8
BLACK
6
CONTINUOUS
10
5.58765
20
-3.19165
11
5.58744
21
-3.19148
0
LINE
8
BLACK
6
CONTINUOUS
10
5.58744
20
-3.19148
11
5.58731
21
-3.19072
0
LINE
8
BLACK
6
CONTINUOUS
10
5.58731
20
-3.19072
11
5.58705
21
-3.19
0
LINE
8
BLACK
6
CONTINUOUS
10
5.58705
20
-3.19
11
5.58705
21
-3.15
0
LINE
8
BLACK
6
CONTINUOUS
10
5.58705
20
-3.15
11
5.58723
21
-3.14899
0
LINE
8
BLACK
6
CONTINUOUS
10
5.58723
20
-3.14899
11
5.58852
21
-3.14744
0
LINE
8
BLACK
6
CONTINUOUS
10
5.58852
20
-3.14744
11
5.59051
21
-3.14709
0
LINE
8
BLACK
6
CONTINUOUS
10
5.59051
20
-3.14709
11
5.59226
21
-3.1481
0
LINE
8
BLACK
6
CONTINUOUS
10
5.59226
20
-3.1481
11
5.59295
21
-3.15
0
LINE
8
BLACK
6
CONTINUOUS
10
5.59295
20
-3.15
11
5.59295
21
-3.18705
0
LINE
8
BLACK
6
CONTINUOUS
10
5.59295
20
-3.18705
11
5.64705
21
-3.18705
0
LINE
8
BLACK
6
CONTINUOUS
10
5.64705
20
-3.18705
11
5.64705
21
-3.15
0
LINE
8
BLACK
6
CONTINUOUS
10
5.64705
20
-3.15
11
5.64723
21
-3.14899
0
LINE
8
BLACK
6
CONTINUOUS
10
5.64723
20
-3.14899
11
5.64852
21
-3.14744
0
LINE
8
BLACK
6
CONTINUOUS
10
5.64852
20
-3.14744
11
5.65051
21
-3.14709
0
LINE
8
BLACK
6
CONTINUOUS
10
5.65051
20
-3.14709
11
5.65226
21
-3.1481
0
LINE
8
BLACK
6
CONTINUOUS
10
5.61543
20
-3.13896
11
5.61606
21
-3.14048
0
LINE
8
BLACK
6
CONTINUOUS
10
5.61606
20
-3.14048
11
5.61543
21
-3.142
0
LINE
8
BLACK
6
CONTINUOUS
10
5.61543
20
-3.142
11
5.61391
21
-3.14263
0
LINE
8
BLACK
6
CONTINUOUS
10
5.61391
20
-3.14263
11
5.61036
21
-3.14263
0
LINE
8
BLACK
6
CONTINUOUS
10
5.61036
20
-3.14263
11
5.6152
21
-3.14626
0
LINE
8
BLACK
6
CONTINUOUS
10
5.6152
20
-3.14626
11
5.61604
21
-3.14768
0
LINE
8
BLACK
6
CONTINUOUS
10
5.61604
20
-3.14768
11
5.61563
21
-3.14927
0
LINE
8
BLACK
6
CONTINUOUS
10
5.61563
20
-3.14927
11
5.61422
21
-3.15011
0
LINE
8
BLACK
6
CONTINUOUS
10
5.61422
20
-3.15011
11
5.61262
21
-3.1497
0
LINE
8
BLACK
6
CONTINUOUS
10
5.61262
20
-3.1497
11
5.60661
21
-3.14519
0
LINE
8
BLACK
6
CONTINUOUS
10
5.60661
20
-3.14519
11
5.6023
21
-3.1495
0
LINE
8
BLACK
6
CONTINUOUS
10
5.6023
20
-3.1495
11
5.60078
21
-3.15013
0
LINE
8
BLACK
6
CONTINUOUS
10
5.60078
20
-3.15013
11
5.59926
21
-3.1495
0
LINE
8
BLACK
6
CONTINUOUS
10
5.59926
20
-3.1495
11
5.59863
21
-3.14798
0
LINE
8
BLACK
6
CONTINUOUS
10
5.59863
20
-3.14798
11
5.59926
21
-3.14646
0
LINE
8
BLACK
6
CONTINUOUS
10
5.59926
20
-3.14646
11
5.60309
21
-3.14263
0
LINE
8
BLACK
6
CONTINUOUS
10
5.60309
20
-3.14263
11
5.59421
21
-3.14263
0
LINE
8
BLACK
6
CONTINUOUS
10
5.59421
20
-3.14263
11
5.59269
21
-3.142
0
LINE
8
BLACK
6
CONTINUOUS
10
5.59269
20
-3.142
11
5.59206
21
-3.14048
0
LINE
8
BLACK
6
CONTINUOUS
10
5.59206
20
-3.14048
11
5.59269
21
-3.13896
0
LINE
8
BLACK
6
CONTINUOUS
10
5.59269
20
-3.13896
11
5.59421
21
-3.13833
0
LINE
8
BLACK
6
CONTINUOUS
10
5.59421
20
-3.13833
11
5.61391
21
-3.13833
0
LINE
8
BLACK
6
CONTINUOUS
10
5.61391
20
-3.13833
11
5.61543
21
-3.13896
0
LINE
8
BLACK
6
CONTINUOUS
10
5.64293
20
-3.1327
11
5.64356
21
-3.13422
0
LINE
8
BLACK
6
CONTINUOUS
10
5.64356
20
-3.13422
11
5.64356
21
-3.14548
0
LINE
8
BLACK
6
CONTINUOUS
10
5.64356
20
-3.14548
11
5.64293
21
-3.147
0
LINE
8
BLACK
6
CONTINUOUS
10
5.64293
20
-3.147
11
5.64141
21
-3.14763
0
LINE
8
BLACK
6
CONTINUOUS
10
5.64141
20
-3.14763
11
5.63989
21
-3.147
0
LINE
8
BLACK
6
CONTINUOUS
10
5.63989
20
-3.147
11
5.63926
21
-3.14548
0
LINE
8
BLACK
6
CONTINUOUS
10
5.63926
20
-3.14548
11
5.63926
21
-3.142
0
LINE
8
BLACK
6
CONTINUOUS
10
5.63926
20
-3.142
11
5.62171
21
-3.142
0
LINE
8
BLACK
6
CONTINUOUS
10
5.62171
20
-3.142
11
5.62151
21
-3.14192
0
LINE
8
BLACK
6
CONTINUOUS
10
5.62151
20
-3.14192
11
5.62129
21
-3.14196
0
LINE
8
BLACK
6
CONTINUOUS
10
5.62129
20
-3.14196
11
5.62077
21
-3.14161
0
LINE
8
BLACK
6
CONTINUOUS
10
5.62077
20
-3.14161
11
5.62019
21
-3.14137
0
LINE
8
BLACK
6
CONTINUOUS
10
5.62019
20
-3.14137
11
5.62011
21
-3.14117
0
LINE
8
BLACK
6
CONTINUOUS
10
5.62011
20
-3.14117
11
5.61992
21
-3.14104
0
LINE
8
BLACK
6
CONTINUOUS
10
5.61992
20
-3.14104
11
5.6198
21
-3.14043
0
LINE
8
BLACK
6
CONTINUOUS
10
5.6198
20
-3.14043
11
5.61956
21
-3.13985
0
LINE
8
BLACK
6
CONTINUOUS
10
5.61956
20
-3.13985
11
5.61965
21
-3.13965
0
LINE
8
BLACK
6
CONTINUOUS
10
5.61965
20
-3.13965
11
5.6196
21
-3.13943
0
LINE
8
BLACK
6
CONTINUOUS
10
5.6196
20
-3.13943
11
5.61995
21
-3.13891
0
LINE
8
BLACK
6
CONTINUOUS
10
5.61995
20
-3.13891
11
5.62019
21
-3.13833
0
LINE
8
BLACK
6
CONTINUOUS
10
5.62019
20
-3.13833
11
5.6204
21
-3.13824
0
LINE
8
BLACK
6
CONTINUOUS
10
5.6204
20
-3.13824
11
5.62052
21
-3.13806
0
LINE
8
BLACK
6
CONTINUOUS
10
5.62052
20
-3.13806
11
5.62316
21
-3.1363
0
LINE
8
BLACK
6
CONTINUOUS
10
5.62316
20
-3.1363
11
5.62464
21
-3.13482
0
LINE
8
BLACK
6
CONTINUOUS
10
5.62464
20
-3.13482
11
5.62542
21
-3.13326
0
LINE
8
BLACK
6
CONTINUOUS
10
5.62542
20
-3.13326
11
5.62666
21
-3.13218
0
LINE
8
BLACK
6
CONTINUOUS
10
5.62666
20
-3.13218
11
5.6283
21
-3.1323
0
LINE
8
BLACK
6
CONTINUOUS
10
5.6283
20
-3.1323
11
5.62938
21
-3.13354
0
LINE
8
BLACK
6
CONTINUOUS
10
5.62938
20
-3.13354
11
5.62926
21
-3.13518
0
LINE
8
BLACK
6
CONTINUOUS
10
5.62926
20
-3.13518
11
5.62833
21
-3.13706
0
LINE
8
BLACK
6
CONTINUOUS
10
5.62833
20
-3.13706
11
5.62806
21
-3.13729
0
LINE
8
BLACK
6
CONTINUOUS
10
5.62806
20
-3.13729
11
5.62792
21
-3.13762
0
LINE
8
BLACK
6
CONTINUOUS
10
5.62792
20
-3.13762
11
5.62784
21
-3.1377
0
LINE
8
BLACK
6
CONTINUOUS
10
5.62784
20
-3.1377
11
5.63926
21
-3.1377
0
LINE
8
BLACK
6
CONTINUOUS
10
5.63926
20
-3.1377
11
5.63926
21
-3.13422
0
LINE
8
BLACK
6
CONTINUOUS
10
5.63926
20
-3.13422
11
5.63989
21
-3.1327
0
LINE
8
BLACK
6
CONTINUOUS
10
5.63989
20
-3.1327
11
5.64141
21
-3.13207
0
LINE
8
BLACK
6
CONTINUOUS
10
5.64141
20
-3.13207
11
5.64293
21
-3.1327
0
LINE
8
BLACK
6
CONTINUOUS
10
5.71101
20
-3.07723
11
5.71256
21
-3.07852
0
LINE
8
BLACK
6
CONTINUOUS
10
5.71256
20
-3.07852
11
5.71291
21
-3.08051
0
LINE
8
BLACK
6
CONTINUOUS
10
5.71291
20
-3.08051
11
5.7119
21
-3.08226
0
LINE
8
BLACK
6
CONTINUOUS
10
5.7119
20
-3.08226
11
5.71
21
-3.08295
0
LINE
8
BLACK
6
CONTINUOUS
10
5.71
20
-3.08295
11
5.67295
21
-3.08295
0
LINE
8
BLACK
6
CONTINUOUS
10
5.67295
20
-3.08295
11
5.67295
21
-3.13705
0
LINE
8
BLACK
6
CONTINUOUS
10
5.67295
20
-3.13705
11
5.71
21
-3.13705
0
LINE
8
BLACK
6
CONTINUOUS
10
5.71
20
-3.13705
11
5.71101
21
-3.13723
0
LINE
8
BLACK
6
CONTINUOUS
10
5.71101
20
-3.13723
11
5.71256
21
-3.13852
0
LINE
8
BLACK
6
CONTINUOUS
10
5.71256
20
-3.13852
11
5.71291
21
-3.14051
0
LINE
8
BLACK
6
CONTINUOUS
10
5.71291
20
-3.14051
11
5.7119
21
-3.14226
0
LINE
8
BLACK
6
CONTINUOUS
10
5.7119
20
-3.14226
11
5.71
21
-3.14295
0
LINE
8
BLACK
6
CONTINUOUS
10
5.71
20
-3.14295
11
5.67
21
-3.14295
0
LINE
8
BLACK
6
CONTINUOUS
10
5.67
20
-3.14295
11
5.66962
21
-3.14289
0
LINE
8
BLACK
6
CONTINUOUS
10
5.66962
20
-3.14289
11
5.66949
21
-3.14291
0
LINE
8
BLACK
6
CONTINUOUS
10
5.66949
20
-3.14291
11
5.66937
21
-3.14284
0
LINE
8
BLACK
6
CONTINUOUS
10
5.66937
20
-3.14284
11
5.66899
21
-3.14277
0
LINE
8
BLACK
6
CONTINUOUS
10
5.66899
20
-3.14277
11
5.6684
21
-3.14228
0
LINE
8
BLACK
6
CONTINUOUS
10
5.6684
20
-3.14228
11
5.66774
21
-3.1419
0
LINE
8
BLACK
6
CONTINUOUS
10
5.66774
20
-3.1419
11
5.66765
21
-3.14165
0
LINE
8
BLACK
6
CONTINUOUS
10
5.66765
20
-3.14165
11
5.66744
21
-3.14148
0
LINE
8
BLACK
6
CONTINUOUS
10
5.66744
20
-3.14148
11
5.66731
21
-3.14072
0
LINE
8
BLACK
6
CONTINUOUS
10
5.66731
20
-3.14072
11
5.66705
21
-3.14
0
LINE
8
BLACK
6
CONTINUOUS
10
5.66705
20
-3.14
11
5.66705
21
-3.08
0
LINE
8
BLACK
6
CONTINUOUS
10
5.66705
20
-3.08
11
5.66711
21
-3.07962
0
LINE
8
BLACK
6
CONTINUOUS
10
5.66711
20
-3.07962
11
5.66709
21
-3.07949
0
LINE
8
BLACK
6
CONTINUOUS
10
5.66709
20
-3.07949
11
5.66716
21
-3.07937
0
LINE
8
BLACK
6
CONTINUOUS
10
5.66716
20
-3.07937
11
5.66723
21
-3.07899
0
LINE
8
BLACK
6
CONTINUOUS
10
5.66723
20
-3.07899
11
5.66772
21
-3.0784
0
LINE
8
BLACK
6
CONTINUOUS
10
5.66772
20
-3.0784
11
5.6681
21
-3.07774
0
LINE
8
BLACK
6
CONTINUOUS
10
5.6681
20
-3.07774
11
5.66835
21
-3.07765
0
LINE
8
BLACK
6
CONTINUOUS
10
5.66835
20
-3.07765
11
5.66852
21
-3.07744
0
LINE
8
BLACK
6
CONTINUOUS
10
5.66852
20
-3.07744
11
5.66928
21
-3.07731
0
LINE
8
BLACK
6
CONTINUOUS
10
5.66928
20
-3.07731
11
5.67
21
-3.07705
0
LINE
8
BLACK
6
CONTINUOUS
10
5.67
20
-3.07705
11
5.71
21
-3.07705
0
LINE
8
BLACK
6
CONTINUOUS
10
5.71
20
-3.07705
11
5.71101
21
-3.07723
0
LINE
8
BLACK
6
CONTINUOUS
10
5.93038
20
-3.07711
11
5.93051
21
-3.07709
0
LINE
8
BLACK
6
CONTINUOUS
10
5.93051
20
-3.07709
11
5.93063
21
-3.07716
0
LINE
8
BLACK
6
CONTINUOUS
10
5.93063
20
-3.07716
11
5.93101
21
-3.07723
0
LINE
8
BLACK
6
CONTINUOUS
10
5.93101
20
-3.07723
11
5.9316
21
-3.07772
0
LINE
8
BLACK
6
CONTINUOUS
10
5.9316
20
-3.07772
11
5.93226
21
-3.0781
0
LINE
8
BLACK
6
CONTINUOUS
10
5.93226
20
-3.0781
11
5.93235
21
-3.07835
0
LINE
8
BLACK
6
CONTINUOUS
10
5.93235
20
-3.07835
11
5.93256
21
-3.07852
0
LINE
8
BLACK
6
CONTINUOUS
10
5.93256
20
-3.07852
11
5.93269
21
-3.07928
0
LINE
8
BLACK
6
CONTINUOUS
10
5.93269
20
-3.07928
11
5.93295
21
-3.08
0
LINE
8
BLACK
6
CONTINUOUS
10
5.93295
20
-3.08
11
5.93295
21
-3.14
0
LINE
8
BLACK
6
CONTINUOUS
10
5.93295
20
-3.14
11
5.93289
21
-3.14038
0
LINE
8
BLACK
6
CONTINUOUS
10
5.93289
20
-3.14038
11
5.93291
21
-3.14051
0
LINE
8
BLACK
6
CONTINUOUS
10
5.93291
20
-3.14051
11
5.93284
21
-3.14063
0
LINE
8
BLACK
6
CONTINUOUS
10
5.93284
20
-3.14063
11
5.93277
21
-3.14101
0
LINE
8
BLACK
6
CONTINUOUS
10
5.93277
20
-3.14101
11
5.93228
21
-3.1416
0
LINE
8
BLACK
6
CONTINUOUS
10
5.93228
20
-3.1416
11
5.9319
21
-3.14226
0
LINE
8
BLACK
6
CONTINUOUS
10
5.9319
20
-3.14226
11
5.93165
21
-3.14235
0
LINE
8
BLACK
6
CONTINUOUS
10
5.93165
20
-3.14235
11
5.93148
21
-3.14256
0
LINE
8
BLACK
6
CONTINUOUS
10
5.93148
20
-3.14256
11
5.93072
21
-3.14269
0
LINE
8
BLACK
6
CONTINUOUS
10
5.93072
20
-3.14269
11
5.93
21
-3.14295
0
LINE
8
BLACK
6
CONTINUOUS
10
5.93
20
-3.14295
11
5.89
21
-3.14295
0
LINE
8
BLACK
6
CONTINUOUS
10
5.89
20
-3.14295
11
5.88899
21
-3.14277
0
LINE
8
BLACK
6
CONTINUOUS
10
5.88899
20
-3.14277
11
5.88744
21
-3.14148
0
LINE
8
BLACK
6
CONTINUOUS
10
5.88744
20
-3.14148
11
5.88709
21
-3.13949
0
LINE
8
BLACK
6
CONTINUOUS
10
5.88709
20
-3.13949
11
5.8881
21
-3.13774
0
LINE
8
BLACK
6
CONTINUOUS
10
5.8881
20
-3.13774
11
5.89
21
-3.13705
0
LINE
8
BLACK
6
CONTINUOUS
10
5.89
20
-3.13705
11
5.92705
21
-3.13705
0
LINE
8
BLACK
6
CONTINUOUS
10
5.92705
20
-3.13705
11
5.92705
21
-3.08295
0
LINE
8
BLACK
6
CONTINUOUS
10
5.92705
20
-3.08295
11
5.9059
21
-3.08295
0
LINE
8
BLACK
6
CONTINUOUS
10
5.9059
20
-3.08295
11
5.90645
21
-3.08323
0
LINE
8
BLACK
6
CONTINUOUS
10
5.90645
20
-3.08323
11
5.90668
21
-3.08349
0
LINE
8
BLACK
6
CONTINUOUS
10
5.90668
20
-3.08349
11
5.90701
21
-3.08363
0
LINE
8
BLACK
6
CONTINUOUS
10
5.90701
20
-3.08363
11
5.90795
21
-3.08457
0
LINE
8
BLACK
6
CONTINUOUS
10
5.90795
20
-3.08457
11
5.90808
21
-3.08489
0
LINE
8
BLACK
6
CONTINUOUS
10
5.90808
20
-3.08489
11
5.90835
21
-3.08513
0
LINE
8
BLACK
6
CONTINUOUS
10
5.90835
20
-3.08513
11
5.90929
21
-3.087
0
LINE
8
BLACK
6
CONTINUOUS
10
5.90929
20
-3.087
11
5.90932
21
-3.0875
0
LINE
8
BLACK
6
CONTINUOUS
10
5.90932
20
-3.0875
11
5.90951
21
-3.08796
0
LINE
8
BLACK
6
CONTINUOUS
10
5.90951
20
-3.08796
11
5.90951
21
-3.0889
0
LINE
8
BLACK
6
CONTINUOUS
10
5.90951
20
-3.0889
11
5.90932
21
-3.08936
0
LINE
8
BLACK
6
CONTINUOUS
10
5.90932
20
-3.08936
11
5.90929
21
-3.08986
0
LINE
8
BLACK
6
CONTINUOUS
10
5.90929
20
-3.08986
11
5.90835
21
-3.09174
0
LINE
8
BLACK
6
CONTINUOUS
10
5.90835
20
-3.09174
11
5.90808
21
-3.09197
0
LINE
8
BLACK
6
CONTINUOUS
10
5.90808
20
-3.09197
11
5.90795
21
-3.0923
0
LINE
8
BLACK
6
CONTINUOUS
10
5.90795
20
-3.0923
11
5.90759
21
-3.09265
0
LINE
8
BLACK
6
CONTINUOUS
10
5.90759
20
-3.09265
11
5.90795
21
-3.09301
0
LINE
8
BLACK
6
CONTINUOUS
10
5.90795
20
-3.09301
11
5.90808
21
-3.09334
0
LINE
8
BLACK
6
CONTINUOUS
10
5.90808
20
-3.09334
11
5.90835
21
-3.09357
0
LINE
8
BLACK
6
CONTINUOUS
10
5.90835
20
-3.09357
11
5.90929
21
-3.09545
0
LINE
8
BLACK
6
CONTINUOUS
10
5.90929
20
-3.09545
11
5.90932
21
-3.09594
0
LINE
8
BLACK
6
CONTINUOUS
10
5.90932
20
-3.09594
11
5.90951
21
-3.09641
0
LINE
8
BLACK
6
CONTINUOUS
10
5.90951
20
-3.09641
11
5.90951
21
-3.10016
0
LINE
8
BLACK
6
CONTINUOUS
10
5.90951
20
-3.10016
11
5.90932
21
-3.10062
0
LINE
8
BLACK
6
CONTINUOUS
10
5.90932
20
-3.10062
11
5.90929
21
-3.10112
0
LINE
8
BLACK
6
CONTINUOUS
10
5.90929
20
-3.10112
11
5.90835
21
-3.103
0
LINE
8
BLACK
6
CONTINUOUS
10
5.90835
20
-3.103
11
5.90808
21
-3.10323
0
LINE
8
BLACK
6
CONTINUOUS
10
5.90808
20
-3.10323
11
5.90795
21
-3.10356
0
LINE
8
BLACK
6
CONTINUOUS
10
5.90795
20
-3.10356
11
5.90701
21
-3.10449
0
LINE
8
BLACK
6
CONTINUOUS
10
5.90701
20
-3.10449
11
5.90668
21
-3.10463
0
LINE
8
BLACK
6
CONTINUOUS
10
5.90668
20
-3.10463
11
5.90645
21
-3.1049
0
LINE
8
BLACK
6
CONTINUOUS
10
5.90645
20
-3.1049
11
5.90457
21
-3.10583
0
LINE
8
BLACK
6
CONTINUOUS
10
5.90457
20
-3.10583
11
5.90407
21
-3.10587
0
LINE
8
BLACK
6
CONTINUOUS
10
5.90407
20
-3.10587
11
5.90361
21
-3.10606
0
LINE
8
BLACK
6
CONTINUOUS
10
5.90361
20
-3.10606
11
5.89986
21
-3.10606
0
LINE
8
BLACK
6
CONTINUOUS
10
5.89986
20
-3.10606
11
5.8994
21
-3.10587
0
LINE
8
BLACK
6
CONTINUOUS
10
5.8994
20
-3.10587
11
5.8989
21
-3.10583
0
LINE
8
BLACK
6
CONTINUOUS
10
5.8989
20
-3.10583
11
5.89702
21
-3.1049
0
LINE
8
BLACK
6
CONTINUOUS
10
5.89702
20
-3.1049
11
5.89679
21
-3.10463
0
LINE
8
BLACK
6
CONTINUOUS
10
5.89679
20
-3.10463
11
5.89646
21
-3.10449
0
LINE
8
BLACK
6
CONTINUOUS
10
5.89646
20
-3.10449
11
5.89552
21
-3.10356
0
LINE
8
BLACK
6
CONTINUOUS
10
5.89552
20
-3.10356
11
5.89539
21
-3.10323
0
LINE
8
BLACK
6
CONTINUOUS
10
5.89539
20
-3.10323
11
5.89512
21
-3.103
0
LINE
8
BLACK
6
CONTINUOUS
10
5.89512
20
-3.103
11
5.89418
21
-3.10112
0
LINE
8
BLACK
6
CONTINUOUS
10
5.89418
20
-3.10112
11
5.89415
21
-3.10062
0
LINE
8
BLACK
6
CONTINUOUS
10
5.89415
20
-3.10062
11
5.89396
21
-3.10016
0
LINE
8
BLACK
6
CONTINUOUS
10
5.89396
20
-3.10016
11
5.89396
21
-3.09641
0
LINE
8
BLACK
6
CONTINUOUS
10
5.89396
20
-3.09641
11
5.89415
21
-3.09594
0
LINE
8
BLACK
6
CONTINUOUS
10
5.89415
20
-3.09594
11
5.89418
21
-3.09545
0
LINE
8
BLACK
6
CONTINUOUS
10
5.89418
20
-3.09545
11
5.89512
21
-3.09357
0
LINE
8
BLACK
6
CONTINUOUS
10
5.89512
20
-3.09357
11
5.89539
21
-3.09334
0
LINE
8
BLACK
6
CONTINUOUS
10
5.89539
20
-3.09334
11
5.89552
21
-3.09301
0
LINE
8
BLACK
6
CONTINUOUS
10
5.89552
20
-3.09301
11
5.89588
21
-3.09265
0
LINE
8
BLACK
6
CONTINUOUS
10
5.89588
20
-3.09265
11
5.89552
21
-3.0923
0
LINE
8
BLACK
6
CONTINUOUS
10
5.89552
20
-3.0923
11
5.89539
21
-3.09197
0
LINE
8
BLACK
6
CONTINUOUS
10
5.89539
20
-3.09197
11
5.89512
21
-3.09174
0
LINE
8
BLACK
6
CONTINUOUS
10
5.89512
20
-3.09174
11
5.89418
21
-3.08986
0
LINE
8
BLACK
6
CONTINUOUS
10
5.89418
20
-3.08986
11
5.89415
21
-3.08936
0
LINE
8
BLACK
6
CONTINUOUS
10
5.89415
20
-3.08936
11
5.89396
21
-3.0889
0
LINE
8
BLACK
6
CONTINUOUS
10
5.89396
20
-3.0889
11
5.89396
21
-3.08796
0
LINE
8
BLACK
6
CONTINUOUS
10
5.89396
20
-3.08796
11
5.89415
21
-3.0875
0
LINE
8
BLACK
6
CONTINUOUS
10
5.89415
20
-3.0875
11
5.89418
21
-3.087
0
LINE
8
BLACK
6
CONTINUOUS
10
5.89418
20
-3.087
11
5.89512
21
-3.08513
0
LINE
8
BLACK
6
CONTINUOUS
10
5.89512
20
-3.08513
11
5.89539
21
-3.08489
0
LINE
8
BLACK
6
CONTINUOUS
10
5.89539
20
-3.08489
11
5.89552
21
-3.08457
0
LINE
8
BLACK
6
CONTINUOUS
10
5.89552
20
-3.08457
11
5.89646
21
-3.08363
0
LINE
8
BLACK
6
CONTINUOUS
10
5.89646
20
-3.08363
11
5.89679
21
-3.08349
0
LINE
8
BLACK
6
CONTINUOUS
10
5.89679
20
-3.08349
11
5.89702
21
-3.08323
0
LINE
8
BLACK
6
CONTINUOUS
10
5.89702
20
-3.08323
11
5.89757
21
-3.08295
0
LINE
8
BLACK
6
CONTINUOUS
10
5.89757
20
-3.08295
11
5.89
21
-3.08295
0
LINE
8
BLACK
6
CONTINUOUS
10
5.89
20
-3.08295
11
5.88899
21
-3.08277
0
LINE
8
BLACK
6
CONTINUOUS
10
5.88899
20
-3.08277
11
5.88744
21
-3.08148
0
LINE
8
BLACK
6
CONTINUOUS
10
5.88744
20
-3.08148
11
5.88709
21
-3.07949
0
LINE
8
BLACK
6
CONTINUOUS
10
5.88709
20
-3.07949
11
5.8881
21
-3.07774
0
LINE
8
BLACK
6
CONTINUOUS
10
5.8881
20
-3.07774
11
5.89
21
-3.07705
0
LINE
8
BLACK
6
CONTINUOUS
10
5.89
20
-3.07705
11
5.93
21
-3.07705
0
LINE
8
BLACK
6
CONTINUOUS
10
5.93
20
-3.07705
11
5.93038
21
-3.07711
0
LINE
8
BLACK
6
CONTINUOUS
10
5.90037
20
-3.0948
11
5.89926
21
-3.09536
0
LINE
8
BLACK
6
CONTINUOUS
10
5.89926
20
-3.09536
11
5.89881
21
-3.0958
0
LINE
8
BLACK
6
CONTINUOUS
10
5.89881
20
-3.0958
11
5.89826
21
-3.09691
0
LINE
8
BLACK
6
CONTINUOUS
10
5.89826
20
-3.09691
11
5.89826
21
-3.09965
0
LINE
8
BLACK
6
CONTINUOUS
10
5.89826
20
-3.09965
11
5.89881
21
-3.10076
0
LINE
8
BLACK
6
CONTINUOUS
10
5.89881
20
-3.10076
11
5.89926
21
-3.10121
0
LINE
8
BLACK
6
CONTINUOUS
10
5.89926
20
-3.10121
11
5.90037
21
-3.10176
0
LINE
8
BLACK
6
CONTINUOUS
10
5.90037
20
-3.10176
11
5.9031
21
-3.10176
0
LINE
8
BLACK
6
CONTINUOUS
10
5.9031
20
-3.10176
11
5.90421
21
-3.10121
0
LINE
8
BLACK
6
CONTINUOUS
10
5.90421
20
-3.10121
11
5.90466
21
-3.10076
0
LINE
8
BLACK
6
CONTINUOUS
10
5.90466
20
-3.10076
11
5.90521
21
-3.09965
0
LINE
8
BLACK
6
CONTINUOUS
10
5.90521
20
-3.09965
11
5.90521
21
-3.09691
0
LINE
8
BLACK
6
CONTINUOUS
10
5.90521
20
-3.09691
11
5.90466
21
-3.0958
0
LINE
8
BLACK
6
CONTINUOUS
10
5.90466
20
-3.0958
11
5.90421
21
-3.09536
0
LINE
8
BLACK
6
CONTINUOUS
10
5.90421
20
-3.09536
11
5.9031
21
-3.0948
0
LINE
8
BLACK
6
CONTINUOUS
10
5.9031
20
-3.0948
11
5.90037
21
-3.0948
0
LINE
8
BLACK
6
CONTINUOUS
10
5.90037
20
-3.08636
11
5.89926
21
-3.08692
0
LINE
8
BLACK
6
CONTINUOUS
10
5.89926
20
-3.08692
11
5.89881
21
-3.08736
0
LINE
8
BLACK
6
CONTINUOUS
10
5.89881
20
-3.08736
11
5.89828
21
-3.08843
0
LINE
8
BLACK
6
CONTINUOUS
10
5.89828
20
-3.08843
11
5.89881
21
-3.0895
0
LINE
8
BLACK
6
CONTINUOUS
10
5.89881
20
-3.0895
11
5.89926
21
-3.08995
0
LINE
8
BLACK
6
CONTINUOUS
10
5.89926
20
-3.08995
11
5.90037
21
-3.0905
0
LINE
8
BLACK
6
CONTINUOUS
10
5.90037
20
-3.0905
11
5.9031
21
-3.0905
0
LINE
8
BLACK
6
CONTINUOUS
10
5.9031
20
-3.0905
11
5.90421
21
-3.08995
0
LINE
8
BLACK
6
CONTINUOUS
10
5.90421
20
-3.08995
11
5.90466
21
-3.0895
0
LINE
8
BLACK
6
CONTINUOUS
10
5.90466
20
-3.0895
11
5.90519
21
-3.08843
0
LINE
8
BLACK
6
CONTINUOUS
10
5.90519
20
-3.08843
11
5.90466
21
-3.08736
0
LINE
8
BLACK
6
CONTINUOUS
10
5.90466
20
-3.08736
11
5.90421
21
-3.08692
0
LINE
8
BLACK
6
CONTINUOUS
10
5.90421
20
-3.08692
11
5.9031
21
-3.08636
0
LINE
8
BLACK
6
CONTINUOUS
10
5.9031
20
-3.08636
11
5.90037
21
-3.08636
0
LINE
8
BLACK
6
CONTINUOUS
10
5.85101
20
-3.07723
11
5.85256
21
-3.07852
0
LINE
8
BLACK
6
CONTINUOUS
10
5.85256
20
-3.07852
11
5.85291
21
-3.08051
0
LINE
8
BLACK
6
CONTINUOUS
10
5.85291
20
-3.08051
11
5.8519
21
-3.08226
0
LINE
8
BLACK
6
CONTINUOUS
10
5.8519
20
-3.08226
11
5.85122
21
-3.08251
0
LINE
8
BLACK
6
CONTINUOUS
10
5.85122
20
-3.08251
11
5.85166
21
-3.08269
0
LINE
8
BLACK
6
CONTINUOUS
10
5.85166
20
-3.08269
11
5.85229
21
-3.08421
0
LINE
8
BLACK
6
CONTINUOUS
10
5.85229
20
-3.08421
11
5.85229
21
-3.10391
0
LINE
8
BLACK
6
CONTINUOUS
10
5.85229
20
-3.10391
11
5.85166
21
-3.10543
0
LINE
8
BLACK
6
CONTINUOUS
10
5.85166
20
-3.10543
11
5.85014
21
-3.10606
0
LINE
8
BLACK
6
CONTINUOUS
10
5.85014
20
-3.10606
11
5.84862
21
-3.10543
0
LINE
8
BLACK
6
CONTINUOUS
10
5.84862
20
-3.10543
11
5.84799
21
-3.10391
0
LINE
8
BLACK
6
CONTINUOUS
10
5.84799
20
-3.10391
11
5.84799
21
-3.10036
0
LINE
8
BLACK
6
CONTINUOUS
10
5.84799
20
-3.10036
11
5.84436
21
-3.1052
0
LINE
8
BLACK
6
CONTINUOUS
10
5.84436
20
-3.1052
11
5.84294
21
-3.10604
0
LINE
8
BLACK
6
CONTINUOUS
10
5.84294
20
-3.10604
11
5.84135
21
-3.10563
0
LINE
8
BLACK
6
CONTINUOUS
10
5.84135
20
-3.10563
11
5.84051
21
-3.10422
0
LINE
8
BLACK
6
CONTINUOUS
10
5.84051
20
-3.10422
11
5.84092
21
-3.10262
0
LINE
8
BLACK
6
CONTINUOUS
10
5.84092
20
-3.10262
11
5.84543
21
-3.09661
0
LINE
8
BLACK
6
CONTINUOUS
10
5.84543
20
-3.09661
11
5.84112
21
-3.0923
0
LINE
8
BLACK
6
CONTINUOUS
10
5.84112
20
-3.0923
11
5.84049
21
-3.09078
0
LINE
8
BLACK
6
CONTINUOUS
10
5.84049
20
-3.09078
11
5.84112
21
-3.08926
0
LINE
8
BLACK
6
CONTINUOUS
10
5.84112
20
-3.08926
11
5.84264
21
-3.08863
0
LINE
8
BLACK
6
CONTINUOUS
10
5.84264
20
-3.08863
11
5.84416
21
-3.08926
0
LINE
8
BLACK
6
CONTINUOUS
10
5.84416
20
-3.08926
11
5.84799
21
-3.09309
0
LINE
8
BLACK
6
CONTINUOUS
10
5.84799
20
-3.09309
11
5.84799
21
-3.08421
0
LINE
8
BLACK
6
CONTINUOUS
10
5.84799
20
-3.08421
11
5.84851
21
-3.08295
0
LINE
8
BLACK
6
CONTINUOUS
10
5.84851
20
-3.08295
11
5.81295
21
-3.08295
0
LINE
8
BLACK
6
CONTINUOUS
10
5.81295
20
-3.08295
11
5.81295
21
-3.13705
0
LINE
8
BLACK
6
CONTINUOUS
10
5.81295
20
-3.13705
11
5.85
21
-3.13705
0
LINE
8
BLACK
6
CONTINUOUS
10
5.85
20
-3.13705
11
5.85101
21
-3.13723
0
LINE
8
BLACK
6
CONTINUOUS
10
5.85101
20
-3.13723
11
5.85256
21
-3.13852
0
LINE
8
BLACK
6
CONTINUOUS
10
5.85256
20
-3.13852
11
5.85291
21
-3.14051
0
LINE
8
BLACK
6
CONTINUOUS
10
5.85291
20
-3.14051
11
5.8519
21
-3.14226
0
LINE
8
BLACK
6
CONTINUOUS
10
5.8519
20
-3.14226
11
5.85
21
-3.14295
0
LINE
8
BLACK
6
CONTINUOUS
10
5.85
20
-3.14295
11
5.81
21
-3.14295
0
LINE
8
BLACK
6
CONTINUOUS
10
5.81
20
-3.14295
11
5.80962
21
-3.14289
0
LINE
8
BLACK
6
CONTINUOUS
10
5.80962
20
-3.14289
11
5.80949
21
-3.14291
0
LINE
8
BLACK
6
CONTINUOUS
10
5.80949
20
-3.14291
11
5.80937
21
-3.14284
0
LINE
8
BLACK
6
CONTINUOUS
10
5.80937
20
-3.14284
11
5.80899
21
-3.14277
0
LINE
8
BLACK
6
CONTINUOUS
10
5.80899
20
-3.14277
11
5.8084
21
-3.14228
0
LINE
8
BLACK
6
CONTINUOUS
10
5.8084
20
-3.14228
11
5.80774
21
-3.1419
0
LINE
8
BLACK
6
CONTINUOUS
10
5.80774
20
-3.1419
11
5.80765
21
-3.14165
0
LINE
8
BLACK
6
CONTINUOUS
10
5.80765
20
-3.14165
11
5.80744
21
-3.14148
0
LINE
8
BLACK
6
CONTINUOUS
10
5.80744
20
-3.14148
11
5.80731
21
-3.14072
0
LINE
8
BLACK
6
CONTINUOUS
10
5.80731
20
-3.14072
11
5.80705
21
-3.14
0
LINE
8
BLACK
6
CONTINUOUS
10
5.80705
20
-3.14
11
5.80705
21
-3.08
0
LINE
8
BLACK
6
CONTINUOUS
10
5.80705
20
-3.08
11
5.80711
21
-3.07962
0
LINE
8
BLACK
6
CONTINUOUS
10
5.80711
20
-3.07962
11
5.80709
21
-3.07949
0
LINE
8
BLACK
6
CONTINUOUS
10
5.80709
20
-3.07949
11
5.80716
21
-3.07937
0
LINE
8
BLACK
6
CONTINUOUS
10
5.80716
20
-3.07937
11
5.80723
21
-3.07899
0
LINE
8
BLACK
6
CONTINUOUS
10
5.80723
20
-3.07899
11
5.80772
21
-3.0784
0
LINE
8
BLACK
6
CONTINUOUS
10
5.80772
20
-3.0784
11
5.8081
21
-3.07774
0
LINE
8
BLACK
6
CONTINUOUS
10
5.8081
20
-3.07774
11
5.80835
21
-3.07765
0
LINE
8
BLACK
6
CONTINUOUS
10
5.80835
20
-3.07765
11
5.80852
21
-3.07744
0
LINE
8
BLACK
6
CONTINUOUS
10
5.80852
20
-3.07744
11
5.80928
21
-3.07731
0
LINE
8
BLACK
6
CONTINUOUS
10
5.80928
20
-3.07731
11
5.81
21
-3.07705
0
LINE
8
BLACK
6
CONTINUOUS
10
5.81
20
-3.07705
11
5.85
21
-3.07705
0
LINE
8
BLACK
6
CONTINUOUS
10
5.85
20
-3.07705
11
5.85101
21
-3.07723
0
LINE
8
BLACK
6
CONTINUOUS
10
5.79038
20
-3.07711
11
5.79051
21
-3.07709
0
LINE
8
BLACK
6
CONTINUOUS
10
5.79051
20
-3.07709
11
5.79063
21
-3.07716
0
LINE
8
BLACK
6
CONTINUOUS
10
5.79063
20
-3.07716
11
5.79101
21
-3.07723
0
LINE
8
BLACK
6
CONTINUOUS
10
5.79101
20
-3.07723
11
5.7916
21
-3.07772
0
LINE
8
BLACK
6
CONTINUOUS
10
5.7916
20
-3.07772
11
5.79226
21
-3.0781
0
LINE
8
BLACK
6
CONTINUOUS
10
5.79226
20
-3.0781
11
5.79235
21
-3.07835
0
LINE
8
BLACK
6
CONTINUOUS
10
5.79235
20
-3.07835
11
5.79256
21
-3.07852
0
LINE
8
BLACK
6
CONTINUOUS
10
5.79256
20
-3.07852
11
5.79269
21
-3.07928
0
LINE
8
BLACK
6
CONTINUOUS
10
5.79269
20
-3.07928
11
5.79295
21
-3.08
0
LINE
8
BLACK
6
CONTINUOUS
10
5.79295
20
-3.08
11
5.79295
21
-3.14
0
LINE
8
BLACK
6
CONTINUOUS
10
5.79295
20
-3.14
11
5.79289
21
-3.14038
0
LINE
8
BLACK
6
CONTINUOUS
10
5.79289
20
-3.14038
11
5.79291
21
-3.14051
0
LINE
8
BLACK
6
CONTINUOUS
10
5.79291
20
-3.14051
11
5.79284
21
-3.14063
0
LINE
8
BLACK
6
CONTINUOUS
10
5.79284
20
-3.14063
11
5.79277
21
-3.14101
0
LINE
8
BLACK
6
CONTINUOUS
10
5.79277
20
-3.14101
11
5.79228
21
-3.1416
0
LINE
8
BLACK
6
CONTINUOUS
10
5.79228
20
-3.1416
11
5.7919
21
-3.14226
0
LINE
8
BLACK
6
CONTINUOUS
10
5.7919
20
-3.14226
11
5.79165
21
-3.14235
0
LINE
8
BLACK
6
CONTINUOUS
10
5.79165
20
-3.14235
11
5.79148
21
-3.14256
0
LINE
8
BLACK
6
CONTINUOUS
10
5.79148
20
-3.14256
11
5.79072
21
-3.14269
0
LINE
8
BLACK
6
CONTINUOUS
10
5.79072
20
-3.14269
11
5.79
21
-3.14295
0
LINE
8
BLACK
6
CONTINUOUS
10
5.79
20
-3.14295
11
5.75
21
-3.14295
0
LINE
8
BLACK
6
CONTINUOUS
10
5.75
20
-3.14295
11
5.74899
21
-3.14277
0
LINE
8
BLACK
6
CONTINUOUS
10
5.74899
20
-3.14277
11
5.74744
21
-3.14148
0
LINE
8
BLACK
6
CONTINUOUS
10
5.74744
20
-3.14148
11
5.74709
21
-3.13949
0
LINE
8
BLACK
6
CONTINUOUS
10
5.74709
20
-3.13949
11
5.7481
21
-3.13774
0
LINE
8
BLACK
6
CONTINUOUS
10
5.7481
20
-3.13774
11
5.75
21
-3.13705
0
LINE
8
BLACK
6
CONTINUOUS
10
5.75
20
-3.13705
11
5.78705
21
-3.13705
0
LINE
8
BLACK
6
CONTINUOUS
10
5.78705
20
-3.13705
11
5.78705
21
-3.08295
0
LINE
8
BLACK
6
CONTINUOUS
10
5.78705
20
-3.08295
11
5.75
21
-3.08295
0
LINE
8
BLACK
6
CONTINUOUS
10
5.75
20
-3.08295
11
5.74899
21
-3.08277
0
LINE
8
BLACK
6
CONTINUOUS
10
5.74899
20
-3.08277
11
5.74744
21
-3.08148
0
LINE
8
BLACK
6
CONTINUOUS
10
5.74744
20
-3.08148
11
5.74709
21
-3.07949
0
LINE
8
BLACK
6
CONTINUOUS
10
5.74709
20
-3.07949
11
5.7481
21
-3.07774
0
LINE
8
BLACK
6
CONTINUOUS
10
5.7481
20
-3.07774
11
5.75
21
-3.07705
0
LINE
8
BLACK
6
CONTINUOUS
10
5.75
20
-3.07705
11
5.79
21
-3.07705
0
LINE
8
BLACK
6
CONTINUOUS
10
5.79
20
-3.07705
11
5.79038
21
-3.07711
0
LINE
8
BLACK
6
CONTINUOUS
10
5.70166
20
-3.11269
11
5.70229
21
-3.11421
0
LINE
8
BLACK
6
CONTINUOUS
10
5.70229
20
-3.11421
11
5.70229
21
-3.13391
0
LINE
8
BLACK
6
CONTINUOUS
10
5.70229
20
-3.13391
11
5.70166
21
-3.13543
0
LINE
8
BLACK
6
CONTINUOUS
10
5.70166
20
-3.13543
11
5.70014
21
-3.13606
0
LINE
8
BLACK
6
CONTINUOUS
10
5.70014
20
-3.13606
11
5.69862
21
-3.13543
0
LINE
8
BLACK
6
CONTINUOUS
10
5.69862
20
-3.13543
11
5.69799
21
-3.13391
0
LINE
8
BLACK
6
CONTINUOUS
10
5.69799
20
-3.13391
11
5.69799
21
-3.13036
0
LINE
8
BLACK
6
CONTINUOUS
10
5.69799
20
-3.13036
11
5.69436
21
-3.1352
0
LINE
8
BLACK
6
CONTINUOUS
10
5.69436
20
-3.1352
11
5.69294
21
-3.13604
0
LINE
8
BLACK
6
CONTINUOUS
10
5.69294
20
-3.13604
11
5.69135
21
-3.13563
0
LINE
8
BLACK
6
CONTINUOUS
10
5.69135
20
-3.13563
11
5.69051
21
-3.13422
0
LINE
8
BLACK
6
CONTINUOUS
10
5.69051
20
-3.13422
11
5.69092
21
-3.13262
0
LINE
8
BLACK
6
CONTINUOUS
10
5.69092
20
-3.13262
11
5.69543
21
-3.12661
0
LINE
8
BLACK
6
CONTINUOUS
10
5.69543
20
-3.12661
11
5.69112
21
-3.1223
0
LINE
8
BLACK
6
CONTINUOUS
10
5.69112
20
-3.1223
11
5.69049
21
-3.12078
0
LINE
8
BLACK
6
CONTINUOUS
10
5.69049
20
-3.12078
11
5.69112
21
-3.11926
0
LINE
8
BLACK
6
CONTINUOUS
10
5.69112
20
-3.11926
11
5.69264
21
-3.11863
0
LINE
8
BLACK
6
CONTINUOUS
10
5.69264
20
-3.11863
11
5.69416
21
-3.11926
0
LINE
8
BLACK
6
CONTINUOUS
10
5.69416
20
-3.11926
11
5.69799
21
-3.12309
0
LINE
8
BLACK
6
CONTINUOUS
10
5.69799
20
-3.12309
11
5.69799
21
-3.11421
0
LINE
8
BLACK
6
CONTINUOUS
10
5.69799
20
-3.11421
11
5.69862
21
-3.11269
0
LINE
8
BLACK
6
CONTINUOUS
10
5.69862
20
-3.11269
11
5.70014
21
-3.11206
0
LINE
8
BLACK
6
CONTINUOUS
10
5.70014
20
-3.11206
11
5.70166
21
-3.11269
0
LINE
8
BLACK
6
CONTINUOUS
10
5.70706
20
-3.13543
11
5.70643
21
-3.13391
0
LINE
8
BLACK
6
CONTINUOUS
10
5.70643
20
-3.13391
11
5.70706
21
-3.13239
0
LINE
8
BLACK
6
CONTINUOUS
10
5.70706
20
-3.13239
11
5.70858
21
-3.13176
0
LINE
8
BLACK
6
CONTINUOUS
10
5.70858
20
-3.13176
11
5.71206
21
-3.13176
0
LINE
8
BLACK
6
CONTINUOUS
10
5.71206
20
-3.13176
11
5.71206
21
-3.11421
0
LINE
8
BLACK
6
CONTINUOUS
10
5.71206
20
-3.11421
11
5.71215
21
-3.11401
0
LINE
8
BLACK
6
CONTINUOUS
10
5.71215
20
-3.11401
11
5.7121
21
-3.11379
0
LINE
8
BLACK
6
CONTINUOUS
10
5.7121
20
-3.11379
11
5.71245
21
-3.11327
0
LINE
8
BLACK
6
CONTINUOUS
10
5.71245
20
-3.11327
11
5.71269
21
-3.11269
0
LINE
8
BLACK
6
CONTINUOUS
10
5.71269
20
-3.11269
11
5.7129
21
-3.11261
0
LINE
8
BLACK
6
CONTINUOUS
10
5.7129
20
-3.11261
11
5.71302
21
-3.11242
0
LINE
8
BLACK
6
CONTINUOUS
10
5.71302
20
-3.11242
11
5.71363
21
-3.1123
0
LINE
8
BLACK
6
CONTINUOUS
10
5.71363
20
-3.1123
11
5.71421
21
-3.11206
0
LINE
8
BLACK
6
CONTINUOUS
10
5.71421
20
-3.11206
11
5.71442
21
-3.11215
0
LINE
8
BLACK
6
CONTINUOUS
10
5.71442
20
-3.11215
11
5.71463
21
-3.1121
0
LINE
8
BLACK
6
CONTINUOUS
10
5.71463
20
-3.1121
11
5.71515
21
-3.11245
0
LINE
8
BLACK
6
CONTINUOUS
10
5.71515
20
-3.11245
11
5.71573
21
-3.11269
0
LINE
8
BLACK
6
CONTINUOUS
10
5.71573
20
-3.11269
11
5.71582
21
-3.1129
0
LINE
8
BLACK
6
CONTINUOUS
10
5.71582
20
-3.1129
11
5.716
21
-3.11302
0
LINE
8
BLACK
6
CONTINUOUS
10
5.716
20
-3.11302
11
5.71776
21
-3.11566
0
LINE
8
BLACK
6
CONTINUOUS
10
5.71776
20
-3.11566
11
5.71924
21
-3.11714
0
LINE
8
BLACK
6
CONTINUOUS
10
5.71924
20
-3.11714
11
5.7208
21
-3.11792
0
LINE
8
BLACK
6
CONTINUOUS
10
5.7208
20
-3.11792
11
5.72188
21
-3.11916
0
LINE
8
BLACK
6
CONTINUOUS
10
5.72188
20
-3.11916
11
5.72176
21
-3.1208
0
LINE
8
BLACK
6
CONTINUOUS
10
5.72176
20
-3.1208
11
5.72052
21
-3.12188
0
LINE
8
BLACK
6
CONTINUOUS
10
5.72052
20
-3.12188
11
5.71888
21
-3.12176
0
LINE
8
BLACK
6
CONTINUOUS
10
5.71888
20
-3.12176
11
5.717
21
-3.12083
0
LINE
8
BLACK
6
CONTINUOUS
10
5.717
20
-3.12083
11
5.71677
21
-3.12056
0
LINE
8
BLACK
6
CONTINUOUS
10
5.71677
20
-3.12056
11
5.71644
21
-3.12042
0
LINE
8
BLACK
6
CONTINUOUS
10
5.71644
20
-3.12042
11
5.71636
21
-3.12034
0
LINE
8
BLACK
6
CONTINUOUS
10
5.71636
20
-3.12034
11
5.71636
21
-3.13176
0
LINE
8
BLACK
6
CONTINUOUS
10
5.71636
20
-3.13176
11
5.71984
21
-3.13176
0
LINE
8
BLACK
6
CONTINUOUS
10
5.71984
20
-3.13176
11
5.72136
21
-3.13239
0
LINE
8
BLACK
6
CONTINUOUS
10
5.72136
20
-3.13239
11
5.72199
21
-3.13391
0
LINE
8
BLACK
6
CONTINUOUS
10
5.72199
20
-3.13391
11
5.72136
21
-3.13543
0
LINE
8
BLACK
6
CONTINUOUS
10
5.72136
20
-3.13543
11
5.71984
21
-3.13606
0
LINE
8
BLACK
6
CONTINUOUS
10
5.71984
20
-3.13606
11
5.70858
21
-3.13606
0
LINE
8
BLACK
6
CONTINUOUS
10
5.70858
20
-3.13606
11
5.70706
21
-3.13543
0
LINE
8
BLACK
6
CONTINUOUS
10
5.75709
20
-3.11234
11
5.75779
21
-3.11255
0
LINE
8
BLACK
6
CONTINUOUS
10
5.75779
20
-3.11255
11
5.75784
21
-3.11265
0
LINE
8
BLACK
6
CONTINUOUS
10
5.75784
20
-3.11265
11
5.75795
21
-3.11269
0
LINE
8
BLACK
6
CONTINUOUS
10
5.75795
20
-3.11269
11
5.75822
21
-3.11336
0
LINE
8
BLACK
6
CONTINUOUS
10
5.75822
20
-3.11336
11
5.75857
21
-3.114
0
LINE
8
BLACK
6
CONTINUOUS
10
5.75857
20
-3.114
11
5.7595
21
-3.12338
0
LINE
8
BLACK
6
CONTINUOUS
10
5.7595
20
-3.12338
11
5.75947
21
-3.12349
0
LINE
8
BLACK
6
CONTINUOUS
10
5.75947
20
-3.12349
11
5.75951
21
-3.12359
0
LINE
8
BLACK
6
CONTINUOUS
10
5.75951
20
-3.12359
11
5.75924
21
-3.12426
0
LINE
8
BLACK
6
CONTINUOUS
10
5.75924
20
-3.12426
11
5.75903
21
-3.12495
0
LINE
8
BLACK
6
CONTINUOUS
10
5.75903
20
-3.12495
11
5.75893
21
-3.12501
0
LINE
8
BLACK
6
CONTINUOUS
10
5.75893
20
-3.12501
11
5.75888
21
-3.12511
0
LINE
8
BLACK
6
CONTINUOUS
10
5.75888
20
-3.12511
11
5.75822
21
-3.12539
0
LINE
8
BLACK
6
CONTINUOUS
10
5.75822
20
-3.12539
11
5.75758
21
-3.12573
0
LINE
8
BLACK
6
CONTINUOUS
10
5.75758
20
-3.12573
11
5.75747
21
-3.1257
0
LINE
8
BLACK
6
CONTINUOUS
10
5.75747
20
-3.1257
11
5.75736
21
-3.12574
0
LINE
8
BLACK
6
CONTINUOUS
10
5.75736
20
-3.12574
11
5.7567
21
-3.12547
0
LINE
8
BLACK
6
CONTINUOUS
10
5.7567
20
-3.12547
11
5.756
21
-3.12526
0
LINE
8
BLACK
6
CONTINUOUS
10
5.756
20
-3.12526
11
5.75595
21
-3.12516
0
LINE
8
BLACK
6
CONTINUOUS
10
5.75595
20
-3.12516
11
5.75584
21
-3.12511
0
LINE
8
BLACK
6
CONTINUOUS
10
5.75584
20
-3.12511
11
5.75515
21
-3.12442
0
LINE
8
BLACK
6
CONTINUOUS
10
5.75515
20
-3.12442
11
5.75404
21
-3.12387
0
LINE
8
BLACK
6
CONTINUOUS
10
5.75404
20
-3.12387
11
5.75037
21
-3.12387
0
LINE
8
BLACK
6
CONTINUOUS
10
5.75037
20
-3.12387
11
5.74926
21
-3.12442
0
LINE
8
BLACK
6
CONTINUOUS
10
5.74926
20
-3.12442
11
5.74881
21
-3.12487
0
LINE
8
BLACK
6
CONTINUOUS
10
5.74881
20
-3.12487
11
5.74826
21
-3.12598
0
LINE
8
BLACK
6
CONTINUOUS
10
5.74826
20
-3.12598
11
5.74826
21
-3.12965
0
LINE
8
BLACK
6
CONTINUOUS
10
5.74826
20
-3.12965
11
5.74881
21
-3.13076
0
LINE
8
BLACK
6
CONTINUOUS
10
5.74881
20
-3.13076
11
5.74926
21
-3.13121
0
LINE
8
BLACK
6
CONTINUOUS
10
5.74926
20
-3.13121
11
5.75037
21
-3.13176
0
LINE
8
BLACK
6
CONTINUOUS
10
5.75037
20
-3.13176
11
5.75404
21
-3.13176
0
LINE
8
BLACK
6
CONTINUOUS
10
5.75404
20
-3.13176
11
5.75515
21
-3.13121
0
LINE
8
BLACK
6
CONTINUOUS
10
5.75515
20
-3.13121
11
5.75584
21
-3.13052
0
LINE
8
BLACK
6
CONTINUOUS
10
5.75584
20
-3.13052
11
5.75736
21
-3.12989
0
LINE
8
BLACK
6
CONTINUOUS
10
5.75736
20
-3.12989
11
5.75888
21
-3.13052
0
LINE
8
BLACK
6
CONTINUOUS
10
5.75888
20
-3.13052
11
5.75951
21
-3.13204
0
LINE
8
BLACK
6
CONTINUOUS
10
5.75951
20
-3.13204
11
5.75888
21
-3.13356
0
LINE
8
BLACK
6
CONTINUOUS
10
5.75888
20
-3.13356
11
5.75795
21
-3.13449
0
LINE
8
BLACK
6
CONTINUOUS
10
5.75795
20
-3.13449
11
5.75762
21
-3.13463
0
LINE
8
BLACK
6
CONTINUOUS
10
5.75762
20
-3.13463
11
5.75739
21
-3.1349
0
LINE
8
BLACK
6
CONTINUOUS
10
5.75739
20
-3.1349
11
5.75551
21
-3.13583
0
LINE
8
BLACK
6
CONTINUOUS
10
5.75551
20
-3.13583
11
5.75501
21
-3.13587
0
LINE
8
BLACK
6
CONTINUOUS
10
5.75501
20
-3.13587
11
5.75455
21
-3.13606
0
LINE
8
BLACK
6
CONTINUOUS
10
5.75455
20
-3.13606
11
5.74986
21
-3.13606
0
LINE
8
BLACK
6
CONTINUOUS
10
5.74986
20
-3.13606
11
5.7494
21
-3.13587
0
LINE
8
BLACK
6
CONTINUOUS
10
5.7494
20
-3.13587
11
5.7489
21
-3.13583
0
LINE
8
BLACK
6
CONTINUOUS
10
5.7489
20
-3.13583
11
5.74702
21
-3.1349
0
LINE
8
BLACK
6
CONTINUOUS
10
5.74702
20
-3.1349
11
5.74679
21
-3.13463
0
LINE
8
BLACK
6
CONTINUOUS
10
5.74679
20
-3.13463
11
5.74646
21
-3.13449
0
LINE
8
BLACK
6
CONTINUOUS
10
5.74646
20
-3.13449
11
5.74552
21
-3.13356
0
LINE
8
BLACK
6
CONTINUOUS
10
5.74552
20
-3.13356
11
5.74539
21
-3.13323
0
LINE
8
BLACK
6
CONTINUOUS
10
5.74539
20
-3.13323
11
5.74512
21
-3.133
0
LINE
8
BLACK
6
CONTINUOUS
10
5.74512
20
-3.133
11
5.74418
21
-3.13112
0
LINE
8
BLACK
6
CONTINUOUS
10
5.74418
20
-3.13112
11
5.74415
21
-3.13062
0
LINE
8
BLACK
6
CONTINUOUS
10
5.74415
20
-3.13062
11
5.74396
21
-3.13016
0
LINE
8
BLACK
6
CONTINUOUS
10
5.74396
20
-3.13016
11
5.74396
21
-3.12547
0
LINE
8
BLACK
6
CONTINUOUS
10
5.74396
20
-3.12547
11
5.74415
21
-3.12501
0
LINE
8
BLACK
6
CONTINUOUS
10
5.74415
20
-3.12501
11
5.74418
21
-3.12451
0
LINE
8
BLACK
6
CONTINUOUS
10
5.74418
20
-3.12451
11
5.74512
21
-3.12263
0
LINE
8
BLACK
6
CONTINUOUS
10
5.74512
20
-3.12263
11
5.74539
21
-3.1224
0
LINE
8
BLACK
6
CONTINUOUS
10
5.74539
20
-3.1224
11
5.74552
21
-3.12207
0
LINE
8
BLACK
6
CONTINUOUS
10
5.74552
20
-3.12207
11
5.74646
21
-3.12113
0
LINE
8
BLACK
6
CONTINUOUS
10
5.74646
20
-3.12113
11
5.74679
21
-3.121
0
LINE
8
BLACK
6
CONTINUOUS
10
5.74679
20
-3.121
11
5.74702
21
-3.12073
0
LINE
8
BLACK
6
CONTINUOUS
10
5.74702
20
-3.12073
11
5.7489
21
-3.11979
0
LINE
8
BLACK
6
CONTINUOUS
10
5.7489
20
-3.11979
11
5.7494
21
-3.11976
0
LINE
8
BLACK
6
CONTINUOUS
10
5.7494
20
-3.11976
11
5.74986
21
-3.11957
0
LINE
8
BLACK
6
CONTINUOUS
10
5.74986
20
-3.11957
11
5.75455
21
-3.11957
0
LINE
8
BLACK
6
CONTINUOUS
10
5.75455
20
-3.11957
11
5.75481
21
-3.11968
0
LINE
8
BLACK
6
CONTINUOUS
10
5.75481
20
-3.11968
11
5.75448
21
-3.11636
0
LINE
8
BLACK
6
CONTINUOUS
10
5.75448
20
-3.11636
11
5.74705
21
-3.11636
0
LINE
8
BLACK
6
CONTINUOUS
10
5.74705
20
-3.11636
11
5.74552
21
-3.11573
0
LINE
8
BLACK
6
CONTINUOUS
10
5.74552
20
-3.11573
11
5.7449
21
-3.11421
0
LINE
8
BLACK
6
CONTINUOUS
10
5.7449
20
-3.11421
11
5.74552
21
-3.11269
0
LINE
8
BLACK
6
CONTINUOUS
10
5.74552
20
-3.11269
11
5.74705
21
-3.11206
0
LINE
8
BLACK
6
CONTINUOUS
10
5.74705
20
-3.11206
11
5.75643
21
-3.11206
0
LINE
8
BLACK
6
CONTINUOUS
10
5.75643
20
-3.11206
11
5.75709
21
-3.11234
0
LINE
8
BLACK
6
CONTINUOUS
10
5.72582
20
-3.13543
11
5.7252
21
-3.13391
0
LINE
8
BLACK
6
CONTINUOUS
10
5.7252
20
-3.13391
11
5.72582
21
-3.13239
0
LINE
8
BLACK
6
CONTINUOUS
10
5.72582
20
-3.13239
11
5.72735
21
-3.13176
0
LINE
8
BLACK
6
CONTINUOUS
10
5.72735
20
-3.13176
11
5.73082
21
-3.13176
0
LINE
8
BLACK
6
CONTINUOUS
10
5.73082
20
-3.13176
11
5.73082
21
-3.11421
0
LINE
8
BLACK
6
CONTINUOUS
10
5.73082
20
-3.11421
11
5.73091
21
-3.11401
0
LINE
8
BLACK
6
CONTINUOUS
10
5.73091
20
-3.11401
11
5.73087
21
-3.11379
0
LINE
8
BLACK
6
CONTINUOUS
10
5.73087
20
-3.11379
11
5.73121
21
-3.11327
0
LINE
8
BLACK
6
CONTINUOUS
10
5.73121
20
-3.11327
11
5.73145
21
-3.11269
0
LINE
8
BLACK
6
CONTINUOUS
10
5.73145
20
-3.11269
11
5.73166
21
-3.11261
0
LINE
8
BLACK
6
CONTINUOUS
10
5.73166
20
-3.11261
11
5.73178
21
-3.11242
0
LINE
8
BLACK
6
CONTINUOUS
10
5.73178
20
-3.11242
11
5.7324
21
-3.1123
0
LINE
8
BLACK
6
CONTINUOUS
10
5.7324
20
-3.1123
11
5.73297
21
-3.11206
0
LINE
8
BLACK
6
CONTINUOUS
10
5.73297
20
-3.11206
11
5.73318
21
-3.11215
0
LINE
8
BLACK
6
CONTINUOUS
10
5.73318
20
-3.11215
11
5.7334
21
-3.1121
0
LINE
8
BLACK
6
CONTINUOUS
10
5.7334
20
-3.1121
11
5.73392
21
-3.11245
0
LINE
8
BLACK
6
CONTINUOUS
10
5.73392
20
-3.11245
11
5.73449
21
-3.11269
0
LINE
8
BLACK
6
CONTINUOUS
10
5.73449
20
-3.11269
11
5.73458
21
-3.1129
0
LINE
8
BLACK
6
CONTINUOUS
10
5.73458
20
-3.1129
11
5.73476
21
-3.11302
0
LINE
8
BLACK
6
CONTINUOUS
10
5.73476
20
-3.11302
11
5.73652
21
-3.11566
0
LINE
8
BLACK
6
CONTINUOUS
10
5.73652
20
-3.11566
11
5.738
21
-3.11714
0
LINE
8
BLACK
6
CONTINUOUS
10
5.738
20
-3.11714
11
5.73956
21
-3.11792
0
LINE
8
BLACK
6
CONTINUOUS
10
5.73956
20
-3.11792
11
5.74064
21
-3.11916
0
LINE
8
BLACK
6
CONTINUOUS
10
5.74064
20
-3.11916
11
5.74053
21
-3.1208
0
LINE
8
BLACK
6
CONTINUOUS
10
5.74053
20
-3.1208
11
5.73928
21
-3.12188
0
LINE
8
BLACK
6
CONTINUOUS
10
5.73928
20
-3.12188
11
5.73764
21
-3.12176
0
LINE
8
BLACK
6
CONTINUOUS
10
5.73764
20
-3.12176
11
5.73576
21
-3.12083
0
LINE
8
BLACK
6
CONTINUOUS
10
5.73576
20
-3.12083
11
5.73553
21
-3.12056
0
LINE
8
BLACK
6
CONTINUOUS
10
5.73553
20
-3.12056
11
5.73521
21
-3.12042
0
LINE
8
BLACK
6
CONTINUOUS
10
5.73521
20
-3.12042
11
5.73512
21
-3.12034
0
LINE
8
BLACK
6
CONTINUOUS
10
5.73512
20
-3.12034
11
5.73512
21
-3.13176
0
LINE
8
BLACK
6
CONTINUOUS
10
5.73512
20
-3.13176
11
5.7386
21
-3.13176
0
LINE
8
BLACK
6
CONTINUOUS
10
5.7386
20
-3.13176
11
5.74012
21
-3.13239
0
LINE
8
BLACK
6
CONTINUOUS
10
5.74012
20
-3.13239
11
5.74075
21
-3.13391
0
LINE
8
BLACK
6
CONTINUOUS
10
5.74075
20
-3.13391
11
5.74012
21
-3.13543
0
LINE
8
BLACK
6
CONTINUOUS
10
5.74012
20
-3.13543
11
5.7386
21
-3.13606
0
LINE
8
BLACK
6
CONTINUOUS
10
5.7386
20
-3.13606
11
5.72735
21
-3.13606
0
LINE
8
BLACK
6
CONTINUOUS
10
5.72735
20
-3.13606
11
5.72582
21
-3.13543
0
LINE
8
BLACK
6
CONTINUOUS
10
5.61543
20
-3.11926
11
5.61606
21
-3.12078
0
LINE
8
BLACK
6
CONTINUOUS
10
5.61606
20
-3.12078
11
5.61606
21
-3.13204
0
LINE
8
BLACK
6
CONTINUOUS
10
5.61606
20
-3.13204
11
5.61543
21
-3.13356
0
LINE
8
BLACK
6
CONTINUOUS
10
5.61543
20
-3.13356
11
5.61391
21
-3.13419
0
LINE
8
BLACK
6
CONTINUOUS
10
5.61391
20
-3.13419
11
5.61239
21
-3.13356
0
LINE
8
BLACK
6
CONTINUOUS
10
5.61239
20
-3.13356
11
5.61176
21
-3.13204
0
LINE
8
BLACK
6
CONTINUOUS
10
5.61176
20
-3.13204
11
5.61176
21
-3.12856
0
LINE
8
BLACK
6
CONTINUOUS
10
5.61176
20
-3.12856
11
5.59421
21
-3.12856
0
LINE
8
BLACK
6
CONTINUOUS
10
5.59421
20
-3.12856
11
5.59401
21
-3.12847
0
LINE
8
BLACK
6
CONTINUOUS
10
5.59401
20
-3.12847
11
5.59379
21
-3.12852
0
LINE
8
BLACK
6
CONTINUOUS
10
5.59379
20
-3.12852
11
5.59327
21
-3.12817
0
LINE
8
BLACK
6
CONTINUOUS
10
5.59327
20
-3.12817
11
5.59269
21
-3.12793
0
LINE
8
BLACK
6
CONTINUOUS
10
5.59269
20
-3.12793
11
5.59261
21
-3.12772
0
LINE
8
BLACK
6
CONTINUOUS
10
5.59261
20
-3.12772
11
5.59242
21
-3.1276
0
LINE
8
BLACK
6
CONTINUOUS
10
5.59242
20
-3.1276
11
5.5923
21
-3.12699
0
LINE
8
BLACK
6
CONTINUOUS
10
5.5923
20
-3.12699
11
5.59206
21
-3.12641
0
LINE
8
BLACK
6
CONTINUOUS
10
5.59206
20
-3.12641
11
5.59215
21
-3.1262
0
LINE
8
BLACK
6
CONTINUOUS
10
5.59215
20
-3.1262
11
5.5921
21
-3.12599
0
LINE
8
BLACK
6
CONTINUOUS
10
5.5921
20
-3.12599
11
5.59245
21
-3.12547
0
LINE
8
BLACK
6
CONTINUOUS
10
5.59245
20
-3.12547
11
5.59269
21
-3.12489
0
LINE
8
BLACK
6
CONTINUOUS
10
5.59269
20
-3.12489
11
5.5929
21
-3.1248
0
LINE
8
BLACK
6
CONTINUOUS
10
5.5929
20
-3.1248
11
5.59302
21
-3.12462
0
LINE
8
BLACK
6
CONTINUOUS
10
5.59302
20
-3.12462
11
5.59566
21
-3.12286
0
LINE
8
BLACK
6
CONTINUOUS
10
5.59566
20
-3.12286
11
5.59714
21
-3.12138
0
LINE
8
BLACK
6
CONTINUOUS
10
5.59714
20
-3.12138
11
5.59792
21
-3.11982
0
LINE
8
BLACK
6
CONTINUOUS
10
5.59792
20
-3.11982
11
5.59916
21
-3.11874
0
LINE
8
BLACK
6
CONTINUOUS
10
5.59916
20
-3.11874
11
5.6008
21
-3.11886
0
LINE
8
BLACK
6
CONTINUOUS
10
5.6008
20
-3.11886
11
5.60188
21
-3.1201
0
LINE
8
BLACK
6
CONTINUOUS
10
5.60188
20
-3.1201
11
5.60176
21
-3.12174
0
LINE
8
BLACK
6
CONTINUOUS
10
5.60176
20
-3.12174
11
5.60083
21
-3.12362
0
LINE
8
BLACK
6
CONTINUOUS
10
5.60083
20
-3.12362
11
5.60056
21
-3.12385
0
LINE
8
BLACK
6
CONTINUOUS
10
5.60056
20
-3.12385
11
5.60042
21
-3.12418
0
LINE
8
BLACK
6
CONTINUOUS
10
5.60042
20
-3.12418
11
5.60034
21
-3.12426
0
LINE
8
BLACK
6
CONTINUOUS
10
5.60034
20
-3.12426
11
5.61176
21
-3.12426
0
LINE
8
BLACK
6
CONTINUOUS
10
5.61176
20
-3.12426
11
5.61176
21
-3.12078
0
LINE
8
BLACK
6
CONTINUOUS
10
5.61176
20
-3.12078
11
5.61239
21
-3.11926
0
LINE
8
BLACK
6
CONTINUOUS
10
5.61239
20
-3.11926
11
5.61391
21
-3.11863
0
LINE
8
BLACK
6
CONTINUOUS
10
5.61391
20
-3.11863
11
5.61543
21
-3.11926
0
LINE
8
BLACK
6
CONTINUOUS
10
5.86824
20
-3.11019
11
5.86887
21
-3.11171
0
LINE
8
BLACK
6
CONTINUOUS
10
5.86887
20
-3.11171
11
5.86824
21
-3.11323
0
LINE
8
BLACK
6
CONTINUOUS
10
5.86824
20
-3.11323
11
5.86672
21
-3.11386
0
LINE
8
BLACK
6
CONTINUOUS
10
5.86672
20
-3.11386
11
5.85926
21
-3.11386
0
LINE
8
BLACK
6
CONTINUOUS
10
5.85926
20
-3.11386
11
5.86271
21
-3.1178
0
LINE
8
BLACK
6
CONTINUOUS
10
5.86271
20
-3.1178
11
5.86295
21
-3.11852
0
LINE
8
BLACK
6
CONTINUOUS
10
5.86295
20
-3.11852
11
5.86324
21
-3.11922
0
LINE
8
BLACK
6
CONTINUOUS
10
5.86324
20
-3.11922
11
5.86321
21
-3.11929
0
LINE
8
BLACK
6
CONTINUOUS
10
5.86321
20
-3.11929
11
5.86323
21
-3.11936
0
LINE
8
BLACK
6
CONTINUOUS
10
5.86323
20
-3.11936
11
5.8629
21
-3.12004
0
LINE
8
BLACK
6
CONTINUOUS
10
5.8629
20
-3.12004
11
5.86261
21
-3.12074
0
LINE
8
BLACK
6
CONTINUOUS
10
5.86261
20
-3.12074
11
5.86254
21
-3.12077
0
LINE
8
BLACK
6
CONTINUOUS
10
5.86254
20
-3.12077
11
5.8625
21
-3.12083
0
LINE
8
BLACK
6
CONTINUOUS
10
5.8625
20
-3.12083
11
5.86179
21
-3.12108
0
LINE
8
BLACK
6
CONTINUOUS
10
5.86179
20
-3.12108
11
5.86109
21
-3.12137
0
LINE
8
BLACK
6
CONTINUOUS
10
5.86109
20
-3.12137
11
5.85878
21
-3.12137
0
LINE
8
BLACK
6
CONTINUOUS
10
5.85878
20
-3.12137
11
5.85767
21
-3.12192
0
LINE
8
BLACK
6
CONTINUOUS
10
5.85767
20
-3.12192
11
5.85723
21
-3.12237
0
LINE
8
BLACK
6
CONTINUOUS
10
5.85723
20
-3.12237
11
5.85667
21
-3.12348
0
LINE
8
BLACK
6
CONTINUOUS
10
5.85667
20
-3.12348
11
5.85667
21
-3.12715
0
LINE
8
BLACK
6
CONTINUOUS
10
5.85667
20
-3.12715
11
5.85723
21
-3.12826
0
LINE
8
BLACK
6
CONTINUOUS
10
5.85723
20
-3.12826
11
5.85767
21
-3.12871
0
LINE
8
BLACK
6
CONTINUOUS
10
5.85767
20
-3.12871
11
5.85878
21
-3.12926
0
LINE
8
BLACK
6
CONTINUOUS
10
5.85878
20
-3.12926
11
5.86339
21
-3.12926
0
LINE
8
BLACK
6
CONTINUOUS
10
5.86339
20
-3.12926
11
5.8645
21
-3.12871
0
LINE
8
BLACK
6
CONTINUOUS
10
5.8645
20
-3.12871
11
5.8652
21
-3.12802
0
LINE
8
BLACK
6
CONTINUOUS
10
5.8652
20
-3.12802
11
5.86672
21
-3.12739
0
LINE
8
BLACK
6
CONTINUOUS
10
5.86672
20
-3.12739
11
5.86824
21
-3.12802
0
LINE
8
BLACK
6
CONTINUOUS
10
5.86824
20
-3.12802
11
5.86887
21
-3.12954
0
LINE
8
BLACK
6
CONTINUOUS
10
5.86887
20
-3.12954
11
5.86824
21
-3.13106
0
LINE
8
BLACK
6
CONTINUOUS
10
5.86824
20
-3.13106
11
5.8673
21
-3.13199
0
LINE
8
BLACK
6
CONTINUOUS
10
5.8673
20
-3.13199
11
5.86697
21
-3.13213
0
LINE
8
BLACK
6
CONTINUOUS
10
5.86697
20
-3.13213
11
5.86674
21
-3.1324
0
LINE
8
BLACK
6
CONTINUOUS
10
5.86674
20
-3.1324
11
5.86486
21
-3.13333
0
LINE
8
BLACK
6
CONTINUOUS
10
5.86486
20
-3.13333
11
5.86436
21
-3.13337
0
LINE
8
BLACK
6
CONTINUOUS
10
5.86436
20
-3.13337
11
5.8639
21
-3.13356
0
LINE
8
BLACK
6
CONTINUOUS
10
5.8639
20
-3.13356
11
5.85827
21
-3.13356
0
LINE
8
BLACK
6
CONTINUOUS
10
5.85827
20
-3.13356
11
5.85781
21
-3.13337
0
LINE
8
BLACK
6
CONTINUOUS
10
5.85781
20
-3.13337
11
5.85731
21
-3.13333
0
LINE
8
BLACK
6
CONTINUOUS
10
5.85731
20
-3.13333
11
5.85544
21
-3.1324
0
LINE
8
BLACK
6
CONTINUOUS
10
5.85544
20
-3.1324
11
5.8552
21
-3.13213
0
LINE
8
BLACK
6
CONTINUOUS
10
5.8552
20
-3.13213
11
5.85488
21
-3.13199
0
LINE
8
BLACK
6
CONTINUOUS
10
5.85488
20
-3.13199
11
5.85394
21
-3.13106
0
LINE
8
BLACK
6
CONTINUOUS
10
5.85394
20
-3.13106
11
5.8538
21
-3.13073
0
LINE
8
BLACK
6
CONTINUOUS
10
5.8538
20
-3.13073
11
5.85354
21
-3.1305
0
LINE
8
BLACK
6
CONTINUOUS
10
5.85354
20
-3.1305
11
5.8526
21
-3.12862
0
LINE
8
BLACK
6
CONTINUOUS
10
5.8526
20
-3.12862
11
5.85256
21
-3.12812
0
LINE
8
BLACK
6
CONTINUOUS
10
5.85256
20
-3.12812
11
5.85237
21
-3.12766
0
LINE
8
BLACK
6
CONTINUOUS
10
5.85237
20
-3.12766
11
5.85237
21
-3.12297
0
LINE
8
BLACK
6
CONTINUOUS
10
5.85237
20
-3.12297
11
5.85256
21
-3.12251
0
LINE
8
BLACK
6
CONTINUOUS
10
5.85256
20
-3.12251
11
5.8526
21
-3.12201
0
LINE
8
BLACK
6
CONTINUOUS
10
5.8526
20
-3.12201
11
5.85354
21
-3.12013
0
LINE
8
BLACK
6
CONTINUOUS
10
5.85354
20
-3.12013
11
5.8538
21
-3.1199
0
LINE
8
BLACK
6
CONTINUOUS
10
5.8538
20
-3.1199
11
5.85394
21
-3.11957
0
LINE
8
BLACK
6
CONTINUOUS
10
5.85394
20
-3.11957
11
5.85488
21
-3.11863
0
LINE
8
BLACK
6
CONTINUOUS
10
5.85488
20
-3.11863
11
5.8552
21
-3.1185
0
LINE
8
BLACK
6
CONTINUOUS
10
5.8552
20
-3.1185
11
5.85544
21
-3.11823
0
LINE
8
BLACK
6
CONTINUOUS
10
5.85544
20
-3.11823
11
5.85678
21
-3.11756
0
LINE
8
BLACK
6
CONTINUOUS
10
5.85678
20
-3.11756
11
5.8529
21
-3.11313
0
LINE
8
BLACK
6
CONTINUOUS
10
5.8529
20
-3.11313
11
5.85266
21
-3.11241
0
LINE
8
BLACK
6
CONTINUOUS
10
5.85266
20
-3.11241
11
5.85237
21
-3.11171
0
LINE
8
BLACK
6
CONTINUOUS
10
5.85237
20
-3.11171
11
5.8524
21
-3.11164
0
LINE
8
BLACK
6
CONTINUOUS
10
5.8524
20
-3.11164
11
5.85238
21
-3.11157
0
LINE
8
BLACK
6
CONTINUOUS
10
5.85238
20
-3.11157
11
5.85271
21
-3.11089
0
LINE
8
BLACK
6
CONTINUOUS
10
5.85271
20
-3.11089
11
5.853
21
-3.11019
0
LINE
8
BLACK
6
CONTINUOUS
10
5.853
20
-3.11019
11
5.85307
21
-3.11016
0
LINE
8
BLACK
6
CONTINUOUS
10
5.85307
20
-3.11016
11
5.85311
21
-3.11009
0
LINE
8
BLACK
6
CONTINUOUS
10
5.85311
20
-3.11009
11
5.85382
21
-3.10985
0
LINE
8
BLACK
6
CONTINUOUS
10
5.85382
20
-3.10985
11
5.85452
21
-3.10956
0
LINE
8
BLACK
6
CONTINUOUS
10
5.85452
20
-3.10956
11
5.86672
21
-3.10956
0
LINE
8
BLACK
6
CONTINUOUS
10
5.86672
20
-3.10956
11
5.86824
21
-3.11019
0
LINE
8
BLACK
6
CONTINUOUS
10
5.88606
20
-3.11019
11
5.88669
21
-3.11171
0
LINE
8
BLACK
6
CONTINUOUS
10
5.88669
20
-3.11171
11
5.88669
21
-3.13141
0
LINE
8
BLACK
6
CONTINUOUS
10
5.88669
20
-3.13141
11
5.88606
21
-3.13293
0
LINE
8
BLACK
6
CONTINUOUS
10
5.88606
20
-3.13293
11
5.88454
21
-3.13356
0
LINE
8
BLACK
6
CONTINUOUS
10
5.88454
20
-3.13356
11
5.88302
21
-3.13293
0
LINE
8
BLACK
6
CONTINUOUS
10
5.88302
20
-3.13293
11
5.88239
21
-3.13141
0
LINE
8
BLACK
6
CONTINUOUS
10
5.88239
20
-3.13141
11
5.88239
21
-3.12418
0
LINE
8
BLACK
6
CONTINUOUS
10
5.88239
20
-3.12418
11
5.88097
21
-3.12418
0
LINE
8
BLACK
6
CONTINUOUS
10
5.88097
20
-3.12418
11
5.87504
21
-3.13264
0
LINE
8
BLACK
6
CONTINUOUS
10
5.87504
20
-3.13264
11
5.87366
21
-3.13353
0
LINE
8
BLACK
6
CONTINUOUS
10
5.87366
20
-3.13353
11
5.87205
21
-3.13317
0
LINE
8
BLACK
6
CONTINUOUS
10
5.87205
20
-3.13317
11
5.87117
21
-3.13179
0
LINE
8
BLACK
6
CONTINUOUS
10
5.87117
20
-3.13179
11
5.87152
21
-3.13018
0
LINE
8
BLACK
6
CONTINUOUS
10
5.87152
20
-3.13018
11
5.87593
21
-3.12388
0
LINE
8
BLACK
6
CONTINUOUS
10
5.87593
20
-3.12388
11
5.8742
21
-3.12302
0
LINE
8
BLACK
6
CONTINUOUS
10
5.8742
20
-3.12302
11
5.87397
21
-3.12275
0
LINE
8
BLACK
6
CONTINUOUS
10
5.87397
20
-3.12275
11
5.87364
21
-3.12261
0
LINE
8
BLACK
6
CONTINUOUS
10
5.87364
20
-3.12261
11
5.8727
21
-3.12167
0
LINE
8
BLACK
6
CONTINUOUS
10
5.8727
20
-3.12167
11
5.87257
21
-3.12135
0
LINE
8
BLACK
6
CONTINUOUS
10
5.87257
20
-3.12135
11
5.8723
21
-3.12112
0
LINE
8
BLACK
6
CONTINUOUS
10
5.8723
20
-3.12112
11
5.87136
21
-3.11924
0
LINE
8
BLACK
6
CONTINUOUS
10
5.87136
20
-3.11924
11
5.87132
21
-3.11874
0
LINE
8
BLACK
6
CONTINUOUS
10
5.87132
20
-3.11874
11
5.87113
21
-3.11828
0
LINE
8
BLACK
6
CONTINUOUS
10
5.87113
20
-3.11828
11
5.87113
21
-3.11546
0
LINE
8
BLACK
6
CONTINUOUS
10
5.87113
20
-3.11546
11
5.87132
21
-3.115
0
LINE
8
BLACK
6
CONTINUOUS
10
5.87132
20
-3.115
11
5.87136
21
-3.1145
0
LINE
8
BLACK
6
CONTINUOUS
10
5.87136
20
-3.1145
11
5.8723
21
-3.11263
0
LINE
8
BLACK
6
CONTINUOUS
10
5.8723
20
-3.11263
11
5.87257
21
-3.11239
0
LINE
8
BLACK
6
CONTINUOUS
10
5.87257
20
-3.11239
11
5.8727
21
-3.11207
0
LINE
8
BLACK
6
CONTINUOUS
10
5.8727
20
-3.11207
11
5.87364
21
-3.11113
0
LINE
8
BLACK
6
CONTINUOUS
10
5.87364
20
-3.11113
11
5.87397
21
-3.11099
0
LINE
8
BLACK
6
CONTINUOUS
10
5.87397
20
-3.11099
11
5.8742
21
-3.11073
0
LINE
8
BLACK
6
CONTINUOUS
10
5.8742
20
-3.11073
11
5.87607
21
-3.10979
0
LINE
8
BLACK
6
CONTINUOUS
10
5.87607
20
-3.10979
11
5.87657
21
-3.10975
0
LINE
8
BLACK
6
CONTINUOUS
10
5.87657
20
-3.10975
11
5.87704
21
-3.10956
0
LINE
8
BLACK
6
CONTINUOUS
10
5.87704
20
-3.10956
11
5.88454
21
-3.10956
0
LINE
8
BLACK
6
CONTINUOUS
10
5.88454
20
-3.10956
11
5.88606
21
-3.11019
0
LINE
8
BLACK
6
CONTINUOUS
10
5.87754
20
-3.11386
11
5.87643
21
-3.11442
0
LINE
8
BLACK
6
CONTINUOUS
10
5.87643
20
-3.11442
11
5.87599
21
-3.11486
0
LINE
8
BLACK
6
CONTINUOUS
10
5.87599
20
-3.11486
11
5.87543
21
-3.11597
0
LINE
8
BLACK
6
CONTINUOUS
10
5.87543
20
-3.11597
11
5.87543
21
-3.11777
0
LINE
8
BLACK
6
CONTINUOUS
10
5.87543
20
-3.11777
11
5.87599
21
-3.11888
0
LINE
8
BLACK
6
CONTINUOUS
10
5.87599
20
-3.11888
11
5.87643
21
-3.11933
0
LINE
8
BLACK
6
CONTINUOUS
10
5.87643
20
-3.11933
11
5.87754
21
-3.11988
0
LINE
8
BLACK
6
CONTINUOUS
10
5.87754
20
-3.11988
11
5.88239
21
-3.11988
0
LINE
8
BLACK
6
CONTINUOUS
10
5.88239
20
-3.11988
11
5.88239
21
-3.11386
0
LINE
8
BLACK
6
CONTINUOUS
10
5.88239
20
-3.11386
11
5.87754
21
-3.11386
0
LINE
8
BLACK
6
CONTINUOUS
10
5.64293
20
-3.11394
11
5.64356
21
-3.11546
0
LINE
8
BLACK
6
CONTINUOUS
10
5.64356
20
-3.11546
11
5.64293
21
-3.11698
0
LINE
8
BLACK
6
CONTINUOUS
10
5.64293
20
-3.11698
11
5.64141
21
-3.11761
0
LINE
8
BLACK
6
CONTINUOUS
10
5.64141
20
-3.11761
11
5.63418
21
-3.11761
0
LINE
8
BLACK
6
CONTINUOUS
10
5.63418
20
-3.11761
11
5.63418
21
-3.11903
0
LINE
8
BLACK
6
CONTINUOUS
10
5.63418
20
-3.11903
11
5.64264
21
-3.12496
0
LINE
8
BLACK
6
CONTINUOUS
10
5.64264
20
-3.12496
11
5.64353
21
-3.12634
0
LINE
8
BLACK
6
CONTINUOUS
10
5.64353
20
-3.12634
11
5.64317
21
-3.12795
0
LINE
8
BLACK
6
CONTINUOUS
10
5.64317
20
-3.12795
11
5.64179
21
-3.12883
0
LINE
8
BLACK
6
CONTINUOUS
10
5.64179
20
-3.12883
11
5.64018
21
-3.12848
0
LINE
8
BLACK
6
CONTINUOUS
10
5.64018
20
-3.12848
11
5.63388
21
-3.12407
0
LINE
8
BLACK
6
CONTINUOUS
10
5.63388
20
-3.12407
11
5.63302
21
-3.1258
0
LINE
8
BLACK
6
CONTINUOUS
10
5.63302
20
-3.1258
11
5.63275
21
-3.12603
0
LINE
8
BLACK
6
CONTINUOUS
10
5.63275
20
-3.12603
11
5.63261
21
-3.12636
0
LINE
8
BLACK
6
CONTINUOUS
10
5.63261
20
-3.12636
11
5.63167
21
-3.1273
0
LINE
8
BLACK
6
CONTINUOUS
10
5.63167
20
-3.1273
11
5.63135
21
-3.12743
0
LINE
8
BLACK
6
CONTINUOUS
10
5.63135
20
-3.12743
11
5.63112
21
-3.1277
0
LINE
8
BLACK
6
CONTINUOUS
10
5.63112
20
-3.1277
11
5.62924
21
-3.12864
0
LINE
8
BLACK
6
CONTINUOUS
10
5.62924
20
-3.12864
11
5.62874
21
-3.12868
0
LINE
8
BLACK
6
CONTINUOUS
10
5.62874
20
-3.12868
11
5.62828
21
-3.12887
0
LINE
8
BLACK
6
CONTINUOUS
10
5.62828
20
-3.12887
11
5.62546
21
-3.12887
0
LINE
8
BLACK
6
CONTINUOUS
10
5.62546
20
-3.12887
11
5.625
21
-3.12868
0
LINE
8
BLACK
6
CONTINUOUS
10
5.625
20
-3.12868
11
5.6245
21
-3.12864
0
LINE
8
BLACK
6
CONTINUOUS
10
5.6245
20
-3.12864
11
5.62263
21
-3.1277
0
LINE
8
BLACK
6
CONTINUOUS
10
5.62263
20
-3.1277
11
5.62239
21
-3.12743
0
LINE
8
BLACK
6
CONTINUOUS
10
5.62239
20
-3.12743
11
5.62207
21
-3.1273
0
LINE
8
BLACK
6
CONTINUOUS
10
5.62207
20
-3.1273
11
5.62113
21
-3.12636
0
LINE
8
BLACK
6
CONTINUOUS
10
5.62113
20
-3.12636
11
5.62099
21
-3.12603
0
LINE
8
BLACK
6
CONTINUOUS
10
5.62099
20
-3.12603
11
5.62073
21
-3.1258
0
LINE
8
BLACK
6
CONTINUOUS
10
5.62073
20
-3.1258
11
5.61979
21
-3.12393
0
LINE
8
BLACK
6
CONTINUOUS
10
5.61979
20
-3.12393
11
5.61975
21
-3.12343
0
LINE
8
BLACK
6
CONTINUOUS
10
5.61975
20
-3.12343
11
5.61956
21
-3.12296
0
LINE
8
BLACK
6
CONTINUOUS
10
5.61956
20
-3.12296
11
5.61956
21
-3.11546
0
LINE
8
BLACK
6
CONTINUOUS
10
5.61956
20
-3.11546
11
5.62019
21
-3.11394
0
LINE
8
BLACK
6
CONTINUOUS
10
5.62019
20
-3.11394
11
5.62171
21
-3.11331
0
LINE
8
BLACK
6
CONTINUOUS
10
5.62171
20
-3.11331
11
5.64141
21
-3.11331
0
LINE
8
BLACK
6
CONTINUOUS
10
5.64141
20
-3.11331
11
5.64293
21
-3.11394
0
LINE
8
BLACK
6
CONTINUOUS
10
5.62386
20
-3.11761
11
5.62386
21
-3.12246
0
LINE
8
BLACK
6
CONTINUOUS
10
5.62386
20
-3.12246
11
5.62442
21
-3.12357
0
LINE
8
BLACK
6
CONTINUOUS
10
5.62442
20
-3.12357
11
5.62486
21
-3.12401
0
LINE
8
BLACK
6
CONTINUOUS
10
5.62486
20
-3.12401
11
5.62597
21
-3.12457
0
LINE
8
BLACK
6
CONTINUOUS
10
5.62597
20
-3.12457
11
5.62777
21
-3.12457
0
LINE
8
BLACK
6
CONTINUOUS
10
5.62777
20
-3.12457
11
5.62888
21
-3.12401
0
LINE
8
BLACK
6
CONTINUOUS
10
5.62888
20
-3.12401
11
5.62933
21
-3.12357
0
LINE
8
BLACK
6
CONTINUOUS
10
5.62933
20
-3.12357
11
5.62988
21
-3.12246
0
LINE
8
BLACK
6
CONTINUOUS
10
5.62988
20
-3.12246
11
5.62988
21
-3.11761
0
LINE
8
BLACK
6
CONTINUOUS
10
5.62988
20
-3.11761
11
5.62386
21
-3.11761
0
LINE
8
BLACK
6
CONTINUOUS
10
5.65038
20
-3.06711
11
5.65051
21
-3.06709
0
LINE
8
BLACK
6
CONTINUOUS
10
5.65051
20
-3.06709
11
5.65063
21
-3.06716
0
LINE
8
BLACK
6
CONTINUOUS
10
5.65063
20
-3.06716
11
5.65101
21
-3.06723
0
LINE
8
BLACK
6
CONTINUOUS
10
5.65101
20
-3.06723
11
5.6516
21
-3.06772
0
LINE
8
BLACK
6
CONTINUOUS
10
5.6516
20
-3.06772
11
5.65226
21
-3.0681
0
LINE
8
BLACK
6
CONTINUOUS
10
5.65226
20
-3.0681
11
5.65235
21
-3.06835
0
LINE
8
BLACK
6
CONTINUOUS
10
5.65235
20
-3.06835
11
5.65256
21
-3.06852
0
LINE
8
BLACK
6
CONTINUOUS
10
5.65256
20
-3.06852
11
5.65269
21
-3.06928
0
LINE
8
BLACK
6
CONTINUOUS
10
5.65269
20
-3.06928
11
5.65295
21
-3.07
0
LINE
8
BLACK
6
CONTINUOUS
10
5.65295
20
-3.07
11
5.65295
21
-3.11
0
LINE
8
BLACK
6
CONTINUOUS
10
5.65295
20
-3.11
11
5.65277
21
-3.11101
0
LINE
8
BLACK
6
CONTINUOUS
10
5.65277
20
-3.11101
11
5.65148
21
-3.11256
0
LINE
8
BLACK
6
CONTINUOUS
10
5.65148
20
-3.11256
11
5.64949
21
-3.11291
0
LINE
8
BLACK
6
CONTINUOUS
10
5.64949
20
-3.11291
11
5.64774
21
-3.1119
0
LINE
8
BLACK
6
CONTINUOUS
10
5.64774
20
-3.1119
11
5.64705
21
-3.11
0
LINE
8
BLACK
6
CONTINUOUS
10
5.64705
20
-3.11
11
5.64705
21
-3.07295
0
LINE
8
BLACK
6
CONTINUOUS
10
5.64705
20
-3.07295
11
5.59295
21
-3.07295
0
LINE
8
BLACK
6
CONTINUOUS
10
5.59295
20
-3.07295
11
5.59295
21
-3.10348
0
LINE
8
BLACK
6
CONTINUOUS
10
5.59295
20
-3.10348
11
5.59323
21
-3.10293
0
LINE
8
BLACK
6
CONTINUOUS
10
5.59323
20
-3.10293
11
5.59349
21
-3.1027
0
LINE
8
BLACK
6
CONTINUOUS
10
5.59349
20
-3.1027
11
5.59363
21
-3.10237
0
LINE
8
BLACK
6
CONTINUOUS
10
5.59363
20
-3.10237
11
5.59457
21
-3.10143
0
LINE
8
BLACK
6
CONTINUOUS
10
5.59457
20
-3.10143
11
5.59489
21
-3.1013
0
LINE
8
BLACK
6
CONTINUOUS
10
5.59489
20
-3.1013
11
5.59513
21
-3.10103
0
LINE
8
BLACK
6
CONTINUOUS
10
5.59513
20
-3.10103
11
5.597
21
-3.10009
0
LINE
8
BLACK
6
CONTINUOUS
10
5.597
20
-3.10009
11
5.5975
21
-3.10006
0
LINE
8
BLACK
6
CONTINUOUS
10
5.5975
20
-3.10006
11
5.59796
21
-3.09987
0
LINE
8
BLACK
6
CONTINUOUS
10
5.59796
20
-3.09987
11
5.60265
21
-3.09987
0
LINE
8
BLACK
6
CONTINUOUS
10
5.60265
20
-3.09987
11
5.60312
21
-3.10006
0
LINE
8
BLACK
6
CONTINUOUS
10
5.60312
20
-3.10006
11
5.60362
21
-3.10009
0
LINE
8
BLACK
6
CONTINUOUS
10
5.60362
20
-3.10009
11
5.60549
21
-3.10103
0
LINE
8
BLACK
6
CONTINUOUS
10
5.60549
20
-3.10103
11
5.60572
21
-3.1013
0
LINE
8
BLACK
6
CONTINUOUS
10
5.60572
20
-3.1013
11
5.60605
21
-3.10143
0
LINE
8
BLACK
6
CONTINUOUS
10
5.60605
20
-3.10143
11
5.60699
21
-3.10237
0
LINE
8
BLACK
6
CONTINUOUS
10
5.60699
20
-3.10237
11
5.60712
21
-3.1027
0
LINE
8
BLACK
6
CONTINUOUS
10
5.60712
20
-3.1027
11
5.60739
21
-3.10293
0
LINE
8
BLACK
6
CONTINUOUS
10
5.60739
20
-3.10293
11
5.60833
21
-3.10481
0
LINE
8
BLACK
6
CONTINUOUS
10
5.60833
20
-3.10481
11
5.60837
21
-3.10531
0
LINE
8
BLACK
6
CONTINUOUS
10
5.60837
20
-3.10531
11
5.60856
21
-3.10577
0
LINE
8
BLACK
6
CONTINUOUS
10
5.60856
20
-3.10577
11
5.60856
21
-3.10952
0
LINE
8
BLACK
6
CONTINUOUS
10
5.60856
20
-3.10952
11
5.60837
21
-3.10998
0
LINE
8
BLACK
6
CONTINUOUS
10
5.60837
20
-3.10998
11
5.60834
21
-3.11034
0
LINE
8
BLACK
6
CONTINUOUS
10
5.60834
20
-3.11034
11
5.61067
21
-3.10879
0
LINE
8
BLACK
6
CONTINUOUS
10
5.61067
20
-3.10879
11
5.61121
21
-3.10825
0
LINE
8
BLACK
6
CONTINUOUS
10
5.61121
20
-3.10825
11
5.61176
21
-3.10714
0
LINE
8
BLACK
6
CONTINUOUS
10
5.61176
20
-3.10714
11
5.61176
21
-3.10389
0
LINE
8
BLACK
6
CONTINUOUS
10
5.61176
20
-3.10389
11
5.61239
21
-3.10237
0
LINE
8
BLACK
6
CONTINUOUS
10
5.61239
20
-3.10237
11
5.61391
21
-3.10174
0
LINE
8
BLACK
6
CONTINUOUS
10
5.61391
20
-3.10174
11
5.61543
21
-3.10237
0
LINE
8
BLACK
6
CONTINUOUS
10
5.61543
20
-3.10237
11
5.61606
21
-3.10389
0
LINE
8
BLACK
6
CONTINUOUS
10
5.61606
20
-3.10389
11
5.61606
21
-3.10765
0
LINE
8
BLACK
6
CONTINUOUS
10
5.61606
20
-3.10765
11
5.61587
21
-3.10811
0
LINE
8
BLACK
6
CONTINUOUS
10
5.61587
20
-3.10811
11
5.61583
21
-3.10861
0
LINE
8
BLACK
6
CONTINUOUS
10
5.61583
20
-3.10861
11
5.6149
21
-3.11048
0
LINE
8
BLACK
6
CONTINUOUS
10
5.6149
20
-3.11048
11
5.61463
21
-3.11071
0
LINE
8
BLACK
6
CONTINUOUS
10
5.61463
20
-3.11071
11
5.61449
21
-3.11104
0
LINE
8
BLACK
6
CONTINUOUS
10
5.61449
20
-3.11104
11
5.61356
21
-3.11198
0
LINE
8
BLACK
6
CONTINUOUS
10
5.61356
20
-3.11198
11
5.61335
21
-3.11206
0
LINE
8
BLACK
6
CONTINUOUS
10
5.61335
20
-3.11206
11
5.61323
21
-3.11225
0
LINE
8
BLACK
6
CONTINUOUS
10
5.61323
20
-3.11225
11
5.61041
21
-3.11412
0
LINE
8
BLACK
6
CONTINUOUS
10
5.61041
20
-3.11412
11
5.61005
21
-3.1142
0
LINE
8
BLACK
6
CONTINUOUS
10
5.61005
20
-3.1142
11
5.60974
21
-3.11442
0
LINE
8
BLACK
6
CONTINUOUS
10
5.60974
20
-3.11442
11
5.60599
21
-3.11536
0
LINE
8
BLACK
6
CONTINUOUS
10
5.60599
20
-3.11536
11
5.60572
21
-3.11532
0
LINE
8
BLACK
6
CONTINUOUS
10
5.60572
20
-3.11532
11
5.60547
21
-3.11542
0
LINE
8
BLACK
6
CONTINUOUS
10
5.60547
20
-3.11542
11
5.59796
21
-3.11542
0
LINE
8
BLACK
6
CONTINUOUS
10
5.59796
20
-3.11542
11
5.5975
21
-3.11523
0
LINE
8
BLACK
6
CONTINUOUS
10
5.5975
20
-3.11523
11
5.597
21
-3.1152
0
LINE
8
BLACK
6
CONTINUOUS
10
5.597
20
-3.1152
11
5.59513
21
-3.11426
0
LINE
8
BLACK
6
CONTINUOUS
10
5.59513
20
-3.11426
11
5.59489
21
-3.11399
0
LINE
8
BLACK
6
CONTINUOUS
10
5.59489
20
-3.11399
11
5.59457
21
-3.11386
0
LINE
8
BLACK
6
CONTINUOUS
10
5.59457
20
-3.11386
11
5.59363
21
-3.11292
0
LINE
8
BLACK
6
CONTINUOUS
10
5.59363
20
-3.11292
11
5.59349
21
-3.11259
0
LINE
8
BLACK
6
CONTINUOUS
10
5.59349
20
-3.11259
11
5.59323
21
-3.11236
0
LINE
8
BLACK
6
CONTINUOUS
10
5.59323
20
-3.11236
11
5.59264
21
-3.11118
0
LINE
8
BLACK
6
CONTINUOUS
10
5.59264
20
-3.11118
11
5.59148
21
-3.11256
0
LINE
8
BLACK
6
CONTINUOUS
10
5.59148
20
-3.11256
11
5.58949
21
-3.11291
0
LINE
8
BLACK
6
CONTINUOUS
10
5.58949
20
-3.11291
11
5.58774
21
-3.1119
0
LINE
8
BLACK
6
CONTINUOUS
10
5.58774
20
-3.1119
11
5.58705
21
-3.11
0
LINE
8
BLACK
6
CONTINUOUS
10
5.58705
20
-3.11
11
5.58705
21
-3.07
0
LINE
8
BLACK
6
CONTINUOUS
10
5.58705
20
-3.07
11
5.58711
21
-3.06962
0
LINE
8
BLACK
6
CONTINUOUS
10
5.58711
20
-3.06962
11
5.58709
21
-3.06949
0
LINE
8
BLACK
6
CONTINUOUS
10
5.58709
20
-3.06949
11
5.58716
21
-3.06937
0
LINE
8
BLACK
6
CONTINUOUS
10
5.58716
20
-3.06937
11
5.58723
21
-3.06899
0
LINE
8
BLACK
6
CONTINUOUS
10
5.58723
20
-3.06899
11
5.58772
21
-3.0684
0
LINE
8
BLACK
6
CONTINUOUS
10
5.58772
20
-3.0684
11
5.5881
21
-3.06774
0
LINE
8
BLACK
6
CONTINUOUS
10
5.5881
20
-3.06774
11
5.58835
21
-3.06765
0
LINE
8
BLACK
6
CONTINUOUS
10
5.58835
20
-3.06765
11
5.58852
21
-3.06744
0
LINE
8
BLACK
6
CONTINUOUS
10
5.58852
20
-3.06744
11
5.58928
21
-3.06731
0
LINE
8
BLACK
6
CONTINUOUS
10
5.58928
20
-3.06731
11
5.59
21
-3.06705
0
LINE
8
BLACK
6
CONTINUOUS
10
5.59
20
-3.06705
11
5.65
21
-3.06705
0
LINE
8
BLACK
6
CONTINUOUS
10
5.65
20
-3.06705
11
5.65038
21
-3.06711
0
LINE
8
BLACK
6
CONTINUOUS
10
5.59847
20
-3.10417
11
5.59736
21
-3.10472
0
LINE
8
BLACK
6
CONTINUOUS
10
5.59736
20
-3.10472
11
5.59692
21
-3.10517
0
LINE
8
BLACK
6
CONTINUOUS
10
5.59692
20
-3.10517
11
5.59636
21
-3.10628
0
LINE
8
BLACK
6
CONTINUOUS
10
5.59636
20
-3.10628
11
5.59636
21
-3.10901
0
LINE
8
BLACK
6
CONTINUOUS
10
5.59636
20
-3.10901
11
5.59692
21
-3.11012
0
LINE
8
BLACK
6
CONTINUOUS
10
5.59692
20
-3.11012
11
5.59736
21
-3.11057
0
LINE
8
BLACK
6
CONTINUOUS
10
5.59736
20
-3.11057
11
5.59847
21
-3.11112
0
LINE
8
BLACK
6
CONTINUOUS
10
5.59847
20
-3.11112
11
5.60215
21
-3.11112
0
LINE
8
BLACK
6
CONTINUOUS
10
5.60215
20
-3.11112
11
5.60326
21
-3.11057
0
LINE
8
BLACK
6
CONTINUOUS
10
5.60326
20
-3.11057
11
5.6037
21
-3.11012
0
LINE
8
BLACK
6
CONTINUOUS
10
5.6037
20
-3.11012
11
5.60426
21
-3.10901
0
LINE
8
BLACK
6
CONTINUOUS
10
5.60426
20
-3.10901
11
5.60426
21
-3.10628
0
LINE
8
BLACK
6
CONTINUOUS
10
5.60426
20
-3.10628
11
5.6037
21
-3.10517
0
LINE
8
BLACK
6
CONTINUOUS
10
5.6037
20
-3.10517
11
5.60326
21
-3.10472
0
LINE
8
BLACK
6
CONTINUOUS
10
5.60326
20
-3.10472
11
5.60215
21
-3.10417
0
LINE
8
BLACK
6
CONTINUOUS
10
5.60215
20
-3.10417
11
5.59847
21
-3.10417
0
LINE
8
BLACK
6
CONTINUOUS
10
5.74606
20
-3.08519
11
5.74669
21
-3.08671
0
LINE
8
BLACK
6
CONTINUOUS
10
5.74669
20
-3.08671
11
5.74669
21
-3.10641
0
LINE
8
BLACK
6
CONTINUOUS
10
5.74669
20
-3.10641
11
5.74606
21
-3.10793
0
LINE
8
BLACK
6
CONTINUOUS
10
5.74606
20
-3.10793
11
5.74454
21
-3.10856
0
LINE
8
BLACK
6
CONTINUOUS
10
5.74454
20
-3.10856
11
5.74302
21
-3.10793
0
LINE
8
BLACK
6
CONTINUOUS
10
5.74302
20
-3.10793
11
5.74239
21
-3.10641
0
LINE
8
BLACK
6
CONTINUOUS
10
5.74239
20
-3.10641
11
5.74239
21
-3.09918
0
LINE
8
BLACK
6
CONTINUOUS
10
5.74239
20
-3.09918
11
5.74097
21
-3.09918
0
LINE
8
BLACK
6
CONTINUOUS
10
5.74097
20
-3.09918
11
5.73504
21
-3.10764
0
LINE
8
BLACK
6
CONTINUOUS
10
5.73504
20
-3.10764
11
5.73366
21
-3.10853
0
LINE
8
BLACK
6
CONTINUOUS
10
5.73366
20
-3.10853
11
5.73205
21
-3.10817
0
LINE
8
BLACK
6
CONTINUOUS
10
5.73205
20
-3.10817
11
5.73117
21
-3.10679
0
LINE
8
BLACK
6
CONTINUOUS
10
5.73117
20
-3.10679
11
5.73152
21
-3.10518
0
LINE
8
BLACK
6
CONTINUOUS
10
5.73152
20
-3.10518
11
5.73593
21
-3.09888
0
LINE
8
BLACK
6
CONTINUOUS
10
5.73593
20
-3.09888
11
5.7342
21
-3.09802
0
LINE
8
BLACK
6
CONTINUOUS
10
5.7342
20
-3.09802
11
5.73397
21
-3.09775
0
LINE
8
BLACK
6
CONTINUOUS
10
5.73397
20
-3.09775
11
5.73364
21
-3.09761
0
LINE
8
BLACK
6
CONTINUOUS
10
5.73364
20
-3.09761
11
5.7327
21
-3.09667
0
LINE
8
BLACK
6
CONTINUOUS
10
5.7327
20
-3.09667
11
5.73257
21
-3.09635
0
LINE
8
BLACK
6
CONTINUOUS
10
5.73257
20
-3.09635
11
5.7323
21
-3.09612
0
LINE
8
BLACK
6
CONTINUOUS
10
5.7323
20
-3.09612
11
5.73136
21
-3.09424
0
LINE
8
BLACK
6
CONTINUOUS
10
5.73136
20
-3.09424
11
5.73132
21
-3.09374
0
LINE
8
BLACK
6
CONTINUOUS
10
5.73132
20
-3.09374
11
5.73113
21
-3.09328
0
LINE
8
BLACK
6
CONTINUOUS
10
5.73113
20
-3.09328
11
5.73113
21
-3.09046
0
LINE
8
BLACK
6
CONTINUOUS
10
5.73113
20
-3.09046
11
5.73132
21
-3.09
0
LINE
8
BLACK
6
CONTINUOUS
10
5.73132
20
-3.09
11
5.73136
21
-3.0895
0
LINE
8
BLACK
6
CONTINUOUS
10
5.73136
20
-3.0895
11
5.7323
21
-3.08763
0
LINE
8
BLACK
6
CONTINUOUS
10
5.7323
20
-3.08763
11
5.73257
21
-3.08739
0
LINE
8
BLACK
6
CONTINUOUS
10
5.73257
20
-3.08739
11
5.7327
21
-3.08707
0
LINE
8
BLACK
6
CONTINUOUS
10
5.7327
20
-3.08707
11
5.73364
21
-3.08613
0
LINE
8
BLACK
6
CONTINUOUS
10
5.73364
20
-3.08613
11
5.73397
21
-3.08599
0
LINE
8
BLACK
6
CONTINUOUS
10
5.73397
20
-3.08599
11
5.7342
21
-3.08573
0
LINE
8
BLACK
6
CONTINUOUS
10
5.7342
20
-3.08573
11
5.73607
21
-3.08479
0
LINE
8
BLACK
6
CONTINUOUS
10
5.73607
20
-3.08479
11
5.73657
21
-3.08475
0
LINE
8
BLACK
6
CONTINUOUS
10
5.73657
20
-3.08475
11
5.73704
21
-3.08456
0
LINE
8
BLACK
6
CONTINUOUS
10
5.73704
20
-3.08456
11
5.74454
21
-3.08456
0
LINE
8
BLACK
6
CONTINUOUS
10
5.74454
20
-3.08456
11
5.74606
21
-3.08519
0
LINE
8
BLACK
6
CONTINUOUS
10
5.73754
20
-3.08886
11
5.73643
21
-3.08942
0
LINE
8
BLACK
6
CONTINUOUS
10
5.73643
20
-3.08942
11
5.73599
21
-3.08986
0
LINE
8
BLACK
6
CONTINUOUS
10
5.73599
20
-3.08986
11
5.73543
21
-3.09097
0
LINE
8
BLACK
6
CONTINUOUS
10
5.73543
20
-3.09097
11
5.73543
21
-3.09277
0
LINE
8
BLACK
6
CONTINUOUS
10
5.73543
20
-3.09277
11
5.73599
21
-3.09388
0
LINE
8
BLACK
6
CONTINUOUS
10
5.73599
20
-3.09388
11
5.73643
21
-3.09433
0
LINE
8
BLACK
6
CONTINUOUS
10
5.73643
20
-3.09433
11
5.73754
21
-3.09488
0
LINE
8
BLACK
6
CONTINUOUS
10
5.73754
20
-3.09488
11
5.74239
21
-3.09488
0
LINE
8
BLACK
6
CONTINUOUS
10
5.74239
20
-3.09488
11
5.74239
21
-3.08886
0
LINE
8
BLACK
6
CONTINUOUS
10
5.74239
20
-3.08886
11
5.73754
21
-3.08886
0
LINE
8
BLACK
6
CONTINUOUS
10
5.713
20
-3.10793
11
5.71237
21
-3.10641
0
LINE
8
BLACK
6
CONTINUOUS
10
5.71237
20
-3.10641
11
5.713
21
-3.10489
0
LINE
8
BLACK
6
CONTINUOUS
10
5.713
20
-3.10489
11
5.71452
21
-3.10426
0
LINE
8
BLACK
6
CONTINUOUS
10
5.71452
20
-3.10426
11
5.72153
21
-3.10426
0
LINE
8
BLACK
6
CONTINUOUS
10
5.72153
20
-3.10426
11
5.71394
21
-3.09667
0
LINE
8
BLACK
6
CONTINUOUS
10
5.71394
20
-3.09667
11
5.71375
21
-3.09621
0
LINE
8
BLACK
6
CONTINUOUS
10
5.71375
20
-3.09621
11
5.71342
21
-3.09583
0
LINE
8
BLACK
6
CONTINUOUS
10
5.71342
20
-3.09583
11
5.71248
21
-3.09302
0
LINE
8
BLACK
6
CONTINUOUS
10
5.71248
20
-3.09302
11
5.71251
21
-3.09267
0
LINE
8
BLACK
6
CONTINUOUS
10
5.71251
20
-3.09267
11
5.71237
21
-3.09234
0
LINE
8
BLACK
6
CONTINUOUS
10
5.71237
20
-3.09234
11
5.71237
21
-3.09046
0
LINE
8
BLACK
6
CONTINUOUS
10
5.71237
20
-3.09046
11
5.71256
21
-3.09
0
LINE
8
BLACK
6
CONTINUOUS
10
5.71256
20
-3.09
11
5.7126
21
-3.0895
0
LINE
8
BLACK
6
CONTINUOUS
10
5.7126
20
-3.0895
11
5.71354
21
-3.08763
0
LINE
8
BLACK
6
CONTINUOUS
10
5.71354
20
-3.08763
11
5.7138
21
-3.08739
0
LINE
8
BLACK
6
CONTINUOUS
10
5.7138
20
-3.08739
11
5.71394
21
-3.08707
0
LINE
8
BLACK
6
CONTINUOUS
10
5.71394
20
-3.08707
11
5.71488
21
-3.08613
0
LINE
8
BLACK
6
CONTINUOUS
10
5.71488
20
-3.08613
11
5.7152
21
-3.08599
0
LINE
8
BLACK
6
CONTINUOUS
10
5.7152
20
-3.08599
11
5.71544
21
-3.08573
0
LINE
8
BLACK
6
CONTINUOUS
10
5.71544
20
-3.08573
11
5.71731
21
-3.08479
0
LINE
8
BLACK
6
CONTINUOUS
10
5.71731
20
-3.08479
11
5.71781
21
-3.08475
0
LINE
8
BLACK
6
CONTINUOUS
10
5.71781
20
-3.08475
11
5.71827
21
-3.08456
0
LINE
8
BLACK
6
CONTINUOUS
10
5.71827
20
-3.08456
11
5.72296
21
-3.08456
0
LINE
8
BLACK
6
CONTINUOUS
10
5.72296
20
-3.08456
11
5.72343
21
-3.08475
0
LINE
8
BLACK
6
CONTINUOUS
10
5.72343
20
-3.08475
11
5.72393
21
-3.08479
0
LINE
8
BLACK
6
CONTINUOUS
10
5.72393
20
-3.08479
11
5.7258
21
-3.08573
0
LINE
8
BLACK
6
CONTINUOUS
10
5.7258
20
-3.08573
11
5.72603
21
-3.08599
0
LINE
8
BLACK
6
CONTINUOUS
10
5.72603
20
-3.08599
11
5.72636
21
-3.08613
0
LINE
8
BLACK
6
CONTINUOUS
10
5.72636
20
-3.08613
11
5.7273
21
-3.08707
0
LINE
8
BLACK
6
CONTINUOUS
10
5.7273
20
-3.08707
11
5.72793
21
-3.08859
0
LINE
8
BLACK
6
CONTINUOUS
10
5.72793
20
-3.08859
11
5.7273
21
-3.09011
0
LINE
8
BLACK
6
CONTINUOUS
10
5.7273
20
-3.09011
11
5.72578
21
-3.09074
0
LINE
8
BLACK
6
CONTINUOUS
10
5.72578
20
-3.09074
11
5.72426
21
-3.09011
0
LINE
8
BLACK
6
CONTINUOUS
10
5.72426
20
-3.09011
11
5.72357
21
-3.08942
0
LINE
8
BLACK
6
CONTINUOUS
10
5.72357
20
-3.08942
11
5.72246
21
-3.08886
0
LINE
8
BLACK
6
CONTINUOUS
10
5.72246
20
-3.08886
11
5.71878
21
-3.08886
0
LINE
8
BLACK
6
CONTINUOUS
10
5.71878
20
-3.08886
11
5.71767
21
-3.08942
0
LINE
8
BLACK
6
CONTINUOUS
10
5.71767
20
-3.08942
11
5.71723
21
-3.08986
0
LINE
8
BLACK
6
CONTINUOUS
10
5.71723
20
-3.08986
11
5.71667
21
-3.09097
0
LINE
8
BLACK
6
CONTINUOUS
10
5.71667
20
-3.09097
11
5.71667
21
-3.09199
0
LINE
8
BLACK
6
CONTINUOUS
10
5.71667
20
-3.09199
11
5.71734
21
-3.09399
0
LINE
8
BLACK
6
CONTINUOUS
10
5.71734
20
-3.09399
11
5.72824
21
-3.10489
0
LINE
8
BLACK
6
CONTINUOUS
10
5.72824
20
-3.10489
11
5.72887
21
-3.10641
0
LINE
8
BLACK
6
CONTINUOUS
10
5.72887
20
-3.10641
11
5.72824
21
-3.10793
0
LINE
8
BLACK
6
CONTINUOUS
10
5.72824
20
-3.10793
11
5.72672
21
-3.10856
0
LINE
8
BLACK
6
CONTINUOUS
10
5.72672
20
-3.10856
11
5.71452
21
-3.10856
0
LINE
8
BLACK
6
CONTINUOUS
10
5.71452
20
-3.10856
11
5.713
21
-3.10793
0
LINE
8
BLACK
6
CONTINUOUS
10
5.88437
20
-3.08225
11
5.88487
21
-3.08229
0
LINE
8
BLACK
6
CONTINUOUS
10
5.88487
20
-3.08229
11
5.88675
21
-3.08323
0
LINE
8
BLACK
6
CONTINUOUS
10
5.88675
20
-3.08323
11
5.88698
21
-3.08349
0
LINE
8
BLACK
6
CONTINUOUS
10
5.88698
20
-3.08349
11
5.88731
21
-3.08363
0
LINE
8
BLACK
6
CONTINUOUS
10
5.88731
20
-3.08363
11
5.88825
21
-3.08457
0
LINE
8
BLACK
6
CONTINUOUS
10
5.88825
20
-3.08457
11
5.88838
21
-3.08489
0
LINE
8
BLACK
6
CONTINUOUS
10
5.88838
20
-3.08489
11
5.88865
21
-3.08513
0
LINE
8
BLACK
6
CONTINUOUS
10
5.88865
20
-3.08513
11
5.88959
21
-3.087
0
LINE
8
BLACK
6
CONTINUOUS
10
5.88959
20
-3.087
11
5.8896
21
-3.08725
0
LINE
8
BLACK
6
CONTINUOUS
10
5.8896
20
-3.08725
11
5.88975
21
-3.08744
0
LINE
8
BLACK
6
CONTINUOUS
10
5.88975
20
-3.08744
11
5.89069
21
-3.0912
0
LINE
8
BLACK
6
CONTINUOUS
10
5.89069
20
-3.0912
11
5.89065
21
-3.09146
0
LINE
8
BLACK
6
CONTINUOUS
10
5.89065
20
-3.09146
11
5.89075
21
-3.09172
0
LINE
8
BLACK
6
CONTINUOUS
10
5.89075
20
-3.09172
11
5.89075
21
-3.09641
0
LINE
8
BLACK
6
CONTINUOUS
10
5.89075
20
-3.09641
11
5.89065
21
-3.09666
0
LINE
8
BLACK
6
CONTINUOUS
10
5.89065
20
-3.09666
11
5.89069
21
-3.09693
0
LINE
8
BLACK
6
CONTINUOUS
10
5.89069
20
-3.09693
11
5.88975
21
-3.10068
0
LINE
8
BLACK
6
CONTINUOUS
10
5.88975
20
-3.10068
11
5.8896
21
-3.10088
0
LINE
8
BLACK
6
CONTINUOUS
10
5.8896
20
-3.10088
11
5.88959
21
-3.10112
0
LINE
8
BLACK
6
CONTINUOUS
10
5.88959
20
-3.10112
11
5.88865
21
-3.103
0
LINE
8
BLACK
6
CONTINUOUS
10
5.88865
20
-3.103
11
5.88838
21
-3.10323
0
LINE
8
BLACK
6
CONTINUOUS
10
5.88838
20
-3.10323
11
5.88825
21
-3.10356
0
LINE
8
BLACK
6
CONTINUOUS
10
5.88825
20
-3.10356
11
5.88731
21
-3.10449
0
LINE
8
BLACK
6
CONTINUOUS
10
5.88731
20
-3.10449
11
5.88698
21
-3.10463
0
LINE
8
BLACK
6
CONTINUOUS
10
5.88698
20
-3.10463
11
5.88675
21
-3.1049
0
LINE
8
BLACK
6
CONTINUOUS
10
5.88675
20
-3.1049
11
5.88487
21
-3.10583
0
LINE
8
BLACK
6
CONTINUOUS
10
5.88487
20
-3.10583
11
5.88437
21
-3.10587
0
LINE
8
BLACK
6
CONTINUOUS
10
5.88437
20
-3.10587
11
5.88391
21
-3.10606
0
LINE
8
BLACK
6
CONTINUOUS
10
5.88391
20
-3.10606
11
5.88204
21
-3.10606
0
LINE
8
BLACK
6
CONTINUOUS
10
5.88204
20
-3.10606
11
5.88157
21
-3.10587
0
LINE
8
BLACK
6
CONTINUOUS
10
5.88157
20
-3.10587
11
5.88107
21
-3.10583
0
LINE
8
BLACK
6
CONTINUOUS
10
5.88107
20
-3.10583
11
5.8792
21
-3.1049
0
LINE
8
BLACK
6
CONTINUOUS
10
5.8792
20
-3.1049
11
5.87897
21
-3.10463
0
LINE
8
BLACK
6
CONTINUOUS
10
5.87897
20
-3.10463
11
5.87864
21
-3.10449
0
LINE
8
BLACK
6
CONTINUOUS
10
5.87864
20
-3.10449
11
5.8777
21
-3.10356
0
LINE
8
BLACK
6
CONTINUOUS
10
5.8777
20
-3.10356
11
5.87757
21
-3.10323
0
LINE
8
BLACK
6
CONTINUOUS
10
5.87757
20
-3.10323
11
5.8773
21
-3.103
0
LINE
8
BLACK
6
CONTINUOUS
10
5.8773
20
-3.103
11
5.87636
21
-3.10112
0
LINE
8
BLACK
6
CONTINUOUS
10
5.87636
20
-3.10112
11
5.87634
21
-3.10088
0
LINE
8
BLACK
6
CONTINUOUS
10
5.87634
20
-3.10088
11
5.8762
21
-3.10068
0
LINE
8
BLACK
6
CONTINUOUS
10
5.8762
20
-3.10068
11
5.87526
21
-3.09693
0
LINE
8
BLACK
6
CONTINUOUS
10
5.87526
20
-3.09693
11
5.8753
21
-3.09666
0
LINE
8
BLACK
6
CONTINUOUS
10
5.8753
20
-3.09666
11
5.8752
21
-3.09641
0
LINE
8
BLACK
6
CONTINUOUS
10
5.8752
20
-3.09641
11
5.8752
21
-3.09172
0
LINE
8
BLACK
6
CONTINUOUS
10
5.8752
20
-3.09172
11
5.8753
21
-3.09146
0
LINE
8
BLACK
6
CONTINUOUS
10
5.8753
20
-3.09146
11
5.87526
21
-3.0912
0
LINE
8
BLACK
6
CONTINUOUS
10
5.87526
20
-3.0912
11
5.8762
21
-3.08744
0
LINE
8
BLACK
6
CONTINUOUS
10
5.8762
20
-3.08744
11
5.87634
21
-3.08725
0
LINE
8
BLACK
6
CONTINUOUS
10
5.87634
20
-3.08725
11
5.87636
21
-3.087
0
LINE
8
BLACK
6
CONTINUOUS
10
5.87636
20
-3.087
11
5.8773
21
-3.08513
0
LINE
8
BLACK
6
CONTINUOUS
10
5.8773
20
-3.08513
11
5.87757
21
-3.08489
0
LINE
8
BLACK
6
CONTINUOUS
10
5.87757
20
-3.08489
11
5.8777
21
-3.08457
0
LINE
8
BLACK
6
CONTINUOUS
10
5.8777
20
-3.08457
11
5.87864
21
-3.08363
0
LINE
8
BLACK
6
CONTINUOUS
10
5.87864
20
-3.08363
11
5.87897
21
-3.08349
0
LINE
8
BLACK
6
CONTINUOUS
10
5.87897
20
-3.08349
11
5.8792
21
-3.08323
0
LINE
8
BLACK
6
CONTINUOUS
10
5.8792
20
-3.08323
11
5.88107
21
-3.08229
0
LINE
8
BLACK
6
CONTINUOUS
10
5.88107
20
-3.08229
11
5.88157
21
-3.08225
0
LINE
8
BLACK
6
CONTINUOUS
10
5.88157
20
-3.08225
11
5.88204
21
-3.08206
0
LINE
8
BLACK
6
CONTINUOUS
10
5.88204
20
-3.08206
11
5.88391
21
-3.08206
0
LINE
8
BLACK
6
CONTINUOUS
10
5.88391
20
-3.08206
11
5.88437
21
-3.08225
0
LINE
8
BLACK
6
CONTINUOUS
10
5.88254
20
-3.08636
11
5.88143
21
-3.08692
0
LINE
8
BLACK
6
CONTINUOUS
10
5.88143
20
-3.08692
11
5.88099
21
-3.08736
0
LINE
8
BLACK
6
CONTINUOUS
10
5.88099
20
-3.08736
11
5.88031
21
-3.08871
0
LINE
8
BLACK
6
CONTINUOUS
10
5.88031
20
-3.08871
11
5.8795
21
-3.09198
0
LINE
8
BLACK
6
CONTINUOUS
10
5.8795
20
-3.09198
11
5.8795
21
-3.09614
0
LINE
8
BLACK
6
CONTINUOUS
10
5.8795
20
-3.09614
11
5.88031
21
-3.09941
0
LINE
8
BLACK
6
CONTINUOUS
10
5.88031
20
-3.09941
11
5.88099
21
-3.10076
0
LINE
8
BLACK
6
CONTINUOUS
10
5.88099
20
-3.10076
11
5.88143
21
-3.10121
0
LINE
8
BLACK
6
CONTINUOUS
10
5.88143
20
-3.10121
11
5.88254
21
-3.10176
0
LINE
8
BLACK
6
CONTINUOUS
10
5.88254
20
-3.10176
11
5.8834
21
-3.10176
0
LINE
8
BLACK
6
CONTINUOUS
10
5.8834
20
-3.10176
11
5.88451
21
-3.10121
0
LINE
8
BLACK
6
CONTINUOUS
10
5.88451
20
-3.10121
11
5.88496
21
-3.10076
0
LINE
8
BLACK
6
CONTINUOUS
10
5.88496
20
-3.10076
11
5.88564
21
-3.09941
0
LINE
8
BLACK
6
CONTINUOUS
10
5.88564
20
-3.09941
11
5.88645
21
-3.09614
0
LINE
8
BLACK
6
CONTINUOUS
10
5.88645
20
-3.09614
11
5.88645
21
-3.09198
0
LINE
8
BLACK
6
CONTINUOUS
10
5.88645
20
-3.09198
11
5.88564
21
-3.08871
0
LINE
8
BLACK
6
CONTINUOUS
10
5.88564
20
-3.08871
11
5.88496
21
-3.08736
0
LINE
8
BLACK
6
CONTINUOUS
10
5.88496
20
-3.08736
11
5.88451
21
-3.08692
0
LINE
8
BLACK
6
CONTINUOUS
10
5.88451
20
-3.08692
11
5.8834
21
-3.08636
0
LINE
8
BLACK
6
CONTINUOUS
10
5.8834
20
-3.08636
11
5.88254
21
-3.08636
0
LINE
8
BLACK
6
CONTINUOUS
10
5.86467
20
-3.08225
11
5.86517
21
-3.08229
0
LINE
8
BLACK
6
CONTINUOUS
10
5.86517
20
-3.08229
11
5.86705
21
-3.08323
0
LINE
8
BLACK
6
CONTINUOUS
10
5.86705
20
-3.08323
11
5.86728
21
-3.08349
0
LINE
8
BLACK
6
CONTINUOUS
10
5.86728
20
-3.08349
11
5.86761
21
-3.08363
0
LINE
8
BLACK
6
CONTINUOUS
10
5.86761
20
-3.08363
11
5.86855
21
-3.08457
0
LINE
8
BLACK
6
CONTINUOUS
10
5.86855
20
-3.08457
11
5.86863
21
-3.08477
0
LINE
8
BLACK
6
CONTINUOUS
10
5.86863
20
-3.08477
11
5.86882
21
-3.0849
0
LINE
8
BLACK
6
CONTINUOUS
10
5.86882
20
-3.0849
11
5.87069
21
-3.08771
0
LINE
8
BLACK
6
CONTINUOUS
10
5.87069
20
-3.08771
11
5.87076
21
-3.08808
0
LINE
8
BLACK
6
CONTINUOUS
10
5.87076
20
-3.08808
11
5.87099
21
-3.08838
0
LINE
8
BLACK
6
CONTINUOUS
10
5.87099
20
-3.08838
11
5.87193
21
-3.09213
0
LINE
8
BLACK
6
CONTINUOUS
10
5.87193
20
-3.09213
11
5.87189
21
-3.0924
0
LINE
8
BLACK
6
CONTINUOUS
10
5.87189
20
-3.0924
11
5.87199
21
-3.09265
0
LINE
8
BLACK
6
CONTINUOUS
10
5.87199
20
-3.09265
11
5.87199
21
-3.10016
0
LINE
8
BLACK
6
CONTINUOUS
10
5.87199
20
-3.10016
11
5.8718
21
-3.10062
0
LINE
8
BLACK
6
CONTINUOUS
10
5.8718
20
-3.10062
11
5.87176
21
-3.10112
0
LINE
8
BLACK
6
CONTINUOUS
10
5.87176
20
-3.10112
11
5.87083
21
-3.103
0
LINE
8
BLACK
6
CONTINUOUS
10
5.87083
20
-3.103
11
5.87056
21
-3.10323
0
LINE
8
BLACK
6
CONTINUOUS
10
5.87056
20
-3.10323
11
5.87042
21
-3.10356
0
LINE
8
BLACK
6
CONTINUOUS
10
5.87042
20
-3.10356
11
5.86948
21
-3.10449
0
LINE
8
BLACK
6
CONTINUOUS
10
5.86948
20
-3.10449
11
5.86916
21
-3.10463
0
LINE
8
BLACK
6
CONTINUOUS
10
5.86916
20
-3.10463
11
5.86893
21
-3.1049
0
LINE
8
BLACK
6
CONTINUOUS
10
5.86893
20
-3.1049
11
5.86705
21
-3.10583
0
LINE
8
BLACK
6
CONTINUOUS
10
5.86705
20
-3.10583
11
5.86655
21
-3.10587
0
LINE
8
BLACK
6
CONTINUOUS
10
5.86655
20
-3.10587
11
5.86609
21
-3.10606
0
LINE
8
BLACK
6
CONTINUOUS
10
5.86609
20
-3.10606
11
5.86234
21
-3.10606
0
LINE
8
BLACK
6
CONTINUOUS
10
5.86234
20
-3.10606
11
5.86187
21
-3.10587
0
LINE
8
BLACK
6
CONTINUOUS
10
5.86187
20
-3.10587
11
5.86137
21
-3.10583
0
LINE
8
BLACK
6
CONTINUOUS
10
5.86137
20
-3.10583
11
5.8595
21
-3.1049
0
LINE
8
BLACK
6
CONTINUOUS
10
5.8595
20
-3.1049
11
5.85927
21
-3.10463
0
LINE
8
BLACK
6
CONTINUOUS
10
5.85927
20
-3.10463
11
5.85894
21
-3.10449
0
LINE
8
BLACK
6
CONTINUOUS
10
5.85894
20
-3.10449
11
5.858
21
-3.10356
0
LINE
8
BLACK
6
CONTINUOUS
10
5.858
20
-3.10356
11
5.85787
21
-3.10323
0
LINE
8
BLACK
6
CONTINUOUS
10
5.85787
20
-3.10323
11
5.8576
21
-3.103
0
LINE
8
BLACK
6
CONTINUOUS
10
5.8576
20
-3.103
11
5.85666
21
-3.10112
0
LINE
8
BLACK
6
CONTINUOUS
10
5.85666
20
-3.10112
11
5.85662
21
-3.10062
0
LINE
8
BLACK
6
CONTINUOUS
10
5.85662
20
-3.10062
11
5.85643
21
-3.10016
0
LINE
8
BLACK
6
CONTINUOUS
10
5.85643
20
-3.10016
11
5.85643
21
-3.09547
0
LINE
8
BLACK
6
CONTINUOUS
10
5.85643
20
-3.09547
11
5.85662
21
-3.09501
0
LINE
8
BLACK
6
CONTINUOUS
10
5.85662
20
-3.09501
11
5.85666
21
-3.09451
0
LINE
8
BLACK
6
CONTINUOUS
10
5.85666
20
-3.09451
11
5.8576
21
-3.09263
0
LINE
8
BLACK
6
CONTINUOUS
10
5.8576
20
-3.09263
11
5.85787
21
-3.0924
0
LINE
8
BLACK
6
CONTINUOUS
10
5.85787
20
-3.0924
11
5.858
21
-3.09207
0
LINE
8
BLACK
6
CONTINUOUS
10
5.858
20
-3.09207
11
5.85894
21
-3.09113
0
LINE
8
BLACK
6
CONTINUOUS
10
5.85894
20
-3.09113
11
5.85927
21
-3.091
0
LINE
8
BLACK
6
CONTINUOUS
10
5.85927
20
-3.091
11
5.8595
21
-3.09073
0
LINE
8
BLACK
6
CONTINUOUS
10
5.8595
20
-3.09073
11
5.86137
21
-3.08979
0
LINE
8
BLACK
6
CONTINUOUS
10
5.86137
20
-3.08979
11
5.86187
21
-3.08976
0
LINE
8
BLACK
6
CONTINUOUS
10
5.86187
20
-3.08976
11
5.86234
21
-3.08957
0
LINE
8
BLACK
6
CONTINUOUS
10
5.86234
20
-3.08957
11
5.86609
21
-3.08957
0
LINE
8
BLACK
6
CONTINUOUS
10
5.86609
20
-3.08957
11
5.86655
21
-3.08976
0
LINE
8
BLACK
6
CONTINUOUS
10
5.86655
20
-3.08976
11
5.86691
21
-3.08978
0
LINE
8
BLACK
6
CONTINUOUS
10
5.86691
20
-3.08978
11
5.86536
21
-3.08746
0
LINE
8
BLACK
6
CONTINUOUS
10
5.86536
20
-3.08746
11
5.86481
21
-3.08692
0
LINE
8
BLACK
6
CONTINUOUS
10
5.86481
20
-3.08692
11
5.8637
21
-3.08636
0
LINE
8
BLACK
6
CONTINUOUS
10
5.8637
20
-3.08636
11
5.86046
21
-3.08636
0
LINE
8
BLACK
6
CONTINUOUS
10
5.86046
20
-3.08636
11
5.85894
21
-3.08573
0
LINE
8
BLACK
6
CONTINUOUS
10
5.85894
20
-3.08573
11
5.85831
21
-3.08421
0
LINE
8
BLACK
6
CONTINUOUS
10
5.85831
20
-3.08421
11
5.85894
21
-3.08269
0
LINE
8
BLACK
6
CONTINUOUS
10
5.85894
20
-3.08269
11
5.86046
21
-3.08206
0
LINE
8
BLACK
6
CONTINUOUS
10
5.86046
20
-3.08206
11
5.86421
21
-3.08206
0
LINE
8
BLACK
6
CONTINUOUS
10
5.86421
20
-3.08206
11
5.86467
21
-3.08225
0
LINE
8
BLACK
6
CONTINUOUS
10
5.86284
20
-3.09387
11
5.86173
21
-3.09442
0
LINE
8
BLACK
6
CONTINUOUS
10
5.86173
20
-3.09442
11
5.86129
21
-3.09487
0
LINE
8
BLACK
6
CONTINUOUS
10
5.86129
20
-3.09487
11
5.86073
21
-3.09598
0
LINE
8
BLACK
6
CONTINUOUS
10
5.86073
20
-3.09598
11
5.86073
21
-3.09965
0
LINE
8
BLACK
6
CONTINUOUS
10
5.86073
20
-3.09965
11
5.86129
21
-3.10076
0
LINE
8
BLACK
6
CONTINUOUS
10
5.86129
20
-3.10076
11
5.86173
21
-3.10121
0
LINE
8
BLACK
6
CONTINUOUS
10
5.86173
20
-3.10121
11
5.86284
21
-3.10176
0
LINE
8
BLACK
6
CONTINUOUS
10
5.86284
20
-3.10176
11
5.86558
21
-3.10176
0
LINE
8
BLACK
6
CONTINUOUS
10
5.86558
20
-3.10176
11
5.86669
21
-3.10121
0
LINE
8
BLACK
6
CONTINUOUS
10
5.86669
20
-3.10121
11
5.86714
21
-3.10076
0
LINE
8
BLACK
6
CONTINUOUS
10
5.86714
20
-3.10076
11
5.86769
21
-3.09965
0
LINE
8
BLACK
6
CONTINUOUS
10
5.86769
20
-3.09965
11
5.86769
21
-3.09598
0
LINE
8
BLACK
6
CONTINUOUS
10
5.86769
20
-3.09598
11
5.86714
21
-3.09487
0
LINE
8
BLACK
6
CONTINUOUS
10
5.86714
20
-3.09487
11
5.86669
21
-3.09442
0
LINE
8
BLACK
6
CONTINUOUS
10
5.86669
20
-3.09442
11
5.86558
21
-3.09387
0
LINE
8
BLACK
6
CONTINUOUS
10
5.86558
20
-3.09387
11
5.86284
21
-3.09387
  0
ENDSEC
  0
EOF
