  0
SECTION
  2
HEADER
  9
$ANGBASE
  50
0.0
  9
$ANGDIR
  70
1
  9
$MEASUREMENT
  70
0
  0
ENDSEC
  0
SECTION
  2
TABLES
  0
TABLE
  2
LTYPE
  70
4
  0
LTYPE
  5
40F
  2
CONTINUOUS
  70
0
  3
Solid line
  72
65
  73
0
  40
0.0
  0
LTYPE
  5
410
  2
DASHDOT
 70
0
  3
Dash Dot ____ _ ____ _
 72
65
 73
4
 40
2.0
 49
1.25
 49
-0.25
 49
0.25
 49
-0.25
  0
LTYPE
  5
411
  2
DASHED
 70
0
  3
Dashed __ __ __ __ __
 72
65
 73
2
 40
0.75
 49
0.5
 49
-0.25
  0
LTYPE
  5
43B
  2
DOTTED
 70
0
  3
Dotted .  .  .  .
 72
65
 73
2
 40
0.2
 49
0.0
 49
-0.2
  0
ENDTAB
  0
TABLE
  2
STYLE
  70
4
  0
STYLE
  2
KICAD
  70
0
  40
0
  41
1
  42
1
  50
0
  71
0
  3
isocp.shx
  0
STYLE
  2
KICADB
  70
0
  40
0
  41
1
  42
1
  50
0
  71
0
  3
isocp.shx
  0
STYLE
  2
KICADI
  70
0
  40
0
  41
1
  42
1
  50
15
  71
0
  3
isocp.shx
  0
STYLE
  2
KICADBI
  70
0
  40
0
  41
1
  42
1
  50
15
  71
0
  3
isocp.shx
  0
ENDTAB
  0
TABLE
  2
LAYER
  70
1
  0
LAYER
  2
BLACK
  70
0
  62
7
  6
CONTINUOUS
  0
ENDTAB
  0
ENDSEC
  0
SECTION
  2
ENTITIES
0
LINE
8
BLACK
6
CONTINUOUS
10
0.769746
20
0.354912
11
0.7723
21
0.353206
0
LINE
8
BLACK
6
CONTINUOUS
10
0.7723
20
0.353206
11
0.774007
21
0.350651
0
LINE
8
BLACK
6
CONTINUOUS
10
0.774007
20
0.350651
11
0.774606
21
0.347638
0
LINE
8
BLACK
6
CONTINUOUS
10
0.774606
20
0.347638
11
0.774606
21
0.280709
0
LINE
8
BLACK
6
CONTINUOUS
10
0.774606
20
0.280709
11
0.774007
21
0.277695
0
LINE
8
BLACK
6
CONTINUOUS
10
0.774007
20
0.277695
11
0.7723
21
0.275141
0
LINE
8
BLACK
6
CONTINUOUS
10
0.7723
20
0.275141
11
0.769746
21
0.273434
0
LINE
8
BLACK
6
CONTINUOUS
10
0.769746
20
0.273434
11
0.766732
21
0.272835
0
LINE
8
BLACK
6
CONTINUOUS
10
0.766732
20
0.272835
11
0.699803
21
0.272835
0
LINE
8
BLACK
6
CONTINUOUS
10
0.699803
20
0.272835
11
0.69679
21
0.273434
0
LINE
8
BLACK
6
CONTINUOUS
10
0.69679
20
0.273434
11
0.694235
21
0.275141
0
LINE
8
BLACK
6
CONTINUOUS
10
0.694235
20
0.275141
11
0.692529
21
0.277695
0
LINE
8
BLACK
6
CONTINUOUS
10
0.692529
20
0.277695
11
0.691929
21
0.280709
0
LINE
8
BLACK
6
CONTINUOUS
10
0.691929
20
0.280709
11
0.691929
21
0.347638
0
LINE
8
BLACK
6
CONTINUOUS
10
0.691929
20
0.347638
11
0.692529
21
0.350651
0
LINE
8
BLACK
6
CONTINUOUS
10
0.692529
20
0.350651
11
0.694235
21
0.353206
0
LINE
8
BLACK
6
CONTINUOUS
10
0.694235
20
0.353206
11
0.69679
21
0.354912
0
LINE
8
BLACK
6
CONTINUOUS
10
0.69679
20
0.354912
11
0.699803
21
0.355512
0
LINE
8
BLACK
6
CONTINUOUS
10
0.699803
20
0.355512
11
0.766732
21
0.355512
0
LINE
8
BLACK
6
CONTINUOUS
10
0.766732
20
0.355512
11
0.769746
21
0.354912
0
LINE
8
BLACK
6
CONTINUOUS
10
0.841332
20
0.354718
11
0.849087
21
0.352365
0
LINE
8
BLACK
6
CONTINUOUS
10
0.849087
20
0.352365
11
0.856234
21
0.348545
0
LINE
8
BLACK
6
CONTINUOUS
10
0.856234
20
0.348545
11
0.862499
21
0.343404
0
LINE
8
BLACK
6
CONTINUOUS
10
0.862499
20
0.343404
11
0.867639
21
0.33714
0
LINE
8
BLACK
6
CONTINUOUS
10
0.867639
20
0.33714
11
0.87146
21
0.329993
0
LINE
8
BLACK
6
CONTINUOUS
10
0.87146
20
0.329993
11
0.873812
21
0.322238
0
LINE
8
BLACK
6
CONTINUOUS
10
0.873812
20
0.322238
11
0.874606
21
0.314173
0
LINE
8
BLACK
6
CONTINUOUS
10
0.874606
20
0.314173
11
0.873812
21
0.306108
0
LINE
8
BLACK
6
CONTINUOUS
10
0.873812
20
0.306108
11
0.87146
21
0.298354
0
LINE
8
BLACK
6
CONTINUOUS
10
0.87146
20
0.298354
11
0.867639
21
0.291207
0
LINE
8
BLACK
6
CONTINUOUS
10
0.867639
20
0.291207
11
0.862499
21
0.284942
0
LINE
8
BLACK
6
CONTINUOUS
10
0.862499
20
0.284942
11
0.856234
21
0.279801
0
LINE
8
BLACK
6
CONTINUOUS
10
0.856234
20
0.279801
11
0.849087
21
0.275981
0
LINE
8
BLACK
6
CONTINUOUS
10
0.849087
20
0.275981
11
0.841332
21
0.273629
0
LINE
8
BLACK
6
CONTINUOUS
10
0.841332
20
0.273629
11
0.833268
21
0.272835
0
LINE
8
BLACK
6
CONTINUOUS
10
0.833268
20
0.272835
11
0.825203
21
0.273629
0
LINE
8
BLACK
6
CONTINUOUS
10
0.825203
20
0.273629
11
0.817448
21
0.275981
0
LINE
8
BLACK
6
CONTINUOUS
10
0.817448
20
0.275981
11
0.810301
21
0.279801
0
LINE
8
BLACK
6
CONTINUOUS
10
0.810301
20
0.279801
11
0.804037
21
0.284942
0
LINE
8
BLACK
6
CONTINUOUS
10
0.804037
20
0.284942
11
0.798896
21
0.291207
0
LINE
8
BLACK
6
CONTINUOUS
10
0.798896
20
0.291207
11
0.795076
21
0.298354
0
LINE
8
BLACK
6
CONTINUOUS
10
0.795076
20
0.298354
11
0.792723
21
0.306108
0
LINE
8
BLACK
6
CONTINUOUS
10
0.792723
20
0.306108
11
0.791929
21
0.314173
0
LINE
8
BLACK
6
CONTINUOUS
10
0.791929
20
0.314173
11
0.792723
21
0.322238
0
LINE
8
BLACK
6
CONTINUOUS
10
0.792723
20
0.322238
11
0.795076
21
0.329993
0
LINE
8
BLACK
6
CONTINUOUS
10
0.795076
20
0.329993
11
0.798896
21
0.33714
0
LINE
8
BLACK
6
CONTINUOUS
10
0.798896
20
0.33714
11
0.804037
21
0.343404
0
LINE
8
BLACK
6
CONTINUOUS
10
0.804037
20
0.343404
11
0.810301
21
0.348545
0
LINE
8
BLACK
6
CONTINUOUS
10
0.810301
20
0.348545
11
0.817448
21
0.352365
0
LINE
8
BLACK
6
CONTINUOUS
10
0.817448
20
0.352365
11
0.825203
21
0.354718
0
LINE
8
BLACK
6
CONTINUOUS
10
0.825203
20
0.354718
11
0.833268
21
0.355512
0
LINE
8
BLACK
6
CONTINUOUS
10
0.833268
20
0.355512
11
0.841332
21
0.354718
0
LINE
8
BLACK
6
CONTINUOUS
10
0.941332
20
0.354718
11
0.949087
21
0.352365
0
LINE
8
BLACK
6
CONTINUOUS
10
0.949087
20
0.352365
11
0.956234
21
0.348545
0
LINE
8
BLACK
6
CONTINUOUS
10
0.956234
20
0.348545
11
0.962499
21
0.343404
0
LINE
8
BLACK
6
CONTINUOUS
10
0.962499
20
0.343404
11
0.967639
21
0.33714
0
LINE
8
BLACK
6
CONTINUOUS
10
0.967639
20
0.33714
11
0.97146
21
0.329993
0
LINE
8
BLACK
6
CONTINUOUS
10
0.97146
20
0.329993
11
0.973812
21
0.322238
0
LINE
8
BLACK
6
CONTINUOUS
10
0.973812
20
0.322238
11
0.974606
21
0.314173
0
LINE
8
BLACK
6
CONTINUOUS
10
0.974606
20
0.314173
11
0.973812
21
0.306108
0
LINE
8
BLACK
6
CONTINUOUS
10
0.973812
20
0.306108
11
0.97146
21
0.298354
0
LINE
8
BLACK
6
CONTINUOUS
10
0.97146
20
0.298354
11
0.967639
21
0.291207
0
LINE
8
BLACK
6
CONTINUOUS
10
0.967639
20
0.291207
11
0.962499
21
0.284942
0
LINE
8
BLACK
6
CONTINUOUS
10
0.962499
20
0.284942
11
0.956234
21
0.279801
0
LINE
8
BLACK
6
CONTINUOUS
10
0.956234
20
0.279801
11
0.949087
21
0.275981
0
LINE
8
BLACK
6
CONTINUOUS
10
0.949087
20
0.275981
11
0.941332
21
0.273629
0
LINE
8
BLACK
6
CONTINUOUS
10
0.941332
20
0.273629
11
0.933268
21
0.272835
0
LINE
8
BLACK
6
CONTINUOUS
10
0.933268
20
0.272835
11
0.925203
21
0.273629
0
LINE
8
BLACK
6
CONTINUOUS
10
0.925203
20
0.273629
11
0.917448
21
0.275981
0
LINE
8
BLACK
6
CONTINUOUS
10
0.917448
20
0.275981
11
0.910301
21
0.279801
0
LINE
8
BLACK
6
CONTINUOUS
10
0.910301
20
0.279801
11
0.904037
21
0.284942
0
LINE
8
BLACK
6
CONTINUOUS
10
0.904037
20
0.284942
11
0.898896
21
0.291207
0
LINE
8
BLACK
6
CONTINUOUS
10
0.898896
20
0.291207
11
0.895076
21
0.298354
0
LINE
8
BLACK
6
CONTINUOUS
10
0.895076
20
0.298354
11
0.892723
21
0.306108
0
LINE
8
BLACK
6
CONTINUOUS
10
0.892723
20
0.306108
11
0.891929
21
0.314173
0
LINE
8
BLACK
6
CONTINUOUS
10
0.891929
20
0.314173
11
0.892723
21
0.322238
0
LINE
8
BLACK
6
CONTINUOUS
10
0.892723
20
0.322238
11
0.895076
21
0.329993
0
LINE
8
BLACK
6
CONTINUOUS
10
0.895076
20
0.329993
11
0.898896
21
0.33714
0
LINE
8
BLACK
6
CONTINUOUS
10
0.898896
20
0.33714
11
0.904037
21
0.343404
0
LINE
8
BLACK
6
CONTINUOUS
10
0.904037
20
0.343404
11
0.910301
21
0.348545
0
LINE
8
BLACK
6
CONTINUOUS
10
0.910301
20
0.348545
11
0.917448
21
0.352365
0
LINE
8
BLACK
6
CONTINUOUS
10
0.917448
20
0.352365
11
0.925203
21
0.354718
0
LINE
8
BLACK
6
CONTINUOUS
10
0.925203
20
0.354718
11
0.933268
21
0.355512
0
LINE
8
BLACK
6
CONTINUOUS
10
0.933268
20
0.355512
11
0.941332
21
0.354718
0
LINE
8
BLACK
6
CONTINUOUS
10
0.414106
20
0.525192
11
0.428034
21
0.522826
0
LINE
8
BLACK
6
CONTINUOUS
10
0.428034
20
0.522826
11
0.44161
21
0.518914
0
LINE
8
BLACK
6
CONTINUOUS
10
0.44161
20
0.518914
11
0.454663
21
0.513508
0
LINE
8
BLACK
6
CONTINUOUS
10
0.454663
20
0.513508
11
0.467028
21
0.506674
0
LINE
8
BLACK
6
CONTINUOUS
10
0.467028
20
0.506674
11
0.47855
21
0.498498
0
LINE
8
BLACK
6
CONTINUOUS
10
0.47855
20
0.498498
11
0.489084
21
0.489084
0
LINE
8
BLACK
6
CONTINUOUS
10
0.489084
20
0.489084
11
0.498499
21
0.47855
0
LINE
8
BLACK
6
CONTINUOUS
10
0.498499
20
0.47855
11
0.506674
21
0.467028
0
LINE
8
BLACK
6
CONTINUOUS
10
0.506674
20
0.467028
11
0.513508
21
0.454663
0
LINE
8
BLACK
6
CONTINUOUS
10
0.513508
20
0.454663
11
0.518914
21
0.44161
0
LINE
8
BLACK
6
CONTINUOUS
10
0.518914
20
0.44161
11
0.522826
21
0.428034
0
LINE
8
BLACK
6
CONTINUOUS
10
0.522826
20
0.428034
11
0.525192
21
0.414106
0
LINE
8
BLACK
6
CONTINUOUS
10
0.525192
20
0.414106
11
0.525984
21
0.4
0
LINE
8
BLACK
6
CONTINUOUS
10
0.525984
20
0.4
11
0.525192
21
0.385894
0
LINE
8
BLACK
6
CONTINUOUS
10
0.525192
20
0.385894
11
0.522826
21
0.371966
0
LINE
8
BLACK
6
CONTINUOUS
10
0.522826
20
0.371966
11
0.518914
21
0.35839
0
LINE
8
BLACK
6
CONTINUOUS
10
0.518914
20
0.35839
11
0.513508
21
0.345337
0
LINE
8
BLACK
6
CONTINUOUS
10
0.513508
20
0.345337
11
0.506674
21
0.332972
0
LINE
8
BLACK
6
CONTINUOUS
10
0.506674
20
0.332972
11
0.498499
21
0.32145
0
LINE
8
BLACK
6
CONTINUOUS
10
0.498499
20
0.32145
11
0.489084
21
0.310916
0
LINE
8
BLACK
6
CONTINUOUS
10
0.489084
20
0.310916
11
0.47855
21
0.301502
0
LINE
8
BLACK
6
CONTINUOUS
10
0.47855
20
0.301502
11
0.467028
21
0.293326
0
LINE
8
BLACK
6
CONTINUOUS
10
0.467028
20
0.293326
11
0.454663
21
0.286492
0
LINE
8
BLACK
6
CONTINUOUS
10
0.454663
20
0.286492
11
0.44161
21
0.281086
0
LINE
8
BLACK
6
CONTINUOUS
10
0.44161
20
0.281086
11
0.428034
21
0.277174
0
LINE
8
BLACK
6
CONTINUOUS
10
0.428034
20
0.277174
11
0.414106
21
0.274808
0
LINE
8
BLACK
6
CONTINUOUS
10
0.414106
20
0.274808
11
0.4
21
0.274016
0
LINE
8
BLACK
6
CONTINUOUS
10
0.4
20
0.274016
11
0.385894
21
0.274808
0
LINE
8
BLACK
6
CONTINUOUS
10
0.385894
20
0.274808
11
0.371966
21
0.277174
0
LINE
8
BLACK
6
CONTINUOUS
10
0.371966
20
0.277174
11
0.35839
21
0.281086
0
LINE
8
BLACK
6
CONTINUOUS
10
0.35839
20
0.281086
11
0.345338
21
0.286492
0
LINE
8
BLACK
6
CONTINUOUS
10
0.345338
20
0.286492
11
0.332972
21
0.293326
0
LINE
8
BLACK
6
CONTINUOUS
10
0.332972
20
0.293326
11
0.32145
21
0.301502
0
LINE
8
BLACK
6
CONTINUOUS
10
0.32145
20
0.301502
11
0.310916
21
0.310916
0
LINE
8
BLACK
6
CONTINUOUS
10
0.310916
20
0.310916
11
0.301502
21
0.32145
0
LINE
8
BLACK
6
CONTINUOUS
10
0.301502
20
0.32145
11
0.293326
21
0.332972
0
LINE
8
BLACK
6
CONTINUOUS
10
0.293326
20
0.332972
11
0.286492
21
0.345337
0
LINE
8
BLACK
6
CONTINUOUS
10
0.286492
20
0.345337
11
0.281086
21
0.35839
0
LINE
8
BLACK
6
CONTINUOUS
10
0.281086
20
0.35839
11
0.277174
21
0.371966
0
LINE
8
BLACK
6
CONTINUOUS
10
0.277174
20
0.371966
11
0.274808
21
0.385894
0
LINE
8
BLACK
6
CONTINUOUS
10
0.274808
20
0.385894
11
0.274016
21
0.4
0
LINE
8
BLACK
6
CONTINUOUS
10
0.274016
20
0.4
11
0.274808
21
0.414106
0
LINE
8
BLACK
6
CONTINUOUS
10
0.274808
20
0.414106
11
0.277174
21
0.428034
0
LINE
8
BLACK
6
CONTINUOUS
10
0.277174
20
0.428034
11
0.281086
21
0.44161
0
LINE
8
BLACK
6
CONTINUOUS
10
0.281086
20
0.44161
11
0.286492
21
0.454663
0
LINE
8
BLACK
6
CONTINUOUS
10
0.286492
20
0.454663
11
0.293326
21
0.467028
0
LINE
8
BLACK
6
CONTINUOUS
10
0.293326
20
0.467028
11
0.301502
21
0.47855
0
LINE
8
BLACK
6
CONTINUOUS
10
0.301502
20
0.47855
11
0.310916
21
0.489084
0
LINE
8
BLACK
6
CONTINUOUS
10
0.310916
20
0.489084
11
0.32145
21
0.498498
0
LINE
8
BLACK
6
CONTINUOUS
10
0.32145
20
0.498498
11
0.332972
21
0.506674
0
LINE
8
BLACK
6
CONTINUOUS
10
0.332972
20
0.506674
11
0.345338
21
0.513508
0
LINE
8
BLACK
6
CONTINUOUS
10
0.345338
20
0.513508
11
0.35839
21
0.518914
0
LINE
8
BLACK
6
CONTINUOUS
10
0.35839
20
0.518914
11
0.371966
21
0.522826
0
LINE
8
BLACK
6
CONTINUOUS
10
0.371966
20
0.522826
11
0.385894
21
0.525192
0
LINE
8
BLACK
6
CONTINUOUS
10
0.385894
20
0.525192
11
0.4
21
0.525984
0
LINE
8
BLACK
6
CONTINUOUS
10
0.4
20
0.525984
11
0.414106
21
0.525192
0
LINE
8
BLACK
6
CONTINUOUS
10
1.21411
20
0.525192
11
1.22803
21
0.522826
0
LINE
8
BLACK
6
CONTINUOUS
10
1.22803
20
0.522826
11
1.24161
21
0.518914
0
LINE
8
BLACK
6
CONTINUOUS
10
1.24161
20
0.518914
11
1.25466
21
0.513508
0
LINE
8
BLACK
6
CONTINUOUS
10
1.25466
20
0.513508
11
1.26703
21
0.506674
0
LINE
8
BLACK
6
CONTINUOUS
10
1.26703
20
0.506674
11
1.27855
21
0.498498
0
LINE
8
BLACK
6
CONTINUOUS
10
1.27855
20
0.498498
11
1.28908
21
0.489084
0
LINE
8
BLACK
6
CONTINUOUS
10
1.28908
20
0.489084
11
1.2985
21
0.47855
0
LINE
8
BLACK
6
CONTINUOUS
10
1.2985
20
0.47855
11
1.30667
21
0.467028
0
LINE
8
BLACK
6
CONTINUOUS
10
1.30667
20
0.467028
11
1.31351
21
0.454663
0
LINE
8
BLACK
6
CONTINUOUS
10
1.31351
20
0.454663
11
1.31891
21
0.44161
0
LINE
8
BLACK
6
CONTINUOUS
10
1.31891
20
0.44161
11
1.32283
21
0.428034
0
LINE
8
BLACK
6
CONTINUOUS
10
1.32283
20
0.428034
11
1.32519
21
0.414106
0
LINE
8
BLACK
6
CONTINUOUS
10
1.32519
20
0.414106
11
1.32598
21
0.4
0
LINE
8
BLACK
6
CONTINUOUS
10
1.32598
20
0.4
11
1.32519
21
0.385894
0
LINE
8
BLACK
6
CONTINUOUS
10
1.32519
20
0.385894
11
1.32283
21
0.371966
0
LINE
8
BLACK
6
CONTINUOUS
10
1.32283
20
0.371966
11
1.31891
21
0.35839
0
LINE
8
BLACK
6
CONTINUOUS
10
1.31891
20
0.35839
11
1.31351
21
0.345337
0
LINE
8
BLACK
6
CONTINUOUS
10
1.31351
20
0.345337
11
1.30667
21
0.332972
0
LINE
8
BLACK
6
CONTINUOUS
10
1.30667
20
0.332972
11
1.2985
21
0.32145
0
LINE
8
BLACK
6
CONTINUOUS
10
1.2985
20
0.32145
11
1.28908
21
0.310916
0
LINE
8
BLACK
6
CONTINUOUS
10
1.28908
20
0.310916
11
1.27855
21
0.301502
0
LINE
8
BLACK
6
CONTINUOUS
10
1.27855
20
0.301502
11
1.26703
21
0.293326
0
LINE
8
BLACK
6
CONTINUOUS
10
1.26703
20
0.293326
11
1.25466
21
0.286492
0
LINE
8
BLACK
6
CONTINUOUS
10
1.25466
20
0.286492
11
1.24161
21
0.281086
0
LINE
8
BLACK
6
CONTINUOUS
10
1.24161
20
0.281086
11
1.22803
21
0.277174
0
LINE
8
BLACK
6
CONTINUOUS
10
1.22803
20
0.277174
11
1.21411
21
0.274808
0
LINE
8
BLACK
6
CONTINUOUS
10
1.21411
20
0.274808
11
1.2
21
0.274016
0
LINE
8
BLACK
6
CONTINUOUS
10
1.2
20
0.274016
11
1.18589
21
0.274808
0
LINE
8
BLACK
6
CONTINUOUS
10
1.18589
20
0.274808
11
1.17197
21
0.277174
0
LINE
8
BLACK
6
CONTINUOUS
10
1.17197
20
0.277174
11
1.15839
21
0.281086
0
LINE
8
BLACK
6
CONTINUOUS
10
1.15839
20
0.281086
11
1.14534
21
0.286492
0
LINE
8
BLACK
6
CONTINUOUS
10
1.14534
20
0.286492
11
1.13297
21
0.293326
0
LINE
8
BLACK
6
CONTINUOUS
10
1.13297
20
0.293326
11
1.12145
21
0.301502
0
LINE
8
BLACK
6
CONTINUOUS
10
1.12145
20
0.301502
11
1.11092
21
0.310916
0
LINE
8
BLACK
6
CONTINUOUS
10
1.11092
20
0.310916
11
1.1015
21
0.32145
0
LINE
8
BLACK
6
CONTINUOUS
10
1.1015
20
0.32145
11
1.09333
21
0.332972
0
LINE
8
BLACK
6
CONTINUOUS
10
1.09333
20
0.332972
11
1.08649
21
0.345337
0
LINE
8
BLACK
6
CONTINUOUS
10
1.08649
20
0.345337
11
1.08109
21
0.35839
0
LINE
8
BLACK
6
CONTINUOUS
10
1.08109
20
0.35839
11
1.07717
21
0.371966
0
LINE
8
BLACK
6
CONTINUOUS
10
1.07717
20
0.371966
11
1.07481
21
0.385894
0
LINE
8
BLACK
6
CONTINUOUS
10
1.07481
20
0.385894
11
1.07402
21
0.4
0
LINE
8
BLACK
6
CONTINUOUS
10
1.07402
20
0.4
11
1.07481
21
0.414106
0
LINE
8
BLACK
6
CONTINUOUS
10
1.07481
20
0.414106
11
1.07717
21
0.428034
0
LINE
8
BLACK
6
CONTINUOUS
10
1.07717
20
0.428034
11
1.08109
21
0.44161
0
LINE
8
BLACK
6
CONTINUOUS
10
1.08109
20
0.44161
11
1.08649
21
0.454663
0
LINE
8
BLACK
6
CONTINUOUS
10
1.08649
20
0.454663
11
1.09333
21
0.467028
0
LINE
8
BLACK
6
CONTINUOUS
10
1.09333
20
0.467028
11
1.1015
21
0.47855
0
LINE
8
BLACK
6
CONTINUOUS
10
1.1015
20
0.47855
11
1.11092
21
0.489084
0
LINE
8
BLACK
6
CONTINUOUS
10
1.11092
20
0.489084
11
1.12145
21
0.498498
0
LINE
8
BLACK
6
CONTINUOUS
10
1.12145
20
0.498498
11
1.13297
21
0.506674
0
LINE
8
BLACK
6
CONTINUOUS
10
1.13297
20
0.506674
11
1.14534
21
0.513508
0
LINE
8
BLACK
6
CONTINUOUS
10
1.14534
20
0.513508
11
1.15839
21
0.518914
0
LINE
8
BLACK
6
CONTINUOUS
10
1.15839
20
0.518914
11
1.17197
21
0.522826
0
LINE
8
BLACK
6
CONTINUOUS
10
1.17197
20
0.522826
11
1.18589
21
0.525192
0
LINE
8
BLACK
6
CONTINUOUS
10
1.18589
20
0.525192
11
1.2
21
0.525984
0
LINE
8
BLACK
6
CONTINUOUS
10
1.2
20
0.525984
11
1.21411
21
0.525192
0
LINE
8
BLACK
6
CONTINUOUS
10
0.741332
20
0.454718
11
0.749087
21
0.452365
0
LINE
8
BLACK
6
CONTINUOUS
10
0.749087
20
0.452365
11
0.756234
21
0.448545
0
LINE
8
BLACK
6
CONTINUOUS
10
0.756234
20
0.448545
11
0.762499
21
0.443404
0
LINE
8
BLACK
6
CONTINUOUS
10
0.762499
20
0.443404
11
0.767639
21
0.43714
0
LINE
8
BLACK
6
CONTINUOUS
10
0.767639
20
0.43714
11
0.77146
21
0.429993
0
LINE
8
BLACK
6
CONTINUOUS
10
0.77146
20
0.429993
11
0.773812
21
0.422238
0
LINE
8
BLACK
6
CONTINUOUS
10
0.773812
20
0.422238
11
0.774606
21
0.414173
0
LINE
8
BLACK
6
CONTINUOUS
10
0.774606
20
0.414173
11
0.773812
21
0.406108
0
LINE
8
BLACK
6
CONTINUOUS
10
0.773812
20
0.406108
11
0.77146
21
0.398354
0
LINE
8
BLACK
6
CONTINUOUS
10
0.77146
20
0.398354
11
0.767639
21
0.391207
0
LINE
8
BLACK
6
CONTINUOUS
10
0.767639
20
0.391207
11
0.762499
21
0.384942
0
LINE
8
BLACK
6
CONTINUOUS
10
0.762499
20
0.384942
11
0.756234
21
0.379801
0
LINE
8
BLACK
6
CONTINUOUS
10
0.756234
20
0.379801
11
0.749087
21
0.375981
0
LINE
8
BLACK
6
CONTINUOUS
10
0.749087
20
0.375981
11
0.741332
21
0.373629
0
LINE
8
BLACK
6
CONTINUOUS
10
0.741332
20
0.373629
11
0.733268
21
0.372835
0
LINE
8
BLACK
6
CONTINUOUS
10
0.733268
20
0.372835
11
0.725203
21
0.373629
0
LINE
8
BLACK
6
CONTINUOUS
10
0.725203
20
0.373629
11
0.717448
21
0.375981
0
LINE
8
BLACK
6
CONTINUOUS
10
0.717448
20
0.375981
11
0.710301
21
0.379801
0
LINE
8
BLACK
6
CONTINUOUS
10
0.710301
20
0.379801
11
0.704037
21
0.384942
0
LINE
8
BLACK
6
CONTINUOUS
10
0.704037
20
0.384942
11
0.698896
21
0.391207
0
LINE
8
BLACK
6
CONTINUOUS
10
0.698896
20
0.391207
11
0.695076
21
0.398354
0
LINE
8
BLACK
6
CONTINUOUS
10
0.695076
20
0.398354
11
0.692723
21
0.406108
0
LINE
8
BLACK
6
CONTINUOUS
10
0.692723
20
0.406108
11
0.691929
21
0.414173
0
LINE
8
BLACK
6
CONTINUOUS
10
0.691929
20
0.414173
11
0.692723
21
0.422238
0
LINE
8
BLACK
6
CONTINUOUS
10
0.692723
20
0.422238
11
0.695076
21
0.429993
0
LINE
8
BLACK
6
CONTINUOUS
10
0.695076
20
0.429993
11
0.698896
21
0.43714
0
LINE
8
BLACK
6
CONTINUOUS
10
0.698896
20
0.43714
11
0.704037
21
0.443404
0
LINE
8
BLACK
6
CONTINUOUS
10
0.704037
20
0.443404
11
0.710301
21
0.448545
0
LINE
8
BLACK
6
CONTINUOUS
10
0.710301
20
0.448545
11
0.717448
21
0.452365
0
LINE
8
BLACK
6
CONTINUOUS
10
0.717448
20
0.452365
11
0.725203
21
0.454718
0
LINE
8
BLACK
6
CONTINUOUS
10
0.725203
20
0.454718
11
0.733268
21
0.455512
0
LINE
8
BLACK
6
CONTINUOUS
10
0.733268
20
0.455512
11
0.741332
21
0.454718
0
LINE
8
BLACK
6
CONTINUOUS
10
0.841332
20
0.454718
11
0.849087
21
0.452365
0
LINE
8
BLACK
6
CONTINUOUS
10
0.849087
20
0.452365
11
0.856234
21
0.448545
0
LINE
8
BLACK
6
CONTINUOUS
10
0.856234
20
0.448545
11
0.862499
21
0.443404
0
LINE
8
BLACK
6
CONTINUOUS
10
0.862499
20
0.443404
11
0.867639
21
0.43714
0
LINE
8
BLACK
6
CONTINUOUS
10
0.867639
20
0.43714
11
0.87146
21
0.429993
0
LINE
8
BLACK
6
CONTINUOUS
10
0.87146
20
0.429993
11
0.873812
21
0.422238
0
LINE
8
BLACK
6
CONTINUOUS
10
0.873812
20
0.422238
11
0.874606
21
0.414173
0
LINE
8
BLACK
6
CONTINUOUS
10
0.874606
20
0.414173
11
0.873812
21
0.406108
0
LINE
8
BLACK
6
CONTINUOUS
10
0.873812
20
0.406108
11
0.87146
21
0.398354
0
LINE
8
BLACK
6
CONTINUOUS
10
0.87146
20
0.398354
11
0.867639
21
0.391207
0
LINE
8
BLACK
6
CONTINUOUS
10
0.867639
20
0.391207
11
0.862499
21
0.384942
0
LINE
8
BLACK
6
CONTINUOUS
10
0.862499
20
0.384942
11
0.856234
21
0.379801
0
LINE
8
BLACK
6
CONTINUOUS
10
0.856234
20
0.379801
11
0.849087
21
0.375981
0
LINE
8
BLACK
6
CONTINUOUS
10
0.849087
20
0.375981
11
0.841332
21
0.373629
0
LINE
8
BLACK
6
CONTINUOUS
10
0.841332
20
0.373629
11
0.833268
21
0.372835
0
LINE
8
BLACK
6
CONTINUOUS
10
0.833268
20
0.372835
11
0.825203
21
0.373629
0
LINE
8
BLACK
6
CONTINUOUS
10
0.825203
20
0.373629
11
0.817448
21
0.375981
0
LINE
8
BLACK
6
CONTINUOUS
10
0.817448
20
0.375981
11
0.810301
21
0.379801
0
LINE
8
BLACK
6
CONTINUOUS
10
0.810301
20
0.379801
11
0.804037
21
0.384942
0
LINE
8
BLACK
6
CONTINUOUS
10
0.804037
20
0.384942
11
0.798896
21
0.391207
0
LINE
8
BLACK
6
CONTINUOUS
10
0.798896
20
0.391207
11
0.795076
21
0.398354
0
LINE
8
BLACK
6
CONTINUOUS
10
0.795076
20
0.398354
11
0.792723
21
0.406108
0
LINE
8
BLACK
6
CONTINUOUS
10
0.792723
20
0.406108
11
0.791929
21
0.414173
0
LINE
8
BLACK
6
CONTINUOUS
10
0.791929
20
0.414173
11
0.792723
21
0.422238
0
LINE
8
BLACK
6
CONTINUOUS
10
0.792723
20
0.422238
11
0.795076
21
0.429993
0
LINE
8
BLACK
6
CONTINUOUS
10
0.795076
20
0.429993
11
0.798896
21
0.43714
0
LINE
8
BLACK
6
CONTINUOUS
10
0.798896
20
0.43714
11
0.804037
21
0.443404
0
LINE
8
BLACK
6
CONTINUOUS
10
0.804037
20
0.443404
11
0.810301
21
0.448545
0
LINE
8
BLACK
6
CONTINUOUS
10
0.810301
20
0.448545
11
0.817448
21
0.452365
0
LINE
8
BLACK
6
CONTINUOUS
10
0.817448
20
0.452365
11
0.825203
21
0.454718
0
LINE
8
BLACK
6
CONTINUOUS
10
0.825203
20
0.454718
11
0.833268
21
0.455512
0
LINE
8
BLACK
6
CONTINUOUS
10
0.833268
20
0.455512
11
0.841332
21
0.454718
0
LINE
8
BLACK
6
CONTINUOUS
10
0.941332
20
0.454718
11
0.949087
21
0.452365
0
LINE
8
BLACK
6
CONTINUOUS
10
0.949087
20
0.452365
11
0.956234
21
0.448545
0
LINE
8
BLACK
6
CONTINUOUS
10
0.956234
20
0.448545
11
0.962499
21
0.443404
0
LINE
8
BLACK
6
CONTINUOUS
10
0.962499
20
0.443404
11
0.967639
21
0.43714
0
LINE
8
BLACK
6
CONTINUOUS
10
0.967639
20
0.43714
11
0.97146
21
0.429993
0
LINE
8
BLACK
6
CONTINUOUS
10
0.97146
20
0.429993
11
0.973812
21
0.422238
0
LINE
8
BLACK
6
CONTINUOUS
10
0.973812
20
0.422238
11
0.974606
21
0.414173
0
LINE
8
BLACK
6
CONTINUOUS
10
0.974606
20
0.414173
11
0.973812
21
0.406108
0
LINE
8
BLACK
6
CONTINUOUS
10
0.973812
20
0.406108
11
0.97146
21
0.398354
0
LINE
8
BLACK
6
CONTINUOUS
10
0.97146
20
0.398354
11
0.967639
21
0.391207
0
LINE
8
BLACK
6
CONTINUOUS
10
0.967639
20
0.391207
11
0.962499
21
0.384942
0
LINE
8
BLACK
6
CONTINUOUS
10
0.962499
20
0.384942
11
0.956234
21
0.379801
0
LINE
8
BLACK
6
CONTINUOUS
10
0.956234
20
0.379801
11
0.949087
21
0.375981
0
LINE
8
BLACK
6
CONTINUOUS
10
0.949087
20
0.375981
11
0.941332
21
0.373629
0
LINE
8
BLACK
6
CONTINUOUS
10
0.941332
20
0.373629
11
0.933268
21
0.372835
0
LINE
8
BLACK
6
CONTINUOUS
10
0.933268
20
0.372835
11
0.925203
21
0.373629
0
LINE
8
BLACK
6
CONTINUOUS
10
0.925203
20
0.373629
11
0.917448
21
0.375981
0
LINE
8
BLACK
6
CONTINUOUS
10
0.917448
20
0.375981
11
0.910301
21
0.379801
0
LINE
8
BLACK
6
CONTINUOUS
10
0.910301
20
0.379801
11
0.904037
21
0.384942
0
LINE
8
BLACK
6
CONTINUOUS
10
0.904037
20
0.384942
11
0.898896
21
0.391207
0
LINE
8
BLACK
6
CONTINUOUS
10
0.898896
20
0.391207
11
0.895076
21
0.398354
0
LINE
8
BLACK
6
CONTINUOUS
10
0.895076
20
0.398354
11
0.892723
21
0.406108
0
LINE
8
BLACK
6
CONTINUOUS
10
0.892723
20
0.406108
11
0.891929
21
0.414173
0
LINE
8
BLACK
6
CONTINUOUS
10
0.891929
20
0.414173
11
0.892723
21
0.422238
0
LINE
8
BLACK
6
CONTINUOUS
10
0.892723
20
0.422238
11
0.895076
21
0.429993
0
LINE
8
BLACK
6
CONTINUOUS
10
0.895076
20
0.429993
11
0.898896
21
0.43714
0
LINE
8
BLACK
6
CONTINUOUS
10
0.898896
20
0.43714
11
0.904037
21
0.443404
0
LINE
8
BLACK
6
CONTINUOUS
10
0.904037
20
0.443404
11
0.910301
21
0.448545
0
LINE
8
BLACK
6
CONTINUOUS
10
0.910301
20
0.448545
11
0.917448
21
0.452365
0
LINE
8
BLACK
6
CONTINUOUS
10
0.917448
20
0.452365
11
0.925203
21
0.454718
0
LINE
8
BLACK
6
CONTINUOUS
10
0.925203
20
0.454718
11
0.933268
21
0.455512
0
LINE
8
BLACK
6
CONTINUOUS
10
0.933268
20
0.455512
11
0.941332
21
0.454718
0
LINE
8
BLACK
6
CONTINUOUS
10
0.769746
20
0.554912
11
0.7723
21
0.553206
0
LINE
8
BLACK
6
CONTINUOUS
10
0.7723
20
0.553206
11
0.774007
21
0.550651
0
LINE
8
BLACK
6
CONTINUOUS
10
0.774007
20
0.550651
11
0.774606
21
0.547638
0
LINE
8
BLACK
6
CONTINUOUS
10
0.774606
20
0.547638
11
0.774606
21
0.480709
0
LINE
8
BLACK
6
CONTINUOUS
10
0.774606
20
0.480709
11
0.774007
21
0.477695
0
LINE
8
BLACK
6
CONTINUOUS
10
0.774007
20
0.477695
11
0.7723
21
0.475141
0
LINE
8
BLACK
6
CONTINUOUS
10
0.7723
20
0.475141
11
0.769746
21
0.473434
0
LINE
8
BLACK
6
CONTINUOUS
10
0.769746
20
0.473434
11
0.766732
21
0.472835
0
LINE
8
BLACK
6
CONTINUOUS
10
0.766732
20
0.472835
11
0.699803
21
0.472835
0
LINE
8
BLACK
6
CONTINUOUS
10
0.699803
20
0.472835
11
0.69679
21
0.473434
0
LINE
8
BLACK
6
CONTINUOUS
10
0.69679
20
0.473434
11
0.694235
21
0.475141
0
LINE
8
BLACK
6
CONTINUOUS
10
0.694235
20
0.475141
11
0.692529
21
0.477695
0
LINE
8
BLACK
6
CONTINUOUS
10
0.692529
20
0.477695
11
0.691929
21
0.480709
0
LINE
8
BLACK
6
CONTINUOUS
10
0.691929
20
0.480709
11
0.691929
21
0.547638
0
LINE
8
BLACK
6
CONTINUOUS
10
0.691929
20
0.547638
11
0.692529
21
0.550651
0
LINE
8
BLACK
6
CONTINUOUS
10
0.692529
20
0.550651
11
0.694235
21
0.553206
0
LINE
8
BLACK
6
CONTINUOUS
10
0.694235
20
0.553206
11
0.69679
21
0.554912
0
LINE
8
BLACK
6
CONTINUOUS
10
0.69679
20
0.554912
11
0.699803
21
0.555512
0
LINE
8
BLACK
6
CONTINUOUS
10
0.699803
20
0.555512
11
0.766732
21
0.555512
0
LINE
8
BLACK
6
CONTINUOUS
10
0.766732
20
0.555512
11
0.769746
21
0.554912
0
LINE
8
BLACK
6
CONTINUOUS
10
0.841332
20
0.554718
11
0.849087
21
0.552365
0
LINE
8
BLACK
6
CONTINUOUS
10
0.849087
20
0.552365
11
0.856234
21
0.548545
0
LINE
8
BLACK
6
CONTINUOUS
10
0.856234
20
0.548545
11
0.862499
21
0.543404
0
LINE
8
BLACK
6
CONTINUOUS
10
0.862499
20
0.543404
11
0.867639
21
0.53714
0
LINE
8
BLACK
6
CONTINUOUS
10
0.867639
20
0.53714
11
0.87146
21
0.529993
0
LINE
8
BLACK
6
CONTINUOUS
10
0.87146
20
0.529993
11
0.873812
21
0.522238
0
LINE
8
BLACK
6
CONTINUOUS
10
0.873812
20
0.522238
11
0.874606
21
0.514173
0
LINE
8
BLACK
6
CONTINUOUS
10
0.874606
20
0.514173
11
0.873812
21
0.506108
0
LINE
8
BLACK
6
CONTINUOUS
10
0.873812
20
0.506108
11
0.87146
21
0.498354
0
LINE
8
BLACK
6
CONTINUOUS
10
0.87146
20
0.498354
11
0.867639
21
0.491207
0
LINE
8
BLACK
6
CONTINUOUS
10
0.867639
20
0.491207
11
0.862499
21
0.484942
0
LINE
8
BLACK
6
CONTINUOUS
10
0.862499
20
0.484942
11
0.856234
21
0.479801
0
LINE
8
BLACK
6
CONTINUOUS
10
0.856234
20
0.479801
11
0.849087
21
0.475981
0
LINE
8
BLACK
6
CONTINUOUS
10
0.849087
20
0.475981
11
0.841332
21
0.473629
0
LINE
8
BLACK
6
CONTINUOUS
10
0.841332
20
0.473629
11
0.833268
21
0.472835
0
LINE
8
BLACK
6
CONTINUOUS
10
0.833268
20
0.472835
11
0.825203
21
0.473629
0
LINE
8
BLACK
6
CONTINUOUS
10
0.825203
20
0.473629
11
0.817448
21
0.475981
0
LINE
8
BLACK
6
CONTINUOUS
10
0.817448
20
0.475981
11
0.810301
21
0.479801
0
LINE
8
BLACK
6
CONTINUOUS
10
0.810301
20
0.479801
11
0.804037
21
0.484942
0
LINE
8
BLACK
6
CONTINUOUS
10
0.804037
20
0.484942
11
0.798896
21
0.491207
0
LINE
8
BLACK
6
CONTINUOUS
10
0.798896
20
0.491207
11
0.795076
21
0.498354
0
LINE
8
BLACK
6
CONTINUOUS
10
0.795076
20
0.498354
11
0.792723
21
0.506108
0
LINE
8
BLACK
6
CONTINUOUS
10
0.792723
20
0.506108
11
0.791929
21
0.514173
0
LINE
8
BLACK
6
CONTINUOUS
10
0.791929
20
0.514173
11
0.792723
21
0.522238
0
LINE
8
BLACK
6
CONTINUOUS
10
0.792723
20
0.522238
11
0.795076
21
0.529993
0
LINE
8
BLACK
6
CONTINUOUS
10
0.795076
20
0.529993
11
0.798896
21
0.53714
0
LINE
8
BLACK
6
CONTINUOUS
10
0.798896
20
0.53714
11
0.804037
21
0.543404
0
LINE
8
BLACK
6
CONTINUOUS
10
0.804037
20
0.543404
11
0.810301
21
0.548545
0
LINE
8
BLACK
6
CONTINUOUS
10
0.810301
20
0.548545
11
0.817448
21
0.552365
0
LINE
8
BLACK
6
CONTINUOUS
10
0.817448
20
0.552365
11
0.825203
21
0.554718
0
LINE
8
BLACK
6
CONTINUOUS
10
0.825203
20
0.554718
11
0.833268
21
0.555512
0
LINE
8
BLACK
6
CONTINUOUS
10
0.833268
20
0.555512
11
0.841332
21
0.554718
0
LINE
8
BLACK
6
CONTINUOUS
10
0.941332
20
0.554718
11
0.949087
21
0.552365
0
LINE
8
BLACK
6
CONTINUOUS
10
0.949087
20
0.552365
11
0.956234
21
0.548545
0
LINE
8
BLACK
6
CONTINUOUS
10
0.956234
20
0.548545
11
0.962499
21
0.543404
0
LINE
8
BLACK
6
CONTINUOUS
10
0.962499
20
0.543404
11
0.967639
21
0.53714
0
LINE
8
BLACK
6
CONTINUOUS
10
0.967639
20
0.53714
11
0.97146
21
0.529993
0
LINE
8
BLACK
6
CONTINUOUS
10
0.97146
20
0.529993
11
0.973812
21
0.522238
0
LINE
8
BLACK
6
CONTINUOUS
10
0.973812
20
0.522238
11
0.974606
21
0.514173
0
LINE
8
BLACK
6
CONTINUOUS
10
0.974606
20
0.514173
11
0.973812
21
0.506108
0
LINE
8
BLACK
6
CONTINUOUS
10
0.973812
20
0.506108
11
0.97146
21
0.498354
0
LINE
8
BLACK
6
CONTINUOUS
10
0.97146
20
0.498354
11
0.967639
21
0.491207
0
LINE
8
BLACK
6
CONTINUOUS
10
0.967639
20
0.491207
11
0.962499
21
0.484942
0
LINE
8
BLACK
6
CONTINUOUS
10
0.962499
20
0.484942
11
0.956234
21
0.479801
0
LINE
8
BLACK
6
CONTINUOUS
10
0.956234
20
0.479801
11
0.949087
21
0.475981
0
LINE
8
BLACK
6
CONTINUOUS
10
0.949087
20
0.475981
11
0.941332
21
0.473629
0
LINE
8
BLACK
6
CONTINUOUS
10
0.941332
20
0.473629
11
0.933268
21
0.472835
0
LINE
8
BLACK
6
CONTINUOUS
10
0.933268
20
0.472835
11
0.925203
21
0.473629
0
LINE
8
BLACK
6
CONTINUOUS
10
0.925203
20
0.473629
11
0.917448
21
0.475981
0
LINE
8
BLACK
6
CONTINUOUS
10
0.917448
20
0.475981
11
0.910301
21
0.479801
0
LINE
8
BLACK
6
CONTINUOUS
10
0.910301
20
0.479801
11
0.904037
21
0.484942
0
LINE
8
BLACK
6
CONTINUOUS
10
0.904037
20
0.484942
11
0.898896
21
0.491207
0
LINE
8
BLACK
6
CONTINUOUS
10
0.898896
20
0.491207
11
0.895076
21
0.498354
0
LINE
8
BLACK
6
CONTINUOUS
10
0.895076
20
0.498354
11
0.892723
21
0.506108
0
LINE
8
BLACK
6
CONTINUOUS
10
0.892723
20
0.506108
11
0.891929
21
0.514173
0
LINE
8
BLACK
6
CONTINUOUS
10
0.891929
20
0.514173
11
0.892723
21
0.522238
0
LINE
8
BLACK
6
CONTINUOUS
10
0.892723
20
0.522238
11
0.895076
21
0.529993
0
LINE
8
BLACK
6
CONTINUOUS
10
0.895076
20
0.529993
11
0.898896
21
0.53714
0
LINE
8
BLACK
6
CONTINUOUS
10
0.898896
20
0.53714
11
0.904037
21
0.543404
0
LINE
8
BLACK
6
CONTINUOUS
10
0.904037
20
0.543404
11
0.910301
21
0.548545
0
LINE
8
BLACK
6
CONTINUOUS
10
0.910301
20
0.548545
11
0.917448
21
0.552365
0
LINE
8
BLACK
6
CONTINUOUS
10
0.917448
20
0.552365
11
0.925203
21
0.554718
0
LINE
8
BLACK
6
CONTINUOUS
10
0.925203
20
0.554718
11
0.933268
21
0.555512
0
LINE
8
BLACK
6
CONTINUOUS
10
0.933268
20
0.555512
11
0.941332
21
0.554718
0
LINE
8
BLACK
6
CONTINUOUS
10
0.598232
20
0.589795
11
0.605617
21
0.587554
0
LINE
8
BLACK
6
CONTINUOUS
10
0.605617
20
0.587554
11
0.612424
21
0.583916
0
LINE
8
BLACK
6
CONTINUOUS
10
0.612424
20
0.583916
11
0.61839
21
0.57902
0
LINE
8
BLACK
6
CONTINUOUS
10
0.61839
20
0.57902
11
0.623286
21
0.573054
0
LINE
8
BLACK
6
CONTINUOUS
10
0.623286
20
0.573054
11
0.626924
21
0.566247
0
LINE
8
BLACK
6
CONTINUOUS
10
0.626924
20
0.566247
11
0.629165
21
0.558862
0
LINE
8
BLACK
6
CONTINUOUS
10
0.629165
20
0.558862
11
0.629921
21
0.551181
0
LINE
8
BLACK
6
CONTINUOUS
10
0.629921
20
0.551181
11
0.629165
21
0.5435
0
LINE
8
BLACK
6
CONTINUOUS
10
0.629165
20
0.5435
11
0.626924
21
0.536115
0
LINE
8
BLACK
6
CONTINUOUS
10
0.626924
20
0.536115
11
0.623286
21
0.529308
0
LINE
8
BLACK
6
CONTINUOUS
10
0.623286
20
0.529308
11
0.61839
21
0.523342
0
LINE
8
BLACK
6
CONTINUOUS
10
0.61839
20
0.523342
11
0.612424
21
0.518446
0
LINE
8
BLACK
6
CONTINUOUS
10
0.612424
20
0.518446
11
0.605617
21
0.514808
0
LINE
8
BLACK
6
CONTINUOUS
10
0.605617
20
0.514808
11
0.598232
21
0.512568
0
LINE
8
BLACK
6
CONTINUOUS
10
0.598232
20
0.512568
11
0.590551
21
0.511811
0
LINE
8
BLACK
6
CONTINUOUS
10
0.590551
20
0.511811
11
0.58287
21
0.512568
0
LINE
8
BLACK
6
CONTINUOUS
10
0.58287
20
0.512568
11
0.575485
21
0.514808
0
LINE
8
BLACK
6
CONTINUOUS
10
0.575485
20
0.514808
11
0.568678
21
0.518446
0
LINE
8
BLACK
6
CONTINUOUS
10
0.568678
20
0.518446
11
0.562712
21
0.523342
0
LINE
8
BLACK
6
CONTINUOUS
10
0.562712
20
0.523342
11
0.557816
21
0.529308
0
LINE
8
BLACK
6
CONTINUOUS
10
0.557816
20
0.529308
11
0.554178
21
0.536115
0
LINE
8
BLACK
6
CONTINUOUS
10
0.554178
20
0.536115
11
0.551938
21
0.5435
0
LINE
8
BLACK
6
CONTINUOUS
10
0.551938
20
0.5435
11
0.551181
21
0.551181
0
LINE
8
BLACK
6
CONTINUOUS
10
0.551181
20
0.551181
11
0.551938
21
0.558862
0
LINE
8
BLACK
6
CONTINUOUS
10
0.551938
20
0.558862
11
0.554178
21
0.566247
0
LINE
8
BLACK
6
CONTINUOUS
10
0.554178
20
0.566247
11
0.557816
21
0.573054
0
LINE
8
BLACK
6
CONTINUOUS
10
0.557816
20
0.573054
11
0.562712
21
0.57902
0
LINE
8
BLACK
6
CONTINUOUS
10
0.562712
20
0.57902
11
0.568678
21
0.583916
0
LINE
8
BLACK
6
CONTINUOUS
10
0.568678
20
0.583916
11
0.575485
21
0.587554
0
LINE
8
BLACK
6
CONTINUOUS
10
0.575485
20
0.587554
11
0.58287
21
0.589795
0
LINE
8
BLACK
6
CONTINUOUS
10
0.58287
20
0.589795
11
0.590551
21
0.590551
0
LINE
8
BLACK
6
CONTINUOUS
10
0.590551
20
0.590551
11
0.598232
21
0.589795
0
LINE
8
BLACK
6
CONTINUOUS
10
0.741332
20
0.654718
11
0.749087
21
0.652365
0
LINE
8
BLACK
6
CONTINUOUS
10
0.749087
20
0.652365
11
0.756234
21
0.648545
0
LINE
8
BLACK
6
CONTINUOUS
10
0.756234
20
0.648545
11
0.762499
21
0.643404
0
LINE
8
BLACK
6
CONTINUOUS
10
0.762499
20
0.643404
11
0.767639
21
0.63714
0
LINE
8
BLACK
6
CONTINUOUS
10
0.767639
20
0.63714
11
0.77146
21
0.629993
0
LINE
8
BLACK
6
CONTINUOUS
10
0.77146
20
0.629993
11
0.773812
21
0.622238
0
LINE
8
BLACK
6
CONTINUOUS
10
0.773812
20
0.622238
11
0.774606
21
0.614173
0
LINE
8
BLACK
6
CONTINUOUS
10
0.774606
20
0.614173
11
0.773812
21
0.606108
0
LINE
8
BLACK
6
CONTINUOUS
10
0.773812
20
0.606108
11
0.77146
21
0.598354
0
LINE
8
BLACK
6
CONTINUOUS
10
0.77146
20
0.598354
11
0.767639
21
0.591207
0
LINE
8
BLACK
6
CONTINUOUS
10
0.767639
20
0.591207
11
0.762499
21
0.584942
0
LINE
8
BLACK
6
CONTINUOUS
10
0.762499
20
0.584942
11
0.756234
21
0.579801
0
LINE
8
BLACK
6
CONTINUOUS
10
0.756234
20
0.579801
11
0.749087
21
0.575981
0
LINE
8
BLACK
6
CONTINUOUS
10
0.749087
20
0.575981
11
0.741332
21
0.573629
0
LINE
8
BLACK
6
CONTINUOUS
10
0.741332
20
0.573629
11
0.733268
21
0.572835
0
LINE
8
BLACK
6
CONTINUOUS
10
0.733268
20
0.572835
11
0.725203
21
0.573629
0
LINE
8
BLACK
6
CONTINUOUS
10
0.725203
20
0.573629
11
0.717448
21
0.575981
0
LINE
8
BLACK
6
CONTINUOUS
10
0.717448
20
0.575981
11
0.710301
21
0.579801
0
LINE
8
BLACK
6
CONTINUOUS
10
0.710301
20
0.579801
11
0.704037
21
0.584942
0
LINE
8
BLACK
6
CONTINUOUS
10
0.704037
20
0.584942
11
0.698896
21
0.591207
0
LINE
8
BLACK
6
CONTINUOUS
10
0.698896
20
0.591207
11
0.695076
21
0.598354
0
LINE
8
BLACK
6
CONTINUOUS
10
0.695076
20
0.598354
11
0.692723
21
0.606108
0
LINE
8
BLACK
6
CONTINUOUS
10
0.692723
20
0.606108
11
0.691929
21
0.614173
0
LINE
8
BLACK
6
CONTINUOUS
10
0.691929
20
0.614173
11
0.692723
21
0.622238
0
LINE
8
BLACK
6
CONTINUOUS
10
0.692723
20
0.622238
11
0.695076
21
0.629993
0
LINE
8
BLACK
6
CONTINUOUS
10
0.695076
20
0.629993
11
0.698896
21
0.63714
0
LINE
8
BLACK
6
CONTINUOUS
10
0.698896
20
0.63714
11
0.704037
21
0.643404
0
LINE
8
BLACK
6
CONTINUOUS
10
0.704037
20
0.643404
11
0.710301
21
0.648545
0
LINE
8
BLACK
6
CONTINUOUS
10
0.710301
20
0.648545
11
0.717448
21
0.652365
0
LINE
8
BLACK
6
CONTINUOUS
10
0.717448
20
0.652365
11
0.725203
21
0.654718
0
LINE
8
BLACK
6
CONTINUOUS
10
0.725203
20
0.654718
11
0.733268
21
0.655512
0
LINE
8
BLACK
6
CONTINUOUS
10
0.733268
20
0.655512
11
0.741332
21
0.654718
0
LINE
8
BLACK
6
CONTINUOUS
10
0.841332
20
0.654718
11
0.849087
21
0.652365
0
LINE
8
BLACK
6
CONTINUOUS
10
0.849087
20
0.652365
11
0.856234
21
0.648545
0
LINE
8
BLACK
6
CONTINUOUS
10
0.856234
20
0.648545
11
0.862499
21
0.643404
0
LINE
8
BLACK
6
CONTINUOUS
10
0.862499
20
0.643404
11
0.867639
21
0.63714
0
LINE
8
BLACK
6
CONTINUOUS
10
0.867639
20
0.63714
11
0.87146
21
0.629993
0
LINE
8
BLACK
6
CONTINUOUS
10
0.87146
20
0.629993
11
0.873812
21
0.622238
0
LINE
8
BLACK
6
CONTINUOUS
10
0.873812
20
0.622238
11
0.874606
21
0.614173
0
LINE
8
BLACK
6
CONTINUOUS
10
0.874606
20
0.614173
11
0.873812
21
0.606108
0
LINE
8
BLACK
6
CONTINUOUS
10
0.873812
20
0.606108
11
0.87146
21
0.598354
0
LINE
8
BLACK
6
CONTINUOUS
10
0.87146
20
0.598354
11
0.867639
21
0.591207
0
LINE
8
BLACK
6
CONTINUOUS
10
0.867639
20
0.591207
11
0.862499
21
0.584942
0
LINE
8
BLACK
6
CONTINUOUS
10
0.862499
20
0.584942
11
0.856234
21
0.579801
0
LINE
8
BLACK
6
CONTINUOUS
10
0.856234
20
0.579801
11
0.849087
21
0.575981
0
LINE
8
BLACK
6
CONTINUOUS
10
0.849087
20
0.575981
11
0.841332
21
0.573629
0
LINE
8
BLACK
6
CONTINUOUS
10
0.841332
20
0.573629
11
0.833268
21
0.572835
0
LINE
8
BLACK
6
CONTINUOUS
10
0.833268
20
0.572835
11
0.825203
21
0.573629
0
LINE
8
BLACK
6
CONTINUOUS
10
0.825203
20
0.573629
11
0.817448
21
0.575981
0
LINE
8
BLACK
6
CONTINUOUS
10
0.817448
20
0.575981
11
0.810301
21
0.579801
0
LINE
8
BLACK
6
CONTINUOUS
10
0.810301
20
0.579801
11
0.804037
21
0.584942
0
LINE
8
BLACK
6
CONTINUOUS
10
0.804037
20
0.584942
11
0.798896
21
0.591207
0
LINE
8
BLACK
6
CONTINUOUS
10
0.798896
20
0.591207
11
0.795076
21
0.598354
0
LINE
8
BLACK
6
CONTINUOUS
10
0.795076
20
0.598354
11
0.792723
21
0.606108
0
LINE
8
BLACK
6
CONTINUOUS
10
0.792723
20
0.606108
11
0.791929
21
0.614173
0
LINE
8
BLACK
6
CONTINUOUS
10
0.791929
20
0.614173
11
0.792723
21
0.622238
0
LINE
8
BLACK
6
CONTINUOUS
10
0.792723
20
0.622238
11
0.795076
21
0.629993
0
LINE
8
BLACK
6
CONTINUOUS
10
0.795076
20
0.629993
11
0.798896
21
0.63714
0
LINE
8
BLACK
6
CONTINUOUS
10
0.798896
20
0.63714
11
0.804037
21
0.643404
0
LINE
8
BLACK
6
CONTINUOUS
10
0.804037
20
0.643404
11
0.810301
21
0.648545
0
LINE
8
BLACK
6
CONTINUOUS
10
0.810301
20
0.648545
11
0.817448
21
0.652365
0
LINE
8
BLACK
6
CONTINUOUS
10
0.817448
20
0.652365
11
0.825203
21
0.654718
0
LINE
8
BLACK
6
CONTINUOUS
10
0.825203
20
0.654718
11
0.833268
21
0.655512
0
LINE
8
BLACK
6
CONTINUOUS
10
0.833268
20
0.655512
11
0.841332
21
0.654718
0
LINE
8
BLACK
6
CONTINUOUS
10
0.941332
20
0.654718
11
0.949087
21
0.652365
0
LINE
8
BLACK
6
CONTINUOUS
10
0.949087
20
0.652365
11
0.956234
21
0.648545
0
LINE
8
BLACK
6
CONTINUOUS
10
0.956234
20
0.648545
11
0.962499
21
0.643404
0
LINE
8
BLACK
6
CONTINUOUS
10
0.962499
20
0.643404
11
0.967639
21
0.63714
0
LINE
8
BLACK
6
CONTINUOUS
10
0.967639
20
0.63714
11
0.97146
21
0.629993
0
LINE
8
BLACK
6
CONTINUOUS
10
0.97146
20
0.629993
11
0.973812
21
0.622238
0
LINE
8
BLACK
6
CONTINUOUS
10
0.973812
20
0.622238
11
0.974606
21
0.614173
0
LINE
8
BLACK
6
CONTINUOUS
10
0.974606
20
0.614173
11
0.973812
21
0.606108
0
LINE
8
BLACK
6
CONTINUOUS
10
0.973812
20
0.606108
11
0.97146
21
0.598354
0
LINE
8
BLACK
6
CONTINUOUS
10
0.97146
20
0.598354
11
0.967639
21
0.591207
0
LINE
8
BLACK
6
CONTINUOUS
10
0.967639
20
0.591207
11
0.962499
21
0.584942
0
LINE
8
BLACK
6
CONTINUOUS
10
0.962499
20
0.584942
11
0.956234
21
0.579801
0
LINE
8
BLACK
6
CONTINUOUS
10
0.956234
20
0.579801
11
0.949087
21
0.575981
0
LINE
8
BLACK
6
CONTINUOUS
10
0.949087
20
0.575981
11
0.941332
21
0.573629
0
LINE
8
BLACK
6
CONTINUOUS
10
0.941332
20
0.573629
11
0.933268
21
0.572835
0
LINE
8
BLACK
6
CONTINUOUS
10
0.933268
20
0.572835
11
0.925203
21
0.573629
0
LINE
8
BLACK
6
CONTINUOUS
10
0.925203
20
0.573629
11
0.917448
21
0.575981
0
LINE
8
BLACK
6
CONTINUOUS
10
0.917448
20
0.575981
11
0.910301
21
0.579801
0
LINE
8
BLACK
6
CONTINUOUS
10
0.910301
20
0.579801
11
0.904037
21
0.584942
0
LINE
8
BLACK
6
CONTINUOUS
10
0.904037
20
0.584942
11
0.898896
21
0.591207
0
LINE
8
BLACK
6
CONTINUOUS
10
0.898896
20
0.591207
11
0.895076
21
0.598354
0
LINE
8
BLACK
6
CONTINUOUS
10
0.895076
20
0.598354
11
0.892723
21
0.606108
0
LINE
8
BLACK
6
CONTINUOUS
10
0.892723
20
0.606108
11
0.891929
21
0.614173
0
LINE
8
BLACK
6
CONTINUOUS
10
0.891929
20
0.614173
11
0.892723
21
0.622238
0
LINE
8
BLACK
6
CONTINUOUS
10
0.892723
20
0.622238
11
0.895076
21
0.629993
0
LINE
8
BLACK
6
CONTINUOUS
10
0.895076
20
0.629993
11
0.898896
21
0.63714
0
LINE
8
BLACK
6
CONTINUOUS
10
0.898896
20
0.63714
11
0.904037
21
0.643404
0
LINE
8
BLACK
6
CONTINUOUS
10
0.904037
20
0.643404
11
0.910301
21
0.648545
0
LINE
8
BLACK
6
CONTINUOUS
10
0.910301
20
0.648545
11
0.917448
21
0.652365
0
LINE
8
BLACK
6
CONTINUOUS
10
0.917448
20
0.652365
11
0.925203
21
0.654718
0
LINE
8
BLACK
6
CONTINUOUS
10
0.925203
20
0.654718
11
0.933268
21
0.655512
0
LINE
8
BLACK
6
CONTINUOUS
10
0.933268
20
0.655512
11
0.941332
21
0.654718
0
LINE
8
BLACK
6
CONTINUOUS
10
0.597782
20
0.722132
11
0.602767
21
0.720388
0
LINE
8
BLACK
6
CONTINUOUS
10
0.602767
20
0.720388
11
0.607016
21
0.717252
0
LINE
8
BLACK
6
CONTINUOUS
10
0.607016
20
0.717252
11
0.610152
21
0.713003
0
LINE
8
BLACK
6
CONTINUOUS
10
0.610152
20
0.713003
11
0.611896
21
0.708018
0
LINE
8
BLACK
6
CONTINUOUS
10
0.611896
20
0.708018
11
0.612205
21
0.704724
0
LINE
8
BLACK
6
CONTINUOUS
10
0.612205
20
0.704724
11
0.612205
21
0.625984
0
LINE
8
BLACK
6
CONTINUOUS
10
0.612205
20
0.625984
11
0.611896
21
0.622691
0
LINE
8
BLACK
6
CONTINUOUS
10
0.611896
20
0.622691
11
0.610152
21
0.617706
0
LINE
8
BLACK
6
CONTINUOUS
10
0.610152
20
0.617706
11
0.607016
21
0.613457
0
LINE
8
BLACK
6
CONTINUOUS
10
0.607016
20
0.613457
11
0.602767
21
0.610321
0
LINE
8
BLACK
6
CONTINUOUS
10
0.602767
20
0.610321
11
0.597782
21
0.608577
0
LINE
8
BLACK
6
CONTINUOUS
10
0.597782
20
0.608577
11
0.594488
21
0.608268
0
LINE
8
BLACK
6
CONTINUOUS
10
0.594488
20
0.608268
11
0.543307
21
0.608268
0
LINE
8
BLACK
6
CONTINUOUS
10
0.543307
20
0.608268
11
0.540013
21
0.608577
0
LINE
8
BLACK
6
CONTINUOUS
10
0.540013
20
0.608577
11
0.535029
21
0.610321
0
LINE
8
BLACK
6
CONTINUOUS
10
0.535029
20
0.610321
11
0.53078
21
0.613457
0
LINE
8
BLACK
6
CONTINUOUS
10
0.53078
20
0.613457
11
0.527644
21
0.617706
0
LINE
8
BLACK
6
CONTINUOUS
10
0.527644
20
0.617706
11
0.525899
21
0.622691
0
LINE
8
BLACK
6
CONTINUOUS
10
0.525899
20
0.622691
11
0.525591
21
0.625984
0
LINE
8
BLACK
6
CONTINUOUS
10
0.525591
20
0.625984
11
0.525591
21
0.704724
0
LINE
8
BLACK
6
CONTINUOUS
10
0.525591
20
0.704724
11
0.525899
21
0.708018
0
LINE
8
BLACK
6
CONTINUOUS
10
0.525899
20
0.708018
11
0.527644
21
0.713003
0
LINE
8
BLACK
6
CONTINUOUS
10
0.527644
20
0.713003
11
0.53078
21
0.717252
0
LINE
8
BLACK
6
CONTINUOUS
10
0.53078
20
0.717252
11
0.535029
21
0.720388
0
LINE
8
BLACK
6
CONTINUOUS
10
0.535029
20
0.720388
11
0.540013
21
0.722132
0
LINE
8
BLACK
6
CONTINUOUS
10
0.540013
20
0.722132
11
0.543307
21
0.722441
0
LINE
8
BLACK
6
CONTINUOUS
10
0.543307
20
0.722441
11
0.594488
21
0.722441
0
LINE
8
BLACK
6
CONTINUOUS
10
0.594488
20
0.722441
11
0.597782
21
0.722132
0
LINE
8
BLACK
6
CONTINUOUS
10
0.321451
20
0.751568
11
0.329205
21
0.749216
0
LINE
8
BLACK
6
CONTINUOUS
10
0.329205
20
0.749216
11
0.336352
21
0.745395
0
LINE
8
BLACK
6
CONTINUOUS
10
0.336352
20
0.745395
11
0.342617
21
0.740254
0
LINE
8
BLACK
6
CONTINUOUS
10
0.342617
20
0.740254
11
0.347758
21
0.73399
0
LINE
8
BLACK
6
CONTINUOUS
10
0.347758
20
0.73399
11
0.351578
21
0.726843
0
LINE
8
BLACK
6
CONTINUOUS
10
0.351578
20
0.726843
11
0.35393
21
0.719088
0
LINE
8
BLACK
6
CONTINUOUS
10
0.35393
20
0.719088
11
0.354724
21
0.711024
0
LINE
8
BLACK
6
CONTINUOUS
10
0.354724
20
0.711024
11
0.35393
21
0.702959
0
LINE
8
BLACK
6
CONTINUOUS
10
0.35393
20
0.702959
11
0.351578
21
0.695204
0
LINE
8
BLACK
6
CONTINUOUS
10
0.351578
20
0.695204
11
0.347758
21
0.688057
0
LINE
8
BLACK
6
CONTINUOUS
10
0.347758
20
0.688057
11
0.342617
21
0.681793
0
LINE
8
BLACK
6
CONTINUOUS
10
0.342617
20
0.681793
11
0.336352
21
0.676652
0
LINE
8
BLACK
6
CONTINUOUS
10
0.336352
20
0.676652
11
0.329205
21
0.672832
0
LINE
8
BLACK
6
CONTINUOUS
10
0.329205
20
0.672832
11
0.321451
21
0.670479
0
LINE
8
BLACK
6
CONTINUOUS
10
0.321451
20
0.670479
11
0.313386
21
0.669685
0
LINE
8
BLACK
6
CONTINUOUS
10
0.313386
20
0.669685
11
0.305321
21
0.670479
0
LINE
8
BLACK
6
CONTINUOUS
10
0.305321
20
0.670479
11
0.297566
21
0.672832
0
LINE
8
BLACK
6
CONTINUOUS
10
0.297566
20
0.672832
11
0.290419
21
0.676652
0
LINE
8
BLACK
6
CONTINUOUS
10
0.290419
20
0.676652
11
0.284155
21
0.681793
0
LINE
8
BLACK
6
CONTINUOUS
10
0.284155
20
0.681793
11
0.279014
21
0.688057
0
LINE
8
BLACK
6
CONTINUOUS
10
0.279014
20
0.688057
11
0.275194
21
0.695204
0
LINE
8
BLACK
6
CONTINUOUS
10
0.275194
20
0.695204
11
0.272842
21
0.702959
0
LINE
8
BLACK
6
CONTINUOUS
10
0.272842
20
0.702959
11
0.272047
21
0.711024
0
LINE
8
BLACK
6
CONTINUOUS
10
0.272047
20
0.711024
11
0.272842
21
0.719088
0
LINE
8
BLACK
6
CONTINUOUS
10
0.272842
20
0.719088
11
0.275194
21
0.726843
0
LINE
8
BLACK
6
CONTINUOUS
10
0.275194
20
0.726843
11
0.279014
21
0.73399
0
LINE
8
BLACK
6
CONTINUOUS
10
0.279014
20
0.73399
11
0.284155
21
0.740254
0
LINE
8
BLACK
6
CONTINUOUS
10
0.284155
20
0.740254
11
0.290419
21
0.745395
0
LINE
8
BLACK
6
CONTINUOUS
10
0.290419
20
0.745395
11
0.297566
21
0.749216
0
LINE
8
BLACK
6
CONTINUOUS
10
0.297566
20
0.749216
11
0.305321
21
0.751568
0
LINE
8
BLACK
6
CONTINUOUS
10
0.305321
20
0.751568
11
0.313386
21
0.752362
0
LINE
8
BLACK
6
CONTINUOUS
10
0.313386
20
0.752362
11
0.321451
21
0.751568
0
LINE
8
BLACK
6
CONTINUOUS
10
0.421451
20
0.751568
11
0.429205
21
0.749216
0
LINE
8
BLACK
6
CONTINUOUS
10
0.429205
20
0.749216
11
0.436352
21
0.745395
0
LINE
8
BLACK
6
CONTINUOUS
10
0.436352
20
0.745395
11
0.442617
21
0.740254
0
LINE
8
BLACK
6
CONTINUOUS
10
0.442617
20
0.740254
11
0.447758
21
0.73399
0
LINE
8
BLACK
6
CONTINUOUS
10
0.447758
20
0.73399
11
0.451578
21
0.726843
0
LINE
8
BLACK
6
CONTINUOUS
10
0.451578
20
0.726843
11
0.45393
21
0.719088
0
LINE
8
BLACK
6
CONTINUOUS
10
0.45393
20
0.719088
11
0.454724
21
0.711024
0
LINE
8
BLACK
6
CONTINUOUS
10
0.454724
20
0.711024
11
0.45393
21
0.702959
0
LINE
8
BLACK
6
CONTINUOUS
10
0.45393
20
0.702959
11
0.451578
21
0.695204
0
LINE
8
BLACK
6
CONTINUOUS
10
0.451578
20
0.695204
11
0.447758
21
0.688057
0
LINE
8
BLACK
6
CONTINUOUS
10
0.447758
20
0.688057
11
0.442617
21
0.681793
0
LINE
8
BLACK
6
CONTINUOUS
10
0.442617
20
0.681793
11
0.436352
21
0.676652
0
LINE
8
BLACK
6
CONTINUOUS
10
0.436352
20
0.676652
11
0.429205
21
0.672832
0
LINE
8
BLACK
6
CONTINUOUS
10
0.429205
20
0.672832
11
0.421451
21
0.670479
0
LINE
8
BLACK
6
CONTINUOUS
10
0.421451
20
0.670479
11
0.413386
21
0.669685
0
LINE
8
BLACK
6
CONTINUOUS
10
0.413386
20
0.669685
11
0.405321
21
0.670479
0
LINE
8
BLACK
6
CONTINUOUS
10
0.405321
20
0.670479
11
0.397566
21
0.672832
0
LINE
8
BLACK
6
CONTINUOUS
10
0.397566
20
0.672832
11
0.390419
21
0.676652
0
LINE
8
BLACK
6
CONTINUOUS
10
0.390419
20
0.676652
11
0.384155
21
0.681793
0
LINE
8
BLACK
6
CONTINUOUS
10
0.384155
20
0.681793
11
0.379014
21
0.688057
0
LINE
8
BLACK
6
CONTINUOUS
10
0.379014
20
0.688057
11
0.375194
21
0.695204
0
LINE
8
BLACK
6
CONTINUOUS
10
0.375194
20
0.695204
11
0.372842
21
0.702959
0
LINE
8
BLACK
6
CONTINUOUS
10
0.372842
20
0.702959
11
0.372047
21
0.711024
0
LINE
8
BLACK
6
CONTINUOUS
10
0.372047
20
0.711024
11
0.372842
21
0.719088
0
LINE
8
BLACK
6
CONTINUOUS
10
0.372842
20
0.719088
11
0.375194
21
0.726843
0
LINE
8
BLACK
6
CONTINUOUS
10
0.375194
20
0.726843
11
0.379014
21
0.73399
0
LINE
8
BLACK
6
CONTINUOUS
10
0.379014
20
0.73399
11
0.384155
21
0.740254
0
LINE
8
BLACK
6
CONTINUOUS
10
0.384155
20
0.740254
11
0.390419
21
0.745395
0
LINE
8
BLACK
6
CONTINUOUS
10
0.390419
20
0.745395
11
0.397566
21
0.749216
0
LINE
8
BLACK
6
CONTINUOUS
10
0.397566
20
0.749216
11
0.405321
21
0.751568
0
LINE
8
BLACK
6
CONTINUOUS
10
0.405321
20
0.751568
11
0.413386
21
0.752362
0
LINE
8
BLACK
6
CONTINUOUS
10
0.413386
20
0.752362
11
0.421451
21
0.751568
0
LINE
8
BLACK
6
CONTINUOUS
10
1.11747
20
0.740341
11
1.12245
21
0.738597
0
LINE
8
BLACK
6
CONTINUOUS
10
1.12245
20
0.738597
11
1.1267
21
0.735461
0
LINE
8
BLACK
6
CONTINUOUS
10
1.1267
20
0.735461
11
1.12984
21
0.731211
0
LINE
8
BLACK
6
CONTINUOUS
10
1.12984
20
0.731211
11
1.13158
21
0.726227
0
LINE
8
BLACK
6
CONTINUOUS
10
1.13158
20
0.726227
11
1.13189
21
0.722933
0
LINE
8
BLACK
6
CONTINUOUS
10
1.13189
20
0.722933
11
1.13189
21
0.702264
0
LINE
8
BLACK
6
CONTINUOUS
10
1.13189
20
0.702264
11
1.13158
21
0.69897
0
LINE
8
BLACK
6
CONTINUOUS
10
1.13158
20
0.69897
11
1.12984
21
0.693985
0
LINE
8
BLACK
6
CONTINUOUS
10
1.12984
20
0.693985
11
1.1267
21
0.689736
0
LINE
8
BLACK
6
CONTINUOUS
10
1.1267
20
0.689736
11
1.12245
21
0.6866
0
LINE
8
BLACK
6
CONTINUOUS
10
1.12245
20
0.6866
11
1.11747
21
0.684856
0
LINE
8
BLACK
6
CONTINUOUS
10
1.11747
20
0.684856
11
1.11417
21
0.684547
0
LINE
8
BLACK
6
CONTINUOUS
10
1.11417
20
0.684547
11
1.07874
21
0.684547
0
LINE
8
BLACK
6
CONTINUOUS
10
1.07874
20
0.684547
11
1.07545
21
0.684856
0
LINE
8
BLACK
6
CONTINUOUS
10
1.07545
20
0.684856
11
1.07046
21
0.6866
0
LINE
8
BLACK
6
CONTINUOUS
10
1.07046
20
0.6866
11
1.06621
21
0.689736
0
LINE
8
BLACK
6
CONTINUOUS
10
1.06621
20
0.689736
11
1.06308
21
0.693985
0
LINE
8
BLACK
6
CONTINUOUS
10
1.06308
20
0.693985
11
1.06133
21
0.69897
0
LINE
8
BLACK
6
CONTINUOUS
10
1.06133
20
0.69897
11
1.06102
21
0.702264
0
LINE
8
BLACK
6
CONTINUOUS
10
1.06102
20
0.702264
11
1.06102
21
0.722933
0
LINE
8
BLACK
6
CONTINUOUS
10
1.06102
20
0.722933
11
1.06133
21
0.726227
0
LINE
8
BLACK
6
CONTINUOUS
10
1.06133
20
0.726227
11
1.06308
21
0.731211
0
LINE
8
BLACK
6
CONTINUOUS
10
1.06308
20
0.731211
11
1.06621
21
0.735461
0
LINE
8
BLACK
6
CONTINUOUS
10
1.06621
20
0.735461
11
1.07046
21
0.738597
0
LINE
8
BLACK
6
CONTINUOUS
10
1.07046
20
0.738597
11
1.07545
21
0.740341
0
LINE
8
BLACK
6
CONTINUOUS
10
1.07545
20
0.740341
11
1.07874
21
0.74065
0
LINE
8
BLACK
6
CONTINUOUS
10
1.07874
20
0.74065
11
1.11417
21
0.74065
0
LINE
8
BLACK
6
CONTINUOUS
10
1.11417
20
0.74065
11
1.11747
21
0.740341
0
LINE
8
BLACK
6
CONTINUOUS
10
1.21673
20
0.771647
11
1.22448
21
0.769294
0
LINE
8
BLACK
6
CONTINUOUS
10
1.22448
20
0.769294
11
1.23163
21
0.765474
0
LINE
8
BLACK
6
CONTINUOUS
10
1.23163
20
0.765474
11
1.23789
21
0.760333
0
LINE
8
BLACK
6
CONTINUOUS
10
1.23789
20
0.760333
11
1.24303
21
0.754069
0
LINE
8
BLACK
6
CONTINUOUS
10
1.24303
20
0.754069
11
1.24685
21
0.746922
0
LINE
8
BLACK
6
CONTINUOUS
10
1.24685
20
0.746922
11
1.24921
21
0.739167
0
LINE
8
BLACK
6
CONTINUOUS
10
1.24921
20
0.739167
11
1.25
21
0.731102
0
LINE
8
BLACK
6
CONTINUOUS
10
1.25
20
0.731102
11
1.24921
21
0.723038
0
LINE
8
BLACK
6
CONTINUOUS
10
1.24921
20
0.723038
11
1.24685
21
0.715283
0
LINE
8
BLACK
6
CONTINUOUS
10
1.24685
20
0.715283
11
1.24303
21
0.708136
0
LINE
8
BLACK
6
CONTINUOUS
10
1.24303
20
0.708136
11
1.23789
21
0.701872
0
LINE
8
BLACK
6
CONTINUOUS
10
1.23789
20
0.701872
11
1.23163
21
0.696731
0
LINE
8
BLACK
6
CONTINUOUS
10
1.23163
20
0.696731
11
1.22448
21
0.69291
0
LINE
8
BLACK
6
CONTINUOUS
10
1.22448
20
0.69291
11
1.21673
21
0.690558
0
LINE
8
BLACK
6
CONTINUOUS
10
1.21673
20
0.690558
11
1.20866
21
0.689764
0
LINE
8
BLACK
6
CONTINUOUS
10
1.20866
20
0.689764
11
1.2006
21
0.690558
0
LINE
8
BLACK
6
CONTINUOUS
10
1.2006
20
0.690558
11
1.19284
21
0.69291
0
LINE
8
BLACK
6
CONTINUOUS
10
1.19284
20
0.69291
11
1.18569
21
0.696731
0
LINE
8
BLACK
6
CONTINUOUS
10
1.18569
20
0.696731
11
1.17943
21
0.701872
0
LINE
8
BLACK
6
CONTINUOUS
10
1.17943
20
0.701872
11
1.17429
21
0.708136
0
LINE
8
BLACK
6
CONTINUOUS
10
1.17429
20
0.708136
11
1.17047
21
0.715283
0
LINE
8
BLACK
6
CONTINUOUS
10
1.17047
20
0.715283
11
1.16812
21
0.723038
0
LINE
8
BLACK
6
CONTINUOUS
10
1.16812
20
0.723038
11
1.16732
21
0.731102
0
LINE
8
BLACK
6
CONTINUOUS
10
1.16732
20
0.731102
11
1.16812
21
0.739167
0
LINE
8
BLACK
6
CONTINUOUS
10
1.16812
20
0.739167
11
1.17047
21
0.746922
0
LINE
8
BLACK
6
CONTINUOUS
10
1.17047
20
0.746922
11
1.17429
21
0.754069
0
LINE
8
BLACK
6
CONTINUOUS
10
1.17429
20
0.754069
11
1.17943
21
0.760333
0
LINE
8
BLACK
6
CONTINUOUS
10
1.17943
20
0.760333
11
1.18569
21
0.765474
0
LINE
8
BLACK
6
CONTINUOUS
10
1.18569
20
0.765474
11
1.19284
21
0.769294
0
LINE
8
BLACK
6
CONTINUOUS
10
1.19284
20
0.769294
11
1.2006
21
0.771647
0
LINE
8
BLACK
6
CONTINUOUS
10
1.2006
20
0.771647
11
1.20866
21
0.772441
0
LINE
8
BLACK
6
CONTINUOUS
10
1.20866
20
0.772441
11
1.21673
21
0.771647
0
LINE
8
BLACK
6
CONTINUOUS
10
0.768176
20
0.82162
11
0.77316
21
0.819876
0
LINE
8
BLACK
6
CONTINUOUS
10
0.77316
20
0.819876
11
0.777409
21
0.81674
0
LINE
8
BLACK
6
CONTINUOUS
10
0.777409
20
0.81674
11
0.780545
21
0.812491
0
LINE
8
BLACK
6
CONTINUOUS
10
0.780545
20
0.812491
11
0.78229
21
0.807506
0
LINE
8
BLACK
6
CONTINUOUS
10
0.78229
20
0.807506
11
0.782598
21
0.804213
0
LINE
8
BLACK
6
CONTINUOUS
10
0.782598
20
0.804213
11
0.782598
21
0.737283
0
LINE
8
BLACK
6
CONTINUOUS
10
0.782598
20
0.737283
11
0.78229
21
0.73399
0
LINE
8
BLACK
6
CONTINUOUS
10
0.78229
20
0.73399
11
0.780545
21
0.729005
0
LINE
8
BLACK
6
CONTINUOUS
10
0.780545
20
0.729005
11
0.777409
21
0.724756
0
LINE
8
BLACK
6
CONTINUOUS
10
0.777409
20
0.724756
11
0.77316
21
0.72162
0
LINE
8
BLACK
6
CONTINUOUS
10
0.77316
20
0.72162
11
0.768176
21
0.719876
0
LINE
8
BLACK
6
CONTINUOUS
10
0.768176
20
0.719876
11
0.764882
21
0.719567
0
LINE
8
BLACK
6
CONTINUOUS
10
0.764882
20
0.719567
11
0.735354
21
0.719567
0
LINE
8
BLACK
6
CONTINUOUS
10
0.735354
20
0.719567
11
0.732061
21
0.719876
0
LINE
8
BLACK
6
CONTINUOUS
10
0.732061
20
0.719876
11
0.727076
21
0.72162
0
LINE
8
BLACK
6
CONTINUOUS
10
0.727076
20
0.72162
11
0.722827
21
0.724756
0
LINE
8
BLACK
6
CONTINUOUS
10
0.722827
20
0.724756
11
0.719691
21
0.729005
0
LINE
8
BLACK
6
CONTINUOUS
10
0.719691
20
0.729005
11
0.717947
21
0.73399
0
LINE
8
BLACK
6
CONTINUOUS
10
0.717947
20
0.73399
11
0.717638
21
0.737283
0
LINE
8
BLACK
6
CONTINUOUS
10
0.717638
20
0.737283
11
0.717638
21
0.804213
0
LINE
8
BLACK
6
CONTINUOUS
10
0.717638
20
0.804213
11
0.717947
21
0.807506
0
LINE
8
BLACK
6
CONTINUOUS
10
0.717947
20
0.807506
11
0.719691
21
0.812491
0
LINE
8
BLACK
6
CONTINUOUS
10
0.719691
20
0.812491
11
0.722827
21
0.81674
0
LINE
8
BLACK
6
CONTINUOUS
10
0.722827
20
0.81674
11
0.727076
21
0.819876
0
LINE
8
BLACK
6
CONTINUOUS
10
0.727076
20
0.819876
11
0.732061
21
0.82162
0
LINE
8
BLACK
6
CONTINUOUS
10
0.732061
20
0.82162
11
0.735354
21
0.821929
0
LINE
8
BLACK
6
CONTINUOUS
10
0.735354
20
0.821929
11
0.764882
21
0.821929
0
LINE
8
BLACK
6
CONTINUOUS
10
0.764882
20
0.821929
11
0.768176
21
0.82162
0
LINE
8
BLACK
6
CONTINUOUS
10
0.852821
20
0.82162
11
0.857806
21
0.819876
0
LINE
8
BLACK
6
CONTINUOUS
10
0.857806
20
0.819876
11
0.862055
21
0.81674
0
LINE
8
BLACK
6
CONTINUOUS
10
0.862055
20
0.81674
11
0.865191
21
0.812491
0
LINE
8
BLACK
6
CONTINUOUS
10
0.865191
20
0.812491
11
0.866935
21
0.807506
0
LINE
8
BLACK
6
CONTINUOUS
10
0.866935
20
0.807506
11
0.867244
21
0.804213
0
LINE
8
BLACK
6
CONTINUOUS
10
0.867244
20
0.804213
11
0.867244
21
0.737283
0
LINE
8
BLACK
6
CONTINUOUS
10
0.867244
20
0.737283
11
0.866935
21
0.73399
0
LINE
8
BLACK
6
CONTINUOUS
10
0.866935
20
0.73399
11
0.865191
21
0.729005
0
LINE
8
BLACK
6
CONTINUOUS
10
0.865191
20
0.729005
11
0.862055
21
0.724756
0
LINE
8
BLACK
6
CONTINUOUS
10
0.862055
20
0.724756
11
0.857806
21
0.72162
0
LINE
8
BLACK
6
CONTINUOUS
10
0.857806
20
0.72162
11
0.852821
21
0.719876
0
LINE
8
BLACK
6
CONTINUOUS
10
0.852821
20
0.719876
11
0.849528
21
0.719567
0
LINE
8
BLACK
6
CONTINUOUS
10
0.849528
20
0.719567
11
0.82
21
0.719567
0
LINE
8
BLACK
6
CONTINUOUS
10
0.82
20
0.719567
11
0.816706
21
0.719876
0
LINE
8
BLACK
6
CONTINUOUS
10
0.816706
20
0.719876
11
0.811722
21
0.72162
0
LINE
8
BLACK
6
CONTINUOUS
10
0.811722
20
0.72162
11
0.807473
21
0.724756
0
LINE
8
BLACK
6
CONTINUOUS
10
0.807473
20
0.724756
11
0.804337
21
0.729005
0
LINE
8
BLACK
6
CONTINUOUS
10
0.804337
20
0.729005
11
0.802592
21
0.73399
0
LINE
8
BLACK
6
CONTINUOUS
10
0.802592
20
0.73399
11
0.802283
21
0.737283
0
LINE
8
BLACK
6
CONTINUOUS
10
0.802283
20
0.737283
11
0.802283
21
0.804213
0
LINE
8
BLACK
6
CONTINUOUS
10
0.802283
20
0.804213
11
0.802592
21
0.807506
0
LINE
8
BLACK
6
CONTINUOUS
10
0.802592
20
0.807506
11
0.804337
21
0.812491
0
LINE
8
BLACK
6
CONTINUOUS
10
0.804337
20
0.812491
11
0.807473
21
0.81674
0
LINE
8
BLACK
6
CONTINUOUS
10
0.807473
20
0.81674
11
0.811722
21
0.819876
0
LINE
8
BLACK
6
CONTINUOUS
10
0.811722
20
0.819876
11
0.816706
21
0.82162
0
LINE
8
BLACK
6
CONTINUOUS
10
0.816706
20
0.82162
11
0.82
21
0.821929
0
LINE
8
BLACK
6
CONTINUOUS
10
0.82
20
0.821929
11
0.849528
21
0.821929
0
LINE
8
BLACK
6
CONTINUOUS
10
0.849528
20
0.821929
11
0.852821
21
0.82162
0
LINE
8
BLACK
6
CONTINUOUS
10
1.11747
20
0.812191
11
1.12245
21
0.810447
0
LINE
8
BLACK
6
CONTINUOUS
10
1.12245
20
0.810447
11
1.1267
21
0.807311
0
LINE
8
BLACK
6
CONTINUOUS
10
1.1267
20
0.807311
11
1.12984
21
0.803062
0
LINE
8
BLACK
6
CONTINUOUS
10
1.12984
20
0.803062
11
1.13158
21
0.798077
0
LINE
8
BLACK
6
CONTINUOUS
10
1.13158
20
0.798077
11
1.13189
21
0.794783
0
LINE
8
BLACK
6
CONTINUOUS
10
1.13189
20
0.794783
11
1.13189
21
0.774114
0
LINE
8
BLACK
6
CONTINUOUS
10
1.13189
20
0.774114
11
1.13158
21
0.77082
0
LINE
8
BLACK
6
CONTINUOUS
10
1.13158
20
0.77082
11
1.12984
21
0.765836
0
LINE
8
BLACK
6
CONTINUOUS
10
1.12984
20
0.765836
11
1.1267
21
0.761587
0
LINE
8
BLACK
6
CONTINUOUS
10
1.1267
20
0.761587
11
1.12245
21
0.758451
0
LINE
8
BLACK
6
CONTINUOUS
10
1.12245
20
0.758451
11
1.11747
21
0.756706
0
LINE
8
BLACK
6
CONTINUOUS
10
1.11747
20
0.756706
11
1.11417
21
0.756398
0
LINE
8
BLACK
6
CONTINUOUS
10
1.11417
20
0.756398
11
1.07874
21
0.756398
0
LINE
8
BLACK
6
CONTINUOUS
10
1.07874
20
0.756398
11
1.07545
21
0.756706
0
LINE
8
BLACK
6
CONTINUOUS
10
1.07545
20
0.756706
11
1.07046
21
0.758451
0
LINE
8
BLACK
6
CONTINUOUS
10
1.07046
20
0.758451
11
1.06621
21
0.761587
0
LINE
8
BLACK
6
CONTINUOUS
10
1.06621
20
0.761587
11
1.06308
21
0.765836
0
LINE
8
BLACK
6
CONTINUOUS
10
1.06308
20
0.765836
11
1.06133
21
0.77082
0
LINE
8
BLACK
6
CONTINUOUS
10
1.06133
20
0.77082
11
1.06102
21
0.774114
0
LINE
8
BLACK
6
CONTINUOUS
10
1.06102
20
0.774114
11
1.06102
21
0.794783
0
LINE
8
BLACK
6
CONTINUOUS
10
1.06102
20
0.794783
11
1.06133
21
0.798077
0
LINE
8
BLACK
6
CONTINUOUS
10
1.06133
20
0.798077
11
1.06308
21
0.803062
0
LINE
8
BLACK
6
CONTINUOUS
10
1.06308
20
0.803062
11
1.06621
21
0.807311
0
LINE
8
BLACK
6
CONTINUOUS
10
1.06621
20
0.807311
11
1.07046
21
0.810447
0
LINE
8
BLACK
6
CONTINUOUS
10
1.07046
20
0.810447
11
1.07545
21
0.812191
0
LINE
8
BLACK
6
CONTINUOUS
10
1.07545
20
0.812191
11
1.07874
21
0.8125
0
LINE
8
BLACK
6
CONTINUOUS
10
1.07874
20
0.8125
11
1.11417
21
0.8125
0
LINE
8
BLACK
6
CONTINUOUS
10
1.11417
20
0.8125
11
1.11747
21
0.812191
0
LINE
8
BLACK
6
CONTINUOUS
10
0.948176
20
0.8304
11
0.95316
21
0.828656
0
LINE
8
BLACK
6
CONTINUOUS
10
0.95316
20
0.828656
11
0.957409
21
0.82552
0
LINE
8
BLACK
6
CONTINUOUS
10
0.957409
20
0.82552
11
0.960545
21
0.821271
0
LINE
8
BLACK
6
CONTINUOUS
10
0.960545
20
0.821271
11
0.96229
21
0.816286
0
LINE
8
BLACK
6
CONTINUOUS
10
0.96229
20
0.816286
11
0.962598
21
0.812992
0
LINE
8
BLACK
6
CONTINUOUS
10
0.962598
20
0.812992
11
0.962598
21
0.775591
0
LINE
8
BLACK
6
CONTINUOUS
10
0.962598
20
0.775591
11
0.96229
21
0.772297
0
LINE
8
BLACK
6
CONTINUOUS
10
0.96229
20
0.772297
11
0.960545
21
0.767312
0
LINE
8
BLACK
6
CONTINUOUS
10
0.960545
20
0.767312
11
0.957409
21
0.763063
0
LINE
8
BLACK
6
CONTINUOUS
10
0.957409
20
0.763063
11
0.95316
21
0.759927
0
LINE
8
BLACK
6
CONTINUOUS
10
0.95316
20
0.759927
11
0.948176
21
0.758183
0
LINE
8
BLACK
6
CONTINUOUS
10
0.948176
20
0.758183
11
0.944882
21
0.757874
0
LINE
8
BLACK
6
CONTINUOUS
10
0.944882
20
0.757874
11
0.925197
21
0.757874
0
LINE
8
BLACK
6
CONTINUOUS
10
0.925197
20
0.757874
11
0.921903
21
0.758183
0
LINE
8
BLACK
6
CONTINUOUS
10
0.921903
20
0.758183
11
0.916918
21
0.759927
0
LINE
8
BLACK
6
CONTINUOUS
10
0.916918
20
0.759927
11
0.912669
21
0.763063
0
LINE
8
BLACK
6
CONTINUOUS
10
0.912669
20
0.763063
11
0.909533
21
0.767312
0
LINE
8
BLACK
6
CONTINUOUS
10
0.909533
20
0.767312
11
0.907789
21
0.772297
0
LINE
8
BLACK
6
CONTINUOUS
10
0.907789
20
0.772297
11
0.90748
21
0.775591
0
LINE
8
BLACK
6
CONTINUOUS
10
0.90748
20
0.775591
11
0.90748
21
0.812992
0
LINE
8
BLACK
6
CONTINUOUS
10
0.90748
20
0.812992
11
0.907789
21
0.816286
0
LINE
8
BLACK
6
CONTINUOUS
10
0.907789
20
0.816286
11
0.909533
21
0.821271
0
LINE
8
BLACK
6
CONTINUOUS
10
0.909533
20
0.821271
11
0.912669
21
0.82552
0
LINE
8
BLACK
6
CONTINUOUS
10
0.912669
20
0.82552
11
0.916918
21
0.828656
0
LINE
8
BLACK
6
CONTINUOUS
10
0.916918
20
0.828656
11
0.921903
21
0.8304
0
LINE
8
BLACK
6
CONTINUOUS
10
0.921903
20
0.8304
11
0.925197
21
0.830709
0
LINE
8
BLACK
6
CONTINUOUS
10
0.925197
20
0.830709
11
0.944882
21
0.830709
0
LINE
8
BLACK
6
CONTINUOUS
10
0.944882
20
0.830709
11
0.948176
21
0.8304
0
LINE
8
BLACK
6
CONTINUOUS
10
1.02298
20
0.8304
11
1.02796
21
0.828656
0
LINE
8
BLACK
6
CONTINUOUS
10
1.02796
20
0.828656
11
1.03221
21
0.82552
0
LINE
8
BLACK
6
CONTINUOUS
10
1.03221
20
0.82552
11
1.03535
21
0.821271
0
LINE
8
BLACK
6
CONTINUOUS
10
1.03535
20
0.821271
11
1.03709
21
0.816286
0
LINE
8
BLACK
6
CONTINUOUS
10
1.03709
20
0.816286
11
1.0374
21
0.812992
0
LINE
8
BLACK
6
CONTINUOUS
10
1.0374
20
0.812992
11
1.0374
21
0.775591
0
LINE
8
BLACK
6
CONTINUOUS
10
1.0374
20
0.775591
11
1.03709
21
0.772297
0
LINE
8
BLACK
6
CONTINUOUS
10
1.03709
20
0.772297
11
1.03535
21
0.767312
0
LINE
8
BLACK
6
CONTINUOUS
10
1.03535
20
0.767312
11
1.03221
21
0.763063
0
LINE
8
BLACK
6
CONTINUOUS
10
1.03221
20
0.763063
11
1.02796
21
0.759927
0
LINE
8
BLACK
6
CONTINUOUS
10
1.02796
20
0.759927
11
1.02298
21
0.758183
0
LINE
8
BLACK
6
CONTINUOUS
10
1.02298
20
0.758183
11
1.01969
21
0.757874
0
LINE
8
BLACK
6
CONTINUOUS
10
1.01969
20
0.757874
11
1
21
0.757874
0
LINE
8
BLACK
6
CONTINUOUS
10
1
20
0.757874
11
0.996706
21
0.758183
0
LINE
8
BLACK
6
CONTINUOUS
10
0.996706
20
0.758183
11
0.991722
21
0.759927
0
LINE
8
BLACK
6
CONTINUOUS
10
0.991722
20
0.759927
11
0.987473
21
0.763063
0
LINE
8
BLACK
6
CONTINUOUS
10
0.987473
20
0.763063
11
0.984337
21
0.767312
0
LINE
8
BLACK
6
CONTINUOUS
10
0.984337
20
0.767312
11
0.982592
21
0.772297
0
LINE
8
BLACK
6
CONTINUOUS
10
0.982592
20
0.772297
11
0.982283
21
0.775591
0
LINE
8
BLACK
6
CONTINUOUS
10
0.982283
20
0.775591
11
0.982283
21
0.812992
0
LINE
8
BLACK
6
CONTINUOUS
10
0.982283
20
0.812992
11
0.982592
21
0.816286
0
LINE
8
BLACK
6
CONTINUOUS
10
0.982592
20
0.816286
11
0.984337
21
0.821271
0
LINE
8
BLACK
6
CONTINUOUS
10
0.984337
20
0.821271
11
0.987473
21
0.82552
0
LINE
8
BLACK
6
CONTINUOUS
10
0.987473
20
0.82552
11
0.991722
21
0.828656
0
LINE
8
BLACK
6
CONTINUOUS
10
0.991722
20
0.828656
11
0.996706
21
0.8304
0
LINE
8
BLACK
6
CONTINUOUS
10
0.996706
20
0.8304
11
1
21
0.830709
0
LINE
8
BLACK
6
CONTINUOUS
10
1
20
0.830709
11
1.01969
21
0.830709
0
LINE
8
BLACK
6
CONTINUOUS
10
1.01969
20
0.830709
11
1.02298
21
0.8304
0
LINE
8
BLACK
6
CONTINUOUS
10
0.597782
20
0.879612
11
0.602767
21
0.877868
0
LINE
8
BLACK
6
CONTINUOUS
10
0.602767
20
0.877868
11
0.607016
21
0.874732
0
LINE
8
BLACK
6
CONTINUOUS
10
0.607016
20
0.874732
11
0.610152
21
0.870483
0
LINE
8
BLACK
6
CONTINUOUS
10
0.610152
20
0.870483
11
0.611896
21
0.865498
0
LINE
8
BLACK
6
CONTINUOUS
10
0.611896
20
0.865498
11
0.612205
21
0.862205
0
LINE
8
BLACK
6
CONTINUOUS
10
0.612205
20
0.862205
11
0.612205
21
0.783465
0
LINE
8
BLACK
6
CONTINUOUS
10
0.612205
20
0.783465
11
0.611896
21
0.780171
0
LINE
8
BLACK
6
CONTINUOUS
10
0.611896
20
0.780171
11
0.610152
21
0.775186
0
LINE
8
BLACK
6
CONTINUOUS
10
0.610152
20
0.775186
11
0.607016
21
0.770937
0
LINE
8
BLACK
6
CONTINUOUS
10
0.607016
20
0.770937
11
0.602767
21
0.767801
0
LINE
8
BLACK
6
CONTINUOUS
10
0.602767
20
0.767801
11
0.597782
21
0.766057
0
LINE
8
BLACK
6
CONTINUOUS
10
0.597782
20
0.766057
11
0.594488
21
0.765748
0
LINE
8
BLACK
6
CONTINUOUS
10
0.594488
20
0.765748
11
0.543307
21
0.765748
0
LINE
8
BLACK
6
CONTINUOUS
10
0.543307
20
0.765748
11
0.540013
21
0.766057
0
LINE
8
BLACK
6
CONTINUOUS
10
0.540013
20
0.766057
11
0.535029
21
0.767801
0
LINE
8
BLACK
6
CONTINUOUS
10
0.535029
20
0.767801
11
0.53078
21
0.770937
0
LINE
8
BLACK
6
CONTINUOUS
10
0.53078
20
0.770937
11
0.527644
21
0.775186
0
LINE
8
BLACK
6
CONTINUOUS
10
0.527644
20
0.775186
11
0.525899
21
0.780171
0
LINE
8
BLACK
6
CONTINUOUS
10
0.525899
20
0.780171
11
0.525591
21
0.783465
0
LINE
8
BLACK
6
CONTINUOUS
10
0.525591
20
0.783465
11
0.525591
21
0.862205
0
LINE
8
BLACK
6
CONTINUOUS
10
0.525591
20
0.862205
11
0.525899
21
0.865498
0
LINE
8
BLACK
6
CONTINUOUS
10
0.525899
20
0.865498
11
0.527644
21
0.870483
0
LINE
8
BLACK
6
CONTINUOUS
10
0.527644
20
0.870483
11
0.53078
21
0.874732
0
LINE
8
BLACK
6
CONTINUOUS
10
0.53078
20
0.874732
11
0.535029
21
0.877868
0
LINE
8
BLACK
6
CONTINUOUS
10
0.535029
20
0.877868
11
0.540013
21
0.879612
0
LINE
8
BLACK
6
CONTINUOUS
10
0.540013
20
0.879612
11
0.543307
21
0.879921
0
LINE
8
BLACK
6
CONTINUOUS
10
0.543307
20
0.879921
11
0.594488
21
0.879921
0
LINE
8
BLACK
6
CONTINUOUS
10
0.594488
20
0.879921
11
0.597782
21
0.879612
0
LINE
8
BLACK
6
CONTINUOUS
10
0.321451
20
0.851568
11
0.329205
21
0.849216
0
LINE
8
BLACK
6
CONTINUOUS
10
0.329205
20
0.849216
11
0.336352
21
0.845395
0
LINE
8
BLACK
6
CONTINUOUS
10
0.336352
20
0.845395
11
0.342617
21
0.840254
0
LINE
8
BLACK
6
CONTINUOUS
10
0.342617
20
0.840254
11
0.347758
21
0.83399
0
LINE
8
BLACK
6
CONTINUOUS
10
0.347758
20
0.83399
11
0.351578
21
0.826843
0
LINE
8
BLACK
6
CONTINUOUS
10
0.351578
20
0.826843
11
0.35393
21
0.819088
0
LINE
8
BLACK
6
CONTINUOUS
10
0.35393
20
0.819088
11
0.354724
21
0.811024
0
LINE
8
BLACK
6
CONTINUOUS
10
0.354724
20
0.811024
11
0.35393
21
0.802959
0
LINE
8
BLACK
6
CONTINUOUS
10
0.35393
20
0.802959
11
0.351578
21
0.795204
0
LINE
8
BLACK
6
CONTINUOUS
10
0.351578
20
0.795204
11
0.347758
21
0.788057
0
LINE
8
BLACK
6
CONTINUOUS
10
0.347758
20
0.788057
11
0.342617
21
0.781793
0
LINE
8
BLACK
6
CONTINUOUS
10
0.342617
20
0.781793
11
0.336352
21
0.776652
0
LINE
8
BLACK
6
CONTINUOUS
10
0.336352
20
0.776652
11
0.329205
21
0.772832
0
LINE
8
BLACK
6
CONTINUOUS
10
0.329205
20
0.772832
11
0.321451
21
0.770479
0
LINE
8
BLACK
6
CONTINUOUS
10
0.321451
20
0.770479
11
0.313386
21
0.769685
0
LINE
8
BLACK
6
CONTINUOUS
10
0.313386
20
0.769685
11
0.305321
21
0.770479
0
LINE
8
BLACK
6
CONTINUOUS
10
0.305321
20
0.770479
11
0.297566
21
0.772832
0
LINE
8
BLACK
6
CONTINUOUS
10
0.297566
20
0.772832
11
0.290419
21
0.776652
0
LINE
8
BLACK
6
CONTINUOUS
10
0.290419
20
0.776652
11
0.284155
21
0.781793
0
LINE
8
BLACK
6
CONTINUOUS
10
0.284155
20
0.781793
11
0.279014
21
0.788057
0
LINE
8
BLACK
6
CONTINUOUS
10
0.279014
20
0.788057
11
0.275194
21
0.795204
0
LINE
8
BLACK
6
CONTINUOUS
10
0.275194
20
0.795204
11
0.272842
21
0.802959
0
LINE
8
BLACK
6
CONTINUOUS
10
0.272842
20
0.802959
11
0.272047
21
0.811024
0
LINE
8
BLACK
6
CONTINUOUS
10
0.272047
20
0.811024
11
0.272842
21
0.819088
0
LINE
8
BLACK
6
CONTINUOUS
10
0.272842
20
0.819088
11
0.275194
21
0.826843
0
LINE
8
BLACK
6
CONTINUOUS
10
0.275194
20
0.826843
11
0.279014
21
0.83399
0
LINE
8
BLACK
6
CONTINUOUS
10
0.279014
20
0.83399
11
0.284155
21
0.840254
0
LINE
8
BLACK
6
CONTINUOUS
10
0.284155
20
0.840254
11
0.290419
21
0.845395
0
LINE
8
BLACK
6
CONTINUOUS
10
0.290419
20
0.845395
11
0.297566
21
0.849216
0
LINE
8
BLACK
6
CONTINUOUS
10
0.297566
20
0.849216
11
0.305321
21
0.851568
0
LINE
8
BLACK
6
CONTINUOUS
10
0.305321
20
0.851568
11
0.313386
21
0.852362
0
LINE
8
BLACK
6
CONTINUOUS
10
0.313386
20
0.852362
11
0.321451
21
0.851568
0
LINE
8
BLACK
6
CONTINUOUS
10
0.421451
20
0.851568
11
0.429205
21
0.849216
0
LINE
8
BLACK
6
CONTINUOUS
10
0.429205
20
0.849216
11
0.436352
21
0.845395
0
LINE
8
BLACK
6
CONTINUOUS
10
0.436352
20
0.845395
11
0.442617
21
0.840254
0
LINE
8
BLACK
6
CONTINUOUS
10
0.442617
20
0.840254
11
0.447758
21
0.83399
0
LINE
8
BLACK
6
CONTINUOUS
10
0.447758
20
0.83399
11
0.451578
21
0.826843
0
LINE
8
BLACK
6
CONTINUOUS
10
0.451578
20
0.826843
11
0.45393
21
0.819088
0
LINE
8
BLACK
6
CONTINUOUS
10
0.45393
20
0.819088
11
0.454724
21
0.811024
0
LINE
8
BLACK
6
CONTINUOUS
10
0.454724
20
0.811024
11
0.45393
21
0.802959
0
LINE
8
BLACK
6
CONTINUOUS
10
0.45393
20
0.802959
11
0.451578
21
0.795204
0
LINE
8
BLACK
6
CONTINUOUS
10
0.451578
20
0.795204
11
0.447758
21
0.788057
0
LINE
8
BLACK
6
CONTINUOUS
10
0.447758
20
0.788057
11
0.442617
21
0.781793
0
LINE
8
BLACK
6
CONTINUOUS
10
0.442617
20
0.781793
11
0.436352
21
0.776652
0
LINE
8
BLACK
6
CONTINUOUS
10
0.436352
20
0.776652
11
0.429205
21
0.772832
0
LINE
8
BLACK
6
CONTINUOUS
10
0.429205
20
0.772832
11
0.421451
21
0.770479
0
LINE
8
BLACK
6
CONTINUOUS
10
0.421451
20
0.770479
11
0.413386
21
0.769685
0
LINE
8
BLACK
6
CONTINUOUS
10
0.413386
20
0.769685
11
0.405321
21
0.770479
0
LINE
8
BLACK
6
CONTINUOUS
10
0.405321
20
0.770479
11
0.397566
21
0.772832
0
LINE
8
BLACK
6
CONTINUOUS
10
0.397566
20
0.772832
11
0.390419
21
0.776652
0
LINE
8
BLACK
6
CONTINUOUS
10
0.390419
20
0.776652
11
0.384155
21
0.781793
0
LINE
8
BLACK
6
CONTINUOUS
10
0.384155
20
0.781793
11
0.379014
21
0.788057
0
LINE
8
BLACK
6
CONTINUOUS
10
0.379014
20
0.788057
11
0.375194
21
0.795204
0
LINE
8
BLACK
6
CONTINUOUS
10
0.375194
20
0.795204
11
0.372842
21
0.802959
0
LINE
8
BLACK
6
CONTINUOUS
10
0.372842
20
0.802959
11
0.372047
21
0.811024
0
LINE
8
BLACK
6
CONTINUOUS
10
0.372047
20
0.811024
11
0.372842
21
0.819088
0
LINE
8
BLACK
6
CONTINUOUS
10
0.372842
20
0.819088
11
0.375194
21
0.826843
0
LINE
8
BLACK
6
CONTINUOUS
10
0.375194
20
0.826843
11
0.379014
21
0.83399
0
LINE
8
BLACK
6
CONTINUOUS
10
0.379014
20
0.83399
11
0.384155
21
0.840254
0
LINE
8
BLACK
6
CONTINUOUS
10
0.384155
20
0.840254
11
0.390419
21
0.845395
0
LINE
8
BLACK
6
CONTINUOUS
10
0.390419
20
0.845395
11
0.397566
21
0.849216
0
LINE
8
BLACK
6
CONTINUOUS
10
0.397566
20
0.849216
11
0.405321
21
0.851568
0
LINE
8
BLACK
6
CONTINUOUS
10
0.405321
20
0.851568
11
0.413386
21
0.852362
0
LINE
8
BLACK
6
CONTINUOUS
10
0.413386
20
0.852362
11
0.421451
21
0.851568
0
LINE
8
BLACK
6
CONTINUOUS
10
1.21673
20
0.871647
11
1.22448
21
0.869294
0
LINE
8
BLACK
6
CONTINUOUS
10
1.22448
20
0.869294
11
1.23163
21
0.865474
0
LINE
8
BLACK
6
CONTINUOUS
10
1.23163
20
0.865474
11
1.23789
21
0.860333
0
LINE
8
BLACK
6
CONTINUOUS
10
1.23789
20
0.860333
11
1.24303
21
0.854069
0
LINE
8
BLACK
6
CONTINUOUS
10
1.24303
20
0.854069
11
1.24685
21
0.846922
0
LINE
8
BLACK
6
CONTINUOUS
10
1.24685
20
0.846922
11
1.24921
21
0.839167
0
LINE
8
BLACK
6
CONTINUOUS
10
1.24921
20
0.839167
11
1.25
21
0.831102
0
LINE
8
BLACK
6
CONTINUOUS
10
1.25
20
0.831102
11
1.24921
21
0.823038
0
LINE
8
BLACK
6
CONTINUOUS
10
1.24921
20
0.823038
11
1.24685
21
0.815283
0
LINE
8
BLACK
6
CONTINUOUS
10
1.24685
20
0.815283
11
1.24303
21
0.808136
0
LINE
8
BLACK
6
CONTINUOUS
10
1.24303
20
0.808136
11
1.23789
21
0.801872
0
LINE
8
BLACK
6
CONTINUOUS
10
1.23789
20
0.801872
11
1.23163
21
0.796731
0
LINE
8
BLACK
6
CONTINUOUS
10
1.23163
20
0.796731
11
1.22448
21
0.79291
0
LINE
8
BLACK
6
CONTINUOUS
10
1.22448
20
0.79291
11
1.21673
21
0.790558
0
LINE
8
BLACK
6
CONTINUOUS
10
1.21673
20
0.790558
11
1.20866
21
0.789764
0
LINE
8
BLACK
6
CONTINUOUS
10
1.20866
20
0.789764
11
1.2006
21
0.790558
0
LINE
8
BLACK
6
CONTINUOUS
10
1.2006
20
0.790558
11
1.19284
21
0.79291
0
LINE
8
BLACK
6
CONTINUOUS
10
1.19284
20
0.79291
11
1.18569
21
0.796731
0
LINE
8
BLACK
6
CONTINUOUS
10
1.18569
20
0.796731
11
1.17943
21
0.801872
0
LINE
8
BLACK
6
CONTINUOUS
10
1.17943
20
0.801872
11
1.17429
21
0.808136
0
LINE
8
BLACK
6
CONTINUOUS
10
1.17429
20
0.808136
11
1.17047
21
0.815283
0
LINE
8
BLACK
6
CONTINUOUS
10
1.17047
20
0.815283
11
1.16812
21
0.823038
0
LINE
8
BLACK
6
CONTINUOUS
10
1.16812
20
0.823038
11
1.16732
21
0.831102
0
LINE
8
BLACK
6
CONTINUOUS
10
1.16732
20
0.831102
11
1.16812
21
0.839167
0
LINE
8
BLACK
6
CONTINUOUS
10
1.16812
20
0.839167
11
1.17047
21
0.846922
0
LINE
8
BLACK
6
CONTINUOUS
10
1.17047
20
0.846922
11
1.17429
21
0.854069
0
LINE
8
BLACK
6
CONTINUOUS
10
1.17429
20
0.854069
11
1.17943
21
0.860333
0
LINE
8
BLACK
6
CONTINUOUS
10
1.17943
20
0.860333
11
1.18569
21
0.865474
0
LINE
8
BLACK
6
CONTINUOUS
10
1.18569
20
0.865474
11
1.19284
21
0.869294
0
LINE
8
BLACK
6
CONTINUOUS
10
1.19284
20
0.869294
11
1.2006
21
0.871647
0
LINE
8
BLACK
6
CONTINUOUS
10
1.2006
20
0.871647
11
1.20866
21
0.872441
0
LINE
8
BLACK
6
CONTINUOUS
10
1.20866
20
0.872441
11
1.21673
21
0.871647
0
LINE
8
BLACK
6
CONTINUOUS
10
1.11747
20
0.87912
11
1.12245
21
0.877376
0
LINE
8
BLACK
6
CONTINUOUS
10
1.12245
20
0.877376
11
1.1267
21
0.87424
0
LINE
8
BLACK
6
CONTINUOUS
10
1.1267
20
0.87424
11
1.12984
21
0.869991
0
LINE
8
BLACK
6
CONTINUOUS
10
1.12984
20
0.869991
11
1.13158
21
0.865006
0
LINE
8
BLACK
6
CONTINUOUS
10
1.13158
20
0.865006
11
1.13189
21
0.861713
0
LINE
8
BLACK
6
CONTINUOUS
10
1.13189
20
0.861713
11
1.13189
21
0.841043
0
LINE
8
BLACK
6
CONTINUOUS
10
1.13189
20
0.841043
11
1.13158
21
0.83775
0
LINE
8
BLACK
6
CONTINUOUS
10
1.13158
20
0.83775
11
1.12984
21
0.832765
0
LINE
8
BLACK
6
CONTINUOUS
10
1.12984
20
0.832765
11
1.1267
21
0.828516
0
LINE
8
BLACK
6
CONTINUOUS
10
1.1267
20
0.828516
11
1.12245
21
0.82538
0
LINE
8
BLACK
6
CONTINUOUS
10
1.12245
20
0.82538
11
1.11747
21
0.823636
0
LINE
8
BLACK
6
CONTINUOUS
10
1.11747
20
0.823636
11
1.11417
21
0.823327
0
LINE
8
BLACK
6
CONTINUOUS
10
1.11417
20
0.823327
11
1.07874
21
0.823327
0
LINE
8
BLACK
6
CONTINUOUS
10
1.07874
20
0.823327
11
1.07545
21
0.823636
0
LINE
8
BLACK
6
CONTINUOUS
10
1.07545
20
0.823636
11
1.07046
21
0.82538
0
LINE
8
BLACK
6
CONTINUOUS
10
1.07046
20
0.82538
11
1.06621
21
0.828516
0
LINE
8
BLACK
6
CONTINUOUS
10
1.06621
20
0.828516
11
1.06308
21
0.832765
0
LINE
8
BLACK
6
CONTINUOUS
10
1.06308
20
0.832765
11
1.06133
21
0.83775
0
LINE
8
BLACK
6
CONTINUOUS
10
1.06133
20
0.83775
11
1.06102
21
0.841043
0
LINE
8
BLACK
6
CONTINUOUS
10
1.06102
20
0.841043
11
1.06102
21
0.861713
0
LINE
8
BLACK
6
CONTINUOUS
10
1.06102
20
0.861713
11
1.06133
21
0.865006
0
LINE
8
BLACK
6
CONTINUOUS
10
1.06133
20
0.865006
11
1.06308
21
0.869991
0
LINE
8
BLACK
6
CONTINUOUS
10
1.06308
20
0.869991
11
1.06621
21
0.87424
0
LINE
8
BLACK
6
CONTINUOUS
10
1.06621
20
0.87424
11
1.07046
21
0.877376
0
LINE
8
BLACK
6
CONTINUOUS
10
1.07046
20
0.877376
11
1.07545
21
0.87912
0
LINE
8
BLACK
6
CONTINUOUS
10
1.07545
20
0.87912
11
1.07874
21
0.879429
0
LINE
8
BLACK
6
CONTINUOUS
10
1.07874
20
0.879429
11
1.11417
21
0.879429
0
LINE
8
BLACK
6
CONTINUOUS
10
1.11417
20
0.879429
11
1.11747
21
0.87912
0
LINE
8
BLACK
6
CONTINUOUS
10
0.771832
20
0.872078
11
0.772756
21
0.871461
0
LINE
8
BLACK
6
CONTINUOUS
10
0.772756
20
0.871461
11
0.77368
21
0.872078
0
LINE
8
BLACK
6
CONTINUOUS
10
0.77368
20
0.872078
11
0.776693
21
0.872677
0
LINE
8
BLACK
6
CONTINUOUS
10
0.776693
20
0.872677
11
0.788504
21
0.872677
0
LINE
8
BLACK
6
CONTINUOUS
10
0.788504
20
0.872677
11
0.791517
21
0.872078
0
LINE
8
BLACK
6
CONTINUOUS
10
0.791517
20
0.872078
11
0.792441
21
0.871461
0
LINE
8
BLACK
6
CONTINUOUS
10
0.792441
20
0.871461
11
0.793365
21
0.872078
0
LINE
8
BLACK
6
CONTINUOUS
10
0.793365
20
0.872078
11
0.796378
21
0.872677
0
LINE
8
BLACK
6
CONTINUOUS
10
0.796378
20
0.872677
11
0.808189
21
0.872677
0
LINE
8
BLACK
6
CONTINUOUS
10
0.808189
20
0.872677
11
0.811202
21
0.872078
0
LINE
8
BLACK
6
CONTINUOUS
10
0.811202
20
0.872078
11
0.812126
21
0.871461
0
LINE
8
BLACK
6
CONTINUOUS
10
0.812126
20
0.871461
11
0.81305
21
0.872078
0
LINE
8
BLACK
6
CONTINUOUS
10
0.81305
20
0.872078
11
0.816063
21
0.872677
0
LINE
8
BLACK
6
CONTINUOUS
10
0.816063
20
0.872677
11
0.827874
21
0.872677
0
LINE
8
BLACK
6
CONTINUOUS
10
0.827874
20
0.872677
11
0.830887
21
0.872078
0
LINE
8
BLACK
6
CONTINUOUS
10
0.830887
20
0.872078
11
0.833442
21
0.870371
0
LINE
8
BLACK
6
CONTINUOUS
10
0.833442
20
0.870371
11
0.835149
21
0.867816
0
LINE
8
BLACK
6
CONTINUOUS
10
0.835149
20
0.867816
11
0.835748
21
0.864803
0
LINE
8
BLACK
6
CONTINUOUS
10
0.835748
20
0.864803
11
0.835748
21
0.838425
0
LINE
8
BLACK
6
CONTINUOUS
10
0.835748
20
0.838425
11
0.835149
21
0.835412
0
LINE
8
BLACK
6
CONTINUOUS
10
0.835149
20
0.835412
11
0.833442
21
0.832857
0
LINE
8
BLACK
6
CONTINUOUS
10
0.833442
20
0.832857
11
0.830887
21
0.831151
0
LINE
8
BLACK
6
CONTINUOUS
10
0.830887
20
0.831151
11
0.827874
21
0.830551
0
LINE
8
BLACK
6
CONTINUOUS
10
0.827874
20
0.830551
11
0.816063
21
0.830551
0
LINE
8
BLACK
6
CONTINUOUS
10
0.816063
20
0.830551
11
0.81305
21
0.831151
0
LINE
8
BLACK
6
CONTINUOUS
10
0.81305
20
0.831151
11
0.812126
21
0.831768
0
LINE
8
BLACK
6
CONTINUOUS
10
0.812126
20
0.831768
11
0.811202
21
0.831151
0
LINE
8
BLACK
6
CONTINUOUS
10
0.811202
20
0.831151
11
0.808189
21
0.830551
0
LINE
8
BLACK
6
CONTINUOUS
10
0.808189
20
0.830551
11
0.796378
21
0.830551
0
LINE
8
BLACK
6
CONTINUOUS
10
0.796378
20
0.830551
11
0.793365
21
0.831151
0
LINE
8
BLACK
6
CONTINUOUS
10
0.793365
20
0.831151
11
0.792441
21
0.831768
0
LINE
8
BLACK
6
CONTINUOUS
10
0.792441
20
0.831768
11
0.791517
21
0.831151
0
LINE
8
BLACK
6
CONTINUOUS
10
0.791517
20
0.831151
11
0.788504
21
0.830551
0
LINE
8
BLACK
6
CONTINUOUS
10
0.788504
20
0.830551
11
0.776693
21
0.830551
0
LINE
8
BLACK
6
CONTINUOUS
10
0.776693
20
0.830551
11
0.77368
21
0.831151
0
LINE
8
BLACK
6
CONTINUOUS
10
0.77368
20
0.831151
11
0.772756
21
0.831768
0
LINE
8
BLACK
6
CONTINUOUS
10
0.772756
20
0.831768
11
0.771832
21
0.831151
0
LINE
8
BLACK
6
CONTINUOUS
10
0.771832
20
0.831151
11
0.768819
21
0.830551
0
LINE
8
BLACK
6
CONTINUOUS
10
0.768819
20
0.830551
11
0.757008
21
0.830551
0
LINE
8
BLACK
6
CONTINUOUS
10
0.757008
20
0.830551
11
0.753995
21
0.831151
0
LINE
8
BLACK
6
CONTINUOUS
10
0.753995
20
0.831151
11
0.75144
21
0.832857
0
LINE
8
BLACK
6
CONTINUOUS
10
0.75144
20
0.832857
11
0.749733
21
0.835412
0
LINE
8
BLACK
6
CONTINUOUS
10
0.749733
20
0.835412
11
0.749134
21
0.838425
0
LINE
8
BLACK
6
CONTINUOUS
10
0.749134
20
0.838425
11
0.749134
21
0.864803
0
LINE
8
BLACK
6
CONTINUOUS
10
0.749134
20
0.864803
11
0.749733
21
0.867816
0
LINE
8
BLACK
6
CONTINUOUS
10
0.749733
20
0.867816
11
0.75144
21
0.870371
0
LINE
8
BLACK
6
CONTINUOUS
10
0.75144
20
0.870371
11
0.753995
21
0.872078
0
LINE
8
BLACK
6
CONTINUOUS
10
0.753995
20
0.872078
11
0.757008
21
0.872677
0
LINE
8
BLACK
6
CONTINUOUS
10
0.757008
20
0.872677
11
0.768819
21
0.872677
0
LINE
8
BLACK
6
CONTINUOUS
10
0.768819
20
0.872677
11
0.771832
21
0.872078
0
LINE
8
BLACK
6
CONTINUOUS
10
0.714435
20
0.885518
11
0.71942
21
0.883774
0
LINE
8
BLACK
6
CONTINUOUS
10
0.71942
20
0.883774
11
0.723669
21
0.880638
0
LINE
8
BLACK
6
CONTINUOUS
10
0.723669
20
0.880638
11
0.726805
21
0.876389
0
LINE
8
BLACK
6
CONTINUOUS
10
0.726805
20
0.876389
11
0.728549
21
0.871404
0
LINE
8
BLACK
6
CONTINUOUS
10
0.728549
20
0.871404
11
0.728858
21
0.86811
0
LINE
8
BLACK
6
CONTINUOUS
10
0.728858
20
0.86811
11
0.728858
21
0.848425
0
LINE
8
BLACK
6
CONTINUOUS
10
0.728858
20
0.848425
11
0.728549
21
0.845131
0
LINE
8
BLACK
6
CONTINUOUS
10
0.728549
20
0.845131
11
0.726805
21
0.840147
0
LINE
8
BLACK
6
CONTINUOUS
10
0.726805
20
0.840147
11
0.723669
21
0.835898
0
LINE
8
BLACK
6
CONTINUOUS
10
0.723669
20
0.835898
11
0.71942
21
0.832762
0
LINE
8
BLACK
6
CONTINUOUS
10
0.71942
20
0.832762
11
0.714435
21
0.831018
0
LINE
8
BLACK
6
CONTINUOUS
10
0.714435
20
0.831018
11
0.711142
21
0.830709
0
LINE
8
BLACK
6
CONTINUOUS
10
0.711142
20
0.830709
11
0.67374
21
0.830709
0
LINE
8
BLACK
6
CONTINUOUS
10
0.67374
20
0.830709
11
0.670446
21
0.831018
0
LINE
8
BLACK
6
CONTINUOUS
10
0.670446
20
0.831018
11
0.665462
21
0.832762
0
LINE
8
BLACK
6
CONTINUOUS
10
0.665462
20
0.832762
11
0.661213
21
0.835898
0
LINE
8
BLACK
6
CONTINUOUS
10
0.661213
20
0.835898
11
0.658077
21
0.840147
0
LINE
8
BLACK
6
CONTINUOUS
10
0.658077
20
0.840147
11
0.656332
21
0.845131
0
LINE
8
BLACK
6
CONTINUOUS
10
0.656332
20
0.845131
11
0.656024
21
0.848425
0
LINE
8
BLACK
6
CONTINUOUS
10
0.656024
20
0.848425
11
0.656024
21
0.86811
0
LINE
8
BLACK
6
CONTINUOUS
10
0.656024
20
0.86811
11
0.656332
21
0.871404
0
LINE
8
BLACK
6
CONTINUOUS
10
0.656332
20
0.871404
11
0.658077
21
0.876389
0
LINE
8
BLACK
6
CONTINUOUS
10
0.658077
20
0.876389
11
0.661213
21
0.880638
0
LINE
8
BLACK
6
CONTINUOUS
10
0.661213
20
0.880638
11
0.665462
21
0.883774
0
LINE
8
BLACK
6
CONTINUOUS
10
0.665462
20
0.883774
11
0.670446
21
0.885518
0
LINE
8
BLACK
6
CONTINUOUS
10
0.670446
20
0.885518
11
0.67374
21
0.885827
0
LINE
8
BLACK
6
CONTINUOUS
10
0.67374
20
0.885827
11
0.711142
21
0.885827
0
LINE
8
BLACK
6
CONTINUOUS
10
0.711142
20
0.885827
11
0.714435
21
0.885518
0
LINE
8
BLACK
6
CONTINUOUS
10
0.913727
20
0.890439
11
0.918711
21
0.888695
0
LINE
8
BLACK
6
CONTINUOUS
10
0.918711
20
0.888695
11
0.922961
21
0.885559
0
LINE
8
BLACK
6
CONTINUOUS
10
0.922961
20
0.885559
11
0.926097
21
0.88131
0
LINE
8
BLACK
6
CONTINUOUS
10
0.926097
20
0.88131
11
0.927841
21
0.876325
0
LINE
8
BLACK
6
CONTINUOUS
10
0.927841
20
0.876325
11
0.92815
21
0.873031
0
LINE
8
BLACK
6
CONTINUOUS
10
0.92815
20
0.873031
11
0.92815
21
0.853346
0
LINE
8
BLACK
6
CONTINUOUS
10
0.92815
20
0.853346
11
0.927841
21
0.850053
0
LINE
8
BLACK
6
CONTINUOUS
10
0.927841
20
0.850053
11
0.926097
21
0.845068
0
LINE
8
BLACK
6
CONTINUOUS
10
0.926097
20
0.845068
11
0.922961
21
0.840819
0
LINE
8
BLACK
6
CONTINUOUS
10
0.922961
20
0.840819
11
0.918711
21
0.837683
0
LINE
8
BLACK
6
CONTINUOUS
10
0.918711
20
0.837683
11
0.913727
21
0.835939
0
LINE
8
BLACK
6
CONTINUOUS
10
0.913727
20
0.835939
11
0.910433
21
0.83563
0
LINE
8
BLACK
6
CONTINUOUS
10
0.910433
20
0.83563
11
0.873031
21
0.83563
0
LINE
8
BLACK
6
CONTINUOUS
10
0.873031
20
0.83563
11
0.869738
21
0.835939
0
LINE
8
BLACK
6
CONTINUOUS
10
0.869738
20
0.835939
11
0.864753
21
0.837683
0
LINE
8
BLACK
6
CONTINUOUS
10
0.864753
20
0.837683
11
0.860504
21
0.840819
0
LINE
8
BLACK
6
CONTINUOUS
10
0.860504
20
0.840819
11
0.857368
21
0.845068
0
LINE
8
BLACK
6
CONTINUOUS
10
0.857368
20
0.845068
11
0.855624
21
0.850053
0
LINE
8
BLACK
6
CONTINUOUS
10
0.855624
20
0.850053
11
0.855315
21
0.853346
0
LINE
8
BLACK
6
CONTINUOUS
10
0.855315
20
0.853346
11
0.855315
21
0.873031
0
LINE
8
BLACK
6
CONTINUOUS
10
0.855315
20
0.873031
11
0.855624
21
0.876325
0
LINE
8
BLACK
6
CONTINUOUS
10
0.855624
20
0.876325
11
0.857368
21
0.88131
0
LINE
8
BLACK
6
CONTINUOUS
10
0.857368
20
0.88131
11
0.860504
21
0.885559
0
LINE
8
BLACK
6
CONTINUOUS
10
0.860504
20
0.885559
11
0.864753
21
0.888695
0
LINE
8
BLACK
6
CONTINUOUS
10
0.864753
20
0.888695
11
0.869738
21
0.890439
0
LINE
8
BLACK
6
CONTINUOUS
10
0.869738
20
0.890439
11
0.873031
21
0.890748
0
LINE
8
BLACK
6
CONTINUOUS
10
0.873031
20
0.890748
11
0.910433
21
0.890748
0
LINE
8
BLACK
6
CONTINUOUS
10
0.910433
20
0.890748
11
0.913727
21
0.890439
0
LINE
8
BLACK
6
CONTINUOUS
10
1.02298
20
0.893884
11
1.02796
21
0.89214
0
LINE
8
BLACK
6
CONTINUOUS
10
1.02796
20
0.89214
11
1.03221
21
0.889004
0
LINE
8
BLACK
6
CONTINUOUS
10
1.03221
20
0.889004
11
1.03535
21
0.884755
0
LINE
8
BLACK
6
CONTINUOUS
10
1.03535
20
0.884755
11
1.03709
21
0.87977
0
LINE
8
BLACK
6
CONTINUOUS
10
1.03709
20
0.87977
11
1.0374
21
0.876476
0
LINE
8
BLACK
6
CONTINUOUS
10
1.0374
20
0.876476
11
1.0374
21
0.855807
0
LINE
8
BLACK
6
CONTINUOUS
10
1.0374
20
0.855807
11
1.03709
21
0.852513
0
LINE
8
BLACK
6
CONTINUOUS
10
1.03709
20
0.852513
11
1.03535
21
0.847529
0
LINE
8
BLACK
6
CONTINUOUS
10
1.03535
20
0.847529
11
1.03221
21
0.84328
0
LINE
8
BLACK
6
CONTINUOUS
10
1.03221
20
0.84328
11
1.02796
21
0.840144
0
LINE
8
BLACK
6
CONTINUOUS
10
1.02796
20
0.840144
11
1.02298
21
0.838399
0
LINE
8
BLACK
6
CONTINUOUS
10
1.02298
20
0.838399
11
1.01969
21
0.838091
0
LINE
8
BLACK
6
CONTINUOUS
10
1.01969
20
0.838091
11
0.984252
21
0.838091
0
LINE
8
BLACK
6
CONTINUOUS
10
0.984252
20
0.838091
11
0.980958
21
0.838399
0
LINE
8
BLACK
6
CONTINUOUS
10
0.980958
20
0.838399
11
0.975974
21
0.840144
0
LINE
8
BLACK
6
CONTINUOUS
10
0.975974
20
0.840144
11
0.971724
21
0.84328
0
LINE
8
BLACK
6
CONTINUOUS
10
0.971724
20
0.84328
11
0.968589
21
0.847529
0
LINE
8
BLACK
6
CONTINUOUS
10
0.968589
20
0.847529
11
0.966844
21
0.852513
0
LINE
8
BLACK
6
CONTINUOUS
10
0.966844
20
0.852513
11
0.966535
21
0.855807
0
LINE
8
BLACK
6
CONTINUOUS
10
0.966535
20
0.855807
11
0.966535
21
0.876476
0
LINE
8
BLACK
6
CONTINUOUS
10
0.966535
20
0.876476
11
0.966844
21
0.87977
0
LINE
8
BLACK
6
CONTINUOUS
10
0.966844
20
0.87977
11
0.968589
21
0.884755
0
LINE
8
BLACK
6
CONTINUOUS
10
0.968589
20
0.884755
11
0.971724
21
0.889004
0
LINE
8
BLACK
6
CONTINUOUS
10
0.971724
20
0.889004
11
0.975974
21
0.89214
0
LINE
8
BLACK
6
CONTINUOUS
10
0.975974
20
0.89214
11
0.980958
21
0.893884
0
LINE
8
BLACK
6
CONTINUOUS
10
0.980958
20
0.893884
11
0.984252
21
0.894193
0
LINE
8
BLACK
6
CONTINUOUS
10
0.984252
20
0.894193
11
1.01969
21
0.894193
0
LINE
8
BLACK
6
CONTINUOUS
10
1.01969
20
0.894193
11
1.02298
21
0.893884
0
LINE
8
BLACK
6
CONTINUOUS
10
0.349864
20
0.951763
11
0.352418
21
0.950056
0
LINE
8
BLACK
6
CONTINUOUS
10
0.352418
20
0.950056
11
0.354125
21
0.947501
0
LINE
8
BLACK
6
CONTINUOUS
10
0.354125
20
0.947501
11
0.354724
21
0.944488
0
LINE
8
BLACK
6
CONTINUOUS
10
0.354724
20
0.944488
11
0.354724
21
0.877559
0
LINE
8
BLACK
6
CONTINUOUS
10
0.354724
20
0.877559
11
0.354125
21
0.874546
0
LINE
8
BLACK
6
CONTINUOUS
10
0.354125
20
0.874546
11
0.352418
21
0.871991
0
LINE
8
BLACK
6
CONTINUOUS
10
0.352418
20
0.871991
11
0.349864
21
0.870284
0
LINE
8
BLACK
6
CONTINUOUS
10
0.349864
20
0.870284
11
0.34685
21
0.869685
0
LINE
8
BLACK
6
CONTINUOUS
10
0.34685
20
0.869685
11
0.279921
21
0.869685
0
LINE
8
BLACK
6
CONTINUOUS
10
0.279921
20
0.869685
11
0.276908
21
0.870284
0
LINE
8
BLACK
6
CONTINUOUS
10
0.276908
20
0.870284
11
0.274354
21
0.871991
0
LINE
8
BLACK
6
CONTINUOUS
10
0.274354
20
0.871991
11
0.272647
21
0.874546
0
LINE
8
BLACK
6
CONTINUOUS
10
0.272647
20
0.874546
11
0.272047
21
0.877559
0
LINE
8
BLACK
6
CONTINUOUS
10
0.272047
20
0.877559
11
0.272047
21
0.944488
0
LINE
8
BLACK
6
CONTINUOUS
10
0.272047
20
0.944488
11
0.272647
21
0.947501
0
LINE
8
BLACK
6
CONTINUOUS
10
0.272647
20
0.947501
11
0.274354
21
0.950056
0
LINE
8
BLACK
6
CONTINUOUS
10
0.274354
20
0.950056
11
0.276908
21
0.951763
0
LINE
8
BLACK
6
CONTINUOUS
10
0.276908
20
0.951763
11
0.279921
21
0.952362
0
LINE
8
BLACK
6
CONTINUOUS
10
0.279921
20
0.952362
11
0.34685
21
0.952362
0
LINE
8
BLACK
6
CONTINUOUS
10
0.34685
20
0.952362
11
0.349864
21
0.951763
0
LINE
8
BLACK
6
CONTINUOUS
10
0.421451
20
0.951568
11
0.429205
21
0.949216
0
LINE
8
BLACK
6
CONTINUOUS
10
0.429205
20
0.949216
11
0.436352
21
0.945395
0
LINE
8
BLACK
6
CONTINUOUS
10
0.436352
20
0.945395
11
0.442617
21
0.940254
0
LINE
8
BLACK
6
CONTINUOUS
10
0.442617
20
0.940254
11
0.447758
21
0.93399
0
LINE
8
BLACK
6
CONTINUOUS
10
0.447758
20
0.93399
11
0.451578
21
0.926843
0
LINE
8
BLACK
6
CONTINUOUS
10
0.451578
20
0.926843
11
0.45393
21
0.919088
0
LINE
8
BLACK
6
CONTINUOUS
10
0.45393
20
0.919088
11
0.454724
21
0.911024
0
LINE
8
BLACK
6
CONTINUOUS
10
0.454724
20
0.911024
11
0.45393
21
0.902959
0
LINE
8
BLACK
6
CONTINUOUS
10
0.45393
20
0.902959
11
0.451578
21
0.895204
0
LINE
8
BLACK
6
CONTINUOUS
10
0.451578
20
0.895204
11
0.447758
21
0.888057
0
LINE
8
BLACK
6
CONTINUOUS
10
0.447758
20
0.888057
11
0.442617
21
0.881793
0
LINE
8
BLACK
6
CONTINUOUS
10
0.442617
20
0.881793
11
0.436352
21
0.876652
0
LINE
8
BLACK
6
CONTINUOUS
10
0.436352
20
0.876652
11
0.429205
21
0.872832
0
LINE
8
BLACK
6
CONTINUOUS
10
0.429205
20
0.872832
11
0.421451
21
0.870479
0
LINE
8
BLACK
6
CONTINUOUS
10
0.421451
20
0.870479
11
0.413386
21
0.869685
0
LINE
8
BLACK
6
CONTINUOUS
10
0.413386
20
0.869685
11
0.405321
21
0.870479
0
LINE
8
BLACK
6
CONTINUOUS
10
0.405321
20
0.870479
11
0.397566
21
0.872832
0
LINE
8
BLACK
6
CONTINUOUS
10
0.397566
20
0.872832
11
0.390419
21
0.876652
0
LINE
8
BLACK
6
CONTINUOUS
10
0.390419
20
0.876652
11
0.384155
21
0.881793
0
LINE
8
BLACK
6
CONTINUOUS
10
0.384155
20
0.881793
11
0.379014
21
0.888057
0
LINE
8
BLACK
6
CONTINUOUS
10
0.379014
20
0.888057
11
0.375194
21
0.895204
0
LINE
8
BLACK
6
CONTINUOUS
10
0.375194
20
0.895204
11
0.372842
21
0.902959
0
LINE
8
BLACK
6
CONTINUOUS
10
0.372842
20
0.902959
11
0.372047
21
0.911024
0
LINE
8
BLACK
6
CONTINUOUS
10
0.372047
20
0.911024
11
0.372842
21
0.919088
0
LINE
8
BLACK
6
CONTINUOUS
10
0.372842
20
0.919088
11
0.375194
21
0.926843
0
LINE
8
BLACK
6
CONTINUOUS
10
0.375194
20
0.926843
11
0.379014
21
0.93399
0
LINE
8
BLACK
6
CONTINUOUS
10
0.379014
20
0.93399
11
0.384155
21
0.940254
0
LINE
8
BLACK
6
CONTINUOUS
10
0.384155
20
0.940254
11
0.390419
21
0.945395
0
LINE
8
BLACK
6
CONTINUOUS
10
0.390419
20
0.945395
11
0.397566
21
0.949216
0
LINE
8
BLACK
6
CONTINUOUS
10
0.397566
20
0.949216
11
0.405321
21
0.951568
0
LINE
8
BLACK
6
CONTINUOUS
10
0.405321
20
0.951568
11
0.413386
21
0.952362
0
LINE
8
BLACK
6
CONTINUOUS
10
0.413386
20
0.952362
11
0.421451
21
0.951568
0
LINE
8
BLACK
6
CONTINUOUS
10
0.771832
20
0.930346
11
0.772756
21
0.929728
0
LINE
8
BLACK
6
CONTINUOUS
10
0.772756
20
0.929728
11
0.77368
21
0.930346
0
LINE
8
BLACK
6
CONTINUOUS
10
0.77368
20
0.930346
11
0.776693
21
0.930945
0
LINE
8
BLACK
6
CONTINUOUS
10
0.776693
20
0.930945
11
0.788504
21
0.930945
0
LINE
8
BLACK
6
CONTINUOUS
10
0.788504
20
0.930945
11
0.791517
21
0.930346
0
LINE
8
BLACK
6
CONTINUOUS
10
0.791517
20
0.930346
11
0.792441
21
0.929728
0
LINE
8
BLACK
6
CONTINUOUS
10
0.792441
20
0.929728
11
0.793365
21
0.930346
0
LINE
8
BLACK
6
CONTINUOUS
10
0.793365
20
0.930346
11
0.796378
21
0.930945
0
LINE
8
BLACK
6
CONTINUOUS
10
0.796378
20
0.930945
11
0.808189
21
0.930945
0
LINE
8
BLACK
6
CONTINUOUS
10
0.808189
20
0.930945
11
0.811202
21
0.930346
0
LINE
8
BLACK
6
CONTINUOUS
10
0.811202
20
0.930346
11
0.812126
21
0.929728
0
LINE
8
BLACK
6
CONTINUOUS
10
0.812126
20
0.929728
11
0.81305
21
0.930346
0
LINE
8
BLACK
6
CONTINUOUS
10
0.81305
20
0.930346
11
0.816063
21
0.930945
0
LINE
8
BLACK
6
CONTINUOUS
10
0.816063
20
0.930945
11
0.827874
21
0.930945
0
LINE
8
BLACK
6
CONTINUOUS
10
0.827874
20
0.930945
11
0.830887
21
0.930346
0
LINE
8
BLACK
6
CONTINUOUS
10
0.830887
20
0.930346
11
0.833442
21
0.928639
0
LINE
8
BLACK
6
CONTINUOUS
10
0.833442
20
0.928639
11
0.835149
21
0.926084
0
LINE
8
BLACK
6
CONTINUOUS
10
0.835149
20
0.926084
11
0.835748
21
0.923071
0
LINE
8
BLACK
6
CONTINUOUS
10
0.835748
20
0.923071
11
0.835748
21
0.896693
0
LINE
8
BLACK
6
CONTINUOUS
10
0.835748
20
0.896693
11
0.835149
21
0.89368
0
LINE
8
BLACK
6
CONTINUOUS
10
0.835149
20
0.89368
11
0.833442
21
0.891125
0
LINE
8
BLACK
6
CONTINUOUS
10
0.833442
20
0.891125
11
0.830887
21
0.889418
0
LINE
8
BLACK
6
CONTINUOUS
10
0.830887
20
0.889418
11
0.827874
21
0.888819
0
LINE
8
BLACK
6
CONTINUOUS
10
0.827874
20
0.888819
11
0.816063
21
0.888819
0
LINE
8
BLACK
6
CONTINUOUS
10
0.816063
20
0.888819
11
0.81305
21
0.889418
0
LINE
8
BLACK
6
CONTINUOUS
10
0.81305
20
0.889418
11
0.812126
21
0.890036
0
LINE
8
BLACK
6
CONTINUOUS
10
0.812126
20
0.890036
11
0.811202
21
0.889418
0
LINE
8
BLACK
6
CONTINUOUS
10
0.811202
20
0.889418
11
0.808189
21
0.888819
0
LINE
8
BLACK
6
CONTINUOUS
10
0.808189
20
0.888819
11
0.796378
21
0.888819
0
LINE
8
BLACK
6
CONTINUOUS
10
0.796378
20
0.888819
11
0.793365
21
0.889418
0
LINE
8
BLACK
6
CONTINUOUS
10
0.793365
20
0.889418
11
0.792441
21
0.890036
0
LINE
8
BLACK
6
CONTINUOUS
10
0.792441
20
0.890036
11
0.791517
21
0.889418
0
LINE
8
BLACK
6
CONTINUOUS
10
0.791517
20
0.889418
11
0.788504
21
0.888819
0
LINE
8
BLACK
6
CONTINUOUS
10
0.788504
20
0.888819
11
0.776693
21
0.888819
0
LINE
8
BLACK
6
CONTINUOUS
10
0.776693
20
0.888819
11
0.77368
21
0.889418
0
LINE
8
BLACK
6
CONTINUOUS
10
0.77368
20
0.889418
11
0.772756
21
0.890036
0
LINE
8
BLACK
6
CONTINUOUS
10
0.772756
20
0.890036
11
0.771832
21
0.889418
0
LINE
8
BLACK
6
CONTINUOUS
10
0.771832
20
0.889418
11
0.768819
21
0.888819
0
LINE
8
BLACK
6
CONTINUOUS
10
0.768819
20
0.888819
11
0.757008
21
0.888819
0
LINE
8
BLACK
6
CONTINUOUS
10
0.757008
20
0.888819
11
0.753995
21
0.889418
0
LINE
8
BLACK
6
CONTINUOUS
10
0.753995
20
0.889418
11
0.75144
21
0.891125
0
LINE
8
BLACK
6
CONTINUOUS
10
0.75144
20
0.891125
11
0.749733
21
0.89368
0
LINE
8
BLACK
6
CONTINUOUS
10
0.749733
20
0.89368
11
0.749134
21
0.896693
0
LINE
8
BLACK
6
CONTINUOUS
10
0.749134
20
0.896693
11
0.749134
21
0.923071
0
LINE
8
BLACK
6
CONTINUOUS
10
0.749134
20
0.923071
11
0.749733
21
0.926084
0
LINE
8
BLACK
6
CONTINUOUS
10
0.749733
20
0.926084
11
0.75144
21
0.928639
0
LINE
8
BLACK
6
CONTINUOUS
10
0.75144
20
0.928639
11
0.753995
21
0.930346
0
LINE
8
BLACK
6
CONTINUOUS
10
0.753995
20
0.930346
11
0.757008
21
0.930945
0
LINE
8
BLACK
6
CONTINUOUS
10
0.757008
20
0.930945
11
0.768819
21
0.930945
0
LINE
8
BLACK
6
CONTINUOUS
10
0.768819
20
0.930945
11
0.771832
21
0.930346
0
LINE
8
BLACK
6
CONTINUOUS
10
1.24514
20
0.971842
11
1.24769
21
0.970135
0
LINE
8
BLACK
6
CONTINUOUS
10
1.24769
20
0.970135
11
1.2494
21
0.96758
0
LINE
8
BLACK
6
CONTINUOUS
10
1.2494
20
0.96758
11
1.25
21
0.964567
0
LINE
8
BLACK
6
CONTINUOUS
10
1.25
20
0.964567
11
1.25
21
0.897638
0
LINE
8
BLACK
6
CONTINUOUS
10
1.25
20
0.897638
11
1.2494
21
0.894625
0
LINE
8
BLACK
6
CONTINUOUS
10
1.2494
20
0.894625
11
1.24769
21
0.89207
0
LINE
8
BLACK
6
CONTINUOUS
10
1.24769
20
0.89207
11
1.24514
21
0.890363
0
LINE
8
BLACK
6
CONTINUOUS
10
1.24514
20
0.890363
11
1.24213
21
0.889764
0
LINE
8
BLACK
6
CONTINUOUS
10
1.24213
20
0.889764
11
1.1752
21
0.889764
0
LINE
8
BLACK
6
CONTINUOUS
10
1.1752
20
0.889764
11
1.17218
21
0.890363
0
LINE
8
BLACK
6
CONTINUOUS
10
1.17218
20
0.890363
11
1.16963
21
0.89207
0
LINE
8
BLACK
6
CONTINUOUS
10
1.16963
20
0.89207
11
1.16792
21
0.894625
0
LINE
8
BLACK
6
CONTINUOUS
10
1.16792
20
0.894625
11
1.16732
21
0.897638
0
LINE
8
BLACK
6
CONTINUOUS
10
1.16732
20
0.897638
11
1.16732
21
0.964567
0
LINE
8
BLACK
6
CONTINUOUS
10
1.16732
20
0.964567
11
1.16792
21
0.96758
0
LINE
8
BLACK
6
CONTINUOUS
10
1.16792
20
0.96758
11
1.16963
21
0.970135
0
LINE
8
BLACK
6
CONTINUOUS
10
1.16963
20
0.970135
11
1.17218
21
0.971842
0
LINE
8
BLACK
6
CONTINUOUS
10
1.17218
20
0.971842
11
1.1752
21
0.972441
0
LINE
8
BLACK
6
CONTINUOUS
10
1.1752
20
0.972441
11
1.24213
21
0.972441
0
LINE
8
BLACK
6
CONTINUOUS
10
1.24213
20
0.972441
11
1.24514
21
0.971842
0
LINE
8
BLACK
6
CONTINUOUS
10
1.11747
20
0.950971
11
1.12245
21
0.949226
0
LINE
8
BLACK
6
CONTINUOUS
10
1.12245
20
0.949226
11
1.1267
21
0.94609
0
LINE
8
BLACK
6
CONTINUOUS
10
1.1267
20
0.94609
11
1.12984
21
0.941841
0
LINE
8
BLACK
6
CONTINUOUS
10
1.12984
20
0.941841
11
1.13158
21
0.936857
0
LINE
8
BLACK
6
CONTINUOUS
10
1.13158
20
0.936857
11
1.13189
21
0.933563
0
LINE
8
BLACK
6
CONTINUOUS
10
1.13189
20
0.933563
11
1.13189
21
0.912894
0
LINE
8
BLACK
6
CONTINUOUS
10
1.13189
20
0.912894
11
1.13158
21
0.9096
0
LINE
8
BLACK
6
CONTINUOUS
10
1.13158
20
0.9096
11
1.12984
21
0.904615
0
LINE
8
BLACK
6
CONTINUOUS
10
1.12984
20
0.904615
11
1.1267
21
0.900366
0
LINE
8
BLACK
6
CONTINUOUS
10
1.1267
20
0.900366
11
1.12245
21
0.89723
0
LINE
8
BLACK
6
CONTINUOUS
10
1.12245
20
0.89723
11
1.11747
21
0.895486
0
LINE
8
BLACK
6
CONTINUOUS
10
1.11747
20
0.895486
11
1.11417
21
0.895177
0
LINE
8
BLACK
6
CONTINUOUS
10
1.11417
20
0.895177
11
1.07874
21
0.895177
0
LINE
8
BLACK
6
CONTINUOUS
10
1.07874
20
0.895177
11
1.07545
21
0.895486
0
LINE
8
BLACK
6
CONTINUOUS
10
1.07545
20
0.895486
11
1.07046
21
0.89723
0
LINE
8
BLACK
6
CONTINUOUS
10
1.07046
20
0.89723
11
1.06621
21
0.900366
0
LINE
8
BLACK
6
CONTINUOUS
10
1.06621
20
0.900366
11
1.06308
21
0.904615
0
LINE
8
BLACK
6
CONTINUOUS
10
1.06308
20
0.904615
11
1.06133
21
0.9096
0
LINE
8
BLACK
6
CONTINUOUS
10
1.06133
20
0.9096
11
1.06102
21
0.912894
0
LINE
8
BLACK
6
CONTINUOUS
10
1.06102
20
0.912894
11
1.06102
21
0.933563
0
LINE
8
BLACK
6
CONTINUOUS
10
1.06102
20
0.933563
11
1.06133
21
0.936857
0
LINE
8
BLACK
6
CONTINUOUS
10
1.06133
20
0.936857
11
1.06308
21
0.941841
0
LINE
8
BLACK
6
CONTINUOUS
10
1.06308
20
0.941841
11
1.06621
21
0.94609
0
LINE
8
BLACK
6
CONTINUOUS
10
1.06621
20
0.94609
11
1.07046
21
0.949226
0
LINE
8
BLACK
6
CONTINUOUS
10
1.07046
20
0.949226
11
1.07545
21
0.950971
0
LINE
8
BLACK
6
CONTINUOUS
10
1.07545
20
0.950971
11
1.07874
21
0.95128
0
LINE
8
BLACK
6
CONTINUOUS
10
1.07874
20
0.95128
11
1.11417
21
0.95128
0
LINE
8
BLACK
6
CONTINUOUS
10
1.11417
20
0.95128
11
1.11747
21
0.950971
0
LINE
8
BLACK
6
CONTINUOUS
10
0.714435
20
0.960321
11
0.71942
21
0.958577
0
LINE
8
BLACK
6
CONTINUOUS
10
0.71942
20
0.958577
11
0.723669
21
0.955441
0
LINE
8
BLACK
6
CONTINUOUS
10
0.723669
20
0.955441
11
0.726805
21
0.951192
0
LINE
8
BLACK
6
CONTINUOUS
10
0.726805
20
0.951192
11
0.728549
21
0.946207
0
LINE
8
BLACK
6
CONTINUOUS
10
0.728549
20
0.946207
11
0.728858
21
0.942913
0
LINE
8
BLACK
6
CONTINUOUS
10
0.728858
20
0.942913
11
0.728858
21
0.923228
0
LINE
8
BLACK
6
CONTINUOUS
10
0.728858
20
0.923228
11
0.728549
21
0.919935
0
LINE
8
BLACK
6
CONTINUOUS
10
0.728549
20
0.919935
11
0.726805
21
0.91495
0
LINE
8
BLACK
6
CONTINUOUS
10
0.726805
20
0.91495
11
0.723669
21
0.910701
0
LINE
8
BLACK
6
CONTINUOUS
10
0.723669
20
0.910701
11
0.71942
21
0.907565
0
LINE
8
BLACK
6
CONTINUOUS
10
0.71942
20
0.907565
11
0.714435
21
0.905821
0
LINE
8
BLACK
6
CONTINUOUS
10
0.714435
20
0.905821
11
0.711142
21
0.905512
0
LINE
8
BLACK
6
CONTINUOUS
10
0.711142
20
0.905512
11
0.67374
21
0.905512
0
LINE
8
BLACK
6
CONTINUOUS
10
0.67374
20
0.905512
11
0.670446
21
0.905821
0
LINE
8
BLACK
6
CONTINUOUS
10
0.670446
20
0.905821
11
0.665462
21
0.907565
0
LINE
8
BLACK
6
CONTINUOUS
10
0.665462
20
0.907565
11
0.661213
21
0.910701
0
LINE
8
BLACK
6
CONTINUOUS
10
0.661213
20
0.910701
11
0.658077
21
0.91495
0
LINE
8
BLACK
6
CONTINUOUS
10
0.658077
20
0.91495
11
0.656332
21
0.919935
0
LINE
8
BLACK
6
CONTINUOUS
10
0.656332
20
0.919935
11
0.656024
21
0.923228
0
LINE
8
BLACK
6
CONTINUOUS
10
0.656024
20
0.923228
11
0.656024
21
0.942913
0
LINE
8
BLACK
6
CONTINUOUS
10
0.656024
20
0.942913
11
0.656332
21
0.946207
0
LINE
8
BLACK
6
CONTINUOUS
10
0.656332
20
0.946207
11
0.658077
21
0.951192
0
LINE
8
BLACK
6
CONTINUOUS
10
0.658077
20
0.951192
11
0.661213
21
0.955441
0
LINE
8
BLACK
6
CONTINUOUS
10
0.661213
20
0.955441
11
0.665462
21
0.958577
0
LINE
8
BLACK
6
CONTINUOUS
10
0.665462
20
0.958577
11
0.670446
21
0.960321
0
LINE
8
BLACK
6
CONTINUOUS
10
0.670446
20
0.960321
11
0.67374
21
0.96063
0
LINE
8
BLACK
6
CONTINUOUS
10
0.67374
20
0.96063
11
0.711142
21
0.96063
0
LINE
8
BLACK
6
CONTINUOUS
10
0.711142
20
0.96063
11
0.714435
21
0.960321
0
LINE
8
BLACK
6
CONTINUOUS
10
1.02298
20
0.965734
11
1.02796
21
0.96399
0
LINE
8
BLACK
6
CONTINUOUS
10
1.02796
20
0.96399
11
1.03221
21
0.960854
0
LINE
8
BLACK
6
CONTINUOUS
10
1.03221
20
0.960854
11
1.03535
21
0.956605
0
LINE
8
BLACK
6
CONTINUOUS
10
1.03535
20
0.956605
11
1.03709
21
0.95162
0
LINE
8
BLACK
6
CONTINUOUS
10
1.03709
20
0.95162
11
1.0374
21
0.948327
0
LINE
8
BLACK
6
CONTINUOUS
10
1.0374
20
0.948327
11
1.0374
21
0.927657
0
LINE
8
BLACK
6
CONTINUOUS
10
1.0374
20
0.927657
11
1.03709
21
0.924364
0
LINE
8
BLACK
6
CONTINUOUS
10
1.03709
20
0.924364
11
1.03535
21
0.919379
0
LINE
8
BLACK
6
CONTINUOUS
10
1.03535
20
0.919379
11
1.03221
21
0.91513
0
LINE
8
BLACK
6
CONTINUOUS
10
1.03221
20
0.91513
11
1.02796
21
0.911994
0
LINE
8
BLACK
6
CONTINUOUS
10
1.02796
20
0.911994
11
1.02298
21
0.91025
0
LINE
8
BLACK
6
CONTINUOUS
10
1.02298
20
0.91025
11
1.01969
21
0.909941
0
LINE
8
BLACK
6
CONTINUOUS
10
1.01969
20
0.909941
11
0.984252
21
0.909941
0
LINE
8
BLACK
6
CONTINUOUS
10
0.984252
20
0.909941
11
0.980958
21
0.91025
0
LINE
8
BLACK
6
CONTINUOUS
10
0.980958
20
0.91025
11
0.975974
21
0.911994
0
LINE
8
BLACK
6
CONTINUOUS
10
0.975974
20
0.911994
11
0.971724
21
0.91513
0
LINE
8
BLACK
6
CONTINUOUS
10
0.971724
20
0.91513
11
0.968589
21
0.919379
0
LINE
8
BLACK
6
CONTINUOUS
10
0.968589
20
0.919379
11
0.966844
21
0.924364
0
LINE
8
BLACK
6
CONTINUOUS
10
0.966844
20
0.924364
11
0.966535
21
0.927657
0
LINE
8
BLACK
6
CONTINUOUS
10
0.966535
20
0.927657
11
0.966535
21
0.948327
0
LINE
8
BLACK
6
CONTINUOUS
10
0.966535
20
0.948327
11
0.966844
21
0.95162
0
LINE
8
BLACK
6
CONTINUOUS
10
0.966844
20
0.95162
11
0.968589
21
0.956605
0
LINE
8
BLACK
6
CONTINUOUS
10
0.968589
20
0.956605
11
0.971724
21
0.960854
0
LINE
8
BLACK
6
CONTINUOUS
10
0.971724
20
0.960854
11
0.975974
21
0.96399
0
LINE
8
BLACK
6
CONTINUOUS
10
0.975974
20
0.96399
11
0.980958
21
0.965734
0
LINE
8
BLACK
6
CONTINUOUS
10
0.980958
20
0.965734
11
0.984252
21
0.966043
0
LINE
8
BLACK
6
CONTINUOUS
10
0.984252
20
0.966043
11
1.01969
21
0.966043
0
LINE
8
BLACK
6
CONTINUOUS
10
1.01969
20
0.966043
11
1.02298
21
0.965734
0
LINE
8
BLACK
6
CONTINUOUS
10
0.913727
20
0.965242
11
0.918711
21
0.963498
0
LINE
8
BLACK
6
CONTINUOUS
10
0.918711
20
0.963498
11
0.922961
21
0.960362
0
LINE
8
BLACK
6
CONTINUOUS
10
0.922961
20
0.960362
11
0.926097
21
0.956113
0
LINE
8
BLACK
6
CONTINUOUS
10
0.926097
20
0.956113
11
0.927841
21
0.951128
0
LINE
8
BLACK
6
CONTINUOUS
10
0.927841
20
0.951128
11
0.92815
21
0.947835
0
LINE
8
BLACK
6
CONTINUOUS
10
0.92815
20
0.947835
11
0.92815
21
0.92815
0
LINE
8
BLACK
6
CONTINUOUS
10
0.92815
20
0.92815
11
0.927841
21
0.924856
0
LINE
8
BLACK
6
CONTINUOUS
10
0.927841
20
0.924856
11
0.926097
21
0.919871
0
LINE
8
BLACK
6
CONTINUOUS
10
0.926097
20
0.919871
11
0.922961
21
0.915622
0
LINE
8
BLACK
6
CONTINUOUS
10
0.922961
20
0.915622
11
0.918711
21
0.912486
0
LINE
8
BLACK
6
CONTINUOUS
10
0.918711
20
0.912486
11
0.913727
21
0.910742
0
LINE
8
BLACK
6
CONTINUOUS
10
0.913727
20
0.910742
11
0.910433
21
0.910433
0
LINE
8
BLACK
6
CONTINUOUS
10
0.910433
20
0.910433
11
0.873031
21
0.910433
0
LINE
8
BLACK
6
CONTINUOUS
10
0.873031
20
0.910433
11
0.869738
21
0.910742
0
LINE
8
BLACK
6
CONTINUOUS
10
0.869738
20
0.910742
11
0.864753
21
0.912486
0
LINE
8
BLACK
6
CONTINUOUS
10
0.864753
20
0.912486
11
0.860504
21
0.915622
0
LINE
8
BLACK
6
CONTINUOUS
10
0.860504
20
0.915622
11
0.857368
21
0.919871
0
LINE
8
BLACK
6
CONTINUOUS
10
0.857368
20
0.919871
11
0.855624
21
0.924856
0
LINE
8
BLACK
6
CONTINUOUS
10
0.855624
20
0.924856
11
0.855315
21
0.92815
0
LINE
8
BLACK
6
CONTINUOUS
10
0.855315
20
0.92815
11
0.855315
21
0.947835
0
LINE
8
BLACK
6
CONTINUOUS
10
0.855315
20
0.947835
11
0.855624
21
0.951128
0
LINE
8
BLACK
6
CONTINUOUS
10
0.855624
20
0.951128
11
0.857368
21
0.956113
0
LINE
8
BLACK
6
CONTINUOUS
10
0.857368
20
0.956113
11
0.860504
21
0.960362
0
LINE
8
BLACK
6
CONTINUOUS
10
0.860504
20
0.960362
11
0.864753
21
0.963498
0
LINE
8
BLACK
6
CONTINUOUS
10
0.864753
20
0.963498
11
0.869738
21
0.965242
0
LINE
8
BLACK
6
CONTINUOUS
10
0.869738
20
0.965242
11
0.873031
21
0.965551
0
LINE
8
BLACK
6
CONTINUOUS
10
0.873031
20
0.965551
11
0.910433
21
0.965551
0
LINE
8
BLACK
6
CONTINUOUS
10
0.910433
20
0.965551
11
0.913727
21
0.965242
0
LINE
8
BLACK
6
CONTINUOUS
10
0.587447
20
1.07056
11
0.592432
21
1.06881
0
LINE
8
BLACK
6
CONTINUOUS
10
0.592432
20
1.06881
11
0.596681
21
1.06568
0
LINE
8
BLACK
6
CONTINUOUS
10
0.596681
20
1.06568
11
0.599817
21
1.06143
0
LINE
8
BLACK
6
CONTINUOUS
10
0.599817
20
1.06143
11
0.601561
21
1.05644
0
LINE
8
BLACK
6
CONTINUOUS
10
0.601561
20
1.05644
11
0.60187
21
1.05315
0
LINE
8
BLACK
6
CONTINUOUS
10
0.60187
20
1.05315
11
0.60187
21
1.01772
0
LINE
8
BLACK
6
CONTINUOUS
10
0.60187
20
1.01772
11
0.601561
21
1.01442
0
LINE
8
BLACK
6
CONTINUOUS
10
0.601561
20
1.01442
11
0.599817
21
1.00944
0
LINE
8
BLACK
6
CONTINUOUS
10
0.599817
20
1.00944
11
0.596681
21
1.00519
0
LINE
8
BLACK
6
CONTINUOUS
10
0.596681
20
1.00519
11
0.592432
21
1.00205
0
LINE
8
BLACK
6
CONTINUOUS
10
0.592432
20
1.00205
11
0.587447
21
1.00031
0
LINE
8
BLACK
6
CONTINUOUS
10
0.587447
20
1.00031
11
0.584154
21
1
0
LINE
8
BLACK
6
CONTINUOUS
10
0.584154
20
1
11
0.563484
21
1
0
LINE
8
BLACK
6
CONTINUOUS
10
0.563484
20
1
11
0.560191
21
1.00031
0
LINE
8
BLACK
6
CONTINUOUS
10
0.560191
20
1.00031
11
0.555206
21
1.00205
0
LINE
8
BLACK
6
CONTINUOUS
10
0.555206
20
1.00205
11
0.550957
21
1.00519
0
LINE
8
BLACK
6
CONTINUOUS
10
0.550957
20
1.00519
11
0.547821
21
1.00944
0
LINE
8
BLACK
6
CONTINUOUS
10
0.547821
20
1.00944
11
0.546077
21
1.01442
0
LINE
8
BLACK
6
CONTINUOUS
10
0.546077
20
1.01442
11
0.545768
21
1.01772
0
LINE
8
BLACK
6
CONTINUOUS
10
0.545768
20
1.01772
11
0.545768
21
1.05315
0
LINE
8
BLACK
6
CONTINUOUS
10
0.545768
20
1.05315
11
0.546077
21
1.05644
0
LINE
8
BLACK
6
CONTINUOUS
10
0.546077
20
1.05644
11
0.547821
21
1.06143
0
LINE
8
BLACK
6
CONTINUOUS
10
0.547821
20
1.06143
11
0.550957
21
1.06568
0
LINE
8
BLACK
6
CONTINUOUS
10
0.550957
20
1.06568
11
0.555206
21
1.06881
0
LINE
8
BLACK
6
CONTINUOUS
10
0.555206
20
1.06881
11
0.560191
21
1.07056
0
LINE
8
BLACK
6
CONTINUOUS
10
0.560191
20
1.07056
11
0.563484
21
1.07087
0
LINE
8
BLACK
6
CONTINUOUS
10
0.563484
20
1.07087
11
0.584154
21
1.07087
0
LINE
8
BLACK
6
CONTINUOUS
10
0.584154
20
1.07087
11
0.587447
21
1.07056
0
LINE
8
BLACK
6
CONTINUOUS
10
0.659298
20
1.07056
11
0.664282
21
1.06881
0
LINE
8
BLACK
6
CONTINUOUS
10
0.664282
20
1.06881
11
0.668531
21
1.06568
0
LINE
8
BLACK
6
CONTINUOUS
10
0.668531
20
1.06568
11
0.671667
21
1.06143
0
LINE
8
BLACK
6
CONTINUOUS
10
0.671667
20
1.06143
11
0.673412
21
1.05644
0
LINE
8
BLACK
6
CONTINUOUS
10
0.673412
20
1.05644
11
0.67372
21
1.05315
0
LINE
8
BLACK
6
CONTINUOUS
10
0.67372
20
1.05315
11
0.67372
21
1.01772
0
LINE
8
BLACK
6
CONTINUOUS
10
0.67372
20
1.01772
11
0.673412
21
1.01442
0
LINE
8
BLACK
6
CONTINUOUS
10
0.673412
20
1.01442
11
0.671667
21
1.00944
0
LINE
8
BLACK
6
CONTINUOUS
10
0.671667
20
1.00944
11
0.668531
21
1.00519
0
LINE
8
BLACK
6
CONTINUOUS
10
0.668531
20
1.00519
11
0.664282
21
1.00205
0
LINE
8
BLACK
6
CONTINUOUS
10
0.664282
20
1.00205
11
0.659298
21
1.00031
0
LINE
8
BLACK
6
CONTINUOUS
10
0.659298
20
1.00031
11
0.656004
21
1
0
LINE
8
BLACK
6
CONTINUOUS
10
0.656004
20
1
11
0.635335
21
1
0
LINE
8
BLACK
6
CONTINUOUS
10
0.635335
20
1
11
0.632041
21
1.00031
0
LINE
8
BLACK
6
CONTINUOUS
10
0.632041
20
1.00031
11
0.627056
21
1.00205
0
LINE
8
BLACK
6
CONTINUOUS
10
0.627056
20
1.00205
11
0.622807
21
1.00519
0
LINE
8
BLACK
6
CONTINUOUS
10
0.622807
20
1.00519
11
0.619671
21
1.00944
0
LINE
8
BLACK
6
CONTINUOUS
10
0.619671
20
1.00944
11
0.617927
21
1.01442
0
LINE
8
BLACK
6
CONTINUOUS
10
0.617927
20
1.01442
11
0.617618
21
1.01772
0
LINE
8
BLACK
6
CONTINUOUS
10
0.617618
20
1.01772
11
0.617618
21
1.05315
0
LINE
8
BLACK
6
CONTINUOUS
10
0.617618
20
1.05315
11
0.617927
21
1.05644
0
LINE
8
BLACK
6
CONTINUOUS
10
0.617927
20
1.05644
11
0.619671
21
1.06143
0
LINE
8
BLACK
6
CONTINUOUS
10
0.619671
20
1.06143
11
0.622807
21
1.06568
0
LINE
8
BLACK
6
CONTINUOUS
10
0.622807
20
1.06568
11
0.627056
21
1.06881
0
LINE
8
BLACK
6
CONTINUOUS
10
0.627056
20
1.06881
11
0.632041
21
1.07056
0
LINE
8
BLACK
6
CONTINUOUS
10
0.632041
20
1.07056
11
0.635335
21
1.07087
0
LINE
8
BLACK
6
CONTINUOUS
10
0.635335
20
1.07087
11
0.656004
21
1.07087
0
LINE
8
BLACK
6
CONTINUOUS
10
0.656004
20
1.07087
11
0.659298
21
1.07056
0
LINE
8
BLACK
6
CONTINUOUS
10
0.725243
20
1.07056
11
0.730227
21
1.06881
0
LINE
8
BLACK
6
CONTINUOUS
10
0.730227
20
1.06881
11
0.734476
21
1.06568
0
LINE
8
BLACK
6
CONTINUOUS
10
0.734476
20
1.06568
11
0.737612
21
1.06143
0
LINE
8
BLACK
6
CONTINUOUS
10
0.737612
20
1.06143
11
0.739356
21
1.05644
0
LINE
8
BLACK
6
CONTINUOUS
10
0.739356
20
1.05644
11
0.739665
21
1.05315
0
LINE
8
BLACK
6
CONTINUOUS
10
0.739665
20
1.05315
11
0.739665
21
1.01772
0
LINE
8
BLACK
6
CONTINUOUS
10
0.739665
20
1.01772
11
0.739356
21
1.01442
0
LINE
8
BLACK
6
CONTINUOUS
10
0.739356
20
1.01442
11
0.737612
21
1.00944
0
LINE
8
BLACK
6
CONTINUOUS
10
0.737612
20
1.00944
11
0.734476
21
1.00519
0
LINE
8
BLACK
6
CONTINUOUS
10
0.734476
20
1.00519
11
0.730227
21
1.00205
0
LINE
8
BLACK
6
CONTINUOUS
10
0.730227
20
1.00205
11
0.725243
21
1.00031
0
LINE
8
BLACK
6
CONTINUOUS
10
0.725243
20
1.00031
11
0.721949
21
1
0
LINE
8
BLACK
6
CONTINUOUS
10
0.721949
20
1
11
0.70128
21
1
0
LINE
8
BLACK
6
CONTINUOUS
10
0.70128
20
1
11
0.697986
21
1.00031
0
LINE
8
BLACK
6
CONTINUOUS
10
0.697986
20
1.00031
11
0.693001
21
1.00205
0
LINE
8
BLACK
6
CONTINUOUS
10
0.693001
20
1.00205
11
0.688752
21
1.00519
0
LINE
8
BLACK
6
CONTINUOUS
10
0.688752
20
1.00519
11
0.685616
21
1.00944
0
LINE
8
BLACK
6
CONTINUOUS
10
0.685616
20
1.00944
11
0.683872
21
1.01442
0
LINE
8
BLACK
6
CONTINUOUS
10
0.683872
20
1.01442
11
0.683563
21
1.01772
0
LINE
8
BLACK
6
CONTINUOUS
10
0.683563
20
1.01772
11
0.683563
21
1.05315
0
LINE
8
BLACK
6
CONTINUOUS
10
0.683563
20
1.05315
11
0.683872
21
1.05644
0
LINE
8
BLACK
6
CONTINUOUS
10
0.683872
20
1.05644
11
0.685616
21
1.06143
0
LINE
8
BLACK
6
CONTINUOUS
10
0.685616
20
1.06143
11
0.688752
21
1.06568
0
LINE
8
BLACK
6
CONTINUOUS
10
0.688752
20
1.06568
11
0.693001
21
1.06881
0
LINE
8
BLACK
6
CONTINUOUS
10
0.693001
20
1.06881
11
0.697986
21
1.07056
0
LINE
8
BLACK
6
CONTINUOUS
10
0.697986
20
1.07056
11
0.70128
21
1.07087
0
LINE
8
BLACK
6
CONTINUOUS
10
0.70128
20
1.07087
11
0.721949
21
1.07087
0
LINE
8
BLACK
6
CONTINUOUS
10
0.721949
20
1.07087
11
0.725243
21
1.07056
0
LINE
8
BLACK
6
CONTINUOUS
10
0.797093
20
1.07056
11
0.802078
21
1.06881
0
LINE
8
BLACK
6
CONTINUOUS
10
0.802078
20
1.06881
11
0.806327
21
1.06568
0
LINE
8
BLACK
6
CONTINUOUS
10
0.806327
20
1.06568
11
0.809463
21
1.06143
0
LINE
8
BLACK
6
CONTINUOUS
10
0.809463
20
1.06143
11
0.811207
21
1.05644
0
LINE
8
BLACK
6
CONTINUOUS
10
0.811207
20
1.05644
11
0.811516
21
1.05315
0
LINE
8
BLACK
6
CONTINUOUS
10
0.811516
20
1.05315
11
0.811516
21
1.01772
0
LINE
8
BLACK
6
CONTINUOUS
10
0.811516
20
1.01772
11
0.811207
21
1.01442
0
LINE
8
BLACK
6
CONTINUOUS
10
0.811207
20
1.01442
11
0.809463
21
1.00944
0
LINE
8
BLACK
6
CONTINUOUS
10
0.809463
20
1.00944
11
0.806327
21
1.00519
0
LINE
8
BLACK
6
CONTINUOUS
10
0.806327
20
1.00519
11
0.802078
21
1.00205
0
LINE
8
BLACK
6
CONTINUOUS
10
0.802078
20
1.00205
11
0.797093
21
1.00031
0
LINE
8
BLACK
6
CONTINUOUS
10
0.797093
20
1.00031
11
0.793799
21
1
0
LINE
8
BLACK
6
CONTINUOUS
10
0.793799
20
1
11
0.77313
21
1
0
LINE
8
BLACK
6
CONTINUOUS
10
0.77313
20
1
11
0.769836
21
1.00031
0
LINE
8
BLACK
6
CONTINUOUS
10
0.769836
20
1.00031
11
0.764852
21
1.00205
0
LINE
8
BLACK
6
CONTINUOUS
10
0.764852
20
1.00205
11
0.760602
21
1.00519
0
LINE
8
BLACK
6
CONTINUOUS
10
0.760602
20
1.00519
11
0.757466
21
1.00944
0
LINE
8
BLACK
6
CONTINUOUS
10
0.757466
20
1.00944
11
0.755722
21
1.01442
0
LINE
8
BLACK
6
CONTINUOUS
10
0.755722
20
1.01442
11
0.755413
21
1.01772
0
LINE
8
BLACK
6
CONTINUOUS
10
0.755413
20
1.01772
11
0.755413
21
1.05315
0
LINE
8
BLACK
6
CONTINUOUS
10
0.755413
20
1.05315
11
0.755722
21
1.05644
0
LINE
8
BLACK
6
CONTINUOUS
10
0.755722
20
1.05644
11
0.757466
21
1.06143
0
LINE
8
BLACK
6
CONTINUOUS
10
0.757466
20
1.06143
11
0.760602
21
1.06568
0
LINE
8
BLACK
6
CONTINUOUS
10
0.760602
20
1.06568
11
0.764852
21
1.06881
0
LINE
8
BLACK
6
CONTINUOUS
10
0.764852
20
1.06881
11
0.769836
21
1.07056
0
LINE
8
BLACK
6
CONTINUOUS
10
0.769836
20
1.07056
11
0.77313
21
1.07087
0
LINE
8
BLACK
6
CONTINUOUS
10
0.77313
20
1.07087
11
0.793799
21
1.07087
0
LINE
8
BLACK
6
CONTINUOUS
10
0.793799
20
1.07087
11
0.797093
21
1.07056
0
LINE
8
BLACK
6
CONTINUOUS
10
0.991933
20
1.14098
11
0.999318
21
1.13874
0
LINE
8
BLACK
6
CONTINUOUS
10
0.999318
20
1.13874
11
1.00612
21
1.1351
0
LINE
8
BLACK
6
CONTINUOUS
10
1.00612
20
1.1351
11
1.01209
21
1.1302
0
LINE
8
BLACK
6
CONTINUOUS
10
1.01209
20
1.1302
11
1.01699
21
1.12424
0
LINE
8
BLACK
6
CONTINUOUS
10
1.01699
20
1.12424
11
1.02063
21
1.11743
0
LINE
8
BLACK
6
CONTINUOUS
10
1.02063
20
1.11743
11
1.02287
21
1.11004
0
LINE
8
BLACK
6
CONTINUOUS
10
1.02287
20
1.11004
11
1.02362
21
1.10236
0
LINE
8
BLACK
6
CONTINUOUS
10
1.02362
20
1.10236
11
1.02287
21
1.09468
0
LINE
8
BLACK
6
CONTINUOUS
10
1.02287
20
1.09468
11
1.02063
21
1.0873
0
LINE
8
BLACK
6
CONTINUOUS
10
1.02063
20
1.0873
11
1.01699
21
1.08049
0
LINE
8
BLACK
6
CONTINUOUS
10
1.01699
20
1.08049
11
1.01209
21
1.07452
0
LINE
8
BLACK
6
CONTINUOUS
10
1.01209
20
1.07452
11
1.00612
21
1.06963
0
LINE
8
BLACK
6
CONTINUOUS
10
1.00612
20
1.06963
11
0.999318
21
1.06599
0
LINE
8
BLACK
6
CONTINUOUS
10
0.999318
20
1.06599
11
0.991933
21
1.06375
0
LINE
8
BLACK
6
CONTINUOUS
10
0.991933
20
1.06375
11
0.984252
21
1.06299
0
LINE
8
BLACK
6
CONTINUOUS
10
0.984252
20
1.06299
11
0.976571
21
1.06375
0
LINE
8
BLACK
6
CONTINUOUS
10
0.976571
20
1.06375
11
0.969186
21
1.06599
0
LINE
8
BLACK
6
CONTINUOUS
10
0.969186
20
1.06599
11
0.962379
21
1.06963
0
LINE
8
BLACK
6
CONTINUOUS
10
0.962379
20
1.06963
11
0.956413
21
1.07452
0
LINE
8
BLACK
6
CONTINUOUS
10
0.956413
20
1.07452
11
0.951517
21
1.08049
0
LINE
8
BLACK
6
CONTINUOUS
10
0.951517
20
1.08049
11
0.947879
21
1.0873
0
LINE
8
BLACK
6
CONTINUOUS
10
0.947879
20
1.0873
11
0.945638
21
1.09468
0
LINE
8
BLACK
6
CONTINUOUS
10
0.945638
20
1.09468
11
0.944882
21
1.10236
0
LINE
8
BLACK
6
CONTINUOUS
10
0.944882
20
1.10236
11
0.945638
21
1.11004
0
LINE
8
BLACK
6
CONTINUOUS
10
0.945638
20
1.11004
11
0.947879
21
1.11743
0
LINE
8
BLACK
6
CONTINUOUS
10
0.947879
20
1.11743
11
0.951517
21
1.12424
0
LINE
8
BLACK
6
CONTINUOUS
10
0.951517
20
1.12424
11
0.956413
21
1.1302
0
LINE
8
BLACK
6
CONTINUOUS
10
0.956413
20
1.1302
11
0.962379
21
1.1351
0
LINE
8
BLACK
6
CONTINUOUS
10
0.962379
20
1.1351
11
0.969186
21
1.13874
0
LINE
8
BLACK
6
CONTINUOUS
10
0.969186
20
1.13874
11
0.976571
21
1.14098
0
LINE
8
BLACK
6
CONTINUOUS
10
0.976571
20
1.14098
11
0.984252
21
1.14173
0
LINE
8
BLACK
6
CONTINUOUS
10
0.984252
20
1.14173
11
0.991933
21
1.14098
0
LINE
8
BLACK
6
CONTINUOUS
10
0.414106
20
1.32519
11
0.428034
21
1.32283
0
LINE
8
BLACK
6
CONTINUOUS
10
0.428034
20
1.32283
11
0.44161
21
1.31891
0
LINE
8
BLACK
6
CONTINUOUS
10
0.44161
20
1.31891
11
0.454663
21
1.31351
0
LINE
8
BLACK
6
CONTINUOUS
10
0.454663
20
1.31351
11
0.467028
21
1.30667
0
LINE
8
BLACK
6
CONTINUOUS
10
0.467028
20
1.30667
11
0.47855
21
1.2985
0
LINE
8
BLACK
6
CONTINUOUS
10
0.47855
20
1.2985
11
0.489084
21
1.28908
0
LINE
8
BLACK
6
CONTINUOUS
10
0.489084
20
1.28908
11
0.498499
21
1.27855
0
LINE
8
BLACK
6
CONTINUOUS
10
0.498499
20
1.27855
11
0.506674
21
1.26703
0
LINE
8
BLACK
6
CONTINUOUS
10
0.506674
20
1.26703
11
0.513508
21
1.25466
0
LINE
8
BLACK
6
CONTINUOUS
10
0.513508
20
1.25466
11
0.518914
21
1.24161
0
LINE
8
BLACK
6
CONTINUOUS
10
0.518914
20
1.24161
11
0.522826
21
1.22803
0
LINE
8
BLACK
6
CONTINUOUS
10
0.522826
20
1.22803
11
0.525192
21
1.21411
0
LINE
8
BLACK
6
CONTINUOUS
10
0.525192
20
1.21411
11
0.525984
21
1.2
0
LINE
8
BLACK
6
CONTINUOUS
10
0.525984
20
1.2
11
0.525192
21
1.18589
0
LINE
8
BLACK
6
CONTINUOUS
10
0.525192
20
1.18589
11
0.522826
21
1.17197
0
LINE
8
BLACK
6
CONTINUOUS
10
0.522826
20
1.17197
11
0.518914
21
1.15839
0
LINE
8
BLACK
6
CONTINUOUS
10
0.518914
20
1.15839
11
0.513508
21
1.14534
0
LINE
8
BLACK
6
CONTINUOUS
10
0.513508
20
1.14534
11
0.506674
21
1.13297
0
LINE
8
BLACK
6
CONTINUOUS
10
0.506674
20
1.13297
11
0.498499
21
1.12145
0
LINE
8
BLACK
6
CONTINUOUS
10
0.498499
20
1.12145
11
0.489084
21
1.11092
0
LINE
8
BLACK
6
CONTINUOUS
10
0.489084
20
1.11092
11
0.47855
21
1.1015
0
LINE
8
BLACK
6
CONTINUOUS
10
0.47855
20
1.1015
11
0.467028
21
1.09333
0
LINE
8
BLACK
6
CONTINUOUS
10
0.467028
20
1.09333
11
0.454663
21
1.08649
0
LINE
8
BLACK
6
CONTINUOUS
10
0.454663
20
1.08649
11
0.44161
21
1.08109
0
LINE
8
BLACK
6
CONTINUOUS
10
0.44161
20
1.08109
11
0.428034
21
1.07717
0
LINE
8
BLACK
6
CONTINUOUS
10
0.428034
20
1.07717
11
0.414106
21
1.07481
0
LINE
8
BLACK
6
CONTINUOUS
10
0.414106
20
1.07481
11
0.4
21
1.07402
0
LINE
8
BLACK
6
CONTINUOUS
10
0.4
20
1.07402
11
0.385894
21
1.07481
0
LINE
8
BLACK
6
CONTINUOUS
10
0.385894
20
1.07481
11
0.371966
21
1.07717
0
LINE
8
BLACK
6
CONTINUOUS
10
0.371966
20
1.07717
11
0.35839
21
1.08109
0
LINE
8
BLACK
6
CONTINUOUS
10
0.35839
20
1.08109
11
0.345338
21
1.08649
0
LINE
8
BLACK
6
CONTINUOUS
10
0.345338
20
1.08649
11
0.332972
21
1.09333
0
LINE
8
BLACK
6
CONTINUOUS
10
0.332972
20
1.09333
11
0.32145
21
1.1015
0
LINE
8
BLACK
6
CONTINUOUS
10
0.32145
20
1.1015
11
0.310916
21
1.11092
0
LINE
8
BLACK
6
CONTINUOUS
10
0.310916
20
1.11092
11
0.301502
21
1.12145
0
LINE
8
BLACK
6
CONTINUOUS
10
0.301502
20
1.12145
11
0.293326
21
1.13297
0
LINE
8
BLACK
6
CONTINUOUS
10
0.293326
20
1.13297
11
0.286492
21
1.14534
0
LINE
8
BLACK
6
CONTINUOUS
10
0.286492
20
1.14534
11
0.281086
21
1.15839
0
LINE
8
BLACK
6
CONTINUOUS
10
0.281086
20
1.15839
11
0.277174
21
1.17197
0
LINE
8
BLACK
6
CONTINUOUS
10
0.277174
20
1.17197
11
0.274808
21
1.18589
0
LINE
8
BLACK
6
CONTINUOUS
10
0.274808
20
1.18589
11
0.274016
21
1.2
0
LINE
8
BLACK
6
CONTINUOUS
10
0.274016
20
1.2
11
0.274808
21
1.21411
0
LINE
8
BLACK
6
CONTINUOUS
10
0.274808
20
1.21411
11
0.277174
21
1.22803
0
LINE
8
BLACK
6
CONTINUOUS
10
0.277174
20
1.22803
11
0.281086
21
1.24161
0
LINE
8
BLACK
6
CONTINUOUS
10
0.281086
20
1.24161
11
0.286492
21
1.25466
0
LINE
8
BLACK
6
CONTINUOUS
10
0.286492
20
1.25466
11
0.293326
21
1.26703
0
LINE
8
BLACK
6
CONTINUOUS
10
0.293326
20
1.26703
11
0.301502
21
1.27855
0
LINE
8
BLACK
6
CONTINUOUS
10
0.301502
20
1.27855
11
0.310916
21
1.28908
0
LINE
8
BLACK
6
CONTINUOUS
10
0.310916
20
1.28908
11
0.32145
21
1.2985
0
LINE
8
BLACK
6
CONTINUOUS
10
0.32145
20
1.2985
11
0.332972
21
1.30667
0
LINE
8
BLACK
6
CONTINUOUS
10
0.332972
20
1.30667
11
0.345338
21
1.31351
0
LINE
8
BLACK
6
CONTINUOUS
10
0.345338
20
1.31351
11
0.35839
21
1.31891
0
LINE
8
BLACK
6
CONTINUOUS
10
0.35839
20
1.31891
11
0.371966
21
1.32283
0
LINE
8
BLACK
6
CONTINUOUS
10
0.371966
20
1.32283
11
0.385894
21
1.32519
0
LINE
8
BLACK
6
CONTINUOUS
10
0.385894
20
1.32519
11
0.4
21
1.32598
0
LINE
8
BLACK
6
CONTINUOUS
10
0.4
20
1.32598
11
0.414106
21
1.32519
0
LINE
8
BLACK
6
CONTINUOUS
10
1.21411
20
1.32519
11
1.22803
21
1.32283
0
LINE
8
BLACK
6
CONTINUOUS
10
1.22803
20
1.32283
11
1.24161
21
1.31891
0
LINE
8
BLACK
6
CONTINUOUS
10
1.24161
20
1.31891
11
1.25466
21
1.31351
0
LINE
8
BLACK
6
CONTINUOUS
10
1.25466
20
1.31351
11
1.26703
21
1.30667
0
LINE
8
BLACK
6
CONTINUOUS
10
1.26703
20
1.30667
11
1.27855
21
1.2985
0
LINE
8
BLACK
6
CONTINUOUS
10
1.27855
20
1.2985
11
1.28908
21
1.28908
0
LINE
8
BLACK
6
CONTINUOUS
10
1.28908
20
1.28908
11
1.2985
21
1.27855
0
LINE
8
BLACK
6
CONTINUOUS
10
1.2985
20
1.27855
11
1.30667
21
1.26703
0
LINE
8
BLACK
6
CONTINUOUS
10
1.30667
20
1.26703
11
1.31351
21
1.25466
0
LINE
8
BLACK
6
CONTINUOUS
10
1.31351
20
1.25466
11
1.31891
21
1.24161
0
LINE
8
BLACK
6
CONTINUOUS
10
1.31891
20
1.24161
11
1.32283
21
1.22803
0
LINE
8
BLACK
6
CONTINUOUS
10
1.32283
20
1.22803
11
1.32519
21
1.21411
0
LINE
8
BLACK
6
CONTINUOUS
10
1.32519
20
1.21411
11
1.32598
21
1.2
0
LINE
8
BLACK
6
CONTINUOUS
10
1.32598
20
1.2
11
1.32519
21
1.18589
0
LINE
8
BLACK
6
CONTINUOUS
10
1.32519
20
1.18589
11
1.32283
21
1.17197
0
LINE
8
BLACK
6
CONTINUOUS
10
1.32283
20
1.17197
11
1.31891
21
1.15839
0
LINE
8
BLACK
6
CONTINUOUS
10
1.31891
20
1.15839
11
1.31351
21
1.14534
0
LINE
8
BLACK
6
CONTINUOUS
10
1.31351
20
1.14534
11
1.30667
21
1.13297
0
LINE
8
BLACK
6
CONTINUOUS
10
1.30667
20
1.13297
11
1.2985
21
1.12145
0
LINE
8
BLACK
6
CONTINUOUS
10
1.2985
20
1.12145
11
1.28908
21
1.11092
0
LINE
8
BLACK
6
CONTINUOUS
10
1.28908
20
1.11092
11
1.27855
21
1.1015
0
LINE
8
BLACK
6
CONTINUOUS
10
1.27855
20
1.1015
11
1.26703
21
1.09333
0
LINE
8
BLACK
6
CONTINUOUS
10
1.26703
20
1.09333
11
1.25466
21
1.08649
0
LINE
8
BLACK
6
CONTINUOUS
10
1.25466
20
1.08649
11
1.24161
21
1.08109
0
LINE
8
BLACK
6
CONTINUOUS
10
1.24161
20
1.08109
11
1.22803
21
1.07717
0
LINE
8
BLACK
6
CONTINUOUS
10
1.22803
20
1.07717
11
1.21411
21
1.07481
0
LINE
8
BLACK
6
CONTINUOUS
10
1.21411
20
1.07481
11
1.2
21
1.07402
0
LINE
8
BLACK
6
CONTINUOUS
10
1.2
20
1.07402
11
1.18589
21
1.07481
0
LINE
8
BLACK
6
CONTINUOUS
10
1.18589
20
1.07481
11
1.17197
21
1.07717
0
LINE
8
BLACK
6
CONTINUOUS
10
1.17197
20
1.07717
11
1.15839
21
1.08109
0
LINE
8
BLACK
6
CONTINUOUS
10
1.15839
20
1.08109
11
1.14534
21
1.08649
0
LINE
8
BLACK
6
CONTINUOUS
10
1.14534
20
1.08649
11
1.13297
21
1.09333
0
LINE
8
BLACK
6
CONTINUOUS
10
1.13297
20
1.09333
11
1.12145
21
1.1015
0
LINE
8
BLACK
6
CONTINUOUS
10
1.12145
20
1.1015
11
1.11092
21
1.11092
0
LINE
8
BLACK
6
CONTINUOUS
10
1.11092
20
1.11092
11
1.1015
21
1.12145
0
LINE
8
BLACK
6
CONTINUOUS
10
1.1015
20
1.12145
11
1.09333
21
1.13297
0
LINE
8
BLACK
6
CONTINUOUS
10
1.09333
20
1.13297
11
1.08649
21
1.14534
0
LINE
8
BLACK
6
CONTINUOUS
10
1.08649
20
1.14534
11
1.08109
21
1.15839
0
LINE
8
BLACK
6
CONTINUOUS
10
1.08109
20
1.15839
11
1.07717
21
1.17197
0
LINE
8
BLACK
6
CONTINUOUS
10
1.07717
20
1.17197
11
1.07481
21
1.18589
0
LINE
8
BLACK
6
CONTINUOUS
10
1.07481
20
1.18589
11
1.07402
21
1.2
0
LINE
8
BLACK
6
CONTINUOUS
10
1.07402
20
1.2
11
1.07481
21
1.21411
0
LINE
8
BLACK
6
CONTINUOUS
10
1.07481
20
1.21411
11
1.07717
21
1.22803
0
LINE
8
BLACK
6
CONTINUOUS
10
1.07717
20
1.22803
11
1.08109
21
1.24161
0
LINE
8
BLACK
6
CONTINUOUS
10
1.08109
20
1.24161
11
1.08649
21
1.25466
0
LINE
8
BLACK
6
CONTINUOUS
10
1.08649
20
1.25466
11
1.09333
21
1.26703
0
LINE
8
BLACK
6
CONTINUOUS
10
1.09333
20
1.26703
11
1.1015
21
1.27855
0
LINE
8
BLACK
6
CONTINUOUS
10
1.1015
20
1.27855
11
1.11092
21
1.28908
0
LINE
8
BLACK
6
CONTINUOUS
10
1.11092
20
1.28908
11
1.12145
21
1.2985
0
LINE
8
BLACK
6
CONTINUOUS
10
1.12145
20
1.2985
11
1.13297
21
1.30667
0
LINE
8
BLACK
6
CONTINUOUS
10
1.13297
20
1.30667
11
1.14534
21
1.31351
0
LINE
8
BLACK
6
CONTINUOUS
10
1.14534
20
1.31351
11
1.15839
21
1.31891
0
LINE
8
BLACK
6
CONTINUOUS
10
1.15839
20
1.31891
11
1.17197
21
1.32283
0
LINE
8
BLACK
6
CONTINUOUS
10
1.17197
20
1.32283
11
1.18589
21
1.32519
0
LINE
8
BLACK
6
CONTINUOUS
10
1.18589
20
1.32519
11
1.2
21
1.32598
0
LINE
8
BLACK
6
CONTINUOUS
10
1.2
20
1.32598
11
1.21411
21
1.32519
0
LINE
8
BLACK
6
CONTINUOUS
10
0.734443
20
1.19743
11
0.742198
21
1.19508
0
LINE
8
BLACK
6
CONTINUOUS
10
0.742198
20
1.19508
11
0.749344
21
1.19126
0
LINE
8
BLACK
6
CONTINUOUS
10
0.749344
20
1.19126
11
0.755609
21
1.18612
0
LINE
8
BLACK
6
CONTINUOUS
10
0.755609
20
1.18612
11
0.76075
21
1.17986
0
LINE
8
BLACK
6
CONTINUOUS
10
0.76075
20
1.17986
11
0.76457
21
1.17271
0
LINE
8
BLACK
6
CONTINUOUS
10
0.76457
20
1.17271
11
0.766922
21
1.16495
0
LINE
8
BLACK
6
CONTINUOUS
10
0.766922
20
1.16495
11
0.767717
21
1.15689
0
LINE
8
BLACK
6
CONTINUOUS
10
0.767717
20
1.15689
11
0.766922
21
1.14882
0
LINE
8
BLACK
6
CONTINUOUS
10
0.766922
20
1.14882
11
0.76457
21
1.14107
0
LINE
8
BLACK
6
CONTINUOUS
10
0.76457
20
1.14107
11
0.76075
21
1.13392
0
LINE
8
BLACK
6
CONTINUOUS
10
0.76075
20
1.13392
11
0.755609
21
1.12766
0
LINE
8
BLACK
6
CONTINUOUS
10
0.755609
20
1.12766
11
0.749344
21
1.12252
0
LINE
8
BLACK
6
CONTINUOUS
10
0.749344
20
1.12252
11
0.742198
21
1.1187
0
LINE
8
BLACK
6
CONTINUOUS
10
0.742198
20
1.1187
11
0.734443
21
1.11635
0
LINE
8
BLACK
6
CONTINUOUS
10
0.734443
20
1.11635
11
0.726378
21
1.11555
0
LINE
8
BLACK
6
CONTINUOUS
10
0.726378
20
1.11555
11
0.718313
21
1.11635
0
LINE
8
BLACK
6
CONTINUOUS
10
0.718313
20
1.11635
11
0.710558
21
1.1187
0
LINE
8
BLACK
6
CONTINUOUS
10
0.710558
20
1.1187
11
0.703411
21
1.12252
0
LINE
8
BLACK
6
CONTINUOUS
10
0.703411
20
1.12252
11
0.697147
21
1.12766
0
LINE
8
BLACK
6
CONTINUOUS
10
0.697147
20
1.12766
11
0.692006
21
1.13392
0
LINE
8
BLACK
6
CONTINUOUS
10
0.692006
20
1.13392
11
0.688186
21
1.14107
0
LINE
8
BLACK
6
CONTINUOUS
10
0.688186
20
1.14107
11
0.685834
21
1.14882
0
LINE
8
BLACK
6
CONTINUOUS
10
0.685834
20
1.14882
11
0.685039
21
1.15689
0
LINE
8
BLACK
6
CONTINUOUS
10
0.685039
20
1.15689
11
0.685834
21
1.16495
0
LINE
8
BLACK
6
CONTINUOUS
10
0.685834
20
1.16495
11
0.688186
21
1.17271
0
LINE
8
BLACK
6
CONTINUOUS
10
0.688186
20
1.17271
11
0.692006
21
1.17986
0
LINE
8
BLACK
6
CONTINUOUS
10
0.692006
20
1.17986
11
0.697147
21
1.18612
0
LINE
8
BLACK
6
CONTINUOUS
10
0.697147
20
1.18612
11
0.703411
21
1.19126
0
LINE
8
BLACK
6
CONTINUOUS
10
0.703411
20
1.19126
11
0.710558
21
1.19508
0
LINE
8
BLACK
6
CONTINUOUS
10
0.710558
20
1.19508
11
0.718313
21
1.19743
0
LINE
8
BLACK
6
CONTINUOUS
10
0.718313
20
1.19743
11
0.726378
21
1.19823
0
LINE
8
BLACK
6
CONTINUOUS
10
0.726378
20
1.19823
11
0.734443
21
1.19743
0
LINE
8
BLACK
6
CONTINUOUS
10
0.834443
20
1.19743
11
0.842198
21
1.19508
0
LINE
8
BLACK
6
CONTINUOUS
10
0.842198
20
1.19508
11
0.849344
21
1.19126
0
LINE
8
BLACK
6
CONTINUOUS
10
0.849344
20
1.19126
11
0.855609
21
1.18612
0
LINE
8
BLACK
6
CONTINUOUS
10
0.855609
20
1.18612
11
0.86075
21
1.17986
0
LINE
8
BLACK
6
CONTINUOUS
10
0.86075
20
1.17986
11
0.86457
21
1.17271
0
LINE
8
BLACK
6
CONTINUOUS
10
0.86457
20
1.17271
11
0.866922
21
1.16495
0
LINE
8
BLACK
6
CONTINUOUS
10
0.866922
20
1.16495
11
0.867717
21
1.15689
0
LINE
8
BLACK
6
CONTINUOUS
10
0.867717
20
1.15689
11
0.866922
21
1.14882
0
LINE
8
BLACK
6
CONTINUOUS
10
0.866922
20
1.14882
11
0.86457
21
1.14107
0
LINE
8
BLACK
6
CONTINUOUS
10
0.86457
20
1.14107
11
0.86075
21
1.13392
0
LINE
8
BLACK
6
CONTINUOUS
10
0.86075
20
1.13392
11
0.855609
21
1.12766
0
LINE
8
BLACK
6
CONTINUOUS
10
0.855609
20
1.12766
11
0.849344
21
1.12252
0
LINE
8
BLACK
6
CONTINUOUS
10
0.849344
20
1.12252
11
0.842198
21
1.1187
0
LINE
8
BLACK
6
CONTINUOUS
10
0.842198
20
1.1187
11
0.834443
21
1.11635
0
LINE
8
BLACK
6
CONTINUOUS
10
0.834443
20
1.11635
11
0.826378
21
1.11555
0
LINE
8
BLACK
6
CONTINUOUS
10
0.826378
20
1.11555
11
0.818313
21
1.11635
0
LINE
8
BLACK
6
CONTINUOUS
10
0.818313
20
1.11635
11
0.810558
21
1.1187
0
LINE
8
BLACK
6
CONTINUOUS
10
0.810558
20
1.1187
11
0.803411
21
1.12252
0
LINE
8
BLACK
6
CONTINUOUS
10
0.803411
20
1.12252
11
0.797147
21
1.12766
0
LINE
8
BLACK
6
CONTINUOUS
10
0.797147
20
1.12766
11
0.792006
21
1.13392
0
LINE
8
BLACK
6
CONTINUOUS
10
0.792006
20
1.13392
11
0.788186
21
1.14107
0
LINE
8
BLACK
6
CONTINUOUS
10
0.788186
20
1.14107
11
0.785834
21
1.14882
0
LINE
8
BLACK
6
CONTINUOUS
10
0.785834
20
1.14882
11
0.785039
21
1.15689
0
LINE
8
BLACK
6
CONTINUOUS
10
0.785039
20
1.15689
11
0.785834
21
1.16495
0
LINE
8
BLACK
6
CONTINUOUS
10
0.785834
20
1.16495
11
0.788186
21
1.17271
0
LINE
8
BLACK
6
CONTINUOUS
10
0.788186
20
1.17271
11
0.792006
21
1.17986
0
LINE
8
BLACK
6
CONTINUOUS
10
0.792006
20
1.17986
11
0.797147
21
1.18612
0
LINE
8
BLACK
6
CONTINUOUS
10
0.797147
20
1.18612
11
0.803411
21
1.19126
0
LINE
8
BLACK
6
CONTINUOUS
10
0.803411
20
1.19126
11
0.810558
21
1.19508
0
LINE
8
BLACK
6
CONTINUOUS
10
0.810558
20
1.19508
11
0.818313
21
1.19743
0
LINE
8
BLACK
6
CONTINUOUS
10
0.818313
20
1.19743
11
0.826378
21
1.19823
0
LINE
8
BLACK
6
CONTINUOUS
10
0.826378
20
1.19823
11
0.834443
21
1.19743
0
LINE
8
BLACK
6
CONTINUOUS
10
0.762856
20
1.29763
11
0.76541
21
1.29592
0
LINE
8
BLACK
6
CONTINUOUS
10
0.76541
20
1.29592
11
0.767117
21
1.29337
0
LINE
8
BLACK
6
CONTINUOUS
10
0.767117
20
1.29337
11
0.767717
21
1.29035
0
LINE
8
BLACK
6
CONTINUOUS
10
0.767717
20
1.29035
11
0.767717
21
1.22343
0
LINE
8
BLACK
6
CONTINUOUS
10
0.767717
20
1.22343
11
0.767117
21
1.22041
0
LINE
8
BLACK
6
CONTINUOUS
10
0.767117
20
1.22041
11
0.76541
21
1.21786
0
LINE
8
BLACK
6
CONTINUOUS
10
0.76541
20
1.21786
11
0.762856
21
1.21615
0
LINE
8
BLACK
6
CONTINUOUS
10
0.762856
20
1.21615
11
0.759843
21
1.21555
0
LINE
8
BLACK
6
CONTINUOUS
10
0.759843
20
1.21555
11
0.692913
21
1.21555
0
LINE
8
BLACK
6
CONTINUOUS
10
0.692913
20
1.21555
11
0.6899
21
1.21615
0
LINE
8
BLACK
6
CONTINUOUS
10
0.6899
20
1.21615
11
0.687346
21
1.21786
0
LINE
8
BLACK
6
CONTINUOUS
10
0.687346
20
1.21786
11
0.685639
21
1.22041
0
LINE
8
BLACK
6
CONTINUOUS
10
0.685639
20
1.22041
11
0.685039
21
1.22343
0
LINE
8
BLACK
6
CONTINUOUS
10
0.685039
20
1.22343
11
0.685039
21
1.29035
0
LINE
8
BLACK
6
CONTINUOUS
10
0.685039
20
1.29035
11
0.685639
21
1.29337
0
LINE
8
BLACK
6
CONTINUOUS
10
0.685639
20
1.29337
11
0.687346
21
1.29592
0
LINE
8
BLACK
6
CONTINUOUS
10
0.687346
20
1.29592
11
0.6899
21
1.29763
0
LINE
8
BLACK
6
CONTINUOUS
10
0.6899
20
1.29763
11
0.692913
21
1.29823
0
LINE
8
BLACK
6
CONTINUOUS
10
0.692913
20
1.29823
11
0.759843
21
1.29823
0
LINE
8
BLACK
6
CONTINUOUS
10
0.759843
20
1.29823
11
0.762856
21
1.29763
0
LINE
8
BLACK
6
CONTINUOUS
10
0.862856
20
1.29763
11
0.86541
21
1.29592
0
LINE
8
BLACK
6
CONTINUOUS
10
0.86541
20
1.29592
11
0.867117
21
1.29337
0
LINE
8
BLACK
6
CONTINUOUS
10
0.867117
20
1.29337
11
0.867717
21
1.29035
0
LINE
8
BLACK
6
CONTINUOUS
10
0.867717
20
1.29035
11
0.867717
21
1.22343
0
LINE
8
BLACK
6
CONTINUOUS
10
0.867717
20
1.22343
11
0.867117
21
1.22041
0
LINE
8
BLACK
6
CONTINUOUS
10
0.867117
20
1.22041
11
0.86541
21
1.21786
0
LINE
8
BLACK
6
CONTINUOUS
10
0.86541
20
1.21786
11
0.862856
21
1.21615
0
LINE
8
BLACK
6
CONTINUOUS
10
0.862856
20
1.21615
11
0.859843
21
1.21555
0
LINE
8
BLACK
6
CONTINUOUS
10
0.859843
20
1.21555
11
0.792913
21
1.21555
0
LINE
8
BLACK
6
CONTINUOUS
10
0.792913
20
1.21555
11
0.7899
21
1.21615
0
LINE
8
BLACK
6
CONTINUOUS
10
0.7899
20
1.21615
11
0.787346
21
1.21786
0
LINE
8
BLACK
6
CONTINUOUS
10
0.787346
20
1.21786
11
0.785639
21
1.22041
0
LINE
8
BLACK
6
CONTINUOUS
10
0.785639
20
1.22041
11
0.785039
21
1.22343
0
LINE
8
BLACK
6
CONTINUOUS
10
0.785039
20
1.22343
11
0.785039
21
1.29035
0
LINE
8
BLACK
6
CONTINUOUS
10
0.785039
20
1.29035
11
0.785639
21
1.29337
0
LINE
8
BLACK
6
CONTINUOUS
10
0.785639
20
1.29337
11
0.787346
21
1.29592
0
LINE
8
BLACK
6
CONTINUOUS
10
0.787346
20
1.29592
11
0.7899
21
1.29763
0
LINE
8
BLACK
6
CONTINUOUS
10
0.7899
20
1.29763
11
0.792913
21
1.29823
0
LINE
8
BLACK
6
CONTINUOUS
10
0.792913
20
1.29823
11
0.859843
21
1.29823
0
LINE
8
BLACK
6
CONTINUOUS
10
0.859843
20
1.29823
11
0.862856
21
1.29763
  0
ENDSEC
  0
EOF
