  0
SECTION
  2
HEADER
  9
$ANGBASE
  50
0.0
  9
$ANGDIR
  70
1
  9
$MEASUREMENT
  70
0
  0
ENDSEC
  0
SECTION
  2
TABLES
  0
TABLE
  2
LTYPE
  70
4
  0
LTYPE
  5
40F
  2
CONTINUOUS
  70
0
  3
Solid line
  72
65
  73
0
  40
0.0
  0
LTYPE
  5
410
  2
DASHDOT
 70
0
  3
Dash Dot ____ _ ____ _
 72
65
 73
4
 40
2.0
 49
1.25
 49
-0.25
 49
0.25
 49
-0.25
  0
LTYPE
  5
411
  2
DASHED
 70
0
  3
Dashed __ __ __ __ __
 72
65
 73
2
 40
0.75
 49
0.5
 49
-0.25
  0
LTYPE
  5
43B
  2
DOTTED
 70
0
  3
Dotted .  .  .  .
 72
65
 73
2
 40
0.2
 49
0.0
 49
-0.2
  0
ENDTAB
  0
TABLE
  2
STYLE
  70
4
  0
STYLE
  2
KICAD
  70
0
  40
0
  41
1
  42
1
  50
0
  71
0
  3
isocp.shx
  0
STYLE
  2
KICADB
  70
0
  40
0
  41
1
  42
1
  50
0
  71
0
  3
isocp.shx
  0
STYLE
  2
KICADI
  70
0
  40
0
  41
1
  42
1
  50
15
  71
0
  3
isocp.shx
  0
STYLE
  2
KICADBI
  70
0
  40
0
  41
1
  42
1
  50
15
  71
0
  3
isocp.shx
  0
ENDTAB
  0
TABLE
  2
LAYER
  70
1
  0
LAYER
  2
BLACK
  70
0
  62
7
  6
CONTINUOUS
  0
ENDTAB
  0
ENDSEC
  0
SECTION
  2
ENTITIES
0
LINE
8
BLACK
6
CONTINUOUS
10
0.769746
20
0.354912
11
0.7723
21
0.353206
0
LINE
8
BLACK
6
CONTINUOUS
10
0.7723
20
0.353206
11
0.774007
21
0.350651
0
LINE
8
BLACK
6
CONTINUOUS
10
0.774007
20
0.350651
11
0.774606
21
0.347638
0
LINE
8
BLACK
6
CONTINUOUS
10
0.774606
20
0.347638
11
0.774606
21
0.280709
0
LINE
8
BLACK
6
CONTINUOUS
10
0.774606
20
0.280709
11
0.774007
21
0.277695
0
LINE
8
BLACK
6
CONTINUOUS
10
0.774007
20
0.277695
11
0.7723
21
0.275141
0
LINE
8
BLACK
6
CONTINUOUS
10
0.7723
20
0.275141
11
0.769746
21
0.273434
0
LINE
8
BLACK
6
CONTINUOUS
10
0.769746
20
0.273434
11
0.766732
21
0.272835
0
LINE
8
BLACK
6
CONTINUOUS
10
0.766732
20
0.272835
11
0.699803
21
0.272835
0
LINE
8
BLACK
6
CONTINUOUS
10
0.699803
20
0.272835
11
0.69679
21
0.273434
0
LINE
8
BLACK
6
CONTINUOUS
10
0.69679
20
0.273434
11
0.694235
21
0.275141
0
LINE
8
BLACK
6
CONTINUOUS
10
0.694235
20
0.275141
11
0.692529
21
0.277695
0
LINE
8
BLACK
6
CONTINUOUS
10
0.692529
20
0.277695
11
0.691929
21
0.280709
0
LINE
8
BLACK
6
CONTINUOUS
10
0.691929
20
0.280709
11
0.691929
21
0.347638
0
LINE
8
BLACK
6
CONTINUOUS
10
0.691929
20
0.347638
11
0.692529
21
0.350651
0
LINE
8
BLACK
6
CONTINUOUS
10
0.692529
20
0.350651
11
0.694235
21
0.353206
0
LINE
8
BLACK
6
CONTINUOUS
10
0.694235
20
0.353206
11
0.69679
21
0.354912
0
LINE
8
BLACK
6
CONTINUOUS
10
0.69679
20
0.354912
11
0.699803
21
0.355512
0
LINE
8
BLACK
6
CONTINUOUS
10
0.699803
20
0.355512
11
0.766732
21
0.355512
0
LINE
8
BLACK
6
CONTINUOUS
10
0.766732
20
0.355512
11
0.769746
21
0.354912
0
LINE
8
BLACK
6
CONTINUOUS
10
0.841332
20
0.354718
11
0.849087
21
0.352365
0
LINE
8
BLACK
6
CONTINUOUS
10
0.849087
20
0.352365
11
0.856234
21
0.348545
0
LINE
8
BLACK
6
CONTINUOUS
10
0.856234
20
0.348545
11
0.862499
21
0.343404
0
LINE
8
BLACK
6
CONTINUOUS
10
0.862499
20
0.343404
11
0.867639
21
0.33714
0
LINE
8
BLACK
6
CONTINUOUS
10
0.867639
20
0.33714
11
0.87146
21
0.329993
0
LINE
8
BLACK
6
CONTINUOUS
10
0.87146
20
0.329993
11
0.873812
21
0.322238
0
LINE
8
BLACK
6
CONTINUOUS
10
0.873812
20
0.322238
11
0.874606
21
0.314173
0
LINE
8
BLACK
6
CONTINUOUS
10
0.874606
20
0.314173
11
0.873812
21
0.306108
0
LINE
8
BLACK
6
CONTINUOUS
10
0.873812
20
0.306108
11
0.87146
21
0.298354
0
LINE
8
BLACK
6
CONTINUOUS
10
0.87146
20
0.298354
11
0.867639
21
0.291207
0
LINE
8
BLACK
6
CONTINUOUS
10
0.867639
20
0.291207
11
0.862499
21
0.284942
0
LINE
8
BLACK
6
CONTINUOUS
10
0.862499
20
0.284942
11
0.856234
21
0.279801
0
LINE
8
BLACK
6
CONTINUOUS
10
0.856234
20
0.279801
11
0.849087
21
0.275981
0
LINE
8
BLACK
6
CONTINUOUS
10
0.849087
20
0.275981
11
0.841332
21
0.273629
0
LINE
8
BLACK
6
CONTINUOUS
10
0.841332
20
0.273629
11
0.833268
21
0.272835
0
LINE
8
BLACK
6
CONTINUOUS
10
0.833268
20
0.272835
11
0.825203
21
0.273629
0
LINE
8
BLACK
6
CONTINUOUS
10
0.825203
20
0.273629
11
0.817448
21
0.275981
0
LINE
8
BLACK
6
CONTINUOUS
10
0.817448
20
0.275981
11
0.810301
21
0.279801
0
LINE
8
BLACK
6
CONTINUOUS
10
0.810301
20
0.279801
11
0.804037
21
0.284942
0
LINE
8
BLACK
6
CONTINUOUS
10
0.804037
20
0.284942
11
0.798896
21
0.291207
0
LINE
8
BLACK
6
CONTINUOUS
10
0.798896
20
0.291207
11
0.795076
21
0.298354
0
LINE
8
BLACK
6
CONTINUOUS
10
0.795076
20
0.298354
11
0.792723
21
0.306108
0
LINE
8
BLACK
6
CONTINUOUS
10
0.792723
20
0.306108
11
0.791929
21
0.314173
0
LINE
8
BLACK
6
CONTINUOUS
10
0.791929
20
0.314173
11
0.792723
21
0.322238
0
LINE
8
BLACK
6
CONTINUOUS
10
0.792723
20
0.322238
11
0.795076
21
0.329993
0
LINE
8
BLACK
6
CONTINUOUS
10
0.795076
20
0.329993
11
0.798896
21
0.33714
0
LINE
8
BLACK
6
CONTINUOUS
10
0.798896
20
0.33714
11
0.804037
21
0.343404
0
LINE
8
BLACK
6
CONTINUOUS
10
0.804037
20
0.343404
11
0.810301
21
0.348545
0
LINE
8
BLACK
6
CONTINUOUS
10
0.810301
20
0.348545
11
0.817448
21
0.352365
0
LINE
8
BLACK
6
CONTINUOUS
10
0.817448
20
0.352365
11
0.825203
21
0.354718
0
LINE
8
BLACK
6
CONTINUOUS
10
0.825203
20
0.354718
11
0.833268
21
0.355512
0
LINE
8
BLACK
6
CONTINUOUS
10
0.833268
20
0.355512
11
0.841332
21
0.354718
0
LINE
8
BLACK
6
CONTINUOUS
10
0.941332
20
0.354718
11
0.949087
21
0.352365
0
LINE
8
BLACK
6
CONTINUOUS
10
0.949087
20
0.352365
11
0.956234
21
0.348545
0
LINE
8
BLACK
6
CONTINUOUS
10
0.956234
20
0.348545
11
0.962499
21
0.343404
0
LINE
8
BLACK
6
CONTINUOUS
10
0.962499
20
0.343404
11
0.967639
21
0.33714
0
LINE
8
BLACK
6
CONTINUOUS
10
0.967639
20
0.33714
11
0.97146
21
0.329993
0
LINE
8
BLACK
6
CONTINUOUS
10
0.97146
20
0.329993
11
0.973812
21
0.322238
0
LINE
8
BLACK
6
CONTINUOUS
10
0.973812
20
0.322238
11
0.974606
21
0.314173
0
LINE
8
BLACK
6
CONTINUOUS
10
0.974606
20
0.314173
11
0.973812
21
0.306108
0
LINE
8
BLACK
6
CONTINUOUS
10
0.973812
20
0.306108
11
0.97146
21
0.298354
0
LINE
8
BLACK
6
CONTINUOUS
10
0.97146
20
0.298354
11
0.967639
21
0.291207
0
LINE
8
BLACK
6
CONTINUOUS
10
0.967639
20
0.291207
11
0.962499
21
0.284942
0
LINE
8
BLACK
6
CONTINUOUS
10
0.962499
20
0.284942
11
0.956234
21
0.279801
0
LINE
8
BLACK
6
CONTINUOUS
10
0.956234
20
0.279801
11
0.949087
21
0.275981
0
LINE
8
BLACK
6
CONTINUOUS
10
0.949087
20
0.275981
11
0.941332
21
0.273629
0
LINE
8
BLACK
6
CONTINUOUS
10
0.941332
20
0.273629
11
0.933268
21
0.272835
0
LINE
8
BLACK
6
CONTINUOUS
10
0.933268
20
0.272835
11
0.925203
21
0.273629
0
LINE
8
BLACK
6
CONTINUOUS
10
0.925203
20
0.273629
11
0.917448
21
0.275981
0
LINE
8
BLACK
6
CONTINUOUS
10
0.917448
20
0.275981
11
0.910301
21
0.279801
0
LINE
8
BLACK
6
CONTINUOUS
10
0.910301
20
0.279801
11
0.904037
21
0.284942
0
LINE
8
BLACK
6
CONTINUOUS
10
0.904037
20
0.284942
11
0.898896
21
0.291207
0
LINE
8
BLACK
6
CONTINUOUS
10
0.898896
20
0.291207
11
0.895076
21
0.298354
0
LINE
8
BLACK
6
CONTINUOUS
10
0.895076
20
0.298354
11
0.892723
21
0.306108
0
LINE
8
BLACK
6
CONTINUOUS
10
0.892723
20
0.306108
11
0.891929
21
0.314173
0
LINE
8
BLACK
6
CONTINUOUS
10
0.891929
20
0.314173
11
0.892723
21
0.322238
0
LINE
8
BLACK
6
CONTINUOUS
10
0.892723
20
0.322238
11
0.895076
21
0.329993
0
LINE
8
BLACK
6
CONTINUOUS
10
0.895076
20
0.329993
11
0.898896
21
0.33714
0
LINE
8
BLACK
6
CONTINUOUS
10
0.898896
20
0.33714
11
0.904037
21
0.343404
0
LINE
8
BLACK
6
CONTINUOUS
10
0.904037
20
0.343404
11
0.910301
21
0.348545
0
LINE
8
BLACK
6
CONTINUOUS
10
0.910301
20
0.348545
11
0.917448
21
0.352365
0
LINE
8
BLACK
6
CONTINUOUS
10
0.917448
20
0.352365
11
0.925203
21
0.354718
0
LINE
8
BLACK
6
CONTINUOUS
10
0.925203
20
0.354718
11
0.933268
21
0.355512
0
LINE
8
BLACK
6
CONTINUOUS
10
0.933268
20
0.355512
11
0.941332
21
0.354718
0
LINE
8
BLACK
6
CONTINUOUS
10
0.414106
20
0.525192
11
0.428034
21
0.522826
0
LINE
8
BLACK
6
CONTINUOUS
10
0.428034
20
0.522826
11
0.44161
21
0.518914
0
LINE
8
BLACK
6
CONTINUOUS
10
0.44161
20
0.518914
11
0.454663
21
0.513508
0
LINE
8
BLACK
6
CONTINUOUS
10
0.454663
20
0.513508
11
0.467028
21
0.506674
0
LINE
8
BLACK
6
CONTINUOUS
10
0.467028
20
0.506674
11
0.47855
21
0.498498
0
LINE
8
BLACK
6
CONTINUOUS
10
0.47855
20
0.498498
11
0.489084
21
0.489084
0
LINE
8
BLACK
6
CONTINUOUS
10
0.489084
20
0.489084
11
0.498499
21
0.47855
0
LINE
8
BLACK
6
CONTINUOUS
10
0.498499
20
0.47855
11
0.506674
21
0.467028
0
LINE
8
BLACK
6
CONTINUOUS
10
0.506674
20
0.467028
11
0.513508
21
0.454663
0
LINE
8
BLACK
6
CONTINUOUS
10
0.513508
20
0.454663
11
0.518914
21
0.44161
0
LINE
8
BLACK
6
CONTINUOUS
10
0.518914
20
0.44161
11
0.522826
21
0.428034
0
LINE
8
BLACK
6
CONTINUOUS
10
0.522826
20
0.428034
11
0.525192
21
0.414106
0
LINE
8
BLACK
6
CONTINUOUS
10
0.525192
20
0.414106
11
0.525984
21
0.4
0
LINE
8
BLACK
6
CONTINUOUS
10
0.525984
20
0.4
11
0.525192
21
0.385894
0
LINE
8
BLACK
6
CONTINUOUS
10
0.525192
20
0.385894
11
0.522826
21
0.371966
0
LINE
8
BLACK
6
CONTINUOUS
10
0.522826
20
0.371966
11
0.518914
21
0.35839
0
LINE
8
BLACK
6
CONTINUOUS
10
0.518914
20
0.35839
11
0.513508
21
0.345337
0
LINE
8
BLACK
6
CONTINUOUS
10
0.513508
20
0.345337
11
0.506674
21
0.332972
0
LINE
8
BLACK
6
CONTINUOUS
10
0.506674
20
0.332972
11
0.498499
21
0.32145
0
LINE
8
BLACK
6
CONTINUOUS
10
0.498499
20
0.32145
11
0.489084
21
0.310916
0
LINE
8
BLACK
6
CONTINUOUS
10
0.489084
20
0.310916
11
0.47855
21
0.301502
0
LINE
8
BLACK
6
CONTINUOUS
10
0.47855
20
0.301502
11
0.467028
21
0.293326
0
LINE
8
BLACK
6
CONTINUOUS
10
0.467028
20
0.293326
11
0.454663
21
0.286492
0
LINE
8
BLACK
6
CONTINUOUS
10
0.454663
20
0.286492
11
0.44161
21
0.281086
0
LINE
8
BLACK
6
CONTINUOUS
10
0.44161
20
0.281086
11
0.428034
21
0.277174
0
LINE
8
BLACK
6
CONTINUOUS
10
0.428034
20
0.277174
11
0.414106
21
0.274808
0
LINE
8
BLACK
6
CONTINUOUS
10
0.414106
20
0.274808
11
0.4
21
0.274016
0
LINE
8
BLACK
6
CONTINUOUS
10
0.4
20
0.274016
11
0.385894
21
0.274808
0
LINE
8
BLACK
6
CONTINUOUS
10
0.385894
20
0.274808
11
0.371966
21
0.277174
0
LINE
8
BLACK
6
CONTINUOUS
10
0.371966
20
0.277174
11
0.35839
21
0.281086
0
LINE
8
BLACK
6
CONTINUOUS
10
0.35839
20
0.281086
11
0.345338
21
0.286492
0
LINE
8
BLACK
6
CONTINUOUS
10
0.345338
20
0.286492
11
0.332972
21
0.293326
0
LINE
8
BLACK
6
CONTINUOUS
10
0.332972
20
0.293326
11
0.32145
21
0.301502
0
LINE
8
BLACK
6
CONTINUOUS
10
0.32145
20
0.301502
11
0.310916
21
0.310916
0
LINE
8
BLACK
6
CONTINUOUS
10
0.310916
20
0.310916
11
0.301502
21
0.32145
0
LINE
8
BLACK
6
CONTINUOUS
10
0.301502
20
0.32145
11
0.293326
21
0.332972
0
LINE
8
BLACK
6
CONTINUOUS
10
0.293326
20
0.332972
11
0.286492
21
0.345337
0
LINE
8
BLACK
6
CONTINUOUS
10
0.286492
20
0.345337
11
0.281086
21
0.35839
0
LINE
8
BLACK
6
CONTINUOUS
10
0.281086
20
0.35839
11
0.277174
21
0.371966
0
LINE
8
BLACK
6
CONTINUOUS
10
0.277174
20
0.371966
11
0.274808
21
0.385894
0
LINE
8
BLACK
6
CONTINUOUS
10
0.274808
20
0.385894
11
0.274016
21
0.4
0
LINE
8
BLACK
6
CONTINUOUS
10
0.274016
20
0.4
11
0.274808
21
0.414106
0
LINE
8
BLACK
6
CONTINUOUS
10
0.274808
20
0.414106
11
0.277174
21
0.428034
0
LINE
8
BLACK
6
CONTINUOUS
10
0.277174
20
0.428034
11
0.281086
21
0.44161
0
LINE
8
BLACK
6
CONTINUOUS
10
0.281086
20
0.44161
11
0.286492
21
0.454663
0
LINE
8
BLACK
6
CONTINUOUS
10
0.286492
20
0.454663
11
0.293326
21
0.467028
0
LINE
8
BLACK
6
CONTINUOUS
10
0.293326
20
0.467028
11
0.301502
21
0.47855
0
LINE
8
BLACK
6
CONTINUOUS
10
0.301502
20
0.47855
11
0.310916
21
0.489084
0
LINE
8
BLACK
6
CONTINUOUS
10
0.310916
20
0.489084
11
0.32145
21
0.498498
0
LINE
8
BLACK
6
CONTINUOUS
10
0.32145
20
0.498498
11
0.332972
21
0.506674
0
LINE
8
BLACK
6
CONTINUOUS
10
0.332972
20
0.506674
11
0.345338
21
0.513508
0
LINE
8
BLACK
6
CONTINUOUS
10
0.345338
20
0.513508
11
0.35839
21
0.518914
0
LINE
8
BLACK
6
CONTINUOUS
10
0.35839
20
0.518914
11
0.371966
21
0.522826
0
LINE
8
BLACK
6
CONTINUOUS
10
0.371966
20
0.522826
11
0.385894
21
0.525192
0
LINE
8
BLACK
6
CONTINUOUS
10
0.385894
20
0.525192
11
0.4
21
0.525984
0
LINE
8
BLACK
6
CONTINUOUS
10
0.4
20
0.525984
11
0.414106
21
0.525192
0
LINE
8
BLACK
6
CONTINUOUS
10
1.21411
20
0.525192
11
1.22803
21
0.522826
0
LINE
8
BLACK
6
CONTINUOUS
10
1.22803
20
0.522826
11
1.24161
21
0.518914
0
LINE
8
BLACK
6
CONTINUOUS
10
1.24161
20
0.518914
11
1.25466
21
0.513508
0
LINE
8
BLACK
6
CONTINUOUS
10
1.25466
20
0.513508
11
1.26703
21
0.506674
0
LINE
8
BLACK
6
CONTINUOUS
10
1.26703
20
0.506674
11
1.27855
21
0.498498
0
LINE
8
BLACK
6
CONTINUOUS
10
1.27855
20
0.498498
11
1.28908
21
0.489084
0
LINE
8
BLACK
6
CONTINUOUS
10
1.28908
20
0.489084
11
1.2985
21
0.47855
0
LINE
8
BLACK
6
CONTINUOUS
10
1.2985
20
0.47855
11
1.30667
21
0.467028
0
LINE
8
BLACK
6
CONTINUOUS
10
1.30667
20
0.467028
11
1.31351
21
0.454663
0
LINE
8
BLACK
6
CONTINUOUS
10
1.31351
20
0.454663
11
1.31891
21
0.44161
0
LINE
8
BLACK
6
CONTINUOUS
10
1.31891
20
0.44161
11
1.32283
21
0.428034
0
LINE
8
BLACK
6
CONTINUOUS
10
1.32283
20
0.428034
11
1.32519
21
0.414106
0
LINE
8
BLACK
6
CONTINUOUS
10
1.32519
20
0.414106
11
1.32598
21
0.4
0
LINE
8
BLACK
6
CONTINUOUS
10
1.32598
20
0.4
11
1.32519
21
0.385894
0
LINE
8
BLACK
6
CONTINUOUS
10
1.32519
20
0.385894
11
1.32283
21
0.371966
0
LINE
8
BLACK
6
CONTINUOUS
10
1.32283
20
0.371966
11
1.31891
21
0.35839
0
LINE
8
BLACK
6
CONTINUOUS
10
1.31891
20
0.35839
11
1.31351
21
0.345337
0
LINE
8
BLACK
6
CONTINUOUS
10
1.31351
20
0.345337
11
1.30667
21
0.332972
0
LINE
8
BLACK
6
CONTINUOUS
10
1.30667
20
0.332972
11
1.2985
21
0.32145
0
LINE
8
BLACK
6
CONTINUOUS
10
1.2985
20
0.32145
11
1.28908
21
0.310916
0
LINE
8
BLACK
6
CONTINUOUS
10
1.28908
20
0.310916
11
1.27855
21
0.301502
0
LINE
8
BLACK
6
CONTINUOUS
10
1.27855
20
0.301502
11
1.26703
21
0.293326
0
LINE
8
BLACK
6
CONTINUOUS
10
1.26703
20
0.293326
11
1.25466
21
0.286492
0
LINE
8
BLACK
6
CONTINUOUS
10
1.25466
20
0.286492
11
1.24161
21
0.281086
0
LINE
8
BLACK
6
CONTINUOUS
10
1.24161
20
0.281086
11
1.22803
21
0.277174
0
LINE
8
BLACK
6
CONTINUOUS
10
1.22803
20
0.277174
11
1.21411
21
0.274808
0
LINE
8
BLACK
6
CONTINUOUS
10
1.21411
20
0.274808
11
1.2
21
0.274016
0
LINE
8
BLACK
6
CONTINUOUS
10
1.2
20
0.274016
11
1.18589
21
0.274808
0
LINE
8
BLACK
6
CONTINUOUS
10
1.18589
20
0.274808
11
1.17197
21
0.277174
0
LINE
8
BLACK
6
CONTINUOUS
10
1.17197
20
0.277174
11
1.15839
21
0.281086
0
LINE
8
BLACK
6
CONTINUOUS
10
1.15839
20
0.281086
11
1.14534
21
0.286492
0
LINE
8
BLACK
6
CONTINUOUS
10
1.14534
20
0.286492
11
1.13297
21
0.293326
0
LINE
8
BLACK
6
CONTINUOUS
10
1.13297
20
0.293326
11
1.12145
21
0.301502
0
LINE
8
BLACK
6
CONTINUOUS
10
1.12145
20
0.301502
11
1.11092
21
0.310916
0
LINE
8
BLACK
6
CONTINUOUS
10
1.11092
20
0.310916
11
1.1015
21
0.32145
0
LINE
8
BLACK
6
CONTINUOUS
10
1.1015
20
0.32145
11
1.09333
21
0.332972
0
LINE
8
BLACK
6
CONTINUOUS
10
1.09333
20
0.332972
11
1.08649
21
0.345337
0
LINE
8
BLACK
6
CONTINUOUS
10
1.08649
20
0.345337
11
1.08109
21
0.35839
0
LINE
8
BLACK
6
CONTINUOUS
10
1.08109
20
0.35839
11
1.07717
21
0.371966
0
LINE
8
BLACK
6
CONTINUOUS
10
1.07717
20
0.371966
11
1.07481
21
0.385894
0
LINE
8
BLACK
6
CONTINUOUS
10
1.07481
20
0.385894
11
1.07402
21
0.4
0
LINE
8
BLACK
6
CONTINUOUS
10
1.07402
20
0.4
11
1.07481
21
0.414106
0
LINE
8
BLACK
6
CONTINUOUS
10
1.07481
20
0.414106
11
1.07717
21
0.428034
0
LINE
8
BLACK
6
CONTINUOUS
10
1.07717
20
0.428034
11
1.08109
21
0.44161
0
LINE
8
BLACK
6
CONTINUOUS
10
1.08109
20
0.44161
11
1.08649
21
0.454663
0
LINE
8
BLACK
6
CONTINUOUS
10
1.08649
20
0.454663
11
1.09333
21
0.467028
0
LINE
8
BLACK
6
CONTINUOUS
10
1.09333
20
0.467028
11
1.1015
21
0.47855
0
LINE
8
BLACK
6
CONTINUOUS
10
1.1015
20
0.47855
11
1.11092
21
0.489084
0
LINE
8
BLACK
6
CONTINUOUS
10
1.11092
20
0.489084
11
1.12145
21
0.498498
0
LINE
8
BLACK
6
CONTINUOUS
10
1.12145
20
0.498498
11
1.13297
21
0.506674
0
LINE
8
BLACK
6
CONTINUOUS
10
1.13297
20
0.506674
11
1.14534
21
0.513508
0
LINE
8
BLACK
6
CONTINUOUS
10
1.14534
20
0.513508
11
1.15839
21
0.518914
0
LINE
8
BLACK
6
CONTINUOUS
10
1.15839
20
0.518914
11
1.17197
21
0.522826
0
LINE
8
BLACK
6
CONTINUOUS
10
1.17197
20
0.522826
11
1.18589
21
0.525192
0
LINE
8
BLACK
6
CONTINUOUS
10
1.18589
20
0.525192
11
1.2
21
0.525984
0
LINE
8
BLACK
6
CONTINUOUS
10
1.2
20
0.525984
11
1.21411
21
0.525192
0
LINE
8
BLACK
6
CONTINUOUS
10
0.741332
20
0.454718
11
0.749087
21
0.452365
0
LINE
8
BLACK
6
CONTINUOUS
10
0.749087
20
0.452365
11
0.756234
21
0.448545
0
LINE
8
BLACK
6
CONTINUOUS
10
0.756234
20
0.448545
11
0.762499
21
0.443404
0
LINE
8
BLACK
6
CONTINUOUS
10
0.762499
20
0.443404
11
0.767639
21
0.43714
0
LINE
8
BLACK
6
CONTINUOUS
10
0.767639
20
0.43714
11
0.77146
21
0.429993
0
LINE
8
BLACK
6
CONTINUOUS
10
0.77146
20
0.429993
11
0.773812
21
0.422238
0
LINE
8
BLACK
6
CONTINUOUS
10
0.773812
20
0.422238
11
0.774606
21
0.414173
0
LINE
8
BLACK
6
CONTINUOUS
10
0.774606
20
0.414173
11
0.773812
21
0.406108
0
LINE
8
BLACK
6
CONTINUOUS
10
0.773812
20
0.406108
11
0.77146
21
0.398354
0
LINE
8
BLACK
6
CONTINUOUS
10
0.77146
20
0.398354
11
0.767639
21
0.391207
0
LINE
8
BLACK
6
CONTINUOUS
10
0.767639
20
0.391207
11
0.762499
21
0.384942
0
LINE
8
BLACK
6
CONTINUOUS
10
0.762499
20
0.384942
11
0.756234
21
0.379801
0
LINE
8
BLACK
6
CONTINUOUS
10
0.756234
20
0.379801
11
0.749087
21
0.375981
0
LINE
8
BLACK
6
CONTINUOUS
10
0.749087
20
0.375981
11
0.741332
21
0.373629
0
LINE
8
BLACK
6
CONTINUOUS
10
0.741332
20
0.373629
11
0.733268
21
0.372835
0
LINE
8
BLACK
6
CONTINUOUS
10
0.733268
20
0.372835
11
0.725203
21
0.373629
0
LINE
8
BLACK
6
CONTINUOUS
10
0.725203
20
0.373629
11
0.717448
21
0.375981
0
LINE
8
BLACK
6
CONTINUOUS
10
0.717448
20
0.375981
11
0.710301
21
0.379801
0
LINE
8
BLACK
6
CONTINUOUS
10
0.710301
20
0.379801
11
0.704037
21
0.384942
0
LINE
8
BLACK
6
CONTINUOUS
10
0.704037
20
0.384942
11
0.698896
21
0.391207
0
LINE
8
BLACK
6
CONTINUOUS
10
0.698896
20
0.391207
11
0.695076
21
0.398354
0
LINE
8
BLACK
6
CONTINUOUS
10
0.695076
20
0.398354
11
0.692723
21
0.406108
0
LINE
8
BLACK
6
CONTINUOUS
10
0.692723
20
0.406108
11
0.691929
21
0.414173
0
LINE
8
BLACK
6
CONTINUOUS
10
0.691929
20
0.414173
11
0.692723
21
0.422238
0
LINE
8
BLACK
6
CONTINUOUS
10
0.692723
20
0.422238
11
0.695076
21
0.429993
0
LINE
8
BLACK
6
CONTINUOUS
10
0.695076
20
0.429993
11
0.698896
21
0.43714
0
LINE
8
BLACK
6
CONTINUOUS
10
0.698896
20
0.43714
11
0.704037
21
0.443404
0
LINE
8
BLACK
6
CONTINUOUS
10
0.704037
20
0.443404
11
0.710301
21
0.448545
0
LINE
8
BLACK
6
CONTINUOUS
10
0.710301
20
0.448545
11
0.717448
21
0.452365
0
LINE
8
BLACK
6
CONTINUOUS
10
0.717448
20
0.452365
11
0.725203
21
0.454718
0
LINE
8
BLACK
6
CONTINUOUS
10
0.725203
20
0.454718
11
0.733268
21
0.455512
0
LINE
8
BLACK
6
CONTINUOUS
10
0.733268
20
0.455512
11
0.741332
21
0.454718
0
LINE
8
BLACK
6
CONTINUOUS
10
0.841332
20
0.454718
11
0.849087
21
0.452365
0
LINE
8
BLACK
6
CONTINUOUS
10
0.849087
20
0.452365
11
0.856234
21
0.448545
0
LINE
8
BLACK
6
CONTINUOUS
10
0.856234
20
0.448545
11
0.862499
21
0.443404
0
LINE
8
BLACK
6
CONTINUOUS
10
0.862499
20
0.443404
11
0.867639
21
0.43714
0
LINE
8
BLACK
6
CONTINUOUS
10
0.867639
20
0.43714
11
0.87146
21
0.429993
0
LINE
8
BLACK
6
CONTINUOUS
10
0.87146
20
0.429993
11
0.873812
21
0.422238
0
LINE
8
BLACK
6
CONTINUOUS
10
0.873812
20
0.422238
11
0.874606
21
0.414173
0
LINE
8
BLACK
6
CONTINUOUS
10
0.874606
20
0.414173
11
0.873812
21
0.406108
0
LINE
8
BLACK
6
CONTINUOUS
10
0.873812
20
0.406108
11
0.87146
21
0.398354
0
LINE
8
BLACK
6
CONTINUOUS
10
0.87146
20
0.398354
11
0.867639
21
0.391207
0
LINE
8
BLACK
6
CONTINUOUS
10
0.867639
20
0.391207
11
0.862499
21
0.384942
0
LINE
8
BLACK
6
CONTINUOUS
10
0.862499
20
0.384942
11
0.856234
21
0.379801
0
LINE
8
BLACK
6
CONTINUOUS
10
0.856234
20
0.379801
11
0.849087
21
0.375981
0
LINE
8
BLACK
6
CONTINUOUS
10
0.849087
20
0.375981
11
0.841332
21
0.373629
0
LINE
8
BLACK
6
CONTINUOUS
10
0.841332
20
0.373629
11
0.833268
21
0.372835
0
LINE
8
BLACK
6
CONTINUOUS
10
0.833268
20
0.372835
11
0.825203
21
0.373629
0
LINE
8
BLACK
6
CONTINUOUS
10
0.825203
20
0.373629
11
0.817448
21
0.375981
0
LINE
8
BLACK
6
CONTINUOUS
10
0.817448
20
0.375981
11
0.810301
21
0.379801
0
LINE
8
BLACK
6
CONTINUOUS
10
0.810301
20
0.379801
11
0.804037
21
0.384942
0
LINE
8
BLACK
6
CONTINUOUS
10
0.804037
20
0.384942
11
0.798896
21
0.391207
0
LINE
8
BLACK
6
CONTINUOUS
10
0.798896
20
0.391207
11
0.795076
21
0.398354
0
LINE
8
BLACK
6
CONTINUOUS
10
0.795076
20
0.398354
11
0.792723
21
0.406108
0
LINE
8
BLACK
6
CONTINUOUS
10
0.792723
20
0.406108
11
0.791929
21
0.414173
0
LINE
8
BLACK
6
CONTINUOUS
10
0.791929
20
0.414173
11
0.792723
21
0.422238
0
LINE
8
BLACK
6
CONTINUOUS
10
0.792723
20
0.422238
11
0.795076
21
0.429993
0
LINE
8
BLACK
6
CONTINUOUS
10
0.795076
20
0.429993
11
0.798896
21
0.43714
0
LINE
8
BLACK
6
CONTINUOUS
10
0.798896
20
0.43714
11
0.804037
21
0.443404
0
LINE
8
BLACK
6
CONTINUOUS
10
0.804037
20
0.443404
11
0.810301
21
0.448545
0
LINE
8
BLACK
6
CONTINUOUS
10
0.810301
20
0.448545
11
0.817448
21
0.452365
0
LINE
8
BLACK
6
CONTINUOUS
10
0.817448
20
0.452365
11
0.825203
21
0.454718
0
LINE
8
BLACK
6
CONTINUOUS
10
0.825203
20
0.454718
11
0.833268
21
0.455512
0
LINE
8
BLACK
6
CONTINUOUS
10
0.833268
20
0.455512
11
0.841332
21
0.454718
0
LINE
8
BLACK
6
CONTINUOUS
10
0.941332
20
0.454718
11
0.949087
21
0.452365
0
LINE
8
BLACK
6
CONTINUOUS
10
0.949087
20
0.452365
11
0.956234
21
0.448545
0
LINE
8
BLACK
6
CONTINUOUS
10
0.956234
20
0.448545
11
0.962499
21
0.443404
0
LINE
8
BLACK
6
CONTINUOUS
10
0.962499
20
0.443404
11
0.967639
21
0.43714
0
LINE
8
BLACK
6
CONTINUOUS
10
0.967639
20
0.43714
11
0.97146
21
0.429993
0
LINE
8
BLACK
6
CONTINUOUS
10
0.97146
20
0.429993
11
0.973812
21
0.422238
0
LINE
8
BLACK
6
CONTINUOUS
10
0.973812
20
0.422238
11
0.974606
21
0.414173
0
LINE
8
BLACK
6
CONTINUOUS
10
0.974606
20
0.414173
11
0.973812
21
0.406108
0
LINE
8
BLACK
6
CONTINUOUS
10
0.973812
20
0.406108
11
0.97146
21
0.398354
0
LINE
8
BLACK
6
CONTINUOUS
10
0.97146
20
0.398354
11
0.967639
21
0.391207
0
LINE
8
BLACK
6
CONTINUOUS
10
0.967639
20
0.391207
11
0.962499
21
0.384942
0
LINE
8
BLACK
6
CONTINUOUS
10
0.962499
20
0.384942
11
0.956234
21
0.379801
0
LINE
8
BLACK
6
CONTINUOUS
10
0.956234
20
0.379801
11
0.949087
21
0.375981
0
LINE
8
BLACK
6
CONTINUOUS
10
0.949087
20
0.375981
11
0.941332
21
0.373629
0
LINE
8
BLACK
6
CONTINUOUS
10
0.941332
20
0.373629
11
0.933268
21
0.372835
0
LINE
8
BLACK
6
CONTINUOUS
10
0.933268
20
0.372835
11
0.925203
21
0.373629
0
LINE
8
BLACK
6
CONTINUOUS
10
0.925203
20
0.373629
11
0.917448
21
0.375981
0
LINE
8
BLACK
6
CONTINUOUS
10
0.917448
20
0.375981
11
0.910301
21
0.379801
0
LINE
8
BLACK
6
CONTINUOUS
10
0.910301
20
0.379801
11
0.904037
21
0.384942
0
LINE
8
BLACK
6
CONTINUOUS
10
0.904037
20
0.384942
11
0.898896
21
0.391207
0
LINE
8
BLACK
6
CONTINUOUS
10
0.898896
20
0.391207
11
0.895076
21
0.398354
0
LINE
8
BLACK
6
CONTINUOUS
10
0.895076
20
0.398354
11
0.892723
21
0.406108
0
LINE
8
BLACK
6
CONTINUOUS
10
0.892723
20
0.406108
11
0.891929
21
0.414173
0
LINE
8
BLACK
6
CONTINUOUS
10
0.891929
20
0.414173
11
0.892723
21
0.422238
0
LINE
8
BLACK
6
CONTINUOUS
10
0.892723
20
0.422238
11
0.895076
21
0.429993
0
LINE
8
BLACK
6
CONTINUOUS
10
0.895076
20
0.429993
11
0.898896
21
0.43714
0
LINE
8
BLACK
6
CONTINUOUS
10
0.898896
20
0.43714
11
0.904037
21
0.443404
0
LINE
8
BLACK
6
CONTINUOUS
10
0.904037
20
0.443404
11
0.910301
21
0.448545
0
LINE
8
BLACK
6
CONTINUOUS
10
0.910301
20
0.448545
11
0.917448
21
0.452365
0
LINE
8
BLACK
6
CONTINUOUS
10
0.917448
20
0.452365
11
0.925203
21
0.454718
0
LINE
8
BLACK
6
CONTINUOUS
10
0.925203
20
0.454718
11
0.933268
21
0.455512
0
LINE
8
BLACK
6
CONTINUOUS
10
0.933268
20
0.455512
11
0.941332
21
0.454718
0
LINE
8
BLACK
6
CONTINUOUS
10
0.769746
20
0.554912
11
0.7723
21
0.553206
0
LINE
8
BLACK
6
CONTINUOUS
10
0.7723
20
0.553206
11
0.774007
21
0.550651
0
LINE
8
BLACK
6
CONTINUOUS
10
0.774007
20
0.550651
11
0.774606
21
0.547638
0
LINE
8
BLACK
6
CONTINUOUS
10
0.774606
20
0.547638
11
0.774606
21
0.480709
0
LINE
8
BLACK
6
CONTINUOUS
10
0.774606
20
0.480709
11
0.774007
21
0.477695
0
LINE
8
BLACK
6
CONTINUOUS
10
0.774007
20
0.477695
11
0.7723
21
0.475141
0
LINE
8
BLACK
6
CONTINUOUS
10
0.7723
20
0.475141
11
0.769746
21
0.473434
0
LINE
8
BLACK
6
CONTINUOUS
10
0.769746
20
0.473434
11
0.766732
21
0.472835
0
LINE
8
BLACK
6
CONTINUOUS
10
0.766732
20
0.472835
11
0.699803
21
0.472835
0
LINE
8
BLACK
6
CONTINUOUS
10
0.699803
20
0.472835
11
0.69679
21
0.473434
0
LINE
8
BLACK
6
CONTINUOUS
10
0.69679
20
0.473434
11
0.694235
21
0.475141
0
LINE
8
BLACK
6
CONTINUOUS
10
0.694235
20
0.475141
11
0.692529
21
0.477695
0
LINE
8
BLACK
6
CONTINUOUS
10
0.692529
20
0.477695
11
0.691929
21
0.480709
0
LINE
8
BLACK
6
CONTINUOUS
10
0.691929
20
0.480709
11
0.691929
21
0.547638
0
LINE
8
BLACK
6
CONTINUOUS
10
0.691929
20
0.547638
11
0.692529
21
0.550651
0
LINE
8
BLACK
6
CONTINUOUS
10
0.692529
20
0.550651
11
0.694235
21
0.553206
0
LINE
8
BLACK
6
CONTINUOUS
10
0.694235
20
0.553206
11
0.69679
21
0.554912
0
LINE
8
BLACK
6
CONTINUOUS
10
0.69679
20
0.554912
11
0.699803
21
0.555512
0
LINE
8
BLACK
6
CONTINUOUS
10
0.699803
20
0.555512
11
0.766732
21
0.555512
0
LINE
8
BLACK
6
CONTINUOUS
10
0.766732
20
0.555512
11
0.769746
21
0.554912
0
LINE
8
BLACK
6
CONTINUOUS
10
0.841332
20
0.554718
11
0.849087
21
0.552365
0
LINE
8
BLACK
6
CONTINUOUS
10
0.849087
20
0.552365
11
0.856234
21
0.548545
0
LINE
8
BLACK
6
CONTINUOUS
10
0.856234
20
0.548545
11
0.862499
21
0.543404
0
LINE
8
BLACK
6
CONTINUOUS
10
0.862499
20
0.543404
11
0.867639
21
0.53714
0
LINE
8
BLACK
6
CONTINUOUS
10
0.867639
20
0.53714
11
0.87146
21
0.529993
0
LINE
8
BLACK
6
CONTINUOUS
10
0.87146
20
0.529993
11
0.873812
21
0.522238
0
LINE
8
BLACK
6
CONTINUOUS
10
0.873812
20
0.522238
11
0.874606
21
0.514173
0
LINE
8
BLACK
6
CONTINUOUS
10
0.874606
20
0.514173
11
0.873812
21
0.506108
0
LINE
8
BLACK
6
CONTINUOUS
10
0.873812
20
0.506108
11
0.87146
21
0.498354
0
LINE
8
BLACK
6
CONTINUOUS
10
0.87146
20
0.498354
11
0.867639
21
0.491207
0
LINE
8
BLACK
6
CONTINUOUS
10
0.867639
20
0.491207
11
0.862499
21
0.484942
0
LINE
8
BLACK
6
CONTINUOUS
10
0.862499
20
0.484942
11
0.856234
21
0.479801
0
LINE
8
BLACK
6
CONTINUOUS
10
0.856234
20
0.479801
11
0.849087
21
0.475981
0
LINE
8
BLACK
6
CONTINUOUS
10
0.849087
20
0.475981
11
0.841332
21
0.473629
0
LINE
8
BLACK
6
CONTINUOUS
10
0.841332
20
0.473629
11
0.833268
21
0.472835
0
LINE
8
BLACK
6
CONTINUOUS
10
0.833268
20
0.472835
11
0.825203
21
0.473629
0
LINE
8
BLACK
6
CONTINUOUS
10
0.825203
20
0.473629
11
0.817448
21
0.475981
0
LINE
8
BLACK
6
CONTINUOUS
10
0.817448
20
0.475981
11
0.810301
21
0.479801
0
LINE
8
BLACK
6
CONTINUOUS
10
0.810301
20
0.479801
11
0.804037
21
0.484942
0
LINE
8
BLACK
6
CONTINUOUS
10
0.804037
20
0.484942
11
0.798896
21
0.491207
0
LINE
8
BLACK
6
CONTINUOUS
10
0.798896
20
0.491207
11
0.795076
21
0.498354
0
LINE
8
BLACK
6
CONTINUOUS
10
0.795076
20
0.498354
11
0.792723
21
0.506108
0
LINE
8
BLACK
6
CONTINUOUS
10
0.792723
20
0.506108
11
0.791929
21
0.514173
0
LINE
8
BLACK
6
CONTINUOUS
10
0.791929
20
0.514173
11
0.792723
21
0.522238
0
LINE
8
BLACK
6
CONTINUOUS
10
0.792723
20
0.522238
11
0.795076
21
0.529993
0
LINE
8
BLACK
6
CONTINUOUS
10
0.795076
20
0.529993
11
0.798896
21
0.53714
0
LINE
8
BLACK
6
CONTINUOUS
10
0.798896
20
0.53714
11
0.804037
21
0.543404
0
LINE
8
BLACK
6
CONTINUOUS
10
0.804037
20
0.543404
11
0.810301
21
0.548545
0
LINE
8
BLACK
6
CONTINUOUS
10
0.810301
20
0.548545
11
0.817448
21
0.552365
0
LINE
8
BLACK
6
CONTINUOUS
10
0.817448
20
0.552365
11
0.825203
21
0.554718
0
LINE
8
BLACK
6
CONTINUOUS
10
0.825203
20
0.554718
11
0.833268
21
0.555512
0
LINE
8
BLACK
6
CONTINUOUS
10
0.833268
20
0.555512
11
0.841332
21
0.554718
0
LINE
8
BLACK
6
CONTINUOUS
10
0.941332
20
0.554718
11
0.949087
21
0.552365
0
LINE
8
BLACK
6
CONTINUOUS
10
0.949087
20
0.552365
11
0.956234
21
0.548545
0
LINE
8
BLACK
6
CONTINUOUS
10
0.956234
20
0.548545
11
0.962499
21
0.543404
0
LINE
8
BLACK
6
CONTINUOUS
10
0.962499
20
0.543404
11
0.967639
21
0.53714
0
LINE
8
BLACK
6
CONTINUOUS
10
0.967639
20
0.53714
11
0.97146
21
0.529993
0
LINE
8
BLACK
6
CONTINUOUS
10
0.97146
20
0.529993
11
0.973812
21
0.522238
0
LINE
8
BLACK
6
CONTINUOUS
10
0.973812
20
0.522238
11
0.974606
21
0.514173
0
LINE
8
BLACK
6
CONTINUOUS
10
0.974606
20
0.514173
11
0.973812
21
0.506108
0
LINE
8
BLACK
6
CONTINUOUS
10
0.973812
20
0.506108
11
0.97146
21
0.498354
0
LINE
8
BLACK
6
CONTINUOUS
10
0.97146
20
0.498354
11
0.967639
21
0.491207
0
LINE
8
BLACK
6
CONTINUOUS
10
0.967639
20
0.491207
11
0.962499
21
0.484942
0
LINE
8
BLACK
6
CONTINUOUS
10
0.962499
20
0.484942
11
0.956234
21
0.479801
0
LINE
8
BLACK
6
CONTINUOUS
10
0.956234
20
0.479801
11
0.949087
21
0.475981
0
LINE
8
BLACK
6
CONTINUOUS
10
0.949087
20
0.475981
11
0.941332
21
0.473629
0
LINE
8
BLACK
6
CONTINUOUS
10
0.941332
20
0.473629
11
0.933268
21
0.472835
0
LINE
8
BLACK
6
CONTINUOUS
10
0.933268
20
0.472835
11
0.925203
21
0.473629
0
LINE
8
BLACK
6
CONTINUOUS
10
0.925203
20
0.473629
11
0.917448
21
0.475981
0
LINE
8
BLACK
6
CONTINUOUS
10
0.917448
20
0.475981
11
0.910301
21
0.479801
0
LINE
8
BLACK
6
CONTINUOUS
10
0.910301
20
0.479801
11
0.904037
21
0.484942
0
LINE
8
BLACK
6
CONTINUOUS
10
0.904037
20
0.484942
11
0.898896
21
0.491207
0
LINE
8
BLACK
6
CONTINUOUS
10
0.898896
20
0.491207
11
0.895076
21
0.498354
0
LINE
8
BLACK
6
CONTINUOUS
10
0.895076
20
0.498354
11
0.892723
21
0.506108
0
LINE
8
BLACK
6
CONTINUOUS
10
0.892723
20
0.506108
11
0.891929
21
0.514173
0
LINE
8
BLACK
6
CONTINUOUS
10
0.891929
20
0.514173
11
0.892723
21
0.522238
0
LINE
8
BLACK
6
CONTINUOUS
10
0.892723
20
0.522238
11
0.895076
21
0.529993
0
LINE
8
BLACK
6
CONTINUOUS
10
0.895076
20
0.529993
11
0.898896
21
0.53714
0
LINE
8
BLACK
6
CONTINUOUS
10
0.898896
20
0.53714
11
0.904037
21
0.543404
0
LINE
8
BLACK
6
CONTINUOUS
10
0.904037
20
0.543404
11
0.910301
21
0.548545
0
LINE
8
BLACK
6
CONTINUOUS
10
0.910301
20
0.548545
11
0.917448
21
0.552365
0
LINE
8
BLACK
6
CONTINUOUS
10
0.917448
20
0.552365
11
0.925203
21
0.554718
0
LINE
8
BLACK
6
CONTINUOUS
10
0.925203
20
0.554718
11
0.933268
21
0.555512
0
LINE
8
BLACK
6
CONTINUOUS
10
0.933268
20
0.555512
11
0.941332
21
0.554718
0
LINE
8
BLACK
6
CONTINUOUS
10
0.741332
20
0.654718
11
0.749087
21
0.652365
0
LINE
8
BLACK
6
CONTINUOUS
10
0.749087
20
0.652365
11
0.756234
21
0.648545
0
LINE
8
BLACK
6
CONTINUOUS
10
0.756234
20
0.648545
11
0.762499
21
0.643404
0
LINE
8
BLACK
6
CONTINUOUS
10
0.762499
20
0.643404
11
0.767639
21
0.63714
0
LINE
8
BLACK
6
CONTINUOUS
10
0.767639
20
0.63714
11
0.77146
21
0.629993
0
LINE
8
BLACK
6
CONTINUOUS
10
0.77146
20
0.629993
11
0.773812
21
0.622238
0
LINE
8
BLACK
6
CONTINUOUS
10
0.773812
20
0.622238
11
0.774606
21
0.614173
0
LINE
8
BLACK
6
CONTINUOUS
10
0.774606
20
0.614173
11
0.773812
21
0.606108
0
LINE
8
BLACK
6
CONTINUOUS
10
0.773812
20
0.606108
11
0.77146
21
0.598354
0
LINE
8
BLACK
6
CONTINUOUS
10
0.77146
20
0.598354
11
0.767639
21
0.591207
0
LINE
8
BLACK
6
CONTINUOUS
10
0.767639
20
0.591207
11
0.762499
21
0.584942
0
LINE
8
BLACK
6
CONTINUOUS
10
0.762499
20
0.584942
11
0.756234
21
0.579801
0
LINE
8
BLACK
6
CONTINUOUS
10
0.756234
20
0.579801
11
0.749087
21
0.575981
0
LINE
8
BLACK
6
CONTINUOUS
10
0.749087
20
0.575981
11
0.741332
21
0.573629
0
LINE
8
BLACK
6
CONTINUOUS
10
0.741332
20
0.573629
11
0.733268
21
0.572835
0
LINE
8
BLACK
6
CONTINUOUS
10
0.733268
20
0.572835
11
0.725203
21
0.573629
0
LINE
8
BLACK
6
CONTINUOUS
10
0.725203
20
0.573629
11
0.717448
21
0.575981
0
LINE
8
BLACK
6
CONTINUOUS
10
0.717448
20
0.575981
11
0.710301
21
0.579801
0
LINE
8
BLACK
6
CONTINUOUS
10
0.710301
20
0.579801
11
0.704037
21
0.584942
0
LINE
8
BLACK
6
CONTINUOUS
10
0.704037
20
0.584942
11
0.698896
21
0.591207
0
LINE
8
BLACK
6
CONTINUOUS
10
0.698896
20
0.591207
11
0.695076
21
0.598354
0
LINE
8
BLACK
6
CONTINUOUS
10
0.695076
20
0.598354
11
0.692723
21
0.606108
0
LINE
8
BLACK
6
CONTINUOUS
10
0.692723
20
0.606108
11
0.691929
21
0.614173
0
LINE
8
BLACK
6
CONTINUOUS
10
0.691929
20
0.614173
11
0.692723
21
0.622238
0
LINE
8
BLACK
6
CONTINUOUS
10
0.692723
20
0.622238
11
0.695076
21
0.629993
0
LINE
8
BLACK
6
CONTINUOUS
10
0.695076
20
0.629993
11
0.698896
21
0.63714
0
LINE
8
BLACK
6
CONTINUOUS
10
0.698896
20
0.63714
11
0.704037
21
0.643404
0
LINE
8
BLACK
6
CONTINUOUS
10
0.704037
20
0.643404
11
0.710301
21
0.648545
0
LINE
8
BLACK
6
CONTINUOUS
10
0.710301
20
0.648545
11
0.717448
21
0.652365
0
LINE
8
BLACK
6
CONTINUOUS
10
0.717448
20
0.652365
11
0.725203
21
0.654718
0
LINE
8
BLACK
6
CONTINUOUS
10
0.725203
20
0.654718
11
0.733268
21
0.655512
0
LINE
8
BLACK
6
CONTINUOUS
10
0.733268
20
0.655512
11
0.741332
21
0.654718
0
LINE
8
BLACK
6
CONTINUOUS
10
0.841332
20
0.654718
11
0.849087
21
0.652365
0
LINE
8
BLACK
6
CONTINUOUS
10
0.849087
20
0.652365
11
0.856234
21
0.648545
0
LINE
8
BLACK
6
CONTINUOUS
10
0.856234
20
0.648545
11
0.862499
21
0.643404
0
LINE
8
BLACK
6
CONTINUOUS
10
0.862499
20
0.643404
11
0.867639
21
0.63714
0
LINE
8
BLACK
6
CONTINUOUS
10
0.867639
20
0.63714
11
0.87146
21
0.629993
0
LINE
8
BLACK
6
CONTINUOUS
10
0.87146
20
0.629993
11
0.873812
21
0.622238
0
LINE
8
BLACK
6
CONTINUOUS
10
0.873812
20
0.622238
11
0.874606
21
0.614173
0
LINE
8
BLACK
6
CONTINUOUS
10
0.874606
20
0.614173
11
0.873812
21
0.606108
0
LINE
8
BLACK
6
CONTINUOUS
10
0.873812
20
0.606108
11
0.87146
21
0.598354
0
LINE
8
BLACK
6
CONTINUOUS
10
0.87146
20
0.598354
11
0.867639
21
0.591207
0
LINE
8
BLACK
6
CONTINUOUS
10
0.867639
20
0.591207
11
0.862499
21
0.584942
0
LINE
8
BLACK
6
CONTINUOUS
10
0.862499
20
0.584942
11
0.856234
21
0.579801
0
LINE
8
BLACK
6
CONTINUOUS
10
0.856234
20
0.579801
11
0.849087
21
0.575981
0
LINE
8
BLACK
6
CONTINUOUS
10
0.849087
20
0.575981
11
0.841332
21
0.573629
0
LINE
8
BLACK
6
CONTINUOUS
10
0.841332
20
0.573629
11
0.833268
21
0.572835
0
LINE
8
BLACK
6
CONTINUOUS
10
0.833268
20
0.572835
11
0.825203
21
0.573629
0
LINE
8
BLACK
6
CONTINUOUS
10
0.825203
20
0.573629
11
0.817448
21
0.575981
0
LINE
8
BLACK
6
CONTINUOUS
10
0.817448
20
0.575981
11
0.810301
21
0.579801
0
LINE
8
BLACK
6
CONTINUOUS
10
0.810301
20
0.579801
11
0.804037
21
0.584942
0
LINE
8
BLACK
6
CONTINUOUS
10
0.804037
20
0.584942
11
0.798896
21
0.591207
0
LINE
8
BLACK
6
CONTINUOUS
10
0.798896
20
0.591207
11
0.795076
21
0.598354
0
LINE
8
BLACK
6
CONTINUOUS
10
0.795076
20
0.598354
11
0.792723
21
0.606108
0
LINE
8
BLACK
6
CONTINUOUS
10
0.792723
20
0.606108
11
0.791929
21
0.614173
0
LINE
8
BLACK
6
CONTINUOUS
10
0.791929
20
0.614173
11
0.792723
21
0.622238
0
LINE
8
BLACK
6
CONTINUOUS
10
0.792723
20
0.622238
11
0.795076
21
0.629993
0
LINE
8
BLACK
6
CONTINUOUS
10
0.795076
20
0.629993
11
0.798896
21
0.63714
0
LINE
8
BLACK
6
CONTINUOUS
10
0.798896
20
0.63714
11
0.804037
21
0.643404
0
LINE
8
BLACK
6
CONTINUOUS
10
0.804037
20
0.643404
11
0.810301
21
0.648545
0
LINE
8
BLACK
6
CONTINUOUS
10
0.810301
20
0.648545
11
0.817448
21
0.652365
0
LINE
8
BLACK
6
CONTINUOUS
10
0.817448
20
0.652365
11
0.825203
21
0.654718
0
LINE
8
BLACK
6
CONTINUOUS
10
0.825203
20
0.654718
11
0.833268
21
0.655512
0
LINE
8
BLACK
6
CONTINUOUS
10
0.833268
20
0.655512
11
0.841332
21
0.654718
0
LINE
8
BLACK
6
CONTINUOUS
10
0.941332
20
0.654718
11
0.949087
21
0.652365
0
LINE
8
BLACK
6
CONTINUOUS
10
0.949087
20
0.652365
11
0.956234
21
0.648545
0
LINE
8
BLACK
6
CONTINUOUS
10
0.956234
20
0.648545
11
0.962499
21
0.643404
0
LINE
8
BLACK
6
CONTINUOUS
10
0.962499
20
0.643404
11
0.967639
21
0.63714
0
LINE
8
BLACK
6
CONTINUOUS
10
0.967639
20
0.63714
11
0.97146
21
0.629993
0
LINE
8
BLACK
6
CONTINUOUS
10
0.97146
20
0.629993
11
0.973812
21
0.622238
0
LINE
8
BLACK
6
CONTINUOUS
10
0.973812
20
0.622238
11
0.974606
21
0.614173
0
LINE
8
BLACK
6
CONTINUOUS
10
0.974606
20
0.614173
11
0.973812
21
0.606108
0
LINE
8
BLACK
6
CONTINUOUS
10
0.973812
20
0.606108
11
0.97146
21
0.598354
0
LINE
8
BLACK
6
CONTINUOUS
10
0.97146
20
0.598354
11
0.967639
21
0.591207
0
LINE
8
BLACK
6
CONTINUOUS
10
0.967639
20
0.591207
11
0.962499
21
0.584942
0
LINE
8
BLACK
6
CONTINUOUS
10
0.962499
20
0.584942
11
0.956234
21
0.579801
0
LINE
8
BLACK
6
CONTINUOUS
10
0.956234
20
0.579801
11
0.949087
21
0.575981
0
LINE
8
BLACK
6
CONTINUOUS
10
0.949087
20
0.575981
11
0.941332
21
0.573629
0
LINE
8
BLACK
6
CONTINUOUS
10
0.941332
20
0.573629
11
0.933268
21
0.572835
0
LINE
8
BLACK
6
CONTINUOUS
10
0.933268
20
0.572835
11
0.925203
21
0.573629
0
LINE
8
BLACK
6
CONTINUOUS
10
0.925203
20
0.573629
11
0.917448
21
0.575981
0
LINE
8
BLACK
6
CONTINUOUS
10
0.917448
20
0.575981
11
0.910301
21
0.579801
0
LINE
8
BLACK
6
CONTINUOUS
10
0.910301
20
0.579801
11
0.904037
21
0.584942
0
LINE
8
BLACK
6
CONTINUOUS
10
0.904037
20
0.584942
11
0.898896
21
0.591207
0
LINE
8
BLACK
6
CONTINUOUS
10
0.898896
20
0.591207
11
0.895076
21
0.598354
0
LINE
8
BLACK
6
CONTINUOUS
10
0.895076
20
0.598354
11
0.892723
21
0.606108
0
LINE
8
BLACK
6
CONTINUOUS
10
0.892723
20
0.606108
11
0.891929
21
0.614173
0
LINE
8
BLACK
6
CONTINUOUS
10
0.891929
20
0.614173
11
0.892723
21
0.622238
0
LINE
8
BLACK
6
CONTINUOUS
10
0.892723
20
0.622238
11
0.895076
21
0.629993
0
LINE
8
BLACK
6
CONTINUOUS
10
0.895076
20
0.629993
11
0.898896
21
0.63714
0
LINE
8
BLACK
6
CONTINUOUS
10
0.898896
20
0.63714
11
0.904037
21
0.643404
0
LINE
8
BLACK
6
CONTINUOUS
10
0.904037
20
0.643404
11
0.910301
21
0.648545
0
LINE
8
BLACK
6
CONTINUOUS
10
0.910301
20
0.648545
11
0.917448
21
0.652365
0
LINE
8
BLACK
6
CONTINUOUS
10
0.917448
20
0.652365
11
0.925203
21
0.654718
0
LINE
8
BLACK
6
CONTINUOUS
10
0.925203
20
0.654718
11
0.933268
21
0.655512
0
LINE
8
BLACK
6
CONTINUOUS
10
0.933268
20
0.655512
11
0.941332
21
0.654718
0
LINE
8
BLACK
6
CONTINUOUS
10
0.321451
20
0.751568
11
0.329205
21
0.749216
0
LINE
8
BLACK
6
CONTINUOUS
10
0.329205
20
0.749216
11
0.336352
21
0.745395
0
LINE
8
BLACK
6
CONTINUOUS
10
0.336352
20
0.745395
11
0.342617
21
0.740254
0
LINE
8
BLACK
6
CONTINUOUS
10
0.342617
20
0.740254
11
0.347758
21
0.73399
0
LINE
8
BLACK
6
CONTINUOUS
10
0.347758
20
0.73399
11
0.351578
21
0.726843
0
LINE
8
BLACK
6
CONTINUOUS
10
0.351578
20
0.726843
11
0.35393
21
0.719088
0
LINE
8
BLACK
6
CONTINUOUS
10
0.35393
20
0.719088
11
0.354724
21
0.711024
0
LINE
8
BLACK
6
CONTINUOUS
10
0.354724
20
0.711024
11
0.35393
21
0.702959
0
LINE
8
BLACK
6
CONTINUOUS
10
0.35393
20
0.702959
11
0.351578
21
0.695204
0
LINE
8
BLACK
6
CONTINUOUS
10
0.351578
20
0.695204
11
0.347758
21
0.688057
0
LINE
8
BLACK
6
CONTINUOUS
10
0.347758
20
0.688057
11
0.342617
21
0.681793
0
LINE
8
BLACK
6
CONTINUOUS
10
0.342617
20
0.681793
11
0.336352
21
0.676652
0
LINE
8
BLACK
6
CONTINUOUS
10
0.336352
20
0.676652
11
0.329205
21
0.672832
0
LINE
8
BLACK
6
CONTINUOUS
10
0.329205
20
0.672832
11
0.321451
21
0.670479
0
LINE
8
BLACK
6
CONTINUOUS
10
0.321451
20
0.670479
11
0.313386
21
0.669685
0
LINE
8
BLACK
6
CONTINUOUS
10
0.313386
20
0.669685
11
0.305321
21
0.670479
0
LINE
8
BLACK
6
CONTINUOUS
10
0.305321
20
0.670479
11
0.297566
21
0.672832
0
LINE
8
BLACK
6
CONTINUOUS
10
0.297566
20
0.672832
11
0.290419
21
0.676652
0
LINE
8
BLACK
6
CONTINUOUS
10
0.290419
20
0.676652
11
0.284155
21
0.681793
0
LINE
8
BLACK
6
CONTINUOUS
10
0.284155
20
0.681793
11
0.279014
21
0.688057
0
LINE
8
BLACK
6
CONTINUOUS
10
0.279014
20
0.688057
11
0.275194
21
0.695204
0
LINE
8
BLACK
6
CONTINUOUS
10
0.275194
20
0.695204
11
0.272842
21
0.702959
0
LINE
8
BLACK
6
CONTINUOUS
10
0.272842
20
0.702959
11
0.272047
21
0.711024
0
LINE
8
BLACK
6
CONTINUOUS
10
0.272047
20
0.711024
11
0.272842
21
0.719088
0
LINE
8
BLACK
6
CONTINUOUS
10
0.272842
20
0.719088
11
0.275194
21
0.726843
0
LINE
8
BLACK
6
CONTINUOUS
10
0.275194
20
0.726843
11
0.279014
21
0.73399
0
LINE
8
BLACK
6
CONTINUOUS
10
0.279014
20
0.73399
11
0.284155
21
0.740254
0
LINE
8
BLACK
6
CONTINUOUS
10
0.284155
20
0.740254
11
0.290419
21
0.745395
0
LINE
8
BLACK
6
CONTINUOUS
10
0.290419
20
0.745395
11
0.297566
21
0.749216
0
LINE
8
BLACK
6
CONTINUOUS
10
0.297566
20
0.749216
11
0.305321
21
0.751568
0
LINE
8
BLACK
6
CONTINUOUS
10
0.305321
20
0.751568
11
0.313386
21
0.752362
0
LINE
8
BLACK
6
CONTINUOUS
10
0.313386
20
0.752362
11
0.321451
21
0.751568
0
LINE
8
BLACK
6
CONTINUOUS
10
0.421451
20
0.751568
11
0.429205
21
0.749216
0
LINE
8
BLACK
6
CONTINUOUS
10
0.429205
20
0.749216
11
0.436352
21
0.745395
0
LINE
8
BLACK
6
CONTINUOUS
10
0.436352
20
0.745395
11
0.442617
21
0.740254
0
LINE
8
BLACK
6
CONTINUOUS
10
0.442617
20
0.740254
11
0.447758
21
0.73399
0
LINE
8
BLACK
6
CONTINUOUS
10
0.447758
20
0.73399
11
0.451578
21
0.726843
0
LINE
8
BLACK
6
CONTINUOUS
10
0.451578
20
0.726843
11
0.45393
21
0.719088
0
LINE
8
BLACK
6
CONTINUOUS
10
0.45393
20
0.719088
11
0.454724
21
0.711024
0
LINE
8
BLACK
6
CONTINUOUS
10
0.454724
20
0.711024
11
0.45393
21
0.702959
0
LINE
8
BLACK
6
CONTINUOUS
10
0.45393
20
0.702959
11
0.451578
21
0.695204
0
LINE
8
BLACK
6
CONTINUOUS
10
0.451578
20
0.695204
11
0.447758
21
0.688057
0
LINE
8
BLACK
6
CONTINUOUS
10
0.447758
20
0.688057
11
0.442617
21
0.681793
0
LINE
8
BLACK
6
CONTINUOUS
10
0.442617
20
0.681793
11
0.436352
21
0.676652
0
LINE
8
BLACK
6
CONTINUOUS
10
0.436352
20
0.676652
11
0.429205
21
0.672832
0
LINE
8
BLACK
6
CONTINUOUS
10
0.429205
20
0.672832
11
0.421451
21
0.670479
0
LINE
8
BLACK
6
CONTINUOUS
10
0.421451
20
0.670479
11
0.413386
21
0.669685
0
LINE
8
BLACK
6
CONTINUOUS
10
0.413386
20
0.669685
11
0.405321
21
0.670479
0
LINE
8
BLACK
6
CONTINUOUS
10
0.405321
20
0.670479
11
0.397566
21
0.672832
0
LINE
8
BLACK
6
CONTINUOUS
10
0.397566
20
0.672832
11
0.390419
21
0.676652
0
LINE
8
BLACK
6
CONTINUOUS
10
0.390419
20
0.676652
11
0.384155
21
0.681793
0
LINE
8
BLACK
6
CONTINUOUS
10
0.384155
20
0.681793
11
0.379014
21
0.688057
0
LINE
8
BLACK
6
CONTINUOUS
10
0.379014
20
0.688057
11
0.375194
21
0.695204
0
LINE
8
BLACK
6
CONTINUOUS
10
0.375194
20
0.695204
11
0.372842
21
0.702959
0
LINE
8
BLACK
6
CONTINUOUS
10
0.372842
20
0.702959
11
0.372047
21
0.711024
0
LINE
8
BLACK
6
CONTINUOUS
10
0.372047
20
0.711024
11
0.372842
21
0.719088
0
LINE
8
BLACK
6
CONTINUOUS
10
0.372842
20
0.719088
11
0.375194
21
0.726843
0
LINE
8
BLACK
6
CONTINUOUS
10
0.375194
20
0.726843
11
0.379014
21
0.73399
0
LINE
8
BLACK
6
CONTINUOUS
10
0.379014
20
0.73399
11
0.384155
21
0.740254
0
LINE
8
BLACK
6
CONTINUOUS
10
0.384155
20
0.740254
11
0.390419
21
0.745395
0
LINE
8
BLACK
6
CONTINUOUS
10
0.390419
20
0.745395
11
0.397566
21
0.749216
0
LINE
8
BLACK
6
CONTINUOUS
10
0.397566
20
0.749216
11
0.405321
21
0.751568
0
LINE
8
BLACK
6
CONTINUOUS
10
0.405321
20
0.751568
11
0.413386
21
0.752362
0
LINE
8
BLACK
6
CONTINUOUS
10
0.413386
20
0.752362
11
0.421451
21
0.751568
0
LINE
8
BLACK
6
CONTINUOUS
10
1.21673
20
0.771647
11
1.22448
21
0.769294
0
LINE
8
BLACK
6
CONTINUOUS
10
1.22448
20
0.769294
11
1.23163
21
0.765474
0
LINE
8
BLACK
6
CONTINUOUS
10
1.23163
20
0.765474
11
1.23789
21
0.760333
0
LINE
8
BLACK
6
CONTINUOUS
10
1.23789
20
0.760333
11
1.24303
21
0.754069
0
LINE
8
BLACK
6
CONTINUOUS
10
1.24303
20
0.754069
11
1.24685
21
0.746922
0
LINE
8
BLACK
6
CONTINUOUS
10
1.24685
20
0.746922
11
1.24921
21
0.739167
0
LINE
8
BLACK
6
CONTINUOUS
10
1.24921
20
0.739167
11
1.25
21
0.731102
0
LINE
8
BLACK
6
CONTINUOUS
10
1.25
20
0.731102
11
1.24921
21
0.723038
0
LINE
8
BLACK
6
CONTINUOUS
10
1.24921
20
0.723038
11
1.24685
21
0.715283
0
LINE
8
BLACK
6
CONTINUOUS
10
1.24685
20
0.715283
11
1.24303
21
0.708136
0
LINE
8
BLACK
6
CONTINUOUS
10
1.24303
20
0.708136
11
1.23789
21
0.701872
0
LINE
8
BLACK
6
CONTINUOUS
10
1.23789
20
0.701872
11
1.23163
21
0.696731
0
LINE
8
BLACK
6
CONTINUOUS
10
1.23163
20
0.696731
11
1.22448
21
0.69291
0
LINE
8
BLACK
6
CONTINUOUS
10
1.22448
20
0.69291
11
1.21673
21
0.690558
0
LINE
8
BLACK
6
CONTINUOUS
10
1.21673
20
0.690558
11
1.20866
21
0.689764
0
LINE
8
BLACK
6
CONTINUOUS
10
1.20866
20
0.689764
11
1.2006
21
0.690558
0
LINE
8
BLACK
6
CONTINUOUS
10
1.2006
20
0.690558
11
1.19284
21
0.69291
0
LINE
8
BLACK
6
CONTINUOUS
10
1.19284
20
0.69291
11
1.18569
21
0.696731
0
LINE
8
BLACK
6
CONTINUOUS
10
1.18569
20
0.696731
11
1.17943
21
0.701872
0
LINE
8
BLACK
6
CONTINUOUS
10
1.17943
20
0.701872
11
1.17429
21
0.708136
0
LINE
8
BLACK
6
CONTINUOUS
10
1.17429
20
0.708136
11
1.17047
21
0.715283
0
LINE
8
BLACK
6
CONTINUOUS
10
1.17047
20
0.715283
11
1.16812
21
0.723038
0
LINE
8
BLACK
6
CONTINUOUS
10
1.16812
20
0.723038
11
1.16732
21
0.731102
0
LINE
8
BLACK
6
CONTINUOUS
10
1.16732
20
0.731102
11
1.16812
21
0.739167
0
LINE
8
BLACK
6
CONTINUOUS
10
1.16812
20
0.739167
11
1.17047
21
0.746922
0
LINE
8
BLACK
6
CONTINUOUS
10
1.17047
20
0.746922
11
1.17429
21
0.754069
0
LINE
8
BLACK
6
CONTINUOUS
10
1.17429
20
0.754069
11
1.17943
21
0.760333
0
LINE
8
BLACK
6
CONTINUOUS
10
1.17943
20
0.760333
11
1.18569
21
0.765474
0
LINE
8
BLACK
6
CONTINUOUS
10
1.18569
20
0.765474
11
1.19284
21
0.769294
0
LINE
8
BLACK
6
CONTINUOUS
10
1.19284
20
0.769294
11
1.2006
21
0.771647
0
LINE
8
BLACK
6
CONTINUOUS
10
1.2006
20
0.771647
11
1.20866
21
0.772441
0
LINE
8
BLACK
6
CONTINUOUS
10
1.20866
20
0.772441
11
1.21673
21
0.771647
0
LINE
8
BLACK
6
CONTINUOUS
10
0.321451
20
0.851568
11
0.329205
21
0.849216
0
LINE
8
BLACK
6
CONTINUOUS
10
0.329205
20
0.849216
11
0.336352
21
0.845395
0
LINE
8
BLACK
6
CONTINUOUS
10
0.336352
20
0.845395
11
0.342617
21
0.840254
0
LINE
8
BLACK
6
CONTINUOUS
10
0.342617
20
0.840254
11
0.347758
21
0.83399
0
LINE
8
BLACK
6
CONTINUOUS
10
0.347758
20
0.83399
11
0.351578
21
0.826843
0
LINE
8
BLACK
6
CONTINUOUS
10
0.351578
20
0.826843
11
0.35393
21
0.819088
0
LINE
8
BLACK
6
CONTINUOUS
10
0.35393
20
0.819088
11
0.354724
21
0.811024
0
LINE
8
BLACK
6
CONTINUOUS
10
0.354724
20
0.811024
11
0.35393
21
0.802959
0
LINE
8
BLACK
6
CONTINUOUS
10
0.35393
20
0.802959
11
0.351578
21
0.795204
0
LINE
8
BLACK
6
CONTINUOUS
10
0.351578
20
0.795204
11
0.347758
21
0.788057
0
LINE
8
BLACK
6
CONTINUOUS
10
0.347758
20
0.788057
11
0.342617
21
0.781793
0
LINE
8
BLACK
6
CONTINUOUS
10
0.342617
20
0.781793
11
0.336352
21
0.776652
0
LINE
8
BLACK
6
CONTINUOUS
10
0.336352
20
0.776652
11
0.329205
21
0.772832
0
LINE
8
BLACK
6
CONTINUOUS
10
0.329205
20
0.772832
11
0.321451
21
0.770479
0
LINE
8
BLACK
6
CONTINUOUS
10
0.321451
20
0.770479
11
0.313386
21
0.769685
0
LINE
8
BLACK
6
CONTINUOUS
10
0.313386
20
0.769685
11
0.305321
21
0.770479
0
LINE
8
BLACK
6
CONTINUOUS
10
0.305321
20
0.770479
11
0.297566
21
0.772832
0
LINE
8
BLACK
6
CONTINUOUS
10
0.297566
20
0.772832
11
0.290419
21
0.776652
0
LINE
8
BLACK
6
CONTINUOUS
10
0.290419
20
0.776652
11
0.284155
21
0.781793
0
LINE
8
BLACK
6
CONTINUOUS
10
0.284155
20
0.781793
11
0.279014
21
0.788057
0
LINE
8
BLACK
6
CONTINUOUS
10
0.279014
20
0.788057
11
0.275194
21
0.795204
0
LINE
8
BLACK
6
CONTINUOUS
10
0.275194
20
0.795204
11
0.272842
21
0.802959
0
LINE
8
BLACK
6
CONTINUOUS
10
0.272842
20
0.802959
11
0.272047
21
0.811024
0
LINE
8
BLACK
6
CONTINUOUS
10
0.272047
20
0.811024
11
0.272842
21
0.819088
0
LINE
8
BLACK
6
CONTINUOUS
10
0.272842
20
0.819088
11
0.275194
21
0.826843
0
LINE
8
BLACK
6
CONTINUOUS
10
0.275194
20
0.826843
11
0.279014
21
0.83399
0
LINE
8
BLACK
6
CONTINUOUS
10
0.279014
20
0.83399
11
0.284155
21
0.840254
0
LINE
8
BLACK
6
CONTINUOUS
10
0.284155
20
0.840254
11
0.290419
21
0.845395
0
LINE
8
BLACK
6
CONTINUOUS
10
0.290419
20
0.845395
11
0.297566
21
0.849216
0
LINE
8
BLACK
6
CONTINUOUS
10
0.297566
20
0.849216
11
0.305321
21
0.851568
0
LINE
8
BLACK
6
CONTINUOUS
10
0.305321
20
0.851568
11
0.313386
21
0.852362
0
LINE
8
BLACK
6
CONTINUOUS
10
0.313386
20
0.852362
11
0.321451
21
0.851568
0
LINE
8
BLACK
6
CONTINUOUS
10
0.421451
20
0.851568
11
0.429205
21
0.849216
0
LINE
8
BLACK
6
CONTINUOUS
10
0.429205
20
0.849216
11
0.436352
21
0.845395
0
LINE
8
BLACK
6
CONTINUOUS
10
0.436352
20
0.845395
11
0.442617
21
0.840254
0
LINE
8
BLACK
6
CONTINUOUS
10
0.442617
20
0.840254
11
0.447758
21
0.83399
0
LINE
8
BLACK
6
CONTINUOUS
10
0.447758
20
0.83399
11
0.451578
21
0.826843
0
LINE
8
BLACK
6
CONTINUOUS
10
0.451578
20
0.826843
11
0.45393
21
0.819088
0
LINE
8
BLACK
6
CONTINUOUS
10
0.45393
20
0.819088
11
0.454724
21
0.811024
0
LINE
8
BLACK
6
CONTINUOUS
10
0.454724
20
0.811024
11
0.45393
21
0.802959
0
LINE
8
BLACK
6
CONTINUOUS
10
0.45393
20
0.802959
11
0.451578
21
0.795204
0
LINE
8
BLACK
6
CONTINUOUS
10
0.451578
20
0.795204
11
0.447758
21
0.788057
0
LINE
8
BLACK
6
CONTINUOUS
10
0.447758
20
0.788057
11
0.442617
21
0.781793
0
LINE
8
BLACK
6
CONTINUOUS
10
0.442617
20
0.781793
11
0.436352
21
0.776652
0
LINE
8
BLACK
6
CONTINUOUS
10
0.436352
20
0.776652
11
0.429205
21
0.772832
0
LINE
8
BLACK
6
CONTINUOUS
10
0.429205
20
0.772832
11
0.421451
21
0.770479
0
LINE
8
BLACK
6
CONTINUOUS
10
0.421451
20
0.770479
11
0.413386
21
0.769685
0
LINE
8
BLACK
6
CONTINUOUS
10
0.413386
20
0.769685
11
0.405321
21
0.770479
0
LINE
8
BLACK
6
CONTINUOUS
10
0.405321
20
0.770479
11
0.397566
21
0.772832
0
LINE
8
BLACK
6
CONTINUOUS
10
0.397566
20
0.772832
11
0.390419
21
0.776652
0
LINE
8
BLACK
6
CONTINUOUS
10
0.390419
20
0.776652
11
0.384155
21
0.781793
0
LINE
8
BLACK
6
CONTINUOUS
10
0.384155
20
0.781793
11
0.379014
21
0.788057
0
LINE
8
BLACK
6
CONTINUOUS
10
0.379014
20
0.788057
11
0.375194
21
0.795204
0
LINE
8
BLACK
6
CONTINUOUS
10
0.375194
20
0.795204
11
0.372842
21
0.802959
0
LINE
8
BLACK
6
CONTINUOUS
10
0.372842
20
0.802959
11
0.372047
21
0.811024
0
LINE
8
BLACK
6
CONTINUOUS
10
0.372047
20
0.811024
11
0.372842
21
0.819088
0
LINE
8
BLACK
6
CONTINUOUS
10
0.372842
20
0.819088
11
0.375194
21
0.826843
0
LINE
8
BLACK
6
CONTINUOUS
10
0.375194
20
0.826843
11
0.379014
21
0.83399
0
LINE
8
BLACK
6
CONTINUOUS
10
0.379014
20
0.83399
11
0.384155
21
0.840254
0
LINE
8
BLACK
6
CONTINUOUS
10
0.384155
20
0.840254
11
0.390419
21
0.845395
0
LINE
8
BLACK
6
CONTINUOUS
10
0.390419
20
0.845395
11
0.397566
21
0.849216
0
LINE
8
BLACK
6
CONTINUOUS
10
0.397566
20
0.849216
11
0.405321
21
0.851568
0
LINE
8
BLACK
6
CONTINUOUS
10
0.405321
20
0.851568
11
0.413386
21
0.852362
0
LINE
8
BLACK
6
CONTINUOUS
10
0.413386
20
0.852362
11
0.421451
21
0.851568
0
LINE
8
BLACK
6
CONTINUOUS
10
1.21673
20
0.871647
11
1.22448
21
0.869294
0
LINE
8
BLACK
6
CONTINUOUS
10
1.22448
20
0.869294
11
1.23163
21
0.865474
0
LINE
8
BLACK
6
CONTINUOUS
10
1.23163
20
0.865474
11
1.23789
21
0.860333
0
LINE
8
BLACK
6
CONTINUOUS
10
1.23789
20
0.860333
11
1.24303
21
0.854069
0
LINE
8
BLACK
6
CONTINUOUS
10
1.24303
20
0.854069
11
1.24685
21
0.846922
0
LINE
8
BLACK
6
CONTINUOUS
10
1.24685
20
0.846922
11
1.24921
21
0.839167
0
LINE
8
BLACK
6
CONTINUOUS
10
1.24921
20
0.839167
11
1.25
21
0.831102
0
LINE
8
BLACK
6
CONTINUOUS
10
1.25
20
0.831102
11
1.24921
21
0.823038
0
LINE
8
BLACK
6
CONTINUOUS
10
1.24921
20
0.823038
11
1.24685
21
0.815283
0
LINE
8
BLACK
6
CONTINUOUS
10
1.24685
20
0.815283
11
1.24303
21
0.808136
0
LINE
8
BLACK
6
CONTINUOUS
10
1.24303
20
0.808136
11
1.23789
21
0.801872
0
LINE
8
BLACK
6
CONTINUOUS
10
1.23789
20
0.801872
11
1.23163
21
0.796731
0
LINE
8
BLACK
6
CONTINUOUS
10
1.23163
20
0.796731
11
1.22448
21
0.79291
0
LINE
8
BLACK
6
CONTINUOUS
10
1.22448
20
0.79291
11
1.21673
21
0.790558
0
LINE
8
BLACK
6
CONTINUOUS
10
1.21673
20
0.790558
11
1.20866
21
0.789764
0
LINE
8
BLACK
6
CONTINUOUS
10
1.20866
20
0.789764
11
1.2006
21
0.790558
0
LINE
8
BLACK
6
CONTINUOUS
10
1.2006
20
0.790558
11
1.19284
21
0.79291
0
LINE
8
BLACK
6
CONTINUOUS
10
1.19284
20
0.79291
11
1.18569
21
0.796731
0
LINE
8
BLACK
6
CONTINUOUS
10
1.18569
20
0.796731
11
1.17943
21
0.801872
0
LINE
8
BLACK
6
CONTINUOUS
10
1.17943
20
0.801872
11
1.17429
21
0.808136
0
LINE
8
BLACK
6
CONTINUOUS
10
1.17429
20
0.808136
11
1.17047
21
0.815283
0
LINE
8
BLACK
6
CONTINUOUS
10
1.17047
20
0.815283
11
1.16812
21
0.823038
0
LINE
8
BLACK
6
CONTINUOUS
10
1.16812
20
0.823038
11
1.16732
21
0.831102
0
LINE
8
BLACK
6
CONTINUOUS
10
1.16732
20
0.831102
11
1.16812
21
0.839167
0
LINE
8
BLACK
6
CONTINUOUS
10
1.16812
20
0.839167
11
1.17047
21
0.846922
0
LINE
8
BLACK
6
CONTINUOUS
10
1.17047
20
0.846922
11
1.17429
21
0.854069
0
LINE
8
BLACK
6
CONTINUOUS
10
1.17429
20
0.854069
11
1.17943
21
0.860333
0
LINE
8
BLACK
6
CONTINUOUS
10
1.17943
20
0.860333
11
1.18569
21
0.865474
0
LINE
8
BLACK
6
CONTINUOUS
10
1.18569
20
0.865474
11
1.19284
21
0.869294
0
LINE
8
BLACK
6
CONTINUOUS
10
1.19284
20
0.869294
11
1.2006
21
0.871647
0
LINE
8
BLACK
6
CONTINUOUS
10
1.2006
20
0.871647
11
1.20866
21
0.872441
0
LINE
8
BLACK
6
CONTINUOUS
10
1.20866
20
0.872441
11
1.21673
21
0.871647
0
LINE
8
BLACK
6
CONTINUOUS
10
0.349864
20
0.951763
11
0.352418
21
0.950056
0
LINE
8
BLACK
6
CONTINUOUS
10
0.352418
20
0.950056
11
0.354125
21
0.947501
0
LINE
8
BLACK
6
CONTINUOUS
10
0.354125
20
0.947501
11
0.354724
21
0.944488
0
LINE
8
BLACK
6
CONTINUOUS
10
0.354724
20
0.944488
11
0.354724
21
0.877559
0
LINE
8
BLACK
6
CONTINUOUS
10
0.354724
20
0.877559
11
0.354125
21
0.874546
0
LINE
8
BLACK
6
CONTINUOUS
10
0.354125
20
0.874546
11
0.352418
21
0.871991
0
LINE
8
BLACK
6
CONTINUOUS
10
0.352418
20
0.871991
11
0.349864
21
0.870284
0
LINE
8
BLACK
6
CONTINUOUS
10
0.349864
20
0.870284
11
0.34685
21
0.869685
0
LINE
8
BLACK
6
CONTINUOUS
10
0.34685
20
0.869685
11
0.279921
21
0.869685
0
LINE
8
BLACK
6
CONTINUOUS
10
0.279921
20
0.869685
11
0.276908
21
0.870284
0
LINE
8
BLACK
6
CONTINUOUS
10
0.276908
20
0.870284
11
0.274354
21
0.871991
0
LINE
8
BLACK
6
CONTINUOUS
10
0.274354
20
0.871991
11
0.272647
21
0.874546
0
LINE
8
BLACK
6
CONTINUOUS
10
0.272647
20
0.874546
11
0.272047
21
0.877559
0
LINE
8
BLACK
6
CONTINUOUS
10
0.272047
20
0.877559
11
0.272047
21
0.944488
0
LINE
8
BLACK
6
CONTINUOUS
10
0.272047
20
0.944488
11
0.272647
21
0.947501
0
LINE
8
BLACK
6
CONTINUOUS
10
0.272647
20
0.947501
11
0.274354
21
0.950056
0
LINE
8
BLACK
6
CONTINUOUS
10
0.274354
20
0.950056
11
0.276908
21
0.951763
0
LINE
8
BLACK
6
CONTINUOUS
10
0.276908
20
0.951763
11
0.279921
21
0.952362
0
LINE
8
BLACK
6
CONTINUOUS
10
0.279921
20
0.952362
11
0.34685
21
0.952362
0
LINE
8
BLACK
6
CONTINUOUS
10
0.34685
20
0.952362
11
0.349864
21
0.951763
0
LINE
8
BLACK
6
CONTINUOUS
10
0.421451
20
0.951568
11
0.429205
21
0.949216
0
LINE
8
BLACK
6
CONTINUOUS
10
0.429205
20
0.949216
11
0.436352
21
0.945395
0
LINE
8
BLACK
6
CONTINUOUS
10
0.436352
20
0.945395
11
0.442617
21
0.940254
0
LINE
8
BLACK
6
CONTINUOUS
10
0.442617
20
0.940254
11
0.447758
21
0.93399
0
LINE
8
BLACK
6
CONTINUOUS
10
0.447758
20
0.93399
11
0.451578
21
0.926843
0
LINE
8
BLACK
6
CONTINUOUS
10
0.451578
20
0.926843
11
0.45393
21
0.919088
0
LINE
8
BLACK
6
CONTINUOUS
10
0.45393
20
0.919088
11
0.454724
21
0.911024
0
LINE
8
BLACK
6
CONTINUOUS
10
0.454724
20
0.911024
11
0.45393
21
0.902959
0
LINE
8
BLACK
6
CONTINUOUS
10
0.45393
20
0.902959
11
0.451578
21
0.895204
0
LINE
8
BLACK
6
CONTINUOUS
10
0.451578
20
0.895204
11
0.447758
21
0.888057
0
LINE
8
BLACK
6
CONTINUOUS
10
0.447758
20
0.888057
11
0.442617
21
0.881793
0
LINE
8
BLACK
6
CONTINUOUS
10
0.442617
20
0.881793
11
0.436352
21
0.876652
0
LINE
8
BLACK
6
CONTINUOUS
10
0.436352
20
0.876652
11
0.429205
21
0.872832
0
LINE
8
BLACK
6
CONTINUOUS
10
0.429205
20
0.872832
11
0.421451
21
0.870479
0
LINE
8
BLACK
6
CONTINUOUS
10
0.421451
20
0.870479
11
0.413386
21
0.869685
0
LINE
8
BLACK
6
CONTINUOUS
10
0.413386
20
0.869685
11
0.405321
21
0.870479
0
LINE
8
BLACK
6
CONTINUOUS
10
0.405321
20
0.870479
11
0.397566
21
0.872832
0
LINE
8
BLACK
6
CONTINUOUS
10
0.397566
20
0.872832
11
0.390419
21
0.876652
0
LINE
8
BLACK
6
CONTINUOUS
10
0.390419
20
0.876652
11
0.384155
21
0.881793
0
LINE
8
BLACK
6
CONTINUOUS
10
0.384155
20
0.881793
11
0.379014
21
0.888057
0
LINE
8
BLACK
6
CONTINUOUS
10
0.379014
20
0.888057
11
0.375194
21
0.895204
0
LINE
8
BLACK
6
CONTINUOUS
10
0.375194
20
0.895204
11
0.372842
21
0.902959
0
LINE
8
BLACK
6
CONTINUOUS
10
0.372842
20
0.902959
11
0.372047
21
0.911024
0
LINE
8
BLACK
6
CONTINUOUS
10
0.372047
20
0.911024
11
0.372842
21
0.919088
0
LINE
8
BLACK
6
CONTINUOUS
10
0.372842
20
0.919088
11
0.375194
21
0.926843
0
LINE
8
BLACK
6
CONTINUOUS
10
0.375194
20
0.926843
11
0.379014
21
0.93399
0
LINE
8
BLACK
6
CONTINUOUS
10
0.379014
20
0.93399
11
0.384155
21
0.940254
0
LINE
8
BLACK
6
CONTINUOUS
10
0.384155
20
0.940254
11
0.390419
21
0.945395
0
LINE
8
BLACK
6
CONTINUOUS
10
0.390419
20
0.945395
11
0.397566
21
0.949216
0
LINE
8
BLACK
6
CONTINUOUS
10
0.397566
20
0.949216
11
0.405321
21
0.951568
0
LINE
8
BLACK
6
CONTINUOUS
10
0.405321
20
0.951568
11
0.413386
21
0.952362
0
LINE
8
BLACK
6
CONTINUOUS
10
0.413386
20
0.952362
11
0.421451
21
0.951568
0
LINE
8
BLACK
6
CONTINUOUS
10
1.24514
20
0.971842
11
1.24769
21
0.970135
0
LINE
8
BLACK
6
CONTINUOUS
10
1.24769
20
0.970135
11
1.2494
21
0.96758
0
LINE
8
BLACK
6
CONTINUOUS
10
1.2494
20
0.96758
11
1.25
21
0.964567
0
LINE
8
BLACK
6
CONTINUOUS
10
1.25
20
0.964567
11
1.25
21
0.897638
0
LINE
8
BLACK
6
CONTINUOUS
10
1.25
20
0.897638
11
1.2494
21
0.894625
0
LINE
8
BLACK
6
CONTINUOUS
10
1.2494
20
0.894625
11
1.24769
21
0.89207
0
LINE
8
BLACK
6
CONTINUOUS
10
1.24769
20
0.89207
11
1.24514
21
0.890363
0
LINE
8
BLACK
6
CONTINUOUS
10
1.24514
20
0.890363
11
1.24213
21
0.889764
0
LINE
8
BLACK
6
CONTINUOUS
10
1.24213
20
0.889764
11
1.1752
21
0.889764
0
LINE
8
BLACK
6
CONTINUOUS
10
1.1752
20
0.889764
11
1.17218
21
0.890363
0
LINE
8
BLACK
6
CONTINUOUS
10
1.17218
20
0.890363
11
1.16963
21
0.89207
0
LINE
8
BLACK
6
CONTINUOUS
10
1.16963
20
0.89207
11
1.16792
21
0.894625
0
LINE
8
BLACK
6
CONTINUOUS
10
1.16792
20
0.894625
11
1.16732
21
0.897638
0
LINE
8
BLACK
6
CONTINUOUS
10
1.16732
20
0.897638
11
1.16732
21
0.964567
0
LINE
8
BLACK
6
CONTINUOUS
10
1.16732
20
0.964567
11
1.16792
21
0.96758
0
LINE
8
BLACK
6
CONTINUOUS
10
1.16792
20
0.96758
11
1.16963
21
0.970135
0
LINE
8
BLACK
6
CONTINUOUS
10
1.16963
20
0.970135
11
1.17218
21
0.971842
0
LINE
8
BLACK
6
CONTINUOUS
10
1.17218
20
0.971842
11
1.1752
21
0.972441
0
LINE
8
BLACK
6
CONTINUOUS
10
1.1752
20
0.972441
11
1.24213
21
0.972441
0
LINE
8
BLACK
6
CONTINUOUS
10
1.24213
20
0.972441
11
1.24514
21
0.971842
0
LINE
8
BLACK
6
CONTINUOUS
10
0.414106
20
1.32519
11
0.428034
21
1.32283
0
LINE
8
BLACK
6
CONTINUOUS
10
0.428034
20
1.32283
11
0.44161
21
1.31891
0
LINE
8
BLACK
6
CONTINUOUS
10
0.44161
20
1.31891
11
0.454663
21
1.31351
0
LINE
8
BLACK
6
CONTINUOUS
10
0.454663
20
1.31351
11
0.467028
21
1.30667
0
LINE
8
BLACK
6
CONTINUOUS
10
0.467028
20
1.30667
11
0.47855
21
1.2985
0
LINE
8
BLACK
6
CONTINUOUS
10
0.47855
20
1.2985
11
0.489084
21
1.28908
0
LINE
8
BLACK
6
CONTINUOUS
10
0.489084
20
1.28908
11
0.498499
21
1.27855
0
LINE
8
BLACK
6
CONTINUOUS
10
0.498499
20
1.27855
11
0.506674
21
1.26703
0
LINE
8
BLACK
6
CONTINUOUS
10
0.506674
20
1.26703
11
0.513508
21
1.25466
0
LINE
8
BLACK
6
CONTINUOUS
10
0.513508
20
1.25466
11
0.518914
21
1.24161
0
LINE
8
BLACK
6
CONTINUOUS
10
0.518914
20
1.24161
11
0.522826
21
1.22803
0
LINE
8
BLACK
6
CONTINUOUS
10
0.522826
20
1.22803
11
0.525192
21
1.21411
0
LINE
8
BLACK
6
CONTINUOUS
10
0.525192
20
1.21411
11
0.525984
21
1.2
0
LINE
8
BLACK
6
CONTINUOUS
10
0.525984
20
1.2
11
0.525192
21
1.18589
0
LINE
8
BLACK
6
CONTINUOUS
10
0.525192
20
1.18589
11
0.522826
21
1.17197
0
LINE
8
BLACK
6
CONTINUOUS
10
0.522826
20
1.17197
11
0.518914
21
1.15839
0
LINE
8
BLACK
6
CONTINUOUS
10
0.518914
20
1.15839
11
0.513508
21
1.14534
0
LINE
8
BLACK
6
CONTINUOUS
10
0.513508
20
1.14534
11
0.506674
21
1.13297
0
LINE
8
BLACK
6
CONTINUOUS
10
0.506674
20
1.13297
11
0.498499
21
1.12145
0
LINE
8
BLACK
6
CONTINUOUS
10
0.498499
20
1.12145
11
0.489084
21
1.11092
0
LINE
8
BLACK
6
CONTINUOUS
10
0.489084
20
1.11092
11
0.47855
21
1.1015
0
LINE
8
BLACK
6
CONTINUOUS
10
0.47855
20
1.1015
11
0.467028
21
1.09333
0
LINE
8
BLACK
6
CONTINUOUS
10
0.467028
20
1.09333
11
0.454663
21
1.08649
0
LINE
8
BLACK
6
CONTINUOUS
10
0.454663
20
1.08649
11
0.44161
21
1.08109
0
LINE
8
BLACK
6
CONTINUOUS
10
0.44161
20
1.08109
11
0.428034
21
1.07717
0
LINE
8
BLACK
6
CONTINUOUS
10
0.428034
20
1.07717
11
0.414106
21
1.07481
0
LINE
8
BLACK
6
CONTINUOUS
10
0.414106
20
1.07481
11
0.4
21
1.07402
0
LINE
8
BLACK
6
CONTINUOUS
10
0.4
20
1.07402
11
0.385894
21
1.07481
0
LINE
8
BLACK
6
CONTINUOUS
10
0.385894
20
1.07481
11
0.371966
21
1.07717
0
LINE
8
BLACK
6
CONTINUOUS
10
0.371966
20
1.07717
11
0.35839
21
1.08109
0
LINE
8
BLACK
6
CONTINUOUS
10
0.35839
20
1.08109
11
0.345338
21
1.08649
0
LINE
8
BLACK
6
CONTINUOUS
10
0.345338
20
1.08649
11
0.332972
21
1.09333
0
LINE
8
BLACK
6
CONTINUOUS
10
0.332972
20
1.09333
11
0.32145
21
1.1015
0
LINE
8
BLACK
6
CONTINUOUS
10
0.32145
20
1.1015
11
0.310916
21
1.11092
0
LINE
8
BLACK
6
CONTINUOUS
10
0.310916
20
1.11092
11
0.301502
21
1.12145
0
LINE
8
BLACK
6
CONTINUOUS
10
0.301502
20
1.12145
11
0.293326
21
1.13297
0
LINE
8
BLACK
6
CONTINUOUS
10
0.293326
20
1.13297
11
0.286492
21
1.14534
0
LINE
8
BLACK
6
CONTINUOUS
10
0.286492
20
1.14534
11
0.281086
21
1.15839
0
LINE
8
BLACK
6
CONTINUOUS
10
0.281086
20
1.15839
11
0.277174
21
1.17197
0
LINE
8
BLACK
6
CONTINUOUS
10
0.277174
20
1.17197
11
0.274808
21
1.18589
0
LINE
8
BLACK
6
CONTINUOUS
10
0.274808
20
1.18589
11
0.274016
21
1.2
0
LINE
8
BLACK
6
CONTINUOUS
10
0.274016
20
1.2
11
0.274808
21
1.21411
0
LINE
8
BLACK
6
CONTINUOUS
10
0.274808
20
1.21411
11
0.277174
21
1.22803
0
LINE
8
BLACK
6
CONTINUOUS
10
0.277174
20
1.22803
11
0.281086
21
1.24161
0
LINE
8
BLACK
6
CONTINUOUS
10
0.281086
20
1.24161
11
0.286492
21
1.25466
0
LINE
8
BLACK
6
CONTINUOUS
10
0.286492
20
1.25466
11
0.293326
21
1.26703
0
LINE
8
BLACK
6
CONTINUOUS
10
0.293326
20
1.26703
11
0.301502
21
1.27855
0
LINE
8
BLACK
6
CONTINUOUS
10
0.301502
20
1.27855
11
0.310916
21
1.28908
0
LINE
8
BLACK
6
CONTINUOUS
10
0.310916
20
1.28908
11
0.32145
21
1.2985
0
LINE
8
BLACK
6
CONTINUOUS
10
0.32145
20
1.2985
11
0.332972
21
1.30667
0
LINE
8
BLACK
6
CONTINUOUS
10
0.332972
20
1.30667
11
0.345338
21
1.31351
0
LINE
8
BLACK
6
CONTINUOUS
10
0.345338
20
1.31351
11
0.35839
21
1.31891
0
LINE
8
BLACK
6
CONTINUOUS
10
0.35839
20
1.31891
11
0.371966
21
1.32283
0
LINE
8
BLACK
6
CONTINUOUS
10
0.371966
20
1.32283
11
0.385894
21
1.32519
0
LINE
8
BLACK
6
CONTINUOUS
10
0.385894
20
1.32519
11
0.4
21
1.32598
0
LINE
8
BLACK
6
CONTINUOUS
10
0.4
20
1.32598
11
0.414106
21
1.32519
0
LINE
8
BLACK
6
CONTINUOUS
10
1.21411
20
1.32519
11
1.22803
21
1.32283
0
LINE
8
BLACK
6
CONTINUOUS
10
1.22803
20
1.32283
11
1.24161
21
1.31891
0
LINE
8
BLACK
6
CONTINUOUS
10
1.24161
20
1.31891
11
1.25466
21
1.31351
0
LINE
8
BLACK
6
CONTINUOUS
10
1.25466
20
1.31351
11
1.26703
21
1.30667
0
LINE
8
BLACK
6
CONTINUOUS
10
1.26703
20
1.30667
11
1.27855
21
1.2985
0
LINE
8
BLACK
6
CONTINUOUS
10
1.27855
20
1.2985
11
1.28908
21
1.28908
0
LINE
8
BLACK
6
CONTINUOUS
10
1.28908
20
1.28908
11
1.2985
21
1.27855
0
LINE
8
BLACK
6
CONTINUOUS
10
1.2985
20
1.27855
11
1.30667
21
1.26703
0
LINE
8
BLACK
6
CONTINUOUS
10
1.30667
20
1.26703
11
1.31351
21
1.25466
0
LINE
8
BLACK
6
CONTINUOUS
10
1.31351
20
1.25466
11
1.31891
21
1.24161
0
LINE
8
BLACK
6
CONTINUOUS
10
1.31891
20
1.24161
11
1.32283
21
1.22803
0
LINE
8
BLACK
6
CONTINUOUS
10
1.32283
20
1.22803
11
1.32519
21
1.21411
0
LINE
8
BLACK
6
CONTINUOUS
10
1.32519
20
1.21411
11
1.32598
21
1.2
0
LINE
8
BLACK
6
CONTINUOUS
10
1.32598
20
1.2
11
1.32519
21
1.18589
0
LINE
8
BLACK
6
CONTINUOUS
10
1.32519
20
1.18589
11
1.32283
21
1.17197
0
LINE
8
BLACK
6
CONTINUOUS
10
1.32283
20
1.17197
11
1.31891
21
1.15839
0
LINE
8
BLACK
6
CONTINUOUS
10
1.31891
20
1.15839
11
1.31351
21
1.14534
0
LINE
8
BLACK
6
CONTINUOUS
10
1.31351
20
1.14534
11
1.30667
21
1.13297
0
LINE
8
BLACK
6
CONTINUOUS
10
1.30667
20
1.13297
11
1.2985
21
1.12145
0
LINE
8
BLACK
6
CONTINUOUS
10
1.2985
20
1.12145
11
1.28908
21
1.11092
0
LINE
8
BLACK
6
CONTINUOUS
10
1.28908
20
1.11092
11
1.27855
21
1.1015
0
LINE
8
BLACK
6
CONTINUOUS
10
1.27855
20
1.1015
11
1.26703
21
1.09333
0
LINE
8
BLACK
6
CONTINUOUS
10
1.26703
20
1.09333
11
1.25466
21
1.08649
0
LINE
8
BLACK
6
CONTINUOUS
10
1.25466
20
1.08649
11
1.24161
21
1.08109
0
LINE
8
BLACK
6
CONTINUOUS
10
1.24161
20
1.08109
11
1.22803
21
1.07717
0
LINE
8
BLACK
6
CONTINUOUS
10
1.22803
20
1.07717
11
1.21411
21
1.07481
0
LINE
8
BLACK
6
CONTINUOUS
10
1.21411
20
1.07481
11
1.2
21
1.07402
0
LINE
8
BLACK
6
CONTINUOUS
10
1.2
20
1.07402
11
1.18589
21
1.07481
0
LINE
8
BLACK
6
CONTINUOUS
10
1.18589
20
1.07481
11
1.17197
21
1.07717
0
LINE
8
BLACK
6
CONTINUOUS
10
1.17197
20
1.07717
11
1.15839
21
1.08109
0
LINE
8
BLACK
6
CONTINUOUS
10
1.15839
20
1.08109
11
1.14534
21
1.08649
0
LINE
8
BLACK
6
CONTINUOUS
10
1.14534
20
1.08649
11
1.13297
21
1.09333
0
LINE
8
BLACK
6
CONTINUOUS
10
1.13297
20
1.09333
11
1.12145
21
1.1015
0
LINE
8
BLACK
6
CONTINUOUS
10
1.12145
20
1.1015
11
1.11092
21
1.11092
0
LINE
8
BLACK
6
CONTINUOUS
10
1.11092
20
1.11092
11
1.1015
21
1.12145
0
LINE
8
BLACK
6
CONTINUOUS
10
1.1015
20
1.12145
11
1.09333
21
1.13297
0
LINE
8
BLACK
6
CONTINUOUS
10
1.09333
20
1.13297
11
1.08649
21
1.14534
0
LINE
8
BLACK
6
CONTINUOUS
10
1.08649
20
1.14534
11
1.08109
21
1.15839
0
LINE
8
BLACK
6
CONTINUOUS
10
1.08109
20
1.15839
11
1.07717
21
1.17197
0
LINE
8
BLACK
6
CONTINUOUS
10
1.07717
20
1.17197
11
1.07481
21
1.18589
0
LINE
8
BLACK
6
CONTINUOUS
10
1.07481
20
1.18589
11
1.07402
21
1.2
0
LINE
8
BLACK
6
CONTINUOUS
10
1.07402
20
1.2
11
1.07481
21
1.21411
0
LINE
8
BLACK
6
CONTINUOUS
10
1.07481
20
1.21411
11
1.07717
21
1.22803
0
LINE
8
BLACK
6
CONTINUOUS
10
1.07717
20
1.22803
11
1.08109
21
1.24161
0
LINE
8
BLACK
6
CONTINUOUS
10
1.08109
20
1.24161
11
1.08649
21
1.25466
0
LINE
8
BLACK
6
CONTINUOUS
10
1.08649
20
1.25466
11
1.09333
21
1.26703
0
LINE
8
BLACK
6
CONTINUOUS
10
1.09333
20
1.26703
11
1.1015
21
1.27855
0
LINE
8
BLACK
6
CONTINUOUS
10
1.1015
20
1.27855
11
1.11092
21
1.28908
0
LINE
8
BLACK
6
CONTINUOUS
10
1.11092
20
1.28908
11
1.12145
21
1.2985
0
LINE
8
BLACK
6
CONTINUOUS
10
1.12145
20
1.2985
11
1.13297
21
1.30667
0
LINE
8
BLACK
6
CONTINUOUS
10
1.13297
20
1.30667
11
1.14534
21
1.31351
0
LINE
8
BLACK
6
CONTINUOUS
10
1.14534
20
1.31351
11
1.15839
21
1.31891
0
LINE
8
BLACK
6
CONTINUOUS
10
1.15839
20
1.31891
11
1.17197
21
1.32283
0
LINE
8
BLACK
6
CONTINUOUS
10
1.17197
20
1.32283
11
1.18589
21
1.32519
0
LINE
8
BLACK
6
CONTINUOUS
10
1.18589
20
1.32519
11
1.2
21
1.32598
0
LINE
8
BLACK
6
CONTINUOUS
10
1.2
20
1.32598
11
1.21411
21
1.32519
0
LINE
8
BLACK
6
CONTINUOUS
10
0.734443
20
1.19743
11
0.742198
21
1.19508
0
LINE
8
BLACK
6
CONTINUOUS
10
0.742198
20
1.19508
11
0.749344
21
1.19126
0
LINE
8
BLACK
6
CONTINUOUS
10
0.749344
20
1.19126
11
0.755609
21
1.18612
0
LINE
8
BLACK
6
CONTINUOUS
10
0.755609
20
1.18612
11
0.76075
21
1.17986
0
LINE
8
BLACK
6
CONTINUOUS
10
0.76075
20
1.17986
11
0.76457
21
1.17271
0
LINE
8
BLACK
6
CONTINUOUS
10
0.76457
20
1.17271
11
0.766922
21
1.16495
0
LINE
8
BLACK
6
CONTINUOUS
10
0.766922
20
1.16495
11
0.767717
21
1.15689
0
LINE
8
BLACK
6
CONTINUOUS
10
0.767717
20
1.15689
11
0.766922
21
1.14882
0
LINE
8
BLACK
6
CONTINUOUS
10
0.766922
20
1.14882
11
0.76457
21
1.14107
0
LINE
8
BLACK
6
CONTINUOUS
10
0.76457
20
1.14107
11
0.76075
21
1.13392
0
LINE
8
BLACK
6
CONTINUOUS
10
0.76075
20
1.13392
11
0.755609
21
1.12766
0
LINE
8
BLACK
6
CONTINUOUS
10
0.755609
20
1.12766
11
0.749344
21
1.12252
0
LINE
8
BLACK
6
CONTINUOUS
10
0.749344
20
1.12252
11
0.742198
21
1.1187
0
LINE
8
BLACK
6
CONTINUOUS
10
0.742198
20
1.1187
11
0.734443
21
1.11635
0
LINE
8
BLACK
6
CONTINUOUS
10
0.734443
20
1.11635
11
0.726378
21
1.11555
0
LINE
8
BLACK
6
CONTINUOUS
10
0.726378
20
1.11555
11
0.718313
21
1.11635
0
LINE
8
BLACK
6
CONTINUOUS
10
0.718313
20
1.11635
11
0.710558
21
1.1187
0
LINE
8
BLACK
6
CONTINUOUS
10
0.710558
20
1.1187
11
0.703411
21
1.12252
0
LINE
8
BLACK
6
CONTINUOUS
10
0.703411
20
1.12252
11
0.697147
21
1.12766
0
LINE
8
BLACK
6
CONTINUOUS
10
0.697147
20
1.12766
11
0.692006
21
1.13392
0
LINE
8
BLACK
6
CONTINUOUS
10
0.692006
20
1.13392
11
0.688186
21
1.14107
0
LINE
8
BLACK
6
CONTINUOUS
10
0.688186
20
1.14107
11
0.685834
21
1.14882
0
LINE
8
BLACK
6
CONTINUOUS
10
0.685834
20
1.14882
11
0.685039
21
1.15689
0
LINE
8
BLACK
6
CONTINUOUS
10
0.685039
20
1.15689
11
0.685834
21
1.16495
0
LINE
8
BLACK
6
CONTINUOUS
10
0.685834
20
1.16495
11
0.688186
21
1.17271
0
LINE
8
BLACK
6
CONTINUOUS
10
0.688186
20
1.17271
11
0.692006
21
1.17986
0
LINE
8
BLACK
6
CONTINUOUS
10
0.692006
20
1.17986
11
0.697147
21
1.18612
0
LINE
8
BLACK
6
CONTINUOUS
10
0.697147
20
1.18612
11
0.703411
21
1.19126
0
LINE
8
BLACK
6
CONTINUOUS
10
0.703411
20
1.19126
11
0.710558
21
1.19508
0
LINE
8
BLACK
6
CONTINUOUS
10
0.710558
20
1.19508
11
0.718313
21
1.19743
0
LINE
8
BLACK
6
CONTINUOUS
10
0.718313
20
1.19743
11
0.726378
21
1.19823
0
LINE
8
BLACK
6
CONTINUOUS
10
0.726378
20
1.19823
11
0.734443
21
1.19743
0
LINE
8
BLACK
6
CONTINUOUS
10
0.834443
20
1.19743
11
0.842198
21
1.19508
0
LINE
8
BLACK
6
CONTINUOUS
10
0.842198
20
1.19508
11
0.849344
21
1.19126
0
LINE
8
BLACK
6
CONTINUOUS
10
0.849344
20
1.19126
11
0.855609
21
1.18612
0
LINE
8
BLACK
6
CONTINUOUS
10
0.855609
20
1.18612
11
0.86075
21
1.17986
0
LINE
8
BLACK
6
CONTINUOUS
10
0.86075
20
1.17986
11
0.86457
21
1.17271
0
LINE
8
BLACK
6
CONTINUOUS
10
0.86457
20
1.17271
11
0.866922
21
1.16495
0
LINE
8
BLACK
6
CONTINUOUS
10
0.866922
20
1.16495
11
0.867717
21
1.15689
0
LINE
8
BLACK
6
CONTINUOUS
10
0.867717
20
1.15689
11
0.866922
21
1.14882
0
LINE
8
BLACK
6
CONTINUOUS
10
0.866922
20
1.14882
11
0.86457
21
1.14107
0
LINE
8
BLACK
6
CONTINUOUS
10
0.86457
20
1.14107
11
0.86075
21
1.13392
0
LINE
8
BLACK
6
CONTINUOUS
10
0.86075
20
1.13392
11
0.855609
21
1.12766
0
LINE
8
BLACK
6
CONTINUOUS
10
0.855609
20
1.12766
11
0.849344
21
1.12252
0
LINE
8
BLACK
6
CONTINUOUS
10
0.849344
20
1.12252
11
0.842198
21
1.1187
0
LINE
8
BLACK
6
CONTINUOUS
10
0.842198
20
1.1187
11
0.834443
21
1.11635
0
LINE
8
BLACK
6
CONTINUOUS
10
0.834443
20
1.11635
11
0.826378
21
1.11555
0
LINE
8
BLACK
6
CONTINUOUS
10
0.826378
20
1.11555
11
0.818313
21
1.11635
0
LINE
8
BLACK
6
CONTINUOUS
10
0.818313
20
1.11635
11
0.810558
21
1.1187
0
LINE
8
BLACK
6
CONTINUOUS
10
0.810558
20
1.1187
11
0.803411
21
1.12252
0
LINE
8
BLACK
6
CONTINUOUS
10
0.803411
20
1.12252
11
0.797147
21
1.12766
0
LINE
8
BLACK
6
CONTINUOUS
10
0.797147
20
1.12766
11
0.792006
21
1.13392
0
LINE
8
BLACK
6
CONTINUOUS
10
0.792006
20
1.13392
11
0.788186
21
1.14107
0
LINE
8
BLACK
6
CONTINUOUS
10
0.788186
20
1.14107
11
0.785834
21
1.14882
0
LINE
8
BLACK
6
CONTINUOUS
10
0.785834
20
1.14882
11
0.785039
21
1.15689
0
LINE
8
BLACK
6
CONTINUOUS
10
0.785039
20
1.15689
11
0.785834
21
1.16495
0
LINE
8
BLACK
6
CONTINUOUS
10
0.785834
20
1.16495
11
0.788186
21
1.17271
0
LINE
8
BLACK
6
CONTINUOUS
10
0.788186
20
1.17271
11
0.792006
21
1.17986
0
LINE
8
BLACK
6
CONTINUOUS
10
0.792006
20
1.17986
11
0.797147
21
1.18612
0
LINE
8
BLACK
6
CONTINUOUS
10
0.797147
20
1.18612
11
0.803411
21
1.19126
0
LINE
8
BLACK
6
CONTINUOUS
10
0.803411
20
1.19126
11
0.810558
21
1.19508
0
LINE
8
BLACK
6
CONTINUOUS
10
0.810558
20
1.19508
11
0.818313
21
1.19743
0
LINE
8
BLACK
6
CONTINUOUS
10
0.818313
20
1.19743
11
0.826378
21
1.19823
0
LINE
8
BLACK
6
CONTINUOUS
10
0.826378
20
1.19823
11
0.834443
21
1.19743
0
LINE
8
BLACK
6
CONTINUOUS
10
0.762856
20
1.29763
11
0.76541
21
1.29592
0
LINE
8
BLACK
6
CONTINUOUS
10
0.76541
20
1.29592
11
0.767117
21
1.29337
0
LINE
8
BLACK
6
CONTINUOUS
10
0.767117
20
1.29337
11
0.767717
21
1.29035
0
LINE
8
BLACK
6
CONTINUOUS
10
0.767717
20
1.29035
11
0.767717
21
1.22343
0
LINE
8
BLACK
6
CONTINUOUS
10
0.767717
20
1.22343
11
0.767117
21
1.22041
0
LINE
8
BLACK
6
CONTINUOUS
10
0.767117
20
1.22041
11
0.76541
21
1.21786
0
LINE
8
BLACK
6
CONTINUOUS
10
0.76541
20
1.21786
11
0.762856
21
1.21615
0
LINE
8
BLACK
6
CONTINUOUS
10
0.762856
20
1.21615
11
0.759843
21
1.21555
0
LINE
8
BLACK
6
CONTINUOUS
10
0.759843
20
1.21555
11
0.692913
21
1.21555
0
LINE
8
BLACK
6
CONTINUOUS
10
0.692913
20
1.21555
11
0.6899
21
1.21615
0
LINE
8
BLACK
6
CONTINUOUS
10
0.6899
20
1.21615
11
0.687346
21
1.21786
0
LINE
8
BLACK
6
CONTINUOUS
10
0.687346
20
1.21786
11
0.685639
21
1.22041
0
LINE
8
BLACK
6
CONTINUOUS
10
0.685639
20
1.22041
11
0.685039
21
1.22343
0
LINE
8
BLACK
6
CONTINUOUS
10
0.685039
20
1.22343
11
0.685039
21
1.29035
0
LINE
8
BLACK
6
CONTINUOUS
10
0.685039
20
1.29035
11
0.685639
21
1.29337
0
LINE
8
BLACK
6
CONTINUOUS
10
0.685639
20
1.29337
11
0.687346
21
1.29592
0
LINE
8
BLACK
6
CONTINUOUS
10
0.687346
20
1.29592
11
0.6899
21
1.29763
0
LINE
8
BLACK
6
CONTINUOUS
10
0.6899
20
1.29763
11
0.692913
21
1.29823
0
LINE
8
BLACK
6
CONTINUOUS
10
0.692913
20
1.29823
11
0.759843
21
1.29823
0
LINE
8
BLACK
6
CONTINUOUS
10
0.759843
20
1.29823
11
0.762856
21
1.29763
0
LINE
8
BLACK
6
CONTINUOUS
10
0.862856
20
1.29763
11
0.86541
21
1.29592
0
LINE
8
BLACK
6
CONTINUOUS
10
0.86541
20
1.29592
11
0.867117
21
1.29337
0
LINE
8
BLACK
6
CONTINUOUS
10
0.867117
20
1.29337
11
0.867717
21
1.29035
0
LINE
8
BLACK
6
CONTINUOUS
10
0.867717
20
1.29035
11
0.867717
21
1.22343
0
LINE
8
BLACK
6
CONTINUOUS
10
0.867717
20
1.22343
11
0.867117
21
1.22041
0
LINE
8
BLACK
6
CONTINUOUS
10
0.867117
20
1.22041
11
0.86541
21
1.21786
0
LINE
8
BLACK
6
CONTINUOUS
10
0.86541
20
1.21786
11
0.862856
21
1.21615
0
LINE
8
BLACK
6
CONTINUOUS
10
0.862856
20
1.21615
11
0.859843
21
1.21555
0
LINE
8
BLACK
6
CONTINUOUS
10
0.859843
20
1.21555
11
0.792913
21
1.21555
0
LINE
8
BLACK
6
CONTINUOUS
10
0.792913
20
1.21555
11
0.7899
21
1.21615
0
LINE
8
BLACK
6
CONTINUOUS
10
0.7899
20
1.21615
11
0.787346
21
1.21786
0
LINE
8
BLACK
6
CONTINUOUS
10
0.787346
20
1.21786
11
0.785639
21
1.22041
0
LINE
8
BLACK
6
CONTINUOUS
10
0.785639
20
1.22041
11
0.785039
21
1.22343
0
LINE
8
BLACK
6
CONTINUOUS
10
0.785039
20
1.22343
11
0.785039
21
1.29035
0
LINE
8
BLACK
6
CONTINUOUS
10
0.785039
20
1.29035
11
0.785639
21
1.29337
0
LINE
8
BLACK
6
CONTINUOUS
10
0.785639
20
1.29337
11
0.787346
21
1.29592
0
LINE
8
BLACK
6
CONTINUOUS
10
0.787346
20
1.29592
11
0.7899
21
1.29763
0
LINE
8
BLACK
6
CONTINUOUS
10
0.7899
20
1.29763
11
0.792913
21
1.29823
0
LINE
8
BLACK
6
CONTINUOUS
10
0.792913
20
1.29823
11
0.859843
21
1.29823
0
LINE
8
BLACK
6
CONTINUOUS
10
0.859843
20
1.29823
11
0.862856
21
1.29763
  0
ENDSEC
  0
EOF
