  0
SECTION
  2
HEADER
  9
$ANGBASE
  50
0.0
  9
$ANGDIR
  70
1
  9
$MEASUREMENT
  70
0
  0
ENDSEC
  0
SECTION
  2
TABLES
  0
TABLE
  2
LTYPE
  70
4
  0
LTYPE
  5
40F
  2
CONTINUOUS
  70
0
  3
Solid line
  72
65
  73
0
  40
0.0
  0
LTYPE
  5
410
  2
DASHDOT
 70
0
  3
Dash Dot ____ _ ____ _
 72
65
 73
4
 40
2.0
 49
1.25
 49
-0.25
 49
0.25
 49
-0.25
  0
LTYPE
  5
411
  2
DASHED
 70
0
  3
Dashed __ __ __ __ __
 72
65
 73
2
 40
0.75
 49
0.5
 49
-0.25
  0
LTYPE
  5
43B
  2
DOTTED
 70
0
  3
Dotted .  .  .  .
 72
65
 73
2
 40
0.2
 49
0.0
 49
-0.2
  0
ENDTAB
  0
TABLE
  2
STYLE
  70
4
  0
STYLE
  2
KICAD
  70
0
  40
0
  41
1
  42
1
  50
0
  71
0
  3
isocp.shx
  0
STYLE
  2
KICADB
  70
0
  40
0
  41
1
  42
1
  50
0
  71
0
  3
isocp.shx
  0
STYLE
  2
KICADI
  70
0
  40
0
  41
1
  42
1
  50
15
  71
0
  3
isocp.shx
  0
STYLE
  2
KICADBI
  70
0
  40
0
  41
1
  42
1
  50
15
  71
0
  3
isocp.shx
  0
ENDTAB
  0
TABLE
  2
LAYER
  70
1
  0
LAYER
  2
BLACK
  70
0
  62
7
  6
CONTINUOUS
  0
ENDTAB
  0
ENDSEC
  0
SECTION
  2
ENTITIES
0
LINE
8
BLACK
6
CONTINUOUS
10
5.58029
20
-3.395
11
5.58047
21
-3.39496
0
LINE
8
BLACK
6
CONTINUOUS
10
5.58047
20
-3.39496
11
5.5809
21
-3.39525
0
LINE
8
BLACK
6
CONTINUOUS
10
5.5809
20
-3.39525
11
5.58137
21
-3.39545
0
LINE
8
BLACK
6
CONTINUOUS
10
5.58137
20
-3.39545
11
5.58144
21
-3.39561
0
LINE
8
BLACK
6
CONTINUOUS
10
5.58144
20
-3.39561
11
5.58159
21
-3.39572
0
LINE
8
BLACK
6
CONTINUOUS
10
5.58159
20
-3.39572
11
5.58382
21
-3.39906
0
LINE
8
BLACK
6
CONTINUOUS
10
5.58382
20
-3.39906
11
5.58582
21
-3.40105
0
LINE
8
BLACK
6
CONTINUOUS
10
5.58582
20
-3.40105
11
5.58789
21
-3.40209
0
LINE
8
BLACK
6
CONTINUOUS
10
5.58789
20
-3.40209
11
5.58877
21
-3.40311
0
LINE
8
BLACK
6
CONTINUOUS
10
5.58877
20
-3.40311
11
5.58868
21
-3.40447
0
LINE
8
BLACK
6
CONTINUOUS
10
5.58868
20
-3.40447
11
5.58765
21
-3.40535
0
LINE
8
BLACK
6
CONTINUOUS
10
5.58765
20
-3.40535
11
5.5863
21
-3.40526
0
LINE
8
BLACK
6
CONTINUOUS
10
5.5863
20
-3.40526
11
5.58398
21
-3.40409
0
LINE
8
BLACK
6
CONTINUOUS
10
5.58398
20
-3.40409
11
5.58379
21
-3.40387
0
LINE
8
BLACK
6
CONTINUOUS
10
5.58379
20
-3.40387
11
5.58352
21
-3.40376
0
LINE
8
BLACK
6
CONTINUOUS
10
5.58352
20
-3.40376
11
5.58189
21
-3.40214
0
LINE
8
BLACK
6
CONTINUOUS
10
5.58189
20
-3.40214
11
5.58189
21
-3.41934
0
LINE
8
BLACK
6
CONTINUOUS
10
5.58189
20
-3.41934
11
5.58709
21
-3.41934
0
LINE
8
BLACK
6
CONTINUOUS
10
5.58709
20
-3.41934
11
5.58835
21
-3.41986
0
LINE
8
BLACK
6
CONTINUOUS
10
5.58835
20
-3.41986
11
5.58887
21
-3.42111
0
LINE
8
BLACK
6
CONTINUOUS
10
5.58887
20
-3.42111
11
5.58835
21
-3.42236
0
LINE
8
BLACK
6
CONTINUOUS
10
5.58835
20
-3.42236
11
5.58709
21
-3.42288
0
LINE
8
BLACK
6
CONTINUOUS
10
5.58709
20
-3.42288
11
5.58012
21
-3.42288
0
LINE
8
BLACK
6
CONTINUOUS
10
5.58012
20
-3.42288
11
5.57315
21
-3.42288
0
LINE
8
BLACK
6
CONTINUOUS
10
5.57315
20
-3.42288
11
5.57189
21
-3.42236
0
LINE
8
BLACK
6
CONTINUOUS
10
5.57189
20
-3.42236
11
5.57137
21
-3.42111
0
LINE
8
BLACK
6
CONTINUOUS
10
5.57137
20
-3.42111
11
5.57189
21
-3.41986
0
LINE
8
BLACK
6
CONTINUOUS
10
5.57189
20
-3.41986
11
5.57315
21
-3.41934
0
LINE
8
BLACK
6
CONTINUOUS
10
5.57315
20
-3.41934
11
5.57835
21
-3.41934
0
LINE
8
BLACK
6
CONTINUOUS
10
5.57835
20
-3.41934
11
5.57835
21
-3.3967
0
LINE
8
BLACK
6
CONTINUOUS
10
5.57835
20
-3.3967
11
5.57842
21
-3.39653
0
LINE
8
BLACK
6
CONTINUOUS
10
5.57842
20
-3.39653
11
5.57838
21
-3.39635
0
LINE
8
BLACK
6
CONTINUOUS
10
5.57838
20
-3.39635
11
5.57867
21
-3.39592
0
LINE
8
BLACK
6
CONTINUOUS
10
5.57867
20
-3.39592
11
5.57887
21
-3.39545
0
LINE
8
BLACK
6
CONTINUOUS
10
5.57887
20
-3.39545
11
5.57904
21
-3.39538
0
LINE
8
BLACK
6
CONTINUOUS
10
5.57904
20
-3.39538
11
5.57914
21
-3.39522
0
LINE
8
BLACK
6
CONTINUOUS
10
5.57914
20
-3.39522
11
5.57964
21
-3.39512
0
LINE
8
BLACK
6
CONTINUOUS
10
5.57964
20
-3.39512
11
5.58012
21
-3.39493
0
LINE
8
BLACK
6
CONTINUOUS
10
5.58012
20
-3.39493
11
5.58029
21
-3.395
0
LINE
8
BLACK
6
CONTINUOUS
10
5.60694
20
-3.39545
11
5.60746
21
-3.3967
0
LINE
8
BLACK
6
CONTINUOUS
10
5.60746
20
-3.3967
11
5.60746
21
-3.42111
0
LINE
8
BLACK
6
CONTINUOUS
10
5.60746
20
-3.42111
11
5.60694
21
-3.42236
0
LINE
8
BLACK
6
CONTINUOUS
10
5.60694
20
-3.42236
11
5.60569
21
-3.42288
0
LINE
8
BLACK
6
CONTINUOUS
10
5.60569
20
-3.42288
11
5.59407
21
-3.42288
0
LINE
8
BLACK
6
CONTINUOUS
10
5.59407
20
-3.42288
11
5.59282
21
-3.42236
0
LINE
8
BLACK
6
CONTINUOUS
10
5.59282
20
-3.42236
11
5.5923
21
-3.42111
0
LINE
8
BLACK
6
CONTINUOUS
10
5.5923
20
-3.42111
11
5.59282
21
-3.41986
0
LINE
8
BLACK
6
CONTINUOUS
10
5.59282
20
-3.41986
11
5.59407
21
-3.41934
0
LINE
8
BLACK
6
CONTINUOUS
10
5.59407
20
-3.41934
11
5.60392
21
-3.41934
0
LINE
8
BLACK
6
CONTINUOUS
10
5.60392
20
-3.41934
11
5.60392
21
-3.3967
0
LINE
8
BLACK
6
CONTINUOUS
10
5.60392
20
-3.3967
11
5.60444
21
-3.39545
0
LINE
8
BLACK
6
CONTINUOUS
10
5.60444
20
-3.39545
11
5.60569
21
-3.39493
0
LINE
8
BLACK
6
CONTINUOUS
10
5.60569
20
-3.39493
11
5.60694
21
-3.39545
0
LINE
8
BLACK
6
CONTINUOUS
10
5.63921
20
-3.36866
11
5.6406
21
-3.36924
0
LINE
8
BLACK
6
CONTINUOUS
10
5.6406
20
-3.36924
11
5.64118
21
-3.37063
0
LINE
8
BLACK
6
CONTINUOUS
10
5.64118
20
-3.37063
11
5.64118
21
-3.44937
0
LINE
8
BLACK
6
CONTINUOUS
10
5.64118
20
-3.44937
11
5.6406
21
-3.45076
0
LINE
8
BLACK
6
CONTINUOUS
10
5.6406
20
-3.45076
11
5.63921
21
-3.45134
0
LINE
8
BLACK
6
CONTINUOUS
10
5.63921
20
-3.45134
11
5.54079
21
-3.45134
0
LINE
8
BLACK
6
CONTINUOUS
10
5.54079
20
-3.45134
11
5.5394
21
-3.45076
0
LINE
8
BLACK
6
CONTINUOUS
10
5.5394
20
-3.45076
11
5.53882
21
-3.44937
0
LINE
8
BLACK
6
CONTINUOUS
10
5.53882
20
-3.44937
11
5.53882
21
-3.37063
0
LINE
8
BLACK
6
CONTINUOUS
10
5.53882
20
-3.37063
11
5.5394
21
-3.36924
0
LINE
8
BLACK
6
CONTINUOUS
10
5.5394
20
-3.36924
11
5.54079
21
-3.36866
0
LINE
8
BLACK
6
CONTINUOUS
10
5.54079
20
-3.36866
11
5.63921
21
-3.36866
0
LINE
8
BLACK
6
CONTINUOUS
10
5.54276
20
-3.3726
11
5.54276
21
-3.4474
0
LINE
8
BLACK
6
CONTINUOUS
10
5.54276
20
-3.4474
11
5.63724
21
-3.4474
0
LINE
8
BLACK
6
CONTINUOUS
10
5.63724
20
-3.4474
11
5.63724
21
-3.3726
0
LINE
8
BLACK
6
CONTINUOUS
10
5.63724
20
-3.3726
11
5.54276
21
-3.3726
0
LINE
8
BLACK
6
CONTINUOUS
10
5.48541
20
-3.3074
11
5.48604
21
-3.30892
0
LINE
8
BLACK
6
CONTINUOUS
10
5.48604
20
-3.30892
11
5.48541
21
-3.31044
0
LINE
8
BLACK
6
CONTINUOUS
10
5.48541
20
-3.31044
11
5.48389
21
-3.31107
0
LINE
8
BLACK
6
CONTINUOUS
10
5.48389
20
-3.31107
11
5.47572
21
-3.31107
0
LINE
8
BLACK
6
CONTINUOUS
10
5.47572
20
-3.31107
11
5.47572
21
-3.31549
0
LINE
8
BLACK
6
CONTINUOUS
10
5.47572
20
-3.31549
11
5.47509
21
-3.31701
0
LINE
8
BLACK
6
CONTINUOUS
10
5.47509
20
-3.31701
11
5.47357
21
-3.31764
0
LINE
8
BLACK
6
CONTINUOUS
10
5.47357
20
-3.31764
11
5.47205
21
-3.31701
0
LINE
8
BLACK
6
CONTINUOUS
10
5.47205
20
-3.31701
11
5.47142
21
-3.31549
0
LINE
8
BLACK
6
CONTINUOUS
10
5.47142
20
-3.31549
11
5.47142
21
-3.31107
0
LINE
8
BLACK
6
CONTINUOUS
10
5.47142
20
-3.31107
11
5.46634
21
-3.31107
0
LINE
8
BLACK
6
CONTINUOUS
10
5.46634
20
-3.31107
11
5.46634
21
-3.3183
0
LINE
8
BLACK
6
CONTINUOUS
10
5.46634
20
-3.3183
11
5.46571
21
-3.31982
0
LINE
8
BLACK
6
CONTINUOUS
10
5.46571
20
-3.31982
11
5.46419
21
-3.32045
0
LINE
8
BLACK
6
CONTINUOUS
10
5.46419
20
-3.32045
11
5.46295
21
-3.31994
0
LINE
8
BLACK
6
CONTINUOUS
10
5.46295
20
-3.31994
11
5.46295
21
-3.34705
0
LINE
8
BLACK
6
CONTINUOUS
10
5.46295
20
-3.34705
11
5.51705
21
-3.34705
0
LINE
8
BLACK
6
CONTINUOUS
10
5.51705
20
-3.34705
11
5.51705
21
-3.31
0
LINE
8
BLACK
6
CONTINUOUS
10
5.51705
20
-3.31
11
5.51723
21
-3.30899
0
LINE
8
BLACK
6
CONTINUOUS
10
5.51723
20
-3.30899
11
5.51852
21
-3.30744
0
LINE
8
BLACK
6
CONTINUOUS
10
5.51852
20
-3.30744
11
5.52051
21
-3.30709
0
LINE
8
BLACK
6
CONTINUOUS
10
5.52051
20
-3.30709
11
5.52226
21
-3.3081
0
LINE
8
BLACK
6
CONTINUOUS
10
5.52226
20
-3.3081
11
5.52295
21
-3.31
0
LINE
8
BLACK
6
CONTINUOUS
10
5.52295
20
-3.31
11
5.52295
21
-3.35
0
LINE
8
BLACK
6
CONTINUOUS
10
5.52295
20
-3.35
11
5.52289
21
-3.35038
0
LINE
8
BLACK
6
CONTINUOUS
10
5.52289
20
-3.35038
11
5.52291
21
-3.35051
0
LINE
8
BLACK
6
CONTINUOUS
10
5.52291
20
-3.35051
11
5.52284
21
-3.35063
0
LINE
8
BLACK
6
CONTINUOUS
10
5.52284
20
-3.35063
11
5.52277
21
-3.35101
0
LINE
8
BLACK
6
CONTINUOUS
10
5.52277
20
-3.35101
11
5.52228
21
-3.3516
0
LINE
8
BLACK
6
CONTINUOUS
10
5.52228
20
-3.3516
11
5.5219
21
-3.35226
0
LINE
8
BLACK
6
CONTINUOUS
10
5.5219
20
-3.35226
11
5.52165
21
-3.35235
0
LINE
8
BLACK
6
CONTINUOUS
10
5.52165
20
-3.35235
11
5.52148
21
-3.35256
0
LINE
8
BLACK
6
CONTINUOUS
10
5.52148
20
-3.35256
11
5.52072
21
-3.35269
0
LINE
8
BLACK
6
CONTINUOUS
10
5.52072
20
-3.35269
11
5.52
21
-3.35295
0
LINE
8
BLACK
6
CONTINUOUS
10
5.52
20
-3.35295
11
5.46
21
-3.35295
0
LINE
8
BLACK
6
CONTINUOUS
10
5.46
20
-3.35295
11
5.45962
21
-3.35289
0
LINE
8
BLACK
6
CONTINUOUS
10
5.45962
20
-3.35289
11
5.45949
21
-3.35291
0
LINE
8
BLACK
6
CONTINUOUS
10
5.45949
20
-3.35291
11
5.45937
21
-3.35284
0
LINE
8
BLACK
6
CONTINUOUS
10
5.45937
20
-3.35284
11
5.45899
21
-3.35277
0
LINE
8
BLACK
6
CONTINUOUS
10
5.45899
20
-3.35277
11
5.4584
21
-3.35228
0
LINE
8
BLACK
6
CONTINUOUS
10
5.4584
20
-3.35228
11
5.45774
21
-3.3519
0
LINE
8
BLACK
6
CONTINUOUS
10
5.45774
20
-3.3519
11
5.45765
21
-3.35165
0
LINE
8
BLACK
6
CONTINUOUS
10
5.45765
20
-3.35165
11
5.45744
21
-3.35148
0
LINE
8
BLACK
6
CONTINUOUS
10
5.45744
20
-3.35148
11
5.45731
21
-3.35072
0
LINE
8
BLACK
6
CONTINUOUS
10
5.45731
20
-3.35072
11
5.45705
21
-3.35
0
LINE
8
BLACK
6
CONTINUOUS
10
5.45705
20
-3.35
11
5.45705
21
-3.31
0
LINE
8
BLACK
6
CONTINUOUS
10
5.45705
20
-3.31
11
5.45723
21
-3.30899
0
LINE
8
BLACK
6
CONTINUOUS
10
5.45723
20
-3.30899
11
5.45852
21
-3.30744
0
LINE
8
BLACK
6
CONTINUOUS
10
5.45852
20
-3.30744
11
5.46051
21
-3.30709
0
LINE
8
BLACK
6
CONTINUOUS
10
5.46051
20
-3.30709
11
5.46226
21
-3.3081
0
LINE
8
BLACK
6
CONTINUOUS
10
5.46226
20
-3.3081
11
5.46232
21
-3.30825
0
LINE
8
BLACK
6
CONTINUOUS
10
5.46232
20
-3.30825
11
5.46267
21
-3.3074
0
LINE
8
BLACK
6
CONTINUOUS
10
5.46267
20
-3.3074
11
5.46419
21
-3.30677
0
LINE
8
BLACK
6
CONTINUOUS
10
5.46419
20
-3.30677
11
5.48389
21
-3.30677
0
LINE
8
BLACK
6
CONTINUOUS
10
5.48389
20
-3.30677
11
5.48541
21
-3.3074
0
LINE
8
BLACK
6
CONTINUOUS
10
5.68541
20
-3.3074
11
5.68604
21
-3.30892
0
LINE
8
BLACK
6
CONTINUOUS
10
5.68604
20
-3.30892
11
5.68541
21
-3.31044
0
LINE
8
BLACK
6
CONTINUOUS
10
5.68541
20
-3.31044
11
5.68389
21
-3.31107
0
LINE
8
BLACK
6
CONTINUOUS
10
5.68389
20
-3.31107
11
5.67572
21
-3.31107
0
LINE
8
BLACK
6
CONTINUOUS
10
5.67572
20
-3.31107
11
5.67572
21
-3.31549
0
LINE
8
BLACK
6
CONTINUOUS
10
5.67572
20
-3.31549
11
5.67509
21
-3.31701
0
LINE
8
BLACK
6
CONTINUOUS
10
5.67509
20
-3.31701
11
5.67357
21
-3.31764
0
LINE
8
BLACK
6
CONTINUOUS
10
5.67357
20
-3.31764
11
5.67205
21
-3.31701
0
LINE
8
BLACK
6
CONTINUOUS
10
5.67205
20
-3.31701
11
5.67142
21
-3.31549
0
LINE
8
BLACK
6
CONTINUOUS
10
5.67142
20
-3.31549
11
5.67142
21
-3.31107
0
LINE
8
BLACK
6
CONTINUOUS
10
5.67142
20
-3.31107
11
5.66634
21
-3.31107
0
LINE
8
BLACK
6
CONTINUOUS
10
5.66634
20
-3.31107
11
5.66634
21
-3.3183
0
LINE
8
BLACK
6
CONTINUOUS
10
5.66634
20
-3.3183
11
5.66571
21
-3.31982
0
LINE
8
BLACK
6
CONTINUOUS
10
5.66571
20
-3.31982
11
5.66419
21
-3.32045
0
LINE
8
BLACK
6
CONTINUOUS
10
5.66419
20
-3.32045
11
5.66295
21
-3.31994
0
LINE
8
BLACK
6
CONTINUOUS
10
5.66295
20
-3.31994
11
5.66295
21
-3.34705
0
LINE
8
BLACK
6
CONTINUOUS
10
5.66295
20
-3.34705
11
5.71705
21
-3.34705
0
LINE
8
BLACK
6
CONTINUOUS
10
5.71705
20
-3.34705
11
5.71705
21
-3.31
0
LINE
8
BLACK
6
CONTINUOUS
10
5.71705
20
-3.31
11
5.71723
21
-3.30899
0
LINE
8
BLACK
6
CONTINUOUS
10
5.71723
20
-3.30899
11
5.71852
21
-3.30744
0
LINE
8
BLACK
6
CONTINUOUS
10
5.71852
20
-3.30744
11
5.72051
21
-3.30709
0
LINE
8
BLACK
6
CONTINUOUS
10
5.72051
20
-3.30709
11
5.72226
21
-3.3081
0
LINE
8
BLACK
6
CONTINUOUS
10
5.72226
20
-3.3081
11
5.72295
21
-3.31
0
LINE
8
BLACK
6
CONTINUOUS
10
5.72295
20
-3.31
11
5.72295
21
-3.35
0
LINE
8
BLACK
6
CONTINUOUS
10
5.72295
20
-3.35
11
5.72289
21
-3.35038
0
LINE
8
BLACK
6
CONTINUOUS
10
5.72289
20
-3.35038
11
5.72291
21
-3.35051
0
LINE
8
BLACK
6
CONTINUOUS
10
5.72291
20
-3.35051
11
5.72284
21
-3.35063
0
LINE
8
BLACK
6
CONTINUOUS
10
5.72284
20
-3.35063
11
5.72277
21
-3.35101
0
LINE
8
BLACK
6
CONTINUOUS
10
5.72277
20
-3.35101
11
5.72228
21
-3.3516
0
LINE
8
BLACK
6
CONTINUOUS
10
5.72228
20
-3.3516
11
5.7219
21
-3.35226
0
LINE
8
BLACK
6
CONTINUOUS
10
5.7219
20
-3.35226
11
5.72165
21
-3.35235
0
LINE
8
BLACK
6
CONTINUOUS
10
5.72165
20
-3.35235
11
5.72148
21
-3.35256
0
LINE
8
BLACK
6
CONTINUOUS
10
5.72148
20
-3.35256
11
5.72072
21
-3.35269
0
LINE
8
BLACK
6
CONTINUOUS
10
5.72072
20
-3.35269
11
5.72
21
-3.35295
0
LINE
8
BLACK
6
CONTINUOUS
10
5.72
20
-3.35295
11
5.66
21
-3.35295
0
LINE
8
BLACK
6
CONTINUOUS
10
5.66
20
-3.35295
11
5.65962
21
-3.35289
0
LINE
8
BLACK
6
CONTINUOUS
10
5.65962
20
-3.35289
11
5.65949
21
-3.35291
0
LINE
8
BLACK
6
CONTINUOUS
10
5.65949
20
-3.35291
11
5.65937
21
-3.35284
0
LINE
8
BLACK
6
CONTINUOUS
10
5.65937
20
-3.35284
11
5.65899
21
-3.35277
0
LINE
8
BLACK
6
CONTINUOUS
10
5.65899
20
-3.35277
11
5.6584
21
-3.35228
0
LINE
8
BLACK
6
CONTINUOUS
10
5.6584
20
-3.35228
11
5.65774
21
-3.3519
0
LINE
8
BLACK
6
CONTINUOUS
10
5.65774
20
-3.3519
11
5.65765
21
-3.35165
0
LINE
8
BLACK
6
CONTINUOUS
10
5.65765
20
-3.35165
11
5.65744
21
-3.35148
0
LINE
8
BLACK
6
CONTINUOUS
10
5.65744
20
-3.35148
11
5.65731
21
-3.35072
0
LINE
8
BLACK
6
CONTINUOUS
10
5.65731
20
-3.35072
11
5.65705
21
-3.35
0
LINE
8
BLACK
6
CONTINUOUS
10
5.65705
20
-3.35
11
5.65705
21
-3.31
0
LINE
8
BLACK
6
CONTINUOUS
10
5.65705
20
-3.31
11
5.65723
21
-3.30899
0
LINE
8
BLACK
6
CONTINUOUS
10
5.65723
20
-3.30899
11
5.65852
21
-3.30744
0
LINE
8
BLACK
6
CONTINUOUS
10
5.65852
20
-3.30744
11
5.66051
21
-3.30709
0
LINE
8
BLACK
6
CONTINUOUS
10
5.66051
20
-3.30709
11
5.66226
21
-3.3081
0
LINE
8
BLACK
6
CONTINUOUS
10
5.66226
20
-3.3081
11
5.66232
21
-3.30825
0
LINE
8
BLACK
6
CONTINUOUS
10
5.66232
20
-3.30825
11
5.66267
21
-3.3074
0
LINE
8
BLACK
6
CONTINUOUS
10
5.66267
20
-3.3074
11
5.66419
21
-3.30677
0
LINE
8
BLACK
6
CONTINUOUS
10
5.66419
20
-3.30677
11
5.68389
21
-3.30677
0
LINE
8
BLACK
6
CONTINUOUS
10
5.68389
20
-3.30677
11
5.68541
21
-3.3074
0
LINE
8
BLACK
6
CONTINUOUS
10
5.76541
20
-3.3074
11
5.76604
21
-3.30892
0
LINE
8
BLACK
6
CONTINUOUS
10
5.76604
20
-3.30892
11
5.76541
21
-3.31044
0
LINE
8
BLACK
6
CONTINUOUS
10
5.76541
20
-3.31044
11
5.76389
21
-3.31107
0
LINE
8
BLACK
6
CONTINUOUS
10
5.76389
20
-3.31107
11
5.75572
21
-3.31107
0
LINE
8
BLACK
6
CONTINUOUS
10
5.75572
20
-3.31107
11
5.75572
21
-3.31549
0
LINE
8
BLACK
6
CONTINUOUS
10
5.75572
20
-3.31549
11
5.75509
21
-3.31701
0
LINE
8
BLACK
6
CONTINUOUS
10
5.75509
20
-3.31701
11
5.75357
21
-3.31764
0
LINE
8
BLACK
6
CONTINUOUS
10
5.75357
20
-3.31764
11
5.75205
21
-3.31701
0
LINE
8
BLACK
6
CONTINUOUS
10
5.75205
20
-3.31701
11
5.75142
21
-3.31549
0
LINE
8
BLACK
6
CONTINUOUS
10
5.75142
20
-3.31549
11
5.75142
21
-3.31107
0
LINE
8
BLACK
6
CONTINUOUS
10
5.75142
20
-3.31107
11
5.74634
21
-3.31107
0
LINE
8
BLACK
6
CONTINUOUS
10
5.74634
20
-3.31107
11
5.74634
21
-3.3183
0
LINE
8
BLACK
6
CONTINUOUS
10
5.74634
20
-3.3183
11
5.74571
21
-3.31982
0
LINE
8
BLACK
6
CONTINUOUS
10
5.74571
20
-3.31982
11
5.74419
21
-3.32045
0
LINE
8
BLACK
6
CONTINUOUS
10
5.74419
20
-3.32045
11
5.74295
21
-3.31994
0
LINE
8
BLACK
6
CONTINUOUS
10
5.74295
20
-3.31994
11
5.74295
21
-3.34705
0
LINE
8
BLACK
6
CONTINUOUS
10
5.74295
20
-3.34705
11
5.79705
21
-3.34705
0
LINE
8
BLACK
6
CONTINUOUS
10
5.79705
20
-3.34705
11
5.79705
21
-3.31
0
LINE
8
BLACK
6
CONTINUOUS
10
5.79705
20
-3.31
11
5.79723
21
-3.30899
0
LINE
8
BLACK
6
CONTINUOUS
10
5.79723
20
-3.30899
11
5.79852
21
-3.30744
0
LINE
8
BLACK
6
CONTINUOUS
10
5.79852
20
-3.30744
11
5.80051
21
-3.30709
0
LINE
8
BLACK
6
CONTINUOUS
10
5.80051
20
-3.30709
11
5.80226
21
-3.3081
0
LINE
8
BLACK
6
CONTINUOUS
10
5.80226
20
-3.3081
11
5.80295
21
-3.31
0
LINE
8
BLACK
6
CONTINUOUS
10
5.80295
20
-3.31
11
5.80295
21
-3.35
0
LINE
8
BLACK
6
CONTINUOUS
10
5.80295
20
-3.35
11
5.80289
21
-3.35038
0
LINE
8
BLACK
6
CONTINUOUS
10
5.80289
20
-3.35038
11
5.80291
21
-3.35051
0
LINE
8
BLACK
6
CONTINUOUS
10
5.80291
20
-3.35051
11
5.80284
21
-3.35063
0
LINE
8
BLACK
6
CONTINUOUS
10
5.80284
20
-3.35063
11
5.80277
21
-3.35101
0
LINE
8
BLACK
6
CONTINUOUS
10
5.80277
20
-3.35101
11
5.80228
21
-3.3516
0
LINE
8
BLACK
6
CONTINUOUS
10
5.80228
20
-3.3516
11
5.8019
21
-3.35226
0
LINE
8
BLACK
6
CONTINUOUS
10
5.8019
20
-3.35226
11
5.80165
21
-3.35235
0
LINE
8
BLACK
6
CONTINUOUS
10
5.80165
20
-3.35235
11
5.80148
21
-3.35256
0
LINE
8
BLACK
6
CONTINUOUS
10
5.80148
20
-3.35256
11
5.80072
21
-3.35269
0
LINE
8
BLACK
6
CONTINUOUS
10
5.80072
20
-3.35269
11
5.8
21
-3.35295
0
LINE
8
BLACK
6
CONTINUOUS
10
5.8
20
-3.35295
11
5.74
21
-3.35295
0
LINE
8
BLACK
6
CONTINUOUS
10
5.74
20
-3.35295
11
5.73962
21
-3.35289
0
LINE
8
BLACK
6
CONTINUOUS
10
5.73962
20
-3.35289
11
5.73949
21
-3.35291
0
LINE
8
BLACK
6
CONTINUOUS
10
5.73949
20
-3.35291
11
5.73937
21
-3.35284
0
LINE
8
BLACK
6
CONTINUOUS
10
5.73937
20
-3.35284
11
5.73899
21
-3.35277
0
LINE
8
BLACK
6
CONTINUOUS
10
5.73899
20
-3.35277
11
5.7384
21
-3.35228
0
LINE
8
BLACK
6
CONTINUOUS
10
5.7384
20
-3.35228
11
5.73774
21
-3.3519
0
LINE
8
BLACK
6
CONTINUOUS
10
5.73774
20
-3.3519
11
5.73765
21
-3.35165
0
LINE
8
BLACK
6
CONTINUOUS
10
5.73765
20
-3.35165
11
5.73744
21
-3.35148
0
LINE
8
BLACK
6
CONTINUOUS
10
5.73744
20
-3.35148
11
5.73731
21
-3.35072
0
LINE
8
BLACK
6
CONTINUOUS
10
5.73731
20
-3.35072
11
5.73705
21
-3.35
0
LINE
8
BLACK
6
CONTINUOUS
10
5.73705
20
-3.35
11
5.73705
21
-3.31
0
LINE
8
BLACK
6
CONTINUOUS
10
5.73705
20
-3.31
11
5.73723
21
-3.30899
0
LINE
8
BLACK
6
CONTINUOUS
10
5.73723
20
-3.30899
11
5.73852
21
-3.30744
0
LINE
8
BLACK
6
CONTINUOUS
10
5.73852
20
-3.30744
11
5.74051
21
-3.30709
0
LINE
8
BLACK
6
CONTINUOUS
10
5.74051
20
-3.30709
11
5.74226
21
-3.3081
0
LINE
8
BLACK
6
CONTINUOUS
10
5.74226
20
-3.3081
11
5.74232
21
-3.30825
0
LINE
8
BLACK
6
CONTINUOUS
10
5.74232
20
-3.30825
11
5.74267
21
-3.3074
0
LINE
8
BLACK
6
CONTINUOUS
10
5.74267
20
-3.3074
11
5.74419
21
-3.30677
0
LINE
8
BLACK
6
CONTINUOUS
10
5.74419
20
-3.30677
11
5.76389
21
-3.30677
0
LINE
8
BLACK
6
CONTINUOUS
10
5.76389
20
-3.30677
11
5.76541
21
-3.3074
0
LINE
8
BLACK
6
CONTINUOUS
10
5.6045
20
-3.25711
11
5.60488
21
-3.25735
0
LINE
8
BLACK
6
CONTINUOUS
10
5.60488
20
-3.25735
11
5.60532
21
-3.25743
0
LINE
8
BLACK
6
CONTINUOUS
10
5.60532
20
-3.25743
11
5.61009
21
-3.25981
0
LINE
8
BLACK
6
CONTINUOUS
10
5.61009
20
-3.25981
11
5.61125
21
-3.26062
0
LINE
8
BLACK
6
CONTINUOUS
10
5.61125
20
-3.26062
11
5.6113
21
-3.26071
0
LINE
8
BLACK
6
CONTINUOUS
10
5.6113
20
-3.26071
11
5.61138
21
-3.26075
0
LINE
8
BLACK
6
CONTINUOUS
10
5.61138
20
-3.26075
11
5.61377
21
-3.26313
0
LINE
8
BLACK
6
CONTINUOUS
10
5.61377
20
-3.26313
11
5.61462
21
-3.26427
0
LINE
8
BLACK
6
CONTINUOUS
10
5.61462
20
-3.26427
11
5.61464
21
-3.26436
0
LINE
8
BLACK
6
CONTINUOUS
10
5.61464
20
-3.26436
11
5.6147
21
-3.26443
0
LINE
8
BLACK
6
CONTINUOUS
10
5.6147
20
-3.26443
11
5.61708
21
-3.26919
0
LINE
8
BLACK
6
CONTINUOUS
10
5.61708
20
-3.26919
11
5.61753
21
-3.27054
0
LINE
8
BLACK
6
CONTINUOUS
10
5.61753
20
-3.27054
11
5.61748
21
-3.27099
0
LINE
8
BLACK
6
CONTINUOUS
10
5.61748
20
-3.27099
11
5.61761
21
-3.27143
0
LINE
8
BLACK
6
CONTINUOUS
10
5.61761
20
-3.27143
11
5.61761
21
-3.27441
0
LINE
8
BLACK
6
CONTINUOUS
10
5.61761
20
-3.27441
11
5.63134
21
-3.27441
0
LINE
8
BLACK
6
CONTINUOUS
10
5.63134
20
-3.27441
11
5.63273
21
-3.27499
0
LINE
8
BLACK
6
CONTINUOUS
10
5.63273
20
-3.27499
11
5.63331
21
-3.27638
0
LINE
8
BLACK
6
CONTINUOUS
10
5.63331
20
-3.27638
11
5.63331
21
-3.32362
0
LINE
8
BLACK
6
CONTINUOUS
10
5.63331
20
-3.32362
11
5.63273
21
-3.32501
0
LINE
8
BLACK
6
CONTINUOUS
10
5.63273
20
-3.32501
11
5.63134
21
-3.32559
0
LINE
8
BLACK
6
CONTINUOUS
10
5.63134
20
-3.32559
11
5.61761
21
-3.32559
0
LINE
8
BLACK
6
CONTINUOUS
10
5.61761
20
-3.32559
11
5.61761
21
-3.34048
0
LINE
8
BLACK
6
CONTINUOUS
10
5.61761
20
-3.34048
11
5.61741
21
-3.34188
0
LINE
8
BLACK
6
CONTINUOUS
10
5.61741
20
-3.34188
11
5.61589
21
-3.34425
0
LINE
8
BLACK
6
CONTINUOUS
10
5.61589
20
-3.34425
11
5.61332
21
-3.34543
0
LINE
8
BLACK
6
CONTINUOUS
10
5.61332
20
-3.34543
11
5.61053
21
-3.34502
0
LINE
8
BLACK
6
CONTINUOUS
10
5.61053
20
-3.34502
11
5.6084
21
-3.34318
0
LINE
8
BLACK
6
CONTINUOUS
10
5.6084
20
-3.34318
11
5.60761
21
-3.34048
0
LINE
8
BLACK
6
CONTINUOUS
10
5.60761
20
-3.34048
11
5.60761
21
-3.33119
0
LINE
8
BLACK
6
CONTINUOUS
10
5.60761
20
-3.33119
11
5.56261
21
-3.33119
0
LINE
8
BLACK
6
CONTINUOUS
10
5.56261
20
-3.33119
11
5.56135
21
-3.33101
0
LINE
8
BLACK
6
CONTINUOUS
10
5.56135
20
-3.33101
11
5.56128
21
-3.33101
0
LINE
8
BLACK
6
CONTINUOUS
10
5.56128
20
-3.33101
11
5.56126
21
-3.331
0
LINE
8
BLACK
6
CONTINUOUS
10
5.56126
20
-3.331
11
5.5612
21
-3.33099
0
LINE
8
BLACK
6
CONTINUOUS
10
5.5612
20
-3.33099
11
5.56005
21
-3.33025
0
LINE
8
BLACK
6
CONTINUOUS
10
5.56005
20
-3.33025
11
5.55889
21
-3.32953
0
LINE
8
BLACK
6
CONTINUOUS
10
5.55889
20
-3.32953
11
5.55887
21
-3.32949
0
LINE
8
BLACK
6
CONTINUOUS
10
5.55887
20
-3.32949
11
5.55883
21
-3.32946
0
LINE
8
BLACK
6
CONTINUOUS
10
5.55883
20
-3.32946
11
5.55826
21
-3.32822
0
LINE
8
BLACK
6
CONTINUOUS
10
5.55826
20
-3.32822
11
5.55767
21
-3.32699
0
LINE
8
BLACK
6
CONTINUOUS
10
5.55767
20
-3.32699
11
5.55768
21
-3.32694
0
LINE
8
BLACK
6
CONTINUOUS
10
5.55768
20
-3.32694
11
5.55766
21
-3.3269
0
LINE
8
BLACK
6
CONTINUOUS
10
5.55766
20
-3.3269
11
5.55785
21
-3.32559
0
LINE
8
BLACK
6
CONTINUOUS
10
5.55785
20
-3.32559
11
5.54866
21
-3.32559
0
LINE
8
BLACK
6
CONTINUOUS
10
5.54866
20
-3.32559
11
5.54727
21
-3.32501
0
LINE
8
BLACK
6
CONTINUOUS
10
5.54727
20
-3.32501
11
5.54669
21
-3.32362
0
LINE
8
BLACK
6
CONTINUOUS
10
5.54669
20
-3.32362
11
5.54669
21
-3.27638
0
LINE
8
BLACK
6
CONTINUOUS
10
5.54669
20
-3.27638
11
5.54727
21
-3.27499
0
LINE
8
BLACK
6
CONTINUOUS
10
5.54727
20
-3.27499
11
5.54866
21
-3.27441
0
LINE
8
BLACK
6
CONTINUOUS
10
5.54866
20
-3.27441
11
5.60761
21
-3.27441
0
LINE
8
BLACK
6
CONTINUOUS
10
5.60761
20
-3.27441
11
5.60761
21
-3.27261
0
LINE
8
BLACK
6
CONTINUOUS
10
5.60761
20
-3.27261
11
5.60612
21
-3.26963
0
LINE
8
BLACK
6
CONTINUOUS
10
5.60612
20
-3.26963
11
5.60489
21
-3.26839
0
LINE
8
BLACK
6
CONTINUOUS
10
5.60489
20
-3.26839
11
5.60191
21
-3.2669
0
LINE
8
BLACK
6
CONTINUOUS
10
5.60191
20
-3.2669
11
5.56261
21
-3.2669
0
LINE
8
BLACK
6
CONTINUOUS
10
5.56261
20
-3.2669
11
5.5612
21
-3.2667
0
LINE
8
BLACK
6
CONTINUOUS
10
5.5612
20
-3.2667
11
5.55883
21
-3.26518
0
LINE
8
BLACK
6
CONTINUOUS
10
5.55883
20
-3.26518
11
5.55766
21
-3.26262
0
LINE
8
BLACK
6
CONTINUOUS
10
5.55766
20
-3.26262
11
5.55806
21
-3.25983
0
LINE
8
BLACK
6
CONTINUOUS
10
5.55806
20
-3.25983
11
5.55991
21
-3.2577
0
LINE
8
BLACK
6
CONTINUOUS
10
5.55991
20
-3.2577
11
5.56261
21
-3.2569
0
LINE
8
BLACK
6
CONTINUOUS
10
5.56261
20
-3.2569
11
5.60309
21
-3.2569
0
LINE
8
BLACK
6
CONTINUOUS
10
5.60309
20
-3.2569
11
5.6045
21
-3.25711
0
LINE
8
BLACK
6
CONTINUOUS
10
5.61761
20
-3.27835
11
5.61761
21
-3.28095
0
LINE
8
BLACK
6
CONTINUOUS
10
5.61761
20
-3.28095
11
5.61741
21
-3.28236
0
LINE
8
BLACK
6
CONTINUOUS
10
5.61741
20
-3.28236
11
5.61716
21
-3.28274
0
LINE
8
BLACK
6
CONTINUOUS
10
5.61716
20
-3.28274
11
5.61708
21
-3.28319
0
LINE
8
BLACK
6
CONTINUOUS
10
5.61708
20
-3.28319
11
5.6147
21
-3.28795
0
LINE
8
BLACK
6
CONTINUOUS
10
5.6147
20
-3.28795
11
5.61389
21
-3.28912
0
LINE
8
BLACK
6
CONTINUOUS
10
5.61389
20
-3.28912
11
5.61381
21
-3.28917
0
LINE
8
BLACK
6
CONTINUOUS
10
5.61381
20
-3.28917
11
5.61377
21
-3.28925
0
LINE
8
BLACK
6
CONTINUOUS
10
5.61377
20
-3.28925
11
5.61138
21
-3.29163
0
LINE
8
BLACK
6
CONTINUOUS
10
5.61138
20
-3.29163
11
5.61025
21
-3.29248
0
LINE
8
BLACK
6
CONTINUOUS
10
5.61025
20
-3.29248
11
5.61015
21
-3.2925
0
LINE
8
BLACK
6
CONTINUOUS
10
5.61015
20
-3.2925
11
5.61009
21
-3.29257
0
LINE
8
BLACK
6
CONTINUOUS
10
5.61009
20
-3.29257
11
5.60532
21
-3.29495
0
LINE
8
BLACK
6
CONTINUOUS
10
5.60532
20
-3.29495
11
5.60397
21
-3.2954
0
LINE
8
BLACK
6
CONTINUOUS
10
5.60397
20
-3.2954
11
5.60352
21
-3.29535
0
LINE
8
BLACK
6
CONTINUOUS
10
5.60352
20
-3.29535
11
5.60309
21
-3.29548
0
LINE
8
BLACK
6
CONTINUOUS
10
5.60309
20
-3.29548
11
5.56261
21
-3.29548
0
LINE
8
BLACK
6
CONTINUOUS
10
5.56261
20
-3.29548
11
5.5612
21
-3.29527
0
LINE
8
BLACK
6
CONTINUOUS
10
5.5612
20
-3.29527
11
5.55883
21
-3.29375
0
LINE
8
BLACK
6
CONTINUOUS
10
5.55883
20
-3.29375
11
5.55766
21
-3.29119
0
LINE
8
BLACK
6
CONTINUOUS
10
5.55766
20
-3.29119
11
5.55806
21
-3.2884
0
LINE
8
BLACK
6
CONTINUOUS
10
5.55806
20
-3.2884
11
5.55991
21
-3.28627
0
LINE
8
BLACK
6
CONTINUOUS
10
5.55991
20
-3.28627
11
5.56261
21
-3.28548
0
LINE
8
BLACK
6
CONTINUOUS
10
5.56261
20
-3.28548
11
5.60191
21
-3.28548
0
LINE
8
BLACK
6
CONTINUOUS
10
5.60191
20
-3.28548
11
5.60489
21
-3.28399
0
LINE
8
BLACK
6
CONTINUOUS
10
5.60489
20
-3.28399
11
5.60612
21
-3.28275
0
LINE
8
BLACK
6
CONTINUOUS
10
5.60612
20
-3.28275
11
5.60761
21
-3.27977
0
LINE
8
BLACK
6
CONTINUOUS
10
5.60761
20
-3.27977
11
5.60761
21
-3.27835
0
LINE
8
BLACK
6
CONTINUOUS
10
5.60761
20
-3.27835
11
5.55063
21
-3.27835
0
LINE
8
BLACK
6
CONTINUOUS
10
5.55063
20
-3.27835
11
5.55063
21
-3.32165
0
LINE
8
BLACK
6
CONTINUOUS
10
5.55063
20
-3.32165
11
5.5604
21
-3.32165
0
LINE
8
BLACK
6
CONTINUOUS
10
5.5604
20
-3.32165
11
5.56657
21
-3.31754
0
LINE
8
BLACK
6
CONTINUOUS
10
5.56657
20
-3.31754
11
5.57041
21
-3.3137
0
LINE
8
BLACK
6
CONTINUOUS
10
5.57041
20
-3.3137
11
5.57242
21
-3.30967
0
LINE
8
BLACK
6
CONTINUOUS
10
5.57242
20
-3.30967
11
5.57324
21
-3.3085
0
LINE
8
BLACK
6
CONTINUOUS
10
5.57324
20
-3.3085
11
5.57566
21
-3.30706
0
LINE
8
BLACK
6
CONTINUOUS
10
5.57566
20
-3.30706
11
5.57847
21
-3.30716
0
LINE
8
BLACK
6
CONTINUOUS
10
5.57847
20
-3.30716
11
5.58079
21
-3.30877
0
LINE
8
BLACK
6
CONTINUOUS
10
5.58079
20
-3.30877
11
5.58187
21
-3.31137
0
LINE
8
BLACK
6
CONTINUOUS
10
5.58187
20
-3.31137
11
5.58137
21
-3.31414
0
LINE
8
BLACK
6
CONTINUOUS
10
5.58137
20
-3.31414
11
5.57899
21
-3.3189
0
LINE
8
BLACK
6
CONTINUOUS
10
5.57899
20
-3.3189
11
5.57818
21
-3.32007
0
LINE
8
BLACK
6
CONTINUOUS
10
5.57818
20
-3.32007
11
5.5781
21
-3.32012
0
LINE
8
BLACK
6
CONTINUOUS
10
5.5781
20
-3.32012
11
5.57805
21
-3.3202
0
LINE
8
BLACK
6
CONTINUOUS
10
5.57805
20
-3.3202
11
5.57706
21
-3.32119
0
LINE
8
BLACK
6
CONTINUOUS
10
5.57706
20
-3.32119
11
5.60761
21
-3.32119
0
LINE
8
BLACK
6
CONTINUOUS
10
5.60761
20
-3.32119
11
5.60761
21
-3.3119
0
LINE
8
BLACK
6
CONTINUOUS
10
5.60761
20
-3.3119
11
5.60781
21
-3.3105
0
LINE
8
BLACK
6
CONTINUOUS
10
5.60781
20
-3.3105
11
5.60934
21
-3.30813
0
LINE
8
BLACK
6
CONTINUOUS
10
5.60934
20
-3.30813
11
5.6119
21
-3.30696
0
LINE
8
BLACK
6
CONTINUOUS
10
5.6119
20
-3.30696
11
5.61469
21
-3.30736
0
LINE
8
BLACK
6
CONTINUOUS
10
5.61469
20
-3.30736
11
5.61682
21
-3.3092
0
LINE
8
BLACK
6
CONTINUOUS
10
5.61682
20
-3.3092
11
5.61761
21
-3.3119
0
LINE
8
BLACK
6
CONTINUOUS
10
5.61761
20
-3.3119
11
5.61761
21
-3.31488
0
LINE
8
BLACK
6
CONTINUOUS
10
5.61761
20
-3.31488
11
5.62937
21
-3.30312
0
LINE
8
BLACK
6
CONTINUOUS
10
5.62937
20
-3.30312
11
5.62937
21
-3.27835
0
LINE
8
BLACK
6
CONTINUOUS
10
5.62937
20
-3.27835
11
5.61761
21
-3.27835
0
LINE
8
BLACK
6
CONTINUOUS
10
5.61761
20
-3.32045
11
5.61761
21
-3.32165
0
LINE
8
BLACK
6
CONTINUOUS
10
5.61761
20
-3.32165
11
5.62937
21
-3.32165
0
LINE
8
BLACK
6
CONTINUOUS
10
5.62937
20
-3.32165
11
5.62937
21
-3.30869
0
LINE
8
BLACK
6
CONTINUOUS
10
5.62937
20
-3.30869
11
5.61761
21
-3.32045
0
LINE
8
BLACK
6
CONTINUOUS
10
5.51291
20
-3.2927
11
5.51354
21
-3.29422
0
LINE
8
BLACK
6
CONTINUOUS
10
5.51354
20
-3.29422
11
5.51354
21
-3.30548
0
LINE
8
BLACK
6
CONTINUOUS
10
5.51354
20
-3.30548
11
5.51291
21
-3.307
0
LINE
8
BLACK
6
CONTINUOUS
10
5.51291
20
-3.307
11
5.51139
21
-3.30763
0
LINE
8
BLACK
6
CONTINUOUS
10
5.51139
20
-3.30763
11
5.50987
21
-3.307
0
LINE
8
BLACK
6
CONTINUOUS
10
5.50987
20
-3.307
11
5.50924
21
-3.30548
0
LINE
8
BLACK
6
CONTINUOUS
10
5.50924
20
-3.30548
11
5.50924
21
-3.302
0
LINE
8
BLACK
6
CONTINUOUS
10
5.50924
20
-3.302
11
5.49169
21
-3.302
0
LINE
8
BLACK
6
CONTINUOUS
10
5.49169
20
-3.302
11
5.49149
21
-3.30192
0
LINE
8
BLACK
6
CONTINUOUS
10
5.49149
20
-3.30192
11
5.49127
21
-3.30196
0
LINE
8
BLACK
6
CONTINUOUS
10
5.49127
20
-3.30196
11
5.49075
21
-3.30161
0
LINE
8
BLACK
6
CONTINUOUS
10
5.49075
20
-3.30161
11
5.49017
21
-3.30137
0
LINE
8
BLACK
6
CONTINUOUS
10
5.49017
20
-3.30137
11
5.49008
21
-3.30117
0
LINE
8
BLACK
6
CONTINUOUS
10
5.49008
20
-3.30117
11
5.4899
21
-3.30104
0
LINE
8
BLACK
6
CONTINUOUS
10
5.4899
20
-3.30104
11
5.48978
21
-3.30043
0
LINE
8
BLACK
6
CONTINUOUS
10
5.48978
20
-3.30043
11
5.48954
21
-3.29985
0
LINE
8
BLACK
6
CONTINUOUS
10
5.48954
20
-3.29985
11
5.48962
21
-3.29965
0
LINE
8
BLACK
6
CONTINUOUS
10
5.48962
20
-3.29965
11
5.48958
21
-3.29943
0
LINE
8
BLACK
6
CONTINUOUS
10
5.48958
20
-3.29943
11
5.48993
21
-3.29891
0
LINE
8
BLACK
6
CONTINUOUS
10
5.48993
20
-3.29891
11
5.49017
21
-3.29833
0
LINE
8
BLACK
6
CONTINUOUS
10
5.49017
20
-3.29833
11
5.49037
21
-3.29825
0
LINE
8
BLACK
6
CONTINUOUS
10
5.49037
20
-3.29825
11
5.4905
21
-3.29806
0
LINE
8
BLACK
6
CONTINUOUS
10
5.4905
20
-3.29806
11
5.49313
21
-3.2963
0
LINE
8
BLACK
6
CONTINUOUS
10
5.49313
20
-3.2963
11
5.49461
21
-3.29482
0
LINE
8
BLACK
6
CONTINUOUS
10
5.49461
20
-3.29482
11
5.4954
21
-3.29326
0
LINE
8
BLACK
6
CONTINUOUS
10
5.4954
20
-3.29326
11
5.49664
21
-3.29218
0
LINE
8
BLACK
6
CONTINUOUS
10
5.49664
20
-3.29218
11
5.49828
21
-3.2923
0
LINE
8
BLACK
6
CONTINUOUS
10
5.49828
20
-3.2923
11
5.49936
21
-3.29354
0
LINE
8
BLACK
6
CONTINUOUS
10
5.49936
20
-3.29354
11
5.49924
21
-3.29518
0
LINE
8
BLACK
6
CONTINUOUS
10
5.49924
20
-3.29518
11
5.4983
21
-3.29706
0
LINE
8
BLACK
6
CONTINUOUS
10
5.4983
20
-3.29706
11
5.49804
21
-3.29729
0
LINE
8
BLACK
6
CONTINUOUS
10
5.49804
20
-3.29729
11
5.4979
21
-3.29762
0
LINE
8
BLACK
6
CONTINUOUS
10
5.4979
20
-3.29762
11
5.49782
21
-3.2977
0
LINE
8
BLACK
6
CONTINUOUS
10
5.49782
20
-3.2977
11
5.50924
21
-3.2977
0
LINE
8
BLACK
6
CONTINUOUS
10
5.50924
20
-3.2977
11
5.50924
21
-3.29422
0
LINE
8
BLACK
6
CONTINUOUS
10
5.50924
20
-3.29422
11
5.50987
21
-3.2927
0
LINE
8
BLACK
6
CONTINUOUS
10
5.50987
20
-3.2927
11
5.51139
21
-3.29207
0
LINE
8
BLACK
6
CONTINUOUS
10
5.51139
20
-3.29207
11
5.51291
21
-3.2927
0
LINE
8
BLACK
6
CONTINUOUS
10
5.71291
20
-3.29176
11
5.71354
21
-3.29328
0
LINE
8
BLACK
6
CONTINUOUS
10
5.71354
20
-3.29328
11
5.71354
21
-3.30548
0
LINE
8
BLACK
6
CONTINUOUS
10
5.71354
20
-3.30548
11
5.71291
21
-3.307
0
LINE
8
BLACK
6
CONTINUOUS
10
5.71291
20
-3.307
11
5.71139
21
-3.30763
0
LINE
8
BLACK
6
CONTINUOUS
10
5.71139
20
-3.30763
11
5.70987
21
-3.307
0
LINE
8
BLACK
6
CONTINUOUS
10
5.70987
20
-3.307
11
5.70924
21
-3.30548
0
LINE
8
BLACK
6
CONTINUOUS
10
5.70924
20
-3.30548
11
5.70924
21
-3.29847
0
LINE
8
BLACK
6
CONTINUOUS
10
5.70924
20
-3.29847
11
5.70165
21
-3.30606
0
LINE
8
BLACK
6
CONTINUOUS
10
5.70165
20
-3.30606
11
5.70119
21
-3.30625
0
LINE
8
BLACK
6
CONTINUOUS
10
5.70119
20
-3.30625
11
5.70081
21
-3.30658
0
LINE
8
BLACK
6
CONTINUOUS
10
5.70081
20
-3.30658
11
5.698
21
-3.30752
0
LINE
8
BLACK
6
CONTINUOUS
10
5.698
20
-3.30752
11
5.69765
21
-3.30749
0
LINE
8
BLACK
6
CONTINUOUS
10
5.69765
20
-3.30749
11
5.69732
21
-3.30763
0
LINE
8
BLACK
6
CONTINUOUS
10
5.69732
20
-3.30763
11
5.69544
21
-3.30763
0
LINE
8
BLACK
6
CONTINUOUS
10
5.69544
20
-3.30763
11
5.69498
21
-3.30744
0
LINE
8
BLACK
6
CONTINUOUS
10
5.69498
20
-3.30744
11
5.69448
21
-3.3074
0
LINE
8
BLACK
6
CONTINUOUS
10
5.69448
20
-3.3074
11
5.6926
21
-3.30646
0
LINE
8
BLACK
6
CONTINUOUS
10
5.6926
20
-3.30646
11
5.69237
21
-3.3062
0
LINE
8
BLACK
6
CONTINUOUS
10
5.69237
20
-3.3062
11
5.69205
21
-3.30606
0
LINE
8
BLACK
6
CONTINUOUS
10
5.69205
20
-3.30606
11
5.69111
21
-3.30512
0
LINE
8
BLACK
6
CONTINUOUS
10
5.69111
20
-3.30512
11
5.69097
21
-3.3048
0
LINE
8
BLACK
6
CONTINUOUS
10
5.69097
20
-3.3048
11
5.69071
21
-3.30456
0
LINE
8
BLACK
6
CONTINUOUS
10
5.69071
20
-3.30456
11
5.68977
21
-3.30269
0
LINE
8
BLACK
6
CONTINUOUS
10
5.68977
20
-3.30269
11
5.68973
21
-3.30219
0
LINE
8
BLACK
6
CONTINUOUS
10
5.68973
20
-3.30219
11
5.68954
21
-3.30173
0
LINE
8
BLACK
6
CONTINUOUS
10
5.68954
20
-3.30173
11
5.68954
21
-3.29704
0
LINE
8
BLACK
6
CONTINUOUS
10
5.68954
20
-3.29704
11
5.68973
21
-3.29657
0
LINE
8
BLACK
6
CONTINUOUS
10
5.68973
20
-3.29657
11
5.68977
21
-3.29607
0
LINE
8
BLACK
6
CONTINUOUS
10
5.68977
20
-3.29607
11
5.69071
21
-3.2942
0
LINE
8
BLACK
6
CONTINUOUS
10
5.69071
20
-3.2942
11
5.69097
21
-3.29397
0
LINE
8
BLACK
6
CONTINUOUS
10
5.69097
20
-3.29397
11
5.69111
21
-3.29364
0
LINE
8
BLACK
6
CONTINUOUS
10
5.69111
20
-3.29364
11
5.69205
21
-3.2927
0
LINE
8
BLACK
6
CONTINUOUS
10
5.69205
20
-3.2927
11
5.69357
21
-3.29207
0
LINE
8
BLACK
6
CONTINUOUS
10
5.69357
20
-3.29207
11
5.69509
21
-3.2927
0
LINE
8
BLACK
6
CONTINUOUS
10
5.69509
20
-3.2927
11
5.69572
21
-3.29422
0
LINE
8
BLACK
6
CONTINUOUS
10
5.69572
20
-3.29422
11
5.69509
21
-3.29574
0
LINE
8
BLACK
6
CONTINUOUS
10
5.69509
20
-3.29574
11
5.6944
21
-3.29643
0
LINE
8
BLACK
6
CONTINUOUS
10
5.6944
20
-3.29643
11
5.69384
21
-3.29754
0
LINE
8
BLACK
6
CONTINUOUS
10
5.69384
20
-3.29754
11
5.69384
21
-3.30122
0
LINE
8
BLACK
6
CONTINUOUS
10
5.69384
20
-3.30122
11
5.6944
21
-3.30233
0
LINE
8
BLACK
6
CONTINUOUS
10
5.6944
20
-3.30233
11
5.69484
21
-3.30277
0
LINE
8
BLACK
6
CONTINUOUS
10
5.69484
20
-3.30277
11
5.69595
21
-3.30333
0
LINE
8
BLACK
6
CONTINUOUS
10
5.69595
20
-3.30333
11
5.69697
21
-3.30333
0
LINE
8
BLACK
6
CONTINUOUS
10
5.69697
20
-3.30333
11
5.69897
21
-3.30266
0
LINE
8
BLACK
6
CONTINUOUS
10
5.69897
20
-3.30266
11
5.70987
21
-3.29176
0
LINE
8
BLACK
6
CONTINUOUS
10
5.70987
20
-3.29176
11
5.71139
21
-3.29113
0
LINE
8
BLACK
6
CONTINUOUS
10
5.71139
20
-3.29113
11
5.71291
21
-3.29176
0
LINE
8
BLACK
6
CONTINUOUS
10
5.79103
20
-3.29176
11
5.79197
21
-3.2927
0
LINE
8
BLACK
6
CONTINUOUS
10
5.79197
20
-3.2927
11
5.79211
21
-3.29303
0
LINE
8
BLACK
6
CONTINUOUS
10
5.79211
20
-3.29303
11
5.79237
21
-3.29326
0
LINE
8
BLACK
6
CONTINUOUS
10
5.79237
20
-3.29326
11
5.79331
21
-3.29514
0
LINE
8
BLACK
6
CONTINUOUS
10
5.79331
20
-3.29514
11
5.79335
21
-3.29564
0
LINE
8
BLACK
6
CONTINUOUS
10
5.79335
20
-3.29564
11
5.79354
21
-3.2961
0
LINE
8
BLACK
6
CONTINUOUS
10
5.79354
20
-3.2961
11
5.79354
21
-3.30173
0
LINE
8
BLACK
6
CONTINUOUS
10
5.79354
20
-3.30173
11
5.79335
21
-3.30219
0
LINE
8
BLACK
6
CONTINUOUS
10
5.79335
20
-3.30219
11
5.79331
21
-3.30269
0
LINE
8
BLACK
6
CONTINUOUS
10
5.79331
20
-3.30269
11
5.79237
21
-3.30456
0
LINE
8
BLACK
6
CONTINUOUS
10
5.79237
20
-3.30456
11
5.79211
21
-3.3048
0
LINE
8
BLACK
6
CONTINUOUS
10
5.79211
20
-3.3048
11
5.79197
21
-3.30512
0
LINE
8
BLACK
6
CONTINUOUS
10
5.79197
20
-3.30512
11
5.79103
21
-3.30606
0
LINE
8
BLACK
6
CONTINUOUS
10
5.79103
20
-3.30606
11
5.79071
21
-3.3062
0
LINE
8
BLACK
6
CONTINUOUS
10
5.79071
20
-3.3062
11
5.79048
21
-3.30646
0
LINE
8
BLACK
6
CONTINUOUS
10
5.79048
20
-3.30646
11
5.7886
21
-3.3074
0
LINE
8
BLACK
6
CONTINUOUS
10
5.7886
20
-3.3074
11
5.7881
21
-3.30744
0
LINE
8
BLACK
6
CONTINUOUS
10
5.7881
20
-3.30744
11
5.78764
21
-3.30763
0
LINE
8
BLACK
6
CONTINUOUS
10
5.78764
20
-3.30763
11
5.78295
21
-3.30763
0
LINE
8
BLACK
6
CONTINUOUS
10
5.78295
20
-3.30763
11
5.78248
21
-3.30744
0
LINE
8
BLACK
6
CONTINUOUS
10
5.78248
20
-3.30744
11
5.78199
21
-3.3074
0
LINE
8
BLACK
6
CONTINUOUS
10
5.78199
20
-3.3074
11
5.78011
21
-3.30646
0
LINE
8
BLACK
6
CONTINUOUS
10
5.78011
20
-3.30646
11
5.77988
21
-3.3062
0
LINE
8
BLACK
6
CONTINUOUS
10
5.77988
20
-3.3062
11
5.77955
21
-3.30606
0
LINE
8
BLACK
6
CONTINUOUS
10
5.77955
20
-3.30606
11
5.77861
21
-3.30512
0
LINE
8
BLACK
6
CONTINUOUS
10
5.77861
20
-3.30512
11
5.77848
21
-3.3048
0
LINE
8
BLACK
6
CONTINUOUS
10
5.77848
20
-3.3048
11
5.77821
21
-3.30456
0
LINE
8
BLACK
6
CONTINUOUS
10
5.77821
20
-3.30456
11
5.77754
21
-3.30322
0
LINE
8
BLACK
6
CONTINUOUS
10
5.77754
20
-3.30322
11
5.77311
21
-3.3071
0
LINE
8
BLACK
6
CONTINUOUS
10
5.77311
20
-3.3071
11
5.77239
21
-3.30734
0
LINE
8
BLACK
6
CONTINUOUS
10
5.77239
20
-3.30734
11
5.77169
21
-3.30763
0
LINE
8
BLACK
6
CONTINUOUS
10
5.77169
20
-3.30763
11
5.77162
21
-3.3076
0
LINE
8
BLACK
6
CONTINUOUS
10
5.77162
20
-3.3076
11
5.77155
21
-3.30762
0
LINE
8
BLACK
6
CONTINUOUS
10
5.77155
20
-3.30762
11
5.77087
21
-3.30729
0
LINE
8
BLACK
6
CONTINUOUS
10
5.77087
20
-3.30729
11
5.77017
21
-3.307
0
LINE
8
BLACK
6
CONTINUOUS
10
5.77017
20
-3.307
11
5.77014
21
-3.30693
0
LINE
8
BLACK
6
CONTINUOUS
10
5.77014
20
-3.30693
11
5.77007
21
-3.30689
0
LINE
8
BLACK
6
CONTINUOUS
10
5.77007
20
-3.30689
11
5.76983
21
-3.30618
0
LINE
8
BLACK
6
CONTINUOUS
10
5.76983
20
-3.30618
11
5.76954
21
-3.30548
0
LINE
8
BLACK
6
CONTINUOUS
10
5.76954
20
-3.30548
11
5.76954
21
-3.29328
0
LINE
8
BLACK
6
CONTINUOUS
10
5.76954
20
-3.29328
11
5.77017
21
-3.29176
0
LINE
8
BLACK
6
CONTINUOUS
10
5.77017
20
-3.29176
11
5.77169
21
-3.29113
0
LINE
8
BLACK
6
CONTINUOUS
10
5.77169
20
-3.29113
11
5.77321
21
-3.29176
0
LINE
8
BLACK
6
CONTINUOUS
10
5.77321
20
-3.29176
11
5.77384
21
-3.29328
0
LINE
8
BLACK
6
CONTINUOUS
10
5.77384
20
-3.29328
11
5.77384
21
-3.30074
0
LINE
8
BLACK
6
CONTINUOUS
10
5.77384
20
-3.30074
11
5.77778
21
-3.29729
0
LINE
8
BLACK
6
CONTINUOUS
10
5.77778
20
-3.29729
11
5.7785
21
-3.29705
0
LINE
8
BLACK
6
CONTINUOUS
10
5.7785
20
-3.29705
11
5.77919
21
-3.29676
0
LINE
8
BLACK
6
CONTINUOUS
10
5.77919
20
-3.29676
11
5.77927
21
-3.29679
0
LINE
8
BLACK
6
CONTINUOUS
10
5.77927
20
-3.29679
11
5.77934
21
-3.29677
0
LINE
8
BLACK
6
CONTINUOUS
10
5.77934
20
-3.29677
11
5.78002
21
-3.2971
0
LINE
8
BLACK
6
CONTINUOUS
10
5.78002
20
-3.2971
11
5.78071
21
-3.29739
0
LINE
8
BLACK
6
CONTINUOUS
10
5.78071
20
-3.29739
11
5.78074
21
-3.29746
0
LINE
8
BLACK
6
CONTINUOUS
10
5.78074
20
-3.29746
11
5.78081
21
-3.2975
0
LINE
8
BLACK
6
CONTINUOUS
10
5.78081
20
-3.2975
11
5.78106
21
-3.29821
0
LINE
8
BLACK
6
CONTINUOUS
10
5.78106
20
-3.29821
11
5.78134
21
-3.29891
0
LINE
8
BLACK
6
CONTINUOUS
10
5.78134
20
-3.29891
11
5.78134
21
-3.30122
0
LINE
8
BLACK
6
CONTINUOUS
10
5.78134
20
-3.30122
11
5.7819
21
-3.30233
0
LINE
8
BLACK
6
CONTINUOUS
10
5.7819
20
-3.30233
11
5.78234
21
-3.30277
0
LINE
8
BLACK
6
CONTINUOUS
10
5.78234
20
-3.30277
11
5.78345
21
-3.30333
0
LINE
8
BLACK
6
CONTINUOUS
10
5.78345
20
-3.30333
11
5.78713
21
-3.30333
0
LINE
8
BLACK
6
CONTINUOUS
10
5.78713
20
-3.30333
11
5.78824
21
-3.30277
0
LINE
8
BLACK
6
CONTINUOUS
10
5.78824
20
-3.30277
11
5.78868
21
-3.30233
0
LINE
8
BLACK
6
CONTINUOUS
10
5.78868
20
-3.30233
11
5.78924
21
-3.30122
0
LINE
8
BLACK
6
CONTINUOUS
10
5.78924
20
-3.30122
11
5.78924
21
-3.29661
0
LINE
8
BLACK
6
CONTINUOUS
10
5.78924
20
-3.29661
11
5.78868
21
-3.29549
0
LINE
8
BLACK
6
CONTINUOUS
10
5.78868
20
-3.29549
11
5.78799
21
-3.2948
0
LINE
8
BLACK
6
CONTINUOUS
10
5.78799
20
-3.2948
11
5.78736
21
-3.29328
0
LINE
8
BLACK
6
CONTINUOUS
10
5.78736
20
-3.29328
11
5.78799
21
-3.29176
0
LINE
8
BLACK
6
CONTINUOUS
10
5.78799
20
-3.29176
11
5.78951
21
-3.29113
0
LINE
8
BLACK
6
CONTINUOUS
10
5.78951
20
-3.29113
11
5.79103
21
-3.29176
0
LINE
8
BLACK
6
CONTINUOUS
10
5.48154
20
-3.28914
11
5.48204
21
-3.28917
0
LINE
8
BLACK
6
CONTINUOUS
10
5.48204
20
-3.28917
11
5.48391
21
-3.29011
0
LINE
8
BLACK
6
CONTINUOUS
10
5.48391
20
-3.29011
11
5.48436
21
-3.29063
0
LINE
8
BLACK
6
CONTINUOUS
10
5.48436
20
-3.29063
11
5.48487
21
-3.29107
0
LINE
8
BLACK
6
CONTINUOUS
10
5.48487
20
-3.29107
11
5.48581
21
-3.29295
0
LINE
8
BLACK
6
CONTINUOUS
10
5.48581
20
-3.29295
11
5.48585
21
-3.29345
0
LINE
8
BLACK
6
CONTINUOUS
10
5.48585
20
-3.29345
11
5.48604
21
-3.29391
0
LINE
8
BLACK
6
CONTINUOUS
10
5.48604
20
-3.29391
11
5.48604
21
-3.29673
0
LINE
8
BLACK
6
CONTINUOUS
10
5.48604
20
-3.29673
11
5.48585
21
-3.29719
0
LINE
8
BLACK
6
CONTINUOUS
10
5.48585
20
-3.29719
11
5.48581
21
-3.29769
0
LINE
8
BLACK
6
CONTINUOUS
10
5.48581
20
-3.29769
11
5.48552
21
-3.29828
0
LINE
8
BLACK
6
CONTINUOUS
10
5.48552
20
-3.29828
11
5.48604
21
-3.29954
0
LINE
8
BLACK
6
CONTINUOUS
10
5.48604
20
-3.29954
11
5.48541
21
-3.30106
0
LINE
8
BLACK
6
CONTINUOUS
10
5.48541
20
-3.30106
11
5.48389
21
-3.30169
0
LINE
8
BLACK
6
CONTINUOUS
10
5.48389
20
-3.30169
11
5.48201
21
-3.30169
0
LINE
8
BLACK
6
CONTINUOUS
10
5.48201
20
-3.30169
11
5.47076
21
-3.30169
0
LINE
8
BLACK
6
CONTINUOUS
10
5.47076
20
-3.30169
11
5.46924
21
-3.30106
0
LINE
8
BLACK
6
CONTINUOUS
10
5.46924
20
-3.30106
11
5.46861
21
-3.29954
0
LINE
8
BLACK
6
CONTINUOUS
10
5.46861
20
-3.29954
11
5.46924
21
-3.29802
0
LINE
8
BLACK
6
CONTINUOUS
10
5.46924
20
-3.29802
11
5.47076
21
-3.29739
0
LINE
8
BLACK
6
CONTINUOUS
10
5.47076
20
-3.29739
11
5.48112
21
-3.29739
0
LINE
8
BLACK
6
CONTINUOUS
10
5.48112
20
-3.29739
11
5.48118
21
-3.29733
0
LINE
8
BLACK
6
CONTINUOUS
10
5.48118
20
-3.29733
11
5.48174
21
-3.29622
0
LINE
8
BLACK
6
CONTINUOUS
10
5.48174
20
-3.29622
11
5.48174
21
-3.29442
0
LINE
8
BLACK
6
CONTINUOUS
10
5.48174
20
-3.29442
11
5.48135
21
-3.29364
0
LINE
8
BLACK
6
CONTINUOUS
10
5.48135
20
-3.29364
11
5.48057
21
-3.29325
0
LINE
8
BLACK
6
CONTINUOUS
10
5.48057
20
-3.29325
11
5.47076
21
-3.29325
0
LINE
8
BLACK
6
CONTINUOUS
10
5.47076
20
-3.29325
11
5.46924
21
-3.29262
0
LINE
8
BLACK
6
CONTINUOUS
10
5.46924
20
-3.29262
11
5.46861
21
-3.2911
0
LINE
8
BLACK
6
CONTINUOUS
10
5.46861
20
-3.2911
11
5.46924
21
-3.28958
0
LINE
8
BLACK
6
CONTINUOUS
10
5.46924
20
-3.28958
11
5.47076
21
-3.28895
0
LINE
8
BLACK
6
CONTINUOUS
10
5.47076
20
-3.28895
11
5.48108
21
-3.28895
0
LINE
8
BLACK
6
CONTINUOUS
10
5.48108
20
-3.28895
11
5.48154
21
-3.28914
0
LINE
8
BLACK
6
CONTINUOUS
10
5.68154
20
-3.28914
11
5.68204
21
-3.28917
0
LINE
8
BLACK
6
CONTINUOUS
10
5.68204
20
-3.28917
11
5.68391
21
-3.29011
0
LINE
8
BLACK
6
CONTINUOUS
10
5.68391
20
-3.29011
11
5.68436
21
-3.29063
0
LINE
8
BLACK
6
CONTINUOUS
10
5.68436
20
-3.29063
11
5.68487
21
-3.29107
0
LINE
8
BLACK
6
CONTINUOUS
10
5.68487
20
-3.29107
11
5.68581
21
-3.29295
0
LINE
8
BLACK
6
CONTINUOUS
10
5.68581
20
-3.29295
11
5.68585
21
-3.29345
0
LINE
8
BLACK
6
CONTINUOUS
10
5.68585
20
-3.29345
11
5.68604
21
-3.29391
0
LINE
8
BLACK
6
CONTINUOUS
10
5.68604
20
-3.29391
11
5.68604
21
-3.29673
0
LINE
8
BLACK
6
CONTINUOUS
10
5.68604
20
-3.29673
11
5.68585
21
-3.29719
0
LINE
8
BLACK
6
CONTINUOUS
10
5.68585
20
-3.29719
11
5.68581
21
-3.29769
0
LINE
8
BLACK
6
CONTINUOUS
10
5.68581
20
-3.29769
11
5.68552
21
-3.29828
0
LINE
8
BLACK
6
CONTINUOUS
10
5.68552
20
-3.29828
11
5.68604
21
-3.29954
0
LINE
8
BLACK
6
CONTINUOUS
10
5.68604
20
-3.29954
11
5.68541
21
-3.30106
0
LINE
8
BLACK
6
CONTINUOUS
10
5.68541
20
-3.30106
11
5.68389
21
-3.30169
0
LINE
8
BLACK
6
CONTINUOUS
10
5.68389
20
-3.30169
11
5.68201
21
-3.30169
0
LINE
8
BLACK
6
CONTINUOUS
10
5.68201
20
-3.30169
11
5.67076
21
-3.30169
0
LINE
8
BLACK
6
CONTINUOUS
10
5.67076
20
-3.30169
11
5.66924
21
-3.30106
0
LINE
8
BLACK
6
CONTINUOUS
10
5.66924
20
-3.30106
11
5.66861
21
-3.29954
0
LINE
8
BLACK
6
CONTINUOUS
10
5.66861
20
-3.29954
11
5.66924
21
-3.29802
0
LINE
8
BLACK
6
CONTINUOUS
10
5.66924
20
-3.29802
11
5.67076
21
-3.29739
0
LINE
8
BLACK
6
CONTINUOUS
10
5.67076
20
-3.29739
11
5.68112
21
-3.29739
0
LINE
8
BLACK
6
CONTINUOUS
10
5.68112
20
-3.29739
11
5.68118
21
-3.29733
0
LINE
8
BLACK
6
CONTINUOUS
10
5.68118
20
-3.29733
11
5.68174
21
-3.29622
0
LINE
8
BLACK
6
CONTINUOUS
10
5.68174
20
-3.29622
11
5.68174
21
-3.29442
0
LINE
8
BLACK
6
CONTINUOUS
10
5.68174
20
-3.29442
11
5.68135
21
-3.29364
0
LINE
8
BLACK
6
CONTINUOUS
10
5.68135
20
-3.29364
11
5.68057
21
-3.29325
0
LINE
8
BLACK
6
CONTINUOUS
10
5.68057
20
-3.29325
11
5.67076
21
-3.29325
0
LINE
8
BLACK
6
CONTINUOUS
10
5.67076
20
-3.29325
11
5.66924
21
-3.29262
0
LINE
8
BLACK
6
CONTINUOUS
10
5.66924
20
-3.29262
11
5.66861
21
-3.2911
0
LINE
8
BLACK
6
CONTINUOUS
10
5.66861
20
-3.2911
11
5.66924
21
-3.28958
0
LINE
8
BLACK
6
CONTINUOUS
10
5.66924
20
-3.28958
11
5.67076
21
-3.28895
0
LINE
8
BLACK
6
CONTINUOUS
10
5.67076
20
-3.28895
11
5.68108
21
-3.28895
0
LINE
8
BLACK
6
CONTINUOUS
10
5.68108
20
-3.28895
11
5.68154
21
-3.28914
0
LINE
8
BLACK
6
CONTINUOUS
10
5.76154
20
-3.28914
11
5.76204
21
-3.28917
0
LINE
8
BLACK
6
CONTINUOUS
10
5.76204
20
-3.28917
11
5.76391
21
-3.29011
0
LINE
8
BLACK
6
CONTINUOUS
10
5.76391
20
-3.29011
11
5.76436
21
-3.29063
0
LINE
8
BLACK
6
CONTINUOUS
10
5.76436
20
-3.29063
11
5.76487
21
-3.29107
0
LINE
8
BLACK
6
CONTINUOUS
10
5.76487
20
-3.29107
11
5.76581
21
-3.29295
0
LINE
8
BLACK
6
CONTINUOUS
10
5.76581
20
-3.29295
11
5.76585
21
-3.29345
0
LINE
8
BLACK
6
CONTINUOUS
10
5.76585
20
-3.29345
11
5.76604
21
-3.29391
0
LINE
8
BLACK
6
CONTINUOUS
10
5.76604
20
-3.29391
11
5.76604
21
-3.29673
0
LINE
8
BLACK
6
CONTINUOUS
10
5.76604
20
-3.29673
11
5.76585
21
-3.29719
0
LINE
8
BLACK
6
CONTINUOUS
10
5.76585
20
-3.29719
11
5.76581
21
-3.29769
0
LINE
8
BLACK
6
CONTINUOUS
10
5.76581
20
-3.29769
11
5.76552
21
-3.29828
0
LINE
8
BLACK
6
CONTINUOUS
10
5.76552
20
-3.29828
11
5.76604
21
-3.29954
0
LINE
8
BLACK
6
CONTINUOUS
10
5.76604
20
-3.29954
11
5.76541
21
-3.30106
0
LINE
8
BLACK
6
CONTINUOUS
10
5.76541
20
-3.30106
11
5.76389
21
-3.30169
0
LINE
8
BLACK
6
CONTINUOUS
10
5.76389
20
-3.30169
11
5.76201
21
-3.30169
0
LINE
8
BLACK
6
CONTINUOUS
10
5.76201
20
-3.30169
11
5.75076
21
-3.30169
0
LINE
8
BLACK
6
CONTINUOUS
10
5.75076
20
-3.30169
11
5.74924
21
-3.30106
0
LINE
8
BLACK
6
CONTINUOUS
10
5.74924
20
-3.30106
11
5.74861
21
-3.29954
0
LINE
8
BLACK
6
CONTINUOUS
10
5.74861
20
-3.29954
11
5.74924
21
-3.29802
0
LINE
8
BLACK
6
CONTINUOUS
10
5.74924
20
-3.29802
11
5.75076
21
-3.29739
0
LINE
8
BLACK
6
CONTINUOUS
10
5.75076
20
-3.29739
11
5.76112
21
-3.29739
0
LINE
8
BLACK
6
CONTINUOUS
10
5.76112
20
-3.29739
11
5.76118
21
-3.29733
0
LINE
8
BLACK
6
CONTINUOUS
10
5.76118
20
-3.29733
11
5.76174
21
-3.29622
0
LINE
8
BLACK
6
CONTINUOUS
10
5.76174
20
-3.29622
11
5.76174
21
-3.29442
0
LINE
8
BLACK
6
CONTINUOUS
10
5.76174
20
-3.29442
11
5.76135
21
-3.29364
0
LINE
8
BLACK
6
CONTINUOUS
10
5.76135
20
-3.29364
11
5.76057
21
-3.29325
0
LINE
8
BLACK
6
CONTINUOUS
10
5.76057
20
-3.29325
11
5.75076
21
-3.29325
0
LINE
8
BLACK
6
CONTINUOUS
10
5.75076
20
-3.29325
11
5.74924
21
-3.29262
0
LINE
8
BLACK
6
CONTINUOUS
10
5.74924
20
-3.29262
11
5.74861
21
-3.2911
0
LINE
8
BLACK
6
CONTINUOUS
10
5.74861
20
-3.2911
11
5.74924
21
-3.28958
0
LINE
8
BLACK
6
CONTINUOUS
10
5.74924
20
-3.28958
11
5.75076
21
-3.28895
0
LINE
8
BLACK
6
CONTINUOUS
10
5.75076
20
-3.28895
11
5.76108
21
-3.28895
0
LINE
8
BLACK
6
CONTINUOUS
10
5.76108
20
-3.28895
11
5.76154
21
-3.28914
0
LINE
8
BLACK
6
CONTINUOUS
10
5.5032
20
-3.27248
11
5.50347
21
-3.27244
0
LINE
8
BLACK
6
CONTINUOUS
10
5.50347
20
-3.27244
11
5.50722
21
-3.27337
0
LINE
8
BLACK
6
CONTINUOUS
10
5.50722
20
-3.27337
11
5.50742
21
-3.27352
0
LINE
8
BLACK
6
CONTINUOUS
10
5.50742
20
-3.27352
11
5.50766
21
-3.27354
0
LINE
8
BLACK
6
CONTINUOUS
10
5.50766
20
-3.27354
11
5.50954
21
-3.27447
0
LINE
8
BLACK
6
CONTINUOUS
10
5.50954
20
-3.27447
11
5.50977
21
-3.27474
0
LINE
8
BLACK
6
CONTINUOUS
10
5.50977
20
-3.27474
11
5.5101
21
-3.27488
0
LINE
8
BLACK
6
CONTINUOUS
10
5.5101
20
-3.27488
11
5.51197
21
-3.27675
0
LINE
8
BLACK
6
CONTINUOUS
10
5.51197
20
-3.27675
11
5.51216
21
-3.27722
0
LINE
8
BLACK
6
CONTINUOUS
10
5.51216
20
-3.27722
11
5.51249
21
-3.27759
0
LINE
8
BLACK
6
CONTINUOUS
10
5.51249
20
-3.27759
11
5.51343
21
-3.28041
0
LINE
8
BLACK
6
CONTINUOUS
10
5.51343
20
-3.28041
11
5.5134
21
-3.28076
0
LINE
8
BLACK
6
CONTINUOUS
10
5.5134
20
-3.28076
11
5.51354
21
-3.28109
0
LINE
8
BLACK
6
CONTINUOUS
10
5.51354
20
-3.28109
11
5.51354
21
-3.28296
0
LINE
8
BLACK
6
CONTINUOUS
10
5.51354
20
-3.28296
11
5.5134
21
-3.28329
0
LINE
8
BLACK
6
CONTINUOUS
10
5.5134
20
-3.28329
11
5.51343
21
-3.28364
0
LINE
8
BLACK
6
CONTINUOUS
10
5.51343
20
-3.28364
11
5.51249
21
-3.28646
0
LINE
8
BLACK
6
CONTINUOUS
10
5.51249
20
-3.28646
11
5.51216
21
-3.28684
0
LINE
8
BLACK
6
CONTINUOUS
10
5.51216
20
-3.28684
11
5.51197
21
-3.2873
0
LINE
8
BLACK
6
CONTINUOUS
10
5.51197
20
-3.2873
11
5.51103
21
-3.28824
0
LINE
8
BLACK
6
CONTINUOUS
10
5.51103
20
-3.28824
11
5.50951
21
-3.28887
0
LINE
8
BLACK
6
CONTINUOUS
10
5.50951
20
-3.28887
11
5.50799
21
-3.28824
0
LINE
8
BLACK
6
CONTINUOUS
10
5.50799
20
-3.28824
11
5.50736
21
-3.28672
0
LINE
8
BLACK
6
CONTINUOUS
10
5.50736
20
-3.28672
11
5.50799
21
-3.2852
0
LINE
8
BLACK
6
CONTINUOUS
10
5.50799
20
-3.2852
11
5.50857
21
-3.28462
0
LINE
8
BLACK
6
CONTINUOUS
10
5.50857
20
-3.28462
11
5.50924
21
-3.28262
0
LINE
8
BLACK
6
CONTINUOUS
10
5.50924
20
-3.28262
11
5.50924
21
-3.28144
0
LINE
8
BLACK
6
CONTINUOUS
10
5.50924
20
-3.28144
11
5.50857
21
-3.27944
0
LINE
8
BLACK
6
CONTINUOUS
10
5.50857
20
-3.27944
11
5.5073
21
-3.27816
0
LINE
8
BLACK
6
CONTINUOUS
10
5.5073
20
-3.27816
11
5.50595
21
-3.27749
0
LINE
8
BLACK
6
CONTINUOUS
10
5.50595
20
-3.27749
11
5.50268
21
-3.27667
0
LINE
8
BLACK
6
CONTINUOUS
10
5.50268
20
-3.27667
11
5.5004
21
-3.27667
0
LINE
8
BLACK
6
CONTINUOUS
10
5.5004
20
-3.27667
11
5.49713
21
-3.27749
0
LINE
8
BLACK
6
CONTINUOUS
10
5.49713
20
-3.27749
11
5.49578
21
-3.27816
0
LINE
8
BLACK
6
CONTINUOUS
10
5.49578
20
-3.27816
11
5.49451
21
-3.27944
0
LINE
8
BLACK
6
CONTINUOUS
10
5.49451
20
-3.27944
11
5.49384
21
-3.28144
0
LINE
8
BLACK
6
CONTINUOUS
10
5.49384
20
-3.28144
11
5.49384
21
-3.28262
0
LINE
8
BLACK
6
CONTINUOUS
10
5.49384
20
-3.28262
11
5.49451
21
-3.28462
0
LINE
8
BLACK
6
CONTINUOUS
10
5.49451
20
-3.28462
11
5.49509
21
-3.2852
0
LINE
8
BLACK
6
CONTINUOUS
10
5.49509
20
-3.2852
11
5.49572
21
-3.28672
0
LINE
8
BLACK
6
CONTINUOUS
10
5.49572
20
-3.28672
11
5.49509
21
-3.28824
0
LINE
8
BLACK
6
CONTINUOUS
10
5.49509
20
-3.28824
11
5.49357
21
-3.28887
0
LINE
8
BLACK
6
CONTINUOUS
10
5.49357
20
-3.28887
11
5.49205
21
-3.28824
0
LINE
8
BLACK
6
CONTINUOUS
10
5.49205
20
-3.28824
11
5.49111
21
-3.2873
0
LINE
8
BLACK
6
CONTINUOUS
10
5.49111
20
-3.2873
11
5.49092
21
-3.28684
0
LINE
8
BLACK
6
CONTINUOUS
10
5.49092
20
-3.28684
11
5.49059
21
-3.28646
0
LINE
8
BLACK
6
CONTINUOUS
10
5.49059
20
-3.28646
11
5.48965
21
-3.28364
0
LINE
8
BLACK
6
CONTINUOUS
10
5.48965
20
-3.28364
11
5.48968
21
-3.28329
0
LINE
8
BLACK
6
CONTINUOUS
10
5.48968
20
-3.28329
11
5.48954
21
-3.28296
0
LINE
8
BLACK
6
CONTINUOUS
10
5.48954
20
-3.28296
11
5.48954
21
-3.28109
0
LINE
8
BLACK
6
CONTINUOUS
10
5.48954
20
-3.28109
11
5.48968
21
-3.28076
0
LINE
8
BLACK
6
CONTINUOUS
10
5.48968
20
-3.28076
11
5.48965
21
-3.28041
0
LINE
8
BLACK
6
CONTINUOUS
10
5.48965
20
-3.28041
11
5.49059
21
-3.27759
0
LINE
8
BLACK
6
CONTINUOUS
10
5.49059
20
-3.27759
11
5.49092
21
-3.27722
0
LINE
8
BLACK
6
CONTINUOUS
10
5.49092
20
-3.27722
11
5.49111
21
-3.27675
0
LINE
8
BLACK
6
CONTINUOUS
10
5.49111
20
-3.27675
11
5.49298
21
-3.27488
0
LINE
8
BLACK
6
CONTINUOUS
10
5.49298
20
-3.27488
11
5.49331
21
-3.27474
0
LINE
8
BLACK
6
CONTINUOUS
10
5.49331
20
-3.27474
11
5.49354
21
-3.27447
0
LINE
8
BLACK
6
CONTINUOUS
10
5.49354
20
-3.27447
11
5.49542
21
-3.27354
0
LINE
8
BLACK
6
CONTINUOUS
10
5.49542
20
-3.27354
11
5.49566
21
-3.27352
0
LINE
8
BLACK
6
CONTINUOUS
10
5.49566
20
-3.27352
11
5.49586
21
-3.27337
0
LINE
8
BLACK
6
CONTINUOUS
10
5.49586
20
-3.27337
11
5.49961
21
-3.27244
0
LINE
8
BLACK
6
CONTINUOUS
10
5.49961
20
-3.27244
11
5.49988
21
-3.27248
0
LINE
8
BLACK
6
CONTINUOUS
10
5.49988
20
-3.27248
11
5.50013
21
-3.27237
0
LINE
8
BLACK
6
CONTINUOUS
10
5.50013
20
-3.27237
11
5.50295
21
-3.27237
0
LINE
8
BLACK
6
CONTINUOUS
10
5.50295
20
-3.27237
11
5.5032
21
-3.27248
0
LINE
8
BLACK
6
CONTINUOUS
10
5.7032
20
-3.27248
11
5.70347
21
-3.27244
0
LINE
8
BLACK
6
CONTINUOUS
10
5.70347
20
-3.27244
11
5.70722
21
-3.27337
0
LINE
8
BLACK
6
CONTINUOUS
10
5.70722
20
-3.27337
11
5.70742
21
-3.27352
0
LINE
8
BLACK
6
CONTINUOUS
10
5.70742
20
-3.27352
11
5.70766
21
-3.27354
0
LINE
8
BLACK
6
CONTINUOUS
10
5.70766
20
-3.27354
11
5.70954
21
-3.27447
0
LINE
8
BLACK
6
CONTINUOUS
10
5.70954
20
-3.27447
11
5.70977
21
-3.27474
0
LINE
8
BLACK
6
CONTINUOUS
10
5.70977
20
-3.27474
11
5.7101
21
-3.27488
0
LINE
8
BLACK
6
CONTINUOUS
10
5.7101
20
-3.27488
11
5.71197
21
-3.27675
0
LINE
8
BLACK
6
CONTINUOUS
10
5.71197
20
-3.27675
11
5.71216
21
-3.27722
0
LINE
8
BLACK
6
CONTINUOUS
10
5.71216
20
-3.27722
11
5.71249
21
-3.27759
0
LINE
8
BLACK
6
CONTINUOUS
10
5.71249
20
-3.27759
11
5.71343
21
-3.28041
0
LINE
8
BLACK
6
CONTINUOUS
10
5.71343
20
-3.28041
11
5.7134
21
-3.28076
0
LINE
8
BLACK
6
CONTINUOUS
10
5.7134
20
-3.28076
11
5.71354
21
-3.28109
0
LINE
8
BLACK
6
CONTINUOUS
10
5.71354
20
-3.28109
11
5.71354
21
-3.28296
0
LINE
8
BLACK
6
CONTINUOUS
10
5.71354
20
-3.28296
11
5.7134
21
-3.28329
0
LINE
8
BLACK
6
CONTINUOUS
10
5.7134
20
-3.28329
11
5.71343
21
-3.28364
0
LINE
8
BLACK
6
CONTINUOUS
10
5.71343
20
-3.28364
11
5.71249
21
-3.28646
0
LINE
8
BLACK
6
CONTINUOUS
10
5.71249
20
-3.28646
11
5.71216
21
-3.28684
0
LINE
8
BLACK
6
CONTINUOUS
10
5.71216
20
-3.28684
11
5.71197
21
-3.2873
0
LINE
8
BLACK
6
CONTINUOUS
10
5.71197
20
-3.2873
11
5.71103
21
-3.28824
0
LINE
8
BLACK
6
CONTINUOUS
10
5.71103
20
-3.28824
11
5.70951
21
-3.28887
0
LINE
8
BLACK
6
CONTINUOUS
10
5.70951
20
-3.28887
11
5.70799
21
-3.28824
0
LINE
8
BLACK
6
CONTINUOUS
10
5.70799
20
-3.28824
11
5.70736
21
-3.28672
0
LINE
8
BLACK
6
CONTINUOUS
10
5.70736
20
-3.28672
11
5.70799
21
-3.2852
0
LINE
8
BLACK
6
CONTINUOUS
10
5.70799
20
-3.2852
11
5.70857
21
-3.28462
0
LINE
8
BLACK
6
CONTINUOUS
10
5.70857
20
-3.28462
11
5.70924
21
-3.28262
0
LINE
8
BLACK
6
CONTINUOUS
10
5.70924
20
-3.28262
11
5.70924
21
-3.28144
0
LINE
8
BLACK
6
CONTINUOUS
10
5.70924
20
-3.28144
11
5.70857
21
-3.27944
0
LINE
8
BLACK
6
CONTINUOUS
10
5.70857
20
-3.27944
11
5.7073
21
-3.27816
0
LINE
8
BLACK
6
CONTINUOUS
10
5.7073
20
-3.27816
11
5.70595
21
-3.27749
0
LINE
8
BLACK
6
CONTINUOUS
10
5.70595
20
-3.27749
11
5.70268
21
-3.27667
0
LINE
8
BLACK
6
CONTINUOUS
10
5.70268
20
-3.27667
11
5.7004
21
-3.27667
0
LINE
8
BLACK
6
CONTINUOUS
10
5.7004
20
-3.27667
11
5.69713
21
-3.27749
0
LINE
8
BLACK
6
CONTINUOUS
10
5.69713
20
-3.27749
11
5.69578
21
-3.27816
0
LINE
8
BLACK
6
CONTINUOUS
10
5.69578
20
-3.27816
11
5.69451
21
-3.27944
0
LINE
8
BLACK
6
CONTINUOUS
10
5.69451
20
-3.27944
11
5.69384
21
-3.28144
0
LINE
8
BLACK
6
CONTINUOUS
10
5.69384
20
-3.28144
11
5.69384
21
-3.28262
0
LINE
8
BLACK
6
CONTINUOUS
10
5.69384
20
-3.28262
11
5.69451
21
-3.28462
0
LINE
8
BLACK
6
CONTINUOUS
10
5.69451
20
-3.28462
11
5.69509
21
-3.2852
0
LINE
8
BLACK
6
CONTINUOUS
10
5.69509
20
-3.2852
11
5.69572
21
-3.28672
0
LINE
8
BLACK
6
CONTINUOUS
10
5.69572
20
-3.28672
11
5.69509
21
-3.28824
0
LINE
8
BLACK
6
CONTINUOUS
10
5.69509
20
-3.28824
11
5.69357
21
-3.28887
0
LINE
8
BLACK
6
CONTINUOUS
10
5.69357
20
-3.28887
11
5.69205
21
-3.28824
0
LINE
8
BLACK
6
CONTINUOUS
10
5.69205
20
-3.28824
11
5.69111
21
-3.2873
0
LINE
8
BLACK
6
CONTINUOUS
10
5.69111
20
-3.2873
11
5.69092
21
-3.28684
0
LINE
8
BLACK
6
CONTINUOUS
10
5.69092
20
-3.28684
11
5.69059
21
-3.28646
0
LINE
8
BLACK
6
CONTINUOUS
10
5.69059
20
-3.28646
11
5.68965
21
-3.28364
0
LINE
8
BLACK
6
CONTINUOUS
10
5.68965
20
-3.28364
11
5.68968
21
-3.28329
0
LINE
8
BLACK
6
CONTINUOUS
10
5.68968
20
-3.28329
11
5.68954
21
-3.28296
0
LINE
8
BLACK
6
CONTINUOUS
10
5.68954
20
-3.28296
11
5.68954
21
-3.28109
0
LINE
8
BLACK
6
CONTINUOUS
10
5.68954
20
-3.28109
11
5.68968
21
-3.28076
0
LINE
8
BLACK
6
CONTINUOUS
10
5.68968
20
-3.28076
11
5.68965
21
-3.28041
0
LINE
8
BLACK
6
CONTINUOUS
10
5.68965
20
-3.28041
11
5.69059
21
-3.27759
0
LINE
8
BLACK
6
CONTINUOUS
10
5.69059
20
-3.27759
11
5.69092
21
-3.27722
0
LINE
8
BLACK
6
CONTINUOUS
10
5.69092
20
-3.27722
11
5.69111
21
-3.27675
0
LINE
8
BLACK
6
CONTINUOUS
10
5.69111
20
-3.27675
11
5.69298
21
-3.27488
0
LINE
8
BLACK
6
CONTINUOUS
10
5.69298
20
-3.27488
11
5.69331
21
-3.27474
0
LINE
8
BLACK
6
CONTINUOUS
10
5.69331
20
-3.27474
11
5.69354
21
-3.27447
0
LINE
8
BLACK
6
CONTINUOUS
10
5.69354
20
-3.27447
11
5.69542
21
-3.27354
0
LINE
8
BLACK
6
CONTINUOUS
10
5.69542
20
-3.27354
11
5.69566
21
-3.27352
0
LINE
8
BLACK
6
CONTINUOUS
10
5.69566
20
-3.27352
11
5.69586
21
-3.27337
0
LINE
8
BLACK
6
CONTINUOUS
10
5.69586
20
-3.27337
11
5.69961
21
-3.27244
0
LINE
8
BLACK
6
CONTINUOUS
10
5.69961
20
-3.27244
11
5.69988
21
-3.27248
0
LINE
8
BLACK
6
CONTINUOUS
10
5.69988
20
-3.27248
11
5.70013
21
-3.27237
0
LINE
8
BLACK
6
CONTINUOUS
10
5.70013
20
-3.27237
11
5.70295
21
-3.27237
0
LINE
8
BLACK
6
CONTINUOUS
10
5.70295
20
-3.27237
11
5.7032
21
-3.27248
0
LINE
8
BLACK
6
CONTINUOUS
10
5.7832
20
-3.27248
11
5.78347
21
-3.27244
0
LINE
8
BLACK
6
CONTINUOUS
10
5.78347
20
-3.27244
11
5.78722
21
-3.27337
0
LINE
8
BLACK
6
CONTINUOUS
10
5.78722
20
-3.27337
11
5.78742
21
-3.27352
0
LINE
8
BLACK
6
CONTINUOUS
10
5.78742
20
-3.27352
11
5.78766
21
-3.27354
0
LINE
8
BLACK
6
CONTINUOUS
10
5.78766
20
-3.27354
11
5.78954
21
-3.27447
0
LINE
8
BLACK
6
CONTINUOUS
10
5.78954
20
-3.27447
11
5.78977
21
-3.27474
0
LINE
8
BLACK
6
CONTINUOUS
10
5.78977
20
-3.27474
11
5.7901
21
-3.27488
0
LINE
8
BLACK
6
CONTINUOUS
10
5.7901
20
-3.27488
11
5.79197
21
-3.27675
0
LINE
8
BLACK
6
CONTINUOUS
10
5.79197
20
-3.27675
11
5.79216
21
-3.27722
0
LINE
8
BLACK
6
CONTINUOUS
10
5.79216
20
-3.27722
11
5.79249
21
-3.27759
0
LINE
8
BLACK
6
CONTINUOUS
10
5.79249
20
-3.27759
11
5.79343
21
-3.28041
0
LINE
8
BLACK
6
CONTINUOUS
10
5.79343
20
-3.28041
11
5.7934
21
-3.28076
0
LINE
8
BLACK
6
CONTINUOUS
10
5.7934
20
-3.28076
11
5.79354
21
-3.28109
0
LINE
8
BLACK
6
CONTINUOUS
10
5.79354
20
-3.28109
11
5.79354
21
-3.28296
0
LINE
8
BLACK
6
CONTINUOUS
10
5.79354
20
-3.28296
11
5.7934
21
-3.28329
0
LINE
8
BLACK
6
CONTINUOUS
10
5.7934
20
-3.28329
11
5.79343
21
-3.28364
0
LINE
8
BLACK
6
CONTINUOUS
10
5.79343
20
-3.28364
11
5.79249
21
-3.28646
0
LINE
8
BLACK
6
CONTINUOUS
10
5.79249
20
-3.28646
11
5.79216
21
-3.28684
0
LINE
8
BLACK
6
CONTINUOUS
10
5.79216
20
-3.28684
11
5.79197
21
-3.2873
0
LINE
8
BLACK
6
CONTINUOUS
10
5.79197
20
-3.2873
11
5.79103
21
-3.28824
0
LINE
8
BLACK
6
CONTINUOUS
10
5.79103
20
-3.28824
11
5.78951
21
-3.28887
0
LINE
8
BLACK
6
CONTINUOUS
10
5.78951
20
-3.28887
11
5.78799
21
-3.28824
0
LINE
8
BLACK
6
CONTINUOUS
10
5.78799
20
-3.28824
11
5.78736
21
-3.28672
0
LINE
8
BLACK
6
CONTINUOUS
10
5.78736
20
-3.28672
11
5.78799
21
-3.2852
0
LINE
8
BLACK
6
CONTINUOUS
10
5.78799
20
-3.2852
11
5.78857
21
-3.28462
0
LINE
8
BLACK
6
CONTINUOUS
10
5.78857
20
-3.28462
11
5.78924
21
-3.28262
0
LINE
8
BLACK
6
CONTINUOUS
10
5.78924
20
-3.28262
11
5.78924
21
-3.28144
0
LINE
8
BLACK
6
CONTINUOUS
10
5.78924
20
-3.28144
11
5.78857
21
-3.27944
0
LINE
8
BLACK
6
CONTINUOUS
10
5.78857
20
-3.27944
11
5.7873
21
-3.27816
0
LINE
8
BLACK
6
CONTINUOUS
10
5.7873
20
-3.27816
11
5.78595
21
-3.27749
0
LINE
8
BLACK
6
CONTINUOUS
10
5.78595
20
-3.27749
11
5.78268
21
-3.27667
0
LINE
8
BLACK
6
CONTINUOUS
10
5.78268
20
-3.27667
11
5.7804
21
-3.27667
0
LINE
8
BLACK
6
CONTINUOUS
10
5.7804
20
-3.27667
11
5.77713
21
-3.27749
0
LINE
8
BLACK
6
CONTINUOUS
10
5.77713
20
-3.27749
11
5.77578
21
-3.27816
0
LINE
8
BLACK
6
CONTINUOUS
10
5.77578
20
-3.27816
11
5.77451
21
-3.27944
0
LINE
8
BLACK
6
CONTINUOUS
10
5.77451
20
-3.27944
11
5.77384
21
-3.28144
0
LINE
8
BLACK
6
CONTINUOUS
10
5.77384
20
-3.28144
11
5.77384
21
-3.28262
0
LINE
8
BLACK
6
CONTINUOUS
10
5.77384
20
-3.28262
11
5.77451
21
-3.28462
0
LINE
8
BLACK
6
CONTINUOUS
10
5.77451
20
-3.28462
11
5.77509
21
-3.2852
0
LINE
8
BLACK
6
CONTINUOUS
10
5.77509
20
-3.2852
11
5.77572
21
-3.28672
0
LINE
8
BLACK
6
CONTINUOUS
10
5.77572
20
-3.28672
11
5.77509
21
-3.28824
0
LINE
8
BLACK
6
CONTINUOUS
10
5.77509
20
-3.28824
11
5.77357
21
-3.28887
0
LINE
8
BLACK
6
CONTINUOUS
10
5.77357
20
-3.28887
11
5.77205
21
-3.28824
0
LINE
8
BLACK
6
CONTINUOUS
10
5.77205
20
-3.28824
11
5.77111
21
-3.2873
0
LINE
8
BLACK
6
CONTINUOUS
10
5.77111
20
-3.2873
11
5.77092
21
-3.28684
0
LINE
8
BLACK
6
CONTINUOUS
10
5.77092
20
-3.28684
11
5.77059
21
-3.28646
0
LINE
8
BLACK
6
CONTINUOUS
10
5.77059
20
-3.28646
11
5.76965
21
-3.28364
0
LINE
8
BLACK
6
CONTINUOUS
10
5.76965
20
-3.28364
11
5.76968
21
-3.28329
0
LINE
8
BLACK
6
CONTINUOUS
10
5.76968
20
-3.28329
11
5.76954
21
-3.28296
0
LINE
8
BLACK
6
CONTINUOUS
10
5.76954
20
-3.28296
11
5.76954
21
-3.28109
0
LINE
8
BLACK
6
CONTINUOUS
10
5.76954
20
-3.28109
11
5.76968
21
-3.28076
0
LINE
8
BLACK
6
CONTINUOUS
10
5.76968
20
-3.28076
11
5.76965
21
-3.28041
0
LINE
8
BLACK
6
CONTINUOUS
10
5.76965
20
-3.28041
11
5.77059
21
-3.27759
0
LINE
8
BLACK
6
CONTINUOUS
10
5.77059
20
-3.27759
11
5.77092
21
-3.27722
0
LINE
8
BLACK
6
CONTINUOUS
10
5.77092
20
-3.27722
11
5.77111
21
-3.27675
0
LINE
8
BLACK
6
CONTINUOUS
10
5.77111
20
-3.27675
11
5.77298
21
-3.27488
0
LINE
8
BLACK
6
CONTINUOUS
10
5.77298
20
-3.27488
11
5.77331
21
-3.27474
0
LINE
8
BLACK
6
CONTINUOUS
10
5.77331
20
-3.27474
11
5.77354
21
-3.27447
0
LINE
8
BLACK
6
CONTINUOUS
10
5.77354
20
-3.27447
11
5.77542
21
-3.27354
0
LINE
8
BLACK
6
CONTINUOUS
10
5.77542
20
-3.27354
11
5.77566
21
-3.27352
0
LINE
8
BLACK
6
CONTINUOUS
10
5.77566
20
-3.27352
11
5.77586
21
-3.27337
0
LINE
8
BLACK
6
CONTINUOUS
10
5.77586
20
-3.27337
11
5.77961
21
-3.27244
0
LINE
8
BLACK
6
CONTINUOUS
10
5.77961
20
-3.27244
11
5.77988
21
-3.27248
0
LINE
8
BLACK
6
CONTINUOUS
10
5.77988
20
-3.27248
11
5.78013
21
-3.27237
0
LINE
8
BLACK
6
CONTINUOUS
10
5.78013
20
-3.27237
11
5.78295
21
-3.27237
0
LINE
8
BLACK
6
CONTINUOUS
10
5.78295
20
-3.27237
11
5.7832
21
-3.27248
0
LINE
8
BLACK
6
CONTINUOUS
10
5.72038
20
-3.22711
11
5.72051
21
-3.22709
0
LINE
8
BLACK
6
CONTINUOUS
10
5.72051
20
-3.22709
11
5.72063
21
-3.22716
0
LINE
8
BLACK
6
CONTINUOUS
10
5.72063
20
-3.22716
11
5.72101
21
-3.22723
0
LINE
8
BLACK
6
CONTINUOUS
10
5.72101
20
-3.22723
11
5.7216
21
-3.22772
0
LINE
8
BLACK
6
CONTINUOUS
10
5.7216
20
-3.22772
11
5.72226
21
-3.2281
0
LINE
8
BLACK
6
CONTINUOUS
10
5.72226
20
-3.2281
11
5.72235
21
-3.22835
0
LINE
8
BLACK
6
CONTINUOUS
10
5.72235
20
-3.22835
11
5.72256
21
-3.22852
0
LINE
8
BLACK
6
CONTINUOUS
10
5.72256
20
-3.22852
11
5.72269
21
-3.22928
0
LINE
8
BLACK
6
CONTINUOUS
10
5.72269
20
-3.22928
11
5.72295
21
-3.23
0
LINE
8
BLACK
6
CONTINUOUS
10
5.72295
20
-3.23
11
5.72295
21
-3.27
0
LINE
8
BLACK
6
CONTINUOUS
10
5.72295
20
-3.27
11
5.72277
21
-3.27101
0
LINE
8
BLACK
6
CONTINUOUS
10
5.72277
20
-3.27101
11
5.72148
21
-3.27256
0
LINE
8
BLACK
6
CONTINUOUS
10
5.72148
20
-3.27256
11
5.71949
21
-3.27291
0
LINE
8
BLACK
6
CONTINUOUS
10
5.71949
20
-3.27291
11
5.71774
21
-3.2719
0
LINE
8
BLACK
6
CONTINUOUS
10
5.71774
20
-3.2719
11
5.71705
21
-3.27
0
LINE
8
BLACK
6
CONTINUOUS
10
5.71705
20
-3.27
11
5.71705
21
-3.23295
0
LINE
8
BLACK
6
CONTINUOUS
10
5.71705
20
-3.23295
11
5.66295
21
-3.23295
0
LINE
8
BLACK
6
CONTINUOUS
10
5.66295
20
-3.23295
11
5.66295
21
-3.25516
0
LINE
8
BLACK
6
CONTINUOUS
10
5.66295
20
-3.25516
11
5.67664
21
-3.2506
0
LINE
8
BLACK
6
CONTINUOUS
10
5.67664
20
-3.2506
11
5.677
21
-3.25062
0
LINE
8
BLACK
6
CONTINUOUS
10
5.677
20
-3.25062
11
5.67732
21
-3.25049
0
LINE
8
BLACK
6
CONTINUOUS
10
5.67732
20
-3.25049
11
5.67779
21
-3.25068
0
LINE
8
BLACK
6
CONTINUOUS
10
5.67779
20
-3.25068
11
5.67828
21
-3.25071
0
LINE
8
BLACK
6
CONTINUOUS
10
5.67828
20
-3.25071
11
5.67852
21
-3.25098
0
LINE
8
BLACK
6
CONTINUOUS
10
5.67852
20
-3.25098
11
5.67884
21
-3.25112
0
LINE
8
BLACK
6
CONTINUOUS
10
5.67884
20
-3.25112
11
5.67904
21
-3.25158
0
LINE
8
BLACK
6
CONTINUOUS
10
5.67904
20
-3.25158
11
5.67936
21
-3.25196
0
LINE
8
BLACK
6
CONTINUOUS
10
5.67936
20
-3.25196
11
5.67934
21
-3.25231
0
LINE
8
BLACK
6
CONTINUOUS
10
5.67934
20
-3.25231
11
5.67947
21
-3.25264
0
LINE
8
BLACK
6
CONTINUOUS
10
5.67947
20
-3.25264
11
5.67947
21
-3.25987
0
LINE
8
BLACK
6
CONTINUOUS
10
5.67947
20
-3.25987
11
5.68389
21
-3.25987
0
LINE
8
BLACK
6
CONTINUOUS
10
5.68389
20
-3.25987
11
5.68541
21
-3.2605
0
LINE
8
BLACK
6
CONTINUOUS
10
5.68541
20
-3.2605
11
5.68604
21
-3.26202
0
LINE
8
BLACK
6
CONTINUOUS
10
5.68604
20
-3.26202
11
5.68541
21
-3.26354
0
LINE
8
BLACK
6
CONTINUOUS
10
5.68541
20
-3.26354
11
5.68389
21
-3.26417
0
LINE
8
BLACK
6
CONTINUOUS
10
5.68389
20
-3.26417
11
5.67947
21
-3.26417
0
LINE
8
BLACK
6
CONTINUOUS
10
5.67947
20
-3.26417
11
5.67947
21
-3.26483
0
LINE
8
BLACK
6
CONTINUOUS
10
5.67947
20
-3.26483
11
5.67884
21
-3.26635
0
LINE
8
BLACK
6
CONTINUOUS
10
5.67884
20
-3.26635
11
5.67732
21
-3.26698
0
LINE
8
BLACK
6
CONTINUOUS
10
5.67732
20
-3.26698
11
5.6758
21
-3.26635
0
LINE
8
BLACK
6
CONTINUOUS
10
5.6758
20
-3.26635
11
5.67517
21
-3.26483
0
LINE
8
BLACK
6
CONTINUOUS
10
5.67517
20
-3.26483
11
5.67517
21
-3.26417
0
LINE
8
BLACK
6
CONTINUOUS
10
5.67517
20
-3.26417
11
5.67076
21
-3.26417
0
LINE
8
BLACK
6
CONTINUOUS
10
5.67076
20
-3.26417
11
5.66924
21
-3.26354
0
LINE
8
BLACK
6
CONTINUOUS
10
5.66924
20
-3.26354
11
5.66861
21
-3.26202
0
LINE
8
BLACK
6
CONTINUOUS
10
5.66861
20
-3.26202
11
5.66924
21
-3.2605
0
LINE
8
BLACK
6
CONTINUOUS
10
5.66924
20
-3.2605
11
5.67076
21
-3.25987
0
LINE
8
BLACK
6
CONTINUOUS
10
5.67076
20
-3.25987
11
5.67517
21
-3.25987
0
LINE
8
BLACK
6
CONTINUOUS
10
5.67517
20
-3.25987
11
5.67517
21
-3.25562
0
LINE
8
BLACK
6
CONTINUOUS
10
5.67517
20
-3.25562
11
5.66393
21
-3.25937
0
LINE
8
BLACK
6
CONTINUOUS
10
5.66393
20
-3.25937
11
5.66295
21
-3.2593
0
LINE
8
BLACK
6
CONTINUOUS
10
5.66295
20
-3.2593
11
5.66295
21
-3.26882
0
LINE
8
BLACK
6
CONTINUOUS
10
5.66295
20
-3.26882
11
5.66419
21
-3.26831
0
LINE
8
BLACK
6
CONTINUOUS
10
5.66419
20
-3.26831
11
5.66571
21
-3.26894
0
LINE
8
BLACK
6
CONTINUOUS
10
5.66571
20
-3.26894
11
5.66634
21
-3.27046
0
LINE
8
BLACK
6
CONTINUOUS
10
5.66634
20
-3.27046
11
5.66634
21
-3.28033
0
LINE
8
BLACK
6
CONTINUOUS
10
5.66634
20
-3.28033
11
5.68304
21
-3.27317
0
LINE
8
BLACK
6
CONTINUOUS
10
5.68304
20
-3.27317
11
5.68469
21
-3.27315
0
LINE
8
BLACK
6
CONTINUOUS
10
5.68469
20
-3.27315
11
5.68587
21
-3.2743
0
LINE
8
BLACK
6
CONTINUOUS
10
5.68587
20
-3.2743
11
5.68589
21
-3.27595
0
LINE
8
BLACK
6
CONTINUOUS
10
5.68589
20
-3.27595
11
5.68474
21
-3.27713
0
LINE
8
BLACK
6
CONTINUOUS
10
5.68474
20
-3.27713
11
5.66504
21
-3.28557
0
LINE
8
BLACK
6
CONTINUOUS
10
5.66504
20
-3.28557
11
5.6646
21
-3.28557
0
LINE
8
BLACK
6
CONTINUOUS
10
5.6646
20
-3.28557
11
5.66419
21
-3.28574
0
LINE
8
BLACK
6
CONTINUOUS
10
5.66419
20
-3.28574
11
5.66381
21
-3.28558
0
LINE
8
BLACK
6
CONTINUOUS
10
5.66381
20
-3.28558
11
5.66339
21
-3.28559
0
LINE
8
BLACK
6
CONTINUOUS
10
5.66339
20
-3.28559
11
5.66308
21
-3.28528
0
LINE
8
BLACK
6
CONTINUOUS
10
5.66308
20
-3.28528
11
5.66267
21
-3.28511
0
LINE
8
BLACK
6
CONTINUOUS
10
5.66267
20
-3.28511
11
5.66251
21
-3.28473
0
LINE
8
BLACK
6
CONTINUOUS
10
5.66251
20
-3.28473
11
5.66221
21
-3.28444
0
LINE
8
BLACK
6
CONTINUOUS
10
5.66221
20
-3.28444
11
5.66221
21
-3.284
0
LINE
8
BLACK
6
CONTINUOUS
10
5.66221
20
-3.284
11
5.66204
21
-3.28359
0
LINE
8
BLACK
6
CONTINUOUS
10
5.66204
20
-3.28359
11
5.66204
21
-3.27189
0
LINE
8
BLACK
6
CONTINUOUS
10
5.66204
20
-3.27189
11
5.66148
21
-3.27256
0
LINE
8
BLACK
6
CONTINUOUS
10
5.66148
20
-3.27256
11
5.65949
21
-3.27291
0
LINE
8
BLACK
6
CONTINUOUS
10
5.65949
20
-3.27291
11
5.65774
21
-3.2719
0
LINE
8
BLACK
6
CONTINUOUS
10
5.65774
20
-3.2719
11
5.65705
21
-3.27
0
LINE
8
BLACK
6
CONTINUOUS
10
5.65705
20
-3.27
11
5.65705
21
-3.23
0
LINE
8
BLACK
6
CONTINUOUS
10
5.65705
20
-3.23
11
5.65711
21
-3.22962
0
LINE
8
BLACK
6
CONTINUOUS
10
5.65711
20
-3.22962
11
5.65709
21
-3.22949
0
LINE
8
BLACK
6
CONTINUOUS
10
5.65709
20
-3.22949
11
5.65716
21
-3.22937
0
LINE
8
BLACK
6
CONTINUOUS
10
5.65716
20
-3.22937
11
5.65723
21
-3.22899
0
LINE
8
BLACK
6
CONTINUOUS
10
5.65723
20
-3.22899
11
5.65772
21
-3.2284
0
LINE
8
BLACK
6
CONTINUOUS
10
5.65772
20
-3.2284
11
5.6581
21
-3.22774
0
LINE
8
BLACK
6
CONTINUOUS
10
5.6581
20
-3.22774
11
5.65835
21
-3.22765
0
LINE
8
BLACK
6
CONTINUOUS
10
5.65835
20
-3.22765
11
5.65852
21
-3.22744
0
LINE
8
BLACK
6
CONTINUOUS
10
5.65852
20
-3.22744
11
5.65928
21
-3.22731
0
LINE
8
BLACK
6
CONTINUOUS
10
5.65928
20
-3.22731
11
5.66
21
-3.22705
0
LINE
8
BLACK
6
CONTINUOUS
10
5.66
20
-3.22705
11
5.72
21
-3.22705
0
LINE
8
BLACK
6
CONTINUOUS
10
5.72
20
-3.22705
11
5.72038
21
-3.22711
0
LINE
8
BLACK
6
CONTINUOUS
10
5.48541
20
-3.26894
11
5.48604
21
-3.27046
0
LINE
8
BLACK
6
CONTINUOUS
10
5.48604
20
-3.27046
11
5.48604
21
-3.28265
0
LINE
8
BLACK
6
CONTINUOUS
10
5.48604
20
-3.28265
11
5.48541
21
-3.28417
0
LINE
8
BLACK
6
CONTINUOUS
10
5.48541
20
-3.28417
11
5.48389
21
-3.2848
0
LINE
8
BLACK
6
CONTINUOUS
10
5.48389
20
-3.2848
11
5.48237
21
-3.28417
0
LINE
8
BLACK
6
CONTINUOUS
10
5.48237
20
-3.28417
11
5.48174
21
-3.28265
0
LINE
8
BLACK
6
CONTINUOUS
10
5.48174
20
-3.28265
11
5.48174
21
-3.27565
0
LINE
8
BLACK
6
CONTINUOUS
10
5.48174
20
-3.27565
11
5.47415
21
-3.28324
0
LINE
8
BLACK
6
CONTINUOUS
10
5.47415
20
-3.28324
11
5.47369
21
-3.28343
0
LINE
8
BLACK
6
CONTINUOUS
10
5.47369
20
-3.28343
11
5.47331
21
-3.28376
0
LINE
8
BLACK
6
CONTINUOUS
10
5.47331
20
-3.28376
11
5.4705
21
-3.28469
0
LINE
8
BLACK
6
CONTINUOUS
10
5.4705
20
-3.28469
11
5.47015
21
-3.28467
0
LINE
8
BLACK
6
CONTINUOUS
10
5.47015
20
-3.28467
11
5.46982
21
-3.2848
0
LINE
8
BLACK
6
CONTINUOUS
10
5.46982
20
-3.2848
11
5.46794
21
-3.2848
0
LINE
8
BLACK
6
CONTINUOUS
10
5.46794
20
-3.2848
11
5.46748
21
-3.28461
0
LINE
8
BLACK
6
CONTINUOUS
10
5.46748
20
-3.28461
11
5.46698
21
-3.28458
0
LINE
8
BLACK
6
CONTINUOUS
10
5.46698
20
-3.28458
11
5.4651
21
-3.28364
0
LINE
8
BLACK
6
CONTINUOUS
10
5.4651
20
-3.28364
11
5.46487
21
-3.28337
0
LINE
8
BLACK
6
CONTINUOUS
10
5.46487
20
-3.28337
11
5.46455
21
-3.28324
0
LINE
8
BLACK
6
CONTINUOUS
10
5.46455
20
-3.28324
11
5.46361
21
-3.2823
0
LINE
8
BLACK
6
CONTINUOUS
10
5.46361
20
-3.2823
11
5.46347
21
-3.28197
0
LINE
8
BLACK
6
CONTINUOUS
10
5.46347
20
-3.28197
11
5.46321
21
-3.28174
0
LINE
8
BLACK
6
CONTINUOUS
10
5.46321
20
-3.28174
11
5.46227
21
-3.27986
0
LINE
8
BLACK
6
CONTINUOUS
10
5.46227
20
-3.27986
11
5.46223
21
-3.27936
0
LINE
8
BLACK
6
CONTINUOUS
10
5.46223
20
-3.27936
11
5.46204
21
-3.2789
0
LINE
8
BLACK
6
CONTINUOUS
10
5.46204
20
-3.2789
11
5.46204
21
-3.27421
0
LINE
8
BLACK
6
CONTINUOUS
10
5.46204
20
-3.27421
11
5.46223
21
-3.27375
0
LINE
8
BLACK
6
CONTINUOUS
10
5.46223
20
-3.27375
11
5.46227
21
-3.27325
0
LINE
8
BLACK
6
CONTINUOUS
10
5.46227
20
-3.27325
11
5.46321
21
-3.27137
0
LINE
8
BLACK
6
CONTINUOUS
10
5.46321
20
-3.27137
11
5.46347
21
-3.27114
0
LINE
8
BLACK
6
CONTINUOUS
10
5.46347
20
-3.27114
11
5.46361
21
-3.27082
0
LINE
8
BLACK
6
CONTINUOUS
10
5.46361
20
-3.27082
11
5.46455
21
-3.26988
0
LINE
8
BLACK
6
CONTINUOUS
10
5.46455
20
-3.26988
11
5.46607
21
-3.26925
0
LINE
8
BLACK
6
CONTINUOUS
10
5.46607
20
-3.26925
11
5.46759
21
-3.26988
0
LINE
8
BLACK
6
CONTINUOUS
10
5.46759
20
-3.26988
11
5.46822
21
-3.2714
0
LINE
8
BLACK
6
CONTINUOUS
10
5.46822
20
-3.2714
11
5.46759
21
-3.27292
0
LINE
8
BLACK
6
CONTINUOUS
10
5.46759
20
-3.27292
11
5.4669
21
-3.27361
0
LINE
8
BLACK
6
CONTINUOUS
10
5.4669
20
-3.27361
11
5.46634
21
-3.27472
0
LINE
8
BLACK
6
CONTINUOUS
10
5.46634
20
-3.27472
11
5.46634
21
-3.27839
0
LINE
8
BLACK
6
CONTINUOUS
10
5.46634
20
-3.27839
11
5.4669
21
-3.2795
0
LINE
8
BLACK
6
CONTINUOUS
10
5.4669
20
-3.2795
11
5.46734
21
-3.27995
0
LINE
8
BLACK
6
CONTINUOUS
10
5.46734
20
-3.27995
11
5.46845
21
-3.2805
0
LINE
8
BLACK
6
CONTINUOUS
10
5.46845
20
-3.2805
11
5.46947
21
-3.2805
0
LINE
8
BLACK
6
CONTINUOUS
10
5.46947
20
-3.2805
11
5.47147
21
-3.27984
0
LINE
8
BLACK
6
CONTINUOUS
10
5.47147
20
-3.27984
11
5.48237
21
-3.26894
0
LINE
8
BLACK
6
CONTINUOUS
10
5.48237
20
-3.26894
11
5.48389
21
-3.26831
0
LINE
8
BLACK
6
CONTINUOUS
10
5.48389
20
-3.26831
11
5.48541
21
-3.26894
0
LINE
8
BLACK
6
CONTINUOUS
10
5.75664
20
-3.26935
11
5.75691
21
-3.26931
0
LINE
8
BLACK
6
CONTINUOUS
10
5.75691
20
-3.26931
11
5.76066
21
-3.27025
0
LINE
8
BLACK
6
CONTINUOUS
10
5.76066
20
-3.27025
11
5.76086
21
-3.2704
0
LINE
8
BLACK
6
CONTINUOUS
10
5.76086
20
-3.2704
11
5.7611
21
-3.27041
0
LINE
8
BLACK
6
CONTINUOUS
10
5.7611
20
-3.27041
11
5.76298
21
-3.27135
0
LINE
8
BLACK
6
CONTINUOUS
10
5.76298
20
-3.27135
11
5.76321
21
-3.27162
0
LINE
8
BLACK
6
CONTINUOUS
10
5.76321
20
-3.27162
11
5.76353
21
-3.27175
0
LINE
8
BLACK
6
CONTINUOUS
10
5.76353
20
-3.27175
11
5.76447
21
-3.27269
0
LINE
8
BLACK
6
CONTINUOUS
10
5.76447
20
-3.27269
11
5.76461
21
-3.27302
0
LINE
8
BLACK
6
CONTINUOUS
10
5.76461
20
-3.27302
11
5.76487
21
-3.27325
0
LINE
8
BLACK
6
CONTINUOUS
10
5.76487
20
-3.27325
11
5.76581
21
-3.27513
0
LINE
8
BLACK
6
CONTINUOUS
10
5.76581
20
-3.27513
11
5.76585
21
-3.27563
0
LINE
8
BLACK
6
CONTINUOUS
10
5.76585
20
-3.27563
11
5.76604
21
-3.27609
0
LINE
8
BLACK
6
CONTINUOUS
10
5.76604
20
-3.27609
11
5.76604
21
-3.27796
0
LINE
8
BLACK
6
CONTINUOUS
10
5.76604
20
-3.27796
11
5.76585
21
-3.27843
0
LINE
8
BLACK
6
CONTINUOUS
10
5.76585
20
-3.27843
11
5.76581
21
-3.27893
0
LINE
8
BLACK
6
CONTINUOUS
10
5.76581
20
-3.27893
11
5.76487
21
-3.2808
0
LINE
8
BLACK
6
CONTINUOUS
10
5.76487
20
-3.2808
11
5.76461
21
-3.28103
0
LINE
8
BLACK
6
CONTINUOUS
10
5.76461
20
-3.28103
11
5.76447
21
-3.28136
0
LINE
8
BLACK
6
CONTINUOUS
10
5.76447
20
-3.28136
11
5.76353
21
-3.2823
0
LINE
8
BLACK
6
CONTINUOUS
10
5.76353
20
-3.2823
11
5.76321
21
-3.28243
0
LINE
8
BLACK
6
CONTINUOUS
10
5.76321
20
-3.28243
11
5.76298
21
-3.2827
0
LINE
8
BLACK
6
CONTINUOUS
10
5.76298
20
-3.2827
11
5.7611
21
-3.28364
0
LINE
8
BLACK
6
CONTINUOUS
10
5.7611
20
-3.28364
11
5.76086
21
-3.28366
0
LINE
8
BLACK
6
CONTINUOUS
10
5.76086
20
-3.28366
11
5.76066
21
-3.2838
0
LINE
8
BLACK
6
CONTINUOUS
10
5.76066
20
-3.2838
11
5.75691
21
-3.28474
0
LINE
8
BLACK
6
CONTINUOUS
10
5.75691
20
-3.28474
11
5.75664
21
-3.2847
0
LINE
8
BLACK
6
CONTINUOUS
10
5.75664
20
-3.2847
11
5.75639
21
-3.2848
0
LINE
8
BLACK
6
CONTINUOUS
10
5.75639
20
-3.2848
11
5.75169
21
-3.2848
0
LINE
8
BLACK
6
CONTINUOUS
10
5.75169
20
-3.2848
11
5.75144
21
-3.2847
0
LINE
8
BLACK
6
CONTINUOUS
10
5.75144
20
-3.2847
11
5.75117
21
-3.28474
0
LINE
8
BLACK
6
CONTINUOUS
10
5.75117
20
-3.28474
11
5.74742
21
-3.2838
0
LINE
8
BLACK
6
CONTINUOUS
10
5.74742
20
-3.2838
11
5.74722
21
-3.28366
0
LINE
8
BLACK
6
CONTINUOUS
10
5.74722
20
-3.28366
11
5.74698
21
-3.28364
0
LINE
8
BLACK
6
CONTINUOUS
10
5.74698
20
-3.28364
11
5.7451
21
-3.2827
0
LINE
8
BLACK
6
CONTINUOUS
10
5.7451
20
-3.2827
11
5.74487
21
-3.28243
0
LINE
8
BLACK
6
CONTINUOUS
10
5.74487
20
-3.28243
11
5.74455
21
-3.2823
0
LINE
8
BLACK
6
CONTINUOUS
10
5.74455
20
-3.2823
11
5.74361
21
-3.28136
0
LINE
8
BLACK
6
CONTINUOUS
10
5.74361
20
-3.28136
11
5.74347
21
-3.28103
0
LINE
8
BLACK
6
CONTINUOUS
10
5.74347
20
-3.28103
11
5.74321
21
-3.2808
0
LINE
8
BLACK
6
CONTINUOUS
10
5.74321
20
-3.2808
11
5.74227
21
-3.27893
0
LINE
8
BLACK
6
CONTINUOUS
10
5.74227
20
-3.27893
11
5.74223
21
-3.27843
0
LINE
8
BLACK
6
CONTINUOUS
10
5.74223
20
-3.27843
11
5.74204
21
-3.27796
0
LINE
8
BLACK
6
CONTINUOUS
10
5.74204
20
-3.27796
11
5.74204
21
-3.27609
0
LINE
8
BLACK
6
CONTINUOUS
10
5.74204
20
-3.27609
11
5.74223
21
-3.27563
0
LINE
8
BLACK
6
CONTINUOUS
10
5.74223
20
-3.27563
11
5.74227
21
-3.27513
0
LINE
8
BLACK
6
CONTINUOUS
10
5.74227
20
-3.27513
11
5.74321
21
-3.27325
0
LINE
8
BLACK
6
CONTINUOUS
10
5.74321
20
-3.27325
11
5.74347
21
-3.27302
0
LINE
8
BLACK
6
CONTINUOUS
10
5.74347
20
-3.27302
11
5.74361
21
-3.27269
0
LINE
8
BLACK
6
CONTINUOUS
10
5.74361
20
-3.27269
11
5.74455
21
-3.27175
0
LINE
8
BLACK
6
CONTINUOUS
10
5.74455
20
-3.27175
11
5.74487
21
-3.27162
0
LINE
8
BLACK
6
CONTINUOUS
10
5.74487
20
-3.27162
11
5.7451
21
-3.27135
0
LINE
8
BLACK
6
CONTINUOUS
10
5.7451
20
-3.27135
11
5.74698
21
-3.27041
0
LINE
8
BLACK
6
CONTINUOUS
10
5.74698
20
-3.27041
11
5.74722
21
-3.2704
0
LINE
8
BLACK
6
CONTINUOUS
10
5.74722
20
-3.2704
11
5.74742
21
-3.27025
0
LINE
8
BLACK
6
CONTINUOUS
10
5.74742
20
-3.27025
11
5.75117
21
-3.26931
0
LINE
8
BLACK
6
CONTINUOUS
10
5.75117
20
-3.26931
11
5.75144
21
-3.26935
0
LINE
8
BLACK
6
CONTINUOUS
10
5.75144
20
-3.26935
11
5.75169
21
-3.26925
0
LINE
8
BLACK
6
CONTINUOUS
10
5.75169
20
-3.26925
11
5.75639
21
-3.26925
0
LINE
8
BLACK
6
CONTINUOUS
10
5.75639
20
-3.26925
11
5.75664
21
-3.26935
0
LINE
8
BLACK
6
CONTINUOUS
10
5.74869
20
-3.27436
11
5.74734
21
-3.27504
0
LINE
8
BLACK
6
CONTINUOUS
10
5.74734
20
-3.27504
11
5.7469
21
-3.27549
0
LINE
8
BLACK
6
CONTINUOUS
10
5.7469
20
-3.27549
11
5.74634
21
-3.2766
0
LINE
8
BLACK
6
CONTINUOUS
10
5.74634
20
-3.2766
11
5.74634
21
-3.27746
0
LINE
8
BLACK
6
CONTINUOUS
10
5.74634
20
-3.27746
11
5.7469
21
-3.27857
0
LINE
8
BLACK
6
CONTINUOUS
10
5.7469
20
-3.27857
11
5.74734
21
-3.27901
0
LINE
8
BLACK
6
CONTINUOUS
10
5.74734
20
-3.27901
11
5.74869
21
-3.27969
0
LINE
8
BLACK
6
CONTINUOUS
10
5.74869
20
-3.27969
11
5.75196
21
-3.2805
0
LINE
8
BLACK
6
CONTINUOUS
10
5.75196
20
-3.2805
11
5.75612
21
-3.2805
0
LINE
8
BLACK
6
CONTINUOUS
10
5.75612
20
-3.2805
11
5.75939
21
-3.27969
0
LINE
8
BLACK
6
CONTINUOUS
10
5.75939
20
-3.27969
11
5.76074
21
-3.27901
0
LINE
8
BLACK
6
CONTINUOUS
10
5.76074
20
-3.27901
11
5.76118
21
-3.27857
0
LINE
8
BLACK
6
CONTINUOUS
10
5.76118
20
-3.27857
11
5.76174
21
-3.27746
0
LINE
8
BLACK
6
CONTINUOUS
10
5.76174
20
-3.27746
11
5.76174
21
-3.2766
0
LINE
8
BLACK
6
CONTINUOUS
10
5.76174
20
-3.2766
11
5.76118
21
-3.27549
0
LINE
8
BLACK
6
CONTINUOUS
10
5.76118
20
-3.27549
11
5.76074
21
-3.27504
0
LINE
8
BLACK
6
CONTINUOUS
10
5.76074
20
-3.27504
11
5.75939
21
-3.27436
0
LINE
8
BLACK
6
CONTINUOUS
10
5.75939
20
-3.27436
11
5.75612
21
-3.27355
0
LINE
8
BLACK
6
CONTINUOUS
10
5.75612
20
-3.27355
11
5.75196
21
-3.27355
0
LINE
8
BLACK
6
CONTINUOUS
10
5.75196
20
-3.27355
11
5.74869
21
-3.27436
0
LINE
8
BLACK
6
CONTINUOUS
10
5.52038
20
-3.22711
11
5.52051
21
-3.22709
0
LINE
8
BLACK
6
CONTINUOUS
10
5.52051
20
-3.22709
11
5.52063
21
-3.22716
0
LINE
8
BLACK
6
CONTINUOUS
10
5.52063
20
-3.22716
11
5.52101
21
-3.22723
0
LINE
8
BLACK
6
CONTINUOUS
10
5.52101
20
-3.22723
11
5.5216
21
-3.22772
0
LINE
8
BLACK
6
CONTINUOUS
10
5.5216
20
-3.22772
11
5.52226
21
-3.2281
0
LINE
8
BLACK
6
CONTINUOUS
10
5.52226
20
-3.2281
11
5.52235
21
-3.22835
0
LINE
8
BLACK
6
CONTINUOUS
10
5.52235
20
-3.22835
11
5.52256
21
-3.22852
0
LINE
8
BLACK
6
CONTINUOUS
10
5.52256
20
-3.22852
11
5.52269
21
-3.22928
0
LINE
8
BLACK
6
CONTINUOUS
10
5.52269
20
-3.22928
11
5.52295
21
-3.23
0
LINE
8
BLACK
6
CONTINUOUS
10
5.52295
20
-3.23
11
5.52295
21
-3.27
0
LINE
8
BLACK
6
CONTINUOUS
10
5.52295
20
-3.27
11
5.52277
21
-3.27101
0
LINE
8
BLACK
6
CONTINUOUS
10
5.52277
20
-3.27101
11
5.52148
21
-3.27256
0
LINE
8
BLACK
6
CONTINUOUS
10
5.52148
20
-3.27256
11
5.51949
21
-3.27291
0
LINE
8
BLACK
6
CONTINUOUS
10
5.51949
20
-3.27291
11
5.51774
21
-3.2719
0
LINE
8
BLACK
6
CONTINUOUS
10
5.51774
20
-3.2719
11
5.51705
21
-3.27
0
LINE
8
BLACK
6
CONTINUOUS
10
5.51705
20
-3.27
11
5.51705
21
-3.23295
0
LINE
8
BLACK
6
CONTINUOUS
10
5.51705
20
-3.23295
11
5.46295
21
-3.23295
0
LINE
8
BLACK
6
CONTINUOUS
10
5.46295
20
-3.23295
11
5.46295
21
-3.25312
0
LINE
8
BLACK
6
CONTINUOUS
10
5.46295
20
-3.25312
11
5.46321
21
-3.25261
0
LINE
8
BLACK
6
CONTINUOUS
10
5.46321
20
-3.25261
11
5.46347
21
-3.25238
0
LINE
8
BLACK
6
CONTINUOUS
10
5.46347
20
-3.25238
11
5.46361
21
-3.25205
0
LINE
8
BLACK
6
CONTINUOUS
10
5.46361
20
-3.25205
11
5.46455
21
-3.25112
0
LINE
8
BLACK
6
CONTINUOUS
10
5.46455
20
-3.25112
11
5.46607
21
-3.25049
0
LINE
8
BLACK
6
CONTINUOUS
10
5.46607
20
-3.25049
11
5.46759
21
-3.25112
0
LINE
8
BLACK
6
CONTINUOUS
10
5.46759
20
-3.25112
11
5.46822
21
-3.25264
0
LINE
8
BLACK
6
CONTINUOUS
10
5.46822
20
-3.25264
11
5.46759
21
-3.25416
0
LINE
8
BLACK
6
CONTINUOUS
10
5.46759
20
-3.25416
11
5.4669
21
-3.25485
0
LINE
8
BLACK
6
CONTINUOUS
10
5.4669
20
-3.25485
11
5.46634
21
-3.25596
0
LINE
8
BLACK
6
CONTINUOUS
10
5.46634
20
-3.25596
11
5.46634
21
-3.25963
0
LINE
8
BLACK
6
CONTINUOUS
10
5.46634
20
-3.25963
11
5.4669
21
-3.26074
0
LINE
8
BLACK
6
CONTINUOUS
10
5.4669
20
-3.26074
11
5.46734
21
-3.26119
0
LINE
8
BLACK
6
CONTINUOUS
10
5.46734
20
-3.26119
11
5.46845
21
-3.26174
0
LINE
8
BLACK
6
CONTINUOUS
10
5.46845
20
-3.26174
11
5.46947
21
-3.26174
0
LINE
8
BLACK
6
CONTINUOUS
10
5.46947
20
-3.26174
11
5.47147
21
-3.26108
0
LINE
8
BLACK
6
CONTINUOUS
10
5.47147
20
-3.26108
11
5.48237
21
-3.25018
0
LINE
8
BLACK
6
CONTINUOUS
10
5.48237
20
-3.25018
11
5.48389
21
-3.24955
0
LINE
8
BLACK
6
CONTINUOUS
10
5.48389
20
-3.24955
11
5.48541
21
-3.25018
0
LINE
8
BLACK
6
CONTINUOUS
10
5.48541
20
-3.25018
11
5.48604
21
-3.2517
0
LINE
8
BLACK
6
CONTINUOUS
10
5.48604
20
-3.2517
11
5.48604
21
-3.26389
0
LINE
8
BLACK
6
CONTINUOUS
10
5.48604
20
-3.26389
11
5.48541
21
-3.26541
0
LINE
8
BLACK
6
CONTINUOUS
10
5.48541
20
-3.26541
11
5.48389
21
-3.26604
0
LINE
8
BLACK
6
CONTINUOUS
10
5.48389
20
-3.26604
11
5.48237
21
-3.26541
0
LINE
8
BLACK
6
CONTINUOUS
10
5.48237
20
-3.26541
11
5.48174
21
-3.26389
0
LINE
8
BLACK
6
CONTINUOUS
10
5.48174
20
-3.26389
11
5.48174
21
-3.25689
0
LINE
8
BLACK
6
CONTINUOUS
10
5.48174
20
-3.25689
11
5.47415
21
-3.26448
0
LINE
8
BLACK
6
CONTINUOUS
10
5.47415
20
-3.26448
11
5.47369
21
-3.26467
0
LINE
8
BLACK
6
CONTINUOUS
10
5.47369
20
-3.26467
11
5.47331
21
-3.26499
0
LINE
8
BLACK
6
CONTINUOUS
10
5.47331
20
-3.26499
11
5.4705
21
-3.26593
0
LINE
8
BLACK
6
CONTINUOUS
10
5.4705
20
-3.26593
11
5.47015
21
-3.26591
0
LINE
8
BLACK
6
CONTINUOUS
10
5.47015
20
-3.26591
11
5.46982
21
-3.26604
0
LINE
8
BLACK
6
CONTINUOUS
10
5.46982
20
-3.26604
11
5.46794
21
-3.26604
0
LINE
8
BLACK
6
CONTINUOUS
10
5.46794
20
-3.26604
11
5.46748
21
-3.26585
0
LINE
8
BLACK
6
CONTINUOUS
10
5.46748
20
-3.26585
11
5.46698
21
-3.26582
0
LINE
8
BLACK
6
CONTINUOUS
10
5.46698
20
-3.26582
11
5.4651
21
-3.26488
0
LINE
8
BLACK
6
CONTINUOUS
10
5.4651
20
-3.26488
11
5.46487
21
-3.26461
0
LINE
8
BLACK
6
CONTINUOUS
10
5.46487
20
-3.26461
11
5.46455
21
-3.26448
0
LINE
8
BLACK
6
CONTINUOUS
10
5.46455
20
-3.26448
11
5.46361
21
-3.26354
0
LINE
8
BLACK
6
CONTINUOUS
10
5.46361
20
-3.26354
11
5.46347
21
-3.26321
0
LINE
8
BLACK
6
CONTINUOUS
10
5.46347
20
-3.26321
11
5.46321
21
-3.26298
0
LINE
8
BLACK
6
CONTINUOUS
10
5.46321
20
-3.26298
11
5.46295
21
-3.26247
0
LINE
8
BLACK
6
CONTINUOUS
10
5.46295
20
-3.26247
11
5.46295
21
-3.27
0
LINE
8
BLACK
6
CONTINUOUS
10
5.46295
20
-3.27
11
5.46277
21
-3.27101
0
LINE
8
BLACK
6
CONTINUOUS
10
5.46277
20
-3.27101
11
5.46148
21
-3.27256
0
LINE
8
BLACK
6
CONTINUOUS
10
5.46148
20
-3.27256
11
5.45949
21
-3.27291
0
LINE
8
BLACK
6
CONTINUOUS
10
5.45949
20
-3.27291
11
5.45774
21
-3.2719
0
LINE
8
BLACK
6
CONTINUOUS
10
5.45774
20
-3.2719
11
5.45705
21
-3.27
0
LINE
8
BLACK
6
CONTINUOUS
10
5.45705
20
-3.27
11
5.45705
21
-3.23
0
LINE
8
BLACK
6
CONTINUOUS
10
5.45705
20
-3.23
11
5.45711
21
-3.22962
0
LINE
8
BLACK
6
CONTINUOUS
10
5.45711
20
-3.22962
11
5.45709
21
-3.22949
0
LINE
8
BLACK
6
CONTINUOUS
10
5.45709
20
-3.22949
11
5.45716
21
-3.22937
0
LINE
8
BLACK
6
CONTINUOUS
10
5.45716
20
-3.22937
11
5.45723
21
-3.22899
0
LINE
8
BLACK
6
CONTINUOUS
10
5.45723
20
-3.22899
11
5.45772
21
-3.2284
0
LINE
8
BLACK
6
CONTINUOUS
10
5.45772
20
-3.2284
11
5.4581
21
-3.22774
0
LINE
8
BLACK
6
CONTINUOUS
10
5.4581
20
-3.22774
11
5.45835
21
-3.22765
0
LINE
8
BLACK
6
CONTINUOUS
10
5.45835
20
-3.22765
11
5.45852
21
-3.22744
0
LINE
8
BLACK
6
CONTINUOUS
10
5.45852
20
-3.22744
11
5.45928
21
-3.22731
0
LINE
8
BLACK
6
CONTINUOUS
10
5.45928
20
-3.22731
11
5.46
21
-3.22705
0
LINE
8
BLACK
6
CONTINUOUS
10
5.46
20
-3.22705
11
5.52
21
-3.22705
0
LINE
8
BLACK
6
CONTINUOUS
10
5.52
20
-3.22705
11
5.52038
21
-3.22711
0
LINE
8
BLACK
6
CONTINUOUS
10
5.80038
20
-3.22711
11
5.80051
21
-3.22709
0
LINE
8
BLACK
6
CONTINUOUS
10
5.80051
20
-3.22709
11
5.80063
21
-3.22716
0
LINE
8
BLACK
6
CONTINUOUS
10
5.80063
20
-3.22716
11
5.80101
21
-3.22723
0
LINE
8
BLACK
6
CONTINUOUS
10
5.80101
20
-3.22723
11
5.8016
21
-3.22772
0
LINE
8
BLACK
6
CONTINUOUS
10
5.8016
20
-3.22772
11
5.80226
21
-3.2281
0
LINE
8
BLACK
6
CONTINUOUS
10
5.80226
20
-3.2281
11
5.80235
21
-3.22835
0
LINE
8
BLACK
6
CONTINUOUS
10
5.80235
20
-3.22835
11
5.80256
21
-3.22852
0
LINE
8
BLACK
6
CONTINUOUS
10
5.80256
20
-3.22852
11
5.80269
21
-3.22928
0
LINE
8
BLACK
6
CONTINUOUS
10
5.80269
20
-3.22928
11
5.80295
21
-3.23
0
LINE
8
BLACK
6
CONTINUOUS
10
5.80295
20
-3.23
11
5.80295
21
-3.27
0
LINE
8
BLACK
6
CONTINUOUS
10
5.80295
20
-3.27
11
5.80277
21
-3.27101
0
LINE
8
BLACK
6
CONTINUOUS
10
5.80277
20
-3.27101
11
5.80148
21
-3.27256
0
LINE
8
BLACK
6
CONTINUOUS
10
5.80148
20
-3.27256
11
5.79949
21
-3.27291
0
LINE
8
BLACK
6
CONTINUOUS
10
5.79949
20
-3.27291
11
5.79774
21
-3.2719
0
LINE
8
BLACK
6
CONTINUOUS
10
5.79774
20
-3.2719
11
5.79705
21
-3.27
0
LINE
8
BLACK
6
CONTINUOUS
10
5.79705
20
-3.27
11
5.79705
21
-3.23295
0
LINE
8
BLACK
6
CONTINUOUS
10
5.79705
20
-3.23295
11
5.74295
21
-3.23295
0
LINE
8
BLACK
6
CONTINUOUS
10
5.74295
20
-3.23295
11
5.74295
21
-3.25654
0
LINE
8
BLACK
6
CONTINUOUS
10
5.74295
20
-3.25654
11
5.743
21
-3.25648
0
LINE
8
BLACK
6
CONTINUOUS
10
5.743
20
-3.25648
11
5.74563
21
-3.25472
0
LINE
8
BLACK
6
CONTINUOUS
10
5.74563
20
-3.25472
11
5.74711
21
-3.25324
0
LINE
8
BLACK
6
CONTINUOUS
10
5.74711
20
-3.25324
11
5.7479
21
-3.25167
0
LINE
8
BLACK
6
CONTINUOUS
10
5.7479
20
-3.25167
11
5.74914
21
-3.2506
0
LINE
8
BLACK
6
CONTINUOUS
10
5.74914
20
-3.2506
11
5.75078
21
-3.25071
0
LINE
8
BLACK
6
CONTINUOUS
10
5.75078
20
-3.25071
11
5.75186
21
-3.25196
0
LINE
8
BLACK
6
CONTINUOUS
10
5.75186
20
-3.25196
11
5.75174
21
-3.2536
0
LINE
8
BLACK
6
CONTINUOUS
10
5.75174
20
-3.2536
11
5.7508
21
-3.25547
0
LINE
8
BLACK
6
CONTINUOUS
10
5.7508
20
-3.25547
11
5.75054
21
-3.25571
0
LINE
8
BLACK
6
CONTINUOUS
10
5.75054
20
-3.25571
11
5.7504
21
-3.25603
0
LINE
8
BLACK
6
CONTINUOUS
10
5.7504
20
-3.25603
11
5.75032
21
-3.25611
0
LINE
8
BLACK
6
CONTINUOUS
10
5.75032
20
-3.25611
11
5.76174
21
-3.25611
0
LINE
8
BLACK
6
CONTINUOUS
10
5.76174
20
-3.25611
11
5.76174
21
-3.25264
0
LINE
8
BLACK
6
CONTINUOUS
10
5.76174
20
-3.25264
11
5.76237
21
-3.25112
0
LINE
8
BLACK
6
CONTINUOUS
10
5.76237
20
-3.25112
11
5.76389
21
-3.25049
0
LINE
8
BLACK
6
CONTINUOUS
10
5.76389
20
-3.25049
11
5.76541
21
-3.25112
0
LINE
8
BLACK
6
CONTINUOUS
10
5.76541
20
-3.25112
11
5.76604
21
-3.25264
0
LINE
8
BLACK
6
CONTINUOUS
10
5.76604
20
-3.25264
11
5.76604
21
-3.26389
0
LINE
8
BLACK
6
CONTINUOUS
10
5.76604
20
-3.26389
11
5.76541
21
-3.26541
0
LINE
8
BLACK
6
CONTINUOUS
10
5.76541
20
-3.26541
11
5.76389
21
-3.26604
0
LINE
8
BLACK
6
CONTINUOUS
10
5.76389
20
-3.26604
11
5.76237
21
-3.26541
0
LINE
8
BLACK
6
CONTINUOUS
10
5.76237
20
-3.26541
11
5.76174
21
-3.26389
0
LINE
8
BLACK
6
CONTINUOUS
10
5.76174
20
-3.26389
11
5.76174
21
-3.26041
0
LINE
8
BLACK
6
CONTINUOUS
10
5.76174
20
-3.26041
11
5.74419
21
-3.26041
0
LINE
8
BLACK
6
CONTINUOUS
10
5.74419
20
-3.26041
11
5.74399
21
-3.26033
0
LINE
8
BLACK
6
CONTINUOUS
10
5.74399
20
-3.26033
11
5.74377
21
-3.26037
0
LINE
8
BLACK
6
CONTINUOUS
10
5.74377
20
-3.26037
11
5.74325
21
-3.26002
0
LINE
8
BLACK
6
CONTINUOUS
10
5.74325
20
-3.26002
11
5.74295
21
-3.2599
0
LINE
8
BLACK
6
CONTINUOUS
10
5.74295
20
-3.2599
11
5.74295
21
-3.27
0
LINE
8
BLACK
6
CONTINUOUS
10
5.74295
20
-3.27
11
5.74277
21
-3.27101
0
LINE
8
BLACK
6
CONTINUOUS
10
5.74277
20
-3.27101
11
5.74148
21
-3.27256
0
LINE
8
BLACK
6
CONTINUOUS
10
5.74148
20
-3.27256
11
5.73949
21
-3.27291
0
LINE
8
BLACK
6
CONTINUOUS
10
5.73949
20
-3.27291
11
5.73774
21
-3.2719
0
LINE
8
BLACK
6
CONTINUOUS
10
5.73774
20
-3.2719
11
5.73705
21
-3.27
0
LINE
8
BLACK
6
CONTINUOUS
10
5.73705
20
-3.27
11
5.73705
21
-3.23
0
LINE
8
BLACK
6
CONTINUOUS
10
5.73705
20
-3.23
11
5.73711
21
-3.22962
0
LINE
8
BLACK
6
CONTINUOUS
10
5.73711
20
-3.22962
11
5.73709
21
-3.22949
0
LINE
8
BLACK
6
CONTINUOUS
10
5.73709
20
-3.22949
11
5.73716
21
-3.22937
0
LINE
8
BLACK
6
CONTINUOUS
10
5.73716
20
-3.22937
11
5.73723
21
-3.22899
0
LINE
8
BLACK
6
CONTINUOUS
10
5.73723
20
-3.22899
11
5.73772
21
-3.2284
0
LINE
8
BLACK
6
CONTINUOUS
10
5.73772
20
-3.2284
11
5.7381
21
-3.22774
0
LINE
8
BLACK
6
CONTINUOUS
10
5.7381
20
-3.22774
11
5.73835
21
-3.22765
0
LINE
8
BLACK
6
CONTINUOUS
10
5.73835
20
-3.22765
11
5.73852
21
-3.22744
0
LINE
8
BLACK
6
CONTINUOUS
10
5.73852
20
-3.22744
11
5.73928
21
-3.22731
0
LINE
8
BLACK
6
CONTINUOUS
10
5.73928
20
-3.22731
11
5.74
21
-3.22705
0
LINE
8
BLACK
6
CONTINUOUS
10
5.74
20
-3.22705
11
5.8
21
-3.22705
0
LINE
8
BLACK
6
CONTINUOUS
10
5.8
20
-3.22705
11
5.80038
21
-3.22711
0
LINE
8
BLACK
6
CONTINUOUS
10
5.65226
20
-3.1481
11
5.65295
21
-3.15
0
LINE
8
BLACK
6
CONTINUOUS
10
5.65295
20
-3.15
11
5.65295
21
-3.19
0
LINE
8
BLACK
6
CONTINUOUS
10
5.65295
20
-3.19
11
5.65289
21
-3.19038
0
LINE
8
BLACK
6
CONTINUOUS
10
5.65289
20
-3.19038
11
5.65291
21
-3.19051
0
LINE
8
BLACK
6
CONTINUOUS
10
5.65291
20
-3.19051
11
5.65284
21
-3.19063
0
LINE
8
BLACK
6
CONTINUOUS
10
5.65284
20
-3.19063
11
5.65277
21
-3.19101
0
LINE
8
BLACK
6
CONTINUOUS
10
5.65277
20
-3.19101
11
5.65228
21
-3.1916
0
LINE
8
BLACK
6
CONTINUOUS
10
5.65228
20
-3.1916
11
5.6519
21
-3.19226
0
LINE
8
BLACK
6
CONTINUOUS
10
5.6519
20
-3.19226
11
5.65165
21
-3.19235
0
LINE
8
BLACK
6
CONTINUOUS
10
5.65165
20
-3.19235
11
5.65148
21
-3.19256
0
LINE
8
BLACK
6
CONTINUOUS
10
5.65148
20
-3.19256
11
5.65072
21
-3.19269
0
LINE
8
BLACK
6
CONTINUOUS
10
5.65072
20
-3.19269
11
5.65
21
-3.19295
0
LINE
8
BLACK
6
CONTINUOUS
10
5.65
20
-3.19295
11
5.59
21
-3.19295
0
LINE
8
BLACK
6
CONTINUOUS
10
5.59
20
-3.19295
11
5.58962
21
-3.19289
0
LINE
8
BLACK
6
CONTINUOUS
10
5.58962
20
-3.19289
11
5.58949
21
-3.19291
0
LINE
8
BLACK
6
CONTINUOUS
10
5.58949
20
-3.19291
11
5.58937
21
-3.19284
0
LINE
8
BLACK
6
CONTINUOUS
10
5.58937
20
-3.19284
11
5.58899
21
-3.19277
0
LINE
8
BLACK
6
CONTINUOUS
10
5.58899
20
-3.19277
11
5.5884
21
-3.19228
0
LINE
8
BLACK
6
CONTINUOUS
10
5.5884
20
-3.19228
11
5.58774
21
-3.1919
0
LINE
8
BLACK
6
CONTINUOUS
10
5.58774
20
-3.1919
11
5.58765
21
-3.19165
0
LINE
8
BLACK
6
CONTINUOUS
10
5.58765
20
-3.19165
11
5.58744
21
-3.19148
0
LINE
8
BLACK
6
CONTINUOUS
10
5.58744
20
-3.19148
11
5.58731
21
-3.19072
0
LINE
8
BLACK
6
CONTINUOUS
10
5.58731
20
-3.19072
11
5.58705
21
-3.19
0
LINE
8
BLACK
6
CONTINUOUS
10
5.58705
20
-3.19
11
5.58705
21
-3.15
0
LINE
8
BLACK
6
CONTINUOUS
10
5.58705
20
-3.15
11
5.58723
21
-3.14899
0
LINE
8
BLACK
6
CONTINUOUS
10
5.58723
20
-3.14899
11
5.58852
21
-3.14744
0
LINE
8
BLACK
6
CONTINUOUS
10
5.58852
20
-3.14744
11
5.59051
21
-3.14709
0
LINE
8
BLACK
6
CONTINUOUS
10
5.59051
20
-3.14709
11
5.59226
21
-3.1481
0
LINE
8
BLACK
6
CONTINUOUS
10
5.59226
20
-3.1481
11
5.59295
21
-3.15
0
LINE
8
BLACK
6
CONTINUOUS
10
5.59295
20
-3.15
11
5.59295
21
-3.18705
0
LINE
8
BLACK
6
CONTINUOUS
10
5.59295
20
-3.18705
11
5.64705
21
-3.18705
0
LINE
8
BLACK
6
CONTINUOUS
10
5.64705
20
-3.18705
11
5.64705
21
-3.15
0
LINE
8
BLACK
6
CONTINUOUS
10
5.64705
20
-3.15
11
5.64723
21
-3.14899
0
LINE
8
BLACK
6
CONTINUOUS
10
5.64723
20
-3.14899
11
5.64852
21
-3.14744
0
LINE
8
BLACK
6
CONTINUOUS
10
5.64852
20
-3.14744
11
5.65051
21
-3.14709
0
LINE
8
BLACK
6
CONTINUOUS
10
5.65051
20
-3.14709
11
5.65226
21
-3.1481
0
LINE
8
BLACK
6
CONTINUOUS
10
5.61541
20
-3.13896
11
5.61604
21
-3.14048
0
LINE
8
BLACK
6
CONTINUOUS
10
5.61604
20
-3.14048
11
5.61541
21
-3.142
0
LINE
8
BLACK
6
CONTINUOUS
10
5.61541
20
-3.142
11
5.61389
21
-3.14263
0
LINE
8
BLACK
6
CONTINUOUS
10
5.61389
20
-3.14263
11
5.61033
21
-3.14263
0
LINE
8
BLACK
6
CONTINUOUS
10
5.61033
20
-3.14263
11
5.61518
21
-3.14626
0
LINE
8
BLACK
6
CONTINUOUS
10
5.61518
20
-3.14626
11
5.61602
21
-3.14768
0
LINE
8
BLACK
6
CONTINUOUS
10
5.61602
20
-3.14768
11
5.61561
21
-3.14927
0
LINE
8
BLACK
6
CONTINUOUS
10
5.61561
20
-3.14927
11
5.61419
21
-3.15011
0
LINE
8
BLACK
6
CONTINUOUS
10
5.61419
20
-3.15011
11
5.6126
21
-3.1497
0
LINE
8
BLACK
6
CONTINUOUS
10
5.6126
20
-3.1497
11
5.60659
21
-3.14519
0
LINE
8
BLACK
6
CONTINUOUS
10
5.60659
20
-3.14519
11
5.60228
21
-3.1495
0
LINE
8
BLACK
6
CONTINUOUS
10
5.60228
20
-3.1495
11
5.60076
21
-3.15013
0
LINE
8
BLACK
6
CONTINUOUS
10
5.60076
20
-3.15013
11
5.59924
21
-3.1495
0
LINE
8
BLACK
6
CONTINUOUS
10
5.59924
20
-3.1495
11
5.59861
21
-3.14798
0
LINE
8
BLACK
6
CONTINUOUS
10
5.59861
20
-3.14798
11
5.59924
21
-3.14646
0
LINE
8
BLACK
6
CONTINUOUS
10
5.59924
20
-3.14646
11
5.60307
21
-3.14263
0
LINE
8
BLACK
6
CONTINUOUS
10
5.60307
20
-3.14263
11
5.59419
21
-3.14263
0
LINE
8
BLACK
6
CONTINUOUS
10
5.59419
20
-3.14263
11
5.59267
21
-3.142
0
LINE
8
BLACK
6
CONTINUOUS
10
5.59267
20
-3.142
11
5.59204
21
-3.14048
0
LINE
8
BLACK
6
CONTINUOUS
10
5.59204
20
-3.14048
11
5.59267
21
-3.13896
0
LINE
8
BLACK
6
CONTINUOUS
10
5.59267
20
-3.13896
11
5.59419
21
-3.13833
0
LINE
8
BLACK
6
CONTINUOUS
10
5.59419
20
-3.13833
11
5.61389
21
-3.13833
0
LINE
8
BLACK
6
CONTINUOUS
10
5.61389
20
-3.13833
11
5.61541
21
-3.13896
0
LINE
8
BLACK
6
CONTINUOUS
10
5.64291
20
-3.1327
11
5.64354
21
-3.13422
0
LINE
8
BLACK
6
CONTINUOUS
10
5.64354
20
-3.13422
11
5.64354
21
-3.14548
0
LINE
8
BLACK
6
CONTINUOUS
10
5.64354
20
-3.14548
11
5.64291
21
-3.147
0
LINE
8
BLACK
6
CONTINUOUS
10
5.64291
20
-3.147
11
5.64139
21
-3.14763
0
LINE
8
BLACK
6
CONTINUOUS
10
5.64139
20
-3.14763
11
5.63987
21
-3.147
0
LINE
8
BLACK
6
CONTINUOUS
10
5.63987
20
-3.147
11
5.63924
21
-3.14548
0
LINE
8
BLACK
6
CONTINUOUS
10
5.63924
20
-3.14548
11
5.63924
21
-3.142
0
LINE
8
BLACK
6
CONTINUOUS
10
5.63924
20
-3.142
11
5.62169
21
-3.142
0
LINE
8
BLACK
6
CONTINUOUS
10
5.62169
20
-3.142
11
5.62149
21
-3.14192
0
LINE
8
BLACK
6
CONTINUOUS
10
5.62149
20
-3.14192
11
5.62127
21
-3.14196
0
LINE
8
BLACK
6
CONTINUOUS
10
5.62127
20
-3.14196
11
5.62075
21
-3.14161
0
LINE
8
BLACK
6
CONTINUOUS
10
5.62075
20
-3.14161
11
5.62017
21
-3.14137
0
LINE
8
BLACK
6
CONTINUOUS
10
5.62017
20
-3.14137
11
5.62008
21
-3.14117
0
LINE
8
BLACK
6
CONTINUOUS
10
5.62008
20
-3.14117
11
5.6199
21
-3.14104
0
LINE
8
BLACK
6
CONTINUOUS
10
5.6199
20
-3.14104
11
5.61978
21
-3.14043
0
LINE
8
BLACK
6
CONTINUOUS
10
5.61978
20
-3.14043
11
5.61954
21
-3.13985
0
LINE
8
BLACK
6
CONTINUOUS
10
5.61954
20
-3.13985
11
5.61962
21
-3.13965
0
LINE
8
BLACK
6
CONTINUOUS
10
5.61962
20
-3.13965
11
5.61958
21
-3.13943
0
LINE
8
BLACK
6
CONTINUOUS
10
5.61958
20
-3.13943
11
5.61993
21
-3.13891
0
LINE
8
BLACK
6
CONTINUOUS
10
5.61993
20
-3.13891
11
5.62017
21
-3.13833
0
LINE
8
BLACK
6
CONTINUOUS
10
5.62017
20
-3.13833
11
5.62037
21
-3.13824
0
LINE
8
BLACK
6
CONTINUOUS
10
5.62037
20
-3.13824
11
5.6205
21
-3.13806
0
LINE
8
BLACK
6
CONTINUOUS
10
5.6205
20
-3.13806
11
5.62313
21
-3.1363
0
LINE
8
BLACK
6
CONTINUOUS
10
5.62313
20
-3.1363
11
5.62461
21
-3.13482
0
LINE
8
BLACK
6
CONTINUOUS
10
5.62461
20
-3.13482
11
5.6254
21
-3.13326
0
LINE
8
BLACK
6
CONTINUOUS
10
5.6254
20
-3.13326
11
5.62664
21
-3.13218
0
LINE
8
BLACK
6
CONTINUOUS
10
5.62664
20
-3.13218
11
5.62828
21
-3.1323
0
LINE
8
BLACK
6
CONTINUOUS
10
5.62828
20
-3.1323
11
5.62936
21
-3.13354
0
LINE
8
BLACK
6
CONTINUOUS
10
5.62936
20
-3.13354
11
5.62924
21
-3.13518
0
LINE
8
BLACK
6
CONTINUOUS
10
5.62924
20
-3.13518
11
5.6283
21
-3.13706
0
LINE
8
BLACK
6
CONTINUOUS
10
5.6283
20
-3.13706
11
5.62804
21
-3.13729
0
LINE
8
BLACK
6
CONTINUOUS
10
5.62804
20
-3.13729
11
5.6279
21
-3.13762
0
LINE
8
BLACK
6
CONTINUOUS
10
5.6279
20
-3.13762
11
5.62782
21
-3.1377
0
LINE
8
BLACK
6
CONTINUOUS
10
5.62782
20
-3.1377
11
5.63924
21
-3.1377
0
LINE
8
BLACK
6
CONTINUOUS
10
5.63924
20
-3.1377
11
5.63924
21
-3.13422
0
LINE
8
BLACK
6
CONTINUOUS
10
5.63924
20
-3.13422
11
5.63987
21
-3.1327
0
LINE
8
BLACK
6
CONTINUOUS
10
5.63987
20
-3.1327
11
5.64139
21
-3.13207
0
LINE
8
BLACK
6
CONTINUOUS
10
5.64139
20
-3.13207
11
5.64291
21
-3.1327
0
LINE
8
BLACK
6
CONTINUOUS
10
5.71101
20
-3.07723
11
5.71256
21
-3.07852
0
LINE
8
BLACK
6
CONTINUOUS
10
5.71256
20
-3.07852
11
5.71291
21
-3.08051
0
LINE
8
BLACK
6
CONTINUOUS
10
5.71291
20
-3.08051
11
5.7119
21
-3.08226
0
LINE
8
BLACK
6
CONTINUOUS
10
5.7119
20
-3.08226
11
5.71
21
-3.08295
0
LINE
8
BLACK
6
CONTINUOUS
10
5.71
20
-3.08295
11
5.67295
21
-3.08295
0
LINE
8
BLACK
6
CONTINUOUS
10
5.67295
20
-3.08295
11
5.67295
21
-3.13705
0
LINE
8
BLACK
6
CONTINUOUS
10
5.67295
20
-3.13705
11
5.71
21
-3.13705
0
LINE
8
BLACK
6
CONTINUOUS
10
5.71
20
-3.13705
11
5.71101
21
-3.13723
0
LINE
8
BLACK
6
CONTINUOUS
10
5.71101
20
-3.13723
11
5.71256
21
-3.13852
0
LINE
8
BLACK
6
CONTINUOUS
10
5.71256
20
-3.13852
11
5.71291
21
-3.14051
0
LINE
8
BLACK
6
CONTINUOUS
10
5.71291
20
-3.14051
11
5.7119
21
-3.14226
0
LINE
8
BLACK
6
CONTINUOUS
10
5.7119
20
-3.14226
11
5.71
21
-3.14295
0
LINE
8
BLACK
6
CONTINUOUS
10
5.71
20
-3.14295
11
5.67
21
-3.14295
0
LINE
8
BLACK
6
CONTINUOUS
10
5.67
20
-3.14295
11
5.66962
21
-3.14289
0
LINE
8
BLACK
6
CONTINUOUS
10
5.66962
20
-3.14289
11
5.66949
21
-3.14291
0
LINE
8
BLACK
6
CONTINUOUS
10
5.66949
20
-3.14291
11
5.66937
21
-3.14284
0
LINE
8
BLACK
6
CONTINUOUS
10
5.66937
20
-3.14284
11
5.66899
21
-3.14277
0
LINE
8
BLACK
6
CONTINUOUS
10
5.66899
20
-3.14277
11
5.6684
21
-3.14228
0
LINE
8
BLACK
6
CONTINUOUS
10
5.6684
20
-3.14228
11
5.66774
21
-3.1419
0
LINE
8
BLACK
6
CONTINUOUS
10
5.66774
20
-3.1419
11
5.66765
21
-3.14165
0
LINE
8
BLACK
6
CONTINUOUS
10
5.66765
20
-3.14165
11
5.66744
21
-3.14148
0
LINE
8
BLACK
6
CONTINUOUS
10
5.66744
20
-3.14148
11
5.66731
21
-3.14072
0
LINE
8
BLACK
6
CONTINUOUS
10
5.66731
20
-3.14072
11
5.66705
21
-3.14
0
LINE
8
BLACK
6
CONTINUOUS
10
5.66705
20
-3.14
11
5.66705
21
-3.08
0
LINE
8
BLACK
6
CONTINUOUS
10
5.66705
20
-3.08
11
5.66711
21
-3.07962
0
LINE
8
BLACK
6
CONTINUOUS
10
5.66711
20
-3.07962
11
5.66709
21
-3.07949
0
LINE
8
BLACK
6
CONTINUOUS
10
5.66709
20
-3.07949
11
5.66716
21
-3.07937
0
LINE
8
BLACK
6
CONTINUOUS
10
5.66716
20
-3.07937
11
5.66723
21
-3.07899
0
LINE
8
BLACK
6
CONTINUOUS
10
5.66723
20
-3.07899
11
5.66772
21
-3.0784
0
LINE
8
BLACK
6
CONTINUOUS
10
5.66772
20
-3.0784
11
5.6681
21
-3.07774
0
LINE
8
BLACK
6
CONTINUOUS
10
5.6681
20
-3.07774
11
5.66835
21
-3.07765
0
LINE
8
BLACK
6
CONTINUOUS
10
5.66835
20
-3.07765
11
5.66852
21
-3.07744
0
LINE
8
BLACK
6
CONTINUOUS
10
5.66852
20
-3.07744
11
5.66928
21
-3.07731
0
LINE
8
BLACK
6
CONTINUOUS
10
5.66928
20
-3.07731
11
5.67
21
-3.07705
0
LINE
8
BLACK
6
CONTINUOUS
10
5.67
20
-3.07705
11
5.71
21
-3.07705
0
LINE
8
BLACK
6
CONTINUOUS
10
5.71
20
-3.07705
11
5.71101
21
-3.07723
0
LINE
8
BLACK
6
CONTINUOUS
10
5.79038
20
-3.07711
11
5.79051
21
-3.07709
0
LINE
8
BLACK
6
CONTINUOUS
10
5.79051
20
-3.07709
11
5.79063
21
-3.07716
0
LINE
8
BLACK
6
CONTINUOUS
10
5.79063
20
-3.07716
11
5.79101
21
-3.07723
0
LINE
8
BLACK
6
CONTINUOUS
10
5.79101
20
-3.07723
11
5.7916
21
-3.07772
0
LINE
8
BLACK
6
CONTINUOUS
10
5.7916
20
-3.07772
11
5.79226
21
-3.0781
0
LINE
8
BLACK
6
CONTINUOUS
10
5.79226
20
-3.0781
11
5.79235
21
-3.07835
0
LINE
8
BLACK
6
CONTINUOUS
10
5.79235
20
-3.07835
11
5.79256
21
-3.07852
0
LINE
8
BLACK
6
CONTINUOUS
10
5.79256
20
-3.07852
11
5.79269
21
-3.07928
0
LINE
8
BLACK
6
CONTINUOUS
10
5.79269
20
-3.07928
11
5.79295
21
-3.08
0
LINE
8
BLACK
6
CONTINUOUS
10
5.79295
20
-3.08
11
5.79295
21
-3.14
0
LINE
8
BLACK
6
CONTINUOUS
10
5.79295
20
-3.14
11
5.79289
21
-3.14038
0
LINE
8
BLACK
6
CONTINUOUS
10
5.79289
20
-3.14038
11
5.79291
21
-3.14051
0
LINE
8
BLACK
6
CONTINUOUS
10
5.79291
20
-3.14051
11
5.79284
21
-3.14063
0
LINE
8
BLACK
6
CONTINUOUS
10
5.79284
20
-3.14063
11
5.79277
21
-3.14101
0
LINE
8
BLACK
6
CONTINUOUS
10
5.79277
20
-3.14101
11
5.79228
21
-3.1416
0
LINE
8
BLACK
6
CONTINUOUS
10
5.79228
20
-3.1416
11
5.7919
21
-3.14226
0
LINE
8
BLACK
6
CONTINUOUS
10
5.7919
20
-3.14226
11
5.79165
21
-3.14235
0
LINE
8
BLACK
6
CONTINUOUS
10
5.79165
20
-3.14235
11
5.79148
21
-3.14256
0
LINE
8
BLACK
6
CONTINUOUS
10
5.79148
20
-3.14256
11
5.79072
21
-3.14269
0
LINE
8
BLACK
6
CONTINUOUS
10
5.79072
20
-3.14269
11
5.79
21
-3.14295
0
LINE
8
BLACK
6
CONTINUOUS
10
5.79
20
-3.14295
11
5.75
21
-3.14295
0
LINE
8
BLACK
6
CONTINUOUS
10
5.75
20
-3.14295
11
5.74899
21
-3.14277
0
LINE
8
BLACK
6
CONTINUOUS
10
5.74899
20
-3.14277
11
5.74744
21
-3.14148
0
LINE
8
BLACK
6
CONTINUOUS
10
5.74744
20
-3.14148
11
5.74709
21
-3.13949
0
LINE
8
BLACK
6
CONTINUOUS
10
5.74709
20
-3.13949
11
5.7481
21
-3.13774
0
LINE
8
BLACK
6
CONTINUOUS
10
5.7481
20
-3.13774
11
5.75
21
-3.13705
0
LINE
8
BLACK
6
CONTINUOUS
10
5.75
20
-3.13705
11
5.78705
21
-3.13705
0
LINE
8
BLACK
6
CONTINUOUS
10
5.78705
20
-3.13705
11
5.78705
21
-3.08295
0
LINE
8
BLACK
6
CONTINUOUS
10
5.78705
20
-3.08295
11
5.75
21
-3.08295
0
LINE
8
BLACK
6
CONTINUOUS
10
5.75
20
-3.08295
11
5.74899
21
-3.08277
0
LINE
8
BLACK
6
CONTINUOUS
10
5.74899
20
-3.08277
11
5.74744
21
-3.08148
0
LINE
8
BLACK
6
CONTINUOUS
10
5.74744
20
-3.08148
11
5.74709
21
-3.07949
0
LINE
8
BLACK
6
CONTINUOUS
10
5.74709
20
-3.07949
11
5.7481
21
-3.07774
0
LINE
8
BLACK
6
CONTINUOUS
10
5.7481
20
-3.07774
11
5.75
21
-3.07705
0
LINE
8
BLACK
6
CONTINUOUS
10
5.75
20
-3.07705
11
5.79
21
-3.07705
0
LINE
8
BLACK
6
CONTINUOUS
10
5.79
20
-3.07705
11
5.79038
21
-3.07711
0
LINE
8
BLACK
6
CONTINUOUS
10
5.85101
20
-3.07723
11
5.85256
21
-3.07852
0
LINE
8
BLACK
6
CONTINUOUS
10
5.85256
20
-3.07852
11
5.85291
21
-3.08051
0
LINE
8
BLACK
6
CONTINUOUS
10
5.85291
20
-3.08051
11
5.8519
21
-3.08226
0
LINE
8
BLACK
6
CONTINUOUS
10
5.8519
20
-3.08226
11
5.85125
21
-3.0825
0
LINE
8
BLACK
6
CONTINUOUS
10
5.85125
20
-3.0825
11
5.85166
21
-3.08267
0
LINE
8
BLACK
6
CONTINUOUS
10
5.85166
20
-3.08267
11
5.85229
21
-3.08419
0
LINE
8
BLACK
6
CONTINUOUS
10
5.85229
20
-3.08419
11
5.85229
21
-3.10389
0
LINE
8
BLACK
6
CONTINUOUS
10
5.85229
20
-3.10389
11
5.85166
21
-3.10541
0
LINE
8
BLACK
6
CONTINUOUS
10
5.85166
20
-3.10541
11
5.85014
21
-3.10604
0
LINE
8
BLACK
6
CONTINUOUS
10
5.85014
20
-3.10604
11
5.84862
21
-3.10541
0
LINE
8
BLACK
6
CONTINUOUS
10
5.84862
20
-3.10541
11
5.84799
21
-3.10389
0
LINE
8
BLACK
6
CONTINUOUS
10
5.84799
20
-3.10389
11
5.84799
21
-3.10033
0
LINE
8
BLACK
6
CONTINUOUS
10
5.84799
20
-3.10033
11
5.84436
21
-3.10518
0
LINE
8
BLACK
6
CONTINUOUS
10
5.84436
20
-3.10518
11
5.84294
21
-3.10602
0
LINE
8
BLACK
6
CONTINUOUS
10
5.84294
20
-3.10602
11
5.84135
21
-3.10561
0
LINE
8
BLACK
6
CONTINUOUS
10
5.84135
20
-3.10561
11
5.84051
21
-3.10419
0
LINE
8
BLACK
6
CONTINUOUS
10
5.84051
20
-3.10419
11
5.84092
21
-3.1026
0
LINE
8
BLACK
6
CONTINUOUS
10
5.84092
20
-3.1026
11
5.84543
21
-3.09659
0
LINE
8
BLACK
6
CONTINUOUS
10
5.84543
20
-3.09659
11
5.84112
21
-3.09228
0
LINE
8
BLACK
6
CONTINUOUS
10
5.84112
20
-3.09228
11
5.84049
21
-3.09076
0
LINE
8
BLACK
6
CONTINUOUS
10
5.84049
20
-3.09076
11
5.84112
21
-3.08924
0
LINE
8
BLACK
6
CONTINUOUS
10
5.84112
20
-3.08924
11
5.84264
21
-3.08861
0
LINE
8
BLACK
6
CONTINUOUS
10
5.84264
20
-3.08861
11
5.84416
21
-3.08924
0
LINE
8
BLACK
6
CONTINUOUS
10
5.84416
20
-3.08924
11
5.84799
21
-3.09307
0
LINE
8
BLACK
6
CONTINUOUS
10
5.84799
20
-3.09307
11
5.84799
21
-3.08419
0
LINE
8
BLACK
6
CONTINUOUS
10
5.84799
20
-3.08419
11
5.8485
21
-3.08295
0
LINE
8
BLACK
6
CONTINUOUS
10
5.8485
20
-3.08295
11
5.81295
21
-3.08295
0
LINE
8
BLACK
6
CONTINUOUS
10
5.81295
20
-3.08295
11
5.81295
21
-3.13705
0
LINE
8
BLACK
6
CONTINUOUS
10
5.81295
20
-3.13705
11
5.85
21
-3.13705
0
LINE
8
BLACK
6
CONTINUOUS
10
5.85
20
-3.13705
11
5.85101
21
-3.13723
0
LINE
8
BLACK
6
CONTINUOUS
10
5.85101
20
-3.13723
11
5.85256
21
-3.13852
0
LINE
8
BLACK
6
CONTINUOUS
10
5.85256
20
-3.13852
11
5.85291
21
-3.14051
0
LINE
8
BLACK
6
CONTINUOUS
10
5.85291
20
-3.14051
11
5.8519
21
-3.14226
0
LINE
8
BLACK
6
CONTINUOUS
10
5.8519
20
-3.14226
11
5.85
21
-3.14295
0
LINE
8
BLACK
6
CONTINUOUS
10
5.85
20
-3.14295
11
5.81
21
-3.14295
0
LINE
8
BLACK
6
CONTINUOUS
10
5.81
20
-3.14295
11
5.80962
21
-3.14289
0
LINE
8
BLACK
6
CONTINUOUS
10
5.80962
20
-3.14289
11
5.80949
21
-3.14291
0
LINE
8
BLACK
6
CONTINUOUS
10
5.80949
20
-3.14291
11
5.80937
21
-3.14284
0
LINE
8
BLACK
6
CONTINUOUS
10
5.80937
20
-3.14284
11
5.80899
21
-3.14277
0
LINE
8
BLACK
6
CONTINUOUS
10
5.80899
20
-3.14277
11
5.8084
21
-3.14228
0
LINE
8
BLACK
6
CONTINUOUS
10
5.8084
20
-3.14228
11
5.80774
21
-3.1419
0
LINE
8
BLACK
6
CONTINUOUS
10
5.80774
20
-3.1419
11
5.80765
21
-3.14165
0
LINE
8
BLACK
6
CONTINUOUS
10
5.80765
20
-3.14165
11
5.80744
21
-3.14148
0
LINE
8
BLACK
6
CONTINUOUS
10
5.80744
20
-3.14148
11
5.80731
21
-3.14072
0
LINE
8
BLACK
6
CONTINUOUS
10
5.80731
20
-3.14072
11
5.80705
21
-3.14
0
LINE
8
BLACK
6
CONTINUOUS
10
5.80705
20
-3.14
11
5.80705
21
-3.08
0
LINE
8
BLACK
6
CONTINUOUS
10
5.80705
20
-3.08
11
5.80711
21
-3.07962
0
LINE
8
BLACK
6
CONTINUOUS
10
5.80711
20
-3.07962
11
5.80709
21
-3.07949
0
LINE
8
BLACK
6
CONTINUOUS
10
5.80709
20
-3.07949
11
5.80716
21
-3.07937
0
LINE
8
BLACK
6
CONTINUOUS
10
5.80716
20
-3.07937
11
5.80723
21
-3.07899
0
LINE
8
BLACK
6
CONTINUOUS
10
5.80723
20
-3.07899
11
5.80772
21
-3.0784
0
LINE
8
BLACK
6
CONTINUOUS
10
5.80772
20
-3.0784
11
5.8081
21
-3.07774
0
LINE
8
BLACK
6
CONTINUOUS
10
5.8081
20
-3.07774
11
5.80835
21
-3.07765
0
LINE
8
BLACK
6
CONTINUOUS
10
5.80835
20
-3.07765
11
5.80852
21
-3.07744
0
LINE
8
BLACK
6
CONTINUOUS
10
5.80852
20
-3.07744
11
5.80928
21
-3.07731
0
LINE
8
BLACK
6
CONTINUOUS
10
5.80928
20
-3.07731
11
5.81
21
-3.07705
0
LINE
8
BLACK
6
CONTINUOUS
10
5.81
20
-3.07705
11
5.85
21
-3.07705
0
LINE
8
BLACK
6
CONTINUOUS
10
5.85
20
-3.07705
11
5.85101
21
-3.07723
0
LINE
8
BLACK
6
CONTINUOUS
10
5.93038
20
-3.07711
11
5.93051
21
-3.07709
0
LINE
8
BLACK
6
CONTINUOUS
10
5.93051
20
-3.07709
11
5.93063
21
-3.07716
0
LINE
8
BLACK
6
CONTINUOUS
10
5.93063
20
-3.07716
11
5.93101
21
-3.07723
0
LINE
8
BLACK
6
CONTINUOUS
10
5.93101
20
-3.07723
11
5.9316
21
-3.07772
0
LINE
8
BLACK
6
CONTINUOUS
10
5.9316
20
-3.07772
11
5.93226
21
-3.0781
0
LINE
8
BLACK
6
CONTINUOUS
10
5.93226
20
-3.0781
11
5.93235
21
-3.07835
0
LINE
8
BLACK
6
CONTINUOUS
10
5.93235
20
-3.07835
11
5.93256
21
-3.07852
0
LINE
8
BLACK
6
CONTINUOUS
10
5.93256
20
-3.07852
11
5.93269
21
-3.07928
0
LINE
8
BLACK
6
CONTINUOUS
10
5.93269
20
-3.07928
11
5.93295
21
-3.08
0
LINE
8
BLACK
6
CONTINUOUS
10
5.93295
20
-3.08
11
5.93295
21
-3.14
0
LINE
8
BLACK
6
CONTINUOUS
10
5.93295
20
-3.14
11
5.93289
21
-3.14038
0
LINE
8
BLACK
6
CONTINUOUS
10
5.93289
20
-3.14038
11
5.93291
21
-3.14051
0
LINE
8
BLACK
6
CONTINUOUS
10
5.93291
20
-3.14051
11
5.93284
21
-3.14063
0
LINE
8
BLACK
6
CONTINUOUS
10
5.93284
20
-3.14063
11
5.93277
21
-3.14101
0
LINE
8
BLACK
6
CONTINUOUS
10
5.93277
20
-3.14101
11
5.93228
21
-3.1416
0
LINE
8
BLACK
6
CONTINUOUS
10
5.93228
20
-3.1416
11
5.9319
21
-3.14226
0
LINE
8
BLACK
6
CONTINUOUS
10
5.9319
20
-3.14226
11
5.93165
21
-3.14235
0
LINE
8
BLACK
6
CONTINUOUS
10
5.93165
20
-3.14235
11
5.93148
21
-3.14256
0
LINE
8
BLACK
6
CONTINUOUS
10
5.93148
20
-3.14256
11
5.93072
21
-3.14269
0
LINE
8
BLACK
6
CONTINUOUS
10
5.93072
20
-3.14269
11
5.93
21
-3.14295
0
LINE
8
BLACK
6
CONTINUOUS
10
5.93
20
-3.14295
11
5.89
21
-3.14295
0
LINE
8
BLACK
6
CONTINUOUS
10
5.89
20
-3.14295
11
5.88899
21
-3.14277
0
LINE
8
BLACK
6
CONTINUOUS
10
5.88899
20
-3.14277
11
5.88744
21
-3.14148
0
LINE
8
BLACK
6
CONTINUOUS
10
5.88744
20
-3.14148
11
5.88709
21
-3.13949
0
LINE
8
BLACK
6
CONTINUOUS
10
5.88709
20
-3.13949
11
5.8881
21
-3.13774
0
LINE
8
BLACK
6
CONTINUOUS
10
5.8881
20
-3.13774
11
5.89
21
-3.13705
0
LINE
8
BLACK
6
CONTINUOUS
10
5.89
20
-3.13705
11
5.92705
21
-3.13705
0
LINE
8
BLACK
6
CONTINUOUS
10
5.92705
20
-3.13705
11
5.92705
21
-3.08295
0
LINE
8
BLACK
6
CONTINUOUS
10
5.92705
20
-3.08295
11
5.90595
21
-3.08295
0
LINE
8
BLACK
6
CONTINUOUS
10
5.90595
20
-3.08295
11
5.90645
21
-3.08321
0
LINE
8
BLACK
6
CONTINUOUS
10
5.90645
20
-3.08321
11
5.90668
21
-3.08347
0
LINE
8
BLACK
6
CONTINUOUS
10
5.90668
20
-3.08347
11
5.90701
21
-3.08361
0
LINE
8
BLACK
6
CONTINUOUS
10
5.90701
20
-3.08361
11
5.90795
21
-3.08455
0
LINE
8
BLACK
6
CONTINUOUS
10
5.90795
20
-3.08455
11
5.90808
21
-3.08487
0
LINE
8
BLACK
6
CONTINUOUS
10
5.90808
20
-3.08487
11
5.90835
21
-3.0851
0
LINE
8
BLACK
6
CONTINUOUS
10
5.90835
20
-3.0851
11
5.90929
21
-3.08698
0
LINE
8
BLACK
6
CONTINUOUS
10
5.90929
20
-3.08698
11
5.90932
21
-3.08748
0
LINE
8
BLACK
6
CONTINUOUS
10
5.90932
20
-3.08748
11
5.90951
21
-3.08794
0
LINE
8
BLACK
6
CONTINUOUS
10
5.90951
20
-3.08794
11
5.90951
21
-3.08888
0
LINE
8
BLACK
6
CONTINUOUS
10
5.90951
20
-3.08888
11
5.90932
21
-3.08934
0
LINE
8
BLACK
6
CONTINUOUS
10
5.90932
20
-3.08934
11
5.90929
21
-3.08984
0
LINE
8
BLACK
6
CONTINUOUS
10
5.90929
20
-3.08984
11
5.90835
21
-3.09172
0
LINE
8
BLACK
6
CONTINUOUS
10
5.90835
20
-3.09172
11
5.90808
21
-3.09195
0
LINE
8
BLACK
6
CONTINUOUS
10
5.90808
20
-3.09195
11
5.90795
21
-3.09228
0
LINE
8
BLACK
6
CONTINUOUS
10
5.90795
20
-3.09228
11
5.90759
21
-3.09263
0
LINE
8
BLACK
6
CONTINUOUS
10
5.90759
20
-3.09263
11
5.90795
21
-3.09299
0
LINE
8
BLACK
6
CONTINUOUS
10
5.90795
20
-3.09299
11
5.90808
21
-3.09332
0
LINE
8
BLACK
6
CONTINUOUS
10
5.90808
20
-3.09332
11
5.90835
21
-3.09355
0
LINE
8
BLACK
6
CONTINUOUS
10
5.90835
20
-3.09355
11
5.90929
21
-3.09542
0
LINE
8
BLACK
6
CONTINUOUS
10
5.90929
20
-3.09542
11
5.90932
21
-3.09592
0
LINE
8
BLACK
6
CONTINUOUS
10
5.90932
20
-3.09592
11
5.90951
21
-3.09639
0
LINE
8
BLACK
6
CONTINUOUS
10
5.90951
20
-3.09639
11
5.90951
21
-3.10014
0
LINE
8
BLACK
6
CONTINUOUS
10
5.90951
20
-3.10014
11
5.90932
21
-3.1006
0
LINE
8
BLACK
6
CONTINUOUS
10
5.90932
20
-3.1006
11
5.90929
21
-3.1011
0
LINE
8
BLACK
6
CONTINUOUS
10
5.90929
20
-3.1011
11
5.90835
21
-3.10298
0
LINE
8
BLACK
6
CONTINUOUS
10
5.90835
20
-3.10298
11
5.90808
21
-3.10321
0
LINE
8
BLACK
6
CONTINUOUS
10
5.90808
20
-3.10321
11
5.90795
21
-3.10353
0
LINE
8
BLACK
6
CONTINUOUS
10
5.90795
20
-3.10353
11
5.90701
21
-3.10447
0
LINE
8
BLACK
6
CONTINUOUS
10
5.90701
20
-3.10447
11
5.90668
21
-3.10461
0
LINE
8
BLACK
6
CONTINUOUS
10
5.90668
20
-3.10461
11
5.90645
21
-3.10487
0
LINE
8
BLACK
6
CONTINUOUS
10
5.90645
20
-3.10487
11
5.90457
21
-3.10581
0
LINE
8
BLACK
6
CONTINUOUS
10
5.90457
20
-3.10581
11
5.90407
21
-3.10585
0
LINE
8
BLACK
6
CONTINUOUS
10
5.90407
20
-3.10585
11
5.90361
21
-3.10604
0
LINE
8
BLACK
6
CONTINUOUS
10
5.90361
20
-3.10604
11
5.89986
21
-3.10604
0
LINE
8
BLACK
6
CONTINUOUS
10
5.89986
20
-3.10604
11
5.8994
21
-3.10585
0
LINE
8
BLACK
6
CONTINUOUS
10
5.8994
20
-3.10585
11
5.8989
21
-3.10581
0
LINE
8
BLACK
6
CONTINUOUS
10
5.8989
20
-3.10581
11
5.89702
21
-3.10487
0
LINE
8
BLACK
6
CONTINUOUS
10
5.89702
20
-3.10487
11
5.89679
21
-3.10461
0
LINE
8
BLACK
6
CONTINUOUS
10
5.89679
20
-3.10461
11
5.89646
21
-3.10447
0
LINE
8
BLACK
6
CONTINUOUS
10
5.89646
20
-3.10447
11
5.89552
21
-3.10353
0
LINE
8
BLACK
6
CONTINUOUS
10
5.89552
20
-3.10353
11
5.89539
21
-3.10321
0
LINE
8
BLACK
6
CONTINUOUS
10
5.89539
20
-3.10321
11
5.89512
21
-3.10298
0
LINE
8
BLACK
6
CONTINUOUS
10
5.89512
20
-3.10298
11
5.89418
21
-3.1011
0
LINE
8
BLACK
6
CONTINUOUS
10
5.89418
20
-3.1011
11
5.89415
21
-3.1006
0
LINE
8
BLACK
6
CONTINUOUS
10
5.89415
20
-3.1006
11
5.89396
21
-3.10014
0
LINE
8
BLACK
6
CONTINUOUS
10
5.89396
20
-3.10014
11
5.89396
21
-3.09639
0
LINE
8
BLACK
6
CONTINUOUS
10
5.89396
20
-3.09639
11
5.89415
21
-3.09592
0
LINE
8
BLACK
6
CONTINUOUS
10
5.89415
20
-3.09592
11
5.89418
21
-3.09542
0
LINE
8
BLACK
6
CONTINUOUS
10
5.89418
20
-3.09542
11
5.89512
21
-3.09355
0
LINE
8
BLACK
6
CONTINUOUS
10
5.89512
20
-3.09355
11
5.89539
21
-3.09332
0
LINE
8
BLACK
6
CONTINUOUS
10
5.89539
20
-3.09332
11
5.89552
21
-3.09299
0
LINE
8
BLACK
6
CONTINUOUS
10
5.89552
20
-3.09299
11
5.89588
21
-3.09263
0
LINE
8
BLACK
6
CONTINUOUS
10
5.89588
20
-3.09263
11
5.89552
21
-3.09228
0
LINE
8
BLACK
6
CONTINUOUS
10
5.89552
20
-3.09228
11
5.89539
21
-3.09195
0
LINE
8
BLACK
6
CONTINUOUS
10
5.89539
20
-3.09195
11
5.89512
21
-3.09172
0
LINE
8
BLACK
6
CONTINUOUS
10
5.89512
20
-3.09172
11
5.89418
21
-3.08984
0
LINE
8
BLACK
6
CONTINUOUS
10
5.89418
20
-3.08984
11
5.89415
21
-3.08934
0
LINE
8
BLACK
6
CONTINUOUS
10
5.89415
20
-3.08934
11
5.89396
21
-3.08888
0
LINE
8
BLACK
6
CONTINUOUS
10
5.89396
20
-3.08888
11
5.89396
21
-3.08794
0
LINE
8
BLACK
6
CONTINUOUS
10
5.89396
20
-3.08794
11
5.89415
21
-3.08748
0
LINE
8
BLACK
6
CONTINUOUS
10
5.89415
20
-3.08748
11
5.89418
21
-3.08698
0
LINE
8
BLACK
6
CONTINUOUS
10
5.89418
20
-3.08698
11
5.89512
21
-3.0851
0
LINE
8
BLACK
6
CONTINUOUS
10
5.89512
20
-3.0851
11
5.89539
21
-3.08487
0
LINE
8
BLACK
6
CONTINUOUS
10
5.89539
20
-3.08487
11
5.89552
21
-3.08455
0
LINE
8
BLACK
6
CONTINUOUS
10
5.89552
20
-3.08455
11
5.89646
21
-3.08361
0
LINE
8
BLACK
6
CONTINUOUS
10
5.89646
20
-3.08361
11
5.89679
21
-3.08347
0
LINE
8
BLACK
6
CONTINUOUS
10
5.89679
20
-3.08347
11
5.89702
21
-3.08321
0
LINE
8
BLACK
6
CONTINUOUS
10
5.89702
20
-3.08321
11
5.89753
21
-3.08295
0
LINE
8
BLACK
6
CONTINUOUS
10
5.89753
20
-3.08295
11
5.89
21
-3.08295
0
LINE
8
BLACK
6
CONTINUOUS
10
5.89
20
-3.08295
11
5.88899
21
-3.08277
0
LINE
8
BLACK
6
CONTINUOUS
10
5.88899
20
-3.08277
11
5.88744
21
-3.08148
0
LINE
8
BLACK
6
CONTINUOUS
10
5.88744
20
-3.08148
11
5.88709
21
-3.07949
0
LINE
8
BLACK
6
CONTINUOUS
10
5.88709
20
-3.07949
11
5.8881
21
-3.07774
0
LINE
8
BLACK
6
CONTINUOUS
10
5.8881
20
-3.07774
11
5.89
21
-3.07705
0
LINE
8
BLACK
6
CONTINUOUS
10
5.89
20
-3.07705
11
5.93
21
-3.07705
0
LINE
8
BLACK
6
CONTINUOUS
10
5.93
20
-3.07705
11
5.93038
21
-3.07711
0
LINE
8
BLACK
6
CONTINUOUS
10
5.89926
20
-3.09534
11
5.89881
21
-3.09578
0
LINE
8
BLACK
6
CONTINUOUS
10
5.89881
20
-3.09578
11
5.89826
21
-3.09689
0
LINE
8
BLACK
6
CONTINUOUS
10
5.89826
20
-3.09689
11
5.89826
21
-3.09963
0
LINE
8
BLACK
6
CONTINUOUS
10
5.89826
20
-3.09963
11
5.89881
21
-3.10074
0
LINE
8
BLACK
6
CONTINUOUS
10
5.89881
20
-3.10074
11
5.89926
21
-3.10118
0
LINE
8
BLACK
6
CONTINUOUS
10
5.89926
20
-3.10118
11
5.90037
21
-3.10174
0
LINE
8
BLACK
6
CONTINUOUS
10
5.90037
20
-3.10174
11
5.9031
21
-3.10174
0
LINE
8
BLACK
6
CONTINUOUS
10
5.9031
20
-3.10174
11
5.90421
21
-3.10118
0
LINE
8
BLACK
6
CONTINUOUS
10
5.90421
20
-3.10118
11
5.90466
21
-3.10074
0
LINE
8
BLACK
6
CONTINUOUS
10
5.90466
20
-3.10074
11
5.90521
21
-3.09963
0
LINE
8
BLACK
6
CONTINUOUS
10
5.90521
20
-3.09963
11
5.90521
21
-3.09689
0
LINE
8
BLACK
6
CONTINUOUS
10
5.90521
20
-3.09689
11
5.90466
21
-3.09578
0
LINE
8
BLACK
6
CONTINUOUS
10
5.90466
20
-3.09578
11
5.90421
21
-3.09534
0
LINE
8
BLACK
6
CONTINUOUS
10
5.90421
20
-3.09534
11
5.9031
21
-3.09478
0
LINE
8
BLACK
6
CONTINUOUS
10
5.9031
20
-3.09478
11
5.90037
21
-3.09478
0
LINE
8
BLACK
6
CONTINUOUS
10
5.90037
20
-3.09478
11
5.89926
21
-3.09534
0
LINE
8
BLACK
6
CONTINUOUS
10
5.89926
20
-3.0869
11
5.89881
21
-3.08734
0
LINE
8
BLACK
6
CONTINUOUS
10
5.89881
20
-3.08734
11
5.89828
21
-3.08841
0
LINE
8
BLACK
6
CONTINUOUS
10
5.89828
20
-3.08841
11
5.89881
21
-3.08948
0
LINE
8
BLACK
6
CONTINUOUS
10
5.89881
20
-3.08948
11
5.89926
21
-3.08993
0
LINE
8
BLACK
6
CONTINUOUS
10
5.89926
20
-3.08993
11
5.90037
21
-3.09048
0
LINE
8
BLACK
6
CONTINUOUS
10
5.90037
20
-3.09048
11
5.9031
21
-3.09048
0
LINE
8
BLACK
6
CONTINUOUS
10
5.9031
20
-3.09048
11
5.90421
21
-3.08993
0
LINE
8
BLACK
6
CONTINUOUS
10
5.90421
20
-3.08993
11
5.90466
21
-3.08948
0
LINE
8
BLACK
6
CONTINUOUS
10
5.90466
20
-3.08948
11
5.90519
21
-3.08841
0
LINE
8
BLACK
6
CONTINUOUS
10
5.90519
20
-3.08841
11
5.90466
21
-3.08734
0
LINE
8
BLACK
6
CONTINUOUS
10
5.90466
20
-3.08734
11
5.90421
21
-3.08689
0
LINE
8
BLACK
6
CONTINUOUS
10
5.90421
20
-3.08689
11
5.9031
21
-3.08634
0
LINE
8
BLACK
6
CONTINUOUS
10
5.9031
20
-3.08634
11
5.90037
21
-3.08634
0
LINE
8
BLACK
6
CONTINUOUS
10
5.90037
20
-3.08634
11
5.89926
21
-3.0869
0
LINE
8
BLACK
6
CONTINUOUS
10
5.70166
20
-3.11267
11
5.70229
21
-3.11419
0
LINE
8
BLACK
6
CONTINUOUS
10
5.70229
20
-3.11419
11
5.70229
21
-3.13389
0
LINE
8
BLACK
6
CONTINUOUS
10
5.70229
20
-3.13389
11
5.70166
21
-3.13541
0
LINE
8
BLACK
6
CONTINUOUS
10
5.70166
20
-3.13541
11
5.70014
21
-3.13604
0
LINE
8
BLACK
6
CONTINUOUS
10
5.70014
20
-3.13604
11
5.69862
21
-3.13541
0
LINE
8
BLACK
6
CONTINUOUS
10
5.69862
20
-3.13541
11
5.69799
21
-3.13389
0
LINE
8
BLACK
6
CONTINUOUS
10
5.69799
20
-3.13389
11
5.69799
21
-3.13033
0
LINE
8
BLACK
6
CONTINUOUS
10
5.69799
20
-3.13033
11
5.69436
21
-3.13518
0
LINE
8
BLACK
6
CONTINUOUS
10
5.69436
20
-3.13518
11
5.69294
21
-3.13602
0
LINE
8
BLACK
6
CONTINUOUS
10
5.69294
20
-3.13602
11
5.69135
21
-3.13561
0
LINE
8
BLACK
6
CONTINUOUS
10
5.69135
20
-3.13561
11
5.69051
21
-3.13419
0
LINE
8
BLACK
6
CONTINUOUS
10
5.69051
20
-3.13419
11
5.69092
21
-3.1326
0
LINE
8
BLACK
6
CONTINUOUS
10
5.69092
20
-3.1326
11
5.69543
21
-3.12659
0
LINE
8
BLACK
6
CONTINUOUS
10
5.69543
20
-3.12659
11
5.69112
21
-3.12228
0
LINE
8
BLACK
6
CONTINUOUS
10
5.69112
20
-3.12228
11
5.69049
21
-3.12076
0
LINE
8
BLACK
6
CONTINUOUS
10
5.69049
20
-3.12076
11
5.69112
21
-3.11924
0
LINE
8
BLACK
6
CONTINUOUS
10
5.69112
20
-3.11924
11
5.69264
21
-3.11861
0
LINE
8
BLACK
6
CONTINUOUS
10
5.69264
20
-3.11861
11
5.69416
21
-3.11924
0
LINE
8
BLACK
6
CONTINUOUS
10
5.69416
20
-3.11924
11
5.69799
21
-3.12307
0
LINE
8
BLACK
6
CONTINUOUS
10
5.69799
20
-3.12307
11
5.69799
21
-3.11419
0
LINE
8
BLACK
6
CONTINUOUS
10
5.69799
20
-3.11419
11
5.69862
21
-3.11267
0
LINE
8
BLACK
6
CONTINUOUS
10
5.69862
20
-3.11267
11
5.70014
21
-3.11204
0
LINE
8
BLACK
6
CONTINUOUS
10
5.70014
20
-3.11204
11
5.70166
21
-3.11267
0
LINE
8
BLACK
6
CONTINUOUS
10
5.71442
20
-3.11212
11
5.71463
21
-3.11208
0
LINE
8
BLACK
6
CONTINUOUS
10
5.71463
20
-3.11208
11
5.71515
21
-3.11243
0
LINE
8
BLACK
6
CONTINUOUS
10
5.71515
20
-3.11243
11
5.71573
21
-3.11267
0
LINE
8
BLACK
6
CONTINUOUS
10
5.71573
20
-3.11267
11
5.71582
21
-3.11287
0
LINE
8
BLACK
6
CONTINUOUS
10
5.71582
20
-3.11287
11
5.716
21
-3.113
0
LINE
8
BLACK
6
CONTINUOUS
10
5.716
20
-3.113
11
5.71776
21
-3.11563
0
LINE
8
BLACK
6
CONTINUOUS
10
5.71776
20
-3.11563
11
5.71924
21
-3.11711
0
LINE
8
BLACK
6
CONTINUOUS
10
5.71924
20
-3.11711
11
5.7208
21
-3.1179
0
LINE
8
BLACK
6
CONTINUOUS
10
5.7208
20
-3.1179
11
5.72188
21
-3.11914
0
LINE
8
BLACK
6
CONTINUOUS
10
5.72188
20
-3.11914
11
5.72176
21
-3.12078
0
LINE
8
BLACK
6
CONTINUOUS
10
5.72176
20
-3.12078
11
5.72052
21
-3.12186
0
LINE
8
BLACK
6
CONTINUOUS
10
5.72052
20
-3.12186
11
5.71888
21
-3.12174
0
LINE
8
BLACK
6
CONTINUOUS
10
5.71888
20
-3.12174
11
5.717
21
-3.1208
0
LINE
8
BLACK
6
CONTINUOUS
10
5.717
20
-3.1208
11
5.71677
21
-3.12054
0
LINE
8
BLACK
6
CONTINUOUS
10
5.71677
20
-3.12054
11
5.71644
21
-3.1204
0
LINE
8
BLACK
6
CONTINUOUS
10
5.71644
20
-3.1204
11
5.71636
21
-3.12032
0
LINE
8
BLACK
6
CONTINUOUS
10
5.71636
20
-3.12032
11
5.71636
21
-3.13174
0
LINE
8
BLACK
6
CONTINUOUS
10
5.71636
20
-3.13174
11
5.71984
21
-3.13174
0
LINE
8
BLACK
6
CONTINUOUS
10
5.71984
20
-3.13174
11
5.72136
21
-3.13237
0
LINE
8
BLACK
6
CONTINUOUS
10
5.72136
20
-3.13237
11
5.72199
21
-3.13389
0
LINE
8
BLACK
6
CONTINUOUS
10
5.72199
20
-3.13389
11
5.72136
21
-3.13541
0
LINE
8
BLACK
6
CONTINUOUS
10
5.72136
20
-3.13541
11
5.71984
21
-3.13604
0
LINE
8
BLACK
6
CONTINUOUS
10
5.71984
20
-3.13604
11
5.71421
21
-3.13604
0
LINE
8
BLACK
6
CONTINUOUS
10
5.71421
20
-3.13604
11
5.70858
21
-3.13604
0
LINE
8
BLACK
6
CONTINUOUS
10
5.70858
20
-3.13604
11
5.70706
21
-3.13541
0
LINE
8
BLACK
6
CONTINUOUS
10
5.70706
20
-3.13541
11
5.70643
21
-3.13389
0
LINE
8
BLACK
6
CONTINUOUS
10
5.70643
20
-3.13389
11
5.70706
21
-3.13237
0
LINE
8
BLACK
6
CONTINUOUS
10
5.70706
20
-3.13237
11
5.70858
21
-3.13174
0
LINE
8
BLACK
6
CONTINUOUS
10
5.70858
20
-3.13174
11
5.71206
21
-3.13174
0
LINE
8
BLACK
6
CONTINUOUS
10
5.71206
20
-3.13174
11
5.71206
21
-3.11419
0
LINE
8
BLACK
6
CONTINUOUS
10
5.71206
20
-3.11419
11
5.71215
21
-3.11399
0
LINE
8
BLACK
6
CONTINUOUS
10
5.71215
20
-3.11399
11
5.7121
21
-3.11377
0
LINE
8
BLACK
6
CONTINUOUS
10
5.7121
20
-3.11377
11
5.71245
21
-3.11325
0
LINE
8
BLACK
6
CONTINUOUS
10
5.71245
20
-3.11325
11
5.71269
21
-3.11267
0
LINE
8
BLACK
6
CONTINUOUS
10
5.71269
20
-3.11267
11
5.7129
21
-3.11258
0
LINE
8
BLACK
6
CONTINUOUS
10
5.7129
20
-3.11258
11
5.71302
21
-3.1124
0
LINE
8
BLACK
6
CONTINUOUS
10
5.71302
20
-3.1124
11
5.71363
21
-3.11228
0
LINE
8
BLACK
6
CONTINUOUS
10
5.71363
20
-3.11228
11
5.71421
21
-3.11204
0
LINE
8
BLACK
6
CONTINUOUS
10
5.71421
20
-3.11204
11
5.71442
21
-3.11212
0
LINE
8
BLACK
6
CONTINUOUS
10
5.73318
20
-3.11212
11
5.7334
21
-3.11208
0
LINE
8
BLACK
6
CONTINUOUS
10
5.7334
20
-3.11208
11
5.73392
21
-3.11243
0
LINE
8
BLACK
6
CONTINUOUS
10
5.73392
20
-3.11243
11
5.73449
21
-3.11267
0
LINE
8
BLACK
6
CONTINUOUS
10
5.73449
20
-3.11267
11
5.73458
21
-3.11287
0
LINE
8
BLACK
6
CONTINUOUS
10
5.73458
20
-3.11287
11
5.73476
21
-3.113
0
LINE
8
BLACK
6
CONTINUOUS
10
5.73476
20
-3.113
11
5.73652
21
-3.11563
0
LINE
8
BLACK
6
CONTINUOUS
10
5.73652
20
-3.11563
11
5.738
21
-3.11711
0
LINE
8
BLACK
6
CONTINUOUS
10
5.738
20
-3.11711
11
5.73956
21
-3.1179
0
LINE
8
BLACK
6
CONTINUOUS
10
5.73956
20
-3.1179
11
5.74064
21
-3.11914
0
LINE
8
BLACK
6
CONTINUOUS
10
5.74064
20
-3.11914
11
5.74053
21
-3.12078
0
LINE
8
BLACK
6
CONTINUOUS
10
5.74053
20
-3.12078
11
5.73928
21
-3.12186
0
LINE
8
BLACK
6
CONTINUOUS
10
5.73928
20
-3.12186
11
5.73764
21
-3.12174
0
LINE
8
BLACK
6
CONTINUOUS
10
5.73764
20
-3.12174
11
5.73576
21
-3.1208
0
LINE
8
BLACK
6
CONTINUOUS
10
5.73576
20
-3.1208
11
5.73553
21
-3.12054
0
LINE
8
BLACK
6
CONTINUOUS
10
5.73553
20
-3.12054
11
5.73521
21
-3.1204
0
LINE
8
BLACK
6
CONTINUOUS
10
5.73521
20
-3.1204
11
5.73512
21
-3.12032
0
LINE
8
BLACK
6
CONTINUOUS
10
5.73512
20
-3.12032
11
5.73512
21
-3.13174
0
LINE
8
BLACK
6
CONTINUOUS
10
5.73512
20
-3.13174
11
5.7386
21
-3.13174
0
LINE
8
BLACK
6
CONTINUOUS
10
5.7386
20
-3.13174
11
5.74012
21
-3.13237
0
LINE
8
BLACK
6
CONTINUOUS
10
5.74012
20
-3.13237
11
5.74075
21
-3.13389
0
LINE
8
BLACK
6
CONTINUOUS
10
5.74075
20
-3.13389
11
5.74012
21
-3.13541
0
LINE
8
BLACK
6
CONTINUOUS
10
5.74012
20
-3.13541
11
5.7386
21
-3.13604
0
LINE
8
BLACK
6
CONTINUOUS
10
5.7386
20
-3.13604
11
5.73297
21
-3.13604
0
LINE
8
BLACK
6
CONTINUOUS
10
5.73297
20
-3.13604
11
5.72735
21
-3.13604
0
LINE
8
BLACK
6
CONTINUOUS
10
5.72735
20
-3.13604
11
5.72582
21
-3.13541
0
LINE
8
BLACK
6
CONTINUOUS
10
5.72582
20
-3.13541
11
5.7252
21
-3.13389
0
LINE
8
BLACK
6
CONTINUOUS
10
5.7252
20
-3.13389
11
5.72582
21
-3.13237
0
LINE
8
BLACK
6
CONTINUOUS
10
5.72582
20
-3.13237
11
5.72735
21
-3.13174
0
LINE
8
BLACK
6
CONTINUOUS
10
5.72735
20
-3.13174
11
5.73082
21
-3.13174
0
LINE
8
BLACK
6
CONTINUOUS
10
5.73082
20
-3.13174
11
5.73082
21
-3.11419
0
LINE
8
BLACK
6
CONTINUOUS
10
5.73082
20
-3.11419
11
5.73091
21
-3.11399
0
LINE
8
BLACK
6
CONTINUOUS
10
5.73091
20
-3.11399
11
5.73087
21
-3.11377
0
LINE
8
BLACK
6
CONTINUOUS
10
5.73087
20
-3.11377
11
5.73121
21
-3.11325
0
LINE
8
BLACK
6
CONTINUOUS
10
5.73121
20
-3.11325
11
5.73145
21
-3.11267
0
LINE
8
BLACK
6
CONTINUOUS
10
5.73145
20
-3.11267
11
5.73166
21
-3.11258
0
LINE
8
BLACK
6
CONTINUOUS
10
5.73166
20
-3.11258
11
5.73178
21
-3.1124
0
LINE
8
BLACK
6
CONTINUOUS
10
5.73178
20
-3.1124
11
5.7324
21
-3.11228
0
LINE
8
BLACK
6
CONTINUOUS
10
5.7324
20
-3.11228
11
5.73297
21
-3.11204
0
LINE
8
BLACK
6
CONTINUOUS
10
5.73297
20
-3.11204
11
5.73318
21
-3.11212
0
LINE
8
BLACK
6
CONTINUOUS
10
5.75709
20
-3.11232
11
5.75779
21
-3.11253
0
LINE
8
BLACK
6
CONTINUOUS
10
5.75779
20
-3.11253
11
5.75784
21
-3.11263
0
LINE
8
BLACK
6
CONTINUOUS
10
5.75784
20
-3.11263
11
5.75795
21
-3.11267
0
LINE
8
BLACK
6
CONTINUOUS
10
5.75795
20
-3.11267
11
5.75822
21
-3.11334
0
LINE
8
BLACK
6
CONTINUOUS
10
5.75822
20
-3.11334
11
5.75857
21
-3.11398
0
LINE
8
BLACK
6
CONTINUOUS
10
5.75857
20
-3.11398
11
5.7595
21
-3.12336
0
LINE
8
BLACK
6
CONTINUOUS
10
5.7595
20
-3.12336
11
5.75947
21
-3.12347
0
LINE
8
BLACK
6
CONTINUOUS
10
5.75947
20
-3.12347
11
5.75951
21
-3.12357
0
LINE
8
BLACK
6
CONTINUOUS
10
5.75951
20
-3.12357
11
5.75924
21
-3.12424
0
LINE
8
BLACK
6
CONTINUOUS
10
5.75924
20
-3.12424
11
5.75903
21
-3.12493
0
LINE
8
BLACK
6
CONTINUOUS
10
5.75903
20
-3.12493
11
5.75893
21
-3.12499
0
LINE
8
BLACK
6
CONTINUOUS
10
5.75893
20
-3.12499
11
5.75888
21
-3.12509
0
LINE
8
BLACK
6
CONTINUOUS
10
5.75888
20
-3.12509
11
5.75822
21
-3.12537
0
LINE
8
BLACK
6
CONTINUOUS
10
5.75822
20
-3.12537
11
5.75758
21
-3.12571
0
LINE
8
BLACK
6
CONTINUOUS
10
5.75758
20
-3.12571
11
5.75747
21
-3.12568
0
LINE
8
BLACK
6
CONTINUOUS
10
5.75747
20
-3.12568
11
5.75736
21
-3.12572
0
LINE
8
BLACK
6
CONTINUOUS
10
5.75736
20
-3.12572
11
5.7567
21
-3.12544
0
LINE
8
BLACK
6
CONTINUOUS
10
5.7567
20
-3.12544
11
5.756
21
-3.12523
0
LINE
8
BLACK
6
CONTINUOUS
10
5.756
20
-3.12523
11
5.75595
21
-3.12513
0
LINE
8
BLACK
6
CONTINUOUS
10
5.75595
20
-3.12513
11
5.75584
21
-3.12509
0
LINE
8
BLACK
6
CONTINUOUS
10
5.75584
20
-3.12509
11
5.75515
21
-3.1244
0
LINE
8
BLACK
6
CONTINUOUS
10
5.75515
20
-3.1244
11
5.75404
21
-3.12384
0
LINE
8
BLACK
6
CONTINUOUS
10
5.75404
20
-3.12384
11
5.75037
21
-3.12384
0
LINE
8
BLACK
6
CONTINUOUS
10
5.75037
20
-3.12384
11
5.74926
21
-3.1244
0
LINE
8
BLACK
6
CONTINUOUS
10
5.74926
20
-3.1244
11
5.74881
21
-3.12484
0
LINE
8
BLACK
6
CONTINUOUS
10
5.74881
20
-3.12484
11
5.74826
21
-3.12595
0
LINE
8
BLACK
6
CONTINUOUS
10
5.74826
20
-3.12595
11
5.74826
21
-3.12963
0
LINE
8
BLACK
6
CONTINUOUS
10
5.74826
20
-3.12963
11
5.74881
21
-3.13074
0
LINE
8
BLACK
6
CONTINUOUS
10
5.74881
20
-3.13074
11
5.74926
21
-3.13118
0
LINE
8
BLACK
6
CONTINUOUS
10
5.74926
20
-3.13118
11
5.75037
21
-3.13174
0
LINE
8
BLACK
6
CONTINUOUS
10
5.75037
20
-3.13174
11
5.75404
21
-3.13174
0
LINE
8
BLACK
6
CONTINUOUS
10
5.75404
20
-3.13174
11
5.75515
21
-3.13118
0
LINE
8
BLACK
6
CONTINUOUS
10
5.75515
20
-3.13118
11
5.75584
21
-3.13049
0
LINE
8
BLACK
6
CONTINUOUS
10
5.75584
20
-3.13049
11
5.75736
21
-3.12986
0
LINE
8
BLACK
6
CONTINUOUS
10
5.75736
20
-3.12986
11
5.75888
21
-3.13049
0
LINE
8
BLACK
6
CONTINUOUS
10
5.75888
20
-3.13049
11
5.75951
21
-3.13201
0
LINE
8
BLACK
6
CONTINUOUS
10
5.75951
20
-3.13201
11
5.75888
21
-3.13353
0
LINE
8
BLACK
6
CONTINUOUS
10
5.75888
20
-3.13353
11
5.75795
21
-3.13447
0
LINE
8
BLACK
6
CONTINUOUS
10
5.75795
20
-3.13447
11
5.75762
21
-3.13461
0
LINE
8
BLACK
6
CONTINUOUS
10
5.75762
20
-3.13461
11
5.75739
21
-3.13487
0
LINE
8
BLACK
6
CONTINUOUS
10
5.75739
20
-3.13487
11
5.75551
21
-3.13581
0
LINE
8
BLACK
6
CONTINUOUS
10
5.75551
20
-3.13581
11
5.75501
21
-3.13585
0
LINE
8
BLACK
6
CONTINUOUS
10
5.75501
20
-3.13585
11
5.75455
21
-3.13604
0
LINE
8
BLACK
6
CONTINUOUS
10
5.75455
20
-3.13604
11
5.74986
21
-3.13604
0
LINE
8
BLACK
6
CONTINUOUS
10
5.74986
20
-3.13604
11
5.7494
21
-3.13585
0
LINE
8
BLACK
6
CONTINUOUS
10
5.7494
20
-3.13585
11
5.7489
21
-3.13581
0
LINE
8
BLACK
6
CONTINUOUS
10
5.7489
20
-3.13581
11
5.74702
21
-3.13487
0
LINE
8
BLACK
6
CONTINUOUS
10
5.74702
20
-3.13487
11
5.74679
21
-3.13461
0
LINE
8
BLACK
6
CONTINUOUS
10
5.74679
20
-3.13461
11
5.74646
21
-3.13447
0
LINE
8
BLACK
6
CONTINUOUS
10
5.74646
20
-3.13447
11
5.74552
21
-3.13353
0
LINE
8
BLACK
6
CONTINUOUS
10
5.74552
20
-3.13353
11
5.74539
21
-3.13321
0
LINE
8
BLACK
6
CONTINUOUS
10
5.74539
20
-3.13321
11
5.74512
21
-3.13298
0
LINE
8
BLACK
6
CONTINUOUS
10
5.74512
20
-3.13298
11
5.74418
21
-3.1311
0
LINE
8
BLACK
6
CONTINUOUS
10
5.74418
20
-3.1311
11
5.74415
21
-3.1306
0
LINE
8
BLACK
6
CONTINUOUS
10
5.74415
20
-3.1306
11
5.74396
21
-3.13014
0
LINE
8
BLACK
6
CONTINUOUS
10
5.74396
20
-3.13014
11
5.74396
21
-3.12545
0
LINE
8
BLACK
6
CONTINUOUS
10
5.74396
20
-3.12545
11
5.74415
21
-3.12498
0
LINE
8
BLACK
6
CONTINUOUS
10
5.74415
20
-3.12498
11
5.74418
21
-3.12449
0
LINE
8
BLACK
6
CONTINUOUS
10
5.74418
20
-3.12449
11
5.74512
21
-3.12261
0
LINE
8
BLACK
6
CONTINUOUS
10
5.74512
20
-3.12261
11
5.74539
21
-3.12238
0
LINE
8
BLACK
6
CONTINUOUS
10
5.74539
20
-3.12238
11
5.74552
21
-3.12205
0
LINE
8
BLACK
6
CONTINUOUS
10
5.74552
20
-3.12205
11
5.74646
21
-3.12111
0
LINE
8
BLACK
6
CONTINUOUS
10
5.74646
20
-3.12111
11
5.74679
21
-3.12098
0
LINE
8
BLACK
6
CONTINUOUS
10
5.74679
20
-3.12098
11
5.74702
21
-3.12071
0
LINE
8
BLACK
6
CONTINUOUS
10
5.74702
20
-3.12071
11
5.7489
21
-3.11977
0
LINE
8
BLACK
6
CONTINUOUS
10
5.7489
20
-3.11977
11
5.7494
21
-3.11974
0
LINE
8
BLACK
6
CONTINUOUS
10
5.7494
20
-3.11974
11
5.74986
21
-3.11954
0
LINE
8
BLACK
6
CONTINUOUS
10
5.74986
20
-3.11954
11
5.75455
21
-3.11954
0
LINE
8
BLACK
6
CONTINUOUS
10
5.75455
20
-3.11954
11
5.75481
21
-3.11965
0
LINE
8
BLACK
6
CONTINUOUS
10
5.75481
20
-3.11965
11
5.75448
21
-3.11634
0
LINE
8
BLACK
6
CONTINUOUS
10
5.75448
20
-3.11634
11
5.74705
21
-3.11634
0
LINE
8
BLACK
6
CONTINUOUS
10
5.74705
20
-3.11634
11
5.74552
21
-3.11571
0
LINE
8
BLACK
6
CONTINUOUS
10
5.74552
20
-3.11571
11
5.7449
21
-3.11419
0
LINE
8
BLACK
6
CONTINUOUS
10
5.7449
20
-3.11419
11
5.74552
21
-3.11267
0
LINE
8
BLACK
6
CONTINUOUS
10
5.74552
20
-3.11267
11
5.74705
21
-3.11204
0
LINE
8
BLACK
6
CONTINUOUS
10
5.74705
20
-3.11204
11
5.75643
21
-3.11204
0
LINE
8
BLACK
6
CONTINUOUS
10
5.75643
20
-3.11204
11
5.75709
21
-3.11232
0
LINE
8
BLACK
6
CONTINUOUS
10
5.61541
20
-3.11926
11
5.61604
21
-3.12078
0
LINE
8
BLACK
6
CONTINUOUS
10
5.61604
20
-3.12078
11
5.61604
21
-3.13204
0
LINE
8
BLACK
6
CONTINUOUS
10
5.61604
20
-3.13204
11
5.61541
21
-3.13356
0
LINE
8
BLACK
6
CONTINUOUS
10
5.61541
20
-3.13356
11
5.61389
21
-3.13419
0
LINE
8
BLACK
6
CONTINUOUS
10
5.61389
20
-3.13419
11
5.61237
21
-3.13356
0
LINE
8
BLACK
6
CONTINUOUS
10
5.61237
20
-3.13356
11
5.61174
21
-3.13204
0
LINE
8
BLACK
6
CONTINUOUS
10
5.61174
20
-3.13204
11
5.61174
21
-3.12856
0
LINE
8
BLACK
6
CONTINUOUS
10
5.61174
20
-3.12856
11
5.59419
21
-3.12856
0
LINE
8
BLACK
6
CONTINUOUS
10
5.59419
20
-3.12856
11
5.59399
21
-3.12847
0
LINE
8
BLACK
6
CONTINUOUS
10
5.59399
20
-3.12847
11
5.59377
21
-3.12852
0
LINE
8
BLACK
6
CONTINUOUS
10
5.59377
20
-3.12852
11
5.59325
21
-3.12817
0
LINE
8
BLACK
6
CONTINUOUS
10
5.59325
20
-3.12817
11
5.59267
21
-3.12793
0
LINE
8
BLACK
6
CONTINUOUS
10
5.59267
20
-3.12793
11
5.59258
21
-3.12772
0
LINE
8
BLACK
6
CONTINUOUS
10
5.59258
20
-3.12772
11
5.5924
21
-3.1276
0
LINE
8
BLACK
6
CONTINUOUS
10
5.5924
20
-3.1276
11
5.59228
21
-3.12699
0
LINE
8
BLACK
6
CONTINUOUS
10
5.59228
20
-3.12699
11
5.59204
21
-3.12641
0
LINE
8
BLACK
6
CONTINUOUS
10
5.59204
20
-3.12641
11
5.59212
21
-3.1262
0
LINE
8
BLACK
6
CONTINUOUS
10
5.59212
20
-3.1262
11
5.59208
21
-3.12599
0
LINE
8
BLACK
6
CONTINUOUS
10
5.59208
20
-3.12599
11
5.59243
21
-3.12547
0
LINE
8
BLACK
6
CONTINUOUS
10
5.59243
20
-3.12547
11
5.59267
21
-3.12489
0
LINE
8
BLACK
6
CONTINUOUS
10
5.59267
20
-3.12489
11
5.59287
21
-3.1248
0
LINE
8
BLACK
6
CONTINUOUS
10
5.59287
20
-3.1248
11
5.593
21
-3.12462
0
LINE
8
BLACK
6
CONTINUOUS
10
5.593
20
-3.12462
11
5.59563
21
-3.12286
0
LINE
8
BLACK
6
CONTINUOUS
10
5.59563
20
-3.12286
11
5.59711
21
-3.12138
0
LINE
8
BLACK
6
CONTINUOUS
10
5.59711
20
-3.12138
11
5.5979
21
-3.11982
0
LINE
8
BLACK
6
CONTINUOUS
10
5.5979
20
-3.11982
11
5.59914
21
-3.11874
0
LINE
8
BLACK
6
CONTINUOUS
10
5.59914
20
-3.11874
11
5.60078
21
-3.11886
0
LINE
8
BLACK
6
CONTINUOUS
10
5.60078
20
-3.11886
11
5.60186
21
-3.1201
0
LINE
8
BLACK
6
CONTINUOUS
10
5.60186
20
-3.1201
11
5.60174
21
-3.12174
0
LINE
8
BLACK
6
CONTINUOUS
10
5.60174
20
-3.12174
11
5.6008
21
-3.12362
0
LINE
8
BLACK
6
CONTINUOUS
10
5.6008
20
-3.12362
11
5.60054
21
-3.12385
0
LINE
8
BLACK
6
CONTINUOUS
10
5.60054
20
-3.12385
11
5.6004
21
-3.12418
0
LINE
8
BLACK
6
CONTINUOUS
10
5.6004
20
-3.12418
11
5.60032
21
-3.12426
0
LINE
8
BLACK
6
CONTINUOUS
10
5.60032
20
-3.12426
11
5.61174
21
-3.12426
0
LINE
8
BLACK
6
CONTINUOUS
10
5.61174
20
-3.12426
11
5.61174
21
-3.12078
0
LINE
8
BLACK
6
CONTINUOUS
10
5.61174
20
-3.12078
11
5.61237
21
-3.11926
0
LINE
8
BLACK
6
CONTINUOUS
10
5.61237
20
-3.11926
11
5.61389
21
-3.11863
0
LINE
8
BLACK
6
CONTINUOUS
10
5.61389
20
-3.11863
11
5.61541
21
-3.11926
0
LINE
8
BLACK
6
CONTINUOUS
10
5.86824
20
-3.11017
11
5.86887
21
-3.11169
0
LINE
8
BLACK
6
CONTINUOUS
10
5.86887
20
-3.11169
11
5.86824
21
-3.11321
0
LINE
8
BLACK
6
CONTINUOUS
10
5.86824
20
-3.11321
11
5.86672
21
-3.11384
0
LINE
8
BLACK
6
CONTINUOUS
10
5.86672
20
-3.11384
11
5.85926
21
-3.11384
0
LINE
8
BLACK
6
CONTINUOUS
10
5.85926
20
-3.11384
11
5.86271
21
-3.11778
0
LINE
8
BLACK
6
CONTINUOUS
10
5.86271
20
-3.11778
11
5.86295
21
-3.1185
0
LINE
8
BLACK
6
CONTINUOUS
10
5.86295
20
-3.1185
11
5.86324
21
-3.11919
0
LINE
8
BLACK
6
CONTINUOUS
10
5.86324
20
-3.11919
11
5.86321
21
-3.11927
0
LINE
8
BLACK
6
CONTINUOUS
10
5.86321
20
-3.11927
11
5.86323
21
-3.11934
0
LINE
8
BLACK
6
CONTINUOUS
10
5.86323
20
-3.11934
11
5.8629
21
-3.12002
0
LINE
8
BLACK
6
CONTINUOUS
10
5.8629
20
-3.12002
11
5.86261
21
-3.12072
0
LINE
8
BLACK
6
CONTINUOUS
10
5.86261
20
-3.12072
11
5.86254
21
-3.12074
0
LINE
8
BLACK
6
CONTINUOUS
10
5.86254
20
-3.12074
11
5.8625
21
-3.12081
0
LINE
8
BLACK
6
CONTINUOUS
10
5.8625
20
-3.12081
11
5.86179
21
-3.12106
0
LINE
8
BLACK
6
CONTINUOUS
10
5.86179
20
-3.12106
11
5.86109
21
-3.12134
0
LINE
8
BLACK
6
CONTINUOUS
10
5.86109
20
-3.12134
11
5.85878
21
-3.12134
0
LINE
8
BLACK
6
CONTINUOUS
10
5.85878
20
-3.12134
11
5.85767
21
-3.1219
0
LINE
8
BLACK
6
CONTINUOUS
10
5.85767
20
-3.1219
11
5.85723
21
-3.12234
0
LINE
8
BLACK
6
CONTINUOUS
10
5.85723
20
-3.12234
11
5.85667
21
-3.12345
0
LINE
8
BLACK
6
CONTINUOUS
10
5.85667
20
-3.12345
11
5.85667
21
-3.12713
0
LINE
8
BLACK
6
CONTINUOUS
10
5.85667
20
-3.12713
11
5.85723
21
-3.12824
0
LINE
8
BLACK
6
CONTINUOUS
10
5.85723
20
-3.12824
11
5.85767
21
-3.12868
0
LINE
8
BLACK
6
CONTINUOUS
10
5.85767
20
-3.12868
11
5.85878
21
-3.12924
0
LINE
8
BLACK
6
CONTINUOUS
10
5.85878
20
-3.12924
11
5.86339
21
-3.12924
0
LINE
8
BLACK
6
CONTINUOUS
10
5.86339
20
-3.12924
11
5.86451
21
-3.12868
0
LINE
8
BLACK
6
CONTINUOUS
10
5.86451
20
-3.12868
11
5.8652
21
-3.12799
0
LINE
8
BLACK
6
CONTINUOUS
10
5.8652
20
-3.12799
11
5.86672
21
-3.12736
0
LINE
8
BLACK
6
CONTINUOUS
10
5.86672
20
-3.12736
11
5.86824
21
-3.12799
0
LINE
8
BLACK
6
CONTINUOUS
10
5.86824
20
-3.12799
11
5.86887
21
-3.12951
0
LINE
8
BLACK
6
CONTINUOUS
10
5.86887
20
-3.12951
11
5.86824
21
-3.13103
0
LINE
8
BLACK
6
CONTINUOUS
10
5.86824
20
-3.13103
11
5.8673
21
-3.13197
0
LINE
8
BLACK
6
CONTINUOUS
10
5.8673
20
-3.13197
11
5.86697
21
-3.13211
0
LINE
8
BLACK
6
CONTINUOUS
10
5.86697
20
-3.13211
11
5.86674
21
-3.13237
0
LINE
8
BLACK
6
CONTINUOUS
10
5.86674
20
-3.13237
11
5.86486
21
-3.13331
0
LINE
8
BLACK
6
CONTINUOUS
10
5.86486
20
-3.13331
11
5.86436
21
-3.13335
0
LINE
8
BLACK
6
CONTINUOUS
10
5.86436
20
-3.13335
11
5.8639
21
-3.13354
0
LINE
8
BLACK
6
CONTINUOUS
10
5.8639
20
-3.13354
11
5.85827
21
-3.13354
0
LINE
8
BLACK
6
CONTINUOUS
10
5.85827
20
-3.13354
11
5.85781
21
-3.13335
0
LINE
8
BLACK
6
CONTINUOUS
10
5.85781
20
-3.13335
11
5.85731
21
-3.13331
0
LINE
8
BLACK
6
CONTINUOUS
10
5.85731
20
-3.13331
11
5.85544
21
-3.13237
0
LINE
8
BLACK
6
CONTINUOUS
10
5.85544
20
-3.13237
11
5.8552
21
-3.13211
0
LINE
8
BLACK
6
CONTINUOUS
10
5.8552
20
-3.13211
11
5.85488
21
-3.13197
0
LINE
8
BLACK
6
CONTINUOUS
10
5.85488
20
-3.13197
11
5.85394
21
-3.13103
0
LINE
8
BLACK
6
CONTINUOUS
10
5.85394
20
-3.13103
11
5.8538
21
-3.13071
0
LINE
8
BLACK
6
CONTINUOUS
10
5.8538
20
-3.13071
11
5.85354
21
-3.13048
0
LINE
8
BLACK
6
CONTINUOUS
10
5.85354
20
-3.13048
11
5.8526
21
-3.1286
0
LINE
8
BLACK
6
CONTINUOUS
10
5.8526
20
-3.1286
11
5.85256
21
-3.1281
0
LINE
8
BLACK
6
CONTINUOUS
10
5.85256
20
-3.1281
11
5.85237
21
-3.12764
0
LINE
8
BLACK
6
CONTINUOUS
10
5.85237
20
-3.12764
11
5.85237
21
-3.12295
0
LINE
8
BLACK
6
CONTINUOUS
10
5.85237
20
-3.12295
11
5.85256
21
-3.12248
0
LINE
8
BLACK
6
CONTINUOUS
10
5.85256
20
-3.12248
11
5.8526
21
-3.12199
0
LINE
8
BLACK
6
CONTINUOUS
10
5.8526
20
-3.12199
11
5.85354
21
-3.12011
0
LINE
8
BLACK
6
CONTINUOUS
10
5.85354
20
-3.12011
11
5.8538
21
-3.11988
0
LINE
8
BLACK
6
CONTINUOUS
10
5.8538
20
-3.11988
11
5.85394
21
-3.11955
0
LINE
8
BLACK
6
CONTINUOUS
10
5.85394
20
-3.11955
11
5.85488
21
-3.11861
0
LINE
8
BLACK
6
CONTINUOUS
10
5.85488
20
-3.11861
11
5.8552
21
-3.11848
0
LINE
8
BLACK
6
CONTINUOUS
10
5.8552
20
-3.11848
11
5.85544
21
-3.11821
0
LINE
8
BLACK
6
CONTINUOUS
10
5.85544
20
-3.11821
11
5.85678
21
-3.11754
0
LINE
8
BLACK
6
CONTINUOUS
10
5.85678
20
-3.11754
11
5.8529
21
-3.11311
0
LINE
8
BLACK
6
CONTINUOUS
10
5.8529
20
-3.11311
11
5.85266
21
-3.11239
0
LINE
8
BLACK
6
CONTINUOUS
10
5.85266
20
-3.11239
11
5.85237
21
-3.11169
0
LINE
8
BLACK
6
CONTINUOUS
10
5.85237
20
-3.11169
11
5.8524
21
-3.11162
0
LINE
8
BLACK
6
CONTINUOUS
10
5.8524
20
-3.11162
11
5.85238
21
-3.11155
0
LINE
8
BLACK
6
CONTINUOUS
10
5.85238
20
-3.11155
11
5.85271
21
-3.11087
0
LINE
8
BLACK
6
CONTINUOUS
10
5.85271
20
-3.11087
11
5.853
21
-3.11017
0
LINE
8
BLACK
6
CONTINUOUS
10
5.853
20
-3.11017
11
5.85307
21
-3.11014
0
LINE
8
BLACK
6
CONTINUOUS
10
5.85307
20
-3.11014
11
5.85311
21
-3.11007
0
LINE
8
BLACK
6
CONTINUOUS
10
5.85311
20
-3.11007
11
5.85382
21
-3.10983
0
LINE
8
BLACK
6
CONTINUOUS
10
5.85382
20
-3.10983
11
5.85452
21
-3.10954
0
LINE
8
BLACK
6
CONTINUOUS
10
5.85452
20
-3.10954
11
5.86672
21
-3.10954
0
LINE
8
BLACK
6
CONTINUOUS
10
5.86672
20
-3.10954
11
5.86824
21
-3.11017
0
LINE
8
BLACK
6
CONTINUOUS
10
5.88606
20
-3.11017
11
5.88669
21
-3.11169
0
LINE
8
BLACK
6
CONTINUOUS
10
5.88669
20
-3.11169
11
5.88669
21
-3.13139
0
LINE
8
BLACK
6
CONTINUOUS
10
5.88669
20
-3.13139
11
5.88606
21
-3.13291
0
LINE
8
BLACK
6
CONTINUOUS
10
5.88606
20
-3.13291
11
5.88454
21
-3.13354
0
LINE
8
BLACK
6
CONTINUOUS
10
5.88454
20
-3.13354
11
5.88302
21
-3.13291
0
LINE
8
BLACK
6
CONTINUOUS
10
5.88302
20
-3.13291
11
5.88239
21
-3.13139
0
LINE
8
BLACK
6
CONTINUOUS
10
5.88239
20
-3.13139
11
5.88239
21
-3.12416
0
LINE
8
BLACK
6
CONTINUOUS
10
5.88239
20
-3.12416
11
5.88097
21
-3.12416
0
LINE
8
BLACK
6
CONTINUOUS
10
5.88097
20
-3.12416
11
5.87504
21
-3.13262
0
LINE
8
BLACK
6
CONTINUOUS
10
5.87504
20
-3.13262
11
5.87366
21
-3.13351
0
LINE
8
BLACK
6
CONTINUOUS
10
5.87366
20
-3.13351
11
5.87205
21
-3.13315
0
LINE
8
BLACK
6
CONTINUOUS
10
5.87205
20
-3.13315
11
5.87117
21
-3.13176
0
LINE
8
BLACK
6
CONTINUOUS
10
5.87117
20
-3.13176
11
5.87152
21
-3.13016
0
LINE
8
BLACK
6
CONTINUOUS
10
5.87152
20
-3.13016
11
5.87593
21
-3.12386
0
LINE
8
BLACK
6
CONTINUOUS
10
5.87593
20
-3.12386
11
5.8742
21
-3.12299
0
LINE
8
BLACK
6
CONTINUOUS
10
5.8742
20
-3.12299
11
5.87397
21
-3.12273
0
LINE
8
BLACK
6
CONTINUOUS
10
5.87397
20
-3.12273
11
5.87364
21
-3.12259
0
LINE
8
BLACK
6
CONTINUOUS
10
5.87364
20
-3.12259
11
5.8727
21
-3.12165
0
LINE
8
BLACK
6
CONTINUOUS
10
5.8727
20
-3.12165
11
5.87257
21
-3.12133
0
LINE
8
BLACK
6
CONTINUOUS
10
5.87257
20
-3.12133
11
5.8723
21
-3.12109
0
LINE
8
BLACK
6
CONTINUOUS
10
5.8723
20
-3.12109
11
5.87136
21
-3.11922
0
LINE
8
BLACK
6
CONTINUOUS
10
5.87136
20
-3.11922
11
5.87132
21
-3.11872
0
LINE
8
BLACK
6
CONTINUOUS
10
5.87132
20
-3.11872
11
5.87113
21
-3.11826
0
LINE
8
BLACK
6
CONTINUOUS
10
5.87113
20
-3.11826
11
5.87113
21
-3.11544
0
LINE
8
BLACK
6
CONTINUOUS
10
5.87113
20
-3.11544
11
5.87132
21
-3.11498
0
LINE
8
BLACK
6
CONTINUOUS
10
5.87132
20
-3.11498
11
5.87136
21
-3.11448
0
LINE
8
BLACK
6
CONTINUOUS
10
5.87136
20
-3.11448
11
5.8723
21
-3.1126
0
LINE
8
BLACK
6
CONTINUOUS
10
5.8723
20
-3.1126
11
5.87257
21
-3.11237
0
LINE
8
BLACK
6
CONTINUOUS
10
5.87257
20
-3.11237
11
5.8727
21
-3.11205
0
LINE
8
BLACK
6
CONTINUOUS
10
5.8727
20
-3.11205
11
5.87364
21
-3.11111
0
LINE
8
BLACK
6
CONTINUOUS
10
5.87364
20
-3.11111
11
5.87397
21
-3.11097
0
LINE
8
BLACK
6
CONTINUOUS
10
5.87397
20
-3.11097
11
5.8742
21
-3.11071
0
LINE
8
BLACK
6
CONTINUOUS
10
5.8742
20
-3.11071
11
5.87607
21
-3.10977
0
LINE
8
BLACK
6
CONTINUOUS
10
5.87607
20
-3.10977
11
5.87657
21
-3.10973
0
LINE
8
BLACK
6
CONTINUOUS
10
5.87657
20
-3.10973
11
5.87704
21
-3.10954
0
LINE
8
BLACK
6
CONTINUOUS
10
5.87704
20
-3.10954
11
5.88454
21
-3.10954
0
LINE
8
BLACK
6
CONTINUOUS
10
5.88454
20
-3.10954
11
5.88606
21
-3.11017
0
LINE
8
BLACK
6
CONTINUOUS
10
5.87643
20
-3.1144
11
5.87599
21
-3.11484
0
LINE
8
BLACK
6
CONTINUOUS
10
5.87599
20
-3.11484
11
5.87543
21
-3.11595
0
LINE
8
BLACK
6
CONTINUOUS
10
5.87543
20
-3.11595
11
5.87543
21
-3.11775
0
LINE
8
BLACK
6
CONTINUOUS
10
5.87543
20
-3.11775
11
5.87599
21
-3.11886
0
LINE
8
BLACK
6
CONTINUOUS
10
5.87599
20
-3.11886
11
5.87643
21
-3.1193
0
LINE
8
BLACK
6
CONTINUOUS
10
5.87643
20
-3.1193
11
5.87754
21
-3.11986
0
LINE
8
BLACK
6
CONTINUOUS
10
5.87754
20
-3.11986
11
5.88239
21
-3.11986
0
LINE
8
BLACK
6
CONTINUOUS
10
5.88239
20
-3.11986
11
5.88239
21
-3.11384
0
LINE
8
BLACK
6
CONTINUOUS
10
5.88239
20
-3.11384
11
5.87754
21
-3.11384
0
LINE
8
BLACK
6
CONTINUOUS
10
5.87754
20
-3.11384
11
5.87643
21
-3.1144
0
LINE
8
BLACK
6
CONTINUOUS
10
5.64291
20
-3.11394
11
5.64354
21
-3.11546
0
LINE
8
BLACK
6
CONTINUOUS
10
5.64354
20
-3.11546
11
5.64291
21
-3.11698
0
LINE
8
BLACK
6
CONTINUOUS
10
5.64291
20
-3.11698
11
5.64139
21
-3.11761
0
LINE
8
BLACK
6
CONTINUOUS
10
5.64139
20
-3.11761
11
5.63416
21
-3.11761
0
LINE
8
BLACK
6
CONTINUOUS
10
5.63416
20
-3.11761
11
5.63416
21
-3.11903
0
LINE
8
BLACK
6
CONTINUOUS
10
5.63416
20
-3.11903
11
5.64262
21
-3.12496
0
LINE
8
BLACK
6
CONTINUOUS
10
5.64262
20
-3.12496
11
5.64351
21
-3.12634
0
LINE
8
BLACK
6
CONTINUOUS
10
5.64351
20
-3.12634
11
5.64315
21
-3.12795
0
LINE
8
BLACK
6
CONTINUOUS
10
5.64315
20
-3.12795
11
5.64176
21
-3.12883
0
LINE
8
BLACK
6
CONTINUOUS
10
5.64176
20
-3.12883
11
5.64016
21
-3.12848
0
LINE
8
BLACK
6
CONTINUOUS
10
5.64016
20
-3.12848
11
5.63386
21
-3.12407
0
LINE
8
BLACK
6
CONTINUOUS
10
5.63386
20
-3.12407
11
5.63299
21
-3.1258
0
LINE
8
BLACK
6
CONTINUOUS
10
5.63299
20
-3.1258
11
5.63273
21
-3.12603
0
LINE
8
BLACK
6
CONTINUOUS
10
5.63273
20
-3.12603
11
5.63259
21
-3.12636
0
LINE
8
BLACK
6
CONTINUOUS
10
5.63259
20
-3.12636
11
5.63165
21
-3.1273
0
LINE
8
BLACK
6
CONTINUOUS
10
5.63165
20
-3.1273
11
5.63133
21
-3.12743
0
LINE
8
BLACK
6
CONTINUOUS
10
5.63133
20
-3.12743
11
5.63109
21
-3.1277
0
LINE
8
BLACK
6
CONTINUOUS
10
5.63109
20
-3.1277
11
5.62922
21
-3.12864
0
LINE
8
BLACK
6
CONTINUOUS
10
5.62922
20
-3.12864
11
5.62872
21
-3.12868
0
LINE
8
BLACK
6
CONTINUOUS
10
5.62872
20
-3.12868
11
5.62826
21
-3.12887
0
LINE
8
BLACK
6
CONTINUOUS
10
5.62826
20
-3.12887
11
5.62544
21
-3.12887
0
LINE
8
BLACK
6
CONTINUOUS
10
5.62544
20
-3.12887
11
5.62498
21
-3.12868
0
LINE
8
BLACK
6
CONTINUOUS
10
5.62498
20
-3.12868
11
5.62448
21
-3.12864
0
LINE
8
BLACK
6
CONTINUOUS
10
5.62448
20
-3.12864
11
5.6226
21
-3.1277
0
LINE
8
BLACK
6
CONTINUOUS
10
5.6226
20
-3.1277
11
5.62237
21
-3.12743
0
LINE
8
BLACK
6
CONTINUOUS
10
5.62237
20
-3.12743
11
5.62205
21
-3.1273
0
LINE
8
BLACK
6
CONTINUOUS
10
5.62205
20
-3.1273
11
5.62111
21
-3.12636
0
LINE
8
BLACK
6
CONTINUOUS
10
5.62111
20
-3.12636
11
5.62097
21
-3.12603
0
LINE
8
BLACK
6
CONTINUOUS
10
5.62097
20
-3.12603
11
5.62071
21
-3.1258
0
LINE
8
BLACK
6
CONTINUOUS
10
5.62071
20
-3.1258
11
5.61977
21
-3.12393
0
LINE
8
BLACK
6
CONTINUOUS
10
5.61977
20
-3.12393
11
5.61973
21
-3.12343
0
LINE
8
BLACK
6
CONTINUOUS
10
5.61973
20
-3.12343
11
5.61954
21
-3.12296
0
LINE
8
BLACK
6
CONTINUOUS
10
5.61954
20
-3.12296
11
5.61954
21
-3.11546
0
LINE
8
BLACK
6
CONTINUOUS
10
5.61954
20
-3.11546
11
5.62017
21
-3.11394
0
LINE
8
BLACK
6
CONTINUOUS
10
5.62017
20
-3.11394
11
5.62169
21
-3.11331
0
LINE
8
BLACK
6
CONTINUOUS
10
5.62169
20
-3.11331
11
5.64139
21
-3.11331
0
LINE
8
BLACK
6
CONTINUOUS
10
5.64139
20
-3.11331
11
5.64291
21
-3.11394
0
LINE
8
BLACK
6
CONTINUOUS
10
5.62384
20
-3.12246
11
5.62439
21
-3.12357
0
LINE
8
BLACK
6
CONTINUOUS
10
5.62439
20
-3.12357
11
5.62484
21
-3.12401
0
LINE
8
BLACK
6
CONTINUOUS
10
5.62484
20
-3.12401
11
5.62595
21
-3.12457
0
LINE
8
BLACK
6
CONTINUOUS
10
5.62595
20
-3.12457
11
5.62775
21
-3.12457
0
LINE
8
BLACK
6
CONTINUOUS
10
5.62775
20
-3.12457
11
5.62886
21
-3.12401
0
LINE
8
BLACK
6
CONTINUOUS
10
5.62886
20
-3.12401
11
5.6293
21
-3.12357
0
LINE
8
BLACK
6
CONTINUOUS
10
5.6293
20
-3.12357
11
5.62986
21
-3.12246
0
LINE
8
BLACK
6
CONTINUOUS
10
5.62986
20
-3.12246
11
5.62986
21
-3.11761
0
LINE
8
BLACK
6
CONTINUOUS
10
5.62986
20
-3.11761
11
5.62384
21
-3.11761
0
LINE
8
BLACK
6
CONTINUOUS
10
5.62384
20
-3.11761
11
5.62384
21
-3.12246
0
LINE
8
BLACK
6
CONTINUOUS
10
5.65038
20
-3.06711
11
5.65051
21
-3.06709
0
LINE
8
BLACK
6
CONTINUOUS
10
5.65051
20
-3.06709
11
5.65063
21
-3.06716
0
LINE
8
BLACK
6
CONTINUOUS
10
5.65063
20
-3.06716
11
5.65101
21
-3.06723
0
LINE
8
BLACK
6
CONTINUOUS
10
5.65101
20
-3.06723
11
5.6516
21
-3.06772
0
LINE
8
BLACK
6
CONTINUOUS
10
5.6516
20
-3.06772
11
5.65226
21
-3.0681
0
LINE
8
BLACK
6
CONTINUOUS
10
5.65226
20
-3.0681
11
5.65235
21
-3.06835
0
LINE
8
BLACK
6
CONTINUOUS
10
5.65235
20
-3.06835
11
5.65256
21
-3.06852
0
LINE
8
BLACK
6
CONTINUOUS
10
5.65256
20
-3.06852
11
5.65269
21
-3.06928
0
LINE
8
BLACK
6
CONTINUOUS
10
5.65269
20
-3.06928
11
5.65295
21
-3.07
0
LINE
8
BLACK
6
CONTINUOUS
10
5.65295
20
-3.07
11
5.65295
21
-3.11
0
LINE
8
BLACK
6
CONTINUOUS
10
5.65295
20
-3.11
11
5.65277
21
-3.11101
0
LINE
8
BLACK
6
CONTINUOUS
10
5.65277
20
-3.11101
11
5.65148
21
-3.11256
0
LINE
8
BLACK
6
CONTINUOUS
10
5.65148
20
-3.11256
11
5.64949
21
-3.11291
0
LINE
8
BLACK
6
CONTINUOUS
10
5.64949
20
-3.11291
11
5.64774
21
-3.1119
0
LINE
8
BLACK
6
CONTINUOUS
10
5.64774
20
-3.1119
11
5.64705
21
-3.11
0
LINE
8
BLACK
6
CONTINUOUS
10
5.64705
20
-3.11
11
5.64705
21
-3.07295
0
LINE
8
BLACK
6
CONTINUOUS
10
5.64705
20
-3.07295
11
5.59295
21
-3.07295
0
LINE
8
BLACK
6
CONTINUOUS
10
5.59295
20
-3.07295
11
5.59295
21
-3.10344
0
LINE
8
BLACK
6
CONTINUOUS
10
5.59295
20
-3.10344
11
5.59321
21
-3.10293
0
LINE
8
BLACK
6
CONTINUOUS
10
5.59321
20
-3.10293
11
5.59347
21
-3.1027
0
LINE
8
BLACK
6
CONTINUOUS
10
5.59347
20
-3.1027
11
5.59361
21
-3.10237
0
LINE
8
BLACK
6
CONTINUOUS
10
5.59361
20
-3.10237
11
5.59455
21
-3.10143
0
LINE
8
BLACK
6
CONTINUOUS
10
5.59455
20
-3.10143
11
5.59487
21
-3.1013
0
LINE
8
BLACK
6
CONTINUOUS
10
5.59487
20
-3.1013
11
5.5951
21
-3.10103
0
LINE
8
BLACK
6
CONTINUOUS
10
5.5951
20
-3.10103
11
5.59698
21
-3.10009
0
LINE
8
BLACK
6
CONTINUOUS
10
5.59698
20
-3.10009
11
5.59748
21
-3.10006
0
LINE
8
BLACK
6
CONTINUOUS
10
5.59748
20
-3.10006
11
5.59794
21
-3.09987
0
LINE
8
BLACK
6
CONTINUOUS
10
5.59794
20
-3.09987
11
5.60263
21
-3.09987
0
LINE
8
BLACK
6
CONTINUOUS
10
5.60263
20
-3.09987
11
5.6031
21
-3.10006
0
LINE
8
BLACK
6
CONTINUOUS
10
5.6031
20
-3.10006
11
5.60359
21
-3.10009
0
LINE
8
BLACK
6
CONTINUOUS
10
5.60359
20
-3.10009
11
5.60547
21
-3.10103
0
LINE
8
BLACK
6
CONTINUOUS
10
5.60547
20
-3.10103
11
5.6057
21
-3.1013
0
LINE
8
BLACK
6
CONTINUOUS
10
5.6057
20
-3.1013
11
5.60603
21
-3.10143
0
LINE
8
BLACK
6
CONTINUOUS
10
5.60603
20
-3.10143
11
5.60697
21
-3.10237
0
LINE
8
BLACK
6
CONTINUOUS
10
5.60697
20
-3.10237
11
5.6071
21
-3.1027
0
LINE
8
BLACK
6
CONTINUOUS
10
5.6071
20
-3.1027
11
5.60737
21
-3.10293
0
LINE
8
BLACK
6
CONTINUOUS
10
5.60737
20
-3.10293
11
5.60831
21
-3.10481
0
LINE
8
BLACK
6
CONTINUOUS
10
5.60831
20
-3.10481
11
5.60834
21
-3.10531
0
LINE
8
BLACK
6
CONTINUOUS
10
5.60834
20
-3.10531
11
5.60854
21
-3.10577
0
LINE
8
BLACK
6
CONTINUOUS
10
5.60854
20
-3.10577
11
5.60854
21
-3.10952
0
LINE
8
BLACK
6
CONTINUOUS
10
5.60854
20
-3.10952
11
5.60834
21
-3.10998
0
LINE
8
BLACK
6
CONTINUOUS
10
5.60834
20
-3.10998
11
5.60832
21
-3.11034
0
LINE
8
BLACK
6
CONTINUOUS
10
5.60832
20
-3.11034
11
5.61064
21
-3.10879
0
LINE
8
BLACK
6
CONTINUOUS
10
5.61064
20
-3.10879
11
5.61118
21
-3.10825
0
LINE
8
BLACK
6
CONTINUOUS
10
5.61118
20
-3.10825
11
5.61174
21
-3.10714
0
LINE
8
BLACK
6
CONTINUOUS
10
5.61174
20
-3.10714
11
5.61174
21
-3.10389
0
LINE
8
BLACK
6
CONTINUOUS
10
5.61174
20
-3.10389
11
5.61237
21
-3.10237
0
LINE
8
BLACK
6
CONTINUOUS
10
5.61237
20
-3.10237
11
5.61389
21
-3.10174
0
LINE
8
BLACK
6
CONTINUOUS
10
5.61389
20
-3.10174
11
5.61541
21
-3.10237
0
LINE
8
BLACK
6
CONTINUOUS
10
5.61541
20
-3.10237
11
5.61604
21
-3.10389
0
LINE
8
BLACK
6
CONTINUOUS
10
5.61604
20
-3.10389
11
5.61604
21
-3.10765
0
LINE
8
BLACK
6
CONTINUOUS
10
5.61604
20
-3.10765
11
5.61585
21
-3.10811
0
LINE
8
BLACK
6
CONTINUOUS
10
5.61585
20
-3.10811
11
5.61581
21
-3.10861
0
LINE
8
BLACK
6
CONTINUOUS
10
5.61581
20
-3.10861
11
5.61487
21
-3.11048
0
LINE
8
BLACK
6
CONTINUOUS
10
5.61487
20
-3.11048
11
5.61461
21
-3.11071
0
LINE
8
BLACK
6
CONTINUOUS
10
5.61461
20
-3.11071
11
5.61447
21
-3.11104
0
LINE
8
BLACK
6
CONTINUOUS
10
5.61447
20
-3.11104
11
5.61353
21
-3.11198
0
LINE
8
BLACK
6
CONTINUOUS
10
5.61353
20
-3.11198
11
5.61333
21
-3.11206
0
LINE
8
BLACK
6
CONTINUOUS
10
5.61333
20
-3.11206
11
5.61321
21
-3.11225
0
LINE
8
BLACK
6
CONTINUOUS
10
5.61321
20
-3.11225
11
5.61039
21
-3.11412
0
LINE
8
BLACK
6
CONTINUOUS
10
5.61039
20
-3.11412
11
5.61002
21
-3.1142
0
LINE
8
BLACK
6
CONTINUOUS
10
5.61002
20
-3.1142
11
5.60972
21
-3.11442
0
LINE
8
BLACK
6
CONTINUOUS
10
5.60972
20
-3.11442
11
5.60597
21
-3.11536
0
LINE
8
BLACK
6
CONTINUOUS
10
5.60597
20
-3.11536
11
5.6057
21
-3.11532
0
LINE
8
BLACK
6
CONTINUOUS
10
5.6057
20
-3.11532
11
5.60545
21
-3.11542
0
LINE
8
BLACK
6
CONTINUOUS
10
5.60545
20
-3.11542
11
5.59794
21
-3.11542
0
LINE
8
BLACK
6
CONTINUOUS
10
5.59794
20
-3.11542
11
5.59748
21
-3.11523
0
LINE
8
BLACK
6
CONTINUOUS
10
5.59748
20
-3.11523
11
5.59698
21
-3.1152
0
LINE
8
BLACK
6
CONTINUOUS
10
5.59698
20
-3.1152
11
5.5951
21
-3.11426
0
LINE
8
BLACK
6
CONTINUOUS
10
5.5951
20
-3.11426
11
5.59487
21
-3.11399
0
LINE
8
BLACK
6
CONTINUOUS
10
5.59487
20
-3.11399
11
5.59455
21
-3.11386
0
LINE
8
BLACK
6
CONTINUOUS
10
5.59455
20
-3.11386
11
5.59361
21
-3.11292
0
LINE
8
BLACK
6
CONTINUOUS
10
5.59361
20
-3.11292
11
5.59347
21
-3.11259
0
LINE
8
BLACK
6
CONTINUOUS
10
5.59347
20
-3.11259
11
5.59321
21
-3.11236
0
LINE
8
BLACK
6
CONTINUOUS
10
5.59321
20
-3.11236
11
5.59262
21
-3.11119
0
LINE
8
BLACK
6
CONTINUOUS
10
5.59262
20
-3.11119
11
5.59148
21
-3.11256
0
LINE
8
BLACK
6
CONTINUOUS
10
5.59148
20
-3.11256
11
5.58949
21
-3.11291
0
LINE
8
BLACK
6
CONTINUOUS
10
5.58949
20
-3.11291
11
5.58774
21
-3.1119
0
LINE
8
BLACK
6
CONTINUOUS
10
5.58774
20
-3.1119
11
5.58705
21
-3.11
0
LINE
8
BLACK
6
CONTINUOUS
10
5.58705
20
-3.11
11
5.58705
21
-3.07
0
LINE
8
BLACK
6
CONTINUOUS
10
5.58705
20
-3.07
11
5.58711
21
-3.06962
0
LINE
8
BLACK
6
CONTINUOUS
10
5.58711
20
-3.06962
11
5.58709
21
-3.06949
0
LINE
8
BLACK
6
CONTINUOUS
10
5.58709
20
-3.06949
11
5.58716
21
-3.06937
0
LINE
8
BLACK
6
CONTINUOUS
10
5.58716
20
-3.06937
11
5.58723
21
-3.06899
0
LINE
8
BLACK
6
CONTINUOUS
10
5.58723
20
-3.06899
11
5.58772
21
-3.0684
0
LINE
8
BLACK
6
CONTINUOUS
10
5.58772
20
-3.0684
11
5.5881
21
-3.06774
0
LINE
8
BLACK
6
CONTINUOUS
10
5.5881
20
-3.06774
11
5.58835
21
-3.06765
0
LINE
8
BLACK
6
CONTINUOUS
10
5.58835
20
-3.06765
11
5.58852
21
-3.06744
0
LINE
8
BLACK
6
CONTINUOUS
10
5.58852
20
-3.06744
11
5.58928
21
-3.06731
0
LINE
8
BLACK
6
CONTINUOUS
10
5.58928
20
-3.06731
11
5.59
21
-3.06705
0
LINE
8
BLACK
6
CONTINUOUS
10
5.59
20
-3.06705
11
5.65
21
-3.06705
0
LINE
8
BLACK
6
CONTINUOUS
10
5.65
20
-3.06705
11
5.65038
21
-3.06711
0
LINE
8
BLACK
6
CONTINUOUS
10
5.59734
20
-3.10472
11
5.59689
21
-3.10517
0
LINE
8
BLACK
6
CONTINUOUS
10
5.59689
20
-3.10517
11
5.59634
21
-3.10628
0
LINE
8
BLACK
6
CONTINUOUS
10
5.59634
20
-3.10628
11
5.59634
21
-3.10901
0
LINE
8
BLACK
6
CONTINUOUS
10
5.59634
20
-3.10901
11
5.5969
21
-3.11012
0
LINE
8
BLACK
6
CONTINUOUS
10
5.5969
20
-3.11012
11
5.59734
21
-3.11057
0
LINE
8
BLACK
6
CONTINUOUS
10
5.59734
20
-3.11057
11
5.59845
21
-3.11112
0
LINE
8
BLACK
6
CONTINUOUS
10
5.59845
20
-3.11112
11
5.60213
21
-3.11112
0
LINE
8
BLACK
6
CONTINUOUS
10
5.60213
20
-3.11112
11
5.60324
21
-3.11057
0
LINE
8
BLACK
6
CONTINUOUS
10
5.60324
20
-3.11057
11
5.60368
21
-3.11012
0
LINE
8
BLACK
6
CONTINUOUS
10
5.60368
20
-3.11012
11
5.60424
21
-3.10901
0
LINE
8
BLACK
6
CONTINUOUS
10
5.60424
20
-3.10901
11
5.60424
21
-3.10628
0
LINE
8
BLACK
6
CONTINUOUS
10
5.60424
20
-3.10628
11
5.60368
21
-3.10517
0
LINE
8
BLACK
6
CONTINUOUS
10
5.60368
20
-3.10517
11
5.60324
21
-3.10472
0
LINE
8
BLACK
6
CONTINUOUS
10
5.60324
20
-3.10472
11
5.60213
21
-3.10417
0
LINE
8
BLACK
6
CONTINUOUS
10
5.60213
20
-3.10417
11
5.59845
21
-3.10417
0
LINE
8
BLACK
6
CONTINUOUS
10
5.59845
20
-3.10417
11
5.59734
21
-3.10472
0
LINE
8
BLACK
6
CONTINUOUS
10
5.72343
20
-3.08473
11
5.72393
21
-3.08477
0
LINE
8
BLACK
6
CONTINUOUS
10
5.72393
20
-3.08477
11
5.7258
21
-3.08571
0
LINE
8
BLACK
6
CONTINUOUS
10
5.7258
20
-3.08571
11
5.72603
21
-3.08597
0
LINE
8
BLACK
6
CONTINUOUS
10
5.72603
20
-3.08597
11
5.72636
21
-3.08611
0
LINE
8
BLACK
6
CONTINUOUS
10
5.72636
20
-3.08611
11
5.7273
21
-3.08705
0
LINE
8
BLACK
6
CONTINUOUS
10
5.7273
20
-3.08705
11
5.72793
21
-3.08857
0
LINE
8
BLACK
6
CONTINUOUS
10
5.72793
20
-3.08857
11
5.7273
21
-3.09009
0
LINE
8
BLACK
6
CONTINUOUS
10
5.7273
20
-3.09009
11
5.72578
21
-3.09072
0
LINE
8
BLACK
6
CONTINUOUS
10
5.72578
20
-3.09072
11
5.72426
21
-3.09009
0
LINE
8
BLACK
6
CONTINUOUS
10
5.72426
20
-3.09009
11
5.72357
21
-3.0894
0
LINE
8
BLACK
6
CONTINUOUS
10
5.72357
20
-3.0894
11
5.72246
21
-3.08884
0
LINE
8
BLACK
6
CONTINUOUS
10
5.72246
20
-3.08884
11
5.71878
21
-3.08884
0
LINE
8
BLACK
6
CONTINUOUS
10
5.71878
20
-3.08884
11
5.71767
21
-3.0894
0
LINE
8
BLACK
6
CONTINUOUS
10
5.71767
20
-3.0894
11
5.71723
21
-3.08984
0
LINE
8
BLACK
6
CONTINUOUS
10
5.71723
20
-3.08984
11
5.71667
21
-3.09095
0
LINE
8
BLACK
6
CONTINUOUS
10
5.71667
20
-3.09095
11
5.71667
21
-3.09197
0
LINE
8
BLACK
6
CONTINUOUS
10
5.71667
20
-3.09197
11
5.71734
21
-3.09397
0
LINE
8
BLACK
6
CONTINUOUS
10
5.71734
20
-3.09397
11
5.72824
21
-3.10487
0
LINE
8
BLACK
6
CONTINUOUS
10
5.72824
20
-3.10487
11
5.72887
21
-3.10639
0
LINE
8
BLACK
6
CONTINUOUS
10
5.72887
20
-3.10639
11
5.72824
21
-3.10791
0
LINE
8
BLACK
6
CONTINUOUS
10
5.72824
20
-3.10791
11
5.72672
21
-3.10854
0
LINE
8
BLACK
6
CONTINUOUS
10
5.72672
20
-3.10854
11
5.71452
21
-3.10854
0
LINE
8
BLACK
6
CONTINUOUS
10
5.71452
20
-3.10854
11
5.713
21
-3.10791
0
LINE
8
BLACK
6
CONTINUOUS
10
5.713
20
-3.10791
11
5.71237
21
-3.10639
0
LINE
8
BLACK
6
CONTINUOUS
10
5.71237
20
-3.10639
11
5.713
21
-3.10487
0
LINE
8
BLACK
6
CONTINUOUS
10
5.713
20
-3.10487
11
5.71452
21
-3.10424
0
LINE
8
BLACK
6
CONTINUOUS
10
5.71452
20
-3.10424
11
5.72153
21
-3.10424
0
LINE
8
BLACK
6
CONTINUOUS
10
5.72153
20
-3.10424
11
5.71394
21
-3.09665
0
LINE
8
BLACK
6
CONTINUOUS
10
5.71394
20
-3.09665
11
5.71375
21
-3.09619
0
LINE
8
BLACK
6
CONTINUOUS
10
5.71375
20
-3.09619
11
5.71342
21
-3.09581
0
LINE
8
BLACK
6
CONTINUOUS
10
5.71342
20
-3.09581
11
5.71248
21
-3.093
0
LINE
8
BLACK
6
CONTINUOUS
10
5.71248
20
-3.093
11
5.71251
21
-3.09265
0
LINE
8
BLACK
6
CONTINUOUS
10
5.71251
20
-3.09265
11
5.71237
21
-3.09232
0
LINE
8
BLACK
6
CONTINUOUS
10
5.71237
20
-3.09232
11
5.71237
21
-3.09044
0
LINE
8
BLACK
6
CONTINUOUS
10
5.71237
20
-3.09044
11
5.71256
21
-3.08998
0
LINE
8
BLACK
6
CONTINUOUS
10
5.71256
20
-3.08998
11
5.7126
21
-3.08948
0
LINE
8
BLACK
6
CONTINUOUS
10
5.7126
20
-3.08948
11
5.71354
21
-3.0876
0
LINE
8
BLACK
6
CONTINUOUS
10
5.71354
20
-3.0876
11
5.7138
21
-3.08737
0
LINE
8
BLACK
6
CONTINUOUS
10
5.7138
20
-3.08737
11
5.71394
21
-3.08705
0
LINE
8
BLACK
6
CONTINUOUS
10
5.71394
20
-3.08705
11
5.71488
21
-3.08611
0
LINE
8
BLACK
6
CONTINUOUS
10
5.71488
20
-3.08611
11
5.7152
21
-3.08597
0
LINE
8
BLACK
6
CONTINUOUS
10
5.7152
20
-3.08597
11
5.71544
21
-3.08571
0
LINE
8
BLACK
6
CONTINUOUS
10
5.71544
20
-3.08571
11
5.71731
21
-3.08477
0
LINE
8
BLACK
6
CONTINUOUS
10
5.71731
20
-3.08477
11
5.71781
21
-3.08473
0
LINE
8
BLACK
6
CONTINUOUS
10
5.71781
20
-3.08473
11
5.71827
21
-3.08454
0
LINE
8
BLACK
6
CONTINUOUS
10
5.71827
20
-3.08454
11
5.72296
21
-3.08454
0
LINE
8
BLACK
6
CONTINUOUS
10
5.72296
20
-3.08454
11
5.72343
21
-3.08473
0
LINE
8
BLACK
6
CONTINUOUS
10
5.74606
20
-3.08517
11
5.74669
21
-3.08669
0
LINE
8
BLACK
6
CONTINUOUS
10
5.74669
20
-3.08669
11
5.74669
21
-3.10639
0
LINE
8
BLACK
6
CONTINUOUS
10
5.74669
20
-3.10639
11
5.74606
21
-3.10791
0
LINE
8
BLACK
6
CONTINUOUS
10
5.74606
20
-3.10791
11
5.74454
21
-3.10854
0
LINE
8
BLACK
6
CONTINUOUS
10
5.74454
20
-3.10854
11
5.74302
21
-3.10791
0
LINE
8
BLACK
6
CONTINUOUS
10
5.74302
20
-3.10791
11
5.74239
21
-3.10639
0
LINE
8
BLACK
6
CONTINUOUS
10
5.74239
20
-3.10639
11
5.74239
21
-3.09916
0
LINE
8
BLACK
6
CONTINUOUS
10
5.74239
20
-3.09916
11
5.74097
21
-3.09916
0
LINE
8
BLACK
6
CONTINUOUS
10
5.74097
20
-3.09916
11
5.73504
21
-3.10762
0
LINE
8
BLACK
6
CONTINUOUS
10
5.73504
20
-3.10762
11
5.73366
21
-3.10851
0
LINE
8
BLACK
6
CONTINUOUS
10
5.73366
20
-3.10851
11
5.73205
21
-3.10815
0
LINE
8
BLACK
6
CONTINUOUS
10
5.73205
20
-3.10815
11
5.73117
21
-3.10676
0
LINE
8
BLACK
6
CONTINUOUS
10
5.73117
20
-3.10676
11
5.73152
21
-3.10516
0
LINE
8
BLACK
6
CONTINUOUS
10
5.73152
20
-3.10516
11
5.73593
21
-3.09886
0
LINE
8
BLACK
6
CONTINUOUS
10
5.73593
20
-3.09886
11
5.7342
21
-3.09799
0
LINE
8
BLACK
6
CONTINUOUS
10
5.7342
20
-3.09799
11
5.73397
21
-3.09773
0
LINE
8
BLACK
6
CONTINUOUS
10
5.73397
20
-3.09773
11
5.73364
21
-3.09759
0
LINE
8
BLACK
6
CONTINUOUS
10
5.73364
20
-3.09759
11
5.7327
21
-3.09665
0
LINE
8
BLACK
6
CONTINUOUS
10
5.7327
20
-3.09665
11
5.73257
21
-3.09633
0
LINE
8
BLACK
6
CONTINUOUS
10
5.73257
20
-3.09633
11
5.7323
21
-3.09609
0
LINE
8
BLACK
6
CONTINUOUS
10
5.7323
20
-3.09609
11
5.73136
21
-3.09422
0
LINE
8
BLACK
6
CONTINUOUS
10
5.73136
20
-3.09422
11
5.73132
21
-3.09372
0
LINE
8
BLACK
6
CONTINUOUS
10
5.73132
20
-3.09372
11
5.73113
21
-3.09326
0
LINE
8
BLACK
6
CONTINUOUS
10
5.73113
20
-3.09326
11
5.73113
21
-3.09044
0
LINE
8
BLACK
6
CONTINUOUS
10
5.73113
20
-3.09044
11
5.73132
21
-3.08998
0
LINE
8
BLACK
6
CONTINUOUS
10
5.73132
20
-3.08998
11
5.73136
21
-3.08948
0
LINE
8
BLACK
6
CONTINUOUS
10
5.73136
20
-3.08948
11
5.7323
21
-3.0876
0
LINE
8
BLACK
6
CONTINUOUS
10
5.7323
20
-3.0876
11
5.73257
21
-3.08737
0
LINE
8
BLACK
6
CONTINUOUS
10
5.73257
20
-3.08737
11
5.7327
21
-3.08705
0
LINE
8
BLACK
6
CONTINUOUS
10
5.7327
20
-3.08705
11
5.73364
21
-3.08611
0
LINE
8
BLACK
6
CONTINUOUS
10
5.73364
20
-3.08611
11
5.73397
21
-3.08597
0
LINE
8
BLACK
6
CONTINUOUS
10
5.73397
20
-3.08597
11
5.7342
21
-3.08571
0
LINE
8
BLACK
6
CONTINUOUS
10
5.7342
20
-3.08571
11
5.73607
21
-3.08477
0
LINE
8
BLACK
6
CONTINUOUS
10
5.73607
20
-3.08477
11
5.73657
21
-3.08473
0
LINE
8
BLACK
6
CONTINUOUS
10
5.73657
20
-3.08473
11
5.73704
21
-3.08454
0
LINE
8
BLACK
6
CONTINUOUS
10
5.73704
20
-3.08454
11
5.74454
21
-3.08454
0
LINE
8
BLACK
6
CONTINUOUS
10
5.74454
20
-3.08454
11
5.74606
21
-3.08517
0
LINE
8
BLACK
6
CONTINUOUS
10
5.73643
20
-3.0894
11
5.73599
21
-3.08984
0
LINE
8
BLACK
6
CONTINUOUS
10
5.73599
20
-3.08984
11
5.73543
21
-3.09095
0
LINE
8
BLACK
6
CONTINUOUS
10
5.73543
20
-3.09095
11
5.73543
21
-3.09275
0
LINE
8
BLACK
6
CONTINUOUS
10
5.73543
20
-3.09275
11
5.73599
21
-3.09386
0
LINE
8
BLACK
6
CONTINUOUS
10
5.73599
20
-3.09386
11
5.73643
21
-3.0943
0
LINE
8
BLACK
6
CONTINUOUS
10
5.73643
20
-3.0943
11
5.73754
21
-3.09486
0
LINE
8
BLACK
6
CONTINUOUS
10
5.73754
20
-3.09486
11
5.74239
21
-3.09486
0
LINE
8
BLACK
6
CONTINUOUS
10
5.74239
20
-3.09486
11
5.74239
21
-3.08884
0
LINE
8
BLACK
6
CONTINUOUS
10
5.74239
20
-3.08884
11
5.73754
21
-3.08884
0
LINE
8
BLACK
6
CONTINUOUS
10
5.73754
20
-3.08884
11
5.73643
21
-3.0894
0
LINE
8
BLACK
6
CONTINUOUS
10
5.86467
20
-3.08223
11
5.86517
21
-3.08227
0
LINE
8
BLACK
6
CONTINUOUS
10
5.86517
20
-3.08227
11
5.86705
21
-3.08321
0
LINE
8
BLACK
6
CONTINUOUS
10
5.86705
20
-3.08321
11
5.86728
21
-3.08347
0
LINE
8
BLACK
6
CONTINUOUS
10
5.86728
20
-3.08347
11
5.86761
21
-3.08361
0
LINE
8
BLACK
6
CONTINUOUS
10
5.86761
20
-3.08361
11
5.86855
21
-3.08455
0
LINE
8
BLACK
6
CONTINUOUS
10
5.86855
20
-3.08455
11
5.86863
21
-3.08475
0
LINE
8
BLACK
6
CONTINUOUS
10
5.86863
20
-3.08475
11
5.86882
21
-3.08487
0
LINE
8
BLACK
6
CONTINUOUS
10
5.86882
20
-3.08487
11
5.87069
21
-3.08769
0
LINE
8
BLACK
6
CONTINUOUS
10
5.87069
20
-3.08769
11
5.87076
21
-3.08806
0
LINE
8
BLACK
6
CONTINUOUS
10
5.87076
20
-3.08806
11
5.87099
21
-3.08836
0
LINE
8
BLACK
6
CONTINUOUS
10
5.87099
20
-3.08836
11
5.87193
21
-3.09211
0
LINE
8
BLACK
6
CONTINUOUS
10
5.87193
20
-3.09211
11
5.87189
21
-3.09238
0
LINE
8
BLACK
6
CONTINUOUS
10
5.87189
20
-3.09238
11
5.87199
21
-3.09263
0
LINE
8
BLACK
6
CONTINUOUS
10
5.87199
20
-3.09263
11
5.87199
21
-3.10014
0
LINE
8
BLACK
6
CONTINUOUS
10
5.87199
20
-3.10014
11
5.8718
21
-3.1006
0
LINE
8
BLACK
6
CONTINUOUS
10
5.8718
20
-3.1006
11
5.87176
21
-3.1011
0
LINE
8
BLACK
6
CONTINUOUS
10
5.87176
20
-3.1011
11
5.87083
21
-3.10298
0
LINE
8
BLACK
6
CONTINUOUS
10
5.87083
20
-3.10298
11
5.87056
21
-3.10321
0
LINE
8
BLACK
6
CONTINUOUS
10
5.87056
20
-3.10321
11
5.87042
21
-3.10353
0
LINE
8
BLACK
6
CONTINUOUS
10
5.87042
20
-3.10353
11
5.86948
21
-3.10447
0
LINE
8
BLACK
6
CONTINUOUS
10
5.86948
20
-3.10447
11
5.86916
21
-3.10461
0
LINE
8
BLACK
6
CONTINUOUS
10
5.86916
20
-3.10461
11
5.86893
21
-3.10487
0
LINE
8
BLACK
6
CONTINUOUS
10
5.86893
20
-3.10487
11
5.86705
21
-3.10581
0
LINE
8
BLACK
6
CONTINUOUS
10
5.86705
20
-3.10581
11
5.86655
21
-3.10585
0
LINE
8
BLACK
6
CONTINUOUS
10
5.86655
20
-3.10585
11
5.86609
21
-3.10604
0
LINE
8
BLACK
6
CONTINUOUS
10
5.86609
20
-3.10604
11
5.86234
21
-3.10604
0
LINE
8
BLACK
6
CONTINUOUS
10
5.86234
20
-3.10604
11
5.86187
21
-3.10585
0
LINE
8
BLACK
6
CONTINUOUS
10
5.86187
20
-3.10585
11
5.86137
21
-3.10581
0
LINE
8
BLACK
6
CONTINUOUS
10
5.86137
20
-3.10581
11
5.8595
21
-3.10487
0
LINE
8
BLACK
6
CONTINUOUS
10
5.8595
20
-3.10487
11
5.85927
21
-3.10461
0
LINE
8
BLACK
6
CONTINUOUS
10
5.85927
20
-3.10461
11
5.85894
21
-3.10447
0
LINE
8
BLACK
6
CONTINUOUS
10
5.85894
20
-3.10447
11
5.858
21
-3.10353
0
LINE
8
BLACK
6
CONTINUOUS
10
5.858
20
-3.10353
11
5.85787
21
-3.10321
0
LINE
8
BLACK
6
CONTINUOUS
10
5.85787
20
-3.10321
11
5.8576
21
-3.10298
0
LINE
8
BLACK
6
CONTINUOUS
10
5.8576
20
-3.10298
11
5.85666
21
-3.1011
0
LINE
8
BLACK
6
CONTINUOUS
10
5.85666
20
-3.1011
11
5.85662
21
-3.1006
0
LINE
8
BLACK
6
CONTINUOUS
10
5.85662
20
-3.1006
11
5.85643
21
-3.10014
0
LINE
8
BLACK
6
CONTINUOUS
10
5.85643
20
-3.10014
11
5.85643
21
-3.09545
0
LINE
8
BLACK
6
CONTINUOUS
10
5.85643
20
-3.09545
11
5.85662
21
-3.09498
0
LINE
8
BLACK
6
CONTINUOUS
10
5.85662
20
-3.09498
11
5.85666
21
-3.09449
0
LINE
8
BLACK
6
CONTINUOUS
10
5.85666
20
-3.09449
11
5.8576
21
-3.09261
0
LINE
8
BLACK
6
CONTINUOUS
10
5.8576
20
-3.09261
11
5.85787
21
-3.09238
0
LINE
8
BLACK
6
CONTINUOUS
10
5.85787
20
-3.09238
11
5.858
21
-3.09205
0
LINE
8
BLACK
6
CONTINUOUS
10
5.858
20
-3.09205
11
5.85894
21
-3.09111
0
LINE
8
BLACK
6
CONTINUOUS
10
5.85894
20
-3.09111
11
5.85927
21
-3.09098
0
LINE
8
BLACK
6
CONTINUOUS
10
5.85927
20
-3.09098
11
5.8595
21
-3.09071
0
LINE
8
BLACK
6
CONTINUOUS
10
5.8595
20
-3.09071
11
5.86137
21
-3.08977
0
LINE
8
BLACK
6
CONTINUOUS
10
5.86137
20
-3.08977
11
5.86187
21
-3.08974
0
LINE
8
BLACK
6
CONTINUOUS
10
5.86187
20
-3.08974
11
5.86234
21
-3.08954
0
LINE
8
BLACK
6
CONTINUOUS
10
5.86234
20
-3.08954
11
5.86609
21
-3.08954
0
LINE
8
BLACK
6
CONTINUOUS
10
5.86609
20
-3.08954
11
5.86655
21
-3.08974
0
LINE
8
BLACK
6
CONTINUOUS
10
5.86655
20
-3.08974
11
5.86691
21
-3.08976
0
LINE
8
BLACK
6
CONTINUOUS
10
5.86691
20
-3.08976
11
5.86536
21
-3.08744
0
LINE
8
BLACK
6
CONTINUOUS
10
5.86536
20
-3.08744
11
5.86481
21
-3.0869
0
LINE
8
BLACK
6
CONTINUOUS
10
5.86481
20
-3.0869
11
5.8637
21
-3.08634
0
LINE
8
BLACK
6
CONTINUOUS
10
5.8637
20
-3.08634
11
5.86046
21
-3.08634
0
LINE
8
BLACK
6
CONTINUOUS
10
5.86046
20
-3.08634
11
5.85894
21
-3.08571
0
LINE
8
BLACK
6
CONTINUOUS
10
5.85894
20
-3.08571
11
5.85831
21
-3.08419
0
LINE
8
BLACK
6
CONTINUOUS
10
5.85831
20
-3.08419
11
5.85894
21
-3.08267
0
LINE
8
BLACK
6
CONTINUOUS
10
5.85894
20
-3.08267
11
5.86046
21
-3.08204
0
LINE
8
BLACK
6
CONTINUOUS
10
5.86046
20
-3.08204
11
5.86421
21
-3.08204
0
LINE
8
BLACK
6
CONTINUOUS
10
5.86421
20
-3.08204
11
5.86467
21
-3.08223
0
LINE
8
BLACK
6
CONTINUOUS
10
5.86173
20
-3.0944
11
5.86129
21
-3.09484
0
LINE
8
BLACK
6
CONTINUOUS
10
5.86129
20
-3.09484
11
5.86073
21
-3.09595
0
LINE
8
BLACK
6
CONTINUOUS
10
5.86073
20
-3.09595
11
5.86073
21
-3.09963
0
LINE
8
BLACK
6
CONTINUOUS
10
5.86073
20
-3.09963
11
5.86129
21
-3.10074
0
LINE
8
BLACK
6
CONTINUOUS
10
5.86129
20
-3.10074
11
5.86173
21
-3.10118
0
LINE
8
BLACK
6
CONTINUOUS
10
5.86173
20
-3.10118
11
5.86284
21
-3.10174
0
LINE
8
BLACK
6
CONTINUOUS
10
5.86284
20
-3.10174
11
5.86558
21
-3.10174
0
LINE
8
BLACK
6
CONTINUOUS
10
5.86558
20
-3.10174
11
5.86669
21
-3.10118
0
LINE
8
BLACK
6
CONTINUOUS
10
5.86669
20
-3.10118
11
5.86714
21
-3.10074
0
LINE
8
BLACK
6
CONTINUOUS
10
5.86714
20
-3.10074
11
5.86769
21
-3.09963
0
LINE
8
BLACK
6
CONTINUOUS
10
5.86769
20
-3.09963
11
5.86769
21
-3.09595
0
LINE
8
BLACK
6
CONTINUOUS
10
5.86769
20
-3.09595
11
5.86714
21
-3.09484
0
LINE
8
BLACK
6
CONTINUOUS
10
5.86714
20
-3.09484
11
5.86669
21
-3.0944
0
LINE
8
BLACK
6
CONTINUOUS
10
5.86669
20
-3.0944
11
5.86558
21
-3.09384
0
LINE
8
BLACK
6
CONTINUOUS
10
5.86558
20
-3.09384
11
5.86284
21
-3.09384
0
LINE
8
BLACK
6
CONTINUOUS
10
5.86284
20
-3.09384
11
5.86173
21
-3.0944
0
LINE
8
BLACK
6
CONTINUOUS
10
5.88437
20
-3.08223
11
5.88487
21
-3.08227
0
LINE
8
BLACK
6
CONTINUOUS
10
5.88487
20
-3.08227
11
5.88675
21
-3.08321
0
LINE
8
BLACK
6
CONTINUOUS
10
5.88675
20
-3.08321
11
5.88698
21
-3.08347
0
LINE
8
BLACK
6
CONTINUOUS
10
5.88698
20
-3.08347
11
5.88731
21
-3.08361
0
LINE
8
BLACK
6
CONTINUOUS
10
5.88731
20
-3.08361
11
5.88825
21
-3.08455
0
LINE
8
BLACK
6
CONTINUOUS
10
5.88825
20
-3.08455
11
5.88838
21
-3.08487
0
LINE
8
BLACK
6
CONTINUOUS
10
5.88838
20
-3.08487
11
5.88865
21
-3.0851
0
LINE
8
BLACK
6
CONTINUOUS
10
5.88865
20
-3.0851
11
5.88959
21
-3.08698
0
LINE
8
BLACK
6
CONTINUOUS
10
5.88959
20
-3.08698
11
5.8896
21
-3.08722
0
LINE
8
BLACK
6
CONTINUOUS
10
5.8896
20
-3.08722
11
5.88975
21
-3.08742
0
LINE
8
BLACK
6
CONTINUOUS
10
5.88975
20
-3.08742
11
5.89069
21
-3.09117
0
LINE
8
BLACK
6
CONTINUOUS
10
5.89069
20
-3.09117
11
5.89065
21
-3.09144
0
LINE
8
BLACK
6
CONTINUOUS
10
5.89065
20
-3.09144
11
5.89075
21
-3.09169
0
LINE
8
BLACK
6
CONTINUOUS
10
5.89075
20
-3.09169
11
5.89075
21
-3.09639
0
LINE
8
BLACK
6
CONTINUOUS
10
5.89075
20
-3.09639
11
5.89065
21
-3.09664
0
LINE
8
BLACK
6
CONTINUOUS
10
5.89065
20
-3.09664
11
5.89069
21
-3.09691
0
LINE
8
BLACK
6
CONTINUOUS
10
5.89069
20
-3.09691
11
5.88975
21
-3.10066
0
LINE
8
BLACK
6
CONTINUOUS
10
5.88975
20
-3.10066
11
5.8896
21
-3.10086
0
LINE
8
BLACK
6
CONTINUOUS
10
5.8896
20
-3.10086
11
5.88959
21
-3.1011
0
LINE
8
BLACK
6
CONTINUOUS
10
5.88959
20
-3.1011
11
5.88865
21
-3.10298
0
LINE
8
BLACK
6
CONTINUOUS
10
5.88865
20
-3.10298
11
5.88838
21
-3.10321
0
LINE
8
BLACK
6
CONTINUOUS
10
5.88838
20
-3.10321
11
5.88825
21
-3.10353
0
LINE
8
BLACK
6
CONTINUOUS
10
5.88825
20
-3.10353
11
5.88731
21
-3.10447
0
LINE
8
BLACK
6
CONTINUOUS
10
5.88731
20
-3.10447
11
5.88698
21
-3.10461
0
LINE
8
BLACK
6
CONTINUOUS
10
5.88698
20
-3.10461
11
5.88675
21
-3.10487
0
LINE
8
BLACK
6
CONTINUOUS
10
5.88675
20
-3.10487
11
5.88487
21
-3.10581
0
LINE
8
BLACK
6
CONTINUOUS
10
5.88487
20
-3.10581
11
5.88437
21
-3.10585
0
LINE
8
BLACK
6
CONTINUOUS
10
5.88437
20
-3.10585
11
5.88391
21
-3.10604
0
LINE
8
BLACK
6
CONTINUOUS
10
5.88391
20
-3.10604
11
5.88204
21
-3.10604
0
LINE
8
BLACK
6
CONTINUOUS
10
5.88204
20
-3.10604
11
5.88157
21
-3.10585
0
LINE
8
BLACK
6
CONTINUOUS
10
5.88157
20
-3.10585
11
5.88107
21
-3.10581
0
LINE
8
BLACK
6
CONTINUOUS
10
5.88107
20
-3.10581
11
5.8792
21
-3.10487
0
LINE
8
BLACK
6
CONTINUOUS
10
5.8792
20
-3.10487
11
5.87897
21
-3.10461
0
LINE
8
BLACK
6
CONTINUOUS
10
5.87897
20
-3.10461
11
5.87864
21
-3.10447
0
LINE
8
BLACK
6
CONTINUOUS
10
5.87864
20
-3.10447
11
5.8777
21
-3.10353
0
LINE
8
BLACK
6
CONTINUOUS
10
5.8777
20
-3.10353
11
5.87757
21
-3.10321
0
LINE
8
BLACK
6
CONTINUOUS
10
5.87757
20
-3.10321
11
5.8773
21
-3.10298
0
LINE
8
BLACK
6
CONTINUOUS
10
5.8773
20
-3.10298
11
5.87636
21
-3.1011
0
LINE
8
BLACK
6
CONTINUOUS
10
5.87636
20
-3.1011
11
5.87634
21
-3.10086
0
LINE
8
BLACK
6
CONTINUOUS
10
5.87634
20
-3.10086
11
5.8762
21
-3.10066
0
LINE
8
BLACK
6
CONTINUOUS
10
5.8762
20
-3.10066
11
5.87526
21
-3.09691
0
LINE
8
BLACK
6
CONTINUOUS
10
5.87526
20
-3.09691
11
5.8753
21
-3.09664
0
LINE
8
BLACK
6
CONTINUOUS
10
5.8753
20
-3.09664
11
5.8752
21
-3.09639
0
LINE
8
BLACK
6
CONTINUOUS
10
5.8752
20
-3.09639
11
5.8752
21
-3.09169
0
LINE
8
BLACK
6
CONTINUOUS
10
5.8752
20
-3.09169
11
5.8753
21
-3.09144
0
LINE
8
BLACK
6
CONTINUOUS
10
5.8753
20
-3.09144
11
5.87526
21
-3.09117
0
LINE
8
BLACK
6
CONTINUOUS
10
5.87526
20
-3.09117
11
5.8762
21
-3.08742
0
LINE
8
BLACK
6
CONTINUOUS
10
5.8762
20
-3.08742
11
5.87634
21
-3.08722
0
LINE
8
BLACK
6
CONTINUOUS
10
5.87634
20
-3.08722
11
5.87636
21
-3.08698
0
LINE
8
BLACK
6
CONTINUOUS
10
5.87636
20
-3.08698
11
5.8773
21
-3.0851
0
LINE
8
BLACK
6
CONTINUOUS
10
5.8773
20
-3.0851
11
5.87757
21
-3.08487
0
LINE
8
BLACK
6
CONTINUOUS
10
5.87757
20
-3.08487
11
5.8777
21
-3.08455
0
LINE
8
BLACK
6
CONTINUOUS
10
5.8777
20
-3.08455
11
5.87864
21
-3.08361
0
LINE
8
BLACK
6
CONTINUOUS
10
5.87864
20
-3.08361
11
5.87897
21
-3.08347
0
LINE
8
BLACK
6
CONTINUOUS
10
5.87897
20
-3.08347
11
5.8792
21
-3.08321
0
LINE
8
BLACK
6
CONTINUOUS
10
5.8792
20
-3.08321
11
5.88107
21
-3.08227
0
LINE
8
BLACK
6
CONTINUOUS
10
5.88107
20
-3.08227
11
5.88157
21
-3.08223
0
LINE
8
BLACK
6
CONTINUOUS
10
5.88157
20
-3.08223
11
5.88204
21
-3.08204
0
LINE
8
BLACK
6
CONTINUOUS
10
5.88204
20
-3.08204
11
5.88391
21
-3.08204
0
LINE
8
BLACK
6
CONTINUOUS
10
5.88391
20
-3.08204
11
5.88437
21
-3.08223
0
LINE
8
BLACK
6
CONTINUOUS
10
5.88143
20
-3.0869
11
5.88099
21
-3.08734
0
LINE
8
BLACK
6
CONTINUOUS
10
5.88099
20
-3.08734
11
5.88031
21
-3.08869
0
LINE
8
BLACK
6
CONTINUOUS
10
5.88031
20
-3.08869
11
5.8795
21
-3.09196
0
LINE
8
BLACK
6
CONTINUOUS
10
5.8795
20
-3.09196
11
5.8795
21
-3.09612
0
LINE
8
BLACK
6
CONTINUOUS
10
5.8795
20
-3.09612
11
5.88031
21
-3.09939
0
LINE
8
BLACK
6
CONTINUOUS
10
5.88031
20
-3.09939
11
5.88099
21
-3.10074
0
LINE
8
BLACK
6
CONTINUOUS
10
5.88099
20
-3.10074
11
5.88143
21
-3.10118
0
LINE
8
BLACK
6
CONTINUOUS
10
5.88143
20
-3.10118
11
5.88254
21
-3.10174
0
LINE
8
BLACK
6
CONTINUOUS
10
5.88254
20
-3.10174
11
5.8834
21
-3.10174
0
LINE
8
BLACK
6
CONTINUOUS
10
5.8834
20
-3.10174
11
5.88451
21
-3.10118
0
LINE
8
BLACK
6
CONTINUOUS
10
5.88451
20
-3.10118
11
5.88496
21
-3.10074
0
LINE
8
BLACK
6
CONTINUOUS
10
5.88496
20
-3.10074
11
5.88564
21
-3.09939
0
LINE
8
BLACK
6
CONTINUOUS
10
5.88564
20
-3.09939
11
5.88645
21
-3.09612
0
LINE
8
BLACK
6
CONTINUOUS
10
5.88645
20
-3.09612
11
5.88645
21
-3.09196
0
LINE
8
BLACK
6
CONTINUOUS
10
5.88645
20
-3.09196
11
5.88564
21
-3.08869
0
LINE
8
BLACK
6
CONTINUOUS
10
5.88564
20
-3.08869
11
5.88496
21
-3.08734
0
LINE
8
BLACK
6
CONTINUOUS
10
5.88496
20
-3.08734
11
5.88451
21
-3.0869
0
LINE
8
BLACK
6
CONTINUOUS
10
5.88451
20
-3.0869
11
5.8834
21
-3.08634
0
LINE
8
BLACK
6
CONTINUOUS
10
5.8834
20
-3.08634
11
5.88254
21
-3.08634
0
LINE
8
BLACK
6
CONTINUOUS
10
5.88254
20
-3.08634
11
5.88143
21
-3.0869
  0
ENDSEC
  0
EOF
