  0
SECTION
  2
HEADER
  9
$ANGBASE
  50
0.0
  9
$ANGDIR
  70
1
  9
$MEASUREMENT
  70
0
  0
ENDSEC
  0
SECTION
  2
TABLES
  0
TABLE
  2
LTYPE
  70
4
  0
LTYPE
  5
40F
  2
CONTINUOUS
  70
0
  3
Solid line
  72
65
  73
0
  40
0.0
  0
LTYPE
  5
410
  2
DASHDOT
 70
0
  3
Dash Dot ____ _ ____ _
 72
65
 73
4
 40
2.0
 49
1.25
 49
-0.25
 49
0.25
 49
-0.25
  0
LTYPE
  5
411
  2
DASHED
 70
0
  3
Dashed __ __ __ __ __
 72
65
 73
2
 40
0.75
 49
0.5
 49
-0.25
  0
LTYPE
  5
43B
  2
DOTTED
 70
0
  3
Dotted .  .  .  .
 72
65
 73
2
 40
0.2
 49
0.0
 49
-0.2
  0
ENDTAB
  0
TABLE
  2
STYLE
  70
4
  0
STYLE
  2
KICAD
  70
0
  40
0
  41
1
  42
1
  50
0
  71
0
  3
isocp.shx
  0
STYLE
  2
KICADB
  70
0
  40
0
  41
1
  42
1
  50
0
  71
0
  3
isocp.shx
  0
STYLE
  2
KICADI
  70
0
  40
0
  41
1
  42
1
  50
15
  71
0
  3
isocp.shx
  0
STYLE
  2
KICADBI
  70
0
  40
0
  41
1
  42
1
  50
15
  71
0
  3
isocp.shx
  0
ENDTAB
  0
TABLE
  2
LAYER
  70
1
  0
LAYER
  2
BLACK
  70
0
  62
7
  6
CONTINUOUS
  0
ENDTAB
  0
ENDSEC
  0
SECTION
  2
ENTITIES
0
LINE
8
BLACK
6
CONTINUOUS
10
0.843609
20
0.346
11
0.85
21
0.343154
0
LINE
8
BLACK
6
CONTINUOUS
10
0.85
20
0.343154
11
0.85566
21
0.339042
0
LINE
8
BLACK
6
CONTINUOUS
10
0.85566
20
0.339042
11
0.860341
21
0.333843
0
LINE
8
BLACK
6
CONTINUOUS
10
0.860341
20
0.333843
11
0.863839
21
0.327784
0
LINE
8
BLACK
6
CONTINUOUS
10
0.863839
20
0.327784
11
0.866001
21
0.321131
0
LINE
8
BLACK
6
CONTINUOUS
10
0.866001
20
0.321131
11
0.866732
21
0.314173
0
LINE
8
BLACK
6
CONTINUOUS
10
0.866732
20
0.314173
11
0.866001
21
0.307216
0
LINE
8
BLACK
6
CONTINUOUS
10
0.866001
20
0.307216
11
0.863839
21
0.300562
0
LINE
8
BLACK
6
CONTINUOUS
10
0.863839
20
0.300562
11
0.860341
21
0.294503
0
LINE
8
BLACK
6
CONTINUOUS
10
0.860341
20
0.294503
11
0.85566
21
0.289304
0
LINE
8
BLACK
6
CONTINUOUS
10
0.85566
20
0.289304
11
0.85
21
0.285192
0
LINE
8
BLACK
6
CONTINUOUS
10
0.85
20
0.285192
11
0.843609
21
0.282347
0
LINE
8
BLACK
6
CONTINUOUS
10
0.843609
20
0.282347
11
0.836766
21
0.280892
0
LINE
8
BLACK
6
CONTINUOUS
10
0.836766
20
0.280892
11
0.82977
21
0.280892
0
LINE
8
BLACK
6
CONTINUOUS
10
0.82977
20
0.280892
11
0.822927
21
0.282347
0
LINE
8
BLACK
6
CONTINUOUS
10
0.822927
20
0.282347
11
0.816535
21
0.285192
0
LINE
8
BLACK
6
CONTINUOUS
10
0.816535
20
0.285192
11
0.810876
21
0.289304
0
LINE
8
BLACK
6
CONTINUOUS
10
0.810876
20
0.289304
11
0.806194
21
0.294503
0
LINE
8
BLACK
6
CONTINUOUS
10
0.806194
20
0.294503
11
0.802696
21
0.300562
0
LINE
8
BLACK
6
CONTINUOUS
10
0.802696
20
0.300562
11
0.800534
21
0.307216
0
LINE
8
BLACK
6
CONTINUOUS
10
0.800534
20
0.307216
11
0.799803
21
0.314173
0
LINE
8
BLACK
6
CONTINUOUS
10
0.799803
20
0.314173
11
0.800534
21
0.321131
0
LINE
8
BLACK
6
CONTINUOUS
10
0.800534
20
0.321131
11
0.802696
21
0.327784
0
LINE
8
BLACK
6
CONTINUOUS
10
0.802696
20
0.327784
11
0.806194
21
0.333843
0
LINE
8
BLACK
6
CONTINUOUS
10
0.806194
20
0.333843
11
0.810876
21
0.339042
0
LINE
8
BLACK
6
CONTINUOUS
10
0.810876
20
0.339042
11
0.816535
21
0.343154
0
LINE
8
BLACK
6
CONTINUOUS
10
0.816535
20
0.343154
11
0.822927
21
0.346
0
LINE
8
BLACK
6
CONTINUOUS
10
0.822927
20
0.346
11
0.82977
21
0.347454
0
LINE
8
BLACK
6
CONTINUOUS
10
0.82977
20
0.347454
11
0.836766
21
0.347454
0
LINE
8
BLACK
6
CONTINUOUS
10
0.836766
20
0.347454
11
0.843609
21
0.346
0
LINE
8
BLACK
6
CONTINUOUS
10
0.843609
20
0.446
11
0.85
21
0.443154
0
LINE
8
BLACK
6
CONTINUOUS
10
0.85
20
0.443154
11
0.85566
21
0.439042
0
LINE
8
BLACK
6
CONTINUOUS
10
0.85566
20
0.439042
11
0.860341
21
0.433843
0
LINE
8
BLACK
6
CONTINUOUS
10
0.860341
20
0.433843
11
0.863839
21
0.427784
0
LINE
8
BLACK
6
CONTINUOUS
10
0.863839
20
0.427784
11
0.866001
21
0.421131
0
LINE
8
BLACK
6
CONTINUOUS
10
0.866001
20
0.421131
11
0.866732
21
0.414173
0
LINE
8
BLACK
6
CONTINUOUS
10
0.866732
20
0.414173
11
0.866001
21
0.407216
0
LINE
8
BLACK
6
CONTINUOUS
10
0.866001
20
0.407216
11
0.863839
21
0.400562
0
LINE
8
BLACK
6
CONTINUOUS
10
0.863839
20
0.400562
11
0.860341
21
0.394503
0
LINE
8
BLACK
6
CONTINUOUS
10
0.860341
20
0.394503
11
0.85566
21
0.389304
0
LINE
8
BLACK
6
CONTINUOUS
10
0.85566
20
0.389304
11
0.85
21
0.385192
0
LINE
8
BLACK
6
CONTINUOUS
10
0.85
20
0.385192
11
0.843609
21
0.382347
0
LINE
8
BLACK
6
CONTINUOUS
10
0.843609
20
0.382347
11
0.836766
21
0.380892
0
LINE
8
BLACK
6
CONTINUOUS
10
0.836766
20
0.380892
11
0.82977
21
0.380892
0
LINE
8
BLACK
6
CONTINUOUS
10
0.82977
20
0.380892
11
0.822927
21
0.382347
0
LINE
8
BLACK
6
CONTINUOUS
10
0.822927
20
0.382347
11
0.816535
21
0.385192
0
LINE
8
BLACK
6
CONTINUOUS
10
0.816535
20
0.385192
11
0.810876
21
0.389304
0
LINE
8
BLACK
6
CONTINUOUS
10
0.810876
20
0.389304
11
0.806194
21
0.394503
0
LINE
8
BLACK
6
CONTINUOUS
10
0.806194
20
0.394503
11
0.802696
21
0.400562
0
LINE
8
BLACK
6
CONTINUOUS
10
0.802696
20
0.400562
11
0.800534
21
0.407216
0
LINE
8
BLACK
6
CONTINUOUS
10
0.800534
20
0.407216
11
0.799803
21
0.414173
0
LINE
8
BLACK
6
CONTINUOUS
10
0.799803
20
0.414173
11
0.800534
21
0.421131
0
LINE
8
BLACK
6
CONTINUOUS
10
0.800534
20
0.421131
11
0.802696
21
0.427784
0
LINE
8
BLACK
6
CONTINUOUS
10
0.802696
20
0.427784
11
0.806194
21
0.433843
0
LINE
8
BLACK
6
CONTINUOUS
10
0.806194
20
0.433843
11
0.810876
21
0.439042
0
LINE
8
BLACK
6
CONTINUOUS
10
0.810876
20
0.439042
11
0.816535
21
0.443154
0
LINE
8
BLACK
6
CONTINUOUS
10
0.816535
20
0.443154
11
0.822927
21
0.446
0
LINE
8
BLACK
6
CONTINUOUS
10
0.822927
20
0.446
11
0.82977
21
0.447454
0
LINE
8
BLACK
6
CONTINUOUS
10
0.82977
20
0.447454
11
0.836766
21
0.447454
0
LINE
8
BLACK
6
CONTINUOUS
10
0.836766
20
0.447454
11
0.843609
21
0.446
0
LINE
8
BLACK
6
CONTINUOUS
10
0.843609
20
0.546
11
0.85
21
0.543154
0
LINE
8
BLACK
6
CONTINUOUS
10
0.85
20
0.543154
11
0.85566
21
0.539042
0
LINE
8
BLACK
6
CONTINUOUS
10
0.85566
20
0.539042
11
0.860341
21
0.533843
0
LINE
8
BLACK
6
CONTINUOUS
10
0.860341
20
0.533843
11
0.863839
21
0.527784
0
LINE
8
BLACK
6
CONTINUOUS
10
0.863839
20
0.527784
11
0.866001
21
0.521131
0
LINE
8
BLACK
6
CONTINUOUS
10
0.866001
20
0.521131
11
0.866732
21
0.514173
0
LINE
8
BLACK
6
CONTINUOUS
10
0.866732
20
0.514173
11
0.866001
21
0.507216
0
LINE
8
BLACK
6
CONTINUOUS
10
0.866001
20
0.507216
11
0.863839
21
0.500562
0
LINE
8
BLACK
6
CONTINUOUS
10
0.863839
20
0.500562
11
0.860341
21
0.494503
0
LINE
8
BLACK
6
CONTINUOUS
10
0.860341
20
0.494503
11
0.85566
21
0.489304
0
LINE
8
BLACK
6
CONTINUOUS
10
0.85566
20
0.489304
11
0.85
21
0.485192
0
LINE
8
BLACK
6
CONTINUOUS
10
0.85
20
0.485192
11
0.843609
21
0.482347
0
LINE
8
BLACK
6
CONTINUOUS
10
0.843609
20
0.482347
11
0.836766
21
0.480892
0
LINE
8
BLACK
6
CONTINUOUS
10
0.836766
20
0.480892
11
0.82977
21
0.480892
0
LINE
8
BLACK
6
CONTINUOUS
10
0.82977
20
0.480892
11
0.822927
21
0.482347
0
LINE
8
BLACK
6
CONTINUOUS
10
0.822927
20
0.482347
11
0.816535
21
0.485192
0
LINE
8
BLACK
6
CONTINUOUS
10
0.816535
20
0.485192
11
0.810876
21
0.489304
0
LINE
8
BLACK
6
CONTINUOUS
10
0.810876
20
0.489304
11
0.806194
21
0.494503
0
LINE
8
BLACK
6
CONTINUOUS
10
0.806194
20
0.494503
11
0.802696
21
0.500562
0
LINE
8
BLACK
6
CONTINUOUS
10
0.802696
20
0.500562
11
0.800534
21
0.507216
0
LINE
8
BLACK
6
CONTINUOUS
10
0.800534
20
0.507216
11
0.799803
21
0.514173
0
LINE
8
BLACK
6
CONTINUOUS
10
0.799803
20
0.514173
11
0.800534
21
0.521131
0
LINE
8
BLACK
6
CONTINUOUS
10
0.800534
20
0.521131
11
0.802696
21
0.527784
0
LINE
8
BLACK
6
CONTINUOUS
10
0.802696
20
0.527784
11
0.806194
21
0.533843
0
LINE
8
BLACK
6
CONTINUOUS
10
0.806194
20
0.533843
11
0.810876
21
0.539042
0
LINE
8
BLACK
6
CONTINUOUS
10
0.810876
20
0.539042
11
0.816535
21
0.543154
0
LINE
8
BLACK
6
CONTINUOUS
10
0.816535
20
0.543154
11
0.822927
21
0.546
0
LINE
8
BLACK
6
CONTINUOUS
10
0.822927
20
0.546
11
0.82977
21
0.547454
0
LINE
8
BLACK
6
CONTINUOUS
10
0.82977
20
0.547454
11
0.836766
21
0.547454
0
LINE
8
BLACK
6
CONTINUOUS
10
0.836766
20
0.547454
11
0.843609
21
0.546
0
LINE
8
BLACK
6
CONTINUOUS
10
0.843609
20
0.646
11
0.85
21
0.643154
0
LINE
8
BLACK
6
CONTINUOUS
10
0.85
20
0.643154
11
0.85566
21
0.639042
0
LINE
8
BLACK
6
CONTINUOUS
10
0.85566
20
0.639042
11
0.860341
21
0.633843
0
LINE
8
BLACK
6
CONTINUOUS
10
0.860341
20
0.633843
11
0.863839
21
0.627784
0
LINE
8
BLACK
6
CONTINUOUS
10
0.863839
20
0.627784
11
0.866001
21
0.621131
0
LINE
8
BLACK
6
CONTINUOUS
10
0.866001
20
0.621131
11
0.866732
21
0.614173
0
LINE
8
BLACK
6
CONTINUOUS
10
0.866732
20
0.614173
11
0.866001
21
0.607216
0
LINE
8
BLACK
6
CONTINUOUS
10
0.866001
20
0.607216
11
0.863839
21
0.600562
0
LINE
8
BLACK
6
CONTINUOUS
10
0.863839
20
0.600562
11
0.860341
21
0.594503
0
LINE
8
BLACK
6
CONTINUOUS
10
0.860341
20
0.594503
11
0.85566
21
0.589304
0
LINE
8
BLACK
6
CONTINUOUS
10
0.85566
20
0.589304
11
0.85
21
0.585192
0
LINE
8
BLACK
6
CONTINUOUS
10
0.85
20
0.585192
11
0.843609
21
0.582347
0
LINE
8
BLACK
6
CONTINUOUS
10
0.843609
20
0.582347
11
0.836766
21
0.580892
0
LINE
8
BLACK
6
CONTINUOUS
10
0.836766
20
0.580892
11
0.82977
21
0.580892
0
LINE
8
BLACK
6
CONTINUOUS
10
0.82977
20
0.580892
11
0.822927
21
0.582347
0
LINE
8
BLACK
6
CONTINUOUS
10
0.822927
20
0.582347
11
0.816535
21
0.585192
0
LINE
8
BLACK
6
CONTINUOUS
10
0.816535
20
0.585192
11
0.810876
21
0.589304
0
LINE
8
BLACK
6
CONTINUOUS
10
0.810876
20
0.589304
11
0.806194
21
0.594503
0
LINE
8
BLACK
6
CONTINUOUS
10
0.806194
20
0.594503
11
0.802696
21
0.600562
0
LINE
8
BLACK
6
CONTINUOUS
10
0.802696
20
0.600562
11
0.800534
21
0.607216
0
LINE
8
BLACK
6
CONTINUOUS
10
0.800534
20
0.607216
11
0.799803
21
0.614173
0
LINE
8
BLACK
6
CONTINUOUS
10
0.799803
20
0.614173
11
0.800534
21
0.621131
0
LINE
8
BLACK
6
CONTINUOUS
10
0.800534
20
0.621131
11
0.802696
21
0.627784
0
LINE
8
BLACK
6
CONTINUOUS
10
0.802696
20
0.627784
11
0.806194
21
0.633843
0
LINE
8
BLACK
6
CONTINUOUS
10
0.806194
20
0.633843
11
0.810876
21
0.639042
0
LINE
8
BLACK
6
CONTINUOUS
10
0.810876
20
0.639042
11
0.816535
21
0.643154
0
LINE
8
BLACK
6
CONTINUOUS
10
0.816535
20
0.643154
11
0.822927
21
0.646
0
LINE
8
BLACK
6
CONTINUOUS
10
0.822927
20
0.646
11
0.82977
21
0.647454
0
LINE
8
BLACK
6
CONTINUOUS
10
0.82977
20
0.647454
11
0.836766
21
0.647454
0
LINE
8
BLACK
6
CONTINUOUS
10
0.836766
20
0.647454
11
0.843609
21
0.646
0
LINE
8
BLACK
6
CONTINUOUS
10
1.219
20
0.762929
11
1.22539
21
0.760084
0
LINE
8
BLACK
6
CONTINUOUS
10
1.22539
20
0.760084
11
1.23105
21
0.755971
0
LINE
8
BLACK
6
CONTINUOUS
10
1.23105
20
0.755971
11
1.23573
21
0.750772
0
LINE
8
BLACK
6
CONTINUOUS
10
1.23573
20
0.750772
11
1.23923
21
0.744714
0
LINE
8
BLACK
6
CONTINUOUS
10
1.23923
20
0.744714
11
1.24139
21
0.73806
0
LINE
8
BLACK
6
CONTINUOUS
10
1.24139
20
0.73806
11
1.24213
21
0.731102
0
LINE
8
BLACK
6
CONTINUOUS
10
1.24213
20
0.731102
11
1.24139
21
0.724145
0
LINE
8
BLACK
6
CONTINUOUS
10
1.24139
20
0.724145
11
1.23923
21
0.717491
0
LINE
8
BLACK
6
CONTINUOUS
10
1.23923
20
0.717491
11
1.23573
21
0.711432
0
LINE
8
BLACK
6
CONTINUOUS
10
1.23573
20
0.711432
11
1.23105
21
0.706233
0
LINE
8
BLACK
6
CONTINUOUS
10
1.23105
20
0.706233
11
1.22539
21
0.702121
0
LINE
8
BLACK
6
CONTINUOUS
10
1.22539
20
0.702121
11
1.219
21
0.699276
0
LINE
8
BLACK
6
CONTINUOUS
10
1.219
20
0.699276
11
1.21216
21
0.697821
0
LINE
8
BLACK
6
CONTINUOUS
10
1.21216
20
0.697821
11
1.20516
21
0.697821
0
LINE
8
BLACK
6
CONTINUOUS
10
1.20516
20
0.697821
11
1.19832
21
0.699276
0
LINE
8
BLACK
6
CONTINUOUS
10
1.19832
20
0.699276
11
1.19193
21
0.702121
0
LINE
8
BLACK
6
CONTINUOUS
10
1.19193
20
0.702121
11
1.18627
21
0.706233
0
LINE
8
BLACK
6
CONTINUOUS
10
1.18627
20
0.706233
11
1.18159
21
0.711432
0
LINE
8
BLACK
6
CONTINUOUS
10
1.18159
20
0.711432
11
1.17809
21
0.717491
0
LINE
8
BLACK
6
CONTINUOUS
10
1.17809
20
0.717491
11
1.17593
21
0.724145
0
LINE
8
BLACK
6
CONTINUOUS
10
1.17593
20
0.724145
11
1.1752
21
0.731102
0
LINE
8
BLACK
6
CONTINUOUS
10
1.1752
20
0.731102
11
1.17593
21
0.73806
0
LINE
8
BLACK
6
CONTINUOUS
10
1.17593
20
0.73806
11
1.17809
21
0.744714
0
LINE
8
BLACK
6
CONTINUOUS
10
1.17809
20
0.744714
11
1.18159
21
0.750772
0
LINE
8
BLACK
6
CONTINUOUS
10
1.18159
20
0.750772
11
1.18627
21
0.755971
0
LINE
8
BLACK
6
CONTINUOUS
10
1.18627
20
0.755971
11
1.19193
21
0.760084
0
LINE
8
BLACK
6
CONTINUOUS
10
1.19193
20
0.760084
11
1.19832
21
0.762929
0
LINE
8
BLACK
6
CONTINUOUS
10
1.19832
20
0.762929
11
1.20516
21
0.764384
0
LINE
8
BLACK
6
CONTINUOUS
10
1.20516
20
0.764384
11
1.21216
21
0.764384
0
LINE
8
BLACK
6
CONTINUOUS
10
1.21216
20
0.764384
11
1.219
21
0.762929
0
LINE
8
BLACK
6
CONTINUOUS
10
0.323727
20
0.84285
11
0.330118
21
0.840005
0
LINE
8
BLACK
6
CONTINUOUS
10
0.330118
20
0.840005
11
0.335778
21
0.835893
0
LINE
8
BLACK
6
CONTINUOUS
10
0.335778
20
0.835893
11
0.340459
21
0.830694
0
LINE
8
BLACK
6
CONTINUOUS
10
0.340459
20
0.830694
11
0.343957
21
0.824635
0
LINE
8
BLACK
6
CONTINUOUS
10
0.343957
20
0.824635
11
0.346119
21
0.817981
0
LINE
8
BLACK
6
CONTINUOUS
10
0.346119
20
0.817981
11
0.34685
21
0.811024
0
LINE
8
BLACK
6
CONTINUOUS
10
0.34685
20
0.811024
11
0.346119
21
0.804066
0
LINE
8
BLACK
6
CONTINUOUS
10
0.346119
20
0.804066
11
0.343957
21
0.797412
0
LINE
8
BLACK
6
CONTINUOUS
10
0.343957
20
0.797412
11
0.340459
21
0.791354
0
LINE
8
BLACK
6
CONTINUOUS
10
0.340459
20
0.791354
11
0.335778
21
0.786155
0
LINE
8
BLACK
6
CONTINUOUS
10
0.335778
20
0.786155
11
0.330118
21
0.782042
0
LINE
8
BLACK
6
CONTINUOUS
10
0.330118
20
0.782042
11
0.323727
21
0.779197
0
LINE
8
BLACK
6
CONTINUOUS
10
0.323727
20
0.779197
11
0.316884
21
0.777742
0
LINE
8
BLACK
6
CONTINUOUS
10
0.316884
20
0.777742
11
0.309888
21
0.777742
0
LINE
8
BLACK
6
CONTINUOUS
10
0.309888
20
0.777742
11
0.303045
21
0.779197
0
LINE
8
BLACK
6
CONTINUOUS
10
0.303045
20
0.779197
11
0.296654
21
0.782042
0
LINE
8
BLACK
6
CONTINUOUS
10
0.296654
20
0.782042
11
0.290994
21
0.786155
0
LINE
8
BLACK
6
CONTINUOUS
10
0.290994
20
0.786155
11
0.286312
21
0.791354
0
LINE
8
BLACK
6
CONTINUOUS
10
0.286312
20
0.791354
11
0.282814
21
0.797412
0
LINE
8
BLACK
6
CONTINUOUS
10
0.282814
20
0.797412
11
0.280653
21
0.804066
0
LINE
8
BLACK
6
CONTINUOUS
10
0.280653
20
0.804066
11
0.279921
21
0.811024
0
LINE
8
BLACK
6
CONTINUOUS
10
0.279921
20
0.811024
11
0.280653
21
0.817981
0
LINE
8
BLACK
6
CONTINUOUS
10
0.280653
20
0.817981
11
0.282814
21
0.824635
0
LINE
8
BLACK
6
CONTINUOUS
10
0.282814
20
0.824635
11
0.286312
21
0.830694
0
LINE
8
BLACK
6
CONTINUOUS
10
0.286312
20
0.830694
11
0.290994
21
0.835893
0
LINE
8
BLACK
6
CONTINUOUS
10
0.290994
20
0.835893
11
0.296654
21
0.840005
0
LINE
8
BLACK
6
CONTINUOUS
10
0.296654
20
0.840005
11
0.303045
21
0.84285
0
LINE
8
BLACK
6
CONTINUOUS
10
0.303045
20
0.84285
11
0.309888
21
0.844305
0
LINE
8
BLACK
6
CONTINUOUS
10
0.309888
20
0.844305
11
0.316884
21
0.844305
0
LINE
8
BLACK
6
CONTINUOUS
10
0.316884
20
0.844305
11
0.323727
21
0.84285
0
LINE
8
BLACK
6
CONTINUOUS
10
0.423727
20
0.84285
11
0.430118
21
0.840005
0
LINE
8
BLACK
6
CONTINUOUS
10
0.430118
20
0.840005
11
0.435778
21
0.835893
0
LINE
8
BLACK
6
CONTINUOUS
10
0.435778
20
0.835893
11
0.440459
21
0.830694
0
LINE
8
BLACK
6
CONTINUOUS
10
0.440459
20
0.830694
11
0.443957
21
0.824635
0
LINE
8
BLACK
6
CONTINUOUS
10
0.443957
20
0.824635
11
0.446119
21
0.817981
0
LINE
8
BLACK
6
CONTINUOUS
10
0.446119
20
0.817981
11
0.44685
21
0.811024
0
LINE
8
BLACK
6
CONTINUOUS
10
0.44685
20
0.811024
11
0.446119
21
0.804066
0
LINE
8
BLACK
6
CONTINUOUS
10
0.446119
20
0.804066
11
0.443957
21
0.797412
0
LINE
8
BLACK
6
CONTINUOUS
10
0.443957
20
0.797412
11
0.440459
21
0.791354
0
LINE
8
BLACK
6
CONTINUOUS
10
0.440459
20
0.791354
11
0.435778
21
0.786155
0
LINE
8
BLACK
6
CONTINUOUS
10
0.435778
20
0.786155
11
0.430118
21
0.782042
0
LINE
8
BLACK
6
CONTINUOUS
10
0.430118
20
0.782042
11
0.423727
21
0.779197
0
LINE
8
BLACK
6
CONTINUOUS
10
0.423727
20
0.779197
11
0.416884
21
0.777742
0
LINE
8
BLACK
6
CONTINUOUS
10
0.416884
20
0.777742
11
0.409888
21
0.777742
0
LINE
8
BLACK
6
CONTINUOUS
10
0.409888
20
0.777742
11
0.403045
21
0.779197
0
LINE
8
BLACK
6
CONTINUOUS
10
0.403045
20
0.779197
11
0.396654
21
0.782042
0
LINE
8
BLACK
6
CONTINUOUS
10
0.396654
20
0.782042
11
0.390994
21
0.786155
0
LINE
8
BLACK
6
CONTINUOUS
10
0.390994
20
0.786155
11
0.386312
21
0.791354
0
LINE
8
BLACK
6
CONTINUOUS
10
0.386312
20
0.791354
11
0.382814
21
0.797412
0
LINE
8
BLACK
6
CONTINUOUS
10
0.382814
20
0.797412
11
0.380653
21
0.804066
0
LINE
8
BLACK
6
CONTINUOUS
10
0.380653
20
0.804066
11
0.379921
21
0.811024
0
LINE
8
BLACK
6
CONTINUOUS
10
0.379921
20
0.811024
11
0.380653
21
0.817981
0
LINE
8
BLACK
6
CONTINUOUS
10
0.380653
20
0.817981
11
0.382814
21
0.824635
0
LINE
8
BLACK
6
CONTINUOUS
10
0.382814
20
0.824635
11
0.386312
21
0.830694
0
LINE
8
BLACK
6
CONTINUOUS
10
0.386312
20
0.830694
11
0.390994
21
0.835893
0
LINE
8
BLACK
6
CONTINUOUS
10
0.390994
20
0.835893
11
0.396654
21
0.840005
0
LINE
8
BLACK
6
CONTINUOUS
10
0.396654
20
0.840005
11
0.403045
21
0.84285
0
LINE
8
BLACK
6
CONTINUOUS
10
0.403045
20
0.84285
11
0.409888
21
0.844305
0
LINE
8
BLACK
6
CONTINUOUS
10
0.409888
20
0.844305
11
0.416884
21
0.844305
0
LINE
8
BLACK
6
CONTINUOUS
10
0.416884
20
0.844305
11
0.423727
21
0.84285
0
LINE
8
BLACK
6
CONTINUOUS
10
0.970418
20
0.908678
11
0.974808
21
0.906441
0
LINE
8
BLACK
6
CONTINUOUS
10
0.974808
20
0.906441
11
0.978292
21
0.902957
0
LINE
8
BLACK
6
CONTINUOUS
10
0.978292
20
0.902957
11
0.980528
21
0.898567
0
LINE
8
BLACK
6
CONTINUOUS
10
0.980528
20
0.898567
11
0.981299
21
0.893701
0
LINE
8
BLACK
6
CONTINUOUS
10
0.981299
20
0.893701
11
0.980528
21
0.888834
0
LINE
8
BLACK
6
CONTINUOUS
10
0.980528
20
0.888834
11
0.979465
21
0.886747
0
LINE
8
BLACK
6
CONTINUOUS
10
0.979465
20
0.886747
11
0.990227
21
0.875984
0
LINE
8
BLACK
6
CONTINUOUS
10
0.990227
20
0.875984
11
1.16043
21
0.875984
0
LINE
8
BLACK
6
CONTINUOUS
10
1.16043
20
0.875984
11
1.1687
21
0.875984
0
LINE
8
BLACK
6
CONTINUOUS
10
1.1687
20
0.875984
11
1.16957
21
0.875859
0
LINE
8
BLACK
6
CONTINUOUS
10
1.16957
20
0.875859
11
1.16975
21
0.875872
0
LINE
8
BLACK
6
CONTINUOUS
10
1.16975
20
0.875872
11
1.16984
21
0.87582
0
LINE
8
BLACK
6
CONTINUOUS
10
1.16984
20
0.87582
11
1.17009
21
0.875785
0
LINE
8
BLACK
6
CONTINUOUS
10
1.17009
20
0.875785
11
1.17111
21
0.875126
0
LINE
8
BLACK
6
CONTINUOUS
10
1.17111
20
0.875126
11
1.17218
21
0.874543
0
LINE
8
BLACK
6
CONTINUOUS
10
1.17218
20
0.874543
11
1.18887
21
0.857858
0
LINE
8
BLACK
6
CONTINUOUS
10
1.18887
20
0.857858
11
1.19193
21
0.860084
0
LINE
8
BLACK
6
CONTINUOUS
10
1.19193
20
0.860084
11
1.19832
21
0.862929
0
LINE
8
BLACK
6
CONTINUOUS
10
1.19832
20
0.862929
11
1.20516
21
0.864384
0
LINE
8
BLACK
6
CONTINUOUS
10
1.20516
20
0.864384
11
1.21216
21
0.864384
0
LINE
8
BLACK
6
CONTINUOUS
10
1.21216
20
0.864384
11
1.219
21
0.862929
0
LINE
8
BLACK
6
CONTINUOUS
10
1.219
20
0.862929
11
1.22539
21
0.860084
0
LINE
8
BLACK
6
CONTINUOUS
10
1.22539
20
0.860084
11
1.23105
21
0.855971
0
LINE
8
BLACK
6
CONTINUOUS
10
1.23105
20
0.855971
11
1.23573
21
0.850772
0
LINE
8
BLACK
6
CONTINUOUS
10
1.23573
20
0.850772
11
1.23923
21
0.844714
0
LINE
8
BLACK
6
CONTINUOUS
10
1.23923
20
0.844714
11
1.24139
21
0.83806
0
LINE
8
BLACK
6
CONTINUOUS
10
1.24139
20
0.83806
11
1.24213
21
0.831102
0
LINE
8
BLACK
6
CONTINUOUS
10
1.24213
20
0.831102
11
1.24139
21
0.824145
0
LINE
8
BLACK
6
CONTINUOUS
10
1.24139
20
0.824145
11
1.23923
21
0.817491
0
LINE
8
BLACK
6
CONTINUOUS
10
1.23923
20
0.817491
11
1.23573
21
0.811432
0
LINE
8
BLACK
6
CONTINUOUS
10
1.23573
20
0.811432
11
1.23105
21
0.806233
0
LINE
8
BLACK
6
CONTINUOUS
10
1.23105
20
0.806233
11
1.22539
21
0.802121
0
LINE
8
BLACK
6
CONTINUOUS
10
1.22539
20
0.802121
11
1.219
21
0.799276
0
LINE
8
BLACK
6
CONTINUOUS
10
1.219
20
0.799276
11
1.21216
21
0.797821
0
LINE
8
BLACK
6
CONTINUOUS
10
1.21216
20
0.797821
11
1.20516
21
0.797821
0
LINE
8
BLACK
6
CONTINUOUS
10
1.20516
20
0.797821
11
1.19832
21
0.799276
0
LINE
8
BLACK
6
CONTINUOUS
10
1.19832
20
0.799276
11
1.19193
21
0.802121
0
LINE
8
BLACK
6
CONTINUOUS
10
1.19193
20
0.802121
11
1.18627
21
0.806233
0
LINE
8
BLACK
6
CONTINUOUS
10
1.18627
20
0.806233
11
1.18159
21
0.811432
0
LINE
8
BLACK
6
CONTINUOUS
10
1.18159
20
0.811432
11
1.17809
21
0.817491
0
LINE
8
BLACK
6
CONTINUOUS
10
1.17809
20
0.817491
11
1.17593
21
0.824145
0
LINE
8
BLACK
6
CONTINUOUS
10
1.17593
20
0.824145
11
1.1752
21
0.831102
0
LINE
8
BLACK
6
CONTINUOUS
10
1.1752
20
0.831102
11
1.17593
21
0.83806
0
LINE
8
BLACK
6
CONTINUOUS
10
1.17593
20
0.83806
11
1.17809
21
0.844714
0
LINE
8
BLACK
6
CONTINUOUS
10
1.17809
20
0.844714
11
1.18159
21
0.850772
0
LINE
8
BLACK
6
CONTINUOUS
10
1.18159
20
0.850772
11
1.1818
21
0.851006
0
LINE
8
BLACK
6
CONTINUOUS
10
1.1818
20
0.851006
11
1.16666
21
0.866142
0
LINE
8
BLACK
6
CONTINUOUS
10
1.16666
20
0.866142
11
1.16043
21
0.866142
0
LINE
8
BLACK
6
CONTINUOUS
10
1.16043
20
0.866142
11
0.988189
21
0.866142
0
LINE
8
BLACK
6
CONTINUOUS
10
0.988189
20
0.866142
11
0.987319
21
0.866267
0
LINE
8
BLACK
6
CONTINUOUS
10
0.987319
20
0.866267
11
0.987143
21
0.866254
0
LINE
8
BLACK
6
CONTINUOUS
10
0.987143
20
0.866254
11
0.987049
21
0.866306
0
LINE
8
BLACK
6
CONTINUOUS
10
0.987049
20
0.866306
11
0.986802
21
0.866341
0
LINE
8
BLACK
6
CONTINUOUS
10
0.986802
20
0.866341
11
0.985778
21
0.867
0
LINE
8
BLACK
6
CONTINUOUS
10
0.985778
20
0.867
11
0.984709
21
0.867583
0
LINE
8
BLACK
6
CONTINUOUS
10
0.984709
20
0.867583
11
0.972505
21
0.879787
0
LINE
8
BLACK
6
CONTINUOUS
10
0.972505
20
0.879787
11
0.970418
21
0.878724
0
LINE
8
BLACK
6
CONTINUOUS
10
0.970418
20
0.878724
11
0.965551
21
0.877953
0
LINE
8
BLACK
6
CONTINUOUS
10
0.965551
20
0.877953
11
0.960685
21
0.878724
0
LINE
8
BLACK
6
CONTINUOUS
10
0.960685
20
0.878724
11
0.956295
21
0.88096
0
LINE
8
BLACK
6
CONTINUOUS
10
0.956295
20
0.88096
11
0.952811
21
0.884444
0
LINE
8
BLACK
6
CONTINUOUS
10
0.952811
20
0.884444
11
0.950574
21
0.888834
0
LINE
8
BLACK
6
CONTINUOUS
10
0.950574
20
0.888834
11
0.949803
21
0.893701
0
LINE
8
BLACK
6
CONTINUOUS
10
0.949803
20
0.893701
11
0.950574
21
0.898567
0
LINE
8
BLACK
6
CONTINUOUS
10
0.950574
20
0.898567
11
0.952811
21
0.902957
0
LINE
8
BLACK
6
CONTINUOUS
10
0.952811
20
0.902957
11
0.956295
21
0.906441
0
LINE
8
BLACK
6
CONTINUOUS
10
0.956295
20
0.906441
11
0.960685
21
0.908678
0
LINE
8
BLACK
6
CONTINUOUS
10
0.960685
20
0.908678
11
0.965551
21
0.909449
0
LINE
8
BLACK
6
CONTINUOUS
10
0.965551
20
0.909449
11
0.970418
21
0.908678
0
LINE
8
BLACK
6
CONTINUOUS
10
1.24213
20
0.897638
11
1.1752
21
0.897638
0
LINE
8
BLACK
6
CONTINUOUS
10
1.1752
20
0.897638
11
1.1752
21
0.964567
0
LINE
8
BLACK
6
CONTINUOUS
10
1.1752
20
0.964567
11
1.24213
21
0.964567
0
LINE
8
BLACK
6
CONTINUOUS
10
1.24213
20
0.964567
11
1.24213
21
0.897638
0
LINE
8
BLACK
6
CONTINUOUS
10
0.736719
20
1.18872
11
0.74311
21
1.18587
0
LINE
8
BLACK
6
CONTINUOUS
10
0.74311
20
1.18587
11
0.74877
21
1.18176
0
LINE
8
BLACK
6
CONTINUOUS
10
0.74877
20
1.18176
11
0.753451
21
1.17656
0
LINE
8
BLACK
6
CONTINUOUS
10
0.753451
20
1.17656
11
0.756949
21
1.1705
0
LINE
8
BLACK
6
CONTINUOUS
10
0.756949
20
1.1705
11
0.759111
21
1.16385
0
LINE
8
BLACK
6
CONTINUOUS
10
0.759111
20
1.16385
11
0.759843
21
1.15689
0
LINE
8
BLACK
6
CONTINUOUS
10
0.759843
20
1.15689
11
0.759111
21
1.14993
0
LINE
8
BLACK
6
CONTINUOUS
10
0.759111
20
1.14993
11
0.756949
21
1.14328
0
LINE
8
BLACK
6
CONTINUOUS
10
0.756949
20
1.14328
11
0.753451
21
1.13722
0
LINE
8
BLACK
6
CONTINUOUS
10
0.753451
20
1.13722
11
0.74877
21
1.13202
0
LINE
8
BLACK
6
CONTINUOUS
10
0.74877
20
1.13202
11
0.74311
21
1.12791
0
LINE
8
BLACK
6
CONTINUOUS
10
0.74311
20
1.12791
11
0.736719
21
1.12506
0
LINE
8
BLACK
6
CONTINUOUS
10
0.736719
20
1.12506
11
0.729876
21
1.12361
0
LINE
8
BLACK
6
CONTINUOUS
10
0.729876
20
1.12361
11
0.72288
21
1.12361
0
LINE
8
BLACK
6
CONTINUOUS
10
0.72288
20
1.12361
11
0.716037
21
1.12506
0
LINE
8
BLACK
6
CONTINUOUS
10
0.716037
20
1.12506
11
0.709646
21
1.12791
0
LINE
8
BLACK
6
CONTINUOUS
10
0.709646
20
1.12791
11
0.703986
21
1.13202
0
LINE
8
BLACK
6
CONTINUOUS
10
0.703986
20
1.13202
11
0.699305
21
1.13722
0
LINE
8
BLACK
6
CONTINUOUS
10
0.699305
20
1.13722
11
0.695807
21
1.14328
0
LINE
8
BLACK
6
CONTINUOUS
10
0.695807
20
1.14328
11
0.693645
21
1.14993
0
LINE
8
BLACK
6
CONTINUOUS
10
0.693645
20
1.14993
11
0.692913
21
1.15689
0
LINE
8
BLACK
6
CONTINUOUS
10
0.692913
20
1.15689
11
0.693645
21
1.16385
0
LINE
8
BLACK
6
CONTINUOUS
10
0.693645
20
1.16385
11
0.695807
21
1.1705
0
LINE
8
BLACK
6
CONTINUOUS
10
0.695807
20
1.1705
11
0.699305
21
1.17656
0
LINE
8
BLACK
6
CONTINUOUS
10
0.699305
20
1.17656
11
0.703986
21
1.18176
0
LINE
8
BLACK
6
CONTINUOUS
10
0.703986
20
1.18176
11
0.709646
21
1.18587
0
LINE
8
BLACK
6
CONTINUOUS
10
0.709646
20
1.18587
11
0.716037
21
1.18872
0
LINE
8
BLACK
6
CONTINUOUS
10
0.716037
20
1.18872
11
0.72288
21
1.19017
0
LINE
8
BLACK
6
CONTINUOUS
10
0.72288
20
1.19017
11
0.729876
21
1.19017
0
LINE
8
BLACK
6
CONTINUOUS
10
0.729876
20
1.19017
11
0.736719
21
1.18872
0
LINE
8
BLACK
6
CONTINUOUS
10
0.836719
20
1.18872
11
0.84311
21
1.18587
0
LINE
8
BLACK
6
CONTINUOUS
10
0.84311
20
1.18587
11
0.84877
21
1.18176
0
LINE
8
BLACK
6
CONTINUOUS
10
0.84877
20
1.18176
11
0.853451
21
1.17656
0
LINE
8
BLACK
6
CONTINUOUS
10
0.853451
20
1.17656
11
0.856949
21
1.1705
0
LINE
8
BLACK
6
CONTINUOUS
10
0.856949
20
1.1705
11
0.859111
21
1.16385
0
LINE
8
BLACK
6
CONTINUOUS
10
0.859111
20
1.16385
11
0.859843
21
1.15689
0
LINE
8
BLACK
6
CONTINUOUS
10
0.859843
20
1.15689
11
0.859111
21
1.14993
0
LINE
8
BLACK
6
CONTINUOUS
10
0.859111
20
1.14993
11
0.856949
21
1.14328
0
LINE
8
BLACK
6
CONTINUOUS
10
0.856949
20
1.14328
11
0.853451
21
1.13722
0
LINE
8
BLACK
6
CONTINUOUS
10
0.853451
20
1.13722
11
0.84877
21
1.13202
0
LINE
8
BLACK
6
CONTINUOUS
10
0.84877
20
1.13202
11
0.84311
21
1.12791
0
LINE
8
BLACK
6
CONTINUOUS
10
0.84311
20
1.12791
11
0.836719
21
1.12506
0
LINE
8
BLACK
6
CONTINUOUS
10
0.836719
20
1.12506
11
0.829876
21
1.12361
0
LINE
8
BLACK
6
CONTINUOUS
10
0.829876
20
1.12361
11
0.82288
21
1.12361
0
LINE
8
BLACK
6
CONTINUOUS
10
0.82288
20
1.12361
11
0.816037
21
1.12506
0
LINE
8
BLACK
6
CONTINUOUS
10
0.816037
20
1.12506
11
0.809646
21
1.12791
0
LINE
8
BLACK
6
CONTINUOUS
10
0.809646
20
1.12791
11
0.803986
21
1.13202
0
LINE
8
BLACK
6
CONTINUOUS
10
0.803986
20
1.13202
11
0.799305
21
1.13722
0
LINE
8
BLACK
6
CONTINUOUS
10
0.799305
20
1.13722
11
0.795807
21
1.14328
0
LINE
8
BLACK
6
CONTINUOUS
10
0.795807
20
1.14328
11
0.793645
21
1.14993
0
LINE
8
BLACK
6
CONTINUOUS
10
0.793645
20
1.14993
11
0.792913
21
1.15689
0
LINE
8
BLACK
6
CONTINUOUS
10
0.792913
20
1.15689
11
0.793645
21
1.16385
0
LINE
8
BLACK
6
CONTINUOUS
10
0.793645
20
1.16385
11
0.795807
21
1.1705
0
LINE
8
BLACK
6
CONTINUOUS
10
0.795807
20
1.1705
11
0.799305
21
1.17656
0
LINE
8
BLACK
6
CONTINUOUS
10
0.799305
20
1.17656
11
0.803986
21
1.18176
0
LINE
8
BLACK
6
CONTINUOUS
10
0.803986
20
1.18176
11
0.809646
21
1.18587
0
LINE
8
BLACK
6
CONTINUOUS
10
0.809646
20
1.18587
11
0.816037
21
1.18872
0
LINE
8
BLACK
6
CONTINUOUS
10
0.816037
20
1.18872
11
0.82288
21
1.19017
0
LINE
8
BLACK
6
CONTINUOUS
10
0.82288
20
1.19017
11
0.829876
21
1.19017
0
LINE
8
BLACK
6
CONTINUOUS
10
0.829876
20
1.19017
11
0.836719
21
1.18872
0
LINE
8
BLACK
6
CONTINUOUS
10
1.38632
20
1.38977
11
1.38806
21
1.38904
0
LINE
8
BLACK
6
CONTINUOUS
10
1.38806
20
1.38904
11
1.38878
21
1.38731
0
LINE
8
BLACK
6
CONTINUOUS
10
1.38878
20
1.38731
11
1.38878
21
0.215061
0
LINE
8
BLACK
6
CONTINUOUS
10
1.38878
20
0.215061
11
1.38806
21
0.213321
0
LINE
8
BLACK
6
CONTINUOUS
10
1.38806
20
0.213321
11
1.38632
21
0.212601
0
LINE
8
BLACK
6
CONTINUOUS
10
1.38632
20
0.212601
11
1.38632
21
0.212601
0
LINE
8
BLACK
6
CONTINUOUS
10
1.38632
20
0.212601
11
0.216041
21
0.213581
0
LINE
8
BLACK
6
CONTINUOUS
10
0.216041
20
0.213581
11
0.214302
21
0.214303
0
LINE
8
BLACK
6
CONTINUOUS
10
0.214302
20
0.214303
11
0.213583
21
0.216041
0
LINE
8
BLACK
6
CONTINUOUS
10
0.213583
20
0.216041
11
0.213583
21
0.279933
0
LINE
8
BLACK
6
CONTINUOUS
10
0.213583
20
0.279933
11
0.213583
21
0.402362
0
LINE
8
BLACK
6
CONTINUOUS
10
0.213583
20
0.402362
11
0.213583
21
0.479933
0
LINE
8
BLACK
6
CONTINUOUS
10
0.213583
20
0.479933
11
0.213583
21
0.602362
0
LINE
8
BLACK
6
CONTINUOUS
10
0.213583
20
0.602362
11
0.213583
21
0.699213
0
LINE
8
BLACK
6
CONTINUOUS
10
0.213583
20
0.699213
11
0.213583
21
0.811024
0
LINE
8
BLACK
6
CONTINUOUS
10
0.213583
20
0.811024
11
0.213583
21
0.876784
0
LINE
8
BLACK
6
CONTINUOUS
10
0.213583
20
0.876784
11
0.213583
21
1.15689
0
LINE
8
BLACK
6
CONTINUOUS
10
0.213583
20
1.15689
11
0.213583
21
1.22265
0
LINE
8
BLACK
6
CONTINUOUS
10
0.213583
20
1.22265
11
0.213583
21
1.38752
0
LINE
8
BLACK
6
CONTINUOUS
10
0.213583
20
1.38752
11
0.214303
21
1.38926
0
LINE
8
BLACK
6
CONTINUOUS
10
0.214303
20
1.38926
11
0.216043
21
1.38998
0
LINE
8
BLACK
6
CONTINUOUS
10
0.216043
20
1.38998
11
1.13024
21
1.38998
0
LINE
8
BLACK
6
CONTINUOUS
10
1.13024
20
1.38998
11
1.38632
21
1.38977
0
LINE
8
BLACK
6
CONTINUOUS
10
0.82516
20
0.354933
11
0.82516
21
0.354933
0
LINE
8
BLACK
6
CONTINUOUS
10
0.82516
20
0.354933
11
0.817364
21
0.352568
0
LINE
8
BLACK
6
CONTINUOUS
10
0.817364
20
0.352568
11
0.817364
21
0.352568
0
LINE
8
BLACK
6
CONTINUOUS
10
0.817364
20
0.352568
11
0.810179
21
0.348728
0
LINE
8
BLACK
6
CONTINUOUS
10
0.810179
20
0.348728
11
0.810179
21
0.348728
0
LINE
8
BLACK
6
CONTINUOUS
10
0.810179
20
0.348728
11
0.803882
21
0.34356
0
LINE
8
BLACK
6
CONTINUOUS
10
0.803882
20
0.34356
11
0.803881
21
0.343559
0
LINE
8
BLACK
6
CONTINUOUS
10
0.803881
20
0.343559
11
0.798713
21
0.337262
0
LINE
8
BLACK
6
CONTINUOUS
10
0.798713
20
0.337262
11
0.798713
21
0.337262
0
LINE
8
BLACK
6
CONTINUOUS
10
0.798713
20
0.337262
11
0.794873
21
0.330077
0
LINE
8
BLACK
6
CONTINUOUS
10
0.794873
20
0.330077
11
0.794873
21
0.330077
0
LINE
8
BLACK
6
CONTINUOUS
10
0.794873
20
0.330077
11
0.792508
21
0.322281
0
LINE
8
BLACK
6
CONTINUOUS
10
0.792508
20
0.322281
11
0.792508
21
0.322281
0
LINE
8
BLACK
6
CONTINUOUS
10
0.792508
20
0.322281
11
0.791709
21
0.314173
0
LINE
8
BLACK
6
CONTINUOUS
10
0.791709
20
0.314173
11
0.791709
21
0.314173
0
LINE
8
BLACK
6
CONTINUOUS
10
0.791709
20
0.314173
11
0.792508
21
0.306066
0
LINE
8
BLACK
6
CONTINUOUS
10
0.792508
20
0.306066
11
0.792508
21
0.306066
0
LINE
8
BLACK
6
CONTINUOUS
10
0.792508
20
0.306066
11
0.794873
21
0.29827
0
LINE
8
BLACK
6
CONTINUOUS
10
0.794873
20
0.29827
11
0.794873
21
0.29827
0
LINE
8
BLACK
6
CONTINUOUS
10
0.794873
20
0.29827
11
0.798713
21
0.291085
0
LINE
8
BLACK
6
CONTINUOUS
10
0.798713
20
0.291085
11
0.798713
21
0.291084
0
LINE
8
BLACK
6
CONTINUOUS
10
0.798713
20
0.291084
11
0.80387
21
0.284801
0
LINE
8
BLACK
6
CONTINUOUS
10
0.80387
20
0.284801
11
0.803881
21
0.284787
0
LINE
8
BLACK
6
CONTINUOUS
10
0.803881
20
0.284787
11
0.810179
21
0.279619
0
LINE
8
BLACK
6
CONTINUOUS
10
0.810179
20
0.279619
11
0.810179
21
0.279619
0
LINE
8
BLACK
6
CONTINUOUS
10
0.810179
20
0.279619
11
0.810179
21
0.279619
0
LINE
8
BLACK
6
CONTINUOUS
10
0.810179
20
0.279619
11
0.813146
21
0.278033
0
LINE
8
BLACK
6
CONTINUOUS
10
0.813146
20
0.278033
11
0.817364
21
0.275778
0
LINE
8
BLACK
6
CONTINUOUS
10
0.817364
20
0.275778
11
0.82516
21
0.273413
0
LINE
8
BLACK
6
CONTINUOUS
10
0.82516
20
0.273413
11
0.831036
21
0.272835
0
LINE
8
BLACK
6
CONTINUOUS
10
0.831036
20
0.272835
11
0.833268
21
0.272615
0
LINE
8
BLACK
6
CONTINUOUS
10
0.833268
20
0.272615
11
0.833268
21
0.272615
0
LINE
8
BLACK
6
CONTINUOUS
10
0.833268
20
0.272615
11
0.833268
21
0.272615
0
LINE
8
BLACK
6
CONTINUOUS
10
0.833268
20
0.272615
11
0.841375
21
0.273413
0
LINE
8
BLACK
6
CONTINUOUS
10
0.841375
20
0.273413
11
0.849171
21
0.275778
0
LINE
8
BLACK
6
CONTINUOUS
10
0.849171
20
0.275778
11
0.856356
21
0.279619
0
LINE
8
BLACK
6
CONTINUOUS
10
0.856356
20
0.279619
11
0.862654
21
0.284787
0
LINE
8
BLACK
6
CONTINUOUS
10
0.862654
20
0.284787
11
0.867822
21
0.291085
0
LINE
8
BLACK
6
CONTINUOUS
10
0.867822
20
0.291085
11
0.871663
21
0.29827
0
LINE
8
BLACK
6
CONTINUOUS
10
0.871663
20
0.29827
11
0.872904
21
0.302362
0
LINE
8
BLACK
6
CONTINUOUS
10
0.872904
20
0.302362
11
0.874028
21
0.306066
0
LINE
8
BLACK
6
CONTINUOUS
10
0.874028
20
0.306066
11
0.874826
21
0.314173
0
LINE
8
BLACK
6
CONTINUOUS
10
0.874826
20
0.314173
11
0.874028
21
0.322281
0
LINE
8
BLACK
6
CONTINUOUS
10
0.874028
20
0.322281
11
0.871663
21
0.330077
0
LINE
8
BLACK
6
CONTINUOUS
10
0.871663
20
0.330077
11
0.869408
21
0.334295
0
LINE
8
BLACK
6
CONTINUOUS
10
0.869408
20
0.334295
11
0.867822
21
0.337262
0
LINE
8
BLACK
6
CONTINUOUS
10
0.867822
20
0.337262
11
0.867822
21
0.337262
0
LINE
8
BLACK
6
CONTINUOUS
10
0.867822
20
0.337262
11
0.867822
21
0.337262
0
LINE
8
BLACK
6
CONTINUOUS
10
0.867822
20
0.337262
11
0.866284
21
0.339136
0
LINE
8
BLACK
6
CONTINUOUS
10
0.866284
20
0.339136
11
0.862654
21
0.343559
0
LINE
8
BLACK
6
CONTINUOUS
10
0.862654
20
0.343559
11
0.862654
21
0.34356
0
LINE
8
BLACK
6
CONTINUOUS
10
0.862654
20
0.34356
11
0.856356
21
0.348728
0
LINE
8
BLACK
6
CONTINUOUS
10
0.856356
20
0.348728
11
0.856356
21
0.348728
0
LINE
8
BLACK
6
CONTINUOUS
10
0.856356
20
0.348728
11
0.856356
21
0.348728
0
LINE
8
BLACK
6
CONTINUOUS
10
0.856356
20
0.348728
11
0.856356
21
0.348728
0
LINE
8
BLACK
6
CONTINUOUS
10
0.856356
20
0.348728
11
0.856356
21
0.348728
0
LINE
8
BLACK
6
CONTINUOUS
10
0.856356
20
0.348728
11
0.849171
21
0.352568
0
LINE
8
BLACK
6
CONTINUOUS
10
0.849171
20
0.352568
11
0.849171
21
0.352568
0
LINE
8
BLACK
6
CONTINUOUS
10
0.849171
20
0.352568
11
0.841375
21
0.354933
0
LINE
8
BLACK
6
CONTINUOUS
10
0.841375
20
0.354933
11
0.841375
21
0.354933
0
LINE
8
BLACK
6
CONTINUOUS
10
0.841375
20
0.354933
11
0.833268
21
0.355732
0
LINE
8
BLACK
6
CONTINUOUS
10
0.833268
20
0.355732
11
0.82516
21
0.354933
0
LINE
8
BLACK
6
CONTINUOUS
10
0.766732
20
0.280709
11
0.745079
21
0.280709
0
LINE
8
BLACK
6
CONTINUOUS
10
0.745079
20
0.280709
11
0.745079
21
0.272835
0
LINE
8
BLACK
6
CONTINUOUS
10
0.745079
20
0.272835
11
0.767508
21
0.272835
0
LINE
8
BLACK
6
CONTINUOUS
10
0.767508
20
0.272835
11
0.767508
21
0.272835
0
LINE
8
BLACK
6
CONTINUOUS
10
0.767508
20
0.272835
11
0.769804
21
0.273291
0
LINE
8
BLACK
6
CONTINUOUS
10
0.769804
20
0.273291
11
0.769805
21
0.273292
0
LINE
8
BLACK
6
CONTINUOUS
10
0.769805
20
0.273292
11
0.772409
21
0.275032
0
LINE
8
BLACK
6
CONTINUOUS
10
0.772409
20
0.275032
11
0.774149
21
0.277636
0
LINE
8
BLACK
6
CONTINUOUS
10
0.774149
20
0.277636
11
0.774149
21
0.277636
0
LINE
8
BLACK
6
CONTINUOUS
10
0.774149
20
0.277636
11
0.774606
21
0.279933
0
LINE
8
BLACK
6
CONTINUOUS
10
0.774606
20
0.279933
11
0.774606
21
0.279933
0
LINE
8
BLACK
6
CONTINUOUS
10
0.774606
20
0.279933
11
0.774606
21
0.302362
0
LINE
8
BLACK
6
CONTINUOUS
10
0.774606
20
0.302362
11
0.766732
21
0.302362
0
LINE
8
BLACK
6
CONTINUOUS
10
0.766732
20
0.302362
11
0.766732
21
0.280709
0
LINE
8
BLACK
6
CONTINUOUS
10
0.963839
20
0.300562
11
0.960341
21
0.294503
0
LINE
8
BLACK
6
CONTINUOUS
10
0.960341
20
0.294503
11
0.95566
21
0.289304
0
LINE
8
BLACK
6
CONTINUOUS
10
0.95566
20
0.289304
11
0.95
21
0.285192
0
LINE
8
BLACK
6
CONTINUOUS
10
0.95
20
0.285192
11
0.945079
21
0.283001
0
LINE
8
BLACK
6
CONTINUOUS
10
0.945079
20
0.283001
11
0.945079
21
0.274557
0
LINE
8
BLACK
6
CONTINUOUS
10
0.945079
20
0.274557
11
0.949164
21
0.275797
0
LINE
8
BLACK
6
CONTINUOUS
10
0.949164
20
0.275797
11
0.949164
21
0.275797
0
LINE
8
BLACK
6
CONTINUOUS
10
0.949164
20
0.275797
11
0.956345
21
0.279635
0
LINE
8
BLACK
6
CONTINUOUS
10
0.956345
20
0.279635
11
0.956345
21
0.279635
0
LINE
8
BLACK
6
CONTINUOUS
10
0.956345
20
0.279635
11
0.96264
21
0.284801
0
LINE
8
BLACK
6
CONTINUOUS
10
0.96264
20
0.284801
11
0.967806
21
0.291096
0
LINE
8
BLACK
6
CONTINUOUS
10
0.967806
20
0.291096
11
0.967806
21
0.291096
0
LINE
8
BLACK
6
CONTINUOUS
10
0.967806
20
0.291096
11
0.971644
21
0.298277
0
LINE
8
BLACK
6
CONTINUOUS
10
0.971644
20
0.298277
11
0.972884
21
0.302362
0
LINE
8
BLACK
6
CONTINUOUS
10
0.972884
20
0.302362
11
0.964424
21
0.302362
0
LINE
8
BLACK
6
CONTINUOUS
10
0.964424
20
0.302362
11
0.963839
21
0.300562
0
LINE
8
BLACK
6
CONTINUOUS
10
0.945079
20
0.345346
11
0.95
21
0.343154
0
LINE
8
BLACK
6
CONTINUOUS
10
0.95
20
0.343154
11
0.95566
21
0.339042
0
LINE
8
BLACK
6
CONTINUOUS
10
0.95566
20
0.339042
11
0.960341
21
0.333843
0
LINE
8
BLACK
6
CONTINUOUS
10
0.960341
20
0.333843
11
0.963839
21
0.327784
0
LINE
8
BLACK
6
CONTINUOUS
10
0.963839
20
0.327784
11
0.964424
21
0.325984
0
LINE
8
BLACK
6
CONTINUOUS
10
0.964424
20
0.325984
11
0.972884
21
0.325984
0
LINE
8
BLACK
6
CONTINUOUS
10
0.972884
20
0.325984
11
0.972884
21
0.325984
0
LINE
8
BLACK
6
CONTINUOUS
10
0.972884
20
0.325984
11
0.971644
21
0.330069
0
LINE
8
BLACK
6
CONTINUOUS
10
0.971644
20
0.330069
11
0.967806
21
0.337251
0
LINE
8
BLACK
6
CONTINUOUS
10
0.967806
20
0.337251
11
0.967806
21
0.337251
0
LINE
8
BLACK
6
CONTINUOUS
10
0.967806
20
0.337251
11
0.96264
21
0.343545
0
LINE
8
BLACK
6
CONTINUOUS
10
0.96264
20
0.343545
11
0.956345
21
0.348711
0
LINE
8
BLACK
6
CONTINUOUS
10
0.956345
20
0.348711
11
0.956345
21
0.348711
0
LINE
8
BLACK
6
CONTINUOUS
10
0.956345
20
0.348711
11
0.949164
21
0.35255
0
LINE
8
BLACK
6
CONTINUOUS
10
0.949164
20
0.35255
11
0.945079
21
0.353789
0
LINE
8
BLACK
6
CONTINUOUS
10
0.945079
20
0.353789
11
0.945079
21
0.345346
0
LINE
8
BLACK
6
CONTINUOUS
10
0.917371
20
0.35255
11
0.91019
21
0.348711
0
LINE
8
BLACK
6
CONTINUOUS
10
0.91019
20
0.348711
11
0.91019
21
0.348711
0
LINE
8
BLACK
6
CONTINUOUS
10
0.91019
20
0.348711
11
0.903895
21
0.343545
0
LINE
8
BLACK
6
CONTINUOUS
10
0.903895
20
0.343545
11
0.89873
21
0.337251
0
LINE
8
BLACK
6
CONTINUOUS
10
0.89873
20
0.337251
11
0.898729
21
0.337251
0
LINE
8
BLACK
6
CONTINUOUS
10
0.898729
20
0.337251
11
0.894891
21
0.330069
0
LINE
8
BLACK
6
CONTINUOUS
10
0.894891
20
0.330069
11
0.893652
21
0.325984
0
LINE
8
BLACK
6
CONTINUOUS
10
0.893652
20
0.325984
11
0.893652
21
0.325984
0
LINE
8
BLACK
6
CONTINUOUS
10
0.893652
20
0.325984
11
0.902111
21
0.325984
0
LINE
8
BLACK
6
CONTINUOUS
10
0.902111
20
0.325984
11
0.902696
21
0.327784
0
LINE
8
BLACK
6
CONTINUOUS
10
0.902696
20
0.327784
11
0.906194
21
0.333843
0
LINE
8
BLACK
6
CONTINUOUS
10
0.906194
20
0.333843
11
0.910876
21
0.339042
0
LINE
8
BLACK
6
CONTINUOUS
10
0.910876
20
0.339042
11
0.916535
21
0.343154
0
LINE
8
BLACK
6
CONTINUOUS
10
0.916535
20
0.343154
11
0.921457
21
0.345346
0
LINE
8
BLACK
6
CONTINUOUS
10
0.921457
20
0.345346
11
0.921457
21
0.353789
0
LINE
8
BLACK
6
CONTINUOUS
10
0.921457
20
0.353789
11
0.921457
21
0.353789
0
LINE
8
BLACK
6
CONTINUOUS
10
0.921457
20
0.353789
11
0.917371
21
0.35255
0
LINE
8
BLACK
6
CONTINUOUS
10
0.745079
20
0.347638
11
0.766732
21
0.347638
0
LINE
8
BLACK
6
CONTINUOUS
10
0.766732
20
0.347638
11
0.766732
21
0.325984
0
LINE
8
BLACK
6
CONTINUOUS
10
0.766732
20
0.325984
11
0.774606
21
0.325984
0
LINE
8
BLACK
6
CONTINUOUS
10
0.774606
20
0.325984
11
0.774606
21
0.348413
0
LINE
8
BLACK
6
CONTINUOUS
10
0.774606
20
0.348413
11
0.774606
21
0.348413
0
LINE
8
BLACK
6
CONTINUOUS
10
0.774606
20
0.348413
11
0.774149
21
0.35071
0
LINE
8
BLACK
6
CONTINUOUS
10
0.774149
20
0.35071
11
0.774149
21
0.35071
0
LINE
8
BLACK
6
CONTINUOUS
10
0.774149
20
0.35071
11
0.772409
21
0.353315
0
LINE
8
BLACK
6
CONTINUOUS
10
0.772409
20
0.353315
11
0.769805
21
0.355055
0
LINE
8
BLACK
6
CONTINUOUS
10
0.769805
20
0.355055
11
0.769804
21
0.355055
0
LINE
8
BLACK
6
CONTINUOUS
10
0.769804
20
0.355055
11
0.767508
21
0.355512
0
LINE
8
BLACK
6
CONTINUOUS
10
0.767508
20
0.355512
11
0.745079
21
0.355512
0
LINE
8
BLACK
6
CONTINUOUS
10
0.745079
20
0.355512
11
0.745079
21
0.347638
0
LINE
8
BLACK
6
CONTINUOUS
10
0.696731
20
0.355055
11
0.696731
21
0.355055
0
LINE
8
BLACK
6
CONTINUOUS
10
0.696731
20
0.355055
11
0.694126
21
0.353315
0
LINE
8
BLACK
6
CONTINUOUS
10
0.694126
20
0.353315
11
0.692386
21
0.35071
0
LINE
8
BLACK
6
CONTINUOUS
10
0.692386
20
0.35071
11
0.692386
21
0.35071
0
LINE
8
BLACK
6
CONTINUOUS
10
0.692386
20
0.35071
11
0.691929
21
0.348413
0
LINE
8
BLACK
6
CONTINUOUS
10
0.691929
20
0.348413
11
0.691929
21
0.325984
0
LINE
8
BLACK
6
CONTINUOUS
10
0.691929
20
0.325984
11
0.699803
21
0.325984
0
LINE
8
BLACK
6
CONTINUOUS
10
0.699803
20
0.325984
11
0.699803
21
0.347638
0
LINE
8
BLACK
6
CONTINUOUS
10
0.699803
20
0.347638
11
0.721457
21
0.347638
0
LINE
8
BLACK
6
CONTINUOUS
10
0.721457
20
0.347638
11
0.721457
21
0.355512
0
LINE
8
BLACK
6
CONTINUOUS
10
0.721457
20
0.355512
11
0.699028
21
0.355512
0
LINE
8
BLACK
6
CONTINUOUS
10
0.699028
20
0.355512
11
0.696731
21
0.355055
0
LINE
8
BLACK
6
CONTINUOUS
10
0.82516
20
0.454933
11
0.82516
21
0.454933
0
LINE
8
BLACK
6
CONTINUOUS
10
0.82516
20
0.454933
11
0.817364
21
0.452568
0
LINE
8
BLACK
6
CONTINUOUS
10
0.817364
20
0.452568
11
0.817364
21
0.452568
0
LINE
8
BLACK
6
CONTINUOUS
10
0.817364
20
0.452568
11
0.810179
21
0.448728
0
LINE
8
BLACK
6
CONTINUOUS
10
0.810179
20
0.448728
11
0.810179
21
0.448728
0
LINE
8
BLACK
6
CONTINUOUS
10
0.810179
20
0.448728
11
0.803882
21
0.44356
0
LINE
8
BLACK
6
CONTINUOUS
10
0.803882
20
0.44356
11
0.803881
21
0.443559
0
LINE
8
BLACK
6
CONTINUOUS
10
0.803881
20
0.443559
11
0.798713
21
0.437262
0
LINE
8
BLACK
6
CONTINUOUS
10
0.798713
20
0.437262
11
0.798713
21
0.437262
0
LINE
8
BLACK
6
CONTINUOUS
10
0.798713
20
0.437262
11
0.794873
21
0.430077
0
LINE
8
BLACK
6
CONTINUOUS
10
0.794873
20
0.430077
11
0.794873
21
0.430077
0
LINE
8
BLACK
6
CONTINUOUS
10
0.794873
20
0.430077
11
0.792508
21
0.422281
0
LINE
8
BLACK
6
CONTINUOUS
10
0.792508
20
0.422281
11
0.792508
21
0.422281
0
LINE
8
BLACK
6
CONTINUOUS
10
0.792508
20
0.422281
11
0.791709
21
0.414173
0
LINE
8
BLACK
6
CONTINUOUS
10
0.791709
20
0.414173
11
0.791709
21
0.414173
0
LINE
8
BLACK
6
CONTINUOUS
10
0.791709
20
0.414173
11
0.792508
21
0.406066
0
LINE
8
BLACK
6
CONTINUOUS
10
0.792508
20
0.406066
11
0.792508
21
0.406066
0
LINE
8
BLACK
6
CONTINUOUS
10
0.792508
20
0.406066
11
0.794873
21
0.39827
0
LINE
8
BLACK
6
CONTINUOUS
10
0.794873
20
0.39827
11
0.794873
21
0.39827
0
LINE
8
BLACK
6
CONTINUOUS
10
0.794873
20
0.39827
11
0.798713
21
0.391085
0
LINE
8
BLACK
6
CONTINUOUS
10
0.798713
20
0.391085
11
0.798713
21
0.391084
0
LINE
8
BLACK
6
CONTINUOUS
10
0.798713
20
0.391084
11
0.80387
21
0.384801
0
LINE
8
BLACK
6
CONTINUOUS
10
0.80387
20
0.384801
11
0.803881
21
0.384787
0
LINE
8
BLACK
6
CONTINUOUS
10
0.803881
20
0.384787
11
0.810179
21
0.379619
0
LINE
8
BLACK
6
CONTINUOUS
10
0.810179
20
0.379619
11
0.810179
21
0.379619
0
LINE
8
BLACK
6
CONTINUOUS
10
0.810179
20
0.379619
11
0.810179
21
0.379619
0
LINE
8
BLACK
6
CONTINUOUS
10
0.810179
20
0.379619
11
0.813146
21
0.378033
0
LINE
8
BLACK
6
CONTINUOUS
10
0.813146
20
0.378033
11
0.817364
21
0.375778
0
LINE
8
BLACK
6
CONTINUOUS
10
0.817364
20
0.375778
11
0.82516
21
0.373413
0
LINE
8
BLACK
6
CONTINUOUS
10
0.82516
20
0.373413
11
0.833268
21
0.372615
0
LINE
8
BLACK
6
CONTINUOUS
10
0.833268
20
0.372615
11
0.841375
21
0.373413
0
LINE
8
BLACK
6
CONTINUOUS
10
0.841375
20
0.373413
11
0.849171
21
0.375778
0
LINE
8
BLACK
6
CONTINUOUS
10
0.849171
20
0.375778
11
0.856356
21
0.379619
0
LINE
8
BLACK
6
CONTINUOUS
10
0.856356
20
0.379619
11
0.862654
21
0.384787
0
LINE
8
BLACK
6
CONTINUOUS
10
0.862654
20
0.384787
11
0.867822
21
0.391085
0
LINE
8
BLACK
6
CONTINUOUS
10
0.867822
20
0.391085
11
0.871663
21
0.39827
0
LINE
8
BLACK
6
CONTINUOUS
10
0.871663
20
0.39827
11
0.872904
21
0.402362
0
LINE
8
BLACK
6
CONTINUOUS
10
0.872904
20
0.402362
11
0.874028
21
0.406066
0
LINE
8
BLACK
6
CONTINUOUS
10
0.874028
20
0.406066
11
0.874826
21
0.414173
0
LINE
8
BLACK
6
CONTINUOUS
10
0.874826
20
0.414173
11
0.874028
21
0.422281
0
LINE
8
BLACK
6
CONTINUOUS
10
0.874028
20
0.422281
11
0.871663
21
0.430077
0
LINE
8
BLACK
6
CONTINUOUS
10
0.871663
20
0.430077
11
0.869408
21
0.434295
0
LINE
8
BLACK
6
CONTINUOUS
10
0.869408
20
0.434295
11
0.867822
21
0.437262
0
LINE
8
BLACK
6
CONTINUOUS
10
0.867822
20
0.437262
11
0.867822
21
0.437262
0
LINE
8
BLACK
6
CONTINUOUS
10
0.867822
20
0.437262
11
0.867822
21
0.437262
0
LINE
8
BLACK
6
CONTINUOUS
10
0.867822
20
0.437262
11
0.866284
21
0.439136
0
LINE
8
BLACK
6
CONTINUOUS
10
0.866284
20
0.439136
11
0.862654
21
0.443559
0
LINE
8
BLACK
6
CONTINUOUS
10
0.862654
20
0.443559
11
0.862654
21
0.44356
0
LINE
8
BLACK
6
CONTINUOUS
10
0.862654
20
0.44356
11
0.856356
21
0.448728
0
LINE
8
BLACK
6
CONTINUOUS
10
0.856356
20
0.448728
11
0.856356
21
0.448728
0
LINE
8
BLACK
6
CONTINUOUS
10
0.856356
20
0.448728
11
0.856356
21
0.448728
0
LINE
8
BLACK
6
CONTINUOUS
10
0.856356
20
0.448728
11
0.856356
21
0.448728
0
LINE
8
BLACK
6
CONTINUOUS
10
0.856356
20
0.448728
11
0.856356
21
0.448728
0
LINE
8
BLACK
6
CONTINUOUS
10
0.856356
20
0.448728
11
0.849171
21
0.452568
0
LINE
8
BLACK
6
CONTINUOUS
10
0.849171
20
0.452568
11
0.849171
21
0.452568
0
LINE
8
BLACK
6
CONTINUOUS
10
0.849171
20
0.452568
11
0.841375
21
0.454933
0
LINE
8
BLACK
6
CONTINUOUS
10
0.841375
20
0.454933
11
0.841375
21
0.454933
0
LINE
8
BLACK
6
CONTINUOUS
10
0.841375
20
0.454933
11
0.833268
21
0.455732
0
LINE
8
BLACK
6
CONTINUOUS
10
0.833268
20
0.455732
11
0.82516
21
0.454933
0
LINE
8
BLACK
6
CONTINUOUS
10
0.693652
20
0.402362
11
0.694891
21
0.398277
0
LINE
8
BLACK
6
CONTINUOUS
10
0.694891
20
0.398277
11
0.698729
21
0.391096
0
LINE
8
BLACK
6
CONTINUOUS
10
0.698729
20
0.391096
11
0.69873
21
0.391096
0
LINE
8
BLACK
6
CONTINUOUS
10
0.69873
20
0.391096
11
0.703895
21
0.384801
0
LINE
8
BLACK
6
CONTINUOUS
10
0.703895
20
0.384801
11
0.71019
21
0.379635
0
LINE
8
BLACK
6
CONTINUOUS
10
0.71019
20
0.379635
11
0.71019
21
0.379635
0
LINE
8
BLACK
6
CONTINUOUS
10
0.71019
20
0.379635
11
0.717371
21
0.375797
0
LINE
8
BLACK
6
CONTINUOUS
10
0.717371
20
0.375797
11
0.717372
21
0.375797
0
LINE
8
BLACK
6
CONTINUOUS
10
0.717372
20
0.375797
11
0.721457
21
0.374557
0
LINE
8
BLACK
6
CONTINUOUS
10
0.721457
20
0.374557
11
0.721457
21
0.383001
0
LINE
8
BLACK
6
CONTINUOUS
10
0.721457
20
0.383001
11
0.716535
21
0.385192
0
LINE
8
BLACK
6
CONTINUOUS
10
0.716535
20
0.385192
11
0.710876
21
0.389304
0
LINE
8
BLACK
6
CONTINUOUS
10
0.710876
20
0.389304
11
0.706194
21
0.394503
0
LINE
8
BLACK
6
CONTINUOUS
10
0.706194
20
0.394503
11
0.702696
21
0.400562
0
LINE
8
BLACK
6
CONTINUOUS
10
0.702696
20
0.400562
11
0.702111
21
0.402362
0
LINE
8
BLACK
6
CONTINUOUS
10
0.702111
20
0.402362
11
0.693652
21
0.402362
0
LINE
8
BLACK
6
CONTINUOUS
10
0.763839
20
0.400562
11
0.760341
21
0.394503
0
LINE
8
BLACK
6
CONTINUOUS
10
0.760341
20
0.394503
11
0.75566
21
0.389304
0
LINE
8
BLACK
6
CONTINUOUS
10
0.75566
20
0.389304
11
0.75
21
0.385192
0
LINE
8
BLACK
6
CONTINUOUS
10
0.75
20
0.385192
11
0.745079
21
0.383001
0
LINE
8
BLACK
6
CONTINUOUS
10
0.745079
20
0.383001
11
0.745079
21
0.374557
0
LINE
8
BLACK
6
CONTINUOUS
10
0.745079
20
0.374557
11
0.749164
21
0.375797
0
LINE
8
BLACK
6
CONTINUOUS
10
0.749164
20
0.375797
11
0.749164
21
0.375797
0
LINE
8
BLACK
6
CONTINUOUS
10
0.749164
20
0.375797
11
0.756345
21
0.379635
0
LINE
8
BLACK
6
CONTINUOUS
10
0.756345
20
0.379635
11
0.756345
21
0.379635
0
LINE
8
BLACK
6
CONTINUOUS
10
0.756345
20
0.379635
11
0.76264
21
0.384801
0
LINE
8
BLACK
6
CONTINUOUS
10
0.76264
20
0.384801
11
0.767806
21
0.391096
0
LINE
8
BLACK
6
CONTINUOUS
10
0.767806
20
0.391096
11
0.767806
21
0.391096
0
LINE
8
BLACK
6
CONTINUOUS
10
0.767806
20
0.391096
11
0.771644
21
0.398277
0
LINE
8
BLACK
6
CONTINUOUS
10
0.771644
20
0.398277
11
0.772884
21
0.402362
0
LINE
8
BLACK
6
CONTINUOUS
10
0.772884
20
0.402362
11
0.764424
21
0.402362
0
LINE
8
BLACK
6
CONTINUOUS
10
0.764424
20
0.402362
11
0.763839
21
0.400562
0
LINE
8
BLACK
6
CONTINUOUS
10
0.963839
20
0.400562
11
0.960341
21
0.394503
0
LINE
8
BLACK
6
CONTINUOUS
10
0.960341
20
0.394503
11
0.95566
21
0.389304
0
LINE
8
BLACK
6
CONTINUOUS
10
0.95566
20
0.389304
11
0.95
21
0.385192
0
LINE
8
BLACK
6
CONTINUOUS
10
0.95
20
0.385192
11
0.945079
21
0.383001
0
LINE
8
BLACK
6
CONTINUOUS
10
0.945079
20
0.383001
11
0.945079
21
0.374557
0
LINE
8
BLACK
6
CONTINUOUS
10
0.945079
20
0.374557
11
0.949164
21
0.375797
0
LINE
8
BLACK
6
CONTINUOUS
10
0.949164
20
0.375797
11
0.949164
21
0.375797
0
LINE
8
BLACK
6
CONTINUOUS
10
0.949164
20
0.375797
11
0.956345
21
0.379635
0
LINE
8
BLACK
6
CONTINUOUS
10
0.956345
20
0.379635
11
0.956345
21
0.379635
0
LINE
8
BLACK
6
CONTINUOUS
10
0.956345
20
0.379635
11
0.96264
21
0.384801
0
LINE
8
BLACK
6
CONTINUOUS
10
0.96264
20
0.384801
11
0.967806
21
0.391096
0
LINE
8
BLACK
6
CONTINUOUS
10
0.967806
20
0.391096
11
0.967806
21
0.391096
0
LINE
8
BLACK
6
CONTINUOUS
10
0.967806
20
0.391096
11
0.971644
21
0.398277
0
LINE
8
BLACK
6
CONTINUOUS
10
0.971644
20
0.398277
11
0.972884
21
0.402362
0
LINE
8
BLACK
6
CONTINUOUS
10
0.972884
20
0.402362
11
0.964424
21
0.402362
0
LINE
8
BLACK
6
CONTINUOUS
10
0.964424
20
0.402362
11
0.963839
21
0.400562
0
LINE
8
BLACK
6
CONTINUOUS
10
0.945079
20
0.445346
11
0.95
21
0.443154
0
LINE
8
BLACK
6
CONTINUOUS
10
0.95
20
0.443154
11
0.95566
21
0.439042
0
LINE
8
BLACK
6
CONTINUOUS
10
0.95566
20
0.439042
11
0.960341
21
0.433843
0
LINE
8
BLACK
6
CONTINUOUS
10
0.960341
20
0.433843
11
0.963839
21
0.427784
0
LINE
8
BLACK
6
CONTINUOUS
10
0.963839
20
0.427784
11
0.964424
21
0.425984
0
LINE
8
BLACK
6
CONTINUOUS
10
0.964424
20
0.425984
11
0.972884
21
0.425984
0
LINE
8
BLACK
6
CONTINUOUS
10
0.972884
20
0.425984
11
0.972884
21
0.425984
0
LINE
8
BLACK
6
CONTINUOUS
10
0.972884
20
0.425984
11
0.971644
21
0.430069
0
LINE
8
BLACK
6
CONTINUOUS
10
0.971644
20
0.430069
11
0.967806
21
0.437251
0
LINE
8
BLACK
6
CONTINUOUS
10
0.967806
20
0.437251
11
0.967806
21
0.437251
0
LINE
8
BLACK
6
CONTINUOUS
10
0.967806
20
0.437251
11
0.96264
21
0.443545
0
LINE
8
BLACK
6
CONTINUOUS
10
0.96264
20
0.443545
11
0.956345
21
0.448711
0
LINE
8
BLACK
6
CONTINUOUS
10
0.956345
20
0.448711
11
0.956345
21
0.448711
0
LINE
8
BLACK
6
CONTINUOUS
10
0.956345
20
0.448711
11
0.949164
21
0.45255
0
LINE
8
BLACK
6
CONTINUOUS
10
0.949164
20
0.45255
11
0.945079
21
0.453789
0
LINE
8
BLACK
6
CONTINUOUS
10
0.945079
20
0.453789
11
0.945079
21
0.445346
0
LINE
8
BLACK
6
CONTINUOUS
10
0.917371
20
0.45255
11
0.91019
21
0.448711
0
LINE
8
BLACK
6
CONTINUOUS
10
0.91019
20
0.448711
11
0.91019
21
0.448711
0
LINE
8
BLACK
6
CONTINUOUS
10
0.91019
20
0.448711
11
0.903895
21
0.443545
0
LINE
8
BLACK
6
CONTINUOUS
10
0.903895
20
0.443545
11
0.89873
21
0.437251
0
LINE
8
BLACK
6
CONTINUOUS
10
0.89873
20
0.437251
11
0.898729
21
0.437251
0
LINE
8
BLACK
6
CONTINUOUS
10
0.898729
20
0.437251
11
0.894891
21
0.430069
0
LINE
8
BLACK
6
CONTINUOUS
10
0.894891
20
0.430069
11
0.893652
21
0.425984
0
LINE
8
BLACK
6
CONTINUOUS
10
0.893652
20
0.425984
11
0.893652
21
0.425984
0
LINE
8
BLACK
6
CONTINUOUS
10
0.893652
20
0.425984
11
0.902111
21
0.425984
0
LINE
8
BLACK
6
CONTINUOUS
10
0.902111
20
0.425984
11
0.902696
21
0.427784
0
LINE
8
BLACK
6
CONTINUOUS
10
0.902696
20
0.427784
11
0.906194
21
0.433843
0
LINE
8
BLACK
6
CONTINUOUS
10
0.906194
20
0.433843
11
0.910876
21
0.439042
0
LINE
8
BLACK
6
CONTINUOUS
10
0.910876
20
0.439042
11
0.916535
21
0.443154
0
LINE
8
BLACK
6
CONTINUOUS
10
0.916535
20
0.443154
11
0.921457
21
0.445346
0
LINE
8
BLACK
6
CONTINUOUS
10
0.921457
20
0.445346
11
0.921457
21
0.453789
0
LINE
8
BLACK
6
CONTINUOUS
10
0.921457
20
0.453789
11
0.921457
21
0.453789
0
LINE
8
BLACK
6
CONTINUOUS
10
0.921457
20
0.453789
11
0.917371
21
0.45255
0
LINE
8
BLACK
6
CONTINUOUS
10
0.745079
20
0.445346
11
0.75
21
0.443154
0
LINE
8
BLACK
6
CONTINUOUS
10
0.75
20
0.443154
11
0.75566
21
0.439042
0
LINE
8
BLACK
6
CONTINUOUS
10
0.75566
20
0.439042
11
0.760341
21
0.433843
0
LINE
8
BLACK
6
CONTINUOUS
10
0.760341
20
0.433843
11
0.763839
21
0.427784
0
LINE
8
BLACK
6
CONTINUOUS
10
0.763839
20
0.427784
11
0.764424
21
0.425984
0
LINE
8
BLACK
6
CONTINUOUS
10
0.764424
20
0.425984
11
0.772884
21
0.425984
0
LINE
8
BLACK
6
CONTINUOUS
10
0.772884
20
0.425984
11
0.772884
21
0.425984
0
LINE
8
BLACK
6
CONTINUOUS
10
0.772884
20
0.425984
11
0.771644
21
0.430069
0
LINE
8
BLACK
6
CONTINUOUS
10
0.771644
20
0.430069
11
0.767806
21
0.437251
0
LINE
8
BLACK
6
CONTINUOUS
10
0.767806
20
0.437251
11
0.767806
21
0.437251
0
LINE
8
BLACK
6
CONTINUOUS
10
0.767806
20
0.437251
11
0.76264
21
0.443545
0
LINE
8
BLACK
6
CONTINUOUS
10
0.76264
20
0.443545
11
0.756345
21
0.448711
0
LINE
8
BLACK
6
CONTINUOUS
10
0.756345
20
0.448711
11
0.756345
21
0.448711
0
LINE
8
BLACK
6
CONTINUOUS
10
0.756345
20
0.448711
11
0.749164
21
0.45255
0
LINE
8
BLACK
6
CONTINUOUS
10
0.749164
20
0.45255
11
0.745079
21
0.453789
0
LINE
8
BLACK
6
CONTINUOUS
10
0.745079
20
0.453789
11
0.745079
21
0.445346
0
LINE
8
BLACK
6
CONTINUOUS
10
0.717371
20
0.45255
11
0.71019
21
0.448711
0
LINE
8
BLACK
6
CONTINUOUS
10
0.71019
20
0.448711
11
0.71019
21
0.448711
0
LINE
8
BLACK
6
CONTINUOUS
10
0.71019
20
0.448711
11
0.703895
21
0.443545
0
LINE
8
BLACK
6
CONTINUOUS
10
0.703895
20
0.443545
11
0.69873
21
0.437251
0
LINE
8
BLACK
6
CONTINUOUS
10
0.69873
20
0.437251
11
0.698729
21
0.437251
0
LINE
8
BLACK
6
CONTINUOUS
10
0.698729
20
0.437251
11
0.694891
21
0.430069
0
LINE
8
BLACK
6
CONTINUOUS
10
0.694891
20
0.430069
11
0.693652
21
0.425984
0
LINE
8
BLACK
6
CONTINUOUS
10
0.693652
20
0.425984
11
0.693652
21
0.425984
0
LINE
8
BLACK
6
CONTINUOUS
10
0.693652
20
0.425984
11
0.702111
21
0.425984
0
LINE
8
BLACK
6
CONTINUOUS
10
0.702111
20
0.425984
11
0.702696
21
0.427784
0
LINE
8
BLACK
6
CONTINUOUS
10
0.702696
20
0.427784
11
0.706194
21
0.433843
0
LINE
8
BLACK
6
CONTINUOUS
10
0.706194
20
0.433843
11
0.710876
21
0.439042
0
LINE
8
BLACK
6
CONTINUOUS
10
0.710876
20
0.439042
11
0.716535
21
0.443154
0
LINE
8
BLACK
6
CONTINUOUS
10
0.716535
20
0.443154
11
0.721457
21
0.445346
0
LINE
8
BLACK
6
CONTINUOUS
10
0.721457
20
0.445346
11
0.721457
21
0.453789
0
LINE
8
BLACK
6
CONTINUOUS
10
0.721457
20
0.453789
11
0.721457
21
0.453789
0
LINE
8
BLACK
6
CONTINUOUS
10
0.721457
20
0.453789
11
0.717371
21
0.45255
0
LINE
8
BLACK
6
CONTINUOUS
10
0.82516
20
0.554933
11
0.82516
21
0.554933
0
LINE
8
BLACK
6
CONTINUOUS
10
0.82516
20
0.554933
11
0.817364
21
0.552568
0
LINE
8
BLACK
6
CONTINUOUS
10
0.817364
20
0.552568
11
0.817364
21
0.552568
0
LINE
8
BLACK
6
CONTINUOUS
10
0.817364
20
0.552568
11
0.810179
21
0.548728
0
LINE
8
BLACK
6
CONTINUOUS
10
0.810179
20
0.548728
11
0.810179
21
0.548728
0
LINE
8
BLACK
6
CONTINUOUS
10
0.810179
20
0.548728
11
0.803882
21
0.54356
0
LINE
8
BLACK
6
CONTINUOUS
10
0.803882
20
0.54356
11
0.803881
21
0.543559
0
LINE
8
BLACK
6
CONTINUOUS
10
0.803881
20
0.543559
11
0.798713
21
0.537262
0
LINE
8
BLACK
6
CONTINUOUS
10
0.798713
20
0.537262
11
0.798713
21
0.537262
0
LINE
8
BLACK
6
CONTINUOUS
10
0.798713
20
0.537262
11
0.794873
21
0.530077
0
LINE
8
BLACK
6
CONTINUOUS
10
0.794873
20
0.530077
11
0.794873
21
0.530077
0
LINE
8
BLACK
6
CONTINUOUS
10
0.794873
20
0.530077
11
0.792508
21
0.522281
0
LINE
8
BLACK
6
CONTINUOUS
10
0.792508
20
0.522281
11
0.792508
21
0.522281
0
LINE
8
BLACK
6
CONTINUOUS
10
0.792508
20
0.522281
11
0.791709
21
0.514173
0
LINE
8
BLACK
6
CONTINUOUS
10
0.791709
20
0.514173
11
0.791709
21
0.514173
0
LINE
8
BLACK
6
CONTINUOUS
10
0.791709
20
0.514173
11
0.792508
21
0.506066
0
LINE
8
BLACK
6
CONTINUOUS
10
0.792508
20
0.506066
11
0.792508
21
0.506066
0
LINE
8
BLACK
6
CONTINUOUS
10
0.792508
20
0.506066
11
0.794873
21
0.49827
0
LINE
8
BLACK
6
CONTINUOUS
10
0.794873
20
0.49827
11
0.794873
21
0.49827
0
LINE
8
BLACK
6
CONTINUOUS
10
0.794873
20
0.49827
11
0.798713
21
0.491085
0
LINE
8
BLACK
6
CONTINUOUS
10
0.798713
20
0.491085
11
0.798713
21
0.491084
0
LINE
8
BLACK
6
CONTINUOUS
10
0.798713
20
0.491084
11
0.80387
21
0.484801
0
LINE
8
BLACK
6
CONTINUOUS
10
0.80387
20
0.484801
11
0.803881
21
0.484787
0
LINE
8
BLACK
6
CONTINUOUS
10
0.803881
20
0.484787
11
0.810179
21
0.479619
0
LINE
8
BLACK
6
CONTINUOUS
10
0.810179
20
0.479619
11
0.810179
21
0.479619
0
LINE
8
BLACK
6
CONTINUOUS
10
0.810179
20
0.479619
11
0.810179
21
0.479619
0
LINE
8
BLACK
6
CONTINUOUS
10
0.810179
20
0.479619
11
0.813146
21
0.478033
0
LINE
8
BLACK
6
CONTINUOUS
10
0.813146
20
0.478033
11
0.817364
21
0.475778
0
LINE
8
BLACK
6
CONTINUOUS
10
0.817364
20
0.475778
11
0.82516
21
0.473413
0
LINE
8
BLACK
6
CONTINUOUS
10
0.82516
20
0.473413
11
0.831036
21
0.472835
0
LINE
8
BLACK
6
CONTINUOUS
10
0.831036
20
0.472835
11
0.833268
21
0.472615
0
LINE
8
BLACK
6
CONTINUOUS
10
0.833268
20
0.472615
11
0.833268
21
0.472615
0
LINE
8
BLACK
6
CONTINUOUS
10
0.833268
20
0.472615
11
0.833268
21
0.472615
0
LINE
8
BLACK
6
CONTINUOUS
10
0.833268
20
0.472615
11
0.841375
21
0.473413
0
LINE
8
BLACK
6
CONTINUOUS
10
0.841375
20
0.473413
11
0.849171
21
0.475778
0
LINE
8
BLACK
6
CONTINUOUS
10
0.849171
20
0.475778
11
0.856356
21
0.479619
0
LINE
8
BLACK
6
CONTINUOUS
10
0.856356
20
0.479619
11
0.862654
21
0.484787
0
LINE
8
BLACK
6
CONTINUOUS
10
0.862654
20
0.484787
11
0.867822
21
0.491085
0
LINE
8
BLACK
6
CONTINUOUS
10
0.867822
20
0.491085
11
0.871663
21
0.49827
0
LINE
8
BLACK
6
CONTINUOUS
10
0.871663
20
0.49827
11
0.872904
21
0.502362
0
LINE
8
BLACK
6
CONTINUOUS
10
0.872904
20
0.502362
11
0.874028
21
0.506066
0
LINE
8
BLACK
6
CONTINUOUS
10
0.874028
20
0.506066
11
0.874826
21
0.514173
0
LINE
8
BLACK
6
CONTINUOUS
10
0.874826
20
0.514173
11
0.874028
21
0.522281
0
LINE
8
BLACK
6
CONTINUOUS
10
0.874028
20
0.522281
11
0.871663
21
0.530077
0
LINE
8
BLACK
6
CONTINUOUS
10
0.871663
20
0.530077
11
0.869408
21
0.534295
0
LINE
8
BLACK
6
CONTINUOUS
10
0.869408
20
0.534295
11
0.867822
21
0.537262
0
LINE
8
BLACK
6
CONTINUOUS
10
0.867822
20
0.537262
11
0.867822
21
0.537262
0
LINE
8
BLACK
6
CONTINUOUS
10
0.867822
20
0.537262
11
0.867822
21
0.537262
0
LINE
8
BLACK
6
CONTINUOUS
10
0.867822
20
0.537262
11
0.866284
21
0.539136
0
LINE
8
BLACK
6
CONTINUOUS
10
0.866284
20
0.539136
11
0.862654
21
0.543559
0
LINE
8
BLACK
6
CONTINUOUS
10
0.862654
20
0.543559
11
0.862654
21
0.54356
0
LINE
8
BLACK
6
CONTINUOUS
10
0.862654
20
0.54356
11
0.856356
21
0.548728
0
LINE
8
BLACK
6
CONTINUOUS
10
0.856356
20
0.548728
11
0.856356
21
0.548728
0
LINE
8
BLACK
6
CONTINUOUS
10
0.856356
20
0.548728
11
0.856356
21
0.548728
0
LINE
8
BLACK
6
CONTINUOUS
10
0.856356
20
0.548728
11
0.856356
21
0.548728
0
LINE
8
BLACK
6
CONTINUOUS
10
0.856356
20
0.548728
11
0.856356
21
0.548728
0
LINE
8
BLACK
6
CONTINUOUS
10
0.856356
20
0.548728
11
0.849171
21
0.552568
0
LINE
8
BLACK
6
CONTINUOUS
10
0.849171
20
0.552568
11
0.849171
21
0.552568
0
LINE
8
BLACK
6
CONTINUOUS
10
0.849171
20
0.552568
11
0.841375
21
0.554933
0
LINE
8
BLACK
6
CONTINUOUS
10
0.841375
20
0.554933
11
0.841375
21
0.554933
0
LINE
8
BLACK
6
CONTINUOUS
10
0.841375
20
0.554933
11
0.833268
21
0.555732
0
LINE
8
BLACK
6
CONTINUOUS
10
0.833268
20
0.555732
11
0.82516
21
0.554933
0
LINE
8
BLACK
6
CONTINUOUS
10
0.691929
20
0.502362
11
0.691929
21
0.479933
0
LINE
8
BLACK
6
CONTINUOUS
10
0.691929
20
0.479933
11
0.692386
21
0.477636
0
LINE
8
BLACK
6
CONTINUOUS
10
0.692386
20
0.477636
11
0.692386
21
0.477636
0
LINE
8
BLACK
6
CONTINUOUS
10
0.692386
20
0.477636
11
0.694126
21
0.475032
0
LINE
8
BLACK
6
CONTINUOUS
10
0.694126
20
0.475032
11
0.696731
21
0.473292
0
LINE
8
BLACK
6
CONTINUOUS
10
0.696731
20
0.473292
11
0.696731
21
0.473291
0
LINE
8
BLACK
6
CONTINUOUS
10
0.696731
20
0.473291
11
0.699028
21
0.472835
0
LINE
8
BLACK
6
CONTINUOUS
10
0.699028
20
0.472835
11
0.699028
21
0.472835
0
LINE
8
BLACK
6
CONTINUOUS
10
0.699028
20
0.472835
11
0.721457
21
0.472835
0
LINE
8
BLACK
6
CONTINUOUS
10
0.721457
20
0.472835
11
0.721457
21
0.480709
0
LINE
8
BLACK
6
CONTINUOUS
10
0.721457
20
0.480709
11
0.699803
21
0.480709
0
LINE
8
BLACK
6
CONTINUOUS
10
0.699803
20
0.480709
11
0.699803
21
0.502362
0
LINE
8
BLACK
6
CONTINUOUS
10
0.699803
20
0.502362
11
0.691929
21
0.502362
0
LINE
8
BLACK
6
CONTINUOUS
10
0.766732
20
0.480709
11
0.745079
21
0.480709
0
LINE
8
BLACK
6
CONTINUOUS
10
0.745079
20
0.480709
11
0.745079
21
0.472835
0
LINE
8
BLACK
6
CONTINUOUS
10
0.745079
20
0.472835
11
0.767508
21
0.472835
0
LINE
8
BLACK
6
CONTINUOUS
10
0.767508
20
0.472835
11
0.767508
21
0.472835
0
LINE
8
BLACK
6
CONTINUOUS
10
0.767508
20
0.472835
11
0.769804
21
0.473291
0
LINE
8
BLACK
6
CONTINUOUS
10
0.769804
20
0.473291
11
0.769805
21
0.473292
0
LINE
8
BLACK
6
CONTINUOUS
10
0.769805
20
0.473292
11
0.772409
21
0.475032
0
LINE
8
BLACK
6
CONTINUOUS
10
0.772409
20
0.475032
11
0.774149
21
0.477636
0
LINE
8
BLACK
6
CONTINUOUS
10
0.774149
20
0.477636
11
0.774149
21
0.477636
0
LINE
8
BLACK
6
CONTINUOUS
10
0.774149
20
0.477636
11
0.774606
21
0.479933
0
LINE
8
BLACK
6
CONTINUOUS
10
0.774606
20
0.479933
11
0.774606
21
0.479933
0
LINE
8
BLACK
6
CONTINUOUS
10
0.774606
20
0.479933
11
0.774606
21
0.502362
0
LINE
8
BLACK
6
CONTINUOUS
10
0.774606
20
0.502362
11
0.766732
21
0.502362
0
LINE
8
BLACK
6
CONTINUOUS
10
0.766732
20
0.502362
11
0.766732
21
0.480709
0
LINE
8
BLACK
6
CONTINUOUS
10
0.963839
20
0.500562
11
0.960341
21
0.494503
0
LINE
8
BLACK
6
CONTINUOUS
10
0.960341
20
0.494503
11
0.95566
21
0.489304
0
LINE
8
BLACK
6
CONTINUOUS
10
0.95566
20
0.489304
11
0.95
21
0.485192
0
LINE
8
BLACK
6
CONTINUOUS
10
0.95
20
0.485192
11
0.945079
21
0.483001
0
LINE
8
BLACK
6
CONTINUOUS
10
0.945079
20
0.483001
11
0.945079
21
0.474557
0
LINE
8
BLACK
6
CONTINUOUS
10
0.945079
20
0.474557
11
0.949164
21
0.475797
0
LINE
8
BLACK
6
CONTINUOUS
10
0.949164
20
0.475797
11
0.949164
21
0.475797
0
LINE
8
BLACK
6
CONTINUOUS
10
0.949164
20
0.475797
11
0.956345
21
0.479635
0
LINE
8
BLACK
6
CONTINUOUS
10
0.956345
20
0.479635
11
0.956345
21
0.479635
0
LINE
8
BLACK
6
CONTINUOUS
10
0.956345
20
0.479635
11
0.96264
21
0.484801
0
LINE
8
BLACK
6
CONTINUOUS
10
0.96264
20
0.484801
11
0.967806
21
0.491096
0
LINE
8
BLACK
6
CONTINUOUS
10
0.967806
20
0.491096
11
0.967806
21
0.491096
0
LINE
8
BLACK
6
CONTINUOUS
10
0.967806
20
0.491096
11
0.971644
21
0.498277
0
LINE
8
BLACK
6
CONTINUOUS
10
0.971644
20
0.498277
11
0.972884
21
0.502362
0
LINE
8
BLACK
6
CONTINUOUS
10
0.972884
20
0.502362
11
0.964424
21
0.502362
0
LINE
8
BLACK
6
CONTINUOUS
10
0.964424
20
0.502362
11
0.963839
21
0.500562
0
LINE
8
BLACK
6
CONTINUOUS
10
0.945079
20
0.545346
11
0.95
21
0.543154
0
LINE
8
BLACK
6
CONTINUOUS
10
0.95
20
0.543154
11
0.95566
21
0.539042
0
LINE
8
BLACK
6
CONTINUOUS
10
0.95566
20
0.539042
11
0.960341
21
0.533843
0
LINE
8
BLACK
6
CONTINUOUS
10
0.960341
20
0.533843
11
0.963839
21
0.527784
0
LINE
8
BLACK
6
CONTINUOUS
10
0.963839
20
0.527784
11
0.964424
21
0.525984
0
LINE
8
BLACK
6
CONTINUOUS
10
0.964424
20
0.525984
11
0.972884
21
0.525984
0
LINE
8
BLACK
6
CONTINUOUS
10
0.972884
20
0.525984
11
0.972884
21
0.525984
0
LINE
8
BLACK
6
CONTINUOUS
10
0.972884
20
0.525984
11
0.971644
21
0.530069
0
LINE
8
BLACK
6
CONTINUOUS
10
0.971644
20
0.530069
11
0.967806
21
0.537251
0
LINE
8
BLACK
6
CONTINUOUS
10
0.967806
20
0.537251
11
0.967806
21
0.537251
0
LINE
8
BLACK
6
CONTINUOUS
10
0.967806
20
0.537251
11
0.96264
21
0.543545
0
LINE
8
BLACK
6
CONTINUOUS
10
0.96264
20
0.543545
11
0.956345
21
0.548711
0
LINE
8
BLACK
6
CONTINUOUS
10
0.956345
20
0.548711
11
0.956345
21
0.548711
0
LINE
8
BLACK
6
CONTINUOUS
10
0.956345
20
0.548711
11
0.949164
21
0.55255
0
LINE
8
BLACK
6
CONTINUOUS
10
0.949164
20
0.55255
11
0.945079
21
0.553789
0
LINE
8
BLACK
6
CONTINUOUS
10
0.945079
20
0.553789
11
0.945079
21
0.545346
0
LINE
8
BLACK
6
CONTINUOUS
10
0.917371
20
0.55255
11
0.91019
21
0.548711
0
LINE
8
BLACK
6
CONTINUOUS
10
0.91019
20
0.548711
11
0.91019
21
0.548711
0
LINE
8
BLACK
6
CONTINUOUS
10
0.91019
20
0.548711
11
0.903895
21
0.543545
0
LINE
8
BLACK
6
CONTINUOUS
10
0.903895
20
0.543545
11
0.89873
21
0.537251
0
LINE
8
BLACK
6
CONTINUOUS
10
0.89873
20
0.537251
11
0.898729
21
0.537251
0
LINE
8
BLACK
6
CONTINUOUS
10
0.898729
20
0.537251
11
0.894891
21
0.530069
0
LINE
8
BLACK
6
CONTINUOUS
10
0.894891
20
0.530069
11
0.893652
21
0.525984
0
LINE
8
BLACK
6
CONTINUOUS
10
0.893652
20
0.525984
11
0.893652
21
0.525984
0
LINE
8
BLACK
6
CONTINUOUS
10
0.893652
20
0.525984
11
0.902111
21
0.525984
0
LINE
8
BLACK
6
CONTINUOUS
10
0.902111
20
0.525984
11
0.902696
21
0.527784
0
LINE
8
BLACK
6
CONTINUOUS
10
0.902696
20
0.527784
11
0.906194
21
0.533843
0
LINE
8
BLACK
6
CONTINUOUS
10
0.906194
20
0.533843
11
0.910876
21
0.539042
0
LINE
8
BLACK
6
CONTINUOUS
10
0.910876
20
0.539042
11
0.916535
21
0.543154
0
LINE
8
BLACK
6
CONTINUOUS
10
0.916535
20
0.543154
11
0.921457
21
0.545346
0
LINE
8
BLACK
6
CONTINUOUS
10
0.921457
20
0.545346
11
0.921457
21
0.553789
0
LINE
8
BLACK
6
CONTINUOUS
10
0.921457
20
0.553789
11
0.921457
21
0.553789
0
LINE
8
BLACK
6
CONTINUOUS
10
0.921457
20
0.553789
11
0.917371
21
0.55255
0
LINE
8
BLACK
6
CONTINUOUS
10
0.745079
20
0.547638
11
0.766732
21
0.547638
0
LINE
8
BLACK
6
CONTINUOUS
10
0.766732
20
0.547638
11
0.766732
21
0.525984
0
LINE
8
BLACK
6
CONTINUOUS
10
0.766732
20
0.525984
11
0.774606
21
0.525984
0
LINE
8
BLACK
6
CONTINUOUS
10
0.774606
20
0.525984
11
0.774606
21
0.548413
0
LINE
8
BLACK
6
CONTINUOUS
10
0.774606
20
0.548413
11
0.774606
21
0.548413
0
LINE
8
BLACK
6
CONTINUOUS
10
0.774606
20
0.548413
11
0.774149
21
0.55071
0
LINE
8
BLACK
6
CONTINUOUS
10
0.774149
20
0.55071
11
0.774149
21
0.55071
0
LINE
8
BLACK
6
CONTINUOUS
10
0.774149
20
0.55071
11
0.772409
21
0.553315
0
LINE
8
BLACK
6
CONTINUOUS
10
0.772409
20
0.553315
11
0.769805
21
0.555055
0
LINE
8
BLACK
6
CONTINUOUS
10
0.769805
20
0.555055
11
0.769804
21
0.555055
0
LINE
8
BLACK
6
CONTINUOUS
10
0.769804
20
0.555055
11
0.767508
21
0.555512
0
LINE
8
BLACK
6
CONTINUOUS
10
0.767508
20
0.555512
11
0.745079
21
0.555512
0
LINE
8
BLACK
6
CONTINUOUS
10
0.745079
20
0.555512
11
0.745079
21
0.547638
0
LINE
8
BLACK
6
CONTINUOUS
10
0.696731
20
0.555055
11
0.696731
21
0.555055
0
LINE
8
BLACK
6
CONTINUOUS
10
0.696731
20
0.555055
11
0.694126
21
0.553315
0
LINE
8
BLACK
6
CONTINUOUS
10
0.694126
20
0.553315
11
0.692386
21
0.55071
0
LINE
8
BLACK
6
CONTINUOUS
10
0.692386
20
0.55071
11
0.692386
21
0.55071
0
LINE
8
BLACK
6
CONTINUOUS
10
0.692386
20
0.55071
11
0.691929
21
0.548413
0
LINE
8
BLACK
6
CONTINUOUS
10
0.691929
20
0.548413
11
0.691929
21
0.525984
0
LINE
8
BLACK
6
CONTINUOUS
10
0.691929
20
0.525984
11
0.699803
21
0.525984
0
LINE
8
BLACK
6
CONTINUOUS
10
0.699803
20
0.525984
11
0.699803
21
0.547638
0
LINE
8
BLACK
6
CONTINUOUS
10
0.699803
20
0.547638
11
0.721457
21
0.547638
0
LINE
8
BLACK
6
CONTINUOUS
10
0.721457
20
0.547638
11
0.721457
21
0.555512
0
LINE
8
BLACK
6
CONTINUOUS
10
0.721457
20
0.555512
11
0.699028
21
0.555512
0
LINE
8
BLACK
6
CONTINUOUS
10
0.699028
20
0.555512
11
0.696731
21
0.555055
0
LINE
8
BLACK
6
CONTINUOUS
10
0.82516
20
0.654933
11
0.82516
21
0.654933
0
LINE
8
BLACK
6
CONTINUOUS
10
0.82516
20
0.654933
11
0.817364
21
0.652568
0
LINE
8
BLACK
6
CONTINUOUS
10
0.817364
20
0.652568
11
0.817364
21
0.652568
0
LINE
8
BLACK
6
CONTINUOUS
10
0.817364
20
0.652568
11
0.810179
21
0.648728
0
LINE
8
BLACK
6
CONTINUOUS
10
0.810179
20
0.648728
11
0.810179
21
0.648728
0
LINE
8
BLACK
6
CONTINUOUS
10
0.810179
20
0.648728
11
0.803882
21
0.64356
0
LINE
8
BLACK
6
CONTINUOUS
10
0.803882
20
0.64356
11
0.803881
21
0.643559
0
LINE
8
BLACK
6
CONTINUOUS
10
0.803881
20
0.643559
11
0.798713
21
0.637262
0
LINE
8
BLACK
6
CONTINUOUS
10
0.798713
20
0.637262
11
0.798713
21
0.637262
0
LINE
8
BLACK
6
CONTINUOUS
10
0.798713
20
0.637262
11
0.794873
21
0.630077
0
LINE
8
BLACK
6
CONTINUOUS
10
0.794873
20
0.630077
11
0.794873
21
0.630077
0
LINE
8
BLACK
6
CONTINUOUS
10
0.794873
20
0.630077
11
0.792508
21
0.622281
0
LINE
8
BLACK
6
CONTINUOUS
10
0.792508
20
0.622281
11
0.792508
21
0.622281
0
LINE
8
BLACK
6
CONTINUOUS
10
0.792508
20
0.622281
11
0.791709
21
0.614173
0
LINE
8
BLACK
6
CONTINUOUS
10
0.791709
20
0.614173
11
0.791709
21
0.614173
0
LINE
8
BLACK
6
CONTINUOUS
10
0.791709
20
0.614173
11
0.792508
21
0.606066
0
LINE
8
BLACK
6
CONTINUOUS
10
0.792508
20
0.606066
11
0.792508
21
0.606066
0
LINE
8
BLACK
6
CONTINUOUS
10
0.792508
20
0.606066
11
0.794873
21
0.59827
0
LINE
8
BLACK
6
CONTINUOUS
10
0.794873
20
0.59827
11
0.794873
21
0.59827
0
LINE
8
BLACK
6
CONTINUOUS
10
0.794873
20
0.59827
11
0.798713
21
0.591085
0
LINE
8
BLACK
6
CONTINUOUS
10
0.798713
20
0.591085
11
0.798713
21
0.591084
0
LINE
8
BLACK
6
CONTINUOUS
10
0.798713
20
0.591084
11
0.80387
21
0.584801
0
LINE
8
BLACK
6
CONTINUOUS
10
0.80387
20
0.584801
11
0.803881
21
0.584787
0
LINE
8
BLACK
6
CONTINUOUS
10
0.803881
20
0.584787
11
0.810179
21
0.579619
0
LINE
8
BLACK
6
CONTINUOUS
10
0.810179
20
0.579619
11
0.810179
21
0.579619
0
LINE
8
BLACK
6
CONTINUOUS
10
0.810179
20
0.579619
11
0.810179
21
0.579619
0
LINE
8
BLACK
6
CONTINUOUS
10
0.810179
20
0.579619
11
0.813146
21
0.578033
0
LINE
8
BLACK
6
CONTINUOUS
10
0.813146
20
0.578033
11
0.817364
21
0.575778
0
LINE
8
BLACK
6
CONTINUOUS
10
0.817364
20
0.575778
11
0.82516
21
0.573413
0
LINE
8
BLACK
6
CONTINUOUS
10
0.82516
20
0.573413
11
0.831241
21
0.572814
0
LINE
8
BLACK
6
CONTINUOUS
10
0.831241
20
0.572814
11
0.833268
21
0.572615
0
LINE
8
BLACK
6
CONTINUOUS
10
0.833268
20
0.572615
11
0.833268
21
0.572615
0
LINE
8
BLACK
6
CONTINUOUS
10
0.833268
20
0.572615
11
0.833268
21
0.572615
0
LINE
8
BLACK
6
CONTINUOUS
10
0.833268
20
0.572615
11
0.841375
21
0.573413
0
LINE
8
BLACK
6
CONTINUOUS
10
0.841375
20
0.573413
11
0.849171
21
0.575778
0
LINE
8
BLACK
6
CONTINUOUS
10
0.849171
20
0.575778
11
0.856356
21
0.579619
0
LINE
8
BLACK
6
CONTINUOUS
10
0.856356
20
0.579619
11
0.862654
21
0.584787
0
LINE
8
BLACK
6
CONTINUOUS
10
0.862654
20
0.584787
11
0.867822
21
0.591085
0
LINE
8
BLACK
6
CONTINUOUS
10
0.867822
20
0.591085
11
0.871663
21
0.59827
0
LINE
8
BLACK
6
CONTINUOUS
10
0.871663
20
0.59827
11
0.872904
21
0.602362
0
LINE
8
BLACK
6
CONTINUOUS
10
0.872904
20
0.602362
11
0.874028
21
0.606066
0
LINE
8
BLACK
6
CONTINUOUS
10
0.874028
20
0.606066
11
0.874826
21
0.614173
0
LINE
8
BLACK
6
CONTINUOUS
10
0.874826
20
0.614173
11
0.874028
21
0.622281
0
LINE
8
BLACK
6
CONTINUOUS
10
0.874028
20
0.622281
11
0.871663
21
0.630077
0
LINE
8
BLACK
6
CONTINUOUS
10
0.871663
20
0.630077
11
0.869408
21
0.634295
0
LINE
8
BLACK
6
CONTINUOUS
10
0.869408
20
0.634295
11
0.867822
21
0.637262
0
LINE
8
BLACK
6
CONTINUOUS
10
0.867822
20
0.637262
11
0.867822
21
0.637262
0
LINE
8
BLACK
6
CONTINUOUS
10
0.867822
20
0.637262
11
0.867822
21
0.637262
0
LINE
8
BLACK
6
CONTINUOUS
10
0.867822
20
0.637262
11
0.866284
21
0.639136
0
LINE
8
BLACK
6
CONTINUOUS
10
0.866284
20
0.639136
11
0.862654
21
0.643559
0
LINE
8
BLACK
6
CONTINUOUS
10
0.862654
20
0.643559
11
0.862654
21
0.64356
0
LINE
8
BLACK
6
CONTINUOUS
10
0.862654
20
0.64356
11
0.856356
21
0.648728
0
LINE
8
BLACK
6
CONTINUOUS
10
0.856356
20
0.648728
11
0.856356
21
0.648728
0
LINE
8
BLACK
6
CONTINUOUS
10
0.856356
20
0.648728
11
0.856356
21
0.648728
0
LINE
8
BLACK
6
CONTINUOUS
10
0.856356
20
0.648728
11
0.856356
21
0.648728
0
LINE
8
BLACK
6
CONTINUOUS
10
0.856356
20
0.648728
11
0.856356
21
0.648728
0
LINE
8
BLACK
6
CONTINUOUS
10
0.856356
20
0.648728
11
0.849171
21
0.652568
0
LINE
8
BLACK
6
CONTINUOUS
10
0.849171
20
0.652568
11
0.849171
21
0.652568
0
LINE
8
BLACK
6
CONTINUOUS
10
0.849171
20
0.652568
11
0.841375
21
0.654933
0
LINE
8
BLACK
6
CONTINUOUS
10
0.841375
20
0.654933
11
0.841375
21
0.654933
0
LINE
8
BLACK
6
CONTINUOUS
10
0.841375
20
0.654933
11
0.833268
21
0.655732
0
LINE
8
BLACK
6
CONTINUOUS
10
0.833268
20
0.655732
11
0.82516
21
0.654933
0
LINE
8
BLACK
6
CONTINUOUS
10
0.763839
20
0.600562
11
0.760341
21
0.594503
0
LINE
8
BLACK
6
CONTINUOUS
10
0.760341
20
0.594503
11
0.75566
21
0.589304
0
LINE
8
BLACK
6
CONTINUOUS
10
0.75566
20
0.589304
11
0.75
21
0.585192
0
LINE
8
BLACK
6
CONTINUOUS
10
0.75
20
0.585192
11
0.745079
21
0.583001
0
LINE
8
BLACK
6
CONTINUOUS
10
0.745079
20
0.583001
11
0.745079
21
0.574557
0
LINE
8
BLACK
6
CONTINUOUS
10
0.745079
20
0.574557
11
0.749164
21
0.575797
0
LINE
8
BLACK
6
CONTINUOUS
10
0.749164
20
0.575797
11
0.749164
21
0.575797
0
LINE
8
BLACK
6
CONTINUOUS
10
0.749164
20
0.575797
11
0.756345
21
0.579635
0
LINE
8
BLACK
6
CONTINUOUS
10
0.756345
20
0.579635
11
0.756345
21
0.579635
0
LINE
8
BLACK
6
CONTINUOUS
10
0.756345
20
0.579635
11
0.76264
21
0.584801
0
LINE
8
BLACK
6
CONTINUOUS
10
0.76264
20
0.584801
11
0.767806
21
0.591096
0
LINE
8
BLACK
6
CONTINUOUS
10
0.767806
20
0.591096
11
0.767806
21
0.591096
0
LINE
8
BLACK
6
CONTINUOUS
10
0.767806
20
0.591096
11
0.771644
21
0.598277
0
LINE
8
BLACK
6
CONTINUOUS
10
0.771644
20
0.598277
11
0.772884
21
0.602362
0
LINE
8
BLACK
6
CONTINUOUS
10
0.772884
20
0.602362
11
0.764424
21
0.602362
0
LINE
8
BLACK
6
CONTINUOUS
10
0.764424
20
0.602362
11
0.763839
21
0.600562
0
LINE
8
BLACK
6
CONTINUOUS
10
0.963839
20
0.600562
11
0.960341
21
0.594503
0
LINE
8
BLACK
6
CONTINUOUS
10
0.960341
20
0.594503
11
0.95566
21
0.589304
0
LINE
8
BLACK
6
CONTINUOUS
10
0.95566
20
0.589304
11
0.95
21
0.585192
0
LINE
8
BLACK
6
CONTINUOUS
10
0.95
20
0.585192
11
0.945079
21
0.583001
0
LINE
8
BLACK
6
CONTINUOUS
10
0.945079
20
0.583001
11
0.945079
21
0.574557
0
LINE
8
BLACK
6
CONTINUOUS
10
0.945079
20
0.574557
11
0.949164
21
0.575797
0
LINE
8
BLACK
6
CONTINUOUS
10
0.949164
20
0.575797
11
0.949164
21
0.575797
0
LINE
8
BLACK
6
CONTINUOUS
10
0.949164
20
0.575797
11
0.956345
21
0.579635
0
LINE
8
BLACK
6
CONTINUOUS
10
0.956345
20
0.579635
11
0.956345
21
0.579635
0
LINE
8
BLACK
6
CONTINUOUS
10
0.956345
20
0.579635
11
0.96264
21
0.584801
0
LINE
8
BLACK
6
CONTINUOUS
10
0.96264
20
0.584801
11
0.967806
21
0.591096
0
LINE
8
BLACK
6
CONTINUOUS
10
0.967806
20
0.591096
11
0.967806
21
0.591096
0
LINE
8
BLACK
6
CONTINUOUS
10
0.967806
20
0.591096
11
0.971644
21
0.598277
0
LINE
8
BLACK
6
CONTINUOUS
10
0.971644
20
0.598277
11
0.972884
21
0.602362
0
LINE
8
BLACK
6
CONTINUOUS
10
0.972884
20
0.602362
11
0.964424
21
0.602362
0
LINE
8
BLACK
6
CONTINUOUS
10
0.964424
20
0.602362
11
0.963839
21
0.600562
0
LINE
8
BLACK
6
CONTINUOUS
10
0.945079
20
0.645346
11
0.95
21
0.643154
0
LINE
8
BLACK
6
CONTINUOUS
10
0.95
20
0.643154
11
0.95566
21
0.639042
0
LINE
8
BLACK
6
CONTINUOUS
10
0.95566
20
0.639042
11
0.960341
21
0.633843
0
LINE
8
BLACK
6
CONTINUOUS
10
0.960341
20
0.633843
11
0.963839
21
0.627784
0
LINE
8
BLACK
6
CONTINUOUS
10
0.963839
20
0.627784
11
0.964424
21
0.625984
0
LINE
8
BLACK
6
CONTINUOUS
10
0.964424
20
0.625984
11
0.972884
21
0.625984
0
LINE
8
BLACK
6
CONTINUOUS
10
0.972884
20
0.625984
11
0.972884
21
0.625984
0
LINE
8
BLACK
6
CONTINUOUS
10
0.972884
20
0.625984
11
0.971644
21
0.630069
0
LINE
8
BLACK
6
CONTINUOUS
10
0.971644
20
0.630069
11
0.967806
21
0.637251
0
LINE
8
BLACK
6
CONTINUOUS
10
0.967806
20
0.637251
11
0.967806
21
0.637251
0
LINE
8
BLACK
6
CONTINUOUS
10
0.967806
20
0.637251
11
0.96264
21
0.643545
0
LINE
8
BLACK
6
CONTINUOUS
10
0.96264
20
0.643545
11
0.956345
21
0.648711
0
LINE
8
BLACK
6
CONTINUOUS
10
0.956345
20
0.648711
11
0.956345
21
0.648711
0
LINE
8
BLACK
6
CONTINUOUS
10
0.956345
20
0.648711
11
0.949164
21
0.65255
0
LINE
8
BLACK
6
CONTINUOUS
10
0.949164
20
0.65255
11
0.945079
21
0.653789
0
LINE
8
BLACK
6
CONTINUOUS
10
0.945079
20
0.653789
11
0.945079
21
0.645346
0
LINE
8
BLACK
6
CONTINUOUS
10
0.917371
20
0.65255
11
0.91019
21
0.648711
0
LINE
8
BLACK
6
CONTINUOUS
10
0.91019
20
0.648711
11
0.91019
21
0.648711
0
LINE
8
BLACK
6
CONTINUOUS
10
0.91019
20
0.648711
11
0.903895
21
0.643545
0
LINE
8
BLACK
6
CONTINUOUS
10
0.903895
20
0.643545
11
0.89873
21
0.637251
0
LINE
8
BLACK
6
CONTINUOUS
10
0.89873
20
0.637251
11
0.898729
21
0.637251
0
LINE
8
BLACK
6
CONTINUOUS
10
0.898729
20
0.637251
11
0.894891
21
0.630069
0
LINE
8
BLACK
6
CONTINUOUS
10
0.894891
20
0.630069
11
0.893652
21
0.625984
0
LINE
8
BLACK
6
CONTINUOUS
10
0.893652
20
0.625984
11
0.893652
21
0.625984
0
LINE
8
BLACK
6
CONTINUOUS
10
0.893652
20
0.625984
11
0.902111
21
0.625984
0
LINE
8
BLACK
6
CONTINUOUS
10
0.902111
20
0.625984
11
0.902696
21
0.627784
0
LINE
8
BLACK
6
CONTINUOUS
10
0.902696
20
0.627784
11
0.906194
21
0.633843
0
LINE
8
BLACK
6
CONTINUOUS
10
0.906194
20
0.633843
11
0.910876
21
0.639042
0
LINE
8
BLACK
6
CONTINUOUS
10
0.910876
20
0.639042
11
0.916535
21
0.643154
0
LINE
8
BLACK
6
CONTINUOUS
10
0.916535
20
0.643154
11
0.921457
21
0.645346
0
LINE
8
BLACK
6
CONTINUOUS
10
0.921457
20
0.645346
11
0.921457
21
0.653789
0
LINE
8
BLACK
6
CONTINUOUS
10
0.921457
20
0.653789
11
0.921457
21
0.653789
0
LINE
8
BLACK
6
CONTINUOUS
10
0.921457
20
0.653789
11
0.917371
21
0.65255
0
LINE
8
BLACK
6
CONTINUOUS
10
0.745079
20
0.645346
11
0.75
21
0.643154
0
LINE
8
BLACK
6
CONTINUOUS
10
0.75
20
0.643154
11
0.75566
21
0.639042
0
LINE
8
BLACK
6
CONTINUOUS
10
0.75566
20
0.639042
11
0.760341
21
0.633843
0
LINE
8
BLACK
6
CONTINUOUS
10
0.760341
20
0.633843
11
0.763839
21
0.627784
0
LINE
8
BLACK
6
CONTINUOUS
10
0.763839
20
0.627784
11
0.764424
21
0.625984
0
LINE
8
BLACK
6
CONTINUOUS
10
0.764424
20
0.625984
11
0.772884
21
0.625984
0
LINE
8
BLACK
6
CONTINUOUS
10
0.772884
20
0.625984
11
0.772884
21
0.625984
0
LINE
8
BLACK
6
CONTINUOUS
10
0.772884
20
0.625984
11
0.771644
21
0.630069
0
LINE
8
BLACK
6
CONTINUOUS
10
0.771644
20
0.630069
11
0.767806
21
0.637251
0
LINE
8
BLACK
6
CONTINUOUS
10
0.767806
20
0.637251
11
0.767806
21
0.637251
0
LINE
8
BLACK
6
CONTINUOUS
10
0.767806
20
0.637251
11
0.76264
21
0.643545
0
LINE
8
BLACK
6
CONTINUOUS
10
0.76264
20
0.643545
11
0.756345
21
0.648711
0
LINE
8
BLACK
6
CONTINUOUS
10
0.756345
20
0.648711
11
0.756345
21
0.648711
0
LINE
8
BLACK
6
CONTINUOUS
10
0.756345
20
0.648711
11
0.749164
21
0.65255
0
LINE
8
BLACK
6
CONTINUOUS
10
0.749164
20
0.65255
11
0.745079
21
0.653789
0
LINE
8
BLACK
6
CONTINUOUS
10
0.745079
20
0.653789
11
0.745079
21
0.645346
0
LINE
8
BLACK
6
CONTINUOUS
10
0.717371
20
0.65255
11
0.71019
21
0.648711
0
LINE
8
BLACK
6
CONTINUOUS
10
0.71019
20
0.648711
11
0.71019
21
0.648711
0
LINE
8
BLACK
6
CONTINUOUS
10
0.71019
20
0.648711
11
0.703895
21
0.643545
0
LINE
8
BLACK
6
CONTINUOUS
10
0.703895
20
0.643545
11
0.69873
21
0.637251
0
LINE
8
BLACK
6
CONTINUOUS
10
0.69873
20
0.637251
11
0.698729
21
0.637251
0
LINE
8
BLACK
6
CONTINUOUS
10
0.698729
20
0.637251
11
0.694891
21
0.630069
0
LINE
8
BLACK
6
CONTINUOUS
10
0.694891
20
0.630069
11
0.693652
21
0.625984
0
LINE
8
BLACK
6
CONTINUOUS
10
0.693652
20
0.625984
11
0.693652
21
0.625984
0
LINE
8
BLACK
6
CONTINUOUS
10
0.693652
20
0.625984
11
0.702111
21
0.625984
0
LINE
8
BLACK
6
CONTINUOUS
10
0.702111
20
0.625984
11
0.702696
21
0.627784
0
LINE
8
BLACK
6
CONTINUOUS
10
0.702696
20
0.627784
11
0.706194
21
0.633843
0
LINE
8
BLACK
6
CONTINUOUS
10
0.706194
20
0.633843
11
0.710876
21
0.639042
0
LINE
8
BLACK
6
CONTINUOUS
10
0.710876
20
0.639042
11
0.716535
21
0.643154
0
LINE
8
BLACK
6
CONTINUOUS
10
0.716535
20
0.643154
11
0.721457
21
0.645346
0
LINE
8
BLACK
6
CONTINUOUS
10
0.721457
20
0.645346
11
0.721457
21
0.653789
0
LINE
8
BLACK
6
CONTINUOUS
10
0.721457
20
0.653789
11
0.721457
21
0.653789
0
LINE
8
BLACK
6
CONTINUOUS
10
0.721457
20
0.653789
11
0.717371
21
0.65255
0
LINE
8
BLACK
6
CONTINUOUS
10
0.344542
20
0.699213
11
0.343957
21
0.697412
0
LINE
8
BLACK
6
CONTINUOUS
10
0.343957
20
0.697412
11
0.340459
21
0.691354
0
LINE
8
BLACK
6
CONTINUOUS
10
0.340459
20
0.691354
11
0.335778
21
0.686155
0
LINE
8
BLACK
6
CONTINUOUS
10
0.335778
20
0.686155
11
0.330118
21
0.682042
0
LINE
8
BLACK
6
CONTINUOUS
10
0.330118
20
0.682042
11
0.325197
21
0.679851
0
LINE
8
BLACK
6
CONTINUOUS
10
0.325197
20
0.679851
11
0.325197
21
0.671408
0
LINE
8
BLACK
6
CONTINUOUS
10
0.325197
20
0.671408
11
0.329282
21
0.672647
0
LINE
8
BLACK
6
CONTINUOUS
10
0.329282
20
0.672647
11
0.329282
21
0.672647
0
LINE
8
BLACK
6
CONTINUOUS
10
0.329282
20
0.672647
11
0.336463
21
0.676485
0
LINE
8
BLACK
6
CONTINUOUS
10
0.336463
20
0.676485
11
0.336463
21
0.676486
0
LINE
8
BLACK
6
CONTINUOUS
10
0.336463
20
0.676486
11
0.342758
21
0.681651
0
LINE
8
BLACK
6
CONTINUOUS
10
0.342758
20
0.681651
11
0.347924
21
0.687946
0
LINE
8
BLACK
6
CONTINUOUS
10
0.347924
20
0.687946
11
0.347924
21
0.687946
0
LINE
8
BLACK
6
CONTINUOUS
10
0.347924
20
0.687946
11
0.351762
21
0.695127
0
LINE
8
BLACK
6
CONTINUOUS
10
0.351762
20
0.695127
11
0.353002
21
0.699213
0
LINE
8
BLACK
6
CONTINUOUS
10
0.353002
20
0.699213
11
0.344542
21
0.699213
0
LINE
8
BLACK
6
CONTINUOUS
10
0.443957
20
0.697412
11
0.440459
21
0.691354
0
LINE
8
BLACK
6
CONTINUOUS
10
0.440459
20
0.691354
11
0.435778
21
0.686155
0
LINE
8
BLACK
6
CONTINUOUS
10
0.435778
20
0.686155
11
0.430118
21
0.682042
0
LINE
8
BLACK
6
CONTINUOUS
10
0.430118
20
0.682042
11
0.425197
21
0.679851
0
LINE
8
BLACK
6
CONTINUOUS
10
0.425197
20
0.679851
11
0.425197
21
0.671408
0
LINE
8
BLACK
6
CONTINUOUS
10
0.425197
20
0.671408
11
0.429282
21
0.672647
0
LINE
8
BLACK
6
CONTINUOUS
10
0.429282
20
0.672647
11
0.429282
21
0.672647
0
LINE
8
BLACK
6
CONTINUOUS
10
0.429282
20
0.672647
11
0.436463
21
0.676485
0
LINE
8
BLACK
6
CONTINUOUS
10
0.436463
20
0.676485
11
0.436463
21
0.676486
0
LINE
8
BLACK
6
CONTINUOUS
10
0.436463
20
0.676486
11
0.442758
21
0.681651
0
LINE
8
BLACK
6
CONTINUOUS
10
0.442758
20
0.681651
11
0.447924
21
0.687946
0
LINE
8
BLACK
6
CONTINUOUS
10
0.447924
20
0.687946
11
0.447924
21
0.687946
0
LINE
8
BLACK
6
CONTINUOUS
10
0.447924
20
0.687946
11
0.451762
21
0.695127
0
LINE
8
BLACK
6
CONTINUOUS
10
0.451762
20
0.695127
11
0.453002
21
0.699213
0
LINE
8
BLACK
6
CONTINUOUS
10
0.453002
20
0.699213
11
0.444542
21
0.699213
0
LINE
8
BLACK
6
CONTINUOUS
10
0.444542
20
0.699213
11
0.443957
21
0.697412
0
LINE
8
BLACK
6
CONTINUOUS
10
1.20055
20
0.771862
11
1.20055
21
0.771862
0
LINE
8
BLACK
6
CONTINUOUS
10
1.20055
20
0.771862
11
1.19276
21
0.769497
0
LINE
8
BLACK
6
CONTINUOUS
10
1.19276
20
0.769497
11
1.19276
21
0.769497
0
LINE
8
BLACK
6
CONTINUOUS
10
1.19276
20
0.769497
11
1.18557
21
0.765657
0
LINE
8
BLACK
6
CONTINUOUS
10
1.18557
20
0.765657
11
1.18557
21
0.765657
0
LINE
8
BLACK
6
CONTINUOUS
10
1.18557
20
0.765657
11
1.17928
21
0.760489
0
LINE
8
BLACK
6
CONTINUOUS
10
1.17928
20
0.760489
11
1.17928
21
0.760489
0
LINE
8
BLACK
6
CONTINUOUS
10
1.17928
20
0.760489
11
1.17411
21
0.754191
0
LINE
8
BLACK
6
CONTINUOUS
10
1.17411
20
0.754191
11
1.17411
21
0.754191
0
LINE
8
BLACK
6
CONTINUOUS
10
1.17411
20
0.754191
11
1.17027
21
0.747006
0
LINE
8
BLACK
6
CONTINUOUS
10
1.17027
20
0.747006
11
1.17027
21
0.747006
0
LINE
8
BLACK
6
CONTINUOUS
10
1.17027
20
0.747006
11
1.1679
21
0.73921
0
LINE
8
BLACK
6
CONTINUOUS
10
1.1679
20
0.73921
11
1.1679
21
0.73921
0
LINE
8
BLACK
6
CONTINUOUS
10
1.1679
20
0.73921
11
1.1671
21
0.731102
0
LINE
8
BLACK
6
CONTINUOUS
10
1.1671
20
0.731102
11
1.1671
21
0.731102
0
LINE
8
BLACK
6
CONTINUOUS
10
1.1671
20
0.731102
11
1.1679
21
0.722995
0
LINE
8
BLACK
6
CONTINUOUS
10
1.1679
20
0.722995
11
1.1679
21
0.722995
0
LINE
8
BLACK
6
CONTINUOUS
10
1.1679
20
0.722995
11
1.17027
21
0.715199
0
LINE
8
BLACK
6
CONTINUOUS
10
1.17027
20
0.715199
11
1.17027
21
0.715199
0
LINE
8
BLACK
6
CONTINUOUS
10
1.17027
20
0.715199
11
1.17411
21
0.708014
0
LINE
8
BLACK
6
CONTINUOUS
10
1.17411
20
0.708014
11
1.17411
21
0.708014
0
LINE
8
BLACK
6
CONTINUOUS
10
1.17411
20
0.708014
11
1.17411
21
0.708014
0
LINE
8
BLACK
6
CONTINUOUS
10
1.17411
20
0.708014
11
1.17928
21
0.701716
0
LINE
8
BLACK
6
CONTINUOUS
10
1.17928
20
0.701716
11
1.18557
21
0.696548
0
LINE
8
BLACK
6
CONTINUOUS
10
1.18557
20
0.696548
11
1.18557
21
0.696548
0
LINE
8
BLACK
6
CONTINUOUS
10
1.18557
20
0.696548
11
1.18557
21
0.696548
0
LINE
8
BLACK
6
CONTINUOUS
10
1.18557
20
0.696548
11
1.18823
21
0.695127
0
LINE
8
BLACK
6
CONTINUOUS
10
1.18823
20
0.695127
11
1.19276
21
0.692707
0
LINE
8
BLACK
6
CONTINUOUS
10
1.19276
20
0.692707
11
1.20055
21
0.690343
0
LINE
8
BLACK
6
CONTINUOUS
10
1.20055
20
0.690343
11
1.20663
21
0.689744
0
LINE
8
BLACK
6
CONTINUOUS
10
1.20663
20
0.689744
11
1.20866
21
0.689544
0
LINE
8
BLACK
6
CONTINUOUS
10
1.20866
20
0.689544
11
1.20866
21
0.689544
0
LINE
8
BLACK
6
CONTINUOUS
10
1.20866
20
0.689544
11
1.20866
21
0.689544
0
LINE
8
BLACK
6
CONTINUOUS
10
1.20866
20
0.689544
11
1.21677
21
0.690343
0
LINE
8
BLACK
6
CONTINUOUS
10
1.21677
20
0.690343
11
1.22457
21
0.692707
0
LINE
8
BLACK
6
CONTINUOUS
10
1.22457
20
0.692707
11
1.23175
21
0.696548
0
LINE
8
BLACK
6
CONTINUOUS
10
1.23175
20
0.696548
11
1.23805
21
0.701716
0
LINE
8
BLACK
6
CONTINUOUS
10
1.23805
20
0.701716
11
1.24322
21
0.708014
0
LINE
8
BLACK
6
CONTINUOUS
10
1.24322
20
0.708014
11
1.24706
21
0.715199
0
LINE
8
BLACK
6
CONTINUOUS
10
1.24706
20
0.715199
11
1.24942
21
0.722995
0
LINE
8
BLACK
6
CONTINUOUS
10
1.24942
20
0.722995
11
1.25022
21
0.731102
0
LINE
8
BLACK
6
CONTINUOUS
10
1.25022
20
0.731102
11
1.24942
21
0.73921
0
LINE
8
BLACK
6
CONTINUOUS
10
1.24942
20
0.73921
11
1.24706
21
0.747006
0
LINE
8
BLACK
6
CONTINUOUS
10
1.24706
20
0.747006
11
1.24322
21
0.754191
0
LINE
8
BLACK
6
CONTINUOUS
10
1.24322
20
0.754191
11
1.23805
21
0.760489
0
LINE
8
BLACK
6
CONTINUOUS
10
1.23805
20
0.760489
11
1.23175
21
0.765657
0
LINE
8
BLACK
6
CONTINUOUS
10
1.23175
20
0.765657
11
1.23175
21
0.765657
0
LINE
8
BLACK
6
CONTINUOUS
10
1.23175
20
0.765657
11
1.23175
21
0.765657
0
LINE
8
BLACK
6
CONTINUOUS
10
1.23175
20
0.765657
11
1.22457
21
0.769497
0
LINE
8
BLACK
6
CONTINUOUS
10
1.22457
20
0.769497
11
1.22456
21
0.769497
0
LINE
8
BLACK
6
CONTINUOUS
10
1.22456
20
0.769497
11
1.21677
21
0.771862
0
LINE
8
BLACK
6
CONTINUOUS
10
1.21677
20
0.771862
11
1.21677
21
0.771862
0
LINE
8
BLACK
6
CONTINUOUS
10
1.21677
20
0.771862
11
1.20866
21
0.772661
0
LINE
8
BLACK
6
CONTINUOUS
10
1.20866
20
0.772661
11
1.20055
21
0.771862
0
LINE
8
BLACK
6
CONTINUOUS
10
0.425197
20
0.742196
11
0.430118
21
0.740005
0
LINE
8
BLACK
6
CONTINUOUS
10
0.430118
20
0.740005
11
0.435778
21
0.735893
0
LINE
8
BLACK
6
CONTINUOUS
10
0.435778
20
0.735893
11
0.440459
21
0.730694
0
LINE
8
BLACK
6
CONTINUOUS
10
0.440459
20
0.730694
11
0.443957
21
0.724635
0
LINE
8
BLACK
6
CONTINUOUS
10
0.443957
20
0.724635
11
0.444542
21
0.722835
0
LINE
8
BLACK
6
CONTINUOUS
10
0.444542
20
0.722835
11
0.453002
21
0.722835
0
LINE
8
BLACK
6
CONTINUOUS
10
0.453002
20
0.722835
11
0.453002
21
0.722835
0
LINE
8
BLACK
6
CONTINUOUS
10
0.453002
20
0.722835
11
0.451762
21
0.72692
0
LINE
8
BLACK
6
CONTINUOUS
10
0.451762
20
0.72692
11
0.449527
21
0.731102
0
LINE
8
BLACK
6
CONTINUOUS
10
0.449527
20
0.731102
11
0.447924
21
0.734101
0
LINE
8
BLACK
6
CONTINUOUS
10
0.447924
20
0.734101
11
0.447924
21
0.734101
0
LINE
8
BLACK
6
CONTINUOUS
10
0.447924
20
0.734101
11
0.442758
21
0.740396
0
LINE
8
BLACK
6
CONTINUOUS
10
0.442758
20
0.740396
11
0.436463
21
0.745562
0
LINE
8
BLACK
6
CONTINUOUS
10
0.436463
20
0.745562
11
0.436463
21
0.745562
0
LINE
8
BLACK
6
CONTINUOUS
10
0.436463
20
0.745562
11
0.429282
21
0.7494
0
LINE
8
BLACK
6
CONTINUOUS
10
0.429282
20
0.7494
11
0.425197
21
0.75064
0
LINE
8
BLACK
6
CONTINUOUS
10
0.425197
20
0.75064
11
0.425197
21
0.742196
0
LINE
8
BLACK
6
CONTINUOUS
10
0.39749
20
0.7494
11
0.390308
21
0.745562
0
LINE
8
BLACK
6
CONTINUOUS
10
0.390308
20
0.745562
11
0.390308
21
0.745562
0
LINE
8
BLACK
6
CONTINUOUS
10
0.390308
20
0.745562
11
0.384014
21
0.740396
0
LINE
8
BLACK
6
CONTINUOUS
10
0.384014
20
0.740396
11
0.378848
21
0.734101
0
LINE
8
BLACK
6
CONTINUOUS
10
0.378848
20
0.734101
11
0.378848
21
0.734101
0
LINE
8
BLACK
6
CONTINUOUS
10
0.378848
20
0.734101
11
0.375009
21
0.72692
0
LINE
8
BLACK
6
CONTINUOUS
10
0.375009
20
0.72692
11
0.37377
21
0.722835
0
LINE
8
BLACK
6
CONTINUOUS
10
0.37377
20
0.722835
11
0.37377
21
0.722835
0
LINE
8
BLACK
6
CONTINUOUS
10
0.37377
20
0.722835
11
0.382229
21
0.722835
0
LINE
8
BLACK
6
CONTINUOUS
10
0.382229
20
0.722835
11
0.382814
21
0.724635
0
LINE
8
BLACK
6
CONTINUOUS
10
0.382814
20
0.724635
11
0.386312
21
0.730694
0
LINE
8
BLACK
6
CONTINUOUS
10
0.386312
20
0.730694
11
0.390994
21
0.735893
0
LINE
8
BLACK
6
CONTINUOUS
10
0.390994
20
0.735893
11
0.396654
21
0.740005
0
LINE
8
BLACK
6
CONTINUOUS
10
0.396654
20
0.740005
11
0.401575
21
0.742196
0
LINE
8
BLACK
6
CONTINUOUS
10
0.401575
20
0.742196
11
0.401575
21
0.75064
0
LINE
8
BLACK
6
CONTINUOUS
10
0.401575
20
0.75064
11
0.401575
21
0.75064
0
LINE
8
BLACK
6
CONTINUOUS
10
0.401575
20
0.75064
11
0.39749
21
0.7494
0
LINE
8
BLACK
6
CONTINUOUS
10
0.325197
20
0.742196
11
0.330118
21
0.740005
0
LINE
8
BLACK
6
CONTINUOUS
10
0.330118
20
0.740005
11
0.335778
21
0.735893
0
LINE
8
BLACK
6
CONTINUOUS
10
0.335778
20
0.735893
11
0.340459
21
0.730694
0
LINE
8
BLACK
6
CONTINUOUS
10
0.340459
20
0.730694
11
0.343957
21
0.724635
0
LINE
8
BLACK
6
CONTINUOUS
10
0.343957
20
0.724635
11
0.344542
21
0.722835
0
LINE
8
BLACK
6
CONTINUOUS
10
0.344542
20
0.722835
11
0.353002
21
0.722835
0
LINE
8
BLACK
6
CONTINUOUS
10
0.353002
20
0.722835
11
0.353002
21
0.722835
0
LINE
8
BLACK
6
CONTINUOUS
10
0.353002
20
0.722835
11
0.351762
21
0.72692
0
LINE
8
BLACK
6
CONTINUOUS
10
0.351762
20
0.72692
11
0.347924
21
0.734101
0
LINE
8
BLACK
6
CONTINUOUS
10
0.347924
20
0.734101
11
0.347924
21
0.734101
0
LINE
8
BLACK
6
CONTINUOUS
10
0.347924
20
0.734101
11
0.342758
21
0.740396
0
LINE
8
BLACK
6
CONTINUOUS
10
0.342758
20
0.740396
11
0.336463
21
0.745562
0
LINE
8
BLACK
6
CONTINUOUS
10
0.336463
20
0.745562
11
0.336463
21
0.745562
0
LINE
8
BLACK
6
CONTINUOUS
10
0.336463
20
0.745562
11
0.329282
21
0.7494
0
LINE
8
BLACK
6
CONTINUOUS
10
0.329282
20
0.7494
11
0.325197
21
0.75064
0
LINE
8
BLACK
6
CONTINUOUS
10
0.325197
20
0.75064
11
0.325197
21
0.742196
0
LINE
8
BLACK
6
CONTINUOUS
10
0.29749
20
0.7494
11
0.290308
21
0.745562
0
LINE
8
BLACK
6
CONTINUOUS
10
0.290308
20
0.745562
11
0.290308
21
0.745562
0
LINE
8
BLACK
6
CONTINUOUS
10
0.290308
20
0.745562
11
0.284014
21
0.740396
0
LINE
8
BLACK
6
CONTINUOUS
10
0.284014
20
0.740396
11
0.278848
21
0.734101
0
LINE
8
BLACK
6
CONTINUOUS
10
0.278848
20
0.734101
11
0.278848
21
0.734101
0
LINE
8
BLACK
6
CONTINUOUS
10
0.278848
20
0.734101
11
0.275009
21
0.72692
0
LINE
8
BLACK
6
CONTINUOUS
10
0.275009
20
0.72692
11
0.27377
21
0.722835
0
LINE
8
BLACK
6
CONTINUOUS
10
0.27377
20
0.722835
11
0.27377
21
0.722835
0
LINE
8
BLACK
6
CONTINUOUS
10
0.27377
20
0.722835
11
0.282229
21
0.722835
0
LINE
8
BLACK
6
CONTINUOUS
10
0.282229
20
0.722835
11
0.282814
21
0.724635
0
LINE
8
BLACK
6
CONTINUOUS
10
0.282814
20
0.724635
11
0.286312
21
0.730694
0
LINE
8
BLACK
6
CONTINUOUS
10
0.286312
20
0.730694
11
0.290994
21
0.735893
0
LINE
8
BLACK
6
CONTINUOUS
10
0.290994
20
0.735893
11
0.296654
21
0.740005
0
LINE
8
BLACK
6
CONTINUOUS
10
0.296654
20
0.740005
11
0.301575
21
0.742196
0
LINE
8
BLACK
6
CONTINUOUS
10
0.301575
20
0.742196
11
0.301575
21
0.75064
0
LINE
8
BLACK
6
CONTINUOUS
10
0.301575
20
0.75064
11
0.301575
21
0.75064
0
LINE
8
BLACK
6
CONTINUOUS
10
0.301575
20
0.75064
11
0.29749
21
0.7494
0
LINE
8
BLACK
6
CONTINUOUS
10
0.272626
20
0.802916
11
0.272626
21
0.802916
0
LINE
8
BLACK
6
CONTINUOUS
10
0.272626
20
0.802916
11
0.274991
21
0.79512
0
LINE
8
BLACK
6
CONTINUOUS
10
0.274991
20
0.79512
11
0.274991
21
0.79512
0
LINE
8
BLACK
6
CONTINUOUS
10
0.274991
20
0.79512
11
0.278831
21
0.787935
0
LINE
8
BLACK
6
CONTINUOUS
10
0.278831
20
0.787935
11
0.278831
21
0.787935
0
LINE
8
BLACK
6
CONTINUOUS
10
0.278831
20
0.787935
11
0.278831
21
0.787935
0
LINE
8
BLACK
6
CONTINUOUS
10
0.278831
20
0.787935
11
0.284
21
0.781637
0
LINE
8
BLACK
6
CONTINUOUS
10
0.284
20
0.781637
11
0.290297
21
0.776469
0
LINE
8
BLACK
6
CONTINUOUS
10
0.290297
20
0.776469
11
0.290297
21
0.776469
0
LINE
8
BLACK
6
CONTINUOUS
10
0.290297
20
0.776469
11
0.290297
21
0.776469
0
LINE
8
BLACK
6
CONTINUOUS
10
0.290297
20
0.776469
11
0.293264
21
0.774883
0
LINE
8
BLACK
6
CONTINUOUS
10
0.293264
20
0.774883
11
0.297482
21
0.772629
0
LINE
8
BLACK
6
CONTINUOUS
10
0.297482
20
0.772629
11
0.305278
21
0.770264
0
LINE
8
BLACK
6
CONTINUOUS
10
0.305278
20
0.770264
11
0.311359
21
0.769665
0
LINE
8
BLACK
6
CONTINUOUS
10
0.311359
20
0.769665
11
0.313386
21
0.769465
0
LINE
8
BLACK
6
CONTINUOUS
10
0.313386
20
0.769465
11
0.313386
21
0.769465
0
LINE
8
BLACK
6
CONTINUOUS
10
0.313386
20
0.769465
11
0.313386
21
0.769465
0
LINE
8
BLACK
6
CONTINUOUS
10
0.313386
20
0.769465
11
0.321493
21
0.770264
0
LINE
8
BLACK
6
CONTINUOUS
10
0.321493
20
0.770264
11
0.32929
21
0.772629
0
LINE
8
BLACK
6
CONTINUOUS
10
0.32929
20
0.772629
11
0.336474
21
0.776469
0
LINE
8
BLACK
6
CONTINUOUS
10
0.336474
20
0.776469
11
0.342772
21
0.781637
0
LINE
8
BLACK
6
CONTINUOUS
10
0.342772
20
0.781637
11
0.34794
21
0.787935
0
LINE
8
BLACK
6
CONTINUOUS
10
0.34794
20
0.787935
11
0.351781
21
0.79512
0
LINE
8
BLACK
6
CONTINUOUS
10
0.351781
20
0.79512
11
0.354146
21
0.802916
0
LINE
8
BLACK
6
CONTINUOUS
10
0.354146
20
0.802916
11
0.354944
21
0.811024
0
LINE
8
BLACK
6
CONTINUOUS
10
0.354944
20
0.811024
11
0.354146
21
0.819131
0
LINE
8
BLACK
6
CONTINUOUS
10
0.354146
20
0.819131
11
0.351781
21
0.826927
0
LINE
8
BLACK
6
CONTINUOUS
10
0.351781
20
0.826927
11
0.34794
21
0.834112
0
LINE
8
BLACK
6
CONTINUOUS
10
0.34794
20
0.834112
11
0.342772
21
0.84041
0
LINE
8
BLACK
6
CONTINUOUS
10
0.342772
20
0.84041
11
0.336474
21
0.845578
0
LINE
8
BLACK
6
CONTINUOUS
10
0.336474
20
0.845578
11
0.336474
21
0.845578
0
LINE
8
BLACK
6
CONTINUOUS
10
0.336474
20
0.845578
11
0.336474
21
0.845578
0
LINE
8
BLACK
6
CONTINUOUS
10
0.336474
20
0.845578
11
0.32929
21
0.849419
0
LINE
8
BLACK
6
CONTINUOUS
10
0.32929
20
0.849419
11
0.329289
21
0.849419
0
LINE
8
BLACK
6
CONTINUOUS
10
0.329289
20
0.849419
11
0.321494
21
0.851783
0
LINE
8
BLACK
6
CONTINUOUS
10
0.321494
20
0.851783
11
0.321493
21
0.851784
0
LINE
8
BLACK
6
CONTINUOUS
10
0.321493
20
0.851784
11
0.313386
21
0.852582
0
LINE
8
BLACK
6
CONTINUOUS
10
0.313386
20
0.852582
11
0.305278
21
0.851784
0
LINE
8
BLACK
6
CONTINUOUS
10
0.305278
20
0.851784
11
0.305278
21
0.851783
0
LINE
8
BLACK
6
CONTINUOUS
10
0.305278
20
0.851783
11
0.297482
21
0.849419
0
LINE
8
BLACK
6
CONTINUOUS
10
0.297482
20
0.849419
11
0.297482
21
0.849419
0
LINE
8
BLACK
6
CONTINUOUS
10
0.297482
20
0.849419
11
0.290297
21
0.845578
0
LINE
8
BLACK
6
CONTINUOUS
10
0.290297
20
0.845578
11
0.290297
21
0.845578
0
LINE
8
BLACK
6
CONTINUOUS
10
0.290297
20
0.845578
11
0.284
21
0.84041
0
LINE
8
BLACK
6
CONTINUOUS
10
0.284
20
0.84041
11
0.284
21
0.84041
0
LINE
8
BLACK
6
CONTINUOUS
10
0.284
20
0.84041
11
0.278831
21
0.834112
0
LINE
8
BLACK
6
CONTINUOUS
10
0.278831
20
0.834112
11
0.278831
21
0.834112
0
LINE
8
BLACK
6
CONTINUOUS
10
0.278831
20
0.834112
11
0.274991
21
0.826927
0
LINE
8
BLACK
6
CONTINUOUS
10
0.274991
20
0.826927
11
0.274991
21
0.826927
0
LINE
8
BLACK
6
CONTINUOUS
10
0.274991
20
0.826927
11
0.272626
21
0.819131
0
LINE
8
BLACK
6
CONTINUOUS
10
0.272626
20
0.819131
11
0.272626
21
0.819131
0
LINE
8
BLACK
6
CONTINUOUS
10
0.272626
20
0.819131
11
0.271827
21
0.811024
0
LINE
8
BLACK
6
CONTINUOUS
10
0.271827
20
0.811024
11
0.271827
21
0.811024
0
LINE
8
BLACK
6
CONTINUOUS
10
0.271827
20
0.811024
11
0.272626
21
0.802916
0
LINE
8
BLACK
6
CONTINUOUS
10
0.372626
20
0.802916
11
0.372626
21
0.802916
0
LINE
8
BLACK
6
CONTINUOUS
10
0.372626
20
0.802916
11
0.374991
21
0.79512
0
LINE
8
BLACK
6
CONTINUOUS
10
0.374991
20
0.79512
11
0.374991
21
0.79512
0
LINE
8
BLACK
6
CONTINUOUS
10
0.374991
20
0.79512
11
0.378831
21
0.787935
0
LINE
8
BLACK
6
CONTINUOUS
10
0.378831
20
0.787935
11
0.378831
21
0.787935
0
LINE
8
BLACK
6
CONTINUOUS
10
0.378831
20
0.787935
11
0.378831
21
0.787935
0
LINE
8
BLACK
6
CONTINUOUS
10
0.378831
20
0.787935
11
0.384
21
0.781637
0
LINE
8
BLACK
6
CONTINUOUS
10
0.384
20
0.781637
11
0.390297
21
0.776469
0
LINE
8
BLACK
6
CONTINUOUS
10
0.390297
20
0.776469
11
0.390297
21
0.776469
0
LINE
8
BLACK
6
CONTINUOUS
10
0.390297
20
0.776469
11
0.390297
21
0.776469
0
LINE
8
BLACK
6
CONTINUOUS
10
0.390297
20
0.776469
11
0.393264
21
0.774883
0
LINE
8
BLACK
6
CONTINUOUS
10
0.393264
20
0.774883
11
0.397482
21
0.772629
0
LINE
8
BLACK
6
CONTINUOUS
10
0.397482
20
0.772629
11
0.405278
21
0.770264
0
LINE
8
BLACK
6
CONTINUOUS
10
0.405278
20
0.770264
11
0.413386
21
0.769465
0
LINE
8
BLACK
6
CONTINUOUS
10
0.413386
20
0.769465
11
0.421493
21
0.770264
0
LINE
8
BLACK
6
CONTINUOUS
10
0.421493
20
0.770264
11
0.42929
21
0.772629
0
LINE
8
BLACK
6
CONTINUOUS
10
0.42929
20
0.772629
11
0.436474
21
0.776469
0
LINE
8
BLACK
6
CONTINUOUS
10
0.436474
20
0.776469
11
0.442772
21
0.781637
0
LINE
8
BLACK
6
CONTINUOUS
10
0.442772
20
0.781637
11
0.44794
21
0.787935
0
LINE
8
BLACK
6
CONTINUOUS
10
0.44794
20
0.787935
11
0.451781
21
0.79512
0
LINE
8
BLACK
6
CONTINUOUS
10
0.451781
20
0.79512
11
0.454146
21
0.802916
0
LINE
8
BLACK
6
CONTINUOUS
10
0.454146
20
0.802916
11
0.454944
21
0.811024
0
LINE
8
BLACK
6
CONTINUOUS
10
0.454944
20
0.811024
11
0.454146
21
0.819131
0
LINE
8
BLACK
6
CONTINUOUS
10
0.454146
20
0.819131
11
0.451781
21
0.826927
0
LINE
8
BLACK
6
CONTINUOUS
10
0.451781
20
0.826927
11
0.44794
21
0.834112
0
LINE
8
BLACK
6
CONTINUOUS
10
0.44794
20
0.834112
11
0.442772
21
0.84041
0
LINE
8
BLACK
6
CONTINUOUS
10
0.442772
20
0.84041
11
0.436474
21
0.845578
0
LINE
8
BLACK
6
CONTINUOUS
10
0.436474
20
0.845578
11
0.436474
21
0.845578
0
LINE
8
BLACK
6
CONTINUOUS
10
0.436474
20
0.845578
11
0.436474
21
0.845578
0
LINE
8
BLACK
6
CONTINUOUS
10
0.436474
20
0.845578
11
0.42929
21
0.849419
0
LINE
8
BLACK
6
CONTINUOUS
10
0.42929
20
0.849419
11
0.429289
21
0.849419
0
LINE
8
BLACK
6
CONTINUOUS
10
0.429289
20
0.849419
11
0.421494
21
0.851783
0
LINE
8
BLACK
6
CONTINUOUS
10
0.421494
20
0.851783
11
0.421493
21
0.851784
0
LINE
8
BLACK
6
CONTINUOUS
10
0.421493
20
0.851784
11
0.413386
21
0.852582
0
LINE
8
BLACK
6
CONTINUOUS
10
0.413386
20
0.852582
11
0.405278
21
0.851784
0
LINE
8
BLACK
6
CONTINUOUS
10
0.405278
20
0.851784
11
0.405278
21
0.851783
0
LINE
8
BLACK
6
CONTINUOUS
10
0.405278
20
0.851783
11
0.397482
21
0.849419
0
LINE
8
BLACK
6
CONTINUOUS
10
0.397482
20
0.849419
11
0.397482
21
0.849419
0
LINE
8
BLACK
6
CONTINUOUS
10
0.397482
20
0.849419
11
0.390297
21
0.845578
0
LINE
8
BLACK
6
CONTINUOUS
10
0.390297
20
0.845578
11
0.390297
21
0.845578
0
LINE
8
BLACK
6
CONTINUOUS
10
0.390297
20
0.845578
11
0.384
21
0.84041
0
LINE
8
BLACK
6
CONTINUOUS
10
0.384
20
0.84041
11
0.384
21
0.84041
0
LINE
8
BLACK
6
CONTINUOUS
10
0.384
20
0.84041
11
0.378831
21
0.834112
0
LINE
8
BLACK
6
CONTINUOUS
10
0.378831
20
0.834112
11
0.378831
21
0.834112
0
LINE
8
BLACK
6
CONTINUOUS
10
0.378831
20
0.834112
11
0.374991
21
0.826927
0
LINE
8
BLACK
6
CONTINUOUS
10
0.374991
20
0.826927
11
0.374991
21
0.826927
0
LINE
8
BLACK
6
CONTINUOUS
10
0.374991
20
0.826927
11
0.372626
21
0.819131
0
LINE
8
BLACK
6
CONTINUOUS
10
0.372626
20
0.819131
11
0.372626
21
0.819131
0
LINE
8
BLACK
6
CONTINUOUS
10
0.372626
20
0.819131
11
0.371827
21
0.811024
0
LINE
8
BLACK
6
CONTINUOUS
10
0.371827
20
0.811024
11
0.371827
21
0.811024
0
LINE
8
BLACK
6
CONTINUOUS
10
0.371827
20
0.811024
11
0.372626
21
0.802916
0
LINE
8
BLACK
6
CONTINUOUS
10
0.451762
20
0.895127
11
0.453002
21
0.899213
0
LINE
8
BLACK
6
CONTINUOUS
10
0.453002
20
0.899213
11
0.444542
21
0.899213
0
LINE
8
BLACK
6
CONTINUOUS
10
0.444542
20
0.899213
11
0.443957
21
0.897412
0
LINE
8
BLACK
6
CONTINUOUS
10
0.443957
20
0.897412
11
0.440459
21
0.891354
0
LINE
8
BLACK
6
CONTINUOUS
10
0.440459
20
0.891354
11
0.435778
21
0.886155
0
LINE
8
BLACK
6
CONTINUOUS
10
0.435778
20
0.886155
11
0.430118
21
0.882042
0
LINE
8
BLACK
6
CONTINUOUS
10
0.430118
20
0.882042
11
0.425197
21
0.879851
0
LINE
8
BLACK
6
CONTINUOUS
10
0.425197
20
0.879851
11
0.425197
21
0.871408
0
LINE
8
BLACK
6
CONTINUOUS
10
0.425197
20
0.871408
11
0.429282
21
0.872647
0
LINE
8
BLACK
6
CONTINUOUS
10
0.429282
20
0.872647
11
0.429282
21
0.872647
0
LINE
8
BLACK
6
CONTINUOUS
10
0.429282
20
0.872647
11
0.436463
21
0.876485
0
LINE
8
BLACK
6
CONTINUOUS
10
0.436463
20
0.876485
11
0.436463
21
0.876486
0
LINE
8
BLACK
6
CONTINUOUS
10
0.436463
20
0.876486
11
0.442758
21
0.881651
0
LINE
8
BLACK
6
CONTINUOUS
10
0.442758
20
0.881651
11
0.447924
21
0.887946
0
LINE
8
BLACK
6
CONTINUOUS
10
0.447924
20
0.887946
11
0.447924
21
0.887946
0
LINE
8
BLACK
6
CONTINUOUS
10
0.447924
20
0.887946
11
0.451
21
0.893701
0
LINE
8
BLACK
6
CONTINUOUS
10
0.451
20
0.893701
11
0.451762
21
0.895127
0
LINE
8
BLACK
6
CONTINUOUS
10
0.942518
20
0.887529
11
0.942518
21
0.887529
0
LINE
8
BLACK
6
CONTINUOUS
10
0.942518
20
0.887529
11
0.9449
21
0.881778
0
LINE
8
BLACK
6
CONTINUOUS
10
0.9449
20
0.881778
11
0.9449
21
0.881778
0
LINE
8
BLACK
6
CONTINUOUS
10
0.9449
20
0.881778
11
0.94869
21
0.876839
0
LINE
8
BLACK
6
CONTINUOUS
10
0.94869
20
0.876839
11
0.951756
21
0.874487
0
LINE
8
BLACK
6
CONTINUOUS
10
0.951756
20
0.874487
11
0.953628
21
0.87305
0
LINE
8
BLACK
6
CONTINUOUS
10
0.953628
20
0.87305
11
0.959379
21
0.870668
0
LINE
8
BLACK
6
CONTINUOUS
10
0.959379
20
0.870668
11
0.95938
21
0.870668
0
LINE
8
BLACK
6
CONTINUOUS
10
0.95938
20
0.870668
11
0.95938
21
0.870668
0
LINE
8
BLACK
6
CONTINUOUS
10
0.95938
20
0.870668
11
0.965551
21
0.869855
0
LINE
8
BLACK
6
CONTINUOUS
10
0.965551
20
0.869855
11
0.965551
21
0.869855
0
LINE
8
BLACK
6
CONTINUOUS
10
0.965551
20
0.869855
11
0.965551
21
0.869855
0
LINE
8
BLACK
6
CONTINUOUS
10
0.965551
20
0.869855
11
0.96654
21
0.869985
0
LINE
8
BLACK
6
CONTINUOUS
10
0.96654
20
0.869985
11
0.969405
21
0.870362
0
LINE
8
BLACK
6
CONTINUOUS
10
0.969405
20
0.870362
11
0.971224
21
0.869875
0
LINE
8
BLACK
6
CONTINUOUS
10
0.971224
20
0.869875
11
0.971466
21
0.869663
0
LINE
8
BLACK
6
CONTINUOUS
10
0.971466
20
0.869663
11
0.978694
21
0.862435
0
LINE
8
BLACK
6
CONTINUOUS
10
0.978694
20
0.862435
11
0.978766
21
0.862356
0
LINE
8
BLACK
6
CONTINUOUS
10
0.978766
20
0.862356
11
0.979825
21
0.861095
0
LINE
8
BLACK
6
CONTINUOUS
10
0.979825
20
0.861095
11
0.979825
21
0.861095
0
LINE
8
BLACK
6
CONTINUOUS
10
0.979825
20
0.861095
11
0.981251
21
0.860271
0
LINE
8
BLACK
6
CONTINUOUS
10
0.981251
20
0.860271
11
0.981341
21
0.860214
0
LINE
8
BLACK
6
CONTINUOUS
10
0.981341
20
0.860214
11
0.98269
21
0.85927
0
LINE
8
BLACK
6
CONTINUOUS
10
0.98269
20
0.85927
11
0.98293
21
0.859205
0
LINE
8
BLACK
6
CONTINUOUS
10
0.98293
20
0.859205
11
0.983523
21
0.858959
0
LINE
8
BLACK
6
CONTINUOUS
10
0.983523
20
0.858959
11
0.983738
21
0.858835
0
LINE
8
BLACK
6
CONTINUOUS
10
0.983738
20
0.858835
11
0.983739
21
0.858835
0
LINE
8
BLACK
6
CONTINUOUS
10
0.983739
20
0.858835
11
0.983739
21
0.858835
0
LINE
8
BLACK
6
CONTINUOUS
10
0.983739
20
0.858835
11
0.98536
21
0.858549
0
LINE
8
BLACK
6
CONTINUOUS
10
0.98536
20
0.858549
11
0.985464
21
0.858526
0
LINE
8
BLACK
6
CONTINUOUS
10
0.985464
20
0.858526
11
0.987055
21
0.8581
0
LINE
8
BLACK
6
CONTINUOUS
10
0.987055
20
0.8581
11
0.988695
21
0.858243
0
LINE
8
BLACK
6
CONTINUOUS
10
0.988695
20
0.858243
11
0.988802
21
0.858248
0
LINE
8
BLACK
6
CONTINUOUS
10
0.988802
20
0.858248
11
1.15931
21
0.858248
0
LINE
8
BLACK
6
CONTINUOUS
10
1.15931
20
0.858248
11
1.16237
21
0.858248
0
LINE
8
BLACK
6
CONTINUOUS
10
1.16237
20
0.858248
11
1.16411
21
0.857527
0
LINE
8
BLACK
6
CONTINUOUS
10
1.16411
20
0.857527
11
1.1705
21
0.851143
0
LINE
8
BLACK
6
CONTINUOUS
10
1.1705
20
0.851143
11
1.17122
21
0.849403
0
LINE
8
BLACK
6
CONTINUOUS
10
1.17122
20
0.849403
11
1.17093
21
0.848243
0
LINE
8
BLACK
6
CONTINUOUS
10
1.17093
20
0.848243
11
1.17027
21
0.847006
0
LINE
8
BLACK
6
CONTINUOUS
10
1.17027
20
0.847006
11
1.1679
21
0.83921
0
LINE
8
BLACK
6
CONTINUOUS
10
1.1679
20
0.83921
11
1.1679
21
0.83921
0
LINE
8
BLACK
6
CONTINUOUS
10
1.1679
20
0.83921
11
1.1671
21
0.831102
0
LINE
8
BLACK
6
CONTINUOUS
10
1.1671
20
0.831102
11
1.1671
21
0.831102
0
LINE
8
BLACK
6
CONTINUOUS
10
1.1671
20
0.831102
11
1.1679
21
0.822995
0
LINE
8
BLACK
6
CONTINUOUS
10
1.1679
20
0.822995
11
1.1679
21
0.822995
0
LINE
8
BLACK
6
CONTINUOUS
10
1.1679
20
0.822995
11
1.17027
21
0.815199
0
LINE
8
BLACK
6
CONTINUOUS
10
1.17027
20
0.815199
11
1.17027
21
0.815199
0
LINE
8
BLACK
6
CONTINUOUS
10
1.17027
20
0.815199
11
1.17411
21
0.808014
0
LINE
8
BLACK
6
CONTINUOUS
10
1.17411
20
0.808014
11
1.17411
21
0.808014
0
LINE
8
BLACK
6
CONTINUOUS
10
1.17411
20
0.808014
11
1.17411
21
0.808014
0
LINE
8
BLACK
6
CONTINUOUS
10
1.17411
20
0.808014
11
1.17928
21
0.801716
0
LINE
8
BLACK
6
CONTINUOUS
10
1.17928
20
0.801716
11
1.18557
21
0.796548
0
LINE
8
BLACK
6
CONTINUOUS
10
1.18557
20
0.796548
11
1.18557
21
0.796548
0
LINE
8
BLACK
6
CONTINUOUS
10
1.18557
20
0.796548
11
1.18557
21
0.796548
0
LINE
8
BLACK
6
CONTINUOUS
10
1.18557
20
0.796548
11
1.18824
21
0.79512
0
LINE
8
BLACK
6
CONTINUOUS
10
1.18824
20
0.79512
11
1.19276
21
0.792707
0
LINE
8
BLACK
6
CONTINUOUS
10
1.19276
20
0.792707
11
1.20055
21
0.790343
0
LINE
8
BLACK
6
CONTINUOUS
10
1.20055
20
0.790343
11
1.20663
21
0.789744
0
LINE
8
BLACK
6
CONTINUOUS
10
1.20663
20
0.789744
11
1.20866
21
0.789544
0
LINE
8
BLACK
6
CONTINUOUS
10
1.20866
20
0.789544
11
1.20866
21
0.789544
0
LINE
8
BLACK
6
CONTINUOUS
10
1.20866
20
0.789544
11
1.20866
21
0.789544
0
LINE
8
BLACK
6
CONTINUOUS
10
1.20866
20
0.789544
11
1.21677
21
0.790343
0
LINE
8
BLACK
6
CONTINUOUS
10
1.21677
20
0.790343
11
1.22457
21
0.792707
0
LINE
8
BLACK
6
CONTINUOUS
10
1.22457
20
0.792707
11
1.23175
21
0.796548
0
LINE
8
BLACK
6
CONTINUOUS
10
1.23175
20
0.796548
11
1.23805
21
0.801716
0
LINE
8
BLACK
6
CONTINUOUS
10
1.23805
20
0.801716
11
1.24322
21
0.808014
0
LINE
8
BLACK
6
CONTINUOUS
10
1.24322
20
0.808014
11
1.24706
21
0.815199
0
LINE
8
BLACK
6
CONTINUOUS
10
1.24706
20
0.815199
11
1.24942
21
0.822995
0
LINE
8
BLACK
6
CONTINUOUS
10
1.24942
20
0.822995
11
1.25022
21
0.831102
0
LINE
8
BLACK
6
CONTINUOUS
10
1.25022
20
0.831102
11
1.24942
21
0.83921
0
LINE
8
BLACK
6
CONTINUOUS
10
1.24942
20
0.83921
11
1.24706
21
0.847006
0
LINE
8
BLACK
6
CONTINUOUS
10
1.24706
20
0.847006
11
1.24322
21
0.854191
0
LINE
8
BLACK
6
CONTINUOUS
10
1.24322
20
0.854191
11
1.23964
21
0.858549
0
LINE
8
BLACK
6
CONTINUOUS
10
1.23964
20
0.858549
11
1.23805
21
0.860489
0
LINE
8
BLACK
6
CONTINUOUS
10
1.23805
20
0.860489
11
1.23805
21
0.860489
0
LINE
8
BLACK
6
CONTINUOUS
10
1.23805
20
0.860489
11
1.23175
21
0.865657
0
LINE
8
BLACK
6
CONTINUOUS
10
1.23175
20
0.865657
11
1.23175
21
0.865657
0
LINE
8
BLACK
6
CONTINUOUS
10
1.23175
20
0.865657
11
1.23175
21
0.865657
0
LINE
8
BLACK
6
CONTINUOUS
10
1.23175
20
0.865657
11
1.23175
21
0.865657
0
LINE
8
BLACK
6
CONTINUOUS
10
1.23175
20
0.865657
11
1.23175
21
0.865657
0
LINE
8
BLACK
6
CONTINUOUS
10
1.23175
20
0.865657
11
1.22457
21
0.869497
0
LINE
8
BLACK
6
CONTINUOUS
10
1.22457
20
0.869497
11
1.22456
21
0.869497
0
LINE
8
BLACK
6
CONTINUOUS
10
1.22456
20
0.869497
11
1.21677
21
0.871862
0
LINE
8
BLACK
6
CONTINUOUS
10
1.21677
20
0.871862
11
1.21677
21
0.871862
0
LINE
8
BLACK
6
CONTINUOUS
10
1.21677
20
0.871862
11
1.20866
21
0.872661
0
LINE
8
BLACK
6
CONTINUOUS
10
1.20866
20
0.872661
11
1.20055
21
0.871862
0
LINE
8
BLACK
6
CONTINUOUS
10
1.20055
20
0.871862
11
1.20055
21
0.871862
0
LINE
8
BLACK
6
CONTINUOUS
10
1.20055
20
0.871862
11
1.19276
21
0.869497
0
LINE
8
BLACK
6
CONTINUOUS
10
1.19276
20
0.869497
11
1.19152
21
0.868836
0
LINE
8
BLACK
6
CONTINUOUS
10
1.19152
20
0.868836
11
1.18965
21
0.868651
0
LINE
8
BLACK
6
CONTINUOUS
10
1.18965
20
0.868651
11
1.18862
21
0.869266
0
LINE
8
BLACK
6
CONTINUOUS
10
1.18862
20
0.869266
11
1.18484
21
0.87305
0
LINE
8
BLACK
6
CONTINUOUS
10
1.18484
20
0.87305
11
1.1782
21
0.879691
0
LINE
8
BLACK
6
CONTINUOUS
10
1.1782
20
0.879691
11
1.17812
21
0.87977
0
LINE
8
BLACK
6
CONTINUOUS
10
1.17812
20
0.87977
11
1.17707
21
0.881031
0
LINE
8
BLACK
6
CONTINUOUS
10
1.17707
20
0.881031
11
1.17564
21
0.881855
0
LINE
8
BLACK
6
CONTINUOUS
10
1.17564
20
0.881855
11
1.17555
21
0.881912
0
LINE
8
BLACK
6
CONTINUOUS
10
1.17555
20
0.881912
11
1.1742
21
0.882856
0
LINE
8
BLACK
6
CONTINUOUS
10
1.1742
20
0.882856
11
1.1742
21
0.882857
0
LINE
8
BLACK
6
CONTINUOUS
10
1.1742
20
0.882857
11
1.17396
21
0.882921
0
LINE
8
BLACK
6
CONTINUOUS
10
1.17396
20
0.882921
11
1.17337
21
0.883167
0
LINE
8
BLACK
6
CONTINUOUS
10
1.17337
20
0.883167
11
1.17315
21
0.883291
0
LINE
8
BLACK
6
CONTINUOUS
10
1.17315
20
0.883291
11
1.17315
21
0.883291
0
LINE
8
BLACK
6
CONTINUOUS
10
1.17315
20
0.883291
11
1.17222
21
0.883455
0
LINE
8
BLACK
6
CONTINUOUS
10
1.17222
20
0.883455
11
1.17153
21
0.883577
0
LINE
8
BLACK
6
CONTINUOUS
10
1.17153
20
0.883577
11
1.17143
21
0.8836
0
LINE
8
BLACK
6
CONTINUOUS
10
1.17143
20
0.8836
11
1.16983
21
0.884026
0
LINE
8
BLACK
6
CONTINUOUS
10
1.16983
20
0.884026
11
1.16845
21
0.883905
0
LINE
8
BLACK
6
CONTINUOUS
10
1.16845
20
0.883905
11
1.16819
21
0.883883
0
LINE
8
BLACK
6
CONTINUOUS
10
1.16819
20
0.883883
11
1.16809
21
0.883878
0
LINE
8
BLACK
6
CONTINUOUS
10
1.16809
20
0.883878
11
0.994516
21
0.883878
0
LINE
8
BLACK
6
CONTINUOUS
10
0.994516
20
0.883878
11
0.992776
21
0.884599
0
LINE
8
BLACK
6
CONTINUOUS
10
0.992776
20
0.884599
11
0.989589
21
0.887786
0
LINE
8
BLACK
6
CONTINUOUS
10
0.989589
20
0.887786
11
0.988868
21
0.889526
0
LINE
8
BLACK
6
CONTINUOUS
10
0.988868
20
0.889526
11
0.98889
21
0.889847
0
LINE
8
BLACK
6
CONTINUOUS
10
0.98889
20
0.889847
11
0.988936
21
0.890202
0
LINE
8
BLACK
6
CONTINUOUS
10
0.988936
20
0.890202
11
0.989397
21
0.893701
0
LINE
8
BLACK
6
CONTINUOUS
10
0.989397
20
0.893701
11
0.989209
21
0.895127
0
LINE
8
BLACK
6
CONTINUOUS
10
0.989209
20
0.895127
11
0.988981
21
0.89686
0
LINE
8
BLACK
6
CONTINUOUS
10
0.988981
20
0.89686
11
0.988584
21
0.899872
0
LINE
8
BLACK
6
CONTINUOUS
10
0.988584
20
0.899872
11
0.988584
21
0.899872
0
LINE
8
BLACK
6
CONTINUOUS
10
0.988584
20
0.899872
11
0.988584
21
0.899873
0
LINE
8
BLACK
6
CONTINUOUS
10
0.988584
20
0.899873
11
0.986202
21
0.905624
0
LINE
8
BLACK
6
CONTINUOUS
10
0.986202
20
0.905624
11
0.98532
21
0.906773
0
LINE
8
BLACK
6
CONTINUOUS
10
0.98532
20
0.906773
11
0.982413
21
0.910562
0
LINE
8
BLACK
6
CONTINUOUS
10
0.982413
20
0.910562
11
0.977474
21
0.914352
0
LINE
8
BLACK
6
CONTINUOUS
10
0.977474
20
0.914352
11
0.977474
21
0.914352
0
LINE
8
BLACK
6
CONTINUOUS
10
0.977474
20
0.914352
11
0.971723
21
0.916734
0
LINE
8
BLACK
6
CONTINUOUS
10
0.971723
20
0.916734
11
0.971723
21
0.916734
0
LINE
8
BLACK
6
CONTINUOUS
10
0.971723
20
0.916734
11
0.965551
21
0.917547
0
LINE
8
BLACK
6
CONTINUOUS
10
0.965551
20
0.917547
11
0.965551
21
0.917547
0
LINE
8
BLACK
6
CONTINUOUS
10
0.965551
20
0.917547
11
0.95938
21
0.916734
0
LINE
8
BLACK
6
CONTINUOUS
10
0.95938
20
0.916734
11
0.959379
21
0.916734
0
LINE
8
BLACK
6
CONTINUOUS
10
0.959379
20
0.916734
11
0.953628
21
0.914352
0
LINE
8
BLACK
6
CONTINUOUS
10
0.953628
20
0.914352
11
0.953628
21
0.914352
0
LINE
8
BLACK
6
CONTINUOUS
10
0.953628
20
0.914352
11
0.94869
21
0.910562
0
LINE
8
BLACK
6
CONTINUOUS
10
0.94869
20
0.910562
11
0.9449
21
0.905624
0
LINE
8
BLACK
6
CONTINUOUS
10
0.9449
20
0.905624
11
0.9449
21
0.905624
0
LINE
8
BLACK
6
CONTINUOUS
10
0.9449
20
0.905624
11
0.942518
21
0.899873
0
LINE
8
BLACK
6
CONTINUOUS
10
0.942518
20
0.899873
11
0.942518
21
0.899872
0
LINE
8
BLACK
6
CONTINUOUS
10
0.942518
20
0.899872
11
0.941705
21
0.893701
0
LINE
8
BLACK
6
CONTINUOUS
10
0.941705
20
0.893701
11
0.941705
21
0.893701
0
LINE
8
BLACK
6
CONTINUOUS
10
0.941705
20
0.893701
11
0.942518
21
0.887529
0
LINE
8
BLACK
6
CONTINUOUS
10
0.34685
20
0.899213
11
0.34685
21
0.877559
0
LINE
8
BLACK
6
CONTINUOUS
10
0.34685
20
0.877559
11
0.325197
21
0.877559
0
LINE
8
BLACK
6
CONTINUOUS
10
0.325197
20
0.877559
11
0.325197
21
0.869685
0
LINE
8
BLACK
6
CONTINUOUS
10
0.325197
20
0.869685
11
0.347626
21
0.869685
0
LINE
8
BLACK
6
CONTINUOUS
10
0.347626
20
0.869685
11
0.347626
21
0.869685
0
LINE
8
BLACK
6
CONTINUOUS
10
0.347626
20
0.869685
11
0.349923
21
0.870142
0
LINE
8
BLACK
6
CONTINUOUS
10
0.349923
20
0.870142
11
0.349923
21
0.870142
0
LINE
8
BLACK
6
CONTINUOUS
10
0.349923
20
0.870142
11
0.352527
21
0.871882
0
LINE
8
BLACK
6
CONTINUOUS
10
0.352527
20
0.871882
11
0.354267
21
0.874487
0
LINE
8
BLACK
6
CONTINUOUS
10
0.354267
20
0.874487
11
0.354268
21
0.874487
0
LINE
8
BLACK
6
CONTINUOUS
10
0.354268
20
0.874487
11
0.354724
21
0.876784
0
LINE
8
BLACK
6
CONTINUOUS
10
0.354724
20
0.876784
11
0.354724
21
0.876784
0
LINE
8
BLACK
6
CONTINUOUS
10
0.354724
20
0.876784
11
0.354724
21
0.899213
0
LINE
8
BLACK
6
CONTINUOUS
10
0.354724
20
0.899213
11
0.34685
21
0.899213
0
LINE
8
BLACK
6
CONTINUOUS
10
1.16776
20
0.894558
11
1.16776
21
0.894558
0
LINE
8
BLACK
6
CONTINUOUS
10
1.16776
20
0.894558
11
1.16951
21
0.891947
0
LINE
8
BLACK
6
CONTINUOUS
10
1.16951
20
0.891947
11
1.17212
21
0.890202
0
LINE
8
BLACK
6
CONTINUOUS
10
1.17212
20
0.890202
11
1.17212
21
0.890202
0
LINE
8
BLACK
6
CONTINUOUS
10
1.17212
20
0.890202
11
1.17442
21
0.889744
0
LINE
8
BLACK
6
CONTINUOUS
10
1.17442
20
0.889744
11
1.2429
21
0.889744
0
LINE
8
BLACK
6
CONTINUOUS
10
1.2429
20
0.889744
11
1.24521
21
0.890202
0
LINE
8
BLACK
6
CONTINUOUS
10
1.24521
20
0.890202
11
1.24782
21
0.891947
0
LINE
8
BLACK
6
CONTINUOUS
10
1.24782
20
0.891947
11
1.24956
21
0.894558
0
LINE
8
BLACK
6
CONTINUOUS
10
1.24956
20
0.894558
11
1.25002
21
0.89686
0
LINE
8
BLACK
6
CONTINUOUS
10
1.25002
20
0.89686
11
1.25002
21
0.965344
0
LINE
8
BLACK
6
CONTINUOUS
10
1.25002
20
0.965344
11
1.24956
21
0.967647
0
LINE
8
BLACK
6
CONTINUOUS
10
1.24956
20
0.967647
11
1.24956
21
0.967647
0
LINE
8
BLACK
6
CONTINUOUS
10
1.24956
20
0.967647
11
1.24782
21
0.970258
0
LINE
8
BLACK
6
CONTINUOUS
10
1.24782
20
0.970258
11
1.24521
21
0.972003
0
LINE
8
BLACK
6
CONTINUOUS
10
1.24521
20
0.972003
11
1.24521
21
0.972003
0
LINE
8
BLACK
6
CONTINUOUS
10
1.24521
20
0.972003
11
1.2429
21
0.972461
0
LINE
8
BLACK
6
CONTINUOUS
10
1.2429
20
0.972461
11
1.17442
21
0.972461
0
LINE
8
BLACK
6
CONTINUOUS
10
1.17442
20
0.972461
11
1.17212
21
0.972003
0
LINE
8
BLACK
6
CONTINUOUS
10
1.17212
20
0.972003
11
1.17212
21
0.972003
0
LINE
8
BLACK
6
CONTINUOUS
10
1.17212
20
0.972003
11
1.16951
21
0.970258
0
LINE
8
BLACK
6
CONTINUOUS
10
1.16951
20
0.970258
11
1.16776
21
0.967647
0
LINE
8
BLACK
6
CONTINUOUS
10
1.16776
20
0.967647
11
1.16776
21
0.967647
0
LINE
8
BLACK
6
CONTINUOUS
10
1.16776
20
0.967647
11
1.1673
21
0.965344
0
LINE
8
BLACK
6
CONTINUOUS
10
1.1673
20
0.965344
11
1.1673
21
0.89686
0
LINE
8
BLACK
6
CONTINUOUS
10
1.1673
20
0.89686
11
1.16776
21
0.894558
0
LINE
8
BLACK
6
CONTINUOUS
10
0.425197
20
0.942196
11
0.430118
21
0.940005
0
LINE
8
BLACK
6
CONTINUOUS
10
0.430118
20
0.940005
11
0.435778
21
0.935893
0
LINE
8
BLACK
6
CONTINUOUS
10
0.435778
20
0.935893
11
0.440459
21
0.930694
0
LINE
8
BLACK
6
CONTINUOUS
10
0.440459
20
0.930694
11
0.443957
21
0.924635
0
LINE
8
BLACK
6
CONTINUOUS
10
0.443957
20
0.924635
11
0.444542
21
0.922835
0
LINE
8
BLACK
6
CONTINUOUS
10
0.444542
20
0.922835
11
0.453002
21
0.922835
0
LINE
8
BLACK
6
CONTINUOUS
10
0.453002
20
0.922835
11
0.453002
21
0.922835
0
LINE
8
BLACK
6
CONTINUOUS
10
0.453002
20
0.922835
11
0.451762
21
0.92692
0
LINE
8
BLACK
6
CONTINUOUS
10
0.451762
20
0.92692
11
0.447924
21
0.934101
0
LINE
8
BLACK
6
CONTINUOUS
10
0.447924
20
0.934101
11
0.447924
21
0.934101
0
LINE
8
BLACK
6
CONTINUOUS
10
0.447924
20
0.934101
11
0.442758
21
0.940396
0
LINE
8
BLACK
6
CONTINUOUS
10
0.442758
20
0.940396
11
0.436463
21
0.945562
0
LINE
8
BLACK
6
CONTINUOUS
10
0.436463
20
0.945562
11
0.436463
21
0.945562
0
LINE
8
BLACK
6
CONTINUOUS
10
0.436463
20
0.945562
11
0.429282
21
0.9494
0
LINE
8
BLACK
6
CONTINUOUS
10
0.429282
20
0.9494
11
0.425197
21
0.95064
0
LINE
8
BLACK
6
CONTINUOUS
10
0.425197
20
0.95064
11
0.425197
21
0.942196
0
LINE
8
BLACK
6
CONTINUOUS
10
0.39749
20
0.9494
11
0.390308
21
0.945562
0
LINE
8
BLACK
6
CONTINUOUS
10
0.390308
20
0.945562
11
0.390308
21
0.945562
0
LINE
8
BLACK
6
CONTINUOUS
10
0.390308
20
0.945562
11
0.384014
21
0.940396
0
LINE
8
BLACK
6
CONTINUOUS
10
0.384014
20
0.940396
11
0.378848
21
0.934101
0
LINE
8
BLACK
6
CONTINUOUS
10
0.378848
20
0.934101
11
0.378848
21
0.934101
0
LINE
8
BLACK
6
CONTINUOUS
10
0.378848
20
0.934101
11
0.375009
21
0.92692
0
LINE
8
BLACK
6
CONTINUOUS
10
0.375009
20
0.92692
11
0.37377
21
0.922835
0
LINE
8
BLACK
6
CONTINUOUS
10
0.37377
20
0.922835
11
0.37377
21
0.922835
0
LINE
8
BLACK
6
CONTINUOUS
10
0.37377
20
0.922835
11
0.382229
21
0.922835
0
LINE
8
BLACK
6
CONTINUOUS
10
0.382229
20
0.922835
11
0.382814
21
0.924635
0
LINE
8
BLACK
6
CONTINUOUS
10
0.382814
20
0.924635
11
0.386312
21
0.930694
0
LINE
8
BLACK
6
CONTINUOUS
10
0.386312
20
0.930694
11
0.390994
21
0.935893
0
LINE
8
BLACK
6
CONTINUOUS
10
0.390994
20
0.935893
11
0.396654
21
0.940005
0
LINE
8
BLACK
6
CONTINUOUS
10
0.396654
20
0.940005
11
0.401575
21
0.942196
0
LINE
8
BLACK
6
CONTINUOUS
10
0.401575
20
0.942196
11
0.401575
21
0.95064
0
LINE
8
BLACK
6
CONTINUOUS
10
0.401575
20
0.95064
11
0.401575
21
0.95064
0
LINE
8
BLACK
6
CONTINUOUS
10
0.401575
20
0.95064
11
0.39749
21
0.9494
0
LINE
8
BLACK
6
CONTINUOUS
10
0.325197
20
0.944488
11
0.34685
21
0.944488
0
LINE
8
BLACK
6
CONTINUOUS
10
0.34685
20
0.944488
11
0.34685
21
0.922835
0
LINE
8
BLACK
6
CONTINUOUS
10
0.34685
20
0.922835
11
0.354724
21
0.922835
0
LINE
8
BLACK
6
CONTINUOUS
10
0.354724
20
0.922835
11
0.354724
21
0.945264
0
LINE
8
BLACK
6
CONTINUOUS
10
0.354724
20
0.945264
11
0.354724
21
0.945264
0
LINE
8
BLACK
6
CONTINUOUS
10
0.354724
20
0.945264
11
0.354268
21
0.94756
0
LINE
8
BLACK
6
CONTINUOUS
10
0.354268
20
0.94756
11
0.354267
21
0.947561
0
LINE
8
BLACK
6
CONTINUOUS
10
0.354267
20
0.947561
11
0.352527
21
0.950165
0
LINE
8
BLACK
6
CONTINUOUS
10
0.352527
20
0.950165
11
0.349923
21
0.951905
0
LINE
8
BLACK
6
CONTINUOUS
10
0.349923
20
0.951905
11
0.349923
21
0.951905
0
LINE
8
BLACK
6
CONTINUOUS
10
0.349923
20
0.951905
11
0.347626
21
0.952362
0
LINE
8
BLACK
6
CONTINUOUS
10
0.347626
20
0.952362
11
0.325197
21
0.952362
0
LINE
8
BLACK
6
CONTINUOUS
10
0.325197
20
0.952362
11
0.325197
21
0.944488
0
LINE
8
BLACK
6
CONTINUOUS
10
0.276849
20
0.951905
11
0.276849
21
0.951905
0
LINE
8
BLACK
6
CONTINUOUS
10
0.276849
20
0.951905
11
0.274244
21
0.950165
0
LINE
8
BLACK
6
CONTINUOUS
10
0.274244
20
0.950165
11
0.272504
21
0.947561
0
LINE
8
BLACK
6
CONTINUOUS
10
0.272504
20
0.947561
11
0.272504
21
0.94756
0
LINE
8
BLACK
6
CONTINUOUS
10
0.272504
20
0.94756
11
0.272047
21
0.945264
0
LINE
8
BLACK
6
CONTINUOUS
10
0.272047
20
0.945264
11
0.272047
21
0.922835
0
LINE
8
BLACK
6
CONTINUOUS
10
0.272047
20
0.922835
11
0.279921
21
0.922835
0
LINE
8
BLACK
6
CONTINUOUS
10
0.279921
20
0.922835
11
0.279921
21
0.944488
0
LINE
8
BLACK
6
CONTINUOUS
10
0.279921
20
0.944488
11
0.301575
21
0.944488
0
LINE
8
BLACK
6
CONTINUOUS
10
0.301575
20
0.944488
11
0.301575
21
0.952362
0
LINE
8
BLACK
6
CONTINUOUS
10
0.301575
20
0.952362
11
0.279146
21
0.952362
0
LINE
8
BLACK
6
CONTINUOUS
10
0.279146
20
0.952362
11
0.276849
21
0.951905
0
LINE
8
BLACK
6
CONTINUOUS
10
0.767138
20
1.165
11
0.764773
21
1.17279
0
LINE
8
BLACK
6
CONTINUOUS
10
0.764773
20
1.17279
11
0.760932
21
1.17998
0
LINE
8
BLACK
6
CONTINUOUS
10
0.760932
20
1.17998
11
0.755764
21
1.18628
0
LINE
8
BLACK
6
CONTINUOUS
10
0.755764
20
1.18628
11
0.749467
21
1.19144
0
LINE
8
BLACK
6
CONTINUOUS
10
0.749467
20
1.19144
11
0.749466
21
1.19144
0
LINE
8
BLACK
6
CONTINUOUS
10
0.749466
20
1.19144
11
0.749466
21
1.19144
0
LINE
8
BLACK
6
CONTINUOUS
10
0.749466
20
1.19144
11
0.742282
21
1.19528
0
LINE
8
BLACK
6
CONTINUOUS
10
0.742282
20
1.19528
11
0.742281
21
1.19528
0
LINE
8
BLACK
6
CONTINUOUS
10
0.742281
20
1.19528
11
0.734486
21
1.19765
0
LINE
8
BLACK
6
CONTINUOUS
10
0.734486
20
1.19765
11
0.734485
21
1.19765
0
LINE
8
BLACK
6
CONTINUOUS
10
0.734485
20
1.19765
11
0.726378
21
1.19845
0
LINE
8
BLACK
6
CONTINUOUS
10
0.726378
20
1.19845
11
0.71827
21
1.19765
0
LINE
8
BLACK
6
CONTINUOUS
10
0.71827
20
1.19765
11
0.71827
21
1.19765
0
LINE
8
BLACK
6
CONTINUOUS
10
0.71827
20
1.19765
11
0.710474
21
1.19528
0
LINE
8
BLACK
6
CONTINUOUS
10
0.710474
20
1.19528
11
0.710474
21
1.19528
0
LINE
8
BLACK
6
CONTINUOUS
10
0.710474
20
1.19528
11
0.70329
21
1.19144
0
LINE
8
BLACK
6
CONTINUOUS
10
0.70329
20
1.19144
11
0.703289
21
1.19144
0
LINE
8
BLACK
6
CONTINUOUS
10
0.703289
20
1.19144
11
0.696992
21
1.18628
0
LINE
8
BLACK
6
CONTINUOUS
10
0.696992
20
1.18628
11
0.696992
21
1.18628
0
LINE
8
BLACK
6
CONTINUOUS
10
0.696992
20
1.18628
11
0.691824
21
1.17998
0
LINE
8
BLACK
6
CONTINUOUS
10
0.691824
20
1.17998
11
0.691823
21
1.17998
0
LINE
8
BLACK
6
CONTINUOUS
10
0.691823
20
1.17998
11
0.687983
21
1.17279
0
LINE
8
BLACK
6
CONTINUOUS
10
0.687983
20
1.17279
11
0.687983
21
1.17279
0
LINE
8
BLACK
6
CONTINUOUS
10
0.687983
20
1.17279
11
0.685618
21
1.165
0
LINE
8
BLACK
6
CONTINUOUS
10
0.685618
20
1.165
11
0.685618
21
1.165
0
LINE
8
BLACK
6
CONTINUOUS
10
0.685618
20
1.165
11
0.68482
21
1.15689
0
LINE
8
BLACK
6
CONTINUOUS
10
0.68482
20
1.15689
11
0.68482
21
1.15689
0
LINE
8
BLACK
6
CONTINUOUS
10
0.68482
20
1.15689
11
0.685618
21
1.14878
0
LINE
8
BLACK
6
CONTINUOUS
10
0.685618
20
1.14878
11
0.685618
21
1.14878
0
LINE
8
BLACK
6
CONTINUOUS
10
0.685618
20
1.14878
11
0.687983
21
1.14099
0
LINE
8
BLACK
6
CONTINUOUS
10
0.687983
20
1.14099
11
0.687983
21
1.14099
0
LINE
8
BLACK
6
CONTINUOUS
10
0.687983
20
1.14099
11
0.691823
21
1.1338
0
LINE
8
BLACK
6
CONTINUOUS
10
0.691823
20
1.1338
11
0.691823
21
1.1338
0
LINE
8
BLACK
6
CONTINUOUS
10
0.691823
20
1.1338
11
0.691823
21
1.1338
0
LINE
8
BLACK
6
CONTINUOUS
10
0.691823
20
1.1338
11
0.696992
21
1.1275
0
LINE
8
BLACK
6
CONTINUOUS
10
0.696992
20
1.1275
11
0.703289
21
1.12234
0
LINE
8
BLACK
6
CONTINUOUS
10
0.703289
20
1.12234
11
0.703289
21
1.12234
0
LINE
8
BLACK
6
CONTINUOUS
10
0.703289
20
1.12234
11
0.70329
21
1.12234
0
LINE
8
BLACK
6
CONTINUOUS
10
0.70329
20
1.12234
11
0.706256
21
1.12075
0
LINE
8
BLACK
6
CONTINUOUS
10
0.706256
20
1.12075
11
0.710474
21
1.11849
0
LINE
8
BLACK
6
CONTINUOUS
10
0.710474
20
1.11849
11
0.71827
21
1.11613
0
LINE
8
BLACK
6
CONTINUOUS
10
0.71827
20
1.11613
11
0.726378
21
1.11533
0
LINE
8
BLACK
6
CONTINUOUS
10
0.726378
20
1.11533
11
0.734486
21
1.11613
0
LINE
8
BLACK
6
CONTINUOUS
10
0.734486
20
1.11613
11
0.742282
21
1.11849
0
LINE
8
BLACK
6
CONTINUOUS
10
0.742282
20
1.11849
11
0.749467
21
1.12234
0
LINE
8
BLACK
6
CONTINUOUS
10
0.749467
20
1.12234
11
0.755764
21
1.1275
0
LINE
8
BLACK
6
CONTINUOUS
10
0.755764
20
1.1275
11
0.760932
21
1.1338
0
LINE
8
BLACK
6
CONTINUOUS
10
0.760932
20
1.1338
11
0.764773
21
1.14099
0
LINE
8
BLACK
6
CONTINUOUS
10
0.764773
20
1.14099
11
0.767138
21
1.14878
0
LINE
8
BLACK
6
CONTINUOUS
10
0.767138
20
1.14878
11
0.767936
21
1.15689
0
LINE
8
BLACK
6
CONTINUOUS
10
0.767936
20
1.15689
11
0.767138
21
1.165
0
LINE
8
BLACK
6
CONTINUOUS
10
0.785618
20
1.14878
11
0.785618
21
1.14878
0
LINE
8
BLACK
6
CONTINUOUS
10
0.785618
20
1.14878
11
0.787983
21
1.14099
0
LINE
8
BLACK
6
CONTINUOUS
10
0.787983
20
1.14099
11
0.787983
21
1.14099
0
LINE
8
BLACK
6
CONTINUOUS
10
0.787983
20
1.14099
11
0.791823
21
1.1338
0
LINE
8
BLACK
6
CONTINUOUS
10
0.791823
20
1.1338
11
0.791823
21
1.1338
0
LINE
8
BLACK
6
CONTINUOUS
10
0.791823
20
1.1338
11
0.791823
21
1.1338
0
LINE
8
BLACK
6
CONTINUOUS
10
0.791823
20
1.1338
11
0.796992
21
1.1275
0
LINE
8
BLACK
6
CONTINUOUS
10
0.796992
20
1.1275
11
0.803289
21
1.12234
0
LINE
8
BLACK
6
CONTINUOUS
10
0.803289
20
1.12234
11
0.803289
21
1.12234
0
LINE
8
BLACK
6
CONTINUOUS
10
0.803289
20
1.12234
11
0.80329
21
1.12234
0
LINE
8
BLACK
6
CONTINUOUS
10
0.80329
20
1.12234
11
0.806256
21
1.12075
0
LINE
8
BLACK
6
CONTINUOUS
10
0.806256
20
1.12075
11
0.810474
21
1.11849
0
LINE
8
BLACK
6
CONTINUOUS
10
0.810474
20
1.11849
11
0.81827
21
1.11613
0
LINE
8
BLACK
6
CONTINUOUS
10
0.81827
20
1.11613
11
0.826378
21
1.11533
0
LINE
8
BLACK
6
CONTINUOUS
10
0.826378
20
1.11533
11
0.834486
21
1.11613
0
LINE
8
BLACK
6
CONTINUOUS
10
0.834486
20
1.11613
11
0.842282
21
1.11849
0
LINE
8
BLACK
6
CONTINUOUS
10
0.842282
20
1.11849
11
0.849467
21
1.12234
0
LINE
8
BLACK
6
CONTINUOUS
10
0.849467
20
1.12234
11
0.855764
21
1.1275
0
LINE
8
BLACK
6
CONTINUOUS
10
0.855764
20
1.1275
11
0.860932
21
1.1338
0
LINE
8
BLACK
6
CONTINUOUS
10
0.860932
20
1.1338
11
0.864773
21
1.14099
0
LINE
8
BLACK
6
CONTINUOUS
10
0.864773
20
1.14099
11
0.867138
21
1.14878
0
LINE
8
BLACK
6
CONTINUOUS
10
0.867138
20
1.14878
11
0.867936
21
1.15689
0
LINE
8
BLACK
6
CONTINUOUS
10
0.867936
20
1.15689
11
0.867138
21
1.165
0
LINE
8
BLACK
6
CONTINUOUS
10
0.867138
20
1.165
11
0.864773
21
1.17279
0
LINE
8
BLACK
6
CONTINUOUS
10
0.864773
20
1.17279
11
0.860932
21
1.17998
0
LINE
8
BLACK
6
CONTINUOUS
10
0.860932
20
1.17998
11
0.855764
21
1.18628
0
LINE
8
BLACK
6
CONTINUOUS
10
0.855764
20
1.18628
11
0.849467
21
1.19144
0
LINE
8
BLACK
6
CONTINUOUS
10
0.849467
20
1.19144
11
0.849466
21
1.19144
0
LINE
8
BLACK
6
CONTINUOUS
10
0.849466
20
1.19144
11
0.849466
21
1.19144
0
LINE
8
BLACK
6
CONTINUOUS
10
0.849466
20
1.19144
11
0.842282
21
1.19528
0
LINE
8
BLACK
6
CONTINUOUS
10
0.842282
20
1.19528
11
0.842281
21
1.19528
0
LINE
8
BLACK
6
CONTINUOUS
10
0.842281
20
1.19528
11
0.834486
21
1.19765
0
LINE
8
BLACK
6
CONTINUOUS
10
0.834486
20
1.19765
11
0.834485
21
1.19765
0
LINE
8
BLACK
6
CONTINUOUS
10
0.834485
20
1.19765
11
0.826378
21
1.19845
0
LINE
8
BLACK
6
CONTINUOUS
10
0.826378
20
1.19845
11
0.81827
21
1.19765
0
LINE
8
BLACK
6
CONTINUOUS
10
0.81827
20
1.19765
11
0.81827
21
1.19765
0
LINE
8
BLACK
6
CONTINUOUS
10
0.81827
20
1.19765
11
0.810474
21
1.19528
0
LINE
8
BLACK
6
CONTINUOUS
10
0.810474
20
1.19528
11
0.810474
21
1.19528
0
LINE
8
BLACK
6
CONTINUOUS
10
0.810474
20
1.19528
11
0.80329
21
1.19144
0
LINE
8
BLACK
6
CONTINUOUS
10
0.80329
20
1.19144
11
0.803289
21
1.19144
0
LINE
8
BLACK
6
CONTINUOUS
10
0.803289
20
1.19144
11
0.796992
21
1.18628
0
LINE
8
BLACK
6
CONTINUOUS
10
0.796992
20
1.18628
11
0.796992
21
1.18628
0
LINE
8
BLACK
6
CONTINUOUS
10
0.796992
20
1.18628
11
0.791824
21
1.17998
0
LINE
8
BLACK
6
CONTINUOUS
10
0.791824
20
1.17998
11
0.791823
21
1.17998
0
LINE
8
BLACK
6
CONTINUOUS
10
0.791823
20
1.17998
11
0.787983
21
1.17279
0
LINE
8
BLACK
6
CONTINUOUS
10
0.787983
20
1.17279
11
0.787983
21
1.17279
0
LINE
8
BLACK
6
CONTINUOUS
10
0.787983
20
1.17279
11
0.785618
21
1.165
0
LINE
8
BLACK
6
CONTINUOUS
10
0.785618
20
1.165
11
0.785618
21
1.165
0
LINE
8
BLACK
6
CONTINUOUS
10
0.785618
20
1.165
11
0.78482
21
1.15689
0
LINE
8
BLACK
6
CONTINUOUS
10
0.78482
20
1.15689
11
0.78482
21
1.15689
0
LINE
8
BLACK
6
CONTINUOUS
10
0.78482
20
1.15689
11
0.785618
21
1.14878
0
LINE
8
BLACK
6
CONTINUOUS
10
0.685039
20
1.24508
11
0.685039
21
1.22265
0
LINE
8
BLACK
6
CONTINUOUS
10
0.685039
20
1.22265
11
0.685496
21
1.22035
0
LINE
8
BLACK
6
CONTINUOUS
10
0.685496
20
1.22035
11
0.685496
21
1.22035
0
LINE
8
BLACK
6
CONTINUOUS
10
0.685496
20
1.22035
11
0.687237
21
1.21775
0
LINE
8
BLACK
6
CONTINUOUS
10
0.687237
20
1.21775
11
0.689841
21
1.21601
0
LINE
8
BLACK
6
CONTINUOUS
10
0.689841
20
1.21601
11
0.689841
21
1.21601
0
LINE
8
BLACK
6
CONTINUOUS
10
0.689841
20
1.21601
11
0.692138
21
1.21555
0
LINE
8
BLACK
6
CONTINUOUS
10
0.692138
20
1.21555
11
0.692138
21
1.21555
0
LINE
8
BLACK
6
CONTINUOUS
10
0.692138
20
1.21555
11
0.714567
21
1.21555
0
LINE
8
BLACK
6
CONTINUOUS
10
0.714567
20
1.21555
11
0.714567
21
1.22343
0
LINE
8
BLACK
6
CONTINUOUS
10
0.714567
20
1.22343
11
0.692913
21
1.22343
0
LINE
8
BLACK
6
CONTINUOUS
10
0.692913
20
1.22343
11
0.692913
21
1.24508
0
LINE
8
BLACK
6
CONTINUOUS
10
0.692913
20
1.24508
11
0.685039
21
1.24508
0
LINE
8
BLACK
6
CONTINUOUS
10
0.759843
20
1.22343
11
0.738189
21
1.22343
0
LINE
8
BLACK
6
CONTINUOUS
10
0.738189
20
1.22343
11
0.738189
21
1.21555
0
LINE
8
BLACK
6
CONTINUOUS
10
0.738189
20
1.21555
11
0.760618
21
1.21555
0
LINE
8
BLACK
6
CONTINUOUS
10
0.760618
20
1.21555
11
0.760618
21
1.21555
0
LINE
8
BLACK
6
CONTINUOUS
10
0.760618
20
1.21555
11
0.762915
21
1.21601
0
LINE
8
BLACK
6
CONTINUOUS
10
0.762915
20
1.21601
11
0.762915
21
1.21601
0
LINE
8
BLACK
6
CONTINUOUS
10
0.762915
20
1.21601
11
0.765519
21
1.21775
0
LINE
8
BLACK
6
CONTINUOUS
10
0.765519
20
1.21775
11
0.76726
21
1.22035
0
LINE
8
BLACK
6
CONTINUOUS
10
0.76726
20
1.22035
11
0.76726
21
1.22035
0
LINE
8
BLACK
6
CONTINUOUS
10
0.76726
20
1.22035
11
0.767716
21
1.22265
0
LINE
8
BLACK
6
CONTINUOUS
10
0.767716
20
1.22265
11
0.767717
21
1.22265
0
LINE
8
BLACK
6
CONTINUOUS
10
0.767717
20
1.22265
11
0.767717
21
1.24508
0
LINE
8
BLACK
6
CONTINUOUS
10
0.767717
20
1.24508
11
0.759843
21
1.24508
0
LINE
8
BLACK
6
CONTINUOUS
10
0.759843
20
1.24508
11
0.759843
21
1.22343
0
LINE
8
BLACK
6
CONTINUOUS
10
0.859843
20
1.22343
11
0.838189
21
1.22343
0
LINE
8
BLACK
6
CONTINUOUS
10
0.838189
20
1.22343
11
0.838189
21
1.21555
0
LINE
8
BLACK
6
CONTINUOUS
10
0.838189
20
1.21555
11
0.860618
21
1.21555
0
LINE
8
BLACK
6
CONTINUOUS
10
0.860618
20
1.21555
11
0.860618
21
1.21555
0
LINE
8
BLACK
6
CONTINUOUS
10
0.860618
20
1.21555
11
0.862915
21
1.21601
0
LINE
8
BLACK
6
CONTINUOUS
10
0.862915
20
1.21601
11
0.862915
21
1.21601
0
LINE
8
BLACK
6
CONTINUOUS
10
0.862915
20
1.21601
11
0.865519
21
1.21775
0
LINE
8
BLACK
6
CONTINUOUS
10
0.865519
20
1.21775
11
0.86726
21
1.22035
0
LINE
8
BLACK
6
CONTINUOUS
10
0.86726
20
1.22035
11
0.86726
21
1.22035
0
LINE
8
BLACK
6
CONTINUOUS
10
0.86726
20
1.22035
11
0.867716
21
1.22265
0
LINE
8
BLACK
6
CONTINUOUS
10
0.867716
20
1.22265
11
0.867717
21
1.22265
0
LINE
8
BLACK
6
CONTINUOUS
10
0.867717
20
1.22265
11
0.867717
21
1.24508
0
LINE
8
BLACK
6
CONTINUOUS
10
0.867717
20
1.24508
11
0.859843
21
1.24508
0
LINE
8
BLACK
6
CONTINUOUS
10
0.859843
20
1.24508
11
0.859843
21
1.22343
0
LINE
8
BLACK
6
CONTINUOUS
10
0.838189
20
1.29035
11
0.859843
21
1.29035
0
LINE
8
BLACK
6
CONTINUOUS
10
0.859843
20
1.29035
11
0.859843
21
1.2687
0
LINE
8
BLACK
6
CONTINUOUS
10
0.859843
20
1.2687
11
0.867717
21
1.2687
0
LINE
8
BLACK
6
CONTINUOUS
10
0.867717
20
1.2687
11
0.867717
21
1.29113
0
LINE
8
BLACK
6
CONTINUOUS
10
0.867717
20
1.29113
11
0.867716
21
1.29113
0
LINE
8
BLACK
6
CONTINUOUS
10
0.867716
20
1.29113
11
0.86726
21
1.29343
0
LINE
8
BLACK
6
CONTINUOUS
10
0.86726
20
1.29343
11
0.86726
21
1.29343
0
LINE
8
BLACK
6
CONTINUOUS
10
0.86726
20
1.29343
11
0.865519
21
1.29603
0
LINE
8
BLACK
6
CONTINUOUS
10
0.865519
20
1.29603
11
0.862915
21
1.29777
0
LINE
8
BLACK
6
CONTINUOUS
10
0.862915
20
1.29777
11
0.862915
21
1.29777
0
LINE
8
BLACK
6
CONTINUOUS
10
0.862915
20
1.29777
11
0.860618
21
1.29823
0
LINE
8
BLACK
6
CONTINUOUS
10
0.860618
20
1.29823
11
0.838189
21
1.29823
0
LINE
8
BLACK
6
CONTINUOUS
10
0.838189
20
1.29823
11
0.838189
21
1.29035
0
LINE
8
BLACK
6
CONTINUOUS
10
0.789841
20
1.29777
11
0.789841
21
1.29777
0
LINE
8
BLACK
6
CONTINUOUS
10
0.789841
20
1.29777
11
0.787237
21
1.29603
0
LINE
8
BLACK
6
CONTINUOUS
10
0.787237
20
1.29603
11
0.785496
21
1.29343
0
LINE
8
BLACK
6
CONTINUOUS
10
0.785496
20
1.29343
11
0.785496
21
1.29343
0
LINE
8
BLACK
6
CONTINUOUS
10
0.785496
20
1.29343
11
0.785039
21
1.29113
0
LINE
8
BLACK
6
CONTINUOUS
10
0.785039
20
1.29113
11
0.785039
21
1.2687
0
LINE
8
BLACK
6
CONTINUOUS
10
0.785039
20
1.2687
11
0.792913
21
1.2687
0
LINE
8
BLACK
6
CONTINUOUS
10
0.792913
20
1.2687
11
0.792913
21
1.29035
0
LINE
8
BLACK
6
CONTINUOUS
10
0.792913
20
1.29035
11
0.814567
21
1.29035
0
LINE
8
BLACK
6
CONTINUOUS
10
0.814567
20
1.29035
11
0.814567
21
1.29823
0
LINE
8
BLACK
6
CONTINUOUS
10
0.814567
20
1.29823
11
0.792138
21
1.29823
0
LINE
8
BLACK
6
CONTINUOUS
10
0.792138
20
1.29823
11
0.789841
21
1.29777
0
LINE
8
BLACK
6
CONTINUOUS
10
0.738189
20
1.29035
11
0.759843
21
1.29035
0
LINE
8
BLACK
6
CONTINUOUS
10
0.759843
20
1.29035
11
0.759843
21
1.2687
0
LINE
8
BLACK
6
CONTINUOUS
10
0.759843
20
1.2687
11
0.767717
21
1.2687
0
LINE
8
BLACK
6
CONTINUOUS
10
0.767717
20
1.2687
11
0.767717
21
1.29113
0
LINE
8
BLACK
6
CONTINUOUS
10
0.767717
20
1.29113
11
0.767716
21
1.29113
0
LINE
8
BLACK
6
CONTINUOUS
10
0.767716
20
1.29113
11
0.76726
21
1.29343
0
LINE
8
BLACK
6
CONTINUOUS
10
0.76726
20
1.29343
11
0.76726
21
1.29343
0
LINE
8
BLACK
6
CONTINUOUS
10
0.76726
20
1.29343
11
0.765519
21
1.29603
0
LINE
8
BLACK
6
CONTINUOUS
10
0.765519
20
1.29603
11
0.762915
21
1.29777
0
LINE
8
BLACK
6
CONTINUOUS
10
0.762915
20
1.29777
11
0.762915
21
1.29777
0
LINE
8
BLACK
6
CONTINUOUS
10
0.762915
20
1.29777
11
0.760618
21
1.29823
0
LINE
8
BLACK
6
CONTINUOUS
10
0.760618
20
1.29823
11
0.738189
21
1.29823
0
LINE
8
BLACK
6
CONTINUOUS
10
0.738189
20
1.29823
11
0.738189
21
1.29035
0
LINE
8
BLACK
6
CONTINUOUS
10
0.689841
20
1.29777
11
0.689841
21
1.29777
0
LINE
8
BLACK
6
CONTINUOUS
10
0.689841
20
1.29777
11
0.687237
21
1.29603
0
LINE
8
BLACK
6
CONTINUOUS
10
0.687237
20
1.29603
11
0.685496
21
1.29343
0
LINE
8
BLACK
6
CONTINUOUS
10
0.685496
20
1.29343
11
0.685496
21
1.29343
0
LINE
8
BLACK
6
CONTINUOUS
10
0.685496
20
1.29343
11
0.685039
21
1.29113
0
LINE
8
BLACK
6
CONTINUOUS
10
0.685039
20
1.29113
11
0.685039
21
1.2687
0
LINE
8
BLACK
6
CONTINUOUS
10
0.685039
20
1.2687
11
0.692913
21
1.2687
0
LINE
8
BLACK
6
CONTINUOUS
10
0.692913
20
1.2687
11
0.692913
21
1.29035
0
LINE
8
BLACK
6
CONTINUOUS
10
0.692913
20
1.29035
11
0.714567
21
1.29035
0
LINE
8
BLACK
6
CONTINUOUS
10
0.714567
20
1.29035
11
0.714567
21
1.29823
0
LINE
8
BLACK
6
CONTINUOUS
10
0.714567
20
1.29823
11
0.692138
21
1.29823
0
LINE
8
BLACK
6
CONTINUOUS
10
0.692138
20
1.29823
11
0.689841
21
1.29777
0
LINE
8
BLACK
6
CONTINUOUS
10
0.692386
20
0.277636
11
0.692386
21
0.277636
0
LINE
8
BLACK
6
CONTINUOUS
10
0.692386
20
0.277636
11
0.694126
21
0.275032
0
LINE
8
BLACK
6
CONTINUOUS
10
0.694126
20
0.275032
11
0.696731
21
0.273292
0
LINE
8
BLACK
6
CONTINUOUS
10
0.696731
20
0.273292
11
0.696731
21
0.273291
0
LINE
8
BLACK
6
CONTINUOUS
10
0.696731
20
0.273291
11
0.699028
21
0.272835
0
LINE
8
BLACK
6
CONTINUOUS
10
0.699028
20
0.272835
11
0.699028
21
0.272835
0
LINE
8
BLACK
6
CONTINUOUS
10
0.699028
20
0.272835
11
0.721457
21
0.272835
0
LINE
8
BLACK
6
CONTINUOUS
10
0.721457
20
0.272835
11
0.721457
21
0.280709
0
LINE
8
BLACK
6
CONTINUOUS
10
0.721457
20
0.280709
11
0.699803
21
0.280709
0
LINE
8
BLACK
6
CONTINUOUS
10
0.699803
20
0.280709
11
0.699803
21
0.302362
0
LINE
8
BLACK
6
CONTINUOUS
10
0.699803
20
0.302362
11
0.691929
21
0.302362
0
LINE
8
BLACK
6
CONTINUOUS
10
0.691929
20
0.302362
11
0.691929
21
0.279933
0
LINE
8
BLACK
6
CONTINUOUS
10
0.691929
20
0.279933
11
0.692386
21
0.277636
0
LINE
8
BLACK
6
CONTINUOUS
10
0.894891
20
0.298277
11
0.898729
21
0.291096
0
LINE
8
BLACK
6
CONTINUOUS
10
0.898729
20
0.291096
11
0.89873
21
0.291096
0
LINE
8
BLACK
6
CONTINUOUS
10
0.89873
20
0.291096
11
0.903895
21
0.284801
0
LINE
8
BLACK
6
CONTINUOUS
10
0.903895
20
0.284801
11
0.91019
21
0.279635
0
LINE
8
BLACK
6
CONTINUOUS
10
0.91019
20
0.279635
11
0.91019
21
0.279635
0
LINE
8
BLACK
6
CONTINUOUS
10
0.91019
20
0.279635
11
0.917371
21
0.275797
0
LINE
8
BLACK
6
CONTINUOUS
10
0.917371
20
0.275797
11
0.917372
21
0.275797
0
LINE
8
BLACK
6
CONTINUOUS
10
0.917372
20
0.275797
11
0.921457
21
0.274557
0
LINE
8
BLACK
6
CONTINUOUS
10
0.921457
20
0.274557
11
0.921457
21
0.283001
0
LINE
8
BLACK
6
CONTINUOUS
10
0.921457
20
0.283001
11
0.916535
21
0.285192
0
LINE
8
BLACK
6
CONTINUOUS
10
0.916535
20
0.285192
11
0.910876
21
0.289304
0
LINE
8
BLACK
6
CONTINUOUS
10
0.910876
20
0.289304
11
0.906194
21
0.294503
0
LINE
8
BLACK
6
CONTINUOUS
10
0.906194
20
0.294503
11
0.902696
21
0.300562
0
LINE
8
BLACK
6
CONTINUOUS
10
0.902696
20
0.300562
11
0.902111
21
0.302362
0
LINE
8
BLACK
6
CONTINUOUS
10
0.902111
20
0.302362
11
0.893652
21
0.302362
0
LINE
8
BLACK
6
CONTINUOUS
10
0.893652
20
0.302362
11
0.894891
21
0.298277
0
LINE
8
BLACK
6
CONTINUOUS
10
0.894891
20
0.398277
11
0.898729
21
0.391096
0
LINE
8
BLACK
6
CONTINUOUS
10
0.898729
20
0.391096
11
0.89873
21
0.391096
0
LINE
8
BLACK
6
CONTINUOUS
10
0.89873
20
0.391096
11
0.903895
21
0.384801
0
LINE
8
BLACK
6
CONTINUOUS
10
0.903895
20
0.384801
11
0.91019
21
0.379635
0
LINE
8
BLACK
6
CONTINUOUS
10
0.91019
20
0.379635
11
0.91019
21
0.379635
0
LINE
8
BLACK
6
CONTINUOUS
10
0.91019
20
0.379635
11
0.917371
21
0.375797
0
LINE
8
BLACK
6
CONTINUOUS
10
0.917371
20
0.375797
11
0.917372
21
0.375797
0
LINE
8
BLACK
6
CONTINUOUS
10
0.917372
20
0.375797
11
0.921457
21
0.374557
0
LINE
8
BLACK
6
CONTINUOUS
10
0.921457
20
0.374557
11
0.921457
21
0.383001
0
LINE
8
BLACK
6
CONTINUOUS
10
0.921457
20
0.383001
11
0.916535
21
0.385192
0
LINE
8
BLACK
6
CONTINUOUS
10
0.916535
20
0.385192
11
0.910876
21
0.389304
0
LINE
8
BLACK
6
CONTINUOUS
10
0.910876
20
0.389304
11
0.906194
21
0.394503
0
LINE
8
BLACK
6
CONTINUOUS
10
0.906194
20
0.394503
11
0.902696
21
0.400562
0
LINE
8
BLACK
6
CONTINUOUS
10
0.902696
20
0.400562
11
0.902111
21
0.402362
0
LINE
8
BLACK
6
CONTINUOUS
10
0.902111
20
0.402362
11
0.893652
21
0.402362
0
LINE
8
BLACK
6
CONTINUOUS
10
0.893652
20
0.402362
11
0.894891
21
0.398277
0
LINE
8
BLACK
6
CONTINUOUS
10
0.894891
20
0.498277
11
0.898729
21
0.491096
0
LINE
8
BLACK
6
CONTINUOUS
10
0.898729
20
0.491096
11
0.89873
21
0.491096
0
LINE
8
BLACK
6
CONTINUOUS
10
0.89873
20
0.491096
11
0.903895
21
0.484801
0
LINE
8
BLACK
6
CONTINUOUS
10
0.903895
20
0.484801
11
0.91019
21
0.479635
0
LINE
8
BLACK
6
CONTINUOUS
10
0.91019
20
0.479635
11
0.91019
21
0.479635
0
LINE
8
BLACK
6
CONTINUOUS
10
0.91019
20
0.479635
11
0.917371
21
0.475797
0
LINE
8
BLACK
6
CONTINUOUS
10
0.917371
20
0.475797
11
0.917372
21
0.475797
0
LINE
8
BLACK
6
CONTINUOUS
10
0.917372
20
0.475797
11
0.921457
21
0.474557
0
LINE
8
BLACK
6
CONTINUOUS
10
0.921457
20
0.474557
11
0.921457
21
0.483001
0
LINE
8
BLACK
6
CONTINUOUS
10
0.921457
20
0.483001
11
0.916535
21
0.485192
0
LINE
8
BLACK
6
CONTINUOUS
10
0.916535
20
0.485192
11
0.910876
21
0.489304
0
LINE
8
BLACK
6
CONTINUOUS
10
0.910876
20
0.489304
11
0.906194
21
0.494503
0
LINE
8
BLACK
6
CONTINUOUS
10
0.906194
20
0.494503
11
0.902696
21
0.500562
0
LINE
8
BLACK
6
CONTINUOUS
10
0.902696
20
0.500562
11
0.902111
21
0.502362
0
LINE
8
BLACK
6
CONTINUOUS
10
0.902111
20
0.502362
11
0.893652
21
0.502362
0
LINE
8
BLACK
6
CONTINUOUS
10
0.893652
20
0.502362
11
0.894891
21
0.498277
0
LINE
8
BLACK
6
CONTINUOUS
10
0.694891
20
0.598277
11
0.698729
21
0.591096
0
LINE
8
BLACK
6
CONTINUOUS
10
0.698729
20
0.591096
11
0.69873
21
0.591096
0
LINE
8
BLACK
6
CONTINUOUS
10
0.69873
20
0.591096
11
0.703895
21
0.584801
0
LINE
8
BLACK
6
CONTINUOUS
10
0.703895
20
0.584801
11
0.71019
21
0.579635
0
LINE
8
BLACK
6
CONTINUOUS
10
0.71019
20
0.579635
11
0.71019
21
0.579635
0
LINE
8
BLACK
6
CONTINUOUS
10
0.71019
20
0.579635
11
0.717371
21
0.575797
0
LINE
8
BLACK
6
CONTINUOUS
10
0.717371
20
0.575797
11
0.717372
21
0.575797
0
LINE
8
BLACK
6
CONTINUOUS
10
0.717372
20
0.575797
11
0.721457
21
0.574557
0
LINE
8
BLACK
6
CONTINUOUS
10
0.721457
20
0.574557
11
0.721457
21
0.583001
0
LINE
8
BLACK
6
CONTINUOUS
10
0.721457
20
0.583001
11
0.716535
21
0.585192
0
LINE
8
BLACK
6
CONTINUOUS
10
0.716535
20
0.585192
11
0.710876
21
0.589304
0
LINE
8
BLACK
6
CONTINUOUS
10
0.710876
20
0.589304
11
0.706194
21
0.594503
0
LINE
8
BLACK
6
CONTINUOUS
10
0.706194
20
0.594503
11
0.702696
21
0.600562
0
LINE
8
BLACK
6
CONTINUOUS
10
0.702696
20
0.600562
11
0.702111
21
0.602362
0
LINE
8
BLACK
6
CONTINUOUS
10
0.702111
20
0.602362
11
0.693652
21
0.602362
0
LINE
8
BLACK
6
CONTINUOUS
10
0.693652
20
0.602362
11
0.694891
21
0.598277
0
LINE
8
BLACK
6
CONTINUOUS
10
0.894891
20
0.598277
11
0.898729
21
0.591096
0
LINE
8
BLACK
6
CONTINUOUS
10
0.898729
20
0.591096
11
0.89873
21
0.591096
0
LINE
8
BLACK
6
CONTINUOUS
10
0.89873
20
0.591096
11
0.903895
21
0.584801
0
LINE
8
BLACK
6
CONTINUOUS
10
0.903895
20
0.584801
11
0.91019
21
0.579635
0
LINE
8
BLACK
6
CONTINUOUS
10
0.91019
20
0.579635
11
0.91019
21
0.579635
0
LINE
8
BLACK
6
CONTINUOUS
10
0.91019
20
0.579635
11
0.917371
21
0.575797
0
LINE
8
BLACK
6
CONTINUOUS
10
0.917371
20
0.575797
11
0.917372
21
0.575797
0
LINE
8
BLACK
6
CONTINUOUS
10
0.917372
20
0.575797
11
0.921457
21
0.574557
0
LINE
8
BLACK
6
CONTINUOUS
10
0.921457
20
0.574557
11
0.921457
21
0.583001
0
LINE
8
BLACK
6
CONTINUOUS
10
0.921457
20
0.583001
11
0.916535
21
0.585192
0
LINE
8
BLACK
6
CONTINUOUS
10
0.916535
20
0.585192
11
0.910876
21
0.589304
0
LINE
8
BLACK
6
CONTINUOUS
10
0.910876
20
0.589304
11
0.906194
21
0.594503
0
LINE
8
BLACK
6
CONTINUOUS
10
0.906194
20
0.594503
11
0.902696
21
0.600562
0
LINE
8
BLACK
6
CONTINUOUS
10
0.902696
20
0.600562
11
0.902111
21
0.602362
0
LINE
8
BLACK
6
CONTINUOUS
10
0.902111
20
0.602362
11
0.893652
21
0.602362
0
LINE
8
BLACK
6
CONTINUOUS
10
0.893652
20
0.602362
11
0.894891
21
0.598277
0
LINE
8
BLACK
6
CONTINUOUS
10
0.275009
20
0.695127
11
0.278848
21
0.687946
0
LINE
8
BLACK
6
CONTINUOUS
10
0.278848
20
0.687946
11
0.278848
21
0.687946
0
LINE
8
BLACK
6
CONTINUOUS
10
0.278848
20
0.687946
11
0.284014
21
0.681651
0
LINE
8
BLACK
6
CONTINUOUS
10
0.284014
20
0.681651
11
0.290308
21
0.676486
0
LINE
8
BLACK
6
CONTINUOUS
10
0.290308
20
0.676486
11
0.290308
21
0.676485
0
LINE
8
BLACK
6
CONTINUOUS
10
0.290308
20
0.676485
11
0.29749
21
0.672647
0
LINE
8
BLACK
6
CONTINUOUS
10
0.29749
20
0.672647
11
0.29749
21
0.672647
0
LINE
8
BLACK
6
CONTINUOUS
10
0.29749
20
0.672647
11
0.301575
21
0.671408
0
LINE
8
BLACK
6
CONTINUOUS
10
0.301575
20
0.671408
11
0.301575
21
0.679851
0
LINE
8
BLACK
6
CONTINUOUS
10
0.301575
20
0.679851
11
0.296654
21
0.682042
0
LINE
8
BLACK
6
CONTINUOUS
10
0.296654
20
0.682042
11
0.290994
21
0.686155
0
LINE
8
BLACK
6
CONTINUOUS
10
0.290994
20
0.686155
11
0.286312
21
0.691354
0
LINE
8
BLACK
6
CONTINUOUS
10
0.286312
20
0.691354
11
0.282814
21
0.697412
0
LINE
8
BLACK
6
CONTINUOUS
10
0.282814
20
0.697412
11
0.282229
21
0.699213
0
LINE
8
BLACK
6
CONTINUOUS
10
0.282229
20
0.699213
11
0.27377
21
0.699213
0
LINE
8
BLACK
6
CONTINUOUS
10
0.27377
20
0.699213
11
0.275009
21
0.695127
0
LINE
8
BLACK
6
CONTINUOUS
10
0.375009
20
0.695127
11
0.378848
21
0.687946
0
LINE
8
BLACK
6
CONTINUOUS
10
0.378848
20
0.687946
11
0.378848
21
0.687946
0
LINE
8
BLACK
6
CONTINUOUS
10
0.378848
20
0.687946
11
0.384014
21
0.681651
0
LINE
8
BLACK
6
CONTINUOUS
10
0.384014
20
0.681651
11
0.390308
21
0.676486
0
LINE
8
BLACK
6
CONTINUOUS
10
0.390308
20
0.676486
11
0.390308
21
0.676485
0
LINE
8
BLACK
6
CONTINUOUS
10
0.390308
20
0.676485
11
0.39749
21
0.672647
0
LINE
8
BLACK
6
CONTINUOUS
10
0.39749
20
0.672647
11
0.39749
21
0.672647
0
LINE
8
BLACK
6
CONTINUOUS
10
0.39749
20
0.672647
11
0.401575
21
0.671408
0
LINE
8
BLACK
6
CONTINUOUS
10
0.401575
20
0.671408
11
0.401575
21
0.679851
0
LINE
8
BLACK
6
CONTINUOUS
10
0.401575
20
0.679851
11
0.396654
21
0.682042
0
LINE
8
BLACK
6
CONTINUOUS
10
0.396654
20
0.682042
11
0.390994
21
0.686155
0
LINE
8
BLACK
6
CONTINUOUS
10
0.390994
20
0.686155
11
0.386312
21
0.691354
0
LINE
8
BLACK
6
CONTINUOUS
10
0.386312
20
0.691354
11
0.382814
21
0.697412
0
LINE
8
BLACK
6
CONTINUOUS
10
0.382814
20
0.697412
11
0.382229
21
0.699213
0
LINE
8
BLACK
6
CONTINUOUS
10
0.382229
20
0.699213
11
0.37377
21
0.699213
0
LINE
8
BLACK
6
CONTINUOUS
10
0.37377
20
0.699213
11
0.375009
21
0.695127
0
LINE
8
BLACK
6
CONTINUOUS
10
0.272504
20
0.874487
11
0.272504
21
0.874487
0
LINE
8
BLACK
6
CONTINUOUS
10
0.272504
20
0.874487
11
0.274244
21
0.871882
0
LINE
8
BLACK
6
CONTINUOUS
10
0.274244
20
0.871882
11
0.276849
21
0.870142
0
LINE
8
BLACK
6
CONTINUOUS
10
0.276849
20
0.870142
11
0.276849
21
0.870142
0
LINE
8
BLACK
6
CONTINUOUS
10
0.276849
20
0.870142
11
0.279146
21
0.869685
0
LINE
8
BLACK
6
CONTINUOUS
10
0.279146
20
0.869685
11
0.279146
21
0.869685
0
LINE
8
BLACK
6
CONTINUOUS
10
0.279146
20
0.869685
11
0.301575
21
0.869685
0
LINE
8
BLACK
6
CONTINUOUS
10
0.301575
20
0.869685
11
0.301575
21
0.877559
0
LINE
8
BLACK
6
CONTINUOUS
10
0.301575
20
0.877559
11
0.279921
21
0.877559
0
LINE
8
BLACK
6
CONTINUOUS
10
0.279921
20
0.877559
11
0.279921
21
0.899213
0
LINE
8
BLACK
6
CONTINUOUS
10
0.279921
20
0.899213
11
0.272047
21
0.899213
0
LINE
8
BLACK
6
CONTINUOUS
10
0.272047
20
0.899213
11
0.272047
21
0.876784
0
LINE
8
BLACK
6
CONTINUOUS
10
0.272047
20
0.876784
11
0.272504
21
0.874487
0
LINE
8
BLACK
6
CONTINUOUS
10
0.375009
20
0.895127
11
0.378848
21
0.887946
0
LINE
8
BLACK
6
CONTINUOUS
10
0.378848
20
0.887946
11
0.378848
21
0.887946
0
LINE
8
BLACK
6
CONTINUOUS
10
0.378848
20
0.887946
11
0.384014
21
0.881651
0
LINE
8
BLACK
6
CONTINUOUS
10
0.384014
20
0.881651
11
0.390308
21
0.876486
0
LINE
8
BLACK
6
CONTINUOUS
10
0.390308
20
0.876486
11
0.390308
21
0.876485
0
LINE
8
BLACK
6
CONTINUOUS
10
0.390308
20
0.876485
11
0.39749
21
0.872647
0
LINE
8
BLACK
6
CONTINUOUS
10
0.39749
20
0.872647
11
0.39749
21
0.872647
0
LINE
8
BLACK
6
CONTINUOUS
10
0.39749
20
0.872647
11
0.401575
21
0.871408
0
LINE
8
BLACK
6
CONTINUOUS
10
0.401575
20
0.871408
11
0.401575
21
0.879851
0
LINE
8
BLACK
6
CONTINUOUS
10
0.401575
20
0.879851
11
0.396654
21
0.882042
0
LINE
8
BLACK
6
CONTINUOUS
10
0.396654
20
0.882042
11
0.390994
21
0.886155
0
LINE
8
BLACK
6
CONTINUOUS
10
0.390994
20
0.886155
11
0.386312
21
0.891354
0
LINE
8
BLACK
6
CONTINUOUS
10
0.386312
20
0.891354
11
0.382814
21
0.897412
0
LINE
8
BLACK
6
CONTINUOUS
10
0.382814
20
0.897412
11
0.382229
21
0.899213
0
LINE
8
BLACK
6
CONTINUOUS
10
0.382229
20
0.899213
11
0.37377
21
0.899213
0
LINE
8
BLACK
6
CONTINUOUS
10
0.37377
20
0.899213
11
0.375009
21
0.895127
0
LINE
8
BLACK
6
CONTINUOUS
10
0.785496
20
1.22035
11
0.785496
21
1.22035
0
LINE
8
BLACK
6
CONTINUOUS
10
0.785496
20
1.22035
11
0.787237
21
1.21775
0
LINE
8
BLACK
6
CONTINUOUS
10
0.787237
20
1.21775
11
0.789841
21
1.21601
0
LINE
8
BLACK
6
CONTINUOUS
10
0.789841
20
1.21601
11
0.789841
21
1.21601
0
LINE
8
BLACK
6
CONTINUOUS
10
0.789841
20
1.21601
11
0.792138
21
1.21555
0
LINE
8
BLACK
6
CONTINUOUS
10
0.792138
20
1.21555
11
0.792138
21
1.21555
0
LINE
8
BLACK
6
CONTINUOUS
10
0.792138
20
1.21555
11
0.814567
21
1.21555
0
LINE
8
BLACK
6
CONTINUOUS
10
0.814567
20
1.21555
11
0.814567
21
1.22343
0
LINE
8
BLACK
6
CONTINUOUS
10
0.814567
20
1.22343
11
0.792913
21
1.22343
0
LINE
8
BLACK
6
CONTINUOUS
10
0.792913
20
1.22343
11
0.792913
21
1.24508
0
LINE
8
BLACK
6
CONTINUOUS
10
0.792913
20
1.24508
11
0.785039
21
1.24508
0
LINE
8
BLACK
6
CONTINUOUS
10
0.785039
20
1.24508
11
0.785039
21
1.22265
0
LINE
8
BLACK
6
CONTINUOUS
10
0.785039
20
1.22265
11
0.785496
21
1.22035
0
CIRCLE
8
BLACK
10
1.20866
20
0.931102
40
0.00688976
0
CIRCLE
8
BLACK
10
1.20866
20
0.831102
40
0.00688976
0
CIRCLE
8
BLACK
10
1.20866
20
0.731102
40
0.00688976
0
CIRCLE
8
BLACK
10
0.313386
20
0.911024
40
0.00688976
0
CIRCLE
8
BLACK
10
0.413386
20
0.911024
40
0.00688976
0
CIRCLE
8
BLACK
10
0.313386
20
0.811024
40
0.00688976
0
CIRCLE
8
BLACK
10
0.413386
20
0.811024
40
0.00688976
0
CIRCLE
8
BLACK
10
0.313386
20
0.711024
40
0.00688976
0
CIRCLE
8
BLACK
10
0.413386
20
0.711024
40
0.00688976
0
CIRCLE
8
BLACK
10
0.4
20
0.4
40
0.00688976
0
CIRCLE
8
BLACK
10
1.2
20
0.4
40
0.00688976
0
CIRCLE
8
BLACK
10
0.726378
20
1.25689
40
0.00688976
0
CIRCLE
8
BLACK
10
0.726378
20
1.15689
40
0.00688976
0
CIRCLE
8
BLACK
10
1.2
20
1.2
40
0.00688976
0
CIRCLE
8
BLACK
10
0.733268
20
0.314173
40
0.00688976
0
CIRCLE
8
BLACK
10
0.733268
20
0.414173
40
0.00688976
0
CIRCLE
8
BLACK
10
0.833268
20
0.314173
40
0.00688976
0
CIRCLE
8
BLACK
10
0.833268
20
0.414173
40
0.00688976
0
CIRCLE
8
BLACK
10
0.933268
20
0.314173
40
0.00688976
0
CIRCLE
8
BLACK
10
0.933268
20
0.414173
40
0.00688976
0
CIRCLE
8
BLACK
10
0.826378
20
1.25689
40
0.00688976
0
CIRCLE
8
BLACK
10
0.826378
20
1.15689
40
0.00688976
0
CIRCLE
8
BLACK
10
0.4
20
1.2
40
0.00688976
0
CIRCLE
8
BLACK
10
0.733268
20
0.514173
40
0.00688976
0
CIRCLE
8
BLACK
10
0.733268
20
0.614173
40
0.00688976
0
CIRCLE
8
BLACK
10
0.833268
20
0.514173
40
0.00688976
0
CIRCLE
8
BLACK
10
0.833268
20
0.614173
40
0.00688976
0
CIRCLE
8
BLACK
10
0.933268
20
0.514173
40
0.00688976
0
CIRCLE
8
BLACK
10
0.933268
20
0.614173
40
0.00688976
0
CIRCLE
8
BLACK
10
0.590551
20
0.744094
40
0.00787402
0
CIRCLE
8
BLACK
10
0.700787
20
0.976378
40
0.00787402
0
CIRCLE
8
BLACK
10
0.838583
20
0.992126
40
0.00787402
0
CIRCLE
8
BLACK
10
0.661417
20
0.976378
40
0.00787402
0
CIRCLE
8
BLACK
10
0.874016
20
0.992126
40
0.00787402
0
CIRCLE
8
BLACK
10
0.965551
20
0.893701
40
0.00787402
  0
ENDSEC
  0
EOF
