  0
SECTION
  2
HEADER
  9
$ANGBASE
  50
0.0
  9
$ANGDIR
  70
1
  9
$MEASUREMENT
  70
0
  0
ENDSEC
  0
SECTION
  2
TABLES
  0
TABLE
  2
LTYPE
  70
4
  0
LTYPE
  5
40F
  2
CONTINUOUS
  70
0
  3
Solid line
  72
65
  73
0
  40
0.0
  0
LTYPE
  5
410
  2
DASHDOT
 70
0
  3
Dash Dot ____ _ ____ _
 72
65
 73
4
 40
2.0
 49
1.25
 49
-0.25
 49
0.25
 49
-0.25
  0
LTYPE
  5
411
  2
DASHED
 70
0
  3
Dashed __ __ __ __ __
 72
65
 73
2
 40
0.75
 49
0.5
 49
-0.25
  0
LTYPE
  5
43B
  2
DOTTED
 70
0
  3
Dotted .  .  .  .
 72
65
 73
2
 40
0.2
 49
0.0
 49
-0.2
  0
ENDTAB
  0
TABLE
  2
STYLE
  70
4
  0
STYLE
  2
KICAD
  70
0
  40
0
  41
1
  42
1
  50
0
  71
0
  3
isocp.shx
  0
STYLE
  2
KICADB
  70
0
  40
0
  41
1
  42
1
  50
0
  71
0
  3
isocp.shx
  0
STYLE
  2
KICADI
  70
0
  40
0
  41
1
  42
1
  50
15
  71
0
  3
isocp.shx
  0
STYLE
  2
KICADBI
  70
0
  40
0
  41
1
  42
1
  50
15
  71
0
  3
isocp.shx
  0
ENDTAB
  0
TABLE
  2
LAYER
  70
1
  0
LAYER
  2
BLACK
  70
0
  62
7
  6
CONTINUOUS
  0
ENDTAB
  0
ENDSEC
  0
SECTION
  2
ENTITIES
0
LINE
8
BLACK
6
CONTINUOUS
10
5.56621
20
-3.36744
11
5.5694
21
-3.36958
0
LINE
8
BLACK
6
CONTINUOUS
10
5.5694
20
-3.36958
11
5.57153
21
-3.37277
0
LINE
8
BLACK
6
CONTINUOUS
10
5.57153
20
-3.37277
11
5.57228
21
-3.37654
0
LINE
8
BLACK
6
CONTINUOUS
10
5.57228
20
-3.37654
11
5.57228
21
-3.44346
0
LINE
8
BLACK
6
CONTINUOUS
10
5.57228
20
-3.44346
11
5.57153
21
-3.44723
0
LINE
8
BLACK
6
CONTINUOUS
10
5.57153
20
-3.44723
11
5.5694
21
-3.45042
0
LINE
8
BLACK
6
CONTINUOUS
10
5.5694
20
-3.45042
11
5.56621
21
-3.45256
0
LINE
8
BLACK
6
CONTINUOUS
10
5.56621
20
-3.45256
11
5.56244
21
-3.45331
0
LINE
8
BLACK
6
CONTINUOUS
10
5.56244
20
-3.45331
11
5.53291
21
-3.45331
0
LINE
8
BLACK
6
CONTINUOUS
10
5.53291
20
-3.45331
11
5.52915
21
-3.45256
0
LINE
8
BLACK
6
CONTINUOUS
10
5.52915
20
-3.45256
11
5.52595
21
-3.45042
0
LINE
8
BLACK
6
CONTINUOUS
10
5.52595
20
-3.45042
11
5.52382
21
-3.44723
0
LINE
8
BLACK
6
CONTINUOUS
10
5.52382
20
-3.44723
11
5.52307
21
-3.44346
0
LINE
8
BLACK
6
CONTINUOUS
10
5.52307
20
-3.44346
11
5.52307
21
-3.37654
0
LINE
8
BLACK
6
CONTINUOUS
10
5.52307
20
-3.37654
11
5.52382
21
-3.37277
0
LINE
8
BLACK
6
CONTINUOUS
10
5.52382
20
-3.37277
11
5.52595
21
-3.36958
0
LINE
8
BLACK
6
CONTINUOUS
10
5.52595
20
-3.36958
11
5.52915
21
-3.36744
0
LINE
8
BLACK
6
CONTINUOUS
10
5.52915
20
-3.36744
11
5.53291
21
-3.36669
0
LINE
8
BLACK
6
CONTINUOUS
10
5.53291
20
-3.36669
11
5.56244
21
-3.36669
0
LINE
8
BLACK
6
CONTINUOUS
10
5.56244
20
-3.36669
11
5.56621
21
-3.36744
0
LINE
8
BLACK
6
CONTINUOUS
10
5.65085
20
-3.36744
11
5.65405
21
-3.36958
0
LINE
8
BLACK
6
CONTINUOUS
10
5.65405
20
-3.36958
11
5.65618
21
-3.37277
0
LINE
8
BLACK
6
CONTINUOUS
10
5.65618
20
-3.37277
11
5.65693
21
-3.37654
0
LINE
8
BLACK
6
CONTINUOUS
10
5.65693
20
-3.37654
11
5.65693
21
-3.44346
0
LINE
8
BLACK
6
CONTINUOUS
10
5.65693
20
-3.44346
11
5.65618
21
-3.44723
0
LINE
8
BLACK
6
CONTINUOUS
10
5.65618
20
-3.44723
11
5.65405
21
-3.45042
0
LINE
8
BLACK
6
CONTINUOUS
10
5.65405
20
-3.45042
11
5.65085
21
-3.45256
0
LINE
8
BLACK
6
CONTINUOUS
10
5.65085
20
-3.45256
11
5.64709
21
-3.45331
0
LINE
8
BLACK
6
CONTINUOUS
10
5.64709
20
-3.45331
11
5.61756
21
-3.45331
0
LINE
8
BLACK
6
CONTINUOUS
10
5.61756
20
-3.45331
11
5.61379
21
-3.45256
0
LINE
8
BLACK
6
CONTINUOUS
10
5.61379
20
-3.45256
11
5.6106
21
-3.45042
0
LINE
8
BLACK
6
CONTINUOUS
10
5.6106
20
-3.45042
11
5.60847
21
-3.44723
0
LINE
8
BLACK
6
CONTINUOUS
10
5.60847
20
-3.44723
11
5.60772
21
-3.44346
0
LINE
8
BLACK
6
CONTINUOUS
10
5.60772
20
-3.44346
11
5.60772
21
-3.37654
0
LINE
8
BLACK
6
CONTINUOUS
10
5.60772
20
-3.37654
11
5.60847
21
-3.37277
0
LINE
8
BLACK
6
CONTINUOUS
10
5.60847
20
-3.37277
11
5.6106
21
-3.36958
0
LINE
8
BLACK
6
CONTINUOUS
10
5.6106
20
-3.36958
11
5.61379
21
-3.36744
0
LINE
8
BLACK
6
CONTINUOUS
10
5.61379
20
-3.36744
11
5.61756
21
-3.36669
0
LINE
8
BLACK
6
CONTINUOUS
10
5.61756
20
-3.36669
11
5.64709
21
-3.36669
0
LINE
8
BLACK
6
CONTINUOUS
10
5.64709
20
-3.36669
11
5.65085
21
-3.36744
0
LINE
8
BLACK
6
CONTINUOUS
10
5.5175
20
-3.345
11
5.4625
21
-3.345
0
LINE
8
BLACK
6
CONTINUOUS
10
5.4625
20
-3.345
11
5.4625
21
-3.31
0
LINE
8
BLACK
6
CONTINUOUS
10
5.4625
20
-3.31
11
5.5175
21
-3.31
0
LINE
8
BLACK
6
CONTINUOUS
10
5.5175
20
-3.31
11
5.5175
21
-3.345
0
LINE
8
BLACK
6
CONTINUOUS
10
5.7175
20
-3.345
11
5.6625
21
-3.345
0
LINE
8
BLACK
6
CONTINUOUS
10
5.6625
20
-3.345
11
5.6625
21
-3.31
0
LINE
8
BLACK
6
CONTINUOUS
10
5.6625
20
-3.31
11
5.7175
21
-3.31
0
LINE
8
BLACK
6
CONTINUOUS
10
5.7175
20
-3.31
11
5.7175
21
-3.345
0
LINE
8
BLACK
6
CONTINUOUS
10
5.7975
20
-3.345
11
5.7425
21
-3.345
0
LINE
8
BLACK
6
CONTINUOUS
10
5.7425
20
-3.345
11
5.7425
21
-3.31
0
LINE
8
BLACK
6
CONTINUOUS
10
5.7425
20
-3.31
11
5.7975
21
-3.31
0
LINE
8
BLACK
6
CONTINUOUS
10
5.7975
20
-3.31
11
5.7975
21
-3.345
0
LINE
8
BLACK
6
CONTINUOUS
10
5.56638
20
-3.34234
11
5.55457
21
-3.34234
0
LINE
8
BLACK
6
CONTINUOUS
10
5.55457
20
-3.34234
11
5.55457
21
-3.32364
0
LINE
8
BLACK
6
CONTINUOUS
10
5.55457
20
-3.32364
11
5.56638
21
-3.32364
0
LINE
8
BLACK
6
CONTINUOUS
10
5.56638
20
-3.32364
11
5.56638
21
-3.34234
0
LINE
8
BLACK
6
CONTINUOUS
10
5.58606
20
-3.34234
11
5.57425
21
-3.34234
0
LINE
8
BLACK
6
CONTINUOUS
10
5.57425
20
-3.34234
11
5.57425
21
-3.32364
0
LINE
8
BLACK
6
CONTINUOUS
10
5.57425
20
-3.32364
11
5.58606
21
-3.32364
0
LINE
8
BLACK
6
CONTINUOUS
10
5.58606
20
-3.32364
11
5.58606
21
-3.34234
0
LINE
8
BLACK
6
CONTINUOUS
10
5.60575
20
-3.34234
11
5.59394
21
-3.34234
0
LINE
8
BLACK
6
CONTINUOUS
10
5.59394
20
-3.34234
11
5.59394
21
-3.32364
0
LINE
8
BLACK
6
CONTINUOUS
10
5.59394
20
-3.32364
11
5.60575
21
-3.32364
0
LINE
8
BLACK
6
CONTINUOUS
10
5.60575
20
-3.32364
11
5.60575
21
-3.34234
0
LINE
8
BLACK
6
CONTINUOUS
10
5.62543
20
-3.34234
11
5.61362
21
-3.34234
0
LINE
8
BLACK
6
CONTINUOUS
10
5.61362
20
-3.34234
11
5.61362
21
-3.32364
0
LINE
8
BLACK
6
CONTINUOUS
10
5.61362
20
-3.32364
11
5.62543
21
-3.32364
0
LINE
8
BLACK
6
CONTINUOUS
10
5.62543
20
-3.32364
11
5.62543
21
-3.34234
0
LINE
8
BLACK
6
CONTINUOUS
10
5.56638
20
-3.27636
11
5.55457
21
-3.27636
0
LINE
8
BLACK
6
CONTINUOUS
10
5.55457
20
-3.27636
11
5.55457
21
-3.25766
0
LINE
8
BLACK
6
CONTINUOUS
10
5.55457
20
-3.25766
11
5.56638
21
-3.25766
0
LINE
8
BLACK
6
CONTINUOUS
10
5.56638
20
-3.25766
11
5.56638
21
-3.27636
0
LINE
8
BLACK
6
CONTINUOUS
10
5.58606
20
-3.27636
11
5.57425
21
-3.27636
0
LINE
8
BLACK
6
CONTINUOUS
10
5.57425
20
-3.27636
11
5.57425
21
-3.25766
0
LINE
8
BLACK
6
CONTINUOUS
10
5.57425
20
-3.25766
11
5.58606
21
-3.25766
0
LINE
8
BLACK
6
CONTINUOUS
10
5.58606
20
-3.25766
11
5.58606
21
-3.27636
0
LINE
8
BLACK
6
CONTINUOUS
10
5.60575
20
-3.27636
11
5.59394
21
-3.27636
0
LINE
8
BLACK
6
CONTINUOUS
10
5.59394
20
-3.27636
11
5.59394
21
-3.25766
0
LINE
8
BLACK
6
CONTINUOUS
10
5.59394
20
-3.25766
11
5.60575
21
-3.25766
0
LINE
8
BLACK
6
CONTINUOUS
10
5.60575
20
-3.25766
11
5.60575
21
-3.27636
0
LINE
8
BLACK
6
CONTINUOUS
10
5.62543
20
-3.27636
11
5.61362
21
-3.27636
0
LINE
8
BLACK
6
CONTINUOUS
10
5.61362
20
-3.27636
11
5.61362
21
-3.25766
0
LINE
8
BLACK
6
CONTINUOUS
10
5.61362
20
-3.25766
11
5.62543
21
-3.25766
0
LINE
8
BLACK
6
CONTINUOUS
10
5.62543
20
-3.25766
11
5.62543
21
-3.27636
0
LINE
8
BLACK
6
CONTINUOUS
10
5.5175
20
-3.27
11
5.4625
21
-3.27
0
LINE
8
BLACK
6
CONTINUOUS
10
5.4625
20
-3.27
11
5.4625
21
-3.235
0
LINE
8
BLACK
6
CONTINUOUS
10
5.4625
20
-3.235
11
5.5175
21
-3.235
0
LINE
8
BLACK
6
CONTINUOUS
10
5.5175
20
-3.235
11
5.5175
21
-3.27
0
LINE
8
BLACK
6
CONTINUOUS
10
5.7175
20
-3.27
11
5.6625
21
-3.27
0
LINE
8
BLACK
6
CONTINUOUS
10
5.6625
20
-3.27
11
5.6625
21
-3.235
0
LINE
8
BLACK
6
CONTINUOUS
10
5.6625
20
-3.235
11
5.7175
21
-3.235
0
LINE
8
BLACK
6
CONTINUOUS
10
5.7175
20
-3.235
11
5.7175
21
-3.27
0
LINE
8
BLACK
6
CONTINUOUS
10
5.7975
20
-3.27
11
5.7425
21
-3.27
0
LINE
8
BLACK
6
CONTINUOUS
10
5.7425
20
-3.27
11
5.7425
21
-3.235
0
LINE
8
BLACK
6
CONTINUOUS
10
5.7425
20
-3.235
11
5.7975
21
-3.235
0
LINE
8
BLACK
6
CONTINUOUS
10
5.7975
20
-3.235
11
5.7975
21
-3.27
0
LINE
8
BLACK
6
CONTINUOUS
10
5.6475
20
-3.185
11
5.5925
21
-3.185
0
LINE
8
BLACK
6
CONTINUOUS
10
5.5925
20
-3.185
11
5.5925
21
-3.15
0
LINE
8
BLACK
6
CONTINUOUS
10
5.5925
20
-3.15
11
5.6475
21
-3.15
0
LINE
8
BLACK
6
CONTINUOUS
10
5.6475
20
-3.15
11
5.6475
21
-3.185
0
LINE
8
BLACK
6
CONTINUOUS
10
5.71
20
-3.1375
11
5.675
21
-3.1375
0
LINE
8
BLACK
6
CONTINUOUS
10
5.675
20
-3.1375
11
5.675
21
-3.0825
0
LINE
8
BLACK
6
CONTINUOUS
10
5.675
20
-3.0825
11
5.71
21
-3.0825
0
LINE
8
BLACK
6
CONTINUOUS
10
5.71
20
-3.0825
11
5.71
21
-3.1375
0
LINE
8
BLACK
6
CONTINUOUS
10
5.785
20
-3.1375
11
5.75
21
-3.1375
0
LINE
8
BLACK
6
CONTINUOUS
10
5.75
20
-3.1375
11
5.75
21
-3.0825
0
LINE
8
BLACK
6
CONTINUOUS
10
5.75
20
-3.0825
11
5.785
21
-3.0825
0
LINE
8
BLACK
6
CONTINUOUS
10
5.785
20
-3.0825
11
5.785
21
-3.1375
0
LINE
8
BLACK
6
CONTINUOUS
10
5.85
20
-3.1375
11
5.815
21
-3.1375
0
LINE
8
BLACK
6
CONTINUOUS
10
5.815
20
-3.1375
11
5.815
21
-3.0825
0
LINE
8
BLACK
6
CONTINUOUS
10
5.815
20
-3.0825
11
5.85
21
-3.0825
0
LINE
8
BLACK
6
CONTINUOUS
10
5.85
20
-3.0825
11
5.85
21
-3.1375
0
LINE
8
BLACK
6
CONTINUOUS
10
5.925
20
-3.1375
11
5.89
21
-3.1375
0
LINE
8
BLACK
6
CONTINUOUS
10
5.89
20
-3.1375
11
5.89
21
-3.0825
0
LINE
8
BLACK
6
CONTINUOUS
10
5.89
20
-3.0825
11
5.925
21
-3.0825
0
LINE
8
BLACK
6
CONTINUOUS
10
5.925
20
-3.0825
11
5.925
21
-3.1375
0
LINE
8
BLACK
6
CONTINUOUS
10
5.6475
20
-3.11
11
5.5925
21
-3.11
0
LINE
8
BLACK
6
CONTINUOUS
10
5.5925
20
-3.11
11
5.5925
21
-3.075
0
LINE
8
BLACK
6
CONTINUOUS
10
5.5925
20
-3.075
11
5.6475
21
-3.075
0
LINE
8
BLACK
6
CONTINUOUS
10
5.6475
20
-3.075
11
5.6475
21
-3.11
  0
ENDSEC
  0
EOF
