  0
SECTION
  2
HEADER
  9
$ANGBASE
  50
0.0
  9
$ANGDIR
  70
1
  9
$MEASUREMENT
  70
0
  0
ENDSEC
  0
SECTION
  2
TABLES
  0
TABLE
  2
LTYPE
  70
4
  0
LTYPE
  5
40F
  2
CONTINUOUS
  70
0
  3
Solid line
  72
65
  73
0
  40
0.0
  0
LTYPE
  5
410
  2
DASHDOT
 70
0
  3
Dash Dot ____ _ ____ _
 72
65
 73
4
 40
2.0
 49
1.25
 49
-0.25
 49
0.25
 49
-0.25
  0
LTYPE
  5
411
  2
DASHED
 70
0
  3
Dashed __ __ __ __ __
 72
65
 73
2
 40
0.75
 49
0.5
 49
-0.25
  0
LTYPE
  5
43B
  2
DOTTED
 70
0
  3
Dotted .  .  .  .
 72
65
 73
2
 40
0.2
 49
0.0
 49
-0.2
  0
ENDTAB
  0
TABLE
  2
STYLE
  70
4
  0
STYLE
  2
KICAD
  70
0
  40
0
  41
1
  42
1
  50
0
  71
0
  3
isocp.shx
  0
STYLE
  2
KICADB
  70
0
  40
0
  41
1
  42
1
  50
0
  71
0
  3
isocp.shx
  0
STYLE
  2
KICADI
  70
0
  40
0
  41
1
  42
1
  50
15
  71
0
  3
isocp.shx
  0
STYLE
  2
KICADBI
  70
0
  40
0
  41
1
  42
1
  50
15
  71
0
  3
isocp.shx
  0
ENDTAB
  0
TABLE
  2
LAYER
  70
1
  0
LAYER
  2
BLACK
  70
0
  62
7
  6
CONTINUOUS
  0
ENDTAB
  0
ENDSEC
  0
SECTION
  2
ENTITIES
0
LINE
8
BLACK
6
CONTINUOUS
10
6.20865
20
-3.68221
11
6.22213
21
-3.68398
0
LINE
8
BLACK
6
CONTINUOUS
10
6.22213
20
-3.68398
11
6.23532
21
-3.68729
0
LINE
8
BLACK
6
CONTINUOUS
10
6.23532
20
-3.68729
11
6.24804
21
-3.6921
0
LINE
8
BLACK
6
CONTINUOUS
10
6.24804
20
-3.6921
11
6.26012
21
-3.69834
0
LINE
8
BLACK
6
CONTINUOUS
10
6.26012
20
-3.69834
11
6.27141
21
-3.70592
0
LINE
8
BLACK
6
CONTINUOUS
10
6.27141
20
-3.70592
11
6.28175
21
-3.71475
0
LINE
8
BLACK
6
CONTINUOUS
10
6.28175
20
-3.71475
11
6.29101
21
-3.72471
0
LINE
8
BLACK
6
CONTINUOUS
10
6.29101
20
-3.72471
11
6.29906
21
-3.73567
0
LINE
8
BLACK
6
CONTINUOUS
10
6.29906
20
-3.73567
11
6.30579
21
-3.74748
0
LINE
8
BLACK
6
CONTINUOUS
10
6.30579
20
-3.74748
11
6.31113
21
-3.75999
0
LINE
8
BLACK
6
CONTINUOUS
10
6.31113
20
-3.75999
11
6.31499
21
-3.77303
0
LINE
8
BLACK
6
CONTINUOUS
10
6.31499
20
-3.77303
11
6.31733
21
-3.78642
0
LINE
8
BLACK
6
CONTINUOUS
10
6.31733
20
-3.78642
11
6.31811
21
-3.8
0
LINE
8
BLACK
6
CONTINUOUS
10
6.31811
20
-3.8
11
6.31788
21
-3.80742
0
LINE
8
BLACK
6
CONTINUOUS
10
6.31788
20
-3.80742
11
6.31624
21
-3.82092
0
LINE
8
BLACK
6
CONTINUOUS
10
6.31624
20
-3.82092
11
6.31307
21
-3.83414
0
LINE
8
BLACK
6
CONTINUOUS
10
6.31307
20
-3.83414
11
6.3084
21
-3.84691
0
LINE
8
BLACK
6
CONTINUOUS
10
6.3084
20
-3.84691
11
6.30229
21
-3.85906
0
LINE
8
BLACK
6
CONTINUOUS
10
6.30229
20
-3.85906
11
6.29482
21
-3.87042
0
LINE
8
BLACK
6
CONTINUOUS
10
6.29482
20
-3.87042
11
6.2861
21
-3.88085
0
LINE
8
BLACK
6
CONTINUOUS
10
6.2861
20
-3.88085
11
6.27624
21
-3.89021
0
LINE
8
BLACK
6
CONTINUOUS
10
6.27624
20
-3.89021
11
6.26536
21
-3.89838
0
LINE
8
BLACK
6
CONTINUOUS
10
6.26536
20
-3.89838
11
6.25362
21
-3.90524
0
LINE
8
BLACK
6
CONTINUOUS
10
6.25362
20
-3.90524
11
6.24117
21
-3.9107
0
LINE
8
BLACK
6
CONTINUOUS
10
6.24117
20
-3.9107
11
6.22817
21
-3.9147
0
LINE
8
BLACK
6
CONTINUOUS
10
6.22817
20
-3.9147
11
6.2148
21
-3.91718
0
LINE
8
BLACK
6
CONTINUOUS
10
6.2148
20
-3.91718
11
6.20124
21
-3.9181
0
LINE
8
BLACK
6
CONTINUOUS
10
6.20124
20
-3.9181
11
6.18765
21
-3.91746
0
LINE
8
BLACK
6
CONTINUOUS
10
6.18765
20
-3.91746
11
6.17424
21
-3.91527
0
LINE
8
BLACK
6
CONTINUOUS
10
6.17424
20
-3.91527
11
6.16116
21
-3.91154
0
LINE
8
BLACK
6
CONTINUOUS
10
6.16116
20
-3.91154
11
6.14859
21
-3.90634
0
LINE
8
BLACK
6
CONTINUOUS
10
6.14859
20
-3.90634
11
6.13671
21
-3.89972
0
LINE
8
BLACK
6
CONTINUOUS
10
6.13671
20
-3.89972
11
6.12567
21
-3.89179
0
LINE
8
BLACK
6
CONTINUOUS
10
6.12567
20
-3.89179
11
6.11561
21
-3.88264
0
LINE
8
BLACK
6
CONTINUOUS
10
6.11561
20
-3.88264
11
6.10667
21
-3.87239
0
LINE
8
BLACK
6
CONTINUOUS
10
6.10667
20
-3.87239
11
6.09897
21
-3.86118
0
LINE
8
BLACK
6
CONTINUOUS
10
6.09897
20
-3.86118
11
6.09261
21
-3.84917
0
LINE
8
BLACK
6
CONTINUOUS
10
6.09261
20
-3.84917
11
6.08767
21
-3.8365
0
LINE
8
BLACK
6
CONTINUOUS
10
6.08767
20
-3.8365
11
6.08422
21
-3.82335
0
LINE
8
BLACK
6
CONTINUOUS
10
6.08422
20
-3.82335
11
6.0823
21
-3.80988
0
LINE
8
BLACK
6
CONTINUOUS
10
6.0823
20
-3.80988
11
6.08195
21
-3.79629
0
LINE
8
BLACK
6
CONTINUOUS
10
6.08195
20
-3.79629
11
6.08316
21
-3.78275
0
LINE
8
BLACK
6
CONTINUOUS
10
6.08316
20
-3.78275
11
6.08591
21
-3.76943
0
LINE
8
BLACK
6
CONTINUOUS
10
6.08591
20
-3.76943
11
6.09018
21
-3.75652
0
LINE
8
BLACK
6
CONTINUOUS
10
6.09018
20
-3.75652
11
6.09591
21
-3.74419
0
LINE
8
BLACK
6
CONTINUOUS
10
6.09591
20
-3.74419
11
6.10301
21
-3.73259
0
LINE
8
BLACK
6
CONTINUOUS
10
6.10301
20
-3.73259
11
6.1114
21
-3.72189
0
LINE
8
BLACK
6
CONTINUOUS
10
6.1114
20
-3.72189
11
6.12097
21
-3.71223
0
LINE
8
BLACK
6
CONTINUOUS
10
6.12097
20
-3.71223
11
6.13158
21
-3.70373
0
LINE
8
BLACK
6
CONTINUOUS
10
6.13158
20
-3.70373
11
6.1431
21
-3.6965
0
LINE
8
BLACK
6
CONTINUOUS
10
6.1431
20
-3.6965
11
6.15537
21
-3.69065
0
LINE
8
BLACK
6
CONTINUOUS
10
6.15537
20
-3.69065
11
6.16824
21
-3.68624
0
LINE
8
BLACK
6
CONTINUOUS
10
6.16824
20
-3.68624
11
6.18152
21
-3.68334
0
LINE
8
BLACK
6
CONTINUOUS
10
6.18152
20
-3.68334
11
6.19505
21
-3.68199
0
LINE
8
BLACK
6
CONTINUOUS
10
6.19505
20
-3.68199
11
6.20865
21
-3.68221
0
LINE
8
BLACK
6
CONTINUOUS
10
5.00865
20
-3.68221
11
5.02213
21
-3.68398
0
LINE
8
BLACK
6
CONTINUOUS
10
5.02213
20
-3.68398
11
5.03532
21
-3.68729
0
LINE
8
BLACK
6
CONTINUOUS
10
5.03532
20
-3.68729
11
5.04804
21
-3.6921
0
LINE
8
BLACK
6
CONTINUOUS
10
5.04804
20
-3.6921
11
5.06012
21
-3.69834
0
LINE
8
BLACK
6
CONTINUOUS
10
5.06012
20
-3.69834
11
5.07141
21
-3.70592
0
LINE
8
BLACK
6
CONTINUOUS
10
5.07141
20
-3.70592
11
5.08175
21
-3.71475
0
LINE
8
BLACK
6
CONTINUOUS
10
5.08175
20
-3.71475
11
5.09101
21
-3.72471
0
LINE
8
BLACK
6
CONTINUOUS
10
5.09101
20
-3.72471
11
5.09906
21
-3.73567
0
LINE
8
BLACK
6
CONTINUOUS
10
5.09906
20
-3.73567
11
5.10579
21
-3.74748
0
LINE
8
BLACK
6
CONTINUOUS
10
5.10579
20
-3.74748
11
5.11113
21
-3.75999
0
LINE
8
BLACK
6
CONTINUOUS
10
5.11113
20
-3.75999
11
5.11499
21
-3.77303
0
LINE
8
BLACK
6
CONTINUOUS
10
5.11499
20
-3.77303
11
5.11733
21
-3.78642
0
LINE
8
BLACK
6
CONTINUOUS
10
5.11733
20
-3.78642
11
5.11811
21
-3.8
0
LINE
8
BLACK
6
CONTINUOUS
10
5.11811
20
-3.8
11
5.11788
21
-3.80742
0
LINE
8
BLACK
6
CONTINUOUS
10
5.11788
20
-3.80742
11
5.11624
21
-3.82092
0
LINE
8
BLACK
6
CONTINUOUS
10
5.11624
20
-3.82092
11
5.11307
21
-3.83414
0
LINE
8
BLACK
6
CONTINUOUS
10
5.11307
20
-3.83414
11
5.1084
21
-3.84691
0
LINE
8
BLACK
6
CONTINUOUS
10
5.1084
20
-3.84691
11
5.10229
21
-3.85906
0
LINE
8
BLACK
6
CONTINUOUS
10
5.10229
20
-3.85906
11
5.09482
21
-3.87042
0
LINE
8
BLACK
6
CONTINUOUS
10
5.09482
20
-3.87042
11
5.0861
21
-3.88085
0
LINE
8
BLACK
6
CONTINUOUS
10
5.0861
20
-3.88085
11
5.07624
21
-3.89021
0
LINE
8
BLACK
6
CONTINUOUS
10
5.07624
20
-3.89021
11
5.06536
21
-3.89838
0
LINE
8
BLACK
6
CONTINUOUS
10
5.06536
20
-3.89838
11
5.05362
21
-3.90524
0
LINE
8
BLACK
6
CONTINUOUS
10
5.05362
20
-3.90524
11
5.04117
21
-3.9107
0
LINE
8
BLACK
6
CONTINUOUS
10
5.04117
20
-3.9107
11
5.02817
21
-3.9147
0
LINE
8
BLACK
6
CONTINUOUS
10
5.02817
20
-3.9147
11
5.0148
21
-3.91718
0
LINE
8
BLACK
6
CONTINUOUS
10
5.0148
20
-3.91718
11
5.00124
21
-3.9181
0
LINE
8
BLACK
6
CONTINUOUS
10
5.00124
20
-3.9181
11
4.98765
21
-3.91746
0
LINE
8
BLACK
6
CONTINUOUS
10
4.98765
20
-3.91746
11
4.97424
21
-3.91527
0
LINE
8
BLACK
6
CONTINUOUS
10
4.97424
20
-3.91527
11
4.96116
21
-3.91154
0
LINE
8
BLACK
6
CONTINUOUS
10
4.96116
20
-3.91154
11
4.94859
21
-3.90634
0
LINE
8
BLACK
6
CONTINUOUS
10
4.94859
20
-3.90634
11
4.93671
21
-3.89972
0
LINE
8
BLACK
6
CONTINUOUS
10
4.93671
20
-3.89972
11
4.92567
21
-3.89179
0
LINE
8
BLACK
6
CONTINUOUS
10
4.92567
20
-3.89179
11
4.91561
21
-3.88264
0
LINE
8
BLACK
6
CONTINUOUS
10
4.91561
20
-3.88264
11
4.90667
21
-3.87239
0
LINE
8
BLACK
6
CONTINUOUS
10
4.90667
20
-3.87239
11
4.89897
21
-3.86118
0
LINE
8
BLACK
6
CONTINUOUS
10
4.89897
20
-3.86118
11
4.89261
21
-3.84917
0
LINE
8
BLACK
6
CONTINUOUS
10
4.89261
20
-3.84917
11
4.88767
21
-3.8365
0
LINE
8
BLACK
6
CONTINUOUS
10
4.88767
20
-3.8365
11
4.88422
21
-3.82335
0
LINE
8
BLACK
6
CONTINUOUS
10
4.88422
20
-3.82335
11
4.8823
21
-3.80988
0
LINE
8
BLACK
6
CONTINUOUS
10
4.8823
20
-3.80988
11
4.88195
21
-3.79629
0
LINE
8
BLACK
6
CONTINUOUS
10
4.88195
20
-3.79629
11
4.88316
21
-3.78275
0
LINE
8
BLACK
6
CONTINUOUS
10
4.88316
20
-3.78275
11
4.88591
21
-3.76943
0
LINE
8
BLACK
6
CONTINUOUS
10
4.88591
20
-3.76943
11
4.89018
21
-3.75652
0
LINE
8
BLACK
6
CONTINUOUS
10
4.89018
20
-3.75652
11
4.89591
21
-3.74419
0
LINE
8
BLACK
6
CONTINUOUS
10
4.89591
20
-3.74419
11
4.90301
21
-3.73259
0
LINE
8
BLACK
6
CONTINUOUS
10
4.90301
20
-3.73259
11
4.9114
21
-3.72189
0
LINE
8
BLACK
6
CONTINUOUS
10
4.9114
20
-3.72189
11
4.92097
21
-3.71223
0
LINE
8
BLACK
6
CONTINUOUS
10
4.92097
20
-3.71223
11
4.93158
21
-3.70373
0
LINE
8
BLACK
6
CONTINUOUS
10
4.93158
20
-3.70373
11
4.9431
21
-3.6965
0
LINE
8
BLACK
6
CONTINUOUS
10
4.9431
20
-3.6965
11
4.95537
21
-3.69065
0
LINE
8
BLACK
6
CONTINUOUS
10
4.95537
20
-3.69065
11
4.96824
21
-3.68624
0
LINE
8
BLACK
6
CONTINUOUS
10
4.96824
20
-3.68624
11
4.98152
21
-3.68334
0
LINE
8
BLACK
6
CONTINUOUS
10
4.98152
20
-3.68334
11
4.99505
21
-3.68199
0
LINE
8
BLACK
6
CONTINUOUS
10
4.99505
20
-3.68199
11
5.00865
21
-3.68221
0
LINE
8
BLACK
6
CONTINUOUS
10
5.73
20
-3.88
11
5.67
21
-3.88
0
LINE
8
BLACK
6
CONTINUOUS
10
5.67
20
-3.88
11
5.67
21
-3.82
0
LINE
8
BLACK
6
CONTINUOUS
10
5.67
20
-3.82
11
5.73
21
-3.82
0
LINE
8
BLACK
6
CONTINUOUS
10
5.73
20
-3.82
11
5.73
21
-3.88
0
LINE
8
BLACK
6
CONTINUOUS
10
5.93
20
-3.88
11
5.87
21
-3.88
0
LINE
8
BLACK
6
CONTINUOUS
10
5.87
20
-3.88
11
5.87
21
-3.82
0
LINE
8
BLACK
6
CONTINUOUS
10
5.87
20
-3.82
11
5.93
21
-3.82
0
LINE
8
BLACK
6
CONTINUOUS
10
5.93
20
-3.82
11
5.93
21
-3.88
0
LINE
8
BLACK
6
CONTINUOUS
10
5.785
20
-3.1
11
5.815
21
-3.1
0
LINE
8
BLACK
6
CONTINUOUS
10
5.815
20
-3.1
11
5.815
21
-3.0825
0
LINE
8
BLACK
6
CONTINUOUS
10
5.815
20
-3.0825
11
5.85
21
-3.0825
0
LINE
8
BLACK
6
CONTINUOUS
10
5.85
20
-3.0825
11
5.85
21
-3.1375
0
LINE
8
BLACK
6
CONTINUOUS
10
5.85
20
-3.1375
11
5.8425
21
-3.1375
0
LINE
8
BLACK
6
CONTINUOUS
10
5.8425
20
-3.1375
11
5.8425
21
-3.15836
0
LINE
8
BLACK
6
CONTINUOUS
10
5.8425
20
-3.15836
11
5.89457
21
-3.21043
0
LINE
8
BLACK
6
CONTINUOUS
10
5.89457
20
-3.21043
11
5.89674
21
-3.21367
0
LINE
8
BLACK
6
CONTINUOUS
10
5.89674
20
-3.21367
11
5.8975
21
-3.2175
0
LINE
8
BLACK
6
CONTINUOUS
10
5.8975
20
-3.2175
11
5.8975
21
-3.32336
0
LINE
8
BLACK
6
CONTINUOUS
10
5.8975
20
-3.32336
11
5.96414
21
-3.39
0
LINE
8
BLACK
6
CONTINUOUS
10
5.96414
20
-3.39
11
6.12
21
-3.39
0
LINE
8
BLACK
6
CONTINUOUS
10
6.12
20
-3.39
11
6.12
21
-3.37
0
LINE
8
BLACK
6
CONTINUOUS
10
6.12
20
-3.37
11
6.18
21
-3.37
0
LINE
8
BLACK
6
CONTINUOUS
10
6.18
20
-3.37
11
6.18
21
-3.39
0
LINE
8
BLACK
6
CONTINUOUS
10
6.18
20
-3.39
11
6.22
21
-3.39
0
LINE
8
BLACK
6
CONTINUOUS
10
6.22
20
-3.39
11
6.22
21
-3.37
0
LINE
8
BLACK
6
CONTINUOUS
10
6.22
20
-3.37
11
6.28
21
-3.37
0
LINE
8
BLACK
6
CONTINUOUS
10
6.28
20
-3.37
11
6.28
21
-3.43
0
LINE
8
BLACK
6
CONTINUOUS
10
6.28
20
-3.43
11
6.22
21
-3.43
0
LINE
8
BLACK
6
CONTINUOUS
10
6.22
20
-3.43
11
6.22
21
-3.41
0
LINE
8
BLACK
6
CONTINUOUS
10
6.22
20
-3.41
11
6.18
21
-3.41
0
LINE
8
BLACK
6
CONTINUOUS
10
6.18
20
-3.41
11
6.18
21
-3.43
0
LINE
8
BLACK
6
CONTINUOUS
10
6.18
20
-3.43
11
6.12
21
-3.43
0
LINE
8
BLACK
6
CONTINUOUS
10
6.12
20
-3.43
11
6.12
21
-3.41
0
LINE
8
BLACK
6
CONTINUOUS
10
6.12
20
-3.41
11
5.96
21
-3.41
0
LINE
8
BLACK
6
CONTINUOUS
10
5.96
20
-3.41
11
5.95617
21
-3.40924
0
LINE
8
BLACK
6
CONTINUOUS
10
5.95617
20
-3.40924
11
5.95293
21
-3.40707
0
LINE
8
BLACK
6
CONTINUOUS
10
5.95293
20
-3.40707
11
5.88336
21
-3.3375
0
LINE
8
BLACK
6
CONTINUOUS
10
5.88336
20
-3.3375
11
5.7975
21
-3.3375
0
LINE
8
BLACK
6
CONTINUOUS
10
5.7975
20
-3.3375
11
5.7975
21
-3.345
0
LINE
8
BLACK
6
CONTINUOUS
10
5.7975
20
-3.345
11
5.78
21
-3.345
0
LINE
8
BLACK
6
CONTINUOUS
10
5.78
20
-3.345
11
5.78
21
-3.55586
0
LINE
8
BLACK
6
CONTINUOUS
10
5.78
20
-3.55586
11
5.80707
21
-3.58293
0
LINE
8
BLACK
6
CONTINUOUS
10
5.80707
20
-3.58293
11
5.80924
21
-3.58617
0
LINE
8
BLACK
6
CONTINUOUS
10
5.80924
20
-3.58617
11
5.81
21
-3.59
0
LINE
8
BLACK
6
CONTINUOUS
10
5.81
20
-3.59
11
5.81
21
-3.72
0
LINE
8
BLACK
6
CONTINUOUS
10
5.81
20
-3.72
11
5.83
21
-3.72
0
LINE
8
BLACK
6
CONTINUOUS
10
5.83
20
-3.72
11
5.83
21
-3.78
0
LINE
8
BLACK
6
CONTINUOUS
10
5.83
20
-3.78
11
5.81
21
-3.78
0
LINE
8
BLACK
6
CONTINUOUS
10
5.81
20
-3.78
11
5.81
21
-3.82
0
LINE
8
BLACK
6
CONTINUOUS
10
5.81
20
-3.82
11
5.83
21
-3.82
0
LINE
8
BLACK
6
CONTINUOUS
10
5.83
20
-3.82
11
5.83
21
-3.88
0
LINE
8
BLACK
6
CONTINUOUS
10
5.83
20
-3.88
11
5.77
21
-3.88
0
LINE
8
BLACK
6
CONTINUOUS
10
5.77
20
-3.88
11
5.77
21
-3.82
0
LINE
8
BLACK
6
CONTINUOUS
10
5.77
20
-3.82
11
5.79
21
-3.82
0
LINE
8
BLACK
6
CONTINUOUS
10
5.79
20
-3.82
11
5.79
21
-3.78
0
LINE
8
BLACK
6
CONTINUOUS
10
5.79
20
-3.78
11
5.77
21
-3.78
0
LINE
8
BLACK
6
CONTINUOUS
10
5.77
20
-3.78
11
5.77
21
-3.72
0
LINE
8
BLACK
6
CONTINUOUS
10
5.77
20
-3.72
11
5.79
21
-3.72
0
LINE
8
BLACK
6
CONTINUOUS
10
5.79
20
-3.72
11
5.79
21
-3.59414
0
LINE
8
BLACK
6
CONTINUOUS
10
5.79
20
-3.59414
11
5.76293
21
-3.56707
0
LINE
8
BLACK
6
CONTINUOUS
10
5.76293
20
-3.56707
11
5.76076
21
-3.56383
0
LINE
8
BLACK
6
CONTINUOUS
10
5.76076
20
-3.56383
11
5.76
21
-3.56
0
LINE
8
BLACK
6
CONTINUOUS
10
5.76
20
-3.56
11
5.76
21
-3.345
0
LINE
8
BLACK
6
CONTINUOUS
10
5.76
20
-3.345
11
5.7425
21
-3.345
0
LINE
8
BLACK
6
CONTINUOUS
10
5.7425
20
-3.345
11
5.7425
21
-3.3375
0
LINE
8
BLACK
6
CONTINUOUS
10
5.7425
20
-3.3375
11
5.7175
21
-3.3375
0
LINE
8
BLACK
6
CONTINUOUS
10
5.7175
20
-3.3375
11
5.7175
21
-3.345
0
LINE
8
BLACK
6
CONTINUOUS
10
5.7175
20
-3.345
11
5.6625
21
-3.345
0
LINE
8
BLACK
6
CONTINUOUS
10
5.6625
20
-3.345
11
5.6625
21
-3.3375
0
LINE
8
BLACK
6
CONTINUOUS
10
5.6625
20
-3.3375
11
5.6475
21
-3.3375
0
LINE
8
BLACK
6
CONTINUOUS
10
5.6475
20
-3.3375
11
5.64689
21
-3.33775
0
LINE
8
BLACK
6
CONTINUOUS
10
5.64689
20
-3.33775
11
5.64593
21
-3.33871
0
LINE
8
BLACK
6
CONTINUOUS
10
5.64593
20
-3.33871
11
5.64499
21
-3.3389
0
LINE
8
BLACK
6
CONTINUOUS
10
5.64499
20
-3.3389
11
5.62543
21
-3.3389
0
LINE
8
BLACK
6
CONTINUOUS
10
5.62543
20
-3.3389
11
5.62543
21
-3.34234
0
LINE
8
BLACK
6
CONTINUOUS
10
5.62543
20
-3.34234
11
5.61362
21
-3.34234
0
LINE
8
BLACK
6
CONTINUOUS
10
5.61362
20
-3.34234
11
5.61362
21
-3.32364
0
LINE
8
BLACK
6
CONTINUOUS
10
5.61362
20
-3.32364
11
5.62543
21
-3.32364
0
LINE
8
BLACK
6
CONTINUOUS
10
5.62543
20
-3.32364
11
5.62543
21
-3.32709
0
LINE
8
BLACK
6
CONTINUOUS
10
5.62543
20
-3.32709
11
5.64044
21
-3.32709
0
LINE
8
BLACK
6
CONTINUOUS
10
5.64044
20
-3.32709
11
5.64078
21
-3.32694
0
LINE
8
BLACK
6
CONTINUOUS
10
5.64078
20
-3.32694
11
5.64093
21
-3.3266
0
LINE
8
BLACK
6
CONTINUOUS
10
5.64093
20
-3.3266
11
5.64093
21
-3.31996
0
LINE
8
BLACK
6
CONTINUOUS
10
5.64093
20
-3.31996
11
5.64165
21
-3.31822
0
LINE
8
BLACK
6
CONTINUOUS
10
5.64165
20
-3.31822
11
5.64339
21
-3.3175
0
LINE
8
BLACK
6
CONTINUOUS
10
5.64339
20
-3.3175
11
5.6625
21
-3.3175
0
LINE
8
BLACK
6
CONTINUOUS
10
5.6625
20
-3.3175
11
5.6625
21
-3.31
0
LINE
8
BLACK
6
CONTINUOUS
10
5.6625
20
-3.31
11
5.7175
21
-3.31
0
LINE
8
BLACK
6
CONTINUOUS
10
5.7175
20
-3.31
11
5.7175
21
-3.3175
0
LINE
8
BLACK
6
CONTINUOUS
10
5.7175
20
-3.3175
11
5.7425
21
-3.3175
0
LINE
8
BLACK
6
CONTINUOUS
10
5.7425
20
-3.3175
11
5.7425
21
-3.31
0
LINE
8
BLACK
6
CONTINUOUS
10
5.7425
20
-3.31
11
5.7975
21
-3.31
0
LINE
8
BLACK
6
CONTINUOUS
10
5.7975
20
-3.31
11
5.7975
21
-3.3175
0
LINE
8
BLACK
6
CONTINUOUS
10
5.7975
20
-3.3175
11
5.8775
21
-3.3175
0
LINE
8
BLACK
6
CONTINUOUS
10
5.8775
20
-3.3175
11
5.8775
21
-3.22164
0
LINE
8
BLACK
6
CONTINUOUS
10
5.8775
20
-3.22164
11
5.82543
21
-3.16957
0
LINE
8
BLACK
6
CONTINUOUS
10
5.82543
20
-3.16957
11
5.82522
21
-3.16926
0
LINE
8
BLACK
6
CONTINUOUS
10
5.82522
20
-3.16926
11
5.82326
21
-3.16633
0
LINE
8
BLACK
6
CONTINUOUS
10
5.82326
20
-3.16633
11
5.8225
21
-3.1625
0
LINE
8
BLACK
6
CONTINUOUS
10
5.8225
20
-3.1625
11
5.8225
21
-3.1375
0
LINE
8
BLACK
6
CONTINUOUS
10
5.8225
20
-3.1375
11
5.815
21
-3.1375
0
LINE
8
BLACK
6
CONTINUOUS
10
5.815
20
-3.1375
11
5.815
21
-3.12
0
LINE
8
BLACK
6
CONTINUOUS
10
5.815
20
-3.12
11
5.785
21
-3.12
0
LINE
8
BLACK
6
CONTINUOUS
10
5.785
20
-3.12
11
5.785
21
-3.1375
0
LINE
8
BLACK
6
CONTINUOUS
10
5.785
20
-3.1375
11
5.75
21
-3.1375
0
LINE
8
BLACK
6
CONTINUOUS
10
5.75
20
-3.1375
11
5.75
21
-3.0825
0
LINE
8
BLACK
6
CONTINUOUS
10
5.75
20
-3.0825
11
5.785
21
-3.0825
0
LINE
8
BLACK
6
CONTINUOUS
10
5.785
20
-3.0825
11
5.785
21
-3.1
0
LINE
8
BLACK
6
CONTINUOUS
10
5.5
20
-3.345
11
5.5
21
-3.38
0
LINE
8
BLACK
6
CONTINUOUS
10
5.5
20
-3.38
11
5.49924
21
-3.38383
0
LINE
8
BLACK
6
CONTINUOUS
10
5.49924
20
-3.38383
11
5.49707
21
-3.38707
0
LINE
8
BLACK
6
CONTINUOUS
10
5.49707
20
-3.38707
11
5.31
21
-3.57414
0
LINE
8
BLACK
6
CONTINUOUS
10
5.31
20
-3.57414
11
5.31
21
-3.77
0
LINE
8
BLACK
6
CONTINUOUS
10
5.31
20
-3.77
11
5.33
21
-3.77
0
LINE
8
BLACK
6
CONTINUOUS
10
5.33
20
-3.77
11
5.33
21
-3.83
0
LINE
8
BLACK
6
CONTINUOUS
10
5.33
20
-3.83
11
5.27
21
-3.83
0
LINE
8
BLACK
6
CONTINUOUS
10
5.27
20
-3.83
11
5.27
21
-3.77
0
LINE
8
BLACK
6
CONTINUOUS
10
5.27
20
-3.77
11
5.29
21
-3.77
0
LINE
8
BLACK
6
CONTINUOUS
10
5.29
20
-3.77
11
5.29
21
-3.57
0
LINE
8
BLACK
6
CONTINUOUS
10
5.29
20
-3.57
11
5.29076
21
-3.56617
0
LINE
8
BLACK
6
CONTINUOUS
10
5.29076
20
-3.56617
11
5.29293
21
-3.56293
0
LINE
8
BLACK
6
CONTINUOUS
10
5.29293
20
-3.56293
11
5.48
21
-3.37586
0
LINE
8
BLACK
6
CONTINUOUS
10
5.48
20
-3.37586
11
5.48
21
-3.345
0
LINE
8
BLACK
6
CONTINUOUS
10
5.48
20
-3.345
11
5.4625
21
-3.345
0
LINE
8
BLACK
6
CONTINUOUS
10
5.4625
20
-3.345
11
5.4625
21
-3.31
0
LINE
8
BLACK
6
CONTINUOUS
10
5.4625
20
-3.31
11
5.5175
21
-3.31
0
LINE
8
BLACK
6
CONTINUOUS
10
5.5175
20
-3.31
11
5.5175
21
-3.3175
0
LINE
8
BLACK
6
CONTINUOUS
10
5.5175
20
-3.3175
11
5.53661
21
-3.3175
0
LINE
8
BLACK
6
CONTINUOUS
10
5.53661
20
-3.3175
11
5.53835
21
-3.31822
0
LINE
8
BLACK
6
CONTINUOUS
10
5.53835
20
-3.31822
11
5.53907
21
-3.31996
0
LINE
8
BLACK
6
CONTINUOUS
10
5.53907
20
-3.31996
11
5.53907
21
-3.3266
0
LINE
8
BLACK
6
CONTINUOUS
10
5.53907
20
-3.3266
11
5.53922
21
-3.32694
0
LINE
8
BLACK
6
CONTINUOUS
10
5.53922
20
-3.32694
11
5.53956
21
-3.32709
0
LINE
8
BLACK
6
CONTINUOUS
10
5.53956
20
-3.32709
11
5.55457
21
-3.32709
0
LINE
8
BLACK
6
CONTINUOUS
10
5.55457
20
-3.32709
11
5.55457
21
-3.32364
0
LINE
8
BLACK
6
CONTINUOUS
10
5.55457
20
-3.32364
11
5.56638
21
-3.32364
0
LINE
8
BLACK
6
CONTINUOUS
10
5.56638
20
-3.32364
11
5.56638
21
-3.34234
0
LINE
8
BLACK
6
CONTINUOUS
10
5.56638
20
-3.34234
11
5.55457
21
-3.34234
0
LINE
8
BLACK
6
CONTINUOUS
10
5.55457
20
-3.34234
11
5.55457
21
-3.3389
0
LINE
8
BLACK
6
CONTINUOUS
10
5.55457
20
-3.3389
11
5.53501
21
-3.3389
0
LINE
8
BLACK
6
CONTINUOUS
10
5.53501
20
-3.3389
11
5.53327
21
-3.33818
0
LINE
8
BLACK
6
CONTINUOUS
10
5.53327
20
-3.33818
11
5.53294
21
-3.33768
0
LINE
8
BLACK
6
CONTINUOUS
10
5.53294
20
-3.33768
11
5.5325
21
-3.3375
0
LINE
8
BLACK
6
CONTINUOUS
10
5.5325
20
-3.3375
11
5.5175
21
-3.3375
0
LINE
8
BLACK
6
CONTINUOUS
10
5.5175
20
-3.3375
11
5.5175
21
-3.345
0
LINE
8
BLACK
6
CONTINUOUS
10
5.5175
20
-3.345
11
5.5
21
-3.345
0
LINE
8
BLACK
6
CONTINUOUS
10
5.43
20
-3.83
11
5.37
21
-3.83
0
LINE
8
BLACK
6
CONTINUOUS
10
5.37
20
-3.83
11
5.37
21
-3.77
0
LINE
8
BLACK
6
CONTINUOUS
10
5.37
20
-3.77
11
5.43
21
-3.77
0
LINE
8
BLACK
6
CONTINUOUS
10
5.43
20
-3.77
11
5.43
21
-3.83
0
LINE
8
BLACK
6
CONTINUOUS
10
5.53
20
-3.83
11
5.47
21
-3.83
0
LINE
8
BLACK
6
CONTINUOUS
10
5.47
20
-3.83
11
5.47
21
-3.77
0
LINE
8
BLACK
6
CONTINUOUS
10
5.47
20
-3.77
11
5.53
21
-3.77
0
LINE
8
BLACK
6
CONTINUOUS
10
5.53
20
-3.77
11
5.53
21
-3.83
0
LINE
8
BLACK
6
CONTINUOUS
10
5.93
20
-3.78
11
5.87
21
-3.78
0
LINE
8
BLACK
6
CONTINUOUS
10
5.87
20
-3.78
11
5.87
21
-3.72
0
LINE
8
BLACK
6
CONTINUOUS
10
5.87
20
-3.72
11
5.93
21
-3.72
0
LINE
8
BLACK
6
CONTINUOUS
10
5.93
20
-3.72
11
5.93
21
-3.78
0
LINE
8
BLACK
6
CONTINUOUS
10
5.73
20
-3.78
11
5.67
21
-3.78
0
LINE
8
BLACK
6
CONTINUOUS
10
5.67
20
-3.78
11
5.67
21
-3.72
0
LINE
8
BLACK
6
CONTINUOUS
10
5.67
20
-3.72
11
5.73
21
-3.72
0
LINE
8
BLACK
6
CONTINUOUS
10
5.73
20
-3.72
11
5.73
21
-3.78
0
LINE
8
BLACK
6
CONTINUOUS
10
6.18
20
-3.53
11
6.12
21
-3.53
0
LINE
8
BLACK
6
CONTINUOUS
10
6.12
20
-3.53
11
6.12
21
-3.47
0
LINE
8
BLACK
6
CONTINUOUS
10
6.12
20
-3.47
11
6.18
21
-3.47
0
LINE
8
BLACK
6
CONTINUOUS
10
6.18
20
-3.47
11
6.18
21
-3.53
0
LINE
8
BLACK
6
CONTINUOUS
10
6.28
20
-3.53
11
6.22
21
-3.53
0
LINE
8
BLACK
6
CONTINUOUS
10
6.22
20
-3.53
11
6.22
21
-3.47
0
LINE
8
BLACK
6
CONTINUOUS
10
6.22
20
-3.47
11
6.28
21
-3.47
0
LINE
8
BLACK
6
CONTINUOUS
10
6.28
20
-3.47
11
6.28
21
-3.53
0
LINE
8
BLACK
6
CONTINUOUS
10
5.08
20
-3.53
11
5.02
21
-3.53
0
LINE
8
BLACK
6
CONTINUOUS
10
5.02
20
-3.53
11
5.02
21
-3.47
0
LINE
8
BLACK
6
CONTINUOUS
10
5.02
20
-3.47
11
5.08
21
-3.47
0
LINE
8
BLACK
6
CONTINUOUS
10
5.08
20
-3.47
11
5.08
21
-3.53
0
LINE
8
BLACK
6
CONTINUOUS
10
4.98
20
-3.53
11
4.92
21
-3.53
0
LINE
8
BLACK
6
CONTINUOUS
10
4.92
20
-3.53
11
4.92
21
-3.47
0
LINE
8
BLACK
6
CONTINUOUS
10
4.92
20
-3.47
11
4.98
21
-3.47
0
LINE
8
BLACK
6
CONTINUOUS
10
4.98
20
-3.47
11
4.98
21
-3.53
0
LINE
8
BLACK
6
CONTINUOUS
10
5.60575
20
-3.34234
11
5.60476
21
-3.34234
0
LINE
8
BLACK
6
CONTINUOUS
10
5.60476
20
-3.34234
11
5.60476
21
-3.37548
0
LINE
8
BLACK
6
CONTINUOUS
10
5.60476
20
-3.37548
11
5.60772
21
-3.37843
0
LINE
8
BLACK
6
CONTINUOUS
10
5.60772
20
-3.37843
11
5.60772
21
-3.37654
0
LINE
8
BLACK
6
CONTINUOUS
10
5.60772
20
-3.37654
11
5.60847
21
-3.37277
0
LINE
8
BLACK
6
CONTINUOUS
10
5.60847
20
-3.37277
11
5.6106
21
-3.36958
0
LINE
8
BLACK
6
CONTINUOUS
10
5.6106
20
-3.36958
11
5.61379
21
-3.36744
0
LINE
8
BLACK
6
CONTINUOUS
10
5.61379
20
-3.36744
11
5.61756
21
-3.36669
0
LINE
8
BLACK
6
CONTINUOUS
10
5.61756
20
-3.36669
11
5.64709
21
-3.36669
0
LINE
8
BLACK
6
CONTINUOUS
10
5.64709
20
-3.36669
11
5.65085
21
-3.36744
0
LINE
8
BLACK
6
CONTINUOUS
10
5.65085
20
-3.36744
11
5.65405
21
-3.36958
0
LINE
8
BLACK
6
CONTINUOUS
10
5.65405
20
-3.36958
11
5.65618
21
-3.37277
0
LINE
8
BLACK
6
CONTINUOUS
10
5.65618
20
-3.37277
11
5.65693
21
-3.37654
0
LINE
8
BLACK
6
CONTINUOUS
10
5.65693
20
-3.37654
11
5.65693
21
-3.44346
0
LINE
8
BLACK
6
CONTINUOUS
10
5.65693
20
-3.44346
11
5.65618
21
-3.44723
0
LINE
8
BLACK
6
CONTINUOUS
10
5.65618
20
-3.44723
11
5.65405
21
-3.45042
0
LINE
8
BLACK
6
CONTINUOUS
10
5.65405
20
-3.45042
11
5.65085
21
-3.45256
0
LINE
8
BLACK
6
CONTINUOUS
10
5.65085
20
-3.45256
11
5.64709
21
-3.45331
0
LINE
8
BLACK
6
CONTINUOUS
10
5.64709
20
-3.45331
11
5.61756
21
-3.45331
0
LINE
8
BLACK
6
CONTINUOUS
10
5.61756
20
-3.45331
11
5.61379
21
-3.45256
0
LINE
8
BLACK
6
CONTINUOUS
10
5.61379
20
-3.45256
11
5.6106
21
-3.45042
0
LINE
8
BLACK
6
CONTINUOUS
10
5.6106
20
-3.45042
11
5.60847
21
-3.44723
0
LINE
8
BLACK
6
CONTINUOUS
10
5.60847
20
-3.44723
11
5.60772
21
-3.44346
0
LINE
8
BLACK
6
CONTINUOUS
10
5.60772
20
-3.44346
11
5.60772
21
-3.39235
0
LINE
8
BLACK
6
CONTINUOUS
10
5.60772
20
-3.39235
11
5.59636
21
-3.381
0
LINE
8
BLACK
6
CONTINUOUS
10
5.59636
20
-3.381
11
5.59584
21
-3.3803
0
LINE
8
BLACK
6
CONTINUOUS
10
5.59584
20
-3.3803
11
5.5957
21
-3.38018
0
LINE
8
BLACK
6
CONTINUOUS
10
5.5957
20
-3.38018
11
5.59567
21
-3.38007
0
LINE
8
BLACK
6
CONTINUOUS
10
5.59567
20
-3.38007
11
5.59552
21
-3.37987
0
LINE
8
BLACK
6
CONTINUOUS
10
5.59552
20
-3.37987
11
5.59526
21
-3.37868
0
LINE
8
BLACK
6
CONTINUOUS
10
5.59526
20
-3.37868
11
5.59492
21
-3.37752
0
LINE
8
BLACK
6
CONTINUOUS
10
5.59492
20
-3.37752
11
5.59492
21
-3.34234
0
LINE
8
BLACK
6
CONTINUOUS
10
5.59492
20
-3.34234
11
5.59394
21
-3.34234
0
LINE
8
BLACK
6
CONTINUOUS
10
5.59394
20
-3.34234
11
5.59394
21
-3.32364
0
LINE
8
BLACK
6
CONTINUOUS
10
5.59394
20
-3.32364
11
5.60575
21
-3.32364
0
LINE
8
BLACK
6
CONTINUOUS
10
5.60575
20
-3.32364
11
5.60575
21
-3.34234
0
LINE
8
BLACK
6
CONTINUOUS
10
5.58606
20
-3.34234
11
5.58508
21
-3.34234
0
LINE
8
BLACK
6
CONTINUOUS
10
5.58508
20
-3.34234
11
5.58508
21
-3.37752
0
LINE
8
BLACK
6
CONTINUOUS
10
5.58508
20
-3.37752
11
5.58495
21
-3.37839
0
LINE
8
BLACK
6
CONTINUOUS
10
5.58495
20
-3.37839
11
5.58497
21
-3.37857
0
LINE
8
BLACK
6
CONTINUOUS
10
5.58497
20
-3.37857
11
5.58491
21
-3.37867
0
LINE
8
BLACK
6
CONTINUOUS
10
5.58491
20
-3.37867
11
5.58488
21
-3.37892
0
LINE
8
BLACK
6
CONTINUOUS
10
5.58488
20
-3.37892
11
5.58422
21
-3.37994
0
LINE
8
BLACK
6
CONTINUOUS
10
5.58422
20
-3.37994
11
5.58364
21
-3.381
0
LINE
8
BLACK
6
CONTINUOUS
10
5.58364
20
-3.381
11
5.57228
21
-3.39235
0
LINE
8
BLACK
6
CONTINUOUS
10
5.57228
20
-3.39235
11
5.57228
21
-3.44346
0
LINE
8
BLACK
6
CONTINUOUS
10
5.57228
20
-3.44346
11
5.57153
21
-3.44723
0
LINE
8
BLACK
6
CONTINUOUS
10
5.57153
20
-3.44723
11
5.5694
21
-3.45042
0
LINE
8
BLACK
6
CONTINUOUS
10
5.5694
20
-3.45042
11
5.56621
21
-3.45256
0
LINE
8
BLACK
6
CONTINUOUS
10
5.56621
20
-3.45256
11
5.56244
21
-3.45331
0
LINE
8
BLACK
6
CONTINUOUS
10
5.56244
20
-3.45331
11
5.53291
21
-3.45331
0
LINE
8
BLACK
6
CONTINUOUS
10
5.53291
20
-3.45331
11
5.52915
21
-3.45256
0
LINE
8
BLACK
6
CONTINUOUS
10
5.52915
20
-3.45256
11
5.52595
21
-3.45042
0
LINE
8
BLACK
6
CONTINUOUS
10
5.52595
20
-3.45042
11
5.52382
21
-3.44723
0
LINE
8
BLACK
6
CONTINUOUS
10
5.52382
20
-3.44723
11
5.52307
21
-3.44346
0
LINE
8
BLACK
6
CONTINUOUS
10
5.52307
20
-3.44346
11
5.52307
21
-3.37654
0
LINE
8
BLACK
6
CONTINUOUS
10
5.52307
20
-3.37654
11
5.52382
21
-3.37277
0
LINE
8
BLACK
6
CONTINUOUS
10
5.52382
20
-3.37277
11
5.52595
21
-3.36958
0
LINE
8
BLACK
6
CONTINUOUS
10
5.52595
20
-3.36958
11
5.52915
21
-3.36744
0
LINE
8
BLACK
6
CONTINUOUS
10
5.52915
20
-3.36744
11
5.53291
21
-3.36669
0
LINE
8
BLACK
6
CONTINUOUS
10
5.53291
20
-3.36669
11
5.56244
21
-3.36669
0
LINE
8
BLACK
6
CONTINUOUS
10
5.56244
20
-3.36669
11
5.56621
21
-3.36744
0
LINE
8
BLACK
6
CONTINUOUS
10
5.56621
20
-3.36744
11
5.5694
21
-3.36958
0
LINE
8
BLACK
6
CONTINUOUS
10
5.5694
20
-3.36958
11
5.57153
21
-3.37277
0
LINE
8
BLACK
6
CONTINUOUS
10
5.57153
20
-3.37277
11
5.57228
21
-3.37654
0
LINE
8
BLACK
6
CONTINUOUS
10
5.57228
20
-3.37654
11
5.57228
21
-3.37843
0
LINE
8
BLACK
6
CONTINUOUS
10
5.57228
20
-3.37843
11
5.57524
21
-3.37548
0
LINE
8
BLACK
6
CONTINUOUS
10
5.57524
20
-3.37548
11
5.57524
21
-3.34234
0
LINE
8
BLACK
6
CONTINUOUS
10
5.57524
20
-3.34234
11
5.57425
21
-3.34234
0
LINE
8
BLACK
6
CONTINUOUS
10
5.57425
20
-3.34234
11
5.57425
21
-3.32364
0
LINE
8
BLACK
6
CONTINUOUS
10
5.57425
20
-3.32364
11
5.58606
21
-3.32364
0
LINE
8
BLACK
6
CONTINUOUS
10
5.58606
20
-3.32364
11
5.58606
21
-3.34234
0
LINE
8
BLACK
6
CONTINUOUS
10
4.98
20
-3.39
11
5.02
21
-3.39
0
LINE
8
BLACK
6
CONTINUOUS
10
5.02
20
-3.39
11
5.02
21
-3.37
0
LINE
8
BLACK
6
CONTINUOUS
10
5.02
20
-3.37
11
5.08
21
-3.37
0
LINE
8
BLACK
6
CONTINUOUS
10
5.08
20
-3.37
11
5.08
21
-3.43
0
LINE
8
BLACK
6
CONTINUOUS
10
5.08
20
-3.43
11
5.02
21
-3.43
0
LINE
8
BLACK
6
CONTINUOUS
10
5.02
20
-3.43
11
5.02
21
-3.41
0
LINE
8
BLACK
6
CONTINUOUS
10
5.02
20
-3.41
11
4.98
21
-3.41
0
LINE
8
BLACK
6
CONTINUOUS
10
4.98
20
-3.41
11
4.98
21
-3.43
0
LINE
8
BLACK
6
CONTINUOUS
10
4.98
20
-3.43
11
4.92
21
-3.43
0
LINE
8
BLACK
6
CONTINUOUS
10
4.92
20
-3.43
11
4.92
21
-3.37
0
LINE
8
BLACK
6
CONTINUOUS
10
4.92
20
-3.37
11
4.98
21
-3.37
0
LINE
8
BLACK
6
CONTINUOUS
10
4.98
20
-3.37
11
4.98
21
-3.39
0
LINE
8
BLACK
6
CONTINUOUS
10
6.28
20
-3.33
11
6.22
21
-3.33
0
LINE
8
BLACK
6
CONTINUOUS
10
6.22
20
-3.33
11
6.22
21
-3.27
0
LINE
8
BLACK
6
CONTINUOUS
10
6.22
20
-3.27
11
6.28
21
-3.27
0
LINE
8
BLACK
6
CONTINUOUS
10
6.28
20
-3.27
11
6.28
21
-3.33
0
LINE
8
BLACK
6
CONTINUOUS
10
6.18
20
-3.33
11
6.12
21
-3.33
0
LINE
8
BLACK
6
CONTINUOUS
10
6.12
20
-3.33
11
6.12
21
-3.27
0
LINE
8
BLACK
6
CONTINUOUS
10
6.12
20
-3.27
11
6.18
21
-3.27
0
LINE
8
BLACK
6
CONTINUOUS
10
6.18
20
-3.27
11
6.18
21
-3.33
0
LINE
8
BLACK
6
CONTINUOUS
10
5.08
20
-3.33
11
5.02
21
-3.33
0
LINE
8
BLACK
6
CONTINUOUS
10
5.02
20
-3.33
11
5.02
21
-3.27
0
LINE
8
BLACK
6
CONTINUOUS
10
5.02
20
-3.27
11
5.08
21
-3.27
0
LINE
8
BLACK
6
CONTINUOUS
10
5.08
20
-3.27
11
5.08
21
-3.33
0
LINE
8
BLACK
6
CONTINUOUS
10
4.98
20
-3.33
11
4.92
21
-3.33
0
LINE
8
BLACK
6
CONTINUOUS
10
4.92
20
-3.33
11
4.92
21
-3.27
0
LINE
8
BLACK
6
CONTINUOUS
10
4.92
20
-3.27
11
4.98
21
-3.27
0
LINE
8
BLACK
6
CONTINUOUS
10
4.98
20
-3.27
11
4.98
21
-3.33
0
LINE
8
BLACK
6
CONTINUOUS
10
5.43
20
-3.03
11
5.40787
21
-3.03
0
LINE
8
BLACK
6
CONTINUOUS
10
5.40787
20
-3.03
11
5.40787
21
-3.07674
0
LINE
8
BLACK
6
CONTINUOUS
10
5.40787
20
-3.07674
11
5.54558
21
-3.21444
0
LINE
8
BLACK
6
CONTINUOUS
10
5.54558
20
-3.21444
11
5.54628
21
-3.21556
0
LINE
8
BLACK
6
CONTINUOUS
10
5.54628
20
-3.21556
11
5.5471
21
-3.21659
0
LINE
8
BLACK
6
CONTINUOUS
10
5.5471
20
-3.21659
11
5.5472
21
-3.21703
0
LINE
8
BLACK
6
CONTINUOUS
10
5.5472
20
-3.21703
11
5.54744
21
-3.21741
0
LINE
8
BLACK
6
CONTINUOUS
10
5.54744
20
-3.21741
11
5.54758
21
-3.21872
0
LINE
8
BLACK
6
CONTINUOUS
10
5.54758
20
-3.21872
11
5.54787
21
-3.22
0
LINE
8
BLACK
6
CONTINUOUS
10
5.54787
20
-3.22
11
5.54787
21
-3.24674
0
LINE
8
BLACK
6
CONTINUOUS
10
5.54787
20
-3.24674
11
5.55879
21
-3.25766
0
LINE
8
BLACK
6
CONTINUOUS
10
5.55879
20
-3.25766
11
5.56638
21
-3.25766
0
LINE
8
BLACK
6
CONTINUOUS
10
5.56638
20
-3.25766
11
5.56638
21
-3.27636
0
LINE
8
BLACK
6
CONTINUOUS
10
5.56638
20
-3.27636
11
5.55457
21
-3.27636
0
LINE
8
BLACK
6
CONTINUOUS
10
5.55457
20
-3.27636
11
5.55457
21
-3.27446
0
LINE
8
BLACK
6
CONTINUOUS
10
5.55457
20
-3.27446
11
5.55441
21
-3.27444
0
LINE
8
BLACK
6
CONTINUOUS
10
5.55441
20
-3.27444
11
5.55144
21
-3.27258
0
LINE
8
BLACK
6
CONTINUOUS
10
5.55144
20
-3.27258
11
5.53442
21
-3.25556
0
LINE
8
BLACK
6
CONTINUOUS
10
5.53442
20
-3.25556
11
5.53372
21
-3.25444
0
LINE
8
BLACK
6
CONTINUOUS
10
5.53372
20
-3.25444
11
5.5329
21
-3.25341
0
LINE
8
BLACK
6
CONTINUOUS
10
5.5329
20
-3.25341
11
5.5328
21
-3.25297
0
LINE
8
BLACK
6
CONTINUOUS
10
5.5328
20
-3.25297
11
5.53256
21
-3.25259
0
LINE
8
BLACK
6
CONTINUOUS
10
5.53256
20
-3.25259
11
5.53242
21
-3.25128
0
LINE
8
BLACK
6
CONTINUOUS
10
5.53242
20
-3.25128
11
5.53213
21
-3.25
0
LINE
8
BLACK
6
CONTINUOUS
10
5.53213
20
-3.25
11
5.53213
21
-3.22326
0
LINE
8
BLACK
6
CONTINUOUS
10
5.53213
20
-3.22326
11
5.39442
21
-3.08556
0
LINE
8
BLACK
6
CONTINUOUS
10
5.39442
20
-3.08556
11
5.39372
21
-3.08444
0
LINE
8
BLACK
6
CONTINUOUS
10
5.39372
20
-3.08444
11
5.3929
21
-3.08341
0
LINE
8
BLACK
6
CONTINUOUS
10
5.3929
20
-3.08341
11
5.3928
21
-3.08297
0
LINE
8
BLACK
6
CONTINUOUS
10
5.3928
20
-3.08297
11
5.39256
21
-3.08259
0
LINE
8
BLACK
6
CONTINUOUS
10
5.39256
20
-3.08259
11
5.39242
21
-3.08128
0
LINE
8
BLACK
6
CONTINUOUS
10
5.39242
20
-3.08128
11
5.39213
21
-3.08
0
LINE
8
BLACK
6
CONTINUOUS
10
5.39213
20
-3.08
11
5.39213
21
-3.03
0
LINE
8
BLACK
6
CONTINUOUS
10
5.39213
20
-3.03
11
5.37
21
-3.03
0
LINE
8
BLACK
6
CONTINUOUS
10
5.37
20
-3.03
11
5.37
21
-2.97
0
LINE
8
BLACK
6
CONTINUOUS
10
5.37
20
-2.97
11
5.43
21
-2.97
0
LINE
8
BLACK
6
CONTINUOUS
10
5.43
20
-2.97
11
5.43
21
-3.03
0
LINE
8
BLACK
6
CONTINUOUS
10
5.56504
20
-3.18485
11
5.56943
21
-3.18709
0
LINE
8
BLACK
6
CONTINUOUS
10
5.56943
20
-3.18709
11
5.57291
21
-3.19057
0
LINE
8
BLACK
6
CONTINUOUS
10
5.57291
20
-3.19057
11
5.57515
21
-3.19496
0
LINE
8
BLACK
6
CONTINUOUS
10
5.57515
20
-3.19496
11
5.57592
21
-3.19983
0
LINE
8
BLACK
6
CONTINUOUS
10
5.57592
20
-3.19983
11
5.57526
21
-3.20395
0
LINE
8
BLACK
6
CONTINUOUS
10
5.57526
20
-3.20395
11
5.5771
21
-3.20625
0
LINE
8
BLACK
6
CONTINUOUS
10
5.5771
20
-3.20625
11
5.57787
21
-3.20966
0
LINE
8
BLACK
6
CONTINUOUS
10
5.57787
20
-3.20966
11
5.57787
21
-3.23243
0
LINE
8
BLACK
6
CONTINUOUS
10
5.57787
20
-3.23243
11
5.58573
21
-3.24029
0
LINE
8
BLACK
6
CONTINUOUS
10
5.58573
20
-3.24029
11
5.58643
21
-3.2414
0
LINE
8
BLACK
6
CONTINUOUS
10
5.58643
20
-3.2414
11
5.58725
21
-3.24243
0
LINE
8
BLACK
6
CONTINUOUS
10
5.58725
20
-3.24243
11
5.58735
21
-3.24287
0
LINE
8
BLACK
6
CONTINUOUS
10
5.58735
20
-3.24287
11
5.58759
21
-3.24326
0
LINE
8
BLACK
6
CONTINUOUS
10
5.58759
20
-3.24326
11
5.58774
21
-3.24456
0
LINE
8
BLACK
6
CONTINUOUS
10
5.58774
20
-3.24456
11
5.58803
21
-3.24585
0
LINE
8
BLACK
6
CONTINUOUS
10
5.58803
20
-3.24585
11
5.58803
21
-3.26702
0
LINE
8
BLACK
6
CONTINUOUS
10
5.58803
20
-3.26702
11
5.58725
21
-3.27043
0
LINE
8
BLACK
6
CONTINUOUS
10
5.58725
20
-3.27043
11
5.58606
21
-3.27191
0
LINE
8
BLACK
6
CONTINUOUS
10
5.58606
20
-3.27191
11
5.58606
21
-3.27636
0
LINE
8
BLACK
6
CONTINUOUS
10
5.58606
20
-3.27636
11
5.57425
21
-3.27636
0
LINE
8
BLACK
6
CONTINUOUS
10
5.57425
20
-3.27636
11
5.57425
21
-3.27192
0
LINE
8
BLACK
6
CONTINUOUS
10
5.57425
20
-3.27192
11
5.57306
21
-3.27042
0
LINE
8
BLACK
6
CONTINUOUS
10
5.57306
20
-3.27042
11
5.57228
21
-3.26701
0
LINE
8
BLACK
6
CONTINUOUS
10
5.57228
20
-3.26701
11
5.57228
21
-3.24911
0
LINE
8
BLACK
6
CONTINUOUS
10
5.57228
20
-3.24911
11
5.56442
21
-3.24125
0
LINE
8
BLACK
6
CONTINUOUS
10
5.56442
20
-3.24125
11
5.56372
21
-3.24013
0
LINE
8
BLACK
6
CONTINUOUS
10
5.56372
20
-3.24013
11
5.5629
21
-3.2391
0
LINE
8
BLACK
6
CONTINUOUS
10
5.5629
20
-3.2391
11
5.5628
21
-3.23866
0
LINE
8
BLACK
6
CONTINUOUS
10
5.5628
20
-3.23866
11
5.56256
21
-3.23828
0
LINE
8
BLACK
6
CONTINUOUS
10
5.56256
20
-3.23828
11
5.56242
21
-3.23697
0
LINE
8
BLACK
6
CONTINUOUS
10
5.56242
20
-3.23697
11
5.56213
21
-3.23569
0
LINE
8
BLACK
6
CONTINUOUS
10
5.56213
20
-3.23569
11
5.56213
21
-3.21527
0
LINE
8
BLACK
6
CONTINUOUS
10
5.56213
20
-3.21527
11
5.56017
21
-3.21558
0
LINE
8
BLACK
6
CONTINUOUS
10
5.56017
20
-3.21558
11
5.5553
21
-3.21481
0
LINE
8
BLACK
6
CONTINUOUS
10
5.5553
20
-3.21481
11
5.55091
21
-3.21257
0
LINE
8
BLACK
6
CONTINUOUS
10
5.55091
20
-3.21257
11
5.54743
21
-3.20909
0
LINE
8
BLACK
6
CONTINUOUS
10
5.54743
20
-3.20909
11
5.54519
21
-3.2047
0
LINE
8
BLACK
6
CONTINUOUS
10
5.54519
20
-3.2047
11
5.54442
21
-3.19983
0
LINE
8
BLACK
6
CONTINUOUS
10
5.54442
20
-3.19983
11
5.54519
21
-3.19496
0
LINE
8
BLACK
6
CONTINUOUS
10
5.54519
20
-3.19496
11
5.54743
21
-3.19057
0
LINE
8
BLACK
6
CONTINUOUS
10
5.54743
20
-3.19057
11
5.55091
21
-3.18709
0
LINE
8
BLACK
6
CONTINUOUS
10
5.55091
20
-3.18709
11
5.5553
21
-3.18485
0
LINE
8
BLACK
6
CONTINUOUS
10
5.5553
20
-3.18485
11
5.56017
21
-3.18408
0
LINE
8
BLACK
6
CONTINUOUS
10
5.56017
20
-3.18408
11
5.56504
21
-3.18485
0
LINE
8
BLACK
6
CONTINUOUS
10
5.60575
20
-3.27636
11
5.59394
21
-3.27636
0
LINE
8
BLACK
6
CONTINUOUS
10
5.59394
20
-3.27636
11
5.59394
21
-3.25766
0
LINE
8
BLACK
6
CONTINUOUS
10
5.59394
20
-3.25766
11
5.60575
21
-3.25766
0
LINE
8
BLACK
6
CONTINUOUS
10
5.60575
20
-3.25766
11
5.60575
21
-3.27636
0
LINE
8
BLACK
6
CONTINUOUS
10
5.83
20
-3.03
11
5.78114
21
-3.03
0
LINE
8
BLACK
6
CONTINUOUS
10
5.78114
20
-3.03
11
5.73787
21
-3.07326
0
LINE
8
BLACK
6
CONTINUOUS
10
5.73787
20
-3.07326
11
5.73787
21
-3.15001
0
LINE
8
BLACK
6
CONTINUOUS
10
5.73787
20
-3.15001
11
5.73758
21
-3.1513
0
LINE
8
BLACK
6
CONTINUOUS
10
5.73758
20
-3.1513
11
5.73743
21
-3.1526
0
LINE
8
BLACK
6
CONTINUOUS
10
5.73743
20
-3.1526
11
5.73719
21
-3.15299
0
LINE
8
BLACK
6
CONTINUOUS
10
5.73719
20
-3.15299
11
5.73709
21
-3.15343
0
LINE
8
BLACK
6
CONTINUOUS
10
5.73709
20
-3.15343
11
5.73627
21
-3.15445
0
LINE
8
BLACK
6
CONTINUOUS
10
5.73627
20
-3.15445
11
5.73557
21
-3.15557
0
LINE
8
BLACK
6
CONTINUOUS
10
5.73557
20
-3.15557
11
5.72556
21
-3.16558
0
LINE
8
BLACK
6
CONTINUOUS
10
5.72556
20
-3.16558
11
5.72444
21
-3.16628
0
LINE
8
BLACK
6
CONTINUOUS
10
5.72444
20
-3.16628
11
5.72341
21
-3.1671
0
LINE
8
BLACK
6
CONTINUOUS
10
5.72341
20
-3.1671
11
5.72297
21
-3.1672
0
LINE
8
BLACK
6
CONTINUOUS
10
5.72297
20
-3.1672
11
5.72259
21
-3.16744
0
LINE
8
BLACK
6
CONTINUOUS
10
5.72259
20
-3.16744
11
5.72128
21
-3.16758
0
LINE
8
BLACK
6
CONTINUOUS
10
5.72128
20
-3.16758
11
5.72
21
-3.16787
0
LINE
8
BLACK
6
CONTINUOUS
10
5.72
20
-3.16787
11
5.67326
21
-3.16787
0
LINE
8
BLACK
6
CONTINUOUS
10
5.67326
20
-3.16787
11
5.66806
21
-3.17308
0
LINE
8
BLACK
6
CONTINUOUS
10
5.66806
20
-3.17308
11
5.66694
21
-3.17378
0
LINE
8
BLACK
6
CONTINUOUS
10
5.66694
20
-3.17378
11
5.66591
21
-3.1746
0
LINE
8
BLACK
6
CONTINUOUS
10
5.66591
20
-3.1746
11
5.66547
21
-3.1747
0
LINE
8
BLACK
6
CONTINUOUS
10
5.66547
20
-3.1747
11
5.66509
21
-3.17494
0
LINE
8
BLACK
6
CONTINUOUS
10
5.66509
20
-3.17494
11
5.66378
21
-3.17508
0
LINE
8
BLACK
6
CONTINUOUS
10
5.66378
20
-3.17508
11
5.6625
21
-3.17537
0
LINE
8
BLACK
6
CONTINUOUS
10
5.6625
20
-3.17537
11
5.6475
21
-3.17537
0
LINE
8
BLACK
6
CONTINUOUS
10
5.6475
20
-3.17537
11
5.6475
21
-3.185
0
LINE
8
BLACK
6
CONTINUOUS
10
5.6475
20
-3.185
11
5.63787
21
-3.185
0
LINE
8
BLACK
6
CONTINUOUS
10
5.63787
20
-3.185
11
5.63787
21
-3.25655
0
LINE
8
BLACK
6
CONTINUOUS
10
5.63787
20
-3.25655
11
5.63758
21
-3.25783
0
LINE
8
BLACK
6
CONTINUOUS
10
5.63758
20
-3.25783
11
5.63743
21
-3.25914
0
LINE
8
BLACK
6
CONTINUOUS
10
5.63743
20
-3.25914
11
5.63719
21
-3.25952
0
LINE
8
BLACK
6
CONTINUOUS
10
5.63719
20
-3.25952
11
5.63709
21
-3.25996
0
LINE
8
BLACK
6
CONTINUOUS
10
5.63709
20
-3.25996
11
5.63627
21
-3.26099
0
LINE
8
BLACK
6
CONTINUOUS
10
5.63627
20
-3.26099
11
5.63557
21
-3.2621
0
LINE
8
BLACK
6
CONTINUOUS
10
5.63557
20
-3.2621
11
5.62543
21
-3.27224
0
LINE
8
BLACK
6
CONTINUOUS
10
5.62543
20
-3.27224
11
5.62543
21
-3.27636
0
LINE
8
BLACK
6
CONTINUOUS
10
5.62543
20
-3.27636
11
5.61362
21
-3.27636
0
LINE
8
BLACK
6
CONTINUOUS
10
5.61362
20
-3.27636
11
5.61362
21
-3.27196
0
LINE
8
BLACK
6
CONTINUOUS
10
5.61362
20
-3.27196
11
5.61286
21
-3.27119
0
LINE
8
BLACK
6
CONTINUOUS
10
5.61286
20
-3.27119
11
5.6117
21
-3.26789
0
LINE
8
BLACK
6
CONTINUOUS
10
5.6117
20
-3.26789
11
5.6121
21
-3.26441
0
LINE
8
BLACK
6
CONTINUOUS
10
5.6121
20
-3.26441
11
5.61362
21
-3.26198
0
LINE
8
BLACK
6
CONTINUOUS
10
5.61362
20
-3.26198
11
5.61362
21
-3.25766
0
LINE
8
BLACK
6
CONTINUOUS
10
5.61362
20
-3.25766
11
5.61774
21
-3.25766
0
LINE
8
BLACK
6
CONTINUOUS
10
5.61774
20
-3.25766
11
5.62213
21
-3.25327
0
LINE
8
BLACK
6
CONTINUOUS
10
5.62213
20
-3.25327
11
5.62213
21
-3.185
0
LINE
8
BLACK
6
CONTINUOUS
10
5.62213
20
-3.185
11
5.5925
21
-3.185
0
LINE
8
BLACK
6
CONTINUOUS
10
5.5925
20
-3.185
11
5.5925
21
-3.15
0
LINE
8
BLACK
6
CONTINUOUS
10
5.5925
20
-3.15
11
5.6475
21
-3.15
0
LINE
8
BLACK
6
CONTINUOUS
10
5.6475
20
-3.15
11
5.6475
21
-3.15963
0
LINE
8
BLACK
6
CONTINUOUS
10
5.6475
20
-3.15963
11
5.65924
21
-3.15963
0
LINE
8
BLACK
6
CONTINUOUS
10
5.65924
20
-3.15963
11
5.66444
21
-3.15442
0
LINE
8
BLACK
6
CONTINUOUS
10
5.66444
20
-3.15442
11
5.66556
21
-3.15372
0
LINE
8
BLACK
6
CONTINUOUS
10
5.66556
20
-3.15372
11
5.66659
21
-3.1529
0
LINE
8
BLACK
6
CONTINUOUS
10
5.66659
20
-3.1529
11
5.66703
21
-3.1528
0
LINE
8
BLACK
6
CONTINUOUS
10
5.66703
20
-3.1528
11
5.66741
21
-3.15256
0
LINE
8
BLACK
6
CONTINUOUS
10
5.66741
20
-3.15256
11
5.66872
21
-3.15242
0
LINE
8
BLACK
6
CONTINUOUS
10
5.66872
20
-3.15242
11
5.67
21
-3.15213
0
LINE
8
BLACK
6
CONTINUOUS
10
5.67
20
-3.15213
11
5.71674
21
-3.15213
0
LINE
8
BLACK
6
CONTINUOUS
10
5.71674
20
-3.15213
11
5.72213
21
-3.14674
0
LINE
8
BLACK
6
CONTINUOUS
10
5.72213
20
-3.14674
11
5.72213
21
-3.06999
0
LINE
8
BLACK
6
CONTINUOUS
10
5.72213
20
-3.06999
11
5.72242
21
-3.0687
0
LINE
8
BLACK
6
CONTINUOUS
10
5.72242
20
-3.0687
11
5.72257
21
-3.0674
0
LINE
8
BLACK
6
CONTINUOUS
10
5.72257
20
-3.0674
11
5.72281
21
-3.06701
0
LINE
8
BLACK
6
CONTINUOUS
10
5.72281
20
-3.06701
11
5.72291
21
-3.06657
0
LINE
8
BLACK
6
CONTINUOUS
10
5.72291
20
-3.06657
11
5.72373
21
-3.06555
0
LINE
8
BLACK
6
CONTINUOUS
10
5.72373
20
-3.06555
11
5.72443
21
-3.06443
0
LINE
8
BLACK
6
CONTINUOUS
10
5.72443
20
-3.06443
11
5.77
21
-3.01886
0
LINE
8
BLACK
6
CONTINUOUS
10
5.77
20
-3.01886
11
5.77
21
-2.97
0
LINE
8
BLACK
6
CONTINUOUS
10
5.77
20
-2.97
11
5.83
21
-2.97
0
LINE
8
BLACK
6
CONTINUOUS
10
5.83
20
-2.97
11
5.83
21
-3.03
0
LINE
8
BLACK
6
CONTINUOUS
10
5.7175
20
-3.27
11
5.6625
21
-3.27
0
LINE
8
BLACK
6
CONTINUOUS
10
5.6625
20
-3.27
11
5.6625
21
-3.235
0
LINE
8
BLACK
6
CONTINUOUS
10
5.6625
20
-3.235
11
5.7175
21
-3.235
0
LINE
8
BLACK
6
CONTINUOUS
10
5.7175
20
-3.235
11
5.7175
21
-3.27
0
LINE
8
BLACK
6
CONTINUOUS
10
5.7975
20
-3.27
11
5.7425
21
-3.27
0
LINE
8
BLACK
6
CONTINUOUS
10
5.7425
20
-3.27
11
5.7425
21
-3.235
0
LINE
8
BLACK
6
CONTINUOUS
10
5.7425
20
-3.235
11
5.7975
21
-3.235
0
LINE
8
BLACK
6
CONTINUOUS
10
5.7975
20
-3.235
11
5.7975
21
-3.27
0
LINE
8
BLACK
6
CONTINUOUS
10
5.5175
20
-3.27
11
5.4625
21
-3.27
0
LINE
8
BLACK
6
CONTINUOUS
10
5.4625
20
-3.27
11
5.4625
21
-3.235
0
LINE
8
BLACK
6
CONTINUOUS
10
5.4625
20
-3.235
11
5.5175
21
-3.235
0
LINE
8
BLACK
6
CONTINUOUS
10
5.5175
20
-3.235
11
5.5175
21
-3.27
0
LINE
8
BLACK
6
CONTINUOUS
10
5.60487
20
-3.20502
11
5.60926
21
-3.20726
0
LINE
8
BLACK
6
CONTINUOUS
10
5.60926
20
-3.20726
11
5.61274
21
-3.21074
0
LINE
8
BLACK
6
CONTINUOUS
10
5.61274
20
-3.21074
11
5.61498
21
-3.21513
0
LINE
8
BLACK
6
CONTINUOUS
10
5.61498
20
-3.21513
11
5.61575
21
-3.22
0
LINE
8
BLACK
6
CONTINUOUS
10
5.61575
20
-3.22
11
5.61498
21
-3.22487
0
LINE
8
BLACK
6
CONTINUOUS
10
5.61498
20
-3.22487
11
5.61274
21
-3.22926
0
LINE
8
BLACK
6
CONTINUOUS
10
5.61274
20
-3.22926
11
5.60926
21
-3.23274
0
LINE
8
BLACK
6
CONTINUOUS
10
5.60926
20
-3.23274
11
5.60487
21
-3.23498
0
LINE
8
BLACK
6
CONTINUOUS
10
5.60487
20
-3.23498
11
5.6
21
-3.23575
0
LINE
8
BLACK
6
CONTINUOUS
10
5.6
20
-3.23575
11
5.59513
21
-3.23498
0
LINE
8
BLACK
6
CONTINUOUS
10
5.59513
20
-3.23498
11
5.59074
21
-3.23274
0
LINE
8
BLACK
6
CONTINUOUS
10
5.59074
20
-3.23274
11
5.58726
21
-3.22926
0
LINE
8
BLACK
6
CONTINUOUS
10
5.58726
20
-3.22926
11
5.58502
21
-3.22487
0
LINE
8
BLACK
6
CONTINUOUS
10
5.58502
20
-3.22487
11
5.58425
21
-3.22
0
LINE
8
BLACK
6
CONTINUOUS
10
5.58425
20
-3.22
11
5.58502
21
-3.21513
0
LINE
8
BLACK
6
CONTINUOUS
10
5.58502
20
-3.21513
11
5.58726
21
-3.21074
0
LINE
8
BLACK
6
CONTINUOUS
10
5.58726
20
-3.21074
11
5.59074
21
-3.20726
0
LINE
8
BLACK
6
CONTINUOUS
10
5.59074
20
-3.20726
11
5.59513
21
-3.20502
0
LINE
8
BLACK
6
CONTINUOUS
10
5.59513
20
-3.20502
11
5.6
21
-3.20425
0
LINE
8
BLACK
6
CONTINUOUS
10
5.6
20
-3.20425
11
5.60487
21
-3.20502
0
LINE
8
BLACK
6
CONTINUOUS
10
5.73
20
-3.03
11
5.70037
21
-3.03
0
LINE
8
BLACK
6
CONTINUOUS
10
5.70037
20
-3.03
11
5.70037
21
-3.0825
0
LINE
8
BLACK
6
CONTINUOUS
10
5.70037
20
-3.0825
11
5.71
21
-3.0825
0
LINE
8
BLACK
6
CONTINUOUS
10
5.71
20
-3.0825
11
5.71
21
-3.1375
0
LINE
8
BLACK
6
CONTINUOUS
10
5.71
20
-3.1375
11
5.675
21
-3.1375
0
LINE
8
BLACK
6
CONTINUOUS
10
5.675
20
-3.1375
11
5.675
21
-3.0825
0
LINE
8
BLACK
6
CONTINUOUS
10
5.675
20
-3.0825
11
5.68463
21
-3.0825
0
LINE
8
BLACK
6
CONTINUOUS
10
5.68463
20
-3.0825
11
5.68463
21
-3.03
0
LINE
8
BLACK
6
CONTINUOUS
10
5.68463
20
-3.03
11
5.67
21
-3.03
0
LINE
8
BLACK
6
CONTINUOUS
10
5.67
20
-3.03
11
5.67
21
-2.97
0
LINE
8
BLACK
6
CONTINUOUS
10
5.67
20
-2.97
11
5.73
21
-2.97
0
LINE
8
BLACK
6
CONTINUOUS
10
5.73
20
-2.97
11
5.73
21
-3.03
0
LINE
8
BLACK
6
CONTINUOUS
10
5.93
20
-3.03
11
5.91537
21
-3.03
0
LINE
8
BLACK
6
CONTINUOUS
10
5.91537
20
-3.03
11
5.91537
21
-3.0825
0
LINE
8
BLACK
6
CONTINUOUS
10
5.91537
20
-3.0825
11
5.925
21
-3.0825
0
LINE
8
BLACK
6
CONTINUOUS
10
5.925
20
-3.0825
11
5.925
21
-3.1375
0
LINE
8
BLACK
6
CONTINUOUS
10
5.925
20
-3.1375
11
5.89
21
-3.1375
0
LINE
8
BLACK
6
CONTINUOUS
10
5.89
20
-3.1375
11
5.89
21
-3.0825
0
LINE
8
BLACK
6
CONTINUOUS
10
5.89
20
-3.0825
11
5.89963
21
-3.0825
0
LINE
8
BLACK
6
CONTINUOUS
10
5.89963
20
-3.0825
11
5.89963
21
-3.03
0
LINE
8
BLACK
6
CONTINUOUS
10
5.89963
20
-3.03
11
5.87
21
-3.03
0
LINE
8
BLACK
6
CONTINUOUS
10
5.87
20
-3.03
11
5.87
21
-2.97
0
LINE
8
BLACK
6
CONTINUOUS
10
5.87
20
-2.97
11
5.93
21
-2.97
0
LINE
8
BLACK
6
CONTINUOUS
10
5.93
20
-2.97
11
5.93
21
-3.03
0
LINE
8
BLACK
6
CONTINUOUS
10
6.20865
20
-2.88221
11
6.22213
21
-2.88398
0
LINE
8
BLACK
6
CONTINUOUS
10
6.22213
20
-2.88398
11
6.23532
21
-2.88729
0
LINE
8
BLACK
6
CONTINUOUS
10
6.23532
20
-2.88729
11
6.24804
21
-2.8921
0
LINE
8
BLACK
6
CONTINUOUS
10
6.24804
20
-2.8921
11
6.26012
21
-2.89834
0
LINE
8
BLACK
6
CONTINUOUS
10
6.26012
20
-2.89834
11
6.27141
21
-2.90592
0
LINE
8
BLACK
6
CONTINUOUS
10
6.27141
20
-2.90592
11
6.28175
21
-2.91475
0
LINE
8
BLACK
6
CONTINUOUS
10
6.28175
20
-2.91475
11
6.29101
21
-2.92471
0
LINE
8
BLACK
6
CONTINUOUS
10
6.29101
20
-2.92471
11
6.29906
21
-2.93567
0
LINE
8
BLACK
6
CONTINUOUS
10
6.29906
20
-2.93567
11
6.30579
21
-2.94748
0
LINE
8
BLACK
6
CONTINUOUS
10
6.30579
20
-2.94748
11
6.31113
21
-2.95999
0
LINE
8
BLACK
6
CONTINUOUS
10
6.31113
20
-2.95999
11
6.31499
21
-2.97303
0
LINE
8
BLACK
6
CONTINUOUS
10
6.31499
20
-2.97303
11
6.31733
21
-2.98642
0
LINE
8
BLACK
6
CONTINUOUS
10
6.31733
20
-2.98642
11
6.31811
21
-3
0
LINE
8
BLACK
6
CONTINUOUS
10
6.31811
20
-3
11
6.31788
21
-3.00742
0
LINE
8
BLACK
6
CONTINUOUS
10
6.31788
20
-3.00742
11
6.31624
21
-3.02092
0
LINE
8
BLACK
6
CONTINUOUS
10
6.31624
20
-3.02092
11
6.31307
21
-3.03414
0
LINE
8
BLACK
6
CONTINUOUS
10
6.31307
20
-3.03414
11
6.3084
21
-3.04691
0
LINE
8
BLACK
6
CONTINUOUS
10
6.3084
20
-3.04691
11
6.30229
21
-3.05906
0
LINE
8
BLACK
6
CONTINUOUS
10
6.30229
20
-3.05906
11
6.29482
21
-3.07042
0
LINE
8
BLACK
6
CONTINUOUS
10
6.29482
20
-3.07042
11
6.2861
21
-3.08085
0
LINE
8
BLACK
6
CONTINUOUS
10
6.2861
20
-3.08085
11
6.27624
21
-3.09021
0
LINE
8
BLACK
6
CONTINUOUS
10
6.27624
20
-3.09021
11
6.26536
21
-3.09838
0
LINE
8
BLACK
6
CONTINUOUS
10
6.26536
20
-3.09838
11
6.25362
21
-3.10524
0
LINE
8
BLACK
6
CONTINUOUS
10
6.25362
20
-3.10524
11
6.24117
21
-3.1107
0
LINE
8
BLACK
6
CONTINUOUS
10
6.24117
20
-3.1107
11
6.22817
21
-3.1147
0
LINE
8
BLACK
6
CONTINUOUS
10
6.22817
20
-3.1147
11
6.2148
21
-3.11718
0
LINE
8
BLACK
6
CONTINUOUS
10
6.2148
20
-3.11718
11
6.20124
21
-3.1181
0
LINE
8
BLACK
6
CONTINUOUS
10
6.20124
20
-3.1181
11
6.18765
21
-3.11746
0
LINE
8
BLACK
6
CONTINUOUS
10
6.18765
20
-3.11746
11
6.17424
21
-3.11527
0
LINE
8
BLACK
6
CONTINUOUS
10
6.17424
20
-3.11527
11
6.16116
21
-3.11154
0
LINE
8
BLACK
6
CONTINUOUS
10
6.16116
20
-3.11154
11
6.14859
21
-3.10634
0
LINE
8
BLACK
6
CONTINUOUS
10
6.14859
20
-3.10634
11
6.13671
21
-3.09972
0
LINE
8
BLACK
6
CONTINUOUS
10
6.13671
20
-3.09972
11
6.12567
21
-3.09179
0
LINE
8
BLACK
6
CONTINUOUS
10
6.12567
20
-3.09179
11
6.11561
21
-3.08264
0
LINE
8
BLACK
6
CONTINUOUS
10
6.11561
20
-3.08264
11
6.10667
21
-3.07239
0
LINE
8
BLACK
6
CONTINUOUS
10
6.10667
20
-3.07239
11
6.09897
21
-3.06118
0
LINE
8
BLACK
6
CONTINUOUS
10
6.09897
20
-3.06118
11
6.09261
21
-3.04917
0
LINE
8
BLACK
6
CONTINUOUS
10
6.09261
20
-3.04917
11
6.08767
21
-3.0365
0
LINE
8
BLACK
6
CONTINUOUS
10
6.08767
20
-3.0365
11
6.08422
21
-3.02335
0
LINE
8
BLACK
6
CONTINUOUS
10
6.08422
20
-3.02335
11
6.0823
21
-3.00988
0
LINE
8
BLACK
6
CONTINUOUS
10
6.0823
20
-3.00988
11
6.08195
21
-2.99629
0
LINE
8
BLACK
6
CONTINUOUS
10
6.08195
20
-2.99629
11
6.08316
21
-2.98275
0
LINE
8
BLACK
6
CONTINUOUS
10
6.08316
20
-2.98275
11
6.08591
21
-2.96943
0
LINE
8
BLACK
6
CONTINUOUS
10
6.08591
20
-2.96943
11
6.09018
21
-2.95652
0
LINE
8
BLACK
6
CONTINUOUS
10
6.09018
20
-2.95652
11
6.09591
21
-2.94419
0
LINE
8
BLACK
6
CONTINUOUS
10
6.09591
20
-2.94419
11
6.10301
21
-2.93259
0
LINE
8
BLACK
6
CONTINUOUS
10
6.10301
20
-2.93259
11
6.1114
21
-2.92189
0
LINE
8
BLACK
6
CONTINUOUS
10
6.1114
20
-2.92189
11
6.12097
21
-2.91223
0
LINE
8
BLACK
6
CONTINUOUS
10
6.12097
20
-2.91223
11
6.13158
21
-2.90373
0
LINE
8
BLACK
6
CONTINUOUS
10
6.13158
20
-2.90373
11
6.1431
21
-2.8965
0
LINE
8
BLACK
6
CONTINUOUS
10
6.1431
20
-2.8965
11
6.15537
21
-2.89065
0
LINE
8
BLACK
6
CONTINUOUS
10
6.15537
20
-2.89065
11
6.16824
21
-2.88624
0
LINE
8
BLACK
6
CONTINUOUS
10
6.16824
20
-2.88624
11
6.18152
21
-2.88334
0
LINE
8
BLACK
6
CONTINUOUS
10
6.18152
20
-2.88334
11
6.19505
21
-2.88199
0
LINE
8
BLACK
6
CONTINUOUS
10
6.19505
20
-2.88199
11
6.20865
21
-2.88221
0
LINE
8
BLACK
6
CONTINUOUS
10
5.00865
20
-2.88221
11
5.02213
21
-2.88398
0
LINE
8
BLACK
6
CONTINUOUS
10
5.02213
20
-2.88398
11
5.03532
21
-2.88729
0
LINE
8
BLACK
6
CONTINUOUS
10
5.03532
20
-2.88729
11
5.04804
21
-2.8921
0
LINE
8
BLACK
6
CONTINUOUS
10
5.04804
20
-2.8921
11
5.06012
21
-2.89834
0
LINE
8
BLACK
6
CONTINUOUS
10
5.06012
20
-2.89834
11
5.07141
21
-2.90592
0
LINE
8
BLACK
6
CONTINUOUS
10
5.07141
20
-2.90592
11
5.08175
21
-2.91475
0
LINE
8
BLACK
6
CONTINUOUS
10
5.08175
20
-2.91475
11
5.09101
21
-2.92471
0
LINE
8
BLACK
6
CONTINUOUS
10
5.09101
20
-2.92471
11
5.09906
21
-2.93567
0
LINE
8
BLACK
6
CONTINUOUS
10
5.09906
20
-2.93567
11
5.10579
21
-2.94748
0
LINE
8
BLACK
6
CONTINUOUS
10
5.10579
20
-2.94748
11
5.11113
21
-2.95999
0
LINE
8
BLACK
6
CONTINUOUS
10
5.11113
20
-2.95999
11
5.11499
21
-2.97303
0
LINE
8
BLACK
6
CONTINUOUS
10
5.11499
20
-2.97303
11
5.11733
21
-2.98642
0
LINE
8
BLACK
6
CONTINUOUS
10
5.11733
20
-2.98642
11
5.11811
21
-3
0
LINE
8
BLACK
6
CONTINUOUS
10
5.11811
20
-3
11
5.11788
21
-3.00742
0
LINE
8
BLACK
6
CONTINUOUS
10
5.11788
20
-3.00742
11
5.11624
21
-3.02092
0
LINE
8
BLACK
6
CONTINUOUS
10
5.11624
20
-3.02092
11
5.11307
21
-3.03414
0
LINE
8
BLACK
6
CONTINUOUS
10
5.11307
20
-3.03414
11
5.1084
21
-3.04691
0
LINE
8
BLACK
6
CONTINUOUS
10
5.1084
20
-3.04691
11
5.10229
21
-3.05906
0
LINE
8
BLACK
6
CONTINUOUS
10
5.10229
20
-3.05906
11
5.09482
21
-3.07042
0
LINE
8
BLACK
6
CONTINUOUS
10
5.09482
20
-3.07042
11
5.0861
21
-3.08085
0
LINE
8
BLACK
6
CONTINUOUS
10
5.0861
20
-3.08085
11
5.07624
21
-3.09021
0
LINE
8
BLACK
6
CONTINUOUS
10
5.07624
20
-3.09021
11
5.06536
21
-3.09838
0
LINE
8
BLACK
6
CONTINUOUS
10
5.06536
20
-3.09838
11
5.05362
21
-3.10524
0
LINE
8
BLACK
6
CONTINUOUS
10
5.05362
20
-3.10524
11
5.04117
21
-3.1107
0
LINE
8
BLACK
6
CONTINUOUS
10
5.04117
20
-3.1107
11
5.02817
21
-3.1147
0
LINE
8
BLACK
6
CONTINUOUS
10
5.02817
20
-3.1147
11
5.0148
21
-3.11718
0
LINE
8
BLACK
6
CONTINUOUS
10
5.0148
20
-3.11718
11
5.00124
21
-3.1181
0
LINE
8
BLACK
6
CONTINUOUS
10
5.00124
20
-3.1181
11
4.98765
21
-3.11746
0
LINE
8
BLACK
6
CONTINUOUS
10
4.98765
20
-3.11746
11
4.97424
21
-3.11527
0
LINE
8
BLACK
6
CONTINUOUS
10
4.97424
20
-3.11527
11
4.96116
21
-3.11154
0
LINE
8
BLACK
6
CONTINUOUS
10
4.96116
20
-3.11154
11
4.94859
21
-3.10634
0
LINE
8
BLACK
6
CONTINUOUS
10
4.94859
20
-3.10634
11
4.93671
21
-3.09972
0
LINE
8
BLACK
6
CONTINUOUS
10
4.93671
20
-3.09972
11
4.92567
21
-3.09179
0
LINE
8
BLACK
6
CONTINUOUS
10
4.92567
20
-3.09179
11
4.91561
21
-3.08264
0
LINE
8
BLACK
6
CONTINUOUS
10
4.91561
20
-3.08264
11
4.90667
21
-3.07239
0
LINE
8
BLACK
6
CONTINUOUS
10
4.90667
20
-3.07239
11
4.89897
21
-3.06118
0
LINE
8
BLACK
6
CONTINUOUS
10
4.89897
20
-3.06118
11
4.89261
21
-3.04917
0
LINE
8
BLACK
6
CONTINUOUS
10
4.89261
20
-3.04917
11
4.88767
21
-3.0365
0
LINE
8
BLACK
6
CONTINUOUS
10
4.88767
20
-3.0365
11
4.88422
21
-3.02335
0
LINE
8
BLACK
6
CONTINUOUS
10
4.88422
20
-3.02335
11
4.8823
21
-3.00988
0
LINE
8
BLACK
6
CONTINUOUS
10
4.8823
20
-3.00988
11
4.88195
21
-2.99629
0
LINE
8
BLACK
6
CONTINUOUS
10
4.88195
20
-2.99629
11
4.88316
21
-2.98275
0
LINE
8
BLACK
6
CONTINUOUS
10
4.88316
20
-2.98275
11
4.88591
21
-2.96943
0
LINE
8
BLACK
6
CONTINUOUS
10
4.88591
20
-2.96943
11
4.89018
21
-2.95652
0
LINE
8
BLACK
6
CONTINUOUS
10
4.89018
20
-2.95652
11
4.89591
21
-2.94419
0
LINE
8
BLACK
6
CONTINUOUS
10
4.89591
20
-2.94419
11
4.90301
21
-2.93259
0
LINE
8
BLACK
6
CONTINUOUS
10
4.90301
20
-2.93259
11
4.9114
21
-2.92189
0
LINE
8
BLACK
6
CONTINUOUS
10
4.9114
20
-2.92189
11
4.92097
21
-2.91223
0
LINE
8
BLACK
6
CONTINUOUS
10
4.92097
20
-2.91223
11
4.93158
21
-2.90373
0
LINE
8
BLACK
6
CONTINUOUS
10
4.93158
20
-2.90373
11
4.9431
21
-2.8965
0
LINE
8
BLACK
6
CONTINUOUS
10
4.9431
20
-2.8965
11
4.95537
21
-2.89065
0
LINE
8
BLACK
6
CONTINUOUS
10
4.95537
20
-2.89065
11
4.96824
21
-2.88624
0
LINE
8
BLACK
6
CONTINUOUS
10
4.96824
20
-2.88624
11
4.98152
21
-2.88334
0
LINE
8
BLACK
6
CONTINUOUS
10
4.98152
20
-2.88334
11
4.99505
21
-2.88199
0
LINE
8
BLACK
6
CONTINUOUS
10
4.99505
20
-2.88199
11
5.00865
21
-2.88221
0
LINE
8
BLACK
6
CONTINUOUS
10
5.6475
20
-3.11
11
5.5925
21
-3.11
0
LINE
8
BLACK
6
CONTINUOUS
10
5.5925
20
-3.11
11
5.5925
21
-3.075
0
LINE
8
BLACK
6
CONTINUOUS
10
5.5925
20
-3.075
11
5.6475
21
-3.075
0
LINE
8
BLACK
6
CONTINUOUS
10
5.6475
20
-3.075
11
5.6475
21
-3.11
0
LINE
8
BLACK
6
CONTINUOUS
10
5.53
20
-3.03
11
5.47
21
-3.03
0
LINE
8
BLACK
6
CONTINUOUS
10
5.47
20
-3.03
11
5.47
21
-2.97
0
LINE
8
BLACK
6
CONTINUOUS
10
5.47
20
-2.97
11
5.53
21
-2.97
0
LINE
8
BLACK
6
CONTINUOUS
10
5.53
20
-2.97
11
5.53
21
-3.03
0
LINE
8
BLACK
6
CONTINUOUS
10
5.33
20
-3.03
11
5.27
21
-3.03
0
LINE
8
BLACK
6
CONTINUOUS
10
5.27
20
-3.03
11
5.27
21
-2.97
0
LINE
8
BLACK
6
CONTINUOUS
10
5.27
20
-2.97
11
5.33
21
-2.97
0
LINE
8
BLACK
6
CONTINUOUS
10
5.33
20
-2.97
11
5.33
21
-3.03
0
CIRCLE
8
BLACK
10
5.6
20
-3.22
40
0.00787402
0
CIRCLE
8
BLACK
10
5.56017
20
-3.19983
40
0.00787402
  0
ENDSEC
  0
EOF
