  0
SECTION
  2
HEADER
  9
$ANGBASE
  50
0.0
  9
$ANGDIR
  70
1
  9
$MEASUREMENT
  70
0
  0
ENDSEC
  0
SECTION
  2
TABLES
  0
TABLE
  2
LTYPE
  70
4
  0
LTYPE
  5
40F
  2
CONTINUOUS
  70
0
  3
Solid line
  72
65
  73
0
  40
0.0
  0
LTYPE
  5
410
  2
DASHDOT
 70
0
  3
Dash Dot ____ _ ____ _
 72
65
 73
4
 40
2.0
 49
1.25
 49
-0.25
 49
0.25
 49
-0.25
  0
LTYPE
  5
411
  2
DASHED
 70
0
  3
Dashed __ __ __ __ __
 72
65
 73
2
 40
0.75
 49
0.5
 49
-0.25
  0
LTYPE
  5
43B
  2
DOTTED
 70
0
  3
Dotted .  .  .  .
 72
65
 73
2
 40
0.2
 49
0.0
 49
-0.2
  0
ENDTAB
  0
TABLE
  2
STYLE
  70
4
  0
STYLE
  2
KICAD
  70
0
  40
0
  41
1
  42
1
  50
0
  71
0
  3
isocp.shx
  0
STYLE
  2
KICADB
  70
0
  40
0
  41
1
  42
1
  50
0
  71
0
  3
isocp.shx
  0
STYLE
  2
KICADI
  70
0
  40
0
  41
1
  42
1
  50
15
  71
0
  3
isocp.shx
  0
STYLE
  2
KICADBI
  70
0
  40
0
  41
1
  42
1
  50
15
  71
0
  3
isocp.shx
  0
ENDTAB
  0
TABLE
  2
LAYER
  70
1
  0
LAYER
  2
BLACK
  70
0
  62
7
  6
CONTINUOUS
  0
ENDTAB
  0
ENDSEC
  0
SECTION
  2
ENTITIES
0
LINE
8
BLACK
6
CONTINUOUS
10
0.572291
20
0.560901
11
0.57241
21
0.560925
0
LINE
8
BLACK
6
CONTINUOUS
10
0.57241
20
0.560925
11
0.572696
21
0.560733
0
LINE
8
BLACK
6
CONTINUOUS
10
0.572696
20
0.560733
11
0.573014
21
0.560602
0
LINE
8
BLACK
6
CONTINUOUS
10
0.573014
20
0.560602
11
0.57306
21
0.560489
0
LINE
8
BLACK
6
CONTINUOUS
10
0.57306
20
0.560489
11
0.573161
21
0.560422
0
LINE
8
BLACK
6
CONTINUOUS
10
0.573161
20
0.560422
11
0.574596
21
0.558269
0
LINE
8
BLACK
6
CONTINUOUS
10
0.574596
20
0.558269
11
0.575878
21
0.556988
0
LINE
8
BLACK
6
CONTINUOUS
10
0.575878
20
0.556988
11
0.577206
21
0.556324
0
LINE
8
BLACK
6
CONTINUOUS
10
0.577206
20
0.556324
11
0.577798
21
0.555641
0
LINE
8
BLACK
6
CONTINUOUS
10
0.577798
20
0.555641
11
0.577734
21
0.554739
0
LINE
8
BLACK
6
CONTINUOUS
10
0.577734
20
0.554739
11
0.577051
21
0.554147
0
LINE
8
BLACK
6
CONTINUOUS
10
0.577051
20
0.554147
11
0.57615
21
0.554211
0
LINE
8
BLACK
6
CONTINUOUS
10
0.57615
20
0.554211
11
0.57465
21
0.554961
0
LINE
8
BLACK
6
CONTINUOUS
10
0.57465
20
0.554961
11
0.574522
21
0.555108
0
LINE
8
BLACK
6
CONTINUOUS
10
0.574522
20
0.555108
11
0.574343
21
0.555182
0
LINE
8
BLACK
6
CONTINUOUS
10
0.574343
20
0.555182
11
0.57336
21
0.556165
0
LINE
8
BLACK
6
CONTINUOUS
10
0.57336
20
0.556165
11
0.57336
21
0.5452
0
LINE
8
BLACK
6
CONTINUOUS
10
0.57336
20
0.5452
11
0.576678
21
0.5452
0
LINE
8
BLACK
6
CONTINUOUS
10
0.576678
20
0.5452
11
0.577513
21
0.544854
0
LINE
8
BLACK
6
CONTINUOUS
10
0.577513
20
0.544854
11
0.577859
21
0.544019
0
LINE
8
BLACK
6
CONTINUOUS
10
0.577859
20
0.544019
11
0.577513
21
0.543183
0
LINE
8
BLACK
6
CONTINUOUS
10
0.577513
20
0.543183
11
0.576678
21
0.542838
0
LINE
8
BLACK
6
CONTINUOUS
10
0.576678
20
0.542838
11
0.572178
21
0.542838
0
LINE
8
BLACK
6
CONTINUOUS
10
0.572178
20
0.542838
11
0.567679
21
0.542838
0
LINE
8
BLACK
6
CONTINUOUS
10
0.567679
20
0.542838
11
0.566844
21
0.543183
0
LINE
8
BLACK
6
CONTINUOUS
10
0.566844
20
0.543183
11
0.566498
21
0.544019
0
LINE
8
BLACK
6
CONTINUOUS
10
0.566498
20
0.544019
11
0.566844
21
0.544854
0
LINE
8
BLACK
6
CONTINUOUS
10
0.566844
20
0.544854
11
0.567679
21
0.5452
0
LINE
8
BLACK
6
CONTINUOUS
10
0.567679
20
0.5452
11
0.570997
21
0.5452
0
LINE
8
BLACK
6
CONTINUOUS
10
0.570997
20
0.5452
11
0.570997
21
0.559767
0
LINE
8
BLACK
6
CONTINUOUS
10
0.570997
20
0.559767
11
0.571044
21
0.559879
0
LINE
8
BLACK
6
CONTINUOUS
10
0.571044
20
0.559879
11
0.57102
21
0.559998
0
LINE
8
BLACK
6
CONTINUOUS
10
0.57102
20
0.559998
11
0.571212
21
0.560284
0
LINE
8
BLACK
6
CONTINUOUS
10
0.571212
20
0.560284
11
0.571343
21
0.560602
0
LINE
8
BLACK
6
CONTINUOUS
10
0.571343
20
0.560602
11
0.571456
21
0.560648
0
LINE
8
BLACK
6
CONTINUOUS
10
0.571456
20
0.560648
11
0.571523
21
0.560749
0
LINE
8
BLACK
6
CONTINUOUS
10
0.571523
20
0.560749
11
0.571861
21
0.560816
0
LINE
8
BLACK
6
CONTINUOUS
10
0.571861
20
0.560816
11
0.572178
21
0.560948
0
LINE
8
BLACK
6
CONTINUOUS
10
0.572178
20
0.560948
11
0.572291
21
0.560901
0
LINE
8
BLACK
6
CONTINUOUS
10
0.592511
20
0.560602
11
0.592857
21
0.559767
0
LINE
8
BLACK
6
CONTINUOUS
10
0.592857
20
0.559767
11
0.592857
21
0.544019
0
LINE
8
BLACK
6
CONTINUOUS
10
0.592857
20
0.544019
11
0.592511
21
0.543183
0
LINE
8
BLACK
6
CONTINUOUS
10
0.592511
20
0.543183
11
0.591676
21
0.542838
0
LINE
8
BLACK
6
CONTINUOUS
10
0.591676
20
0.542838
11
0.587926
21
0.542838
0
LINE
8
BLACK
6
CONTINUOUS
10
0.587926
20
0.542838
11
0.587747
21
0.542912
0
LINE
8
BLACK
6
CONTINUOUS
10
0.587747
20
0.542912
11
0.587553
21
0.542898
0
LINE
8
BLACK
6
CONTINUOUS
10
0.587553
20
0.542898
11
0.585303
21
0.543648
0
LINE
8
BLACK
6
CONTINUOUS
10
0.585303
20
0.543648
11
0.585096
21
0.543828
0
LINE
8
BLACK
6
CONTINUOUS
10
0.585096
20
0.543828
11
0.584842
21
0.543933
0
LINE
8
BLACK
6
CONTINUOUS
10
0.584842
20
0.543933
11
0.583342
21
0.545433
0
LINE
8
BLACK
6
CONTINUOUS
10
0.583342
20
0.545433
11
0.583267
21
0.545613
0
LINE
8
BLACK
6
CONTINUOUS
10
0.583267
20
0.545613
11
0.583121
21
0.54574
0
LINE
8
BLACK
6
CONTINUOUS
10
0.583121
20
0.54574
11
0.582371
21
0.54724
0
LINE
8
BLACK
6
CONTINUOUS
10
0.582371
20
0.54724
11
0.582361
21
0.547374
0
LINE
8
BLACK
6
CONTINUOUS
10
0.582361
20
0.547374
11
0.582281
21
0.547482
0
LINE
8
BLACK
6
CONTINUOUS
10
0.582281
20
0.547482
11
0.581531
21
0.550481
0
LINE
8
BLACK
6
CONTINUOUS
10
0.581531
20
0.550481
11
0.581553
21
0.550629
0
LINE
8
BLACK
6
CONTINUOUS
10
0.581553
20
0.550629
11
0.581496
21
0.550768
0
LINE
8
BLACK
6
CONTINUOUS
10
0.581496
20
0.550768
11
0.581496
21
0.553017
0
LINE
8
BLACK
6
CONTINUOUS
10
0.581496
20
0.553017
11
0.581553
21
0.553156
0
LINE
8
BLACK
6
CONTINUOUS
10
0.581553
20
0.553156
11
0.581531
21
0.553304
0
LINE
8
BLACK
6
CONTINUOUS
10
0.581531
20
0.553304
11
0.582281
21
0.556304
0
LINE
8
BLACK
6
CONTINUOUS
10
0.582281
20
0.556304
11
0.582361
21
0.556411
0
LINE
8
BLACK
6
CONTINUOUS
10
0.582361
20
0.556411
11
0.582371
21
0.556545
0
LINE
8
BLACK
6
CONTINUOUS
10
0.582371
20
0.556545
11
0.583121
21
0.558045
0
LINE
8
BLACK
6
CONTINUOUS
10
0.583121
20
0.558045
11
0.583267
21
0.558173
0
LINE
8
BLACK
6
CONTINUOUS
10
0.583267
20
0.558173
11
0.583342
21
0.558352
0
LINE
8
BLACK
6
CONTINUOUS
10
0.583342
20
0.558352
11
0.584842
21
0.559852
0
LINE
8
BLACK
6
CONTINUOUS
10
0.584842
20
0.559852
11
0.585096
21
0.559957
0
LINE
8
BLACK
6
CONTINUOUS
10
0.585096
20
0.559957
11
0.585303
21
0.560137
0
LINE
8
BLACK
6
CONTINUOUS
10
0.585303
20
0.560137
11
0.587553
21
0.560887
0
LINE
8
BLACK
6
CONTINUOUS
10
0.587553
20
0.560887
11
0.587747
21
0.560873
0
LINE
8
BLACK
6
CONTINUOUS
10
0.587747
20
0.560873
11
0.587926
21
0.560948
0
LINE
8
BLACK
6
CONTINUOUS
10
0.587926
20
0.560948
11
0.591676
21
0.560948
0
LINE
8
BLACK
6
CONTINUOUS
10
0.591676
20
0.560948
11
0.592511
21
0.560602
0
LINE
8
BLACK
6
CONTINUOUS
10
0.586315
20
0.557984
11
0.585148
21
0.556817
0
LINE
8
BLACK
6
CONTINUOUS
10
0.585148
20
0.556817
11
0.584541
21
0.555605
0
LINE
8
BLACK
6
CONTINUOUS
10
0.584541
20
0.555605
11
0.583858
21
0.552872
0
LINE
8
BLACK
6
CONTINUOUS
10
0.583858
20
0.552872
11
0.583858
21
0.550913
0
LINE
8
BLACK
6
CONTINUOUS
10
0.583858
20
0.550913
11
0.584541
21
0.54818
0
LINE
8
BLACK
6
CONTINUOUS
10
0.584541
20
0.54818
11
0.585148
21
0.546968
0
LINE
8
BLACK
6
CONTINUOUS
10
0.585148
20
0.546968
11
0.586315
21
0.545801
0
LINE
8
BLACK
6
CONTINUOUS
10
0.586315
20
0.545801
11
0.588118
21
0.5452
0
LINE
8
BLACK
6
CONTINUOUS
10
0.588118
20
0.5452
11
0.590495
21
0.5452
0
LINE
8
BLACK
6
CONTINUOUS
10
0.590495
20
0.5452
11
0.590495
21
0.558586
0
LINE
8
BLACK
6
CONTINUOUS
10
0.590495
20
0.558586
11
0.588118
21
0.558586
0
LINE
8
BLACK
6
CONTINUOUS
10
0.588118
20
0.558586
11
0.586315
21
0.557984
0
LINE
8
BLACK
6
CONTINUOUS
10
0.60001
20
0.560602
11
0.600356
21
0.559767
0
LINE
8
BLACK
6
CONTINUOUS
10
0.600356
20
0.559767
11
0.600356
21
0.544019
0
LINE
8
BLACK
6
CONTINUOUS
10
0.600356
20
0.544019
11
0.60001
21
0.543183
0
LINE
8
BLACK
6
CONTINUOUS
10
0.60001
20
0.543183
11
0.599175
21
0.542838
0
LINE
8
BLACK
6
CONTINUOUS
10
0.599175
20
0.542838
11
0.59834
21
0.543183
0
LINE
8
BLACK
6
CONTINUOUS
10
0.59834
20
0.543183
11
0.597994
21
0.544019
0
LINE
8
BLACK
6
CONTINUOUS
10
0.597994
20
0.544019
11
0.597994
21
0.559767
0
LINE
8
BLACK
6
CONTINUOUS
10
0.597994
20
0.559767
11
0.59834
21
0.560602
0
LINE
8
BLACK
6
CONTINUOUS
10
0.59834
20
0.560602
11
0.599175
21
0.560948
0
LINE
8
BLACK
6
CONTINUOUS
10
0.599175
20
0.560948
11
0.60001
21
0.560602
0
LINE
8
BLACK
6
CONTINUOUS
10
0.613509
20
0.560602
11
0.613854
21
0.559767
0
LINE
8
BLACK
6
CONTINUOUS
10
0.613854
20
0.559767
11
0.613854
21
0.544019
0
LINE
8
BLACK
6
CONTINUOUS
10
0.613854
20
0.544019
11
0.613509
21
0.543183
0
LINE
8
BLACK
6
CONTINUOUS
10
0.613509
20
0.543183
11
0.612673
21
0.542838
0
LINE
8
BLACK
6
CONTINUOUS
10
0.612673
20
0.542838
11
0.611838
21
0.543183
0
LINE
8
BLACK
6
CONTINUOUS
10
0.611838
20
0.543183
11
0.611492
21
0.544019
0
LINE
8
BLACK
6
CONTINUOUS
10
0.611492
20
0.544019
11
0.611492
21
0.551086
0
LINE
8
BLACK
6
CONTINUOUS
10
0.611492
20
0.551086
11
0.607424
21
0.551086
0
LINE
8
BLACK
6
CONTINUOUS
10
0.607424
20
0.551086
11
0.606589
21
0.551432
0
LINE
8
BLACK
6
CONTINUOUS
10
0.606589
20
0.551432
11
0.606243
21
0.552268
0
LINE
8
BLACK
6
CONTINUOUS
10
0.606243
20
0.552268
11
0.606589
21
0.553103
0
LINE
8
BLACK
6
CONTINUOUS
10
0.606589
20
0.553103
11
0.607424
21
0.553449
0
LINE
8
BLACK
6
CONTINUOUS
10
0.607424
20
0.553449
11
0.611492
21
0.553449
0
LINE
8
BLACK
6
CONTINUOUS
10
0.611492
20
0.553449
11
0.611492
21
0.558586
0
LINE
8
BLACK
6
CONTINUOUS
10
0.611492
20
0.558586
11
0.605174
21
0.558586
0
LINE
8
BLACK
6
CONTINUOUS
10
0.605174
20
0.558586
11
0.604339
21
0.558931
0
LINE
8
BLACK
6
CONTINUOUS
10
0.604339
20
0.558931
11
0.603993
21
0.559767
0
LINE
8
BLACK
6
CONTINUOUS
10
0.603993
20
0.559767
11
0.604339
21
0.560602
0
LINE
8
BLACK
6
CONTINUOUS
10
0.604339
20
0.560602
11
0.605174
21
0.560948
0
LINE
8
BLACK
6
CONTINUOUS
10
0.605174
20
0.560948
11
0.612673
21
0.560948
0
LINE
8
BLACK
6
CONTINUOUS
10
0.612673
20
0.560948
11
0.613509
21
0.560602
0
LINE
8
BLACK
6
CONTINUOUS
10
0.598616
20
0.591725
11
0.606371
21
0.589373
0
LINE
8
BLACK
6
CONTINUOUS
10
0.606371
20
0.589373
11
0.613518
21
0.585553
0
LINE
8
BLACK
6
CONTINUOUS
10
0.613518
20
0.585553
11
0.619782
21
0.580412
0
LINE
8
BLACK
6
CONTINUOUS
10
0.619782
20
0.580412
11
0.624923
21
0.574148
0
LINE
8
BLACK
6
CONTINUOUS
10
0.624923
20
0.574148
11
0.628743
21
0.567001
0
LINE
8
BLACK
6
CONTINUOUS
10
0.628743
20
0.567001
11
0.631095
21
0.559246
0
LINE
8
BLACK
6
CONTINUOUS
10
0.631095
20
0.559246
11
0.63189
21
0.551181
0
LINE
8
BLACK
6
CONTINUOUS
10
0.63189
20
0.551181
11
0.631095
21
0.543116
0
LINE
8
BLACK
6
CONTINUOUS
10
0.631095
20
0.543116
11
0.628743
21
0.535361
0
LINE
8
BLACK
6
CONTINUOUS
10
0.628743
20
0.535361
11
0.624923
21
0.528215
0
LINE
8
BLACK
6
CONTINUOUS
10
0.624923
20
0.528215
11
0.619782
21
0.52195
0
LINE
8
BLACK
6
CONTINUOUS
10
0.619782
20
0.52195
11
0.613518
21
0.516809
0
LINE
8
BLACK
6
CONTINUOUS
10
0.613518
20
0.516809
11
0.606371
21
0.512989
0
LINE
8
BLACK
6
CONTINUOUS
10
0.606371
20
0.512989
11
0.598616
21
0.510637
0
LINE
8
BLACK
6
CONTINUOUS
10
0.598616
20
0.510637
11
0.590551
21
0.509843
0
LINE
8
BLACK
6
CONTINUOUS
10
0.590551
20
0.509843
11
0.582486
21
0.510637
0
LINE
8
BLACK
6
CONTINUOUS
10
0.582486
20
0.510637
11
0.574732
21
0.512989
0
LINE
8
BLACK
6
CONTINUOUS
10
0.574732
20
0.512989
11
0.567585
21
0.516809
0
LINE
8
BLACK
6
CONTINUOUS
10
0.567585
20
0.516809
11
0.56132
21
0.52195
0
LINE
8
BLACK
6
CONTINUOUS
10
0.56132
20
0.52195
11
0.556179
21
0.528215
0
LINE
8
BLACK
6
CONTINUOUS
10
0.556179
20
0.528215
11
0.552359
21
0.535361
0
LINE
8
BLACK
6
CONTINUOUS
10
0.552359
20
0.535361
11
0.550007
21
0.543116
0
LINE
8
BLACK
6
CONTINUOUS
10
0.550007
20
0.543116
11
0.549213
21
0.551181
0
LINE
8
BLACK
6
CONTINUOUS
10
0.549213
20
0.551181
11
0.550007
21
0.559246
0
LINE
8
BLACK
6
CONTINUOUS
10
0.550007
20
0.559246
11
0.552359
21
0.567001
0
LINE
8
BLACK
6
CONTINUOUS
10
0.552359
20
0.567001
11
0.556179
21
0.574148
0
LINE
8
BLACK
6
CONTINUOUS
10
0.556179
20
0.574148
11
0.56132
21
0.580412
0
LINE
8
BLACK
6
CONTINUOUS
10
0.56132
20
0.580412
11
0.567585
21
0.585553
0
LINE
8
BLACK
6
CONTINUOUS
10
0.567585
20
0.585553
11
0.574732
21
0.589373
0
LINE
8
BLACK
6
CONTINUOUS
10
0.574732
20
0.589373
11
0.582486
21
0.591725
0
LINE
8
BLACK
6
CONTINUOUS
10
0.582486
20
0.591725
11
0.590551
21
0.59252
0
LINE
8
BLACK
6
CONTINUOUS
10
0.590551
20
0.59252
11
0.598616
21
0.591725
0
LINE
8
BLACK
6
CONTINUOUS
10
0.553691
20
0.543849
11
0.555829
21
0.536799
0
LINE
8
BLACK
6
CONTINUOUS
10
0.555829
20
0.536799
11
0.559302
21
0.530301
0
LINE
8
BLACK
6
CONTINUOUS
10
0.559302
20
0.530301
11
0.563976
21
0.524606
0
LINE
8
BLACK
6
CONTINUOUS
10
0.563976
20
0.524606
11
0.569671
21
0.519932
0
LINE
8
BLACK
6
CONTINUOUS
10
0.569671
20
0.519932
11
0.576169
21
0.516459
0
LINE
8
BLACK
6
CONTINUOUS
10
0.576169
20
0.516459
11
0.583219
21
0.514321
0
LINE
8
BLACK
6
CONTINUOUS
10
0.583219
20
0.514321
11
0.590551
21
0.513599
0
LINE
8
BLACK
6
CONTINUOUS
10
0.590551
20
0.513599
11
0.597883
21
0.514321
0
LINE
8
BLACK
6
CONTINUOUS
10
0.597883
20
0.514321
11
0.604933
21
0.516459
0
LINE
8
BLACK
6
CONTINUOUS
10
0.604933
20
0.516459
11
0.611431
21
0.519932
0
LINE
8
BLACK
6
CONTINUOUS
10
0.611431
20
0.519932
11
0.617126
21
0.524606
0
LINE
8
BLACK
6
CONTINUOUS
10
0.617126
20
0.524606
11
0.6218
21
0.530301
0
LINE
8
BLACK
6
CONTINUOUS
10
0.6218
20
0.530301
11
0.625273
21
0.536799
0
LINE
8
BLACK
6
CONTINUOUS
10
0.625273
20
0.536799
11
0.627412
21
0.543849
0
LINE
8
BLACK
6
CONTINUOUS
10
0.627412
20
0.543849
11
0.628134
21
0.551181
0
LINE
8
BLACK
6
CONTINUOUS
10
0.628134
20
0.551181
11
0.627412
21
0.558513
0
LINE
8
BLACK
6
CONTINUOUS
10
0.627412
20
0.558513
11
0.625273
21
0.565563
0
LINE
8
BLACK
6
CONTINUOUS
10
0.625273
20
0.565563
11
0.6218
21
0.572061
0
LINE
8
BLACK
6
CONTINUOUS
10
0.6218
20
0.572061
11
0.617126
21
0.577756
0
LINE
8
BLACK
6
CONTINUOUS
10
0.617126
20
0.577756
11
0.611431
21
0.58243
0
LINE
8
BLACK
6
CONTINUOUS
10
0.611431
20
0.58243
11
0.604933
21
0.585903
0
LINE
8
BLACK
6
CONTINUOUS
10
0.604933
20
0.585903
11
0.597883
21
0.588042
0
LINE
8
BLACK
6
CONTINUOUS
10
0.597883
20
0.588042
11
0.590551
21
0.588764
0
LINE
8
BLACK
6
CONTINUOUS
10
0.590551
20
0.588764
11
0.583219
21
0.588042
0
LINE
8
BLACK
6
CONTINUOUS
10
0.583219
20
0.588042
11
0.576169
21
0.585903
0
LINE
8
BLACK
6
CONTINUOUS
10
0.576169
20
0.585903
11
0.569671
21
0.58243
0
LINE
8
BLACK
6
CONTINUOUS
10
0.569671
20
0.58243
11
0.563976
21
0.577756
0
LINE
8
BLACK
6
CONTINUOUS
10
0.563976
20
0.577756
11
0.559302
21
0.572061
0
LINE
8
BLACK
6
CONTINUOUS
10
0.559302
20
0.572061
11
0.555829
21
0.565563
0
LINE
8
BLACK
6
CONTINUOUS
10
0.555829
20
0.565563
11
0.553691
21
0.558513
0
LINE
8
BLACK
6
CONTINUOUS
10
0.553691
20
0.558513
11
0.552969
21
0.551181
0
LINE
8
BLACK
6
CONTINUOUS
10
0.552969
20
0.551181
11
0.553691
21
0.543849
0
LINE
8
BLACK
6
CONTINUOUS
10
0.57033
20
0.806555
11
0.570906
21
0.805163
0
LINE
8
BLACK
6
CONTINUOUS
10
0.570906
20
0.805163
11
0.570906
21
0.771631
0
LINE
8
BLACK
6
CONTINUOUS
10
0.570906
20
0.771631
11
0.600438
21
0.771631
0
LINE
8
BLACK
6
CONTINUOUS
10
0.600438
20
0.771631
11
0.60183
21
0.771055
0
LINE
8
BLACK
6
CONTINUOUS
10
0.60183
20
0.771055
11
0.602406
21
0.769663
0
LINE
8
BLACK
6
CONTINUOUS
10
0.602406
20
0.769663
11
0.60183
21
0.768271
0
LINE
8
BLACK
6
CONTINUOUS
10
0.60183
20
0.768271
11
0.600438
21
0.767694
0
LINE
8
BLACK
6
CONTINUOUS
10
0.600438
20
0.767694
11
0.572569
21
0.767694
0
LINE
8
BLACK
6
CONTINUOUS
10
0.572569
20
0.767694
11
0.600087
21
0.725437
0
LINE
8
BLACK
6
CONTINUOUS
10
0.600087
20
0.725437
11
0.600191
21
0.724883
0
LINE
8
BLACK
6
CONTINUOUS
10
0.600191
20
0.724883
11
0.600406
21
0.724363
0
LINE
8
BLACK
6
CONTINUOUS
10
0.600406
20
0.724363
11
0.600325
21
0.724166
0
LINE
8
BLACK
6
CONTINUOUS
10
0.600325
20
0.724166
11
0.600364
21
0.723956
0
LINE
8
BLACK
6
CONTINUOUS
10
0.600364
20
0.723956
11
0.600045
21
0.723492
0
LINE
8
BLACK
6
CONTINUOUS
10
0.600045
20
0.723492
11
0.59983
21
0.722971
0
LINE
8
BLACK
6
CONTINUOUS
10
0.59983
20
0.722971
11
0.599633
21
0.722889
0
LINE
8
BLACK
6
CONTINUOUS
10
0.599633
20
0.722889
11
0.599512
21
0.722713
0
LINE
8
BLACK
6
CONTINUOUS
10
0.599512
20
0.722713
11
0.598958
21
0.72261
0
LINE
8
BLACK
6
CONTINUOUS
10
0.598958
20
0.72261
11
0.598438
21
0.722394
0
LINE
8
BLACK
6
CONTINUOUS
10
0.598438
20
0.722394
11
0.570906
21
0.722394
0
LINE
8
BLACK
6
CONTINUOUS
10
0.570906
20
0.722394
11
0.570906
21
0.685063
0
LINE
8
BLACK
6
CONTINUOUS
10
0.570906
20
0.685063
11
0.57033
21
0.683671
0
LINE
8
BLACK
6
CONTINUOUS
10
0.57033
20
0.683671
11
0.568938
21
0.683094
0
LINE
8
BLACK
6
CONTINUOUS
10
0.568938
20
0.683094
11
0.567546
21
0.683671
0
LINE
8
BLACK
6
CONTINUOUS
10
0.567546
20
0.683671
11
0.566969
21
0.685063
0
LINE
8
BLACK
6
CONTINUOUS
10
0.566969
20
0.685063
11
0.566969
21
0.722394
0
LINE
8
BLACK
6
CONTINUOUS
10
0.566969
20
0.722394
11
0.537438
21
0.722394
0
LINE
8
BLACK
6
CONTINUOUS
10
0.537438
20
0.722394
11
0.536892
21
0.722621
0
LINE
8
BLACK
6
CONTINUOUS
10
0.536892
20
0.722621
11
0.536314
21
0.722747
0
LINE
8
BLACK
6
CONTINUOUS
10
0.536314
20
0.722747
11
0.536215
21
0.722901
0
LINE
8
BLACK
6
CONTINUOUS
10
0.536215
20
0.722901
11
0.536046
21
0.722971
0
LINE
8
BLACK
6
CONTINUOUS
10
0.536046
20
0.722971
11
0.53582
21
0.723517
0
LINE
8
BLACK
6
CONTINUOUS
10
0.53582
20
0.723517
11
0.5355
21
0.724015
0
LINE
8
BLACK
6
CONTINUOUS
10
0.5355
20
0.724015
11
0.535539
21
0.724194
0
LINE
8
BLACK
6
CONTINUOUS
10
0.535539
20
0.724194
11
0.535469
21
0.724363
0
LINE
8
BLACK
6
CONTINUOUS
10
0.535469
20
0.724363
11
0.535696
21
0.724909
0
LINE
8
BLACK
6
CONTINUOUS
10
0.535696
20
0.724909
11
0.535822
21
0.725487
0
LINE
8
BLACK
6
CONTINUOUS
10
0.535822
20
0.725487
11
0.565171
21
0.767694
0
LINE
8
BLACK
6
CONTINUOUS
10
0.565171
20
0.767694
11
0.537438
21
0.767694
0
LINE
8
BLACK
6
CONTINUOUS
10
0.537438
20
0.767694
11
0.536046
21
0.768271
0
LINE
8
BLACK
6
CONTINUOUS
10
0.536046
20
0.768271
11
0.535469
21
0.769663
0
LINE
8
BLACK
6
CONTINUOUS
10
0.535469
20
0.769663
11
0.536046
21
0.771055
0
LINE
8
BLACK
6
CONTINUOUS
10
0.536046
20
0.771055
11
0.537438
21
0.771631
0
LINE
8
BLACK
6
CONTINUOUS
10
0.537438
20
0.771631
11
0.566969
21
0.771631
0
LINE
8
BLACK
6
CONTINUOUS
10
0.566969
20
0.771631
11
0.566969
21
0.805163
0
LINE
8
BLACK
6
CONTINUOUS
10
0.566969
20
0.805163
11
0.567546
21
0.806555
0
LINE
8
BLACK
6
CONTINUOUS
10
0.567546
20
0.806555
11
0.568938
21
0.807131
0
LINE
8
BLACK
6
CONTINUOUS
10
0.568938
20
0.807131
11
0.57033
21
0.806555
0
LINE
8
BLACK
6
CONTINUOUS
10
0.541204
20
0.726331
11
0.594807
21
0.726331
0
LINE
8
BLACK
6
CONTINUOUS
10
0.594807
20
0.726331
11
0.568884
21
0.766138
0
LINE
8
BLACK
6
CONTINUOUS
10
0.568884
20
0.766138
11
0.541204
21
0.726331
0
LINE
8
BLACK
6
CONTINUOUS
10
0.627953
20
0.836614
11
0.629345
21
0.836038
0
LINE
8
BLACK
6
CONTINUOUS
10
0.629345
20
0.836038
11
0.629921
21
0.834646
0
LINE
8
BLACK
6
CONTINUOUS
10
0.629921
20
0.834646
11
0.629921
21
0.653543
0
LINE
8
BLACK
6
CONTINUOUS
10
0.629921
20
0.653543
11
0.629345
21
0.652151
0
LINE
8
BLACK
6
CONTINUOUS
10
0.629345
20
0.652151
11
0.627953
21
0.651575
0
LINE
8
BLACK
6
CONTINUOUS
10
0.627953
20
0.651575
11
0.509843
21
0.651575
0
LINE
8
BLACK
6
CONTINUOUS
10
0.509843
20
0.651575
11
0.508451
21
0.652151
0
LINE
8
BLACK
6
CONTINUOUS
10
0.508451
20
0.652151
11
0.507874
21
0.653543
0
LINE
8
BLACK
6
CONTINUOUS
10
0.507874
20
0.653543
11
0.507874
21
0.834646
0
LINE
8
BLACK
6
CONTINUOUS
10
0.507874
20
0.834646
11
0.508451
21
0.836038
0
LINE
8
BLACK
6
CONTINUOUS
10
0.508451
20
0.836038
11
0.509843
21
0.836614
0
LINE
8
BLACK
6
CONTINUOUS
10
0.509843
20
0.836614
11
0.627953
21
0.836614
0
LINE
8
BLACK
6
CONTINUOUS
10
0.511811
20
0.832677
11
0.511811
21
0.655512
0
LINE
8
BLACK
6
CONTINUOUS
10
0.511811
20
0.655512
11
0.625984
21
0.655512
0
LINE
8
BLACK
6
CONTINUOUS
10
0.625984
20
0.655512
11
0.625984
21
0.832677
0
LINE
8
BLACK
6
CONTINUOUS
10
0.625984
20
0.832677
11
0.511811
21
0.832677
0
LINE
8
BLACK
6
CONTINUOUS
10
1.10464
20
0.746356
11
1.10558
21
0.745419
0
LINE
8
BLACK
6
CONTINUOUS
10
1.10558
20
0.745419
11
1.10567
21
0.745179
0
LINE
8
BLACK
6
CONTINUOUS
10
1.10567
20
0.745179
11
1.10587
21
0.74501
0
LINE
8
BLACK
6
CONTINUOUS
10
1.10587
20
0.74501
11
1.10681
21
0.743135
0
LINE
8
BLACK
6
CONTINUOUS
10
1.10681
20
0.743135
11
1.10683
21
0.742769
0
LINE
8
BLACK
6
CONTINUOUS
10
1.10683
20
0.742769
11
1.10697
21
0.742431
0
LINE
8
BLACK
6
CONTINUOUS
10
1.10697
20
0.742431
11
1.10697
21
0.736806
0
LINE
8
BLACK
6
CONTINUOUS
10
1.10697
20
0.736806
11
1.10683
21
0.736468
0
LINE
8
BLACK
6
CONTINUOUS
10
1.10683
20
0.736468
11
1.10681
21
0.736102
0
LINE
8
BLACK
6
CONTINUOUS
10
1.10681
20
0.736102
11
1.10587
21
0.734227
0
LINE
8
BLACK
6
CONTINUOUS
10
1.10587
20
0.734227
11
1.10567
21
0.734058
0
LINE
8
BLACK
6
CONTINUOUS
10
1.10567
20
0.734058
11
1.10558
21
0.733818
0
LINE
8
BLACK
6
CONTINUOUS
10
1.10558
20
0.733818
11
1.10464
21
0.732881
0
LINE
8
BLACK
6
CONTINUOUS
10
1.10464
20
0.732881
11
1.1044
21
0.732781
0
LINE
8
BLACK
6
CONTINUOUS
10
1.1044
20
0.732781
11
1.10423
21
0.732586
0
LINE
8
BLACK
6
CONTINUOUS
10
1.10423
20
0.732586
11
1.10235
21
0.731648
0
LINE
8
BLACK
6
CONTINUOUS
10
1.10235
20
0.731648
11
1.10199
21
0.731622
0
LINE
8
BLACK
6
CONTINUOUS
10
1.10199
20
0.731622
11
1.10165
21
0.731482
0
LINE
8
BLACK
6
CONTINUOUS
10
1.10165
20
0.731482
11
1.09696
21
0.731482
0
LINE
8
BLACK
6
CONTINUOUS
10
1.09696
20
0.731482
11
1.09662
21
0.731622
0
LINE
8
BLACK
6
CONTINUOUS
10
1.09662
20
0.731622
11
1.09626
21
0.731648
0
LINE
8
BLACK
6
CONTINUOUS
10
1.09626
20
0.731648
11
1.09438
21
0.732586
0
LINE
8
BLACK
6
CONTINUOUS
10
1.09438
20
0.732586
11
1.09421
21
0.732781
0
LINE
8
BLACK
6
CONTINUOUS
10
1.09421
20
0.732781
11
1.09397
21
0.732881
0
LINE
8
BLACK
6
CONTINUOUS
10
1.09397
20
0.732881
11
1.09304
21
0.733818
0
LINE
8
BLACK
6
CONTINUOUS
10
1.09304
20
0.733818
11
1.09294
21
0.734057
0
LINE
8
BLACK
6
CONTINUOUS
10
1.09294
20
0.734057
11
1.09274
21
0.734227
0
LINE
8
BLACK
6
CONTINUOUS
10
1.09274
20
0.734227
11
1.09181
21
0.736102
0
LINE
8
BLACK
6
CONTINUOUS
10
1.09181
20
0.736102
11
1.09179
21
0.736282
0
LINE
8
BLACK
6
CONTINUOUS
10
1.09179
20
0.736282
11
1.08675
21
0.731872
0
LINE
8
BLACK
6
CONTINUOUS
10
1.08675
20
0.731872
11
1.08623
21
0.731694
0
LINE
8
BLACK
6
CONTINUOUS
10
1.08623
20
0.731694
11
1.08571
21
0.731482
0
LINE
8
BLACK
6
CONTINUOUS
10
1.08571
20
0.731482
11
1.08566
21
0.731503
0
LINE
8
BLACK
6
CONTINUOUS
10
1.08566
20
0.731503
11
1.08561
21
0.731486
0
LINE
8
BLACK
6
CONTINUOUS
10
1.08561
20
0.731486
11
1.08511
21
0.731731
0
LINE
8
BLACK
6
CONTINUOUS
10
1.08511
20
0.731731
11
1.0846
21
0.731943
0
LINE
8
BLACK
6
CONTINUOUS
10
1.0846
20
0.731943
11
1.08458
21
0.731995
0
LINE
8
BLACK
6
CONTINUOUS
10
1.08458
20
0.731995
11
1.08453
21
0.73202
0
LINE
8
BLACK
6
CONTINUOUS
10
1.08453
20
0.73202
11
1.08435
21
0.732545
0
LINE
8
BLACK
6
CONTINUOUS
10
1.08435
20
0.732545
11
1.08414
21
0.733057
0
LINE
8
BLACK
6
CONTINUOUS
10
1.08414
20
0.733057
11
1.08414
21
0.745243
0
LINE
8
BLACK
6
CONTINUOUS
10
1.08414
20
0.745243
11
1.0846
21
0.746356
0
LINE
8
BLACK
6
CONTINUOUS
10
1.0846
20
0.746356
11
1.08571
21
0.746818
0
LINE
8
BLACK
6
CONTINUOUS
10
1.08571
20
0.746818
11
1.08683
21
0.746356
0
LINE
8
BLACK
6
CONTINUOUS
10
1.08683
20
0.746356
11
1.08729
21
0.745243
0
LINE
8
BLACK
6
CONTINUOUS
10
1.08729
20
0.745243
11
1.08729
21
0.736527
0
LINE
8
BLACK
6
CONTINUOUS
10
1.08729
20
0.736527
11
1.09218
21
0.740804
0
LINE
8
BLACK
6
CONTINUOUS
10
1.09218
20
0.740804
11
1.0927
21
0.740981
0
LINE
8
BLACK
6
CONTINUOUS
10
1.0927
20
0.740981
11
1.09321
21
0.741193
0
LINE
8
BLACK
6
CONTINUOUS
10
1.09321
20
0.741193
11
1.09327
21
0.741172
0
LINE
8
BLACK
6
CONTINUOUS
10
1.09327
20
0.741172
11
1.09332
21
0.74119
0
LINE
8
BLACK
6
CONTINUOUS
10
1.09332
20
0.74119
11
1.09382
21
0.740944
0
LINE
8
BLACK
6
CONTINUOUS
10
1.09382
20
0.740944
11
1.09433
21
0.740732
0
LINE
8
BLACK
6
CONTINUOUS
10
1.09433
20
0.740732
11
1.09435
21
0.74068
0
LINE
8
BLACK
6
CONTINUOUS
10
1.09435
20
0.74068
11
1.0944
21
0.740656
0
LINE
8
BLACK
6
CONTINUOUS
10
1.0944
20
0.740656
11
1.09458
21
0.740131
0
LINE
8
BLACK
6
CONTINUOUS
10
1.09458
20
0.740131
11
1.09479
21
0.739619
0
LINE
8
BLACK
6
CONTINUOUS
10
1.09479
20
0.739619
11
1.09479
21
0.737178
0
LINE
8
BLACK
6
CONTINUOUS
10
1.09479
20
0.737178
11
1.09545
21
0.735864
0
LINE
8
BLACK
6
CONTINUOUS
10
1.09545
20
0.735864
11
1.09602
21
0.735289
0
LINE
8
BLACK
6
CONTINUOUS
10
1.09602
20
0.735289
11
1.09733
21
0.734632
0
LINE
8
BLACK
6
CONTINUOUS
10
1.09733
20
0.734632
11
1.10128
21
0.734632
0
LINE
8
BLACK
6
CONTINUOUS
10
1.10128
20
0.734632
11
1.10259
21
0.735289
0
LINE
8
BLACK
6
CONTINUOUS
10
1.10259
20
0.735289
11
1.10317
21
0.735864
0
LINE
8
BLACK
6
CONTINUOUS
10
1.10317
20
0.735864
11
1.10382
21
0.737178
0
LINE
8
BLACK
6
CONTINUOUS
10
1.10382
20
0.737178
11
1.10382
21
0.742059
0
LINE
8
BLACK
6
CONTINUOUS
10
1.10382
20
0.742059
11
1.10317
21
0.743373
0
LINE
8
BLACK
6
CONTINUOUS
10
1.10317
20
0.743373
11
1.10241
21
0.744129
0
LINE
8
BLACK
6
CONTINUOUS
10
1.10241
20
0.744129
11
1.10195
21
0.745243
0
LINE
8
BLACK
6
CONTINUOUS
10
1.10195
20
0.745243
11
1.10241
21
0.746356
0
LINE
8
BLACK
6
CONTINUOUS
10
1.10241
20
0.746356
11
1.10352
21
0.746818
0
LINE
8
BLACK
6
CONTINUOUS
10
1.10352
20
0.746818
11
1.10464
21
0.746356
0
LINE
8
BLACK
6
CONTINUOUS
10
1.10651
20
0.764167
11
1.10697
21
0.763053
0
LINE
8
BLACK
6
CONTINUOUS
10
1.10697
20
0.763053
11
1.10651
21
0.76194
0
LINE
8
BLACK
6
CONTINUOUS
10
1.10651
20
0.76194
11
1.1054
21
0.761478
0
LINE
8
BLACK
6
CONTINUOUS
10
1.1054
20
0.761478
11
1.0976
21
0.761478
0
LINE
8
BLACK
6
CONTINUOUS
10
1.0976
20
0.761478
11
1.0976
21
0.759186
0
LINE
8
BLACK
6
CONTINUOUS
10
1.0976
20
0.759186
11
1.1063
21
0.753095
0
LINE
8
BLACK
6
CONTINUOUS
10
1.1063
20
0.753095
11
1.10695
21
0.752078
0
LINE
8
BLACK
6
CONTINUOUS
10
1.10695
20
0.752078
11
1.10669
21
0.750901
0
LINE
8
BLACK
6
CONTINUOUS
10
1.10669
20
0.750901
11
1.10567
21
0.750254
0
LINE
8
BLACK
6
CONTINUOUS
10
1.10567
20
0.750254
11
1.1045
21
0.750514
0
LINE
8
BLACK
6
CONTINUOUS
10
1.1045
20
0.750514
11
1.09753
21
0.755389
0
LINE
8
BLACK
6
CONTINUOUS
10
1.09753
20
0.755389
11
1.09746
21
0.755215
0
LINE
8
BLACK
6
CONTINUOUS
10
1.09746
20
0.755215
11
1.09743
21
0.75485
0
LINE
8
BLACK
6
CONTINUOUS
10
1.09743
20
0.75485
11
1.0965
21
0.752975
0
LINE
8
BLACK
6
CONTINUOUS
10
1.0965
20
0.752975
11
1.0963
21
0.752805
0
LINE
8
BLACK
6
CONTINUOUS
10
1.0963
20
0.752805
11
1.0962
21
0.752566
0
LINE
8
BLACK
6
CONTINUOUS
10
1.0962
20
0.752566
11
1.09526
21
0.751628
0
LINE
8
BLACK
6
CONTINUOUS
10
1.09526
20
0.751628
11
1.09502
21
0.751529
0
LINE
8
BLACK
6
CONTINUOUS
10
1.09502
20
0.751529
11
1.09486
21
0.751333
0
LINE
8
BLACK
6
CONTINUOUS
10
1.09486
20
0.751333
11
1.09298
21
0.750396
0
LINE
8
BLACK
6
CONTINUOUS
10
1.09298
20
0.750396
11
1.09261
21
0.75037
0
LINE
8
BLACK
6
CONTINUOUS
10
1.09261
20
0.75037
11
1.09228
21
0.75023
0
LINE
8
BLACK
6
CONTINUOUS
10
1.09228
20
0.75023
11
1.08946
21
0.75023
0
LINE
8
BLACK
6
CONTINUOUS
10
1.08946
20
0.75023
11
1.08913
21
0.75037
0
LINE
8
BLACK
6
CONTINUOUS
10
1.08913
20
0.75037
11
1.08876
21
0.750396
0
LINE
8
BLACK
6
CONTINUOUS
10
1.08876
20
0.750396
11
1.08689
21
0.751333
0
LINE
8
BLACK
6
CONTINUOUS
10
1.08689
20
0.751333
11
1.08672
21
0.751529
0
LINE
8
BLACK
6
CONTINUOUS
10
1.08672
20
0.751529
11
1.08648
21
0.751628
0
LINE
8
BLACK
6
CONTINUOUS
10
1.08648
20
0.751628
11
1.08554
21
0.752566
0
LINE
8
BLACK
6
CONTINUOUS
10
1.08554
20
0.752566
11
1.08544
21
0.752805
0
LINE
8
BLACK
6
CONTINUOUS
10
1.08544
20
0.752805
11
1.08524
21
0.752975
0
LINE
8
BLACK
6
CONTINUOUS
10
1.08524
20
0.752975
11
1.08431
21
0.75485
0
LINE
8
BLACK
6
CONTINUOUS
10
1.08431
20
0.75485
11
1.08428
21
0.755215
0
LINE
8
BLACK
6
CONTINUOUS
10
1.08428
20
0.755215
11
1.08414
21
0.755554
0
LINE
8
BLACK
6
CONTINUOUS
10
1.08414
20
0.755554
11
1.08414
21
0.763053
0
LINE
8
BLACK
6
CONTINUOUS
10
1.08414
20
0.763053
11
1.0846
21
0.764167
0
LINE
8
BLACK
6
CONTINUOUS
10
1.0846
20
0.764167
11
1.08571
21
0.764628
0
LINE
8
BLACK
6
CONTINUOUS
10
1.08571
20
0.764628
11
1.1054
21
0.764628
0
LINE
8
BLACK
6
CONTINUOUS
10
1.1054
20
0.764628
11
1.10651
21
0.764167
0
LINE
8
BLACK
6
CONTINUOUS
10
1.08729
20
0.755926
11
1.08795
21
0.754612
0
LINE
8
BLACK
6
CONTINUOUS
10
1.08795
20
0.754612
11
1.08852
21
0.754036
0
LINE
8
BLACK
6
CONTINUOUS
10
1.08852
20
0.754036
11
1.08984
21
0.753379
0
LINE
8
BLACK
6
CONTINUOUS
10
1.08984
20
0.753379
11
1.0919
21
0.753379
0
LINE
8
BLACK
6
CONTINUOUS
10
1.0919
20
0.753379
11
1.09322
21
0.754036
0
LINE
8
BLACK
6
CONTINUOUS
10
1.09322
20
0.754036
11
1.09379
21
0.754612
0
LINE
8
BLACK
6
CONTINUOUS
10
1.09379
20
0.754612
11
1.09445
21
0.755926
0
LINE
8
BLACK
6
CONTINUOUS
10
1.09445
20
0.755926
11
1.09445
21
0.761478
0
LINE
8
BLACK
6
CONTINUOUS
10
1.09445
20
0.761478
11
1.08729
21
0.761478
0
LINE
8
BLACK
6
CONTINUOUS
10
1.08729
20
0.761478
11
1.08729
21
0.755926
0
LINE
8
BLACK
6
CONTINUOUS
10
1.12106
20
0.789862
11
1.12245
21
0.789286
0
LINE
8
BLACK
6
CONTINUOUS
10
1.12245
20
0.789286
11
1.12303
21
0.787894
0
LINE
8
BLACK
6
CONTINUOUS
10
1.12303
20
0.787894
11
1.12303
21
0.709154
0
LINE
8
BLACK
6
CONTINUOUS
10
1.12303
20
0.709154
11
1.12245
21
0.707762
0
LINE
8
BLACK
6
CONTINUOUS
10
1.12245
20
0.707762
11
1.12106
21
0.707185
0
LINE
8
BLACK
6
CONTINUOUS
10
1.12106
20
0.707185
11
1.07185
21
0.707185
0
LINE
8
BLACK
6
CONTINUOUS
10
1.07185
20
0.707185
11
1.07046
21
0.707762
0
LINE
8
BLACK
6
CONTINUOUS
10
1.07046
20
0.707762
11
1.06988
21
0.709154
0
LINE
8
BLACK
6
CONTINUOUS
10
1.06988
20
0.709154
11
1.06988
21
0.787894
0
LINE
8
BLACK
6
CONTINUOUS
10
1.06988
20
0.787894
11
1.07046
21
0.789286
0
LINE
8
BLACK
6
CONTINUOUS
10
1.07046
20
0.789286
11
1.07185
21
0.789862
0
LINE
8
BLACK
6
CONTINUOUS
10
1.07185
20
0.789862
11
1.12106
21
0.789862
0
LINE
8
BLACK
6
CONTINUOUS
10
1.07382
20
0.785925
11
1.07382
21
0.711122
0
LINE
8
BLACK
6
CONTINUOUS
10
1.07382
20
0.711122
11
1.11909
21
0.711122
0
LINE
8
BLACK
6
CONTINUOUS
10
1.11909
20
0.711122
11
1.11909
21
0.785925
0
LINE
8
BLACK
6
CONTINUOUS
10
1.11909
20
0.785925
11
1.07382
21
0.785925
0
LINE
8
BLACK
6
CONTINUOUS
10
0.462016
20
0.73803
11
0.463129
21
0.736344
0
LINE
8
BLACK
6
CONTINUOUS
10
0.463129
20
0.736344
11
0.462898
21
0.734338
0
LINE
8
BLACK
6
CONTINUOUS
10
0.462898
20
0.734338
11
0.461023
21
0.730588
0
LINE
8
BLACK
6
CONTINUOUS
10
0.461023
20
0.730588
11
0.460498
21
0.729879
0
LINE
8
BLACK
6
CONTINUOUS
10
0.460498
20
0.729879
11
0.46047
21
0.729821
0
LINE
8
BLACK
6
CONTINUOUS
10
0.46047
20
0.729821
11
0.458012
21
0.727362
0
LINE
8
BLACK
6
CONTINUOUS
10
0.458012
20
0.727362
11
0.485426
21
0.727362
0
LINE
8
BLACK
6
CONTINUOUS
10
0.485426
20
0.727362
11
0.485426
21
0.735658
0
LINE
8
BLACK
6
CONTINUOUS
10
0.485426
20
0.735658
11
0.485604
21
0.736668
0
LINE
8
BLACK
6
CONTINUOUS
10
0.485604
20
0.736668
11
0.486902
21
0.738215
0
LINE
8
BLACK
6
CONTINUOUS
10
0.486902
20
0.738215
11
0.488891
21
0.738566
0
LINE
8
BLACK
6
CONTINUOUS
10
0.488891
20
0.738566
11
0.490641
21
0.737556
0
LINE
8
BLACK
6
CONTINUOUS
10
0.490641
20
0.737556
11
0.491331
21
0.735658
0
LINE
8
BLACK
6
CONTINUOUS
10
0.491331
20
0.735658
11
0.491331
21
0.713161
0
LINE
8
BLACK
6
CONTINUOUS
10
0.491331
20
0.713161
11
0.491153
21
0.712151
0
LINE
8
BLACK
6
CONTINUOUS
10
0.491153
20
0.712151
11
0.489855
21
0.710604
0
LINE
8
BLACK
6
CONTINUOUS
10
0.489855
20
0.710604
11
0.487866
21
0.710253
0
LINE
8
BLACK
6
CONTINUOUS
10
0.487866
20
0.710253
11
0.486117
21
0.711263
0
LINE
8
BLACK
6
CONTINUOUS
10
0.486117
20
0.711263
11
0.485426
21
0.713161
0
LINE
8
BLACK
6
CONTINUOUS
10
0.485426
20
0.713161
11
0.485426
21
0.721457
0
LINE
8
BLACK
6
CONTINUOUS
10
0.485426
20
0.721457
11
0.449009
21
0.721457
0
LINE
8
BLACK
6
CONTINUOUS
10
0.449009
20
0.721457
11
0.447999
21
0.721635
0
LINE
8
BLACK
6
CONTINUOUS
10
0.447999
20
0.721635
11
0.447869
21
0.721744
0
LINE
8
BLACK
6
CONTINUOUS
10
0.447869
20
0.721744
11
0.4477
21
0.721763
0
LINE
8
BLACK
6
CONTINUOUS
10
0.4477
20
0.721763
11
0.447108
21
0.722382
0
LINE
8
BLACK
6
CONTINUOUS
10
0.447108
20
0.722382
11
0.446451
21
0.722933
0
LINE
8
BLACK
6
CONTINUOUS
10
0.446451
20
0.722933
11
0.446422
21
0.7231
0
LINE
8
BLACK
6
CONTINUOUS
10
0.446422
20
0.7231
11
0.446305
21
0.723223
0
LINE
8
BLACK
6
CONTINUOUS
10
0.446305
20
0.723223
11
0.44625
21
0.724078
0
LINE
8
BLACK
6
CONTINUOUS
10
0.44625
20
0.724078
11
0.446101
21
0.724922
0
LINE
8
BLACK
6
CONTINUOUS
10
0.446101
20
0.724922
11
0.446186
21
0.725069
0
LINE
8
BLACK
6
CONTINUOUS
10
0.446186
20
0.725069
11
0.446175
21
0.725239
0
LINE
8
BLACK
6
CONTINUOUS
10
0.446175
20
0.725239
11
0.446682
21
0.725929
0
LINE
8
BLACK
6
CONTINUOUS
10
0.446682
20
0.725929
11
0.447111
21
0.726671
0
LINE
8
BLACK
6
CONTINUOUS
10
0.447111
20
0.726671
11
0.44727
21
0.726729
0
LINE
8
BLACK
6
CONTINUOUS
10
0.44727
20
0.726729
11
0.447371
21
0.726866
0
LINE
8
BLACK
6
CONTINUOUS
10
0.447371
20
0.726866
11
0.452752
21
0.730454
0
LINE
8
BLACK
6
CONTINUOUS
10
0.452752
20
0.730454
11
0.455956
21
0.733658
0
LINE
8
BLACK
6
CONTINUOUS
10
0.455956
20
0.733658
11
0.457616
21
0.736979
0
LINE
8
BLACK
6
CONTINUOUS
10
0.457616
20
0.736979
11
0.458227
21
0.737802
0
LINE
8
BLACK
6
CONTINUOUS
10
0.458227
20
0.737802
11
0.46008
21
0.738605
0
LINE
8
BLACK
6
CONTINUOUS
10
0.46008
20
0.738605
11
0.462016
21
0.73803
0
LINE
8
BLACK
6
CONTINUOUS
10
0.782729
20
0.785751
11
0.782908
21
0.785787
0
LINE
8
BLACK
6
CONTINUOUS
10
0.782908
20
0.785787
11
0.783337
21
0.7855
0
LINE
8
BLACK
6
CONTINUOUS
10
0.783337
20
0.7855
11
0.783814
21
0.785302
0
LINE
8
BLACK
6
CONTINUOUS
10
0.783814
20
0.785302
11
0.783883
21
0.785134
0
LINE
8
BLACK
6
CONTINUOUS
10
0.783883
20
0.785134
11
0.784035
21
0.785032
0
LINE
8
BLACK
6
CONTINUOUS
10
0.784035
20
0.785032
11
0.786262
21
0.781691
0
LINE
8
BLACK
6
CONTINUOUS
10
0.786262
20
0.781691
11
0.78826
21
0.779694
0
LINE
8
BLACK
6
CONTINUOUS
10
0.78826
20
0.779694
11
0.790327
21
0.77866
0
LINE
8
BLACK
6
CONTINUOUS
10
0.790327
20
0.77866
11
0.791216
21
0.777636
0
LINE
8
BLACK
6
CONTINUOUS
10
0.791216
20
0.777636
11
0.79112
21
0.776283
0
LINE
8
BLACK
6
CONTINUOUS
10
0.79112
20
0.776283
11
0.790095
21
0.775395
0
LINE
8
BLACK
6
CONTINUOUS
10
0.790095
20
0.775395
11
0.788743
21
0.775491
0
LINE
8
BLACK
6
CONTINUOUS
10
0.788743
20
0.775491
11
0.786418
21
0.776653
0
LINE
8
BLACK
6
CONTINUOUS
10
0.786418
20
0.776653
11
0.786227
21
0.776873
0
LINE
8
BLACK
6
CONTINUOUS
10
0.786227
20
0.776873
11
0.785958
21
0.776985
0
LINE
8
BLACK
6
CONTINUOUS
10
0.785958
20
0.776985
11
0.784333
21
0.77861
0
LINE
8
BLACK
6
CONTINUOUS
10
0.784333
20
0.77861
11
0.784333
21
0.761412
0
LINE
8
BLACK
6
CONTINUOUS
10
0.784333
20
0.761412
11
0.789535
21
0.761412
0
LINE
8
BLACK
6
CONTINUOUS
10
0.789535
20
0.761412
11
0.790788
21
0.760893
0
LINE
8
BLACK
6
CONTINUOUS
10
0.790788
20
0.760893
11
0.791307
21
0.75964
0
LINE
8
BLACK
6
CONTINUOUS
10
0.791307
20
0.75964
11
0.790788
21
0.758387
0
LINE
8
BLACK
6
CONTINUOUS
10
0.790788
20
0.758387
11
0.789535
21
0.757868
0
LINE
8
BLACK
6
CONTINUOUS
10
0.789535
20
0.757868
11
0.782561
21
0.757868
0
LINE
8
BLACK
6
CONTINUOUS
10
0.782561
20
0.757868
11
0.775587
21
0.757868
0
LINE
8
BLACK
6
CONTINUOUS
10
0.775587
20
0.757868
11
0.774334
21
0.758387
0
LINE
8
BLACK
6
CONTINUOUS
10
0.774334
20
0.758387
11
0.773815
21
0.75964
0
LINE
8
BLACK
6
CONTINUOUS
10
0.773815
20
0.75964
11
0.774334
21
0.760893
0
LINE
8
BLACK
6
CONTINUOUS
10
0.774334
20
0.760893
11
0.775587
21
0.761412
0
LINE
8
BLACK
6
CONTINUOUS
10
0.775587
20
0.761412
11
0.780789
21
0.761412
0
LINE
8
BLACK
6
CONTINUOUS
10
0.780789
20
0.761412
11
0.780789
21
0.784049
0
LINE
8
BLACK
6
CONTINUOUS
10
0.780789
20
0.784049
11
0.780859
21
0.784218
0
LINE
8
BLACK
6
CONTINUOUS
10
0.780859
20
0.784218
11
0.780824
21
0.784397
0
LINE
8
BLACK
6
CONTINUOUS
10
0.780824
20
0.784397
11
0.781111
21
0.784826
0
LINE
8
BLACK
6
CONTINUOUS
10
0.781111
20
0.784826
11
0.781308
21
0.785302
0
LINE
8
BLACK
6
CONTINUOUS
10
0.781308
20
0.785302
11
0.781477
21
0.785372
0
LINE
8
BLACK
6
CONTINUOUS
10
0.781477
20
0.785372
11
0.781578
21
0.785524
0
LINE
8
BLACK
6
CONTINUOUS
10
0.781578
20
0.785524
11
0.782084
21
0.785624
0
LINE
8
BLACK
6
CONTINUOUS
10
0.782084
20
0.785624
11
0.782561
21
0.785821
0
LINE
8
BLACK
6
CONTINUOUS
10
0.782561
20
0.785821
11
0.782729
21
0.785751
0
LINE
8
BLACK
6
CONTINUOUS
10
0.809385
20
0.785302
11
0.809904
21
0.784049
0
LINE
8
BLACK
6
CONTINUOUS
10
0.809904
20
0.784049
11
0.809904
21
0.75964
0
LINE
8
BLACK
6
CONTINUOUS
10
0.809904
20
0.75964
11
0.809385
21
0.758387
0
LINE
8
BLACK
6
CONTINUOUS
10
0.809385
20
0.758387
11
0.808133
21
0.757868
0
LINE
8
BLACK
6
CONTINUOUS
10
0.808133
20
0.757868
11
0.796509
21
0.757868
0
LINE
8
BLACK
6
CONTINUOUS
10
0.796509
20
0.757868
11
0.795256
21
0.758387
0
LINE
8
BLACK
6
CONTINUOUS
10
0.795256
20
0.758387
11
0.794737
21
0.75964
0
LINE
8
BLACK
6
CONTINUOUS
10
0.794737
20
0.75964
11
0.795256
21
0.760893
0
LINE
8
BLACK
6
CONTINUOUS
10
0.795256
20
0.760893
11
0.796509
21
0.761412
0
LINE
8
BLACK
6
CONTINUOUS
10
0.796509
20
0.761412
11
0.806361
21
0.761412
0
LINE
8
BLACK
6
CONTINUOUS
10
0.806361
20
0.761412
11
0.806361
21
0.784049
0
LINE
8
BLACK
6
CONTINUOUS
10
0.806361
20
0.784049
11
0.80688
21
0.785302
0
LINE
8
BLACK
6
CONTINUOUS
10
0.80688
20
0.785302
11
0.808133
21
0.785821
0
LINE
8
BLACK
6
CONTINUOUS
10
0.808133
20
0.785821
11
0.809385
21
0.785302
0
LINE
8
BLACK
6
CONTINUOUS
10
0.841654
20
0.812087
11
0.843045
21
0.81151
0
LINE
8
BLACK
6
CONTINUOUS
10
0.843045
20
0.81151
11
0.843622
21
0.810118
0
LINE
8
BLACK
6
CONTINUOUS
10
0.843622
20
0.810118
11
0.843622
21
0.731378
0
LINE
8
BLACK
6
CONTINUOUS
10
0.843622
20
0.731378
11
0.843045
21
0.729986
0
LINE
8
BLACK
6
CONTINUOUS
10
0.843045
20
0.729986
11
0.841654
21
0.729409
0
LINE
8
BLACK
6
CONTINUOUS
10
0.841654
20
0.729409
11
0.743228
21
0.729409
0
LINE
8
BLACK
6
CONTINUOUS
10
0.743228
20
0.729409
11
0.741836
21
0.729986
0
LINE
8
BLACK
6
CONTINUOUS
10
0.741836
20
0.729986
11
0.74126
21
0.731378
0
LINE
8
BLACK
6
CONTINUOUS
10
0.74126
20
0.731378
11
0.74126
21
0.731378
0
LINE
8
BLACK
6
CONTINUOUS
10
0.74126
20
0.731378
11
0.74126
21
0.810118
0
LINE
8
BLACK
6
CONTINUOUS
10
0.74126
20
0.810118
11
0.741836
21
0.81151
0
LINE
8
BLACK
6
CONTINUOUS
10
0.741836
20
0.81151
11
0.743228
21
0.812087
0
LINE
8
BLACK
6
CONTINUOUS
10
0.743228
20
0.812087
11
0.841654
21
0.812087
0
LINE
8
BLACK
6
CONTINUOUS
10
0.745197
20
0.80815
11
0.745197
21
0.733346
0
LINE
8
BLACK
6
CONTINUOUS
10
0.745197
20
0.733346
11
0.839685
21
0.733346
0
LINE
8
BLACK
6
CONTINUOUS
10
0.839685
20
0.733346
11
0.839685
21
0.80815
0
LINE
8
BLACK
6
CONTINUOUS
10
0.839685
20
0.80815
11
0.745197
21
0.80815
0
LINE
8
BLACK
6
CONTINUOUS
10
0.488762
20
0.776039
11
0.488891
21
0.776061
0
LINE
8
BLACK
6
CONTINUOUS
10
0.488891
20
0.776061
11
0.489005
21
0.775996
0
LINE
8
BLACK
6
CONTINUOUS
10
0.489005
20
0.775996
11
0.489389
21
0.775928
0
LINE
8
BLACK
6
CONTINUOUS
10
0.489389
20
0.775928
11
0.489976
21
0.775435
0
LINE
8
BLACK
6
CONTINUOUS
10
0.489976
20
0.775435
11
0.490641
21
0.775051
0
LINE
8
BLACK
6
CONTINUOUS
10
0.490641
20
0.775051
11
0.490732
21
0.774801
0
LINE
8
BLACK
6
CONTINUOUS
10
0.490732
20
0.774801
11
0.490936
21
0.77463
0
LINE
8
BLACK
6
CONTINUOUS
10
0.490936
20
0.77463
11
0.491069
21
0.773874
0
LINE
8
BLACK
6
CONTINUOUS
10
0.491069
20
0.773874
11
0.491331
21
0.773153
0
LINE
8
BLACK
6
CONTINUOUS
10
0.491331
20
0.773153
11
0.491331
21
0.76378
0
LINE
8
BLACK
6
CONTINUOUS
10
0.491331
20
0.76378
11
0.491178
21
0.76291
0
LINE
8
BLACK
6
CONTINUOUS
10
0.491178
20
0.76291
11
0.49118
21
0.762846
0
LINE
8
BLACK
6
CONTINUOUS
10
0.49118
20
0.762846
11
0.489305
21
0.757221
0
LINE
8
BLACK
6
CONTINUOUS
10
0.489305
20
0.757221
11
0.488817
21
0.75632
0
LINE
8
BLACK
6
CONTINUOUS
10
0.488817
20
0.75632
11
0.488666
21
0.756227
0
LINE
8
BLACK
6
CONTINUOUS
10
0.488666
20
0.756227
11
0.488592
21
0.756067
0
LINE
8
BLACK
6
CONTINUOUS
10
0.488592
20
0.756067
11
0.484842
21
0.752318
0
LINE
8
BLACK
6
CONTINUOUS
10
0.484842
20
0.752318
11
0.484119
21
0.751811
0
LINE
8
BLACK
6
CONTINUOUS
10
0.484119
20
0.751811
11
0.484075
21
0.751765
0
LINE
8
BLACK
6
CONTINUOUS
10
0.484075
20
0.751765
11
0.480325
21
0.74989
0
LINE
8
BLACK
6
CONTINUOUS
10
0.480325
20
0.74989
11
0.479837
21
0.749745
0
LINE
8
BLACK
6
CONTINUOUS
10
0.479837
20
0.749745
11
0.479721
21
0.749666
0
LINE
8
BLACK
6
CONTINUOUS
10
0.479721
20
0.749666
11
0.472222
21
0.747792
0
LINE
8
BLACK
6
CONTINUOUS
10
0.472222
20
0.747792
11
0.471634
21
0.74775
0
LINE
8
BLACK
6
CONTINUOUS
10
0.471634
20
0.74775
11
0.471506
21
0.747703
0
LINE
8
BLACK
6
CONTINUOUS
10
0.471506
20
0.747703
11
0.465881
21
0.747703
0
LINE
8
BLACK
6
CONTINUOUS
10
0.465881
20
0.747703
11
0.465301
21
0.747806
0
LINE
8
BLACK
6
CONTINUOUS
10
0.465301
20
0.747806
11
0.465165
21
0.747792
0
LINE
8
BLACK
6
CONTINUOUS
10
0.465165
20
0.747792
11
0.457666
21
0.749666
0
LINE
8
BLACK
6
CONTINUOUS
10
0.457666
20
0.749666
11
0.457201
21
0.749874
0
LINE
8
BLACK
6
CONTINUOUS
10
0.457201
20
0.749874
11
0.457062
21
0.74989
0
LINE
8
BLACK
6
CONTINUOUS
10
0.457062
20
0.74989
11
0.453312
21
0.751765
0
LINE
8
BLACK
6
CONTINUOUS
10
0.453312
20
0.751765
11
0.452603
21
0.752291
0
LINE
8
BLACK
6
CONTINUOUS
10
0.452603
20
0.752291
11
0.452545
21
0.752318
0
LINE
8
BLACK
6
CONTINUOUS
10
0.452545
20
0.752318
11
0.448795
21
0.756067
0
LINE
8
BLACK
6
CONTINUOUS
10
0.448795
20
0.756067
11
0.448207
21
0.756907
0
LINE
8
BLACK
6
CONTINUOUS
10
0.448207
20
0.756907
11
0.448192
21
0.757083
0
LINE
8
BLACK
6
CONTINUOUS
10
0.448192
20
0.757083
11
0.448082
21
0.757221
0
LINE
8
BLACK
6
CONTINUOUS
10
0.448082
20
0.757221
11
0.446207
21
0.762846
0
LINE
8
BLACK
6
CONTINUOUS
10
0.446207
20
0.762846
11
0.446078
21
0.763719
0
LINE
8
BLACK
6
CONTINUOUS
10
0.446078
20
0.763719
11
0.446056
21
0.76378
0
LINE
8
BLACK
6
CONTINUOUS
10
0.446056
20
0.76378
11
0.446056
21
0.773153
0
LINE
8
BLACK
6
CONTINUOUS
10
0.446056
20
0.773153
11
0.446123
21
0.773537
0
LINE
8
BLACK
6
CONTINUOUS
10
0.446123
20
0.773537
11
0.446101
21
0.773666
0
LINE
8
BLACK
6
CONTINUOUS
10
0.446101
20
0.773666
11
0.446166
21
0.77378
0
LINE
8
BLACK
6
CONTINUOUS
10
0.446166
20
0.77378
11
0.446234
21
0.774163
0
LINE
8
BLACK
6
CONTINUOUS
10
0.446234
20
0.774163
11
0.446727
21
0.774751
0
LINE
8
BLACK
6
CONTINUOUS
10
0.446727
20
0.774751
11
0.447111
21
0.775415
0
LINE
8
BLACK
6
CONTINUOUS
10
0.447111
20
0.775415
11
0.447361
21
0.775506
0
LINE
8
BLACK
6
CONTINUOUS
10
0.447361
20
0.775506
11
0.447532
21
0.775711
0
LINE
8
BLACK
6
CONTINUOUS
10
0.447532
20
0.775711
11
0.448288
21
0.775844
0
LINE
8
BLACK
6
CONTINUOUS
10
0.448288
20
0.775844
11
0.449009
21
0.776106
0
LINE
8
BLACK
6
CONTINUOUS
10
0.449009
20
0.776106
11
0.488379
21
0.776106
0
LINE
8
BLACK
6
CONTINUOUS
10
0.488379
20
0.776106
11
0.488762
21
0.776039
0
LINE
8
BLACK
6
CONTINUOUS
10
0.451961
20
0.764259
11
0.453464
21
0.75975
0
LINE
8
BLACK
6
CONTINUOUS
10
0.453464
20
0.75975
11
0.456382
21
0.756832
0
LINE
8
BLACK
6
CONTINUOUS
10
0.456382
20
0.756832
11
0.459413
21
0.755317
0
LINE
8
BLACK
6
CONTINUOUS
10
0.459413
20
0.755317
11
0.466245
21
0.753609
0
LINE
8
BLACK
6
CONTINUOUS
10
0.466245
20
0.753609
11
0.471142
21
0.753609
0
LINE
8
BLACK
6
CONTINUOUS
10
0.471142
20
0.753609
11
0.477974
21
0.755317
0
LINE
8
BLACK
6
CONTINUOUS
10
0.477974
20
0.755317
11
0.481005
21
0.756832
0
LINE
8
BLACK
6
CONTINUOUS
10
0.481005
20
0.756832
11
0.483923
21
0.75975
0
LINE
8
BLACK
6
CONTINUOUS
10
0.483923
20
0.75975
11
0.485426
21
0.764259
0
LINE
8
BLACK
6
CONTINUOUS
10
0.485426
20
0.764259
11
0.485426
21
0.770201
0
LINE
8
BLACK
6
CONTINUOUS
10
0.485426
20
0.770201
11
0.451961
21
0.770201
0
LINE
8
BLACK
6
CONTINUOUS
10
0.451961
20
0.770201
11
0.451961
21
0.764259
0
LINE
8
BLACK
6
CONTINUOUS
10
0.970274
20
0.806147
11
0.970735
21
0.805034
0
LINE
8
BLACK
6
CONTINUOUS
10
0.970735
20
0.805034
11
0.970274
21
0.80392
0
LINE
8
BLACK
6
CONTINUOUS
10
0.970274
20
0.80392
11
0.96916
21
0.803459
0
LINE
8
BLACK
6
CONTINUOUS
10
0.96916
20
0.803459
11
0.960445
21
0.803459
0
LINE
8
BLACK
6
CONTINUOUS
10
0.960445
20
0.803459
11
0.964721
21
0.798571
0
LINE
8
BLACK
6
CONTINUOUS
10
0.964721
20
0.798571
11
0.964898
21
0.798047
0
LINE
8
BLACK
6
CONTINUOUS
10
0.964898
20
0.798047
11
0.965111
21
0.797534
0
LINE
8
BLACK
6
CONTINUOUS
10
0.965111
20
0.797534
11
0.965089
21
0.797483
0
LINE
8
BLACK
6
CONTINUOUS
10
0.965089
20
0.797483
11
0.965107
21
0.79743
0
LINE
8
BLACK
6
CONTINUOUS
10
0.965107
20
0.79743
11
0.964861
21
0.796933
0
LINE
8
BLACK
6
CONTINUOUS
10
0.964861
20
0.796933
11
0.964649
21
0.796421
0
LINE
8
BLACK
6
CONTINUOUS
10
0.964649
20
0.796421
11
0.964598
21
0.796399
0
LINE
8
BLACK
6
CONTINUOUS
10
0.964598
20
0.796399
11
0.964573
21
0.796349
0
LINE
8
BLACK
6
CONTINUOUS
10
0.964573
20
0.796349
11
0.964048
21
0.796172
0
LINE
8
BLACK
6
CONTINUOUS
10
0.964048
20
0.796172
11
0.963536
21
0.79596
0
LINE
8
BLACK
6
CONTINUOUS
10
0.963536
20
0.79596
11
0.961095
21
0.79596
0
LINE
8
BLACK
6
CONTINUOUS
10
0.961095
20
0.79596
11
0.959782
21
0.795303
0
LINE
8
BLACK
6
CONTINUOUS
10
0.959782
20
0.795303
11
0.959206
21
0.794727
0
LINE
8
BLACK
6
CONTINUOUS
10
0.959206
20
0.794727
11
0.958549
21
0.793413
0
LINE
8
BLACK
6
CONTINUOUS
10
0.958549
20
0.793413
11
0.958549
21
0.78947
0
LINE
8
BLACK
6
CONTINUOUS
10
0.958549
20
0.78947
11
0.959206
21
0.788156
0
LINE
8
BLACK
6
CONTINUOUS
10
0.959206
20
0.788156
11
0.959782
21
0.78758
0
LINE
8
BLACK
6
CONTINUOUS
10
0.959782
20
0.78758
11
0.961095
21
0.786923
0
LINE
8
BLACK
6
CONTINUOUS
10
0.961095
20
0.786923
11
0.965976
21
0.786923
0
LINE
8
BLACK
6
CONTINUOUS
10
0.965976
20
0.786923
11
0.96729
21
0.78758
0
LINE
8
BLACK
6
CONTINUOUS
10
0.96729
20
0.78758
11
0.968046
21
0.788337
0
LINE
8
BLACK
6
CONTINUOUS
10
0.968046
20
0.788337
11
0.96916
21
0.788798
0
LINE
8
BLACK
6
CONTINUOUS
10
0.96916
20
0.788798
11
0.970274
21
0.788337
0
LINE
8
BLACK
6
CONTINUOUS
10
0.970274
20
0.788337
11
0.970735
21
0.787223
0
LINE
8
BLACK
6
CONTINUOUS
10
0.970735
20
0.787223
11
0.970274
21
0.78611
0
LINE
8
BLACK
6
CONTINUOUS
10
0.970274
20
0.78611
11
0.969336
21
0.785172
0
LINE
8
BLACK
6
CONTINUOUS
10
0.969336
20
0.785172
11
0.969097
21
0.785073
0
LINE
8
BLACK
6
CONTINUOUS
10
0.969097
20
0.785073
11
0.968927
21
0.784877
0
LINE
8
BLACK
6
CONTINUOUS
10
0.968927
20
0.784877
11
0.967052
21
0.78394
0
LINE
8
BLACK
6
CONTINUOUS
10
0.967052
20
0.78394
11
0.966687
21
0.783914
0
LINE
8
BLACK
6
CONTINUOUS
10
0.966687
20
0.783914
11
0.966348
21
0.783774
0
LINE
8
BLACK
6
CONTINUOUS
10
0.966348
20
0.783774
11
0.960724
21
0.783774
0
LINE
8
BLACK
6
CONTINUOUS
10
0.960724
20
0.783774
11
0.960385
21
0.783914
0
LINE
8
BLACK
6
CONTINUOUS
10
0.960385
20
0.783914
11
0.960019
21
0.78394
0
LINE
8
BLACK
6
CONTINUOUS
10
0.960019
20
0.78394
11
0.958145
21
0.784877
0
LINE
8
BLACK
6
CONTINUOUS
10
0.958145
20
0.784877
11
0.957975
21
0.785073
0
LINE
8
BLACK
6
CONTINUOUS
10
0.957975
20
0.785073
11
0.957735
21
0.785172
0
LINE
8
BLACK
6
CONTINUOUS
10
0.957735
20
0.785172
11
0.956798
21
0.78611
0
LINE
8
BLACK
6
CONTINUOUS
10
0.956798
20
0.78611
11
0.956699
21
0.786349
0
LINE
8
BLACK
6
CONTINUOUS
10
0.956699
20
0.786349
11
0.956503
21
0.786519
0
LINE
8
BLACK
6
CONTINUOUS
10
0.956503
20
0.786519
11
0.955566
21
0.788394
0
LINE
8
BLACK
6
CONTINUOUS
10
0.955566
20
0.788394
11
0.95554
21
0.788759
0
LINE
8
BLACK
6
CONTINUOUS
10
0.95554
20
0.788759
11
0.955399
21
0.789098
0
LINE
8
BLACK
6
CONTINUOUS
10
0.955399
20
0.789098
11
0.955399
21
0.793785
0
LINE
8
BLACK
6
CONTINUOUS
10
0.955399
20
0.793785
11
0.95554
21
0.794124
0
LINE
8
BLACK
6
CONTINUOUS
10
0.95554
20
0.794124
11
0.955566
21
0.794489
0
LINE
8
BLACK
6
CONTINUOUS
10
0.955566
20
0.794489
11
0.956503
21
0.796364
0
LINE
8
BLACK
6
CONTINUOUS
10
0.956503
20
0.796364
11
0.956699
21
0.796534
0
LINE
8
BLACK
6
CONTINUOUS
10
0.956699
20
0.796534
11
0.956798
21
0.796773
0
LINE
8
BLACK
6
CONTINUOUS
10
0.956798
20
0.796773
11
0.957735
21
0.797711
0
LINE
8
BLACK
6
CONTINUOUS
10
0.957735
20
0.797711
11
0.957975
21
0.79781
0
LINE
8
BLACK
6
CONTINUOUS
10
0.957975
20
0.79781
11
0.958145
21
0.798006
0
LINE
8
BLACK
6
CONTINUOUS
10
0.958145
20
0.798006
11
0.960019
21
0.798943
0
LINE
8
BLACK
6
CONTINUOUS
10
0.960019
20
0.798943
11
0.9602
21
0.798956
0
LINE
8
BLACK
6
CONTINUOUS
10
0.9602
20
0.798956
11
0.955789
21
0.803996
0
LINE
8
BLACK
6
CONTINUOUS
10
0.955789
20
0.803996
11
0.955611
21
0.804521
0
LINE
8
BLACK
6
CONTINUOUS
10
0.955611
20
0.804521
11
0.955399
21
0.805034
0
LINE
8
BLACK
6
CONTINUOUS
10
0.955399
20
0.805034
11
0.955421
21
0.805085
0
LINE
8
BLACK
6
CONTINUOUS
10
0.955421
20
0.805085
11
0.955403
21
0.805138
0
LINE
8
BLACK
6
CONTINUOUS
10
0.955403
20
0.805138
11
0.955648
21
0.805635
0
LINE
8
BLACK
6
CONTINUOUS
10
0.955648
20
0.805635
11
0.955861
21
0.806147
0
LINE
8
BLACK
6
CONTINUOUS
10
0.955861
20
0.806147
11
0.955912
21
0.806169
0
LINE
8
BLACK
6
CONTINUOUS
10
0.955912
20
0.806169
11
0.955937
21
0.806219
0
LINE
8
BLACK
6
CONTINUOUS
10
0.955937
20
0.806219
11
0.956462
21
0.806396
0
LINE
8
BLACK
6
CONTINUOUS
10
0.956462
20
0.806396
11
0.956974
21
0.806608
0
LINE
8
BLACK
6
CONTINUOUS
10
0.956974
20
0.806608
11
0.96916
21
0.806608
0
LINE
8
BLACK
6
CONTINUOUS
10
0.96916
20
0.806608
11
0.970274
21
0.806147
0
LINE
8
BLACK
6
CONTINUOUS
10
0.981586
20
0.806509
11
0.981844
21
0.806527
0
LINE
8
BLACK
6
CONTINUOUS
10
0.981844
20
0.806527
11
0.984656
21
0.80559
0
LINE
8
BLACK
6
CONTINUOUS
10
0.984656
20
0.80559
11
0.984933
21
0.80535
0
LINE
8
BLACK
6
CONTINUOUS
10
0.984933
20
0.80535
11
0.985272
21
0.80521
0
LINE
8
BLACK
6
CONTINUOUS
10
0.985272
20
0.80521
11
0.987146
21
0.803335
0
LINE
8
BLACK
6
CONTINUOUS
10
0.987146
20
0.803335
11
0.987246
21
0.803095
0
LINE
8
BLACK
6
CONTINUOUS
10
0.987246
20
0.803095
11
0.987441
21
0.802926
0
LINE
8
BLACK
6
CONTINUOUS
10
0.987441
20
0.802926
11
0.988379
21
0.801051
0
LINE
8
BLACK
6
CONTINUOUS
10
0.988379
20
0.801051
11
0.988392
21
0.800872
0
LINE
8
BLACK
6
CONTINUOUS
10
0.988392
20
0.800872
11
0.988498
21
0.800729
0
LINE
8
BLACK
6
CONTINUOUS
10
0.988498
20
0.800729
11
0.989436
21
0.796979
0
LINE
8
BLACK
6
CONTINUOUS
10
0.989436
20
0.796979
11
0.989406
21
0.796781
0
LINE
8
BLACK
6
CONTINUOUS
10
0.989406
20
0.796781
11
0.989483
21
0.796597
0
LINE
8
BLACK
6
CONTINUOUS
10
0.989483
20
0.796597
11
0.989483
21
0.793785
0
LINE
8
BLACK
6
CONTINUOUS
10
0.989483
20
0.793785
11
0.989406
21
0.793601
0
LINE
8
BLACK
6
CONTINUOUS
10
0.989406
20
0.793601
11
0.989436
21
0.793403
0
LINE
8
BLACK
6
CONTINUOUS
10
0.989436
20
0.793403
11
0.988498
21
0.789653
0
LINE
8
BLACK
6
CONTINUOUS
10
0.988498
20
0.789653
11
0.988392
21
0.78951
0
LINE
8
BLACK
6
CONTINUOUS
10
0.988392
20
0.78951
11
0.988379
21
0.789331
0
LINE
8
BLACK
6
CONTINUOUS
10
0.988379
20
0.789331
11
0.987441
21
0.787456
0
LINE
8
BLACK
6
CONTINUOUS
10
0.987441
20
0.787456
11
0.987246
21
0.787287
0
LINE
8
BLACK
6
CONTINUOUS
10
0.987246
20
0.787287
11
0.987146
21
0.787047
0
LINE
8
BLACK
6
CONTINUOUS
10
0.987146
20
0.787047
11
0.985272
21
0.785172
0
LINE
8
BLACK
6
CONTINUOUS
10
0.985272
20
0.785172
11
0.984933
21
0.785032
0
LINE
8
BLACK
6
CONTINUOUS
10
0.984933
20
0.785032
11
0.984656
21
0.784792
0
LINE
8
BLACK
6
CONTINUOUS
10
0.984656
20
0.784792
11
0.981844
21
0.783854
0
LINE
8
BLACK
6
CONTINUOUS
10
0.981844
20
0.783854
11
0.981586
21
0.783873
0
LINE
8
BLACK
6
CONTINUOUS
10
0.981586
20
0.783873
11
0.981346
21
0.783774
0
LINE
8
BLACK
6
CONTINUOUS
10
0.981346
20
0.783774
11
0.979471
21
0.783774
0
LINE
8
BLACK
6
CONTINUOUS
10
0.979471
20
0.783774
11
0.979232
21
0.783873
0
LINE
8
BLACK
6
CONTINUOUS
10
0.979232
20
0.783873
11
0.978973
21
0.783854
0
LINE
8
BLACK
6
CONTINUOUS
10
0.978973
20
0.783854
11
0.976161
21
0.784792
0
LINE
8
BLACK
6
CONTINUOUS
10
0.976161
20
0.784792
11
0.975884
21
0.785032
0
LINE
8
BLACK
6
CONTINUOUS
10
0.975884
20
0.785032
11
0.975546
21
0.785172
0
LINE
8
BLACK
6
CONTINUOUS
10
0.975546
20
0.785172
11
0.974608
21
0.78611
0
LINE
8
BLACK
6
CONTINUOUS
10
0.974608
20
0.78611
11
0.974147
21
0.787223
0
LINE
8
BLACK
6
CONTINUOUS
10
0.974147
20
0.787223
11
0.974608
21
0.788337
0
LINE
8
BLACK
6
CONTINUOUS
10
0.974608
20
0.788337
11
0.975722
21
0.788798
0
LINE
8
BLACK
6
CONTINUOUS
10
0.975722
20
0.788798
11
0.976835
21
0.788337
0
LINE
8
BLACK
6
CONTINUOUS
10
0.976835
20
0.788337
11
0.97751
21
0.787662
0
LINE
8
BLACK
6
CONTINUOUS
10
0.97751
20
0.787662
11
0.979727
21
0.786923
0
LINE
8
BLACK
6
CONTINUOUS
10
0.979727
20
0.786923
11
0.981091
21
0.786923
0
LINE
8
BLACK
6
CONTINUOUS
10
0.981091
20
0.786923
11
0.983307
21
0.787662
0
LINE
8
BLACK
6
CONTINUOUS
10
0.983307
20
0.787662
11
0.984739
21
0.789094
0
LINE
8
BLACK
6
CONTINUOUS
10
0.984739
20
0.789094
11
0.985484
21
0.790585
0
LINE
8
BLACK
6
CONTINUOUS
10
0.985484
20
0.790585
11
0.986333
21
0.793979
0
LINE
8
BLACK
6
CONTINUOUS
10
0.986333
20
0.793979
11
0.986333
21
0.796403
0
LINE
8
BLACK
6
CONTINUOUS
10
0.986333
20
0.796403
11
0.985484
21
0.799797
0
LINE
8
BLACK
6
CONTINUOUS
10
0.985484
20
0.799797
11
0.984739
21
0.801289
0
LINE
8
BLACK
6
CONTINUOUS
10
0.984739
20
0.801289
11
0.983307
21
0.80272
0
LINE
8
BLACK
6
CONTINUOUS
10
0.983307
20
0.80272
11
0.981091
21
0.803459
0
LINE
8
BLACK
6
CONTINUOUS
10
0.981091
20
0.803459
11
0.979727
21
0.803459
0
LINE
8
BLACK
6
CONTINUOUS
10
0.979727
20
0.803459
11
0.97751
21
0.80272
0
LINE
8
BLACK
6
CONTINUOUS
10
0.97751
20
0.80272
11
0.976835
21
0.802045
0
LINE
8
BLACK
6
CONTINUOUS
10
0.976835
20
0.802045
11
0.975722
21
0.801584
0
LINE
8
BLACK
6
CONTINUOUS
10
0.975722
20
0.801584
11
0.974608
21
0.802045
0
LINE
8
BLACK
6
CONTINUOUS
10
0.974608
20
0.802045
11
0.974147
21
0.803159
0
LINE
8
BLACK
6
CONTINUOUS
10
0.974147
20
0.803159
11
0.974608
21
0.804272
0
LINE
8
BLACK
6
CONTINUOUS
10
0.974608
20
0.804272
11
0.975546
21
0.80521
0
LINE
8
BLACK
6
CONTINUOUS
10
0.975546
20
0.80521
11
0.975884
21
0.80535
0
LINE
8
BLACK
6
CONTINUOUS
10
0.975884
20
0.80535
11
0.976161
21
0.80559
0
LINE
8
BLACK
6
CONTINUOUS
10
0.976161
20
0.80559
11
0.978973
21
0.806527
0
LINE
8
BLACK
6
CONTINUOUS
10
0.978973
20
0.806527
11
0.979232
21
0.806509
0
LINE
8
BLACK
6
CONTINUOUS
10
0.979232
20
0.806509
11
0.979471
21
0.806608
0
LINE
8
BLACK
6
CONTINUOUS
10
0.979471
20
0.806608
11
0.981346
21
0.806608
0
LINE
8
BLACK
6
CONTINUOUS
10
0.981346
20
0.806608
11
0.981586
21
0.806509
0
LINE
8
BLACK
6
CONTINUOUS
10
1.01181
20
0.820866
11
1.0132
21
0.82029
0
LINE
8
BLACK
6
CONTINUOUS
10
1.0132
20
0.82029
11
1.01378
21
0.818898
0
LINE
8
BLACK
6
CONTINUOUS
10
1.01378
20
0.818898
11
1.01378
21
0.769685
0
LINE
8
BLACK
6
CONTINUOUS
10
1.01378
20
0.769685
11
1.0132
21
0.768293
0
LINE
8
BLACK
6
CONTINUOUS
10
1.0132
20
0.768293
11
1.01181
21
0.767717
0
LINE
8
BLACK
6
CONTINUOUS
10
1.01181
20
0.767717
11
0.933071
21
0.767717
0
LINE
8
BLACK
6
CONTINUOUS
10
0.933071
20
0.767717
11
0.931679
21
0.768293
0
LINE
8
BLACK
6
CONTINUOUS
10
0.931679
20
0.768293
11
0.931102
21
0.769685
0
LINE
8
BLACK
6
CONTINUOUS
10
0.931102
20
0.769685
11
0.931102
21
0.818898
0
LINE
8
BLACK
6
CONTINUOUS
10
0.931102
20
0.818898
11
0.931679
21
0.82029
0
LINE
8
BLACK
6
CONTINUOUS
10
0.931679
20
0.82029
11
0.933071
21
0.820866
0
LINE
8
BLACK
6
CONTINUOUS
10
0.933071
20
0.820866
11
1.01181
21
0.820866
0
LINE
8
BLACK
6
CONTINUOUS
10
0.935039
20
0.816929
11
0.935039
21
0.771654
0
LINE
8
BLACK
6
CONTINUOUS
10
0.935039
20
0.771654
11
1.00984
21
0.771654
0
LINE
8
BLACK
6
CONTINUOUS
10
1.00984
20
0.771654
11
1.00984
21
0.816929
0
LINE
8
BLACK
6
CONTINUOUS
10
1.00984
20
0.816929
11
0.935039
21
0.816929
0
LINE
8
BLACK
6
CONTINUOUS
10
1.10651
20
0.885136
11
1.10671
21
0.88466
0
LINE
8
BLACK
6
CONTINUOUS
10
1.10671
20
0.88466
11
1.10697
21
0.884022
0
LINE
8
BLACK
6
CONTINUOUS
10
1.10697
20
0.884022
11
1.10697
21
0.871836
0
LINE
8
BLACK
6
CONTINUOUS
10
1.10697
20
0.871836
11
1.10651
21
0.870723
0
LINE
8
BLACK
6
CONTINUOUS
10
1.10651
20
0.870723
11
1.1054
21
0.870262
0
LINE
8
BLACK
6
CONTINUOUS
10
1.1054
20
0.870262
11
1.10429
21
0.870723
0
LINE
8
BLACK
6
CONTINUOUS
10
1.10429
20
0.870723
11
1.10382
21
0.871836
0
LINE
8
BLACK
6
CONTINUOUS
10
1.10382
20
0.871836
11
1.10382
21
0.88022
0
LINE
8
BLACK
6
CONTINUOUS
10
1.10382
20
0.88022
11
1.09526
21
0.87166
0
LINE
8
BLACK
6
CONTINUOUS
10
1.09526
20
0.87166
11
1.09493
21
0.87152
0
LINE
8
BLACK
6
CONTINUOUS
10
1.09493
20
0.87152
11
1.09465
21
0.87128
0
LINE
8
BLACK
6
CONTINUOUS
10
1.09465
20
0.87128
11
1.09184
21
0.870342
0
LINE
8
BLACK
6
CONTINUOUS
10
1.09184
20
0.870342
11
1.09158
21
0.870361
0
LINE
8
BLACK
6
CONTINUOUS
10
1.09158
20
0.870361
11
1.09134
21
0.870262
0
LINE
8
BLACK
6
CONTINUOUS
10
1.09134
20
0.870262
11
1.08946
21
0.870262
0
LINE
8
BLACK
6
CONTINUOUS
10
1.08946
20
0.870262
11
1.08913
21
0.870402
0
LINE
8
BLACK
6
CONTINUOUS
10
1.08913
20
0.870402
11
1.08876
21
0.870428
0
LINE
8
BLACK
6
CONTINUOUS
10
1.08876
20
0.870428
11
1.08688
21
0.871365
0
LINE
8
BLACK
6
CONTINUOUS
10
1.08688
20
0.871365
11
1.08672
21
0.871561
0
LINE
8
BLACK
6
CONTINUOUS
10
1.08672
20
0.871561
11
1.08648
21
0.87166
0
LINE
8
BLACK
6
CONTINUOUS
10
1.08648
20
0.87166
11
1.08554
21
0.872598
0
LINE
8
BLACK
6
CONTINUOUS
10
1.08554
20
0.872598
11
1.08544
21
0.872837
0
LINE
8
BLACK
6
CONTINUOUS
10
1.08544
20
0.872837
11
1.08524
21
0.873007
0
LINE
8
BLACK
6
CONTINUOUS
10
1.08524
20
0.873007
11
1.08431
21
0.874882
0
LINE
8
BLACK
6
CONTINUOUS
10
1.08431
20
0.874882
11
1.08428
21
0.875247
0
LINE
8
BLACK
6
CONTINUOUS
10
1.08428
20
0.875247
11
1.08414
21
0.875586
0
LINE
8
BLACK
6
CONTINUOUS
10
1.08414
20
0.875586
11
1.08414
21
0.880273
0
LINE
8
BLACK
6
CONTINUOUS
10
1.08414
20
0.880273
11
1.08428
21
0.880611
0
LINE
8
BLACK
6
CONTINUOUS
10
1.08428
20
0.880611
11
1.08431
21
0.880977
0
LINE
8
BLACK
6
CONTINUOUS
10
1.08431
20
0.880977
11
1.08524
21
0.882852
0
LINE
8
BLACK
6
CONTINUOUS
10
1.08524
20
0.882852
11
1.08544
21
0.883022
0
LINE
8
BLACK
6
CONTINUOUS
10
1.08544
20
0.883022
11
1.08554
21
0.883261
0
LINE
8
BLACK
6
CONTINUOUS
10
1.08554
20
0.883261
11
1.08648
21
0.884198
0
LINE
8
BLACK
6
CONTINUOUS
10
1.08648
20
0.884198
11
1.08759
21
0.88466
0
LINE
8
BLACK
6
CONTINUOUS
10
1.08759
20
0.88466
11
1.0887
21
0.884198
0
LINE
8
BLACK
6
CONTINUOUS
10
1.0887
20
0.884198
11
1.08916
21
0.883085
0
LINE
8
BLACK
6
CONTINUOUS
10
1.08916
20
0.883085
11
1.0887
21
0.881971
0
LINE
8
BLACK
6
CONTINUOUS
10
1.0887
20
0.881971
11
1.08795
21
0.881215
0
LINE
8
BLACK
6
CONTINUOUS
10
1.08795
20
0.881215
11
1.08729
21
0.879901
0
LINE
8
BLACK
6
CONTINUOUS
10
1.08729
20
0.879901
11
1.08729
21
0.875958
0
LINE
8
BLACK
6
CONTINUOUS
10
1.08729
20
0.875958
11
1.08795
21
0.874644
0
LINE
8
BLACK
6
CONTINUOUS
10
1.08795
20
0.874644
11
1.08852
21
0.874068
0
LINE
8
BLACK
6
CONTINUOUS
10
1.08852
20
0.874068
11
1.08984
21
0.873411
0
LINE
8
BLACK
6
CONTINUOUS
10
1.08984
20
0.873411
11
1.09108
21
0.873411
0
LINE
8
BLACK
6
CONTINUOUS
10
1.09108
20
0.873411
11
1.0933
21
0.87415
0
LINE
8
BLACK
6
CONTINUOUS
10
1.0933
20
0.87415
11
1.10429
21
0.885136
0
LINE
8
BLACK
6
CONTINUOUS
10
1.10429
20
0.885136
11
1.1054
21
0.885597
0
LINE
8
BLACK
6
CONTINUOUS
10
1.1054
20
0.885597
11
1.10651
21
0.885136
0
LINE
8
BLACK
6
CONTINUOUS
10
1.10651
20
0.902946
11
1.10697
21
0.901833
0
LINE
8
BLACK
6
CONTINUOUS
10
1.10697
20
0.901833
11
1.10651
21
0.900719
0
LINE
8
BLACK
6
CONTINUOUS
10
1.10651
20
0.900719
11
1.1054
21
0.900258
0
LINE
8
BLACK
6
CONTINUOUS
10
1.1054
20
0.900258
11
1.0976
21
0.900258
0
LINE
8
BLACK
6
CONTINUOUS
10
1.0976
20
0.900258
11
1.0976
21
0.897966
0
LINE
8
BLACK
6
CONTINUOUS
10
1.0976
20
0.897966
11
1.1063
21
0.891874
0
LINE
8
BLACK
6
CONTINUOUS
10
1.1063
20
0.891874
11
1.10695
21
0.890858
0
LINE
8
BLACK
6
CONTINUOUS
10
1.10695
20
0.890858
11
1.10669
21
0.889681
0
LINE
8
BLACK
6
CONTINUOUS
10
1.10669
20
0.889681
11
1.10567
21
0.889033
0
LINE
8
BLACK
6
CONTINUOUS
10
1.10567
20
0.889033
11
1.1045
21
0.889294
0
LINE
8
BLACK
6
CONTINUOUS
10
1.1045
20
0.889294
11
1.09753
21
0.894169
0
LINE
8
BLACK
6
CONTINUOUS
10
1.09753
20
0.894169
11
1.09746
21
0.893995
0
LINE
8
BLACK
6
CONTINUOUS
10
1.09746
20
0.893995
11
1.09743
21
0.893629
0
LINE
8
BLACK
6
CONTINUOUS
10
1.09743
20
0.893629
11
1.0965
21
0.891754
0
LINE
8
BLACK
6
CONTINUOUS
10
1.0965
20
0.891754
11
1.0963
21
0.891585
0
LINE
8
BLACK
6
CONTINUOUS
10
1.0963
20
0.891585
11
1.0962
21
0.891345
0
LINE
8
BLACK
6
CONTINUOUS
10
1.0962
20
0.891345
11
1.09526
21
0.890408
0
LINE
8
BLACK
6
CONTINUOUS
10
1.09526
20
0.890408
11
1.09502
21
0.890309
0
LINE
8
BLACK
6
CONTINUOUS
10
1.09502
20
0.890309
11
1.09486
21
0.890113
0
LINE
8
BLACK
6
CONTINUOUS
10
1.09486
20
0.890113
11
1.09298
21
0.889175
0
LINE
8
BLACK
6
CONTINUOUS
10
1.09298
20
0.889175
11
1.09261
21
0.88915
0
LINE
8
BLACK
6
CONTINUOUS
10
1.09261
20
0.88915
11
1.09228
21
0.889009
0
LINE
8
BLACK
6
CONTINUOUS
10
1.09228
20
0.889009
11
1.08946
21
0.889009
0
LINE
8
BLACK
6
CONTINUOUS
10
1.08946
20
0.889009
11
1.08913
21
0.88915
0
LINE
8
BLACK
6
CONTINUOUS
10
1.08913
20
0.88915
11
1.08876
21
0.889175
0
LINE
8
BLACK
6
CONTINUOUS
10
1.08876
20
0.889175
11
1.08689
21
0.890113
0
LINE
8
BLACK
6
CONTINUOUS
10
1.08689
20
0.890113
11
1.08672
21
0.890309
0
LINE
8
BLACK
6
CONTINUOUS
10
1.08672
20
0.890309
11
1.08648
21
0.890408
0
LINE
8
BLACK
6
CONTINUOUS
10
1.08648
20
0.890408
11
1.08554
21
0.891345
0
LINE
8
BLACK
6
CONTINUOUS
10
1.08554
20
0.891345
11
1.08544
21
0.891585
0
LINE
8
BLACK
6
CONTINUOUS
10
1.08544
20
0.891585
11
1.08524
21
0.891754
0
LINE
8
BLACK
6
CONTINUOUS
10
1.08524
20
0.891754
11
1.08431
21
0.893629
0
LINE
8
BLACK
6
CONTINUOUS
10
1.08431
20
0.893629
11
1.08428
21
0.893995
0
LINE
8
BLACK
6
CONTINUOUS
10
1.08428
20
0.893995
11
1.08414
21
0.894334
0
LINE
8
BLACK
6
CONTINUOUS
10
1.08414
20
0.894334
11
1.08414
21
0.901833
0
LINE
8
BLACK
6
CONTINUOUS
10
1.08414
20
0.901833
11
1.0846
21
0.902946
0
LINE
8
BLACK
6
CONTINUOUS
10
1.0846
20
0.902946
11
1.08571
21
0.903407
0
LINE
8
BLACK
6
CONTINUOUS
10
1.08571
20
0.903407
11
1.1054
21
0.903407
0
LINE
8
BLACK
6
CONTINUOUS
10
1.1054
20
0.903407
11
1.10651
21
0.902946
0
LINE
8
BLACK
6
CONTINUOUS
10
1.08729
20
0.894705
11
1.08795
21
0.893392
0
LINE
8
BLACK
6
CONTINUOUS
10
1.08795
20
0.893392
11
1.08852
21
0.892816
0
LINE
8
BLACK
6
CONTINUOUS
10
1.08852
20
0.892816
11
1.08984
21
0.892159
0
LINE
8
BLACK
6
CONTINUOUS
10
1.08984
20
0.892159
11
1.0919
21
0.892159
0
LINE
8
BLACK
6
CONTINUOUS
10
1.0919
20
0.892159
11
1.09322
21
0.892816
0
LINE
8
BLACK
6
CONTINUOUS
10
1.09322
20
0.892816
11
1.09379
21
0.893392
0
LINE
8
BLACK
6
CONTINUOUS
10
1.09379
20
0.893392
11
1.09445
21
0.894705
0
LINE
8
BLACK
6
CONTINUOUS
10
1.09445
20
0.894705
11
1.09445
21
0.900258
0
LINE
8
BLACK
6
CONTINUOUS
10
1.09445
20
0.900258
11
1.08729
21
0.900258
0
LINE
8
BLACK
6
CONTINUOUS
10
1.08729
20
0.900258
11
1.08729
21
0.894705
0
LINE
8
BLACK
6
CONTINUOUS
10
1.12106
20
0.928642
11
1.12245
21
0.928065
0
LINE
8
BLACK
6
CONTINUOUS
10
1.12245
20
0.928065
11
1.12303
21
0.926673
0
LINE
8
BLACK
6
CONTINUOUS
10
1.12303
20
0.926673
11
1.12303
21
0.847933
0
LINE
8
BLACK
6
CONTINUOUS
10
1.12303
20
0.847933
11
1.12245
21
0.846541
0
LINE
8
BLACK
6
CONTINUOUS
10
1.12245
20
0.846541
11
1.12106
21
0.845965
0
LINE
8
BLACK
6
CONTINUOUS
10
1.12106
20
0.845965
11
1.07185
21
0.845965
0
LINE
8
BLACK
6
CONTINUOUS
10
1.07185
20
0.845965
11
1.07046
21
0.846541
0
LINE
8
BLACK
6
CONTINUOUS
10
1.07046
20
0.846541
11
1.06988
21
0.847933
0
LINE
8
BLACK
6
CONTINUOUS
10
1.06988
20
0.847933
11
1.06988
21
0.926673
0
LINE
8
BLACK
6
CONTINUOUS
10
1.06988
20
0.926673
11
1.07046
21
0.928065
0
LINE
8
BLACK
6
CONTINUOUS
10
1.07046
20
0.928065
11
1.07185
21
0.928642
0
LINE
8
BLACK
6
CONTINUOUS
10
1.07185
20
0.928642
11
1.12106
21
0.928642
0
LINE
8
BLACK
6
CONTINUOUS
10
1.07382
20
0.924705
11
1.07382
21
0.849902
0
LINE
8
BLACK
6
CONTINUOUS
10
1.07382
20
0.849902
11
1.11909
21
0.849902
0
LINE
8
BLACK
6
CONTINUOUS
10
1.11909
20
0.849902
11
1.11909
21
0.924705
0
LINE
8
BLACK
6
CONTINUOUS
10
1.11909
20
0.924705
11
1.07382
21
0.924705
0
LINE
8
BLACK
6
CONTINUOUS
10
0.702497
20
0.892565
11
0.702959
21
0.891451
0
LINE
8
BLACK
6
CONTINUOUS
10
0.702959
20
0.891451
11
0.702959
21
0.880202
0
LINE
8
BLACK
6
CONTINUOUS
10
0.702959
20
0.880202
11
0.702497
21
0.879089
0
LINE
8
BLACK
6
CONTINUOUS
10
0.702497
20
0.879089
11
0.701384
21
0.878628
0
LINE
8
BLACK
6
CONTINUOUS
10
0.701384
20
0.878628
11
0.70027
21
0.879089
0
LINE
8
BLACK
6
CONTINUOUS
10
0.70027
20
0.879089
11
0.699809
21
0.880202
0
LINE
8
BLACK
6
CONTINUOUS
10
0.699809
20
0.880202
11
0.699809
21
0.884252
0
LINE
8
BLACK
6
CONTINUOUS
10
0.699809
20
0.884252
11
0.681699
21
0.884252
0
LINE
8
BLACK
6
CONTINUOUS
10
0.681699
20
0.884252
11
0.681549
21
0.884314
0
LINE
8
BLACK
6
CONTINUOUS
10
0.681549
20
0.884314
11
0.68139
21
0.884283
0
LINE
8
BLACK
6
CONTINUOUS
10
0.68139
20
0.884283
11
0.681009
21
0.884538
0
LINE
8
BLACK
6
CONTINUOUS
10
0.681009
20
0.884538
11
0.680585
21
0.884713
0
LINE
8
BLACK
6
CONTINUOUS
10
0.680585
20
0.884713
11
0.680523
21
0.884863
0
LINE
8
BLACK
6
CONTINUOUS
10
0.680523
20
0.884863
11
0.680388
21
0.884953
0
LINE
8
BLACK
6
CONTINUOUS
10
0.680388
20
0.884953
11
0.680299
21
0.885403
0
LINE
8
BLACK
6
CONTINUOUS
10
0.680299
20
0.885403
11
0.680124
21
0.885827
0
LINE
8
BLACK
6
CONTINUOUS
10
0.680124
20
0.885827
11
0.680186
21
0.885977
0
LINE
8
BLACK
6
CONTINUOUS
10
0.680186
20
0.885977
11
0.680155
21
0.886136
0
LINE
8
BLACK
6
CONTINUOUS
10
0.680155
20
0.886136
11
0.68041
21
0.886517
0
LINE
8
BLACK
6
CONTINUOUS
10
0.68041
20
0.886517
11
0.680585
21
0.88694
0
LINE
8
BLACK
6
CONTINUOUS
10
0.680585
20
0.88694
11
0.680735
21
0.887002
0
LINE
8
BLACK
6
CONTINUOUS
10
0.680735
20
0.887002
11
0.680825
21
0.887137
0
LINE
8
BLACK
6
CONTINUOUS
10
0.680825
20
0.887137
11
0.683508
21
0.888925
0
LINE
8
BLACK
6
CONTINUOUS
10
0.683508
20
0.888925
11
0.685091
21
0.890509
0
LINE
8
BLACK
6
CONTINUOUS
10
0.685091
20
0.890509
11
0.685915
21
0.892155
0
LINE
8
BLACK
6
CONTINUOUS
10
0.685915
20
0.892155
11
0.686825
21
0.892945
0
LINE
8
BLACK
6
CONTINUOUS
10
0.686825
20
0.892945
11
0.688027
21
0.89286
0
LINE
8
BLACK
6
CONTINUOUS
10
0.688027
20
0.89286
11
0.688817
21
0.891949
0
LINE
8
BLACK
6
CONTINUOUS
10
0.688817
20
0.891949
11
0.688732
21
0.890747
0
LINE
8
BLACK
6
CONTINUOUS
10
0.688732
20
0.890747
11
0.687794
21
0.888872
0
LINE
8
BLACK
6
CONTINUOUS
10
0.687794
20
0.888872
11
0.687598
21
0.888702
0
LINE
8
BLACK
6
CONTINUOUS
10
0.687598
20
0.888702
11
0.687499
21
0.888463
0
LINE
8
BLACK
6
CONTINUOUS
10
0.687499
20
0.888463
11
0.686438
21
0.887402
0
LINE
8
BLACK
6
CONTINUOUS
10
0.686438
20
0.887402
11
0.699809
21
0.887402
0
LINE
8
BLACK
6
CONTINUOUS
10
0.699809
20
0.887402
11
0.699809
21
0.891451
0
LINE
8
BLACK
6
CONTINUOUS
10
0.699809
20
0.891451
11
0.70027
21
0.892565
0
LINE
8
BLACK
6
CONTINUOUS
10
0.70027
20
0.892565
11
0.701384
21
0.893026
0
LINE
8
BLACK
6
CONTINUOUS
10
0.701384
20
0.893026
11
0.702497
21
0.892565
0
LINE
8
BLACK
6
CONTINUOUS
10
0.693132
20
0.912635
11
0.693329
21
0.912664
0
LINE
8
BLACK
6
CONTINUOUS
10
0.693329
20
0.912664
11
0.697079
21
0.911727
0
LINE
8
BLACK
6
CONTINUOUS
10
0.697079
20
0.911727
11
0.697223
21
0.91162
0
LINE
8
BLACK
6
CONTINUOUS
10
0.697223
20
0.91162
11
0.697401
21
0.911607
0
LINE
8
BLACK
6
CONTINUOUS
10
0.697401
20
0.911607
11
0.699276
21
0.91067
0
LINE
8
BLACK
6
CONTINUOUS
10
0.699276
20
0.91067
11
0.699446
21
0.910474
0
LINE
8
BLACK
6
CONTINUOUS
10
0.699446
20
0.910474
11
0.699685
21
0.910375
0
LINE
8
BLACK
6
CONTINUOUS
10
0.699685
20
0.910375
11
0.70156
21
0.9085
0
LINE
8
BLACK
6
CONTINUOUS
10
0.70156
20
0.9085
11
0.7017
21
0.908161
0
LINE
8
BLACK
6
CONTINUOUS
10
0.7017
20
0.908161
11
0.70194
21
0.907885
0
LINE
8
BLACK
6
CONTINUOUS
10
0.70194
20
0.907885
11
0.702878
21
0.905072
0
LINE
8
BLACK
6
CONTINUOUS
10
0.702878
20
0.905072
11
0.702859
21
0.904814
0
LINE
8
BLACK
6
CONTINUOUS
10
0.702859
20
0.904814
11
0.702959
21
0.904574
0
LINE
8
BLACK
6
CONTINUOUS
10
0.702959
20
0.904574
11
0.702959
21
0.9027
0
LINE
8
BLACK
6
CONTINUOUS
10
0.702959
20
0.9027
11
0.702859
21
0.90246
0
LINE
8
BLACK
6
CONTINUOUS
10
0.702859
20
0.90246
11
0.702878
21
0.902202
0
LINE
8
BLACK
6
CONTINUOUS
10
0.702878
20
0.902202
11
0.70194
21
0.89939
0
LINE
8
BLACK
6
CONTINUOUS
10
0.70194
20
0.89939
11
0.7017
21
0.899113
0
LINE
8
BLACK
6
CONTINUOUS
10
0.7017
20
0.899113
11
0.70156
21
0.898774
0
LINE
8
BLACK
6
CONTINUOUS
10
0.70156
20
0.898774
11
0.700623
21
0.897837
0
LINE
8
BLACK
6
CONTINUOUS
10
0.700623
20
0.897837
11
0.699509
21
0.897375
0
LINE
8
BLACK
6
CONTINUOUS
10
0.699509
20
0.897375
11
0.698395
21
0.897837
0
LINE
8
BLACK
6
CONTINUOUS
10
0.698395
20
0.897837
11
0.697934
21
0.89895
0
LINE
8
BLACK
6
CONTINUOUS
10
0.697934
20
0.89895
11
0.698396
21
0.900064
0
LINE
8
BLACK
6
CONTINUOUS
10
0.698396
20
0.900064
11
0.69907
21
0.900738
0
LINE
8
BLACK
6
CONTINUOUS
10
0.69907
20
0.900738
11
0.699809
21
0.902955
0
LINE
8
BLACK
6
CONTINUOUS
10
0.699809
20
0.902955
11
0.699809
21
0.904319
0
LINE
8
BLACK
6
CONTINUOUS
10
0.699809
20
0.904319
11
0.69907
21
0.906536
0
LINE
8
BLACK
6
CONTINUOUS
10
0.69907
20
0.906536
11
0.697639
21
0.907967
0
LINE
8
BLACK
6
CONTINUOUS
10
0.697639
20
0.907967
11
0.696147
21
0.908713
0
LINE
8
BLACK
6
CONTINUOUS
10
0.696147
20
0.908713
11
0.692753
21
0.909561
0
LINE
8
BLACK
6
CONTINUOUS
10
0.692753
20
0.909561
11
0.690329
21
0.909561
0
LINE
8
BLACK
6
CONTINUOUS
10
0.690329
20
0.909561
11
0.686935
21
0.908713
0
LINE
8
BLACK
6
CONTINUOUS
10
0.686935
20
0.908713
11
0.685444
21
0.907967
0
LINE
8
BLACK
6
CONTINUOUS
10
0.685444
20
0.907967
11
0.684013
21
0.906536
0
LINE
8
BLACK
6
CONTINUOUS
10
0.684013
20
0.906536
11
0.683274
21
0.904319
0
LINE
8
BLACK
6
CONTINUOUS
10
0.683274
20
0.904319
11
0.683274
21
0.902955
0
LINE
8
BLACK
6
CONTINUOUS
10
0.683274
20
0.902955
11
0.684013
21
0.900738
0
LINE
8
BLACK
6
CONTINUOUS
10
0.684013
20
0.900738
11
0.684687
21
0.900064
0
LINE
8
BLACK
6
CONTINUOUS
10
0.684687
20
0.900064
11
0.685148
21
0.89895
0
LINE
8
BLACK
6
CONTINUOUS
10
0.685148
20
0.89895
11
0.684687
21
0.897837
0
LINE
8
BLACK
6
CONTINUOUS
10
0.684687
20
0.897837
11
0.683574
21
0.897375
0
LINE
8
BLACK
6
CONTINUOUS
10
0.683574
20
0.897375
11
0.68246
21
0.897837
0
LINE
8
BLACK
6
CONTINUOUS
10
0.68246
20
0.897837
11
0.681523
21
0.898774
0
LINE
8
BLACK
6
CONTINUOUS
10
0.681523
20
0.898774
11
0.681382
21
0.899113
0
LINE
8
BLACK
6
CONTINUOUS
10
0.681382
20
0.899113
11
0.681142
21
0.89939
0
LINE
8
BLACK
6
CONTINUOUS
10
0.681142
20
0.89939
11
0.680205
21
0.902202
0
LINE
8
BLACK
6
CONTINUOUS
10
0.680205
20
0.902202
11
0.680223
21
0.90246
0
LINE
8
BLACK
6
CONTINUOUS
10
0.680223
20
0.90246
11
0.680124
21
0.9027
0
LINE
8
BLACK
6
CONTINUOUS
10
0.680124
20
0.9027
11
0.680124
21
0.904574
0
LINE
8
BLACK
6
CONTINUOUS
10
0.680124
20
0.904574
11
0.680223
21
0.904814
0
LINE
8
BLACK
6
CONTINUOUS
10
0.680223
20
0.904814
11
0.680205
21
0.905072
0
LINE
8
BLACK
6
CONTINUOUS
10
0.680205
20
0.905072
11
0.681142
21
0.907885
0
LINE
8
BLACK
6
CONTINUOUS
10
0.681142
20
0.907885
11
0.681382
21
0.908161
0
LINE
8
BLACK
6
CONTINUOUS
10
0.681382
20
0.908161
11
0.681523
21
0.9085
0
LINE
8
BLACK
6
CONTINUOUS
10
0.681523
20
0.9085
11
0.683397
21
0.910375
0
LINE
8
BLACK
6
CONTINUOUS
10
0.683397
20
0.910375
11
0.683637
21
0.910474
0
LINE
8
BLACK
6
CONTINUOUS
10
0.683637
20
0.910474
11
0.683807
21
0.91067
0
LINE
8
BLACK
6
CONTINUOUS
10
0.683807
20
0.91067
11
0.685681
21
0.911607
0
LINE
8
BLACK
6
CONTINUOUS
10
0.685681
20
0.911607
11
0.68586
21
0.91162
0
LINE
8
BLACK
6
CONTINUOUS
10
0.68586
20
0.91162
11
0.686004
21
0.911727
0
LINE
8
BLACK
6
CONTINUOUS
10
0.686004
20
0.911727
11
0.689753
21
0.912664
0
LINE
8
BLACK
6
CONTINUOUS
10
0.689753
20
0.912664
11
0.689951
21
0.912635
0
LINE
8
BLACK
6
CONTINUOUS
10
0.689951
20
0.912635
11
0.690135
21
0.912711
0
LINE
8
BLACK
6
CONTINUOUS
10
0.690135
20
0.912711
11
0.692947
21
0.912711
0
LINE
8
BLACK
6
CONTINUOUS
10
0.692947
20
0.912711
11
0.693132
21
0.912635
0
LINE
8
BLACK
6
CONTINUOUS
10
0.717047
20
0.937008
11
0.718439
21
0.936431
0
LINE
8
BLACK
6
CONTINUOUS
10
0.718439
20
0.936431
11
0.719016
21
0.935039
0
LINE
8
BLACK
6
CONTINUOUS
10
0.719016
20
0.935039
11
0.719016
21
0.856299
0
LINE
8
BLACK
6
CONTINUOUS
10
0.719016
20
0.856299
11
0.718439
21
0.854907
0
LINE
8
BLACK
6
CONTINUOUS
10
0.718439
20
0.854907
11
0.717047
21
0.854331
0
LINE
8
BLACK
6
CONTINUOUS
10
0.717047
20
0.854331
11
0.667835
21
0.854331
0
LINE
8
BLACK
6
CONTINUOUS
10
0.667835
20
0.854331
11
0.666443
21
0.854907
0
LINE
8
BLACK
6
CONTINUOUS
10
0.666443
20
0.854907
11
0.665866
21
0.856299
0
LINE
8
BLACK
6
CONTINUOUS
10
0.665866
20
0.856299
11
0.665866
21
0.935039
0
LINE
8
BLACK
6
CONTINUOUS
10
0.665866
20
0.935039
11
0.666443
21
0.936431
0
LINE
8
BLACK
6
CONTINUOUS
10
0.666443
20
0.936431
11
0.667835
21
0.937008
0
LINE
8
BLACK
6
CONTINUOUS
10
0.667835
20
0.937008
11
0.717047
21
0.937008
0
LINE
8
BLACK
6
CONTINUOUS
10
0.669803
20
0.933071
11
0.669803
21
0.858268
0
LINE
8
BLACK
6
CONTINUOUS
10
0.669803
20
0.858268
11
0.715079
21
0.858268
0
LINE
8
BLACK
6
CONTINUOUS
10
0.715079
20
0.858268
11
0.715079
21
0.933071
0
LINE
8
BLACK
6
CONTINUOUS
10
0.715079
20
0.933071
11
0.669803
21
0.933071
0
LINE
8
BLACK
6
CONTINUOUS
10
0.83378
20
0.906339
11
0.835171
21
0.905762
0
LINE
8
BLACK
6
CONTINUOUS
10
0.835171
20
0.905762
11
0.835748
21
0.90437
0
LINE
8
BLACK
6
CONTINUOUS
10
0.835748
20
0.90437
11
0.835748
21
0.857126
0
LINE
8
BLACK
6
CONTINUOUS
10
0.835748
20
0.857126
11
0.835171
21
0.855734
0
LINE
8
BLACK
6
CONTINUOUS
10
0.835171
20
0.855734
11
0.83378
21
0.855157
0
LINE
8
BLACK
6
CONTINUOUS
10
0.83378
20
0.855157
11
0.814094
21
0.855157
0
LINE
8
BLACK
6
CONTINUOUS
10
0.814094
20
0.855157
11
0.751102
21
0.855157
0
LINE
8
BLACK
6
CONTINUOUS
10
0.751102
20
0.855157
11
0.74971
21
0.855734
0
LINE
8
BLACK
6
CONTINUOUS
10
0.74971
20
0.855734
11
0.749134
21
0.857126
0
LINE
8
BLACK
6
CONTINUOUS
10
0.749134
20
0.857126
11
0.749134
21
0.90437
0
LINE
8
BLACK
6
CONTINUOUS
10
0.749134
20
0.90437
11
0.74971
21
0.905762
0
LINE
8
BLACK
6
CONTINUOUS
10
0.74971
20
0.905762
11
0.751102
21
0.906339
0
LINE
8
BLACK
6
CONTINUOUS
10
0.751102
20
0.906339
11
0.83378
21
0.906339
0
LINE
8
BLACK
6
CONTINUOUS
10
0.753071
20
0.902402
11
0.753071
21
0.859094
0
LINE
8
BLACK
6
CONTINUOUS
10
0.753071
20
0.859094
11
0.813279
21
0.859094
0
LINE
8
BLACK
6
CONTINUOUS
10
0.813279
20
0.859094
11
0.831811
21
0.877626
0
LINE
8
BLACK
6
CONTINUOUS
10
0.831811
20
0.877626
11
0.831811
21
0.902402
0
LINE
8
BLACK
6
CONTINUOUS
10
0.831811
20
0.902402
11
0.753071
21
0.902402
0
LINE
8
BLACK
6
CONTINUOUS
10
0.818847
20
0.859094
11
0.831811
21
0.859094
0
LINE
8
BLACK
6
CONTINUOUS
10
0.831811
20
0.859094
11
0.831811
21
0.872059
0
LINE
8
BLACK
6
CONTINUOUS
10
0.831811
20
0.872059
11
0.818847
21
0.859094
0
LINE
8
BLACK
6
CONTINUOUS
10
0.901789
20
0.898423
11
0.901986
21
0.897947
0
LINE
8
BLACK
6
CONTINUOUS
10
0.901986
20
0.897947
11
0.90225
21
0.89731
0
LINE
8
BLACK
6
CONTINUOUS
10
0.90225
20
0.89731
11
0.90225
21
0.885124
0
LINE
8
BLACK
6
CONTINUOUS
10
0.90225
20
0.885124
11
0.901789
21
0.88401
0
LINE
8
BLACK
6
CONTINUOUS
10
0.901789
20
0.88401
11
0.900675
21
0.883549
0
LINE
8
BLACK
6
CONTINUOUS
10
0.900675
20
0.883549
11
0.899562
21
0.88401
0
LINE
8
BLACK
6
CONTINUOUS
10
0.899562
20
0.88401
11
0.8991
21
0.885124
0
LINE
8
BLACK
6
CONTINUOUS
10
0.8991
20
0.885124
11
0.8991
21
0.893508
0
LINE
8
BLACK
6
CONTINUOUS
10
0.8991
20
0.893508
11
0.89054
21
0.884948
0
LINE
8
BLACK
6
CONTINUOUS
10
0.89054
20
0.884948
11
0.890201
21
0.884807
0
LINE
8
BLACK
6
CONTINUOUS
10
0.890201
20
0.884807
11
0.889925
21
0.884567
0
LINE
8
BLACK
6
CONTINUOUS
10
0.889925
20
0.884567
11
0.887112
21
0.88363
0
LINE
8
BLACK
6
CONTINUOUS
10
0.887112
20
0.88363
11
0.886854
21
0.883648
0
LINE
8
BLACK
6
CONTINUOUS
10
0.886854
20
0.883648
11
0.886614
21
0.883549
0
LINE
8
BLACK
6
CONTINUOUS
10
0.886614
20
0.883549
11
0.88474
21
0.883549
0
LINE
8
BLACK
6
CONTINUOUS
10
0.88474
20
0.883549
11
0.884401
21
0.883689
0
LINE
8
BLACK
6
CONTINUOUS
10
0.884401
20
0.883689
11
0.884035
21
0.883715
0
LINE
8
BLACK
6
CONTINUOUS
10
0.884035
20
0.883715
11
0.882161
21
0.884653
0
LINE
8
BLACK
6
CONTINUOUS
10
0.882161
20
0.884653
11
0.881991
21
0.884848
0
LINE
8
BLACK
6
CONTINUOUS
10
0.881991
20
0.884848
11
0.881751
21
0.884948
0
LINE
8
BLACK
6
CONTINUOUS
10
0.881751
20
0.884948
11
0.880814
21
0.885885
0
LINE
8
BLACK
6
CONTINUOUS
10
0.880814
20
0.885885
11
0.880715
21
0.886124
0
LINE
8
BLACK
6
CONTINUOUS
10
0.880715
20
0.886124
11
0.880519
21
0.886294
0
LINE
8
BLACK
6
CONTINUOUS
10
0.880519
20
0.886294
11
0.879582
21
0.888169
0
LINE
8
BLACK
6
CONTINUOUS
10
0.879582
20
0.888169
11
0.879556
21
0.888535
0
LINE
8
BLACK
6
CONTINUOUS
10
0.879556
20
0.888535
11
0.879415
21
0.888873
0
LINE
8
BLACK
6
CONTINUOUS
10
0.879415
20
0.888873
11
0.879415
21
0.89356
0
LINE
8
BLACK
6
CONTINUOUS
10
0.879415
20
0.89356
11
0.879556
21
0.893899
0
LINE
8
BLACK
6
CONTINUOUS
10
0.879556
20
0.893899
11
0.879582
21
0.894264
0
LINE
8
BLACK
6
CONTINUOUS
10
0.879582
20
0.894264
11
0.880519
21
0.896139
0
LINE
8
BLACK
6
CONTINUOUS
10
0.880519
20
0.896139
11
0.880715
21
0.896309
0
LINE
8
BLACK
6
CONTINUOUS
10
0.880715
20
0.896309
11
0.880814
21
0.896549
0
LINE
8
BLACK
6
CONTINUOUS
10
0.880814
20
0.896549
11
0.881751
21
0.897486
0
LINE
8
BLACK
6
CONTINUOUS
10
0.881751
20
0.897486
11
0.882865
21
0.897947
0
LINE
8
BLACK
6
CONTINUOUS
10
0.882865
20
0.897947
11
0.883978
21
0.897486
0
LINE
8
BLACK
6
CONTINUOUS
10
0.883978
20
0.897486
11
0.88444
21
0.896372
0
LINE
8
BLACK
6
CONTINUOUS
10
0.88444
20
0.896372
11
0.883978
21
0.895259
0
LINE
8
BLACK
6
CONTINUOUS
10
0.883978
20
0.895259
11
0.883222
21
0.894502
0
LINE
8
BLACK
6
CONTINUOUS
10
0.883222
20
0.894502
11
0.882565
21
0.893188
0
LINE
8
BLACK
6
CONTINUOUS
10
0.882565
20
0.893188
11
0.882565
21
0.889245
0
LINE
8
BLACK
6
CONTINUOUS
10
0.882565
20
0.889245
11
0.883222
21
0.887931
0
LINE
8
BLACK
6
CONTINUOUS
10
0.883222
20
0.887931
11
0.883798
21
0.887355
0
LINE
8
BLACK
6
CONTINUOUS
10
0.883798
20
0.887355
11
0.885111
21
0.886699
0
LINE
8
BLACK
6
CONTINUOUS
10
0.885111
20
0.886699
11
0.886359
21
0.886699
0
LINE
8
BLACK
6
CONTINUOUS
10
0.886359
20
0.886699
11
0.888576
21
0.887438
0
LINE
8
BLACK
6
CONTINUOUS
10
0.888576
20
0.887438
11
0.899562
21
0.898423
0
LINE
8
BLACK
6
CONTINUOUS
10
0.899562
20
0.898423
11
0.900675
21
0.898885
0
LINE
8
BLACK
6
CONTINUOUS
10
0.900675
20
0.898885
11
0.901789
21
0.898423
0
LINE
8
BLACK
6
CONTINUOUS
10
0.892423
20
0.917556
11
0.892621
21
0.917585
0
LINE
8
BLACK
6
CONTINUOUS
10
0.892621
20
0.917585
11
0.89637
21
0.916648
0
LINE
8
BLACK
6
CONTINUOUS
10
0.89637
20
0.916648
11
0.896514
21
0.916541
0
LINE
8
BLACK
6
CONTINUOUS
10
0.896514
20
0.916541
11
0.896693
21
0.916529
0
LINE
8
BLACK
6
CONTINUOUS
10
0.896693
20
0.916529
11
0.898567
21
0.915591
0
LINE
8
BLACK
6
CONTINUOUS
10
0.898567
20
0.915591
11
0.898737
21
0.915395
0
LINE
8
BLACK
6
CONTINUOUS
10
0.898737
20
0.915395
11
0.898977
21
0.915296
0
LINE
8
BLACK
6
CONTINUOUS
10
0.898977
20
0.915296
11
0.900851
21
0.913421
0
LINE
8
BLACK
6
CONTINUOUS
10
0.900851
20
0.913421
11
0.900992
21
0.913083
0
LINE
8
BLACK
6
CONTINUOUS
10
0.900992
20
0.913083
11
0.901232
21
0.912806
0
LINE
8
BLACK
6
CONTINUOUS
10
0.901232
20
0.912806
11
0.902169
21
0.909994
0
LINE
8
BLACK
6
CONTINUOUS
10
0.902169
20
0.909994
11
0.902151
21
0.909735
0
LINE
8
BLACK
6
CONTINUOUS
10
0.902151
20
0.909735
11
0.90225
21
0.909496
0
LINE
8
BLACK
6
CONTINUOUS
10
0.90225
20
0.909496
11
0.90225
21
0.907621
0
LINE
8
BLACK
6
CONTINUOUS
10
0.90225
20
0.907621
11
0.902151
21
0.907382
0
LINE
8
BLACK
6
CONTINUOUS
10
0.902151
20
0.907382
11
0.902169
21
0.907123
0
LINE
8
BLACK
6
CONTINUOUS
10
0.902169
20
0.907123
11
0.901232
21
0.904311
0
LINE
8
BLACK
6
CONTINUOUS
10
0.901232
20
0.904311
11
0.900992
21
0.904034
0
LINE
8
BLACK
6
CONTINUOUS
10
0.900992
20
0.904034
11
0.900851
21
0.903695
0
LINE
8
BLACK
6
CONTINUOUS
10
0.900851
20
0.903695
11
0.899914
21
0.902758
0
LINE
8
BLACK
6
CONTINUOUS
10
0.899914
20
0.902758
11
0.8988
21
0.902297
0
LINE
8
BLACK
6
CONTINUOUS
10
0.8988
20
0.902297
11
0.897687
21
0.902758
0
LINE
8
BLACK
6
CONTINUOUS
10
0.897687
20
0.902758
11
0.897226
21
0.903871
0
LINE
8
BLACK
6
CONTINUOUS
10
0.897226
20
0.903871
11
0.897687
21
0.904985
0
LINE
8
BLACK
6
CONTINUOUS
10
0.897687
20
0.904985
11
0.898361
21
0.905659
0
LINE
8
BLACK
6
CONTINUOUS
10
0.898361
20
0.905659
11
0.8991
21
0.907876
0
LINE
8
BLACK
6
CONTINUOUS
10
0.8991
20
0.907876
11
0.8991
21
0.90924
0
LINE
8
BLACK
6
CONTINUOUS
10
0.8991
20
0.90924
11
0.898361
21
0.911457
0
LINE
8
BLACK
6
CONTINUOUS
10
0.898361
20
0.911457
11
0.89693
21
0.912888
0
LINE
8
BLACK
6
CONTINUOUS
10
0.89693
20
0.912888
11
0.895439
21
0.913634
0
LINE
8
BLACK
6
CONTINUOUS
10
0.895439
20
0.913634
11
0.892045
21
0.914483
0
LINE
8
BLACK
6
CONTINUOUS
10
0.892045
20
0.914483
11
0.88962
21
0.914483
0
LINE
8
BLACK
6
CONTINUOUS
10
0.88962
20
0.914483
11
0.886227
21
0.913634
0
LINE
8
BLACK
6
CONTINUOUS
10
0.886227
20
0.913634
11
0.884735
21
0.912888
0
LINE
8
BLACK
6
CONTINUOUS
10
0.884735
20
0.912888
11
0.883304
21
0.911457
0
LINE
8
BLACK
6
CONTINUOUS
10
0.883304
20
0.911457
11
0.882565
21
0.90924
0
LINE
8
BLACK
6
CONTINUOUS
10
0.882565
20
0.90924
11
0.882565
21
0.907876
0
LINE
8
BLACK
6
CONTINUOUS
10
0.882565
20
0.907876
11
0.883304
21
0.905659
0
LINE
8
BLACK
6
CONTINUOUS
10
0.883304
20
0.905659
11
0.883978
21
0.904985
0
LINE
8
BLACK
6
CONTINUOUS
10
0.883978
20
0.904985
11
0.88444
21
0.903871
0
LINE
8
BLACK
6
CONTINUOUS
10
0.88444
20
0.903871
11
0.883978
21
0.902758
0
LINE
8
BLACK
6
CONTINUOUS
10
0.883978
20
0.902758
11
0.882865
21
0.902297
0
LINE
8
BLACK
6
CONTINUOUS
10
0.882865
20
0.902297
11
0.881751
21
0.902758
0
LINE
8
BLACK
6
CONTINUOUS
10
0.881751
20
0.902758
11
0.880814
21
0.903695
0
LINE
8
BLACK
6
CONTINUOUS
10
0.880814
20
0.903695
11
0.880674
21
0.904034
0
LINE
8
BLACK
6
CONTINUOUS
10
0.880674
20
0.904034
11
0.880434
21
0.904311
0
LINE
8
BLACK
6
CONTINUOUS
10
0.880434
20
0.904311
11
0.879496
21
0.907123
0
LINE
8
BLACK
6
CONTINUOUS
10
0.879496
20
0.907123
11
0.879514
21
0.907381
0
LINE
8
BLACK
6
CONTINUOUS
10
0.879514
20
0.907381
11
0.879415
21
0.907621
0
LINE
8
BLACK
6
CONTINUOUS
10
0.879415
20
0.907621
11
0.879415
21
0.909496
0
LINE
8
BLACK
6
CONTINUOUS
10
0.879415
20
0.909496
11
0.879514
21
0.909735
0
LINE
8
BLACK
6
CONTINUOUS
10
0.879514
20
0.909735
11
0.879496
21
0.909994
0
LINE
8
BLACK
6
CONTINUOUS
10
0.879496
20
0.909994
11
0.880434
21
0.912806
0
LINE
8
BLACK
6
CONTINUOUS
10
0.880434
20
0.912806
11
0.880674
21
0.913083
0
LINE
8
BLACK
6
CONTINUOUS
10
0.880674
20
0.913083
11
0.880814
21
0.913421
0
LINE
8
BLACK
6
CONTINUOUS
10
0.880814
20
0.913421
11
0.882689
21
0.915296
0
LINE
8
BLACK
6
CONTINUOUS
10
0.882689
20
0.915296
11
0.882928
21
0.915395
0
LINE
8
BLACK
6
CONTINUOUS
10
0.882928
20
0.915395
11
0.883098
21
0.915591
0
LINE
8
BLACK
6
CONTINUOUS
10
0.883098
20
0.915591
11
0.884973
21
0.916529
0
LINE
8
BLACK
6
CONTINUOUS
10
0.884973
20
0.916529
11
0.885151
21
0.916541
0
LINE
8
BLACK
6
CONTINUOUS
10
0.885151
20
0.916541
11
0.885295
21
0.916648
0
LINE
8
BLACK
6
CONTINUOUS
10
0.885295
20
0.916648
11
0.889045
21
0.917585
0
LINE
8
BLACK
6
CONTINUOUS
10
0.889045
20
0.917585
11
0.889242
21
0.917556
0
LINE
8
BLACK
6
CONTINUOUS
10
0.889242
20
0.917556
11
0.889427
21
0.917632
0
LINE
8
BLACK
6
CONTINUOUS
10
0.889427
20
0.917632
11
0.892239
21
0.917632
0
LINE
8
BLACK
6
CONTINUOUS
10
0.892239
20
0.917632
11
0.892423
21
0.917556
0
LINE
8
BLACK
6
CONTINUOUS
10
0.916339
20
0.941929
11
0.917731
21
0.941353
0
LINE
8
BLACK
6
CONTINUOUS
10
0.917731
20
0.941353
11
0.918307
21
0.939961
0
LINE
8
BLACK
6
CONTINUOUS
10
0.918307
20
0.939961
11
0.918307
21
0.86122
0
LINE
8
BLACK
6
CONTINUOUS
10
0.918307
20
0.86122
11
0.917731
21
0.859829
0
LINE
8
BLACK
6
CONTINUOUS
10
0.917731
20
0.859829
11
0.916339
21
0.859252
0
LINE
8
BLACK
6
CONTINUOUS
10
0.916339
20
0.859252
11
0.867126
21
0.859252
0
LINE
8
BLACK
6
CONTINUOUS
10
0.867126
20
0.859252
11
0.865734
21
0.859829
0
LINE
8
BLACK
6
CONTINUOUS
10
0.865734
20
0.859829
11
0.865157
21
0.86122
0
LINE
8
BLACK
6
CONTINUOUS
10
0.865157
20
0.86122
11
0.865157
21
0.939961
0
LINE
8
BLACK
6
CONTINUOUS
10
0.865157
20
0.939961
11
0.865734
21
0.941353
0
LINE
8
BLACK
6
CONTINUOUS
10
0.865734
20
0.941353
11
0.867126
21
0.941929
0
LINE
8
BLACK
6
CONTINUOUS
10
0.867126
20
0.941929
11
0.916339
21
0.941929
0
LINE
8
BLACK
6
CONTINUOUS
10
0.869094
20
0.937992
11
0.869094
21
0.863189
0
LINE
8
BLACK
6
CONTINUOUS
10
0.869094
20
0.863189
11
0.91437
21
0.863189
0
LINE
8
BLACK
6
CONTINUOUS
10
0.91437
20
0.863189
11
0.91437
21
0.937992
0
LINE
8
BLACK
6
CONTINUOUS
10
0.91437
20
0.937992
11
0.869094
21
0.937992
0
LINE
8
BLACK
6
CONTINUOUS
10
1.01202
20
0.898962
11
1.01249
21
0.897849
0
LINE
8
BLACK
6
CONTINUOUS
10
1.01249
20
0.897849
11
1.01249
21
0.8866
0
LINE
8
BLACK
6
CONTINUOUS
10
1.01249
20
0.8866
11
1.01202
21
0.885487
0
LINE
8
BLACK
6
CONTINUOUS
10
1.01202
20
0.885487
11
1.01091
21
0.885025
0
LINE
8
BLACK
6
CONTINUOUS
10
1.01091
20
0.885025
11
1.0098
21
0.885487
0
LINE
8
BLACK
6
CONTINUOUS
10
1.0098
20
0.885487
11
1.00934
21
0.8866
0
LINE
8
BLACK
6
CONTINUOUS
10
1.00934
20
0.8866
11
1.00934
21
0.89065
0
LINE
8
BLACK
6
CONTINUOUS
10
1.00934
20
0.89065
11
0.991226
21
0.89065
0
LINE
8
BLACK
6
CONTINUOUS
10
0.991226
20
0.89065
11
0.991076
21
0.890712
0
LINE
8
BLACK
6
CONTINUOUS
10
0.991076
20
0.890712
11
0.990917
21
0.89068
0
LINE
8
BLACK
6
CONTINUOUS
10
0.990917
20
0.89068
11
0.990536
21
0.890935
0
LINE
8
BLACK
6
CONTINUOUS
10
0.990536
20
0.890935
11
0.990113
21
0.891111
0
LINE
8
BLACK
6
CONTINUOUS
10
0.990113
20
0.891111
11
0.990051
21
0.891261
0
LINE
8
BLACK
6
CONTINUOUS
10
0.990051
20
0.891261
11
0.989916
21
0.891351
0
LINE
8
BLACK
6
CONTINUOUS
10
0.989916
20
0.891351
11
0.989827
21
0.891801
0
LINE
8
BLACK
6
CONTINUOUS
10
0.989827
20
0.891801
11
0.989652
21
0.892224
0
LINE
8
BLACK
6
CONTINUOUS
10
0.989652
20
0.892224
11
0.989714
21
0.892374
0
LINE
8
BLACK
6
CONTINUOUS
10
0.989714
20
0.892374
11
0.989682
21
0.892533
0
LINE
8
BLACK
6
CONTINUOUS
10
0.989682
20
0.892533
11
0.989937
21
0.892914
0
LINE
8
BLACK
6
CONTINUOUS
10
0.989937
20
0.892914
11
0.990113
21
0.893338
0
LINE
8
BLACK
6
CONTINUOUS
10
0.990113
20
0.893338
11
0.990263
21
0.8934
0
LINE
8
BLACK
6
CONTINUOUS
10
0.990263
20
0.8934
11
0.990353
21
0.893535
0
LINE
8
BLACK
6
CONTINUOUS
10
0.990353
20
0.893535
11
0.993035
21
0.895323
0
LINE
8
BLACK
6
CONTINUOUS
10
0.993035
20
0.895323
11
0.994619
21
0.896907
0
LINE
8
BLACK
6
CONTINUOUS
10
0.994619
20
0.896907
11
0.995442
21
0.898553
0
LINE
8
BLACK
6
CONTINUOUS
10
0.995442
20
0.898553
11
0.996353
21
0.899343
0
LINE
8
BLACK
6
CONTINUOUS
10
0.996353
20
0.899343
11
0.997555
21
0.899257
0
LINE
8
BLACK
6
CONTINUOUS
10
0.997555
20
0.899257
11
0.998345
21
0.898347
0
LINE
8
BLACK
6
CONTINUOUS
10
0.998345
20
0.898347
11
0.998259
21
0.897144
0
LINE
8
BLACK
6
CONTINUOUS
10
0.998259
20
0.897144
11
0.997322
21
0.89527
0
LINE
8
BLACK
6
CONTINUOUS
10
0.997322
20
0.89527
11
0.997126
21
0.8951
0
LINE
8
BLACK
6
CONTINUOUS
10
0.997126
20
0.8951
11
0.997027
21
0.89486
0
LINE
8
BLACK
6
CONTINUOUS
10
0.997027
20
0.89486
11
0.995966
21
0.893799
0
LINE
8
BLACK
6
CONTINUOUS
10
0.995966
20
0.893799
11
1.00934
21
0.893799
0
LINE
8
BLACK
6
CONTINUOUS
10
1.00934
20
0.893799
11
1.00934
21
0.897849
0
LINE
8
BLACK
6
CONTINUOUS
10
1.00934
20
0.897849
11
1.0098
21
0.898962
0
LINE
8
BLACK
6
CONTINUOUS
10
1.0098
20
0.898962
11
1.01091
21
0.899424
0
LINE
8
BLACK
6
CONTINUOUS
10
1.01091
20
0.899424
11
1.01202
21
0.898962
0
LINE
8
BLACK
6
CONTINUOUS
10
1.01202
20
0.91771
11
1.01249
21
0.916596
0
LINE
8
BLACK
6
CONTINUOUS
10
1.01249
20
0.916596
11
1.01202
21
0.915483
0
LINE
8
BLACK
6
CONTINUOUS
10
1.01202
20
0.915483
11
1.01091
21
0.915022
0
LINE
8
BLACK
6
CONTINUOUS
10
1.01091
20
0.915022
11
1.00311
21
0.915022
0
LINE
8
BLACK
6
CONTINUOUS
10
1.00311
20
0.915022
11
1.00311
21
0.912729
0
LINE
8
BLACK
6
CONTINUOUS
10
1.00311
20
0.912729
11
1.01181
21
0.906638
0
LINE
8
BLACK
6
CONTINUOUS
10
1.01181
20
0.906638
11
1.01246
21
0.905621
0
LINE
8
BLACK
6
CONTINUOUS
10
1.01246
20
0.905621
11
1.0122
21
0.904445
0
LINE
8
BLACK
6
CONTINUOUS
10
1.0122
20
0.904445
11
1.01119
21
0.903797
0
LINE
8
BLACK
6
CONTINUOUS
10
1.01119
20
0.903797
11
1.01001
21
0.904058
0
LINE
8
BLACK
6
CONTINUOUS
10
1.01001
20
0.904058
11
1.00304
21
0.908933
0
LINE
8
BLACK
6
CONTINUOUS
10
1.00304
20
0.908933
11
1.00297
21
0.908759
0
LINE
8
BLACK
6
CONTINUOUS
10
1.00297
20
0.908759
11
1.00295
21
0.908393
0
LINE
8
BLACK
6
CONTINUOUS
10
1.00295
20
0.908393
11
1.00201
21
0.906518
0
LINE
8
BLACK
6
CONTINUOUS
10
1.00201
20
0.906518
11
1.00181
21
0.906348
0
LINE
8
BLACK
6
CONTINUOUS
10
1.00181
20
0.906348
11
1.00171
21
0.906109
0
LINE
8
BLACK
6
CONTINUOUS
10
1.00171
20
0.906109
11
1.00078
21
0.905172
0
LINE
8
BLACK
6
CONTINUOUS
10
1.00078
20
0.905172
11
1.00054
21
0.905072
0
LINE
8
BLACK
6
CONTINUOUS
10
1.00054
20
0.905072
11
1.00037
21
0.904877
0
LINE
8
BLACK
6
CONTINUOUS
10
1.00037
20
0.904877
11
0.998492
21
0.903939
0
LINE
8
BLACK
6
CONTINUOUS
10
0.998492
20
0.903939
11
0.998127
21
0.903913
0
LINE
8
BLACK
6
CONTINUOUS
10
0.998127
20
0.903913
11
0.997788
21
0.903773
0
LINE
8
BLACK
6
CONTINUOUS
10
0.997788
20
0.903773
11
0.994976
21
0.903773
0
LINE
8
BLACK
6
CONTINUOUS
10
0.994976
20
0.903773
11
0.994637
21
0.903913
0
LINE
8
BLACK
6
CONTINUOUS
10
0.994637
20
0.903913
11
0.994272
21
0.903939
0
LINE
8
BLACK
6
CONTINUOUS
10
0.994272
20
0.903939
11
0.992397
21
0.904877
0
LINE
8
BLACK
6
CONTINUOUS
10
0.992397
20
0.904877
11
0.992227
21
0.905072
0
LINE
8
BLACK
6
CONTINUOUS
10
0.992227
20
0.905072
11
0.991988
21
0.905172
0
LINE
8
BLACK
6
CONTINUOUS
10
0.991988
20
0.905172
11
0.99105
21
0.906109
0
LINE
8
BLACK
6
CONTINUOUS
10
0.99105
20
0.906109
11
0.990951
21
0.906349
0
LINE
8
BLACK
6
CONTINUOUS
10
0.990951
20
0.906349
11
0.990755
21
0.906518
0
LINE
8
BLACK
6
CONTINUOUS
10
0.990755
20
0.906518
11
0.989818
21
0.908393
0
LINE
8
BLACK
6
CONTINUOUS
10
0.989818
20
0.908393
11
0.989792
21
0.908759
0
LINE
8
BLACK
6
CONTINUOUS
10
0.989792
20
0.908759
11
0.989652
21
0.909097
0
LINE
8
BLACK
6
CONTINUOUS
10
0.989652
20
0.909097
11
0.989652
21
0.916596
0
LINE
8
BLACK
6
CONTINUOUS
10
0.989652
20
0.916596
11
0.990113
21
0.91771
0
LINE
8
BLACK
6
CONTINUOUS
10
0.990113
20
0.91771
11
0.991226
21
0.918171
0
LINE
8
BLACK
6
CONTINUOUS
10
0.991226
20
0.918171
11
1.01091
21
0.918171
0
LINE
8
BLACK
6
CONTINUOUS
10
1.01091
20
0.918171
11
1.01202
21
0.91771
0
LINE
8
BLACK
6
CONTINUOUS
10
0.992801
20
0.909469
11
0.993458
21
0.908155
0
LINE
8
BLACK
6
CONTINUOUS
10
0.993458
20
0.908155
11
0.994034
21
0.907579
0
LINE
8
BLACK
6
CONTINUOUS
10
0.994034
20
0.907579
11
0.995348
21
0.906923
0
LINE
8
BLACK
6
CONTINUOUS
10
0.995348
20
0.906923
11
0.997416
21
0.906923
0
LINE
8
BLACK
6
CONTINUOUS
10
0.997416
20
0.906923
11
0.99873
21
0.907579
0
LINE
8
BLACK
6
CONTINUOUS
10
0.99873
20
0.907579
11
0.999306
21
0.908155
0
LINE
8
BLACK
6
CONTINUOUS
10
0.999306
20
0.908155
11
0.999963
21
0.909469
0
LINE
8
BLACK
6
CONTINUOUS
10
0.999963
20
0.909469
11
0.999963
21
0.915022
0
LINE
8
BLACK
6
CONTINUOUS
10
0.999963
20
0.915022
11
0.992801
21
0.915022
0
LINE
8
BLACK
6
CONTINUOUS
10
0.992801
20
0.915022
11
0.992801
21
0.909469
0
LINE
8
BLACK
6
CONTINUOUS
10
1.02657
20
0.943406
11
1.02797
21
0.942829
0
LINE
8
BLACK
6
CONTINUOUS
10
1.02797
20
0.942829
11
1.02854
21
0.941437
0
LINE
8
BLACK
6
CONTINUOUS
10
1.02854
20
0.941437
11
1.02854
21
0.862697
0
LINE
8
BLACK
6
CONTINUOUS
10
1.02854
20
0.862697
11
1.02797
21
0.861305
0
LINE
8
BLACK
6
CONTINUOUS
10
1.02797
20
0.861305
11
1.02657
21
0.860728
0
LINE
8
BLACK
6
CONTINUOUS
10
1.02657
20
0.860728
11
0.977362
21
0.860728
0
LINE
8
BLACK
6
CONTINUOUS
10
0.977362
20
0.860728
11
0.97597
21
0.861305
0
LINE
8
BLACK
6
CONTINUOUS
10
0.97597
20
0.861305
11
0.975394
21
0.862697
0
LINE
8
BLACK
6
CONTINUOUS
10
0.975394
20
0.862697
11
0.975394
21
0.941437
0
LINE
8
BLACK
6
CONTINUOUS
10
0.975394
20
0.941437
11
0.97597
21
0.942829
0
LINE
8
BLACK
6
CONTINUOUS
10
0.97597
20
0.942829
11
0.977362
21
0.943406
0
LINE
8
BLACK
6
CONTINUOUS
10
0.977362
20
0.943406
11
1.02657
21
0.943406
0
LINE
8
BLACK
6
CONTINUOUS
10
0.979331
20
0.939469
11
0.979331
21
0.864665
0
LINE
8
BLACK
6
CONTINUOUS
10
0.979331
20
0.864665
11
1.02461
21
0.864665
0
LINE
8
BLACK
6
CONTINUOUS
10
1.02461
20
0.864665
11
1.02461
21
0.939469
0
LINE
8
BLACK
6
CONTINUOUS
10
1.02461
20
0.939469
11
0.979331
21
0.939469
0
LINE
8
BLACK
6
CONTINUOUS
10
0.814688
20
0.947643
11
0.816817
21
0.945798
0
LINE
8
BLACK
6
CONTINUOUS
10
0.816817
20
0.945798
11
0.817611
21
0.943095
0
LINE
8
BLACK
6
CONTINUOUS
10
0.817611
20
0.943095
11
0.817611
21
0.914524
0
LINE
8
BLACK
6
CONTINUOUS
10
0.817611
20
0.914524
11
0.817408
21
0.913115
0
LINE
8
BLACK
6
CONTINUOUS
10
0.817408
20
0.913115
11
0.815885
21
0.910745
0
LINE
8
BLACK
6
CONTINUOUS
10
0.815885
20
0.910745
11
0.813323
21
0.909575
0
LINE
8
BLACK
6
CONTINUOUS
10
0.813323
20
0.909575
11
0.810534
21
0.909976
0
LINE
8
BLACK
6
CONTINUOUS
10
0.810534
20
0.909976
11
0.808405
21
0.911821
0
LINE
8
BLACK
6
CONTINUOUS
10
0.808405
20
0.911821
11
0.807611
21
0.914524
0
LINE
8
BLACK
6
CONTINUOUS
10
0.807611
20
0.914524
11
0.807611
21
0.92381
0
LINE
8
BLACK
6
CONTINUOUS
10
0.807611
20
0.92381
11
0.762611
21
0.92381
0
LINE
8
BLACK
6
CONTINUOUS
10
0.762611
20
0.92381
11
0.761354
21
0.92399
0
LINE
8
BLACK
6
CONTINUOUS
10
0.761354
20
0.92399
11
0.761283
21
0.923989
0
LINE
8
BLACK
6
CONTINUOUS
10
0.761283
20
0.923989
11
0.761259
21
0.924004
0
LINE
8
BLACK
6
CONTINUOUS
10
0.761259
20
0.924004
11
0.761202
21
0.924012
0
LINE
8
BLACK
6
CONTINUOUS
10
0.761202
20
0.924012
11
0.76005
21
0.924753
0
LINE
8
BLACK
6
CONTINUOUS
10
0.76005
20
0.924753
11
0.758888
21
0.925472
0
LINE
8
BLACK
6
CONTINUOUS
10
0.758888
20
0.925472
11
0.758869
21
0.925512
0
LINE
8
BLACK
6
CONTINUOUS
10
0.758869
20
0.925512
11
0.758832
21
0.925535
0
LINE
8
BLACK
6
CONTINUOUS
10
0.758832
20
0.925535
11
0.758264
21
0.92678
0
LINE
8
BLACK
6
CONTINUOUS
10
0.758264
20
0.92678
11
0.757674
21
0.928015
0
LINE
8
BLACK
6
CONTINUOUS
10
0.757674
20
0.928015
11
0.75768
21
0.928058
0
LINE
8
BLACK
6
CONTINUOUS
10
0.75768
20
0.928058
11
0.757662
21
0.928098
0
LINE
8
BLACK
6
CONTINUOUS
10
0.757662
20
0.928098
11
0.757857
21
0.929452
0
LINE
8
BLACK
6
CONTINUOUS
10
0.757857
20
0.929452
11
0.758029
21
0.93081
0
LINE
8
BLACK
6
CONTINUOUS
10
0.758029
20
0.93081
11
0.758057
21
0.930843
0
LINE
8
BLACK
6
CONTINUOUS
10
0.758057
20
0.930843
11
0.758063
21
0.930887
0
LINE
8
BLACK
6
CONTINUOUS
10
0.758063
20
0.930887
11
0.758959
21
0.931921
0
LINE
8
BLACK
6
CONTINUOUS
10
0.758959
20
0.931921
11
0.759837
21
0.93297
0
LINE
8
BLACK
6
CONTINUOUS
10
0.759837
20
0.93297
11
0.766568
21
0.937457
0
LINE
8
BLACK
6
CONTINUOUS
10
0.766568
20
0.937457
11
0.770406
21
0.941295
0
LINE
8
BLACK
6
CONTINUOUS
10
0.770406
20
0.941295
11
0.772424
21
0.945331
0
LINE
8
BLACK
6
CONTINUOUS
10
0.772424
20
0.945331
11
0.773236
21
0.946501
0
LINE
8
BLACK
6
CONTINUOUS
10
0.773236
20
0.946501
11
0.775658
21
0.947939
0
LINE
8
BLACK
6
CONTINUOUS
10
0.775658
20
0.947939
11
0.778473
21
0.94784
0
LINE
8
BLACK
6
CONTINUOUS
10
0.778473
20
0.94784
11
0.780788
21
0.946234
0
LINE
8
BLACK
6
CONTINUOUS
10
0.780788
20
0.946234
11
0.781868
21
0.943632
0
LINE
8
BLACK
6
CONTINUOUS
10
0.781868
20
0.943632
11
0.781369
21
0.940859
0
LINE
8
BLACK
6
CONTINUOUS
10
0.781369
20
0.940859
11
0.778988
21
0.936097
0
LINE
8
BLACK
6
CONTINUOUS
10
0.778988
20
0.936097
11
0.778177
21
0.934928
0
LINE
8
BLACK
6
CONTINUOUS
10
0.778177
20
0.934928
11
0.778096
21
0.93488
0
LINE
8
BLACK
6
CONTINUOUS
10
0.778096
20
0.93488
11
0.778051
21
0.934798
0
LINE
8
BLACK
6
CONTINUOUS
10
0.778051
20
0.934798
11
0.777063
21
0.93381
0
LINE
8
BLACK
6
CONTINUOUS
10
0.777063
20
0.93381
11
0.807611
21
0.93381
0
LINE
8
BLACK
6
CONTINUOUS
10
0.807611
20
0.93381
11
0.807611
21
0.943095
0
LINE
8
BLACK
6
CONTINUOUS
10
0.807611
20
0.943095
11
0.807813
21
0.944504
0
LINE
8
BLACK
6
CONTINUOUS
10
0.807813
20
0.944504
11
0.809337
21
0.946874
0
LINE
8
BLACK
6
CONTINUOUS
10
0.809337
20
0.946874
11
0.811899
21
0.948044
0
LINE
8
BLACK
6
CONTINUOUS
10
0.811899
20
0.948044
11
0.814688
21
0.947643
0
LINE
8
BLACK
6
CONTINUOUS
10
0.804496
20
0.997893
11
0.804877
21
0.997648
0
LINE
8
BLACK
6
CONTINUOUS
10
0.804877
20
0.997648
11
0.805323
21
0.997567
0
LINE
8
BLACK
6
CONTINUOUS
10
0.805323
20
0.997567
11
0.810085
21
0.995186
0
LINE
8
BLACK
6
CONTINUOUS
10
0.810085
20
0.995186
11
0.811254
21
0.994375
0
LINE
8
BLACK
6
CONTINUOUS
10
0.811254
20
0.994375
11
0.811302
21
0.994295
0
LINE
8
BLACK
6
CONTINUOUS
10
0.811302
20
0.994295
11
0.811385
21
0.99425
0
LINE
8
BLACK
6
CONTINUOUS
10
0.811385
20
0.99425
11
0.813766
21
0.991869
0
LINE
8
BLACK
6
CONTINUOUS
10
0.813766
20
0.991869
11
0.814618
21
0.99073
0
LINE
8
BLACK
6
CONTINUOUS
10
0.814618
20
0.99073
11
0.814638
21
0.990638
0
LINE
8
BLACK
6
CONTINUOUS
10
0.814638
20
0.990638
11
0.814702
21
0.990569
0
LINE
8
BLACK
6
CONTINUOUS
10
0.814702
20
0.990569
11
0.817083
21
0.985808
0
LINE
8
BLACK
6
CONTINUOUS
10
0.817083
20
0.985808
11
0.817532
21
0.984457
0
LINE
8
BLACK
6
CONTINUOUS
10
0.817532
20
0.984457
11
0.817483
21
0.984006
0
LINE
8
BLACK
6
CONTINUOUS
10
0.817483
20
0.984006
11
0.817611
21
0.983571
0
LINE
8
BLACK
6
CONTINUOUS
10
0.817611
20
0.983571
11
0.817611
21
0.974048
0
LINE
8
BLACK
6
CONTINUOUS
10
0.817611
20
0.974048
11
0.817408
21
0.972639
0
LINE
8
BLACK
6
CONTINUOUS
10
0.817408
20
0.972639
11
0.817163
21
0.972258
0
LINE
8
BLACK
6
CONTINUOUS
10
0.817163
20
0.972258
11
0.817083
21
0.971812
0
LINE
8
BLACK
6
CONTINUOUS
10
0.817083
20
0.971812
11
0.814702
21
0.96705
0
LINE
8
BLACK
6
CONTINUOUS
10
0.814702
20
0.96705
11
0.813891
21
0.96588
0
LINE
8
BLACK
6
CONTINUOUS
10
0.813891
20
0.96588
11
0.81381
21
0.965832
0
LINE
8
BLACK
6
CONTINUOUS
10
0.81381
20
0.965832
11
0.813766
21
0.96575
0
LINE
8
BLACK
6
CONTINUOUS
10
0.813766
20
0.96575
11
0.811385
21
0.963369
0
LINE
8
BLACK
6
CONTINUOUS
10
0.811385
20
0.963369
11
0.810245
21
0.962516
0
LINE
8
BLACK
6
CONTINUOUS
10
0.810245
20
0.962516
11
0.810154
21
0.962496
0
LINE
8
BLACK
6
CONTINUOUS
10
0.810154
20
0.962496
11
0.810085
21
0.962433
0
LINE
8
BLACK
6
CONTINUOUS
10
0.810085
20
0.962433
11
0.805323
21
0.960052
0
LINE
8
BLACK
6
CONTINUOUS
10
0.805323
20
0.960052
11
0.803973
21
0.959603
0
LINE
8
BLACK
6
CONTINUOUS
10
0.803973
20
0.959603
11
0.803522
21
0.959652
0
LINE
8
BLACK
6
CONTINUOUS
10
0.803522
20
0.959652
11
0.803087
21
0.959524
0
LINE
8
BLACK
6
CONTINUOUS
10
0.803087
20
0.959524
11
0.762611
21
0.959524
0
LINE
8
BLACK
6
CONTINUOUS
10
0.762611
20
0.959524
11
0.761202
21
0.959726
0
LINE
8
BLACK
6
CONTINUOUS
10
0.761202
20
0.959726
11
0.758832
21
0.96125
0
LINE
8
BLACK
6
CONTINUOUS
10
0.758832
20
0.96125
11
0.757662
21
0.963812
0
LINE
8
BLACK
6
CONTINUOUS
10
0.757662
20
0.963812
11
0.758063
21
0.966601
0
LINE
8
BLACK
6
CONTINUOUS
10
0.758063
20
0.966601
11
0.759908
21
0.96873
0
LINE
8
BLACK
6
CONTINUOUS
10
0.759908
20
0.96873
11
0.762611
21
0.969524
0
LINE
8
BLACK
6
CONTINUOUS
10
0.762611
20
0.969524
11
0.801907
21
0.969524
0
LINE
8
BLACK
6
CONTINUOUS
10
0.801907
20
0.969524
11
0.804887
21
0.971014
0
LINE
8
BLACK
6
CONTINUOUS
10
0.804887
20
0.971014
11
0.806121
21
0.972248
0
LINE
8
BLACK
6
CONTINUOUS
10
0.806121
20
0.972248
11
0.807611
21
0.975228
0
LINE
8
BLACK
6
CONTINUOUS
10
0.807611
20
0.975228
11
0.807611
21
0.982391
0
LINE
8
BLACK
6
CONTINUOUS
10
0.807611
20
0.982391
11
0.806121
21
0.985371
0
LINE
8
BLACK
6
CONTINUOUS
10
0.806121
20
0.985371
11
0.804887
21
0.986605
0
LINE
8
BLACK
6
CONTINUOUS
10
0.804887
20
0.986605
11
0.801907
21
0.988095
0
LINE
8
BLACK
6
CONTINUOUS
10
0.801907
20
0.988095
11
0.762611
21
0.988095
0
LINE
8
BLACK
6
CONTINUOUS
10
0.762611
20
0.988095
11
0.761202
21
0.988298
0
LINE
8
BLACK
6
CONTINUOUS
10
0.761202
20
0.988298
11
0.758832
21
0.989821
0
LINE
8
BLACK
6
CONTINUOUS
10
0.758832
20
0.989821
11
0.757662
21
0.992384
0
LINE
8
BLACK
6
CONTINUOUS
10
0.757662
20
0.992384
11
0.758063
21
0.995172
0
LINE
8
BLACK
6
CONTINUOUS
10
0.758063
20
0.995172
11
0.759908
21
0.997302
0
LINE
8
BLACK
6
CONTINUOUS
10
0.759908
20
0.997302
11
0.762611
21
0.998095
0
LINE
8
BLACK
6
CONTINUOUS
10
0.762611
20
0.998095
11
0.803087
21
0.998095
0
LINE
8
BLACK
6
CONTINUOUS
10
0.803087
20
0.998095
11
0.804496
21
0.997893
0
LINE
8
BLACK
6
CONTINUOUS
10
0.605078
20
1.04755
11
0.605586
21
1.04739
0
LINE
8
BLACK
6
CONTINUOUS
10
0.605586
20
1.04739
11
0.605625
21
1.04732
0
LINE
8
BLACK
6
CONTINUOUS
10
0.605625
20
1.04732
11
0.605702
21
1.04729
0
LINE
8
BLACK
6
CONTINUOUS
10
0.605702
20
1.04729
11
0.605905
21
1.0468
0
LINE
8
BLACK
6
CONTINUOUS
10
0.605905
20
1.0468
11
0.606155
21
1.04633
0
LINE
8
BLACK
6
CONTINUOUS
10
0.606155
20
1.04633
11
0.607093
21
1.03696
0
LINE
8
BLACK
6
CONTINUOUS
10
0.607093
20
1.03696
11
0.607069
21
1.03688
0
LINE
8
BLACK
6
CONTINUOUS
10
0.607069
20
1.03688
11
0.607101
21
1.0368
0
LINE
8
BLACK
6
CONTINUOUS
10
0.607101
20
1.0368
11
0.606898
21
1.03631
0
LINE
8
BLACK
6
CONTINUOUS
10
0.606898
20
1.03631
11
0.606745
21
1.0358
0
LINE
8
BLACK
6
CONTINUOUS
10
0.606745
20
1.0358
11
0.606671
21
1.03576
0
LINE
8
BLACK
6
CONTINUOUS
10
0.606671
20
1.03576
11
0.606639
21
1.03569
0
LINE
8
BLACK
6
CONTINUOUS
10
0.606639
20
1.03569
11
0.606149
21
1.03548
0
LINE
8
BLACK
6
CONTINUOUS
10
0.606149
20
1.03548
11
0.605683
21
1.03523
0
LINE
8
BLACK
6
CONTINUOUS
10
0.605683
20
1.03523
11
0.605603
21
1.03526
0
LINE
8
BLACK
6
CONTINUOUS
10
0.605603
20
1.03526
11
0.605526
21
1.03523
0
LINE
8
BLACK
6
CONTINUOUS
10
0.605526
20
1.03523
11
0.605036
21
1.03543
0
LINE
8
BLACK
6
CONTINUOUS
10
0.605036
20
1.03543
11
0.604529
21
1.03558
0
LINE
8
BLACK
6
CONTINUOUS
10
0.604529
20
1.03558
11
0.604489
21
1.03566
0
LINE
8
BLACK
6
CONTINUOUS
10
0.604489
20
1.03566
11
0.604412
21
1.03569
0
LINE
8
BLACK
6
CONTINUOUS
10
0.604412
20
1.03569
11
0.603656
21
1.03644
0
LINE
8
BLACK
6
CONTINUOUS
10
0.603656
20
1.03644
11
0.602342
21
1.0371
0
LINE
8
BLACK
6
CONTINUOUS
10
0.602342
20
1.0371
11
0.598399
21
1.0371
0
LINE
8
BLACK
6
CONTINUOUS
10
0.598399
20
1.0371
11
0.597085
21
1.03644
0
LINE
8
BLACK
6
CONTINUOUS
10
0.597085
20
1.03644
11
0.596509
21
1.03587
0
LINE
8
BLACK
6
CONTINUOUS
10
0.596509
20
1.03587
11
0.595852
21
1.03455
0
LINE
8
BLACK
6
CONTINUOUS
10
0.595852
20
1.03455
11
0.595852
21
1.03061
0
LINE
8
BLACK
6
CONTINUOUS
10
0.595852
20
1.03061
11
0.596509
21
1.0293
0
LINE
8
BLACK
6
CONTINUOUS
10
0.596509
20
1.0293
11
0.597085
21
1.02872
0
LINE
8
BLACK
6
CONTINUOUS
10
0.597085
20
1.02872
11
0.598399
21
1.02807
0
LINE
8
BLACK
6
CONTINUOUS
10
0.598399
20
1.02807
11
0.602342
21
1.02807
0
LINE
8
BLACK
6
CONTINUOUS
10
0.602342
20
1.02807
11
0.603656
21
1.02872
0
LINE
8
BLACK
6
CONTINUOUS
10
0.603656
20
1.02872
11
0.604412
21
1.02948
0
LINE
8
BLACK
6
CONTINUOUS
10
0.604412
20
1.02948
11
0.605526
21
1.02994
0
LINE
8
BLACK
6
CONTINUOUS
10
0.605526
20
1.02994
11
0.606639
21
1.02948
0
LINE
8
BLACK
6
CONTINUOUS
10
0.606639
20
1.02948
11
0.607101
21
1.02836
0
LINE
8
BLACK
6
CONTINUOUS
10
0.607101
20
1.02836
11
0.606639
21
1.02725
0
LINE
8
BLACK
6
CONTINUOUS
10
0.606639
20
1.02725
11
0.605702
21
1.02631
0
LINE
8
BLACK
6
CONTINUOUS
10
0.605702
20
1.02631
11
0.605462
21
1.02621
0
LINE
8
BLACK
6
CONTINUOUS
10
0.605462
20
1.02621
11
0.605293
21
1.02602
0
LINE
8
BLACK
6
CONTINUOUS
10
0.605293
20
1.02602
11
0.603418
21
1.02508
0
LINE
8
BLACK
6
CONTINUOUS
10
0.603418
20
1.02508
11
0.603052
21
1.02506
0
LINE
8
BLACK
6
CONTINUOUS
10
0.603052
20
1.02506
11
0.602714
21
1.02492
0
LINE
8
BLACK
6
CONTINUOUS
10
0.602714
20
1.02492
11
0.598027
21
1.02492
0
LINE
8
BLACK
6
CONTINUOUS
10
0.598027
20
1.02492
11
0.597688
21
1.02506
0
LINE
8
BLACK
6
CONTINUOUS
10
0.597688
20
1.02506
11
0.597322
21
1.02508
0
LINE
8
BLACK
6
CONTINUOUS
10
0.597322
20
1.02508
11
0.595448
21
1.02602
0
LINE
8
BLACK
6
CONTINUOUS
10
0.595448
20
1.02602
11
0.595278
21
1.02621
0
LINE
8
BLACK
6
CONTINUOUS
10
0.595278
20
1.02621
11
0.595038
21
1.02631
0
LINE
8
BLACK
6
CONTINUOUS
10
0.595038
20
1.02631
11
0.594101
21
1.02725
0
LINE
8
BLACK
6
CONTINUOUS
10
0.594101
20
1.02725
11
0.594002
21
1.02749
0
LINE
8
BLACK
6
CONTINUOUS
10
0.594002
20
1.02749
11
0.593806
21
1.02766
0
LINE
8
BLACK
6
CONTINUOUS
10
0.593806
20
1.02766
11
0.592869
21
1.02954
0
LINE
8
BLACK
6
CONTINUOUS
10
0.592869
20
1.02954
11
0.592843
21
1.0299
0
LINE
8
BLACK
6
CONTINUOUS
10
0.592843
20
1.0299
11
0.592702
21
1.03024
0
LINE
8
BLACK
6
CONTINUOUS
10
0.592702
20
1.03024
11
0.592702
21
1.03493
0
LINE
8
BLACK
6
CONTINUOUS
10
0.592702
20
1.03493
11
0.592843
21
1.03527
0
LINE
8
BLACK
6
CONTINUOUS
10
0.592843
20
1.03527
11
0.592869
21
1.03563
0
LINE
8
BLACK
6
CONTINUOUS
10
0.592869
20
1.03563
11
0.593806
21
1.03751
0
LINE
8
BLACK
6
CONTINUOUS
10
0.593806
20
1.03751
11
0.594002
21
1.03768
0
LINE
8
BLACK
6
CONTINUOUS
10
0.594002
20
1.03768
11
0.594101
21
1.03791
0
LINE
8
BLACK
6
CONTINUOUS
10
0.594101
20
1.03791
11
0.595038
21
1.03885
0
LINE
8
BLACK
6
CONTINUOUS
10
0.595038
20
1.03885
11
0.595278
21
1.03895
0
LINE
8
BLACK
6
CONTINUOUS
10
0.595278
20
1.03895
11
0.595448
21
1.03915
0
LINE
8
BLACK
6
CONTINUOUS
10
0.595448
20
1.03915
11
0.597322
21
1.04008
0
LINE
8
BLACK
6
CONTINUOUS
10
0.597322
20
1.04008
11
0.597688
21
1.04011
0
LINE
8
BLACK
6
CONTINUOUS
10
0.597688
20
1.04011
11
0.598027
21
1.04025
0
LINE
8
BLACK
6
CONTINUOUS
10
0.598027
20
1.04025
11
0.602714
21
1.04025
0
LINE
8
BLACK
6
CONTINUOUS
10
0.602714
20
1.04025
11
0.603052
21
1.04011
0
LINE
8
BLACK
6
CONTINUOUS
10
0.603052
20
1.04011
11
0.603418
21
1.04008
0
LINE
8
BLACK
6
CONTINUOUS
10
0.603418
20
1.04008
11
0.603625
21
1.03998
0
LINE
8
BLACK
6
CONTINUOUS
10
0.603625
20
1.03998
11
0.603163
21
1.0446
0
LINE
8
BLACK
6
CONTINUOUS
10
0.603163
20
1.0446
11
0.595215
21
1.0446
0
LINE
8
BLACK
6
CONTINUOUS
10
0.595215
20
1.0446
11
0.594101
21
1.04506
0
LINE
8
BLACK
6
CONTINUOUS
10
0.594101
20
1.04506
11
0.59364
21
1.04618
0
LINE
8
BLACK
6
CONTINUOUS
10
0.59364
20
1.04618
11
0.594101
21
1.04729
0
LINE
8
BLACK
6
CONTINUOUS
10
0.594101
20
1.04729
11
0.595215
21
1.04775
0
LINE
8
BLACK
6
CONTINUOUS
10
0.595215
20
1.04775
11
0.604588
21
1.04775
0
LINE
8
BLACK
6
CONTINUOUS
10
0.604588
20
1.04775
11
0.605078
21
1.04755
0
LINE
8
BLACK
6
CONTINUOUS
10
0.625387
20
1.04729
11
0.625848
21
1.04618
0
LINE
8
BLACK
6
CONTINUOUS
10
0.625848
20
1.04618
11
0.625848
21
1.02649
0
LINE
8
BLACK
6
CONTINUOUS
10
0.625848
20
1.02649
11
0.625387
21
1.02538
0
LINE
8
BLACK
6
CONTINUOUS
10
0.625387
20
1.02538
11
0.624274
21
1.02492
0
LINE
8
BLACK
6
CONTINUOUS
10
0.624274
20
1.02492
11
0.62316
21
1.02538
0
LINE
8
BLACK
6
CONTINUOUS
10
0.62316
20
1.02538
11
0.622699
21
1.02649
0
LINE
8
BLACK
6
CONTINUOUS
10
0.622699
20
1.02649
11
0.622699
21
1.03429
0
LINE
8
BLACK
6
CONTINUOUS
10
0.622699
20
1.03429
11
0.620406
21
1.03429
0
LINE
8
BLACK
6
CONTINUOUS
10
0.620406
20
1.03429
11
0.614315
21
1.02559
0
LINE
8
BLACK
6
CONTINUOUS
10
0.614315
20
1.02559
11
0.613299
21
1.02494
0
LINE
8
BLACK
6
CONTINUOUS
10
0.613299
20
1.02494
11
0.612122
21
1.0252
0
LINE
8
BLACK
6
CONTINUOUS
10
0.612122
20
1.0252
11
0.611474
21
1.02622
0
LINE
8
BLACK
6
CONTINUOUS
10
0.611474
20
1.02622
11
0.611735
21
1.02739
0
LINE
8
BLACK
6
CONTINUOUS
10
0.611735
20
1.02739
11
0.61661
21
1.03436
0
LINE
8
BLACK
6
CONTINUOUS
10
0.61661
20
1.03436
11
0.616436
21
1.03443
0
LINE
8
BLACK
6
CONTINUOUS
10
0.616436
20
1.03443
11
0.61607
21
1.03446
0
LINE
8
BLACK
6
CONTINUOUS
10
0.61607
20
1.03446
11
0.614195
21
1.03539
0
LINE
8
BLACK
6
CONTINUOUS
10
0.614195
20
1.03539
11
0.614026
21
1.03559
0
LINE
8
BLACK
6
CONTINUOUS
10
0.614026
20
1.03559
11
0.613786
21
1.03569
0
LINE
8
BLACK
6
CONTINUOUS
10
0.613786
20
1.03569
11
0.612849
21
1.03663
0
LINE
8
BLACK
6
CONTINUOUS
10
0.612849
20
1.03663
11
0.612749
21
1.03686
0
LINE
8
BLACK
6
CONTINUOUS
10
0.612749
20
1.03686
11
0.612554
21
1.03703
0
LINE
8
BLACK
6
CONTINUOUS
10
0.612554
20
1.03703
11
0.611616
21
1.03891
0
LINE
8
BLACK
6
CONTINUOUS
10
0.611616
20
1.03891
11
0.61159
21
1.03927
0
LINE
8
BLACK
6
CONTINUOUS
10
0.61159
20
1.03927
11
0.61145
21
1.03961
0
LINE
8
BLACK
6
CONTINUOUS
10
0.61145
20
1.03961
11
0.61145
21
1.04243
0
LINE
8
BLACK
6
CONTINUOUS
10
0.61145
20
1.04243
11
0.61159
21
1.04276
0
LINE
8
BLACK
6
CONTINUOUS
10
0.61159
20
1.04276
11
0.611616
21
1.04313
0
LINE
8
BLACK
6
CONTINUOUS
10
0.611616
20
1.04313
11
0.612554
21
1.045
0
LINE
8
BLACK
6
CONTINUOUS
10
0.612554
20
1.045
11
0.612749
21
1.04517
0
LINE
8
BLACK
6
CONTINUOUS
10
0.612749
20
1.04517
11
0.612849
21
1.04541
0
LINE
8
BLACK
6
CONTINUOUS
10
0.612849
20
1.04541
11
0.613786
21
1.04635
0
LINE
8
BLACK
6
CONTINUOUS
10
0.613786
20
1.04635
11
0.614026
21
1.04645
0
LINE
8
BLACK
6
CONTINUOUS
10
0.614026
20
1.04645
11
0.614195
21
1.04665
0
LINE
8
BLACK
6
CONTINUOUS
10
0.614195
20
1.04665
11
0.61607
21
1.04758
0
LINE
8
BLACK
6
CONTINUOUS
10
0.61607
20
1.04758
11
0.616436
21
1.04761
0
LINE
8
BLACK
6
CONTINUOUS
10
0.616436
20
1.04761
11
0.616774
21
1.04775
0
LINE
8
BLACK
6
CONTINUOUS
10
0.616774
20
1.04775
11
0.624274
21
1.04775
0
LINE
8
BLACK
6
CONTINUOUS
10
0.624274
20
1.04775
11
0.625387
21
1.04729
0
LINE
8
BLACK
6
CONTINUOUS
10
0.615833
20
1.04394
11
0.615256
21
1.04337
0
LINE
8
BLACK
6
CONTINUOUS
10
0.615256
20
1.04337
11
0.6146
21
1.04205
0
LINE
8
BLACK
6
CONTINUOUS
10
0.6146
20
1.04205
11
0.6146
21
1.03999
0
LINE
8
BLACK
6
CONTINUOUS
10
0.6146
20
1.03999
11
0.615256
21
1.03867
0
LINE
8
BLACK
6
CONTINUOUS
10
0.615256
20
1.03867
11
0.615833
21
1.0381
0
LINE
8
BLACK
6
CONTINUOUS
10
0.615833
20
1.0381
11
0.617146
21
1.03744
0
LINE
8
BLACK
6
CONTINUOUS
10
0.617146
20
1.03744
11
0.622699
21
1.03744
0
LINE
8
BLACK
6
CONTINUOUS
10
0.622699
20
1.03744
11
0.622699
21
1.0446
0
LINE
8
BLACK
6
CONTINUOUS
10
0.622699
20
1.0446
11
0.617146
21
1.0446
0
LINE
8
BLACK
6
CONTINUOUS
10
0.617146
20
1.0446
11
0.615833
21
1.04394
0
LINE
8
BLACK
6
CONTINUOUS
10
0.649114
20
1.06201
11
0.650506
21
1.06143
0
LINE
8
BLACK
6
CONTINUOUS
10
0.650506
20
1.06143
11
0.651083
21
1.06004
0
LINE
8
BLACK
6
CONTINUOUS
10
0.651083
20
1.06004
11
0.651083
21
1.01083
0
LINE
8
BLACK
6
CONTINUOUS
10
0.651083
20
1.01083
11
0.650506
21
1.00943
0
LINE
8
BLACK
6
CONTINUOUS
10
0.650506
20
1.00943
11
0.649114
21
1.00886
0
LINE
8
BLACK
6
CONTINUOUS
10
0.649114
20
1.00886
11
0.570374
21
1.00886
0
LINE
8
BLACK
6
CONTINUOUS
10
0.570374
20
1.00886
11
0.568982
21
1.00943
0
LINE
8
BLACK
6
CONTINUOUS
10
0.568982
20
1.00943
11
0.568406
21
1.01083
0
LINE
8
BLACK
6
CONTINUOUS
10
0.568406
20
1.01083
11
0.568406
21
1.06004
0
LINE
8
BLACK
6
CONTINUOUS
10
0.568406
20
1.06004
11
0.568982
21
1.06143
0
LINE
8
BLACK
6
CONTINUOUS
10
0.568982
20
1.06143
11
0.570374
21
1.06201
0
LINE
8
BLACK
6
CONTINUOUS
10
0.570374
20
1.06201
11
0.649114
21
1.06201
0
LINE
8
BLACK
6
CONTINUOUS
10
0.572343
20
1.05807
11
0.572343
21
1.0128
0
LINE
8
BLACK
6
CONTINUOUS
10
0.572343
20
1.0128
11
0.647146
21
1.0128
0
LINE
8
BLACK
6
CONTINUOUS
10
0.647146
20
1.0128
11
0.647146
21
1.05807
0
LINE
8
BLACK
6
CONTINUOUS
10
0.647146
20
1.05807
11
0.572343
21
1.05807
0
LINE
8
BLACK
6
CONTINUOUS
10
0.739338
20
1.04852
11
0.740128
21
1.04761
0
LINE
8
BLACK
6
CONTINUOUS
10
0.740128
20
1.04761
11
0.744815
21
1.03355
0
LINE
8
BLACK
6
CONTINUOUS
10
0.744815
20
1.03355
11
0.744797
21
1.03329
0
LINE
8
BLACK
6
CONTINUOUS
10
0.744797
20
1.03329
11
0.744896
21
1.03305
0
LINE
8
BLACK
6
CONTINUOUS
10
0.744896
20
1.03305
11
0.744756
21
1.03271
0
LINE
8
BLACK
6
CONTINUOUS
10
0.744756
20
1.03271
11
0.74473
21
1.03235
0
LINE
8
BLACK
6
CONTINUOUS
10
0.74473
20
1.03235
11
0.744534
21
1.03218
0
LINE
8
BLACK
6
CONTINUOUS
10
0.744534
20
1.03218
11
0.744435
21
1.03194
0
LINE
8
BLACK
6
CONTINUOUS
10
0.744435
20
1.03194
11
0.744096
21
1.0318
0
LINE
8
BLACK
6
CONTINUOUS
10
0.744096
20
1.0318
11
0.743819
21
1.03156
0
LINE
8
BLACK
6
CONTINUOUS
10
0.743819
20
1.03156
11
0.743561
21
1.03158
0
LINE
8
BLACK
6
CONTINUOUS
10
0.743561
20
1.03158
11
0.743321
21
1.03148
0
LINE
8
BLACK
6
CONTINUOUS
10
0.743321
20
1.03148
11
0.735522
21
1.03148
0
LINE
8
BLACK
6
CONTINUOUS
10
0.735522
20
1.03148
11
0.735522
21
1.02649
0
LINE
8
BLACK
6
CONTINUOUS
10
0.735522
20
1.02649
11
0.735061
21
1.02538
0
LINE
8
BLACK
6
CONTINUOUS
10
0.735061
20
1.02538
11
0.733947
21
1.02492
0
LINE
8
BLACK
6
CONTINUOUS
10
0.733947
20
1.02492
11
0.732834
21
1.02538
0
LINE
8
BLACK
6
CONTINUOUS
10
0.732834
20
1.02538
11
0.732372
21
1.02649
0
LINE
8
BLACK
6
CONTINUOUS
10
0.732372
20
1.02649
11
0.732372
21
1.03148
0
LINE
8
BLACK
6
CONTINUOUS
10
0.732372
20
1.03148
11
0.731135
21
1.03148
0
LINE
8
BLACK
6
CONTINUOUS
10
0.731135
20
1.03148
11
0.730022
21
1.03194
0
LINE
8
BLACK
6
CONTINUOUS
10
0.730022
20
1.03194
11
0.72956
21
1.03305
0
LINE
8
BLACK
6
CONTINUOUS
10
0.72956
20
1.03305
11
0.730022
21
1.03417
0
LINE
8
BLACK
6
CONTINUOUS
10
0.730022
20
1.03417
11
0.731135
21
1.03463
0
LINE
8
BLACK
6
CONTINUOUS
10
0.731135
20
1.03463
11
0.732372
21
1.03463
0
LINE
8
BLACK
6
CONTINUOUS
10
0.732372
20
1.03463
11
0.732372
21
1.03961
0
LINE
8
BLACK
6
CONTINUOUS
10
0.732372
20
1.03961
11
0.732834
21
1.04073
0
LINE
8
BLACK
6
CONTINUOUS
10
0.732834
20
1.04073
11
0.733947
21
1.04119
0
LINE
8
BLACK
6
CONTINUOUS
10
0.733947
20
1.04119
11
0.735061
21
1.04073
0
LINE
8
BLACK
6
CONTINUOUS
10
0.735061
20
1.04073
11
0.735522
21
1.03961
0
LINE
8
BLACK
6
CONTINUOUS
10
0.735522
20
1.03961
11
0.735522
21
1.03463
0
LINE
8
BLACK
6
CONTINUOUS
10
0.735522
20
1.03463
11
0.741136
21
1.03463
0
LINE
8
BLACK
6
CONTINUOUS
10
0.741136
20
1.03463
11
0.73714
21
1.04661
0
LINE
8
BLACK
6
CONTINUOUS
10
0.73714
20
1.04661
11
0.737226
21
1.04782
0
LINE
8
BLACK
6
CONTINUOUS
10
0.737226
20
1.04782
11
0.738136
21
1.04861
0
LINE
8
BLACK
6
CONTINUOUS
10
0.738136
20
1.04861
11
0.739338
21
1.04852
0
LINE
8
BLACK
6
CONTINUOUS
10
0.763182
20
1.04729
11
0.763644
21
1.04618
0
LINE
8
BLACK
6
CONTINUOUS
10
0.763644
20
1.04618
11
0.763644
21
1.02649
0
LINE
8
BLACK
6
CONTINUOUS
10
0.763644
20
1.02649
11
0.763182
21
1.02538
0
LINE
8
BLACK
6
CONTINUOUS
10
0.763182
20
1.02538
11
0.762069
21
1.02492
0
LINE
8
BLACK
6
CONTINUOUS
10
0.762069
20
1.02492
11
0.760955
21
1.02538
0
LINE
8
BLACK
6
CONTINUOUS
10
0.760955
20
1.02538
11
0.760494
21
1.02649
0
LINE
8
BLACK
6
CONTINUOUS
10
0.760494
20
1.02649
11
0.760494
21
1.03429
0
LINE
8
BLACK
6
CONTINUOUS
10
0.760494
20
1.03429
11
0.758202
21
1.03429
0
LINE
8
BLACK
6
CONTINUOUS
10
0.758202
20
1.03429
11
0.75211
21
1.02559
0
LINE
8
BLACK
6
CONTINUOUS
10
0.75211
20
1.02559
11
0.751094
21
1.02494
0
LINE
8
BLACK
6
CONTINUOUS
10
0.751094
20
1.02494
11
0.749917
21
1.0252
0
LINE
8
BLACK
6
CONTINUOUS
10
0.749917
20
1.0252
11
0.749269
21
1.02622
0
LINE
8
BLACK
6
CONTINUOUS
10
0.749269
20
1.02622
11
0.74953
21
1.02739
0
LINE
8
BLACK
6
CONTINUOUS
10
0.74953
20
1.02739
11
0.754405
21
1.03436
0
LINE
8
BLACK
6
CONTINUOUS
10
0.754405
20
1.03436
11
0.754231
21
1.03443
0
LINE
8
BLACK
6
CONTINUOUS
10
0.754231
20
1.03443
11
0.753865
21
1.03446
0
LINE
8
BLACK
6
CONTINUOUS
10
0.753865
20
1.03446
11
0.751991
21
1.03539
0
LINE
8
BLACK
6
CONTINUOUS
10
0.751991
20
1.03539
11
0.751821
21
1.03559
0
LINE
8
BLACK
6
CONTINUOUS
10
0.751821
20
1.03559
11
0.751581
21
1.03569
0
LINE
8
BLACK
6
CONTINUOUS
10
0.751581
20
1.03569
11
0.750644
21
1.03663
0
LINE
8
BLACK
6
CONTINUOUS
10
0.750644
20
1.03663
11
0.750545
21
1.03686
0
LINE
8
BLACK
6
CONTINUOUS
10
0.750545
20
1.03686
11
0.750349
21
1.03703
0
LINE
8
BLACK
6
CONTINUOUS
10
0.750349
20
1.03703
11
0.749412
21
1.03891
0
LINE
8
BLACK
6
CONTINUOUS
10
0.749412
20
1.03891
11
0.749386
21
1.03927
0
LINE
8
BLACK
6
CONTINUOUS
10
0.749386
20
1.03927
11
0.749245
21
1.03961
0
LINE
8
BLACK
6
CONTINUOUS
10
0.749245
20
1.03961
11
0.749245
21
1.04243
0
LINE
8
BLACK
6
CONTINUOUS
10
0.749245
20
1.04243
11
0.749386
21
1.04276
0
LINE
8
BLACK
6
CONTINUOUS
10
0.749386
20
1.04276
11
0.749412
21
1.04313
0
LINE
8
BLACK
6
CONTINUOUS
10
0.749412
20
1.04313
11
0.750349
21
1.045
0
LINE
8
BLACK
6
CONTINUOUS
10
0.750349
20
1.045
11
0.750545
21
1.04517
0
LINE
8
BLACK
6
CONTINUOUS
10
0.750545
20
1.04517
11
0.750644
21
1.04541
0
LINE
8
BLACK
6
CONTINUOUS
10
0.750644
20
1.04541
11
0.751581
21
1.04635
0
LINE
8
BLACK
6
CONTINUOUS
10
0.751581
20
1.04635
11
0.751821
21
1.04645
0
LINE
8
BLACK
6
CONTINUOUS
10
0.751821
20
1.04645
11
0.751991
21
1.04665
0
LINE
8
BLACK
6
CONTINUOUS
10
0.751991
20
1.04665
11
0.753865
21
1.04758
0
LINE
8
BLACK
6
CONTINUOUS
10
0.753865
20
1.04758
11
0.754231
21
1.04761
0
LINE
8
BLACK
6
CONTINUOUS
10
0.754231
20
1.04761
11
0.75457
21
1.04775
0
LINE
8
BLACK
6
CONTINUOUS
10
0.75457
20
1.04775
11
0.762069
21
1.04775
0
LINE
8
BLACK
6
CONTINUOUS
10
0.762069
20
1.04775
11
0.763182
21
1.04729
0
LINE
8
BLACK
6
CONTINUOUS
10
0.753628
20
1.04394
11
0.753052
21
1.04337
0
LINE
8
BLACK
6
CONTINUOUS
10
0.753052
20
1.04337
11
0.752395
21
1.04205
0
LINE
8
BLACK
6
CONTINUOUS
10
0.752395
20
1.04205
11
0.752395
21
1.03999
0
LINE
8
BLACK
6
CONTINUOUS
10
0.752395
20
1.03999
11
0.753052
21
1.03867
0
LINE
8
BLACK
6
CONTINUOUS
10
0.753052
20
1.03867
11
0.753628
21
1.0381
0
LINE
8
BLACK
6
CONTINUOUS
10
0.753628
20
1.0381
11
0.754941
21
1.03744
0
LINE
8
BLACK
6
CONTINUOUS
10
0.754941
20
1.03744
11
0.760494
21
1.03744
0
LINE
8
BLACK
6
CONTINUOUS
10
0.760494
20
1.03744
11
0.760494
21
1.0446
0
LINE
8
BLACK
6
CONTINUOUS
10
0.760494
20
1.0446
11
0.754941
21
1.0446
0
LINE
8
BLACK
6
CONTINUOUS
10
0.754941
20
1.0446
11
0.753628
21
1.04394
0
LINE
8
BLACK
6
CONTINUOUS
10
0.786909
20
1.06201
11
0.788301
21
1.06143
0
LINE
8
BLACK
6
CONTINUOUS
10
0.788301
20
1.06143
11
0.788878
21
1.06004
0
LINE
8
BLACK
6
CONTINUOUS
10
0.788878
20
1.06004
11
0.788878
21
1.01083
0
LINE
8
BLACK
6
CONTINUOUS
10
0.788878
20
1.01083
11
0.788301
21
1.00943
0
LINE
8
BLACK
6
CONTINUOUS
10
0.788301
20
1.00943
11
0.786909
21
1.00886
0
LINE
8
BLACK
6
CONTINUOUS
10
0.786909
20
1.00886
11
0.708169
21
1.00886
0
LINE
8
BLACK
6
CONTINUOUS
10
0.708169
20
1.00886
11
0.706777
21
1.00943
0
LINE
8
BLACK
6
CONTINUOUS
10
0.706777
20
1.00943
11
0.706201
21
1.01083
0
LINE
8
BLACK
6
CONTINUOUS
10
0.706201
20
1.01083
11
0.706201
21
1.06004
0
LINE
8
BLACK
6
CONTINUOUS
10
0.706201
20
1.06004
11
0.706777
21
1.06143
0
LINE
8
BLACK
6
CONTINUOUS
10
0.706777
20
1.06143
11
0.708169
21
1.06201
0
LINE
8
BLACK
6
CONTINUOUS
10
0.708169
20
1.06201
11
0.786909
21
1.06201
0
LINE
8
BLACK
6
CONTINUOUS
10
0.710138
20
1.05807
11
0.710138
21
1.0128
0
LINE
8
BLACK
6
CONTINUOUS
10
0.710138
20
1.0128
11
0.784941
21
1.0128
0
LINE
8
BLACK
6
CONTINUOUS
10
0.784941
20
1.0128
11
0.784941
21
1.05807
0
LINE
8
BLACK
6
CONTINUOUS
10
0.784941
20
1.05807
11
0.710138
21
1.05807
0
LINE
8
BLACK
6
CONTINUOUS
10
0.968383
20
1.11202
11
0.968657
21
1.112
0
LINE
8
BLACK
6
CONTINUOUS
10
0.968657
20
1.112
11
0.970157
21
1.11125
0
LINE
8
BLACK
6
CONTINUOUS
10
0.970157
20
1.11125
11
0.970284
21
1.11111
0
LINE
8
BLACK
6
CONTINUOUS
10
0.970284
20
1.11111
11
0.970464
21
1.11103
0
LINE
8
BLACK
6
CONTINUOUS
10
0.970464
20
1.11103
11
0.971214
21
1.11028
0
LINE
8
BLACK
6
CONTINUOUS
10
0.971214
20
1.11028
11
0.97156
21
1.10945
0
LINE
8
BLACK
6
CONTINUOUS
10
0.97156
20
1.10945
11
0.971214
21
1.10861
0
LINE
8
BLACK
6
CONTINUOUS
10
0.971214
20
1.10861
11
0.970379
21
1.10827
0
LINE
8
BLACK
6
CONTINUOUS
10
0.970379
20
1.10827
11
0.969544
21
1.10861
0
LINE
8
BLACK
6
CONTINUOUS
10
0.969544
20
1.10861
11
0.968929
21
1.10923
0
LINE
8
BLACK
6
CONTINUOUS
10
0.968929
20
1.10923
11
0.96785
21
1.10977
0
LINE
8
BLACK
6
CONTINUOUS
10
0.96785
20
1.10977
11
0.964658
21
1.10977
0
LINE
8
BLACK
6
CONTINUOUS
10
0.964658
20
1.10977
11
0.963579
21
1.10923
0
LINE
8
BLACK
6
CONTINUOUS
10
0.963579
20
1.10923
11
0.9631
21
1.10875
0
LINE
8
BLACK
6
CONTINUOUS
10
0.9631
20
1.10875
11
0.962561
21
1.10767
0
LINE
8
BLACK
6
CONTINUOUS
10
0.962561
20
1.10767
11
0.962561
21
1.10664
0
LINE
8
BLACK
6
CONTINUOUS
10
0.962561
20
1.10664
11
0.963162
21
1.10484
0
LINE
8
BLACK
6
CONTINUOUS
10
0.963162
20
1.10484
11
0.971964
21
1.09603
0
LINE
8
BLACK
6
CONTINUOUS
10
0.971964
20
1.09603
11
0.97231
21
1.0952
0
LINE
8
BLACK
6
CONTINUOUS
10
0.97231
20
1.0952
11
0.971964
21
1.09436
0
LINE
8
BLACK
6
CONTINUOUS
10
0.971964
20
1.09436
11
0.971129
21
1.09402
0
LINE
8
BLACK
6
CONTINUOUS
10
0.971129
20
1.09402
11
0.96138
21
1.09402
0
LINE
8
BLACK
6
CONTINUOUS
10
0.96138
20
1.09402
11
0.960545
21
1.09436
0
LINE
8
BLACK
6
CONTINUOUS
10
0.960545
20
1.09436
11
0.960199
21
1.0952
0
LINE
8
BLACK
6
CONTINUOUS
10
0.960199
20
1.0952
11
0.960545
21
1.09603
0
LINE
8
BLACK
6
CONTINUOUS
10
0.960545
20
1.09603
11
0.96138
21
1.09638
0
LINE
8
BLACK
6
CONTINUOUS
10
0.96138
20
1.09638
11
0.968277
21
1.09638
0
LINE
8
BLACK
6
CONTINUOUS
10
0.968277
20
1.09638
11
0.961295
21
1.10336
0
LINE
8
BLACK
6
CONTINUOUS
10
0.961295
20
1.10336
11
0.961189
21
1.10362
0
LINE
8
BLACK
6
CONTINUOUS
10
0.961189
20
1.10362
11
0.961009
21
1.10383
0
LINE
8
BLACK
6
CONTINUOUS
10
0.961009
20
1.10383
11
0.960259
21
1.10607
0
LINE
8
BLACK
6
CONTINUOUS
10
0.960259
20
1.10607
11
0.960273
21
1.10627
0
LINE
8
BLACK
6
CONTINUOUS
10
0.960273
20
1.10627
11
0.960199
21
1.10645
0
LINE
8
BLACK
6
CONTINUOUS
10
0.960199
20
1.10645
11
0.960199
21
1.10795
0
LINE
8
BLACK
6
CONTINUOUS
10
0.960199
20
1.10795
11
0.960304
21
1.1082
0
LINE
8
BLACK
6
CONTINUOUS
10
0.960304
20
1.1082
11
0.960323
21
1.10848
0
LINE
8
BLACK
6
CONTINUOUS
10
0.960323
20
1.10848
11
0.961073
21
1.10998
0
LINE
8
BLACK
6
CONTINUOUS
10
0.961073
20
1.10998
11
0.96122
21
1.1101
0
LINE
8
BLACK
6
CONTINUOUS
10
0.96122
20
1.1101
11
0.961295
21
1.11028
0
LINE
8
BLACK
6
CONTINUOUS
10
0.961295
20
1.11028
11
0.962044
21
1.11103
0
LINE
8
BLACK
6
CONTINUOUS
10
0.962044
20
1.11103
11
0.962224
21
1.11111
0
LINE
8
BLACK
6
CONTINUOUS
10
0.962224
20
1.11111
11
0.962351
21
1.11125
0
LINE
8
BLACK
6
CONTINUOUS
10
0.962351
20
1.11125
11
0.963851
21
1.112
0
LINE
8
BLACK
6
CONTINUOUS
10
0.963851
20
1.112
11
0.964125
21
1.11202
0
LINE
8
BLACK
6
CONTINUOUS
10
0.964125
20
1.11202
11
0.964379
21
1.11213
0
LINE
8
BLACK
6
CONTINUOUS
10
0.964379
20
1.11213
11
0.968129
21
1.11213
0
LINE
8
BLACK
6
CONTINUOUS
10
0.968129
20
1.11213
11
0.968383
21
1.11202
0
LINE
8
BLACK
6
CONTINUOUS
10
0.986212
20
1.11178
11
0.986558
21
1.11095
0
LINE
8
BLACK
6
CONTINUOUS
10
0.986558
20
1.11095
11
0.986558
21
1.0952
0
LINE
8
BLACK
6
CONTINUOUS
10
0.986558
20
1.0952
11
0.986212
21
1.09436
0
LINE
8
BLACK
6
CONTINUOUS
10
0.986212
20
1.09436
11
0.985377
21
1.09402
0
LINE
8
BLACK
6
CONTINUOUS
10
0.985377
20
1.09402
11
0.981627
21
1.09402
0
LINE
8
BLACK
6
CONTINUOUS
10
0.981627
20
1.09402
11
0.981448
21
1.09409
0
LINE
8
BLACK
6
CONTINUOUS
10
0.981448
20
1.09409
11
0.981254
21
1.09408
0
LINE
8
BLACK
6
CONTINUOUS
10
0.981254
20
1.09408
11
0.979004
21
1.09483
0
LINE
8
BLACK
6
CONTINUOUS
10
0.979004
20
1.09483
11
0.978796
21
1.09501
0
LINE
8
BLACK
6
CONTINUOUS
10
0.978796
20
1.09501
11
0.978542
21
1.09511
0
LINE
8
BLACK
6
CONTINUOUS
10
0.978542
20
1.09511
11
0.977043
21
1.09661
0
LINE
8
BLACK
6
CONTINUOUS
10
0.977043
20
1.09661
11
0.976968
21
1.09679
0
LINE
8
BLACK
6
CONTINUOUS
10
0.976968
20
1.09679
11
0.976821
21
1.09692
0
LINE
8
BLACK
6
CONTINUOUS
10
0.976821
20
1.09692
11
0.976071
21
1.09842
0
LINE
8
BLACK
6
CONTINUOUS
10
0.976071
20
1.09842
11
0.976062
21
1.09855
0
LINE
8
BLACK
6
CONTINUOUS
10
0.976062
20
1.09855
11
0.975982
21
1.09866
0
LINE
8
BLACK
6
CONTINUOUS
10
0.975982
20
1.09866
11
0.975232
21
1.10166
0
LINE
8
BLACK
6
CONTINUOUS
10
0.975232
20
1.10166
11
0.975254
21
1.10181
0
LINE
8
BLACK
6
CONTINUOUS
10
0.975254
20
1.10181
11
0.975197
21
1.10195
0
LINE
8
BLACK
6
CONTINUOUS
10
0.975197
20
1.10195
11
0.975197
21
1.1042
0
LINE
8
BLACK
6
CONTINUOUS
10
0.975197
20
1.1042
11
0.975254
21
1.10434
0
LINE
8
BLACK
6
CONTINUOUS
10
0.975254
20
1.10434
11
0.975232
21
1.10449
0
LINE
8
BLACK
6
CONTINUOUS
10
0.975232
20
1.10449
11
0.975982
21
1.10748
0
LINE
8
BLACK
6
CONTINUOUS
10
0.975982
20
1.10748
11
0.976062
21
1.10759
0
LINE
8
BLACK
6
CONTINUOUS
10
0.976062
20
1.10759
11
0.976071
21
1.10773
0
LINE
8
BLACK
6
CONTINUOUS
10
0.976071
20
1.10773
11
0.976821
21
1.10923
0
LINE
8
BLACK
6
CONTINUOUS
10
0.976821
20
1.10923
11
0.976968
21
1.10935
0
LINE
8
BLACK
6
CONTINUOUS
10
0.976968
20
1.10935
11
0.977043
21
1.10953
0
LINE
8
BLACK
6
CONTINUOUS
10
0.977043
20
1.10953
11
0.978542
21
1.11103
0
LINE
8
BLACK
6
CONTINUOUS
10
0.978542
20
1.11103
11
0.978796
21
1.11114
0
LINE
8
BLACK
6
CONTINUOUS
10
0.978796
20
1.11114
11
0.979004
21
1.11132
0
LINE
8
BLACK
6
CONTINUOUS
10
0.979004
20
1.11132
11
0.981254
21
1.11207
0
LINE
8
BLACK
6
CONTINUOUS
10
0.981254
20
1.11207
11
0.981448
21
1.11205
0
LINE
8
BLACK
6
CONTINUOUS
10
0.981448
20
1.11205
11
0.981627
21
1.11213
0
LINE
8
BLACK
6
CONTINUOUS
10
0.981627
20
1.11213
11
0.985377
21
1.11213
0
LINE
8
BLACK
6
CONTINUOUS
10
0.985377
20
1.11213
11
0.986212
21
1.11178
0
LINE
8
BLACK
6
CONTINUOUS
10
0.980016
20
1.10917
11
0.978848
21
1.108
0
LINE
8
BLACK
6
CONTINUOUS
10
0.978848
20
1.108
11
0.978242
21
1.10679
0
LINE
8
BLACK
6
CONTINUOUS
10
0.978242
20
1.10679
11
0.977559
21
1.10405
0
LINE
8
BLACK
6
CONTINUOUS
10
0.977559
20
1.10405
11
0.977559
21
1.10209
0
LINE
8
BLACK
6
CONTINUOUS
10
0.977559
20
1.10209
11
0.978242
21
1.09936
0
LINE
8
BLACK
6
CONTINUOUS
10
0.978242
20
1.09936
11
0.978848
21
1.09815
0
LINE
8
BLACK
6
CONTINUOUS
10
0.978848
20
1.09815
11
0.980015
21
1.09698
0
LINE
8
BLACK
6
CONTINUOUS
10
0.980015
20
1.09698
11
0.981819
21
1.09638
0
LINE
8
BLACK
6
CONTINUOUS
10
0.981819
20
1.09638
11
0.984196
21
1.09638
0
LINE
8
BLACK
6
CONTINUOUS
10
0.984196
20
1.09638
11
0.984196
21
1.10977
0
LINE
8
BLACK
6
CONTINUOUS
10
0.984196
20
1.10977
11
0.981819
21
1.10977
0
LINE
8
BLACK
6
CONTINUOUS
10
0.981819
20
1.10977
11
0.980016
21
1.10917
0
LINE
8
BLACK
6
CONTINUOUS
10
0.993711
20
1.11178
11
0.994057
21
1.11095
0
LINE
8
BLACK
6
CONTINUOUS
10
0.994057
20
1.11095
11
0.994057
21
1.0952
0
LINE
8
BLACK
6
CONTINUOUS
10
0.994057
20
1.0952
11
0.993711
21
1.09436
0
LINE
8
BLACK
6
CONTINUOUS
10
0.993711
20
1.09436
11
0.992876
21
1.09402
0
LINE
8
BLACK
6
CONTINUOUS
10
0.992876
20
1.09402
11
0.992041
21
1.09436
0
LINE
8
BLACK
6
CONTINUOUS
10
0.992041
20
1.09436
11
0.991695
21
1.0952
0
LINE
8
BLACK
6
CONTINUOUS
10
0.991695
20
1.0952
11
0.991695
21
1.11095
0
LINE
8
BLACK
6
CONTINUOUS
10
0.991695
20
1.11095
11
0.992041
21
1.11178
0
LINE
8
BLACK
6
CONTINUOUS
10
0.992041
20
1.11178
11
0.992876
21
1.11213
0
LINE
8
BLACK
6
CONTINUOUS
10
0.992876
20
1.11213
11
0.993711
21
1.11178
0
LINE
8
BLACK
6
CONTINUOUS
10
1.00721
20
1.11178
11
1.00756
21
1.11095
0
LINE
8
BLACK
6
CONTINUOUS
10
1.00756
20
1.11095
11
1.00756
21
1.0952
0
LINE
8
BLACK
6
CONTINUOUS
10
1.00756
20
1.0952
11
1.00721
21
1.09436
0
LINE
8
BLACK
6
CONTINUOUS
10
1.00721
20
1.09436
11
1.00637
21
1.09402
0
LINE
8
BLACK
6
CONTINUOUS
10
1.00637
20
1.09402
11
1.00554
21
1.09436
0
LINE
8
BLACK
6
CONTINUOUS
10
1.00554
20
1.09436
11
1.00519
21
1.0952
0
LINE
8
BLACK
6
CONTINUOUS
10
1.00519
20
1.0952
11
1.00519
21
1.10227
0
LINE
8
BLACK
6
CONTINUOUS
10
1.00519
20
1.10227
11
1.00112
21
1.10227
0
LINE
8
BLACK
6
CONTINUOUS
10
1.00112
20
1.10227
11
1.00029
21
1.10261
0
LINE
8
BLACK
6
CONTINUOUS
10
1.00029
20
1.10261
11
0.999944
21
1.10345
0
LINE
8
BLACK
6
CONTINUOUS
10
0.999944
20
1.10345
11
1.00029
21
1.10428
0
LINE
8
BLACK
6
CONTINUOUS
10
1.00029
20
1.10428
11
1.00112
21
1.10463
0
LINE
8
BLACK
6
CONTINUOUS
10
1.00112
20
1.10463
11
1.00519
21
1.10463
0
LINE
8
BLACK
6
CONTINUOUS
10
1.00519
20
1.10463
11
1.00519
21
1.10977
0
LINE
8
BLACK
6
CONTINUOUS
10
1.00519
20
1.10977
11
0.998875
21
1.10977
0
LINE
8
BLACK
6
CONTINUOUS
10
0.998875
20
1.10977
11
0.99804
21
1.11011
0
LINE
8
BLACK
6
CONTINUOUS
10
0.99804
20
1.11011
11
0.997694
21
1.11095
0
LINE
8
BLACK
6
CONTINUOUS
10
0.997694
20
1.11095
11
0.99804
21
1.11178
0
LINE
8
BLACK
6
CONTINUOUS
10
0.99804
20
1.11178
11
0.998875
21
1.11213
0
LINE
8
BLACK
6
CONTINUOUS
10
0.998875
20
1.11213
11
1.00637
21
1.11213
0
LINE
8
BLACK
6
CONTINUOUS
10
1.00637
20
1.11213
11
1.00721
21
1.11178
0
LINE
8
BLACK
6
CONTINUOUS
10
0.992317
20
1.14291
11
1.00007
21
1.14055
0
LINE
8
BLACK
6
CONTINUOUS
10
1.00007
20
1.14055
11
1.00722
21
1.13673
0
LINE
8
BLACK
6
CONTINUOUS
10
1.00722
20
1.13673
11
1.01348
21
1.13159
0
LINE
8
BLACK
6
CONTINUOUS
10
1.01348
20
1.13159
11
1.01862
21
1.12533
0
LINE
8
BLACK
6
CONTINUOUS
10
1.01862
20
1.12533
11
1.02244
21
1.11818
0
LINE
8
BLACK
6
CONTINUOUS
10
1.02244
20
1.11818
11
1.0248
21
1.11043
0
LINE
8
BLACK
6
CONTINUOUS
10
1.0248
20
1.11043
11
1.02559
21
1.10236
0
LINE
8
BLACK
6
CONTINUOUS
10
1.02559
20
1.10236
11
1.0248
21
1.0943
0
LINE
8
BLACK
6
CONTINUOUS
10
1.0248
20
1.0943
11
1.02244
21
1.08654
0
LINE
8
BLACK
6
CONTINUOUS
10
1.02244
20
1.08654
11
1.01862
21
1.0794
0
LINE
8
BLACK
6
CONTINUOUS
10
1.01862
20
1.0794
11
1.01348
21
1.07313
0
LINE
8
BLACK
6
CONTINUOUS
10
1.01348
20
1.07313
11
1.00722
21
1.06799
0
LINE
8
BLACK
6
CONTINUOUS
10
1.00722
20
1.06799
11
1.00007
21
1.06417
0
LINE
8
BLACK
6
CONTINUOUS
10
1.00007
20
1.06417
11
0.992317
21
1.06182
0
LINE
8
BLACK
6
CONTINUOUS
10
0.992317
20
1.06182
11
0.984252
21
1.06102
0
LINE
8
BLACK
6
CONTINUOUS
10
0.984252
20
1.06102
11
0.976187
21
1.06182
0
LINE
8
BLACK
6
CONTINUOUS
10
0.976187
20
1.06182
11
0.968432
21
1.06417
0
LINE
8
BLACK
6
CONTINUOUS
10
0.968432
20
1.06417
11
0.961285
21
1.06799
0
LINE
8
BLACK
6
CONTINUOUS
10
0.961285
20
1.06799
11
0.955021
21
1.07313
0
LINE
8
BLACK
6
CONTINUOUS
10
0.955021
20
1.07313
11
0.94988
21
1.0794
0
LINE
8
BLACK
6
CONTINUOUS
10
0.94988
20
1.0794
11
0.94606
21
1.08654
0
LINE
8
BLACK
6
CONTINUOUS
10
0.94606
20
1.08654
11
0.943708
21
1.0943
0
LINE
8
BLACK
6
CONTINUOUS
10
0.943708
20
1.0943
11
0.942913
21
1.10236
0
LINE
8
BLACK
6
CONTINUOUS
10
0.942913
20
1.10236
11
0.943708
21
1.11043
0
LINE
8
BLACK
6
CONTINUOUS
10
0.943708
20
1.11043
11
0.94606
21
1.11818
0
LINE
8
BLACK
6
CONTINUOUS
10
0.94606
20
1.11818
11
0.94988
21
1.12533
0
LINE
8
BLACK
6
CONTINUOUS
10
0.94988
20
1.12533
11
0.955021
21
1.13159
0
LINE
8
BLACK
6
CONTINUOUS
10
0.955021
20
1.13159
11
0.961285
21
1.13673
0
LINE
8
BLACK
6
CONTINUOUS
10
0.961285
20
1.13673
11
0.968432
21
1.14055
0
LINE
8
BLACK
6
CONTINUOUS
10
0.968432
20
1.14055
11
0.976187
21
1.14291
0
LINE
8
BLACK
6
CONTINUOUS
10
0.976187
20
1.14291
11
0.984252
21
1.1437
0
LINE
8
BLACK
6
CONTINUOUS
10
0.984252
20
1.1437
11
0.992317
21
1.14291
0
LINE
8
BLACK
6
CONTINUOUS
10
0.947392
20
1.09503
11
0.94953
21
1.08798
0
LINE
8
BLACK
6
CONTINUOUS
10
0.94953
20
1.08798
11
0.953003
21
1.08148
0
LINE
8
BLACK
6
CONTINUOUS
10
0.953003
20
1.08148
11
0.957677
21
1.07579
0
LINE
8
BLACK
6
CONTINUOUS
10
0.957677
20
1.07579
11
0.963372
21
1.07111
0
LINE
8
BLACK
6
CONTINUOUS
10
0.963372
20
1.07111
11
0.96987
21
1.06764
0
LINE
8
BLACK
6
CONTINUOUS
10
0.96987
20
1.06764
11
0.97692
21
1.0655
0
LINE
8
BLACK
6
CONTINUOUS
10
0.97692
20
1.0655
11
0.984252
21
1.06478
0
LINE
8
BLACK
6
CONTINUOUS
10
0.984252
20
1.06478
11
0.991584
21
1.0655
0
LINE
8
BLACK
6
CONTINUOUS
10
0.991584
20
1.0655
11
0.998634
21
1.06764
0
LINE
8
BLACK
6
CONTINUOUS
10
0.998634
20
1.06764
11
1.00513
21
1.07111
0
LINE
8
BLACK
6
CONTINUOUS
10
1.00513
20
1.07111
11
1.01083
21
1.07579
0
LINE
8
BLACK
6
CONTINUOUS
10
1.01083
20
1.07579
11
1.0155
21
1.08148
0
LINE
8
BLACK
6
CONTINUOUS
10
1.0155
20
1.08148
11
1.01897
21
1.08798
0
LINE
8
BLACK
6
CONTINUOUS
10
1.01897
20
1.08798
11
1.02111
21
1.09503
0
LINE
8
BLACK
6
CONTINUOUS
10
1.02111
20
1.09503
11
1.02183
21
1.10236
0
LINE
8
BLACK
6
CONTINUOUS
10
1.02183
20
1.10236
11
1.02111
21
1.10969
0
LINE
8
BLACK
6
CONTINUOUS
10
1.02111
20
1.10969
11
1.01897
21
1.11674
0
LINE
8
BLACK
6
CONTINUOUS
10
1.01897
20
1.11674
11
1.0155
21
1.12324
0
LINE
8
BLACK
6
CONTINUOUS
10
1.0155
20
1.12324
11
1.01083
21
1.12894
0
LINE
8
BLACK
6
CONTINUOUS
10
1.01083
20
1.12894
11
1.00513
21
1.13361
0
LINE
8
BLACK
6
CONTINUOUS
10
1.00513
20
1.13361
11
0.998634
21
1.13708
0
LINE
8
BLACK
6
CONTINUOUS
10
0.998634
20
1.13708
11
0.991584
21
1.13922
0
LINE
8
BLACK
6
CONTINUOUS
10
0.991584
20
1.13922
11
0.984252
21
1.13994
0
LINE
8
BLACK
6
CONTINUOUS
10
0.984252
20
1.13994
11
0.97692
21
1.13922
0
LINE
8
BLACK
6
CONTINUOUS
10
0.97692
20
1.13922
11
0.96987
21
1.13708
0
LINE
8
BLACK
6
CONTINUOUS
10
0.96987
20
1.13708
11
0.963372
21
1.13361
0
LINE
8
BLACK
6
CONTINUOUS
10
0.963372
20
1.13361
11
0.957677
21
1.12894
0
LINE
8
BLACK
6
CONTINUOUS
10
0.957677
20
1.12894
11
0.953003
21
1.12324
0
LINE
8
BLACK
6
CONTINUOUS
10
0.953003
20
1.12324
11
0.94953
21
1.11674
0
LINE
8
BLACK
6
CONTINUOUS
10
0.94953
20
1.11674
11
0.947392
21
1.10969
0
LINE
8
BLACK
6
CONTINUOUS
10
0.947392
20
1.10969
11
0.946669
21
1.10236
0
LINE
8
BLACK
6
CONTINUOUS
10
0.946669
20
1.10236
11
0.947392
21
1.09503
  0
ENDSEC
  0
EOF
