  0
SECTION
  2
HEADER
  9
$ANGBASE
  50
0.0
  9
$ANGDIR
  70
1
  9
$MEASUREMENT
  70
0
  0
ENDSEC
  0
SECTION
  2
TABLES
  0
TABLE
  2
LTYPE
  70
4
  0
LTYPE
  5
40F
  2
CONTINUOUS
  70
0
  3
Solid line
  72
65
  73
0
  40
0.0
  0
LTYPE
  5
410
  2
DASHDOT
 70
0
  3
Dash Dot ____ _ ____ _
 72
65
 73
4
 40
2.0
 49
1.25
 49
-0.25
 49
0.25
 49
-0.25
  0
LTYPE
  5
411
  2
DASHED
 70
0
  3
Dashed __ __ __ __ __
 72
65
 73
2
 40
0.75
 49
0.5
 49
-0.25
  0
LTYPE
  5
43B
  2
DOTTED
 70
0
  3
Dotted .  .  .  .
 72
65
 73
2
 40
0.2
 49
0.0
 49
-0.2
  0
ENDTAB
  0
TABLE
  2
STYLE
  70
4
  0
STYLE
  2
KICAD
  70
0
  40
0
  41
1
  42
1
  50
0
  71
0
  3
isocp.shx
  0
STYLE
  2
KICADB
  70
0
  40
0
  41
1
  42
1
  50
0
  71
0
  3
isocp.shx
  0
STYLE
  2
KICADI
  70
0
  40
0
  41
1
  42
1
  50
15
  71
0
  3
isocp.shx
  0
STYLE
  2
KICADBI
  70
0
  40
0
  41
1
  42
1
  50
15
  71
0
  3
isocp.shx
  0
ENDTAB
  0
TABLE
  2
LAYER
  70
1
  0
LAYER
  2
BLACK
  70
0
  62
7
  6
CONTINUOUS
  0
ENDTAB
  0
ENDSEC
  0
SECTION
  2
ENTITIES
0
LINE
8
BLACK
6
CONTINUOUS
10
5.02051
20
-3.68368
11
5.03387
21
-3.68685
0
LINE
8
BLACK
6
CONTINUOUS
10
5.03387
20
-3.68685
11
5.04678
21
-3.69155
0
LINE
8
BLACK
6
CONTINUOUS
10
5.04678
20
-3.69155
11
5.05906
21
-3.69771
0
LINE
8
BLACK
6
CONTINUOUS
10
5.05906
20
-3.69771
11
5.07053
21
-3.70526
0
LINE
8
BLACK
6
CONTINUOUS
10
5.07053
20
-3.70526
11
5.08105
21
-3.71409
0
LINE
8
BLACK
6
CONTINUOUS
10
5.08105
20
-3.71409
11
5.09048
21
-3.72408
0
LINE
8
BLACK
6
CONTINUOUS
10
5.09048
20
-3.72408
11
5.09868
21
-3.7351
0
LINE
8
BLACK
6
CONTINUOUS
10
5.09868
20
-3.7351
11
5.10555
21
-3.74699
0
LINE
8
BLACK
6
CONTINUOUS
10
5.10555
20
-3.74699
11
5.11099
21
-3.7596
0
LINE
8
BLACK
6
CONTINUOUS
10
5.11099
20
-3.7596
11
5.11493
21
-3.77276
0
LINE
8
BLACK
6
CONTINUOUS
10
5.11493
20
-3.77276
11
5.11731
21
-3.78629
0
LINE
8
BLACK
6
CONTINUOUS
10
5.11731
20
-3.78629
11
5.11811
21
-3.8
0
LINE
8
BLACK
6
CONTINUOUS
10
5.11811
20
-3.8
11
5.11731
21
-3.81371
0
LINE
8
BLACK
6
CONTINUOUS
10
5.11731
20
-3.81371
11
5.11493
21
-3.82724
0
LINE
8
BLACK
6
CONTINUOUS
10
5.11493
20
-3.82724
11
5.11099
21
-3.8404
0
LINE
8
BLACK
6
CONTINUOUS
10
5.11099
20
-3.8404
11
5.10555
21
-3.85301
0
LINE
8
BLACK
6
CONTINUOUS
10
5.10555
20
-3.85301
11
5.09868
21
-3.8649
0
LINE
8
BLACK
6
CONTINUOUS
10
5.09868
20
-3.8649
11
5.09048
21
-3.87592
0
LINE
8
BLACK
6
CONTINUOUS
10
5.09048
20
-3.87592
11
5.08105
21
-3.88591
0
LINE
8
BLACK
6
CONTINUOUS
10
5.08105
20
-3.88591
11
5.07053
21
-3.89474
0
LINE
8
BLACK
6
CONTINUOUS
10
5.07053
20
-3.89474
11
5.05906
21
-3.90229
0
LINE
8
BLACK
6
CONTINUOUS
10
5.05906
20
-3.90229
11
5.04678
21
-3.90845
0
LINE
8
BLACK
6
CONTINUOUS
10
5.04678
20
-3.90845
11
5.03387
21
-3.91315
0
LINE
8
BLACK
6
CONTINUOUS
10
5.03387
20
-3.91315
11
5.02051
21
-3.91632
0
LINE
8
BLACK
6
CONTINUOUS
10
5.02051
20
-3.91632
11
5.00687
21
-3.91791
0
LINE
8
BLACK
6
CONTINUOUS
10
5.00687
20
-3.91791
11
4.99313
21
-3.91791
0
LINE
8
BLACK
6
CONTINUOUS
10
4.99313
20
-3.91791
11
4.97949
21
-3.91632
0
LINE
8
BLACK
6
CONTINUOUS
10
4.97949
20
-3.91632
11
4.96613
21
-3.91315
0
LINE
8
BLACK
6
CONTINUOUS
10
4.96613
20
-3.91315
11
4.95322
21
-3.90845
0
LINE
8
BLACK
6
CONTINUOUS
10
4.95322
20
-3.90845
11
4.94094
21
-3.90229
0
LINE
8
BLACK
6
CONTINUOUS
10
4.94094
20
-3.90229
11
4.92947
21
-3.89474
0
LINE
8
BLACK
6
CONTINUOUS
10
4.92947
20
-3.89474
11
4.91895
21
-3.88591
0
LINE
8
BLACK
6
CONTINUOUS
10
4.91895
20
-3.88591
11
4.90952
21
-3.87592
0
LINE
8
BLACK
6
CONTINUOUS
10
4.90952
20
-3.87592
11
4.90132
21
-3.8649
0
LINE
8
BLACK
6
CONTINUOUS
10
4.90132
20
-3.8649
11
4.89445
21
-3.85301
0
LINE
8
BLACK
6
CONTINUOUS
10
4.89445
20
-3.85301
11
4.88901
21
-3.8404
0
LINE
8
BLACK
6
CONTINUOUS
10
4.88901
20
-3.8404
11
4.88507
21
-3.82724
0
LINE
8
BLACK
6
CONTINUOUS
10
4.88507
20
-3.82724
11
4.88269
21
-3.81371
0
LINE
8
BLACK
6
CONTINUOUS
10
4.88269
20
-3.81371
11
4.88189
21
-3.8
0
LINE
8
BLACK
6
CONTINUOUS
10
4.88189
20
-3.8
11
4.88269
21
-3.78629
0
LINE
8
BLACK
6
CONTINUOUS
10
4.88269
20
-3.78629
11
4.88507
21
-3.77276
0
LINE
8
BLACK
6
CONTINUOUS
10
4.88507
20
-3.77276
11
4.88901
21
-3.7596
0
LINE
8
BLACK
6
CONTINUOUS
10
4.88901
20
-3.7596
11
4.89445
21
-3.74699
0
LINE
8
BLACK
6
CONTINUOUS
10
4.89445
20
-3.74699
11
4.90132
21
-3.7351
0
LINE
8
BLACK
6
CONTINUOUS
10
4.90132
20
-3.7351
11
4.90952
21
-3.72408
0
LINE
8
BLACK
6
CONTINUOUS
10
4.90952
20
-3.72408
11
4.91895
21
-3.71409
0
LINE
8
BLACK
6
CONTINUOUS
10
4.91895
20
-3.71409
11
4.92947
21
-3.70526
0
LINE
8
BLACK
6
CONTINUOUS
10
4.92947
20
-3.70526
11
4.94094
21
-3.69771
0
LINE
8
BLACK
6
CONTINUOUS
10
4.94094
20
-3.69771
11
4.95322
21
-3.69155
0
LINE
8
BLACK
6
CONTINUOUS
10
4.95322
20
-3.69155
11
4.96613
21
-3.68685
0
LINE
8
BLACK
6
CONTINUOUS
10
4.96613
20
-3.68685
11
4.97949
21
-3.68368
0
LINE
8
BLACK
6
CONTINUOUS
10
4.97949
20
-3.68368
11
4.99313
21
-3.68209
0
LINE
8
BLACK
6
CONTINUOUS
10
4.99313
20
-3.68209
11
5.00687
21
-3.68209
0
LINE
8
BLACK
6
CONTINUOUS
10
5.00687
20
-3.68209
11
5.02051
21
-3.68368
0
LINE
8
BLACK
6
CONTINUOUS
10
6.22051
20
-3.68368
11
6.23387
21
-3.68685
0
LINE
8
BLACK
6
CONTINUOUS
10
6.23387
20
-3.68685
11
6.24678
21
-3.69155
0
LINE
8
BLACK
6
CONTINUOUS
10
6.24678
20
-3.69155
11
6.25906
21
-3.69771
0
LINE
8
BLACK
6
CONTINUOUS
10
6.25906
20
-3.69771
11
6.27053
21
-3.70526
0
LINE
8
BLACK
6
CONTINUOUS
10
6.27053
20
-3.70526
11
6.28105
21
-3.71409
0
LINE
8
BLACK
6
CONTINUOUS
10
6.28105
20
-3.71409
11
6.29048
21
-3.72408
0
LINE
8
BLACK
6
CONTINUOUS
10
6.29048
20
-3.72408
11
6.29868
21
-3.7351
0
LINE
8
BLACK
6
CONTINUOUS
10
6.29868
20
-3.7351
11
6.30555
21
-3.74699
0
LINE
8
BLACK
6
CONTINUOUS
10
6.30555
20
-3.74699
11
6.31099
21
-3.7596
0
LINE
8
BLACK
6
CONTINUOUS
10
6.31099
20
-3.7596
11
6.31493
21
-3.77276
0
LINE
8
BLACK
6
CONTINUOUS
10
6.31493
20
-3.77276
11
6.31731
21
-3.78629
0
LINE
8
BLACK
6
CONTINUOUS
10
6.31731
20
-3.78629
11
6.31811
21
-3.8
0
LINE
8
BLACK
6
CONTINUOUS
10
6.31811
20
-3.8
11
6.31731
21
-3.81371
0
LINE
8
BLACK
6
CONTINUOUS
10
6.31731
20
-3.81371
11
6.31493
21
-3.82724
0
LINE
8
BLACK
6
CONTINUOUS
10
6.31493
20
-3.82724
11
6.31099
21
-3.8404
0
LINE
8
BLACK
6
CONTINUOUS
10
6.31099
20
-3.8404
11
6.30555
21
-3.85301
0
LINE
8
BLACK
6
CONTINUOUS
10
6.30555
20
-3.85301
11
6.29868
21
-3.8649
0
LINE
8
BLACK
6
CONTINUOUS
10
6.29868
20
-3.8649
11
6.29048
21
-3.87592
0
LINE
8
BLACK
6
CONTINUOUS
10
6.29048
20
-3.87592
11
6.28105
21
-3.88591
0
LINE
8
BLACK
6
CONTINUOUS
10
6.28105
20
-3.88591
11
6.27053
21
-3.89474
0
LINE
8
BLACK
6
CONTINUOUS
10
6.27053
20
-3.89474
11
6.25906
21
-3.90229
0
LINE
8
BLACK
6
CONTINUOUS
10
6.25906
20
-3.90229
11
6.24678
21
-3.90845
0
LINE
8
BLACK
6
CONTINUOUS
10
6.24678
20
-3.90845
11
6.23387
21
-3.91315
0
LINE
8
BLACK
6
CONTINUOUS
10
6.23387
20
-3.91315
11
6.22051
21
-3.91632
0
LINE
8
BLACK
6
CONTINUOUS
10
6.22051
20
-3.91632
11
6.20687
21
-3.91791
0
LINE
8
BLACK
6
CONTINUOUS
10
6.20687
20
-3.91791
11
6.19313
21
-3.91791
0
LINE
8
BLACK
6
CONTINUOUS
10
6.19313
20
-3.91791
11
6.17949
21
-3.91632
0
LINE
8
BLACK
6
CONTINUOUS
10
6.17949
20
-3.91632
11
6.16613
21
-3.91315
0
LINE
8
BLACK
6
CONTINUOUS
10
6.16613
20
-3.91315
11
6.15322
21
-3.90845
0
LINE
8
BLACK
6
CONTINUOUS
10
6.15322
20
-3.90845
11
6.14094
21
-3.90229
0
LINE
8
BLACK
6
CONTINUOUS
10
6.14094
20
-3.90229
11
6.12947
21
-3.89474
0
LINE
8
BLACK
6
CONTINUOUS
10
6.12947
20
-3.89474
11
6.11895
21
-3.88591
0
LINE
8
BLACK
6
CONTINUOUS
10
6.11895
20
-3.88591
11
6.10952
21
-3.87592
0
LINE
8
BLACK
6
CONTINUOUS
10
6.10952
20
-3.87592
11
6.10132
21
-3.8649
0
LINE
8
BLACK
6
CONTINUOUS
10
6.10132
20
-3.8649
11
6.09445
21
-3.85301
0
LINE
8
BLACK
6
CONTINUOUS
10
6.09445
20
-3.85301
11
6.08901
21
-3.8404
0
LINE
8
BLACK
6
CONTINUOUS
10
6.08901
20
-3.8404
11
6.08507
21
-3.82724
0
LINE
8
BLACK
6
CONTINUOUS
10
6.08507
20
-3.82724
11
6.08269
21
-3.81371
0
LINE
8
BLACK
6
CONTINUOUS
10
6.08269
20
-3.81371
11
6.08189
21
-3.8
0
LINE
8
BLACK
6
CONTINUOUS
10
6.08189
20
-3.8
11
6.08269
21
-3.78629
0
LINE
8
BLACK
6
CONTINUOUS
10
6.08269
20
-3.78629
11
6.08507
21
-3.77276
0
LINE
8
BLACK
6
CONTINUOUS
10
6.08507
20
-3.77276
11
6.08901
21
-3.7596
0
LINE
8
BLACK
6
CONTINUOUS
10
6.08901
20
-3.7596
11
6.09445
21
-3.74699
0
LINE
8
BLACK
6
CONTINUOUS
10
6.09445
20
-3.74699
11
6.10132
21
-3.7351
0
LINE
8
BLACK
6
CONTINUOUS
10
6.10132
20
-3.7351
11
6.10952
21
-3.72408
0
LINE
8
BLACK
6
CONTINUOUS
10
6.10952
20
-3.72408
11
6.11895
21
-3.71409
0
LINE
8
BLACK
6
CONTINUOUS
10
6.11895
20
-3.71409
11
6.12947
21
-3.70526
0
LINE
8
BLACK
6
CONTINUOUS
10
6.12947
20
-3.70526
11
6.14094
21
-3.69771
0
LINE
8
BLACK
6
CONTINUOUS
10
6.14094
20
-3.69771
11
6.15322
21
-3.69155
0
LINE
8
BLACK
6
CONTINUOUS
10
6.15322
20
-3.69155
11
6.16613
21
-3.68685
0
LINE
8
BLACK
6
CONTINUOUS
10
6.16613
20
-3.68685
11
6.17949
21
-3.68368
0
LINE
8
BLACK
6
CONTINUOUS
10
6.17949
20
-3.68368
11
6.19313
21
-3.68209
0
LINE
8
BLACK
6
CONTINUOUS
10
6.19313
20
-3.68209
11
6.20687
21
-3.68209
0
LINE
8
BLACK
6
CONTINUOUS
10
6.20687
20
-3.68209
11
6.22051
21
-3.68368
0
LINE
8
BLACK
6
CONTINUOUS
10
5.73
20
-3.88
11
5.67
21
-3.88
0
LINE
8
BLACK
6
CONTINUOUS
10
5.67
20
-3.88
11
5.67
21
-3.82
0
LINE
8
BLACK
6
CONTINUOUS
10
5.67
20
-3.82
11
5.73
21
-3.82
0
LINE
8
BLACK
6
CONTINUOUS
10
5.73
20
-3.82
11
5.73
21
-3.88
0
LINE
8
BLACK
6
CONTINUOUS
10
5.83
20
-3.88
11
5.77
21
-3.88
0
LINE
8
BLACK
6
CONTINUOUS
10
5.77
20
-3.88
11
5.77
21
-3.82
0
LINE
8
BLACK
6
CONTINUOUS
10
5.77
20
-3.82
11
5.83
21
-3.82
0
LINE
8
BLACK
6
CONTINUOUS
10
5.83
20
-3.82
11
5.83
21
-3.88
0
LINE
8
BLACK
6
CONTINUOUS
10
5.93
20
-3.88
11
5.87
21
-3.88
0
LINE
8
BLACK
6
CONTINUOUS
10
5.87
20
-3.88
11
5.87
21
-3.82
0
LINE
8
BLACK
6
CONTINUOUS
10
5.87
20
-3.82
11
5.93
21
-3.82
0
LINE
8
BLACK
6
CONTINUOUS
10
5.93
20
-3.82
11
5.93
21
-3.88
0
LINE
8
BLACK
6
CONTINUOUS
10
5.33
20
-3.83
11
5.27
21
-3.83
0
LINE
8
BLACK
6
CONTINUOUS
10
5.27
20
-3.83
11
5.27
21
-3.77
0
LINE
8
BLACK
6
CONTINUOUS
10
5.27
20
-3.77
11
5.33
21
-3.77
0
LINE
8
BLACK
6
CONTINUOUS
10
5.33
20
-3.77
11
5.33
21
-3.83
0
LINE
8
BLACK
6
CONTINUOUS
10
5.43
20
-3.83
11
5.37
21
-3.83
0
LINE
8
BLACK
6
CONTINUOUS
10
5.37
20
-3.83
11
5.37
21
-3.77
0
LINE
8
BLACK
6
CONTINUOUS
10
5.37
20
-3.77
11
5.43
21
-3.77
0
LINE
8
BLACK
6
CONTINUOUS
10
5.43
20
-3.77
11
5.43
21
-3.83
0
LINE
8
BLACK
6
CONTINUOUS
10
5.53
20
-3.83
11
5.47
21
-3.83
0
LINE
8
BLACK
6
CONTINUOUS
10
5.47
20
-3.83
11
5.47
21
-3.77
0
LINE
8
BLACK
6
CONTINUOUS
10
5.47
20
-3.77
11
5.53
21
-3.77
0
LINE
8
BLACK
6
CONTINUOUS
10
5.53
20
-3.77
11
5.53
21
-3.83
0
LINE
8
BLACK
6
CONTINUOUS
10
5.73
20
-3.78
11
5.67
21
-3.78
0
LINE
8
BLACK
6
CONTINUOUS
10
5.67
20
-3.78
11
5.67
21
-3.72
0
LINE
8
BLACK
6
CONTINUOUS
10
5.67
20
-3.72
11
5.73
21
-3.72
0
LINE
8
BLACK
6
CONTINUOUS
10
5.73
20
-3.72
11
5.73
21
-3.78
0
LINE
8
BLACK
6
CONTINUOUS
10
5.83
20
-3.78
11
5.77
21
-3.78
0
LINE
8
BLACK
6
CONTINUOUS
10
5.77
20
-3.78
11
5.77
21
-3.72
0
LINE
8
BLACK
6
CONTINUOUS
10
5.77
20
-3.72
11
5.83
21
-3.72
0
LINE
8
BLACK
6
CONTINUOUS
10
5.83
20
-3.72
11
5.83
21
-3.78
0
LINE
8
BLACK
6
CONTINUOUS
10
5.93
20
-3.78
11
5.87
21
-3.78
0
LINE
8
BLACK
6
CONTINUOUS
10
5.87
20
-3.78
11
5.87
21
-3.72
0
LINE
8
BLACK
6
CONTINUOUS
10
5.87
20
-3.72
11
5.93
21
-3.72
0
LINE
8
BLACK
6
CONTINUOUS
10
5.93
20
-3.72
11
5.93
21
-3.78
0
LINE
8
BLACK
6
CONTINUOUS
10
4.98
20
-3.53
11
4.92
21
-3.53
0
LINE
8
BLACK
6
CONTINUOUS
10
4.92
20
-3.53
11
4.92
21
-3.47
0
LINE
8
BLACK
6
CONTINUOUS
10
4.92
20
-3.47
11
4.98
21
-3.47
0
LINE
8
BLACK
6
CONTINUOUS
10
4.98
20
-3.47
11
4.98
21
-3.53
0
LINE
8
BLACK
6
CONTINUOUS
10
5.08
20
-3.53
11
5.02
21
-3.53
0
LINE
8
BLACK
6
CONTINUOUS
10
5.02
20
-3.53
11
5.02
21
-3.47
0
LINE
8
BLACK
6
CONTINUOUS
10
5.02
20
-3.47
11
5.08
21
-3.47
0
LINE
8
BLACK
6
CONTINUOUS
10
5.08
20
-3.47
11
5.08
21
-3.53
0
LINE
8
BLACK
6
CONTINUOUS
10
6.18
20
-3.53
11
6.12
21
-3.53
0
LINE
8
BLACK
6
CONTINUOUS
10
6.12
20
-3.53
11
6.12
21
-3.47
0
LINE
8
BLACK
6
CONTINUOUS
10
6.12
20
-3.47
11
6.18
21
-3.47
0
LINE
8
BLACK
6
CONTINUOUS
10
6.18
20
-3.47
11
6.18
21
-3.53
0
LINE
8
BLACK
6
CONTINUOUS
10
6.28
20
-3.53
11
6.22
21
-3.53
0
LINE
8
BLACK
6
CONTINUOUS
10
6.22
20
-3.53
11
6.22
21
-3.47
0
LINE
8
BLACK
6
CONTINUOUS
10
6.22
20
-3.47
11
6.28
21
-3.47
0
LINE
8
BLACK
6
CONTINUOUS
10
6.28
20
-3.47
11
6.28
21
-3.53
0
LINE
8
BLACK
6
CONTINUOUS
10
5.56621
20
-3.36744
11
5.5694
21
-3.36958
0
LINE
8
BLACK
6
CONTINUOUS
10
5.5694
20
-3.36958
11
5.57153
21
-3.37277
0
LINE
8
BLACK
6
CONTINUOUS
10
5.57153
20
-3.37277
11
5.57228
21
-3.37654
0
LINE
8
BLACK
6
CONTINUOUS
10
5.57228
20
-3.37654
11
5.57228
21
-3.44346
0
LINE
8
BLACK
6
CONTINUOUS
10
5.57228
20
-3.44346
11
5.57153
21
-3.44723
0
LINE
8
BLACK
6
CONTINUOUS
10
5.57153
20
-3.44723
11
5.5694
21
-3.45042
0
LINE
8
BLACK
6
CONTINUOUS
10
5.5694
20
-3.45042
11
5.56621
21
-3.45256
0
LINE
8
BLACK
6
CONTINUOUS
10
5.56621
20
-3.45256
11
5.56244
21
-3.45331
0
LINE
8
BLACK
6
CONTINUOUS
10
5.56244
20
-3.45331
11
5.53291
21
-3.45331
0
LINE
8
BLACK
6
CONTINUOUS
10
5.53291
20
-3.45331
11
5.52915
21
-3.45256
0
LINE
8
BLACK
6
CONTINUOUS
10
5.52915
20
-3.45256
11
5.52595
21
-3.45042
0
LINE
8
BLACK
6
CONTINUOUS
10
5.52595
20
-3.45042
11
5.52382
21
-3.44723
0
LINE
8
BLACK
6
CONTINUOUS
10
5.52382
20
-3.44723
11
5.52307
21
-3.44346
0
LINE
8
BLACK
6
CONTINUOUS
10
5.52307
20
-3.44346
11
5.52307
21
-3.37654
0
LINE
8
BLACK
6
CONTINUOUS
10
5.52307
20
-3.37654
11
5.52382
21
-3.37277
0
LINE
8
BLACK
6
CONTINUOUS
10
5.52382
20
-3.37277
11
5.52595
21
-3.36958
0
LINE
8
BLACK
6
CONTINUOUS
10
5.52595
20
-3.36958
11
5.52915
21
-3.36744
0
LINE
8
BLACK
6
CONTINUOUS
10
5.52915
20
-3.36744
11
5.53291
21
-3.36669
0
LINE
8
BLACK
6
CONTINUOUS
10
5.53291
20
-3.36669
11
5.56244
21
-3.36669
0
LINE
8
BLACK
6
CONTINUOUS
10
5.56244
20
-3.36669
11
5.56621
21
-3.36744
0
LINE
8
BLACK
6
CONTINUOUS
10
5.65085
20
-3.36744
11
5.65405
21
-3.36958
0
LINE
8
BLACK
6
CONTINUOUS
10
5.65405
20
-3.36958
11
5.65618
21
-3.37277
0
LINE
8
BLACK
6
CONTINUOUS
10
5.65618
20
-3.37277
11
5.65693
21
-3.37654
0
LINE
8
BLACK
6
CONTINUOUS
10
5.65693
20
-3.37654
11
5.65693
21
-3.44346
0
LINE
8
BLACK
6
CONTINUOUS
10
5.65693
20
-3.44346
11
5.65618
21
-3.44723
0
LINE
8
BLACK
6
CONTINUOUS
10
5.65618
20
-3.44723
11
5.65405
21
-3.45042
0
LINE
8
BLACK
6
CONTINUOUS
10
5.65405
20
-3.45042
11
5.65085
21
-3.45256
0
LINE
8
BLACK
6
CONTINUOUS
10
5.65085
20
-3.45256
11
5.64709
21
-3.45331
0
LINE
8
BLACK
6
CONTINUOUS
10
5.64709
20
-3.45331
11
5.61756
21
-3.45331
0
LINE
8
BLACK
6
CONTINUOUS
10
5.61756
20
-3.45331
11
5.61379
21
-3.45256
0
LINE
8
BLACK
6
CONTINUOUS
10
5.61379
20
-3.45256
11
5.6106
21
-3.45042
0
LINE
8
BLACK
6
CONTINUOUS
10
5.6106
20
-3.45042
11
5.60847
21
-3.44723
0
LINE
8
BLACK
6
CONTINUOUS
10
5.60847
20
-3.44723
11
5.60772
21
-3.44346
0
LINE
8
BLACK
6
CONTINUOUS
10
5.60772
20
-3.44346
11
5.60772
21
-3.37654
0
LINE
8
BLACK
6
CONTINUOUS
10
5.60772
20
-3.37654
11
5.60847
21
-3.37277
0
LINE
8
BLACK
6
CONTINUOUS
10
5.60847
20
-3.37277
11
5.6106
21
-3.36958
0
LINE
8
BLACK
6
CONTINUOUS
10
5.6106
20
-3.36958
11
5.61379
21
-3.36744
0
LINE
8
BLACK
6
CONTINUOUS
10
5.61379
20
-3.36744
11
5.61756
21
-3.36669
0
LINE
8
BLACK
6
CONTINUOUS
10
5.61756
20
-3.36669
11
5.64709
21
-3.36669
0
LINE
8
BLACK
6
CONTINUOUS
10
5.64709
20
-3.36669
11
5.65085
21
-3.36744
0
LINE
8
BLACK
6
CONTINUOUS
10
4.98
20
-3.43
11
4.92
21
-3.43
0
LINE
8
BLACK
6
CONTINUOUS
10
4.92
20
-3.43
11
4.92
21
-3.37
0
LINE
8
BLACK
6
CONTINUOUS
10
4.92
20
-3.37
11
4.98
21
-3.37
0
LINE
8
BLACK
6
CONTINUOUS
10
4.98
20
-3.37
11
4.98
21
-3.43
0
LINE
8
BLACK
6
CONTINUOUS
10
5.08
20
-3.43
11
5.02
21
-3.43
0
LINE
8
BLACK
6
CONTINUOUS
10
5.02
20
-3.43
11
5.02
21
-3.37
0
LINE
8
BLACK
6
CONTINUOUS
10
5.02
20
-3.37
11
5.08
21
-3.37
0
LINE
8
BLACK
6
CONTINUOUS
10
5.08
20
-3.37
11
5.08
21
-3.43
0
LINE
8
BLACK
6
CONTINUOUS
10
6.18
20
-3.43
11
6.12
21
-3.43
0
LINE
8
BLACK
6
CONTINUOUS
10
6.12
20
-3.43
11
6.12
21
-3.37
0
LINE
8
BLACK
6
CONTINUOUS
10
6.12
20
-3.37
11
6.18
21
-3.37
0
LINE
8
BLACK
6
CONTINUOUS
10
6.18
20
-3.37
11
6.18
21
-3.43
0
LINE
8
BLACK
6
CONTINUOUS
10
6.28
20
-3.43
11
6.22
21
-3.43
0
LINE
8
BLACK
6
CONTINUOUS
10
6.22
20
-3.43
11
6.22
21
-3.37
0
LINE
8
BLACK
6
CONTINUOUS
10
6.22
20
-3.37
11
6.28
21
-3.37
0
LINE
8
BLACK
6
CONTINUOUS
10
6.28
20
-3.37
11
6.28
21
-3.43
0
LINE
8
BLACK
6
CONTINUOUS
10
5.5175
20
-3.345
11
5.4625
21
-3.345
0
LINE
8
BLACK
6
CONTINUOUS
10
5.4625
20
-3.345
11
5.4625
21
-3.31
0
LINE
8
BLACK
6
CONTINUOUS
10
5.4625
20
-3.31
11
5.5175
21
-3.31
0
LINE
8
BLACK
6
CONTINUOUS
10
5.5175
20
-3.31
11
5.5175
21
-3.345
0
LINE
8
BLACK
6
CONTINUOUS
10
5.7175
20
-3.345
11
5.6625
21
-3.345
0
LINE
8
BLACK
6
CONTINUOUS
10
5.6625
20
-3.345
11
5.6625
21
-3.31
0
LINE
8
BLACK
6
CONTINUOUS
10
5.6625
20
-3.31
11
5.7175
21
-3.31
0
LINE
8
BLACK
6
CONTINUOUS
10
5.7175
20
-3.31
11
5.7175
21
-3.345
0
LINE
8
BLACK
6
CONTINUOUS
10
5.7975
20
-3.345
11
5.7425
21
-3.345
0
LINE
8
BLACK
6
CONTINUOUS
10
5.7425
20
-3.345
11
5.7425
21
-3.31
0
LINE
8
BLACK
6
CONTINUOUS
10
5.7425
20
-3.31
11
5.7975
21
-3.31
0
LINE
8
BLACK
6
CONTINUOUS
10
5.7975
20
-3.31
11
5.7975
21
-3.345
0
LINE
8
BLACK
6
CONTINUOUS
10
5.56638
20
-3.34234
11
5.55457
21
-3.34234
0
LINE
8
BLACK
6
CONTINUOUS
10
5.55457
20
-3.34234
11
5.55457
21
-3.32364
0
LINE
8
BLACK
6
CONTINUOUS
10
5.55457
20
-3.32364
11
5.56638
21
-3.32364
0
LINE
8
BLACK
6
CONTINUOUS
10
5.56638
20
-3.32364
11
5.56638
21
-3.34234
0
LINE
8
BLACK
6
CONTINUOUS
10
5.58606
20
-3.34234
11
5.57425
21
-3.34234
0
LINE
8
BLACK
6
CONTINUOUS
10
5.57425
20
-3.34234
11
5.57425
21
-3.32364
0
LINE
8
BLACK
6
CONTINUOUS
10
5.57425
20
-3.32364
11
5.58606
21
-3.32364
0
LINE
8
BLACK
6
CONTINUOUS
10
5.58606
20
-3.32364
11
5.58606
21
-3.34234
0
LINE
8
BLACK
6
CONTINUOUS
10
5.60575
20
-3.34234
11
5.59394
21
-3.34234
0
LINE
8
BLACK
6
CONTINUOUS
10
5.59394
20
-3.34234
11
5.59394
21
-3.32364
0
LINE
8
BLACK
6
CONTINUOUS
10
5.59394
20
-3.32364
11
5.60575
21
-3.32364
0
LINE
8
BLACK
6
CONTINUOUS
10
5.60575
20
-3.32364
11
5.60575
21
-3.34234
0
LINE
8
BLACK
6
CONTINUOUS
10
5.62543
20
-3.34234
11
5.61362
21
-3.34234
0
LINE
8
BLACK
6
CONTINUOUS
10
5.61362
20
-3.34234
11
5.61362
21
-3.32364
0
LINE
8
BLACK
6
CONTINUOUS
10
5.61362
20
-3.32364
11
5.62543
21
-3.32364
0
LINE
8
BLACK
6
CONTINUOUS
10
5.62543
20
-3.32364
11
5.62543
21
-3.34234
0
LINE
8
BLACK
6
CONTINUOUS
10
4.98
20
-3.33
11
4.92
21
-3.33
0
LINE
8
BLACK
6
CONTINUOUS
10
4.92
20
-3.33
11
4.92
21
-3.27
0
LINE
8
BLACK
6
CONTINUOUS
10
4.92
20
-3.27
11
4.98
21
-3.27
0
LINE
8
BLACK
6
CONTINUOUS
10
4.98
20
-3.27
11
4.98
21
-3.33
0
LINE
8
BLACK
6
CONTINUOUS
10
5.08
20
-3.33
11
5.02
21
-3.33
0
LINE
8
BLACK
6
CONTINUOUS
10
5.02
20
-3.33
11
5.02
21
-3.27
0
LINE
8
BLACK
6
CONTINUOUS
10
5.02
20
-3.27
11
5.08
21
-3.27
0
LINE
8
BLACK
6
CONTINUOUS
10
5.08
20
-3.27
11
5.08
21
-3.33
0
LINE
8
BLACK
6
CONTINUOUS
10
6.18
20
-3.33
11
6.12
21
-3.33
0
LINE
8
BLACK
6
CONTINUOUS
10
6.12
20
-3.33
11
6.12
21
-3.27
0
LINE
8
BLACK
6
CONTINUOUS
10
6.12
20
-3.27
11
6.18
21
-3.27
0
LINE
8
BLACK
6
CONTINUOUS
10
6.18
20
-3.27
11
6.18
21
-3.33
0
LINE
8
BLACK
6
CONTINUOUS
10
6.28
20
-3.33
11
6.22
21
-3.33
0
LINE
8
BLACK
6
CONTINUOUS
10
6.22
20
-3.33
11
6.22
21
-3.27
0
LINE
8
BLACK
6
CONTINUOUS
10
6.22
20
-3.27
11
6.28
21
-3.27
0
LINE
8
BLACK
6
CONTINUOUS
10
6.28
20
-3.27
11
6.28
21
-3.33
0
LINE
8
BLACK
6
CONTINUOUS
10
5.56638
20
-3.27636
11
5.55457
21
-3.27636
0
LINE
8
BLACK
6
CONTINUOUS
10
5.55457
20
-3.27636
11
5.55457
21
-3.25766
0
LINE
8
BLACK
6
CONTINUOUS
10
5.55457
20
-3.25766
11
5.56638
21
-3.25766
0
LINE
8
BLACK
6
CONTINUOUS
10
5.56638
20
-3.25766
11
5.56638
21
-3.27636
0
LINE
8
BLACK
6
CONTINUOUS
10
5.58606
20
-3.27636
11
5.57425
21
-3.27636
0
LINE
8
BLACK
6
CONTINUOUS
10
5.57425
20
-3.27636
11
5.57425
21
-3.25766
0
LINE
8
BLACK
6
CONTINUOUS
10
5.57425
20
-3.25766
11
5.58606
21
-3.25766
0
LINE
8
BLACK
6
CONTINUOUS
10
5.58606
20
-3.25766
11
5.58606
21
-3.27636
0
LINE
8
BLACK
6
CONTINUOUS
10
5.60575
20
-3.27636
11
5.59394
21
-3.27636
0
LINE
8
BLACK
6
CONTINUOUS
10
5.59394
20
-3.27636
11
5.59394
21
-3.25766
0
LINE
8
BLACK
6
CONTINUOUS
10
5.59394
20
-3.25766
11
5.60575
21
-3.25766
0
LINE
8
BLACK
6
CONTINUOUS
10
5.60575
20
-3.25766
11
5.60575
21
-3.27636
0
LINE
8
BLACK
6
CONTINUOUS
10
5.62543
20
-3.27636
11
5.61362
21
-3.27636
0
LINE
8
BLACK
6
CONTINUOUS
10
5.61362
20
-3.27636
11
5.61362
21
-3.25766
0
LINE
8
BLACK
6
CONTINUOUS
10
5.61362
20
-3.25766
11
5.62543
21
-3.25766
0
LINE
8
BLACK
6
CONTINUOUS
10
5.62543
20
-3.25766
11
5.62543
21
-3.27636
0
LINE
8
BLACK
6
CONTINUOUS
10
5.5175
20
-3.27
11
5.4625
21
-3.27
0
LINE
8
BLACK
6
CONTINUOUS
10
5.4625
20
-3.27
11
5.4625
21
-3.235
0
LINE
8
BLACK
6
CONTINUOUS
10
5.4625
20
-3.235
11
5.5175
21
-3.235
0
LINE
8
BLACK
6
CONTINUOUS
10
5.5175
20
-3.235
11
5.5175
21
-3.27
0
LINE
8
BLACK
6
CONTINUOUS
10
5.7175
20
-3.27
11
5.6625
21
-3.27
0
LINE
8
BLACK
6
CONTINUOUS
10
5.6625
20
-3.27
11
5.6625
21
-3.235
0
LINE
8
BLACK
6
CONTINUOUS
10
5.6625
20
-3.235
11
5.7175
21
-3.235
0
LINE
8
BLACK
6
CONTINUOUS
10
5.7175
20
-3.235
11
5.7175
21
-3.27
0
LINE
8
BLACK
6
CONTINUOUS
10
5.7975
20
-3.27
11
5.7425
21
-3.27
0
LINE
8
BLACK
6
CONTINUOUS
10
5.7425
20
-3.27
11
5.7425
21
-3.235
0
LINE
8
BLACK
6
CONTINUOUS
10
5.7425
20
-3.235
11
5.7975
21
-3.235
0
LINE
8
BLACK
6
CONTINUOUS
10
5.7975
20
-3.235
11
5.7975
21
-3.27
0
LINE
8
BLACK
6
CONTINUOUS
10
5.6475
20
-3.185
11
5.5925
21
-3.185
0
LINE
8
BLACK
6
CONTINUOUS
10
5.5925
20
-3.185
11
5.5925
21
-3.15
0
LINE
8
BLACK
6
CONTINUOUS
10
5.5925
20
-3.15
11
5.6475
21
-3.15
0
LINE
8
BLACK
6
CONTINUOUS
10
5.6475
20
-3.15
11
5.6475
21
-3.185
0
LINE
8
BLACK
6
CONTINUOUS
10
5.71
20
-3.1375
11
5.675
21
-3.1375
0
LINE
8
BLACK
6
CONTINUOUS
10
5.675
20
-3.1375
11
5.675
21
-3.0825
0
LINE
8
BLACK
6
CONTINUOUS
10
5.675
20
-3.0825
11
5.71
21
-3.0825
0
LINE
8
BLACK
6
CONTINUOUS
10
5.71
20
-3.0825
11
5.71
21
-3.1375
0
LINE
8
BLACK
6
CONTINUOUS
10
5.785
20
-3.1375
11
5.75
21
-3.1375
0
LINE
8
BLACK
6
CONTINUOUS
10
5.75
20
-3.1375
11
5.75
21
-3.0825
0
LINE
8
BLACK
6
CONTINUOUS
10
5.75
20
-3.0825
11
5.785
21
-3.0825
0
LINE
8
BLACK
6
CONTINUOUS
10
5.785
20
-3.0825
11
5.785
21
-3.1375
0
LINE
8
BLACK
6
CONTINUOUS
10
5.85
20
-3.1375
11
5.815
21
-3.1375
0
LINE
8
BLACK
6
CONTINUOUS
10
5.815
20
-3.1375
11
5.815
21
-3.0825
0
LINE
8
BLACK
6
CONTINUOUS
10
5.815
20
-3.0825
11
5.85
21
-3.0825
0
LINE
8
BLACK
6
CONTINUOUS
10
5.85
20
-3.0825
11
5.85
21
-3.1375
0
LINE
8
BLACK
6
CONTINUOUS
10
5.925
20
-3.1375
11
5.89
21
-3.1375
0
LINE
8
BLACK
6
CONTINUOUS
10
5.89
20
-3.1375
11
5.89
21
-3.0825
0
LINE
8
BLACK
6
CONTINUOUS
10
5.89
20
-3.0825
11
5.925
21
-3.0825
0
LINE
8
BLACK
6
CONTINUOUS
10
5.925
20
-3.0825
11
5.925
21
-3.1375
0
LINE
8
BLACK
6
CONTINUOUS
10
5.02051
20
-2.88368
11
5.03387
21
-2.88685
0
LINE
8
BLACK
6
CONTINUOUS
10
5.03387
20
-2.88685
11
5.04678
21
-2.89155
0
LINE
8
BLACK
6
CONTINUOUS
10
5.04678
20
-2.89155
11
5.05906
21
-2.89771
0
LINE
8
BLACK
6
CONTINUOUS
10
5.05906
20
-2.89771
11
5.07053
21
-2.90526
0
LINE
8
BLACK
6
CONTINUOUS
10
5.07053
20
-2.90526
11
5.08105
21
-2.91409
0
LINE
8
BLACK
6
CONTINUOUS
10
5.08105
20
-2.91409
11
5.09048
21
-2.92408
0
LINE
8
BLACK
6
CONTINUOUS
10
5.09048
20
-2.92408
11
5.09868
21
-2.9351
0
LINE
8
BLACK
6
CONTINUOUS
10
5.09868
20
-2.9351
11
5.10555
21
-2.94699
0
LINE
8
BLACK
6
CONTINUOUS
10
5.10555
20
-2.94699
11
5.11099
21
-2.9596
0
LINE
8
BLACK
6
CONTINUOUS
10
5.11099
20
-2.9596
11
5.11493
21
-2.97276
0
LINE
8
BLACK
6
CONTINUOUS
10
5.11493
20
-2.97276
11
5.11731
21
-2.98629
0
LINE
8
BLACK
6
CONTINUOUS
10
5.11731
20
-2.98629
11
5.11811
21
-3
0
LINE
8
BLACK
6
CONTINUOUS
10
5.11811
20
-3
11
5.11731
21
-3.01371
0
LINE
8
BLACK
6
CONTINUOUS
10
5.11731
20
-3.01371
11
5.11493
21
-3.02724
0
LINE
8
BLACK
6
CONTINUOUS
10
5.11493
20
-3.02724
11
5.11099
21
-3.0404
0
LINE
8
BLACK
6
CONTINUOUS
10
5.11099
20
-3.0404
11
5.10555
21
-3.05301
0
LINE
8
BLACK
6
CONTINUOUS
10
5.10555
20
-3.05301
11
5.09868
21
-3.0649
0
LINE
8
BLACK
6
CONTINUOUS
10
5.09868
20
-3.0649
11
5.09048
21
-3.07592
0
LINE
8
BLACK
6
CONTINUOUS
10
5.09048
20
-3.07592
11
5.08105
21
-3.08591
0
LINE
8
BLACK
6
CONTINUOUS
10
5.08105
20
-3.08591
11
5.07053
21
-3.09474
0
LINE
8
BLACK
6
CONTINUOUS
10
5.07053
20
-3.09474
11
5.05906
21
-3.10229
0
LINE
8
BLACK
6
CONTINUOUS
10
5.05906
20
-3.10229
11
5.04678
21
-3.10845
0
LINE
8
BLACK
6
CONTINUOUS
10
5.04678
20
-3.10845
11
5.03387
21
-3.11315
0
LINE
8
BLACK
6
CONTINUOUS
10
5.03387
20
-3.11315
11
5.02051
21
-3.11632
0
LINE
8
BLACK
6
CONTINUOUS
10
5.02051
20
-3.11632
11
5.00687
21
-3.11791
0
LINE
8
BLACK
6
CONTINUOUS
10
5.00687
20
-3.11791
11
4.99313
21
-3.11791
0
LINE
8
BLACK
6
CONTINUOUS
10
4.99313
20
-3.11791
11
4.97949
21
-3.11632
0
LINE
8
BLACK
6
CONTINUOUS
10
4.97949
20
-3.11632
11
4.96613
21
-3.11315
0
LINE
8
BLACK
6
CONTINUOUS
10
4.96613
20
-3.11315
11
4.95322
21
-3.10845
0
LINE
8
BLACK
6
CONTINUOUS
10
4.95322
20
-3.10845
11
4.94094
21
-3.10229
0
LINE
8
BLACK
6
CONTINUOUS
10
4.94094
20
-3.10229
11
4.92947
21
-3.09474
0
LINE
8
BLACK
6
CONTINUOUS
10
4.92947
20
-3.09474
11
4.91895
21
-3.08591
0
LINE
8
BLACK
6
CONTINUOUS
10
4.91895
20
-3.08591
11
4.90952
21
-3.07592
0
LINE
8
BLACK
6
CONTINUOUS
10
4.90952
20
-3.07592
11
4.90132
21
-3.0649
0
LINE
8
BLACK
6
CONTINUOUS
10
4.90132
20
-3.0649
11
4.89445
21
-3.05301
0
LINE
8
BLACK
6
CONTINUOUS
10
4.89445
20
-3.05301
11
4.88901
21
-3.0404
0
LINE
8
BLACK
6
CONTINUOUS
10
4.88901
20
-3.0404
11
4.88507
21
-3.02724
0
LINE
8
BLACK
6
CONTINUOUS
10
4.88507
20
-3.02724
11
4.88269
21
-3.01371
0
LINE
8
BLACK
6
CONTINUOUS
10
4.88269
20
-3.01371
11
4.88189
21
-3
0
LINE
8
BLACK
6
CONTINUOUS
10
4.88189
20
-3
11
4.88269
21
-2.98629
0
LINE
8
BLACK
6
CONTINUOUS
10
4.88269
20
-2.98629
11
4.88507
21
-2.97276
0
LINE
8
BLACK
6
CONTINUOUS
10
4.88507
20
-2.97276
11
4.88901
21
-2.9596
0
LINE
8
BLACK
6
CONTINUOUS
10
4.88901
20
-2.9596
11
4.89445
21
-2.94699
0
LINE
8
BLACK
6
CONTINUOUS
10
4.89445
20
-2.94699
11
4.90132
21
-2.9351
0
LINE
8
BLACK
6
CONTINUOUS
10
4.90132
20
-2.9351
11
4.90952
21
-2.92408
0
LINE
8
BLACK
6
CONTINUOUS
10
4.90952
20
-2.92408
11
4.91895
21
-2.91409
0
LINE
8
BLACK
6
CONTINUOUS
10
4.91895
20
-2.91409
11
4.92947
21
-2.90526
0
LINE
8
BLACK
6
CONTINUOUS
10
4.92947
20
-2.90526
11
4.94094
21
-2.89771
0
LINE
8
BLACK
6
CONTINUOUS
10
4.94094
20
-2.89771
11
4.95322
21
-2.89155
0
LINE
8
BLACK
6
CONTINUOUS
10
4.95322
20
-2.89155
11
4.96613
21
-2.88685
0
LINE
8
BLACK
6
CONTINUOUS
10
4.96613
20
-2.88685
11
4.97949
21
-2.88368
0
LINE
8
BLACK
6
CONTINUOUS
10
4.97949
20
-2.88368
11
4.99313
21
-2.88209
0
LINE
8
BLACK
6
CONTINUOUS
10
4.99313
20
-2.88209
11
5.00687
21
-2.88209
0
LINE
8
BLACK
6
CONTINUOUS
10
5.00687
20
-2.88209
11
5.02051
21
-2.88368
0
LINE
8
BLACK
6
CONTINUOUS
10
6.22051
20
-2.88368
11
6.23387
21
-2.88685
0
LINE
8
BLACK
6
CONTINUOUS
10
6.23387
20
-2.88685
11
6.24678
21
-2.89155
0
LINE
8
BLACK
6
CONTINUOUS
10
6.24678
20
-2.89155
11
6.25906
21
-2.89771
0
LINE
8
BLACK
6
CONTINUOUS
10
6.25906
20
-2.89771
11
6.27053
21
-2.90526
0
LINE
8
BLACK
6
CONTINUOUS
10
6.27053
20
-2.90526
11
6.28105
21
-2.91409
0
LINE
8
BLACK
6
CONTINUOUS
10
6.28105
20
-2.91409
11
6.29048
21
-2.92408
0
LINE
8
BLACK
6
CONTINUOUS
10
6.29048
20
-2.92408
11
6.29868
21
-2.9351
0
LINE
8
BLACK
6
CONTINUOUS
10
6.29868
20
-2.9351
11
6.30555
21
-2.94699
0
LINE
8
BLACK
6
CONTINUOUS
10
6.30555
20
-2.94699
11
6.31099
21
-2.9596
0
LINE
8
BLACK
6
CONTINUOUS
10
6.31099
20
-2.9596
11
6.31493
21
-2.97276
0
LINE
8
BLACK
6
CONTINUOUS
10
6.31493
20
-2.97276
11
6.31731
21
-2.98629
0
LINE
8
BLACK
6
CONTINUOUS
10
6.31731
20
-2.98629
11
6.31811
21
-3
0
LINE
8
BLACK
6
CONTINUOUS
10
6.31811
20
-3
11
6.31731
21
-3.01371
0
LINE
8
BLACK
6
CONTINUOUS
10
6.31731
20
-3.01371
11
6.31493
21
-3.02724
0
LINE
8
BLACK
6
CONTINUOUS
10
6.31493
20
-3.02724
11
6.31099
21
-3.0404
0
LINE
8
BLACK
6
CONTINUOUS
10
6.31099
20
-3.0404
11
6.30555
21
-3.05301
0
LINE
8
BLACK
6
CONTINUOUS
10
6.30555
20
-3.05301
11
6.29868
21
-3.0649
0
LINE
8
BLACK
6
CONTINUOUS
10
6.29868
20
-3.0649
11
6.29048
21
-3.07592
0
LINE
8
BLACK
6
CONTINUOUS
10
6.29048
20
-3.07592
11
6.28105
21
-3.08591
0
LINE
8
BLACK
6
CONTINUOUS
10
6.28105
20
-3.08591
11
6.27053
21
-3.09474
0
LINE
8
BLACK
6
CONTINUOUS
10
6.27053
20
-3.09474
11
6.25906
21
-3.10229
0
LINE
8
BLACK
6
CONTINUOUS
10
6.25906
20
-3.10229
11
6.24678
21
-3.10845
0
LINE
8
BLACK
6
CONTINUOUS
10
6.24678
20
-3.10845
11
6.23387
21
-3.11315
0
LINE
8
BLACK
6
CONTINUOUS
10
6.23387
20
-3.11315
11
6.22051
21
-3.11632
0
LINE
8
BLACK
6
CONTINUOUS
10
6.22051
20
-3.11632
11
6.20687
21
-3.11791
0
LINE
8
BLACK
6
CONTINUOUS
10
6.20687
20
-3.11791
11
6.19313
21
-3.11791
0
LINE
8
BLACK
6
CONTINUOUS
10
6.19313
20
-3.11791
11
6.17949
21
-3.11632
0
LINE
8
BLACK
6
CONTINUOUS
10
6.17949
20
-3.11632
11
6.16613
21
-3.11315
0
LINE
8
BLACK
6
CONTINUOUS
10
6.16613
20
-3.11315
11
6.15322
21
-3.10845
0
LINE
8
BLACK
6
CONTINUOUS
10
6.15322
20
-3.10845
11
6.14094
21
-3.10229
0
LINE
8
BLACK
6
CONTINUOUS
10
6.14094
20
-3.10229
11
6.12947
21
-3.09474
0
LINE
8
BLACK
6
CONTINUOUS
10
6.12947
20
-3.09474
11
6.11895
21
-3.08591
0
LINE
8
BLACK
6
CONTINUOUS
10
6.11895
20
-3.08591
11
6.10952
21
-3.07592
0
LINE
8
BLACK
6
CONTINUOUS
10
6.10952
20
-3.07592
11
6.10132
21
-3.0649
0
LINE
8
BLACK
6
CONTINUOUS
10
6.10132
20
-3.0649
11
6.09445
21
-3.05301
0
LINE
8
BLACK
6
CONTINUOUS
10
6.09445
20
-3.05301
11
6.08901
21
-3.0404
0
LINE
8
BLACK
6
CONTINUOUS
10
6.08901
20
-3.0404
11
6.08507
21
-3.02724
0
LINE
8
BLACK
6
CONTINUOUS
10
6.08507
20
-3.02724
11
6.08269
21
-3.01371
0
LINE
8
BLACK
6
CONTINUOUS
10
6.08269
20
-3.01371
11
6.08189
21
-3
0
LINE
8
BLACK
6
CONTINUOUS
10
6.08189
20
-3
11
6.08269
21
-2.98629
0
LINE
8
BLACK
6
CONTINUOUS
10
6.08269
20
-2.98629
11
6.08507
21
-2.97276
0
LINE
8
BLACK
6
CONTINUOUS
10
6.08507
20
-2.97276
11
6.08901
21
-2.9596
0
LINE
8
BLACK
6
CONTINUOUS
10
6.08901
20
-2.9596
11
6.09445
21
-2.94699
0
LINE
8
BLACK
6
CONTINUOUS
10
6.09445
20
-2.94699
11
6.10132
21
-2.9351
0
LINE
8
BLACK
6
CONTINUOUS
10
6.10132
20
-2.9351
11
6.10952
21
-2.92408
0
LINE
8
BLACK
6
CONTINUOUS
10
6.10952
20
-2.92408
11
6.11895
21
-2.91409
0
LINE
8
BLACK
6
CONTINUOUS
10
6.11895
20
-2.91409
11
6.12947
21
-2.90526
0
LINE
8
BLACK
6
CONTINUOUS
10
6.12947
20
-2.90526
11
6.14094
21
-2.89771
0
LINE
8
BLACK
6
CONTINUOUS
10
6.14094
20
-2.89771
11
6.15322
21
-2.89155
0
LINE
8
BLACK
6
CONTINUOUS
10
6.15322
20
-2.89155
11
6.16613
21
-2.88685
0
LINE
8
BLACK
6
CONTINUOUS
10
6.16613
20
-2.88685
11
6.17949
21
-2.88368
0
LINE
8
BLACK
6
CONTINUOUS
10
6.17949
20
-2.88368
11
6.19313
21
-2.88209
0
LINE
8
BLACK
6
CONTINUOUS
10
6.19313
20
-2.88209
11
6.20687
21
-2.88209
0
LINE
8
BLACK
6
CONTINUOUS
10
6.20687
20
-2.88209
11
6.22051
21
-2.88368
0
LINE
8
BLACK
6
CONTINUOUS
10
5.6475
20
-3.11
11
5.5925
21
-3.11
0
LINE
8
BLACK
6
CONTINUOUS
10
5.5925
20
-3.11
11
5.5925
21
-3.075
0
LINE
8
BLACK
6
CONTINUOUS
10
5.5925
20
-3.075
11
5.6475
21
-3.075
0
LINE
8
BLACK
6
CONTINUOUS
10
5.6475
20
-3.075
11
5.6475
21
-3.11
0
LINE
8
BLACK
6
CONTINUOUS
10
5.33
20
-3.03
11
5.27
21
-3.03
0
LINE
8
BLACK
6
CONTINUOUS
10
5.27
20
-3.03
11
5.27
21
-2.97
0
LINE
8
BLACK
6
CONTINUOUS
10
5.27
20
-2.97
11
5.33
21
-2.97
0
LINE
8
BLACK
6
CONTINUOUS
10
5.33
20
-2.97
11
5.33
21
-3.03
0
LINE
8
BLACK
6
CONTINUOUS
10
5.43
20
-3.03
11
5.37
21
-3.03
0
LINE
8
BLACK
6
CONTINUOUS
10
5.37
20
-3.03
11
5.37
21
-2.97
0
LINE
8
BLACK
6
CONTINUOUS
10
5.37
20
-2.97
11
5.43
21
-2.97
0
LINE
8
BLACK
6
CONTINUOUS
10
5.43
20
-2.97
11
5.43
21
-3.03
0
LINE
8
BLACK
6
CONTINUOUS
10
5.53
20
-3.03
11
5.47
21
-3.03
0
LINE
8
BLACK
6
CONTINUOUS
10
5.47
20
-3.03
11
5.47
21
-2.97
0
LINE
8
BLACK
6
CONTINUOUS
10
5.47
20
-2.97
11
5.53
21
-2.97
0
LINE
8
BLACK
6
CONTINUOUS
10
5.53
20
-2.97
11
5.53
21
-3.03
0
LINE
8
BLACK
6
CONTINUOUS
10
5.73
20
-3.03
11
5.67
21
-3.03
0
LINE
8
BLACK
6
CONTINUOUS
10
5.67
20
-3.03
11
5.67
21
-2.97
0
LINE
8
BLACK
6
CONTINUOUS
10
5.67
20
-2.97
11
5.73
21
-2.97
0
LINE
8
BLACK
6
CONTINUOUS
10
5.73
20
-2.97
11
5.73
21
-3.03
0
LINE
8
BLACK
6
CONTINUOUS
10
5.83
20
-3.03
11
5.77
21
-3.03
0
LINE
8
BLACK
6
CONTINUOUS
10
5.77
20
-3.03
11
5.77
21
-2.97
0
LINE
8
BLACK
6
CONTINUOUS
10
5.77
20
-2.97
11
5.83
21
-2.97
0
LINE
8
BLACK
6
CONTINUOUS
10
5.83
20
-2.97
11
5.83
21
-3.03
0
LINE
8
BLACK
6
CONTINUOUS
10
5.93
20
-3.03
11
5.87
21
-3.03
0
LINE
8
BLACK
6
CONTINUOUS
10
5.87
20
-3.03
11
5.87
21
-2.97
0
LINE
8
BLACK
6
CONTINUOUS
10
5.87
20
-2.97
11
5.93
21
-2.97
0
LINE
8
BLACK
6
CONTINUOUS
10
5.93
20
-2.97
11
5.93
21
-3.03
  0
ENDSEC
  0
EOF
