  0
SECTION
  2
HEADER
  9
$ANGBASE
  50
0.0
  9
$ANGDIR
  70
1
  9
$MEASUREMENT
  70
0
  0
ENDSEC
  0
SECTION
  2
TABLES
  0
TABLE
  2
LTYPE
  70
4
  0
LTYPE
  5
40F
  2
CONTINUOUS
  70
0
  3
Solid line
  72
65
  73
0
  40
0.0
  0
LTYPE
  5
410
  2
DASHDOT
 70
0
  3
Dash Dot ____ _ ____ _
 72
65
 73
4
 40
2.0
 49
1.25
 49
-0.25
 49
0.25
 49
-0.25
  0
LTYPE
  5
411
  2
DASHED
 70
0
  3
Dashed __ __ __ __ __
 72
65
 73
2
 40
0.75
 49
0.5
 49
-0.25
  0
LTYPE
  5
43B
  2
DOTTED
 70
0
  3
Dotted .  .  .  .
 72
65
 73
2
 40
0.2
 49
0.0
 49
-0.2
  0
ENDTAB
  0
TABLE
  2
STYLE
  70
4
  0
STYLE
  2
KICAD
  70
0
  40
0
  41
1
  42
1
  50
0
  71
0
  3
isocp.shx
  0
STYLE
  2
KICADB
  70
0
  40
0
  41
1
  42
1
  50
0
  71
0
  3
isocp.shx
  0
STYLE
  2
KICADI
  70
0
  40
0
  41
1
  42
1
  50
15
  71
0
  3
isocp.shx
  0
STYLE
  2
KICADBI
  70
0
  40
0
  41
1
  42
1
  50
15
  71
0
  3
isocp.shx
  0
ENDTAB
  0
TABLE
  2
LAYER
  70
1
  0
LAYER
  2
BLACK
  70
0
  62
7
  6
CONTINUOUS
  0
ENDTAB
  0
ENDSEC
  0
SECTION
  2
ENTITIES
0
LINE
8
BLACK
6
CONTINUOUS
10
5.66677
20
-3.35587
11
5.66747
21
-3.35615
0
LINE
8
BLACK
6
CONTINUOUS
10
5.66747
20
-3.35615
11
5.66776
21
-3.35685
0
LINE
8
BLACK
6
CONTINUOUS
10
5.66776
20
-3.35685
11
5.66776
21
-3.46315
0
LINE
8
BLACK
6
CONTINUOUS
10
5.66776
20
-3.46315
11
5.66747
21
-3.46385
0
LINE
8
BLACK
6
CONTINUOUS
10
5.66747
20
-3.46385
11
5.66677
21
-3.46413
0
LINE
8
BLACK
6
CONTINUOUS
10
5.66677
20
-3.46413
11
5.51323
21
-3.46413
0
LINE
8
BLACK
6
CONTINUOUS
10
5.51323
20
-3.46413
11
5.51253
21
-3.46385
0
LINE
8
BLACK
6
CONTINUOUS
10
5.51253
20
-3.46385
11
5.51224
21
-3.46315
0
LINE
8
BLACK
6
CONTINUOUS
10
5.51224
20
-3.46315
11
5.51224
21
-3.35685
0
LINE
8
BLACK
6
CONTINUOUS
10
5.51224
20
-3.35685
11
5.51253
21
-3.35615
0
LINE
8
BLACK
6
CONTINUOUS
10
5.51253
20
-3.35615
11
5.51323
21
-3.35587
0
LINE
8
BLACK
6
CONTINUOUS
10
5.51323
20
-3.35587
11
5.66677
21
-3.35587
0
LINE
8
BLACK
6
CONTINUOUS
10
5.51421
20
-3.35783
11
5.51421
21
-3.46217
0
LINE
8
BLACK
6
CONTINUOUS
10
5.51421
20
-3.46217
11
5.66579
21
-3.46217
0
LINE
8
BLACK
6
CONTINUOUS
10
5.66579
20
-3.46217
11
5.66579
21
-3.35783
0
LINE
8
BLACK
6
CONTINUOUS
10
5.66579
20
-3.35783
11
5.51421
21
-3.35783
0
LINE
8
BLACK
6
CONTINUOUS
10
5.63921
20
-3.25079
11
5.63991
21
-3.25108
0
LINE
8
BLACK
6
CONTINUOUS
10
5.63991
20
-3.25108
11
5.6402
21
-3.25177
0
LINE
8
BLACK
6
CONTINUOUS
10
5.6402
20
-3.25177
11
5.6402
21
-3.34823
0
LINE
8
BLACK
6
CONTINUOUS
10
5.6402
20
-3.34823
11
5.63991
21
-3.34892
0
LINE
8
BLACK
6
CONTINUOUS
10
5.63991
20
-3.34892
11
5.63921
21
-3.34921
0
LINE
8
BLACK
6
CONTINUOUS
10
5.63921
20
-3.34921
11
5.54079
21
-3.34921
0
LINE
8
BLACK
6
CONTINUOUS
10
5.54079
20
-3.34921
11
5.54009
21
-3.34892
0
LINE
8
BLACK
6
CONTINUOUS
10
5.54009
20
-3.34892
11
5.5398
21
-3.34823
0
LINE
8
BLACK
6
CONTINUOUS
10
5.5398
20
-3.34823
11
5.5398
21
-3.34823
0
LINE
8
BLACK
6
CONTINUOUS
10
5.5398
20
-3.34823
11
5.5398
21
-3.25177
0
LINE
8
BLACK
6
CONTINUOUS
10
5.5398
20
-3.25177
11
5.54009
21
-3.25108
0
LINE
8
BLACK
6
CONTINUOUS
10
5.54009
20
-3.25108
11
5.54079
21
-3.25079
0
LINE
8
BLACK
6
CONTINUOUS
10
5.54079
20
-3.25079
11
5.63921
21
-3.25079
0
LINE
8
BLACK
6
CONTINUOUS
10
5.54177
20
-3.25276
11
5.54177
21
-3.34724
0
LINE
8
BLACK
6
CONTINUOUS
10
5.54177
20
-3.34724
11
5.63823
21
-3.34724
0
LINE
8
BLACK
6
CONTINUOUS
10
5.63823
20
-3.34724
11
5.63823
21
-3.25276
0
LINE
8
BLACK
6
CONTINUOUS
10
5.63823
20
-3.25276
11
5.54177
21
-3.25276
  0
ENDSEC
  0
EOF
