  0
SECTION
  2
HEADER
  9
$ANGBASE
  50
0.0
  9
$ANGDIR
  70
1
  9
$MEASUREMENT
  70
0
  0
ENDSEC
  0
SECTION
  2
TABLES
  0
TABLE
  2
LTYPE
  70
4
  0
LTYPE
  5
40F
  2
CONTINUOUS
  70
0
  3
Solid line
  72
65
  73
0
  40
0.0
  0
LTYPE
  5
410
  2
DASHDOT
 70
0
  3
Dash Dot ____ _ ____ _
 72
65
 73
4
 40
2.0
 49
1.25
 49
-0.25
 49
0.25
 49
-0.25
  0
LTYPE
  5
411
  2
DASHED
 70
0
  3
Dashed __ __ __ __ __
 72
65
 73
2
 40
0.75
 49
0.5
 49
-0.25
  0
LTYPE
  5
43B
  2
DOTTED
 70
0
  3
Dotted .  .  .  .
 72
65
 73
2
 40
0.2
 49
0.0
 49
-0.2
  0
ENDTAB
  0
TABLE
  2
STYLE
  70
4
  0
STYLE
  2
KICAD
  70
0
  40
0
  41
1
  42
1
  50
0
  71
0
  3
isocp.shx
  0
STYLE
  2
KICADB
  70
0
  40
0
  41
1
  42
1
  50
0
  71
0
  3
isocp.shx
  0
STYLE
  2
KICADI
  70
0
  40
0
  41
1
  42
1
  50
15
  71
0
  3
isocp.shx
  0
STYLE
  2
KICADBI
  70
0
  40
0
  41
1
  42
1
  50
15
  71
0
  3
isocp.shx
  0
ENDTAB
  0
TABLE
  2
LAYER
  70
1
  0
LAYER
  2
BLACK
  70
0
  62
7
  6
CONTINUOUS
  0
ENDTAB
  0
ENDSEC
  0
SECTION
  2
ENTITIES
0
LINE
8
BLACK
6
CONTINUOUS
10
5.01406
20
-3.67519
11
5.02795
21
-3.67755
0
LINE
8
BLACK
6
CONTINUOUS
10
5.02795
20
-3.67755
11
5.04148
21
-3.68145
0
LINE
8
BLACK
6
CONTINUOUS
10
5.04148
20
-3.68145
11
5.0545
21
-3.68684
0
LINE
8
BLACK
6
CONTINUOUS
10
5.0545
20
-3.68684
11
5.06682
21
-3.69365
0
LINE
8
BLACK
6
CONTINUOUS
10
5.06682
20
-3.69365
11
5.07831
21
-3.7018
0
LINE
8
BLACK
6
CONTINUOUS
10
5.07831
20
-3.7018
11
5.08881
21
-3.71119
0
LINE
8
BLACK
6
CONTINUOUS
10
5.08881
20
-3.71119
11
5.0982
21
-3.72169
0
LINE
8
BLACK
6
CONTINUOUS
10
5.0982
20
-3.72169
11
5.10635
21
-3.73318
0
LINE
8
BLACK
6
CONTINUOUS
10
5.10635
20
-3.73318
11
5.11316
21
-3.7455
0
LINE
8
BLACK
6
CONTINUOUS
10
5.11316
20
-3.7455
11
5.11855
21
-3.75852
0
LINE
8
BLACK
6
CONTINUOUS
10
5.11855
20
-3.75852
11
5.12245
21
-3.77205
0
LINE
8
BLACK
6
CONTINUOUS
10
5.12245
20
-3.77205
11
5.12481
21
-3.78594
0
LINE
8
BLACK
6
CONTINUOUS
10
5.12481
20
-3.78594
11
5.1256
21
-3.8
0
LINE
8
BLACK
6
CONTINUOUS
10
5.1256
20
-3.8
11
5.12481
21
-3.81406
0
LINE
8
BLACK
6
CONTINUOUS
10
5.12481
20
-3.81406
11
5.12245
21
-3.82795
0
LINE
8
BLACK
6
CONTINUOUS
10
5.12245
20
-3.82795
11
5.11855
21
-3.84148
0
LINE
8
BLACK
6
CONTINUOUS
10
5.11855
20
-3.84148
11
5.11316
21
-3.8545
0
LINE
8
BLACK
6
CONTINUOUS
10
5.11316
20
-3.8545
11
5.10635
21
-3.86682
0
LINE
8
BLACK
6
CONTINUOUS
10
5.10635
20
-3.86682
11
5.0982
21
-3.87831
0
LINE
8
BLACK
6
CONTINUOUS
10
5.0982
20
-3.87831
11
5.08881
21
-3.88881
0
LINE
8
BLACK
6
CONTINUOUS
10
5.08881
20
-3.88881
11
5.07831
21
-3.8982
0
LINE
8
BLACK
6
CONTINUOUS
10
5.07831
20
-3.8982
11
5.06682
21
-3.90635
0
LINE
8
BLACK
6
CONTINUOUS
10
5.06682
20
-3.90635
11
5.0545
21
-3.91316
0
LINE
8
BLACK
6
CONTINUOUS
10
5.0545
20
-3.91316
11
5.04148
21
-3.91855
0
LINE
8
BLACK
6
CONTINUOUS
10
5.04148
20
-3.91855
11
5.02795
21
-3.92245
0
LINE
8
BLACK
6
CONTINUOUS
10
5.02795
20
-3.92245
11
5.01406
21
-3.92481
0
LINE
8
BLACK
6
CONTINUOUS
10
5.01406
20
-3.92481
11
5
21
-3.9256
0
LINE
8
BLACK
6
CONTINUOUS
10
5
20
-3.9256
11
4.98594
21
-3.92481
0
LINE
8
BLACK
6
CONTINUOUS
10
4.98594
20
-3.92481
11
4.97205
21
-3.92245
0
LINE
8
BLACK
6
CONTINUOUS
10
4.97205
20
-3.92245
11
4.95852
21
-3.91855
0
LINE
8
BLACK
6
CONTINUOUS
10
4.95852
20
-3.91855
11
4.9455
21
-3.91316
0
LINE
8
BLACK
6
CONTINUOUS
10
4.9455
20
-3.91316
11
4.93318
21
-3.90635
0
LINE
8
BLACK
6
CONTINUOUS
10
4.93318
20
-3.90635
11
4.92169
21
-3.8982
0
LINE
8
BLACK
6
CONTINUOUS
10
4.92169
20
-3.8982
11
4.91119
21
-3.88881
0
LINE
8
BLACK
6
CONTINUOUS
10
4.91119
20
-3.88881
11
4.9018
21
-3.87831
0
LINE
8
BLACK
6
CONTINUOUS
10
4.9018
20
-3.87831
11
4.89365
21
-3.86682
0
LINE
8
BLACK
6
CONTINUOUS
10
4.89365
20
-3.86682
11
4.88684
21
-3.8545
0
LINE
8
BLACK
6
CONTINUOUS
10
4.88684
20
-3.8545
11
4.88145
21
-3.84148
0
LINE
8
BLACK
6
CONTINUOUS
10
4.88145
20
-3.84148
11
4.87755
21
-3.82795
0
LINE
8
BLACK
6
CONTINUOUS
10
4.87755
20
-3.82795
11
4.87519
21
-3.81406
0
LINE
8
BLACK
6
CONTINUOUS
10
4.87519
20
-3.81406
11
4.8744
21
-3.8
0
LINE
8
BLACK
6
CONTINUOUS
10
4.8744
20
-3.8
11
4.87519
21
-3.78594
0
LINE
8
BLACK
6
CONTINUOUS
10
4.87519
20
-3.78594
11
4.87755
21
-3.77205
0
LINE
8
BLACK
6
CONTINUOUS
10
4.87755
20
-3.77205
11
4.88145
21
-3.75852
0
LINE
8
BLACK
6
CONTINUOUS
10
4.88145
20
-3.75852
11
4.88684
21
-3.7455
0
LINE
8
BLACK
6
CONTINUOUS
10
4.88684
20
-3.7455
11
4.89365
21
-3.73318
0
LINE
8
BLACK
6
CONTINUOUS
10
4.89365
20
-3.73318
11
4.9018
21
-3.72169
0
LINE
8
BLACK
6
CONTINUOUS
10
4.9018
20
-3.72169
11
4.91119
21
-3.71119
0
LINE
8
BLACK
6
CONTINUOUS
10
4.91119
20
-3.71119
11
4.92169
21
-3.7018
0
LINE
8
BLACK
6
CONTINUOUS
10
4.92169
20
-3.7018
11
4.93318
21
-3.69365
0
LINE
8
BLACK
6
CONTINUOUS
10
4.93318
20
-3.69365
11
4.9455
21
-3.68684
0
LINE
8
BLACK
6
CONTINUOUS
10
4.9455
20
-3.68684
11
4.95852
21
-3.68145
0
LINE
8
BLACK
6
CONTINUOUS
10
4.95852
20
-3.68145
11
4.97205
21
-3.67755
0
LINE
8
BLACK
6
CONTINUOUS
10
4.97205
20
-3.67755
11
4.98594
21
-3.67519
0
LINE
8
BLACK
6
CONTINUOUS
10
4.98594
20
-3.67519
11
5
21
-3.6744
0
LINE
8
BLACK
6
CONTINUOUS
10
5
20
-3.6744
11
5.01406
21
-3.67519
0
LINE
8
BLACK
6
CONTINUOUS
10
4.88996
20
-3.81286
11
4.8922
21
-3.82555
0
LINE
8
BLACK
6
CONTINUOUS
10
4.8922
20
-3.82555
11
4.89589
21
-3.83789
0
LINE
8
BLACK
6
CONTINUOUS
10
4.89589
20
-3.83789
11
4.901
21
-3.84972
0
LINE
8
BLACK
6
CONTINUOUS
10
4.901
20
-3.84972
11
4.90744
21
-3.86088
0
LINE
8
BLACK
6
CONTINUOUS
10
4.90744
20
-3.86088
11
4.91513
21
-3.87121
0
LINE
8
BLACK
6
CONTINUOUS
10
4.91513
20
-3.87121
11
4.92397
21
-3.88058
0
LINE
8
BLACK
6
CONTINUOUS
10
4.92397
20
-3.88058
11
4.93384
21
-3.88887
0
LINE
8
BLACK
6
CONTINUOUS
10
4.93384
20
-3.88887
11
4.94461
21
-3.89594
0
LINE
8
BLACK
6
CONTINUOUS
10
4.94461
20
-3.89594
11
4.95612
21
-3.90173
0
LINE
8
BLACK
6
CONTINUOUS
10
4.95612
20
-3.90173
11
4.96823
21
-3.90613
0
LINE
8
BLACK
6
CONTINUOUS
10
4.96823
20
-3.90613
11
4.98076
21
-3.9091
0
LINE
8
BLACK
6
CONTINUOUS
10
4.98076
20
-3.9091
11
4.99356
21
-3.9106
0
LINE
8
BLACK
6
CONTINUOUS
10
4.99356
20
-3.9106
11
5.00644
21
-3.9106
0
LINE
8
BLACK
6
CONTINUOUS
10
5.00644
20
-3.9106
11
5.01924
21
-3.9091
0
LINE
8
BLACK
6
CONTINUOUS
10
5.01924
20
-3.9091
11
5.03177
21
-3.90613
0
LINE
8
BLACK
6
CONTINUOUS
10
5.03177
20
-3.90613
11
5.04388
21
-3.90173
0
LINE
8
BLACK
6
CONTINUOUS
10
5.04388
20
-3.90173
11
5.05539
21
-3.89594
0
LINE
8
BLACK
6
CONTINUOUS
10
5.05539
20
-3.89594
11
5.06616
21
-3.88887
0
LINE
8
BLACK
6
CONTINUOUS
10
5.06616
20
-3.88887
11
5.07603
21
-3.88058
0
LINE
8
BLACK
6
CONTINUOUS
10
5.07603
20
-3.88058
11
5.08487
21
-3.87121
0
LINE
8
BLACK
6
CONTINUOUS
10
5.08487
20
-3.87121
11
5.09256
21
-3.86088
0
LINE
8
BLACK
6
CONTINUOUS
10
5.09256
20
-3.86088
11
5.099
21
-3.84972
0
LINE
8
BLACK
6
CONTINUOUS
10
5.099
20
-3.84972
11
5.10411
21
-3.83789
0
LINE
8
BLACK
6
CONTINUOUS
10
5.10411
20
-3.83789
11
5.1078
21
-3.82555
0
LINE
8
BLACK
6
CONTINUOUS
10
5.1078
20
-3.82555
11
5.11004
21
-3.81286
0
LINE
8
BLACK
6
CONTINUOUS
10
5.11004
20
-3.81286
11
5.11079
21
-3.8
0
LINE
8
BLACK
6
CONTINUOUS
10
5.11079
20
-3.8
11
5.11004
21
-3.78714
0
LINE
8
BLACK
6
CONTINUOUS
10
5.11004
20
-3.78714
11
5.1078
21
-3.77445
0
LINE
8
BLACK
6
CONTINUOUS
10
5.1078
20
-3.77445
11
5.10411
21
-3.76211
0
LINE
8
BLACK
6
CONTINUOUS
10
5.10411
20
-3.76211
11
5.099
21
-3.75028
0
LINE
8
BLACK
6
CONTINUOUS
10
5.099
20
-3.75028
11
5.09256
21
-3.73912
0
LINE
8
BLACK
6
CONTINUOUS
10
5.09256
20
-3.73912
11
5.08487
21
-3.72879
0
LINE
8
BLACK
6
CONTINUOUS
10
5.08487
20
-3.72879
11
5.07603
21
-3.71942
0
LINE
8
BLACK
6
CONTINUOUS
10
5.07603
20
-3.71942
11
5.06616
21
-3.71113
0
LINE
8
BLACK
6
CONTINUOUS
10
5.06616
20
-3.71113
11
5.05539
21
-3.70406
0
LINE
8
BLACK
6
CONTINUOUS
10
5.05539
20
-3.70406
11
5.04388
21
-3.69827
0
LINE
8
BLACK
6
CONTINUOUS
10
5.04388
20
-3.69827
11
5.03177
21
-3.69387
0
LINE
8
BLACK
6
CONTINUOUS
10
5.03177
20
-3.69387
11
5.01924
21
-3.6909
0
LINE
8
BLACK
6
CONTINUOUS
10
5.01924
20
-3.6909
11
5.00644
21
-3.6894
0
LINE
8
BLACK
6
CONTINUOUS
10
5.00644
20
-3.6894
11
4.99356
21
-3.6894
0
LINE
8
BLACK
6
CONTINUOUS
10
4.99356
20
-3.6894
11
4.98076
21
-3.6909
0
LINE
8
BLACK
6
CONTINUOUS
10
4.98076
20
-3.6909
11
4.96823
21
-3.69387
0
LINE
8
BLACK
6
CONTINUOUS
10
4.96823
20
-3.69387
11
4.95612
21
-3.69827
0
LINE
8
BLACK
6
CONTINUOUS
10
4.95612
20
-3.69827
11
4.94461
21
-3.70406
0
LINE
8
BLACK
6
CONTINUOUS
10
4.94461
20
-3.70406
11
4.93384
21
-3.71113
0
LINE
8
BLACK
6
CONTINUOUS
10
4.93384
20
-3.71113
11
4.92397
21
-3.71942
0
LINE
8
BLACK
6
CONTINUOUS
10
4.92397
20
-3.71942
11
4.91513
21
-3.72879
0
LINE
8
BLACK
6
CONTINUOUS
10
4.91513
20
-3.72879
11
4.90744
21
-3.73912
0
LINE
8
BLACK
6
CONTINUOUS
10
4.90744
20
-3.73912
11
4.901
21
-3.75028
0
LINE
8
BLACK
6
CONTINUOUS
10
4.901
20
-3.75028
11
4.89589
21
-3.76211
0
LINE
8
BLACK
6
CONTINUOUS
10
4.89589
20
-3.76211
11
4.8922
21
-3.77445
0
LINE
8
BLACK
6
CONTINUOUS
10
4.8922
20
-3.77445
11
4.88996
21
-3.78714
0
LINE
8
BLACK
6
CONTINUOUS
10
4.88996
20
-3.78714
11
4.88921
21
-3.8
0
LINE
8
BLACK
6
CONTINUOUS
10
4.88921
20
-3.8
11
4.88996
21
-3.81286
0
LINE
8
BLACK
6
CONTINUOUS
10
6.21406
20
-3.67519
11
6.22795
21
-3.67755
0
LINE
8
BLACK
6
CONTINUOUS
10
6.22795
20
-3.67755
11
6.24148
21
-3.68145
0
LINE
8
BLACK
6
CONTINUOUS
10
6.24148
20
-3.68145
11
6.2545
21
-3.68684
0
LINE
8
BLACK
6
CONTINUOUS
10
6.2545
20
-3.68684
11
6.26682
21
-3.69365
0
LINE
8
BLACK
6
CONTINUOUS
10
6.26682
20
-3.69365
11
6.27831
21
-3.7018
0
LINE
8
BLACK
6
CONTINUOUS
10
6.27831
20
-3.7018
11
6.28881
21
-3.71119
0
LINE
8
BLACK
6
CONTINUOUS
10
6.28881
20
-3.71119
11
6.2982
21
-3.72169
0
LINE
8
BLACK
6
CONTINUOUS
10
6.2982
20
-3.72169
11
6.30635
21
-3.73318
0
LINE
8
BLACK
6
CONTINUOUS
10
6.30635
20
-3.73318
11
6.31316
21
-3.7455
0
LINE
8
BLACK
6
CONTINUOUS
10
6.31316
20
-3.7455
11
6.31855
21
-3.75852
0
LINE
8
BLACK
6
CONTINUOUS
10
6.31855
20
-3.75852
11
6.32245
21
-3.77205
0
LINE
8
BLACK
6
CONTINUOUS
10
6.32245
20
-3.77205
11
6.32481
21
-3.78594
0
LINE
8
BLACK
6
CONTINUOUS
10
6.32481
20
-3.78594
11
6.3256
21
-3.8
0
LINE
8
BLACK
6
CONTINUOUS
10
6.3256
20
-3.8
11
6.32481
21
-3.81406
0
LINE
8
BLACK
6
CONTINUOUS
10
6.32481
20
-3.81406
11
6.32245
21
-3.82795
0
LINE
8
BLACK
6
CONTINUOUS
10
6.32245
20
-3.82795
11
6.31855
21
-3.84148
0
LINE
8
BLACK
6
CONTINUOUS
10
6.31855
20
-3.84148
11
6.31316
21
-3.8545
0
LINE
8
BLACK
6
CONTINUOUS
10
6.31316
20
-3.8545
11
6.30635
21
-3.86682
0
LINE
8
BLACK
6
CONTINUOUS
10
6.30635
20
-3.86682
11
6.2982
21
-3.87831
0
LINE
8
BLACK
6
CONTINUOUS
10
6.2982
20
-3.87831
11
6.28881
21
-3.88881
0
LINE
8
BLACK
6
CONTINUOUS
10
6.28881
20
-3.88881
11
6.27831
21
-3.8982
0
LINE
8
BLACK
6
CONTINUOUS
10
6.27831
20
-3.8982
11
6.26682
21
-3.90635
0
LINE
8
BLACK
6
CONTINUOUS
10
6.26682
20
-3.90635
11
6.2545
21
-3.91316
0
LINE
8
BLACK
6
CONTINUOUS
10
6.2545
20
-3.91316
11
6.24148
21
-3.91855
0
LINE
8
BLACK
6
CONTINUOUS
10
6.24148
20
-3.91855
11
6.22795
21
-3.92245
0
LINE
8
BLACK
6
CONTINUOUS
10
6.22795
20
-3.92245
11
6.21406
21
-3.92481
0
LINE
8
BLACK
6
CONTINUOUS
10
6.21406
20
-3.92481
11
6.2
21
-3.9256
0
LINE
8
BLACK
6
CONTINUOUS
10
6.2
20
-3.9256
11
6.18594
21
-3.92481
0
LINE
8
BLACK
6
CONTINUOUS
10
6.18594
20
-3.92481
11
6.17205
21
-3.92245
0
LINE
8
BLACK
6
CONTINUOUS
10
6.17205
20
-3.92245
11
6.15852
21
-3.91855
0
LINE
8
BLACK
6
CONTINUOUS
10
6.15852
20
-3.91855
11
6.1455
21
-3.91316
0
LINE
8
BLACK
6
CONTINUOUS
10
6.1455
20
-3.91316
11
6.13318
21
-3.90635
0
LINE
8
BLACK
6
CONTINUOUS
10
6.13318
20
-3.90635
11
6.12169
21
-3.8982
0
LINE
8
BLACK
6
CONTINUOUS
10
6.12169
20
-3.8982
11
6.11119
21
-3.88881
0
LINE
8
BLACK
6
CONTINUOUS
10
6.11119
20
-3.88881
11
6.1018
21
-3.87831
0
LINE
8
BLACK
6
CONTINUOUS
10
6.1018
20
-3.87831
11
6.09365
21
-3.86682
0
LINE
8
BLACK
6
CONTINUOUS
10
6.09365
20
-3.86682
11
6.08684
21
-3.8545
0
LINE
8
BLACK
6
CONTINUOUS
10
6.08684
20
-3.8545
11
6.08145
21
-3.84148
0
LINE
8
BLACK
6
CONTINUOUS
10
6.08145
20
-3.84148
11
6.07755
21
-3.82795
0
LINE
8
BLACK
6
CONTINUOUS
10
6.07755
20
-3.82795
11
6.07519
21
-3.81406
0
LINE
8
BLACK
6
CONTINUOUS
10
6.07519
20
-3.81406
11
6.0744
21
-3.8
0
LINE
8
BLACK
6
CONTINUOUS
10
6.0744
20
-3.8
11
6.07519
21
-3.78594
0
LINE
8
BLACK
6
CONTINUOUS
10
6.07519
20
-3.78594
11
6.07755
21
-3.77205
0
LINE
8
BLACK
6
CONTINUOUS
10
6.07755
20
-3.77205
11
6.08145
21
-3.75852
0
LINE
8
BLACK
6
CONTINUOUS
10
6.08145
20
-3.75852
11
6.08684
21
-3.7455
0
LINE
8
BLACK
6
CONTINUOUS
10
6.08684
20
-3.7455
11
6.09365
21
-3.73318
0
LINE
8
BLACK
6
CONTINUOUS
10
6.09365
20
-3.73318
11
6.1018
21
-3.72169
0
LINE
8
BLACK
6
CONTINUOUS
10
6.1018
20
-3.72169
11
6.11119
21
-3.71119
0
LINE
8
BLACK
6
CONTINUOUS
10
6.11119
20
-3.71119
11
6.12169
21
-3.7018
0
LINE
8
BLACK
6
CONTINUOUS
10
6.12169
20
-3.7018
11
6.13318
21
-3.69365
0
LINE
8
BLACK
6
CONTINUOUS
10
6.13318
20
-3.69365
11
6.1455
21
-3.68684
0
LINE
8
BLACK
6
CONTINUOUS
10
6.1455
20
-3.68684
11
6.15852
21
-3.68145
0
LINE
8
BLACK
6
CONTINUOUS
10
6.15852
20
-3.68145
11
6.17205
21
-3.67755
0
LINE
8
BLACK
6
CONTINUOUS
10
6.17205
20
-3.67755
11
6.18594
21
-3.67519
0
LINE
8
BLACK
6
CONTINUOUS
10
6.18594
20
-3.67519
11
6.2
21
-3.6744
0
LINE
8
BLACK
6
CONTINUOUS
10
6.2
20
-3.6744
11
6.21406
21
-3.67519
0
LINE
8
BLACK
6
CONTINUOUS
10
6.08996
20
-3.81286
11
6.0922
21
-3.82555
0
LINE
8
BLACK
6
CONTINUOUS
10
6.0922
20
-3.82555
11
6.09589
21
-3.83789
0
LINE
8
BLACK
6
CONTINUOUS
10
6.09589
20
-3.83789
11
6.101
21
-3.84972
0
LINE
8
BLACK
6
CONTINUOUS
10
6.101
20
-3.84972
11
6.10744
21
-3.86088
0
LINE
8
BLACK
6
CONTINUOUS
10
6.10744
20
-3.86088
11
6.11513
21
-3.87121
0
LINE
8
BLACK
6
CONTINUOUS
10
6.11513
20
-3.87121
11
6.12397
21
-3.88058
0
LINE
8
BLACK
6
CONTINUOUS
10
6.12397
20
-3.88058
11
6.13384
21
-3.88887
0
LINE
8
BLACK
6
CONTINUOUS
10
6.13384
20
-3.88887
11
6.14461
21
-3.89594
0
LINE
8
BLACK
6
CONTINUOUS
10
6.14461
20
-3.89594
11
6.15612
21
-3.90173
0
LINE
8
BLACK
6
CONTINUOUS
10
6.15612
20
-3.90173
11
6.16823
21
-3.90613
0
LINE
8
BLACK
6
CONTINUOUS
10
6.16823
20
-3.90613
11
6.18076
21
-3.9091
0
LINE
8
BLACK
6
CONTINUOUS
10
6.18076
20
-3.9091
11
6.19356
21
-3.9106
0
LINE
8
BLACK
6
CONTINUOUS
10
6.19356
20
-3.9106
11
6.20644
21
-3.9106
0
LINE
8
BLACK
6
CONTINUOUS
10
6.20644
20
-3.9106
11
6.21924
21
-3.9091
0
LINE
8
BLACK
6
CONTINUOUS
10
6.21924
20
-3.9091
11
6.23177
21
-3.90613
0
LINE
8
BLACK
6
CONTINUOUS
10
6.23177
20
-3.90613
11
6.24388
21
-3.90173
0
LINE
8
BLACK
6
CONTINUOUS
10
6.24388
20
-3.90173
11
6.25539
21
-3.89594
0
LINE
8
BLACK
6
CONTINUOUS
10
6.25539
20
-3.89594
11
6.26616
21
-3.88887
0
LINE
8
BLACK
6
CONTINUOUS
10
6.26616
20
-3.88887
11
6.27603
21
-3.88058
0
LINE
8
BLACK
6
CONTINUOUS
10
6.27603
20
-3.88058
11
6.28487
21
-3.87121
0
LINE
8
BLACK
6
CONTINUOUS
10
6.28487
20
-3.87121
11
6.29256
21
-3.86088
0
LINE
8
BLACK
6
CONTINUOUS
10
6.29256
20
-3.86088
11
6.299
21
-3.84972
0
LINE
8
BLACK
6
CONTINUOUS
10
6.299
20
-3.84972
11
6.30411
21
-3.83789
0
LINE
8
BLACK
6
CONTINUOUS
10
6.30411
20
-3.83789
11
6.3078
21
-3.82555
0
LINE
8
BLACK
6
CONTINUOUS
10
6.3078
20
-3.82555
11
6.31004
21
-3.81286
0
LINE
8
BLACK
6
CONTINUOUS
10
6.31004
20
-3.81286
11
6.31079
21
-3.8
0
LINE
8
BLACK
6
CONTINUOUS
10
6.31079
20
-3.8
11
6.31004
21
-3.78714
0
LINE
8
BLACK
6
CONTINUOUS
10
6.31004
20
-3.78714
11
6.3078
21
-3.77445
0
LINE
8
BLACK
6
CONTINUOUS
10
6.3078
20
-3.77445
11
6.30411
21
-3.76211
0
LINE
8
BLACK
6
CONTINUOUS
10
6.30411
20
-3.76211
11
6.299
21
-3.75028
0
LINE
8
BLACK
6
CONTINUOUS
10
6.299
20
-3.75028
11
6.29256
21
-3.73912
0
LINE
8
BLACK
6
CONTINUOUS
10
6.29256
20
-3.73912
11
6.28487
21
-3.72879
0
LINE
8
BLACK
6
CONTINUOUS
10
6.28487
20
-3.72879
11
6.27603
21
-3.71942
0
LINE
8
BLACK
6
CONTINUOUS
10
6.27603
20
-3.71942
11
6.26616
21
-3.71113
0
LINE
8
BLACK
6
CONTINUOUS
10
6.26616
20
-3.71113
11
6.25539
21
-3.70406
0
LINE
8
BLACK
6
CONTINUOUS
10
6.25539
20
-3.70406
11
6.24388
21
-3.69827
0
LINE
8
BLACK
6
CONTINUOUS
10
6.24388
20
-3.69827
11
6.23177
21
-3.69387
0
LINE
8
BLACK
6
CONTINUOUS
10
6.23177
20
-3.69387
11
6.21924
21
-3.6909
0
LINE
8
BLACK
6
CONTINUOUS
10
6.21924
20
-3.6909
11
6.20644
21
-3.6894
0
LINE
8
BLACK
6
CONTINUOUS
10
6.20644
20
-3.6894
11
6.19356
21
-3.6894
0
LINE
8
BLACK
6
CONTINUOUS
10
6.19356
20
-3.6894
11
6.18076
21
-3.6909
0
LINE
8
BLACK
6
CONTINUOUS
10
6.18076
20
-3.6909
11
6.16823
21
-3.69387
0
LINE
8
BLACK
6
CONTINUOUS
10
6.16823
20
-3.69387
11
6.15612
21
-3.69827
0
LINE
8
BLACK
6
CONTINUOUS
10
6.15612
20
-3.69827
11
6.14461
21
-3.70406
0
LINE
8
BLACK
6
CONTINUOUS
10
6.14461
20
-3.70406
11
6.13384
21
-3.71113
0
LINE
8
BLACK
6
CONTINUOUS
10
6.13384
20
-3.71113
11
6.12397
21
-3.71942
0
LINE
8
BLACK
6
CONTINUOUS
10
6.12397
20
-3.71942
11
6.11513
21
-3.72879
0
LINE
8
BLACK
6
CONTINUOUS
10
6.11513
20
-3.72879
11
6.10744
21
-3.73912
0
LINE
8
BLACK
6
CONTINUOUS
10
6.10744
20
-3.73912
11
6.101
21
-3.75028
0
LINE
8
BLACK
6
CONTINUOUS
10
6.101
20
-3.75028
11
6.09589
21
-3.76211
0
LINE
8
BLACK
6
CONTINUOUS
10
6.09589
20
-3.76211
11
6.0922
21
-3.77445
0
LINE
8
BLACK
6
CONTINUOUS
10
6.0922
20
-3.77445
11
6.08996
21
-3.78714
0
LINE
8
BLACK
6
CONTINUOUS
10
6.08996
20
-3.78714
11
6.08921
21
-3.8
0
LINE
8
BLACK
6
CONTINUOUS
10
6.08921
20
-3.8
11
6.08996
21
-3.81286
0
LINE
8
BLACK
6
CONTINUOUS
10
5.95038
20
-3.69711
11
5.95051
21
-3.69709
0
LINE
8
BLACK
6
CONTINUOUS
10
5.95051
20
-3.69709
11
5.95063
21
-3.69716
0
LINE
8
BLACK
6
CONTINUOUS
10
5.95063
20
-3.69716
11
5.95101
21
-3.69723
0
LINE
8
BLACK
6
CONTINUOUS
10
5.95101
20
-3.69723
11
5.9516
21
-3.69772
0
LINE
8
BLACK
6
CONTINUOUS
10
5.9516
20
-3.69772
11
5.95226
21
-3.6981
0
LINE
8
BLACK
6
CONTINUOUS
10
5.95226
20
-3.6981
11
5.95235
21
-3.69835
0
LINE
8
BLACK
6
CONTINUOUS
10
5.95235
20
-3.69835
11
5.95256
21
-3.69852
0
LINE
8
BLACK
6
CONTINUOUS
10
5.95256
20
-3.69852
11
5.95269
21
-3.69928
0
LINE
8
BLACK
6
CONTINUOUS
10
5.95269
20
-3.69928
11
5.95295
21
-3.7
0
LINE
8
BLACK
6
CONTINUOUS
10
5.95295
20
-3.7
11
5.95295
21
-3.9
0
LINE
8
BLACK
6
CONTINUOUS
10
5.95295
20
-3.9
11
5.95289
21
-3.90038
0
LINE
8
BLACK
6
CONTINUOUS
10
5.95289
20
-3.90038
11
5.95291
21
-3.90051
0
LINE
8
BLACK
6
CONTINUOUS
10
5.95291
20
-3.90051
11
5.95284
21
-3.90063
0
LINE
8
BLACK
6
CONTINUOUS
10
5.95284
20
-3.90063
11
5.95277
21
-3.90101
0
LINE
8
BLACK
6
CONTINUOUS
10
5.95277
20
-3.90101
11
5.95228
21
-3.9016
0
LINE
8
BLACK
6
CONTINUOUS
10
5.95228
20
-3.9016
11
5.9519
21
-3.90226
0
LINE
8
BLACK
6
CONTINUOUS
10
5.9519
20
-3.90226
11
5.95165
21
-3.90235
0
LINE
8
BLACK
6
CONTINUOUS
10
5.95165
20
-3.90235
11
5.95148
21
-3.90256
0
LINE
8
BLACK
6
CONTINUOUS
10
5.95148
20
-3.90256
11
5.95072
21
-3.90269
0
LINE
8
BLACK
6
CONTINUOUS
10
5.95072
20
-3.90269
11
5.95
21
-3.90295
0
LINE
8
BLACK
6
CONTINUOUS
10
5.95
20
-3.90295
11
5.65
21
-3.90295
0
LINE
8
BLACK
6
CONTINUOUS
10
5.65
20
-3.90295
11
5.64962
21
-3.90289
0
LINE
8
BLACK
6
CONTINUOUS
10
5.64962
20
-3.90289
11
5.64949
21
-3.90291
0
LINE
8
BLACK
6
CONTINUOUS
10
5.64949
20
-3.90291
11
5.64937
21
-3.90284
0
LINE
8
BLACK
6
CONTINUOUS
10
5.64937
20
-3.90284
11
5.64899
21
-3.90277
0
LINE
8
BLACK
6
CONTINUOUS
10
5.64899
20
-3.90277
11
5.6484
21
-3.90228
0
LINE
8
BLACK
6
CONTINUOUS
10
5.6484
20
-3.90228
11
5.64774
21
-3.9019
0
LINE
8
BLACK
6
CONTINUOUS
10
5.64774
20
-3.9019
11
5.64765
21
-3.90165
0
LINE
8
BLACK
6
CONTINUOUS
10
5.64765
20
-3.90165
11
5.64744
21
-3.90148
0
LINE
8
BLACK
6
CONTINUOUS
10
5.64744
20
-3.90148
11
5.64731
21
-3.90072
0
LINE
8
BLACK
6
CONTINUOUS
10
5.64731
20
-3.90072
11
5.64705
21
-3.9
0
LINE
8
BLACK
6
CONTINUOUS
10
5.64705
20
-3.9
11
5.64705
21
-3.7
0
LINE
8
BLACK
6
CONTINUOUS
10
5.64705
20
-3.7
11
5.64711
21
-3.69962
0
LINE
8
BLACK
6
CONTINUOUS
10
5.64711
20
-3.69962
11
5.64709
21
-3.69949
0
LINE
8
BLACK
6
CONTINUOUS
10
5.64709
20
-3.69949
11
5.64716
21
-3.69937
0
LINE
8
BLACK
6
CONTINUOUS
10
5.64716
20
-3.69937
11
5.64723
21
-3.69899
0
LINE
8
BLACK
6
CONTINUOUS
10
5.64723
20
-3.69899
11
5.64772
21
-3.6984
0
LINE
8
BLACK
6
CONTINUOUS
10
5.64772
20
-3.6984
11
5.6481
21
-3.69774
0
LINE
8
BLACK
6
CONTINUOUS
10
5.6481
20
-3.69774
11
5.64835
21
-3.69765
0
LINE
8
BLACK
6
CONTINUOUS
10
5.64835
20
-3.69765
11
5.64852
21
-3.69744
0
LINE
8
BLACK
6
CONTINUOUS
10
5.64852
20
-3.69744
11
5.64928
21
-3.69731
0
LINE
8
BLACK
6
CONTINUOUS
10
5.64928
20
-3.69731
11
5.65
21
-3.69705
0
LINE
8
BLACK
6
CONTINUOUS
10
5.65
20
-3.69705
11
5.95
21
-3.69705
0
LINE
8
BLACK
6
CONTINUOUS
10
5.95
20
-3.69705
11
5.95038
21
-3.69711
0
LINE
8
BLACK
6
CONTINUOUS
10
5.65295
20
-3.70295
11
5.65295
21
-3.89705
0
LINE
8
BLACK
6
CONTINUOUS
10
5.65295
20
-3.89705
11
5.94705
21
-3.89705
0
LINE
8
BLACK
6
CONTINUOUS
10
5.94705
20
-3.89705
11
5.94705
21
-3.70295
0
LINE
8
BLACK
6
CONTINUOUS
10
5.94705
20
-3.70295
11
5.65295
21
-3.70295
0
LINE
8
BLACK
6
CONTINUOUS
10
5.55038
20
-3.74711
11
5.55051
21
-3.74709
0
LINE
8
BLACK
6
CONTINUOUS
10
5.55051
20
-3.74709
11
5.55063
21
-3.74716
0
LINE
8
BLACK
6
CONTINUOUS
10
5.55063
20
-3.74716
11
5.55101
21
-3.74723
0
LINE
8
BLACK
6
CONTINUOUS
10
5.55101
20
-3.74723
11
5.5516
21
-3.74772
0
LINE
8
BLACK
6
CONTINUOUS
10
5.5516
20
-3.74772
11
5.55226
21
-3.7481
0
LINE
8
BLACK
6
CONTINUOUS
10
5.55226
20
-3.7481
11
5.55235
21
-3.74835
0
LINE
8
BLACK
6
CONTINUOUS
10
5.55235
20
-3.74835
11
5.55256
21
-3.74852
0
LINE
8
BLACK
6
CONTINUOUS
10
5.55256
20
-3.74852
11
5.55269
21
-3.74928
0
LINE
8
BLACK
6
CONTINUOUS
10
5.55269
20
-3.74928
11
5.55295
21
-3.75
0
LINE
8
BLACK
6
CONTINUOUS
10
5.55295
20
-3.75
11
5.55295
21
-3.85
0
LINE
8
BLACK
6
CONTINUOUS
10
5.55295
20
-3.85
11
5.55289
21
-3.85038
0
LINE
8
BLACK
6
CONTINUOUS
10
5.55289
20
-3.85038
11
5.55291
21
-3.85051
0
LINE
8
BLACK
6
CONTINUOUS
10
5.55291
20
-3.85051
11
5.55284
21
-3.85063
0
LINE
8
BLACK
6
CONTINUOUS
10
5.55284
20
-3.85063
11
5.55277
21
-3.85101
0
LINE
8
BLACK
6
CONTINUOUS
10
5.55277
20
-3.85101
11
5.55228
21
-3.8516
0
LINE
8
BLACK
6
CONTINUOUS
10
5.55228
20
-3.8516
11
5.5519
21
-3.85226
0
LINE
8
BLACK
6
CONTINUOUS
10
5.5519
20
-3.85226
11
5.55165
21
-3.85235
0
LINE
8
BLACK
6
CONTINUOUS
10
5.55165
20
-3.85235
11
5.55148
21
-3.85256
0
LINE
8
BLACK
6
CONTINUOUS
10
5.55148
20
-3.85256
11
5.55072
21
-3.85269
0
LINE
8
BLACK
6
CONTINUOUS
10
5.55072
20
-3.85269
11
5.55
21
-3.85295
0
LINE
8
BLACK
6
CONTINUOUS
10
5.55
20
-3.85295
11
5.25
21
-3.85295
0
LINE
8
BLACK
6
CONTINUOUS
10
5.25
20
-3.85295
11
5.24962
21
-3.85289
0
LINE
8
BLACK
6
CONTINUOUS
10
5.24962
20
-3.85289
11
5.24949
21
-3.85291
0
LINE
8
BLACK
6
CONTINUOUS
10
5.24949
20
-3.85291
11
5.24937
21
-3.85284
0
LINE
8
BLACK
6
CONTINUOUS
10
5.24937
20
-3.85284
11
5.24899
21
-3.85277
0
LINE
8
BLACK
6
CONTINUOUS
10
5.24899
20
-3.85277
11
5.2484
21
-3.85228
0
LINE
8
BLACK
6
CONTINUOUS
10
5.2484
20
-3.85228
11
5.24774
21
-3.8519
0
LINE
8
BLACK
6
CONTINUOUS
10
5.24774
20
-3.8519
11
5.24765
21
-3.85165
0
LINE
8
BLACK
6
CONTINUOUS
10
5.24765
20
-3.85165
11
5.24744
21
-3.85148
0
LINE
8
BLACK
6
CONTINUOUS
10
5.24744
20
-3.85148
11
5.24731
21
-3.85072
0
LINE
8
BLACK
6
CONTINUOUS
10
5.24731
20
-3.85072
11
5.24705
21
-3.85
0
LINE
8
BLACK
6
CONTINUOUS
10
5.24705
20
-3.85
11
5.24705
21
-3.75
0
LINE
8
BLACK
6
CONTINUOUS
10
5.24705
20
-3.75
11
5.24711
21
-3.74962
0
LINE
8
BLACK
6
CONTINUOUS
10
5.24711
20
-3.74962
11
5.24709
21
-3.74949
0
LINE
8
BLACK
6
CONTINUOUS
10
5.24709
20
-3.74949
11
5.24716
21
-3.74937
0
LINE
8
BLACK
6
CONTINUOUS
10
5.24716
20
-3.74937
11
5.24723
21
-3.74899
0
LINE
8
BLACK
6
CONTINUOUS
10
5.24723
20
-3.74899
11
5.24772
21
-3.7484
0
LINE
8
BLACK
6
CONTINUOUS
10
5.24772
20
-3.7484
11
5.2481
21
-3.74774
0
LINE
8
BLACK
6
CONTINUOUS
10
5.2481
20
-3.74774
11
5.24835
21
-3.74765
0
LINE
8
BLACK
6
CONTINUOUS
10
5.24835
20
-3.74765
11
5.24852
21
-3.74744
0
LINE
8
BLACK
6
CONTINUOUS
10
5.24852
20
-3.74744
11
5.24928
21
-3.74731
0
LINE
8
BLACK
6
CONTINUOUS
10
5.24928
20
-3.74731
11
5.25
21
-3.74705
0
LINE
8
BLACK
6
CONTINUOUS
10
5.25
20
-3.74705
11
5.55
21
-3.74705
0
LINE
8
BLACK
6
CONTINUOUS
10
5.55
20
-3.74705
11
5.55038
21
-3.74711
0
LINE
8
BLACK
6
CONTINUOUS
10
5.25295
20
-3.75295
11
5.25295
21
-3.84705
0
LINE
8
BLACK
6
CONTINUOUS
10
5.25295
20
-3.84705
11
5.54705
21
-3.84705
0
LINE
8
BLACK
6
CONTINUOUS
10
5.54705
20
-3.84705
11
5.54705
21
-3.75295
0
LINE
8
BLACK
6
CONTINUOUS
10
5.54705
20
-3.75295
11
5.25295
21
-3.75295
0
LINE
8
BLACK
6
CONTINUOUS
10
5.10038
20
-3.24711
11
5.10051
21
-3.24709
0
LINE
8
BLACK
6
CONTINUOUS
10
5.10051
20
-3.24709
11
5.10063
21
-3.24716
0
LINE
8
BLACK
6
CONTINUOUS
10
5.10063
20
-3.24716
11
5.10101
21
-3.24723
0
LINE
8
BLACK
6
CONTINUOUS
10
5.10101
20
-3.24723
11
5.1016
21
-3.24772
0
LINE
8
BLACK
6
CONTINUOUS
10
5.1016
20
-3.24772
11
5.10226
21
-3.2481
0
LINE
8
BLACK
6
CONTINUOUS
10
5.10226
20
-3.2481
11
5.10235
21
-3.24835
0
LINE
8
BLACK
6
CONTINUOUS
10
5.10235
20
-3.24835
11
5.10256
21
-3.24852
0
LINE
8
BLACK
6
CONTINUOUS
10
5.10256
20
-3.24852
11
5.10269
21
-3.24928
0
LINE
8
BLACK
6
CONTINUOUS
10
5.10269
20
-3.24928
11
5.10295
21
-3.25
0
LINE
8
BLACK
6
CONTINUOUS
10
5.10295
20
-3.25
11
5.10295
21
-3.55
0
LINE
8
BLACK
6
CONTINUOUS
10
5.10295
20
-3.55
11
5.10289
21
-3.55038
0
LINE
8
BLACK
6
CONTINUOUS
10
5.10289
20
-3.55038
11
5.10291
21
-3.55051
0
LINE
8
BLACK
6
CONTINUOUS
10
5.10291
20
-3.55051
11
5.10284
21
-3.55063
0
LINE
8
BLACK
6
CONTINUOUS
10
5.10284
20
-3.55063
11
5.10277
21
-3.55101
0
LINE
8
BLACK
6
CONTINUOUS
10
5.10277
20
-3.55101
11
5.10228
21
-3.5516
0
LINE
8
BLACK
6
CONTINUOUS
10
5.10228
20
-3.5516
11
5.1019
21
-3.55226
0
LINE
8
BLACK
6
CONTINUOUS
10
5.1019
20
-3.55226
11
5.10165
21
-3.55235
0
LINE
8
BLACK
6
CONTINUOUS
10
5.10165
20
-3.55235
11
5.10148
21
-3.55256
0
LINE
8
BLACK
6
CONTINUOUS
10
5.10148
20
-3.55256
11
5.10072
21
-3.55269
0
LINE
8
BLACK
6
CONTINUOUS
10
5.10072
20
-3.55269
11
5.1
21
-3.55295
0
LINE
8
BLACK
6
CONTINUOUS
10
5.1
20
-3.55295
11
4.9
21
-3.55295
0
LINE
8
BLACK
6
CONTINUOUS
10
4.9
20
-3.55295
11
4.89962
21
-3.55289
0
LINE
8
BLACK
6
CONTINUOUS
10
4.89962
20
-3.55289
11
4.89949
21
-3.55291
0
LINE
8
BLACK
6
CONTINUOUS
10
4.89949
20
-3.55291
11
4.89937
21
-3.55284
0
LINE
8
BLACK
6
CONTINUOUS
10
4.89937
20
-3.55284
11
4.89899
21
-3.55277
0
LINE
8
BLACK
6
CONTINUOUS
10
4.89899
20
-3.55277
11
4.8984
21
-3.55228
0
LINE
8
BLACK
6
CONTINUOUS
10
4.8984
20
-3.55228
11
4.89774
21
-3.5519
0
LINE
8
BLACK
6
CONTINUOUS
10
4.89774
20
-3.5519
11
4.89765
21
-3.55165
0
LINE
8
BLACK
6
CONTINUOUS
10
4.89765
20
-3.55165
11
4.89744
21
-3.55148
0
LINE
8
BLACK
6
CONTINUOUS
10
4.89744
20
-3.55148
11
4.89731
21
-3.55072
0
LINE
8
BLACK
6
CONTINUOUS
10
4.89731
20
-3.55072
11
4.89705
21
-3.55
0
LINE
8
BLACK
6
CONTINUOUS
10
4.89705
20
-3.55
11
4.89705
21
-3.25
0
LINE
8
BLACK
6
CONTINUOUS
10
4.89705
20
-3.25
11
4.89711
21
-3.24962
0
LINE
8
BLACK
6
CONTINUOUS
10
4.89711
20
-3.24962
11
4.89709
21
-3.24949
0
LINE
8
BLACK
6
CONTINUOUS
10
4.89709
20
-3.24949
11
4.89716
21
-3.24937
0
LINE
8
BLACK
6
CONTINUOUS
10
4.89716
20
-3.24937
11
4.89723
21
-3.24899
0
LINE
8
BLACK
6
CONTINUOUS
10
4.89723
20
-3.24899
11
4.89772
21
-3.2484
0
LINE
8
BLACK
6
CONTINUOUS
10
4.89772
20
-3.2484
11
4.8981
21
-3.24774
0
LINE
8
BLACK
6
CONTINUOUS
10
4.8981
20
-3.24774
11
4.89835
21
-3.24765
0
LINE
8
BLACK
6
CONTINUOUS
10
4.89835
20
-3.24765
11
4.89852
21
-3.24744
0
LINE
8
BLACK
6
CONTINUOUS
10
4.89852
20
-3.24744
11
4.89928
21
-3.24731
0
LINE
8
BLACK
6
CONTINUOUS
10
4.89928
20
-3.24731
11
4.9
21
-3.24705
0
LINE
8
BLACK
6
CONTINUOUS
10
4.9
20
-3.24705
11
5.1
21
-3.24705
0
LINE
8
BLACK
6
CONTINUOUS
10
5.1
20
-3.24705
11
5.10038
21
-3.24711
0
LINE
8
BLACK
6
CONTINUOUS
10
4.90295
20
-3.25295
11
4.90295
21
-3.54705
0
LINE
8
BLACK
6
CONTINUOUS
10
4.90295
20
-3.54705
11
5.09705
21
-3.54705
0
LINE
8
BLACK
6
CONTINUOUS
10
5.09705
20
-3.54705
11
5.09705
21
-3.25295
0
LINE
8
BLACK
6
CONTINUOUS
10
5.09705
20
-3.25295
11
4.90295
21
-3.25295
0
LINE
8
BLACK
6
CONTINUOUS
10
6.30038
20
-3.24711
11
6.30051
21
-3.24709
0
LINE
8
BLACK
6
CONTINUOUS
10
6.30051
20
-3.24709
11
6.30063
21
-3.24716
0
LINE
8
BLACK
6
CONTINUOUS
10
6.30063
20
-3.24716
11
6.30101
21
-3.24723
0
LINE
8
BLACK
6
CONTINUOUS
10
6.30101
20
-3.24723
11
6.3016
21
-3.24772
0
LINE
8
BLACK
6
CONTINUOUS
10
6.3016
20
-3.24772
11
6.30226
21
-3.2481
0
LINE
8
BLACK
6
CONTINUOUS
10
6.30226
20
-3.2481
11
6.30235
21
-3.24835
0
LINE
8
BLACK
6
CONTINUOUS
10
6.30235
20
-3.24835
11
6.30256
21
-3.24852
0
LINE
8
BLACK
6
CONTINUOUS
10
6.30256
20
-3.24852
11
6.30269
21
-3.24928
0
LINE
8
BLACK
6
CONTINUOUS
10
6.30269
20
-3.24928
11
6.30295
21
-3.25
0
LINE
8
BLACK
6
CONTINUOUS
10
6.30295
20
-3.25
11
6.30295
21
-3.55
0
LINE
8
BLACK
6
CONTINUOUS
10
6.30295
20
-3.55
11
6.30289
21
-3.55038
0
LINE
8
BLACK
6
CONTINUOUS
10
6.30289
20
-3.55038
11
6.30291
21
-3.55051
0
LINE
8
BLACK
6
CONTINUOUS
10
6.30291
20
-3.55051
11
6.30284
21
-3.55063
0
LINE
8
BLACK
6
CONTINUOUS
10
6.30284
20
-3.55063
11
6.30277
21
-3.55101
0
LINE
8
BLACK
6
CONTINUOUS
10
6.30277
20
-3.55101
11
6.30228
21
-3.5516
0
LINE
8
BLACK
6
CONTINUOUS
10
6.30228
20
-3.5516
11
6.3019
21
-3.55226
0
LINE
8
BLACK
6
CONTINUOUS
10
6.3019
20
-3.55226
11
6.30165
21
-3.55235
0
LINE
8
BLACK
6
CONTINUOUS
10
6.30165
20
-3.55235
11
6.30148
21
-3.55256
0
LINE
8
BLACK
6
CONTINUOUS
10
6.30148
20
-3.55256
11
6.30072
21
-3.55269
0
LINE
8
BLACK
6
CONTINUOUS
10
6.30072
20
-3.55269
11
6.3
21
-3.55295
0
LINE
8
BLACK
6
CONTINUOUS
10
6.3
20
-3.55295
11
6.1
21
-3.55295
0
LINE
8
BLACK
6
CONTINUOUS
10
6.1
20
-3.55295
11
6.09962
21
-3.55289
0
LINE
8
BLACK
6
CONTINUOUS
10
6.09962
20
-3.55289
11
6.09949
21
-3.55291
0
LINE
8
BLACK
6
CONTINUOUS
10
6.09949
20
-3.55291
11
6.09937
21
-3.55284
0
LINE
8
BLACK
6
CONTINUOUS
10
6.09937
20
-3.55284
11
6.09899
21
-3.55277
0
LINE
8
BLACK
6
CONTINUOUS
10
6.09899
20
-3.55277
11
6.0984
21
-3.55228
0
LINE
8
BLACK
6
CONTINUOUS
10
6.0984
20
-3.55228
11
6.09774
21
-3.5519
0
LINE
8
BLACK
6
CONTINUOUS
10
6.09774
20
-3.5519
11
6.09765
21
-3.55165
0
LINE
8
BLACK
6
CONTINUOUS
10
6.09765
20
-3.55165
11
6.09744
21
-3.55148
0
LINE
8
BLACK
6
CONTINUOUS
10
6.09744
20
-3.55148
11
6.09731
21
-3.55072
0
LINE
8
BLACK
6
CONTINUOUS
10
6.09731
20
-3.55072
11
6.09705
21
-3.55
0
LINE
8
BLACK
6
CONTINUOUS
10
6.09705
20
-3.55
11
6.09705
21
-3.25
0
LINE
8
BLACK
6
CONTINUOUS
10
6.09705
20
-3.25
11
6.09711
21
-3.24962
0
LINE
8
BLACK
6
CONTINUOUS
10
6.09711
20
-3.24962
11
6.09709
21
-3.24949
0
LINE
8
BLACK
6
CONTINUOUS
10
6.09709
20
-3.24949
11
6.09716
21
-3.24937
0
LINE
8
BLACK
6
CONTINUOUS
10
6.09716
20
-3.24937
11
6.09723
21
-3.24899
0
LINE
8
BLACK
6
CONTINUOUS
10
6.09723
20
-3.24899
11
6.09772
21
-3.2484
0
LINE
8
BLACK
6
CONTINUOUS
10
6.09772
20
-3.2484
11
6.0981
21
-3.24774
0
LINE
8
BLACK
6
CONTINUOUS
10
6.0981
20
-3.24774
11
6.09835
21
-3.24765
0
LINE
8
BLACK
6
CONTINUOUS
10
6.09835
20
-3.24765
11
6.09852
21
-3.24744
0
LINE
8
BLACK
6
CONTINUOUS
10
6.09852
20
-3.24744
11
6.09928
21
-3.24731
0
LINE
8
BLACK
6
CONTINUOUS
10
6.09928
20
-3.24731
11
6.1
21
-3.24705
0
LINE
8
BLACK
6
CONTINUOUS
10
6.1
20
-3.24705
11
6.3
21
-3.24705
0
LINE
8
BLACK
6
CONTINUOUS
10
6.3
20
-3.24705
11
6.30038
21
-3.24711
0
LINE
8
BLACK
6
CONTINUOUS
10
6.10295
20
-3.25295
11
6.10295
21
-3.54705
0
LINE
8
BLACK
6
CONTINUOUS
10
6.10295
20
-3.54705
11
6.29705
21
-3.54705
0
LINE
8
BLACK
6
CONTINUOUS
10
6.29705
20
-3.54705
11
6.29705
21
-3.25295
0
LINE
8
BLACK
6
CONTINUOUS
10
6.29705
20
-3.25295
11
6.10295
21
-3.25295
0
LINE
8
BLACK
6
CONTINUOUS
10
5.01406
20
-2.87519
11
5.02795
21
-2.87755
0
LINE
8
BLACK
6
CONTINUOUS
10
5.02795
20
-2.87755
11
5.04148
21
-2.88145
0
LINE
8
BLACK
6
CONTINUOUS
10
5.04148
20
-2.88145
11
5.0545
21
-2.88684
0
LINE
8
BLACK
6
CONTINUOUS
10
5.0545
20
-2.88684
11
5.06682
21
-2.89365
0
LINE
8
BLACK
6
CONTINUOUS
10
5.06682
20
-2.89365
11
5.07831
21
-2.9018
0
LINE
8
BLACK
6
CONTINUOUS
10
5.07831
20
-2.9018
11
5.08881
21
-2.91119
0
LINE
8
BLACK
6
CONTINUOUS
10
5.08881
20
-2.91119
11
5.0982
21
-2.92169
0
LINE
8
BLACK
6
CONTINUOUS
10
5.0982
20
-2.92169
11
5.10635
21
-2.93318
0
LINE
8
BLACK
6
CONTINUOUS
10
5.10635
20
-2.93318
11
5.11316
21
-2.9455
0
LINE
8
BLACK
6
CONTINUOUS
10
5.11316
20
-2.9455
11
5.11855
21
-2.95852
0
LINE
8
BLACK
6
CONTINUOUS
10
5.11855
20
-2.95852
11
5.12245
21
-2.97205
0
LINE
8
BLACK
6
CONTINUOUS
10
5.12245
20
-2.97205
11
5.12481
21
-2.98594
0
LINE
8
BLACK
6
CONTINUOUS
10
5.12481
20
-2.98594
11
5.1256
21
-3
0
LINE
8
BLACK
6
CONTINUOUS
10
5.1256
20
-3
11
5.12481
21
-3.01406
0
LINE
8
BLACK
6
CONTINUOUS
10
5.12481
20
-3.01406
11
5.12245
21
-3.02795
0
LINE
8
BLACK
6
CONTINUOUS
10
5.12245
20
-3.02795
11
5.11855
21
-3.04148
0
LINE
8
BLACK
6
CONTINUOUS
10
5.11855
20
-3.04148
11
5.11316
21
-3.0545
0
LINE
8
BLACK
6
CONTINUOUS
10
5.11316
20
-3.0545
11
5.10635
21
-3.06682
0
LINE
8
BLACK
6
CONTINUOUS
10
5.10635
20
-3.06682
11
5.0982
21
-3.07831
0
LINE
8
BLACK
6
CONTINUOUS
10
5.0982
20
-3.07831
11
5.08881
21
-3.08881
0
LINE
8
BLACK
6
CONTINUOUS
10
5.08881
20
-3.08881
11
5.07831
21
-3.0982
0
LINE
8
BLACK
6
CONTINUOUS
10
5.07831
20
-3.0982
11
5.06682
21
-3.10635
0
LINE
8
BLACK
6
CONTINUOUS
10
5.06682
20
-3.10635
11
5.0545
21
-3.11316
0
LINE
8
BLACK
6
CONTINUOUS
10
5.0545
20
-3.11316
11
5.04148
21
-3.11855
0
LINE
8
BLACK
6
CONTINUOUS
10
5.04148
20
-3.11855
11
5.02795
21
-3.12245
0
LINE
8
BLACK
6
CONTINUOUS
10
5.02795
20
-3.12245
11
5.01406
21
-3.12481
0
LINE
8
BLACK
6
CONTINUOUS
10
5.01406
20
-3.12481
11
5
21
-3.1256
0
LINE
8
BLACK
6
CONTINUOUS
10
5
20
-3.1256
11
4.98594
21
-3.12481
0
LINE
8
BLACK
6
CONTINUOUS
10
4.98594
20
-3.12481
11
4.97205
21
-3.12245
0
LINE
8
BLACK
6
CONTINUOUS
10
4.97205
20
-3.12245
11
4.95852
21
-3.11855
0
LINE
8
BLACK
6
CONTINUOUS
10
4.95852
20
-3.11855
11
4.9455
21
-3.11316
0
LINE
8
BLACK
6
CONTINUOUS
10
4.9455
20
-3.11316
11
4.93318
21
-3.10635
0
LINE
8
BLACK
6
CONTINUOUS
10
4.93318
20
-3.10635
11
4.92169
21
-3.0982
0
LINE
8
BLACK
6
CONTINUOUS
10
4.92169
20
-3.0982
11
4.91119
21
-3.08881
0
LINE
8
BLACK
6
CONTINUOUS
10
4.91119
20
-3.08881
11
4.9018
21
-3.07831
0
LINE
8
BLACK
6
CONTINUOUS
10
4.9018
20
-3.07831
11
4.89365
21
-3.06682
0
LINE
8
BLACK
6
CONTINUOUS
10
4.89365
20
-3.06682
11
4.88684
21
-3.0545
0
LINE
8
BLACK
6
CONTINUOUS
10
4.88684
20
-3.0545
11
4.88145
21
-3.04148
0
LINE
8
BLACK
6
CONTINUOUS
10
4.88145
20
-3.04148
11
4.87755
21
-3.02795
0
LINE
8
BLACK
6
CONTINUOUS
10
4.87755
20
-3.02795
11
4.87519
21
-3.01406
0
LINE
8
BLACK
6
CONTINUOUS
10
4.87519
20
-3.01406
11
4.8744
21
-3
0
LINE
8
BLACK
6
CONTINUOUS
10
4.8744
20
-3
11
4.87519
21
-2.98594
0
LINE
8
BLACK
6
CONTINUOUS
10
4.87519
20
-2.98594
11
4.87755
21
-2.97205
0
LINE
8
BLACK
6
CONTINUOUS
10
4.87755
20
-2.97205
11
4.88145
21
-2.95852
0
LINE
8
BLACK
6
CONTINUOUS
10
4.88145
20
-2.95852
11
4.88684
21
-2.9455
0
LINE
8
BLACK
6
CONTINUOUS
10
4.88684
20
-2.9455
11
4.89365
21
-2.93318
0
LINE
8
BLACK
6
CONTINUOUS
10
4.89365
20
-2.93318
11
4.9018
21
-2.92169
0
LINE
8
BLACK
6
CONTINUOUS
10
4.9018
20
-2.92169
11
4.91119
21
-2.91119
0
LINE
8
BLACK
6
CONTINUOUS
10
4.91119
20
-2.91119
11
4.92169
21
-2.9018
0
LINE
8
BLACK
6
CONTINUOUS
10
4.92169
20
-2.9018
11
4.93318
21
-2.89365
0
LINE
8
BLACK
6
CONTINUOUS
10
4.93318
20
-2.89365
11
4.9455
21
-2.88684
0
LINE
8
BLACK
6
CONTINUOUS
10
4.9455
20
-2.88684
11
4.95852
21
-2.88145
0
LINE
8
BLACK
6
CONTINUOUS
10
4.95852
20
-2.88145
11
4.97205
21
-2.87755
0
LINE
8
BLACK
6
CONTINUOUS
10
4.97205
20
-2.87755
11
4.98594
21
-2.87519
0
LINE
8
BLACK
6
CONTINUOUS
10
4.98594
20
-2.87519
11
5
21
-2.8744
0
LINE
8
BLACK
6
CONTINUOUS
10
5
20
-2.8744
11
5.01406
21
-2.87519
0
LINE
8
BLACK
6
CONTINUOUS
10
4.88996
20
-3.01286
11
4.8922
21
-3.02555
0
LINE
8
BLACK
6
CONTINUOUS
10
4.8922
20
-3.02555
11
4.89589
21
-3.03789
0
LINE
8
BLACK
6
CONTINUOUS
10
4.89589
20
-3.03789
11
4.901
21
-3.04972
0
LINE
8
BLACK
6
CONTINUOUS
10
4.901
20
-3.04972
11
4.90744
21
-3.06088
0
LINE
8
BLACK
6
CONTINUOUS
10
4.90744
20
-3.06088
11
4.91513
21
-3.07121
0
LINE
8
BLACK
6
CONTINUOUS
10
4.91513
20
-3.07121
11
4.92397
21
-3.08058
0
LINE
8
BLACK
6
CONTINUOUS
10
4.92397
20
-3.08058
11
4.93384
21
-3.08887
0
LINE
8
BLACK
6
CONTINUOUS
10
4.93384
20
-3.08887
11
4.94461
21
-3.09594
0
LINE
8
BLACK
6
CONTINUOUS
10
4.94461
20
-3.09594
11
4.95612
21
-3.10173
0
LINE
8
BLACK
6
CONTINUOUS
10
4.95612
20
-3.10173
11
4.96823
21
-3.10613
0
LINE
8
BLACK
6
CONTINUOUS
10
4.96823
20
-3.10613
11
4.98076
21
-3.1091
0
LINE
8
BLACK
6
CONTINUOUS
10
4.98076
20
-3.1091
11
4.99356
21
-3.1106
0
LINE
8
BLACK
6
CONTINUOUS
10
4.99356
20
-3.1106
11
5.00644
21
-3.1106
0
LINE
8
BLACK
6
CONTINUOUS
10
5.00644
20
-3.1106
11
5.01924
21
-3.1091
0
LINE
8
BLACK
6
CONTINUOUS
10
5.01924
20
-3.1091
11
5.03177
21
-3.10613
0
LINE
8
BLACK
6
CONTINUOUS
10
5.03177
20
-3.10613
11
5.04388
21
-3.10173
0
LINE
8
BLACK
6
CONTINUOUS
10
5.04388
20
-3.10173
11
5.05539
21
-3.09594
0
LINE
8
BLACK
6
CONTINUOUS
10
5.05539
20
-3.09594
11
5.06616
21
-3.08887
0
LINE
8
BLACK
6
CONTINUOUS
10
5.06616
20
-3.08887
11
5.07603
21
-3.08058
0
LINE
8
BLACK
6
CONTINUOUS
10
5.07603
20
-3.08058
11
5.08487
21
-3.07121
0
LINE
8
BLACK
6
CONTINUOUS
10
5.08487
20
-3.07121
11
5.09256
21
-3.06088
0
LINE
8
BLACK
6
CONTINUOUS
10
5.09256
20
-3.06088
11
5.099
21
-3.04972
0
LINE
8
BLACK
6
CONTINUOUS
10
5.099
20
-3.04972
11
5.10411
21
-3.03789
0
LINE
8
BLACK
6
CONTINUOUS
10
5.10411
20
-3.03789
11
5.1078
21
-3.02555
0
LINE
8
BLACK
6
CONTINUOUS
10
5.1078
20
-3.02555
11
5.11004
21
-3.01286
0
LINE
8
BLACK
6
CONTINUOUS
10
5.11004
20
-3.01286
11
5.11079
21
-3
0
LINE
8
BLACK
6
CONTINUOUS
10
5.11079
20
-3
11
5.11004
21
-2.98714
0
LINE
8
BLACK
6
CONTINUOUS
10
5.11004
20
-2.98714
11
5.1078
21
-2.97445
0
LINE
8
BLACK
6
CONTINUOUS
10
5.1078
20
-2.97445
11
5.10411
21
-2.96211
0
LINE
8
BLACK
6
CONTINUOUS
10
5.10411
20
-2.96211
11
5.099
21
-2.95028
0
LINE
8
BLACK
6
CONTINUOUS
10
5.099
20
-2.95028
11
5.09256
21
-2.93912
0
LINE
8
BLACK
6
CONTINUOUS
10
5.09256
20
-2.93912
11
5.08487
21
-2.92879
0
LINE
8
BLACK
6
CONTINUOUS
10
5.08487
20
-2.92879
11
5.07603
21
-2.91942
0
LINE
8
BLACK
6
CONTINUOUS
10
5.07603
20
-2.91942
11
5.06616
21
-2.91113
0
LINE
8
BLACK
6
CONTINUOUS
10
5.06616
20
-2.91113
11
5.05539
21
-2.90406
0
LINE
8
BLACK
6
CONTINUOUS
10
5.05539
20
-2.90406
11
5.04388
21
-2.89827
0
LINE
8
BLACK
6
CONTINUOUS
10
5.04388
20
-2.89827
11
5.03177
21
-2.89387
0
LINE
8
BLACK
6
CONTINUOUS
10
5.03177
20
-2.89387
11
5.01924
21
-2.8909
0
LINE
8
BLACK
6
CONTINUOUS
10
5.01924
20
-2.8909
11
5.00644
21
-2.8894
0
LINE
8
BLACK
6
CONTINUOUS
10
5.00644
20
-2.8894
11
4.99356
21
-2.8894
0
LINE
8
BLACK
6
CONTINUOUS
10
4.99356
20
-2.8894
11
4.98076
21
-2.8909
0
LINE
8
BLACK
6
CONTINUOUS
10
4.98076
20
-2.8909
11
4.96823
21
-2.89387
0
LINE
8
BLACK
6
CONTINUOUS
10
4.96823
20
-2.89387
11
4.95612
21
-2.89827
0
LINE
8
BLACK
6
CONTINUOUS
10
4.95612
20
-2.89827
11
4.94461
21
-2.90406
0
LINE
8
BLACK
6
CONTINUOUS
10
4.94461
20
-2.90406
11
4.93384
21
-2.91113
0
LINE
8
BLACK
6
CONTINUOUS
10
4.93384
20
-2.91113
11
4.92397
21
-2.91942
0
LINE
8
BLACK
6
CONTINUOUS
10
4.92397
20
-2.91942
11
4.91513
21
-2.92879
0
LINE
8
BLACK
6
CONTINUOUS
10
4.91513
20
-2.92879
11
4.90744
21
-2.93912
0
LINE
8
BLACK
6
CONTINUOUS
10
4.90744
20
-2.93912
11
4.901
21
-2.95028
0
LINE
8
BLACK
6
CONTINUOUS
10
4.901
20
-2.95028
11
4.89589
21
-2.96211
0
LINE
8
BLACK
6
CONTINUOUS
10
4.89589
20
-2.96211
11
4.8922
21
-2.97445
0
LINE
8
BLACK
6
CONTINUOUS
10
4.8922
20
-2.97445
11
4.88996
21
-2.98714
0
LINE
8
BLACK
6
CONTINUOUS
10
4.88996
20
-2.98714
11
4.88921
21
-3
0
LINE
8
BLACK
6
CONTINUOUS
10
4.88921
20
-3
11
4.88996
21
-3.01286
0
LINE
8
BLACK
6
CONTINUOUS
10
6.21406
20
-2.87519
11
6.22795
21
-2.87755
0
LINE
8
BLACK
6
CONTINUOUS
10
6.22795
20
-2.87755
11
6.24148
21
-2.88145
0
LINE
8
BLACK
6
CONTINUOUS
10
6.24148
20
-2.88145
11
6.2545
21
-2.88684
0
LINE
8
BLACK
6
CONTINUOUS
10
6.2545
20
-2.88684
11
6.26682
21
-2.89365
0
LINE
8
BLACK
6
CONTINUOUS
10
6.26682
20
-2.89365
11
6.27831
21
-2.9018
0
LINE
8
BLACK
6
CONTINUOUS
10
6.27831
20
-2.9018
11
6.28881
21
-2.91119
0
LINE
8
BLACK
6
CONTINUOUS
10
6.28881
20
-2.91119
11
6.2982
21
-2.92169
0
LINE
8
BLACK
6
CONTINUOUS
10
6.2982
20
-2.92169
11
6.30635
21
-2.93318
0
LINE
8
BLACK
6
CONTINUOUS
10
6.30635
20
-2.93318
11
6.31316
21
-2.9455
0
LINE
8
BLACK
6
CONTINUOUS
10
6.31316
20
-2.9455
11
6.31855
21
-2.95852
0
LINE
8
BLACK
6
CONTINUOUS
10
6.31855
20
-2.95852
11
6.32245
21
-2.97205
0
LINE
8
BLACK
6
CONTINUOUS
10
6.32245
20
-2.97205
11
6.32481
21
-2.98594
0
LINE
8
BLACK
6
CONTINUOUS
10
6.32481
20
-2.98594
11
6.3256
21
-3
0
LINE
8
BLACK
6
CONTINUOUS
10
6.3256
20
-3
11
6.32481
21
-3.01406
0
LINE
8
BLACK
6
CONTINUOUS
10
6.32481
20
-3.01406
11
6.32245
21
-3.02795
0
LINE
8
BLACK
6
CONTINUOUS
10
6.32245
20
-3.02795
11
6.31855
21
-3.04148
0
LINE
8
BLACK
6
CONTINUOUS
10
6.31855
20
-3.04148
11
6.31316
21
-3.0545
0
LINE
8
BLACK
6
CONTINUOUS
10
6.31316
20
-3.0545
11
6.30635
21
-3.06682
0
LINE
8
BLACK
6
CONTINUOUS
10
6.30635
20
-3.06682
11
6.2982
21
-3.07831
0
LINE
8
BLACK
6
CONTINUOUS
10
6.2982
20
-3.07831
11
6.28881
21
-3.08881
0
LINE
8
BLACK
6
CONTINUOUS
10
6.28881
20
-3.08881
11
6.27831
21
-3.0982
0
LINE
8
BLACK
6
CONTINUOUS
10
6.27831
20
-3.0982
11
6.26682
21
-3.10635
0
LINE
8
BLACK
6
CONTINUOUS
10
6.26682
20
-3.10635
11
6.2545
21
-3.11316
0
LINE
8
BLACK
6
CONTINUOUS
10
6.2545
20
-3.11316
11
6.24148
21
-3.11855
0
LINE
8
BLACK
6
CONTINUOUS
10
6.24148
20
-3.11855
11
6.22795
21
-3.12245
0
LINE
8
BLACK
6
CONTINUOUS
10
6.22795
20
-3.12245
11
6.21406
21
-3.12481
0
LINE
8
BLACK
6
CONTINUOUS
10
6.21406
20
-3.12481
11
6.2
21
-3.1256
0
LINE
8
BLACK
6
CONTINUOUS
10
6.2
20
-3.1256
11
6.18594
21
-3.12481
0
LINE
8
BLACK
6
CONTINUOUS
10
6.18594
20
-3.12481
11
6.17205
21
-3.12245
0
LINE
8
BLACK
6
CONTINUOUS
10
6.17205
20
-3.12245
11
6.15852
21
-3.11855
0
LINE
8
BLACK
6
CONTINUOUS
10
6.15852
20
-3.11855
11
6.1455
21
-3.11316
0
LINE
8
BLACK
6
CONTINUOUS
10
6.1455
20
-3.11316
11
6.13318
21
-3.10635
0
LINE
8
BLACK
6
CONTINUOUS
10
6.13318
20
-3.10635
11
6.12169
21
-3.0982
0
LINE
8
BLACK
6
CONTINUOUS
10
6.12169
20
-3.0982
11
6.11119
21
-3.08881
0
LINE
8
BLACK
6
CONTINUOUS
10
6.11119
20
-3.08881
11
6.1018
21
-3.07831
0
LINE
8
BLACK
6
CONTINUOUS
10
6.1018
20
-3.07831
11
6.09365
21
-3.06682
0
LINE
8
BLACK
6
CONTINUOUS
10
6.09365
20
-3.06682
11
6.08684
21
-3.0545
0
LINE
8
BLACK
6
CONTINUOUS
10
6.08684
20
-3.0545
11
6.08145
21
-3.04148
0
LINE
8
BLACK
6
CONTINUOUS
10
6.08145
20
-3.04148
11
6.07755
21
-3.02795
0
LINE
8
BLACK
6
CONTINUOUS
10
6.07755
20
-3.02795
11
6.07519
21
-3.01406
0
LINE
8
BLACK
6
CONTINUOUS
10
6.07519
20
-3.01406
11
6.0744
21
-3
0
LINE
8
BLACK
6
CONTINUOUS
10
6.0744
20
-3
11
6.07519
21
-2.98594
0
LINE
8
BLACK
6
CONTINUOUS
10
6.07519
20
-2.98594
11
6.07755
21
-2.97205
0
LINE
8
BLACK
6
CONTINUOUS
10
6.07755
20
-2.97205
11
6.08145
21
-2.95852
0
LINE
8
BLACK
6
CONTINUOUS
10
6.08145
20
-2.95852
11
6.08684
21
-2.9455
0
LINE
8
BLACK
6
CONTINUOUS
10
6.08684
20
-2.9455
11
6.09365
21
-2.93318
0
LINE
8
BLACK
6
CONTINUOUS
10
6.09365
20
-2.93318
11
6.1018
21
-2.92169
0
LINE
8
BLACK
6
CONTINUOUS
10
6.1018
20
-2.92169
11
6.11119
21
-2.91119
0
LINE
8
BLACK
6
CONTINUOUS
10
6.11119
20
-2.91119
11
6.12169
21
-2.9018
0
LINE
8
BLACK
6
CONTINUOUS
10
6.12169
20
-2.9018
11
6.13318
21
-2.89365
0
LINE
8
BLACK
6
CONTINUOUS
10
6.13318
20
-2.89365
11
6.1455
21
-2.88684
0
LINE
8
BLACK
6
CONTINUOUS
10
6.1455
20
-2.88684
11
6.15852
21
-2.88145
0
LINE
8
BLACK
6
CONTINUOUS
10
6.15852
20
-2.88145
11
6.17205
21
-2.87755
0
LINE
8
BLACK
6
CONTINUOUS
10
6.17205
20
-2.87755
11
6.18594
21
-2.87519
0
LINE
8
BLACK
6
CONTINUOUS
10
6.18594
20
-2.87519
11
6.2
21
-2.8744
0
LINE
8
BLACK
6
CONTINUOUS
10
6.2
20
-2.8744
11
6.21406
21
-2.87519
0
LINE
8
BLACK
6
CONTINUOUS
10
6.08996
20
-3.01286
11
6.0922
21
-3.02555
0
LINE
8
BLACK
6
CONTINUOUS
10
6.0922
20
-3.02555
11
6.09589
21
-3.03789
0
LINE
8
BLACK
6
CONTINUOUS
10
6.09589
20
-3.03789
11
6.101
21
-3.04972
0
LINE
8
BLACK
6
CONTINUOUS
10
6.101
20
-3.04972
11
6.10744
21
-3.06088
0
LINE
8
BLACK
6
CONTINUOUS
10
6.10744
20
-3.06088
11
6.11513
21
-3.07121
0
LINE
8
BLACK
6
CONTINUOUS
10
6.11513
20
-3.07121
11
6.12397
21
-3.08058
0
LINE
8
BLACK
6
CONTINUOUS
10
6.12397
20
-3.08058
11
6.13384
21
-3.08887
0
LINE
8
BLACK
6
CONTINUOUS
10
6.13384
20
-3.08887
11
6.14461
21
-3.09594
0
LINE
8
BLACK
6
CONTINUOUS
10
6.14461
20
-3.09594
11
6.15612
21
-3.10173
0
LINE
8
BLACK
6
CONTINUOUS
10
6.15612
20
-3.10173
11
6.16823
21
-3.10613
0
LINE
8
BLACK
6
CONTINUOUS
10
6.16823
20
-3.10613
11
6.18076
21
-3.1091
0
LINE
8
BLACK
6
CONTINUOUS
10
6.18076
20
-3.1091
11
6.19356
21
-3.1106
0
LINE
8
BLACK
6
CONTINUOUS
10
6.19356
20
-3.1106
11
6.20644
21
-3.1106
0
LINE
8
BLACK
6
CONTINUOUS
10
6.20644
20
-3.1106
11
6.21924
21
-3.1091
0
LINE
8
BLACK
6
CONTINUOUS
10
6.21924
20
-3.1091
11
6.23177
21
-3.10613
0
LINE
8
BLACK
6
CONTINUOUS
10
6.23177
20
-3.10613
11
6.24388
21
-3.10173
0
LINE
8
BLACK
6
CONTINUOUS
10
6.24388
20
-3.10173
11
6.25539
21
-3.09594
0
LINE
8
BLACK
6
CONTINUOUS
10
6.25539
20
-3.09594
11
6.26616
21
-3.08887
0
LINE
8
BLACK
6
CONTINUOUS
10
6.26616
20
-3.08887
11
6.27603
21
-3.08058
0
LINE
8
BLACK
6
CONTINUOUS
10
6.27603
20
-3.08058
11
6.28487
21
-3.07121
0
LINE
8
BLACK
6
CONTINUOUS
10
6.28487
20
-3.07121
11
6.29256
21
-3.06088
0
LINE
8
BLACK
6
CONTINUOUS
10
6.29256
20
-3.06088
11
6.299
21
-3.04972
0
LINE
8
BLACK
6
CONTINUOUS
10
6.299
20
-3.04972
11
6.30411
21
-3.03789
0
LINE
8
BLACK
6
CONTINUOUS
10
6.30411
20
-3.03789
11
6.3078
21
-3.02555
0
LINE
8
BLACK
6
CONTINUOUS
10
6.3078
20
-3.02555
11
6.31004
21
-3.01286
0
LINE
8
BLACK
6
CONTINUOUS
10
6.31004
20
-3.01286
11
6.31079
21
-3
0
LINE
8
BLACK
6
CONTINUOUS
10
6.31079
20
-3
11
6.31004
21
-2.98714
0
LINE
8
BLACK
6
CONTINUOUS
10
6.31004
20
-2.98714
11
6.3078
21
-2.97445
0
LINE
8
BLACK
6
CONTINUOUS
10
6.3078
20
-2.97445
11
6.30411
21
-2.96211
0
LINE
8
BLACK
6
CONTINUOUS
10
6.30411
20
-2.96211
11
6.299
21
-2.95028
0
LINE
8
BLACK
6
CONTINUOUS
10
6.299
20
-2.95028
11
6.29256
21
-2.93912
0
LINE
8
BLACK
6
CONTINUOUS
10
6.29256
20
-2.93912
11
6.28487
21
-2.92879
0
LINE
8
BLACK
6
CONTINUOUS
10
6.28487
20
-2.92879
11
6.27603
21
-2.91942
0
LINE
8
BLACK
6
CONTINUOUS
10
6.27603
20
-2.91942
11
6.26616
21
-2.91113
0
LINE
8
BLACK
6
CONTINUOUS
10
6.26616
20
-2.91113
11
6.25539
21
-2.90406
0
LINE
8
BLACK
6
CONTINUOUS
10
6.25539
20
-2.90406
11
6.24388
21
-2.89827
0
LINE
8
BLACK
6
CONTINUOUS
10
6.24388
20
-2.89827
11
6.23177
21
-2.89387
0
LINE
8
BLACK
6
CONTINUOUS
10
6.23177
20
-2.89387
11
6.21924
21
-2.8909
0
LINE
8
BLACK
6
CONTINUOUS
10
6.21924
20
-2.8909
11
6.20644
21
-2.8894
0
LINE
8
BLACK
6
CONTINUOUS
10
6.20644
20
-2.8894
11
6.19356
21
-2.8894
0
LINE
8
BLACK
6
CONTINUOUS
10
6.19356
20
-2.8894
11
6.18076
21
-2.8909
0
LINE
8
BLACK
6
CONTINUOUS
10
6.18076
20
-2.8909
11
6.16823
21
-2.89387
0
LINE
8
BLACK
6
CONTINUOUS
10
6.16823
20
-2.89387
11
6.15612
21
-2.89827
0
LINE
8
BLACK
6
CONTINUOUS
10
6.15612
20
-2.89827
11
6.14461
21
-2.90406
0
LINE
8
BLACK
6
CONTINUOUS
10
6.14461
20
-2.90406
11
6.13384
21
-2.91113
0
LINE
8
BLACK
6
CONTINUOUS
10
6.13384
20
-2.91113
11
6.12397
21
-2.91942
0
LINE
8
BLACK
6
CONTINUOUS
10
6.12397
20
-2.91942
11
6.11513
21
-2.92879
0
LINE
8
BLACK
6
CONTINUOUS
10
6.11513
20
-2.92879
11
6.10744
21
-2.93912
0
LINE
8
BLACK
6
CONTINUOUS
10
6.10744
20
-2.93912
11
6.101
21
-2.95028
0
LINE
8
BLACK
6
CONTINUOUS
10
6.101
20
-2.95028
11
6.09589
21
-2.96211
0
LINE
8
BLACK
6
CONTINUOUS
10
6.09589
20
-2.96211
11
6.0922
21
-2.97445
0
LINE
8
BLACK
6
CONTINUOUS
10
6.0922
20
-2.97445
11
6.08996
21
-2.98714
0
LINE
8
BLACK
6
CONTINUOUS
10
6.08996
20
-2.98714
11
6.08921
21
-3
0
LINE
8
BLACK
6
CONTINUOUS
10
6.08921
20
-3
11
6.08996
21
-3.01286
0
LINE
8
BLACK
6
CONTINUOUS
10
5.55038
20
-2.94711
11
5.55051
21
-2.94709
0
LINE
8
BLACK
6
CONTINUOUS
10
5.55051
20
-2.94709
11
5.55063
21
-2.94716
0
LINE
8
BLACK
6
CONTINUOUS
10
5.55063
20
-2.94716
11
5.55101
21
-2.94723
0
LINE
8
BLACK
6
CONTINUOUS
10
5.55101
20
-2.94723
11
5.5516
21
-2.94772
0
LINE
8
BLACK
6
CONTINUOUS
10
5.5516
20
-2.94772
11
5.55226
21
-2.9481
0
LINE
8
BLACK
6
CONTINUOUS
10
5.55226
20
-2.9481
11
5.55235
21
-2.94835
0
LINE
8
BLACK
6
CONTINUOUS
10
5.55235
20
-2.94835
11
5.55256
21
-2.94852
0
LINE
8
BLACK
6
CONTINUOUS
10
5.55256
20
-2.94852
11
5.55269
21
-2.94928
0
LINE
8
BLACK
6
CONTINUOUS
10
5.55269
20
-2.94928
11
5.55295
21
-2.95
0
LINE
8
BLACK
6
CONTINUOUS
10
5.55295
20
-2.95
11
5.55295
21
-3.05
0
LINE
8
BLACK
6
CONTINUOUS
10
5.55295
20
-3.05
11
5.55289
21
-3.05038
0
LINE
8
BLACK
6
CONTINUOUS
10
5.55289
20
-3.05038
11
5.55291
21
-3.05051
0
LINE
8
BLACK
6
CONTINUOUS
10
5.55291
20
-3.05051
11
5.55284
21
-3.05063
0
LINE
8
BLACK
6
CONTINUOUS
10
5.55284
20
-3.05063
11
5.55277
21
-3.05101
0
LINE
8
BLACK
6
CONTINUOUS
10
5.55277
20
-3.05101
11
5.55228
21
-3.0516
0
LINE
8
BLACK
6
CONTINUOUS
10
5.55228
20
-3.0516
11
5.5519
21
-3.05226
0
LINE
8
BLACK
6
CONTINUOUS
10
5.5519
20
-3.05226
11
5.55165
21
-3.05235
0
LINE
8
BLACK
6
CONTINUOUS
10
5.55165
20
-3.05235
11
5.55148
21
-3.05256
0
LINE
8
BLACK
6
CONTINUOUS
10
5.55148
20
-3.05256
11
5.55072
21
-3.05269
0
LINE
8
BLACK
6
CONTINUOUS
10
5.55072
20
-3.05269
11
5.55
21
-3.05295
0
LINE
8
BLACK
6
CONTINUOUS
10
5.55
20
-3.05295
11
5.25
21
-3.05295
0
LINE
8
BLACK
6
CONTINUOUS
10
5.25
20
-3.05295
11
5.24962
21
-3.05289
0
LINE
8
BLACK
6
CONTINUOUS
10
5.24962
20
-3.05289
11
5.24949
21
-3.05291
0
LINE
8
BLACK
6
CONTINUOUS
10
5.24949
20
-3.05291
11
5.24937
21
-3.05284
0
LINE
8
BLACK
6
CONTINUOUS
10
5.24937
20
-3.05284
11
5.24899
21
-3.05277
0
LINE
8
BLACK
6
CONTINUOUS
10
5.24899
20
-3.05277
11
5.2484
21
-3.05228
0
LINE
8
BLACK
6
CONTINUOUS
10
5.2484
20
-3.05228
11
5.24774
21
-3.0519
0
LINE
8
BLACK
6
CONTINUOUS
10
5.24774
20
-3.0519
11
5.24765
21
-3.05165
0
LINE
8
BLACK
6
CONTINUOUS
10
5.24765
20
-3.05165
11
5.24744
21
-3.05148
0
LINE
8
BLACK
6
CONTINUOUS
10
5.24744
20
-3.05148
11
5.24731
21
-3.05072
0
LINE
8
BLACK
6
CONTINUOUS
10
5.24731
20
-3.05072
11
5.24705
21
-3.05
0
LINE
8
BLACK
6
CONTINUOUS
10
5.24705
20
-3.05
11
5.24705
21
-2.95
0
LINE
8
BLACK
6
CONTINUOUS
10
5.24705
20
-2.95
11
5.24711
21
-2.94962
0
LINE
8
BLACK
6
CONTINUOUS
10
5.24711
20
-2.94962
11
5.24709
21
-2.94949
0
LINE
8
BLACK
6
CONTINUOUS
10
5.24709
20
-2.94949
11
5.24716
21
-2.94937
0
LINE
8
BLACK
6
CONTINUOUS
10
5.24716
20
-2.94937
11
5.24723
21
-2.94899
0
LINE
8
BLACK
6
CONTINUOUS
10
5.24723
20
-2.94899
11
5.24772
21
-2.9484
0
LINE
8
BLACK
6
CONTINUOUS
10
5.24772
20
-2.9484
11
5.2481
21
-2.94774
0
LINE
8
BLACK
6
CONTINUOUS
10
5.2481
20
-2.94774
11
5.24835
21
-2.94765
0
LINE
8
BLACK
6
CONTINUOUS
10
5.24835
20
-2.94765
11
5.24852
21
-2.94744
0
LINE
8
BLACK
6
CONTINUOUS
10
5.24852
20
-2.94744
11
5.24928
21
-2.94731
0
LINE
8
BLACK
6
CONTINUOUS
10
5.24928
20
-2.94731
11
5.25
21
-2.94705
0
LINE
8
BLACK
6
CONTINUOUS
10
5.25
20
-2.94705
11
5.55
21
-2.94705
0
LINE
8
BLACK
6
CONTINUOUS
10
5.55
20
-2.94705
11
5.55038
21
-2.94711
0
LINE
8
BLACK
6
CONTINUOUS
10
5.25295
20
-2.95295
11
5.25295
21
-3.04705
0
LINE
8
BLACK
6
CONTINUOUS
10
5.25295
20
-3.04705
11
5.54705
21
-3.04705
0
LINE
8
BLACK
6
CONTINUOUS
10
5.54705
20
-3.04705
11
5.54705
21
-2.95295
0
LINE
8
BLACK
6
CONTINUOUS
10
5.54705
20
-2.95295
11
5.25295
21
-2.95295
0
LINE
8
BLACK
6
CONTINUOUS
10
5.95038
20
-2.94711
11
5.95051
21
-2.94709
0
LINE
8
BLACK
6
CONTINUOUS
10
5.95051
20
-2.94709
11
5.95063
21
-2.94716
0
LINE
8
BLACK
6
CONTINUOUS
10
5.95063
20
-2.94716
11
5.95101
21
-2.94723
0
LINE
8
BLACK
6
CONTINUOUS
10
5.95101
20
-2.94723
11
5.9516
21
-2.94772
0
LINE
8
BLACK
6
CONTINUOUS
10
5.9516
20
-2.94772
11
5.95226
21
-2.9481
0
LINE
8
BLACK
6
CONTINUOUS
10
5.95226
20
-2.9481
11
5.95235
21
-2.94835
0
LINE
8
BLACK
6
CONTINUOUS
10
5.95235
20
-2.94835
11
5.95256
21
-2.94852
0
LINE
8
BLACK
6
CONTINUOUS
10
5.95256
20
-2.94852
11
5.95269
21
-2.94928
0
LINE
8
BLACK
6
CONTINUOUS
10
5.95269
20
-2.94928
11
5.95295
21
-2.95
0
LINE
8
BLACK
6
CONTINUOUS
10
5.95295
20
-2.95
11
5.95295
21
-3.05
0
LINE
8
BLACK
6
CONTINUOUS
10
5.95295
20
-3.05
11
5.95289
21
-3.05038
0
LINE
8
BLACK
6
CONTINUOUS
10
5.95289
20
-3.05038
11
5.95291
21
-3.05051
0
LINE
8
BLACK
6
CONTINUOUS
10
5.95291
20
-3.05051
11
5.95284
21
-3.05063
0
LINE
8
BLACK
6
CONTINUOUS
10
5.95284
20
-3.05063
11
5.95277
21
-3.05101
0
LINE
8
BLACK
6
CONTINUOUS
10
5.95277
20
-3.05101
11
5.95228
21
-3.0516
0
LINE
8
BLACK
6
CONTINUOUS
10
5.95228
20
-3.0516
11
5.9519
21
-3.05226
0
LINE
8
BLACK
6
CONTINUOUS
10
5.9519
20
-3.05226
11
5.95165
21
-3.05235
0
LINE
8
BLACK
6
CONTINUOUS
10
5.95165
20
-3.05235
11
5.95148
21
-3.05256
0
LINE
8
BLACK
6
CONTINUOUS
10
5.95148
20
-3.05256
11
5.95072
21
-3.05269
0
LINE
8
BLACK
6
CONTINUOUS
10
5.95072
20
-3.05269
11
5.95
21
-3.05295
0
LINE
8
BLACK
6
CONTINUOUS
10
5.95
20
-3.05295
11
5.65
21
-3.05295
0
LINE
8
BLACK
6
CONTINUOUS
10
5.65
20
-3.05295
11
5.64962
21
-3.05289
0
LINE
8
BLACK
6
CONTINUOUS
10
5.64962
20
-3.05289
11
5.64949
21
-3.05291
0
LINE
8
BLACK
6
CONTINUOUS
10
5.64949
20
-3.05291
11
5.64937
21
-3.05284
0
LINE
8
BLACK
6
CONTINUOUS
10
5.64937
20
-3.05284
11
5.64899
21
-3.05277
0
LINE
8
BLACK
6
CONTINUOUS
10
5.64899
20
-3.05277
11
5.6484
21
-3.05228
0
LINE
8
BLACK
6
CONTINUOUS
10
5.6484
20
-3.05228
11
5.64774
21
-3.0519
0
LINE
8
BLACK
6
CONTINUOUS
10
5.64774
20
-3.0519
11
5.64765
21
-3.05165
0
LINE
8
BLACK
6
CONTINUOUS
10
5.64765
20
-3.05165
11
5.64744
21
-3.05148
0
LINE
8
BLACK
6
CONTINUOUS
10
5.64744
20
-3.05148
11
5.64731
21
-3.05072
0
LINE
8
BLACK
6
CONTINUOUS
10
5.64731
20
-3.05072
11
5.64705
21
-3.05
0
LINE
8
BLACK
6
CONTINUOUS
10
5.64705
20
-3.05
11
5.64705
21
-2.95
0
LINE
8
BLACK
6
CONTINUOUS
10
5.64705
20
-2.95
11
5.64711
21
-2.94962
0
LINE
8
BLACK
6
CONTINUOUS
10
5.64711
20
-2.94962
11
5.64709
21
-2.94949
0
LINE
8
BLACK
6
CONTINUOUS
10
5.64709
20
-2.94949
11
5.64716
21
-2.94937
0
LINE
8
BLACK
6
CONTINUOUS
10
5.64716
20
-2.94937
11
5.64723
21
-2.94899
0
LINE
8
BLACK
6
CONTINUOUS
10
5.64723
20
-2.94899
11
5.64772
21
-2.9484
0
LINE
8
BLACK
6
CONTINUOUS
10
5.64772
20
-2.9484
11
5.6481
21
-2.94774
0
LINE
8
BLACK
6
CONTINUOUS
10
5.6481
20
-2.94774
11
5.64835
21
-2.94765
0
LINE
8
BLACK
6
CONTINUOUS
10
5.64835
20
-2.94765
11
5.64852
21
-2.94744
0
LINE
8
BLACK
6
CONTINUOUS
10
5.64852
20
-2.94744
11
5.64928
21
-2.94731
0
LINE
8
BLACK
6
CONTINUOUS
10
5.64928
20
-2.94731
11
5.65
21
-2.94705
0
LINE
8
BLACK
6
CONTINUOUS
10
5.65
20
-2.94705
11
5.95
21
-2.94705
0
LINE
8
BLACK
6
CONTINUOUS
10
5.95
20
-2.94705
11
5.95038
21
-2.94711
0
LINE
8
BLACK
6
CONTINUOUS
10
5.65295
20
-2.95295
11
5.65295
21
-3.04705
0
LINE
8
BLACK
6
CONTINUOUS
10
5.65295
20
-3.04705
11
5.94705
21
-3.04705
0
LINE
8
BLACK
6
CONTINUOUS
10
5.94705
20
-3.04705
11
5.94705
21
-2.95295
0
LINE
8
BLACK
6
CONTINUOUS
10
5.94705
20
-2.95295
11
5.65295
21
-2.95295
  0
ENDSEC
  0
EOF
