  0
SECTION
  2
HEADER
  9
$ANGBASE
  50
0.0
  9
$ANGDIR
  70
1
  9
$MEASUREMENT
  70
0
  0
ENDSEC
  0
SECTION
  2
TABLES
  0
TABLE
  2
LTYPE
  70
4
  0
LTYPE
  5
40F
  2
CONTINUOUS
  70
0
  3
Solid line
  72
65
  73
0
  40
0.0
  0
LTYPE
  5
410
  2
DASHDOT
 70
0
  3
Dash Dot ____ _ ____ _
 72
65
 73
4
 40
2.0
 49
1.25
 49
-0.25
 49
0.25
 49
-0.25
  0
LTYPE
  5
411
  2
DASHED
 70
0
  3
Dashed __ __ __ __ __
 72
65
 73
2
 40
0.75
 49
0.5
 49
-0.25
  0
LTYPE
  5
43B
  2
DOTTED
 70
0
  3
Dotted .  .  .  .
 72
65
 73
2
 40
0.2
 49
0.0
 49
-0.2
  0
ENDTAB
  0
TABLE
  2
STYLE
  70
4
  0
STYLE
  2
KICAD
  70
0
  40
0
  41
1
  42
1
  50
0
  71
0
  3
isocp.shx
  0
STYLE
  2
KICADB
  70
0
  40
0
  41
1
  42
1
  50
0
  71
0
  3
isocp.shx
  0
STYLE
  2
KICADI
  70
0
  40
0
  41
1
  42
1
  50
15
  71
0
  3
isocp.shx
  0
STYLE
  2
KICADBI
  70
0
  40
0
  41
1
  42
1
  50
15
  71
0
  3
isocp.shx
  0
ENDTAB
  0
TABLE
  2
LAYER
  70
1
  0
LAYER
  2
BLACK
  70
0
  62
7
  6
CONTINUOUS
  0
ENDTAB
  0
ENDSEC
  0
SECTION
  2
ENTITIES
0
LINE
8
BLACK
6
CONTINUOUS
10
6.20865
20
-3.68221
11
6.22213
21
-3.68398
0
LINE
8
BLACK
6
CONTINUOUS
10
6.22213
20
-3.68398
11
6.23532
21
-3.68729
0
LINE
8
BLACK
6
CONTINUOUS
10
6.23532
20
-3.68729
11
6.24804
21
-3.6921
0
LINE
8
BLACK
6
CONTINUOUS
10
6.24804
20
-3.6921
11
6.26012
21
-3.69834
0
LINE
8
BLACK
6
CONTINUOUS
10
6.26012
20
-3.69834
11
6.27141
21
-3.70592
0
LINE
8
BLACK
6
CONTINUOUS
10
6.27141
20
-3.70592
11
6.28175
21
-3.71475
0
LINE
8
BLACK
6
CONTINUOUS
10
6.28175
20
-3.71475
11
6.29101
21
-3.72471
0
LINE
8
BLACK
6
CONTINUOUS
10
6.29101
20
-3.72471
11
6.29906
21
-3.73567
0
LINE
8
BLACK
6
CONTINUOUS
10
6.29906
20
-3.73567
11
6.30579
21
-3.74748
0
LINE
8
BLACK
6
CONTINUOUS
10
6.30579
20
-3.74748
11
6.31113
21
-3.75999
0
LINE
8
BLACK
6
CONTINUOUS
10
6.31113
20
-3.75999
11
6.31499
21
-3.77303
0
LINE
8
BLACK
6
CONTINUOUS
10
6.31499
20
-3.77303
11
6.31733
21
-3.78642
0
LINE
8
BLACK
6
CONTINUOUS
10
6.31733
20
-3.78642
11
6.31811
21
-3.8
0
LINE
8
BLACK
6
CONTINUOUS
10
6.31811
20
-3.8
11
6.31788
21
-3.80742
0
LINE
8
BLACK
6
CONTINUOUS
10
6.31788
20
-3.80742
11
6.31624
21
-3.82092
0
LINE
8
BLACK
6
CONTINUOUS
10
6.31624
20
-3.82092
11
6.31307
21
-3.83414
0
LINE
8
BLACK
6
CONTINUOUS
10
6.31307
20
-3.83414
11
6.3084
21
-3.84691
0
LINE
8
BLACK
6
CONTINUOUS
10
6.3084
20
-3.84691
11
6.30229
21
-3.85906
0
LINE
8
BLACK
6
CONTINUOUS
10
6.30229
20
-3.85906
11
6.29482
21
-3.87042
0
LINE
8
BLACK
6
CONTINUOUS
10
6.29482
20
-3.87042
11
6.2861
21
-3.88085
0
LINE
8
BLACK
6
CONTINUOUS
10
6.2861
20
-3.88085
11
6.27624
21
-3.89021
0
LINE
8
BLACK
6
CONTINUOUS
10
6.27624
20
-3.89021
11
6.26536
21
-3.89838
0
LINE
8
BLACK
6
CONTINUOUS
10
6.26536
20
-3.89838
11
6.25362
21
-3.90524
0
LINE
8
BLACK
6
CONTINUOUS
10
6.25362
20
-3.90524
11
6.24117
21
-3.9107
0
LINE
8
BLACK
6
CONTINUOUS
10
6.24117
20
-3.9107
11
6.22817
21
-3.9147
0
LINE
8
BLACK
6
CONTINUOUS
10
6.22817
20
-3.9147
11
6.2148
21
-3.91718
0
LINE
8
BLACK
6
CONTINUOUS
10
6.2148
20
-3.91718
11
6.20124
21
-3.9181
0
LINE
8
BLACK
6
CONTINUOUS
10
6.20124
20
-3.9181
11
6.18765
21
-3.91746
0
LINE
8
BLACK
6
CONTINUOUS
10
6.18765
20
-3.91746
11
6.17424
21
-3.91527
0
LINE
8
BLACK
6
CONTINUOUS
10
6.17424
20
-3.91527
11
6.16116
21
-3.91154
0
LINE
8
BLACK
6
CONTINUOUS
10
6.16116
20
-3.91154
11
6.14859
21
-3.90634
0
LINE
8
BLACK
6
CONTINUOUS
10
6.14859
20
-3.90634
11
6.13671
21
-3.89972
0
LINE
8
BLACK
6
CONTINUOUS
10
6.13671
20
-3.89972
11
6.12567
21
-3.89179
0
LINE
8
BLACK
6
CONTINUOUS
10
6.12567
20
-3.89179
11
6.11561
21
-3.88264
0
LINE
8
BLACK
6
CONTINUOUS
10
6.11561
20
-3.88264
11
6.10667
21
-3.87239
0
LINE
8
BLACK
6
CONTINUOUS
10
6.10667
20
-3.87239
11
6.09897
21
-3.86118
0
LINE
8
BLACK
6
CONTINUOUS
10
6.09897
20
-3.86118
11
6.09261
21
-3.84917
0
LINE
8
BLACK
6
CONTINUOUS
10
6.09261
20
-3.84917
11
6.08767
21
-3.8365
0
LINE
8
BLACK
6
CONTINUOUS
10
6.08767
20
-3.8365
11
6.08422
21
-3.82335
0
LINE
8
BLACK
6
CONTINUOUS
10
6.08422
20
-3.82335
11
6.0823
21
-3.80988
0
LINE
8
BLACK
6
CONTINUOUS
10
6.0823
20
-3.80988
11
6.08195
21
-3.79629
0
LINE
8
BLACK
6
CONTINUOUS
10
6.08195
20
-3.79629
11
6.08316
21
-3.78275
0
LINE
8
BLACK
6
CONTINUOUS
10
6.08316
20
-3.78275
11
6.08591
21
-3.76943
0
LINE
8
BLACK
6
CONTINUOUS
10
6.08591
20
-3.76943
11
6.09018
21
-3.75652
0
LINE
8
BLACK
6
CONTINUOUS
10
6.09018
20
-3.75652
11
6.09591
21
-3.74419
0
LINE
8
BLACK
6
CONTINUOUS
10
6.09591
20
-3.74419
11
6.10301
21
-3.73259
0
LINE
8
BLACK
6
CONTINUOUS
10
6.10301
20
-3.73259
11
6.1114
21
-3.72189
0
LINE
8
BLACK
6
CONTINUOUS
10
6.1114
20
-3.72189
11
6.12097
21
-3.71223
0
LINE
8
BLACK
6
CONTINUOUS
10
6.12097
20
-3.71223
11
6.13158
21
-3.70373
0
LINE
8
BLACK
6
CONTINUOUS
10
6.13158
20
-3.70373
11
6.1431
21
-3.6965
0
LINE
8
BLACK
6
CONTINUOUS
10
6.1431
20
-3.6965
11
6.15537
21
-3.69065
0
LINE
8
BLACK
6
CONTINUOUS
10
6.15537
20
-3.69065
11
6.16824
21
-3.68624
0
LINE
8
BLACK
6
CONTINUOUS
10
6.16824
20
-3.68624
11
6.18152
21
-3.68334
0
LINE
8
BLACK
6
CONTINUOUS
10
6.18152
20
-3.68334
11
6.19505
21
-3.68199
0
LINE
8
BLACK
6
CONTINUOUS
10
6.19505
20
-3.68199
11
6.20865
21
-3.68221
0
LINE
8
BLACK
6
CONTINUOUS
10
5.00865
20
-3.68221
11
5.02213
21
-3.68398
0
LINE
8
BLACK
6
CONTINUOUS
10
5.02213
20
-3.68398
11
5.03532
21
-3.68729
0
LINE
8
BLACK
6
CONTINUOUS
10
5.03532
20
-3.68729
11
5.04804
21
-3.6921
0
LINE
8
BLACK
6
CONTINUOUS
10
5.04804
20
-3.6921
11
5.06012
21
-3.69834
0
LINE
8
BLACK
6
CONTINUOUS
10
5.06012
20
-3.69834
11
5.07141
21
-3.70592
0
LINE
8
BLACK
6
CONTINUOUS
10
5.07141
20
-3.70592
11
5.08175
21
-3.71475
0
LINE
8
BLACK
6
CONTINUOUS
10
5.08175
20
-3.71475
11
5.09101
21
-3.72471
0
LINE
8
BLACK
6
CONTINUOUS
10
5.09101
20
-3.72471
11
5.09906
21
-3.73567
0
LINE
8
BLACK
6
CONTINUOUS
10
5.09906
20
-3.73567
11
5.10579
21
-3.74748
0
LINE
8
BLACK
6
CONTINUOUS
10
5.10579
20
-3.74748
11
5.11113
21
-3.75999
0
LINE
8
BLACK
6
CONTINUOUS
10
5.11113
20
-3.75999
11
5.11499
21
-3.77303
0
LINE
8
BLACK
6
CONTINUOUS
10
5.11499
20
-3.77303
11
5.11733
21
-3.78642
0
LINE
8
BLACK
6
CONTINUOUS
10
5.11733
20
-3.78642
11
5.11811
21
-3.8
0
LINE
8
BLACK
6
CONTINUOUS
10
5.11811
20
-3.8
11
5.11788
21
-3.80742
0
LINE
8
BLACK
6
CONTINUOUS
10
5.11788
20
-3.80742
11
5.11624
21
-3.82092
0
LINE
8
BLACK
6
CONTINUOUS
10
5.11624
20
-3.82092
11
5.11307
21
-3.83414
0
LINE
8
BLACK
6
CONTINUOUS
10
5.11307
20
-3.83414
11
5.1084
21
-3.84691
0
LINE
8
BLACK
6
CONTINUOUS
10
5.1084
20
-3.84691
11
5.10229
21
-3.85906
0
LINE
8
BLACK
6
CONTINUOUS
10
5.10229
20
-3.85906
11
5.09482
21
-3.87042
0
LINE
8
BLACK
6
CONTINUOUS
10
5.09482
20
-3.87042
11
5.0861
21
-3.88085
0
LINE
8
BLACK
6
CONTINUOUS
10
5.0861
20
-3.88085
11
5.07624
21
-3.89021
0
LINE
8
BLACK
6
CONTINUOUS
10
5.07624
20
-3.89021
11
5.06536
21
-3.89838
0
LINE
8
BLACK
6
CONTINUOUS
10
5.06536
20
-3.89838
11
5.05362
21
-3.90524
0
LINE
8
BLACK
6
CONTINUOUS
10
5.05362
20
-3.90524
11
5.04117
21
-3.9107
0
LINE
8
BLACK
6
CONTINUOUS
10
5.04117
20
-3.9107
11
5.02817
21
-3.9147
0
LINE
8
BLACK
6
CONTINUOUS
10
5.02817
20
-3.9147
11
5.0148
21
-3.91718
0
LINE
8
BLACK
6
CONTINUOUS
10
5.0148
20
-3.91718
11
5.00124
21
-3.9181
0
LINE
8
BLACK
6
CONTINUOUS
10
5.00124
20
-3.9181
11
4.98765
21
-3.91746
0
LINE
8
BLACK
6
CONTINUOUS
10
4.98765
20
-3.91746
11
4.97424
21
-3.91527
0
LINE
8
BLACK
6
CONTINUOUS
10
4.97424
20
-3.91527
11
4.96116
21
-3.91154
0
LINE
8
BLACK
6
CONTINUOUS
10
4.96116
20
-3.91154
11
4.94859
21
-3.90634
0
LINE
8
BLACK
6
CONTINUOUS
10
4.94859
20
-3.90634
11
4.93671
21
-3.89972
0
LINE
8
BLACK
6
CONTINUOUS
10
4.93671
20
-3.89972
11
4.92567
21
-3.89179
0
LINE
8
BLACK
6
CONTINUOUS
10
4.92567
20
-3.89179
11
4.91561
21
-3.88264
0
LINE
8
BLACK
6
CONTINUOUS
10
4.91561
20
-3.88264
11
4.90667
21
-3.87239
0
LINE
8
BLACK
6
CONTINUOUS
10
4.90667
20
-3.87239
11
4.89897
21
-3.86118
0
LINE
8
BLACK
6
CONTINUOUS
10
4.89897
20
-3.86118
11
4.89261
21
-3.84917
0
LINE
8
BLACK
6
CONTINUOUS
10
4.89261
20
-3.84917
11
4.88767
21
-3.8365
0
LINE
8
BLACK
6
CONTINUOUS
10
4.88767
20
-3.8365
11
4.88422
21
-3.82335
0
LINE
8
BLACK
6
CONTINUOUS
10
4.88422
20
-3.82335
11
4.8823
21
-3.80988
0
LINE
8
BLACK
6
CONTINUOUS
10
4.8823
20
-3.80988
11
4.88195
21
-3.79629
0
LINE
8
BLACK
6
CONTINUOUS
10
4.88195
20
-3.79629
11
4.88316
21
-3.78275
0
LINE
8
BLACK
6
CONTINUOUS
10
4.88316
20
-3.78275
11
4.88591
21
-3.76943
0
LINE
8
BLACK
6
CONTINUOUS
10
4.88591
20
-3.76943
11
4.89018
21
-3.75652
0
LINE
8
BLACK
6
CONTINUOUS
10
4.89018
20
-3.75652
11
4.89591
21
-3.74419
0
LINE
8
BLACK
6
CONTINUOUS
10
4.89591
20
-3.74419
11
4.90301
21
-3.73259
0
LINE
8
BLACK
6
CONTINUOUS
10
4.90301
20
-3.73259
11
4.9114
21
-3.72189
0
LINE
8
BLACK
6
CONTINUOUS
10
4.9114
20
-3.72189
11
4.92097
21
-3.71223
0
LINE
8
BLACK
6
CONTINUOUS
10
4.92097
20
-3.71223
11
4.93158
21
-3.70373
0
LINE
8
BLACK
6
CONTINUOUS
10
4.93158
20
-3.70373
11
4.9431
21
-3.6965
0
LINE
8
BLACK
6
CONTINUOUS
10
4.9431
20
-3.6965
11
4.95537
21
-3.69065
0
LINE
8
BLACK
6
CONTINUOUS
10
4.95537
20
-3.69065
11
4.96824
21
-3.68624
0
LINE
8
BLACK
6
CONTINUOUS
10
4.96824
20
-3.68624
11
4.98152
21
-3.68334
0
LINE
8
BLACK
6
CONTINUOUS
10
4.98152
20
-3.68334
11
4.99505
21
-3.68199
0
LINE
8
BLACK
6
CONTINUOUS
10
4.99505
20
-3.68199
11
5.00865
21
-3.68221
0
LINE
8
BLACK
6
CONTINUOUS
10
5.73
20
-3.88
11
5.67
21
-3.88
0
LINE
8
BLACK
6
CONTINUOUS
10
5.67
20
-3.88
11
5.67
21
-3.82
0
LINE
8
BLACK
6
CONTINUOUS
10
5.67
20
-3.82
11
5.73
21
-3.82
0
LINE
8
BLACK
6
CONTINUOUS
10
5.73
20
-3.82
11
5.73
21
-3.88
0
LINE
8
BLACK
6
CONTINUOUS
10
5.83
20
-3.88
11
5.77
21
-3.88
0
LINE
8
BLACK
6
CONTINUOUS
10
5.77
20
-3.88
11
5.77
21
-3.82
0
LINE
8
BLACK
6
CONTINUOUS
10
5.77
20
-3.82
11
5.83
21
-3.82
0
LINE
8
BLACK
6
CONTINUOUS
10
5.83
20
-3.82
11
5.83
21
-3.88
0
LINE
8
BLACK
6
CONTINUOUS
10
5.93
20
-3.88
11
5.87
21
-3.88
0
LINE
8
BLACK
6
CONTINUOUS
10
5.87
20
-3.88
11
5.87
21
-3.82
0
LINE
8
BLACK
6
CONTINUOUS
10
5.87
20
-3.82
11
5.93
21
-3.82
0
LINE
8
BLACK
6
CONTINUOUS
10
5.93
20
-3.82
11
5.93
21
-3.88
0
LINE
8
BLACK
6
CONTINUOUS
10
5.33
20
-3.83
11
5.27
21
-3.83
0
LINE
8
BLACK
6
CONTINUOUS
10
5.27
20
-3.83
11
5.27
21
-3.77
0
LINE
8
BLACK
6
CONTINUOUS
10
5.27
20
-3.77
11
5.33
21
-3.77
0
LINE
8
BLACK
6
CONTINUOUS
10
5.33
20
-3.77
11
5.33
21
-3.83
0
LINE
8
BLACK
6
CONTINUOUS
10
5.43
20
-3.83
11
5.37
21
-3.83
0
LINE
8
BLACK
6
CONTINUOUS
10
5.37
20
-3.83
11
5.37
21
-3.77
0
LINE
8
BLACK
6
CONTINUOUS
10
5.37
20
-3.77
11
5.43
21
-3.77
0
LINE
8
BLACK
6
CONTINUOUS
10
5.43
20
-3.77
11
5.43
21
-3.83
0
LINE
8
BLACK
6
CONTINUOUS
10
5.53
20
-3.83
11
5.47
21
-3.83
0
LINE
8
BLACK
6
CONTINUOUS
10
5.47
20
-3.83
11
5.47
21
-3.77
0
LINE
8
BLACK
6
CONTINUOUS
10
5.47
20
-3.77
11
5.53
21
-3.77
0
LINE
8
BLACK
6
CONTINUOUS
10
5.53
20
-3.77
11
5.53
21
-3.83
0
LINE
8
BLACK
6
CONTINUOUS
10
5.73
20
-3.78
11
5.67
21
-3.78
0
LINE
8
BLACK
6
CONTINUOUS
10
5.67
20
-3.78
11
5.67
21
-3.72
0
LINE
8
BLACK
6
CONTINUOUS
10
5.67
20
-3.72
11
5.73
21
-3.72
0
LINE
8
BLACK
6
CONTINUOUS
10
5.73
20
-3.72
11
5.73
21
-3.78
0
LINE
8
BLACK
6
CONTINUOUS
10
5.83
20
-3.78
11
5.77
21
-3.78
0
LINE
8
BLACK
6
CONTINUOUS
10
5.77
20
-3.78
11
5.77
21
-3.72
0
LINE
8
BLACK
6
CONTINUOUS
10
5.77
20
-3.72
11
5.83
21
-3.72
0
LINE
8
BLACK
6
CONTINUOUS
10
5.83
20
-3.72
11
5.83
21
-3.78
0
LINE
8
BLACK
6
CONTINUOUS
10
5.93
20
-3.78
11
5.87
21
-3.78
0
LINE
8
BLACK
6
CONTINUOUS
10
5.87
20
-3.78
11
5.87
21
-3.72
0
LINE
8
BLACK
6
CONTINUOUS
10
5.87
20
-3.72
11
5.93
21
-3.72
0
LINE
8
BLACK
6
CONTINUOUS
10
5.93
20
-3.72
11
5.93
21
-3.78
0
LINE
8
BLACK
6
CONTINUOUS
10
6.28
20
-3.53
11
6.22
21
-3.53
0
LINE
8
BLACK
6
CONTINUOUS
10
6.22
20
-3.53
11
6.22
21
-3.47
0
LINE
8
BLACK
6
CONTINUOUS
10
6.22
20
-3.47
11
6.28
21
-3.47
0
LINE
8
BLACK
6
CONTINUOUS
10
6.28
20
-3.47
11
6.28
21
-3.53
0
LINE
8
BLACK
6
CONTINUOUS
10
6.18
20
-3.53
11
6.12
21
-3.53
0
LINE
8
BLACK
6
CONTINUOUS
10
6.12
20
-3.53
11
6.12
21
-3.47
0
LINE
8
BLACK
6
CONTINUOUS
10
6.12
20
-3.47
11
6.18
21
-3.47
0
LINE
8
BLACK
6
CONTINUOUS
10
6.18
20
-3.47
11
6.18
21
-3.53
0
LINE
8
BLACK
6
CONTINUOUS
10
5.08
20
-3.53
11
5.02
21
-3.53
0
LINE
8
BLACK
6
CONTINUOUS
10
5.02
20
-3.53
11
5.02
21
-3.47
0
LINE
8
BLACK
6
CONTINUOUS
10
5.02
20
-3.47
11
5.08
21
-3.47
0
LINE
8
BLACK
6
CONTINUOUS
10
5.08
20
-3.47
11
5.08
21
-3.53
0
LINE
8
BLACK
6
CONTINUOUS
10
4.98
20
-3.53
11
4.92
21
-3.53
0
LINE
8
BLACK
6
CONTINUOUS
10
4.92
20
-3.53
11
4.92
21
-3.47
0
LINE
8
BLACK
6
CONTINUOUS
10
4.92
20
-3.47
11
4.98
21
-3.47
0
LINE
8
BLACK
6
CONTINUOUS
10
4.98
20
-3.47
11
4.98
21
-3.53
0
LINE
8
BLACK
6
CONTINUOUS
10
5.08
20
-3.43
11
5.02
21
-3.43
0
LINE
8
BLACK
6
CONTINUOUS
10
5.02
20
-3.43
11
5.02
21
-3.37
0
LINE
8
BLACK
6
CONTINUOUS
10
5.02
20
-3.37
11
5.08
21
-3.37
0
LINE
8
BLACK
6
CONTINUOUS
10
5.08
20
-3.37
11
5.08
21
-3.43
0
LINE
8
BLACK
6
CONTINUOUS
10
4.98
20
-3.43
11
4.92
21
-3.43
0
LINE
8
BLACK
6
CONTINUOUS
10
4.92
20
-3.43
11
4.92
21
-3.37
0
LINE
8
BLACK
6
CONTINUOUS
10
4.92
20
-3.37
11
4.98
21
-3.37
0
LINE
8
BLACK
6
CONTINUOUS
10
4.98
20
-3.37
11
4.98
21
-3.43
0
LINE
8
BLACK
6
CONTINUOUS
10
6.28
20
-3.43
11
6.22
21
-3.43
0
LINE
8
BLACK
6
CONTINUOUS
10
6.22
20
-3.43
11
6.22
21
-3.37
0
LINE
8
BLACK
6
CONTINUOUS
10
6.22
20
-3.37
11
6.28
21
-3.37
0
LINE
8
BLACK
6
CONTINUOUS
10
6.28
20
-3.37
11
6.28
21
-3.43
0
LINE
8
BLACK
6
CONTINUOUS
10
6.18
20
-3.43
11
6.12
21
-3.43
0
LINE
8
BLACK
6
CONTINUOUS
10
6.12
20
-3.43
11
6.12
21
-3.37
0
LINE
8
BLACK
6
CONTINUOUS
10
6.12
20
-3.37
11
6.18
21
-3.37
0
LINE
8
BLACK
6
CONTINUOUS
10
6.18
20
-3.37
11
6.18
21
-3.43
0
LINE
8
BLACK
6
CONTINUOUS
10
5.08
20
-3.33
11
5.02
21
-3.33
0
LINE
8
BLACK
6
CONTINUOUS
10
5.02
20
-3.33
11
5.02
21
-3.27
0
LINE
8
BLACK
6
CONTINUOUS
10
5.02
20
-3.27
11
5.08
21
-3.27
0
LINE
8
BLACK
6
CONTINUOUS
10
5.08
20
-3.27
11
5.08
21
-3.33
0
LINE
8
BLACK
6
CONTINUOUS
10
4.98
20
-3.33
11
4.92
21
-3.33
0
LINE
8
BLACK
6
CONTINUOUS
10
4.92
20
-3.33
11
4.92
21
-3.27
0
LINE
8
BLACK
6
CONTINUOUS
10
4.92
20
-3.27
11
4.98
21
-3.27
0
LINE
8
BLACK
6
CONTINUOUS
10
4.98
20
-3.27
11
4.98
21
-3.33
0
LINE
8
BLACK
6
CONTINUOUS
10
6.18
20
-3.33
11
6.12
21
-3.33
0
LINE
8
BLACK
6
CONTINUOUS
10
6.12
20
-3.33
11
6.12
21
-3.27
0
LINE
8
BLACK
6
CONTINUOUS
10
6.12
20
-3.27
11
6.18
21
-3.27
0
LINE
8
BLACK
6
CONTINUOUS
10
6.18
20
-3.27
11
6.18
21
-3.33
0
LINE
8
BLACK
6
CONTINUOUS
10
6.28
20
-3.33
11
6.22
21
-3.33
0
LINE
8
BLACK
6
CONTINUOUS
10
6.22
20
-3.33
11
6.22
21
-3.27
0
LINE
8
BLACK
6
CONTINUOUS
10
6.22
20
-3.27
11
6.28
21
-3.27
0
LINE
8
BLACK
6
CONTINUOUS
10
6.28
20
-3.27
11
6.28
21
-3.33
0
LINE
8
BLACK
6
CONTINUOUS
10
6.20865
20
-2.88221
11
6.22213
21
-2.88398
0
LINE
8
BLACK
6
CONTINUOUS
10
6.22213
20
-2.88398
11
6.23532
21
-2.88729
0
LINE
8
BLACK
6
CONTINUOUS
10
6.23532
20
-2.88729
11
6.24804
21
-2.8921
0
LINE
8
BLACK
6
CONTINUOUS
10
6.24804
20
-2.8921
11
6.26012
21
-2.89834
0
LINE
8
BLACK
6
CONTINUOUS
10
6.26012
20
-2.89834
11
6.27141
21
-2.90592
0
LINE
8
BLACK
6
CONTINUOUS
10
6.27141
20
-2.90592
11
6.28175
21
-2.91475
0
LINE
8
BLACK
6
CONTINUOUS
10
6.28175
20
-2.91475
11
6.29101
21
-2.92471
0
LINE
8
BLACK
6
CONTINUOUS
10
6.29101
20
-2.92471
11
6.29906
21
-2.93567
0
LINE
8
BLACK
6
CONTINUOUS
10
6.29906
20
-2.93567
11
6.30579
21
-2.94748
0
LINE
8
BLACK
6
CONTINUOUS
10
6.30579
20
-2.94748
11
6.31113
21
-2.95999
0
LINE
8
BLACK
6
CONTINUOUS
10
6.31113
20
-2.95999
11
6.31499
21
-2.97303
0
LINE
8
BLACK
6
CONTINUOUS
10
6.31499
20
-2.97303
11
6.31733
21
-2.98642
0
LINE
8
BLACK
6
CONTINUOUS
10
6.31733
20
-2.98642
11
6.31811
21
-3
0
LINE
8
BLACK
6
CONTINUOUS
10
6.31811
20
-3
11
6.31788
21
-3.00742
0
LINE
8
BLACK
6
CONTINUOUS
10
6.31788
20
-3.00742
11
6.31624
21
-3.02092
0
LINE
8
BLACK
6
CONTINUOUS
10
6.31624
20
-3.02092
11
6.31307
21
-3.03414
0
LINE
8
BLACK
6
CONTINUOUS
10
6.31307
20
-3.03414
11
6.3084
21
-3.04691
0
LINE
8
BLACK
6
CONTINUOUS
10
6.3084
20
-3.04691
11
6.30229
21
-3.05906
0
LINE
8
BLACK
6
CONTINUOUS
10
6.30229
20
-3.05906
11
6.29482
21
-3.07042
0
LINE
8
BLACK
6
CONTINUOUS
10
6.29482
20
-3.07042
11
6.2861
21
-3.08085
0
LINE
8
BLACK
6
CONTINUOUS
10
6.2861
20
-3.08085
11
6.27624
21
-3.09021
0
LINE
8
BLACK
6
CONTINUOUS
10
6.27624
20
-3.09021
11
6.26536
21
-3.09838
0
LINE
8
BLACK
6
CONTINUOUS
10
6.26536
20
-3.09838
11
6.25362
21
-3.10524
0
LINE
8
BLACK
6
CONTINUOUS
10
6.25362
20
-3.10524
11
6.24117
21
-3.1107
0
LINE
8
BLACK
6
CONTINUOUS
10
6.24117
20
-3.1107
11
6.22817
21
-3.1147
0
LINE
8
BLACK
6
CONTINUOUS
10
6.22817
20
-3.1147
11
6.2148
21
-3.11718
0
LINE
8
BLACK
6
CONTINUOUS
10
6.2148
20
-3.11718
11
6.20124
21
-3.1181
0
LINE
8
BLACK
6
CONTINUOUS
10
6.20124
20
-3.1181
11
6.18765
21
-3.11746
0
LINE
8
BLACK
6
CONTINUOUS
10
6.18765
20
-3.11746
11
6.17424
21
-3.11527
0
LINE
8
BLACK
6
CONTINUOUS
10
6.17424
20
-3.11527
11
6.16116
21
-3.11154
0
LINE
8
BLACK
6
CONTINUOUS
10
6.16116
20
-3.11154
11
6.14859
21
-3.10634
0
LINE
8
BLACK
6
CONTINUOUS
10
6.14859
20
-3.10634
11
6.13671
21
-3.09972
0
LINE
8
BLACK
6
CONTINUOUS
10
6.13671
20
-3.09972
11
6.12567
21
-3.09179
0
LINE
8
BLACK
6
CONTINUOUS
10
6.12567
20
-3.09179
11
6.11561
21
-3.08264
0
LINE
8
BLACK
6
CONTINUOUS
10
6.11561
20
-3.08264
11
6.10667
21
-3.07239
0
LINE
8
BLACK
6
CONTINUOUS
10
6.10667
20
-3.07239
11
6.09897
21
-3.06118
0
LINE
8
BLACK
6
CONTINUOUS
10
6.09897
20
-3.06118
11
6.09261
21
-3.04917
0
LINE
8
BLACK
6
CONTINUOUS
10
6.09261
20
-3.04917
11
6.08767
21
-3.0365
0
LINE
8
BLACK
6
CONTINUOUS
10
6.08767
20
-3.0365
11
6.08422
21
-3.02335
0
LINE
8
BLACK
6
CONTINUOUS
10
6.08422
20
-3.02335
11
6.0823
21
-3.00988
0
LINE
8
BLACK
6
CONTINUOUS
10
6.0823
20
-3.00988
11
6.08195
21
-2.99629
0
LINE
8
BLACK
6
CONTINUOUS
10
6.08195
20
-2.99629
11
6.08316
21
-2.98275
0
LINE
8
BLACK
6
CONTINUOUS
10
6.08316
20
-2.98275
11
6.08591
21
-2.96943
0
LINE
8
BLACK
6
CONTINUOUS
10
6.08591
20
-2.96943
11
6.09018
21
-2.95652
0
LINE
8
BLACK
6
CONTINUOUS
10
6.09018
20
-2.95652
11
6.09591
21
-2.94419
0
LINE
8
BLACK
6
CONTINUOUS
10
6.09591
20
-2.94419
11
6.10301
21
-2.93259
0
LINE
8
BLACK
6
CONTINUOUS
10
6.10301
20
-2.93259
11
6.1114
21
-2.92189
0
LINE
8
BLACK
6
CONTINUOUS
10
6.1114
20
-2.92189
11
6.12097
21
-2.91223
0
LINE
8
BLACK
6
CONTINUOUS
10
6.12097
20
-2.91223
11
6.13158
21
-2.90373
0
LINE
8
BLACK
6
CONTINUOUS
10
6.13158
20
-2.90373
11
6.1431
21
-2.8965
0
LINE
8
BLACK
6
CONTINUOUS
10
6.1431
20
-2.8965
11
6.15537
21
-2.89065
0
LINE
8
BLACK
6
CONTINUOUS
10
6.15537
20
-2.89065
11
6.16824
21
-2.88624
0
LINE
8
BLACK
6
CONTINUOUS
10
6.16824
20
-2.88624
11
6.18152
21
-2.88334
0
LINE
8
BLACK
6
CONTINUOUS
10
6.18152
20
-2.88334
11
6.19505
21
-2.88199
0
LINE
8
BLACK
6
CONTINUOUS
10
6.19505
20
-2.88199
11
6.20865
21
-2.88221
0
LINE
8
BLACK
6
CONTINUOUS
10
5.00865
20
-2.88221
11
5.02213
21
-2.88398
0
LINE
8
BLACK
6
CONTINUOUS
10
5.02213
20
-2.88398
11
5.03532
21
-2.88729
0
LINE
8
BLACK
6
CONTINUOUS
10
5.03532
20
-2.88729
11
5.04804
21
-2.8921
0
LINE
8
BLACK
6
CONTINUOUS
10
5.04804
20
-2.8921
11
5.06012
21
-2.89834
0
LINE
8
BLACK
6
CONTINUOUS
10
5.06012
20
-2.89834
11
5.07141
21
-2.90592
0
LINE
8
BLACK
6
CONTINUOUS
10
5.07141
20
-2.90592
11
5.08175
21
-2.91475
0
LINE
8
BLACK
6
CONTINUOUS
10
5.08175
20
-2.91475
11
5.09101
21
-2.92471
0
LINE
8
BLACK
6
CONTINUOUS
10
5.09101
20
-2.92471
11
5.09906
21
-2.93567
0
LINE
8
BLACK
6
CONTINUOUS
10
5.09906
20
-2.93567
11
5.10579
21
-2.94748
0
LINE
8
BLACK
6
CONTINUOUS
10
5.10579
20
-2.94748
11
5.11113
21
-2.95999
0
LINE
8
BLACK
6
CONTINUOUS
10
5.11113
20
-2.95999
11
5.11499
21
-2.97303
0
LINE
8
BLACK
6
CONTINUOUS
10
5.11499
20
-2.97303
11
5.11733
21
-2.98642
0
LINE
8
BLACK
6
CONTINUOUS
10
5.11733
20
-2.98642
11
5.11811
21
-3
0
LINE
8
BLACK
6
CONTINUOUS
10
5.11811
20
-3
11
5.11788
21
-3.00742
0
LINE
8
BLACK
6
CONTINUOUS
10
5.11788
20
-3.00742
11
5.11624
21
-3.02092
0
LINE
8
BLACK
6
CONTINUOUS
10
5.11624
20
-3.02092
11
5.11307
21
-3.03414
0
LINE
8
BLACK
6
CONTINUOUS
10
5.11307
20
-3.03414
11
5.1084
21
-3.04691
0
LINE
8
BLACK
6
CONTINUOUS
10
5.1084
20
-3.04691
11
5.10229
21
-3.05906
0
LINE
8
BLACK
6
CONTINUOUS
10
5.10229
20
-3.05906
11
5.09482
21
-3.07042
0
LINE
8
BLACK
6
CONTINUOUS
10
5.09482
20
-3.07042
11
5.0861
21
-3.08085
0
LINE
8
BLACK
6
CONTINUOUS
10
5.0861
20
-3.08085
11
5.07624
21
-3.09021
0
LINE
8
BLACK
6
CONTINUOUS
10
5.07624
20
-3.09021
11
5.06536
21
-3.09838
0
LINE
8
BLACK
6
CONTINUOUS
10
5.06536
20
-3.09838
11
5.05362
21
-3.10524
0
LINE
8
BLACK
6
CONTINUOUS
10
5.05362
20
-3.10524
11
5.04117
21
-3.1107
0
LINE
8
BLACK
6
CONTINUOUS
10
5.04117
20
-3.1107
11
5.02817
21
-3.1147
0
LINE
8
BLACK
6
CONTINUOUS
10
5.02817
20
-3.1147
11
5.0148
21
-3.11718
0
LINE
8
BLACK
6
CONTINUOUS
10
5.0148
20
-3.11718
11
5.00124
21
-3.1181
0
LINE
8
BLACK
6
CONTINUOUS
10
5.00124
20
-3.1181
11
4.98765
21
-3.11746
0
LINE
8
BLACK
6
CONTINUOUS
10
4.98765
20
-3.11746
11
4.97424
21
-3.11527
0
LINE
8
BLACK
6
CONTINUOUS
10
4.97424
20
-3.11527
11
4.96116
21
-3.11154
0
LINE
8
BLACK
6
CONTINUOUS
10
4.96116
20
-3.11154
11
4.94859
21
-3.10634
0
LINE
8
BLACK
6
CONTINUOUS
10
4.94859
20
-3.10634
11
4.93671
21
-3.09972
0
LINE
8
BLACK
6
CONTINUOUS
10
4.93671
20
-3.09972
11
4.92567
21
-3.09179
0
LINE
8
BLACK
6
CONTINUOUS
10
4.92567
20
-3.09179
11
4.91561
21
-3.08264
0
LINE
8
BLACK
6
CONTINUOUS
10
4.91561
20
-3.08264
11
4.90667
21
-3.07239
0
LINE
8
BLACK
6
CONTINUOUS
10
4.90667
20
-3.07239
11
4.89897
21
-3.06118
0
LINE
8
BLACK
6
CONTINUOUS
10
4.89897
20
-3.06118
11
4.89261
21
-3.04917
0
LINE
8
BLACK
6
CONTINUOUS
10
4.89261
20
-3.04917
11
4.88767
21
-3.0365
0
LINE
8
BLACK
6
CONTINUOUS
10
4.88767
20
-3.0365
11
4.88422
21
-3.02335
0
LINE
8
BLACK
6
CONTINUOUS
10
4.88422
20
-3.02335
11
4.8823
21
-3.00988
0
LINE
8
BLACK
6
CONTINUOUS
10
4.8823
20
-3.00988
11
4.88195
21
-2.99629
0
LINE
8
BLACK
6
CONTINUOUS
10
4.88195
20
-2.99629
11
4.88316
21
-2.98275
0
LINE
8
BLACK
6
CONTINUOUS
10
4.88316
20
-2.98275
11
4.88591
21
-2.96943
0
LINE
8
BLACK
6
CONTINUOUS
10
4.88591
20
-2.96943
11
4.89018
21
-2.95652
0
LINE
8
BLACK
6
CONTINUOUS
10
4.89018
20
-2.95652
11
4.89591
21
-2.94419
0
LINE
8
BLACK
6
CONTINUOUS
10
4.89591
20
-2.94419
11
4.90301
21
-2.93259
0
LINE
8
BLACK
6
CONTINUOUS
10
4.90301
20
-2.93259
11
4.9114
21
-2.92189
0
LINE
8
BLACK
6
CONTINUOUS
10
4.9114
20
-2.92189
11
4.92097
21
-2.91223
0
LINE
8
BLACK
6
CONTINUOUS
10
4.92097
20
-2.91223
11
4.93158
21
-2.90373
0
LINE
8
BLACK
6
CONTINUOUS
10
4.93158
20
-2.90373
11
4.9431
21
-2.8965
0
LINE
8
BLACK
6
CONTINUOUS
10
4.9431
20
-2.8965
11
4.95537
21
-2.89065
0
LINE
8
BLACK
6
CONTINUOUS
10
4.95537
20
-2.89065
11
4.96824
21
-2.88624
0
LINE
8
BLACK
6
CONTINUOUS
10
4.96824
20
-2.88624
11
4.98152
21
-2.88334
0
LINE
8
BLACK
6
CONTINUOUS
10
4.98152
20
-2.88334
11
4.99505
21
-2.88199
0
LINE
8
BLACK
6
CONTINUOUS
10
4.99505
20
-2.88199
11
5.00865
21
-2.88221
0
LINE
8
BLACK
6
CONTINUOUS
10
5.93
20
-3.03
11
5.87
21
-3.03
0
LINE
8
BLACK
6
CONTINUOUS
10
5.87
20
-3.03
11
5.87
21
-2.97
0
LINE
8
BLACK
6
CONTINUOUS
10
5.87
20
-2.97
11
5.93
21
-2.97
0
LINE
8
BLACK
6
CONTINUOUS
10
5.93
20
-2.97
11
5.93
21
-3.03
0
LINE
8
BLACK
6
CONTINUOUS
10
5.33
20
-3.03
11
5.27
21
-3.03
0
LINE
8
BLACK
6
CONTINUOUS
10
5.27
20
-3.03
11
5.27
21
-2.97
0
LINE
8
BLACK
6
CONTINUOUS
10
5.27
20
-2.97
11
5.33
21
-2.97
0
LINE
8
BLACK
6
CONTINUOUS
10
5.33
20
-2.97
11
5.33
21
-3.03
0
LINE
8
BLACK
6
CONTINUOUS
10
5.83
20
-3.03
11
5.77
21
-3.03
0
LINE
8
BLACK
6
CONTINUOUS
10
5.77
20
-3.03
11
5.77
21
-2.97
0
LINE
8
BLACK
6
CONTINUOUS
10
5.77
20
-2.97
11
5.83
21
-2.97
0
LINE
8
BLACK
6
CONTINUOUS
10
5.83
20
-2.97
11
5.83
21
-3.03
0
LINE
8
BLACK
6
CONTINUOUS
10
5.73
20
-3.03
11
5.67
21
-3.03
0
LINE
8
BLACK
6
CONTINUOUS
10
5.67
20
-3.03
11
5.67
21
-2.97
0
LINE
8
BLACK
6
CONTINUOUS
10
5.67
20
-2.97
11
5.73
21
-2.97
0
LINE
8
BLACK
6
CONTINUOUS
10
5.73
20
-2.97
11
5.73
21
-3.03
0
LINE
8
BLACK
6
CONTINUOUS
10
5.53
20
-3.03
11
5.47
21
-3.03
0
LINE
8
BLACK
6
CONTINUOUS
10
5.47
20
-3.03
11
5.47
21
-2.97
0
LINE
8
BLACK
6
CONTINUOUS
10
5.47
20
-2.97
11
5.53
21
-2.97
0
LINE
8
BLACK
6
CONTINUOUS
10
5.53
20
-2.97
11
5.53
21
-3.03
0
LINE
8
BLACK
6
CONTINUOUS
10
5.43
20
-3.03
11
5.37
21
-3.03
0
LINE
8
BLACK
6
CONTINUOUS
10
5.37
20
-3.03
11
5.37
21
-2.97
0
LINE
8
BLACK
6
CONTINUOUS
10
5.37
20
-2.97
11
5.43
21
-2.97
0
LINE
8
BLACK
6
CONTINUOUS
10
5.43
20
-2.97
11
5.43
21
-3.03
  0
ENDSEC
  0
EOF
