  0
SECTION
  2
HEADER
  9
$ANGBASE
  50
0.0
  9
$ANGDIR
  70
1
  9
$MEASUREMENT
  70
0
  0
ENDSEC
  0
SECTION
  2
TABLES
  0
TABLE
  2
LTYPE
  70
4
  0
LTYPE
  5
40F
  2
CONTINUOUS
  70
0
  3
Solid line
  72
65
  73
0
  40
0.0
  0
LTYPE
  5
410
  2
DASHDOT
 70
0
  3
Dash Dot ____ _ ____ _
 72
65
 73
4
 40
2.0
 49
1.25
 49
-0.25
 49
0.25
 49
-0.25
  0
LTYPE
  5
411
  2
DASHED
 70
0
  3
Dashed __ __ __ __ __
 72
65
 73
2
 40
0.75
 49
0.5
 49
-0.25
  0
LTYPE
  5
43B
  2
DOTTED
 70
0
  3
Dotted .  .  .  .
 72
65
 73
2
 40
0.2
 49
0.0
 49
-0.2
  0
ENDTAB
  0
TABLE
  2
STYLE
  70
4
  0
STYLE
  2
KICAD
  70
0
  40
0
  41
1
  42
1
  50
0
  71
0
  3
isocp.shx
  0
STYLE
  2
KICADB
  70
0
  40
0
  41
1
  42
1
  50
0
  71
0
  3
isocp.shx
  0
STYLE
  2
KICADI
  70
0
  40
0
  41
1
  42
1
  50
15
  71
0
  3
isocp.shx
  0
STYLE
  2
KICADBI
  70
0
  40
0
  41
1
  42
1
  50
15
  71
0
  3
isocp.shx
  0
ENDTAB
  0
TABLE
  2
LAYER
  70
1
  0
LAYER
  2
BLACK
  70
0
  62
7
  6
CONTINUOUS
  0
ENDTAB
  0
ENDSEC
  0
SECTION
  2
ENTITIES
0
LINE
8
BLACK
6
CONTINUOUS
10
5.95038
20
-3.69711
11
5.95051
21
-3.69709
0
LINE
8
BLACK
6
CONTINUOUS
10
5.95051
20
-3.69709
11
5.95063
21
-3.69716
0
LINE
8
BLACK
6
CONTINUOUS
10
5.95063
20
-3.69716
11
5.95101
21
-3.69723
0
LINE
8
BLACK
6
CONTINUOUS
10
5.95101
20
-3.69723
11
5.9516
21
-3.69772
0
LINE
8
BLACK
6
CONTINUOUS
10
5.9516
20
-3.69772
11
5.95226
21
-3.6981
0
LINE
8
BLACK
6
CONTINUOUS
10
5.95226
20
-3.6981
11
5.95235
21
-3.69835
0
LINE
8
BLACK
6
CONTINUOUS
10
5.95235
20
-3.69835
11
5.95256
21
-3.69852
0
LINE
8
BLACK
6
CONTINUOUS
10
5.95256
20
-3.69852
11
5.95269
21
-3.69928
0
LINE
8
BLACK
6
CONTINUOUS
10
5.95269
20
-3.69928
11
5.95295
21
-3.7
0
LINE
8
BLACK
6
CONTINUOUS
10
5.95295
20
-3.7
11
5.95295
21
-3.9
0
LINE
8
BLACK
6
CONTINUOUS
10
5.95295
20
-3.9
11
5.95289
21
-3.90038
0
LINE
8
BLACK
6
CONTINUOUS
10
5.95289
20
-3.90038
11
5.95291
21
-3.90051
0
LINE
8
BLACK
6
CONTINUOUS
10
5.95291
20
-3.90051
11
5.95284
21
-3.90063
0
LINE
8
BLACK
6
CONTINUOUS
10
5.95284
20
-3.90063
11
5.95277
21
-3.90101
0
LINE
8
BLACK
6
CONTINUOUS
10
5.95277
20
-3.90101
11
5.95228
21
-3.9016
0
LINE
8
BLACK
6
CONTINUOUS
10
5.95228
20
-3.9016
11
5.9519
21
-3.90226
0
LINE
8
BLACK
6
CONTINUOUS
10
5.9519
20
-3.90226
11
5.95165
21
-3.90235
0
LINE
8
BLACK
6
CONTINUOUS
10
5.95165
20
-3.90235
11
5.95148
21
-3.90256
0
LINE
8
BLACK
6
CONTINUOUS
10
5.95148
20
-3.90256
11
5.95072
21
-3.90269
0
LINE
8
BLACK
6
CONTINUOUS
10
5.95072
20
-3.90269
11
5.95
21
-3.90295
0
LINE
8
BLACK
6
CONTINUOUS
10
5.95
20
-3.90295
11
5.65
21
-3.90295
0
LINE
8
BLACK
6
CONTINUOUS
10
5.65
20
-3.90295
11
5.64962
21
-3.90289
0
LINE
8
BLACK
6
CONTINUOUS
10
5.64962
20
-3.90289
11
5.64949
21
-3.90291
0
LINE
8
BLACK
6
CONTINUOUS
10
5.64949
20
-3.90291
11
5.64937
21
-3.90284
0
LINE
8
BLACK
6
CONTINUOUS
10
5.64937
20
-3.90284
11
5.64899
21
-3.90277
0
LINE
8
BLACK
6
CONTINUOUS
10
5.64899
20
-3.90277
11
5.6484
21
-3.90228
0
LINE
8
BLACK
6
CONTINUOUS
10
5.6484
20
-3.90228
11
5.64774
21
-3.9019
0
LINE
8
BLACK
6
CONTINUOUS
10
5.64774
20
-3.9019
11
5.64765
21
-3.90165
0
LINE
8
BLACK
6
CONTINUOUS
10
5.64765
20
-3.90165
11
5.64744
21
-3.90148
0
LINE
8
BLACK
6
CONTINUOUS
10
5.64744
20
-3.90148
11
5.64731
21
-3.90072
0
LINE
8
BLACK
6
CONTINUOUS
10
5.64731
20
-3.90072
11
5.64705
21
-3.9
0
LINE
8
BLACK
6
CONTINUOUS
10
5.64705
20
-3.9
11
5.64705
21
-3.7
0
LINE
8
BLACK
6
CONTINUOUS
10
5.64705
20
-3.7
11
5.64711
21
-3.69962
0
LINE
8
BLACK
6
CONTINUOUS
10
5.64711
20
-3.69962
11
5.64709
21
-3.69949
0
LINE
8
BLACK
6
CONTINUOUS
10
5.64709
20
-3.69949
11
5.64716
21
-3.69937
0
LINE
8
BLACK
6
CONTINUOUS
10
5.64716
20
-3.69937
11
5.64723
21
-3.69899
0
LINE
8
BLACK
6
CONTINUOUS
10
5.64723
20
-3.69899
11
5.64772
21
-3.6984
0
LINE
8
BLACK
6
CONTINUOUS
10
5.64772
20
-3.6984
11
5.6481
21
-3.69774
0
LINE
8
BLACK
6
CONTINUOUS
10
5.6481
20
-3.69774
11
5.64835
21
-3.69765
0
LINE
8
BLACK
6
CONTINUOUS
10
5.64835
20
-3.69765
11
5.64852
21
-3.69744
0
LINE
8
BLACK
6
CONTINUOUS
10
5.64852
20
-3.69744
11
5.64928
21
-3.69731
0
LINE
8
BLACK
6
CONTINUOUS
10
5.64928
20
-3.69731
11
5.65
21
-3.69705
0
LINE
8
BLACK
6
CONTINUOUS
10
5.65
20
-3.69705
11
5.95
21
-3.69705
0
LINE
8
BLACK
6
CONTINUOUS
10
5.95
20
-3.69705
11
5.95038
21
-3.69711
0
LINE
8
BLACK
6
CONTINUOUS
10
5.65295
20
-3.70295
11
5.65295
21
-3.89705
0
LINE
8
BLACK
6
CONTINUOUS
10
5.65295
20
-3.89705
11
5.94705
21
-3.89705
0
LINE
8
BLACK
6
CONTINUOUS
10
5.94705
20
-3.89705
11
5.94705
21
-3.70295
0
LINE
8
BLACK
6
CONTINUOUS
10
5.94705
20
-3.70295
11
5.65295
21
-3.70295
0
LINE
8
BLACK
6
CONTINUOUS
10
5.55038
20
-3.74711
11
5.55051
21
-3.74709
0
LINE
8
BLACK
6
CONTINUOUS
10
5.55051
20
-3.74709
11
5.55063
21
-3.74716
0
LINE
8
BLACK
6
CONTINUOUS
10
5.55063
20
-3.74716
11
5.55101
21
-3.74723
0
LINE
8
BLACK
6
CONTINUOUS
10
5.55101
20
-3.74723
11
5.5516
21
-3.74772
0
LINE
8
BLACK
6
CONTINUOUS
10
5.5516
20
-3.74772
11
5.55226
21
-3.7481
0
LINE
8
BLACK
6
CONTINUOUS
10
5.55226
20
-3.7481
11
5.55235
21
-3.74835
0
LINE
8
BLACK
6
CONTINUOUS
10
5.55235
20
-3.74835
11
5.55256
21
-3.74852
0
LINE
8
BLACK
6
CONTINUOUS
10
5.55256
20
-3.74852
11
5.55269
21
-3.74928
0
LINE
8
BLACK
6
CONTINUOUS
10
5.55269
20
-3.74928
11
5.55295
21
-3.75
0
LINE
8
BLACK
6
CONTINUOUS
10
5.55295
20
-3.75
11
5.55295
21
-3.85
0
LINE
8
BLACK
6
CONTINUOUS
10
5.55295
20
-3.85
11
5.55289
21
-3.85038
0
LINE
8
BLACK
6
CONTINUOUS
10
5.55289
20
-3.85038
11
5.55291
21
-3.85051
0
LINE
8
BLACK
6
CONTINUOUS
10
5.55291
20
-3.85051
11
5.55284
21
-3.85063
0
LINE
8
BLACK
6
CONTINUOUS
10
5.55284
20
-3.85063
11
5.55277
21
-3.85101
0
LINE
8
BLACK
6
CONTINUOUS
10
5.55277
20
-3.85101
11
5.55228
21
-3.8516
0
LINE
8
BLACK
6
CONTINUOUS
10
5.55228
20
-3.8516
11
5.5519
21
-3.85226
0
LINE
8
BLACK
6
CONTINUOUS
10
5.5519
20
-3.85226
11
5.55165
21
-3.85235
0
LINE
8
BLACK
6
CONTINUOUS
10
5.55165
20
-3.85235
11
5.55148
21
-3.85256
0
LINE
8
BLACK
6
CONTINUOUS
10
5.55148
20
-3.85256
11
5.55072
21
-3.85269
0
LINE
8
BLACK
6
CONTINUOUS
10
5.55072
20
-3.85269
11
5.55
21
-3.85295
0
LINE
8
BLACK
6
CONTINUOUS
10
5.55
20
-3.85295
11
5.25
21
-3.85295
0
LINE
8
BLACK
6
CONTINUOUS
10
5.25
20
-3.85295
11
5.24962
21
-3.85289
0
LINE
8
BLACK
6
CONTINUOUS
10
5.24962
20
-3.85289
11
5.24949
21
-3.85291
0
LINE
8
BLACK
6
CONTINUOUS
10
5.24949
20
-3.85291
11
5.24937
21
-3.85284
0
LINE
8
BLACK
6
CONTINUOUS
10
5.24937
20
-3.85284
11
5.24899
21
-3.85277
0
LINE
8
BLACK
6
CONTINUOUS
10
5.24899
20
-3.85277
11
5.2484
21
-3.85228
0
LINE
8
BLACK
6
CONTINUOUS
10
5.2484
20
-3.85228
11
5.24774
21
-3.8519
0
LINE
8
BLACK
6
CONTINUOUS
10
5.24774
20
-3.8519
11
5.24765
21
-3.85165
0
LINE
8
BLACK
6
CONTINUOUS
10
5.24765
20
-3.85165
11
5.24744
21
-3.85148
0
LINE
8
BLACK
6
CONTINUOUS
10
5.24744
20
-3.85148
11
5.24731
21
-3.85072
0
LINE
8
BLACK
6
CONTINUOUS
10
5.24731
20
-3.85072
11
5.24705
21
-3.85
0
LINE
8
BLACK
6
CONTINUOUS
10
5.24705
20
-3.85
11
5.24705
21
-3.75
0
LINE
8
BLACK
6
CONTINUOUS
10
5.24705
20
-3.75
11
5.24711
21
-3.74962
0
LINE
8
BLACK
6
CONTINUOUS
10
5.24711
20
-3.74962
11
5.24709
21
-3.74949
0
LINE
8
BLACK
6
CONTINUOUS
10
5.24709
20
-3.74949
11
5.24716
21
-3.74937
0
LINE
8
BLACK
6
CONTINUOUS
10
5.24716
20
-3.74937
11
5.24723
21
-3.74899
0
LINE
8
BLACK
6
CONTINUOUS
10
5.24723
20
-3.74899
11
5.24772
21
-3.7484
0
LINE
8
BLACK
6
CONTINUOUS
10
5.24772
20
-3.7484
11
5.2481
21
-3.74774
0
LINE
8
BLACK
6
CONTINUOUS
10
5.2481
20
-3.74774
11
5.24835
21
-3.74765
0
LINE
8
BLACK
6
CONTINUOUS
10
5.24835
20
-3.74765
11
5.24852
21
-3.74744
0
LINE
8
BLACK
6
CONTINUOUS
10
5.24852
20
-3.74744
11
5.24928
21
-3.74731
0
LINE
8
BLACK
6
CONTINUOUS
10
5.24928
20
-3.74731
11
5.25
21
-3.74705
0
LINE
8
BLACK
6
CONTINUOUS
10
5.25
20
-3.74705
11
5.55
21
-3.74705
0
LINE
8
BLACK
6
CONTINUOUS
10
5.55
20
-3.74705
11
5.55038
21
-3.74711
0
LINE
8
BLACK
6
CONTINUOUS
10
5.25295
20
-3.75295
11
5.25295
21
-3.84705
0
LINE
8
BLACK
6
CONTINUOUS
10
5.25295
20
-3.84705
11
5.54705
21
-3.84705
0
LINE
8
BLACK
6
CONTINUOUS
10
5.54705
20
-3.84705
11
5.54705
21
-3.75295
0
LINE
8
BLACK
6
CONTINUOUS
10
5.54705
20
-3.75295
11
5.25295
21
-3.75295
0
LINE
8
BLACK
6
CONTINUOUS
10
6.30038
20
-3.24711
11
6.30051
21
-3.24709
0
LINE
8
BLACK
6
CONTINUOUS
10
6.30051
20
-3.24709
11
6.30063
21
-3.24716
0
LINE
8
BLACK
6
CONTINUOUS
10
6.30063
20
-3.24716
11
6.30101
21
-3.24723
0
LINE
8
BLACK
6
CONTINUOUS
10
6.30101
20
-3.24723
11
6.3016
21
-3.24772
0
LINE
8
BLACK
6
CONTINUOUS
10
6.3016
20
-3.24772
11
6.30226
21
-3.2481
0
LINE
8
BLACK
6
CONTINUOUS
10
6.30226
20
-3.2481
11
6.30235
21
-3.24835
0
LINE
8
BLACK
6
CONTINUOUS
10
6.30235
20
-3.24835
11
6.30256
21
-3.24852
0
LINE
8
BLACK
6
CONTINUOUS
10
6.30256
20
-3.24852
11
6.30269
21
-3.24928
0
LINE
8
BLACK
6
CONTINUOUS
10
6.30269
20
-3.24928
11
6.30295
21
-3.25
0
LINE
8
BLACK
6
CONTINUOUS
10
6.30295
20
-3.25
11
6.30295
21
-3.55
0
LINE
8
BLACK
6
CONTINUOUS
10
6.30295
20
-3.55
11
6.30289
21
-3.55038
0
LINE
8
BLACK
6
CONTINUOUS
10
6.30289
20
-3.55038
11
6.30291
21
-3.55051
0
LINE
8
BLACK
6
CONTINUOUS
10
6.30291
20
-3.55051
11
6.30284
21
-3.55063
0
LINE
8
BLACK
6
CONTINUOUS
10
6.30284
20
-3.55063
11
6.30277
21
-3.55101
0
LINE
8
BLACK
6
CONTINUOUS
10
6.30277
20
-3.55101
11
6.30228
21
-3.5516
0
LINE
8
BLACK
6
CONTINUOUS
10
6.30228
20
-3.5516
11
6.3019
21
-3.55226
0
LINE
8
BLACK
6
CONTINUOUS
10
6.3019
20
-3.55226
11
6.30165
21
-3.55235
0
LINE
8
BLACK
6
CONTINUOUS
10
6.30165
20
-3.55235
11
6.30148
21
-3.55256
0
LINE
8
BLACK
6
CONTINUOUS
10
6.30148
20
-3.55256
11
6.30072
21
-3.55269
0
LINE
8
BLACK
6
CONTINUOUS
10
6.30072
20
-3.55269
11
6.3
21
-3.55295
0
LINE
8
BLACK
6
CONTINUOUS
10
6.3
20
-3.55295
11
6.1
21
-3.55295
0
LINE
8
BLACK
6
CONTINUOUS
10
6.1
20
-3.55295
11
6.09962
21
-3.55289
0
LINE
8
BLACK
6
CONTINUOUS
10
6.09962
20
-3.55289
11
6.09949
21
-3.55291
0
LINE
8
BLACK
6
CONTINUOUS
10
6.09949
20
-3.55291
11
6.09937
21
-3.55284
0
LINE
8
BLACK
6
CONTINUOUS
10
6.09937
20
-3.55284
11
6.09899
21
-3.55277
0
LINE
8
BLACK
6
CONTINUOUS
10
6.09899
20
-3.55277
11
6.0984
21
-3.55228
0
LINE
8
BLACK
6
CONTINUOUS
10
6.0984
20
-3.55228
11
6.09774
21
-3.5519
0
LINE
8
BLACK
6
CONTINUOUS
10
6.09774
20
-3.5519
11
6.09765
21
-3.55165
0
LINE
8
BLACK
6
CONTINUOUS
10
6.09765
20
-3.55165
11
6.09744
21
-3.55148
0
LINE
8
BLACK
6
CONTINUOUS
10
6.09744
20
-3.55148
11
6.09731
21
-3.55072
0
LINE
8
BLACK
6
CONTINUOUS
10
6.09731
20
-3.55072
11
6.09705
21
-3.55
0
LINE
8
BLACK
6
CONTINUOUS
10
6.09705
20
-3.55
11
6.09705
21
-3.25
0
LINE
8
BLACK
6
CONTINUOUS
10
6.09705
20
-3.25
11
6.09711
21
-3.24962
0
LINE
8
BLACK
6
CONTINUOUS
10
6.09711
20
-3.24962
11
6.09709
21
-3.24949
0
LINE
8
BLACK
6
CONTINUOUS
10
6.09709
20
-3.24949
11
6.09716
21
-3.24937
0
LINE
8
BLACK
6
CONTINUOUS
10
6.09716
20
-3.24937
11
6.09723
21
-3.24899
0
LINE
8
BLACK
6
CONTINUOUS
10
6.09723
20
-3.24899
11
6.09772
21
-3.2484
0
LINE
8
BLACK
6
CONTINUOUS
10
6.09772
20
-3.2484
11
6.0981
21
-3.24774
0
LINE
8
BLACK
6
CONTINUOUS
10
6.0981
20
-3.24774
11
6.09835
21
-3.24765
0
LINE
8
BLACK
6
CONTINUOUS
10
6.09835
20
-3.24765
11
6.09852
21
-3.24744
0
LINE
8
BLACK
6
CONTINUOUS
10
6.09852
20
-3.24744
11
6.09928
21
-3.24731
0
LINE
8
BLACK
6
CONTINUOUS
10
6.09928
20
-3.24731
11
6.1
21
-3.24705
0
LINE
8
BLACK
6
CONTINUOUS
10
6.1
20
-3.24705
11
6.3
21
-3.24705
0
LINE
8
BLACK
6
CONTINUOUS
10
6.3
20
-3.24705
11
6.30038
21
-3.24711
0
LINE
8
BLACK
6
CONTINUOUS
10
6.10295
20
-3.25295
11
6.10295
21
-3.54705
0
LINE
8
BLACK
6
CONTINUOUS
10
6.10295
20
-3.54705
11
6.29705
21
-3.54705
0
LINE
8
BLACK
6
CONTINUOUS
10
6.29705
20
-3.54705
11
6.29705
21
-3.25295
0
LINE
8
BLACK
6
CONTINUOUS
10
6.29705
20
-3.25295
11
6.10295
21
-3.25295
0
LINE
8
BLACK
6
CONTINUOUS
10
5.10038
20
-3.24711
11
5.10051
21
-3.24709
0
LINE
8
BLACK
6
CONTINUOUS
10
5.10051
20
-3.24709
11
5.10063
21
-3.24716
0
LINE
8
BLACK
6
CONTINUOUS
10
5.10063
20
-3.24716
11
5.10101
21
-3.24723
0
LINE
8
BLACK
6
CONTINUOUS
10
5.10101
20
-3.24723
11
5.1016
21
-3.24772
0
LINE
8
BLACK
6
CONTINUOUS
10
5.1016
20
-3.24772
11
5.10226
21
-3.2481
0
LINE
8
BLACK
6
CONTINUOUS
10
5.10226
20
-3.2481
11
5.10235
21
-3.24835
0
LINE
8
BLACK
6
CONTINUOUS
10
5.10235
20
-3.24835
11
5.10256
21
-3.24852
0
LINE
8
BLACK
6
CONTINUOUS
10
5.10256
20
-3.24852
11
5.10269
21
-3.24928
0
LINE
8
BLACK
6
CONTINUOUS
10
5.10269
20
-3.24928
11
5.10295
21
-3.25
0
LINE
8
BLACK
6
CONTINUOUS
10
5.10295
20
-3.25
11
5.10295
21
-3.55
0
LINE
8
BLACK
6
CONTINUOUS
10
5.10295
20
-3.55
11
5.10289
21
-3.55038
0
LINE
8
BLACK
6
CONTINUOUS
10
5.10289
20
-3.55038
11
5.10291
21
-3.55051
0
LINE
8
BLACK
6
CONTINUOUS
10
5.10291
20
-3.55051
11
5.10284
21
-3.55063
0
LINE
8
BLACK
6
CONTINUOUS
10
5.10284
20
-3.55063
11
5.10277
21
-3.55101
0
LINE
8
BLACK
6
CONTINUOUS
10
5.10277
20
-3.55101
11
5.10228
21
-3.5516
0
LINE
8
BLACK
6
CONTINUOUS
10
5.10228
20
-3.5516
11
5.1019
21
-3.55226
0
LINE
8
BLACK
6
CONTINUOUS
10
5.1019
20
-3.55226
11
5.10165
21
-3.55235
0
LINE
8
BLACK
6
CONTINUOUS
10
5.10165
20
-3.55235
11
5.10148
21
-3.55256
0
LINE
8
BLACK
6
CONTINUOUS
10
5.10148
20
-3.55256
11
5.10072
21
-3.55269
0
LINE
8
BLACK
6
CONTINUOUS
10
5.10072
20
-3.55269
11
5.1
21
-3.55295
0
LINE
8
BLACK
6
CONTINUOUS
10
5.1
20
-3.55295
11
4.9
21
-3.55295
0
LINE
8
BLACK
6
CONTINUOUS
10
4.9
20
-3.55295
11
4.89962
21
-3.55289
0
LINE
8
BLACK
6
CONTINUOUS
10
4.89962
20
-3.55289
11
4.89949
21
-3.55291
0
LINE
8
BLACK
6
CONTINUOUS
10
4.89949
20
-3.55291
11
4.89937
21
-3.55284
0
LINE
8
BLACK
6
CONTINUOUS
10
4.89937
20
-3.55284
11
4.89899
21
-3.55277
0
LINE
8
BLACK
6
CONTINUOUS
10
4.89899
20
-3.55277
11
4.8984
21
-3.55228
0
LINE
8
BLACK
6
CONTINUOUS
10
4.8984
20
-3.55228
11
4.89774
21
-3.5519
0
LINE
8
BLACK
6
CONTINUOUS
10
4.89774
20
-3.5519
11
4.89765
21
-3.55165
0
LINE
8
BLACK
6
CONTINUOUS
10
4.89765
20
-3.55165
11
4.89744
21
-3.55148
0
LINE
8
BLACK
6
CONTINUOUS
10
4.89744
20
-3.55148
11
4.89731
21
-3.55072
0
LINE
8
BLACK
6
CONTINUOUS
10
4.89731
20
-3.55072
11
4.89705
21
-3.55
0
LINE
8
BLACK
6
CONTINUOUS
10
4.89705
20
-3.55
11
4.89705
21
-3.25
0
LINE
8
BLACK
6
CONTINUOUS
10
4.89705
20
-3.25
11
4.89711
21
-3.24962
0
LINE
8
BLACK
6
CONTINUOUS
10
4.89711
20
-3.24962
11
4.89709
21
-3.24949
0
LINE
8
BLACK
6
CONTINUOUS
10
4.89709
20
-3.24949
11
4.89716
21
-3.24937
0
LINE
8
BLACK
6
CONTINUOUS
10
4.89716
20
-3.24937
11
4.89723
21
-3.24899
0
LINE
8
BLACK
6
CONTINUOUS
10
4.89723
20
-3.24899
11
4.89772
21
-3.2484
0
LINE
8
BLACK
6
CONTINUOUS
10
4.89772
20
-3.2484
11
4.8981
21
-3.24774
0
LINE
8
BLACK
6
CONTINUOUS
10
4.8981
20
-3.24774
11
4.89835
21
-3.24765
0
LINE
8
BLACK
6
CONTINUOUS
10
4.89835
20
-3.24765
11
4.89852
21
-3.24744
0
LINE
8
BLACK
6
CONTINUOUS
10
4.89852
20
-3.24744
11
4.89928
21
-3.24731
0
LINE
8
BLACK
6
CONTINUOUS
10
4.89928
20
-3.24731
11
4.9
21
-3.24705
0
LINE
8
BLACK
6
CONTINUOUS
10
4.9
20
-3.24705
11
5.1
21
-3.24705
0
LINE
8
BLACK
6
CONTINUOUS
10
5.1
20
-3.24705
11
5.10038
21
-3.24711
0
LINE
8
BLACK
6
CONTINUOUS
10
4.90295
20
-3.25295
11
4.90295
21
-3.54705
0
LINE
8
BLACK
6
CONTINUOUS
10
4.90295
20
-3.54705
11
5.09705
21
-3.54705
0
LINE
8
BLACK
6
CONTINUOUS
10
5.09705
20
-3.54705
11
5.09705
21
-3.25295
0
LINE
8
BLACK
6
CONTINUOUS
10
5.09705
20
-3.25295
11
4.90295
21
-3.25295
0
LINE
8
BLACK
6
CONTINUOUS
10
5.55038
20
-2.94711
11
5.55051
21
-2.94709
0
LINE
8
BLACK
6
CONTINUOUS
10
5.55051
20
-2.94709
11
5.55063
21
-2.94716
0
LINE
8
BLACK
6
CONTINUOUS
10
5.55063
20
-2.94716
11
5.55101
21
-2.94723
0
LINE
8
BLACK
6
CONTINUOUS
10
5.55101
20
-2.94723
11
5.5516
21
-2.94772
0
LINE
8
BLACK
6
CONTINUOUS
10
5.5516
20
-2.94772
11
5.55226
21
-2.9481
0
LINE
8
BLACK
6
CONTINUOUS
10
5.55226
20
-2.9481
11
5.55235
21
-2.94835
0
LINE
8
BLACK
6
CONTINUOUS
10
5.55235
20
-2.94835
11
5.55256
21
-2.94852
0
LINE
8
BLACK
6
CONTINUOUS
10
5.55256
20
-2.94852
11
5.55269
21
-2.94928
0
LINE
8
BLACK
6
CONTINUOUS
10
5.55269
20
-2.94928
11
5.55295
21
-2.95
0
LINE
8
BLACK
6
CONTINUOUS
10
5.55295
20
-2.95
11
5.55295
21
-3.05
0
LINE
8
BLACK
6
CONTINUOUS
10
5.55295
20
-3.05
11
5.55289
21
-3.05038
0
LINE
8
BLACK
6
CONTINUOUS
10
5.55289
20
-3.05038
11
5.55291
21
-3.05051
0
LINE
8
BLACK
6
CONTINUOUS
10
5.55291
20
-3.05051
11
5.55284
21
-3.05063
0
LINE
8
BLACK
6
CONTINUOUS
10
5.55284
20
-3.05063
11
5.55277
21
-3.05101
0
LINE
8
BLACK
6
CONTINUOUS
10
5.55277
20
-3.05101
11
5.55228
21
-3.0516
0
LINE
8
BLACK
6
CONTINUOUS
10
5.55228
20
-3.0516
11
5.5519
21
-3.05226
0
LINE
8
BLACK
6
CONTINUOUS
10
5.5519
20
-3.05226
11
5.55165
21
-3.05235
0
LINE
8
BLACK
6
CONTINUOUS
10
5.55165
20
-3.05235
11
5.55148
21
-3.05256
0
LINE
8
BLACK
6
CONTINUOUS
10
5.55148
20
-3.05256
11
5.55072
21
-3.05269
0
LINE
8
BLACK
6
CONTINUOUS
10
5.55072
20
-3.05269
11
5.55
21
-3.05295
0
LINE
8
BLACK
6
CONTINUOUS
10
5.55
20
-3.05295
11
5.25
21
-3.05295
0
LINE
8
BLACK
6
CONTINUOUS
10
5.25
20
-3.05295
11
5.24962
21
-3.05289
0
LINE
8
BLACK
6
CONTINUOUS
10
5.24962
20
-3.05289
11
5.24949
21
-3.05291
0
LINE
8
BLACK
6
CONTINUOUS
10
5.24949
20
-3.05291
11
5.24937
21
-3.05284
0
LINE
8
BLACK
6
CONTINUOUS
10
5.24937
20
-3.05284
11
5.24899
21
-3.05277
0
LINE
8
BLACK
6
CONTINUOUS
10
5.24899
20
-3.05277
11
5.2484
21
-3.05228
0
LINE
8
BLACK
6
CONTINUOUS
10
5.2484
20
-3.05228
11
5.24774
21
-3.0519
0
LINE
8
BLACK
6
CONTINUOUS
10
5.24774
20
-3.0519
11
5.24765
21
-3.05165
0
LINE
8
BLACK
6
CONTINUOUS
10
5.24765
20
-3.05165
11
5.24744
21
-3.05148
0
LINE
8
BLACK
6
CONTINUOUS
10
5.24744
20
-3.05148
11
5.24731
21
-3.05072
0
LINE
8
BLACK
6
CONTINUOUS
10
5.24731
20
-3.05072
11
5.24705
21
-3.05
0
LINE
8
BLACK
6
CONTINUOUS
10
5.24705
20
-3.05
11
5.24705
21
-2.95
0
LINE
8
BLACK
6
CONTINUOUS
10
5.24705
20
-2.95
11
5.24711
21
-2.94962
0
LINE
8
BLACK
6
CONTINUOUS
10
5.24711
20
-2.94962
11
5.24709
21
-2.94949
0
LINE
8
BLACK
6
CONTINUOUS
10
5.24709
20
-2.94949
11
5.24716
21
-2.94937
0
LINE
8
BLACK
6
CONTINUOUS
10
5.24716
20
-2.94937
11
5.24723
21
-2.94899
0
LINE
8
BLACK
6
CONTINUOUS
10
5.24723
20
-2.94899
11
5.24772
21
-2.9484
0
LINE
8
BLACK
6
CONTINUOUS
10
5.24772
20
-2.9484
11
5.2481
21
-2.94774
0
LINE
8
BLACK
6
CONTINUOUS
10
5.2481
20
-2.94774
11
5.24835
21
-2.94765
0
LINE
8
BLACK
6
CONTINUOUS
10
5.24835
20
-2.94765
11
5.24852
21
-2.94744
0
LINE
8
BLACK
6
CONTINUOUS
10
5.24852
20
-2.94744
11
5.24928
21
-2.94731
0
LINE
8
BLACK
6
CONTINUOUS
10
5.24928
20
-2.94731
11
5.25
21
-2.94705
0
LINE
8
BLACK
6
CONTINUOUS
10
5.25
20
-2.94705
11
5.55
21
-2.94705
0
LINE
8
BLACK
6
CONTINUOUS
10
5.55
20
-2.94705
11
5.55038
21
-2.94711
0
LINE
8
BLACK
6
CONTINUOUS
10
5.25295
20
-2.95295
11
5.25295
21
-3.04705
0
LINE
8
BLACK
6
CONTINUOUS
10
5.25295
20
-3.04705
11
5.54705
21
-3.04705
0
LINE
8
BLACK
6
CONTINUOUS
10
5.54705
20
-3.04705
11
5.54705
21
-2.95295
0
LINE
8
BLACK
6
CONTINUOUS
10
5.54705
20
-2.95295
11
5.25295
21
-2.95295
0
LINE
8
BLACK
6
CONTINUOUS
10
5.95038
20
-2.94711
11
5.95051
21
-2.94709
0
LINE
8
BLACK
6
CONTINUOUS
10
5.95051
20
-2.94709
11
5.95063
21
-2.94716
0
LINE
8
BLACK
6
CONTINUOUS
10
5.95063
20
-2.94716
11
5.95101
21
-2.94723
0
LINE
8
BLACK
6
CONTINUOUS
10
5.95101
20
-2.94723
11
5.9516
21
-2.94772
0
LINE
8
BLACK
6
CONTINUOUS
10
5.9516
20
-2.94772
11
5.95226
21
-2.9481
0
LINE
8
BLACK
6
CONTINUOUS
10
5.95226
20
-2.9481
11
5.95235
21
-2.94835
0
LINE
8
BLACK
6
CONTINUOUS
10
5.95235
20
-2.94835
11
5.95256
21
-2.94852
0
LINE
8
BLACK
6
CONTINUOUS
10
5.95256
20
-2.94852
11
5.95269
21
-2.94928
0
LINE
8
BLACK
6
CONTINUOUS
10
5.95269
20
-2.94928
11
5.95295
21
-2.95
0
LINE
8
BLACK
6
CONTINUOUS
10
5.95295
20
-2.95
11
5.95295
21
-3.05
0
LINE
8
BLACK
6
CONTINUOUS
10
5.95295
20
-3.05
11
5.95289
21
-3.05038
0
LINE
8
BLACK
6
CONTINUOUS
10
5.95289
20
-3.05038
11
5.95291
21
-3.05051
0
LINE
8
BLACK
6
CONTINUOUS
10
5.95291
20
-3.05051
11
5.95284
21
-3.05063
0
LINE
8
BLACK
6
CONTINUOUS
10
5.95284
20
-3.05063
11
5.95277
21
-3.05101
0
LINE
8
BLACK
6
CONTINUOUS
10
5.95277
20
-3.05101
11
5.95228
21
-3.0516
0
LINE
8
BLACK
6
CONTINUOUS
10
5.95228
20
-3.0516
11
5.9519
21
-3.05226
0
LINE
8
BLACK
6
CONTINUOUS
10
5.9519
20
-3.05226
11
5.95165
21
-3.05235
0
LINE
8
BLACK
6
CONTINUOUS
10
5.95165
20
-3.05235
11
5.95148
21
-3.05256
0
LINE
8
BLACK
6
CONTINUOUS
10
5.95148
20
-3.05256
11
5.95072
21
-3.05269
0
LINE
8
BLACK
6
CONTINUOUS
10
5.95072
20
-3.05269
11
5.95
21
-3.05295
0
LINE
8
BLACK
6
CONTINUOUS
10
5.95
20
-3.05295
11
5.65
21
-3.05295
0
LINE
8
BLACK
6
CONTINUOUS
10
5.65
20
-3.05295
11
5.64962
21
-3.05289
0
LINE
8
BLACK
6
CONTINUOUS
10
5.64962
20
-3.05289
11
5.64949
21
-3.05291
0
LINE
8
BLACK
6
CONTINUOUS
10
5.64949
20
-3.05291
11
5.64937
21
-3.05284
0
LINE
8
BLACK
6
CONTINUOUS
10
5.64937
20
-3.05284
11
5.64899
21
-3.05277
0
LINE
8
BLACK
6
CONTINUOUS
10
5.64899
20
-3.05277
11
5.6484
21
-3.05228
0
LINE
8
BLACK
6
CONTINUOUS
10
5.6484
20
-3.05228
11
5.64774
21
-3.0519
0
LINE
8
BLACK
6
CONTINUOUS
10
5.64774
20
-3.0519
11
5.64765
21
-3.05165
0
LINE
8
BLACK
6
CONTINUOUS
10
5.64765
20
-3.05165
11
5.64744
21
-3.05148
0
LINE
8
BLACK
6
CONTINUOUS
10
5.64744
20
-3.05148
11
5.64731
21
-3.05072
0
LINE
8
BLACK
6
CONTINUOUS
10
5.64731
20
-3.05072
11
5.64705
21
-3.05
0
LINE
8
BLACK
6
CONTINUOUS
10
5.64705
20
-3.05
11
5.64705
21
-2.95
0
LINE
8
BLACK
6
CONTINUOUS
10
5.64705
20
-2.95
11
5.64711
21
-2.94962
0
LINE
8
BLACK
6
CONTINUOUS
10
5.64711
20
-2.94962
11
5.64709
21
-2.94949
0
LINE
8
BLACK
6
CONTINUOUS
10
5.64709
20
-2.94949
11
5.64716
21
-2.94937
0
LINE
8
BLACK
6
CONTINUOUS
10
5.64716
20
-2.94937
11
5.64723
21
-2.94899
0
LINE
8
BLACK
6
CONTINUOUS
10
5.64723
20
-2.94899
11
5.64772
21
-2.9484
0
LINE
8
BLACK
6
CONTINUOUS
10
5.64772
20
-2.9484
11
5.6481
21
-2.94774
0
LINE
8
BLACK
6
CONTINUOUS
10
5.6481
20
-2.94774
11
5.64835
21
-2.94765
0
LINE
8
BLACK
6
CONTINUOUS
10
5.64835
20
-2.94765
11
5.64852
21
-2.94744
0
LINE
8
BLACK
6
CONTINUOUS
10
5.64852
20
-2.94744
11
5.64928
21
-2.94731
0
LINE
8
BLACK
6
CONTINUOUS
10
5.64928
20
-2.94731
11
5.65
21
-2.94705
0
LINE
8
BLACK
6
CONTINUOUS
10
5.65
20
-2.94705
11
5.95
21
-2.94705
0
LINE
8
BLACK
6
CONTINUOUS
10
5.95
20
-2.94705
11
5.95038
21
-2.94711
0
LINE
8
BLACK
6
CONTINUOUS
10
5.65295
20
-2.95295
11
5.65295
21
-3.04705
0
LINE
8
BLACK
6
CONTINUOUS
10
5.65295
20
-3.04705
11
5.94705
21
-3.04705
0
LINE
8
BLACK
6
CONTINUOUS
10
5.94705
20
-3.04705
11
5.94705
21
-2.95295
0
LINE
8
BLACK
6
CONTINUOUS
10
5.94705
20
-2.95295
11
5.65295
21
-2.95295
0
LINE
8
BLACK
6
CONTINUOUS
10
6.07792
20
-3.77047
11
6.08197
21
-3.75704
0
LINE
8
BLACK
6
CONTINUOUS
10
6.08197
20
-3.75704
11
6.0875
21
-3.74415
0
LINE
8
BLACK
6
CONTINUOUS
10
6.0875
20
-3.74415
11
6.09442
21
-3.73196
0
LINE
8
BLACK
6
CONTINUOUS
10
6.09442
20
-3.73196
11
6.10267
21
-3.72062
0
LINE
8
BLACK
6
CONTINUOUS
10
6.10267
20
-3.72062
11
6.11212
21
-3.71026
0
LINE
8
BLACK
6
CONTINUOUS
10
6.11212
20
-3.71026
11
6.12267
21
-3.70103
0
LINE
8
BLACK
6
CONTINUOUS
10
6.12267
20
-3.70103
11
6.13419
21
-3.69302
0
LINE
8
BLACK
6
CONTINUOUS
10
6.13419
20
-3.69302
11
6.14652
21
-3.68635
0
LINE
8
BLACK
6
CONTINUOUS
10
6.14652
20
-3.68635
11
6.15952
21
-3.6811
0
LINE
8
BLACK
6
CONTINUOUS
10
6.15952
20
-3.6811
11
6.17303
21
-3.67733
0
LINE
8
BLACK
6
CONTINUOUS
10
6.17303
20
-3.67733
11
6.18687
21
-3.67509
0
LINE
8
BLACK
6
CONTINUOUS
10
6.18687
20
-3.67509
11
6.20088
21
-3.6744
0
LINE
8
BLACK
6
CONTINUOUS
10
6.20088
20
-3.6744
11
6.21487
21
-3.67528
0
LINE
8
BLACK
6
CONTINUOUS
10
6.21487
20
-3.67528
11
6.22868
21
-3.67772
0
LINE
8
BLACK
6
CONTINUOUS
10
6.22868
20
-3.67772
11
6.24213
21
-3.68168
0
LINE
8
BLACK
6
CONTINUOUS
10
6.24213
20
-3.68168
11
6.25506
21
-3.68711
0
LINE
8
BLACK
6
CONTINUOUS
10
6.25506
20
-3.68711
11
6.2673
21
-3.69395
0
LINE
8
BLACK
6
CONTINUOUS
10
6.2673
20
-3.69395
11
6.2787
21
-3.70212
0
LINE
8
BLACK
6
CONTINUOUS
10
6.2787
20
-3.70212
11
6.28912
21
-3.7115
0
LINE
8
BLACK
6
CONTINUOUS
10
6.28912
20
-3.7115
11
6.29843
21
-3.72198
0
LINE
8
BLACK
6
CONTINUOUS
10
6.29843
20
-3.72198
11
6.30651
21
-3.73344
0
LINE
8
BLACK
6
CONTINUOUS
10
6.30651
20
-3.73344
11
6.31327
21
-3.74573
0
LINE
8
BLACK
6
CONTINUOUS
10
6.31327
20
-3.74573
11
6.31861
21
-3.75869
0
LINE
8
BLACK
6
CONTINUOUS
10
6.31861
20
-3.75869
11
6.32248
21
-3.77217
0
LINE
8
BLACK
6
CONTINUOUS
10
6.32248
20
-3.77217
11
6.32482
21
-3.786
0
LINE
8
BLACK
6
CONTINUOUS
10
6.32482
20
-3.786
11
6.3256
21
-3.8
0
LINE
8
BLACK
6
CONTINUOUS
10
6.3256
20
-3.8
11
6.32555
21
-3.80351
0
LINE
8
BLACK
6
CONTINUOUS
10
6.32555
20
-3.80351
11
6.32438
21
-3.81748
0
LINE
8
BLACK
6
CONTINUOUS
10
6.32438
20
-3.81748
11
6.32165
21
-3.83124
0
LINE
8
BLACK
6
CONTINUOUS
10
6.32165
20
-3.83124
11
6.31741
21
-3.8446
0
LINE
8
BLACK
6
CONTINUOUS
10
6.31741
20
-3.8446
11
6.31171
21
-3.85741
0
LINE
8
BLACK
6
CONTINUOUS
10
6.31171
20
-3.85741
11
6.30461
21
-3.86951
0
LINE
8
BLACK
6
CONTINUOUS
10
6.30461
20
-3.86951
11
6.29622
21
-3.88073
0
LINE
8
BLACK
6
CONTINUOUS
10
6.29622
20
-3.88073
11
6.28662
21
-3.89096
0
LINE
8
BLACK
6
CONTINUOUS
10
6.28662
20
-3.89096
11
6.27594
21
-3.90004
0
LINE
8
BLACK
6
CONTINUOUS
10
6.27594
20
-3.90004
11
6.26431
21
-3.90789
0
LINE
8
BLACK
6
CONTINUOUS
10
6.26431
20
-3.90789
11
6.25189
21
-3.91438
0
LINE
8
BLACK
6
CONTINUOUS
10
6.25189
20
-3.91438
11
6.23881
21
-3.91945
0
LINE
8
BLACK
6
CONTINUOUS
10
6.23881
20
-3.91945
11
6.22526
21
-3.92303
0
LINE
8
BLACK
6
CONTINUOUS
10
6.22526
20
-3.92303
11
6.21138
21
-3.92508
0
LINE
8
BLACK
6
CONTINUOUS
10
6.21138
20
-3.92508
11
6.19737
21
-3.92557
0
LINE
8
BLACK
6
CONTINUOUS
10
6.19737
20
-3.92557
11
6.18339
21
-3.9245
0
LINE
8
BLACK
6
CONTINUOUS
10
6.18339
20
-3.9245
11
6.16961
21
-3.92187
0
LINE
8
BLACK
6
CONTINUOUS
10
6.16961
20
-3.92187
11
6.15622
21
-3.91772
0
LINE
8
BLACK
6
CONTINUOUS
10
6.15622
20
-3.91772
11
6.14337
21
-3.91211
0
LINE
8
BLACK
6
CONTINUOUS
10
6.14337
20
-3.91211
11
6.13123
21
-3.9051
0
LINE
8
BLACK
6
CONTINUOUS
10
6.13123
20
-3.9051
11
6.11994
21
-3.89678
0
LINE
8
BLACK
6
CONTINUOUS
10
6.11994
20
-3.89678
11
6.10965
21
-3.88725
0
LINE
8
BLACK
6
CONTINUOUS
10
6.10965
20
-3.88725
11
6.10049
21
-3.87663
0
LINE
8
BLACK
6
CONTINUOUS
10
6.10049
20
-3.87663
11
6.09257
21
-3.86506
0
LINE
8
BLACK
6
CONTINUOUS
10
6.09257
20
-3.86506
11
6.08598
21
-3.85268
0
LINE
8
BLACK
6
CONTINUOUS
10
6.08598
20
-3.85268
11
6.08082
21
-3.83965
0
LINE
8
BLACK
6
CONTINUOUS
10
6.08082
20
-3.83965
11
6.07714
21
-3.82611
0
LINE
8
BLACK
6
CONTINUOUS
10
6.07714
20
-3.82611
11
6.075
21
-3.81226
0
LINE
8
BLACK
6
CONTINUOUS
10
6.075
20
-3.81226
11
6.07441
21
-3.79825
0
LINE
8
BLACK
6
CONTINUOUS
10
6.07441
20
-3.79825
11
6.07453
21
-3.79652
0
LINE
8
BLACK
6
CONTINUOUS
10
6.07453
20
-3.79652
11
6.07539
21
-3.78426
0
LINE
8
BLACK
6
CONTINUOUS
10
6.07539
20
-3.78426
11
6.07792
21
-3.77047
0
LINE
8
BLACK
6
CONTINUOUS
10
6.0914
20
-3.8219
11
6.09463
21
-3.83424
0
LINE
8
BLACK
6
CONTINUOUS
10
6.09463
20
-3.83424
11
6.09927
21
-3.84612
0
LINE
8
BLACK
6
CONTINUOUS
10
6.09927
20
-3.84612
11
6.10524
21
-3.85739
0
LINE
8
BLACK
6
CONTINUOUS
10
6.10524
20
-3.85739
11
6.11246
21
-3.8679
0
LINE
8
BLACK
6
CONTINUOUS
10
6.11246
20
-3.8679
11
6.12085
21
-3.87751
0
LINE
8
BLACK
6
CONTINUOUS
10
6.12085
20
-3.87751
11
6.13028
21
-3.8861
0
LINE
8
BLACK
6
CONTINUOUS
10
6.13028
20
-3.8861
11
6.14064
21
-3.89354
0
LINE
8
BLACK
6
CONTINUOUS
10
6.14064
20
-3.89354
11
6.15178
21
-3.89974
0
LINE
8
BLACK
6
CONTINUOUS
10
6.15178
20
-3.89974
11
6.16357
21
-3.90463
0
LINE
8
BLACK
6
CONTINUOUS
10
6.16357
20
-3.90463
11
6.17583
21
-3.90812
0
LINE
8
BLACK
6
CONTINUOUS
10
6.17583
20
-3.90812
11
6.18842
21
-3.91018
0
LINE
8
BLACK
6
CONTINUOUS
10
6.18842
20
-3.91018
11
6.20116
21
-3.91078
0
LINE
8
BLACK
6
CONTINUOUS
10
6.20116
20
-3.91078
11
6.21389
21
-3.90991
0
LINE
8
BLACK
6
CONTINUOUS
10
6.21389
20
-3.90991
11
6.22643
21
-3.90759
0
LINE
8
BLACK
6
CONTINUOUS
10
6.22643
20
-3.90759
11
6.23862
21
-3.90384
0
LINE
8
BLACK
6
CONTINUOUS
10
6.23862
20
-3.90384
11
6.2503
21
-3.89871
0
LINE
8
BLACK
6
CONTINUOUS
10
6.2503
20
-3.89871
11
6.26131
21
-3.89228
0
LINE
8
BLACK
6
CONTINUOUS
10
6.26131
20
-3.89228
11
6.27151
21
-3.88462
0
LINE
8
BLACK
6
CONTINUOUS
10
6.27151
20
-3.88462
11
6.28076
21
-3.87584
0
LINE
8
BLACK
6
CONTINUOUS
10
6.28076
20
-3.87584
11
6.28894
21
-3.86605
0
LINE
8
BLACK
6
CONTINUOUS
10
6.28894
20
-3.86605
11
6.29594
21
-3.85539
0
LINE
8
BLACK
6
CONTINUOUS
10
6.29594
20
-3.85539
11
6.30168
21
-3.844
0
LINE
8
BLACK
6
CONTINUOUS
10
6.30168
20
-3.844
11
6.30606
21
-3.83202
0
LINE
8
BLACK
6
CONTINUOUS
10
6.30606
20
-3.83202
11
6.30904
21
-3.81962
0
LINE
8
BLACK
6
CONTINUOUS
10
6.30904
20
-3.81962
11
6.31057
21
-3.80696
0
LINE
8
BLACK
6
CONTINUOUS
10
6.31057
20
-3.80696
11
6.31079
21
-3.8
0
LINE
8
BLACK
6
CONTINUOUS
10
6.31079
20
-3.8
11
6.31005
21
-3.78727
0
LINE
8
BLACK
6
CONTINUOUS
10
6.31005
20
-3.78727
11
6.30786
21
-3.7747
0
LINE
8
BLACK
6
CONTINUOUS
10
6.30786
20
-3.7747
11
6.30424
21
-3.76247
0
LINE
8
BLACK
6
CONTINUOUS
10
6.30424
20
-3.76247
11
6.29923
21
-3.75074
0
LINE
8
BLACK
6
CONTINUOUS
10
6.29923
20
-3.75074
11
6.29291
21
-3.73966
0
LINE
8
BLACK
6
CONTINUOUS
10
6.29291
20
-3.73966
11
6.28536
21
-3.72938
0
LINE
8
BLACK
6
CONTINUOUS
10
6.28536
20
-3.72938
11
6.27668
21
-3.72004
0
LINE
8
BLACK
6
CONTINUOUS
10
6.27668
20
-3.72004
11
6.26698
21
-3.71175
0
LINE
8
BLACK
6
CONTINUOUS
10
6.26698
20
-3.71175
11
6.2564
21
-3.70464
0
LINE
8
BLACK
6
CONTINUOUS
10
6.2564
20
-3.70464
11
6.24506
21
-3.69879
0
LINE
8
BLACK
6
CONTINUOUS
10
6.24506
20
-3.69879
11
6.23313
21
-3.69428
0
LINE
8
BLACK
6
CONTINUOUS
10
6.23313
20
-3.69428
11
6.22076
21
-3.69117
0
LINE
8
BLACK
6
CONTINUOUS
10
6.22076
20
-3.69117
11
6.20811
21
-3.68951
0
LINE
8
BLACK
6
CONTINUOUS
10
6.20811
20
-3.68951
11
6.19536
21
-3.68931
0
LINE
8
BLACK
6
CONTINUOUS
10
6.19536
20
-3.68931
11
6.18267
21
-3.69058
0
LINE
8
BLACK
6
CONTINUOUS
10
6.18267
20
-3.69058
11
6.17021
21
-3.69329
0
LINE
8
BLACK
6
CONTINUOUS
10
6.17021
20
-3.69329
11
6.15814
21
-3.69743
0
LINE
8
BLACK
6
CONTINUOUS
10
6.15814
20
-3.69743
11
6.14663
21
-3.70292
0
LINE
8
BLACK
6
CONTINUOUS
10
6.14663
20
-3.70292
11
6.13582
21
-3.70969
0
LINE
8
BLACK
6
CONTINUOUS
10
6.13582
20
-3.70969
11
6.12587
21
-3.71767
0
LINE
8
BLACK
6
CONTINUOUS
10
6.12587
20
-3.71767
11
6.1169
21
-3.72673
0
LINE
8
BLACK
6
CONTINUOUS
10
6.1169
20
-3.72673
11
6.10903
21
-3.73677
0
LINE
8
BLACK
6
CONTINUOUS
10
6.10903
20
-3.73677
11
6.10236
21
-3.74765
0
LINE
8
BLACK
6
CONTINUOUS
10
6.10236
20
-3.74765
11
6.09699
21
-3.75922
0
LINE
8
BLACK
6
CONTINUOUS
10
6.09699
20
-3.75922
11
6.09299
21
-3.77133
0
LINE
8
BLACK
6
CONTINUOUS
10
6.09299
20
-3.77133
11
6.0904
21
-3.78382
0
LINE
8
BLACK
6
CONTINUOUS
10
6.0904
20
-3.78382
11
6.08927
21
-3.79652
0
LINE
8
BLACK
6
CONTINUOUS
10
6.08927
20
-3.79652
11
6.0896
21
-3.80927
0
LINE
8
BLACK
6
CONTINUOUS
10
6.0896
20
-3.80927
11
6.0914
21
-3.8219
0
LINE
8
BLACK
6
CONTINUOUS
10
4.87792
20
-3.77047
11
4.88197
21
-3.75704
0
LINE
8
BLACK
6
CONTINUOUS
10
4.88197
20
-3.75704
11
4.8875
21
-3.74415
0
LINE
8
BLACK
6
CONTINUOUS
10
4.8875
20
-3.74415
11
4.89442
21
-3.73196
0
LINE
8
BLACK
6
CONTINUOUS
10
4.89442
20
-3.73196
11
4.90267
21
-3.72062
0
LINE
8
BLACK
6
CONTINUOUS
10
4.90267
20
-3.72062
11
4.91212
21
-3.71026
0
LINE
8
BLACK
6
CONTINUOUS
10
4.91212
20
-3.71026
11
4.92267
21
-3.70103
0
LINE
8
BLACK
6
CONTINUOUS
10
4.92267
20
-3.70103
11
4.93419
21
-3.69302
0
LINE
8
BLACK
6
CONTINUOUS
10
4.93419
20
-3.69302
11
4.94652
21
-3.68635
0
LINE
8
BLACK
6
CONTINUOUS
10
4.94652
20
-3.68635
11
4.95952
21
-3.6811
0
LINE
8
BLACK
6
CONTINUOUS
10
4.95952
20
-3.6811
11
4.97303
21
-3.67733
0
LINE
8
BLACK
6
CONTINUOUS
10
4.97303
20
-3.67733
11
4.98687
21
-3.67509
0
LINE
8
BLACK
6
CONTINUOUS
10
4.98687
20
-3.67509
11
5.00088
21
-3.6744
0
LINE
8
BLACK
6
CONTINUOUS
10
5.00088
20
-3.6744
11
5.01487
21
-3.67528
0
LINE
8
BLACK
6
CONTINUOUS
10
5.01487
20
-3.67528
11
5.02868
21
-3.67772
0
LINE
8
BLACK
6
CONTINUOUS
10
5.02868
20
-3.67772
11
5.04213
21
-3.68168
0
LINE
8
BLACK
6
CONTINUOUS
10
5.04213
20
-3.68168
11
5.05506
21
-3.68711
0
LINE
8
BLACK
6
CONTINUOUS
10
5.05506
20
-3.68711
11
5.0673
21
-3.69395
0
LINE
8
BLACK
6
CONTINUOUS
10
5.0673
20
-3.69395
11
5.0787
21
-3.70212
0
LINE
8
BLACK
6
CONTINUOUS
10
5.0787
20
-3.70212
11
5.08912
21
-3.7115
0
LINE
8
BLACK
6
CONTINUOUS
10
5.08912
20
-3.7115
11
5.09843
21
-3.72198
0
LINE
8
BLACK
6
CONTINUOUS
10
5.09843
20
-3.72198
11
5.10651
21
-3.73344
0
LINE
8
BLACK
6
CONTINUOUS
10
5.10651
20
-3.73344
11
5.11327
21
-3.74573
0
LINE
8
BLACK
6
CONTINUOUS
10
5.11327
20
-3.74573
11
5.11861
21
-3.75869
0
LINE
8
BLACK
6
CONTINUOUS
10
5.11861
20
-3.75869
11
5.12248
21
-3.77217
0
LINE
8
BLACK
6
CONTINUOUS
10
5.12248
20
-3.77217
11
5.12482
21
-3.786
0
LINE
8
BLACK
6
CONTINUOUS
10
5.12482
20
-3.786
11
5.1256
21
-3.8
0
LINE
8
BLACK
6
CONTINUOUS
10
5.1256
20
-3.8
11
5.12555
21
-3.80351
0
LINE
8
BLACK
6
CONTINUOUS
10
5.12555
20
-3.80351
11
5.12438
21
-3.81748
0
LINE
8
BLACK
6
CONTINUOUS
10
5.12438
20
-3.81748
11
5.12165
21
-3.83124
0
LINE
8
BLACK
6
CONTINUOUS
10
5.12165
20
-3.83124
11
5.11741
21
-3.8446
0
LINE
8
BLACK
6
CONTINUOUS
10
5.11741
20
-3.8446
11
5.11171
21
-3.85741
0
LINE
8
BLACK
6
CONTINUOUS
10
5.11171
20
-3.85741
11
5.10461
21
-3.86951
0
LINE
8
BLACK
6
CONTINUOUS
10
5.10461
20
-3.86951
11
5.09622
21
-3.88073
0
LINE
8
BLACK
6
CONTINUOUS
10
5.09622
20
-3.88073
11
5.08662
21
-3.89096
0
LINE
8
BLACK
6
CONTINUOUS
10
5.08662
20
-3.89096
11
5.07594
21
-3.90004
0
LINE
8
BLACK
6
CONTINUOUS
10
5.07594
20
-3.90004
11
5.06431
21
-3.90789
0
LINE
8
BLACK
6
CONTINUOUS
10
5.06431
20
-3.90789
11
5.05189
21
-3.91438
0
LINE
8
BLACK
6
CONTINUOUS
10
5.05189
20
-3.91438
11
5.03881
21
-3.91945
0
LINE
8
BLACK
6
CONTINUOUS
10
5.03881
20
-3.91945
11
5.02526
21
-3.92303
0
LINE
8
BLACK
6
CONTINUOUS
10
5.02526
20
-3.92303
11
5.01138
21
-3.92508
0
LINE
8
BLACK
6
CONTINUOUS
10
5.01138
20
-3.92508
11
4.99737
21
-3.92557
0
LINE
8
BLACK
6
CONTINUOUS
10
4.99737
20
-3.92557
11
4.98339
21
-3.9245
0
LINE
8
BLACK
6
CONTINUOUS
10
4.98339
20
-3.9245
11
4.96961
21
-3.92187
0
LINE
8
BLACK
6
CONTINUOUS
10
4.96961
20
-3.92187
11
4.95622
21
-3.91772
0
LINE
8
BLACK
6
CONTINUOUS
10
4.95622
20
-3.91772
11
4.94337
21
-3.91211
0
LINE
8
BLACK
6
CONTINUOUS
10
4.94337
20
-3.91211
11
4.93123
21
-3.9051
0
LINE
8
BLACK
6
CONTINUOUS
10
4.93123
20
-3.9051
11
4.91994
21
-3.89678
0
LINE
8
BLACK
6
CONTINUOUS
10
4.91994
20
-3.89678
11
4.90965
21
-3.88725
0
LINE
8
BLACK
6
CONTINUOUS
10
4.90965
20
-3.88725
11
4.90049
21
-3.87663
0
LINE
8
BLACK
6
CONTINUOUS
10
4.90049
20
-3.87663
11
4.89257
21
-3.86506
0
LINE
8
BLACK
6
CONTINUOUS
10
4.89257
20
-3.86506
11
4.88598
21
-3.85268
0
LINE
8
BLACK
6
CONTINUOUS
10
4.88598
20
-3.85268
11
4.88082
21
-3.83965
0
LINE
8
BLACK
6
CONTINUOUS
10
4.88082
20
-3.83965
11
4.87714
21
-3.82611
0
LINE
8
BLACK
6
CONTINUOUS
10
4.87714
20
-3.82611
11
4.875
21
-3.81226
0
LINE
8
BLACK
6
CONTINUOUS
10
4.875
20
-3.81226
11
4.87441
21
-3.79825
0
LINE
8
BLACK
6
CONTINUOUS
10
4.87441
20
-3.79825
11
4.87453
21
-3.79652
0
LINE
8
BLACK
6
CONTINUOUS
10
4.87453
20
-3.79652
11
4.87539
21
-3.78426
0
LINE
8
BLACK
6
CONTINUOUS
10
4.87539
20
-3.78426
11
4.87792
21
-3.77047
0
LINE
8
BLACK
6
CONTINUOUS
10
4.8914
20
-3.8219
11
4.89463
21
-3.83424
0
LINE
8
BLACK
6
CONTINUOUS
10
4.89463
20
-3.83424
11
4.89927
21
-3.84612
0
LINE
8
BLACK
6
CONTINUOUS
10
4.89927
20
-3.84612
11
4.90524
21
-3.85739
0
LINE
8
BLACK
6
CONTINUOUS
10
4.90524
20
-3.85739
11
4.91246
21
-3.8679
0
LINE
8
BLACK
6
CONTINUOUS
10
4.91246
20
-3.8679
11
4.92085
21
-3.87751
0
LINE
8
BLACK
6
CONTINUOUS
10
4.92085
20
-3.87751
11
4.93028
21
-3.8861
0
LINE
8
BLACK
6
CONTINUOUS
10
4.93028
20
-3.8861
11
4.94064
21
-3.89354
0
LINE
8
BLACK
6
CONTINUOUS
10
4.94064
20
-3.89354
11
4.95178
21
-3.89974
0
LINE
8
BLACK
6
CONTINUOUS
10
4.95178
20
-3.89974
11
4.96357
21
-3.90463
0
LINE
8
BLACK
6
CONTINUOUS
10
4.96357
20
-3.90463
11
4.97583
21
-3.90812
0
LINE
8
BLACK
6
CONTINUOUS
10
4.97583
20
-3.90812
11
4.98842
21
-3.91018
0
LINE
8
BLACK
6
CONTINUOUS
10
4.98842
20
-3.91018
11
5.00116
21
-3.91078
0
LINE
8
BLACK
6
CONTINUOUS
10
5.00116
20
-3.91078
11
5.01389
21
-3.90991
0
LINE
8
BLACK
6
CONTINUOUS
10
5.01389
20
-3.90991
11
5.02643
21
-3.90759
0
LINE
8
BLACK
6
CONTINUOUS
10
5.02643
20
-3.90759
11
5.03862
21
-3.90384
0
LINE
8
BLACK
6
CONTINUOUS
10
5.03862
20
-3.90384
11
5.0503
21
-3.89871
0
LINE
8
BLACK
6
CONTINUOUS
10
5.0503
20
-3.89871
11
5.06131
21
-3.89228
0
LINE
8
BLACK
6
CONTINUOUS
10
5.06131
20
-3.89228
11
5.07151
21
-3.88462
0
LINE
8
BLACK
6
CONTINUOUS
10
5.07151
20
-3.88462
11
5.08076
21
-3.87584
0
LINE
8
BLACK
6
CONTINUOUS
10
5.08076
20
-3.87584
11
5.08894
21
-3.86605
0
LINE
8
BLACK
6
CONTINUOUS
10
5.08894
20
-3.86605
11
5.09594
21
-3.85539
0
LINE
8
BLACK
6
CONTINUOUS
10
5.09594
20
-3.85539
11
5.10168
21
-3.844
0
LINE
8
BLACK
6
CONTINUOUS
10
5.10168
20
-3.844
11
5.10606
21
-3.83202
0
LINE
8
BLACK
6
CONTINUOUS
10
5.10606
20
-3.83202
11
5.10904
21
-3.81962
0
LINE
8
BLACK
6
CONTINUOUS
10
5.10904
20
-3.81962
11
5.11057
21
-3.80696
0
LINE
8
BLACK
6
CONTINUOUS
10
5.11057
20
-3.80696
11
5.11079
21
-3.8
0
LINE
8
BLACK
6
CONTINUOUS
10
5.11079
20
-3.8
11
5.11005
21
-3.78727
0
LINE
8
BLACK
6
CONTINUOUS
10
5.11005
20
-3.78727
11
5.10786
21
-3.7747
0
LINE
8
BLACK
6
CONTINUOUS
10
5.10786
20
-3.7747
11
5.10424
21
-3.76247
0
LINE
8
BLACK
6
CONTINUOUS
10
5.10424
20
-3.76247
11
5.09923
21
-3.75074
0
LINE
8
BLACK
6
CONTINUOUS
10
5.09923
20
-3.75074
11
5.09291
21
-3.73966
0
LINE
8
BLACK
6
CONTINUOUS
10
5.09291
20
-3.73966
11
5.08536
21
-3.72938
0
LINE
8
BLACK
6
CONTINUOUS
10
5.08536
20
-3.72938
11
5.07668
21
-3.72004
0
LINE
8
BLACK
6
CONTINUOUS
10
5.07668
20
-3.72004
11
5.06698
21
-3.71175
0
LINE
8
BLACK
6
CONTINUOUS
10
5.06698
20
-3.71175
11
5.0564
21
-3.70464
0
LINE
8
BLACK
6
CONTINUOUS
10
5.0564
20
-3.70464
11
5.04506
21
-3.69879
0
LINE
8
BLACK
6
CONTINUOUS
10
5.04506
20
-3.69879
11
5.03313
21
-3.69428
0
LINE
8
BLACK
6
CONTINUOUS
10
5.03313
20
-3.69428
11
5.02076
21
-3.69117
0
LINE
8
BLACK
6
CONTINUOUS
10
5.02076
20
-3.69117
11
5.00811
21
-3.68951
0
LINE
8
BLACK
6
CONTINUOUS
10
5.00811
20
-3.68951
11
4.99536
21
-3.68931
0
LINE
8
BLACK
6
CONTINUOUS
10
4.99536
20
-3.68931
11
4.98267
21
-3.69058
0
LINE
8
BLACK
6
CONTINUOUS
10
4.98267
20
-3.69058
11
4.97021
21
-3.69329
0
LINE
8
BLACK
6
CONTINUOUS
10
4.97021
20
-3.69329
11
4.95814
21
-3.69743
0
LINE
8
BLACK
6
CONTINUOUS
10
4.95814
20
-3.69743
11
4.94663
21
-3.70292
0
LINE
8
BLACK
6
CONTINUOUS
10
4.94663
20
-3.70292
11
4.93582
21
-3.70969
0
LINE
8
BLACK
6
CONTINUOUS
10
4.93582
20
-3.70969
11
4.92587
21
-3.71767
0
LINE
8
BLACK
6
CONTINUOUS
10
4.92587
20
-3.71767
11
4.9169
21
-3.72673
0
LINE
8
BLACK
6
CONTINUOUS
10
4.9169
20
-3.72673
11
4.90903
21
-3.73677
0
LINE
8
BLACK
6
CONTINUOUS
10
4.90903
20
-3.73677
11
4.90236
21
-3.74765
0
LINE
8
BLACK
6
CONTINUOUS
10
4.90236
20
-3.74765
11
4.89699
21
-3.75922
0
LINE
8
BLACK
6
CONTINUOUS
10
4.89699
20
-3.75922
11
4.89299
21
-3.77133
0
LINE
8
BLACK
6
CONTINUOUS
10
4.89299
20
-3.77133
11
4.8904
21
-3.78382
0
LINE
8
BLACK
6
CONTINUOUS
10
4.8904
20
-3.78382
11
4.88927
21
-3.79652
0
LINE
8
BLACK
6
CONTINUOUS
10
4.88927
20
-3.79652
11
4.8896
21
-3.80927
0
LINE
8
BLACK
6
CONTINUOUS
10
4.8896
20
-3.80927
11
4.8914
21
-3.8219
0
LINE
8
BLACK
6
CONTINUOUS
10
4.87792
20
-2.97047
11
4.88197
21
-2.95704
0
LINE
8
BLACK
6
CONTINUOUS
10
4.88197
20
-2.95704
11
4.8875
21
-2.94415
0
LINE
8
BLACK
6
CONTINUOUS
10
4.8875
20
-2.94415
11
4.89442
21
-2.93196
0
LINE
8
BLACK
6
CONTINUOUS
10
4.89442
20
-2.93196
11
4.90267
21
-2.92062
0
LINE
8
BLACK
6
CONTINUOUS
10
4.90267
20
-2.92062
11
4.91212
21
-2.91026
0
LINE
8
BLACK
6
CONTINUOUS
10
4.91212
20
-2.91026
11
4.92267
21
-2.90103
0
LINE
8
BLACK
6
CONTINUOUS
10
4.92267
20
-2.90103
11
4.93419
21
-2.89302
0
LINE
8
BLACK
6
CONTINUOUS
10
4.93419
20
-2.89302
11
4.94652
21
-2.88635
0
LINE
8
BLACK
6
CONTINUOUS
10
4.94652
20
-2.88635
11
4.95952
21
-2.8811
0
LINE
8
BLACK
6
CONTINUOUS
10
4.95952
20
-2.8811
11
4.97303
21
-2.87733
0
LINE
8
BLACK
6
CONTINUOUS
10
4.97303
20
-2.87733
11
4.98687
21
-2.87509
0
LINE
8
BLACK
6
CONTINUOUS
10
4.98687
20
-2.87509
11
5.00088
21
-2.8744
0
LINE
8
BLACK
6
CONTINUOUS
10
5.00088
20
-2.8744
11
5.01487
21
-2.87528
0
LINE
8
BLACK
6
CONTINUOUS
10
5.01487
20
-2.87528
11
5.02868
21
-2.87772
0
LINE
8
BLACK
6
CONTINUOUS
10
5.02868
20
-2.87772
11
5.04213
21
-2.88168
0
LINE
8
BLACK
6
CONTINUOUS
10
5.04213
20
-2.88168
11
5.05506
21
-2.88711
0
LINE
8
BLACK
6
CONTINUOUS
10
5.05506
20
-2.88711
11
5.0673
21
-2.89395
0
LINE
8
BLACK
6
CONTINUOUS
10
5.0673
20
-2.89395
11
5.0787
21
-2.90212
0
LINE
8
BLACK
6
CONTINUOUS
10
5.0787
20
-2.90212
11
5.08912
21
-2.9115
0
LINE
8
BLACK
6
CONTINUOUS
10
5.08912
20
-2.9115
11
5.09843
21
-2.92198
0
LINE
8
BLACK
6
CONTINUOUS
10
5.09843
20
-2.92198
11
5.10651
21
-2.93344
0
LINE
8
BLACK
6
CONTINUOUS
10
5.10651
20
-2.93344
11
5.11327
21
-2.94573
0
LINE
8
BLACK
6
CONTINUOUS
10
5.11327
20
-2.94573
11
5.11861
21
-2.95869
0
LINE
8
BLACK
6
CONTINUOUS
10
5.11861
20
-2.95869
11
5.12248
21
-2.97217
0
LINE
8
BLACK
6
CONTINUOUS
10
5.12248
20
-2.97217
11
5.12482
21
-2.986
0
LINE
8
BLACK
6
CONTINUOUS
10
5.12482
20
-2.986
11
5.1256
21
-3
0
LINE
8
BLACK
6
CONTINUOUS
10
5.1256
20
-3
11
5.12555
21
-3.00351
0
LINE
8
BLACK
6
CONTINUOUS
10
5.12555
20
-3.00351
11
5.12438
21
-3.01748
0
LINE
8
BLACK
6
CONTINUOUS
10
5.12438
20
-3.01748
11
5.12165
21
-3.03124
0
LINE
8
BLACK
6
CONTINUOUS
10
5.12165
20
-3.03124
11
5.11741
21
-3.0446
0
LINE
8
BLACK
6
CONTINUOUS
10
5.11741
20
-3.0446
11
5.11171
21
-3.05741
0
LINE
8
BLACK
6
CONTINUOUS
10
5.11171
20
-3.05741
11
5.10461
21
-3.06951
0
LINE
8
BLACK
6
CONTINUOUS
10
5.10461
20
-3.06951
11
5.09622
21
-3.08073
0
LINE
8
BLACK
6
CONTINUOUS
10
5.09622
20
-3.08073
11
5.08662
21
-3.09096
0
LINE
8
BLACK
6
CONTINUOUS
10
5.08662
20
-3.09096
11
5.07594
21
-3.10004
0
LINE
8
BLACK
6
CONTINUOUS
10
5.07594
20
-3.10004
11
5.06431
21
-3.10789
0
LINE
8
BLACK
6
CONTINUOUS
10
5.06431
20
-3.10789
11
5.05189
21
-3.11438
0
LINE
8
BLACK
6
CONTINUOUS
10
5.05189
20
-3.11438
11
5.03881
21
-3.11945
0
LINE
8
BLACK
6
CONTINUOUS
10
5.03881
20
-3.11945
11
5.02526
21
-3.12303
0
LINE
8
BLACK
6
CONTINUOUS
10
5.02526
20
-3.12303
11
5.01138
21
-3.12508
0
LINE
8
BLACK
6
CONTINUOUS
10
5.01138
20
-3.12508
11
4.99737
21
-3.12557
0
LINE
8
BLACK
6
CONTINUOUS
10
4.99737
20
-3.12557
11
4.98339
21
-3.1245
0
LINE
8
BLACK
6
CONTINUOUS
10
4.98339
20
-3.1245
11
4.96961
21
-3.12187
0
LINE
8
BLACK
6
CONTINUOUS
10
4.96961
20
-3.12187
11
4.95622
21
-3.11772
0
LINE
8
BLACK
6
CONTINUOUS
10
4.95622
20
-3.11772
11
4.94337
21
-3.11211
0
LINE
8
BLACK
6
CONTINUOUS
10
4.94337
20
-3.11211
11
4.93123
21
-3.1051
0
LINE
8
BLACK
6
CONTINUOUS
10
4.93123
20
-3.1051
11
4.91994
21
-3.09678
0
LINE
8
BLACK
6
CONTINUOUS
10
4.91994
20
-3.09678
11
4.90965
21
-3.08725
0
LINE
8
BLACK
6
CONTINUOUS
10
4.90965
20
-3.08725
11
4.90049
21
-3.07663
0
LINE
8
BLACK
6
CONTINUOUS
10
4.90049
20
-3.07663
11
4.89257
21
-3.06506
0
LINE
8
BLACK
6
CONTINUOUS
10
4.89257
20
-3.06506
11
4.88598
21
-3.05268
0
LINE
8
BLACK
6
CONTINUOUS
10
4.88598
20
-3.05268
11
4.88082
21
-3.03965
0
LINE
8
BLACK
6
CONTINUOUS
10
4.88082
20
-3.03965
11
4.87714
21
-3.02611
0
LINE
8
BLACK
6
CONTINUOUS
10
4.87714
20
-3.02611
11
4.875
21
-3.01226
0
LINE
8
BLACK
6
CONTINUOUS
10
4.875
20
-3.01226
11
4.87441
21
-2.99825
0
LINE
8
BLACK
6
CONTINUOUS
10
4.87441
20
-2.99825
11
4.87453
21
-2.99652
0
LINE
8
BLACK
6
CONTINUOUS
10
4.87453
20
-2.99652
11
4.87539
21
-2.98426
0
LINE
8
BLACK
6
CONTINUOUS
10
4.87539
20
-2.98426
11
4.87792
21
-2.97047
0
LINE
8
BLACK
6
CONTINUOUS
10
4.8914
20
-3.0219
11
4.89463
21
-3.03424
0
LINE
8
BLACK
6
CONTINUOUS
10
4.89463
20
-3.03424
11
4.89927
21
-3.04612
0
LINE
8
BLACK
6
CONTINUOUS
10
4.89927
20
-3.04612
11
4.90524
21
-3.05739
0
LINE
8
BLACK
6
CONTINUOUS
10
4.90524
20
-3.05739
11
4.91246
21
-3.0679
0
LINE
8
BLACK
6
CONTINUOUS
10
4.91246
20
-3.0679
11
4.92085
21
-3.07751
0
LINE
8
BLACK
6
CONTINUOUS
10
4.92085
20
-3.07751
11
4.93028
21
-3.0861
0
LINE
8
BLACK
6
CONTINUOUS
10
4.93028
20
-3.0861
11
4.94064
21
-3.09354
0
LINE
8
BLACK
6
CONTINUOUS
10
4.94064
20
-3.09354
11
4.95178
21
-3.09974
0
LINE
8
BLACK
6
CONTINUOUS
10
4.95178
20
-3.09974
11
4.96357
21
-3.10463
0
LINE
8
BLACK
6
CONTINUOUS
10
4.96357
20
-3.10463
11
4.97583
21
-3.10812
0
LINE
8
BLACK
6
CONTINUOUS
10
4.97583
20
-3.10812
11
4.98842
21
-3.11018
0
LINE
8
BLACK
6
CONTINUOUS
10
4.98842
20
-3.11018
11
5.00116
21
-3.11078
0
LINE
8
BLACK
6
CONTINUOUS
10
5.00116
20
-3.11078
11
5.01389
21
-3.10991
0
LINE
8
BLACK
6
CONTINUOUS
10
5.01389
20
-3.10991
11
5.02643
21
-3.10759
0
LINE
8
BLACK
6
CONTINUOUS
10
5.02643
20
-3.10759
11
5.03862
21
-3.10384
0
LINE
8
BLACK
6
CONTINUOUS
10
5.03862
20
-3.10384
11
5.0503
21
-3.09871
0
LINE
8
BLACK
6
CONTINUOUS
10
5.0503
20
-3.09871
11
5.06131
21
-3.09228
0
LINE
8
BLACK
6
CONTINUOUS
10
5.06131
20
-3.09228
11
5.07151
21
-3.08462
0
LINE
8
BLACK
6
CONTINUOUS
10
5.07151
20
-3.08462
11
5.08076
21
-3.07584
0
LINE
8
BLACK
6
CONTINUOUS
10
5.08076
20
-3.07584
11
5.08894
21
-3.06605
0
LINE
8
BLACK
6
CONTINUOUS
10
5.08894
20
-3.06605
11
5.09594
21
-3.05539
0
LINE
8
BLACK
6
CONTINUOUS
10
5.09594
20
-3.05539
11
5.10168
21
-3.044
0
LINE
8
BLACK
6
CONTINUOUS
10
5.10168
20
-3.044
11
5.10606
21
-3.03202
0
LINE
8
BLACK
6
CONTINUOUS
10
5.10606
20
-3.03202
11
5.10904
21
-3.01962
0
LINE
8
BLACK
6
CONTINUOUS
10
5.10904
20
-3.01962
11
5.11057
21
-3.00696
0
LINE
8
BLACK
6
CONTINUOUS
10
5.11057
20
-3.00696
11
5.11079
21
-3
0
LINE
8
BLACK
6
CONTINUOUS
10
5.11079
20
-3
11
5.11005
21
-2.98727
0
LINE
8
BLACK
6
CONTINUOUS
10
5.11005
20
-2.98727
11
5.10786
21
-2.9747
0
LINE
8
BLACK
6
CONTINUOUS
10
5.10786
20
-2.9747
11
5.10424
21
-2.96247
0
LINE
8
BLACK
6
CONTINUOUS
10
5.10424
20
-2.96247
11
5.09923
21
-2.95074
0
LINE
8
BLACK
6
CONTINUOUS
10
5.09923
20
-2.95074
11
5.09291
21
-2.93966
0
LINE
8
BLACK
6
CONTINUOUS
10
5.09291
20
-2.93966
11
5.08536
21
-2.92938
0
LINE
8
BLACK
6
CONTINUOUS
10
5.08536
20
-2.92938
11
5.07668
21
-2.92004
0
LINE
8
BLACK
6
CONTINUOUS
10
5.07668
20
-2.92004
11
5.06698
21
-2.91175
0
LINE
8
BLACK
6
CONTINUOUS
10
5.06698
20
-2.91175
11
5.0564
21
-2.90464
0
LINE
8
BLACK
6
CONTINUOUS
10
5.0564
20
-2.90464
11
5.04506
21
-2.89879
0
LINE
8
BLACK
6
CONTINUOUS
10
5.04506
20
-2.89879
11
5.03313
21
-2.89428
0
LINE
8
BLACK
6
CONTINUOUS
10
5.03313
20
-2.89428
11
5.02076
21
-2.89117
0
LINE
8
BLACK
6
CONTINUOUS
10
5.02076
20
-2.89117
11
5.00811
21
-2.88951
0
LINE
8
BLACK
6
CONTINUOUS
10
5.00811
20
-2.88951
11
4.99536
21
-2.88931
0
LINE
8
BLACK
6
CONTINUOUS
10
4.99536
20
-2.88931
11
4.98267
21
-2.89058
0
LINE
8
BLACK
6
CONTINUOUS
10
4.98267
20
-2.89058
11
4.97021
21
-2.89329
0
LINE
8
BLACK
6
CONTINUOUS
10
4.97021
20
-2.89329
11
4.95814
21
-2.89743
0
LINE
8
BLACK
6
CONTINUOUS
10
4.95814
20
-2.89743
11
4.94663
21
-2.90292
0
LINE
8
BLACK
6
CONTINUOUS
10
4.94663
20
-2.90292
11
4.93582
21
-2.90969
0
LINE
8
BLACK
6
CONTINUOUS
10
4.93582
20
-2.90969
11
4.92587
21
-2.91767
0
LINE
8
BLACK
6
CONTINUOUS
10
4.92587
20
-2.91767
11
4.9169
21
-2.92673
0
LINE
8
BLACK
6
CONTINUOUS
10
4.9169
20
-2.92673
11
4.90903
21
-2.93677
0
LINE
8
BLACK
6
CONTINUOUS
10
4.90903
20
-2.93677
11
4.90236
21
-2.94765
0
LINE
8
BLACK
6
CONTINUOUS
10
4.90236
20
-2.94765
11
4.89699
21
-2.95922
0
LINE
8
BLACK
6
CONTINUOUS
10
4.89699
20
-2.95922
11
4.89299
21
-2.97133
0
LINE
8
BLACK
6
CONTINUOUS
10
4.89299
20
-2.97133
11
4.8904
21
-2.98382
0
LINE
8
BLACK
6
CONTINUOUS
10
4.8904
20
-2.98382
11
4.88927
21
-2.99652
0
LINE
8
BLACK
6
CONTINUOUS
10
4.88927
20
-2.99652
11
4.8896
21
-3.00927
0
LINE
8
BLACK
6
CONTINUOUS
10
4.8896
20
-3.00927
11
4.8914
21
-3.0219
0
LINE
8
BLACK
6
CONTINUOUS
10
6.07792
20
-2.97047
11
6.08197
21
-2.95704
0
LINE
8
BLACK
6
CONTINUOUS
10
6.08197
20
-2.95704
11
6.0875
21
-2.94415
0
LINE
8
BLACK
6
CONTINUOUS
10
6.0875
20
-2.94415
11
6.09442
21
-2.93196
0
LINE
8
BLACK
6
CONTINUOUS
10
6.09442
20
-2.93196
11
6.10267
21
-2.92062
0
LINE
8
BLACK
6
CONTINUOUS
10
6.10267
20
-2.92062
11
6.11212
21
-2.91026
0
LINE
8
BLACK
6
CONTINUOUS
10
6.11212
20
-2.91026
11
6.12267
21
-2.90103
0
LINE
8
BLACK
6
CONTINUOUS
10
6.12267
20
-2.90103
11
6.13419
21
-2.89302
0
LINE
8
BLACK
6
CONTINUOUS
10
6.13419
20
-2.89302
11
6.14652
21
-2.88635
0
LINE
8
BLACK
6
CONTINUOUS
10
6.14652
20
-2.88635
11
6.15952
21
-2.8811
0
LINE
8
BLACK
6
CONTINUOUS
10
6.15952
20
-2.8811
11
6.17303
21
-2.87733
0
LINE
8
BLACK
6
CONTINUOUS
10
6.17303
20
-2.87733
11
6.18687
21
-2.87509
0
LINE
8
BLACK
6
CONTINUOUS
10
6.18687
20
-2.87509
11
6.20088
21
-2.8744
0
LINE
8
BLACK
6
CONTINUOUS
10
6.20088
20
-2.8744
11
6.21487
21
-2.87528
0
LINE
8
BLACK
6
CONTINUOUS
10
6.21487
20
-2.87528
11
6.22868
21
-2.87772
0
LINE
8
BLACK
6
CONTINUOUS
10
6.22868
20
-2.87772
11
6.24213
21
-2.88168
0
LINE
8
BLACK
6
CONTINUOUS
10
6.24213
20
-2.88168
11
6.25506
21
-2.88711
0
LINE
8
BLACK
6
CONTINUOUS
10
6.25506
20
-2.88711
11
6.2673
21
-2.89395
0
LINE
8
BLACK
6
CONTINUOUS
10
6.2673
20
-2.89395
11
6.2787
21
-2.90212
0
LINE
8
BLACK
6
CONTINUOUS
10
6.2787
20
-2.90212
11
6.28912
21
-2.9115
0
LINE
8
BLACK
6
CONTINUOUS
10
6.28912
20
-2.9115
11
6.29843
21
-2.92198
0
LINE
8
BLACK
6
CONTINUOUS
10
6.29843
20
-2.92198
11
6.30651
21
-2.93344
0
LINE
8
BLACK
6
CONTINUOUS
10
6.30651
20
-2.93344
11
6.31327
21
-2.94573
0
LINE
8
BLACK
6
CONTINUOUS
10
6.31327
20
-2.94573
11
6.31861
21
-2.95869
0
LINE
8
BLACK
6
CONTINUOUS
10
6.31861
20
-2.95869
11
6.32248
21
-2.97217
0
LINE
8
BLACK
6
CONTINUOUS
10
6.32248
20
-2.97217
11
6.32482
21
-2.986
0
LINE
8
BLACK
6
CONTINUOUS
10
6.32482
20
-2.986
11
6.3256
21
-3
0
LINE
8
BLACK
6
CONTINUOUS
10
6.3256
20
-3
11
6.32555
21
-3.00351
0
LINE
8
BLACK
6
CONTINUOUS
10
6.32555
20
-3.00351
11
6.32438
21
-3.01748
0
LINE
8
BLACK
6
CONTINUOUS
10
6.32438
20
-3.01748
11
6.32165
21
-3.03124
0
LINE
8
BLACK
6
CONTINUOUS
10
6.32165
20
-3.03124
11
6.31741
21
-3.0446
0
LINE
8
BLACK
6
CONTINUOUS
10
6.31741
20
-3.0446
11
6.31171
21
-3.05741
0
LINE
8
BLACK
6
CONTINUOUS
10
6.31171
20
-3.05741
11
6.30461
21
-3.06951
0
LINE
8
BLACK
6
CONTINUOUS
10
6.30461
20
-3.06951
11
6.29622
21
-3.08073
0
LINE
8
BLACK
6
CONTINUOUS
10
6.29622
20
-3.08073
11
6.28662
21
-3.09096
0
LINE
8
BLACK
6
CONTINUOUS
10
6.28662
20
-3.09096
11
6.27594
21
-3.10004
0
LINE
8
BLACK
6
CONTINUOUS
10
6.27594
20
-3.10004
11
6.26431
21
-3.10789
0
LINE
8
BLACK
6
CONTINUOUS
10
6.26431
20
-3.10789
11
6.25189
21
-3.11438
0
LINE
8
BLACK
6
CONTINUOUS
10
6.25189
20
-3.11438
11
6.23881
21
-3.11945
0
LINE
8
BLACK
6
CONTINUOUS
10
6.23881
20
-3.11945
11
6.22526
21
-3.12303
0
LINE
8
BLACK
6
CONTINUOUS
10
6.22526
20
-3.12303
11
6.21138
21
-3.12508
0
LINE
8
BLACK
6
CONTINUOUS
10
6.21138
20
-3.12508
11
6.19737
21
-3.12557
0
LINE
8
BLACK
6
CONTINUOUS
10
6.19737
20
-3.12557
11
6.18339
21
-3.1245
0
LINE
8
BLACK
6
CONTINUOUS
10
6.18339
20
-3.1245
11
6.16961
21
-3.12187
0
LINE
8
BLACK
6
CONTINUOUS
10
6.16961
20
-3.12187
11
6.15622
21
-3.11772
0
LINE
8
BLACK
6
CONTINUOUS
10
6.15622
20
-3.11772
11
6.14337
21
-3.11211
0
LINE
8
BLACK
6
CONTINUOUS
10
6.14337
20
-3.11211
11
6.13123
21
-3.1051
0
LINE
8
BLACK
6
CONTINUOUS
10
6.13123
20
-3.1051
11
6.11994
21
-3.09678
0
LINE
8
BLACK
6
CONTINUOUS
10
6.11994
20
-3.09678
11
6.10965
21
-3.08725
0
LINE
8
BLACK
6
CONTINUOUS
10
6.10965
20
-3.08725
11
6.10049
21
-3.07663
0
LINE
8
BLACK
6
CONTINUOUS
10
6.10049
20
-3.07663
11
6.09257
21
-3.06506
0
LINE
8
BLACK
6
CONTINUOUS
10
6.09257
20
-3.06506
11
6.08598
21
-3.05268
0
LINE
8
BLACK
6
CONTINUOUS
10
6.08598
20
-3.05268
11
6.08082
21
-3.03965
0
LINE
8
BLACK
6
CONTINUOUS
10
6.08082
20
-3.03965
11
6.07714
21
-3.02611
0
LINE
8
BLACK
6
CONTINUOUS
10
6.07714
20
-3.02611
11
6.075
21
-3.01226
0
LINE
8
BLACK
6
CONTINUOUS
10
6.075
20
-3.01226
11
6.07441
21
-2.99825
0
LINE
8
BLACK
6
CONTINUOUS
10
6.07441
20
-2.99825
11
6.07453
21
-2.99652
0
LINE
8
BLACK
6
CONTINUOUS
10
6.07453
20
-2.99652
11
6.07539
21
-2.98426
0
LINE
8
BLACK
6
CONTINUOUS
10
6.07539
20
-2.98426
11
6.07792
21
-2.97047
0
LINE
8
BLACK
6
CONTINUOUS
10
6.0914
20
-3.0219
11
6.09463
21
-3.03424
0
LINE
8
BLACK
6
CONTINUOUS
10
6.09463
20
-3.03424
11
6.09927
21
-3.04612
0
LINE
8
BLACK
6
CONTINUOUS
10
6.09927
20
-3.04612
11
6.10524
21
-3.05739
0
LINE
8
BLACK
6
CONTINUOUS
10
6.10524
20
-3.05739
11
6.11246
21
-3.0679
0
LINE
8
BLACK
6
CONTINUOUS
10
6.11246
20
-3.0679
11
6.12085
21
-3.07751
0
LINE
8
BLACK
6
CONTINUOUS
10
6.12085
20
-3.07751
11
6.13028
21
-3.0861
0
LINE
8
BLACK
6
CONTINUOUS
10
6.13028
20
-3.0861
11
6.14064
21
-3.09354
0
LINE
8
BLACK
6
CONTINUOUS
10
6.14064
20
-3.09354
11
6.15178
21
-3.09974
0
LINE
8
BLACK
6
CONTINUOUS
10
6.15178
20
-3.09974
11
6.16357
21
-3.10463
0
LINE
8
BLACK
6
CONTINUOUS
10
6.16357
20
-3.10463
11
6.17583
21
-3.10812
0
LINE
8
BLACK
6
CONTINUOUS
10
6.17583
20
-3.10812
11
6.18842
21
-3.11018
0
LINE
8
BLACK
6
CONTINUOUS
10
6.18842
20
-3.11018
11
6.20116
21
-3.11078
0
LINE
8
BLACK
6
CONTINUOUS
10
6.20116
20
-3.11078
11
6.21389
21
-3.10991
0
LINE
8
BLACK
6
CONTINUOUS
10
6.21389
20
-3.10991
11
6.22643
21
-3.10759
0
LINE
8
BLACK
6
CONTINUOUS
10
6.22643
20
-3.10759
11
6.23862
21
-3.10384
0
LINE
8
BLACK
6
CONTINUOUS
10
6.23862
20
-3.10384
11
6.2503
21
-3.09871
0
LINE
8
BLACK
6
CONTINUOUS
10
6.2503
20
-3.09871
11
6.26131
21
-3.09228
0
LINE
8
BLACK
6
CONTINUOUS
10
6.26131
20
-3.09228
11
6.27151
21
-3.08462
0
LINE
8
BLACK
6
CONTINUOUS
10
6.27151
20
-3.08462
11
6.28076
21
-3.07584
0
LINE
8
BLACK
6
CONTINUOUS
10
6.28076
20
-3.07584
11
6.28894
21
-3.06605
0
LINE
8
BLACK
6
CONTINUOUS
10
6.28894
20
-3.06605
11
6.29594
21
-3.05539
0
LINE
8
BLACK
6
CONTINUOUS
10
6.29594
20
-3.05539
11
6.30168
21
-3.044
0
LINE
8
BLACK
6
CONTINUOUS
10
6.30168
20
-3.044
11
6.30606
21
-3.03202
0
LINE
8
BLACK
6
CONTINUOUS
10
6.30606
20
-3.03202
11
6.30904
21
-3.01962
0
LINE
8
BLACK
6
CONTINUOUS
10
6.30904
20
-3.01962
11
6.31057
21
-3.00696
0
LINE
8
BLACK
6
CONTINUOUS
10
6.31057
20
-3.00696
11
6.31079
21
-3
0
LINE
8
BLACK
6
CONTINUOUS
10
6.31079
20
-3
11
6.31005
21
-2.98727
0
LINE
8
BLACK
6
CONTINUOUS
10
6.31005
20
-2.98727
11
6.30786
21
-2.9747
0
LINE
8
BLACK
6
CONTINUOUS
10
6.30786
20
-2.9747
11
6.30424
21
-2.96247
0
LINE
8
BLACK
6
CONTINUOUS
10
6.30424
20
-2.96247
11
6.29923
21
-2.95074
0
LINE
8
BLACK
6
CONTINUOUS
10
6.29923
20
-2.95074
11
6.29291
21
-2.93966
0
LINE
8
BLACK
6
CONTINUOUS
10
6.29291
20
-2.93966
11
6.28536
21
-2.92938
0
LINE
8
BLACK
6
CONTINUOUS
10
6.28536
20
-2.92938
11
6.27668
21
-2.92004
0
LINE
8
BLACK
6
CONTINUOUS
10
6.27668
20
-2.92004
11
6.26698
21
-2.91175
0
LINE
8
BLACK
6
CONTINUOUS
10
6.26698
20
-2.91175
11
6.2564
21
-2.90464
0
LINE
8
BLACK
6
CONTINUOUS
10
6.2564
20
-2.90464
11
6.24506
21
-2.89879
0
LINE
8
BLACK
6
CONTINUOUS
10
6.24506
20
-2.89879
11
6.23313
21
-2.89428
0
LINE
8
BLACK
6
CONTINUOUS
10
6.23313
20
-2.89428
11
6.22076
21
-2.89117
0
LINE
8
BLACK
6
CONTINUOUS
10
6.22076
20
-2.89117
11
6.20811
21
-2.88951
0
LINE
8
BLACK
6
CONTINUOUS
10
6.20811
20
-2.88951
11
6.19536
21
-2.88931
0
LINE
8
BLACK
6
CONTINUOUS
10
6.19536
20
-2.88931
11
6.18267
21
-2.89058
0
LINE
8
BLACK
6
CONTINUOUS
10
6.18267
20
-2.89058
11
6.17021
21
-2.89329
0
LINE
8
BLACK
6
CONTINUOUS
10
6.17021
20
-2.89329
11
6.15814
21
-2.89743
0
LINE
8
BLACK
6
CONTINUOUS
10
6.15814
20
-2.89743
11
6.14663
21
-2.90292
0
LINE
8
BLACK
6
CONTINUOUS
10
6.14663
20
-2.90292
11
6.13582
21
-2.90969
0
LINE
8
BLACK
6
CONTINUOUS
10
6.13582
20
-2.90969
11
6.12587
21
-2.91767
0
LINE
8
BLACK
6
CONTINUOUS
10
6.12587
20
-2.91767
11
6.1169
21
-2.92673
0
LINE
8
BLACK
6
CONTINUOUS
10
6.1169
20
-2.92673
11
6.10903
21
-2.93677
0
LINE
8
BLACK
6
CONTINUOUS
10
6.10903
20
-2.93677
11
6.10236
21
-2.94765
0
LINE
8
BLACK
6
CONTINUOUS
10
6.10236
20
-2.94765
11
6.09699
21
-2.95922
0
LINE
8
BLACK
6
CONTINUOUS
10
6.09699
20
-2.95922
11
6.09299
21
-2.97133
0
LINE
8
BLACK
6
CONTINUOUS
10
6.09299
20
-2.97133
11
6.0904
21
-2.98382
0
LINE
8
BLACK
6
CONTINUOUS
10
6.0904
20
-2.98382
11
6.08927
21
-2.99652
0
LINE
8
BLACK
6
CONTINUOUS
10
6.08927
20
-2.99652
11
6.0896
21
-3.00927
0
LINE
8
BLACK
6
CONTINUOUS
10
6.0896
20
-3.00927
11
6.0914
21
-3.0219
  0
ENDSEC
  0
EOF
