  0
SECTION
  2
HEADER
  9
$ANGBASE
  50
0.0
  9
$ANGDIR
  70
1
  9
$MEASUREMENT
  70
0
  0
ENDSEC
  0
SECTION
  2
TABLES
  0
TABLE
  2
LTYPE
  70
4
  0
LTYPE
  5
40F
  2
CONTINUOUS
  70
0
  3
Solid line
  72
65
  73
0
  40
0.0
  0
LTYPE
  5
410
  2
DASHDOT
 70
0
  3
Dash Dot ____ _ ____ _
 72
65
 73
4
 40
2.0
 49
1.25
 49
-0.25
 49
0.25
 49
-0.25
  0
LTYPE
  5
411
  2
DASHED
 70
0
  3
Dashed __ __ __ __ __
 72
65
 73
2
 40
0.75
 49
0.5
 49
-0.25
  0
LTYPE
  5
43B
  2
DOTTED
 70
0
  3
Dotted .  .  .  .
 72
65
 73
2
 40
0.2
 49
0.0
 49
-0.2
  0
ENDTAB
  0
TABLE
  2
STYLE
  70
4
  0
STYLE
  2
KICAD
  70
0
  40
0
  41
1
  42
1
  50
0
  71
0
  3
isocp.shx
  0
STYLE
  2
KICADB
  70
0
  40
0
  41
1
  42
1
  50
0
  71
0
  3
isocp.shx
  0
STYLE
  2
KICADI
  70
0
  40
0
  41
1
  42
1
  50
15
  71
0
  3
isocp.shx
  0
STYLE
  2
KICADBI
  70
0
  40
0
  41
1
  42
1
  50
15
  71
0
  3
isocp.shx
  0
ENDTAB
  0
TABLE
  2
LAYER
  70
1
  0
LAYER
  2
BLACK
  70
0
  62
7
  6
CONTINUOUS
  0
ENDTAB
  0
ENDSEC
  0
SECTION
  2
ENTITIES
0
LINE
8
BLACK
6
CONTINUOUS
10
0.766732
20
0.280709
11
0.699803
21
0.280709
0
LINE
8
BLACK
6
CONTINUOUS
10
0.699803
20
0.280709
11
0.699803
21
0.347638
0
LINE
8
BLACK
6
CONTINUOUS
10
0.699803
20
0.347638
11
0.766732
21
0.347638
0
LINE
8
BLACK
6
CONTINUOUS
10
0.766732
20
0.347638
11
0.766732
21
0.280709
0
LINE
8
BLACK
6
CONTINUOUS
10
0.843609
20
0.346
11
0.85
21
0.343154
0
LINE
8
BLACK
6
CONTINUOUS
10
0.85
20
0.343154
11
0.85566
21
0.339042
0
LINE
8
BLACK
6
CONTINUOUS
10
0.85566
20
0.339042
11
0.860341
21
0.333843
0
LINE
8
BLACK
6
CONTINUOUS
10
0.860341
20
0.333843
11
0.863839
21
0.327784
0
LINE
8
BLACK
6
CONTINUOUS
10
0.863839
20
0.327784
11
0.866001
21
0.321131
0
LINE
8
BLACK
6
CONTINUOUS
10
0.866001
20
0.321131
11
0.866732
21
0.314173
0
LINE
8
BLACK
6
CONTINUOUS
10
0.866732
20
0.314173
11
0.866001
21
0.307216
0
LINE
8
BLACK
6
CONTINUOUS
10
0.866001
20
0.307216
11
0.863839
21
0.300562
0
LINE
8
BLACK
6
CONTINUOUS
10
0.863839
20
0.300562
11
0.860341
21
0.294503
0
LINE
8
BLACK
6
CONTINUOUS
10
0.860341
20
0.294503
11
0.85566
21
0.289304
0
LINE
8
BLACK
6
CONTINUOUS
10
0.85566
20
0.289304
11
0.85
21
0.285192
0
LINE
8
BLACK
6
CONTINUOUS
10
0.85
20
0.285192
11
0.843609
21
0.282347
0
LINE
8
BLACK
6
CONTINUOUS
10
0.843609
20
0.282347
11
0.836766
21
0.280892
0
LINE
8
BLACK
6
CONTINUOUS
10
0.836766
20
0.280892
11
0.82977
21
0.280892
0
LINE
8
BLACK
6
CONTINUOUS
10
0.82977
20
0.280892
11
0.822927
21
0.282347
0
LINE
8
BLACK
6
CONTINUOUS
10
0.822927
20
0.282347
11
0.816535
21
0.285192
0
LINE
8
BLACK
6
CONTINUOUS
10
0.816535
20
0.285192
11
0.810876
21
0.289304
0
LINE
8
BLACK
6
CONTINUOUS
10
0.810876
20
0.289304
11
0.806194
21
0.294503
0
LINE
8
BLACK
6
CONTINUOUS
10
0.806194
20
0.294503
11
0.802696
21
0.300562
0
LINE
8
BLACK
6
CONTINUOUS
10
0.802696
20
0.300562
11
0.800534
21
0.307216
0
LINE
8
BLACK
6
CONTINUOUS
10
0.800534
20
0.307216
11
0.799803
21
0.314173
0
LINE
8
BLACK
6
CONTINUOUS
10
0.799803
20
0.314173
11
0.800534
21
0.321131
0
LINE
8
BLACK
6
CONTINUOUS
10
0.800534
20
0.321131
11
0.802696
21
0.327784
0
LINE
8
BLACK
6
CONTINUOUS
10
0.802696
20
0.327784
11
0.806194
21
0.333843
0
LINE
8
BLACK
6
CONTINUOUS
10
0.806194
20
0.333843
11
0.810876
21
0.339042
0
LINE
8
BLACK
6
CONTINUOUS
10
0.810876
20
0.339042
11
0.816535
21
0.343154
0
LINE
8
BLACK
6
CONTINUOUS
10
0.816535
20
0.343154
11
0.822927
21
0.346
0
LINE
8
BLACK
6
CONTINUOUS
10
0.822927
20
0.346
11
0.82977
21
0.347454
0
LINE
8
BLACK
6
CONTINUOUS
10
0.82977
20
0.347454
11
0.836766
21
0.347454
0
LINE
8
BLACK
6
CONTINUOUS
10
0.836766
20
0.347454
11
0.843609
21
0.346
0
LINE
8
BLACK
6
CONTINUOUS
10
0.943609
20
0.346
11
0.95
21
0.343154
0
LINE
8
BLACK
6
CONTINUOUS
10
0.95
20
0.343154
11
0.95566
21
0.339042
0
LINE
8
BLACK
6
CONTINUOUS
10
0.95566
20
0.339042
11
0.960341
21
0.333843
0
LINE
8
BLACK
6
CONTINUOUS
10
0.960341
20
0.333843
11
0.963839
21
0.327784
0
LINE
8
BLACK
6
CONTINUOUS
10
0.963839
20
0.327784
11
0.966001
21
0.321131
0
LINE
8
BLACK
6
CONTINUOUS
10
0.966001
20
0.321131
11
0.966732
21
0.314173
0
LINE
8
BLACK
6
CONTINUOUS
10
0.966732
20
0.314173
11
0.966001
21
0.307216
0
LINE
8
BLACK
6
CONTINUOUS
10
0.966001
20
0.307216
11
0.963839
21
0.300562
0
LINE
8
BLACK
6
CONTINUOUS
10
0.963839
20
0.300562
11
0.960341
21
0.294503
0
LINE
8
BLACK
6
CONTINUOUS
10
0.960341
20
0.294503
11
0.95566
21
0.289304
0
LINE
8
BLACK
6
CONTINUOUS
10
0.95566
20
0.289304
11
0.95
21
0.285192
0
LINE
8
BLACK
6
CONTINUOUS
10
0.95
20
0.285192
11
0.943609
21
0.282347
0
LINE
8
BLACK
6
CONTINUOUS
10
0.943609
20
0.282347
11
0.936766
21
0.280892
0
LINE
8
BLACK
6
CONTINUOUS
10
0.936766
20
0.280892
11
0.92977
21
0.280892
0
LINE
8
BLACK
6
CONTINUOUS
10
0.92977
20
0.280892
11
0.922927
21
0.282347
0
LINE
8
BLACK
6
CONTINUOUS
10
0.922927
20
0.282347
11
0.916535
21
0.285192
0
LINE
8
BLACK
6
CONTINUOUS
10
0.916535
20
0.285192
11
0.910876
21
0.289304
0
LINE
8
BLACK
6
CONTINUOUS
10
0.910876
20
0.289304
11
0.906194
21
0.294503
0
LINE
8
BLACK
6
CONTINUOUS
10
0.906194
20
0.294503
11
0.902696
21
0.300562
0
LINE
8
BLACK
6
CONTINUOUS
10
0.902696
20
0.300562
11
0.900534
21
0.307216
0
LINE
8
BLACK
6
CONTINUOUS
10
0.900534
20
0.307216
11
0.899803
21
0.314173
0
LINE
8
BLACK
6
CONTINUOUS
10
0.899803
20
0.314173
11
0.900534
21
0.321131
0
LINE
8
BLACK
6
CONTINUOUS
10
0.900534
20
0.321131
11
0.902696
21
0.327784
0
LINE
8
BLACK
6
CONTINUOUS
10
0.902696
20
0.327784
11
0.906194
21
0.333843
0
LINE
8
BLACK
6
CONTINUOUS
10
0.906194
20
0.333843
11
0.910876
21
0.339042
0
LINE
8
BLACK
6
CONTINUOUS
10
0.910876
20
0.339042
11
0.916535
21
0.343154
0
LINE
8
BLACK
6
CONTINUOUS
10
0.916535
20
0.343154
11
0.922927
21
0.346
0
LINE
8
BLACK
6
CONTINUOUS
10
0.922927
20
0.346
11
0.92977
21
0.347454
0
LINE
8
BLACK
6
CONTINUOUS
10
0.92977
20
0.347454
11
0.936766
21
0.347454
0
LINE
8
BLACK
6
CONTINUOUS
10
0.936766
20
0.347454
11
0.943609
21
0.346
0
LINE
8
BLACK
6
CONTINUOUS
10
0.42051
20
0.516316
11
0.433874
21
0.513148
0
LINE
8
BLACK
6
CONTINUOUS
10
0.433874
20
0.513148
11
0.446781
21
0.508451
0
LINE
8
BLACK
6
CONTINUOUS
10
0.446781
20
0.508451
11
0.459055
21
0.502286
0
LINE
8
BLACK
6
CONTINUOUS
10
0.459055
20
0.502286
11
0.470531
21
0.494739
0
LINE
8
BLACK
6
CONTINUOUS
10
0.470531
20
0.494739
11
0.481052
21
0.48591
0
LINE
8
BLACK
6
CONTINUOUS
10
0.481052
20
0.48591
11
0.490478
21
0.47592
0
LINE
8
BLACK
6
CONTINUOUS
10
0.490478
20
0.47592
11
0.49868
21
0.464903
0
LINE
8
BLACK
6
CONTINUOUS
10
0.49868
20
0.464903
11
0.505547
21
0.453008
0
LINE
8
BLACK
6
CONTINUOUS
10
0.505547
20
0.453008
11
0.510987
21
0.440396
0
LINE
8
BLACK
6
CONTINUOUS
10
0.510987
20
0.440396
11
0.514927
21
0.427238
0
LINE
8
BLACK
6
CONTINUOUS
10
0.514927
20
0.427238
11
0.517312
21
0.413712
0
LINE
8
BLACK
6
CONTINUOUS
10
0.517312
20
0.413712
11
0.51811
21
0.4
0
LINE
8
BLACK
6
CONTINUOUS
10
0.51811
20
0.4
11
0.517312
21
0.386288
0
LINE
8
BLACK
6
CONTINUOUS
10
0.517312
20
0.386288
11
0.514927
21
0.372762
0
LINE
8
BLACK
6
CONTINUOUS
10
0.514927
20
0.372762
11
0.510987
21
0.359604
0
LINE
8
BLACK
6
CONTINUOUS
10
0.510987
20
0.359604
11
0.505547
21
0.346992
0
LINE
8
BLACK
6
CONTINUOUS
10
0.505547
20
0.346992
11
0.49868
21
0.335097
0
LINE
8
BLACK
6
CONTINUOUS
10
0.49868
20
0.335097
11
0.490478
21
0.32408
0
LINE
8
BLACK
6
CONTINUOUS
10
0.490478
20
0.32408
11
0.481052
21
0.31409
0
LINE
8
BLACK
6
CONTINUOUS
10
0.481052
20
0.31409
11
0.470531
21
0.305261
0
LINE
8
BLACK
6
CONTINUOUS
10
0.470531
20
0.305261
11
0.459055
21
0.297714
0
LINE
8
BLACK
6
CONTINUOUS
10
0.459055
20
0.297714
11
0.446781
21
0.291549
0
LINE
8
BLACK
6
CONTINUOUS
10
0.446781
20
0.291549
11
0.433874
21
0.286852
0
LINE
8
BLACK
6
CONTINUOUS
10
0.433874
20
0.286852
11
0.42051
21
0.283684
0
LINE
8
BLACK
6
CONTINUOUS
10
0.42051
20
0.283684
11
0.406868
21
0.28209
0
LINE
8
BLACK
6
CONTINUOUS
10
0.406868
20
0.28209
11
0.393133
21
0.28209
0
LINE
8
BLACK
6
CONTINUOUS
10
0.393133
20
0.28209
11
0.37949
21
0.283684
0
LINE
8
BLACK
6
CONTINUOUS
10
0.37949
20
0.283684
11
0.366126
21
0.286852
0
LINE
8
BLACK
6
CONTINUOUS
10
0.366126
20
0.286852
11
0.353219
21
0.291549
0
LINE
8
BLACK
6
CONTINUOUS
10
0.353219
20
0.291549
11
0.340945
21
0.297714
0
LINE
8
BLACK
6
CONTINUOUS
10
0.340945
20
0.297714
11
0.329469
21
0.305261
0
LINE
8
BLACK
6
CONTINUOUS
10
0.329469
20
0.305261
11
0.318948
21
0.31409
0
LINE
8
BLACK
6
CONTINUOUS
10
0.318948
20
0.31409
11
0.309522
21
0.32408
0
LINE
8
BLACK
6
CONTINUOUS
10
0.309522
20
0.32408
11
0.30132
21
0.335097
0
LINE
8
BLACK
6
CONTINUOUS
10
0.30132
20
0.335097
11
0.294453
21
0.346992
0
LINE
8
BLACK
6
CONTINUOUS
10
0.294453
20
0.346992
11
0.289013
21
0.359604
0
LINE
8
BLACK
6
CONTINUOUS
10
0.289013
20
0.359604
11
0.285073
21
0.372762
0
LINE
8
BLACK
6
CONTINUOUS
10
0.285073
20
0.372762
11
0.282688
21
0.386288
0
LINE
8
BLACK
6
CONTINUOUS
10
0.282688
20
0.386288
11
0.28189
21
0.4
0
LINE
8
BLACK
6
CONTINUOUS
10
0.28189
20
0.4
11
0.282688
21
0.413712
0
LINE
8
BLACK
6
CONTINUOUS
10
0.282688
20
0.413712
11
0.285073
21
0.427238
0
LINE
8
BLACK
6
CONTINUOUS
10
0.285073
20
0.427238
11
0.289013
21
0.440396
0
LINE
8
BLACK
6
CONTINUOUS
10
0.289013
20
0.440396
11
0.294453
21
0.453008
0
LINE
8
BLACK
6
CONTINUOUS
10
0.294453
20
0.453008
11
0.30132
21
0.464903
0
LINE
8
BLACK
6
CONTINUOUS
10
0.30132
20
0.464903
11
0.309522
21
0.47592
0
LINE
8
BLACK
6
CONTINUOUS
10
0.309522
20
0.47592
11
0.318948
21
0.48591
0
LINE
8
BLACK
6
CONTINUOUS
10
0.318948
20
0.48591
11
0.329469
21
0.494739
0
LINE
8
BLACK
6
CONTINUOUS
10
0.329469
20
0.494739
11
0.340945
21
0.502286
0
LINE
8
BLACK
6
CONTINUOUS
10
0.340945
20
0.502286
11
0.353219
21
0.508451
0
LINE
8
BLACK
6
CONTINUOUS
10
0.353219
20
0.508451
11
0.366126
21
0.513148
0
LINE
8
BLACK
6
CONTINUOUS
10
0.366126
20
0.513148
11
0.37949
21
0.516316
0
LINE
8
BLACK
6
CONTINUOUS
10
0.37949
20
0.516316
11
0.393133
21
0.51791
0
LINE
8
BLACK
6
CONTINUOUS
10
0.393133
20
0.51791
11
0.406868
21
0.51791
0
LINE
8
BLACK
6
CONTINUOUS
10
0.406868
20
0.51791
11
0.42051
21
0.516316
0
LINE
8
BLACK
6
CONTINUOUS
10
1.22051
20
0.516316
11
1.23387
21
0.513148
0
LINE
8
BLACK
6
CONTINUOUS
10
1.23387
20
0.513148
11
1.24678
21
0.508451
0
LINE
8
BLACK
6
CONTINUOUS
10
1.24678
20
0.508451
11
1.25906
21
0.502286
0
LINE
8
BLACK
6
CONTINUOUS
10
1.25906
20
0.502286
11
1.27053
21
0.494739
0
LINE
8
BLACK
6
CONTINUOUS
10
1.27053
20
0.494739
11
1.28105
21
0.48591
0
LINE
8
BLACK
6
CONTINUOUS
10
1.28105
20
0.48591
11
1.29048
21
0.47592
0
LINE
8
BLACK
6
CONTINUOUS
10
1.29048
20
0.47592
11
1.29868
21
0.464903
0
LINE
8
BLACK
6
CONTINUOUS
10
1.29868
20
0.464903
11
1.30555
21
0.453008
0
LINE
8
BLACK
6
CONTINUOUS
10
1.30555
20
0.453008
11
1.31099
21
0.440396
0
LINE
8
BLACK
6
CONTINUOUS
10
1.31099
20
0.440396
11
1.31493
21
0.427238
0
LINE
8
BLACK
6
CONTINUOUS
10
1.31493
20
0.427238
11
1.31731
21
0.413712
0
LINE
8
BLACK
6
CONTINUOUS
10
1.31731
20
0.413712
11
1.31811
21
0.4
0
LINE
8
BLACK
6
CONTINUOUS
10
1.31811
20
0.4
11
1.31731
21
0.386288
0
LINE
8
BLACK
6
CONTINUOUS
10
1.31731
20
0.386288
11
1.31493
21
0.372762
0
LINE
8
BLACK
6
CONTINUOUS
10
1.31493
20
0.372762
11
1.31099
21
0.359604
0
LINE
8
BLACK
6
CONTINUOUS
10
1.31099
20
0.359604
11
1.30555
21
0.346992
0
LINE
8
BLACK
6
CONTINUOUS
10
1.30555
20
0.346992
11
1.29868
21
0.335097
0
LINE
8
BLACK
6
CONTINUOUS
10
1.29868
20
0.335097
11
1.29048
21
0.32408
0
LINE
8
BLACK
6
CONTINUOUS
10
1.29048
20
0.32408
11
1.28105
21
0.31409
0
LINE
8
BLACK
6
CONTINUOUS
10
1.28105
20
0.31409
11
1.27053
21
0.305261
0
LINE
8
BLACK
6
CONTINUOUS
10
1.27053
20
0.305261
11
1.25906
21
0.297714
0
LINE
8
BLACK
6
CONTINUOUS
10
1.25906
20
0.297714
11
1.24678
21
0.291549
0
LINE
8
BLACK
6
CONTINUOUS
10
1.24678
20
0.291549
11
1.23387
21
0.286852
0
LINE
8
BLACK
6
CONTINUOUS
10
1.23387
20
0.286852
11
1.22051
21
0.283684
0
LINE
8
BLACK
6
CONTINUOUS
10
1.22051
20
0.283684
11
1.20687
21
0.28209
0
LINE
8
BLACK
6
CONTINUOUS
10
1.20687
20
0.28209
11
1.19313
21
0.28209
0
LINE
8
BLACK
6
CONTINUOUS
10
1.19313
20
0.28209
11
1.17949
21
0.283684
0
LINE
8
BLACK
6
CONTINUOUS
10
1.17949
20
0.283684
11
1.16613
21
0.286852
0
LINE
8
BLACK
6
CONTINUOUS
10
1.16613
20
0.286852
11
1.15322
21
0.291549
0
LINE
8
BLACK
6
CONTINUOUS
10
1.15322
20
0.291549
11
1.14094
21
0.297714
0
LINE
8
BLACK
6
CONTINUOUS
10
1.14094
20
0.297714
11
1.12947
21
0.305261
0
LINE
8
BLACK
6
CONTINUOUS
10
1.12947
20
0.305261
11
1.11895
21
0.31409
0
LINE
8
BLACK
6
CONTINUOUS
10
1.11895
20
0.31409
11
1.10952
21
0.32408
0
LINE
8
BLACK
6
CONTINUOUS
10
1.10952
20
0.32408
11
1.10132
21
0.335097
0
LINE
8
BLACK
6
CONTINUOUS
10
1.10132
20
0.335097
11
1.09445
21
0.346992
0
LINE
8
BLACK
6
CONTINUOUS
10
1.09445
20
0.346992
11
1.08901
21
0.359604
0
LINE
8
BLACK
6
CONTINUOUS
10
1.08901
20
0.359604
11
1.08507
21
0.372762
0
LINE
8
BLACK
6
CONTINUOUS
10
1.08507
20
0.372762
11
1.08269
21
0.386288
0
LINE
8
BLACK
6
CONTINUOUS
10
1.08269
20
0.386288
11
1.08189
21
0.4
0
LINE
8
BLACK
6
CONTINUOUS
10
1.08189
20
0.4
11
1.08269
21
0.413712
0
LINE
8
BLACK
6
CONTINUOUS
10
1.08269
20
0.413712
11
1.08507
21
0.427238
0
LINE
8
BLACK
6
CONTINUOUS
10
1.08507
20
0.427238
11
1.08901
21
0.440396
0
LINE
8
BLACK
6
CONTINUOUS
10
1.08901
20
0.440396
11
1.09445
21
0.453008
0
LINE
8
BLACK
6
CONTINUOUS
10
1.09445
20
0.453008
11
1.10132
21
0.464903
0
LINE
8
BLACK
6
CONTINUOUS
10
1.10132
20
0.464903
11
1.10952
21
0.47592
0
LINE
8
BLACK
6
CONTINUOUS
10
1.10952
20
0.47592
11
1.11895
21
0.48591
0
LINE
8
BLACK
6
CONTINUOUS
10
1.11895
20
0.48591
11
1.12947
21
0.494739
0
LINE
8
BLACK
6
CONTINUOUS
10
1.12947
20
0.494739
11
1.14094
21
0.502286
0
LINE
8
BLACK
6
CONTINUOUS
10
1.14094
20
0.502286
11
1.15322
21
0.508451
0
LINE
8
BLACK
6
CONTINUOUS
10
1.15322
20
0.508451
11
1.16613
21
0.513148
0
LINE
8
BLACK
6
CONTINUOUS
10
1.16613
20
0.513148
11
1.17949
21
0.516316
0
LINE
8
BLACK
6
CONTINUOUS
10
1.17949
20
0.516316
11
1.19313
21
0.51791
0
LINE
8
BLACK
6
CONTINUOUS
10
1.19313
20
0.51791
11
1.20687
21
0.51791
0
LINE
8
BLACK
6
CONTINUOUS
10
1.20687
20
0.51791
11
1.22051
21
0.516316
0
LINE
8
BLACK
6
CONTINUOUS
10
0.743609
20
0.446
11
0.75
21
0.443154
0
LINE
8
BLACK
6
CONTINUOUS
10
0.75
20
0.443154
11
0.75566
21
0.439042
0
LINE
8
BLACK
6
CONTINUOUS
10
0.75566
20
0.439042
11
0.760341
21
0.433843
0
LINE
8
BLACK
6
CONTINUOUS
10
0.760341
20
0.433843
11
0.763839
21
0.427784
0
LINE
8
BLACK
6
CONTINUOUS
10
0.763839
20
0.427784
11
0.766001
21
0.421131
0
LINE
8
BLACK
6
CONTINUOUS
10
0.766001
20
0.421131
11
0.766732
21
0.414173
0
LINE
8
BLACK
6
CONTINUOUS
10
0.766732
20
0.414173
11
0.766001
21
0.407216
0
LINE
8
BLACK
6
CONTINUOUS
10
0.766001
20
0.407216
11
0.763839
21
0.400562
0
LINE
8
BLACK
6
CONTINUOUS
10
0.763839
20
0.400562
11
0.760341
21
0.394503
0
LINE
8
BLACK
6
CONTINUOUS
10
0.760341
20
0.394503
11
0.75566
21
0.389304
0
LINE
8
BLACK
6
CONTINUOUS
10
0.75566
20
0.389304
11
0.75
21
0.385192
0
LINE
8
BLACK
6
CONTINUOUS
10
0.75
20
0.385192
11
0.743609
21
0.382347
0
LINE
8
BLACK
6
CONTINUOUS
10
0.743609
20
0.382347
11
0.736766
21
0.380892
0
LINE
8
BLACK
6
CONTINUOUS
10
0.736766
20
0.380892
11
0.72977
21
0.380892
0
LINE
8
BLACK
6
CONTINUOUS
10
0.72977
20
0.380892
11
0.722927
21
0.382347
0
LINE
8
BLACK
6
CONTINUOUS
10
0.722927
20
0.382347
11
0.716535
21
0.385192
0
LINE
8
BLACK
6
CONTINUOUS
10
0.716535
20
0.385192
11
0.710876
21
0.389304
0
LINE
8
BLACK
6
CONTINUOUS
10
0.710876
20
0.389304
11
0.706194
21
0.394503
0
LINE
8
BLACK
6
CONTINUOUS
10
0.706194
20
0.394503
11
0.702696
21
0.400562
0
LINE
8
BLACK
6
CONTINUOUS
10
0.702696
20
0.400562
11
0.700534
21
0.407216
0
LINE
8
BLACK
6
CONTINUOUS
10
0.700534
20
0.407216
11
0.699803
21
0.414173
0
LINE
8
BLACK
6
CONTINUOUS
10
0.699803
20
0.414173
11
0.700534
21
0.421131
0
LINE
8
BLACK
6
CONTINUOUS
10
0.700534
20
0.421131
11
0.702696
21
0.427784
0
LINE
8
BLACK
6
CONTINUOUS
10
0.702696
20
0.427784
11
0.706194
21
0.433843
0
LINE
8
BLACK
6
CONTINUOUS
10
0.706194
20
0.433843
11
0.710876
21
0.439042
0
LINE
8
BLACK
6
CONTINUOUS
10
0.710876
20
0.439042
11
0.716535
21
0.443154
0
LINE
8
BLACK
6
CONTINUOUS
10
0.716535
20
0.443154
11
0.722927
21
0.446
0
LINE
8
BLACK
6
CONTINUOUS
10
0.722927
20
0.446
11
0.72977
21
0.447454
0
LINE
8
BLACK
6
CONTINUOUS
10
0.72977
20
0.447454
11
0.736766
21
0.447454
0
LINE
8
BLACK
6
CONTINUOUS
10
0.736766
20
0.447454
11
0.743609
21
0.446
0
LINE
8
BLACK
6
CONTINUOUS
10
0.843609
20
0.446
11
0.85
21
0.443154
0
LINE
8
BLACK
6
CONTINUOUS
10
0.85
20
0.443154
11
0.85566
21
0.439042
0
LINE
8
BLACK
6
CONTINUOUS
10
0.85566
20
0.439042
11
0.860341
21
0.433843
0
LINE
8
BLACK
6
CONTINUOUS
10
0.860341
20
0.433843
11
0.863839
21
0.427784
0
LINE
8
BLACK
6
CONTINUOUS
10
0.863839
20
0.427784
11
0.866001
21
0.421131
0
LINE
8
BLACK
6
CONTINUOUS
10
0.866001
20
0.421131
11
0.866732
21
0.414173
0
LINE
8
BLACK
6
CONTINUOUS
10
0.866732
20
0.414173
11
0.866001
21
0.407216
0
LINE
8
BLACK
6
CONTINUOUS
10
0.866001
20
0.407216
11
0.863839
21
0.400562
0
LINE
8
BLACK
6
CONTINUOUS
10
0.863839
20
0.400562
11
0.860341
21
0.394503
0
LINE
8
BLACK
6
CONTINUOUS
10
0.860341
20
0.394503
11
0.85566
21
0.389304
0
LINE
8
BLACK
6
CONTINUOUS
10
0.85566
20
0.389304
11
0.85
21
0.385192
0
LINE
8
BLACK
6
CONTINUOUS
10
0.85
20
0.385192
11
0.843609
21
0.382347
0
LINE
8
BLACK
6
CONTINUOUS
10
0.843609
20
0.382347
11
0.836766
21
0.380892
0
LINE
8
BLACK
6
CONTINUOUS
10
0.836766
20
0.380892
11
0.82977
21
0.380892
0
LINE
8
BLACK
6
CONTINUOUS
10
0.82977
20
0.380892
11
0.822927
21
0.382347
0
LINE
8
BLACK
6
CONTINUOUS
10
0.822927
20
0.382347
11
0.816535
21
0.385192
0
LINE
8
BLACK
6
CONTINUOUS
10
0.816535
20
0.385192
11
0.810876
21
0.389304
0
LINE
8
BLACK
6
CONTINUOUS
10
0.810876
20
0.389304
11
0.806194
21
0.394503
0
LINE
8
BLACK
6
CONTINUOUS
10
0.806194
20
0.394503
11
0.802696
21
0.400562
0
LINE
8
BLACK
6
CONTINUOUS
10
0.802696
20
0.400562
11
0.800534
21
0.407216
0
LINE
8
BLACK
6
CONTINUOUS
10
0.800534
20
0.407216
11
0.799803
21
0.414173
0
LINE
8
BLACK
6
CONTINUOUS
10
0.799803
20
0.414173
11
0.800534
21
0.421131
0
LINE
8
BLACK
6
CONTINUOUS
10
0.800534
20
0.421131
11
0.802696
21
0.427784
0
LINE
8
BLACK
6
CONTINUOUS
10
0.802696
20
0.427784
11
0.806194
21
0.433843
0
LINE
8
BLACK
6
CONTINUOUS
10
0.806194
20
0.433843
11
0.810876
21
0.439042
0
LINE
8
BLACK
6
CONTINUOUS
10
0.810876
20
0.439042
11
0.816535
21
0.443154
0
LINE
8
BLACK
6
CONTINUOUS
10
0.816535
20
0.443154
11
0.822927
21
0.446
0
LINE
8
BLACK
6
CONTINUOUS
10
0.822927
20
0.446
11
0.82977
21
0.447454
0
LINE
8
BLACK
6
CONTINUOUS
10
0.82977
20
0.447454
11
0.836766
21
0.447454
0
LINE
8
BLACK
6
CONTINUOUS
10
0.836766
20
0.447454
11
0.843609
21
0.446
0
LINE
8
BLACK
6
CONTINUOUS
10
0.943609
20
0.446
11
0.95
21
0.443154
0
LINE
8
BLACK
6
CONTINUOUS
10
0.95
20
0.443154
11
0.95566
21
0.439042
0
LINE
8
BLACK
6
CONTINUOUS
10
0.95566
20
0.439042
11
0.960341
21
0.433843
0
LINE
8
BLACK
6
CONTINUOUS
10
0.960341
20
0.433843
11
0.963839
21
0.427784
0
LINE
8
BLACK
6
CONTINUOUS
10
0.963839
20
0.427784
11
0.966001
21
0.421131
0
LINE
8
BLACK
6
CONTINUOUS
10
0.966001
20
0.421131
11
0.966732
21
0.414173
0
LINE
8
BLACK
6
CONTINUOUS
10
0.966732
20
0.414173
11
0.966001
21
0.407216
0
LINE
8
BLACK
6
CONTINUOUS
10
0.966001
20
0.407216
11
0.963839
21
0.400562
0
LINE
8
BLACK
6
CONTINUOUS
10
0.963839
20
0.400562
11
0.960341
21
0.394503
0
LINE
8
BLACK
6
CONTINUOUS
10
0.960341
20
0.394503
11
0.95566
21
0.389304
0
LINE
8
BLACK
6
CONTINUOUS
10
0.95566
20
0.389304
11
0.95
21
0.385192
0
LINE
8
BLACK
6
CONTINUOUS
10
0.95
20
0.385192
11
0.943609
21
0.382347
0
LINE
8
BLACK
6
CONTINUOUS
10
0.943609
20
0.382347
11
0.936766
21
0.380892
0
LINE
8
BLACK
6
CONTINUOUS
10
0.936766
20
0.380892
11
0.92977
21
0.380892
0
LINE
8
BLACK
6
CONTINUOUS
10
0.92977
20
0.380892
11
0.922927
21
0.382347
0
LINE
8
BLACK
6
CONTINUOUS
10
0.922927
20
0.382347
11
0.916535
21
0.385192
0
LINE
8
BLACK
6
CONTINUOUS
10
0.916535
20
0.385192
11
0.910876
21
0.389304
0
LINE
8
BLACK
6
CONTINUOUS
10
0.910876
20
0.389304
11
0.906194
21
0.394503
0
LINE
8
BLACK
6
CONTINUOUS
10
0.906194
20
0.394503
11
0.902696
21
0.400562
0
LINE
8
BLACK
6
CONTINUOUS
10
0.902696
20
0.400562
11
0.900534
21
0.407216
0
LINE
8
BLACK
6
CONTINUOUS
10
0.900534
20
0.407216
11
0.899803
21
0.414173
0
LINE
8
BLACK
6
CONTINUOUS
10
0.899803
20
0.414173
11
0.900534
21
0.421131
0
LINE
8
BLACK
6
CONTINUOUS
10
0.900534
20
0.421131
11
0.902696
21
0.427784
0
LINE
8
BLACK
6
CONTINUOUS
10
0.902696
20
0.427784
11
0.906194
21
0.433843
0
LINE
8
BLACK
6
CONTINUOUS
10
0.906194
20
0.433843
11
0.910876
21
0.439042
0
LINE
8
BLACK
6
CONTINUOUS
10
0.910876
20
0.439042
11
0.916535
21
0.443154
0
LINE
8
BLACK
6
CONTINUOUS
10
0.916535
20
0.443154
11
0.922927
21
0.446
0
LINE
8
BLACK
6
CONTINUOUS
10
0.922927
20
0.446
11
0.92977
21
0.447454
0
LINE
8
BLACK
6
CONTINUOUS
10
0.92977
20
0.447454
11
0.936766
21
0.447454
0
LINE
8
BLACK
6
CONTINUOUS
10
0.936766
20
0.447454
11
0.943609
21
0.446
0
LINE
8
BLACK
6
CONTINUOUS
10
0.766732
20
0.480709
11
0.699803
21
0.480709
0
LINE
8
BLACK
6
CONTINUOUS
10
0.699803
20
0.480709
11
0.699803
21
0.547638
0
LINE
8
BLACK
6
CONTINUOUS
10
0.699803
20
0.547638
11
0.766732
21
0.547638
0
LINE
8
BLACK
6
CONTINUOUS
10
0.766732
20
0.547638
11
0.766732
21
0.480709
0
LINE
8
BLACK
6
CONTINUOUS
10
0.843609
20
0.546
11
0.85
21
0.543154
0
LINE
8
BLACK
6
CONTINUOUS
10
0.85
20
0.543154
11
0.85566
21
0.539042
0
LINE
8
BLACK
6
CONTINUOUS
10
0.85566
20
0.539042
11
0.860341
21
0.533843
0
LINE
8
BLACK
6
CONTINUOUS
10
0.860341
20
0.533843
11
0.863839
21
0.527784
0
LINE
8
BLACK
6
CONTINUOUS
10
0.863839
20
0.527784
11
0.866001
21
0.521131
0
LINE
8
BLACK
6
CONTINUOUS
10
0.866001
20
0.521131
11
0.866732
21
0.514173
0
LINE
8
BLACK
6
CONTINUOUS
10
0.866732
20
0.514173
11
0.866001
21
0.507216
0
LINE
8
BLACK
6
CONTINUOUS
10
0.866001
20
0.507216
11
0.863839
21
0.500562
0
LINE
8
BLACK
6
CONTINUOUS
10
0.863839
20
0.500562
11
0.860341
21
0.494503
0
LINE
8
BLACK
6
CONTINUOUS
10
0.860341
20
0.494503
11
0.85566
21
0.489304
0
LINE
8
BLACK
6
CONTINUOUS
10
0.85566
20
0.489304
11
0.85
21
0.485192
0
LINE
8
BLACK
6
CONTINUOUS
10
0.85
20
0.485192
11
0.843609
21
0.482347
0
LINE
8
BLACK
6
CONTINUOUS
10
0.843609
20
0.482347
11
0.836766
21
0.480892
0
LINE
8
BLACK
6
CONTINUOUS
10
0.836766
20
0.480892
11
0.82977
21
0.480892
0
LINE
8
BLACK
6
CONTINUOUS
10
0.82977
20
0.480892
11
0.822927
21
0.482347
0
LINE
8
BLACK
6
CONTINUOUS
10
0.822927
20
0.482347
11
0.816535
21
0.485192
0
LINE
8
BLACK
6
CONTINUOUS
10
0.816535
20
0.485192
11
0.810876
21
0.489304
0
LINE
8
BLACK
6
CONTINUOUS
10
0.810876
20
0.489304
11
0.806194
21
0.494503
0
LINE
8
BLACK
6
CONTINUOUS
10
0.806194
20
0.494503
11
0.802696
21
0.500562
0
LINE
8
BLACK
6
CONTINUOUS
10
0.802696
20
0.500562
11
0.800534
21
0.507216
0
LINE
8
BLACK
6
CONTINUOUS
10
0.800534
20
0.507216
11
0.799803
21
0.514173
0
LINE
8
BLACK
6
CONTINUOUS
10
0.799803
20
0.514173
11
0.800534
21
0.521131
0
LINE
8
BLACK
6
CONTINUOUS
10
0.800534
20
0.521131
11
0.802696
21
0.527784
0
LINE
8
BLACK
6
CONTINUOUS
10
0.802696
20
0.527784
11
0.806194
21
0.533843
0
LINE
8
BLACK
6
CONTINUOUS
10
0.806194
20
0.533843
11
0.810876
21
0.539042
0
LINE
8
BLACK
6
CONTINUOUS
10
0.810876
20
0.539042
11
0.816535
21
0.543154
0
LINE
8
BLACK
6
CONTINUOUS
10
0.816535
20
0.543154
11
0.822927
21
0.546
0
LINE
8
BLACK
6
CONTINUOUS
10
0.822927
20
0.546
11
0.82977
21
0.547454
0
LINE
8
BLACK
6
CONTINUOUS
10
0.82977
20
0.547454
11
0.836766
21
0.547454
0
LINE
8
BLACK
6
CONTINUOUS
10
0.836766
20
0.547454
11
0.843609
21
0.546
0
LINE
8
BLACK
6
CONTINUOUS
10
0.943609
20
0.546
11
0.95
21
0.543154
0
LINE
8
BLACK
6
CONTINUOUS
10
0.95
20
0.543154
11
0.95566
21
0.539042
0
LINE
8
BLACK
6
CONTINUOUS
10
0.95566
20
0.539042
11
0.960341
21
0.533843
0
LINE
8
BLACK
6
CONTINUOUS
10
0.960341
20
0.533843
11
0.963839
21
0.527784
0
LINE
8
BLACK
6
CONTINUOUS
10
0.963839
20
0.527784
11
0.966001
21
0.521131
0
LINE
8
BLACK
6
CONTINUOUS
10
0.966001
20
0.521131
11
0.966732
21
0.514173
0
LINE
8
BLACK
6
CONTINUOUS
10
0.966732
20
0.514173
11
0.966001
21
0.507216
0
LINE
8
BLACK
6
CONTINUOUS
10
0.966001
20
0.507216
11
0.963839
21
0.500562
0
LINE
8
BLACK
6
CONTINUOUS
10
0.963839
20
0.500562
11
0.960341
21
0.494503
0
LINE
8
BLACK
6
CONTINUOUS
10
0.960341
20
0.494503
11
0.95566
21
0.489304
0
LINE
8
BLACK
6
CONTINUOUS
10
0.95566
20
0.489304
11
0.95
21
0.485192
0
LINE
8
BLACK
6
CONTINUOUS
10
0.95
20
0.485192
11
0.943609
21
0.482347
0
LINE
8
BLACK
6
CONTINUOUS
10
0.943609
20
0.482347
11
0.936766
21
0.480892
0
LINE
8
BLACK
6
CONTINUOUS
10
0.936766
20
0.480892
11
0.92977
21
0.480892
0
LINE
8
BLACK
6
CONTINUOUS
10
0.92977
20
0.480892
11
0.922927
21
0.482347
0
LINE
8
BLACK
6
CONTINUOUS
10
0.922927
20
0.482347
11
0.916535
21
0.485192
0
LINE
8
BLACK
6
CONTINUOUS
10
0.916535
20
0.485192
11
0.910876
21
0.489304
0
LINE
8
BLACK
6
CONTINUOUS
10
0.910876
20
0.489304
11
0.906194
21
0.494503
0
LINE
8
BLACK
6
CONTINUOUS
10
0.906194
20
0.494503
11
0.902696
21
0.500562
0
LINE
8
BLACK
6
CONTINUOUS
10
0.902696
20
0.500562
11
0.900534
21
0.507216
0
LINE
8
BLACK
6
CONTINUOUS
10
0.900534
20
0.507216
11
0.899803
21
0.514173
0
LINE
8
BLACK
6
CONTINUOUS
10
0.899803
20
0.514173
11
0.900534
21
0.521131
0
LINE
8
BLACK
6
CONTINUOUS
10
0.900534
20
0.521131
11
0.902696
21
0.527784
0
LINE
8
BLACK
6
CONTINUOUS
10
0.902696
20
0.527784
11
0.906194
21
0.533843
0
LINE
8
BLACK
6
CONTINUOUS
10
0.906194
20
0.533843
11
0.910876
21
0.539042
0
LINE
8
BLACK
6
CONTINUOUS
10
0.910876
20
0.539042
11
0.916535
21
0.543154
0
LINE
8
BLACK
6
CONTINUOUS
10
0.916535
20
0.543154
11
0.922927
21
0.546
0
LINE
8
BLACK
6
CONTINUOUS
10
0.922927
20
0.546
11
0.92977
21
0.547454
0
LINE
8
BLACK
6
CONTINUOUS
10
0.92977
20
0.547454
11
0.936766
21
0.547454
0
LINE
8
BLACK
6
CONTINUOUS
10
0.936766
20
0.547454
11
0.943609
21
0.546
0
LINE
8
BLACK
6
CONTINUOUS
10
0.743609
20
0.646
11
0.75
21
0.643154
0
LINE
8
BLACK
6
CONTINUOUS
10
0.75
20
0.643154
11
0.75566
21
0.639042
0
LINE
8
BLACK
6
CONTINUOUS
10
0.75566
20
0.639042
11
0.760341
21
0.633843
0
LINE
8
BLACK
6
CONTINUOUS
10
0.760341
20
0.633843
11
0.763839
21
0.627784
0
LINE
8
BLACK
6
CONTINUOUS
10
0.763839
20
0.627784
11
0.766001
21
0.621131
0
LINE
8
BLACK
6
CONTINUOUS
10
0.766001
20
0.621131
11
0.766732
21
0.614173
0
LINE
8
BLACK
6
CONTINUOUS
10
0.766732
20
0.614173
11
0.766001
21
0.607216
0
LINE
8
BLACK
6
CONTINUOUS
10
0.766001
20
0.607216
11
0.763839
21
0.600562
0
LINE
8
BLACK
6
CONTINUOUS
10
0.763839
20
0.600562
11
0.760341
21
0.594503
0
LINE
8
BLACK
6
CONTINUOUS
10
0.760341
20
0.594503
11
0.75566
21
0.589304
0
LINE
8
BLACK
6
CONTINUOUS
10
0.75566
20
0.589304
11
0.75
21
0.585192
0
LINE
8
BLACK
6
CONTINUOUS
10
0.75
20
0.585192
11
0.743609
21
0.582347
0
LINE
8
BLACK
6
CONTINUOUS
10
0.743609
20
0.582347
11
0.736766
21
0.580892
0
LINE
8
BLACK
6
CONTINUOUS
10
0.736766
20
0.580892
11
0.72977
21
0.580892
0
LINE
8
BLACK
6
CONTINUOUS
10
0.72977
20
0.580892
11
0.722927
21
0.582347
0
LINE
8
BLACK
6
CONTINUOUS
10
0.722927
20
0.582347
11
0.716535
21
0.585192
0
LINE
8
BLACK
6
CONTINUOUS
10
0.716535
20
0.585192
11
0.710876
21
0.589304
0
LINE
8
BLACK
6
CONTINUOUS
10
0.710876
20
0.589304
11
0.706194
21
0.594503
0
LINE
8
BLACK
6
CONTINUOUS
10
0.706194
20
0.594503
11
0.702696
21
0.600562
0
LINE
8
BLACK
6
CONTINUOUS
10
0.702696
20
0.600562
11
0.700534
21
0.607216
0
LINE
8
BLACK
6
CONTINUOUS
10
0.700534
20
0.607216
11
0.699803
21
0.614173
0
LINE
8
BLACK
6
CONTINUOUS
10
0.699803
20
0.614173
11
0.700534
21
0.621131
0
LINE
8
BLACK
6
CONTINUOUS
10
0.700534
20
0.621131
11
0.702696
21
0.627784
0
LINE
8
BLACK
6
CONTINUOUS
10
0.702696
20
0.627784
11
0.706194
21
0.633843
0
LINE
8
BLACK
6
CONTINUOUS
10
0.706194
20
0.633843
11
0.710876
21
0.639042
0
LINE
8
BLACK
6
CONTINUOUS
10
0.710876
20
0.639042
11
0.716535
21
0.643154
0
LINE
8
BLACK
6
CONTINUOUS
10
0.716535
20
0.643154
11
0.722927
21
0.646
0
LINE
8
BLACK
6
CONTINUOUS
10
0.722927
20
0.646
11
0.72977
21
0.647454
0
LINE
8
BLACK
6
CONTINUOUS
10
0.72977
20
0.647454
11
0.736766
21
0.647454
0
LINE
8
BLACK
6
CONTINUOUS
10
0.736766
20
0.647454
11
0.743609
21
0.646
0
LINE
8
BLACK
6
CONTINUOUS
10
0.843609
20
0.646
11
0.85
21
0.643154
0
LINE
8
BLACK
6
CONTINUOUS
10
0.85
20
0.643154
11
0.85566
21
0.639042
0
LINE
8
BLACK
6
CONTINUOUS
10
0.85566
20
0.639042
11
0.860341
21
0.633843
0
LINE
8
BLACK
6
CONTINUOUS
10
0.860341
20
0.633843
11
0.863839
21
0.627784
0
LINE
8
BLACK
6
CONTINUOUS
10
0.863839
20
0.627784
11
0.866001
21
0.621131
0
LINE
8
BLACK
6
CONTINUOUS
10
0.866001
20
0.621131
11
0.866732
21
0.614173
0
LINE
8
BLACK
6
CONTINUOUS
10
0.866732
20
0.614173
11
0.866001
21
0.607216
0
LINE
8
BLACK
6
CONTINUOUS
10
0.866001
20
0.607216
11
0.863839
21
0.600562
0
LINE
8
BLACK
6
CONTINUOUS
10
0.863839
20
0.600562
11
0.860341
21
0.594503
0
LINE
8
BLACK
6
CONTINUOUS
10
0.860341
20
0.594503
11
0.85566
21
0.589304
0
LINE
8
BLACK
6
CONTINUOUS
10
0.85566
20
0.589304
11
0.85
21
0.585192
0
LINE
8
BLACK
6
CONTINUOUS
10
0.85
20
0.585192
11
0.843609
21
0.582347
0
LINE
8
BLACK
6
CONTINUOUS
10
0.843609
20
0.582347
11
0.836766
21
0.580892
0
LINE
8
BLACK
6
CONTINUOUS
10
0.836766
20
0.580892
11
0.82977
21
0.580892
0
LINE
8
BLACK
6
CONTINUOUS
10
0.82977
20
0.580892
11
0.822927
21
0.582347
0
LINE
8
BLACK
6
CONTINUOUS
10
0.822927
20
0.582347
11
0.816535
21
0.585192
0
LINE
8
BLACK
6
CONTINUOUS
10
0.816535
20
0.585192
11
0.810876
21
0.589304
0
LINE
8
BLACK
6
CONTINUOUS
10
0.810876
20
0.589304
11
0.806194
21
0.594503
0
LINE
8
BLACK
6
CONTINUOUS
10
0.806194
20
0.594503
11
0.802696
21
0.600562
0
LINE
8
BLACK
6
CONTINUOUS
10
0.802696
20
0.600562
11
0.800534
21
0.607216
0
LINE
8
BLACK
6
CONTINUOUS
10
0.800534
20
0.607216
11
0.799803
21
0.614173
0
LINE
8
BLACK
6
CONTINUOUS
10
0.799803
20
0.614173
11
0.800534
21
0.621131
0
LINE
8
BLACK
6
CONTINUOUS
10
0.800534
20
0.621131
11
0.802696
21
0.627784
0
LINE
8
BLACK
6
CONTINUOUS
10
0.802696
20
0.627784
11
0.806194
21
0.633843
0
LINE
8
BLACK
6
CONTINUOUS
10
0.806194
20
0.633843
11
0.810876
21
0.639042
0
LINE
8
BLACK
6
CONTINUOUS
10
0.810876
20
0.639042
11
0.816535
21
0.643154
0
LINE
8
BLACK
6
CONTINUOUS
10
0.816535
20
0.643154
11
0.822927
21
0.646
0
LINE
8
BLACK
6
CONTINUOUS
10
0.822927
20
0.646
11
0.82977
21
0.647454
0
LINE
8
BLACK
6
CONTINUOUS
10
0.82977
20
0.647454
11
0.836766
21
0.647454
0
LINE
8
BLACK
6
CONTINUOUS
10
0.836766
20
0.647454
11
0.843609
21
0.646
0
LINE
8
BLACK
6
CONTINUOUS
10
0.943609
20
0.646
11
0.95
21
0.643154
0
LINE
8
BLACK
6
CONTINUOUS
10
0.95
20
0.643154
11
0.95566
21
0.639042
0
LINE
8
BLACK
6
CONTINUOUS
10
0.95566
20
0.639042
11
0.960341
21
0.633843
0
LINE
8
BLACK
6
CONTINUOUS
10
0.960341
20
0.633843
11
0.963839
21
0.627784
0
LINE
8
BLACK
6
CONTINUOUS
10
0.963839
20
0.627784
11
0.966001
21
0.621131
0
LINE
8
BLACK
6
CONTINUOUS
10
0.966001
20
0.621131
11
0.966732
21
0.614173
0
LINE
8
BLACK
6
CONTINUOUS
10
0.966732
20
0.614173
11
0.966001
21
0.607216
0
LINE
8
BLACK
6
CONTINUOUS
10
0.966001
20
0.607216
11
0.963839
21
0.600562
0
LINE
8
BLACK
6
CONTINUOUS
10
0.963839
20
0.600562
11
0.960341
21
0.594503
0
LINE
8
BLACK
6
CONTINUOUS
10
0.960341
20
0.594503
11
0.95566
21
0.589304
0
LINE
8
BLACK
6
CONTINUOUS
10
0.95566
20
0.589304
11
0.95
21
0.585192
0
LINE
8
BLACK
6
CONTINUOUS
10
0.95
20
0.585192
11
0.943609
21
0.582347
0
LINE
8
BLACK
6
CONTINUOUS
10
0.943609
20
0.582347
11
0.936766
21
0.580892
0
LINE
8
BLACK
6
CONTINUOUS
10
0.936766
20
0.580892
11
0.92977
21
0.580892
0
LINE
8
BLACK
6
CONTINUOUS
10
0.92977
20
0.580892
11
0.922927
21
0.582347
0
LINE
8
BLACK
6
CONTINUOUS
10
0.922927
20
0.582347
11
0.916535
21
0.585192
0
LINE
8
BLACK
6
CONTINUOUS
10
0.916535
20
0.585192
11
0.910876
21
0.589304
0
LINE
8
BLACK
6
CONTINUOUS
10
0.910876
20
0.589304
11
0.906194
21
0.594503
0
LINE
8
BLACK
6
CONTINUOUS
10
0.906194
20
0.594503
11
0.902696
21
0.600562
0
LINE
8
BLACK
6
CONTINUOUS
10
0.902696
20
0.600562
11
0.900534
21
0.607216
0
LINE
8
BLACK
6
CONTINUOUS
10
0.900534
20
0.607216
11
0.899803
21
0.614173
0
LINE
8
BLACK
6
CONTINUOUS
10
0.899803
20
0.614173
11
0.900534
21
0.621131
0
LINE
8
BLACK
6
CONTINUOUS
10
0.900534
20
0.621131
11
0.902696
21
0.627784
0
LINE
8
BLACK
6
CONTINUOUS
10
0.902696
20
0.627784
11
0.906194
21
0.633843
0
LINE
8
BLACK
6
CONTINUOUS
10
0.906194
20
0.633843
11
0.910876
21
0.639042
0
LINE
8
BLACK
6
CONTINUOUS
10
0.910876
20
0.639042
11
0.916535
21
0.643154
0
LINE
8
BLACK
6
CONTINUOUS
10
0.916535
20
0.643154
11
0.922927
21
0.646
0
LINE
8
BLACK
6
CONTINUOUS
10
0.922927
20
0.646
11
0.92977
21
0.647454
0
LINE
8
BLACK
6
CONTINUOUS
10
0.92977
20
0.647454
11
0.936766
21
0.647454
0
LINE
8
BLACK
6
CONTINUOUS
10
0.936766
20
0.647454
11
0.943609
21
0.646
0
LINE
8
BLACK
6
CONTINUOUS
10
0.598255
20
0.713818
11
0.601448
21
0.711684
0
LINE
8
BLACK
6
CONTINUOUS
10
0.601448
20
0.711684
11
0.603581
21
0.708491
0
LINE
8
BLACK
6
CONTINUOUS
10
0.603581
20
0.708491
11
0.604331
21
0.704724
0
LINE
8
BLACK
6
CONTINUOUS
10
0.604331
20
0.704724
11
0.604331
21
0.625984
0
LINE
8
BLACK
6
CONTINUOUS
10
0.604331
20
0.625984
11
0.603581
21
0.622218
0
LINE
8
BLACK
6
CONTINUOUS
10
0.603581
20
0.622218
11
0.601448
21
0.619025
0
LINE
8
BLACK
6
CONTINUOUS
10
0.601448
20
0.619025
11
0.598255
21
0.616891
0
LINE
8
BLACK
6
CONTINUOUS
10
0.598255
20
0.616891
11
0.594488
21
0.616142
0
LINE
8
BLACK
6
CONTINUOUS
10
0.594488
20
0.616142
11
0.543307
21
0.616142
0
LINE
8
BLACK
6
CONTINUOUS
10
0.543307
20
0.616142
11
0.539541
21
0.616891
0
LINE
8
BLACK
6
CONTINUOUS
10
0.539541
20
0.616891
11
0.536347
21
0.619025
0
LINE
8
BLACK
6
CONTINUOUS
10
0.536347
20
0.619025
11
0.534214
21
0.622218
0
LINE
8
BLACK
6
CONTINUOUS
10
0.534214
20
0.622218
11
0.533465
21
0.625984
0
LINE
8
BLACK
6
CONTINUOUS
10
0.533465
20
0.625984
11
0.533465
21
0.704724
0
LINE
8
BLACK
6
CONTINUOUS
10
0.533465
20
0.704724
11
0.534214
21
0.708491
0
LINE
8
BLACK
6
CONTINUOUS
10
0.534214
20
0.708491
11
0.536347
21
0.711684
0
LINE
8
BLACK
6
CONTINUOUS
10
0.536347
20
0.711684
11
0.539541
21
0.713818
0
LINE
8
BLACK
6
CONTINUOUS
10
0.539541
20
0.713818
11
0.543307
21
0.714567
0
LINE
8
BLACK
6
CONTINUOUS
10
0.543307
20
0.714567
11
0.594488
21
0.714567
0
LINE
8
BLACK
6
CONTINUOUS
10
0.594488
20
0.714567
11
0.598255
21
0.713818
0
LINE
8
BLACK
6
CONTINUOUS
10
0.323727
20
0.74285
11
0.330118
21
0.740005
0
LINE
8
BLACK
6
CONTINUOUS
10
0.330118
20
0.740005
11
0.335778
21
0.735893
0
LINE
8
BLACK
6
CONTINUOUS
10
0.335778
20
0.735893
11
0.340459
21
0.730694
0
LINE
8
BLACK
6
CONTINUOUS
10
0.340459
20
0.730694
11
0.343957
21
0.724635
0
LINE
8
BLACK
6
CONTINUOUS
10
0.343957
20
0.724635
11
0.346119
21
0.717981
0
LINE
8
BLACK
6
CONTINUOUS
10
0.346119
20
0.717981
11
0.34685
21
0.711024
0
LINE
8
BLACK
6
CONTINUOUS
10
0.34685
20
0.711024
11
0.346119
21
0.704066
0
LINE
8
BLACK
6
CONTINUOUS
10
0.346119
20
0.704066
11
0.343957
21
0.697412
0
LINE
8
BLACK
6
CONTINUOUS
10
0.343957
20
0.697412
11
0.340459
21
0.691354
0
LINE
8
BLACK
6
CONTINUOUS
10
0.340459
20
0.691354
11
0.335778
21
0.686155
0
LINE
8
BLACK
6
CONTINUOUS
10
0.335778
20
0.686155
11
0.330118
21
0.682042
0
LINE
8
BLACK
6
CONTINUOUS
10
0.330118
20
0.682042
11
0.323727
21
0.679197
0
LINE
8
BLACK
6
CONTINUOUS
10
0.323727
20
0.679197
11
0.316884
21
0.677742
0
LINE
8
BLACK
6
CONTINUOUS
10
0.316884
20
0.677742
11
0.309888
21
0.677742
0
LINE
8
BLACK
6
CONTINUOUS
10
0.309888
20
0.677742
11
0.303045
21
0.679197
0
LINE
8
BLACK
6
CONTINUOUS
10
0.303045
20
0.679197
11
0.296654
21
0.682042
0
LINE
8
BLACK
6
CONTINUOUS
10
0.296654
20
0.682042
11
0.290994
21
0.686155
0
LINE
8
BLACK
6
CONTINUOUS
10
0.290994
20
0.686155
11
0.286312
21
0.691354
0
LINE
8
BLACK
6
CONTINUOUS
10
0.286312
20
0.691354
11
0.282814
21
0.697412
0
LINE
8
BLACK
6
CONTINUOUS
10
0.282814
20
0.697412
11
0.280653
21
0.704066
0
LINE
8
BLACK
6
CONTINUOUS
10
0.280653
20
0.704066
11
0.279921
21
0.711024
0
LINE
8
BLACK
6
CONTINUOUS
10
0.279921
20
0.711024
11
0.280653
21
0.717981
0
LINE
8
BLACK
6
CONTINUOUS
10
0.280653
20
0.717981
11
0.282814
21
0.724635
0
LINE
8
BLACK
6
CONTINUOUS
10
0.282814
20
0.724635
11
0.286312
21
0.730694
0
LINE
8
BLACK
6
CONTINUOUS
10
0.286312
20
0.730694
11
0.290994
21
0.735893
0
LINE
8
BLACK
6
CONTINUOUS
10
0.290994
20
0.735893
11
0.296654
21
0.740005
0
LINE
8
BLACK
6
CONTINUOUS
10
0.296654
20
0.740005
11
0.303045
21
0.74285
0
LINE
8
BLACK
6
CONTINUOUS
10
0.303045
20
0.74285
11
0.309888
21
0.744305
0
LINE
8
BLACK
6
CONTINUOUS
10
0.309888
20
0.744305
11
0.316884
21
0.744305
0
LINE
8
BLACK
6
CONTINUOUS
10
0.316884
20
0.744305
11
0.323727
21
0.74285
0
LINE
8
BLACK
6
CONTINUOUS
10
0.423727
20
0.74285
11
0.430118
21
0.740005
0
LINE
8
BLACK
6
CONTINUOUS
10
0.430118
20
0.740005
11
0.435778
21
0.735893
0
LINE
8
BLACK
6
CONTINUOUS
10
0.435778
20
0.735893
11
0.440459
21
0.730694
0
LINE
8
BLACK
6
CONTINUOUS
10
0.440459
20
0.730694
11
0.443957
21
0.724635
0
LINE
8
BLACK
6
CONTINUOUS
10
0.443957
20
0.724635
11
0.446119
21
0.717981
0
LINE
8
BLACK
6
CONTINUOUS
10
0.446119
20
0.717981
11
0.44685
21
0.711024
0
LINE
8
BLACK
6
CONTINUOUS
10
0.44685
20
0.711024
11
0.446119
21
0.704066
0
LINE
8
BLACK
6
CONTINUOUS
10
0.446119
20
0.704066
11
0.443957
21
0.697412
0
LINE
8
BLACK
6
CONTINUOUS
10
0.443957
20
0.697412
11
0.440459
21
0.691354
0
LINE
8
BLACK
6
CONTINUOUS
10
0.440459
20
0.691354
11
0.435778
21
0.686155
0
LINE
8
BLACK
6
CONTINUOUS
10
0.435778
20
0.686155
11
0.430118
21
0.682042
0
LINE
8
BLACK
6
CONTINUOUS
10
0.430118
20
0.682042
11
0.423727
21
0.679197
0
LINE
8
BLACK
6
CONTINUOUS
10
0.423727
20
0.679197
11
0.416884
21
0.677742
0
LINE
8
BLACK
6
CONTINUOUS
10
0.416884
20
0.677742
11
0.409888
21
0.677742
0
LINE
8
BLACK
6
CONTINUOUS
10
0.409888
20
0.677742
11
0.403045
21
0.679197
0
LINE
8
BLACK
6
CONTINUOUS
10
0.403045
20
0.679197
11
0.396654
21
0.682042
0
LINE
8
BLACK
6
CONTINUOUS
10
0.396654
20
0.682042
11
0.390994
21
0.686155
0
LINE
8
BLACK
6
CONTINUOUS
10
0.390994
20
0.686155
11
0.386312
21
0.691354
0
LINE
8
BLACK
6
CONTINUOUS
10
0.386312
20
0.691354
11
0.382814
21
0.697412
0
LINE
8
BLACK
6
CONTINUOUS
10
0.382814
20
0.697412
11
0.380653
21
0.704066
0
LINE
8
BLACK
6
CONTINUOUS
10
0.380653
20
0.704066
11
0.379921
21
0.711024
0
LINE
8
BLACK
6
CONTINUOUS
10
0.379921
20
0.711024
11
0.380653
21
0.717981
0
LINE
8
BLACK
6
CONTINUOUS
10
0.380653
20
0.717981
11
0.382814
21
0.724635
0
LINE
8
BLACK
6
CONTINUOUS
10
0.382814
20
0.724635
11
0.386312
21
0.730694
0
LINE
8
BLACK
6
CONTINUOUS
10
0.386312
20
0.730694
11
0.390994
21
0.735893
0
LINE
8
BLACK
6
CONTINUOUS
10
0.390994
20
0.735893
11
0.396654
21
0.740005
0
LINE
8
BLACK
6
CONTINUOUS
10
0.396654
20
0.740005
11
0.403045
21
0.74285
0
LINE
8
BLACK
6
CONTINUOUS
10
0.403045
20
0.74285
11
0.409888
21
0.744305
0
LINE
8
BLACK
6
CONTINUOUS
10
0.409888
20
0.744305
11
0.416884
21
0.744305
0
LINE
8
BLACK
6
CONTINUOUS
10
0.416884
20
0.744305
11
0.423727
21
0.74285
0
LINE
8
BLACK
6
CONTINUOUS
10
1.11794
20
0.732026
11
1.12113
21
0.729893
0
LINE
8
BLACK
6
CONTINUOUS
10
1.12113
20
0.729893
11
1.12327
21
0.7267
0
LINE
8
BLACK
6
CONTINUOUS
10
1.12327
20
0.7267
11
1.12402
21
0.722933
0
LINE
8
BLACK
6
CONTINUOUS
10
1.12402
20
0.722933
11
1.12402
21
0.702264
0
LINE
8
BLACK
6
CONTINUOUS
10
1.12402
20
0.702264
11
1.12327
21
0.698497
0
LINE
8
BLACK
6
CONTINUOUS
10
1.12327
20
0.698497
11
1.12113
21
0.695304
0
LINE
8
BLACK
6
CONTINUOUS
10
1.12113
20
0.695304
11
1.11794
21
0.69317
0
LINE
8
BLACK
6
CONTINUOUS
10
1.11794
20
0.69317
11
1.11417
21
0.692421
0
LINE
8
BLACK
6
CONTINUOUS
10
1.11417
20
0.692421
11
1.07874
21
0.692421
0
LINE
8
BLACK
6
CONTINUOUS
10
1.07874
20
0.692421
11
1.07497
21
0.69317
0
LINE
8
BLACK
6
CONTINUOUS
10
1.07497
20
0.69317
11
1.07178
21
0.695304
0
LINE
8
BLACK
6
CONTINUOUS
10
1.07178
20
0.695304
11
1.06965
21
0.698497
0
LINE
8
BLACK
6
CONTINUOUS
10
1.06965
20
0.698497
11
1.0689
21
0.702264
0
LINE
8
BLACK
6
CONTINUOUS
10
1.0689
20
0.702264
11
1.0689
21
0.722933
0
LINE
8
BLACK
6
CONTINUOUS
10
1.0689
20
0.722933
11
1.06965
21
0.7267
0
LINE
8
BLACK
6
CONTINUOUS
10
1.06965
20
0.7267
11
1.07178
21
0.729893
0
LINE
8
BLACK
6
CONTINUOUS
10
1.07178
20
0.729893
11
1.07497
21
0.732026
0
LINE
8
BLACK
6
CONTINUOUS
10
1.07497
20
0.732026
11
1.07874
21
0.732776
0
LINE
8
BLACK
6
CONTINUOUS
10
1.07874
20
0.732776
11
1.11417
21
0.732776
0
LINE
8
BLACK
6
CONTINUOUS
10
1.11417
20
0.732776
11
1.11794
21
0.732026
0
LINE
8
BLACK
6
CONTINUOUS
10
1.219
20
0.762929
11
1.22539
21
0.760084
0
LINE
8
BLACK
6
CONTINUOUS
10
1.22539
20
0.760084
11
1.23105
21
0.755971
0
LINE
8
BLACK
6
CONTINUOUS
10
1.23105
20
0.755971
11
1.23573
21
0.750772
0
LINE
8
BLACK
6
CONTINUOUS
10
1.23573
20
0.750772
11
1.23923
21
0.744714
0
LINE
8
BLACK
6
CONTINUOUS
10
1.23923
20
0.744714
11
1.24139
21
0.73806
0
LINE
8
BLACK
6
CONTINUOUS
10
1.24139
20
0.73806
11
1.24213
21
0.731102
0
LINE
8
BLACK
6
CONTINUOUS
10
1.24213
20
0.731102
11
1.24139
21
0.724145
0
LINE
8
BLACK
6
CONTINUOUS
10
1.24139
20
0.724145
11
1.23923
21
0.717491
0
LINE
8
BLACK
6
CONTINUOUS
10
1.23923
20
0.717491
11
1.23573
21
0.711432
0
LINE
8
BLACK
6
CONTINUOUS
10
1.23573
20
0.711432
11
1.23105
21
0.706233
0
LINE
8
BLACK
6
CONTINUOUS
10
1.23105
20
0.706233
11
1.22539
21
0.702121
0
LINE
8
BLACK
6
CONTINUOUS
10
1.22539
20
0.702121
11
1.219
21
0.699276
0
LINE
8
BLACK
6
CONTINUOUS
10
1.219
20
0.699276
11
1.21216
21
0.697821
0
LINE
8
BLACK
6
CONTINUOUS
10
1.21216
20
0.697821
11
1.20516
21
0.697821
0
LINE
8
BLACK
6
CONTINUOUS
10
1.20516
20
0.697821
11
1.19832
21
0.699276
0
LINE
8
BLACK
6
CONTINUOUS
10
1.19832
20
0.699276
11
1.19193
21
0.702121
0
LINE
8
BLACK
6
CONTINUOUS
10
1.19193
20
0.702121
11
1.18627
21
0.706233
0
LINE
8
BLACK
6
CONTINUOUS
10
1.18627
20
0.706233
11
1.18159
21
0.711432
0
LINE
8
BLACK
6
CONTINUOUS
10
1.18159
20
0.711432
11
1.17809
21
0.717491
0
LINE
8
BLACK
6
CONTINUOUS
10
1.17809
20
0.717491
11
1.17593
21
0.724145
0
LINE
8
BLACK
6
CONTINUOUS
10
1.17593
20
0.724145
11
1.1752
21
0.731102
0
LINE
8
BLACK
6
CONTINUOUS
10
1.1752
20
0.731102
11
1.17593
21
0.73806
0
LINE
8
BLACK
6
CONTINUOUS
10
1.17593
20
0.73806
11
1.17809
21
0.744714
0
LINE
8
BLACK
6
CONTINUOUS
10
1.17809
20
0.744714
11
1.18159
21
0.750772
0
LINE
8
BLACK
6
CONTINUOUS
10
1.18159
20
0.750772
11
1.18627
21
0.755971
0
LINE
8
BLACK
6
CONTINUOUS
10
1.18627
20
0.755971
11
1.19193
21
0.760084
0
LINE
8
BLACK
6
CONTINUOUS
10
1.19193
20
0.760084
11
1.19832
21
0.762929
0
LINE
8
BLACK
6
CONTINUOUS
10
1.19832
20
0.762929
11
1.20516
21
0.764384
0
LINE
8
BLACK
6
CONTINUOUS
10
1.20516
20
0.764384
11
1.21216
21
0.764384
0
LINE
8
BLACK
6
CONTINUOUS
10
1.21216
20
0.764384
11
1.219
21
0.762929
0
LINE
8
BLACK
6
CONTINUOUS
10
0.768648
20
0.813306
11
0.771842
21
0.811172
0
LINE
8
BLACK
6
CONTINUOUS
10
0.771842
20
0.811172
11
0.773975
21
0.807979
0
LINE
8
BLACK
6
CONTINUOUS
10
0.773975
20
0.807979
11
0.774724
21
0.804213
0
LINE
8
BLACK
6
CONTINUOUS
10
0.774724
20
0.804213
11
0.774724
21
0.737283
0
LINE
8
BLACK
6
CONTINUOUS
10
0.774724
20
0.737283
11
0.773975
21
0.733517
0
LINE
8
BLACK
6
CONTINUOUS
10
0.773975
20
0.733517
11
0.771842
21
0.730324
0
LINE
8
BLACK
6
CONTINUOUS
10
0.771842
20
0.730324
11
0.768648
21
0.72819
0
LINE
8
BLACK
6
CONTINUOUS
10
0.768648
20
0.72819
11
0.764882
21
0.727441
0
LINE
8
BLACK
6
CONTINUOUS
10
0.764882
20
0.727441
11
0.735354
21
0.727441
0
LINE
8
BLACK
6
CONTINUOUS
10
0.735354
20
0.727441
11
0.731588
21
0.72819
0
LINE
8
BLACK
6
CONTINUOUS
10
0.731588
20
0.72819
11
0.728395
21
0.730324
0
LINE
8
BLACK
6
CONTINUOUS
10
0.728395
20
0.730324
11
0.726261
21
0.733517
0
LINE
8
BLACK
6
CONTINUOUS
10
0.726261
20
0.733517
11
0.725512
21
0.737283
0
LINE
8
BLACK
6
CONTINUOUS
10
0.725512
20
0.737283
11
0.725512
21
0.804213
0
LINE
8
BLACK
6
CONTINUOUS
10
0.725512
20
0.804213
11
0.726261
21
0.807979
0
LINE
8
BLACK
6
CONTINUOUS
10
0.726261
20
0.807979
11
0.728395
21
0.811172
0
LINE
8
BLACK
6
CONTINUOUS
10
0.728395
20
0.811172
11
0.731588
21
0.813306
0
LINE
8
BLACK
6
CONTINUOUS
10
0.731588
20
0.813306
11
0.735354
21
0.814055
0
LINE
8
BLACK
6
CONTINUOUS
10
0.735354
20
0.814055
11
0.764882
21
0.814055
0
LINE
8
BLACK
6
CONTINUOUS
10
0.764882
20
0.814055
11
0.768648
21
0.813306
0
LINE
8
BLACK
6
CONTINUOUS
10
0.853294
20
0.813306
11
0.856487
21
0.811172
0
LINE
8
BLACK
6
CONTINUOUS
10
0.856487
20
0.811172
11
0.858621
21
0.807979
0
LINE
8
BLACK
6
CONTINUOUS
10
0.858621
20
0.807979
11
0.85937
21
0.804213
0
LINE
8
BLACK
6
CONTINUOUS
10
0.85937
20
0.804213
11
0.85937
21
0.737283
0
LINE
8
BLACK
6
CONTINUOUS
10
0.85937
20
0.737283
11
0.858621
21
0.733517
0
LINE
8
BLACK
6
CONTINUOUS
10
0.858621
20
0.733517
11
0.856487
21
0.730324
0
LINE
8
BLACK
6
CONTINUOUS
10
0.856487
20
0.730324
11
0.853294
21
0.72819
0
LINE
8
BLACK
6
CONTINUOUS
10
0.853294
20
0.72819
11
0.849528
21
0.727441
0
LINE
8
BLACK
6
CONTINUOUS
10
0.849528
20
0.727441
11
0.82
21
0.727441
0
LINE
8
BLACK
6
CONTINUOUS
10
0.82
20
0.727441
11
0.816233
21
0.72819
0
LINE
8
BLACK
6
CONTINUOUS
10
0.816233
20
0.72819
11
0.81304
21
0.730324
0
LINE
8
BLACK
6
CONTINUOUS
10
0.81304
20
0.730324
11
0.810907
21
0.733517
0
LINE
8
BLACK
6
CONTINUOUS
10
0.810907
20
0.733517
11
0.810157
21
0.737283
0
LINE
8
BLACK
6
CONTINUOUS
10
0.810157
20
0.737283
11
0.810157
21
0.804213
0
LINE
8
BLACK
6
CONTINUOUS
10
0.810157
20
0.804213
11
0.810907
21
0.807979
0
LINE
8
BLACK
6
CONTINUOUS
10
0.810907
20
0.807979
11
0.81304
21
0.811172
0
LINE
8
BLACK
6
CONTINUOUS
10
0.81304
20
0.811172
11
0.816233
21
0.813306
0
LINE
8
BLACK
6
CONTINUOUS
10
0.816233
20
0.813306
11
0.82
21
0.814055
0
LINE
8
BLACK
6
CONTINUOUS
10
0.82
20
0.814055
11
0.849528
21
0.814055
0
LINE
8
BLACK
6
CONTINUOUS
10
0.849528
20
0.814055
11
0.853294
21
0.813306
0
LINE
8
BLACK
6
CONTINUOUS
10
1.11794
20
0.803877
11
1.12113
21
0.801743
0
LINE
8
BLACK
6
CONTINUOUS
10
1.12113
20
0.801743
11
1.12327
21
0.79855
0
LINE
8
BLACK
6
CONTINUOUS
10
1.12327
20
0.79855
11
1.12402
21
0.794783
0
LINE
8
BLACK
6
CONTINUOUS
10
1.12402
20
0.794783
11
1.12402
21
0.774114
0
LINE
8
BLACK
6
CONTINUOUS
10
1.12402
20
0.774114
11
1.12327
21
0.770348
0
LINE
8
BLACK
6
CONTINUOUS
10
1.12327
20
0.770348
11
1.12113
21
0.767154
0
LINE
8
BLACK
6
CONTINUOUS
10
1.12113
20
0.767154
11
1.11794
21
0.765021
0
LINE
8
BLACK
6
CONTINUOUS
10
1.11794
20
0.765021
11
1.11417
21
0.764272
0
LINE
8
BLACK
6
CONTINUOUS
10
1.11417
20
0.764272
11
1.07874
21
0.764272
0
LINE
8
BLACK
6
CONTINUOUS
10
1.07874
20
0.764272
11
1.07497
21
0.765021
0
LINE
8
BLACK
6
CONTINUOUS
10
1.07497
20
0.765021
11
1.07178
21
0.767154
0
LINE
8
BLACK
6
CONTINUOUS
10
1.07178
20
0.767154
11
1.06965
21
0.770348
0
LINE
8
BLACK
6
CONTINUOUS
10
1.06965
20
0.770348
11
1.0689
21
0.774114
0
LINE
8
BLACK
6
CONTINUOUS
10
1.0689
20
0.774114
11
1.0689
21
0.794783
0
LINE
8
BLACK
6
CONTINUOUS
10
1.0689
20
0.794783
11
1.06965
21
0.79855
0
LINE
8
BLACK
6
CONTINUOUS
10
1.06965
20
0.79855
11
1.07178
21
0.801743
0
LINE
8
BLACK
6
CONTINUOUS
10
1.07178
20
0.801743
11
1.07497
21
0.803877
0
LINE
8
BLACK
6
CONTINUOUS
10
1.07497
20
0.803877
11
1.07874
21
0.804626
0
LINE
8
BLACK
6
CONTINUOUS
10
1.07874
20
0.804626
11
1.11417
21
0.804626
0
LINE
8
BLACK
6
CONTINUOUS
10
1.11417
20
0.804626
11
1.11794
21
0.803877
0
LINE
8
BLACK
6
CONTINUOUS
10
0.948648
20
0.822085
11
0.951842
21
0.819952
0
LINE
8
BLACK
6
CONTINUOUS
10
0.951842
20
0.819952
11
0.953975
21
0.816759
0
LINE
8
BLACK
6
CONTINUOUS
10
0.953975
20
0.816759
11
0.954724
21
0.812992
0
LINE
8
BLACK
6
CONTINUOUS
10
0.954724
20
0.812992
11
0.954724
21
0.775591
0
LINE
8
BLACK
6
CONTINUOUS
10
0.954724
20
0.775591
11
0.953975
21
0.771824
0
LINE
8
BLACK
6
CONTINUOUS
10
0.953975
20
0.771824
11
0.951842
21
0.768631
0
LINE
8
BLACK
6
CONTINUOUS
10
0.951842
20
0.768631
11
0.948648
21
0.766497
0
LINE
8
BLACK
6
CONTINUOUS
10
0.948648
20
0.766497
11
0.944882
21
0.765748
0
LINE
8
BLACK
6
CONTINUOUS
10
0.944882
20
0.765748
11
0.925197
21
0.765748
0
LINE
8
BLACK
6
CONTINUOUS
10
0.925197
20
0.765748
11
0.92143
21
0.766497
0
LINE
8
BLACK
6
CONTINUOUS
10
0.92143
20
0.766497
11
0.918237
21
0.768631
0
LINE
8
BLACK
6
CONTINUOUS
10
0.918237
20
0.768631
11
0.916104
21
0.771824
0
LINE
8
BLACK
6
CONTINUOUS
10
0.916104
20
0.771824
11
0.915354
21
0.775591
0
LINE
8
BLACK
6
CONTINUOUS
10
0.915354
20
0.775591
11
0.915354
21
0.812992
0
LINE
8
BLACK
6
CONTINUOUS
10
0.915354
20
0.812992
11
0.916104
21
0.816759
0
LINE
8
BLACK
6
CONTINUOUS
10
0.916104
20
0.816759
11
0.918237
21
0.819952
0
LINE
8
BLACK
6
CONTINUOUS
10
0.918237
20
0.819952
11
0.92143
21
0.822085
0
LINE
8
BLACK
6
CONTINUOUS
10
0.92143
20
0.822085
11
0.925197
21
0.822835
0
LINE
8
BLACK
6
CONTINUOUS
10
0.925197
20
0.822835
11
0.944882
21
0.822835
0
LINE
8
BLACK
6
CONTINUOUS
10
0.944882
20
0.822835
11
0.948648
21
0.822085
0
LINE
8
BLACK
6
CONTINUOUS
10
1.02345
20
0.822085
11
1.02664
21
0.819952
0
LINE
8
BLACK
6
CONTINUOUS
10
1.02664
20
0.819952
11
1.02878
21
0.816759
0
LINE
8
BLACK
6
CONTINUOUS
10
1.02878
20
0.816759
11
1.02953
21
0.812992
0
LINE
8
BLACK
6
CONTINUOUS
10
1.02953
20
0.812992
11
1.02953
21
0.775591
0
LINE
8
BLACK
6
CONTINUOUS
10
1.02953
20
0.775591
11
1.02878
21
0.771824
0
LINE
8
BLACK
6
CONTINUOUS
10
1.02878
20
0.771824
11
1.02664
21
0.768631
0
LINE
8
BLACK
6
CONTINUOUS
10
1.02664
20
0.768631
11
1.02345
21
0.766497
0
LINE
8
BLACK
6
CONTINUOUS
10
1.02345
20
0.766497
11
1.01969
21
0.765748
0
LINE
8
BLACK
6
CONTINUOUS
10
1.01969
20
0.765748
11
1
21
0.765748
0
LINE
8
BLACK
6
CONTINUOUS
10
1
20
0.765748
11
0.996233
21
0.766497
0
LINE
8
BLACK
6
CONTINUOUS
10
0.996233
20
0.766497
11
0.99304
21
0.768631
0
LINE
8
BLACK
6
CONTINUOUS
10
0.99304
20
0.768631
11
0.990907
21
0.771824
0
LINE
8
BLACK
6
CONTINUOUS
10
0.990907
20
0.771824
11
0.990157
21
0.775591
0
LINE
8
BLACK
6
CONTINUOUS
10
0.990157
20
0.775591
11
0.990157
21
0.812992
0
LINE
8
BLACK
6
CONTINUOUS
10
0.990157
20
0.812992
11
0.990907
21
0.816759
0
LINE
8
BLACK
6
CONTINUOUS
10
0.990907
20
0.816759
11
0.99304
21
0.819952
0
LINE
8
BLACK
6
CONTINUOUS
10
0.99304
20
0.819952
11
0.996233
21
0.822085
0
LINE
8
BLACK
6
CONTINUOUS
10
0.996233
20
0.822085
11
1
21
0.822835
0
LINE
8
BLACK
6
CONTINUOUS
10
1
20
0.822835
11
1.01969
21
0.822835
0
LINE
8
BLACK
6
CONTINUOUS
10
1.01969
20
0.822835
11
1.02345
21
0.822085
0
LINE
8
BLACK
6
CONTINUOUS
10
0.598255
20
0.871298
11
0.601448
21
0.869164
0
LINE
8
BLACK
6
CONTINUOUS
10
0.601448
20
0.869164
11
0.603581
21
0.865971
0
LINE
8
BLACK
6
CONTINUOUS
10
0.603581
20
0.865971
11
0.604331
21
0.862205
0
LINE
8
BLACK
6
CONTINUOUS
10
0.604331
20
0.862205
11
0.604331
21
0.783465
0
LINE
8
BLACK
6
CONTINUOUS
10
0.604331
20
0.783465
11
0.603581
21
0.779698
0
LINE
8
BLACK
6
CONTINUOUS
10
0.603581
20
0.779698
11
0.601448
21
0.776505
0
LINE
8
BLACK
6
CONTINUOUS
10
0.601448
20
0.776505
11
0.598255
21
0.774371
0
LINE
8
BLACK
6
CONTINUOUS
10
0.598255
20
0.774371
11
0.594488
21
0.773622
0
LINE
8
BLACK
6
CONTINUOUS
10
0.594488
20
0.773622
11
0.543307
21
0.773622
0
LINE
8
BLACK
6
CONTINUOUS
10
0.543307
20
0.773622
11
0.539541
21
0.774371
0
LINE
8
BLACK
6
CONTINUOUS
10
0.539541
20
0.774371
11
0.536347
21
0.776505
0
LINE
8
BLACK
6
CONTINUOUS
10
0.536347
20
0.776505
11
0.534214
21
0.779698
0
LINE
8
BLACK
6
CONTINUOUS
10
0.534214
20
0.779698
11
0.533465
21
0.783465
0
LINE
8
BLACK
6
CONTINUOUS
10
0.533465
20
0.783465
11
0.533465
21
0.862205
0
LINE
8
BLACK
6
CONTINUOUS
10
0.533465
20
0.862205
11
0.534214
21
0.865971
0
LINE
8
BLACK
6
CONTINUOUS
10
0.534214
20
0.865971
11
0.536347
21
0.869164
0
LINE
8
BLACK
6
CONTINUOUS
10
0.536347
20
0.869164
11
0.539541
21
0.871298
0
LINE
8
BLACK
6
CONTINUOUS
10
0.539541
20
0.871298
11
0.543307
21
0.872047
0
LINE
8
BLACK
6
CONTINUOUS
10
0.543307
20
0.872047
11
0.594488
21
0.872047
0
LINE
8
BLACK
6
CONTINUOUS
10
0.594488
20
0.872047
11
0.598255
21
0.871298
0
LINE
8
BLACK
6
CONTINUOUS
10
0.323727
20
0.84285
11
0.330118
21
0.840005
0
LINE
8
BLACK
6
CONTINUOUS
10
0.330118
20
0.840005
11
0.335778
21
0.835893
0
LINE
8
BLACK
6
CONTINUOUS
10
0.335778
20
0.835893
11
0.340459
21
0.830694
0
LINE
8
BLACK
6
CONTINUOUS
10
0.340459
20
0.830694
11
0.343957
21
0.824635
0
LINE
8
BLACK
6
CONTINUOUS
10
0.343957
20
0.824635
11
0.346119
21
0.817981
0
LINE
8
BLACK
6
CONTINUOUS
10
0.346119
20
0.817981
11
0.34685
21
0.811024
0
LINE
8
BLACK
6
CONTINUOUS
10
0.34685
20
0.811024
11
0.346119
21
0.804066
0
LINE
8
BLACK
6
CONTINUOUS
10
0.346119
20
0.804066
11
0.343957
21
0.797412
0
LINE
8
BLACK
6
CONTINUOUS
10
0.343957
20
0.797412
11
0.340459
21
0.791354
0
LINE
8
BLACK
6
CONTINUOUS
10
0.340459
20
0.791354
11
0.335778
21
0.786155
0
LINE
8
BLACK
6
CONTINUOUS
10
0.335778
20
0.786155
11
0.330118
21
0.782042
0
LINE
8
BLACK
6
CONTINUOUS
10
0.330118
20
0.782042
11
0.323727
21
0.779197
0
LINE
8
BLACK
6
CONTINUOUS
10
0.323727
20
0.779197
11
0.316884
21
0.777742
0
LINE
8
BLACK
6
CONTINUOUS
10
0.316884
20
0.777742
11
0.309888
21
0.777742
0
LINE
8
BLACK
6
CONTINUOUS
10
0.309888
20
0.777742
11
0.303045
21
0.779197
0
LINE
8
BLACK
6
CONTINUOUS
10
0.303045
20
0.779197
11
0.296654
21
0.782042
0
LINE
8
BLACK
6
CONTINUOUS
10
0.296654
20
0.782042
11
0.290994
21
0.786155
0
LINE
8
BLACK
6
CONTINUOUS
10
0.290994
20
0.786155
11
0.286312
21
0.791354
0
LINE
8
BLACK
6
CONTINUOUS
10
0.286312
20
0.791354
11
0.282814
21
0.797412
0
LINE
8
BLACK
6
CONTINUOUS
10
0.282814
20
0.797412
11
0.280653
21
0.804066
0
LINE
8
BLACK
6
CONTINUOUS
10
0.280653
20
0.804066
11
0.279921
21
0.811024
0
LINE
8
BLACK
6
CONTINUOUS
10
0.279921
20
0.811024
11
0.280653
21
0.817981
0
LINE
8
BLACK
6
CONTINUOUS
10
0.280653
20
0.817981
11
0.282814
21
0.824635
0
LINE
8
BLACK
6
CONTINUOUS
10
0.282814
20
0.824635
11
0.286312
21
0.830694
0
LINE
8
BLACK
6
CONTINUOUS
10
0.286312
20
0.830694
11
0.290994
21
0.835893
0
LINE
8
BLACK
6
CONTINUOUS
10
0.290994
20
0.835893
11
0.296654
21
0.840005
0
LINE
8
BLACK
6
CONTINUOUS
10
0.296654
20
0.840005
11
0.303045
21
0.84285
0
LINE
8
BLACK
6
CONTINUOUS
10
0.303045
20
0.84285
11
0.309888
21
0.844305
0
LINE
8
BLACK
6
CONTINUOUS
10
0.309888
20
0.844305
11
0.316884
21
0.844305
0
LINE
8
BLACK
6
CONTINUOUS
10
0.316884
20
0.844305
11
0.323727
21
0.84285
0
LINE
8
BLACK
6
CONTINUOUS
10
0.423727
20
0.84285
11
0.430118
21
0.840005
0
LINE
8
BLACK
6
CONTINUOUS
10
0.430118
20
0.840005
11
0.435778
21
0.835893
0
LINE
8
BLACK
6
CONTINUOUS
10
0.435778
20
0.835893
11
0.440459
21
0.830694
0
LINE
8
BLACK
6
CONTINUOUS
10
0.440459
20
0.830694
11
0.443957
21
0.824635
0
LINE
8
BLACK
6
CONTINUOUS
10
0.443957
20
0.824635
11
0.446119
21
0.817981
0
LINE
8
BLACK
6
CONTINUOUS
10
0.446119
20
0.817981
11
0.44685
21
0.811024
0
LINE
8
BLACK
6
CONTINUOUS
10
0.44685
20
0.811024
11
0.446119
21
0.804066
0
LINE
8
BLACK
6
CONTINUOUS
10
0.446119
20
0.804066
11
0.443957
21
0.797412
0
LINE
8
BLACK
6
CONTINUOUS
10
0.443957
20
0.797412
11
0.440459
21
0.791354
0
LINE
8
BLACK
6
CONTINUOUS
10
0.440459
20
0.791354
11
0.435778
21
0.786155
0
LINE
8
BLACK
6
CONTINUOUS
10
0.435778
20
0.786155
11
0.430118
21
0.782042
0
LINE
8
BLACK
6
CONTINUOUS
10
0.430118
20
0.782042
11
0.423727
21
0.779197
0
LINE
8
BLACK
6
CONTINUOUS
10
0.423727
20
0.779197
11
0.416884
21
0.777742
0
LINE
8
BLACK
6
CONTINUOUS
10
0.416884
20
0.777742
11
0.409888
21
0.777742
0
LINE
8
BLACK
6
CONTINUOUS
10
0.409888
20
0.777742
11
0.403045
21
0.779197
0
LINE
8
BLACK
6
CONTINUOUS
10
0.403045
20
0.779197
11
0.396654
21
0.782042
0
LINE
8
BLACK
6
CONTINUOUS
10
0.396654
20
0.782042
11
0.390994
21
0.786155
0
LINE
8
BLACK
6
CONTINUOUS
10
0.390994
20
0.786155
11
0.386312
21
0.791354
0
LINE
8
BLACK
6
CONTINUOUS
10
0.386312
20
0.791354
11
0.382814
21
0.797412
0
LINE
8
BLACK
6
CONTINUOUS
10
0.382814
20
0.797412
11
0.380653
21
0.804066
0
LINE
8
BLACK
6
CONTINUOUS
10
0.380653
20
0.804066
11
0.379921
21
0.811024
0
LINE
8
BLACK
6
CONTINUOUS
10
0.379921
20
0.811024
11
0.380653
21
0.817981
0
LINE
8
BLACK
6
CONTINUOUS
10
0.380653
20
0.817981
11
0.382814
21
0.824635
0
LINE
8
BLACK
6
CONTINUOUS
10
0.382814
20
0.824635
11
0.386312
21
0.830694
0
LINE
8
BLACK
6
CONTINUOUS
10
0.386312
20
0.830694
11
0.390994
21
0.835893
0
LINE
8
BLACK
6
CONTINUOUS
10
0.390994
20
0.835893
11
0.396654
21
0.840005
0
LINE
8
BLACK
6
CONTINUOUS
10
0.396654
20
0.840005
11
0.403045
21
0.84285
0
LINE
8
BLACK
6
CONTINUOUS
10
0.403045
20
0.84285
11
0.409888
21
0.844305
0
LINE
8
BLACK
6
CONTINUOUS
10
0.409888
20
0.844305
11
0.416884
21
0.844305
0
LINE
8
BLACK
6
CONTINUOUS
10
0.416884
20
0.844305
11
0.423727
21
0.84285
0
LINE
8
BLACK
6
CONTINUOUS
10
1.219
20
0.862929
11
1.22539
21
0.860084
0
LINE
8
BLACK
6
CONTINUOUS
10
1.22539
20
0.860084
11
1.23105
21
0.855971
0
LINE
8
BLACK
6
CONTINUOUS
10
1.23105
20
0.855971
11
1.23573
21
0.850772
0
LINE
8
BLACK
6
CONTINUOUS
10
1.23573
20
0.850772
11
1.23923
21
0.844714
0
LINE
8
BLACK
6
CONTINUOUS
10
1.23923
20
0.844714
11
1.24139
21
0.83806
0
LINE
8
BLACK
6
CONTINUOUS
10
1.24139
20
0.83806
11
1.24213
21
0.831102
0
LINE
8
BLACK
6
CONTINUOUS
10
1.24213
20
0.831102
11
1.24139
21
0.824145
0
LINE
8
BLACK
6
CONTINUOUS
10
1.24139
20
0.824145
11
1.23923
21
0.817491
0
LINE
8
BLACK
6
CONTINUOUS
10
1.23923
20
0.817491
11
1.23573
21
0.811432
0
LINE
8
BLACK
6
CONTINUOUS
10
1.23573
20
0.811432
11
1.23105
21
0.806233
0
LINE
8
BLACK
6
CONTINUOUS
10
1.23105
20
0.806233
11
1.22539
21
0.802121
0
LINE
8
BLACK
6
CONTINUOUS
10
1.22539
20
0.802121
11
1.219
21
0.799276
0
LINE
8
BLACK
6
CONTINUOUS
10
1.219
20
0.799276
11
1.21216
21
0.797821
0
LINE
8
BLACK
6
CONTINUOUS
10
1.21216
20
0.797821
11
1.20516
21
0.797821
0
LINE
8
BLACK
6
CONTINUOUS
10
1.20516
20
0.797821
11
1.19832
21
0.799276
0
LINE
8
BLACK
6
CONTINUOUS
10
1.19832
20
0.799276
11
1.19193
21
0.802121
0
LINE
8
BLACK
6
CONTINUOUS
10
1.19193
20
0.802121
11
1.18627
21
0.806233
0
LINE
8
BLACK
6
CONTINUOUS
10
1.18627
20
0.806233
11
1.18159
21
0.811432
0
LINE
8
BLACK
6
CONTINUOUS
10
1.18159
20
0.811432
11
1.17809
21
0.817491
0
LINE
8
BLACK
6
CONTINUOUS
10
1.17809
20
0.817491
11
1.17593
21
0.824145
0
LINE
8
BLACK
6
CONTINUOUS
10
1.17593
20
0.824145
11
1.1752
21
0.831102
0
LINE
8
BLACK
6
CONTINUOUS
10
1.1752
20
0.831102
11
1.17593
21
0.83806
0
LINE
8
BLACK
6
CONTINUOUS
10
1.17593
20
0.83806
11
1.17809
21
0.844714
0
LINE
8
BLACK
6
CONTINUOUS
10
1.17809
20
0.844714
11
1.18159
21
0.850772
0
LINE
8
BLACK
6
CONTINUOUS
10
1.18159
20
0.850772
11
1.18627
21
0.855971
0
LINE
8
BLACK
6
CONTINUOUS
10
1.18627
20
0.855971
11
1.19193
21
0.860084
0
LINE
8
BLACK
6
CONTINUOUS
10
1.19193
20
0.860084
11
1.19832
21
0.862929
0
LINE
8
BLACK
6
CONTINUOUS
10
1.19832
20
0.862929
11
1.20516
21
0.864384
0
LINE
8
BLACK
6
CONTINUOUS
10
1.20516
20
0.864384
11
1.21216
21
0.864384
0
LINE
8
BLACK
6
CONTINUOUS
10
1.21216
20
0.864384
11
1.219
21
0.862929
0
LINE
8
BLACK
6
CONTINUOUS
10
1.11794
20
0.870806
11
1.12113
21
0.868672
0
LINE
8
BLACK
6
CONTINUOUS
10
1.12113
20
0.868672
11
1.12327
21
0.865479
0
LINE
8
BLACK
6
CONTINUOUS
10
1.12327
20
0.865479
11
1.12402
21
0.861713
0
LINE
8
BLACK
6
CONTINUOUS
10
1.12402
20
0.861713
11
1.12402
21
0.841043
0
LINE
8
BLACK
6
CONTINUOUS
10
1.12402
20
0.841043
11
1.12327
21
0.837277
0
LINE
8
BLACK
6
CONTINUOUS
10
1.12327
20
0.837277
11
1.12113
21
0.834084
0
LINE
8
BLACK
6
CONTINUOUS
10
1.12113
20
0.834084
11
1.11794
21
0.83195
0
LINE
8
BLACK
6
CONTINUOUS
10
1.11794
20
0.83195
11
1.11417
21
0.831201
0
LINE
8
BLACK
6
CONTINUOUS
10
1.11417
20
0.831201
11
1.07874
21
0.831201
0
LINE
8
BLACK
6
CONTINUOUS
10
1.07874
20
0.831201
11
1.07497
21
0.83195
0
LINE
8
BLACK
6
CONTINUOUS
10
1.07497
20
0.83195
11
1.07178
21
0.834084
0
LINE
8
BLACK
6
CONTINUOUS
10
1.07178
20
0.834084
11
1.06965
21
0.837277
0
LINE
8
BLACK
6
CONTINUOUS
10
1.06965
20
0.837277
11
1.0689
21
0.841043
0
LINE
8
BLACK
6
CONTINUOUS
10
1.0689
20
0.841043
11
1.0689
21
0.861713
0
LINE
8
BLACK
6
CONTINUOUS
10
1.0689
20
0.861713
11
1.06965
21
0.865479
0
LINE
8
BLACK
6
CONTINUOUS
10
1.06965
20
0.865479
11
1.07178
21
0.868672
0
LINE
8
BLACK
6
CONTINUOUS
10
1.07178
20
0.868672
11
1.07497
21
0.870806
0
LINE
8
BLACK
6
CONTINUOUS
10
1.07497
20
0.870806
11
1.07874
21
0.871555
0
LINE
8
BLACK
6
CONTINUOUS
10
1.07874
20
0.871555
11
1.11417
21
0.871555
0
LINE
8
BLACK
6
CONTINUOUS
10
1.11417
20
0.871555
11
1.11794
21
0.870806
0
LINE
8
BLACK
6
CONTINUOUS
10
0.768819
20
0.838406
11
0.757008
21
0.838406
0
LINE
8
BLACK
6
CONTINUOUS
10
0.757008
20
0.838406
11
0.757008
21
0.857106
0
LINE
8
BLACK
6
CONTINUOUS
10
0.757008
20
0.857106
11
0.768819
21
0.857106
0
LINE
8
BLACK
6
CONTINUOUS
10
0.768819
20
0.857106
11
0.768819
21
0.838406
0
LINE
8
BLACK
6
CONTINUOUS
10
0.788504
20
0.838406
11
0.776693
21
0.838406
0
LINE
8
BLACK
6
CONTINUOUS
10
0.776693
20
0.838406
11
0.776693
21
0.857106
0
LINE
8
BLACK
6
CONTINUOUS
10
0.776693
20
0.857106
11
0.788504
21
0.857106
0
LINE
8
BLACK
6
CONTINUOUS
10
0.788504
20
0.857106
11
0.788504
21
0.838406
0
LINE
8
BLACK
6
CONTINUOUS
10
0.808189
20
0.838406
11
0.796378
21
0.838406
0
LINE
8
BLACK
6
CONTINUOUS
10
0.796378
20
0.838406
11
0.796378
21
0.857106
0
LINE
8
BLACK
6
CONTINUOUS
10
0.796378
20
0.857106
11
0.808189
21
0.857106
0
LINE
8
BLACK
6
CONTINUOUS
10
0.808189
20
0.857106
11
0.808189
21
0.838406
0
LINE
8
BLACK
6
CONTINUOUS
10
0.827874
20
0.838406
11
0.816063
21
0.838406
0
LINE
8
BLACK
6
CONTINUOUS
10
0.816063
20
0.838406
11
0.816063
21
0.857106
0
LINE
8
BLACK
6
CONTINUOUS
10
0.816063
20
0.857106
11
0.827874
21
0.857106
0
LINE
8
BLACK
6
CONTINUOUS
10
0.827874
20
0.857106
11
0.827874
21
0.838406
0
LINE
8
BLACK
6
CONTINUOUS
10
0.714908
20
0.877204
11
0.718101
21
0.87507
0
LINE
8
BLACK
6
CONTINUOUS
10
0.718101
20
0.87507
11
0.720235
21
0.871877
0
LINE
8
BLACK
6
CONTINUOUS
10
0.720235
20
0.871877
11
0.720984
21
0.86811
0
LINE
8
BLACK
6
CONTINUOUS
10
0.720984
20
0.86811
11
0.720984
21
0.848425
0
LINE
8
BLACK
6
CONTINUOUS
10
0.720984
20
0.848425
11
0.720235
21
0.844659
0
LINE
8
BLACK
6
CONTINUOUS
10
0.720235
20
0.844659
11
0.718101
21
0.841465
0
LINE
8
BLACK
6
CONTINUOUS
10
0.718101
20
0.841465
11
0.714908
21
0.839332
0
LINE
8
BLACK
6
CONTINUOUS
10
0.714908
20
0.839332
11
0.711142
21
0.838583
0
LINE
8
BLACK
6
CONTINUOUS
10
0.711142
20
0.838583
11
0.67374
21
0.838583
0
LINE
8
BLACK
6
CONTINUOUS
10
0.67374
20
0.838583
11
0.669974
21
0.839332
0
LINE
8
BLACK
6
CONTINUOUS
10
0.669974
20
0.839332
11
0.66678
21
0.841465
0
LINE
8
BLACK
6
CONTINUOUS
10
0.66678
20
0.841465
11
0.664647
21
0.844659
0
LINE
8
BLACK
6
CONTINUOUS
10
0.664647
20
0.844659
11
0.663898
21
0.848425
0
LINE
8
BLACK
6
CONTINUOUS
10
0.663898
20
0.848425
11
0.663898
21
0.86811
0
LINE
8
BLACK
6
CONTINUOUS
10
0.663898
20
0.86811
11
0.664647
21
0.871877
0
LINE
8
BLACK
6
CONTINUOUS
10
0.664647
20
0.871877
11
0.66678
21
0.87507
0
LINE
8
BLACK
6
CONTINUOUS
10
0.66678
20
0.87507
11
0.669974
21
0.877204
0
LINE
8
BLACK
6
CONTINUOUS
10
0.669974
20
0.877204
11
0.67374
21
0.877953
0
LINE
8
BLACK
6
CONTINUOUS
10
0.67374
20
0.877953
11
0.711142
21
0.877953
0
LINE
8
BLACK
6
CONTINUOUS
10
0.711142
20
0.877953
11
0.714908
21
0.877204
0
LINE
8
BLACK
6
CONTINUOUS
10
0.9142
20
0.882125
11
0.917393
21
0.879991
0
LINE
8
BLACK
6
CONTINUOUS
10
0.917393
20
0.879991
11
0.919526
21
0.876798
0
LINE
8
BLACK
6
CONTINUOUS
10
0.919526
20
0.876798
11
0.920276
21
0.873031
0
LINE
8
BLACK
6
CONTINUOUS
10
0.920276
20
0.873031
11
0.920276
21
0.853346
0
LINE
8
BLACK
6
CONTINUOUS
10
0.920276
20
0.853346
11
0.919526
21
0.84958
0
LINE
8
BLACK
6
CONTINUOUS
10
0.919526
20
0.84958
11
0.917393
21
0.846387
0
LINE
8
BLACK
6
CONTINUOUS
10
0.917393
20
0.846387
11
0.9142
21
0.844253
0
LINE
8
BLACK
6
CONTINUOUS
10
0.9142
20
0.844253
11
0.910433
21
0.843504
0
LINE
8
BLACK
6
CONTINUOUS
10
0.910433
20
0.843504
11
0.873031
21
0.843504
0
LINE
8
BLACK
6
CONTINUOUS
10
0.873031
20
0.843504
11
0.869265
21
0.844253
0
LINE
8
BLACK
6
CONTINUOUS
10
0.869265
20
0.844253
11
0.866072
21
0.846387
0
LINE
8
BLACK
6
CONTINUOUS
10
0.866072
20
0.846387
11
0.863938
21
0.84958
0
LINE
8
BLACK
6
CONTINUOUS
10
0.863938
20
0.84958
11
0.863189
21
0.853346
0
LINE
8
BLACK
6
CONTINUOUS
10
0.863189
20
0.853346
11
0.863189
21
0.873031
0
LINE
8
BLACK
6
CONTINUOUS
10
0.863189
20
0.873031
11
0.863938
21
0.876798
0
LINE
8
BLACK
6
CONTINUOUS
10
0.863938
20
0.876798
11
0.866072
21
0.879991
0
LINE
8
BLACK
6
CONTINUOUS
10
0.866072
20
0.879991
11
0.869265
21
0.882125
0
LINE
8
BLACK
6
CONTINUOUS
10
0.869265
20
0.882125
11
0.873031
21
0.882874
0
LINE
8
BLACK
6
CONTINUOUS
10
0.873031
20
0.882874
11
0.910433
21
0.882874
0
LINE
8
BLACK
6
CONTINUOUS
10
0.910433
20
0.882874
11
0.9142
21
0.882125
0
LINE
8
BLACK
6
CONTINUOUS
10
1.02345
20
0.88557
11
1.02664
21
0.883436
0
LINE
8
BLACK
6
CONTINUOUS
10
1.02664
20
0.883436
11
1.02878
21
0.880243
0
LINE
8
BLACK
6
CONTINUOUS
10
1.02878
20
0.880243
11
1.02953
21
0.876476
0
LINE
8
BLACK
6
CONTINUOUS
10
1.02953
20
0.876476
11
1.02953
21
0.855807
0
LINE
8
BLACK
6
CONTINUOUS
10
1.02953
20
0.855807
11
1.02878
21
0.852041
0
LINE
8
BLACK
6
CONTINUOUS
10
1.02878
20
0.852041
11
1.02664
21
0.848847
0
LINE
8
BLACK
6
CONTINUOUS
10
1.02664
20
0.848847
11
1.02345
21
0.846714
0
LINE
8
BLACK
6
CONTINUOUS
10
1.02345
20
0.846714
11
1.01969
21
0.845965
0
LINE
8
BLACK
6
CONTINUOUS
10
1.01969
20
0.845965
11
0.984252
21
0.845965
0
LINE
8
BLACK
6
CONTINUOUS
10
0.984252
20
0.845965
11
0.980485
21
0.846714
0
LINE
8
BLACK
6
CONTINUOUS
10
0.980485
20
0.846714
11
0.977292
21
0.848847
0
LINE
8
BLACK
6
CONTINUOUS
10
0.977292
20
0.848847
11
0.975159
21
0.852041
0
LINE
8
BLACK
6
CONTINUOUS
10
0.975159
20
0.852041
11
0.974409
21
0.855807
0
LINE
8
BLACK
6
CONTINUOUS
10
0.974409
20
0.855807
11
0.974409
21
0.876476
0
LINE
8
BLACK
6
CONTINUOUS
10
0.974409
20
0.876476
11
0.975159
21
0.880243
0
LINE
8
BLACK
6
CONTINUOUS
10
0.975159
20
0.880243
11
0.977292
21
0.883436
0
LINE
8
BLACK
6
CONTINUOUS
10
0.977292
20
0.883436
11
0.980485
21
0.88557
0
LINE
8
BLACK
6
CONTINUOUS
10
0.980485
20
0.88557
11
0.984252
21
0.886319
0
LINE
8
BLACK
6
CONTINUOUS
10
0.984252
20
0.886319
11
1.01969
21
0.886319
0
LINE
8
BLACK
6
CONTINUOUS
10
1.01969
20
0.886319
11
1.02345
21
0.88557
0
LINE
8
BLACK
6
CONTINUOUS
10
0.34685
20
0.877559
11
0.279921
21
0.877559
0
LINE
8
BLACK
6
CONTINUOUS
10
0.279921
20
0.877559
11
0.279921
21
0.944488
0
LINE
8
BLACK
6
CONTINUOUS
10
0.279921
20
0.944488
11
0.34685
21
0.944488
0
LINE
8
BLACK
6
CONTINUOUS
10
0.34685
20
0.944488
11
0.34685
21
0.877559
0
LINE
8
BLACK
6
CONTINUOUS
10
0.423727
20
0.94285
11
0.430118
21
0.940005
0
LINE
8
BLACK
6
CONTINUOUS
10
0.430118
20
0.940005
11
0.435778
21
0.935893
0
LINE
8
BLACK
6
CONTINUOUS
10
0.435778
20
0.935893
11
0.440459
21
0.930694
0
LINE
8
BLACK
6
CONTINUOUS
10
0.440459
20
0.930694
11
0.443957
21
0.924635
0
LINE
8
BLACK
6
CONTINUOUS
10
0.443957
20
0.924635
11
0.446119
21
0.917981
0
LINE
8
BLACK
6
CONTINUOUS
10
0.446119
20
0.917981
11
0.44685
21
0.911024
0
LINE
8
BLACK
6
CONTINUOUS
10
0.44685
20
0.911024
11
0.446119
21
0.904066
0
LINE
8
BLACK
6
CONTINUOUS
10
0.446119
20
0.904066
11
0.443957
21
0.897412
0
LINE
8
BLACK
6
CONTINUOUS
10
0.443957
20
0.897412
11
0.440459
21
0.891354
0
LINE
8
BLACK
6
CONTINUOUS
10
0.440459
20
0.891354
11
0.435778
21
0.886155
0
LINE
8
BLACK
6
CONTINUOUS
10
0.435778
20
0.886155
11
0.430118
21
0.882042
0
LINE
8
BLACK
6
CONTINUOUS
10
0.430118
20
0.882042
11
0.423727
21
0.879197
0
LINE
8
BLACK
6
CONTINUOUS
10
0.423727
20
0.879197
11
0.416884
21
0.877742
0
LINE
8
BLACK
6
CONTINUOUS
10
0.416884
20
0.877742
11
0.409888
21
0.877742
0
LINE
8
BLACK
6
CONTINUOUS
10
0.409888
20
0.877742
11
0.403045
21
0.879197
0
LINE
8
BLACK
6
CONTINUOUS
10
0.403045
20
0.879197
11
0.396654
21
0.882042
0
LINE
8
BLACK
6
CONTINUOUS
10
0.396654
20
0.882042
11
0.390994
21
0.886155
0
LINE
8
BLACK
6
CONTINUOUS
10
0.390994
20
0.886155
11
0.386312
21
0.891354
0
LINE
8
BLACK
6
CONTINUOUS
10
0.386312
20
0.891354
11
0.382814
21
0.897412
0
LINE
8
BLACK
6
CONTINUOUS
10
0.382814
20
0.897412
11
0.380653
21
0.904066
0
LINE
8
BLACK
6
CONTINUOUS
10
0.380653
20
0.904066
11
0.379921
21
0.911024
0
LINE
8
BLACK
6
CONTINUOUS
10
0.379921
20
0.911024
11
0.380653
21
0.917981
0
LINE
8
BLACK
6
CONTINUOUS
10
0.380653
20
0.917981
11
0.382814
21
0.924635
0
LINE
8
BLACK
6
CONTINUOUS
10
0.382814
20
0.924635
11
0.386312
21
0.930694
0
LINE
8
BLACK
6
CONTINUOUS
10
0.386312
20
0.930694
11
0.390994
21
0.935893
0
LINE
8
BLACK
6
CONTINUOUS
10
0.390994
20
0.935893
11
0.396654
21
0.940005
0
LINE
8
BLACK
6
CONTINUOUS
10
0.396654
20
0.940005
11
0.403045
21
0.94285
0
LINE
8
BLACK
6
CONTINUOUS
10
0.403045
20
0.94285
11
0.409888
21
0.944305
0
LINE
8
BLACK
6
CONTINUOUS
10
0.409888
20
0.944305
11
0.416884
21
0.944305
0
LINE
8
BLACK
6
CONTINUOUS
10
0.416884
20
0.944305
11
0.423727
21
0.94285
0
LINE
8
BLACK
6
CONTINUOUS
10
1.24213
20
0.897638
11
1.1752
21
0.897638
0
LINE
8
BLACK
6
CONTINUOUS
10
1.1752
20
0.897638
11
1.1752
21
0.964567
0
LINE
8
BLACK
6
CONTINUOUS
10
1.1752
20
0.964567
11
1.24213
21
0.964567
0
LINE
8
BLACK
6
CONTINUOUS
10
1.24213
20
0.964567
11
1.24213
21
0.897638
0
LINE
8
BLACK
6
CONTINUOUS
10
1.11794
20
0.942656
11
1.12113
21
0.940523
0
LINE
8
BLACK
6
CONTINUOUS
10
1.12113
20
0.940523
11
1.12327
21
0.93733
0
LINE
8
BLACK
6
CONTINUOUS
10
1.12327
20
0.93733
11
1.12402
21
0.933563
0
LINE
8
BLACK
6
CONTINUOUS
10
1.12402
20
0.933563
11
1.12402
21
0.912894
0
LINE
8
BLACK
6
CONTINUOUS
10
1.12402
20
0.912894
11
1.12327
21
0.909127
0
LINE
8
BLACK
6
CONTINUOUS
10
1.12327
20
0.909127
11
1.12113
21
0.905934
0
LINE
8
BLACK
6
CONTINUOUS
10
1.12113
20
0.905934
11
1.11794
21
0.9038
0
LINE
8
BLACK
6
CONTINUOUS
10
1.11794
20
0.9038
11
1.11417
21
0.903051
0
LINE
8
BLACK
6
CONTINUOUS
10
1.11417
20
0.903051
11
1.07874
21
0.903051
0
LINE
8
BLACK
6
CONTINUOUS
10
1.07874
20
0.903051
11
1.07497
21
0.9038
0
LINE
8
BLACK
6
CONTINUOUS
10
1.07497
20
0.9038
11
1.07178
21
0.905934
0
LINE
8
BLACK
6
CONTINUOUS
10
1.07178
20
0.905934
11
1.06965
21
0.909127
0
LINE
8
BLACK
6
CONTINUOUS
10
1.06965
20
0.909127
11
1.0689
21
0.912894
0
LINE
8
BLACK
6
CONTINUOUS
10
1.0689
20
0.912894
11
1.0689
21
0.933563
0
LINE
8
BLACK
6
CONTINUOUS
10
1.0689
20
0.933563
11
1.06965
21
0.93733
0
LINE
8
BLACK
6
CONTINUOUS
10
1.06965
20
0.93733
11
1.07178
21
0.940523
0
LINE
8
BLACK
6
CONTINUOUS
10
1.07178
20
0.940523
11
1.07497
21
0.942656
0
LINE
8
BLACK
6
CONTINUOUS
10
1.07497
20
0.942656
11
1.07874
21
0.943406
0
LINE
8
BLACK
6
CONTINUOUS
10
1.07874
20
0.943406
11
1.11417
21
0.943406
0
LINE
8
BLACK
6
CONTINUOUS
10
1.11417
20
0.943406
11
1.11794
21
0.942656
0
LINE
8
BLACK
6
CONTINUOUS
10
0.768819
20
0.90439
11
0.757008
21
0.90439
0
LINE
8
BLACK
6
CONTINUOUS
10
0.757008
20
0.90439
11
0.757008
21
0.923091
0
LINE
8
BLACK
6
CONTINUOUS
10
0.757008
20
0.923091
11
0.768819
21
0.923091
0
LINE
8
BLACK
6
CONTINUOUS
10
0.768819
20
0.923091
11
0.768819
21
0.90439
0
LINE
8
BLACK
6
CONTINUOUS
10
0.788504
20
0.90439
11
0.776693
21
0.90439
0
LINE
8
BLACK
6
CONTINUOUS
10
0.776693
20
0.90439
11
0.776693
21
0.923091
0
LINE
8
BLACK
6
CONTINUOUS
10
0.776693
20
0.923091
11
0.788504
21
0.923091
0
LINE
8
BLACK
6
CONTINUOUS
10
0.788504
20
0.923091
11
0.788504
21
0.90439
0
LINE
8
BLACK
6
CONTINUOUS
10
0.808189
20
0.90439
11
0.796378
21
0.90439
0
LINE
8
BLACK
6
CONTINUOUS
10
0.796378
20
0.90439
11
0.796378
21
0.923091
0
LINE
8
BLACK
6
CONTINUOUS
10
0.796378
20
0.923091
11
0.808189
21
0.923091
0
LINE
8
BLACK
6
CONTINUOUS
10
0.808189
20
0.923091
11
0.808189
21
0.90439
0
LINE
8
BLACK
6
CONTINUOUS
10
0.827874
20
0.90439
11
0.816063
21
0.90439
0
LINE
8
BLACK
6
CONTINUOUS
10
0.816063
20
0.90439
11
0.816063
21
0.923091
0
LINE
8
BLACK
6
CONTINUOUS
10
0.816063
20
0.923091
11
0.827874
21
0.923091
0
LINE
8
BLACK
6
CONTINUOUS
10
0.827874
20
0.923091
11
0.827874
21
0.90439
0
LINE
8
BLACK
6
CONTINUOUS
10
0.714908
20
0.952007
11
0.718101
21
0.949873
0
LINE
8
BLACK
6
CONTINUOUS
10
0.718101
20
0.949873
11
0.720235
21
0.94668
0
LINE
8
BLACK
6
CONTINUOUS
10
0.720235
20
0.94668
11
0.720984
21
0.942913
0
LINE
8
BLACK
6
CONTINUOUS
10
0.720984
20
0.942913
11
0.720984
21
0.923228
0
LINE
8
BLACK
6
CONTINUOUS
10
0.720984
20
0.923228
11
0.720235
21
0.919462
0
LINE
8
BLACK
6
CONTINUOUS
10
0.720235
20
0.919462
11
0.718101
21
0.916269
0
LINE
8
BLACK
6
CONTINUOUS
10
0.718101
20
0.916269
11
0.714908
21
0.914135
0
LINE
8
BLACK
6
CONTINUOUS
10
0.714908
20
0.914135
11
0.711142
21
0.913386
0
LINE
8
BLACK
6
CONTINUOUS
10
0.711142
20
0.913386
11
0.67374
21
0.913386
0
LINE
8
BLACK
6
CONTINUOUS
10
0.67374
20
0.913386
11
0.669974
21
0.914135
0
LINE
8
BLACK
6
CONTINUOUS
10
0.669974
20
0.914135
11
0.66678
21
0.916269
0
LINE
8
BLACK
6
CONTINUOUS
10
0.66678
20
0.916269
11
0.664647
21
0.919462
0
LINE
8
BLACK
6
CONTINUOUS
10
0.664647
20
0.919462
11
0.663898
21
0.923228
0
LINE
8
BLACK
6
CONTINUOUS
10
0.663898
20
0.923228
11
0.663898
21
0.942913
0
LINE
8
BLACK
6
CONTINUOUS
10
0.663898
20
0.942913
11
0.664647
21
0.94668
0
LINE
8
BLACK
6
CONTINUOUS
10
0.664647
20
0.94668
11
0.66678
21
0.949873
0
LINE
8
BLACK
6
CONTINUOUS
10
0.66678
20
0.949873
11
0.669974
21
0.952007
0
LINE
8
BLACK
6
CONTINUOUS
10
0.669974
20
0.952007
11
0.67374
21
0.952756
0
LINE
8
BLACK
6
CONTINUOUS
10
0.67374
20
0.952756
11
0.711142
21
0.952756
0
LINE
8
BLACK
6
CONTINUOUS
10
0.711142
20
0.952756
11
0.714908
21
0.952007
0
LINE
8
BLACK
6
CONTINUOUS
10
1.02345
20
0.95742
11
1.02664
21
0.955286
0
LINE
8
BLACK
6
CONTINUOUS
10
1.02664
20
0.955286
11
1.02878
21
0.952093
0
LINE
8
BLACK
6
CONTINUOUS
10
1.02878
20
0.952093
11
1.02953
21
0.948327
0
LINE
8
BLACK
6
CONTINUOUS
10
1.02953
20
0.948327
11
1.02953
21
0.927657
0
LINE
8
BLACK
6
CONTINUOUS
10
1.02953
20
0.927657
11
1.02878
21
0.923891
0
LINE
8
BLACK
6
CONTINUOUS
10
1.02878
20
0.923891
11
1.02664
21
0.920698
0
LINE
8
BLACK
6
CONTINUOUS
10
1.02664
20
0.920698
11
1.02345
21
0.918564
0
LINE
8
BLACK
6
CONTINUOUS
10
1.02345
20
0.918564
11
1.01969
21
0.917815
0
LINE
8
BLACK
6
CONTINUOUS
10
1.01969
20
0.917815
11
0.984252
21
0.917815
0
LINE
8
BLACK
6
CONTINUOUS
10
0.984252
20
0.917815
11
0.980485
21
0.918564
0
LINE
8
BLACK
6
CONTINUOUS
10
0.980485
20
0.918564
11
0.977292
21
0.920698
0
LINE
8
BLACK
6
CONTINUOUS
10
0.977292
20
0.920698
11
0.975159
21
0.923891
0
LINE
8
BLACK
6
CONTINUOUS
10
0.975159
20
0.923891
11
0.974409
21
0.927657
0
LINE
8
BLACK
6
CONTINUOUS
10
0.974409
20
0.927657
11
0.974409
21
0.948327
0
LINE
8
BLACK
6
CONTINUOUS
10
0.974409
20
0.948327
11
0.975159
21
0.952093
0
LINE
8
BLACK
6
CONTINUOUS
10
0.975159
20
0.952093
11
0.977292
21
0.955286
0
LINE
8
BLACK
6
CONTINUOUS
10
0.977292
20
0.955286
11
0.980485
21
0.95742
0
LINE
8
BLACK
6
CONTINUOUS
10
0.980485
20
0.95742
11
0.984252
21
0.958169
0
LINE
8
BLACK
6
CONTINUOUS
10
0.984252
20
0.958169
11
1.01969
21
0.958169
0
LINE
8
BLACK
6
CONTINUOUS
10
1.01969
20
0.958169
11
1.02345
21
0.95742
0
LINE
8
BLACK
6
CONTINUOUS
10
0.9142
20
0.956928
11
0.917393
21
0.954794
0
LINE
8
BLACK
6
CONTINUOUS
10
0.917393
20
0.954794
11
0.919526
21
0.951601
0
LINE
8
BLACK
6
CONTINUOUS
10
0.919526
20
0.951601
11
0.920276
21
0.947835
0
LINE
8
BLACK
6
CONTINUOUS
10
0.920276
20
0.947835
11
0.920276
21
0.92815
0
LINE
8
BLACK
6
CONTINUOUS
10
0.920276
20
0.92815
11
0.919526
21
0.924383
0
LINE
8
BLACK
6
CONTINUOUS
10
0.919526
20
0.924383
11
0.917393
21
0.92119
0
LINE
8
BLACK
6
CONTINUOUS
10
0.917393
20
0.92119
11
0.9142
21
0.919056
0
LINE
8
BLACK
6
CONTINUOUS
10
0.9142
20
0.919056
11
0.910433
21
0.918307
0
LINE
8
BLACK
6
CONTINUOUS
10
0.910433
20
0.918307
11
0.873031
21
0.918307
0
LINE
8
BLACK
6
CONTINUOUS
10
0.873031
20
0.918307
11
0.869265
21
0.919056
0
LINE
8
BLACK
6
CONTINUOUS
10
0.869265
20
0.919056
11
0.866072
21
0.92119
0
LINE
8
BLACK
6
CONTINUOUS
10
0.866072
20
0.92119
11
0.863938
21
0.924383
0
LINE
8
BLACK
6
CONTINUOUS
10
0.863938
20
0.924383
11
0.863189
21
0.92815
0
LINE
8
BLACK
6
CONTINUOUS
10
0.863189
20
0.92815
11
0.863189
21
0.947835
0
LINE
8
BLACK
6
CONTINUOUS
10
0.863189
20
0.947835
11
0.863938
21
0.951601
0
LINE
8
BLACK
6
CONTINUOUS
10
0.863938
20
0.951601
11
0.866072
21
0.954794
0
LINE
8
BLACK
6
CONTINUOUS
10
0.866072
20
0.954794
11
0.869265
21
0.956928
0
LINE
8
BLACK
6
CONTINUOUS
10
0.869265
20
0.956928
11
0.873031
21
0.957677
0
LINE
8
BLACK
6
CONTINUOUS
10
0.873031
20
0.957677
11
0.910433
21
0.957677
0
LINE
8
BLACK
6
CONTINUOUS
10
0.910433
20
0.957677
11
0.9142
21
0.956928
0
LINE
8
BLACK
6
CONTINUOUS
10
0.58792
20
1.06224
11
0.591113
21
1.06011
0
LINE
8
BLACK
6
CONTINUOUS
10
0.591113
20
1.06011
11
0.593247
21
1.05692
0
LINE
8
BLACK
6
CONTINUOUS
10
0.593247
20
1.05692
11
0.593996
21
1.05315
0
LINE
8
BLACK
6
CONTINUOUS
10
0.593996
20
1.05315
11
0.593996
21
1.01772
0
LINE
8
BLACK
6
CONTINUOUS
10
0.593996
20
1.01772
11
0.593247
21
1.01395
0
LINE
8
BLACK
6
CONTINUOUS
10
0.593247
20
1.01395
11
0.591113
21
1.01076
0
LINE
8
BLACK
6
CONTINUOUS
10
0.591113
20
1.01076
11
0.58792
21
1.00862
0
LINE
8
BLACK
6
CONTINUOUS
10
0.58792
20
1.00862
11
0.584154
21
1.00787
0
LINE
8
BLACK
6
CONTINUOUS
10
0.584154
20
1.00787
11
0.563484
21
1.00787
0
LINE
8
BLACK
6
CONTINUOUS
10
0.563484
20
1.00787
11
0.559718
21
1.00862
0
LINE
8
BLACK
6
CONTINUOUS
10
0.559718
20
1.00862
11
0.556525
21
1.01076
0
LINE
8
BLACK
6
CONTINUOUS
10
0.556525
20
1.01076
11
0.554391
21
1.01395
0
LINE
8
BLACK
6
CONTINUOUS
10
0.554391
20
1.01395
11
0.553642
21
1.01772
0
LINE
8
BLACK
6
CONTINUOUS
10
0.553642
20
1.01772
11
0.553642
21
1.05315
0
LINE
8
BLACK
6
CONTINUOUS
10
0.553642
20
1.05315
11
0.554391
21
1.05692
0
LINE
8
BLACK
6
CONTINUOUS
10
0.554391
20
1.05692
11
0.556525
21
1.06011
0
LINE
8
BLACK
6
CONTINUOUS
10
0.556525
20
1.06011
11
0.559718
21
1.06224
0
LINE
8
BLACK
6
CONTINUOUS
10
0.559718
20
1.06224
11
0.563484
21
1.06299
0
LINE
8
BLACK
6
CONTINUOUS
10
0.563484
20
1.06299
11
0.584154
21
1.06299
0
LINE
8
BLACK
6
CONTINUOUS
10
0.584154
20
1.06299
11
0.58792
21
1.06224
0
LINE
8
BLACK
6
CONTINUOUS
10
0.659771
20
1.06224
11
0.662964
21
1.06011
0
LINE
8
BLACK
6
CONTINUOUS
10
0.662964
20
1.06011
11
0.665097
21
1.05692
0
LINE
8
BLACK
6
CONTINUOUS
10
0.665097
20
1.05692
11
0.665846
21
1.05315
0
LINE
8
BLACK
6
CONTINUOUS
10
0.665846
20
1.05315
11
0.665846
21
1.01772
0
LINE
8
BLACK
6
CONTINUOUS
10
0.665846
20
1.01772
11
0.665097
21
1.01395
0
LINE
8
BLACK
6
CONTINUOUS
10
0.665097
20
1.01395
11
0.662964
21
1.01076
0
LINE
8
BLACK
6
CONTINUOUS
10
0.662964
20
1.01076
11
0.659771
21
1.00862
0
LINE
8
BLACK
6
CONTINUOUS
10
0.659771
20
1.00862
11
0.656004
21
1.00787
0
LINE
8
BLACK
6
CONTINUOUS
10
0.656004
20
1.00787
11
0.635335
21
1.00787
0
LINE
8
BLACK
6
CONTINUOUS
10
0.635335
20
1.00787
11
0.631568
21
1.00862
0
LINE
8
BLACK
6
CONTINUOUS
10
0.631568
20
1.00862
11
0.628375
21
1.01076
0
LINE
8
BLACK
6
CONTINUOUS
10
0.628375
20
1.01076
11
0.626241
21
1.01395
0
LINE
8
BLACK
6
CONTINUOUS
10
0.626241
20
1.01395
11
0.625492
21
1.01772
0
LINE
8
BLACK
6
CONTINUOUS
10
0.625492
20
1.01772
11
0.625492
21
1.05315
0
LINE
8
BLACK
6
CONTINUOUS
10
0.625492
20
1.05315
11
0.626241
21
1.05692
0
LINE
8
BLACK
6
CONTINUOUS
10
0.626241
20
1.05692
11
0.628375
21
1.06011
0
LINE
8
BLACK
6
CONTINUOUS
10
0.628375
20
1.06011
11
0.631568
21
1.06224
0
LINE
8
BLACK
6
CONTINUOUS
10
0.631568
20
1.06224
11
0.635335
21
1.06299
0
LINE
8
BLACK
6
CONTINUOUS
10
0.635335
20
1.06299
11
0.656004
21
1.06299
0
LINE
8
BLACK
6
CONTINUOUS
10
0.656004
20
1.06299
11
0.659771
21
1.06224
0
LINE
8
BLACK
6
CONTINUOUS
10
0.725715
20
1.06224
11
0.728909
21
1.06011
0
LINE
8
BLACK
6
CONTINUOUS
10
0.728909
20
1.06011
11
0.731042
21
1.05692
0
LINE
8
BLACK
6
CONTINUOUS
10
0.731042
20
1.05692
11
0.731791
21
1.05315
0
LINE
8
BLACK
6
CONTINUOUS
10
0.731791
20
1.05315
11
0.731791
21
1.01772
0
LINE
8
BLACK
6
CONTINUOUS
10
0.731791
20
1.01772
11
0.731042
21
1.01395
0
LINE
8
BLACK
6
CONTINUOUS
10
0.731042
20
1.01395
11
0.728909
21
1.01076
0
LINE
8
BLACK
6
CONTINUOUS
10
0.728909
20
1.01076
11
0.725715
21
1.00862
0
LINE
8
BLACK
6
CONTINUOUS
10
0.725715
20
1.00862
11
0.721949
21
1.00787
0
LINE
8
BLACK
6
CONTINUOUS
10
0.721949
20
1.00787
11
0.70128
21
1.00787
0
LINE
8
BLACK
6
CONTINUOUS
10
0.70128
20
1.00787
11
0.697513
21
1.00862
0
LINE
8
BLACK
6
CONTINUOUS
10
0.697513
20
1.00862
11
0.69432
21
1.01076
0
LINE
8
BLACK
6
CONTINUOUS
10
0.69432
20
1.01076
11
0.692186
21
1.01395
0
LINE
8
BLACK
6
CONTINUOUS
10
0.692186
20
1.01395
11
0.691437
21
1.01772
0
LINE
8
BLACK
6
CONTINUOUS
10
0.691437
20
1.01772
11
0.691437
21
1.05315
0
LINE
8
BLACK
6
CONTINUOUS
10
0.691437
20
1.05315
11
0.692186
21
1.05692
0
LINE
8
BLACK
6
CONTINUOUS
10
0.692186
20
1.05692
11
0.69432
21
1.06011
0
LINE
8
BLACK
6
CONTINUOUS
10
0.69432
20
1.06011
11
0.697513
21
1.06224
0
LINE
8
BLACK
6
CONTINUOUS
10
0.697513
20
1.06224
11
0.70128
21
1.06299
0
LINE
8
BLACK
6
CONTINUOUS
10
0.70128
20
1.06299
11
0.721949
21
1.06299
0
LINE
8
BLACK
6
CONTINUOUS
10
0.721949
20
1.06299
11
0.725715
21
1.06224
0
LINE
8
BLACK
6
CONTINUOUS
10
0.797566
20
1.06224
11
0.800759
21
1.06011
0
LINE
8
BLACK
6
CONTINUOUS
10
0.800759
20
1.06011
11
0.802893
21
1.05692
0
LINE
8
BLACK
6
CONTINUOUS
10
0.802893
20
1.05692
11
0.803642
21
1.05315
0
LINE
8
BLACK
6
CONTINUOUS
10
0.803642
20
1.05315
11
0.803642
21
1.01772
0
LINE
8
BLACK
6
CONTINUOUS
10
0.803642
20
1.01772
11
0.802893
21
1.01395
0
LINE
8
BLACK
6
CONTINUOUS
10
0.802893
20
1.01395
11
0.800759
21
1.01076
0
LINE
8
BLACK
6
CONTINUOUS
10
0.800759
20
1.01076
11
0.797566
21
1.00862
0
LINE
8
BLACK
6
CONTINUOUS
10
0.797566
20
1.00862
11
0.793799
21
1.00787
0
LINE
8
BLACK
6
CONTINUOUS
10
0.793799
20
1.00787
11
0.77313
21
1.00787
0
LINE
8
BLACK
6
CONTINUOUS
10
0.77313
20
1.00787
11
0.769363
21
1.00862
0
LINE
8
BLACK
6
CONTINUOUS
10
0.769363
20
1.00862
11
0.76617
21
1.01076
0
LINE
8
BLACK
6
CONTINUOUS
10
0.76617
20
1.01076
11
0.764037
21
1.01395
0
LINE
8
BLACK
6
CONTINUOUS
10
0.764037
20
1.01395
11
0.763287
21
1.01772
0
LINE
8
BLACK
6
CONTINUOUS
10
0.763287
20
1.01772
11
0.763287
21
1.05315
0
LINE
8
BLACK
6
CONTINUOUS
10
0.763287
20
1.05315
11
0.764037
21
1.05692
0
LINE
8
BLACK
6
CONTINUOUS
10
0.764037
20
1.05692
11
0.76617
21
1.06011
0
LINE
8
BLACK
6
CONTINUOUS
10
0.76617
20
1.06011
11
0.769363
21
1.06224
0
LINE
8
BLACK
6
CONTINUOUS
10
0.769363
20
1.06224
11
0.77313
21
1.06299
0
LINE
8
BLACK
6
CONTINUOUS
10
0.77313
20
1.06299
11
0.793799
21
1.06299
0
LINE
8
BLACK
6
CONTINUOUS
10
0.793799
20
1.06299
11
0.797566
21
1.06224
0
LINE
8
BLACK
6
CONTINUOUS
10
0.42051
20
1.31632
11
0.433874
21
1.31315
0
LINE
8
BLACK
6
CONTINUOUS
10
0.433874
20
1.31315
11
0.446781
21
1.30845
0
LINE
8
BLACK
6
CONTINUOUS
10
0.446781
20
1.30845
11
0.459055
21
1.30229
0
LINE
8
BLACK
6
CONTINUOUS
10
0.459055
20
1.30229
11
0.470531
21
1.29474
0
LINE
8
BLACK
6
CONTINUOUS
10
0.470531
20
1.29474
11
0.481052
21
1.28591
0
LINE
8
BLACK
6
CONTINUOUS
10
0.481052
20
1.28591
11
0.490478
21
1.27592
0
LINE
8
BLACK
6
CONTINUOUS
10
0.490478
20
1.27592
11
0.49868
21
1.2649
0
LINE
8
BLACK
6
CONTINUOUS
10
0.49868
20
1.2649
11
0.505547
21
1.25301
0
LINE
8
BLACK
6
CONTINUOUS
10
0.505547
20
1.25301
11
0.510987
21
1.2404
0
LINE
8
BLACK
6
CONTINUOUS
10
0.510987
20
1.2404
11
0.514927
21
1.22724
0
LINE
8
BLACK
6
CONTINUOUS
10
0.514927
20
1.22724
11
0.517312
21
1.21371
0
LINE
8
BLACK
6
CONTINUOUS
10
0.517312
20
1.21371
11
0.51811
21
1.2
0
LINE
8
BLACK
6
CONTINUOUS
10
0.51811
20
1.2
11
0.517312
21
1.18629
0
LINE
8
BLACK
6
CONTINUOUS
10
0.517312
20
1.18629
11
0.514927
21
1.17276
0
LINE
8
BLACK
6
CONTINUOUS
10
0.514927
20
1.17276
11
0.510987
21
1.1596
0
LINE
8
BLACK
6
CONTINUOUS
10
0.510987
20
1.1596
11
0.505547
21
1.14699
0
LINE
8
BLACK
6
CONTINUOUS
10
0.505547
20
1.14699
11
0.49868
21
1.1351
0
LINE
8
BLACK
6
CONTINUOUS
10
0.49868
20
1.1351
11
0.490478
21
1.12408
0
LINE
8
BLACK
6
CONTINUOUS
10
0.490478
20
1.12408
11
0.481052
21
1.11409
0
LINE
8
BLACK
6
CONTINUOUS
10
0.481052
20
1.11409
11
0.470531
21
1.10526
0
LINE
8
BLACK
6
CONTINUOUS
10
0.470531
20
1.10526
11
0.459055
21
1.09771
0
LINE
8
BLACK
6
CONTINUOUS
10
0.459055
20
1.09771
11
0.446781
21
1.09155
0
LINE
8
BLACK
6
CONTINUOUS
10
0.446781
20
1.09155
11
0.433874
21
1.08685
0
LINE
8
BLACK
6
CONTINUOUS
10
0.433874
20
1.08685
11
0.42051
21
1.08368
0
LINE
8
BLACK
6
CONTINUOUS
10
0.42051
20
1.08368
11
0.406868
21
1.08209
0
LINE
8
BLACK
6
CONTINUOUS
10
0.406868
20
1.08209
11
0.393133
21
1.08209
0
LINE
8
BLACK
6
CONTINUOUS
10
0.393133
20
1.08209
11
0.37949
21
1.08368
0
LINE
8
BLACK
6
CONTINUOUS
10
0.37949
20
1.08368
11
0.366126
21
1.08685
0
LINE
8
BLACK
6
CONTINUOUS
10
0.366126
20
1.08685
11
0.353219
21
1.09155
0
LINE
8
BLACK
6
CONTINUOUS
10
0.353219
20
1.09155
11
0.340945
21
1.09771
0
LINE
8
BLACK
6
CONTINUOUS
10
0.340945
20
1.09771
11
0.329469
21
1.10526
0
LINE
8
BLACK
6
CONTINUOUS
10
0.329469
20
1.10526
11
0.318948
21
1.11409
0
LINE
8
BLACK
6
CONTINUOUS
10
0.318948
20
1.11409
11
0.309522
21
1.12408
0
LINE
8
BLACK
6
CONTINUOUS
10
0.309522
20
1.12408
11
0.30132
21
1.1351
0
LINE
8
BLACK
6
CONTINUOUS
10
0.30132
20
1.1351
11
0.294453
21
1.14699
0
LINE
8
BLACK
6
CONTINUOUS
10
0.294453
20
1.14699
11
0.289013
21
1.1596
0
LINE
8
BLACK
6
CONTINUOUS
10
0.289013
20
1.1596
11
0.285073
21
1.17276
0
LINE
8
BLACK
6
CONTINUOUS
10
0.285073
20
1.17276
11
0.282688
21
1.18629
0
LINE
8
BLACK
6
CONTINUOUS
10
0.282688
20
1.18629
11
0.28189
21
1.2
0
LINE
8
BLACK
6
CONTINUOUS
10
0.28189
20
1.2
11
0.282688
21
1.21371
0
LINE
8
BLACK
6
CONTINUOUS
10
0.282688
20
1.21371
11
0.285073
21
1.22724
0
LINE
8
BLACK
6
CONTINUOUS
10
0.285073
20
1.22724
11
0.289013
21
1.2404
0
LINE
8
BLACK
6
CONTINUOUS
10
0.289013
20
1.2404
11
0.294453
21
1.25301
0
LINE
8
BLACK
6
CONTINUOUS
10
0.294453
20
1.25301
11
0.30132
21
1.2649
0
LINE
8
BLACK
6
CONTINUOUS
10
0.30132
20
1.2649
11
0.309522
21
1.27592
0
LINE
8
BLACK
6
CONTINUOUS
10
0.309522
20
1.27592
11
0.318948
21
1.28591
0
LINE
8
BLACK
6
CONTINUOUS
10
0.318948
20
1.28591
11
0.329469
21
1.29474
0
LINE
8
BLACK
6
CONTINUOUS
10
0.329469
20
1.29474
11
0.340945
21
1.30229
0
LINE
8
BLACK
6
CONTINUOUS
10
0.340945
20
1.30229
11
0.353219
21
1.30845
0
LINE
8
BLACK
6
CONTINUOUS
10
0.353219
20
1.30845
11
0.366126
21
1.31315
0
LINE
8
BLACK
6
CONTINUOUS
10
0.366126
20
1.31315
11
0.37949
21
1.31632
0
LINE
8
BLACK
6
CONTINUOUS
10
0.37949
20
1.31632
11
0.393133
21
1.31791
0
LINE
8
BLACK
6
CONTINUOUS
10
0.393133
20
1.31791
11
0.406868
21
1.31791
0
LINE
8
BLACK
6
CONTINUOUS
10
0.406868
20
1.31791
11
0.42051
21
1.31632
0
LINE
8
BLACK
6
CONTINUOUS
10
1.22051
20
1.31632
11
1.23387
21
1.31315
0
LINE
8
BLACK
6
CONTINUOUS
10
1.23387
20
1.31315
11
1.24678
21
1.30845
0
LINE
8
BLACK
6
CONTINUOUS
10
1.24678
20
1.30845
11
1.25906
21
1.30229
0
LINE
8
BLACK
6
CONTINUOUS
10
1.25906
20
1.30229
11
1.27053
21
1.29474
0
LINE
8
BLACK
6
CONTINUOUS
10
1.27053
20
1.29474
11
1.28105
21
1.28591
0
LINE
8
BLACK
6
CONTINUOUS
10
1.28105
20
1.28591
11
1.29048
21
1.27592
0
LINE
8
BLACK
6
CONTINUOUS
10
1.29048
20
1.27592
11
1.29868
21
1.2649
0
LINE
8
BLACK
6
CONTINUOUS
10
1.29868
20
1.2649
11
1.30555
21
1.25301
0
LINE
8
BLACK
6
CONTINUOUS
10
1.30555
20
1.25301
11
1.31099
21
1.2404
0
LINE
8
BLACK
6
CONTINUOUS
10
1.31099
20
1.2404
11
1.31493
21
1.22724
0
LINE
8
BLACK
6
CONTINUOUS
10
1.31493
20
1.22724
11
1.31731
21
1.21371
0
LINE
8
BLACK
6
CONTINUOUS
10
1.31731
20
1.21371
11
1.31811
21
1.2
0
LINE
8
BLACK
6
CONTINUOUS
10
1.31811
20
1.2
11
1.31731
21
1.18629
0
LINE
8
BLACK
6
CONTINUOUS
10
1.31731
20
1.18629
11
1.31493
21
1.17276
0
LINE
8
BLACK
6
CONTINUOUS
10
1.31493
20
1.17276
11
1.31099
21
1.1596
0
LINE
8
BLACK
6
CONTINUOUS
10
1.31099
20
1.1596
11
1.30555
21
1.14699
0
LINE
8
BLACK
6
CONTINUOUS
10
1.30555
20
1.14699
11
1.29868
21
1.1351
0
LINE
8
BLACK
6
CONTINUOUS
10
1.29868
20
1.1351
11
1.29048
21
1.12408
0
LINE
8
BLACK
6
CONTINUOUS
10
1.29048
20
1.12408
11
1.28105
21
1.11409
0
LINE
8
BLACK
6
CONTINUOUS
10
1.28105
20
1.11409
11
1.27053
21
1.10526
0
LINE
8
BLACK
6
CONTINUOUS
10
1.27053
20
1.10526
11
1.25906
21
1.09771
0
LINE
8
BLACK
6
CONTINUOUS
10
1.25906
20
1.09771
11
1.24678
21
1.09155
0
LINE
8
BLACK
6
CONTINUOUS
10
1.24678
20
1.09155
11
1.23387
21
1.08685
0
LINE
8
BLACK
6
CONTINUOUS
10
1.23387
20
1.08685
11
1.22051
21
1.08368
0
LINE
8
BLACK
6
CONTINUOUS
10
1.22051
20
1.08368
11
1.20687
21
1.08209
0
LINE
8
BLACK
6
CONTINUOUS
10
1.20687
20
1.08209
11
1.19313
21
1.08209
0
LINE
8
BLACK
6
CONTINUOUS
10
1.19313
20
1.08209
11
1.17949
21
1.08368
0
LINE
8
BLACK
6
CONTINUOUS
10
1.17949
20
1.08368
11
1.16613
21
1.08685
0
LINE
8
BLACK
6
CONTINUOUS
10
1.16613
20
1.08685
11
1.15322
21
1.09155
0
LINE
8
BLACK
6
CONTINUOUS
10
1.15322
20
1.09155
11
1.14094
21
1.09771
0
LINE
8
BLACK
6
CONTINUOUS
10
1.14094
20
1.09771
11
1.12947
21
1.10526
0
LINE
8
BLACK
6
CONTINUOUS
10
1.12947
20
1.10526
11
1.11895
21
1.11409
0
LINE
8
BLACK
6
CONTINUOUS
10
1.11895
20
1.11409
11
1.10952
21
1.12408
0
LINE
8
BLACK
6
CONTINUOUS
10
1.10952
20
1.12408
11
1.10132
21
1.1351
0
LINE
8
BLACK
6
CONTINUOUS
10
1.10132
20
1.1351
11
1.09445
21
1.14699
0
LINE
8
BLACK
6
CONTINUOUS
10
1.09445
20
1.14699
11
1.08901
21
1.1596
0
LINE
8
BLACK
6
CONTINUOUS
10
1.08901
20
1.1596
11
1.08507
21
1.17276
0
LINE
8
BLACK
6
CONTINUOUS
10
1.08507
20
1.17276
11
1.08269
21
1.18629
0
LINE
8
BLACK
6
CONTINUOUS
10
1.08269
20
1.18629
11
1.08189
21
1.2
0
LINE
8
BLACK
6
CONTINUOUS
10
1.08189
20
1.2
11
1.08269
21
1.21371
0
LINE
8
BLACK
6
CONTINUOUS
10
1.08269
20
1.21371
11
1.08507
21
1.22724
0
LINE
8
BLACK
6
CONTINUOUS
10
1.08507
20
1.22724
11
1.08901
21
1.2404
0
LINE
8
BLACK
6
CONTINUOUS
10
1.08901
20
1.2404
11
1.09445
21
1.25301
0
LINE
8
BLACK
6
CONTINUOUS
10
1.09445
20
1.25301
11
1.10132
21
1.2649
0
LINE
8
BLACK
6
CONTINUOUS
10
1.10132
20
1.2649
11
1.10952
21
1.27592
0
LINE
8
BLACK
6
CONTINUOUS
10
1.10952
20
1.27592
11
1.11895
21
1.28591
0
LINE
8
BLACK
6
CONTINUOUS
10
1.11895
20
1.28591
11
1.12947
21
1.29474
0
LINE
8
BLACK
6
CONTINUOUS
10
1.12947
20
1.29474
11
1.14094
21
1.30229
0
LINE
8
BLACK
6
CONTINUOUS
10
1.14094
20
1.30229
11
1.15322
21
1.30845
0
LINE
8
BLACK
6
CONTINUOUS
10
1.15322
20
1.30845
11
1.16613
21
1.31315
0
LINE
8
BLACK
6
CONTINUOUS
10
1.16613
20
1.31315
11
1.17949
21
1.31632
0
LINE
8
BLACK
6
CONTINUOUS
10
1.17949
20
1.31632
11
1.19313
21
1.31791
0
LINE
8
BLACK
6
CONTINUOUS
10
1.19313
20
1.31791
11
1.20687
21
1.31791
0
LINE
8
BLACK
6
CONTINUOUS
10
1.20687
20
1.31791
11
1.22051
21
1.31632
0
LINE
8
BLACK
6
CONTINUOUS
10
0.891247
20
1.18832
11
0.897638
21
1.18548
0
LINE
8
BLACK
6
CONTINUOUS
10
0.897638
20
1.18548
11
0.903298
21
1.18137
0
LINE
8
BLACK
6
CONTINUOUS
10
0.903298
20
1.18137
11
0.907979
21
1.17617
0
LINE
8
BLACK
6
CONTINUOUS
10
0.907979
20
1.17617
11
0.911477
21
1.17011
0
LINE
8
BLACK
6
CONTINUOUS
10
0.911477
20
1.17011
11
0.913639
21
1.16345
0
LINE
8
BLACK
6
CONTINUOUS
10
0.913639
20
1.16345
11
0.91437
21
1.1565
0
LINE
8
BLACK
6
CONTINUOUS
10
0.91437
20
1.1565
11
0.913639
21
1.14954
0
LINE
8
BLACK
6
CONTINUOUS
10
0.913639
20
1.14954
11
0.911477
21
1.14288
0
LINE
8
BLACK
6
CONTINUOUS
10
0.911477
20
1.14288
11
0.907979
21
1.13683
0
LINE
8
BLACK
6
CONTINUOUS
10
0.907979
20
1.13683
11
0.903298
21
1.13163
0
LINE
8
BLACK
6
CONTINUOUS
10
0.903298
20
1.13163
11
0.897638
21
1.12751
0
LINE
8
BLACK
6
CONTINUOUS
10
0.897638
20
1.12751
11
0.891247
21
1.12467
0
LINE
8
BLACK
6
CONTINUOUS
10
0.891247
20
1.12467
11
0.884404
21
1.12321
0
LINE
8
BLACK
6
CONTINUOUS
10
0.884404
20
1.12321
11
0.877408
21
1.12321
0
LINE
8
BLACK
6
CONTINUOUS
10
0.877408
20
1.12321
11
0.870564
21
1.12467
0
LINE
8
BLACK
6
CONTINUOUS
10
0.870564
20
1.12467
11
0.864173
21
1.12751
0
LINE
8
BLACK
6
CONTINUOUS
10
0.864173
20
1.12751
11
0.858513
21
1.13163
0
LINE
8
BLACK
6
CONTINUOUS
10
0.858513
20
1.13163
11
0.853832
21
1.13683
0
LINE
8
BLACK
6
CONTINUOUS
10
0.853832
20
1.13683
11
0.850334
21
1.14288
0
LINE
8
BLACK
6
CONTINUOUS
10
0.850334
20
1.14288
11
0.848172
21
1.14954
0
LINE
8
BLACK
6
CONTINUOUS
10
0.848172
20
1.14954
11
0.847441
21
1.1565
0
LINE
8
BLACK
6
CONTINUOUS
10
0.847441
20
1.1565
11
0.848172
21
1.16345
0
LINE
8
BLACK
6
CONTINUOUS
10
0.848172
20
1.16345
11
0.850334
21
1.17011
0
LINE
8
BLACK
6
CONTINUOUS
10
0.850334
20
1.17011
11
0.853832
21
1.17617
0
LINE
8
BLACK
6
CONTINUOUS
10
0.853832
20
1.17617
11
0.858513
21
1.18137
0
LINE
8
BLACK
6
CONTINUOUS
10
0.858513
20
1.18137
11
0.864173
21
1.18548
0
LINE
8
BLACK
6
CONTINUOUS
10
0.864173
20
1.18548
11
0.870564
21
1.18832
0
LINE
8
BLACK
6
CONTINUOUS
10
0.870564
20
1.18832
11
0.877408
21
1.18978
0
LINE
8
BLACK
6
CONTINUOUS
10
0.877408
20
1.18978
11
0.884404
21
1.18978
0
LINE
8
BLACK
6
CONTINUOUS
10
0.884404
20
1.18978
11
0.891247
21
1.18832
0
LINE
8
BLACK
6
CONTINUOUS
10
0.736719
20
1.18872
11
0.74311
21
1.18587
0
LINE
8
BLACK
6
CONTINUOUS
10
0.74311
20
1.18587
11
0.74877
21
1.18176
0
LINE
8
BLACK
6
CONTINUOUS
10
0.74877
20
1.18176
11
0.753451
21
1.17656
0
LINE
8
BLACK
6
CONTINUOUS
10
0.753451
20
1.17656
11
0.756949
21
1.1705
0
LINE
8
BLACK
6
CONTINUOUS
10
0.756949
20
1.1705
11
0.759111
21
1.16385
0
LINE
8
BLACK
6
CONTINUOUS
10
0.759111
20
1.16385
11
0.759843
21
1.15689
0
LINE
8
BLACK
6
CONTINUOUS
10
0.759843
20
1.15689
11
0.759111
21
1.14993
0
LINE
8
BLACK
6
CONTINUOUS
10
0.759111
20
1.14993
11
0.756949
21
1.14328
0
LINE
8
BLACK
6
CONTINUOUS
10
0.756949
20
1.14328
11
0.753451
21
1.13722
0
LINE
8
BLACK
6
CONTINUOUS
10
0.753451
20
1.13722
11
0.74877
21
1.13202
0
LINE
8
BLACK
6
CONTINUOUS
10
0.74877
20
1.13202
11
0.74311
21
1.12791
0
LINE
8
BLACK
6
CONTINUOUS
10
0.74311
20
1.12791
11
0.736719
21
1.12506
0
LINE
8
BLACK
6
CONTINUOUS
10
0.736719
20
1.12506
11
0.729876
21
1.12361
0
LINE
8
BLACK
6
CONTINUOUS
10
0.729876
20
1.12361
11
0.72288
21
1.12361
0
LINE
8
BLACK
6
CONTINUOUS
10
0.72288
20
1.12361
11
0.716037
21
1.12506
0
LINE
8
BLACK
6
CONTINUOUS
10
0.716037
20
1.12506
11
0.709646
21
1.12791
0
LINE
8
BLACK
6
CONTINUOUS
10
0.709646
20
1.12791
11
0.703986
21
1.13202
0
LINE
8
BLACK
6
CONTINUOUS
10
0.703986
20
1.13202
11
0.699305
21
1.13722
0
LINE
8
BLACK
6
CONTINUOUS
10
0.699305
20
1.13722
11
0.695807
21
1.14328
0
LINE
8
BLACK
6
CONTINUOUS
10
0.695807
20
1.14328
11
0.693645
21
1.14993
0
LINE
8
BLACK
6
CONTINUOUS
10
0.693645
20
1.14993
11
0.692913
21
1.15689
0
LINE
8
BLACK
6
CONTINUOUS
10
0.692913
20
1.15689
11
0.693645
21
1.16385
0
LINE
8
BLACK
6
CONTINUOUS
10
0.693645
20
1.16385
11
0.695807
21
1.1705
0
LINE
8
BLACK
6
CONTINUOUS
10
0.695807
20
1.1705
11
0.699305
21
1.17656
0
LINE
8
BLACK
6
CONTINUOUS
10
0.699305
20
1.17656
11
0.703986
21
1.18176
0
LINE
8
BLACK
6
CONTINUOUS
10
0.703986
20
1.18176
11
0.709646
21
1.18587
0
LINE
8
BLACK
6
CONTINUOUS
10
0.709646
20
1.18587
11
0.716037
21
1.18872
0
LINE
8
BLACK
6
CONTINUOUS
10
0.716037
20
1.18872
11
0.72288
21
1.19017
0
LINE
8
BLACK
6
CONTINUOUS
10
0.72288
20
1.19017
11
0.729876
21
1.19017
0
LINE
8
BLACK
6
CONTINUOUS
10
0.729876
20
1.19017
11
0.736719
21
1.18872
0
LINE
8
BLACK
6
CONTINUOUS
10
0.91437
20
1.22303
11
0.847441
21
1.22303
0
LINE
8
BLACK
6
CONTINUOUS
10
0.847441
20
1.22303
11
0.847441
21
1.28996
0
LINE
8
BLACK
6
CONTINUOUS
10
0.847441
20
1.28996
11
0.91437
21
1.28996
0
LINE
8
BLACK
6
CONTINUOUS
10
0.91437
20
1.28996
11
0.91437
21
1.22303
0
LINE
8
BLACK
6
CONTINUOUS
10
0.759843
20
1.22343
11
0.692913
21
1.22343
0
LINE
8
BLACK
6
CONTINUOUS
10
0.692913
20
1.22343
11
0.692913
21
1.29035
0
LINE
8
BLACK
6
CONTINUOUS
10
0.692913
20
1.29035
11
0.759843
21
1.29035
0
LINE
8
BLACK
6
CONTINUOUS
10
0.759843
20
1.29035
11
0.759843
21
1.22343
  0
ENDSEC
  0
EOF
