  0
SECTION
  2
HEADER
  9
$ANGBASE
  50
0.0
  9
$ANGDIR
  70
1
  9
$MEASUREMENT
  70
0
  0
ENDSEC
  0
SECTION
  2
TABLES
  0
TABLE
  2
LTYPE
  70
4
  0
LTYPE
  5
40F
  2
CONTINUOUS
  70
0
  3
Solid line
  72
65
  73
0
  40
0.0
  0
LTYPE
  5
410
  2
DASHDOT
 70
0
  3
Dash Dot ____ _ ____ _
 72
65
 73
4
 40
2.0
 49
1.25
 49
-0.25
 49
0.25
 49
-0.25
  0
LTYPE
  5
411
  2
DASHED
 70
0
  3
Dashed __ __ __ __ __
 72
65
 73
2
 40
0.75
 49
0.5
 49
-0.25
  0
LTYPE
  5
43B
  2
DOTTED
 70
0
  3
Dotted .  .  .  .
 72
65
 73
2
 40
0.2
 49
0.0
 49
-0.2
  0
ENDTAB
  0
TABLE
  2
STYLE
  70
4
  0
STYLE
  2
KICAD
  70
0
  40
0
  41
1
  42
1
  50
0
  71
0
  3
isocp.shx
  0
STYLE
  2
KICADB
  70
0
  40
0
  41
1
  42
1
  50
0
  71
0
  3
isocp.shx
  0
STYLE
  2
KICADI
  70
0
  40
0
  41
1
  42
1
  50
15
  71
0
  3
isocp.shx
  0
STYLE
  2
KICADBI
  70
0
  40
0
  41
1
  42
1
  50
15
  71
0
  3
isocp.shx
  0
ENDTAB
  0
TABLE
  2
LAYER
  70
1
  0
LAYER
  2
BLACK
  70
0
  62
7
  6
CONTINUOUS
  0
ENDTAB
  0
ENDSEC
  0
SECTION
  2
ENTITIES
0
LINE
8
BLACK
6
CONTINUOUS
10
4.82081
20
-2.8223
11
4.82292
21
-2.82047
0
LINE
8
BLACK
6
CONTINUOUS
10
4.82292
20
-2.82047
11
4.82498
21
-2.82002
0
LINE
8
BLACK
6
CONTINUOUS
10
4.82498
20
-2.82002
11
6.37502
21
-2.82002
0
LINE
8
BLACK
6
CONTINUOUS
10
6.37502
20
-2.82002
11
6.3777
21
-2.82081
0
LINE
8
BLACK
6
CONTINUOUS
10
6.3777
20
-2.82081
11
6.37953
21
-2.82292
0
LINE
8
BLACK
6
CONTINUOUS
10
6.37953
20
-2.82292
11
6.37998
21
-2.82498
0
LINE
8
BLACK
6
CONTINUOUS
10
6.37998
20
-2.82498
11
6.37998
21
-3.97502
0
LINE
8
BLACK
6
CONTINUOUS
10
6.37998
20
-3.97502
11
6.37919
21
-3.9777
0
LINE
8
BLACK
6
CONTINUOUS
10
6.37919
20
-3.9777
11
6.37708
21
-3.97953
0
LINE
8
BLACK
6
CONTINUOUS
10
6.37708
20
-3.97953
11
6.37502
21
-3.97998
0
LINE
8
BLACK
6
CONTINUOUS
10
6.37502
20
-3.97998
11
4.82498
21
-3.97998
0
LINE
8
BLACK
6
CONTINUOUS
10
4.82498
20
-3.97998
11
4.8223
21
-3.97919
0
LINE
8
BLACK
6
CONTINUOUS
10
4.8223
20
-3.97919
11
4.82047
21
-3.97708
0
LINE
8
BLACK
6
CONTINUOUS
10
4.82047
20
-3.97708
11
4.82002
21
-3.97502
0
LINE
8
BLACK
6
CONTINUOUS
10
4.82002
20
-3.97502
11
4.82002
21
-2.82498
0
LINE
8
BLACK
6
CONTINUOUS
10
4.82002
20
-2.82498
11
4.82081
21
-2.8223
0
LINE
8
BLACK
6
CONTINUOUS
10
5.06023
20
-3.54993
11
5.06053
21
-3.55
0
LINE
8
BLACK
6
CONTINUOUS
10
5.06053
20
-3.55
11
5.08176
21
-3.55
0
LINE
8
BLACK
6
CONTINUOUS
10
5.08176
20
-3.55
11
5.08203
21
-3.54999
0
LINE
8
BLACK
6
CONTINUOUS
10
5.08203
20
-3.54999
11
5.08403
21
-3.54977
0
LINE
8
BLACK
6
CONTINUOUS
10
5.08403
20
-3.54977
11
5.08463
21
-3.54963
0
LINE
8
BLACK
6
CONTINUOUS
10
5.08463
20
-3.54963
11
5.08937
21
-3.54785
0
LINE
8
BLACK
6
CONTINUOUS
10
5.08937
20
-3.54785
11
5.08999
21
-3.54751
0
LINE
8
BLACK
6
CONTINUOUS
10
5.08999
20
-3.54751
11
5.094
21
-3.5445
0
LINE
8
BLACK
6
CONTINUOUS
10
5.094
20
-3.5445
11
5.0945
21
-3.544
0
LINE
8
BLACK
6
CONTINUOUS
10
5.0945
20
-3.544
11
5.09751
21
-3.53999
0
LINE
8
BLACK
6
CONTINUOUS
10
5.09751
20
-3.53999
11
5.09785
21
-3.53937
0
LINE
8
BLACK
6
CONTINUOUS
10
5.09785
20
-3.53937
11
5.09963
21
-3.53463
0
LINE
8
BLACK
6
CONTINUOUS
10
5.09963
20
-3.53463
11
5.09977
21
-3.53403
0
LINE
8
BLACK
6
CONTINUOUS
10
5.09977
20
-3.53403
11
5.09999
21
-3.53203
0
LINE
8
BLACK
6
CONTINUOUS
10
5.09999
20
-3.53203
11
5.1
21
-3.53176
0
LINE
8
BLACK
6
CONTINUOUS
10
5.1
20
-3.53176
11
5.1
21
-3.51071
0
LINE
8
BLACK
6
CONTINUOUS
10
5.1
20
-3.51071
11
5.09982
21
-3.51011
0
LINE
8
BLACK
6
CONTINUOUS
10
5.09982
20
-3.51011
11
5.09977
21
-3.51007
0
LINE
8
BLACK
6
CONTINUOUS
10
5.09977
20
-3.51007
11
5.09947
21
-3.51
0
LINE
8
BLACK
6
CONTINUOUS
10
5.09947
20
-3.51
11
5.08
21
-3.51
0
LINE
8
BLACK
6
CONTINUOUS
10
5.08
20
-3.51
11
5.08
21
-3.53
0
LINE
8
BLACK
6
CONTINUOUS
10
5.08
20
-3.53
11
5.06
21
-3.53
0
LINE
8
BLACK
6
CONTINUOUS
10
5.06
20
-3.53
11
5.06
21
-3.54929
0
LINE
8
BLACK
6
CONTINUOUS
10
5.06
20
-3.54929
11
5.06018
21
-3.54989
0
LINE
8
BLACK
6
CONTINUOUS
10
5.06018
20
-3.54989
11
5.06023
21
-3.54993
0
LINE
8
BLACK
6
CONTINUOUS
10
5.71023
20
-3.89993
11
5.71053
21
-3.9
0
LINE
8
BLACK
6
CONTINUOUS
10
5.71053
20
-3.9
11
5.73176
21
-3.9
0
LINE
8
BLACK
6
CONTINUOUS
10
5.73176
20
-3.9
11
5.73203
21
-3.89999
0
LINE
8
BLACK
6
CONTINUOUS
10
5.73203
20
-3.89999
11
5.73403
21
-3.89977
0
LINE
8
BLACK
6
CONTINUOUS
10
5.73403
20
-3.89977
11
5.73463
21
-3.89963
0
LINE
8
BLACK
6
CONTINUOUS
10
5.73463
20
-3.89963
11
5.73937
21
-3.89785
0
LINE
8
BLACK
6
CONTINUOUS
10
5.73937
20
-3.89785
11
5.73999
21
-3.89751
0
LINE
8
BLACK
6
CONTINUOUS
10
5.73999
20
-3.89751
11
5.744
21
-3.8945
0
LINE
8
BLACK
6
CONTINUOUS
10
5.744
20
-3.8945
11
5.7445
21
-3.894
0
LINE
8
BLACK
6
CONTINUOUS
10
5.7445
20
-3.894
11
5.74751
21
-3.88999
0
LINE
8
BLACK
6
CONTINUOUS
10
5.74751
20
-3.88999
11
5.74785
21
-3.88937
0
LINE
8
BLACK
6
CONTINUOUS
10
5.74785
20
-3.88937
11
5.74963
21
-3.88463
0
LINE
8
BLACK
6
CONTINUOUS
10
5.74963
20
-3.88463
11
5.74977
21
-3.88403
0
LINE
8
BLACK
6
CONTINUOUS
10
5.74977
20
-3.88403
11
5.74999
21
-3.88203
0
LINE
8
BLACK
6
CONTINUOUS
10
5.74999
20
-3.88203
11
5.75
21
-3.88176
0
LINE
8
BLACK
6
CONTINUOUS
10
5.75
20
-3.88176
11
5.75
21
-3.86071
0
LINE
8
BLACK
6
CONTINUOUS
10
5.75
20
-3.86071
11
5.74982
21
-3.86011
0
LINE
8
BLACK
6
CONTINUOUS
10
5.74982
20
-3.86011
11
5.74977
21
-3.86007
0
LINE
8
BLACK
6
CONTINUOUS
10
5.74977
20
-3.86007
11
5.74947
21
-3.86
0
LINE
8
BLACK
6
CONTINUOUS
10
5.74947
20
-3.86
11
5.73
21
-3.86
0
LINE
8
BLACK
6
CONTINUOUS
10
5.73
20
-3.86
11
5.73
21
-3.88
0
LINE
8
BLACK
6
CONTINUOUS
10
5.73
20
-3.88
11
5.71
21
-3.88
0
LINE
8
BLACK
6
CONTINUOUS
10
5.71
20
-3.88
11
5.71
21
-3.89929
0
LINE
8
BLACK
6
CONTINUOUS
10
5.71
20
-3.89929
11
5.71018
21
-3.89989
0
LINE
8
BLACK
6
CONTINUOUS
10
5.71018
20
-3.89989
11
5.71023
21
-3.89993
0
LINE
8
BLACK
6
CONTINUOUS
10
5.91023
20
-3.89993
11
5.91053
21
-3.9
0
LINE
8
BLACK
6
CONTINUOUS
10
5.91053
20
-3.9
11
5.93176
21
-3.9
0
LINE
8
BLACK
6
CONTINUOUS
10
5.93176
20
-3.9
11
5.93203
21
-3.89999
0
LINE
8
BLACK
6
CONTINUOUS
10
5.93203
20
-3.89999
11
5.93403
21
-3.89977
0
LINE
8
BLACK
6
CONTINUOUS
10
5.93403
20
-3.89977
11
5.93463
21
-3.89963
0
LINE
8
BLACK
6
CONTINUOUS
10
5.93463
20
-3.89963
11
5.93937
21
-3.89785
0
LINE
8
BLACK
6
CONTINUOUS
10
5.93937
20
-3.89785
11
5.93999
21
-3.89751
0
LINE
8
BLACK
6
CONTINUOUS
10
5.93999
20
-3.89751
11
5.944
21
-3.8945
0
LINE
8
BLACK
6
CONTINUOUS
10
5.944
20
-3.8945
11
5.9445
21
-3.894
0
LINE
8
BLACK
6
CONTINUOUS
10
5.9445
20
-3.894
11
5.94751
21
-3.88999
0
LINE
8
BLACK
6
CONTINUOUS
10
5.94751
20
-3.88999
11
5.94785
21
-3.88937
0
LINE
8
BLACK
6
CONTINUOUS
10
5.94785
20
-3.88937
11
5.94963
21
-3.88463
0
LINE
8
BLACK
6
CONTINUOUS
10
5.94963
20
-3.88463
11
5.94977
21
-3.88403
0
LINE
8
BLACK
6
CONTINUOUS
10
5.94977
20
-3.88403
11
5.94999
21
-3.88203
0
LINE
8
BLACK
6
CONTINUOUS
10
5.94999
20
-3.88203
11
5.95
21
-3.88176
0
LINE
8
BLACK
6
CONTINUOUS
10
5.95
20
-3.88176
11
5.95
21
-3.86071
0
LINE
8
BLACK
6
CONTINUOUS
10
5.95
20
-3.86071
11
5.94982
21
-3.86011
0
LINE
8
BLACK
6
CONTINUOUS
10
5.94982
20
-3.86011
11
5.94977
21
-3.86007
0
LINE
8
BLACK
6
CONTINUOUS
10
5.94977
20
-3.86007
11
5.94947
21
-3.86
0
LINE
8
BLACK
6
CONTINUOUS
10
5.94947
20
-3.86
11
5.93
21
-3.86
0
LINE
8
BLACK
6
CONTINUOUS
10
5.93
20
-3.86
11
5.93
21
-3.88
0
LINE
8
BLACK
6
CONTINUOUS
10
5.93
20
-3.88
11
5.91
21
-3.88
0
LINE
8
BLACK
6
CONTINUOUS
10
5.91
20
-3.88
11
5.91
21
-3.89929
0
LINE
8
BLACK
6
CONTINUOUS
10
5.91
20
-3.89929
11
5.91018
21
-3.89989
0
LINE
8
BLACK
6
CONTINUOUS
10
5.91018
20
-3.89989
11
5.91023
21
-3.89993
0
LINE
8
BLACK
6
CONTINUOUS
10
5.65023
20
-3.83993
11
5.65053
21
-3.84
0
LINE
8
BLACK
6
CONTINUOUS
10
5.65053
20
-3.84
11
5.67
21
-3.84
0
LINE
8
BLACK
6
CONTINUOUS
10
5.67
20
-3.84
11
5.67
21
-3.82
0
LINE
8
BLACK
6
CONTINUOUS
10
5.67
20
-3.82
11
5.69
21
-3.82
0
LINE
8
BLACK
6
CONTINUOUS
10
5.69
20
-3.82
11
5.69
21
-3.78
0
LINE
8
BLACK
6
CONTINUOUS
10
5.69
20
-3.78
11
5.67
21
-3.78
0
LINE
8
BLACK
6
CONTINUOUS
10
5.67
20
-3.78
11
5.67
21
-3.76
0
LINE
8
BLACK
6
CONTINUOUS
10
5.67
20
-3.76
11
5.65071
21
-3.76
0
LINE
8
BLACK
6
CONTINUOUS
10
5.65071
20
-3.76
11
5.65011
21
-3.76018
0
LINE
8
BLACK
6
CONTINUOUS
10
5.65011
20
-3.76018
11
5.65007
21
-3.76023
0
LINE
8
BLACK
6
CONTINUOUS
10
5.65007
20
-3.76023
11
5.65
21
-3.76053
0
LINE
8
BLACK
6
CONTINUOUS
10
5.65
20
-3.76053
11
5.65
21
-3.78176
0
LINE
8
BLACK
6
CONTINUOUS
10
5.65
20
-3.78176
11
5.65001
21
-3.78203
0
LINE
8
BLACK
6
CONTINUOUS
10
5.65001
20
-3.78203
11
5.65023
21
-3.78403
0
LINE
8
BLACK
6
CONTINUOUS
10
5.65023
20
-3.78403
11
5.65037
21
-3.78463
0
LINE
8
BLACK
6
CONTINUOUS
10
5.65037
20
-3.78463
11
5.65215
21
-3.78937
0
LINE
8
BLACK
6
CONTINUOUS
10
5.65215
20
-3.78937
11
5.65249
21
-3.78999
0
LINE
8
BLACK
6
CONTINUOUS
10
5.65249
20
-3.78999
11
5.6555
21
-3.794
0
LINE
8
BLACK
6
CONTINUOUS
10
5.6555
20
-3.794
11
5.656
21
-3.7945
0
LINE
8
BLACK
6
CONTINUOUS
10
5.656
20
-3.7945
11
5.65804
21
-3.79603
0
LINE
8
BLACK
6
CONTINUOUS
10
5.65804
20
-3.79603
11
5.65971
21
-3.79827
0
LINE
8
BLACK
6
CONTINUOUS
10
5.65971
20
-3.79827
11
5.65991
21
-3.80106
0
LINE
8
BLACK
6
CONTINUOUS
10
5.65991
20
-3.80106
11
5.65857
21
-3.80351
0
LINE
8
BLACK
6
CONTINUOUS
10
5.65857
20
-3.80351
11
5.65804
21
-3.80397
0
LINE
8
BLACK
6
CONTINUOUS
10
5.65804
20
-3.80397
11
5.656
21
-3.8055
0
LINE
8
BLACK
6
CONTINUOUS
10
5.656
20
-3.8055
11
5.6555
21
-3.806
0
LINE
8
BLACK
6
CONTINUOUS
10
5.6555
20
-3.806
11
5.65249
21
-3.81001
0
LINE
8
BLACK
6
CONTINUOUS
10
5.65249
20
-3.81001
11
5.65215
21
-3.81063
0
LINE
8
BLACK
6
CONTINUOUS
10
5.65215
20
-3.81063
11
5.65037
21
-3.81537
0
LINE
8
BLACK
6
CONTINUOUS
10
5.65037
20
-3.81537
11
5.65023
21
-3.81597
0
LINE
8
BLACK
6
CONTINUOUS
10
5.65023
20
-3.81597
11
5.65001
21
-3.81797
0
LINE
8
BLACK
6
CONTINUOUS
10
5.65001
20
-3.81797
11
5.65
21
-3.81824
0
LINE
8
BLACK
6
CONTINUOUS
10
5.65
20
-3.81824
11
5.65
21
-3.83929
0
LINE
8
BLACK
6
CONTINUOUS
10
5.65
20
-3.83929
11
5.65018
21
-3.83989
0
LINE
8
BLACK
6
CONTINUOUS
10
5.65018
20
-3.83989
11
5.65023
21
-3.83993
0
LINE
8
BLACK
6
CONTINUOUS
10
5.93
20
-3.76
11
5.93
21
-3.78
0
LINE
8
BLACK
6
CONTINUOUS
10
5.93
20
-3.78
11
5.91
21
-3.78
0
LINE
8
BLACK
6
CONTINUOUS
10
5.91
20
-3.78
11
5.91
21
-3.82
0
LINE
8
BLACK
6
CONTINUOUS
10
5.91
20
-3.82
11
5.93
21
-3.82
0
LINE
8
BLACK
6
CONTINUOUS
10
5.93
20
-3.82
11
5.93
21
-3.84
0
LINE
8
BLACK
6
CONTINUOUS
10
5.93
20
-3.84
11
5.94929
21
-3.84
0
LINE
8
BLACK
6
CONTINUOUS
10
5.94929
20
-3.84
11
5.94989
21
-3.83982
0
LINE
8
BLACK
6
CONTINUOUS
10
5.94989
20
-3.83982
11
5.94993
21
-3.83977
0
LINE
8
BLACK
6
CONTINUOUS
10
5.94993
20
-3.83977
11
5.95
21
-3.83947
0
LINE
8
BLACK
6
CONTINUOUS
10
5.95
20
-3.83947
11
5.95
21
-3.81824
0
LINE
8
BLACK
6
CONTINUOUS
10
5.95
20
-3.81824
11
5.94999
21
-3.81797
0
LINE
8
BLACK
6
CONTINUOUS
10
5.94999
20
-3.81797
11
5.94977
21
-3.81597
0
LINE
8
BLACK
6
CONTINUOUS
10
5.94977
20
-3.81597
11
5.94963
21
-3.81537
0
LINE
8
BLACK
6
CONTINUOUS
10
5.94963
20
-3.81537
11
5.94785
21
-3.81063
0
LINE
8
BLACK
6
CONTINUOUS
10
5.94785
20
-3.81063
11
5.94751
21
-3.81001
0
LINE
8
BLACK
6
CONTINUOUS
10
5.94751
20
-3.81001
11
5.9445
21
-3.806
0
LINE
8
BLACK
6
CONTINUOUS
10
5.9445
20
-3.806
11
5.944
21
-3.8055
0
LINE
8
BLACK
6
CONTINUOUS
10
5.944
20
-3.8055
11
5.94196
21
-3.80397
0
LINE
8
BLACK
6
CONTINUOUS
10
5.94196
20
-3.80397
11
5.94029
21
-3.80173
0
LINE
8
BLACK
6
CONTINUOUS
10
5.94029
20
-3.80173
11
5.94009
21
-3.79894
0
LINE
8
BLACK
6
CONTINUOUS
10
5.94009
20
-3.79894
11
5.94143
21
-3.79649
0
LINE
8
BLACK
6
CONTINUOUS
10
5.94143
20
-3.79649
11
5.94196
21
-3.79603
0
LINE
8
BLACK
6
CONTINUOUS
10
5.94196
20
-3.79603
11
5.944
21
-3.7945
0
LINE
8
BLACK
6
CONTINUOUS
10
5.944
20
-3.7945
11
5.9445
21
-3.794
0
LINE
8
BLACK
6
CONTINUOUS
10
5.9445
20
-3.794
11
5.94751
21
-3.78999
0
LINE
8
BLACK
6
CONTINUOUS
10
5.94751
20
-3.78999
11
5.94785
21
-3.78937
0
LINE
8
BLACK
6
CONTINUOUS
10
5.94785
20
-3.78937
11
5.94963
21
-3.78463
0
LINE
8
BLACK
6
CONTINUOUS
10
5.94963
20
-3.78463
11
5.94977
21
-3.78403
0
LINE
8
BLACK
6
CONTINUOUS
10
5.94977
20
-3.78403
11
5.94999
21
-3.78203
0
LINE
8
BLACK
6
CONTINUOUS
10
5.94999
20
-3.78203
11
5.95
21
-3.78176
0
LINE
8
BLACK
6
CONTINUOUS
10
5.95
20
-3.78176
11
5.95
21
-3.76071
0
LINE
8
BLACK
6
CONTINUOUS
10
5.95
20
-3.76071
11
5.94982
21
-3.76011
0
LINE
8
BLACK
6
CONTINUOUS
10
5.94982
20
-3.76011
11
5.94977
21
-3.76007
0
LINE
8
BLACK
6
CONTINUOUS
10
5.94977
20
-3.76007
11
5.94947
21
-3.76
0
LINE
8
BLACK
6
CONTINUOUS
10
5.94947
20
-3.76
11
5.93
21
-3.76
0
LINE
8
BLACK
6
CONTINUOUS
10
5.85023
20
-3.73993
11
5.85053
21
-3.74
0
LINE
8
BLACK
6
CONTINUOUS
10
5.85053
20
-3.74
11
5.87
21
-3.74
0
LINE
8
BLACK
6
CONTINUOUS
10
5.87
20
-3.74
11
5.87
21
-3.72
0
LINE
8
BLACK
6
CONTINUOUS
10
5.87
20
-3.72
11
5.89
21
-3.72
0
LINE
8
BLACK
6
CONTINUOUS
10
5.89
20
-3.72
11
5.89
21
-3.70071
0
LINE
8
BLACK
6
CONTINUOUS
10
5.89
20
-3.70071
11
5.88982
21
-3.70011
0
LINE
8
BLACK
6
CONTINUOUS
10
5.88982
20
-3.70011
11
5.88977
21
-3.70007
0
LINE
8
BLACK
6
CONTINUOUS
10
5.88977
20
-3.70007
11
5.88947
21
-3.7
0
LINE
8
BLACK
6
CONTINUOUS
10
5.88947
20
-3.7
11
5.86824
21
-3.7
0
LINE
8
BLACK
6
CONTINUOUS
10
5.86824
20
-3.7
11
5.86797
21
-3.70001
0
LINE
8
BLACK
6
CONTINUOUS
10
5.86797
20
-3.70001
11
5.86597
21
-3.70023
0
LINE
8
BLACK
6
CONTINUOUS
10
5.86597
20
-3.70023
11
5.86537
21
-3.70037
0
LINE
8
BLACK
6
CONTINUOUS
10
5.86537
20
-3.70037
11
5.86063
21
-3.70215
0
LINE
8
BLACK
6
CONTINUOUS
10
5.86063
20
-3.70215
11
5.86001
21
-3.70249
0
LINE
8
BLACK
6
CONTINUOUS
10
5.86001
20
-3.70249
11
5.856
21
-3.7055
0
LINE
8
BLACK
6
CONTINUOUS
10
5.856
20
-3.7055
11
5.8555
21
-3.706
0
LINE
8
BLACK
6
CONTINUOUS
10
5.8555
20
-3.706
11
5.85249
21
-3.71001
0
LINE
8
BLACK
6
CONTINUOUS
10
5.85249
20
-3.71001
11
5.85215
21
-3.71063
0
LINE
8
BLACK
6
CONTINUOUS
10
5.85215
20
-3.71063
11
5.85037
21
-3.71537
0
LINE
8
BLACK
6
CONTINUOUS
10
5.85037
20
-3.71537
11
5.85023
21
-3.71597
0
LINE
8
BLACK
6
CONTINUOUS
10
5.85023
20
-3.71597
11
5.85001
21
-3.71797
0
LINE
8
BLACK
6
CONTINUOUS
10
5.85001
20
-3.71797
11
5.85
21
-3.71824
0
LINE
8
BLACK
6
CONTINUOUS
10
5.85
20
-3.71824
11
5.85
21
-3.73929
0
LINE
8
BLACK
6
CONTINUOUS
10
5.85
20
-3.73929
11
5.85018
21
-3.73989
0
LINE
8
BLACK
6
CONTINUOUS
10
5.85018
20
-3.73989
11
5.85023
21
-3.73993
0
LINE
8
BLACK
6
CONTINUOUS
10
5.51071
20
-3.75
11
5.51011
21
-3.75018
0
LINE
8
BLACK
6
CONTINUOUS
10
5.51011
20
-3.75018
11
5.51007
21
-3.75023
0
LINE
8
BLACK
6
CONTINUOUS
10
5.51007
20
-3.75023
11
5.51
21
-3.75053
0
LINE
8
BLACK
6
CONTINUOUS
10
5.51
20
-3.75053
11
5.51
21
-3.77
0
LINE
8
BLACK
6
CONTINUOUS
10
5.51
20
-3.77
11
5.53
21
-3.77
0
LINE
8
BLACK
6
CONTINUOUS
10
5.53
20
-3.77
11
5.53
21
-3.79
0
LINE
8
BLACK
6
CONTINUOUS
10
5.53
20
-3.79
11
5.54929
21
-3.79
0
LINE
8
BLACK
6
CONTINUOUS
10
5.54929
20
-3.79
11
5.54989
21
-3.78982
0
LINE
8
BLACK
6
CONTINUOUS
10
5.54989
20
-3.78982
11
5.54993
21
-3.78977
0
LINE
8
BLACK
6
CONTINUOUS
10
5.54993
20
-3.78977
11
5.55
21
-3.78947
0
LINE
8
BLACK
6
CONTINUOUS
10
5.55
20
-3.78947
11
5.55
21
-3.76824
0
LINE
8
BLACK
6
CONTINUOUS
10
5.55
20
-3.76824
11
5.54999
21
-3.76797
0
LINE
8
BLACK
6
CONTINUOUS
10
5.54999
20
-3.76797
11
5.54977
21
-3.76597
0
LINE
8
BLACK
6
CONTINUOUS
10
5.54977
20
-3.76597
11
5.54963
21
-3.76537
0
LINE
8
BLACK
6
CONTINUOUS
10
5.54963
20
-3.76537
11
5.54785
21
-3.76063
0
LINE
8
BLACK
6
CONTINUOUS
10
5.54785
20
-3.76063
11
5.54751
21
-3.76001
0
LINE
8
BLACK
6
CONTINUOUS
10
5.54751
20
-3.76001
11
5.5445
21
-3.756
0
LINE
8
BLACK
6
CONTINUOUS
10
5.5445
20
-3.756
11
5.544
21
-3.7555
0
LINE
8
BLACK
6
CONTINUOUS
10
5.544
20
-3.7555
11
5.53999
21
-3.75249
0
LINE
8
BLACK
6
CONTINUOUS
10
5.53999
20
-3.75249
11
5.53937
21
-3.75215
0
LINE
8
BLACK
6
CONTINUOUS
10
5.53937
20
-3.75215
11
5.53463
21
-3.75037
0
LINE
8
BLACK
6
CONTINUOUS
10
5.53463
20
-3.75037
11
5.53403
21
-3.75023
0
LINE
8
BLACK
6
CONTINUOUS
10
5.53403
20
-3.75023
11
5.53203
21
-3.75001
0
LINE
8
BLACK
6
CONTINUOUS
10
5.53203
20
-3.75001
11
5.53176
21
-3.75
0
LINE
8
BLACK
6
CONTINUOUS
10
5.53176
20
-3.75
11
5.51071
21
-3.75
0
LINE
8
BLACK
6
CONTINUOUS
10
5.91071
20
-3.7
11
5.91011
21
-3.70018
0
LINE
8
BLACK
6
CONTINUOUS
10
5.91011
20
-3.70018
11
5.91007
21
-3.70023
0
LINE
8
BLACK
6
CONTINUOUS
10
5.91007
20
-3.70023
11
5.91
21
-3.70053
0
LINE
8
BLACK
6
CONTINUOUS
10
5.91
20
-3.70053
11
5.91
21
-3.72
0
LINE
8
BLACK
6
CONTINUOUS
10
5.91
20
-3.72
11
5.93
21
-3.72
0
LINE
8
BLACK
6
CONTINUOUS
10
5.93
20
-3.72
11
5.93
21
-3.74
0
LINE
8
BLACK
6
CONTINUOUS
10
5.93
20
-3.74
11
5.94929
21
-3.74
0
LINE
8
BLACK
6
CONTINUOUS
10
5.94929
20
-3.74
11
5.94989
21
-3.73982
0
LINE
8
BLACK
6
CONTINUOUS
10
5.94989
20
-3.73982
11
5.94993
21
-3.73977
0
LINE
8
BLACK
6
CONTINUOUS
10
5.94993
20
-3.73977
11
5.95
21
-3.73947
0
LINE
8
BLACK
6
CONTINUOUS
10
5.95
20
-3.73947
11
5.95
21
-3.71824
0
LINE
8
BLACK
6
CONTINUOUS
10
5.95
20
-3.71824
11
5.94999
21
-3.71797
0
LINE
8
BLACK
6
CONTINUOUS
10
5.94999
20
-3.71797
11
5.94977
21
-3.71597
0
LINE
8
BLACK
6
CONTINUOUS
10
5.94977
20
-3.71597
11
5.94963
21
-3.71537
0
LINE
8
BLACK
6
CONTINUOUS
10
5.94963
20
-3.71537
11
5.94785
21
-3.71063
0
LINE
8
BLACK
6
CONTINUOUS
10
5.94785
20
-3.71063
11
5.94751
21
-3.71001
0
LINE
8
BLACK
6
CONTINUOUS
10
5.94751
20
-3.71001
11
5.9445
21
-3.706
0
LINE
8
BLACK
6
CONTINUOUS
10
5.9445
20
-3.706
11
5.944
21
-3.7055
0
LINE
8
BLACK
6
CONTINUOUS
10
5.944
20
-3.7055
11
5.93999
21
-3.70249
0
LINE
8
BLACK
6
CONTINUOUS
10
5.93999
20
-3.70249
11
5.93937
21
-3.70215
0
LINE
8
BLACK
6
CONTINUOUS
10
5.93937
20
-3.70215
11
5.93463
21
-3.70037
0
LINE
8
BLACK
6
CONTINUOUS
10
5.93463
20
-3.70037
11
5.93403
21
-3.70023
0
LINE
8
BLACK
6
CONTINUOUS
10
5.93403
20
-3.70023
11
5.93203
21
-3.70001
0
LINE
8
BLACK
6
CONTINUOUS
10
5.93203
20
-3.70001
11
5.93176
21
-3.7
0
LINE
8
BLACK
6
CONTINUOUS
10
5.93176
20
-3.7
11
5.91071
21
-3.7
0
LINE
8
BLACK
6
CONTINUOUS
10
4.96071
20
-3.45
11
4.96011
21
-3.45018
0
LINE
8
BLACK
6
CONTINUOUS
10
4.96011
20
-3.45018
11
4.96007
21
-3.45023
0
LINE
8
BLACK
6
CONTINUOUS
10
4.96007
20
-3.45023
11
4.96
21
-3.45053
0
LINE
8
BLACK
6
CONTINUOUS
10
4.96
20
-3.45053
11
4.96
21
-3.47
0
LINE
8
BLACK
6
CONTINUOUS
10
4.96
20
-3.47
11
4.98
21
-3.47
0
LINE
8
BLACK
6
CONTINUOUS
10
4.98
20
-3.47
11
4.98
21
-3.49
0
LINE
8
BLACK
6
CONTINUOUS
10
4.98
20
-3.49
11
5.02
21
-3.49
0
LINE
8
BLACK
6
CONTINUOUS
10
5.02
20
-3.49
11
5.02
21
-3.47
0
LINE
8
BLACK
6
CONTINUOUS
10
5.02
20
-3.47
11
5.04
21
-3.47
0
LINE
8
BLACK
6
CONTINUOUS
10
5.04
20
-3.47
11
5.04
21
-3.45071
0
LINE
8
BLACK
6
CONTINUOUS
10
5.04
20
-3.45071
11
5.03982
21
-3.45011
0
LINE
8
BLACK
6
CONTINUOUS
10
5.03982
20
-3.45011
11
5.03977
21
-3.45007
0
LINE
8
BLACK
6
CONTINUOUS
10
5.03977
20
-3.45007
11
5.03947
21
-3.45
0
LINE
8
BLACK
6
CONTINUOUS
10
5.03947
20
-3.45
11
5.01824
21
-3.45
0
LINE
8
BLACK
6
CONTINUOUS
10
5.01824
20
-3.45
11
5.01797
21
-3.45001
0
LINE
8
BLACK
6
CONTINUOUS
10
5.01797
20
-3.45001
11
5.01597
21
-3.45023
0
LINE
8
BLACK
6
CONTINUOUS
10
5.01597
20
-3.45023
11
5.01537
21
-3.45037
0
LINE
8
BLACK
6
CONTINUOUS
10
5.01537
20
-3.45037
11
5.01063
21
-3.45215
0
LINE
8
BLACK
6
CONTINUOUS
10
5.01063
20
-3.45215
11
5.01001
21
-3.45249
0
LINE
8
BLACK
6
CONTINUOUS
10
5.01001
20
-3.45249
11
5.006
21
-3.4555
0
LINE
8
BLACK
6
CONTINUOUS
10
5.006
20
-3.4555
11
5.0055
21
-3.456
0
LINE
8
BLACK
6
CONTINUOUS
10
5.0055
20
-3.456
11
5.00397
21
-3.45804
0
LINE
8
BLACK
6
CONTINUOUS
10
5.00397
20
-3.45804
11
5.00173
21
-3.45971
0
LINE
8
BLACK
6
CONTINUOUS
10
5.00173
20
-3.45971
11
4.99894
21
-3.45991
0
LINE
8
BLACK
6
CONTINUOUS
10
4.99894
20
-3.45991
11
4.99649
21
-3.45857
0
LINE
8
BLACK
6
CONTINUOUS
10
4.99649
20
-3.45857
11
4.99603
21
-3.45804
0
LINE
8
BLACK
6
CONTINUOUS
10
4.99603
20
-3.45804
11
4.9945
21
-3.456
0
LINE
8
BLACK
6
CONTINUOUS
10
4.9945
20
-3.456
11
4.994
21
-3.4555
0
LINE
8
BLACK
6
CONTINUOUS
10
4.994
20
-3.4555
11
4.98999
21
-3.45249
0
LINE
8
BLACK
6
CONTINUOUS
10
4.98999
20
-3.45249
11
4.98937
21
-3.45215
0
LINE
8
BLACK
6
CONTINUOUS
10
4.98937
20
-3.45215
11
4.98463
21
-3.45037
0
LINE
8
BLACK
6
CONTINUOUS
10
4.98463
20
-3.45037
11
4.98403
21
-3.45023
0
LINE
8
BLACK
6
CONTINUOUS
10
4.98403
20
-3.45023
11
4.98203
21
-3.45001
0
LINE
8
BLACK
6
CONTINUOUS
10
4.98203
20
-3.45001
11
4.98176
21
-3.45
0
LINE
8
BLACK
6
CONTINUOUS
10
4.98176
20
-3.45
11
4.96071
21
-3.45
0
LINE
8
BLACK
6
CONTINUOUS
10
6.16071
20
-3.45
11
6.16011
21
-3.45018
0
LINE
8
BLACK
6
CONTINUOUS
10
6.16011
20
-3.45018
11
6.16007
21
-3.45023
0
LINE
8
BLACK
6
CONTINUOUS
10
6.16007
20
-3.45023
11
6.16
21
-3.45053
0
LINE
8
BLACK
6
CONTINUOUS
10
6.16
20
-3.45053
11
6.16
21
-3.47
0
LINE
8
BLACK
6
CONTINUOUS
10
6.16
20
-3.47
11
6.18
21
-3.47
0
LINE
8
BLACK
6
CONTINUOUS
10
6.18
20
-3.47
11
6.18
21
-3.49
0
LINE
8
BLACK
6
CONTINUOUS
10
6.18
20
-3.49
11
6.22
21
-3.49
0
LINE
8
BLACK
6
CONTINUOUS
10
6.22
20
-3.49
11
6.22
21
-3.47
0
LINE
8
BLACK
6
CONTINUOUS
10
6.22
20
-3.47
11
6.24
21
-3.47
0
LINE
8
BLACK
6
CONTINUOUS
10
6.24
20
-3.47
11
6.24
21
-3.45071
0
LINE
8
BLACK
6
CONTINUOUS
10
6.24
20
-3.45071
11
6.23982
21
-3.45011
0
LINE
8
BLACK
6
CONTINUOUS
10
6.23982
20
-3.45011
11
6.23977
21
-3.45007
0
LINE
8
BLACK
6
CONTINUOUS
10
6.23977
20
-3.45007
11
6.23947
21
-3.45
0
LINE
8
BLACK
6
CONTINUOUS
10
6.23947
20
-3.45
11
6.21824
21
-3.45
0
LINE
8
BLACK
6
CONTINUOUS
10
6.21824
20
-3.45
11
6.21797
21
-3.45001
0
LINE
8
BLACK
6
CONTINUOUS
10
6.21797
20
-3.45001
11
6.21597
21
-3.45023
0
LINE
8
BLACK
6
CONTINUOUS
10
6.21597
20
-3.45023
11
6.21537
21
-3.45037
0
LINE
8
BLACK
6
CONTINUOUS
10
6.21537
20
-3.45037
11
6.21063
21
-3.45215
0
LINE
8
BLACK
6
CONTINUOUS
10
6.21063
20
-3.45215
11
6.21001
21
-3.45249
0
LINE
8
BLACK
6
CONTINUOUS
10
6.21001
20
-3.45249
11
6.206
21
-3.4555
0
LINE
8
BLACK
6
CONTINUOUS
10
6.206
20
-3.4555
11
6.2055
21
-3.456
0
LINE
8
BLACK
6
CONTINUOUS
10
6.2055
20
-3.456
11
6.20397
21
-3.45804
0
LINE
8
BLACK
6
CONTINUOUS
10
6.20397
20
-3.45804
11
6.20173
21
-3.45971
0
LINE
8
BLACK
6
CONTINUOUS
10
6.20173
20
-3.45971
11
6.19894
21
-3.45991
0
LINE
8
BLACK
6
CONTINUOUS
10
6.19894
20
-3.45991
11
6.19649
21
-3.45857
0
LINE
8
BLACK
6
CONTINUOUS
10
6.19649
20
-3.45857
11
6.19603
21
-3.45804
0
LINE
8
BLACK
6
CONTINUOUS
10
6.19603
20
-3.45804
11
6.1945
21
-3.456
0
LINE
8
BLACK
6
CONTINUOUS
10
6.1945
20
-3.456
11
6.194
21
-3.4555
0
LINE
8
BLACK
6
CONTINUOUS
10
6.194
20
-3.4555
11
6.18999
21
-3.45249
0
LINE
8
BLACK
6
CONTINUOUS
10
6.18999
20
-3.45249
11
6.18937
21
-3.45215
0
LINE
8
BLACK
6
CONTINUOUS
10
6.18937
20
-3.45215
11
6.18463
21
-3.45037
0
LINE
8
BLACK
6
CONTINUOUS
10
6.18463
20
-3.45037
11
6.18403
21
-3.45023
0
LINE
8
BLACK
6
CONTINUOUS
10
6.18403
20
-3.45023
11
6.18203
21
-3.45001
0
LINE
8
BLACK
6
CONTINUOUS
10
6.18203
20
-3.45001
11
6.18176
21
-3.45
0
LINE
8
BLACK
6
CONTINUOUS
10
6.18176
20
-3.45
11
6.16071
21
-3.45
0
LINE
8
BLACK
6
CONTINUOUS
10
6.26071
20
-3.45
11
6.26011
21
-3.45018
0
LINE
8
BLACK
6
CONTINUOUS
10
6.26011
20
-3.45018
11
6.26007
21
-3.45023
0
LINE
8
BLACK
6
CONTINUOUS
10
6.26007
20
-3.45023
11
6.26
21
-3.45053
0
LINE
8
BLACK
6
CONTINUOUS
10
6.26
20
-3.45053
11
6.26
21
-3.47
0
LINE
8
BLACK
6
CONTINUOUS
10
6.26
20
-3.47
11
6.28
21
-3.47
0
LINE
8
BLACK
6
CONTINUOUS
10
6.28
20
-3.47
11
6.28
21
-3.49
0
LINE
8
BLACK
6
CONTINUOUS
10
6.28
20
-3.49
11
6.29929
21
-3.49
0
LINE
8
BLACK
6
CONTINUOUS
10
6.29929
20
-3.49
11
6.29989
21
-3.48982
0
LINE
8
BLACK
6
CONTINUOUS
10
6.29989
20
-3.48982
11
6.29993
21
-3.48977
0
LINE
8
BLACK
6
CONTINUOUS
10
6.29993
20
-3.48977
11
6.3
21
-3.48947
0
LINE
8
BLACK
6
CONTINUOUS
10
6.3
20
-3.48947
11
6.3
21
-3.46824
0
LINE
8
BLACK
6
CONTINUOUS
10
6.3
20
-3.46824
11
6.29999
21
-3.46797
0
LINE
8
BLACK
6
CONTINUOUS
10
6.29999
20
-3.46797
11
6.29977
21
-3.46597
0
LINE
8
BLACK
6
CONTINUOUS
10
6.29977
20
-3.46597
11
6.29963
21
-3.46537
0
LINE
8
BLACK
6
CONTINUOUS
10
6.29963
20
-3.46537
11
6.29785
21
-3.46063
0
LINE
8
BLACK
6
CONTINUOUS
10
6.29785
20
-3.46063
11
6.29751
21
-3.46001
0
LINE
8
BLACK
6
CONTINUOUS
10
6.29751
20
-3.46001
11
6.2945
21
-3.456
0
LINE
8
BLACK
6
CONTINUOUS
10
6.2945
20
-3.456
11
6.294
21
-3.4555
0
LINE
8
BLACK
6
CONTINUOUS
10
6.294
20
-3.4555
11
6.28999
21
-3.45249
0
LINE
8
BLACK
6
CONTINUOUS
10
6.28999
20
-3.45249
11
6.28937
21
-3.45215
0
LINE
8
BLACK
6
CONTINUOUS
10
6.28937
20
-3.45215
11
6.28463
21
-3.45037
0
LINE
8
BLACK
6
CONTINUOUS
10
6.28463
20
-3.45037
11
6.28403
21
-3.45023
0
LINE
8
BLACK
6
CONTINUOUS
10
6.28403
20
-3.45023
11
6.28203
21
-3.45001
0
LINE
8
BLACK
6
CONTINUOUS
10
6.28203
20
-3.45001
11
6.28176
21
-3.45
0
LINE
8
BLACK
6
CONTINUOUS
10
6.28176
20
-3.45
11
6.26071
21
-3.45
0
LINE
8
BLACK
6
CONTINUOUS
10
5.06071
20
-3.45
11
5.06011
21
-3.45018
0
LINE
8
BLACK
6
CONTINUOUS
10
5.06011
20
-3.45018
11
5.06007
21
-3.45023
0
LINE
8
BLACK
6
CONTINUOUS
10
5.06007
20
-3.45023
11
5.06
21
-3.45053
0
LINE
8
BLACK
6
CONTINUOUS
10
5.06
20
-3.45053
11
5.06
21
-3.47
0
LINE
8
BLACK
6
CONTINUOUS
10
5.06
20
-3.47
11
5.08
21
-3.47
0
LINE
8
BLACK
6
CONTINUOUS
10
5.08
20
-3.47
11
5.08
21
-3.49
0
LINE
8
BLACK
6
CONTINUOUS
10
5.08
20
-3.49
11
5.09929
21
-3.49
0
LINE
8
BLACK
6
CONTINUOUS
10
5.09929
20
-3.49
11
5.09989
21
-3.48982
0
LINE
8
BLACK
6
CONTINUOUS
10
5.09989
20
-3.48982
11
5.09993
21
-3.48977
0
LINE
8
BLACK
6
CONTINUOUS
10
5.09993
20
-3.48977
11
5.1
21
-3.48947
0
LINE
8
BLACK
6
CONTINUOUS
10
5.1
20
-3.48947
11
5.1
21
-3.46824
0
LINE
8
BLACK
6
CONTINUOUS
10
5.1
20
-3.46824
11
5.09999
21
-3.46797
0
LINE
8
BLACK
6
CONTINUOUS
10
5.09999
20
-3.46797
11
5.09977
21
-3.46597
0
LINE
8
BLACK
6
CONTINUOUS
10
5.09977
20
-3.46597
11
5.09963
21
-3.46537
0
LINE
8
BLACK
6
CONTINUOUS
10
5.09963
20
-3.46537
11
5.09785
21
-3.46063
0
LINE
8
BLACK
6
CONTINUOUS
10
5.09785
20
-3.46063
11
5.09751
21
-3.46001
0
LINE
8
BLACK
6
CONTINUOUS
10
5.09751
20
-3.46001
11
5.0945
21
-3.456
0
LINE
8
BLACK
6
CONTINUOUS
10
5.0945
20
-3.456
11
5.094
21
-3.4555
0
LINE
8
BLACK
6
CONTINUOUS
10
5.094
20
-3.4555
11
5.08999
21
-3.45249
0
LINE
8
BLACK
6
CONTINUOUS
10
5.08999
20
-3.45249
11
5.08937
21
-3.45215
0
LINE
8
BLACK
6
CONTINUOUS
10
5.08937
20
-3.45215
11
5.08463
21
-3.45037
0
LINE
8
BLACK
6
CONTINUOUS
10
5.08463
20
-3.45037
11
5.08403
21
-3.45023
0
LINE
8
BLACK
6
CONTINUOUS
10
5.08403
20
-3.45023
11
5.08203
21
-3.45001
0
LINE
8
BLACK
6
CONTINUOUS
10
5.08203
20
-3.45001
11
5.08176
21
-3.45
0
LINE
8
BLACK
6
CONTINUOUS
10
5.08176
20
-3.45
11
5.06071
21
-3.45
0
LINE
8
BLACK
6
CONTINUOUS
10
6.26071
20
-3.25
11
6.26011
21
-3.25018
0
LINE
8
BLACK
6
CONTINUOUS
10
6.26011
20
-3.25018
11
6.26007
21
-3.25023
0
LINE
8
BLACK
6
CONTINUOUS
10
6.26007
20
-3.25023
11
6.26
21
-3.25053
0
LINE
8
BLACK
6
CONTINUOUS
10
6.26
20
-3.25053
11
6.26
21
-3.27
0
LINE
8
BLACK
6
CONTINUOUS
10
6.26
20
-3.27
11
6.28
21
-3.27
0
LINE
8
BLACK
6
CONTINUOUS
10
6.28
20
-3.27
11
6.28
21
-3.29
0
LINE
8
BLACK
6
CONTINUOUS
10
6.28
20
-3.29
11
6.29929
21
-3.29
0
LINE
8
BLACK
6
CONTINUOUS
10
6.29929
20
-3.29
11
6.29989
21
-3.28982
0
LINE
8
BLACK
6
CONTINUOUS
10
6.29989
20
-3.28982
11
6.29993
21
-3.28977
0
LINE
8
BLACK
6
CONTINUOUS
10
6.29993
20
-3.28977
11
6.3
21
-3.28947
0
LINE
8
BLACK
6
CONTINUOUS
10
6.3
20
-3.28947
11
6.3
21
-3.26824
0
LINE
8
BLACK
6
CONTINUOUS
10
6.3
20
-3.26824
11
6.29999
21
-3.26797
0
LINE
8
BLACK
6
CONTINUOUS
10
6.29999
20
-3.26797
11
6.29977
21
-3.26597
0
LINE
8
BLACK
6
CONTINUOUS
10
6.29977
20
-3.26597
11
6.29963
21
-3.26537
0
LINE
8
BLACK
6
CONTINUOUS
10
6.29963
20
-3.26537
11
6.29785
21
-3.26063
0
LINE
8
BLACK
6
CONTINUOUS
10
6.29785
20
-3.26063
11
6.29751
21
-3.26001
0
LINE
8
BLACK
6
CONTINUOUS
10
6.29751
20
-3.26001
11
6.2945
21
-3.256
0
LINE
8
BLACK
6
CONTINUOUS
10
6.2945
20
-3.256
11
6.294
21
-3.2555
0
LINE
8
BLACK
6
CONTINUOUS
10
6.294
20
-3.2555
11
6.28999
21
-3.25249
0
LINE
8
BLACK
6
CONTINUOUS
10
6.28999
20
-3.25249
11
6.28937
21
-3.25215
0
LINE
8
BLACK
6
CONTINUOUS
10
6.28937
20
-3.25215
11
6.28463
21
-3.25037
0
LINE
8
BLACK
6
CONTINUOUS
10
6.28463
20
-3.25037
11
6.28403
21
-3.25023
0
LINE
8
BLACK
6
CONTINUOUS
10
6.28403
20
-3.25023
11
6.28203
21
-3.25001
0
LINE
8
BLACK
6
CONTINUOUS
10
6.28203
20
-3.25001
11
6.28176
21
-3.25
0
LINE
8
BLACK
6
CONTINUOUS
10
6.28176
20
-3.25
11
6.26071
21
-3.25
0
LINE
8
BLACK
6
CONTINUOUS
10
6.16071
20
-3.25
11
6.16011
21
-3.25018
0
LINE
8
BLACK
6
CONTINUOUS
10
6.16011
20
-3.25018
11
6.16007
21
-3.25023
0
LINE
8
BLACK
6
CONTINUOUS
10
6.16007
20
-3.25023
11
6.16
21
-3.25053
0
LINE
8
BLACK
6
CONTINUOUS
10
6.16
20
-3.25053
11
6.16
21
-3.27
0
LINE
8
BLACK
6
CONTINUOUS
10
6.16
20
-3.27
11
6.18
21
-3.27
0
LINE
8
BLACK
6
CONTINUOUS
10
6.18
20
-3.27
11
6.18
21
-3.29
0
LINE
8
BLACK
6
CONTINUOUS
10
6.18
20
-3.29
11
6.22
21
-3.29
0
LINE
8
BLACK
6
CONTINUOUS
10
6.22
20
-3.29
11
6.22
21
-3.27
0
LINE
8
BLACK
6
CONTINUOUS
10
6.22
20
-3.27
11
6.24
21
-3.27
0
LINE
8
BLACK
6
CONTINUOUS
10
6.24
20
-3.27
11
6.24
21
-3.25071
0
LINE
8
BLACK
6
CONTINUOUS
10
6.24
20
-3.25071
11
6.23982
21
-3.25011
0
LINE
8
BLACK
6
CONTINUOUS
10
6.23982
20
-3.25011
11
6.23977
21
-3.25007
0
LINE
8
BLACK
6
CONTINUOUS
10
6.23977
20
-3.25007
11
6.23947
21
-3.25
0
LINE
8
BLACK
6
CONTINUOUS
10
6.23947
20
-3.25
11
6.21824
21
-3.25
0
LINE
8
BLACK
6
CONTINUOUS
10
6.21824
20
-3.25
11
6.21797
21
-3.25001
0
LINE
8
BLACK
6
CONTINUOUS
10
6.21797
20
-3.25001
11
6.21597
21
-3.25023
0
LINE
8
BLACK
6
CONTINUOUS
10
6.21597
20
-3.25023
11
6.21537
21
-3.25037
0
LINE
8
BLACK
6
CONTINUOUS
10
6.21537
20
-3.25037
11
6.21063
21
-3.25215
0
LINE
8
BLACK
6
CONTINUOUS
10
6.21063
20
-3.25215
11
6.21001
21
-3.25249
0
LINE
8
BLACK
6
CONTINUOUS
10
6.21001
20
-3.25249
11
6.206
21
-3.2555
0
LINE
8
BLACK
6
CONTINUOUS
10
6.206
20
-3.2555
11
6.2055
21
-3.256
0
LINE
8
BLACK
6
CONTINUOUS
10
6.2055
20
-3.256
11
6.20397
21
-3.25804
0
LINE
8
BLACK
6
CONTINUOUS
10
6.20397
20
-3.25804
11
6.20173
21
-3.25971
0
LINE
8
BLACK
6
CONTINUOUS
10
6.20173
20
-3.25971
11
6.19894
21
-3.25991
0
LINE
8
BLACK
6
CONTINUOUS
10
6.19894
20
-3.25991
11
6.19649
21
-3.25857
0
LINE
8
BLACK
6
CONTINUOUS
10
6.19649
20
-3.25857
11
6.19603
21
-3.25804
0
LINE
8
BLACK
6
CONTINUOUS
10
6.19603
20
-3.25804
11
6.1945
21
-3.256
0
LINE
8
BLACK
6
CONTINUOUS
10
6.1945
20
-3.256
11
6.194
21
-3.2555
0
LINE
8
BLACK
6
CONTINUOUS
10
6.194
20
-3.2555
11
6.18999
21
-3.25249
0
LINE
8
BLACK
6
CONTINUOUS
10
6.18999
20
-3.25249
11
6.18937
21
-3.25215
0
LINE
8
BLACK
6
CONTINUOUS
10
6.18937
20
-3.25215
11
6.18463
21
-3.25037
0
LINE
8
BLACK
6
CONTINUOUS
10
6.18463
20
-3.25037
11
6.18403
21
-3.25023
0
LINE
8
BLACK
6
CONTINUOUS
10
6.18403
20
-3.25023
11
6.18203
21
-3.25001
0
LINE
8
BLACK
6
CONTINUOUS
10
6.18203
20
-3.25001
11
6.18176
21
-3.25
0
LINE
8
BLACK
6
CONTINUOUS
10
6.18176
20
-3.25
11
6.16071
21
-3.25
0
LINE
8
BLACK
6
CONTINUOUS
10
4.96071
20
-3.25
11
4.96011
21
-3.25018
0
LINE
8
BLACK
6
CONTINUOUS
10
4.96011
20
-3.25018
11
4.96007
21
-3.25023
0
LINE
8
BLACK
6
CONTINUOUS
10
4.96007
20
-3.25023
11
4.96
21
-3.25053
0
LINE
8
BLACK
6
CONTINUOUS
10
4.96
20
-3.25053
11
4.96
21
-3.27
0
LINE
8
BLACK
6
CONTINUOUS
10
4.96
20
-3.27
11
4.98
21
-3.27
0
LINE
8
BLACK
6
CONTINUOUS
10
4.98
20
-3.27
11
4.98
21
-3.29
0
LINE
8
BLACK
6
CONTINUOUS
10
4.98
20
-3.29
11
5.02
21
-3.29
0
LINE
8
BLACK
6
CONTINUOUS
10
5.02
20
-3.29
11
5.02
21
-3.27
0
LINE
8
BLACK
6
CONTINUOUS
10
5.02
20
-3.27
11
5.04
21
-3.27
0
LINE
8
BLACK
6
CONTINUOUS
10
5.04
20
-3.27
11
5.04
21
-3.25071
0
LINE
8
BLACK
6
CONTINUOUS
10
5.04
20
-3.25071
11
5.03982
21
-3.25011
0
LINE
8
BLACK
6
CONTINUOUS
10
5.03982
20
-3.25011
11
5.03977
21
-3.25007
0
LINE
8
BLACK
6
CONTINUOUS
10
5.03977
20
-3.25007
11
5.03947
21
-3.25
0
LINE
8
BLACK
6
CONTINUOUS
10
5.03947
20
-3.25
11
5.01824
21
-3.25
0
LINE
8
BLACK
6
CONTINUOUS
10
5.01824
20
-3.25
11
5.01797
21
-3.25001
0
LINE
8
BLACK
6
CONTINUOUS
10
5.01797
20
-3.25001
11
5.01597
21
-3.25023
0
LINE
8
BLACK
6
CONTINUOUS
10
5.01597
20
-3.25023
11
5.01537
21
-3.25037
0
LINE
8
BLACK
6
CONTINUOUS
10
5.01537
20
-3.25037
11
5.01063
21
-3.25215
0
LINE
8
BLACK
6
CONTINUOUS
10
5.01063
20
-3.25215
11
5.01001
21
-3.25249
0
LINE
8
BLACK
6
CONTINUOUS
10
5.01001
20
-3.25249
11
5.006
21
-3.2555
0
LINE
8
BLACK
6
CONTINUOUS
10
5.006
20
-3.2555
11
5.0055
21
-3.256
0
LINE
8
BLACK
6
CONTINUOUS
10
5.0055
20
-3.256
11
5.00397
21
-3.25804
0
LINE
8
BLACK
6
CONTINUOUS
10
5.00397
20
-3.25804
11
5.00173
21
-3.25971
0
LINE
8
BLACK
6
CONTINUOUS
10
5.00173
20
-3.25971
11
4.99894
21
-3.25991
0
LINE
8
BLACK
6
CONTINUOUS
10
4.99894
20
-3.25991
11
4.99649
21
-3.25857
0
LINE
8
BLACK
6
CONTINUOUS
10
4.99649
20
-3.25857
11
4.99603
21
-3.25804
0
LINE
8
BLACK
6
CONTINUOUS
10
4.99603
20
-3.25804
11
4.9945
21
-3.256
0
LINE
8
BLACK
6
CONTINUOUS
10
4.9945
20
-3.256
11
4.994
21
-3.2555
0
LINE
8
BLACK
6
CONTINUOUS
10
4.994
20
-3.2555
11
4.98999
21
-3.25249
0
LINE
8
BLACK
6
CONTINUOUS
10
4.98999
20
-3.25249
11
4.98937
21
-3.25215
0
LINE
8
BLACK
6
CONTINUOUS
10
4.98937
20
-3.25215
11
4.98463
21
-3.25037
0
LINE
8
BLACK
6
CONTINUOUS
10
4.98463
20
-3.25037
11
4.98403
21
-3.25023
0
LINE
8
BLACK
6
CONTINUOUS
10
4.98403
20
-3.25023
11
4.98203
21
-3.25001
0
LINE
8
BLACK
6
CONTINUOUS
10
4.98203
20
-3.25001
11
4.98176
21
-3.25
0
LINE
8
BLACK
6
CONTINUOUS
10
4.98176
20
-3.25
11
4.96071
21
-3.25
0
LINE
8
BLACK
6
CONTINUOUS
10
5.06071
20
-3.25
11
5.06011
21
-3.25018
0
LINE
8
BLACK
6
CONTINUOUS
10
5.06011
20
-3.25018
11
5.06007
21
-3.25023
0
LINE
8
BLACK
6
CONTINUOUS
10
5.06007
20
-3.25023
11
5.06
21
-3.25053
0
LINE
8
BLACK
6
CONTINUOUS
10
5.06
20
-3.25053
11
5.06
21
-3.27
0
LINE
8
BLACK
6
CONTINUOUS
10
5.06
20
-3.27
11
5.08
21
-3.27
0
LINE
8
BLACK
6
CONTINUOUS
10
5.08
20
-3.27
11
5.08
21
-3.29
0
LINE
8
BLACK
6
CONTINUOUS
10
5.08
20
-3.29
11
5.09929
21
-3.29
0
LINE
8
BLACK
6
CONTINUOUS
10
5.09929
20
-3.29
11
5.09989
21
-3.28982
0
LINE
8
BLACK
6
CONTINUOUS
10
5.09989
20
-3.28982
11
5.09993
21
-3.28977
0
LINE
8
BLACK
6
CONTINUOUS
10
5.09993
20
-3.28977
11
5.1
21
-3.28947
0
LINE
8
BLACK
6
CONTINUOUS
10
5.1
20
-3.28947
11
5.1
21
-3.26824
0
LINE
8
BLACK
6
CONTINUOUS
10
5.1
20
-3.26824
11
5.09999
21
-3.26797
0
LINE
8
BLACK
6
CONTINUOUS
10
5.09999
20
-3.26797
11
5.09977
21
-3.26597
0
LINE
8
BLACK
6
CONTINUOUS
10
5.09977
20
-3.26597
11
5.09963
21
-3.26537
0
LINE
8
BLACK
6
CONTINUOUS
10
5.09963
20
-3.26537
11
5.09785
21
-3.26063
0
LINE
8
BLACK
6
CONTINUOUS
10
5.09785
20
-3.26063
11
5.09751
21
-3.26001
0
LINE
8
BLACK
6
CONTINUOUS
10
5.09751
20
-3.26001
11
5.0945
21
-3.256
0
LINE
8
BLACK
6
CONTINUOUS
10
5.0945
20
-3.256
11
5.094
21
-3.2555
0
LINE
8
BLACK
6
CONTINUOUS
10
5.094
20
-3.2555
11
5.08999
21
-3.25249
0
LINE
8
BLACK
6
CONTINUOUS
10
5.08999
20
-3.25249
11
5.08937
21
-3.25215
0
LINE
8
BLACK
6
CONTINUOUS
10
5.08937
20
-3.25215
11
5.08463
21
-3.25037
0
LINE
8
BLACK
6
CONTINUOUS
10
5.08463
20
-3.25037
11
5.08403
21
-3.25023
0
LINE
8
BLACK
6
CONTINUOUS
10
5.08403
20
-3.25023
11
5.08203
21
-3.25001
0
LINE
8
BLACK
6
CONTINUOUS
10
5.08203
20
-3.25001
11
5.08176
21
-3.25
0
LINE
8
BLACK
6
CONTINUOUS
10
5.08176
20
-3.25
11
5.06071
21
-3.25
0
LINE
8
BLACK
6
CONTINUOUS
10
5.51023
20
-3.04993
11
5.51053
21
-3.05
0
LINE
8
BLACK
6
CONTINUOUS
10
5.51053
20
-3.05
11
5.53176
21
-3.05
0
LINE
8
BLACK
6
CONTINUOUS
10
5.53176
20
-3.05
11
5.53203
21
-3.04999
0
LINE
8
BLACK
6
CONTINUOUS
10
5.53203
20
-3.04999
11
5.53403
21
-3.04977
0
LINE
8
BLACK
6
CONTINUOUS
10
5.53403
20
-3.04977
11
5.53463
21
-3.04963
0
LINE
8
BLACK
6
CONTINUOUS
10
5.53463
20
-3.04963
11
5.53937
21
-3.04785
0
LINE
8
BLACK
6
CONTINUOUS
10
5.53937
20
-3.04785
11
5.53999
21
-3.04751
0
LINE
8
BLACK
6
CONTINUOUS
10
5.53999
20
-3.04751
11
5.544
21
-3.0445
0
LINE
8
BLACK
6
CONTINUOUS
10
5.544
20
-3.0445
11
5.5445
21
-3.044
0
LINE
8
BLACK
6
CONTINUOUS
10
5.5445
20
-3.044
11
5.54751
21
-3.03999
0
LINE
8
BLACK
6
CONTINUOUS
10
5.54751
20
-3.03999
11
5.54785
21
-3.03937
0
LINE
8
BLACK
6
CONTINUOUS
10
5.54785
20
-3.03937
11
5.54963
21
-3.03463
0
LINE
8
BLACK
6
CONTINUOUS
10
5.54963
20
-3.03463
11
5.54977
21
-3.03403
0
LINE
8
BLACK
6
CONTINUOUS
10
5.54977
20
-3.03403
11
5.54999
21
-3.03203
0
LINE
8
BLACK
6
CONTINUOUS
10
5.54999
20
-3.03203
11
5.55
21
-3.03176
0
LINE
8
BLACK
6
CONTINUOUS
10
5.55
20
-3.03176
11
5.55
21
-3.01071
0
LINE
8
BLACK
6
CONTINUOUS
10
5.55
20
-3.01071
11
5.54982
21
-3.01011
0
LINE
8
BLACK
6
CONTINUOUS
10
5.54982
20
-3.01011
11
5.54977
21
-3.01007
0
LINE
8
BLACK
6
CONTINUOUS
10
5.54977
20
-3.01007
11
5.54947
21
-3.01
0
LINE
8
BLACK
6
CONTINUOUS
10
5.54947
20
-3.01
11
5.53
21
-3.01
0
LINE
8
BLACK
6
CONTINUOUS
10
5.53
20
-3.01
11
5.53
21
-3.03
0
LINE
8
BLACK
6
CONTINUOUS
10
5.53
20
-3.03
11
5.51
21
-3.03
0
LINE
8
BLACK
6
CONTINUOUS
10
5.51
20
-3.03
11
5.51
21
-3.04929
0
LINE
8
BLACK
6
CONTINUOUS
10
5.51
20
-3.04929
11
5.51018
21
-3.04989
0
LINE
8
BLACK
6
CONTINUOUS
10
5.51018
20
-3.04989
11
5.51023
21
-3.04993
0
LINE
8
BLACK
6
CONTINUOUS
10
5.86056
20
-3.03391
11
5.86278
21
-3.03722
0
LINE
8
BLACK
6
CONTINUOUS
10
5.86278
20
-3.03722
11
5.86609
21
-3.03944
0
LINE
8
BLACK
6
CONTINUOUS
10
5.86609
20
-3.03944
11
5.86901
21
-3.04002
0
LINE
8
BLACK
6
CONTINUOUS
10
5.86901
20
-3.04002
11
5.89999
21
-3.04002
0
LINE
8
BLACK
6
CONTINUOUS
10
5.89999
20
-3.04002
11
5.93099
21
-3.04002
0
LINE
8
BLACK
6
CONTINUOUS
10
5.93099
20
-3.04002
11
5.93239
21
-3.03974
0
LINE
8
BLACK
6
CONTINUOUS
10
5.93239
20
-3.03974
11
5.93343
21
-3.03953
0
LINE
8
BLACK
6
CONTINUOUS
10
5.93343
20
-3.03953
11
5.93343
21
-3.03953
0
LINE
8
BLACK
6
CONTINUOUS
10
5.93343
20
-3.03953
11
5.93391
21
-3.03944
0
LINE
8
BLACK
6
CONTINUOUS
10
5.93391
20
-3.03944
11
5.93432
21
-3.03917
0
LINE
8
BLACK
6
CONTINUOUS
10
5.93432
20
-3.03917
11
5.93432
21
-3.03917
0
LINE
8
BLACK
6
CONTINUOUS
10
5.93432
20
-3.03917
11
5.93682
21
-3.0375
0
LINE
8
BLACK
6
CONTINUOUS
10
5.93682
20
-3.0375
11
5.93722
21
-3.03722
0
LINE
8
BLACK
6
CONTINUOUS
10
5.93722
20
-3.03722
11
5.93944
21
-3.03391
0
LINE
8
BLACK
6
CONTINUOUS
10
5.93944
20
-3.03391
11
5.94002
21
-3.03099
0
LINE
8
BLACK
6
CONTINUOUS
10
5.94002
20
-3.03099
11
5.94002
21
-2.96901
0
LINE
8
BLACK
6
CONTINUOUS
10
5.94002
20
-2.96901
11
5.93944
21
-2.96609
0
LINE
8
BLACK
6
CONTINUOUS
10
5.93944
20
-2.96609
11
5.93722
21
-2.96278
0
LINE
8
BLACK
6
CONTINUOUS
10
5.93722
20
-2.96278
11
5.93391
21
-2.96056
0
LINE
8
BLACK
6
CONTINUOUS
10
5.93391
20
-2.96056
11
5.93099
21
-2.95998
0
LINE
8
BLACK
6
CONTINUOUS
10
5.93099
20
-2.95998
11
5.90001
21
-2.95998
0
LINE
8
BLACK
6
CONTINUOUS
10
5.90001
20
-2.95998
11
5.86901
21
-2.95998
0
LINE
8
BLACK
6
CONTINUOUS
10
5.86901
20
-2.95998
11
5.86761
21
-2.96026
0
LINE
8
BLACK
6
CONTINUOUS
10
5.86761
20
-2.96026
11
5.86657
21
-2.96047
0
LINE
8
BLACK
6
CONTINUOUS
10
5.86657
20
-2.96047
11
5.86657
21
-2.96047
0
LINE
8
BLACK
6
CONTINUOUS
10
5.86657
20
-2.96047
11
5.86609
21
-2.96056
0
LINE
8
BLACK
6
CONTINUOUS
10
5.86609
20
-2.96056
11
5.86568
21
-2.96083
0
LINE
8
BLACK
6
CONTINUOUS
10
5.86568
20
-2.96083
11
5.86568
21
-2.96083
0
LINE
8
BLACK
6
CONTINUOUS
10
5.86568
20
-2.96083
11
5.86331
21
-2.96242
0
LINE
8
BLACK
6
CONTINUOUS
10
5.86331
20
-2.96242
11
5.86278
21
-2.96278
0
LINE
8
BLACK
6
CONTINUOUS
10
5.86278
20
-2.96278
11
5.86056
21
-2.96609
0
LINE
8
BLACK
6
CONTINUOUS
10
5.86056
20
-2.96609
11
5.85998
21
-2.96901
0
LINE
8
BLACK
6
CONTINUOUS
10
5.85998
20
-2.96901
11
5.85998
21
-3.03099
0
LINE
8
BLACK
6
CONTINUOUS
10
5.85998
20
-3.03099
11
5.86056
21
-3.03391
0
LINE
8
BLACK
6
CONTINUOUS
10
5.65023
20
-3.88403
11
5.65037
21
-3.88463
0
LINE
8
BLACK
6
CONTINUOUS
10
5.65037
20
-3.88463
11
5.65215
21
-3.88937
0
LINE
8
BLACK
6
CONTINUOUS
10
5.65215
20
-3.88937
11
5.65249
21
-3.88999
0
LINE
8
BLACK
6
CONTINUOUS
10
5.65249
20
-3.88999
11
5.6555
21
-3.894
0
LINE
8
BLACK
6
CONTINUOUS
10
5.6555
20
-3.894
11
5.656
21
-3.8945
0
LINE
8
BLACK
6
CONTINUOUS
10
5.656
20
-3.8945
11
5.66001
21
-3.89751
0
LINE
8
BLACK
6
CONTINUOUS
10
5.66001
20
-3.89751
11
5.66063
21
-3.89785
0
LINE
8
BLACK
6
CONTINUOUS
10
5.66063
20
-3.89785
11
5.66537
21
-3.89963
0
LINE
8
BLACK
6
CONTINUOUS
10
5.66537
20
-3.89963
11
5.66597
21
-3.89977
0
LINE
8
BLACK
6
CONTINUOUS
10
5.66597
20
-3.89977
11
5.66797
21
-3.89999
0
LINE
8
BLACK
6
CONTINUOUS
10
5.66797
20
-3.89999
11
5.66824
21
-3.9
0
LINE
8
BLACK
6
CONTINUOUS
10
5.66824
20
-3.9
11
5.68929
21
-3.9
0
LINE
8
BLACK
6
CONTINUOUS
10
5.68929
20
-3.9
11
5.68989
21
-3.89982
0
LINE
8
BLACK
6
CONTINUOUS
10
5.68989
20
-3.89982
11
5.68993
21
-3.89977
0
LINE
8
BLACK
6
CONTINUOUS
10
5.68993
20
-3.89977
11
5.69
21
-3.89947
0
LINE
8
BLACK
6
CONTINUOUS
10
5.69
20
-3.89947
11
5.69
21
-3.88
0
LINE
8
BLACK
6
CONTINUOUS
10
5.69
20
-3.88
11
5.67
21
-3.88
0
LINE
8
BLACK
6
CONTINUOUS
10
5.67
20
-3.88
11
5.67
21
-3.86
0
LINE
8
BLACK
6
CONTINUOUS
10
5.67
20
-3.86
11
5.65071
21
-3.86
0
LINE
8
BLACK
6
CONTINUOUS
10
5.65071
20
-3.86
11
5.65011
21
-3.86018
0
LINE
8
BLACK
6
CONTINUOUS
10
5.65011
20
-3.86018
11
5.65007
21
-3.86023
0
LINE
8
BLACK
6
CONTINUOUS
10
5.65007
20
-3.86023
11
5.65
21
-3.86053
0
LINE
8
BLACK
6
CONTINUOUS
10
5.65
20
-3.86053
11
5.65
21
-3.88176
0
LINE
8
BLACK
6
CONTINUOUS
10
5.65
20
-3.88176
11
5.65001
21
-3.88203
0
LINE
8
BLACK
6
CONTINUOUS
10
5.65001
20
-3.88203
11
5.65023
21
-3.88403
0
LINE
8
BLACK
6
CONTINUOUS
10
5.87
20
-3.88
11
5.87
21
-3.86
0
LINE
8
BLACK
6
CONTINUOUS
10
5.87
20
-3.86
11
5.85071
21
-3.86
0
LINE
8
BLACK
6
CONTINUOUS
10
5.85071
20
-3.86
11
5.85011
21
-3.86018
0
LINE
8
BLACK
6
CONTINUOUS
10
5.85011
20
-3.86018
11
5.85007
21
-3.86023
0
LINE
8
BLACK
6
CONTINUOUS
10
5.85007
20
-3.86023
11
5.85
21
-3.86053
0
LINE
8
BLACK
6
CONTINUOUS
10
5.85
20
-3.86053
11
5.85
21
-3.88176
0
LINE
8
BLACK
6
CONTINUOUS
10
5.85
20
-3.88176
11
5.85001
21
-3.88203
0
LINE
8
BLACK
6
CONTINUOUS
10
5.85001
20
-3.88203
11
5.85023
21
-3.88403
0
LINE
8
BLACK
6
CONTINUOUS
10
5.85023
20
-3.88403
11
5.85037
21
-3.88463
0
LINE
8
BLACK
6
CONTINUOUS
10
5.85037
20
-3.88463
11
5.85215
21
-3.88937
0
LINE
8
BLACK
6
CONTINUOUS
10
5.85215
20
-3.88937
11
5.85249
21
-3.88999
0
LINE
8
BLACK
6
CONTINUOUS
10
5.85249
20
-3.88999
11
5.8555
21
-3.894
0
LINE
8
BLACK
6
CONTINUOUS
10
5.8555
20
-3.894
11
5.856
21
-3.8945
0
LINE
8
BLACK
6
CONTINUOUS
10
5.856
20
-3.8945
11
5.86001
21
-3.89751
0
LINE
8
BLACK
6
CONTINUOUS
10
5.86001
20
-3.89751
11
5.86063
21
-3.89785
0
LINE
8
BLACK
6
CONTINUOUS
10
5.86063
20
-3.89785
11
5.86537
21
-3.89963
0
LINE
8
BLACK
6
CONTINUOUS
10
5.86537
20
-3.89963
11
5.86597
21
-3.89977
0
LINE
8
BLACK
6
CONTINUOUS
10
5.86597
20
-3.89977
11
5.86797
21
-3.89999
0
LINE
8
BLACK
6
CONTINUOUS
10
5.86797
20
-3.89999
11
5.86824
21
-3.9
0
LINE
8
BLACK
6
CONTINUOUS
10
5.86824
20
-3.9
11
5.88929
21
-3.9
0
LINE
8
BLACK
6
CONTINUOUS
10
5.88929
20
-3.9
11
5.88989
21
-3.89982
0
LINE
8
BLACK
6
CONTINUOUS
10
5.88989
20
-3.89982
11
5.88993
21
-3.89977
0
LINE
8
BLACK
6
CONTINUOUS
10
5.88993
20
-3.89977
11
5.89
21
-3.89947
0
LINE
8
BLACK
6
CONTINUOUS
10
5.89
20
-3.89947
11
5.89
21
-3.88
0
LINE
8
BLACK
6
CONTINUOUS
10
5.89
20
-3.88
11
5.87
21
-3.88
0
LINE
8
BLACK
6
CONTINUOUS
10
5.85023
20
-3.83993
11
5.85053
21
-3.84
0
LINE
8
BLACK
6
CONTINUOUS
10
5.85053
20
-3.84
11
5.87
21
-3.84
0
LINE
8
BLACK
6
CONTINUOUS
10
5.87
20
-3.84
11
5.87
21
-3.82
0
LINE
8
BLACK
6
CONTINUOUS
10
5.87
20
-3.82
11
5.89
21
-3.82
0
LINE
8
BLACK
6
CONTINUOUS
10
5.89
20
-3.82
11
5.89
21
-3.78
0
LINE
8
BLACK
6
CONTINUOUS
10
5.89
20
-3.78
11
5.87
21
-3.78
0
LINE
8
BLACK
6
CONTINUOUS
10
5.87
20
-3.78
11
5.87
21
-3.76
0
LINE
8
BLACK
6
CONTINUOUS
10
5.87
20
-3.76
11
5.85071
21
-3.76
0
LINE
8
BLACK
6
CONTINUOUS
10
5.85071
20
-3.76
11
5.85011
21
-3.76018
0
LINE
8
BLACK
6
CONTINUOUS
10
5.85011
20
-3.76018
11
5.85007
21
-3.76023
0
LINE
8
BLACK
6
CONTINUOUS
10
5.85007
20
-3.76023
11
5.85
21
-3.76053
0
LINE
8
BLACK
6
CONTINUOUS
10
5.85
20
-3.76053
11
5.85
21
-3.78176
0
LINE
8
BLACK
6
CONTINUOUS
10
5.85
20
-3.78176
11
5.85001
21
-3.78203
0
LINE
8
BLACK
6
CONTINUOUS
10
5.85001
20
-3.78203
11
5.85023
21
-3.78403
0
LINE
8
BLACK
6
CONTINUOUS
10
5.85023
20
-3.78403
11
5.85037
21
-3.78463
0
LINE
8
BLACK
6
CONTINUOUS
10
5.85037
20
-3.78463
11
5.85215
21
-3.78937
0
LINE
8
BLACK
6
CONTINUOUS
10
5.85215
20
-3.78937
11
5.85249
21
-3.78999
0
LINE
8
BLACK
6
CONTINUOUS
10
5.85249
20
-3.78999
11
5.8555
21
-3.794
0
LINE
8
BLACK
6
CONTINUOUS
10
5.8555
20
-3.794
11
5.856
21
-3.7945
0
LINE
8
BLACK
6
CONTINUOUS
10
5.856
20
-3.7945
11
5.85804
21
-3.79603
0
LINE
8
BLACK
6
CONTINUOUS
10
5.85804
20
-3.79603
11
5.85971
21
-3.79827
0
LINE
8
BLACK
6
CONTINUOUS
10
5.85971
20
-3.79827
11
5.85991
21
-3.80106
0
LINE
8
BLACK
6
CONTINUOUS
10
5.85991
20
-3.80106
11
5.85857
21
-3.80351
0
LINE
8
BLACK
6
CONTINUOUS
10
5.85857
20
-3.80351
11
5.85804
21
-3.80397
0
LINE
8
BLACK
6
CONTINUOUS
10
5.85804
20
-3.80397
11
5.856
21
-3.8055
0
LINE
8
BLACK
6
CONTINUOUS
10
5.856
20
-3.8055
11
5.8555
21
-3.806
0
LINE
8
BLACK
6
CONTINUOUS
10
5.8555
20
-3.806
11
5.85249
21
-3.81001
0
LINE
8
BLACK
6
CONTINUOUS
10
5.85249
20
-3.81001
11
5.85215
21
-3.81063
0
LINE
8
BLACK
6
CONTINUOUS
10
5.85215
20
-3.81063
11
5.85037
21
-3.81537
0
LINE
8
BLACK
6
CONTINUOUS
10
5.85037
20
-3.81537
11
5.85023
21
-3.81597
0
LINE
8
BLACK
6
CONTINUOUS
10
5.85023
20
-3.81597
11
5.85001
21
-3.81797
0
LINE
8
BLACK
6
CONTINUOUS
10
5.85001
20
-3.81797
11
5.85
21
-3.81824
0
LINE
8
BLACK
6
CONTINUOUS
10
5.85
20
-3.81824
11
5.85
21
-3.83929
0
LINE
8
BLACK
6
CONTINUOUS
10
5.85
20
-3.83929
11
5.85018
21
-3.83989
0
LINE
8
BLACK
6
CONTINUOUS
10
5.85018
20
-3.83989
11
5.85023
21
-3.83993
0
LINE
8
BLACK
6
CONTINUOUS
10
5.47
20
-3.83
11
5.47
21
-3.81
0
LINE
8
BLACK
6
CONTINUOUS
10
5.47
20
-3.81
11
5.45071
21
-3.81
0
LINE
8
BLACK
6
CONTINUOUS
10
5.45071
20
-3.81
11
5.45011
21
-3.81018
0
LINE
8
BLACK
6
CONTINUOUS
10
5.45011
20
-3.81018
11
5.45007
21
-3.81023
0
LINE
8
BLACK
6
CONTINUOUS
10
5.45007
20
-3.81023
11
5.45
21
-3.81053
0
LINE
8
BLACK
6
CONTINUOUS
10
5.45
20
-3.81053
11
5.45
21
-3.83176
0
LINE
8
BLACK
6
CONTINUOUS
10
5.45
20
-3.83176
11
5.45001
21
-3.83203
0
LINE
8
BLACK
6
CONTINUOUS
10
5.45001
20
-3.83203
11
5.45023
21
-3.83403
0
LINE
8
BLACK
6
CONTINUOUS
10
5.45023
20
-3.83403
11
5.45037
21
-3.83463
0
LINE
8
BLACK
6
CONTINUOUS
10
5.45037
20
-3.83463
11
5.45215
21
-3.83937
0
LINE
8
BLACK
6
CONTINUOUS
10
5.45215
20
-3.83937
11
5.45249
21
-3.83999
0
LINE
8
BLACK
6
CONTINUOUS
10
5.45249
20
-3.83999
11
5.4555
21
-3.844
0
LINE
8
BLACK
6
CONTINUOUS
10
5.4555
20
-3.844
11
5.456
21
-3.8445
0
LINE
8
BLACK
6
CONTINUOUS
10
5.456
20
-3.8445
11
5.46001
21
-3.84751
0
LINE
8
BLACK
6
CONTINUOUS
10
5.46001
20
-3.84751
11
5.46063
21
-3.84785
0
LINE
8
BLACK
6
CONTINUOUS
10
5.46063
20
-3.84785
11
5.46537
21
-3.84963
0
LINE
8
BLACK
6
CONTINUOUS
10
5.46537
20
-3.84963
11
5.46597
21
-3.84977
0
LINE
8
BLACK
6
CONTINUOUS
10
5.46597
20
-3.84977
11
5.46797
21
-3.84999
0
LINE
8
BLACK
6
CONTINUOUS
10
5.46797
20
-3.84999
11
5.46824
21
-3.85
0
LINE
8
BLACK
6
CONTINUOUS
10
5.46824
20
-3.85
11
5.48929
21
-3.85
0
LINE
8
BLACK
6
CONTINUOUS
10
5.48929
20
-3.85
11
5.48989
21
-3.84982
0
LINE
8
BLACK
6
CONTINUOUS
10
5.48989
20
-3.84982
11
5.48993
21
-3.84977
0
LINE
8
BLACK
6
CONTINUOUS
10
5.48993
20
-3.84977
11
5.49
21
-3.84947
0
LINE
8
BLACK
6
CONTINUOUS
10
5.49
20
-3.84947
11
5.49
21
-3.83
0
LINE
8
BLACK
6
CONTINUOUS
10
5.49
20
-3.83
11
5.47
21
-3.83
0
LINE
8
BLACK
6
CONTINUOUS
10
5.84002
20
-3.83929
11
5.84002
21
-3.81901
0
LINE
8
BLACK
6
CONTINUOUS
10
5.84002
20
-3.81901
11
5.83944
21
-3.81609
0
LINE
8
BLACK
6
CONTINUOUS
10
5.83944
20
-3.81609
11
5.83722
21
-3.81278
0
LINE
8
BLACK
6
CONTINUOUS
10
5.83722
20
-3.81278
11
5.83391
21
-3.81056
0
LINE
8
BLACK
6
CONTINUOUS
10
5.83391
20
-3.81056
11
5.83099
21
-3.80998
0
LINE
8
BLACK
6
CONTINUOUS
10
5.83099
20
-3.80998
11
5.80001
21
-3.80998
0
LINE
8
BLACK
6
CONTINUOUS
10
5.80001
20
-3.80998
11
5.76901
21
-3.80998
0
LINE
8
BLACK
6
CONTINUOUS
10
5.76901
20
-3.80998
11
5.76761
21
-3.81026
0
LINE
8
BLACK
6
CONTINUOUS
10
5.76761
20
-3.81026
11
5.76657
21
-3.81047
0
LINE
8
BLACK
6
CONTINUOUS
10
5.76657
20
-3.81047
11
5.76657
21
-3.81047
0
LINE
8
BLACK
6
CONTINUOUS
10
5.76657
20
-3.81047
11
5.76609
21
-3.81056
0
LINE
8
BLACK
6
CONTINUOUS
10
5.76609
20
-3.81056
11
5.76568
21
-3.81083
0
LINE
8
BLACK
6
CONTINUOUS
10
5.76568
20
-3.81083
11
5.76568
21
-3.81083
0
LINE
8
BLACK
6
CONTINUOUS
10
5.76568
20
-3.81083
11
5.76331
21
-3.81242
0
LINE
8
BLACK
6
CONTINUOUS
10
5.76331
20
-3.81242
11
5.76278
21
-3.81278
0
LINE
8
BLACK
6
CONTINUOUS
10
5.76278
20
-3.81278
11
5.76056
21
-3.81609
0
LINE
8
BLACK
6
CONTINUOUS
10
5.76056
20
-3.81609
11
5.75998
21
-3.81901
0
LINE
8
BLACK
6
CONTINUOUS
10
5.75998
20
-3.81901
11
5.75998
21
-3.88099
0
LINE
8
BLACK
6
CONTINUOUS
10
5.75998
20
-3.88099
11
5.76056
21
-3.88391
0
LINE
8
BLACK
6
CONTINUOUS
10
5.76056
20
-3.88391
11
5.76278
21
-3.88722
0
LINE
8
BLACK
6
CONTINUOUS
10
5.76278
20
-3.88722
11
5.76609
21
-3.88944
0
LINE
8
BLACK
6
CONTINUOUS
10
5.76609
20
-3.88944
11
5.76901
21
-3.89002
0
LINE
8
BLACK
6
CONTINUOUS
10
5.76901
20
-3.89002
11
5.79999
21
-3.89002
0
LINE
8
BLACK
6
CONTINUOUS
10
5.79999
20
-3.89002
11
5.83099
21
-3.89002
0
LINE
8
BLACK
6
CONTINUOUS
10
5.83099
20
-3.89002
11
5.83239
21
-3.88974
0
LINE
8
BLACK
6
CONTINUOUS
10
5.83239
20
-3.88974
11
5.83343
21
-3.88953
0
LINE
8
BLACK
6
CONTINUOUS
10
5.83343
20
-3.88953
11
5.83343
21
-3.88953
0
LINE
8
BLACK
6
CONTINUOUS
10
5.83343
20
-3.88953
11
5.83391
21
-3.88944
0
LINE
8
BLACK
6
CONTINUOUS
10
5.83391
20
-3.88944
11
5.83432
21
-3.88917
0
LINE
8
BLACK
6
CONTINUOUS
10
5.83432
20
-3.88917
11
5.83432
21
-3.88917
0
LINE
8
BLACK
6
CONTINUOUS
10
5.83432
20
-3.88917
11
5.83682
21
-3.8875
0
LINE
8
BLACK
6
CONTINUOUS
10
5.83682
20
-3.8875
11
5.83722
21
-3.88722
0
LINE
8
BLACK
6
CONTINUOUS
10
5.83722
20
-3.88722
11
5.83944
21
-3.88391
0
LINE
8
BLACK
6
CONTINUOUS
10
5.83944
20
-3.88391
11
5.83987
21
-3.88176
0
LINE
8
BLACK
6
CONTINUOUS
10
5.83987
20
-3.88176
11
5.84002
21
-3.88099
0
LINE
8
BLACK
6
CONTINUOUS
10
5.84002
20
-3.88099
11
5.84002
21
-3.83929
0
LINE
8
BLACK
6
CONTINUOUS
10
5.51023
20
-3.84993
11
5.51053
21
-3.85
0
LINE
8
BLACK
6
CONTINUOUS
10
5.51053
20
-3.85
11
5.53176
21
-3.85
0
LINE
8
BLACK
6
CONTINUOUS
10
5.53176
20
-3.85
11
5.53203
21
-3.84999
0
LINE
8
BLACK
6
CONTINUOUS
10
5.53203
20
-3.84999
11
5.53403
21
-3.84977
0
LINE
8
BLACK
6
CONTINUOUS
10
5.53403
20
-3.84977
11
5.53463
21
-3.84963
0
LINE
8
BLACK
6
CONTINUOUS
10
5.53463
20
-3.84963
11
5.53937
21
-3.84785
0
LINE
8
BLACK
6
CONTINUOUS
10
5.53937
20
-3.84785
11
5.53999
21
-3.84751
0
LINE
8
BLACK
6
CONTINUOUS
10
5.53999
20
-3.84751
11
5.544
21
-3.8445
0
LINE
8
BLACK
6
CONTINUOUS
10
5.544
20
-3.8445
11
5.5445
21
-3.844
0
LINE
8
BLACK
6
CONTINUOUS
10
5.5445
20
-3.844
11
5.54751
21
-3.83999
0
LINE
8
BLACK
6
CONTINUOUS
10
5.54751
20
-3.83999
11
5.54785
21
-3.83937
0
LINE
8
BLACK
6
CONTINUOUS
10
5.54785
20
-3.83937
11
5.54788
21
-3.83929
0
LINE
8
BLACK
6
CONTINUOUS
10
5.54788
20
-3.83929
11
5.54963
21
-3.83463
0
LINE
8
BLACK
6
CONTINUOUS
10
5.54963
20
-3.83463
11
5.54977
21
-3.83403
0
LINE
8
BLACK
6
CONTINUOUS
10
5.54977
20
-3.83403
11
5.54999
21
-3.83203
0
LINE
8
BLACK
6
CONTINUOUS
10
5.54999
20
-3.83203
11
5.55
21
-3.83176
0
LINE
8
BLACK
6
CONTINUOUS
10
5.55
20
-3.83176
11
5.55
21
-3.81071
0
LINE
8
BLACK
6
CONTINUOUS
10
5.55
20
-3.81071
11
5.54982
21
-3.81011
0
LINE
8
BLACK
6
CONTINUOUS
10
5.54982
20
-3.81011
11
5.54977
21
-3.81007
0
LINE
8
BLACK
6
CONTINUOUS
10
5.54977
20
-3.81007
11
5.54947
21
-3.81
0
LINE
8
BLACK
6
CONTINUOUS
10
5.54947
20
-3.81
11
5.53
21
-3.81
0
LINE
8
BLACK
6
CONTINUOUS
10
5.53
20
-3.81
11
5.53
21
-3.83
0
LINE
8
BLACK
6
CONTINUOUS
10
5.53
20
-3.83
11
5.51
21
-3.83
0
LINE
8
BLACK
6
CONTINUOUS
10
5.51
20
-3.83
11
5.51
21
-3.84929
0
LINE
8
BLACK
6
CONTINUOUS
10
5.51
20
-3.84929
11
5.51018
21
-3.84989
0
LINE
8
BLACK
6
CONTINUOUS
10
5.51018
20
-3.84989
11
5.51023
21
-3.84993
0
LINE
8
BLACK
6
CONTINUOUS
10
5.45023
20
-3.78993
11
5.45053
21
-3.79
0
LINE
8
BLACK
6
CONTINUOUS
10
5.45053
20
-3.79
11
5.47
21
-3.79
0
LINE
8
BLACK
6
CONTINUOUS
10
5.47
20
-3.79
11
5.47
21
-3.77
0
LINE
8
BLACK
6
CONTINUOUS
10
5.47
20
-3.77
11
5.49
21
-3.77
0
LINE
8
BLACK
6
CONTINUOUS
10
5.49
20
-3.77
11
5.49
21
-3.75071
0
LINE
8
BLACK
6
CONTINUOUS
10
5.49
20
-3.75071
11
5.48982
21
-3.75011
0
LINE
8
BLACK
6
CONTINUOUS
10
5.48982
20
-3.75011
11
5.48977
21
-3.75007
0
LINE
8
BLACK
6
CONTINUOUS
10
5.48977
20
-3.75007
11
5.48947
21
-3.75
0
LINE
8
BLACK
6
CONTINUOUS
10
5.48947
20
-3.75
11
5.46824
21
-3.75
0
LINE
8
BLACK
6
CONTINUOUS
10
5.46824
20
-3.75
11
5.46797
21
-3.75001
0
LINE
8
BLACK
6
CONTINUOUS
10
5.46797
20
-3.75001
11
5.46597
21
-3.75023
0
LINE
8
BLACK
6
CONTINUOUS
10
5.46597
20
-3.75023
11
5.46537
21
-3.75037
0
LINE
8
BLACK
6
CONTINUOUS
10
5.46537
20
-3.75037
11
5.46063
21
-3.75215
0
LINE
8
BLACK
6
CONTINUOUS
10
5.46063
20
-3.75215
11
5.46001
21
-3.75249
0
LINE
8
BLACK
6
CONTINUOUS
10
5.46001
20
-3.75249
11
5.456
21
-3.7555
0
LINE
8
BLACK
6
CONTINUOUS
10
5.456
20
-3.7555
11
5.4555
21
-3.756
0
LINE
8
BLACK
6
CONTINUOUS
10
5.4555
20
-3.756
11
5.45249
21
-3.76001
0
LINE
8
BLACK
6
CONTINUOUS
10
5.45249
20
-3.76001
11
5.45215
21
-3.76063
0
LINE
8
BLACK
6
CONTINUOUS
10
5.45215
20
-3.76063
11
5.45037
21
-3.76537
0
LINE
8
BLACK
6
CONTINUOUS
10
5.45037
20
-3.76537
11
5.45023
21
-3.76597
0
LINE
8
BLACK
6
CONTINUOUS
10
5.45023
20
-3.76597
11
5.45001
21
-3.76797
0
LINE
8
BLACK
6
CONTINUOUS
10
5.45001
20
-3.76797
11
5.45
21
-3.76824
0
LINE
8
BLACK
6
CONTINUOUS
10
5.45
20
-3.76824
11
5.45
21
-3.78929
0
LINE
8
BLACK
6
CONTINUOUS
10
5.45
20
-3.78929
11
5.45018
21
-3.78989
0
LINE
8
BLACK
6
CONTINUOUS
10
5.45018
20
-3.78989
11
5.45023
21
-3.78993
0
LINE
8
BLACK
6
CONTINUOUS
10
5.74999
20
-3.81797
11
5.74977
21
-3.81597
0
LINE
8
BLACK
6
CONTINUOUS
10
5.74977
20
-3.81597
11
5.74963
21
-3.81537
0
LINE
8
BLACK
6
CONTINUOUS
10
5.74963
20
-3.81537
11
5.74785
21
-3.81063
0
LINE
8
BLACK
6
CONTINUOUS
10
5.74785
20
-3.81063
11
5.74751
21
-3.81001
0
LINE
8
BLACK
6
CONTINUOUS
10
5.74751
20
-3.81001
11
5.7445
21
-3.806
0
LINE
8
BLACK
6
CONTINUOUS
10
5.7445
20
-3.806
11
5.744
21
-3.8055
0
LINE
8
BLACK
6
CONTINUOUS
10
5.744
20
-3.8055
11
5.74196
21
-3.80397
0
LINE
8
BLACK
6
CONTINUOUS
10
5.74196
20
-3.80397
11
5.74029
21
-3.80173
0
LINE
8
BLACK
6
CONTINUOUS
10
5.74029
20
-3.80173
11
5.74009
21
-3.79894
0
LINE
8
BLACK
6
CONTINUOUS
10
5.74009
20
-3.79894
11
5.74143
21
-3.79649
0
LINE
8
BLACK
6
CONTINUOUS
10
5.74143
20
-3.79649
11
5.74196
21
-3.79603
0
LINE
8
BLACK
6
CONTINUOUS
10
5.74196
20
-3.79603
11
5.744
21
-3.7945
0
LINE
8
BLACK
6
CONTINUOUS
10
5.744
20
-3.7945
11
5.7445
21
-3.794
0
LINE
8
BLACK
6
CONTINUOUS
10
5.7445
20
-3.794
11
5.74751
21
-3.78999
0
LINE
8
BLACK
6
CONTINUOUS
10
5.74751
20
-3.78999
11
5.74785
21
-3.78937
0
LINE
8
BLACK
6
CONTINUOUS
10
5.74785
20
-3.78937
11
5.74963
21
-3.78463
0
LINE
8
BLACK
6
CONTINUOUS
10
5.74963
20
-3.78463
11
5.74977
21
-3.78403
0
LINE
8
BLACK
6
CONTINUOUS
10
5.74977
20
-3.78403
11
5.74999
21
-3.78203
0
LINE
8
BLACK
6
CONTINUOUS
10
5.74999
20
-3.78203
11
5.75
21
-3.78176
0
LINE
8
BLACK
6
CONTINUOUS
10
5.75
20
-3.78176
11
5.75
21
-3.76071
0
LINE
8
BLACK
6
CONTINUOUS
10
5.75
20
-3.76071
11
5.74982
21
-3.76011
0
LINE
8
BLACK
6
CONTINUOUS
10
5.74982
20
-3.76011
11
5.74977
21
-3.76007
0
LINE
8
BLACK
6
CONTINUOUS
10
5.74977
20
-3.76007
11
5.74947
21
-3.76
0
LINE
8
BLACK
6
CONTINUOUS
10
5.74947
20
-3.76
11
5.73
21
-3.76
0
LINE
8
BLACK
6
CONTINUOUS
10
5.73
20
-3.76
11
5.73
21
-3.78
0
LINE
8
BLACK
6
CONTINUOUS
10
5.73
20
-3.78
11
5.71
21
-3.78
0
LINE
8
BLACK
6
CONTINUOUS
10
5.71
20
-3.78
11
5.71
21
-3.82
0
LINE
8
BLACK
6
CONTINUOUS
10
5.71
20
-3.82
11
5.73
21
-3.82
0
LINE
8
BLACK
6
CONTINUOUS
10
5.73
20
-3.82
11
5.73
21
-3.84
0
LINE
8
BLACK
6
CONTINUOUS
10
5.73
20
-3.84
11
5.74929
21
-3.84
0
LINE
8
BLACK
6
CONTINUOUS
10
5.74929
20
-3.84
11
5.74989
21
-3.83982
0
LINE
8
BLACK
6
CONTINUOUS
10
5.74989
20
-3.83982
11
5.74993
21
-3.83977
0
LINE
8
BLACK
6
CONTINUOUS
10
5.74993
20
-3.83977
11
5.75
21
-3.83947
0
LINE
8
BLACK
6
CONTINUOUS
10
5.75
20
-3.83947
11
5.75
21
-3.81824
0
LINE
8
BLACK
6
CONTINUOUS
10
5.75
20
-3.81824
11
5.74999
21
-3.81797
0
LINE
8
BLACK
6
CONTINUOUS
10
5.65023
20
-3.73993
11
5.65053
21
-3.74
0
LINE
8
BLACK
6
CONTINUOUS
10
5.65053
20
-3.74
11
5.67
21
-3.74
0
LINE
8
BLACK
6
CONTINUOUS
10
5.67
20
-3.74
11
5.67
21
-3.72
0
LINE
8
BLACK
6
CONTINUOUS
10
5.67
20
-3.72
11
5.69
21
-3.72
0
LINE
8
BLACK
6
CONTINUOUS
10
5.69
20
-3.72
11
5.69
21
-3.70071
0
LINE
8
BLACK
6
CONTINUOUS
10
5.69
20
-3.70071
11
5.68982
21
-3.70011
0
LINE
8
BLACK
6
CONTINUOUS
10
5.68982
20
-3.70011
11
5.68977
21
-3.70007
0
LINE
8
BLACK
6
CONTINUOUS
10
5.68977
20
-3.70007
11
5.68947
21
-3.7
0
LINE
8
BLACK
6
CONTINUOUS
10
5.68947
20
-3.7
11
5.66824
21
-3.7
0
LINE
8
BLACK
6
CONTINUOUS
10
5.66824
20
-3.7
11
5.66797
21
-3.70001
0
LINE
8
BLACK
6
CONTINUOUS
10
5.66797
20
-3.70001
11
5.66597
21
-3.70023
0
LINE
8
BLACK
6
CONTINUOUS
10
5.66597
20
-3.70023
11
5.66537
21
-3.70037
0
LINE
8
BLACK
6
CONTINUOUS
10
5.66537
20
-3.70037
11
5.66063
21
-3.70215
0
LINE
8
BLACK
6
CONTINUOUS
10
5.66063
20
-3.70215
11
5.66001
21
-3.70249
0
LINE
8
BLACK
6
CONTINUOUS
10
5.66001
20
-3.70249
11
5.656
21
-3.7055
0
LINE
8
BLACK
6
CONTINUOUS
10
5.656
20
-3.7055
11
5.6555
21
-3.706
0
LINE
8
BLACK
6
CONTINUOUS
10
5.6555
20
-3.706
11
5.65249
21
-3.71001
0
LINE
8
BLACK
6
CONTINUOUS
10
5.65249
20
-3.71001
11
5.65215
21
-3.71063
0
LINE
8
BLACK
6
CONTINUOUS
10
5.65215
20
-3.71063
11
5.65037
21
-3.71537
0
LINE
8
BLACK
6
CONTINUOUS
10
5.65037
20
-3.71537
11
5.65023
21
-3.71597
0
LINE
8
BLACK
6
CONTINUOUS
10
5.65023
20
-3.71597
11
5.65001
21
-3.71797
0
LINE
8
BLACK
6
CONTINUOUS
10
5.65001
20
-3.71797
11
5.65
21
-3.71824
0
LINE
8
BLACK
6
CONTINUOUS
10
5.65
20
-3.71824
11
5.65
21
-3.73929
0
LINE
8
BLACK
6
CONTINUOUS
10
5.65
20
-3.73929
11
5.65018
21
-3.73989
0
LINE
8
BLACK
6
CONTINUOUS
10
5.65018
20
-3.73989
11
5.65023
21
-3.73993
0
LINE
8
BLACK
6
CONTINUOUS
10
5.26056
20
-3.83391
11
5.26278
21
-3.83722
0
LINE
8
BLACK
6
CONTINUOUS
10
5.26278
20
-3.83722
11
5.26609
21
-3.83944
0
LINE
8
BLACK
6
CONTINUOUS
10
5.26609
20
-3.83944
11
5.26901
21
-3.84002
0
LINE
8
BLACK
6
CONTINUOUS
10
5.26901
20
-3.84002
11
5.29999
21
-3.84002
0
LINE
8
BLACK
6
CONTINUOUS
10
5.29999
20
-3.84002
11
5.33099
21
-3.84002
0
LINE
8
BLACK
6
CONTINUOUS
10
5.33099
20
-3.84002
11
5.33239
21
-3.83974
0
LINE
8
BLACK
6
CONTINUOUS
10
5.33239
20
-3.83974
11
5.33343
21
-3.83953
0
LINE
8
BLACK
6
CONTINUOUS
10
5.33343
20
-3.83953
11
5.33343
21
-3.83953
0
LINE
8
BLACK
6
CONTINUOUS
10
5.33343
20
-3.83953
11
5.33391
21
-3.83944
0
LINE
8
BLACK
6
CONTINUOUS
10
5.33391
20
-3.83944
11
5.33432
21
-3.83917
0
LINE
8
BLACK
6
CONTINUOUS
10
5.33432
20
-3.83917
11
5.33432
21
-3.83917
0
LINE
8
BLACK
6
CONTINUOUS
10
5.33432
20
-3.83917
11
5.33682
21
-3.8375
0
LINE
8
BLACK
6
CONTINUOUS
10
5.33682
20
-3.8375
11
5.33722
21
-3.83722
0
LINE
8
BLACK
6
CONTINUOUS
10
5.33722
20
-3.83722
11
5.33944
21
-3.83391
0
LINE
8
BLACK
6
CONTINUOUS
10
5.33944
20
-3.83391
11
5.34002
21
-3.83099
0
LINE
8
BLACK
6
CONTINUOUS
10
5.34002
20
-3.83099
11
5.34002
21
-3.76901
0
LINE
8
BLACK
6
CONTINUOUS
10
5.34002
20
-3.76901
11
5.34002
21
-3.76901
0
LINE
8
BLACK
6
CONTINUOUS
10
5.34002
20
-3.76901
11
5.33944
21
-3.76609
0
LINE
8
BLACK
6
CONTINUOUS
10
5.33944
20
-3.76609
11
5.33722
21
-3.76278
0
LINE
8
BLACK
6
CONTINUOUS
10
5.33722
20
-3.76278
11
5.33391
21
-3.76056
0
LINE
8
BLACK
6
CONTINUOUS
10
5.33391
20
-3.76056
11
5.33099
21
-3.75998
0
LINE
8
BLACK
6
CONTINUOUS
10
5.33099
20
-3.75998
11
5.30001
21
-3.75998
0
LINE
8
BLACK
6
CONTINUOUS
10
5.30001
20
-3.75998
11
5.26901
21
-3.75998
0
LINE
8
BLACK
6
CONTINUOUS
10
5.26901
20
-3.75998
11
5.26761
21
-3.76026
0
LINE
8
BLACK
6
CONTINUOUS
10
5.26761
20
-3.76026
11
5.26657
21
-3.76047
0
LINE
8
BLACK
6
CONTINUOUS
10
5.26657
20
-3.76047
11
5.26657
21
-3.76047
0
LINE
8
BLACK
6
CONTINUOUS
10
5.26657
20
-3.76047
11
5.26609
21
-3.76056
0
LINE
8
BLACK
6
CONTINUOUS
10
5.26609
20
-3.76056
11
5.26568
21
-3.76083
0
LINE
8
BLACK
6
CONTINUOUS
10
5.26568
20
-3.76083
11
5.26568
21
-3.76083
0
LINE
8
BLACK
6
CONTINUOUS
10
5.26568
20
-3.76083
11
5.26331
21
-3.76242
0
LINE
8
BLACK
6
CONTINUOUS
10
5.26331
20
-3.76242
11
5.26278
21
-3.76278
0
LINE
8
BLACK
6
CONTINUOUS
10
5.26278
20
-3.76278
11
5.26056
21
-3.76609
0
LINE
8
BLACK
6
CONTINUOUS
10
5.26056
20
-3.76609
11
5.25998
21
-3.76901
0
LINE
8
BLACK
6
CONTINUOUS
10
5.25998
20
-3.76901
11
5.25998
21
-3.83099
0
LINE
8
BLACK
6
CONTINUOUS
10
5.25998
20
-3.83099
11
5.26056
21
-3.83391
0
LINE
8
BLACK
6
CONTINUOUS
10
5.83944
20
-3.71609
11
5.83722
21
-3.71278
0
LINE
8
BLACK
6
CONTINUOUS
10
5.83722
20
-3.71278
11
5.83391
21
-3.71056
0
LINE
8
BLACK
6
CONTINUOUS
10
5.83391
20
-3.71056
11
5.83099
21
-3.70998
0
LINE
8
BLACK
6
CONTINUOUS
10
5.83099
20
-3.70998
11
5.80001
21
-3.70998
0
LINE
8
BLACK
6
CONTINUOUS
10
5.80001
20
-3.70998
11
5.76901
21
-3.70998
0
LINE
8
BLACK
6
CONTINUOUS
10
5.76901
20
-3.70998
11
5.76761
21
-3.71026
0
LINE
8
BLACK
6
CONTINUOUS
10
5.76761
20
-3.71026
11
5.76657
21
-3.71047
0
LINE
8
BLACK
6
CONTINUOUS
10
5.76657
20
-3.71047
11
5.76657
21
-3.71047
0
LINE
8
BLACK
6
CONTINUOUS
10
5.76657
20
-3.71047
11
5.76609
21
-3.71056
0
LINE
8
BLACK
6
CONTINUOUS
10
5.76609
20
-3.71056
11
5.76568
21
-3.71083
0
LINE
8
BLACK
6
CONTINUOUS
10
5.76568
20
-3.71083
11
5.76568
21
-3.71083
0
LINE
8
BLACK
6
CONTINUOUS
10
5.76568
20
-3.71083
11
5.76331
21
-3.71242
0
LINE
8
BLACK
6
CONTINUOUS
10
5.76331
20
-3.71242
11
5.76278
21
-3.71278
0
LINE
8
BLACK
6
CONTINUOUS
10
5.76278
20
-3.71278
11
5.76056
21
-3.71609
0
LINE
8
BLACK
6
CONTINUOUS
10
5.76056
20
-3.71609
11
5.75998
21
-3.71901
0
LINE
8
BLACK
6
CONTINUOUS
10
5.75998
20
-3.71901
11
5.75998
21
-3.78099
0
LINE
8
BLACK
6
CONTINUOUS
10
5.75998
20
-3.78099
11
5.76056
21
-3.78391
0
LINE
8
BLACK
6
CONTINUOUS
10
5.76056
20
-3.78391
11
5.76278
21
-3.78722
0
LINE
8
BLACK
6
CONTINUOUS
10
5.76278
20
-3.78722
11
5.76609
21
-3.78944
0
LINE
8
BLACK
6
CONTINUOUS
10
5.76609
20
-3.78944
11
5.76901
21
-3.79002
0
LINE
8
BLACK
6
CONTINUOUS
10
5.76901
20
-3.79002
11
5.79999
21
-3.79002
0
LINE
8
BLACK
6
CONTINUOUS
10
5.79999
20
-3.79002
11
5.83099
21
-3.79002
0
LINE
8
BLACK
6
CONTINUOUS
10
5.83099
20
-3.79002
11
5.83239
21
-3.78974
0
LINE
8
BLACK
6
CONTINUOUS
10
5.83239
20
-3.78974
11
5.83343
21
-3.78953
0
LINE
8
BLACK
6
CONTINUOUS
10
5.83343
20
-3.78953
11
5.83343
21
-3.78953
0
LINE
8
BLACK
6
CONTINUOUS
10
5.83343
20
-3.78953
11
5.83391
21
-3.78944
0
LINE
8
BLACK
6
CONTINUOUS
10
5.83391
20
-3.78944
11
5.83432
21
-3.78917
0
LINE
8
BLACK
6
CONTINUOUS
10
5.83432
20
-3.78917
11
5.83432
21
-3.78917
0
LINE
8
BLACK
6
CONTINUOUS
10
5.83432
20
-3.78917
11
5.83682
21
-3.7875
0
LINE
8
BLACK
6
CONTINUOUS
10
5.83682
20
-3.7875
11
5.83722
21
-3.78722
0
LINE
8
BLACK
6
CONTINUOUS
10
5.83722
20
-3.78722
11
5.83944
21
-3.78391
0
LINE
8
BLACK
6
CONTINUOUS
10
5.83944
20
-3.78391
11
5.84002
21
-3.78099
0
LINE
8
BLACK
6
CONTINUOUS
10
5.84002
20
-3.78099
11
5.84002
21
-3.73929
0
LINE
8
BLACK
6
CONTINUOUS
10
5.84002
20
-3.73929
11
5.84002
21
-3.71901
0
LINE
8
BLACK
6
CONTINUOUS
10
5.84002
20
-3.71901
11
5.83944
21
-3.71609
0
LINE
8
BLACK
6
CONTINUOUS
10
6.26023
20
-3.54993
11
6.26053
21
-3.55
0
LINE
8
BLACK
6
CONTINUOUS
10
6.26053
20
-3.55
11
6.28176
21
-3.55
0
LINE
8
BLACK
6
CONTINUOUS
10
6.28176
20
-3.55
11
6.28203
21
-3.54999
0
LINE
8
BLACK
6
CONTINUOUS
10
6.28203
20
-3.54999
11
6.28403
21
-3.54977
0
LINE
8
BLACK
6
CONTINUOUS
10
6.28403
20
-3.54977
11
6.28463
21
-3.54963
0
LINE
8
BLACK
6
CONTINUOUS
10
6.28463
20
-3.54963
11
6.28937
21
-3.54785
0
LINE
8
BLACK
6
CONTINUOUS
10
6.28937
20
-3.54785
11
6.28999
21
-3.54751
0
LINE
8
BLACK
6
CONTINUOUS
10
6.28999
20
-3.54751
11
6.294
21
-3.5445
0
LINE
8
BLACK
6
CONTINUOUS
10
6.294
20
-3.5445
11
6.2945
21
-3.544
0
LINE
8
BLACK
6
CONTINUOUS
10
6.2945
20
-3.544
11
6.29751
21
-3.53999
0
LINE
8
BLACK
6
CONTINUOUS
10
6.29751
20
-3.53999
11
6.29785
21
-3.53937
0
LINE
8
BLACK
6
CONTINUOUS
10
6.29785
20
-3.53937
11
6.29963
21
-3.53463
0
LINE
8
BLACK
6
CONTINUOUS
10
6.29963
20
-3.53463
11
6.29977
21
-3.53403
0
LINE
8
BLACK
6
CONTINUOUS
10
6.29977
20
-3.53403
11
6.29999
21
-3.53203
0
LINE
8
BLACK
6
CONTINUOUS
10
6.29999
20
-3.53203
11
6.3
21
-3.53176
0
LINE
8
BLACK
6
CONTINUOUS
10
6.3
20
-3.53176
11
6.3
21
-3.51071
0
LINE
8
BLACK
6
CONTINUOUS
10
6.3
20
-3.51071
11
6.29982
21
-3.51011
0
LINE
8
BLACK
6
CONTINUOUS
10
6.29982
20
-3.51011
11
6.29977
21
-3.51007
0
LINE
8
BLACK
6
CONTINUOUS
10
6.29977
20
-3.51007
11
6.29947
21
-3.51
0
LINE
8
BLACK
6
CONTINUOUS
10
6.29947
20
-3.51
11
6.28
21
-3.51
0
LINE
8
BLACK
6
CONTINUOUS
10
6.28
20
-3.51
11
6.28
21
-3.53
0
LINE
8
BLACK
6
CONTINUOUS
10
6.28
20
-3.53
11
6.26
21
-3.53
0
LINE
8
BLACK
6
CONTINUOUS
10
6.26
20
-3.53
11
6.26
21
-3.54929
0
LINE
8
BLACK
6
CONTINUOUS
10
6.26
20
-3.54929
11
6.26018
21
-3.54989
0
LINE
8
BLACK
6
CONTINUOUS
10
6.26018
20
-3.54989
11
6.26023
21
-3.54993
0
LINE
8
BLACK
6
CONTINUOUS
10
5.74999
20
-3.71797
11
5.74977
21
-3.71597
0
LINE
8
BLACK
6
CONTINUOUS
10
5.74977
20
-3.71597
11
5.74963
21
-3.71537
0
LINE
8
BLACK
6
CONTINUOUS
10
5.74963
20
-3.71537
11
5.74785
21
-3.71063
0
LINE
8
BLACK
6
CONTINUOUS
10
5.74785
20
-3.71063
11
5.74751
21
-3.71001
0
LINE
8
BLACK
6
CONTINUOUS
10
5.74751
20
-3.71001
11
5.7445
21
-3.706
0
LINE
8
BLACK
6
CONTINUOUS
10
5.7445
20
-3.706
11
5.744
21
-3.7055
0
LINE
8
BLACK
6
CONTINUOUS
10
5.744
20
-3.7055
11
5.73999
21
-3.70249
0
LINE
8
BLACK
6
CONTINUOUS
10
5.73999
20
-3.70249
11
5.73937
21
-3.70215
0
LINE
8
BLACK
6
CONTINUOUS
10
5.73937
20
-3.70215
11
5.73463
21
-3.70037
0
LINE
8
BLACK
6
CONTINUOUS
10
5.73463
20
-3.70037
11
5.73403
21
-3.70023
0
LINE
8
BLACK
6
CONTINUOUS
10
5.73403
20
-3.70023
11
5.73203
21
-3.70001
0
LINE
8
BLACK
6
CONTINUOUS
10
5.73203
20
-3.70001
11
5.73176
21
-3.7
0
LINE
8
BLACK
6
CONTINUOUS
10
5.73176
20
-3.7
11
5.71071
21
-3.7
0
LINE
8
BLACK
6
CONTINUOUS
10
5.71071
20
-3.7
11
5.71011
21
-3.70018
0
LINE
8
BLACK
6
CONTINUOUS
10
5.71011
20
-3.70018
11
5.71007
21
-3.70023
0
LINE
8
BLACK
6
CONTINUOUS
10
5.71007
20
-3.70023
11
5.71
21
-3.70053
0
LINE
8
BLACK
6
CONTINUOUS
10
5.71
20
-3.70053
11
5.71
21
-3.72
0
LINE
8
BLACK
6
CONTINUOUS
10
5.71
20
-3.72
11
5.73
21
-3.72
0
LINE
8
BLACK
6
CONTINUOUS
10
5.73
20
-3.72
11
5.73
21
-3.74
0
LINE
8
BLACK
6
CONTINUOUS
10
5.73
20
-3.74
11
5.74929
21
-3.74
0
LINE
8
BLACK
6
CONTINUOUS
10
5.74929
20
-3.74
11
5.74989
21
-3.73982
0
LINE
8
BLACK
6
CONTINUOUS
10
5.74989
20
-3.73982
11
5.74993
21
-3.73977
0
LINE
8
BLACK
6
CONTINUOUS
10
5.74993
20
-3.73977
11
5.75
21
-3.73947
0
LINE
8
BLACK
6
CONTINUOUS
10
5.75
20
-3.73947
11
5.75
21
-3.71824
0
LINE
8
BLACK
6
CONTINUOUS
10
5.75
20
-3.71824
11
5.74999
21
-3.71797
0
LINE
8
BLACK
6
CONTINUOUS
10
6.22
20
-3.53
11
6.22
21
-3.51
0
LINE
8
BLACK
6
CONTINUOUS
10
6.22
20
-3.51
11
6.18
21
-3.51
0
LINE
8
BLACK
6
CONTINUOUS
10
6.18
20
-3.51
11
6.18
21
-3.53
0
LINE
8
BLACK
6
CONTINUOUS
10
6.18
20
-3.53
11
6.16
21
-3.53
0
LINE
8
BLACK
6
CONTINUOUS
10
6.16
20
-3.53
11
6.16
21
-3.54929
0
LINE
8
BLACK
6
CONTINUOUS
10
6.16
20
-3.54929
11
6.16018
21
-3.54989
0
LINE
8
BLACK
6
CONTINUOUS
10
6.16018
20
-3.54989
11
6.16023
21
-3.54993
0
LINE
8
BLACK
6
CONTINUOUS
10
6.16023
20
-3.54993
11
6.16053
21
-3.55
0
LINE
8
BLACK
6
CONTINUOUS
10
6.16053
20
-3.55
11
6.18176
21
-3.55
0
LINE
8
BLACK
6
CONTINUOUS
10
6.18176
20
-3.55
11
6.18203
21
-3.54999
0
LINE
8
BLACK
6
CONTINUOUS
10
6.18203
20
-3.54999
11
6.18403
21
-3.54977
0
LINE
8
BLACK
6
CONTINUOUS
10
6.18403
20
-3.54977
11
6.18463
21
-3.54963
0
LINE
8
BLACK
6
CONTINUOUS
10
6.18463
20
-3.54963
11
6.18937
21
-3.54785
0
LINE
8
BLACK
6
CONTINUOUS
10
6.18937
20
-3.54785
11
6.18999
21
-3.54751
0
LINE
8
BLACK
6
CONTINUOUS
10
6.18999
20
-3.54751
11
6.194
21
-3.5445
0
LINE
8
BLACK
6
CONTINUOUS
10
6.194
20
-3.5445
11
6.1945
21
-3.544
0
LINE
8
BLACK
6
CONTINUOUS
10
6.1945
20
-3.544
11
6.19603
21
-3.54196
0
LINE
8
BLACK
6
CONTINUOUS
10
6.19603
20
-3.54196
11
6.19827
21
-3.54029
0
LINE
8
BLACK
6
CONTINUOUS
10
6.19827
20
-3.54029
11
6.20106
21
-3.54009
0
LINE
8
BLACK
6
CONTINUOUS
10
6.20106
20
-3.54009
11
6.20351
21
-3.54143
0
LINE
8
BLACK
6
CONTINUOUS
10
6.20351
20
-3.54143
11
6.20397
21
-3.54196
0
LINE
8
BLACK
6
CONTINUOUS
10
6.20397
20
-3.54196
11
6.2055
21
-3.544
0
LINE
8
BLACK
6
CONTINUOUS
10
6.2055
20
-3.544
11
6.206
21
-3.5445
0
LINE
8
BLACK
6
CONTINUOUS
10
6.206
20
-3.5445
11
6.21001
21
-3.54751
0
LINE
8
BLACK
6
CONTINUOUS
10
6.21001
20
-3.54751
11
6.21063
21
-3.54785
0
LINE
8
BLACK
6
CONTINUOUS
10
6.21063
20
-3.54785
11
6.21537
21
-3.54963
0
LINE
8
BLACK
6
CONTINUOUS
10
6.21537
20
-3.54963
11
6.21597
21
-3.54977
0
LINE
8
BLACK
6
CONTINUOUS
10
6.21597
20
-3.54977
11
6.21797
21
-3.54999
0
LINE
8
BLACK
6
CONTINUOUS
10
6.21797
20
-3.54999
11
6.21824
21
-3.55
0
LINE
8
BLACK
6
CONTINUOUS
10
6.21824
20
-3.55
11
6.23929
21
-3.55
0
LINE
8
BLACK
6
CONTINUOUS
10
6.23929
20
-3.55
11
6.23989
21
-3.54982
0
LINE
8
BLACK
6
CONTINUOUS
10
6.23989
20
-3.54982
11
6.23993
21
-3.54977
0
LINE
8
BLACK
6
CONTINUOUS
10
6.23993
20
-3.54977
11
6.24
21
-3.54947
0
LINE
8
BLACK
6
CONTINUOUS
10
6.24
20
-3.54947
11
6.24
21
-3.53
0
LINE
8
BLACK
6
CONTINUOUS
10
6.24
20
-3.53
11
6.22
21
-3.53
0
LINE
8
BLACK
6
CONTINUOUS
10
5.02
20
-3.53
11
5.02
21
-3.51
0
LINE
8
BLACK
6
CONTINUOUS
10
5.02
20
-3.51
11
4.98
21
-3.51
0
LINE
8
BLACK
6
CONTINUOUS
10
4.98
20
-3.51
11
4.98
21
-3.53
0
LINE
8
BLACK
6
CONTINUOUS
10
4.98
20
-3.53
11
4.96
21
-3.53
0
LINE
8
BLACK
6
CONTINUOUS
10
4.96
20
-3.53
11
4.96
21
-3.54929
0
LINE
8
BLACK
6
CONTINUOUS
10
4.96
20
-3.54929
11
4.96018
21
-3.54989
0
LINE
8
BLACK
6
CONTINUOUS
10
4.96018
20
-3.54989
11
4.96023
21
-3.54993
0
LINE
8
BLACK
6
CONTINUOUS
10
4.96023
20
-3.54993
11
4.96053
21
-3.55
0
LINE
8
BLACK
6
CONTINUOUS
10
4.96053
20
-3.55
11
4.98176
21
-3.55
0
LINE
8
BLACK
6
CONTINUOUS
10
4.98176
20
-3.55
11
4.98203
21
-3.54999
0
LINE
8
BLACK
6
CONTINUOUS
10
4.98203
20
-3.54999
11
4.98403
21
-3.54977
0
LINE
8
BLACK
6
CONTINUOUS
10
4.98403
20
-3.54977
11
4.98463
21
-3.54963
0
LINE
8
BLACK
6
CONTINUOUS
10
4.98463
20
-3.54963
11
4.98937
21
-3.54785
0
LINE
8
BLACK
6
CONTINUOUS
10
4.98937
20
-3.54785
11
4.98999
21
-3.54751
0
LINE
8
BLACK
6
CONTINUOUS
10
4.98999
20
-3.54751
11
4.994
21
-3.5445
0
LINE
8
BLACK
6
CONTINUOUS
10
4.994
20
-3.5445
11
4.9945
21
-3.544
0
LINE
8
BLACK
6
CONTINUOUS
10
4.9945
20
-3.544
11
4.99603
21
-3.54196
0
LINE
8
BLACK
6
CONTINUOUS
10
4.99603
20
-3.54196
11
4.99827
21
-3.54029
0
LINE
8
BLACK
6
CONTINUOUS
10
4.99827
20
-3.54029
11
5.00106
21
-3.54009
0
LINE
8
BLACK
6
CONTINUOUS
10
5.00106
20
-3.54009
11
5.00351
21
-3.54143
0
LINE
8
BLACK
6
CONTINUOUS
10
5.00351
20
-3.54143
11
5.00397
21
-3.54196
0
LINE
8
BLACK
6
CONTINUOUS
10
5.00397
20
-3.54196
11
5.0055
21
-3.544
0
LINE
8
BLACK
6
CONTINUOUS
10
5.0055
20
-3.544
11
5.006
21
-3.5445
0
LINE
8
BLACK
6
CONTINUOUS
10
5.006
20
-3.5445
11
5.01001
21
-3.54751
0
LINE
8
BLACK
6
CONTINUOUS
10
5.01001
20
-3.54751
11
5.01063
21
-3.54785
0
LINE
8
BLACK
6
CONTINUOUS
10
5.01063
20
-3.54785
11
5.01537
21
-3.54963
0
LINE
8
BLACK
6
CONTINUOUS
10
5.01537
20
-3.54963
11
5.01597
21
-3.54977
0
LINE
8
BLACK
6
CONTINUOUS
10
5.01597
20
-3.54977
11
5.01797
21
-3.54999
0
LINE
8
BLACK
6
CONTINUOUS
10
5.01797
20
-3.54999
11
5.01824
21
-3.55
0
LINE
8
BLACK
6
CONTINUOUS
10
5.01824
20
-3.55
11
5.03929
21
-3.55
0
LINE
8
BLACK
6
CONTINUOUS
10
5.03929
20
-3.55
11
5.03989
21
-3.54982
0
LINE
8
BLACK
6
CONTINUOUS
10
5.03989
20
-3.54982
11
5.03993
21
-3.54977
0
LINE
8
BLACK
6
CONTINUOUS
10
5.03993
20
-3.54977
11
5.04
21
-3.54947
0
LINE
8
BLACK
6
CONTINUOUS
10
5.04
20
-3.54947
11
5.04
21
-3.53
0
LINE
8
BLACK
6
CONTINUOUS
10
5.04
20
-3.53
11
5.02
21
-3.53
0
LINE
8
BLACK
6
CONTINUOUS
10
4.92
20
-3.53
11
4.92
21
-3.51
0
LINE
8
BLACK
6
CONTINUOUS
10
4.92
20
-3.51
11
4.90071
21
-3.51
0
LINE
8
BLACK
6
CONTINUOUS
10
4.90071
20
-3.51
11
4.90011
21
-3.51018
0
LINE
8
BLACK
6
CONTINUOUS
10
4.90011
20
-3.51018
11
4.90007
21
-3.51023
0
LINE
8
BLACK
6
CONTINUOUS
10
4.90007
20
-3.51023
11
4.9
21
-3.51053
0
LINE
8
BLACK
6
CONTINUOUS
10
4.9
20
-3.51053
11
4.9
21
-3.53176
0
LINE
8
BLACK
6
CONTINUOUS
10
4.9
20
-3.53176
11
4.90001
21
-3.53203
0
LINE
8
BLACK
6
CONTINUOUS
10
4.90001
20
-3.53203
11
4.90023
21
-3.53403
0
LINE
8
BLACK
6
CONTINUOUS
10
4.90023
20
-3.53403
11
4.90037
21
-3.53463
0
LINE
8
BLACK
6
CONTINUOUS
10
4.90037
20
-3.53463
11
4.90215
21
-3.53937
0
LINE
8
BLACK
6
CONTINUOUS
10
4.90215
20
-3.53937
11
4.90249
21
-3.53999
0
LINE
8
BLACK
6
CONTINUOUS
10
4.90249
20
-3.53999
11
4.9055
21
-3.544
0
LINE
8
BLACK
6
CONTINUOUS
10
4.9055
20
-3.544
11
4.906
21
-3.5445
0
LINE
8
BLACK
6
CONTINUOUS
10
4.906
20
-3.5445
11
4.91001
21
-3.54751
0
LINE
8
BLACK
6
CONTINUOUS
10
4.91001
20
-3.54751
11
4.91063
21
-3.54785
0
LINE
8
BLACK
6
CONTINUOUS
10
4.91063
20
-3.54785
11
4.91537
21
-3.54963
0
LINE
8
BLACK
6
CONTINUOUS
10
4.91537
20
-3.54963
11
4.91597
21
-3.54977
0
LINE
8
BLACK
6
CONTINUOUS
10
4.91597
20
-3.54977
11
4.91797
21
-3.54999
0
LINE
8
BLACK
6
CONTINUOUS
10
4.91797
20
-3.54999
11
4.91824
21
-3.55
0
LINE
8
BLACK
6
CONTINUOUS
10
4.91824
20
-3.55
11
4.93929
21
-3.55
0
LINE
8
BLACK
6
CONTINUOUS
10
4.93929
20
-3.55
11
4.93989
21
-3.54982
0
LINE
8
BLACK
6
CONTINUOUS
10
4.93989
20
-3.54982
11
4.93993
21
-3.54977
0
LINE
8
BLACK
6
CONTINUOUS
10
4.93993
20
-3.54977
11
4.94
21
-3.54947
0
LINE
8
BLACK
6
CONTINUOUS
10
4.94
20
-3.54947
11
4.94
21
-3.53
0
LINE
8
BLACK
6
CONTINUOUS
10
4.94
20
-3.53
11
4.92
21
-3.53
0
LINE
8
BLACK
6
CONTINUOUS
10
6.12
20
-3.53
11
6.12
21
-3.51
0
LINE
8
BLACK
6
CONTINUOUS
10
6.12
20
-3.51
11
6.10071
21
-3.51
0
LINE
8
BLACK
6
CONTINUOUS
10
6.10071
20
-3.51
11
6.10011
21
-3.51018
0
LINE
8
BLACK
6
CONTINUOUS
10
6.10011
20
-3.51018
11
6.10007
21
-3.51023
0
LINE
8
BLACK
6
CONTINUOUS
10
6.10007
20
-3.51023
11
6.1
21
-3.51053
0
LINE
8
BLACK
6
CONTINUOUS
10
6.1
20
-3.51053
11
6.1
21
-3.53176
0
LINE
8
BLACK
6
CONTINUOUS
10
6.1
20
-3.53176
11
6.10001
21
-3.53203
0
LINE
8
BLACK
6
CONTINUOUS
10
6.10001
20
-3.53203
11
6.10023
21
-3.53403
0
LINE
8
BLACK
6
CONTINUOUS
10
6.10023
20
-3.53403
11
6.10037
21
-3.53463
0
LINE
8
BLACK
6
CONTINUOUS
10
6.10037
20
-3.53463
11
6.10215
21
-3.53937
0
LINE
8
BLACK
6
CONTINUOUS
10
6.10215
20
-3.53937
11
6.10249
21
-3.53999
0
LINE
8
BLACK
6
CONTINUOUS
10
6.10249
20
-3.53999
11
6.1055
21
-3.544
0
LINE
8
BLACK
6
CONTINUOUS
10
6.1055
20
-3.544
11
6.106
21
-3.5445
0
LINE
8
BLACK
6
CONTINUOUS
10
6.106
20
-3.5445
11
6.11001
21
-3.54751
0
LINE
8
BLACK
6
CONTINUOUS
10
6.11001
20
-3.54751
11
6.11063
21
-3.54785
0
LINE
8
BLACK
6
CONTINUOUS
10
6.11063
20
-3.54785
11
6.11537
21
-3.54963
0
LINE
8
BLACK
6
CONTINUOUS
10
6.11537
20
-3.54963
11
6.11597
21
-3.54977
0
LINE
8
BLACK
6
CONTINUOUS
10
6.11597
20
-3.54977
11
6.11797
21
-3.54999
0
LINE
8
BLACK
6
CONTINUOUS
10
6.11797
20
-3.54999
11
6.11824
21
-3.55
0
LINE
8
BLACK
6
CONTINUOUS
10
6.11824
20
-3.55
11
6.13929
21
-3.55
0
LINE
8
BLACK
6
CONTINUOUS
10
6.13929
20
-3.55
11
6.13989
21
-3.54982
0
LINE
8
BLACK
6
CONTINUOUS
10
6.13989
20
-3.54982
11
6.13993
21
-3.54977
0
LINE
8
BLACK
6
CONTINUOUS
10
6.13993
20
-3.54977
11
6.14
21
-3.54947
0
LINE
8
BLACK
6
CONTINUOUS
10
6.14
20
-3.54947
11
6.14
21
-3.53
0
LINE
8
BLACK
6
CONTINUOUS
10
6.14
20
-3.53
11
6.12
21
-3.53
0
LINE
8
BLACK
6
CONTINUOUS
10
4.90023
20
-3.48993
11
4.90053
21
-3.49
0
LINE
8
BLACK
6
CONTINUOUS
10
4.90053
20
-3.49
11
4.92
21
-3.49
0
LINE
8
BLACK
6
CONTINUOUS
10
4.92
20
-3.49
11
4.92
21
-3.47
0
LINE
8
BLACK
6
CONTINUOUS
10
4.92
20
-3.47
11
4.94
21
-3.47
0
LINE
8
BLACK
6
CONTINUOUS
10
4.94
20
-3.47
11
4.94
21
-3.45071
0
LINE
8
BLACK
6
CONTINUOUS
10
4.94
20
-3.45071
11
4.93982
21
-3.45011
0
LINE
8
BLACK
6
CONTINUOUS
10
4.93982
20
-3.45011
11
4.93977
21
-3.45007
0
LINE
8
BLACK
6
CONTINUOUS
10
4.93977
20
-3.45007
11
4.93947
21
-3.45
0
LINE
8
BLACK
6
CONTINUOUS
10
4.93947
20
-3.45
11
4.91824
21
-3.45
0
LINE
8
BLACK
6
CONTINUOUS
10
4.91824
20
-3.45
11
4.91797
21
-3.45001
0
LINE
8
BLACK
6
CONTINUOUS
10
4.91797
20
-3.45001
11
4.91597
21
-3.45023
0
LINE
8
BLACK
6
CONTINUOUS
10
4.91597
20
-3.45023
11
4.91537
21
-3.45037
0
LINE
8
BLACK
6
CONTINUOUS
10
4.91537
20
-3.45037
11
4.91063
21
-3.45215
0
LINE
8
BLACK
6
CONTINUOUS
10
4.91063
20
-3.45215
11
4.91001
21
-3.45249
0
LINE
8
BLACK
6
CONTINUOUS
10
4.91001
20
-3.45249
11
4.906
21
-3.4555
0
LINE
8
BLACK
6
CONTINUOUS
10
4.906
20
-3.4555
11
4.9055
21
-3.456
0
LINE
8
BLACK
6
CONTINUOUS
10
4.9055
20
-3.456
11
4.90249
21
-3.46001
0
LINE
8
BLACK
6
CONTINUOUS
10
4.90249
20
-3.46001
11
4.90215
21
-3.46063
0
LINE
8
BLACK
6
CONTINUOUS
10
4.90215
20
-3.46063
11
4.90037
21
-3.46537
0
LINE
8
BLACK
6
CONTINUOUS
10
4.90037
20
-3.46537
11
4.90023
21
-3.46597
0
LINE
8
BLACK
6
CONTINUOUS
10
4.90023
20
-3.46597
11
4.90001
21
-3.46797
0
LINE
8
BLACK
6
CONTINUOUS
10
4.90001
20
-3.46797
11
4.9
21
-3.46824
0
LINE
8
BLACK
6
CONTINUOUS
10
4.9
20
-3.46824
11
4.9
21
-3.48929
0
LINE
8
BLACK
6
CONTINUOUS
10
4.9
20
-3.48929
11
4.90018
21
-3.48989
0
LINE
8
BLACK
6
CONTINUOUS
10
4.90018
20
-3.48989
11
4.90023
21
-3.48993
0
LINE
8
BLACK
6
CONTINUOUS
10
6.10023
20
-3.48993
11
6.10053
21
-3.49
0
LINE
8
BLACK
6
CONTINUOUS
10
6.10053
20
-3.49
11
6.12
21
-3.49
0
LINE
8
BLACK
6
CONTINUOUS
10
6.12
20
-3.49
11
6.12
21
-3.47
0
LINE
8
BLACK
6
CONTINUOUS
10
6.12
20
-3.47
11
6.14
21
-3.47
0
LINE
8
BLACK
6
CONTINUOUS
10
6.14
20
-3.47
11
6.14
21
-3.45071
0
LINE
8
BLACK
6
CONTINUOUS
10
6.14
20
-3.45071
11
6.13982
21
-3.45011
0
LINE
8
BLACK
6
CONTINUOUS
10
6.13982
20
-3.45011
11
6.13977
21
-3.45007
0
LINE
8
BLACK
6
CONTINUOUS
10
6.13977
20
-3.45007
11
6.13947
21
-3.45
0
LINE
8
BLACK
6
CONTINUOUS
10
6.13947
20
-3.45
11
6.11824
21
-3.45
0
LINE
8
BLACK
6
CONTINUOUS
10
6.11824
20
-3.45
11
6.11797
21
-3.45001
0
LINE
8
BLACK
6
CONTINUOUS
10
6.11797
20
-3.45001
11
6.11597
21
-3.45023
0
LINE
8
BLACK
6
CONTINUOUS
10
6.11597
20
-3.45023
11
6.11537
21
-3.45037
0
LINE
8
BLACK
6
CONTINUOUS
10
6.11537
20
-3.45037
11
6.11063
21
-3.45215
0
LINE
8
BLACK
6
CONTINUOUS
10
6.11063
20
-3.45215
11
6.11001
21
-3.45249
0
LINE
8
BLACK
6
CONTINUOUS
10
6.11001
20
-3.45249
11
6.106
21
-3.4555
0
LINE
8
BLACK
6
CONTINUOUS
10
6.106
20
-3.4555
11
6.1055
21
-3.456
0
LINE
8
BLACK
6
CONTINUOUS
10
6.1055
20
-3.456
11
6.10249
21
-3.46001
0
LINE
8
BLACK
6
CONTINUOUS
10
6.10249
20
-3.46001
11
6.10215
21
-3.46063
0
LINE
8
BLACK
6
CONTINUOUS
10
6.10215
20
-3.46063
11
6.10037
21
-3.46537
0
LINE
8
BLACK
6
CONTINUOUS
10
6.10037
20
-3.46537
11
6.10023
21
-3.46597
0
LINE
8
BLACK
6
CONTINUOUS
10
6.10023
20
-3.46597
11
6.10001
21
-3.46797
0
LINE
8
BLACK
6
CONTINUOUS
10
6.10001
20
-3.46797
11
6.1
21
-3.46824
0
LINE
8
BLACK
6
CONTINUOUS
10
6.1
20
-3.46824
11
6.1
21
-3.48929
0
LINE
8
BLACK
6
CONTINUOUS
10
6.1
20
-3.48929
11
6.10018
21
-3.48989
0
LINE
8
BLACK
6
CONTINUOUS
10
6.10018
20
-3.48989
11
6.10023
21
-3.48993
0
LINE
8
BLACK
6
CONTINUOUS
10
6.21056
20
-3.43391
11
6.21278
21
-3.43722
0
LINE
8
BLACK
6
CONTINUOUS
10
6.21278
20
-3.43722
11
6.21609
21
-3.43944
0
LINE
8
BLACK
6
CONTINUOUS
10
6.21609
20
-3.43944
11
6.21901
21
-3.44002
0
LINE
8
BLACK
6
CONTINUOUS
10
6.21901
20
-3.44002
11
6.24999
21
-3.44002
0
LINE
8
BLACK
6
CONTINUOUS
10
6.24999
20
-3.44002
11
6.28099
21
-3.44002
0
LINE
8
BLACK
6
CONTINUOUS
10
6.28099
20
-3.44002
11
6.28239
21
-3.43974
0
LINE
8
BLACK
6
CONTINUOUS
10
6.28239
20
-3.43974
11
6.28343
21
-3.43953
0
LINE
8
BLACK
6
CONTINUOUS
10
6.28343
20
-3.43953
11
6.28343
21
-3.43953
0
LINE
8
BLACK
6
CONTINUOUS
10
6.28343
20
-3.43953
11
6.28391
21
-3.43944
0
LINE
8
BLACK
6
CONTINUOUS
10
6.28391
20
-3.43944
11
6.28432
21
-3.43917
0
LINE
8
BLACK
6
CONTINUOUS
10
6.28432
20
-3.43917
11
6.28432
21
-3.43917
0
LINE
8
BLACK
6
CONTINUOUS
10
6.28432
20
-3.43917
11
6.28682
21
-3.4375
0
LINE
8
BLACK
6
CONTINUOUS
10
6.28682
20
-3.4375
11
6.28722
21
-3.43722
0
LINE
8
BLACK
6
CONTINUOUS
10
6.28722
20
-3.43722
11
6.28944
21
-3.43391
0
LINE
8
BLACK
6
CONTINUOUS
10
6.28944
20
-3.43391
11
6.29002
21
-3.43099
0
LINE
8
BLACK
6
CONTINUOUS
10
6.29002
20
-3.43099
11
6.29002
21
-3.36901
0
LINE
8
BLACK
6
CONTINUOUS
10
6.29002
20
-3.36901
11
6.28944
21
-3.36609
0
LINE
8
BLACK
6
CONTINUOUS
10
6.28944
20
-3.36609
11
6.28722
21
-3.36278
0
LINE
8
BLACK
6
CONTINUOUS
10
6.28722
20
-3.36278
11
6.28391
21
-3.36056
0
LINE
8
BLACK
6
CONTINUOUS
10
6.28391
20
-3.36056
11
6.28099
21
-3.35998
0
LINE
8
BLACK
6
CONTINUOUS
10
6.28099
20
-3.35998
11
6.25001
21
-3.35998
0
LINE
8
BLACK
6
CONTINUOUS
10
6.25001
20
-3.35998
11
6.21901
21
-3.35998
0
LINE
8
BLACK
6
CONTINUOUS
10
6.21901
20
-3.35998
11
6.21761
21
-3.36026
0
LINE
8
BLACK
6
CONTINUOUS
10
6.21761
20
-3.36026
11
6.21657
21
-3.36047
0
LINE
8
BLACK
6
CONTINUOUS
10
6.21657
20
-3.36047
11
6.21657
21
-3.36047
0
LINE
8
BLACK
6
CONTINUOUS
10
6.21657
20
-3.36047
11
6.21609
21
-3.36056
0
LINE
8
BLACK
6
CONTINUOUS
10
6.21609
20
-3.36056
11
6.21568
21
-3.36083
0
LINE
8
BLACK
6
CONTINUOUS
10
6.21568
20
-3.36083
11
6.21568
21
-3.36083
0
LINE
8
BLACK
6
CONTINUOUS
10
6.21568
20
-3.36083
11
6.21331
21
-3.36242
0
LINE
8
BLACK
6
CONTINUOUS
10
6.21331
20
-3.36242
11
6.21278
21
-3.36278
0
LINE
8
BLACK
6
CONTINUOUS
10
6.21278
20
-3.36278
11
6.21056
21
-3.36609
0
LINE
8
BLACK
6
CONTINUOUS
10
6.21056
20
-3.36609
11
6.20998
21
-3.36901
0
LINE
8
BLACK
6
CONTINUOUS
10
6.20998
20
-3.36901
11
6.20998
21
-3.43099
0
LINE
8
BLACK
6
CONTINUOUS
10
6.20998
20
-3.43099
11
6.21056
21
-3.43391
0
LINE
8
BLACK
6
CONTINUOUS
10
5.01056
20
-3.43391
11
5.01278
21
-3.43722
0
LINE
8
BLACK
6
CONTINUOUS
10
5.01278
20
-3.43722
11
5.01609
21
-3.43944
0
LINE
8
BLACK
6
CONTINUOUS
10
5.01609
20
-3.43944
11
5.01901
21
-3.44002
0
LINE
8
BLACK
6
CONTINUOUS
10
5.01901
20
-3.44002
11
5.04999
21
-3.44002
0
LINE
8
BLACK
6
CONTINUOUS
10
5.04999
20
-3.44002
11
5.08099
21
-3.44002
0
LINE
8
BLACK
6
CONTINUOUS
10
5.08099
20
-3.44002
11
5.08239
21
-3.43974
0
LINE
8
BLACK
6
CONTINUOUS
10
5.08239
20
-3.43974
11
5.08343
21
-3.43953
0
LINE
8
BLACK
6
CONTINUOUS
10
5.08343
20
-3.43953
11
5.08343
21
-3.43953
0
LINE
8
BLACK
6
CONTINUOUS
10
5.08343
20
-3.43953
11
5.08391
21
-3.43944
0
LINE
8
BLACK
6
CONTINUOUS
10
5.08391
20
-3.43944
11
5.08432
21
-3.43917
0
LINE
8
BLACK
6
CONTINUOUS
10
5.08432
20
-3.43917
11
5.08432
21
-3.43917
0
LINE
8
BLACK
6
CONTINUOUS
10
5.08432
20
-3.43917
11
5.08682
21
-3.4375
0
LINE
8
BLACK
6
CONTINUOUS
10
5.08682
20
-3.4375
11
5.08722
21
-3.43722
0
LINE
8
BLACK
6
CONTINUOUS
10
5.08722
20
-3.43722
11
5.08944
21
-3.43391
0
LINE
8
BLACK
6
CONTINUOUS
10
5.08944
20
-3.43391
11
5.09002
21
-3.43099
0
LINE
8
BLACK
6
CONTINUOUS
10
5.09002
20
-3.43099
11
5.09002
21
-3.36901
0
LINE
8
BLACK
6
CONTINUOUS
10
5.09002
20
-3.36901
11
5.08944
21
-3.36609
0
LINE
8
BLACK
6
CONTINUOUS
10
5.08944
20
-3.36609
11
5.08722
21
-3.36278
0
LINE
8
BLACK
6
CONTINUOUS
10
5.08722
20
-3.36278
11
5.08391
21
-3.36056
0
LINE
8
BLACK
6
CONTINUOUS
10
5.08391
20
-3.36056
11
5.08099
21
-3.35998
0
LINE
8
BLACK
6
CONTINUOUS
10
5.08099
20
-3.35998
11
5.05001
21
-3.35998
0
LINE
8
BLACK
6
CONTINUOUS
10
5.05001
20
-3.35998
11
5.01901
21
-3.35998
0
LINE
8
BLACK
6
CONTINUOUS
10
5.01901
20
-3.35998
11
5.01761
21
-3.36026
0
LINE
8
BLACK
6
CONTINUOUS
10
5.01761
20
-3.36026
11
5.01657
21
-3.36047
0
LINE
8
BLACK
6
CONTINUOUS
10
5.01657
20
-3.36047
11
5.01657
21
-3.36047
0
LINE
8
BLACK
6
CONTINUOUS
10
5.01657
20
-3.36047
11
5.01609
21
-3.36056
0
LINE
8
BLACK
6
CONTINUOUS
10
5.01609
20
-3.36056
11
5.01568
21
-3.36083
0
LINE
8
BLACK
6
CONTINUOUS
10
5.01568
20
-3.36083
11
5.01568
21
-3.36083
0
LINE
8
BLACK
6
CONTINUOUS
10
5.01568
20
-3.36083
11
5.01331
21
-3.36242
0
LINE
8
BLACK
6
CONTINUOUS
10
5.01331
20
-3.36242
11
5.01278
21
-3.36278
0
LINE
8
BLACK
6
CONTINUOUS
10
5.01278
20
-3.36278
11
5.01056
21
-3.36609
0
LINE
8
BLACK
6
CONTINUOUS
10
5.01056
20
-3.36609
11
5.00998
21
-3.36901
0
LINE
8
BLACK
6
CONTINUOUS
10
5.00998
20
-3.36901
11
5.00998
21
-3.43099
0
LINE
8
BLACK
6
CONTINUOUS
10
5.00998
20
-3.43099
11
5.01056
21
-3.43391
0
LINE
8
BLACK
6
CONTINUOUS
10
5.06023
20
-3.34993
11
5.06053
21
-3.35
0
LINE
8
BLACK
6
CONTINUOUS
10
5.06053
20
-3.35
11
5.08176
21
-3.35
0
LINE
8
BLACK
6
CONTINUOUS
10
5.08176
20
-3.35
11
5.08203
21
-3.34999
0
LINE
8
BLACK
6
CONTINUOUS
10
5.08203
20
-3.34999
11
5.08403
21
-3.34977
0
LINE
8
BLACK
6
CONTINUOUS
10
5.08403
20
-3.34977
11
5.08463
21
-3.34963
0
LINE
8
BLACK
6
CONTINUOUS
10
5.08463
20
-3.34963
11
5.08937
21
-3.34785
0
LINE
8
BLACK
6
CONTINUOUS
10
5.08937
20
-3.34785
11
5.08999
21
-3.34751
0
LINE
8
BLACK
6
CONTINUOUS
10
5.08999
20
-3.34751
11
5.094
21
-3.3445
0
LINE
8
BLACK
6
CONTINUOUS
10
5.094
20
-3.3445
11
5.0945
21
-3.344
0
LINE
8
BLACK
6
CONTINUOUS
10
5.0945
20
-3.344
11
5.09751
21
-3.33999
0
LINE
8
BLACK
6
CONTINUOUS
10
5.09751
20
-3.33999
11
5.09785
21
-3.33937
0
LINE
8
BLACK
6
CONTINUOUS
10
5.09785
20
-3.33937
11
5.09963
21
-3.33463
0
LINE
8
BLACK
6
CONTINUOUS
10
5.09963
20
-3.33463
11
5.09977
21
-3.33403
0
LINE
8
BLACK
6
CONTINUOUS
10
5.09977
20
-3.33403
11
5.09999
21
-3.33203
0
LINE
8
BLACK
6
CONTINUOUS
10
5.09999
20
-3.33203
11
5.1
21
-3.33176
0
LINE
8
BLACK
6
CONTINUOUS
10
5.1
20
-3.33176
11
5.1
21
-3.31071
0
LINE
8
BLACK
6
CONTINUOUS
10
5.1
20
-3.31071
11
5.09982
21
-3.31011
0
LINE
8
BLACK
6
CONTINUOUS
10
5.09982
20
-3.31011
11
5.09977
21
-3.31007
0
LINE
8
BLACK
6
CONTINUOUS
10
5.09977
20
-3.31007
11
5.09947
21
-3.31
0
LINE
8
BLACK
6
CONTINUOUS
10
5.09947
20
-3.31
11
5.08
21
-3.31
0
LINE
8
BLACK
6
CONTINUOUS
10
5.08
20
-3.31
11
5.08
21
-3.33
0
LINE
8
BLACK
6
CONTINUOUS
10
5.08
20
-3.33
11
5.06
21
-3.33
0
LINE
8
BLACK
6
CONTINUOUS
10
5.06
20
-3.33
11
5.06
21
-3.34929
0
LINE
8
BLACK
6
CONTINUOUS
10
5.06
20
-3.34929
11
5.06018
21
-3.34989
0
LINE
8
BLACK
6
CONTINUOUS
10
5.06018
20
-3.34989
11
5.06023
21
-3.34993
0
LINE
8
BLACK
6
CONTINUOUS
10
4.91056
20
-3.43391
11
4.91278
21
-3.43722
0
LINE
8
BLACK
6
CONTINUOUS
10
4.91278
20
-3.43722
11
4.91609
21
-3.43944
0
LINE
8
BLACK
6
CONTINUOUS
10
4.91609
20
-3.43944
11
4.91901
21
-3.44002
0
LINE
8
BLACK
6
CONTINUOUS
10
4.91901
20
-3.44002
11
4.94999
21
-3.44002
0
LINE
8
BLACK
6
CONTINUOUS
10
4.94999
20
-3.44002
11
4.98099
21
-3.44002
0
LINE
8
BLACK
6
CONTINUOUS
10
4.98099
20
-3.44002
11
4.98239
21
-3.43974
0
LINE
8
BLACK
6
CONTINUOUS
10
4.98239
20
-3.43974
11
4.98343
21
-3.43953
0
LINE
8
BLACK
6
CONTINUOUS
10
4.98343
20
-3.43953
11
4.98343
21
-3.43953
0
LINE
8
BLACK
6
CONTINUOUS
10
4.98343
20
-3.43953
11
4.98391
21
-3.43944
0
LINE
8
BLACK
6
CONTINUOUS
10
4.98391
20
-3.43944
11
4.98432
21
-3.43917
0
LINE
8
BLACK
6
CONTINUOUS
10
4.98432
20
-3.43917
11
4.98432
21
-3.43917
0
LINE
8
BLACK
6
CONTINUOUS
10
4.98432
20
-3.43917
11
4.98682
21
-3.4375
0
LINE
8
BLACK
6
CONTINUOUS
10
4.98682
20
-3.4375
11
4.98722
21
-3.43722
0
LINE
8
BLACK
6
CONTINUOUS
10
4.98722
20
-3.43722
11
4.98944
21
-3.43391
0
LINE
8
BLACK
6
CONTINUOUS
10
4.98944
20
-3.43391
11
4.99002
21
-3.43099
0
LINE
8
BLACK
6
CONTINUOUS
10
4.99002
20
-3.43099
11
4.99002
21
-3.36901
0
LINE
8
BLACK
6
CONTINUOUS
10
4.99002
20
-3.36901
11
4.99002
21
-3.36901
0
LINE
8
BLACK
6
CONTINUOUS
10
4.99002
20
-3.36901
11
4.98944
21
-3.36609
0
LINE
8
BLACK
6
CONTINUOUS
10
4.98944
20
-3.36609
11
4.98722
21
-3.36278
0
LINE
8
BLACK
6
CONTINUOUS
10
4.98722
20
-3.36278
11
4.98391
21
-3.36056
0
LINE
8
BLACK
6
CONTINUOUS
10
4.98391
20
-3.36056
11
4.98099
21
-3.35998
0
LINE
8
BLACK
6
CONTINUOUS
10
4.98099
20
-3.35998
11
4.95001
21
-3.35998
0
LINE
8
BLACK
6
CONTINUOUS
10
4.95001
20
-3.35998
11
4.91901
21
-3.35998
0
LINE
8
BLACK
6
CONTINUOUS
10
4.91901
20
-3.35998
11
4.91761
21
-3.36026
0
LINE
8
BLACK
6
CONTINUOUS
10
4.91761
20
-3.36026
11
4.91657
21
-3.36047
0
LINE
8
BLACK
6
CONTINUOUS
10
4.91657
20
-3.36047
11
4.91657
21
-3.36047
0
LINE
8
BLACK
6
CONTINUOUS
10
4.91657
20
-3.36047
11
4.91609
21
-3.36056
0
LINE
8
BLACK
6
CONTINUOUS
10
4.91609
20
-3.36056
11
4.91568
21
-3.36083
0
LINE
8
BLACK
6
CONTINUOUS
10
4.91568
20
-3.36083
11
4.91568
21
-3.36083
0
LINE
8
BLACK
6
CONTINUOUS
10
4.91568
20
-3.36083
11
4.91331
21
-3.36242
0
LINE
8
BLACK
6
CONTINUOUS
10
4.91331
20
-3.36242
11
4.91278
21
-3.36278
0
LINE
8
BLACK
6
CONTINUOUS
10
4.91278
20
-3.36278
11
4.91056
21
-3.36609
0
LINE
8
BLACK
6
CONTINUOUS
10
4.91056
20
-3.36609
11
4.90998
21
-3.36901
0
LINE
8
BLACK
6
CONTINUOUS
10
4.90998
20
-3.36901
11
4.90998
21
-3.43099
0
LINE
8
BLACK
6
CONTINUOUS
10
4.90998
20
-3.43099
11
4.91056
21
-3.43391
0
LINE
8
BLACK
6
CONTINUOUS
10
6.18722
20
-3.36278
11
6.18391
21
-3.36056
0
LINE
8
BLACK
6
CONTINUOUS
10
6.18391
20
-3.36056
11
6.18099
21
-3.35998
0
LINE
8
BLACK
6
CONTINUOUS
10
6.18099
20
-3.35998
11
6.15001
21
-3.35998
0
LINE
8
BLACK
6
CONTINUOUS
10
6.15001
20
-3.35998
11
6.11901
21
-3.35998
0
LINE
8
BLACK
6
CONTINUOUS
10
6.11901
20
-3.35998
11
6.11761
21
-3.36026
0
LINE
8
BLACK
6
CONTINUOUS
10
6.11761
20
-3.36026
11
6.11657
21
-3.36047
0
LINE
8
BLACK
6
CONTINUOUS
10
6.11657
20
-3.36047
11
6.11657
21
-3.36047
0
LINE
8
BLACK
6
CONTINUOUS
10
6.11657
20
-3.36047
11
6.11609
21
-3.36056
0
LINE
8
BLACK
6
CONTINUOUS
10
6.11609
20
-3.36056
11
6.11568
21
-3.36083
0
LINE
8
BLACK
6
CONTINUOUS
10
6.11568
20
-3.36083
11
6.11568
21
-3.36083
0
LINE
8
BLACK
6
CONTINUOUS
10
6.11568
20
-3.36083
11
6.11331
21
-3.36242
0
LINE
8
BLACK
6
CONTINUOUS
10
6.11331
20
-3.36242
11
6.11278
21
-3.36278
0
LINE
8
BLACK
6
CONTINUOUS
10
6.11278
20
-3.36278
11
6.11056
21
-3.36609
0
LINE
8
BLACK
6
CONTINUOUS
10
6.11056
20
-3.36609
11
6.10998
21
-3.36901
0
LINE
8
BLACK
6
CONTINUOUS
10
6.10998
20
-3.36901
11
6.10998
21
-3.43099
0
LINE
8
BLACK
6
CONTINUOUS
10
6.10998
20
-3.43099
11
6.11056
21
-3.43391
0
LINE
8
BLACK
6
CONTINUOUS
10
6.11056
20
-3.43391
11
6.11278
21
-3.43722
0
LINE
8
BLACK
6
CONTINUOUS
10
6.11278
20
-3.43722
11
6.11609
21
-3.43944
0
LINE
8
BLACK
6
CONTINUOUS
10
6.11609
20
-3.43944
11
6.11901
21
-3.44002
0
LINE
8
BLACK
6
CONTINUOUS
10
6.11901
20
-3.44002
11
6.14999
21
-3.44002
0
LINE
8
BLACK
6
CONTINUOUS
10
6.14999
20
-3.44002
11
6.18099
21
-3.44002
0
LINE
8
BLACK
6
CONTINUOUS
10
6.18099
20
-3.44002
11
6.18239
21
-3.43974
0
LINE
8
BLACK
6
CONTINUOUS
10
6.18239
20
-3.43974
11
6.18343
21
-3.43953
0
LINE
8
BLACK
6
CONTINUOUS
10
6.18343
20
-3.43953
11
6.18343
21
-3.43953
0
LINE
8
BLACK
6
CONTINUOUS
10
6.18343
20
-3.43953
11
6.18391
21
-3.43944
0
LINE
8
BLACK
6
CONTINUOUS
10
6.18391
20
-3.43944
11
6.18432
21
-3.43917
0
LINE
8
BLACK
6
CONTINUOUS
10
6.18432
20
-3.43917
11
6.18432
21
-3.43917
0
LINE
8
BLACK
6
CONTINUOUS
10
6.18432
20
-3.43917
11
6.18682
21
-3.4375
0
LINE
8
BLACK
6
CONTINUOUS
10
6.18682
20
-3.4375
11
6.18722
21
-3.43722
0
LINE
8
BLACK
6
CONTINUOUS
10
6.18722
20
-3.43722
11
6.18944
21
-3.43391
0
LINE
8
BLACK
6
CONTINUOUS
10
6.18944
20
-3.43391
11
6.19002
21
-3.43099
0
LINE
8
BLACK
6
CONTINUOUS
10
6.19002
20
-3.43099
11
6.19002
21
-3.36901
0
LINE
8
BLACK
6
CONTINUOUS
10
6.19002
20
-3.36901
11
6.19002
21
-3.36901
0
LINE
8
BLACK
6
CONTINUOUS
10
6.19002
20
-3.36901
11
6.18944
21
-3.36609
0
LINE
8
BLACK
6
CONTINUOUS
10
6.18944
20
-3.36609
11
6.18722
21
-3.36278
0
LINE
8
BLACK
6
CONTINUOUS
10
6.26023
20
-3.34993
11
6.26053
21
-3.35
0
LINE
8
BLACK
6
CONTINUOUS
10
6.26053
20
-3.35
11
6.28176
21
-3.35
0
LINE
8
BLACK
6
CONTINUOUS
10
6.28176
20
-3.35
11
6.28203
21
-3.34999
0
LINE
8
BLACK
6
CONTINUOUS
10
6.28203
20
-3.34999
11
6.28403
21
-3.34977
0
LINE
8
BLACK
6
CONTINUOUS
10
6.28403
20
-3.34977
11
6.28463
21
-3.34963
0
LINE
8
BLACK
6
CONTINUOUS
10
6.28463
20
-3.34963
11
6.28937
21
-3.34785
0
LINE
8
BLACK
6
CONTINUOUS
10
6.28937
20
-3.34785
11
6.28999
21
-3.34751
0
LINE
8
BLACK
6
CONTINUOUS
10
6.28999
20
-3.34751
11
6.294
21
-3.3445
0
LINE
8
BLACK
6
CONTINUOUS
10
6.294
20
-3.3445
11
6.2945
21
-3.344
0
LINE
8
BLACK
6
CONTINUOUS
10
6.2945
20
-3.344
11
6.29751
21
-3.33999
0
LINE
8
BLACK
6
CONTINUOUS
10
6.29751
20
-3.33999
11
6.29785
21
-3.33937
0
LINE
8
BLACK
6
CONTINUOUS
10
6.29785
20
-3.33937
11
6.29963
21
-3.33463
0
LINE
8
BLACK
6
CONTINUOUS
10
6.29963
20
-3.33463
11
6.29977
21
-3.33403
0
LINE
8
BLACK
6
CONTINUOUS
10
6.29977
20
-3.33403
11
6.29999
21
-3.33203
0
LINE
8
BLACK
6
CONTINUOUS
10
6.29999
20
-3.33203
11
6.3
21
-3.33176
0
LINE
8
BLACK
6
CONTINUOUS
10
6.3
20
-3.33176
11
6.3
21
-3.31071
0
LINE
8
BLACK
6
CONTINUOUS
10
6.3
20
-3.31071
11
6.29982
21
-3.31011
0
LINE
8
BLACK
6
CONTINUOUS
10
6.29982
20
-3.31011
11
6.29977
21
-3.31007
0
LINE
8
BLACK
6
CONTINUOUS
10
6.29977
20
-3.31007
11
6.29947
21
-3.31
0
LINE
8
BLACK
6
CONTINUOUS
10
6.29947
20
-3.31
11
6.28
21
-3.31
0
LINE
8
BLACK
6
CONTINUOUS
10
6.28
20
-3.31
11
6.28
21
-3.33
0
LINE
8
BLACK
6
CONTINUOUS
10
6.28
20
-3.33
11
6.26
21
-3.33
0
LINE
8
BLACK
6
CONTINUOUS
10
6.26
20
-3.33
11
6.26
21
-3.34929
0
LINE
8
BLACK
6
CONTINUOUS
10
6.26
20
-3.34929
11
6.26018
21
-3.34989
0
LINE
8
BLACK
6
CONTINUOUS
10
6.26018
20
-3.34989
11
6.26023
21
-3.34993
0
LINE
8
BLACK
6
CONTINUOUS
10
6.22
20
-3.33
11
6.22
21
-3.31
0
LINE
8
BLACK
6
CONTINUOUS
10
6.22
20
-3.31
11
6.18
21
-3.31
0
LINE
8
BLACK
6
CONTINUOUS
10
6.18
20
-3.31
11
6.18
21
-3.33
0
LINE
8
BLACK
6
CONTINUOUS
10
6.18
20
-3.33
11
6.16
21
-3.33
0
LINE
8
BLACK
6
CONTINUOUS
10
6.16
20
-3.33
11
6.16
21
-3.34929
0
LINE
8
BLACK
6
CONTINUOUS
10
6.16
20
-3.34929
11
6.16018
21
-3.34989
0
LINE
8
BLACK
6
CONTINUOUS
10
6.16018
20
-3.34989
11
6.16023
21
-3.34993
0
LINE
8
BLACK
6
CONTINUOUS
10
6.16023
20
-3.34993
11
6.16053
21
-3.35
0
LINE
8
BLACK
6
CONTINUOUS
10
6.16053
20
-3.35
11
6.18176
21
-3.35
0
LINE
8
BLACK
6
CONTINUOUS
10
6.18176
20
-3.35
11
6.18203
21
-3.34999
0
LINE
8
BLACK
6
CONTINUOUS
10
6.18203
20
-3.34999
11
6.18403
21
-3.34977
0
LINE
8
BLACK
6
CONTINUOUS
10
6.18403
20
-3.34977
11
6.18463
21
-3.34963
0
LINE
8
BLACK
6
CONTINUOUS
10
6.18463
20
-3.34963
11
6.18937
21
-3.34785
0
LINE
8
BLACK
6
CONTINUOUS
10
6.18937
20
-3.34785
11
6.18999
21
-3.34751
0
LINE
8
BLACK
6
CONTINUOUS
10
6.18999
20
-3.34751
11
6.194
21
-3.3445
0
LINE
8
BLACK
6
CONTINUOUS
10
6.194
20
-3.3445
11
6.1945
21
-3.344
0
LINE
8
BLACK
6
CONTINUOUS
10
6.1945
20
-3.344
11
6.19603
21
-3.34196
0
LINE
8
BLACK
6
CONTINUOUS
10
6.19603
20
-3.34196
11
6.19827
21
-3.34029
0
LINE
8
BLACK
6
CONTINUOUS
10
6.19827
20
-3.34029
11
6.20106
21
-3.34009
0
LINE
8
BLACK
6
CONTINUOUS
10
6.20106
20
-3.34009
11
6.20351
21
-3.34143
0
LINE
8
BLACK
6
CONTINUOUS
10
6.20351
20
-3.34143
11
6.20397
21
-3.34196
0
LINE
8
BLACK
6
CONTINUOUS
10
6.20397
20
-3.34196
11
6.2055
21
-3.344
0
LINE
8
BLACK
6
CONTINUOUS
10
6.2055
20
-3.344
11
6.206
21
-3.3445
0
LINE
8
BLACK
6
CONTINUOUS
10
6.206
20
-3.3445
11
6.21001
21
-3.34751
0
LINE
8
BLACK
6
CONTINUOUS
10
6.21001
20
-3.34751
11
6.21063
21
-3.34785
0
LINE
8
BLACK
6
CONTINUOUS
10
6.21063
20
-3.34785
11
6.21537
21
-3.34963
0
LINE
8
BLACK
6
CONTINUOUS
10
6.21537
20
-3.34963
11
6.21597
21
-3.34977
0
LINE
8
BLACK
6
CONTINUOUS
10
6.21597
20
-3.34977
11
6.21797
21
-3.34999
0
LINE
8
BLACK
6
CONTINUOUS
10
6.21797
20
-3.34999
11
6.21824
21
-3.35
0
LINE
8
BLACK
6
CONTINUOUS
10
6.21824
20
-3.35
11
6.23929
21
-3.35
0
LINE
8
BLACK
6
CONTINUOUS
10
6.23929
20
-3.35
11
6.23989
21
-3.34982
0
LINE
8
BLACK
6
CONTINUOUS
10
6.23989
20
-3.34982
11
6.23993
21
-3.34977
0
LINE
8
BLACK
6
CONTINUOUS
10
6.23993
20
-3.34977
11
6.24
21
-3.34947
0
LINE
8
BLACK
6
CONTINUOUS
10
6.24
20
-3.34947
11
6.24
21
-3.33
0
LINE
8
BLACK
6
CONTINUOUS
10
6.24
20
-3.33
11
6.22
21
-3.33
0
LINE
8
BLACK
6
CONTINUOUS
10
4.92
20
-3.33
11
4.92
21
-3.31
0
LINE
8
BLACK
6
CONTINUOUS
10
4.92
20
-3.31
11
4.90071
21
-3.31
0
LINE
8
BLACK
6
CONTINUOUS
10
4.90071
20
-3.31
11
4.90011
21
-3.31018
0
LINE
8
BLACK
6
CONTINUOUS
10
4.90011
20
-3.31018
11
4.90007
21
-3.31023
0
LINE
8
BLACK
6
CONTINUOUS
10
4.90007
20
-3.31023
11
4.9
21
-3.31053
0
LINE
8
BLACK
6
CONTINUOUS
10
4.9
20
-3.31053
11
4.9
21
-3.33176
0
LINE
8
BLACK
6
CONTINUOUS
10
4.9
20
-3.33176
11
4.90001
21
-3.33203
0
LINE
8
BLACK
6
CONTINUOUS
10
4.90001
20
-3.33203
11
4.90023
21
-3.33403
0
LINE
8
BLACK
6
CONTINUOUS
10
4.90023
20
-3.33403
11
4.90037
21
-3.33463
0
LINE
8
BLACK
6
CONTINUOUS
10
4.90037
20
-3.33463
11
4.90215
21
-3.33937
0
LINE
8
BLACK
6
CONTINUOUS
10
4.90215
20
-3.33937
11
4.90249
21
-3.33999
0
LINE
8
BLACK
6
CONTINUOUS
10
4.90249
20
-3.33999
11
4.9055
21
-3.344
0
LINE
8
BLACK
6
CONTINUOUS
10
4.9055
20
-3.344
11
4.906
21
-3.3445
0
LINE
8
BLACK
6
CONTINUOUS
10
4.906
20
-3.3445
11
4.91001
21
-3.34751
0
LINE
8
BLACK
6
CONTINUOUS
10
4.91001
20
-3.34751
11
4.91063
21
-3.34785
0
LINE
8
BLACK
6
CONTINUOUS
10
4.91063
20
-3.34785
11
4.91537
21
-3.34963
0
LINE
8
BLACK
6
CONTINUOUS
10
4.91537
20
-3.34963
11
4.91597
21
-3.34977
0
LINE
8
BLACK
6
CONTINUOUS
10
4.91597
20
-3.34977
11
4.91797
21
-3.34999
0
LINE
8
BLACK
6
CONTINUOUS
10
4.91797
20
-3.34999
11
4.91824
21
-3.35
0
LINE
8
BLACK
6
CONTINUOUS
10
4.91824
20
-3.35
11
4.93929
21
-3.35
0
LINE
8
BLACK
6
CONTINUOUS
10
4.93929
20
-3.35
11
4.93989
21
-3.34982
0
LINE
8
BLACK
6
CONTINUOUS
10
4.93989
20
-3.34982
11
4.93993
21
-3.34977
0
LINE
8
BLACK
6
CONTINUOUS
10
4.93993
20
-3.34977
11
4.94
21
-3.34947
0
LINE
8
BLACK
6
CONTINUOUS
10
4.94
20
-3.34947
11
4.94
21
-3.33
0
LINE
8
BLACK
6
CONTINUOUS
10
4.94
20
-3.33
11
4.92
21
-3.33
0
LINE
8
BLACK
6
CONTINUOUS
10
6.12
20
-3.33
11
6.12
21
-3.31
0
LINE
8
BLACK
6
CONTINUOUS
10
6.12
20
-3.31
11
6.10071
21
-3.31
0
LINE
8
BLACK
6
CONTINUOUS
10
6.10071
20
-3.31
11
6.10011
21
-3.31018
0
LINE
8
BLACK
6
CONTINUOUS
10
6.10011
20
-3.31018
11
6.10007
21
-3.31023
0
LINE
8
BLACK
6
CONTINUOUS
10
6.10007
20
-3.31023
11
6.1
21
-3.31053
0
LINE
8
BLACK
6
CONTINUOUS
10
6.1
20
-3.31053
11
6.1
21
-3.33176
0
LINE
8
BLACK
6
CONTINUOUS
10
6.1
20
-3.33176
11
6.10001
21
-3.33203
0
LINE
8
BLACK
6
CONTINUOUS
10
6.10001
20
-3.33203
11
6.10023
21
-3.33403
0
LINE
8
BLACK
6
CONTINUOUS
10
6.10023
20
-3.33403
11
6.10037
21
-3.33463
0
LINE
8
BLACK
6
CONTINUOUS
10
6.10037
20
-3.33463
11
6.10215
21
-3.33937
0
LINE
8
BLACK
6
CONTINUOUS
10
6.10215
20
-3.33937
11
6.10249
21
-3.33999
0
LINE
8
BLACK
6
CONTINUOUS
10
6.10249
20
-3.33999
11
6.1055
21
-3.344
0
LINE
8
BLACK
6
CONTINUOUS
10
6.1055
20
-3.344
11
6.106
21
-3.3445
0
LINE
8
BLACK
6
CONTINUOUS
10
6.106
20
-3.3445
11
6.11001
21
-3.34751
0
LINE
8
BLACK
6
CONTINUOUS
10
6.11001
20
-3.34751
11
6.11063
21
-3.34785
0
LINE
8
BLACK
6
CONTINUOUS
10
6.11063
20
-3.34785
11
6.11537
21
-3.34963
0
LINE
8
BLACK
6
CONTINUOUS
10
6.11537
20
-3.34963
11
6.11597
21
-3.34977
0
LINE
8
BLACK
6
CONTINUOUS
10
6.11597
20
-3.34977
11
6.11797
21
-3.34999
0
LINE
8
BLACK
6
CONTINUOUS
10
6.11797
20
-3.34999
11
6.11824
21
-3.35
0
LINE
8
BLACK
6
CONTINUOUS
10
6.11824
20
-3.35
11
6.13929
21
-3.35
0
LINE
8
BLACK
6
CONTINUOUS
10
6.13929
20
-3.35
11
6.13989
21
-3.34982
0
LINE
8
BLACK
6
CONTINUOUS
10
6.13989
20
-3.34982
11
6.13993
21
-3.34977
0
LINE
8
BLACK
6
CONTINUOUS
10
6.13993
20
-3.34977
11
6.14
21
-3.34947
0
LINE
8
BLACK
6
CONTINUOUS
10
6.14
20
-3.34947
11
6.14
21
-3.33
0
LINE
8
BLACK
6
CONTINUOUS
10
6.14
20
-3.33
11
6.12
21
-3.33
0
LINE
8
BLACK
6
CONTINUOUS
10
4.96023
20
-3.34993
11
4.96053
21
-3.35
0
LINE
8
BLACK
6
CONTINUOUS
10
4.96053
20
-3.35
11
4.98176
21
-3.35
0
LINE
8
BLACK
6
CONTINUOUS
10
4.98176
20
-3.35
11
4.98203
21
-3.34999
0
LINE
8
BLACK
6
CONTINUOUS
10
4.98203
20
-3.34999
11
4.98403
21
-3.34977
0
LINE
8
BLACK
6
CONTINUOUS
10
4.98403
20
-3.34977
11
4.98463
21
-3.34963
0
LINE
8
BLACK
6
CONTINUOUS
10
4.98463
20
-3.34963
11
4.98937
21
-3.34785
0
LINE
8
BLACK
6
CONTINUOUS
10
4.98937
20
-3.34785
11
4.98999
21
-3.34751
0
LINE
8
BLACK
6
CONTINUOUS
10
4.98999
20
-3.34751
11
4.994
21
-3.3445
0
LINE
8
BLACK
6
CONTINUOUS
10
4.994
20
-3.3445
11
4.9945
21
-3.344
0
LINE
8
BLACK
6
CONTINUOUS
10
4.9945
20
-3.344
11
4.99603
21
-3.34196
0
LINE
8
BLACK
6
CONTINUOUS
10
4.99603
20
-3.34196
11
4.99827
21
-3.34029
0
LINE
8
BLACK
6
CONTINUOUS
10
4.99827
20
-3.34029
11
5.00106
21
-3.34009
0
LINE
8
BLACK
6
CONTINUOUS
10
5.00106
20
-3.34009
11
5.00351
21
-3.34143
0
LINE
8
BLACK
6
CONTINUOUS
10
5.00351
20
-3.34143
11
5.00397
21
-3.34196
0
LINE
8
BLACK
6
CONTINUOUS
10
5.00397
20
-3.34196
11
5.0055
21
-3.344
0
LINE
8
BLACK
6
CONTINUOUS
10
5.0055
20
-3.344
11
5.006
21
-3.3445
0
LINE
8
BLACK
6
CONTINUOUS
10
5.006
20
-3.3445
11
5.01001
21
-3.34751
0
LINE
8
BLACK
6
CONTINUOUS
10
5.01001
20
-3.34751
11
5.01063
21
-3.34785
0
LINE
8
BLACK
6
CONTINUOUS
10
5.01063
20
-3.34785
11
5.01537
21
-3.34963
0
LINE
8
BLACK
6
CONTINUOUS
10
5.01537
20
-3.34963
11
5.01597
21
-3.34977
0
LINE
8
BLACK
6
CONTINUOUS
10
5.01597
20
-3.34977
11
5.01797
21
-3.34999
0
LINE
8
BLACK
6
CONTINUOUS
10
5.01797
20
-3.34999
11
5.01824
21
-3.35
0
LINE
8
BLACK
6
CONTINUOUS
10
5.01824
20
-3.35
11
5.03929
21
-3.35
0
LINE
8
BLACK
6
CONTINUOUS
10
5.03929
20
-3.35
11
5.03989
21
-3.34982
0
LINE
8
BLACK
6
CONTINUOUS
10
5.03989
20
-3.34982
11
5.03993
21
-3.34977
0
LINE
8
BLACK
6
CONTINUOUS
10
5.03993
20
-3.34977
11
5.04
21
-3.34947
0
LINE
8
BLACK
6
CONTINUOUS
10
5.04
20
-3.34947
11
5.04
21
-3.33
0
LINE
8
BLACK
6
CONTINUOUS
10
5.04
20
-3.33
11
5.02
21
-3.33
0
LINE
8
BLACK
6
CONTINUOUS
10
5.02
20
-3.33
11
5.02
21
-3.31
0
LINE
8
BLACK
6
CONTINUOUS
10
5.02
20
-3.31
11
4.98
21
-3.31
0
LINE
8
BLACK
6
CONTINUOUS
10
4.98
20
-3.31
11
4.98
21
-3.33
0
LINE
8
BLACK
6
CONTINUOUS
10
4.98
20
-3.33
11
4.96
21
-3.33
0
LINE
8
BLACK
6
CONTINUOUS
10
4.96
20
-3.33
11
4.96
21
-3.34929
0
LINE
8
BLACK
6
CONTINUOUS
10
4.96
20
-3.34929
11
4.96018
21
-3.34989
0
LINE
8
BLACK
6
CONTINUOUS
10
4.96018
20
-3.34989
11
4.96023
21
-3.34993
0
LINE
8
BLACK
6
CONTINUOUS
10
4.90023
20
-3.28993
11
4.90053
21
-3.29
0
LINE
8
BLACK
6
CONTINUOUS
10
4.90053
20
-3.29
11
4.92
21
-3.29
0
LINE
8
BLACK
6
CONTINUOUS
10
4.92
20
-3.29
11
4.92
21
-3.27
0
LINE
8
BLACK
6
CONTINUOUS
10
4.92
20
-3.27
11
4.94
21
-3.27
0
LINE
8
BLACK
6
CONTINUOUS
10
4.94
20
-3.27
11
4.94
21
-3.25071
0
LINE
8
BLACK
6
CONTINUOUS
10
4.94
20
-3.25071
11
4.93982
21
-3.25011
0
LINE
8
BLACK
6
CONTINUOUS
10
4.93982
20
-3.25011
11
4.93977
21
-3.25007
0
LINE
8
BLACK
6
CONTINUOUS
10
4.93977
20
-3.25007
11
4.93947
21
-3.25
0
LINE
8
BLACK
6
CONTINUOUS
10
4.93947
20
-3.25
11
4.91824
21
-3.25
0
LINE
8
BLACK
6
CONTINUOUS
10
4.91824
20
-3.25
11
4.91797
21
-3.25001
0
LINE
8
BLACK
6
CONTINUOUS
10
4.91797
20
-3.25001
11
4.91597
21
-3.25023
0
LINE
8
BLACK
6
CONTINUOUS
10
4.91597
20
-3.25023
11
4.91537
21
-3.25037
0
LINE
8
BLACK
6
CONTINUOUS
10
4.91537
20
-3.25037
11
4.91063
21
-3.25215
0
LINE
8
BLACK
6
CONTINUOUS
10
4.91063
20
-3.25215
11
4.91001
21
-3.25249
0
LINE
8
BLACK
6
CONTINUOUS
10
4.91001
20
-3.25249
11
4.906
21
-3.2555
0
LINE
8
BLACK
6
CONTINUOUS
10
4.906
20
-3.2555
11
4.9055
21
-3.256
0
LINE
8
BLACK
6
CONTINUOUS
10
4.9055
20
-3.256
11
4.90249
21
-3.26001
0
LINE
8
BLACK
6
CONTINUOUS
10
4.90249
20
-3.26001
11
4.90215
21
-3.26063
0
LINE
8
BLACK
6
CONTINUOUS
10
4.90215
20
-3.26063
11
4.90037
21
-3.26537
0
LINE
8
BLACK
6
CONTINUOUS
10
4.90037
20
-3.26537
11
4.90023
21
-3.26597
0
LINE
8
BLACK
6
CONTINUOUS
10
4.90023
20
-3.26597
11
4.90001
21
-3.26797
0
LINE
8
BLACK
6
CONTINUOUS
10
4.90001
20
-3.26797
11
4.9
21
-3.26824
0
LINE
8
BLACK
6
CONTINUOUS
10
4.9
20
-3.26824
11
4.9
21
-3.28929
0
LINE
8
BLACK
6
CONTINUOUS
10
4.9
20
-3.28929
11
4.90018
21
-3.28989
0
LINE
8
BLACK
6
CONTINUOUS
10
4.90018
20
-3.28989
11
4.90023
21
-3.28993
0
LINE
8
BLACK
6
CONTINUOUS
10
6.10023
20
-3.28993
11
6.10053
21
-3.29
0
LINE
8
BLACK
6
CONTINUOUS
10
6.10053
20
-3.29
11
6.12
21
-3.29
0
LINE
8
BLACK
6
CONTINUOUS
10
6.12
20
-3.29
11
6.12
21
-3.27
0
LINE
8
BLACK
6
CONTINUOUS
10
6.12
20
-3.27
11
6.14
21
-3.27
0
LINE
8
BLACK
6
CONTINUOUS
10
6.14
20
-3.27
11
6.14
21
-3.25071
0
LINE
8
BLACK
6
CONTINUOUS
10
6.14
20
-3.25071
11
6.13982
21
-3.25011
0
LINE
8
BLACK
6
CONTINUOUS
10
6.13982
20
-3.25011
11
6.13977
21
-3.25007
0
LINE
8
BLACK
6
CONTINUOUS
10
6.13977
20
-3.25007
11
6.13947
21
-3.25
0
LINE
8
BLACK
6
CONTINUOUS
10
6.13947
20
-3.25
11
6.11824
21
-3.25
0
LINE
8
BLACK
6
CONTINUOUS
10
6.11824
20
-3.25
11
6.11797
21
-3.25001
0
LINE
8
BLACK
6
CONTINUOUS
10
6.11797
20
-3.25001
11
6.11597
21
-3.25023
0
LINE
8
BLACK
6
CONTINUOUS
10
6.11597
20
-3.25023
11
6.11537
21
-3.25037
0
LINE
8
BLACK
6
CONTINUOUS
10
6.11537
20
-3.25037
11
6.11063
21
-3.25215
0
LINE
8
BLACK
6
CONTINUOUS
10
6.11063
20
-3.25215
11
6.11001
21
-3.25249
0
LINE
8
BLACK
6
CONTINUOUS
10
6.11001
20
-3.25249
11
6.106
21
-3.2555
0
LINE
8
BLACK
6
CONTINUOUS
10
6.106
20
-3.2555
11
6.1055
21
-3.256
0
LINE
8
BLACK
6
CONTINUOUS
10
6.1055
20
-3.256
11
6.10249
21
-3.26001
0
LINE
8
BLACK
6
CONTINUOUS
10
6.10249
20
-3.26001
11
6.10215
21
-3.26063
0
LINE
8
BLACK
6
CONTINUOUS
10
6.10215
20
-3.26063
11
6.10037
21
-3.26537
0
LINE
8
BLACK
6
CONTINUOUS
10
6.10037
20
-3.26537
11
6.10023
21
-3.26597
0
LINE
8
BLACK
6
CONTINUOUS
10
6.10023
20
-3.26597
11
6.10001
21
-3.26797
0
LINE
8
BLACK
6
CONTINUOUS
10
6.10001
20
-3.26797
11
6.1
21
-3.26824
0
LINE
8
BLACK
6
CONTINUOUS
10
6.1
20
-3.26824
11
6.1
21
-3.28929
0
LINE
8
BLACK
6
CONTINUOUS
10
6.1
20
-3.28929
11
6.10018
21
-3.28989
0
LINE
8
BLACK
6
CONTINUOUS
10
6.10018
20
-3.28989
11
6.10023
21
-3.28993
0
LINE
8
BLACK
6
CONTINUOUS
10
5.36056
20
-3.83391
11
5.36278
21
-3.83722
0
LINE
8
BLACK
6
CONTINUOUS
10
5.36278
20
-3.83722
11
5.36609
21
-3.83944
0
LINE
8
BLACK
6
CONTINUOUS
10
5.36609
20
-3.83944
11
5.36901
21
-3.84002
0
LINE
8
BLACK
6
CONTINUOUS
10
5.36901
20
-3.84002
11
5.39999
21
-3.84002
0
LINE
8
BLACK
6
CONTINUOUS
10
5.39999
20
-3.84002
11
5.43099
21
-3.84002
0
LINE
8
BLACK
6
CONTINUOUS
10
5.43099
20
-3.84002
11
5.43239
21
-3.83974
0
LINE
8
BLACK
6
CONTINUOUS
10
5.43239
20
-3.83974
11
5.43343
21
-3.83953
0
LINE
8
BLACK
6
CONTINUOUS
10
5.43343
20
-3.83953
11
5.43343
21
-3.83953
0
LINE
8
BLACK
6
CONTINUOUS
10
5.43343
20
-3.83953
11
5.43391
21
-3.83944
0
LINE
8
BLACK
6
CONTINUOUS
10
5.43391
20
-3.83944
11
5.43432
21
-3.83917
0
LINE
8
BLACK
6
CONTINUOUS
10
5.43432
20
-3.83917
11
5.43432
21
-3.83917
0
LINE
8
BLACK
6
CONTINUOUS
10
5.43432
20
-3.83917
11
5.43682
21
-3.8375
0
LINE
8
BLACK
6
CONTINUOUS
10
5.43682
20
-3.8375
11
5.43722
21
-3.83722
0
LINE
8
BLACK
6
CONTINUOUS
10
5.43722
20
-3.83722
11
5.43944
21
-3.83391
0
LINE
8
BLACK
6
CONTINUOUS
10
5.43944
20
-3.83391
11
5.43987
21
-3.83176
0
LINE
8
BLACK
6
CONTINUOUS
10
5.43987
20
-3.83176
11
5.44002
21
-3.83099
0
LINE
8
BLACK
6
CONTINUOUS
10
5.44002
20
-3.83099
11
5.44002
21
-3.78929
0
LINE
8
BLACK
6
CONTINUOUS
10
5.44002
20
-3.78929
11
5.44002
21
-3.76901
0
LINE
8
BLACK
6
CONTINUOUS
10
5.44002
20
-3.76901
11
5.43944
21
-3.76609
0
LINE
8
BLACK
6
CONTINUOUS
10
5.43944
20
-3.76609
11
5.43722
21
-3.76278
0
LINE
8
BLACK
6
CONTINUOUS
10
5.43722
20
-3.76278
11
5.43391
21
-3.76056
0
LINE
8
BLACK
6
CONTINUOUS
10
5.43391
20
-3.76056
11
5.43099
21
-3.75998
0
LINE
8
BLACK
6
CONTINUOUS
10
5.43099
20
-3.75998
11
5.42285
21
-3.75998
0
LINE
8
BLACK
6
CONTINUOUS
10
5.42285
20
-3.75998
11
5.42017
21
-3.75919
0
LINE
8
BLACK
6
CONTINUOUS
10
5.42017
20
-3.75919
11
5.41834
21
-3.75708
0
LINE
8
BLACK
6
CONTINUOUS
10
5.41834
20
-3.75708
11
5.41789
21
-3.75502
0
LINE
8
BLACK
6
CONTINUOUS
10
5.41789
20
-3.75502
11
5.41789
21
-3.32747
0
LINE
8
BLACK
6
CONTINUOUS
10
5.41789
20
-3.32747
11
5.41868
21
-3.32478
0
LINE
8
BLACK
6
CONTINUOUS
10
5.41868
20
-3.32478
11
5.41935
21
-3.32396
0
LINE
8
BLACK
6
CONTINUOUS
10
5.41935
20
-3.32396
11
5.55106
21
-3.19225
0
LINE
8
BLACK
6
CONTINUOUS
10
5.55106
20
-3.19225
11
5.55351
21
-3.19091
0
LINE
8
BLACK
6
CONTINUOUS
10
5.55351
20
-3.19091
11
5.55464
21
-3.1908
0
LINE
8
BLACK
6
CONTINUOUS
10
5.55464
20
-3.1908
11
5.55482
21
-3.1908
0
LINE
8
BLACK
6
CONTINUOUS
10
5.55482
20
-3.1908
11
5.55541
21
-3.19081
0
LINE
8
BLACK
6
CONTINUOUS
10
5.55541
20
-3.19081
11
5.55541
21
-3.19081
0
LINE
8
BLACK
6
CONTINUOUS
10
5.55541
20
-3.19081
11
5.55571
21
-3.19081
0
LINE
8
BLACK
6
CONTINUOUS
10
5.55571
20
-3.19081
11
5.56179
21
-3.18942
0
LINE
8
BLACK
6
CONTINUOUS
10
5.56179
20
-3.18942
11
5.56456
21
-3.18803
0
LINE
8
BLACK
6
CONTINUOUS
10
5.56456
20
-3.18803
11
5.5671
21
-3.18675
0
LINE
8
BLACK
6
CONTINUOUS
10
5.5671
20
-3.18675
11
5.5671
21
-3.18675
0
LINE
8
BLACK
6
CONTINUOUS
10
5.5671
20
-3.18675
11
5.56736
21
-3.18662
0
LINE
8
BLACK
6
CONTINUOUS
10
5.56736
20
-3.18662
11
5.56759
21
-3.18643
0
LINE
8
BLACK
6
CONTINUOUS
10
5.56759
20
-3.18643
11
5.56759
21
-3.18643
0
LINE
8
BLACK
6
CONTINUOUS
10
5.56759
20
-3.18643
11
5.57188
21
-3.18276
0
LINE
8
BLACK
6
CONTINUOUS
10
5.57188
20
-3.18276
11
5.57188
21
-3.18276
0
LINE
8
BLACK
6
CONTINUOUS
10
5.57188
20
-3.18276
11
5.57211
21
-3.18257
0
LINE
8
BLACK
6
CONTINUOUS
10
5.57211
20
-3.18257
11
5.57575
21
-3.1775
0
LINE
8
BLACK
6
CONTINUOUS
10
5.57575
20
-3.1775
11
5.57807
21
-3.17172
0
LINE
8
BLACK
6
CONTINUOUS
10
5.57807
20
-3.17172
11
5.57895
21
-3.16554
0
LINE
8
BLACK
6
CONTINUOUS
10
5.57895
20
-3.16554
11
5.57896
21
-3.165
0
LINE
8
BLACK
6
CONTINUOUS
10
5.57896
20
-3.165
11
5.57821
21
-3.15881
0
LINE
8
BLACK
6
CONTINUOUS
10
5.57821
20
-3.15881
11
5.576
21
-3.15297
0
LINE
8
BLACK
6
CONTINUOUS
10
5.576
20
-3.15297
11
5.57247
21
-3.14783
0
LINE
8
BLACK
6
CONTINUOUS
10
5.57247
20
-3.14783
11
5.56781
21
-3.14369
0
LINE
8
BLACK
6
CONTINUOUS
10
5.56781
20
-3.14369
11
5.56752
21
-3.14353
0
LINE
8
BLACK
6
CONTINUOUS
10
5.56752
20
-3.14353
11
5.56257
21
-3.14091
0
LINE
8
BLACK
6
CONTINUOUS
10
5.56257
20
-3.14091
11
5.56257
21
-3.14091
0
LINE
8
BLACK
6
CONTINUOUS
10
5.56257
20
-3.14091
11
5.5623
21
-3.14077
0
LINE
8
BLACK
6
CONTINUOUS
10
5.5623
20
-3.14077
11
5.55625
21
-3.13925
0
LINE
8
BLACK
6
CONTINUOUS
10
5.55625
20
-3.13925
11
5.55595
21
-3.13925
0
LINE
8
BLACK
6
CONTINUOUS
10
5.55595
20
-3.13925
11
5.55595
21
-3.13925
0
LINE
8
BLACK
6
CONTINUOUS
10
5.55595
20
-3.13925
11
5.55336
21
-3.13923
0
LINE
8
BLACK
6
CONTINUOUS
10
5.55336
20
-3.13923
11
5.55002
21
-3.13922
0
LINE
8
BLACK
6
CONTINUOUS
10
5.55002
20
-3.13922
11
5.54973
21
-3.13928
0
LINE
8
BLACK
6
CONTINUOUS
10
5.54973
20
-3.13928
11
5.54973
21
-3.13928
0
LINE
8
BLACK
6
CONTINUOUS
10
5.54973
20
-3.13928
11
5.54424
21
-3.1406
0
LINE
8
BLACK
6
CONTINUOUS
10
5.54424
20
-3.1406
11
5.54424
21
-3.1406
0
LINE
8
BLACK
6
CONTINUOUS
10
5.54424
20
-3.1406
11
5.54395
21
-3.14067
0
LINE
8
BLACK
6
CONTINUOUS
10
5.54395
20
-3.14067
11
5.53841
21
-3.14353
0
LINE
8
BLACK
6
CONTINUOUS
10
5.53841
20
-3.14353
11
5.53371
21
-3.14763
0
LINE
8
BLACK
6
CONTINUOUS
10
5.53371
20
-3.14763
11
5.53012
21
-3.15273
0
LINE
8
BLACK
6
CONTINUOUS
10
5.53012
20
-3.15273
11
5.52786
21
-3.15854
0
LINE
8
BLACK
6
CONTINUOUS
10
5.52786
20
-3.15854
11
5.52782
21
-3.15884
0
LINE
8
BLACK
6
CONTINUOUS
10
5.52782
20
-3.15884
11
5.52782
21
-3.15884
0
LINE
8
BLACK
6
CONTINUOUS
10
5.52782
20
-3.15884
11
5.52712
21
-3.16412
0
LINE
8
BLACK
6
CONTINUOUS
10
5.52712
20
-3.16412
11
5.52599
21
-3.16668
0
LINE
8
BLACK
6
CONTINUOUS
10
5.52599
20
-3.16668
11
5.52571
21
-3.16698
0
LINE
8
BLACK
6
CONTINUOUS
10
5.52571
20
-3.16698
11
5.38831
21
-3.30439
0
LINE
8
BLACK
6
CONTINUOUS
10
5.38831
20
-3.30439
11
5.38787
21
-3.30478
0
LINE
8
BLACK
6
CONTINUOUS
10
5.38787
20
-3.30478
11
5.38681
21
-3.30561
0
LINE
8
BLACK
6
CONTINUOUS
10
5.38681
20
-3.30561
11
5.3866
21
-3.30592
0
LINE
8
BLACK
6
CONTINUOUS
10
5.3866
20
-3.30592
11
5.38548
21
-3.30753
0
LINE
8
BLACK
6
CONTINUOUS
10
5.38548
20
-3.30753
11
5.38539
21
-3.30766
0
LINE
8
BLACK
6
CONTINUOUS
10
5.38539
20
-3.30766
11
5.38401
21
-3.30953
0
LINE
8
BLACK
6
CONTINUOUS
10
5.38401
20
-3.30953
11
5.38391
21
-3.3098
0
LINE
8
BLACK
6
CONTINUOUS
10
5.38391
20
-3.3098
11
5.38375
21
-3.31004
0
LINE
8
BLACK
6
CONTINUOUS
10
5.38375
20
-3.31004
11
5.38364
21
-3.31039
0
LINE
8
BLACK
6
CONTINUOUS
10
5.38364
20
-3.31039
11
5.38305
21
-3.31226
0
LINE
8
BLACK
6
CONTINUOUS
10
5.38305
20
-3.31226
11
5.383
21
-3.31241
0
LINE
8
BLACK
6
CONTINUOUS
10
5.383
20
-3.31241
11
5.38222
21
-3.31461
0
LINE
8
BLACK
6
CONTINUOUS
10
5.38222
20
-3.31461
11
5.38221
21
-3.31489
0
LINE
8
BLACK
6
CONTINUOUS
10
5.38221
20
-3.31489
11
5.38221
21
-3.3149
0
LINE
8
BLACK
6
CONTINUOUS
10
5.38221
20
-3.3149
11
5.38213
21
-3.31517
0
LINE
8
BLACK
6
CONTINUOUS
10
5.38213
20
-3.31517
11
5.38211
21
-3.31543
0
LINE
8
BLACK
6
CONTINUOUS
10
5.38211
20
-3.31543
11
5.38211
21
-3.31753
0
LINE
8
BLACK
6
CONTINUOUS
10
5.38211
20
-3.31753
11
5.3821
21
-3.31772
0
LINE
8
BLACK
6
CONTINUOUS
10
5.3821
20
-3.31772
11
5.38201
21
-3.31999
0
LINE
8
BLACK
6
CONTINUOUS
10
5.38201
20
-3.31999
11
5.38209
21
-3.32027
0
LINE
8
BLACK
6
CONTINUOUS
10
5.38209
20
-3.32027
11
5.38211
21
-3.3206
0
LINE
8
BLACK
6
CONTINUOUS
10
5.38211
20
-3.3206
11
5.38211
21
-3.75502
0
LINE
8
BLACK
6
CONTINUOUS
10
5.38211
20
-3.75502
11
5.38132
21
-3.7577
0
LINE
8
BLACK
6
CONTINUOUS
10
5.38132
20
-3.7577
11
5.37921
21
-3.75953
0
LINE
8
BLACK
6
CONTINUOUS
10
5.37921
20
-3.75953
11
5.37715
21
-3.75998
0
LINE
8
BLACK
6
CONTINUOUS
10
5.37715
20
-3.75998
11
5.36901
21
-3.75998
0
LINE
8
BLACK
6
CONTINUOUS
10
5.36901
20
-3.75998
11
5.36761
21
-3.76026
0
LINE
8
BLACK
6
CONTINUOUS
10
5.36761
20
-3.76026
11
5.36657
21
-3.76047
0
LINE
8
BLACK
6
CONTINUOUS
10
5.36657
20
-3.76047
11
5.36657
21
-3.76047
0
LINE
8
BLACK
6
CONTINUOUS
10
5.36657
20
-3.76047
11
5.36609
21
-3.76056
0
LINE
8
BLACK
6
CONTINUOUS
10
5.36609
20
-3.76056
11
5.36568
21
-3.76083
0
LINE
8
BLACK
6
CONTINUOUS
10
5.36568
20
-3.76083
11
5.36568
21
-3.76083
0
LINE
8
BLACK
6
CONTINUOUS
10
5.36568
20
-3.76083
11
5.36331
21
-3.76242
0
LINE
8
BLACK
6
CONTINUOUS
10
5.36331
20
-3.76242
11
5.36278
21
-3.76278
0
LINE
8
BLACK
6
CONTINUOUS
10
5.36278
20
-3.76278
11
5.36056
21
-3.76609
0
LINE
8
BLACK
6
CONTINUOUS
10
5.36056
20
-3.76609
11
5.35998
21
-3.76901
0
LINE
8
BLACK
6
CONTINUOUS
10
5.35998
20
-3.76901
11
5.35998
21
-3.83099
0
LINE
8
BLACK
6
CONTINUOUS
10
5.35998
20
-3.83099
11
5.36056
21
-3.83391
0
LINE
8
BLACK
6
CONTINUOUS
10
5.47
20
-3.03
11
5.47
21
-3.01
0
LINE
8
BLACK
6
CONTINUOUS
10
5.47
20
-3.01
11
5.45071
21
-3.01
0
LINE
8
BLACK
6
CONTINUOUS
10
5.45071
20
-3.01
11
5.45011
21
-3.01018
0
LINE
8
BLACK
6
CONTINUOUS
10
5.45011
20
-3.01018
11
5.45007
21
-3.01023
0
LINE
8
BLACK
6
CONTINUOUS
10
5.45007
20
-3.01023
11
5.45
21
-3.01053
0
LINE
8
BLACK
6
CONTINUOUS
10
5.45
20
-3.01053
11
5.45
21
-3.03176
0
LINE
8
BLACK
6
CONTINUOUS
10
5.45
20
-3.03176
11
5.45001
21
-3.03203
0
LINE
8
BLACK
6
CONTINUOUS
10
5.45001
20
-3.03203
11
5.45023
21
-3.03403
0
LINE
8
BLACK
6
CONTINUOUS
10
5.45023
20
-3.03403
11
5.45037
21
-3.03463
0
LINE
8
BLACK
6
CONTINUOUS
10
5.45037
20
-3.03463
11
5.45215
21
-3.03937
0
LINE
8
BLACK
6
CONTINUOUS
10
5.45215
20
-3.03937
11
5.45249
21
-3.03999
0
LINE
8
BLACK
6
CONTINUOUS
10
5.45249
20
-3.03999
11
5.4555
21
-3.044
0
LINE
8
BLACK
6
CONTINUOUS
10
5.4555
20
-3.044
11
5.456
21
-3.0445
0
LINE
8
BLACK
6
CONTINUOUS
10
5.456
20
-3.0445
11
5.46001
21
-3.04751
0
LINE
8
BLACK
6
CONTINUOUS
10
5.46001
20
-3.04751
11
5.46063
21
-3.04785
0
LINE
8
BLACK
6
CONTINUOUS
10
5.46063
20
-3.04785
11
5.46537
21
-3.04963
0
LINE
8
BLACK
6
CONTINUOUS
10
5.46537
20
-3.04963
11
5.46597
21
-3.04977
0
LINE
8
BLACK
6
CONTINUOUS
10
5.46597
20
-3.04977
11
5.46797
21
-3.04999
0
LINE
8
BLACK
6
CONTINUOUS
10
5.46797
20
-3.04999
11
5.46824
21
-3.05
0
LINE
8
BLACK
6
CONTINUOUS
10
5.46824
20
-3.05
11
5.48929
21
-3.05
0
LINE
8
BLACK
6
CONTINUOUS
10
5.48929
20
-3.05
11
5.48989
21
-3.04982
0
LINE
8
BLACK
6
CONTINUOUS
10
5.48989
20
-3.04982
11
5.48993
21
-3.04977
0
LINE
8
BLACK
6
CONTINUOUS
10
5.48993
20
-3.04977
11
5.49
21
-3.04947
0
LINE
8
BLACK
6
CONTINUOUS
10
5.49
20
-3.04947
11
5.49
21
-3.03
0
LINE
8
BLACK
6
CONTINUOUS
10
5.49
20
-3.03
11
5.47
21
-3.03
0
LINE
8
BLACK
6
CONTINUOUS
10
5.45023
20
-2.98993
11
5.45053
21
-2.99
0
LINE
8
BLACK
6
CONTINUOUS
10
5.45053
20
-2.99
11
5.47
21
-2.99
0
LINE
8
BLACK
6
CONTINUOUS
10
5.47
20
-2.99
11
5.47
21
-2.97
0
LINE
8
BLACK
6
CONTINUOUS
10
5.47
20
-2.97
11
5.49
21
-2.97
0
LINE
8
BLACK
6
CONTINUOUS
10
5.49
20
-2.97
11
5.49
21
-2.95071
0
LINE
8
BLACK
6
CONTINUOUS
10
5.49
20
-2.95071
11
5.48982
21
-2.95011
0
LINE
8
BLACK
6
CONTINUOUS
10
5.48982
20
-2.95011
11
5.48977
21
-2.95007
0
LINE
8
BLACK
6
CONTINUOUS
10
5.48977
20
-2.95007
11
5.48947
21
-2.95
0
LINE
8
BLACK
6
CONTINUOUS
10
5.48947
20
-2.95
11
5.46824
21
-2.95
0
LINE
8
BLACK
6
CONTINUOUS
10
5.46824
20
-2.95
11
5.46797
21
-2.95001
0
LINE
8
BLACK
6
CONTINUOUS
10
5.46797
20
-2.95001
11
5.46597
21
-2.95023
0
LINE
8
BLACK
6
CONTINUOUS
10
5.46597
20
-2.95023
11
5.46537
21
-2.95037
0
LINE
8
BLACK
6
CONTINUOUS
10
5.46537
20
-2.95037
11
5.46063
21
-2.95215
0
LINE
8
BLACK
6
CONTINUOUS
10
5.46063
20
-2.95215
11
5.46001
21
-2.95249
0
LINE
8
BLACK
6
CONTINUOUS
10
5.46001
20
-2.95249
11
5.456
21
-2.9555
0
LINE
8
BLACK
6
CONTINUOUS
10
5.456
20
-2.9555
11
5.4555
21
-2.956
0
LINE
8
BLACK
6
CONTINUOUS
10
5.4555
20
-2.956
11
5.45249
21
-2.96001
0
LINE
8
BLACK
6
CONTINUOUS
10
5.45249
20
-2.96001
11
5.45215
21
-2.96063
0
LINE
8
BLACK
6
CONTINUOUS
10
5.45215
20
-2.96063
11
5.45037
21
-2.96537
0
LINE
8
BLACK
6
CONTINUOUS
10
5.45037
20
-2.96537
11
5.45023
21
-2.96597
0
LINE
8
BLACK
6
CONTINUOUS
10
5.45023
20
-2.96597
11
5.45001
21
-2.96797
0
LINE
8
BLACK
6
CONTINUOUS
10
5.45001
20
-2.96797
11
5.45
21
-2.96824
0
LINE
8
BLACK
6
CONTINUOUS
10
5.45
20
-2.96824
11
5.45
21
-2.98929
0
LINE
8
BLACK
6
CONTINUOUS
10
5.45
20
-2.98929
11
5.45018
21
-2.98989
0
LINE
8
BLACK
6
CONTINUOUS
10
5.45018
20
-2.98989
11
5.45023
21
-2.98993
0
LINE
8
BLACK
6
CONTINUOUS
10
5.44002
20
-2.98929
11
5.44002
21
-2.96901
0
LINE
8
BLACK
6
CONTINUOUS
10
5.44002
20
-2.96901
11
5.43944
21
-2.96609
0
LINE
8
BLACK
6
CONTINUOUS
10
5.43944
20
-2.96609
11
5.43722
21
-2.96278
0
LINE
8
BLACK
6
CONTINUOUS
10
5.43722
20
-2.96278
11
5.43391
21
-2.96056
0
LINE
8
BLACK
6
CONTINUOUS
10
5.43391
20
-2.96056
11
5.43099
21
-2.95998
0
LINE
8
BLACK
6
CONTINUOUS
10
5.43099
20
-2.95998
11
5.40001
21
-2.95998
0
LINE
8
BLACK
6
CONTINUOUS
10
5.40001
20
-2.95998
11
5.36901
21
-2.95998
0
LINE
8
BLACK
6
CONTINUOUS
10
5.36901
20
-2.95998
11
5.36761
21
-2.96026
0
LINE
8
BLACK
6
CONTINUOUS
10
5.36761
20
-2.96026
11
5.36657
21
-2.96047
0
LINE
8
BLACK
6
CONTINUOUS
10
5.36657
20
-2.96047
11
5.36657
21
-2.96047
0
LINE
8
BLACK
6
CONTINUOUS
10
5.36657
20
-2.96047
11
5.36609
21
-2.96056
0
LINE
8
BLACK
6
CONTINUOUS
10
5.36609
20
-2.96056
11
5.36568
21
-2.96083
0
LINE
8
BLACK
6
CONTINUOUS
10
5.36568
20
-2.96083
11
5.36568
21
-2.96083
0
LINE
8
BLACK
6
CONTINUOUS
10
5.36568
20
-2.96083
11
5.36331
21
-2.96242
0
LINE
8
BLACK
6
CONTINUOUS
10
5.36331
20
-2.96242
11
5.36278
21
-2.96278
0
LINE
8
BLACK
6
CONTINUOUS
10
5.36278
20
-2.96278
11
5.36056
21
-2.96609
0
LINE
8
BLACK
6
CONTINUOUS
10
5.36056
20
-2.96609
11
5.35998
21
-2.96901
0
LINE
8
BLACK
6
CONTINUOUS
10
5.35998
20
-2.96901
11
5.35998
21
-3.03099
0
LINE
8
BLACK
6
CONTINUOUS
10
5.35998
20
-3.03099
11
5.36056
21
-3.03391
0
LINE
8
BLACK
6
CONTINUOUS
10
5.36056
20
-3.03391
11
5.36278
21
-3.03722
0
LINE
8
BLACK
6
CONTINUOUS
10
5.36278
20
-3.03722
11
5.36609
21
-3.03944
0
LINE
8
BLACK
6
CONTINUOUS
10
5.36609
20
-3.03944
11
5.36901
21
-3.04002
0
LINE
8
BLACK
6
CONTINUOUS
10
5.36901
20
-3.04002
11
5.39999
21
-3.04002
0
LINE
8
BLACK
6
CONTINUOUS
10
5.39999
20
-3.04002
11
5.43099
21
-3.04002
0
LINE
8
BLACK
6
CONTINUOUS
10
5.43099
20
-3.04002
11
5.43239
21
-3.03974
0
LINE
8
BLACK
6
CONTINUOUS
10
5.43239
20
-3.03974
11
5.43343
21
-3.03953
0
LINE
8
BLACK
6
CONTINUOUS
10
5.43343
20
-3.03953
11
5.43343
21
-3.03953
0
LINE
8
BLACK
6
CONTINUOUS
10
5.43343
20
-3.03953
11
5.43391
21
-3.03944
0
LINE
8
BLACK
6
CONTINUOUS
10
5.43391
20
-3.03944
11
5.43432
21
-3.03917
0
LINE
8
BLACK
6
CONTINUOUS
10
5.43432
20
-3.03917
11
5.43432
21
-3.03917
0
LINE
8
BLACK
6
CONTINUOUS
10
5.43432
20
-3.03917
11
5.43682
21
-3.0375
0
LINE
8
BLACK
6
CONTINUOUS
10
5.43682
20
-3.0375
11
5.43722
21
-3.03722
0
LINE
8
BLACK
6
CONTINUOUS
10
5.43722
20
-3.03722
11
5.43944
21
-3.03391
0
LINE
8
BLACK
6
CONTINUOUS
10
5.43944
20
-3.03391
11
5.43987
21
-3.03176
0
LINE
8
BLACK
6
CONTINUOUS
10
5.43987
20
-3.03176
11
5.44002
21
-3.03099
0
LINE
8
BLACK
6
CONTINUOUS
10
5.44002
20
-3.03099
11
5.44002
21
-2.98929
0
LINE
8
BLACK
6
CONTINUOUS
10
5.83722
20
-2.96278
11
5.83391
21
-2.96056
0
LINE
8
BLACK
6
CONTINUOUS
10
5.83391
20
-2.96056
11
5.83099
21
-2.95998
0
LINE
8
BLACK
6
CONTINUOUS
10
5.83099
20
-2.95998
11
5.80001
21
-2.95998
0
LINE
8
BLACK
6
CONTINUOUS
10
5.80001
20
-2.95998
11
5.76901
21
-2.95998
0
LINE
8
BLACK
6
CONTINUOUS
10
5.76901
20
-2.95998
11
5.76761
21
-2.96026
0
LINE
8
BLACK
6
CONTINUOUS
10
5.76761
20
-2.96026
11
5.76657
21
-2.96047
0
LINE
8
BLACK
6
CONTINUOUS
10
5.76657
20
-2.96047
11
5.76657
21
-2.96047
0
LINE
8
BLACK
6
CONTINUOUS
10
5.76657
20
-2.96047
11
5.76609
21
-2.96056
0
LINE
8
BLACK
6
CONTINUOUS
10
5.76609
20
-2.96056
11
5.76568
21
-2.96083
0
LINE
8
BLACK
6
CONTINUOUS
10
5.76568
20
-2.96083
11
5.76568
21
-2.96083
0
LINE
8
BLACK
6
CONTINUOUS
10
5.76568
20
-2.96083
11
5.76331
21
-2.96242
0
LINE
8
BLACK
6
CONTINUOUS
10
5.76331
20
-2.96242
11
5.76278
21
-2.96278
0
LINE
8
BLACK
6
CONTINUOUS
10
5.76278
20
-2.96278
11
5.76056
21
-2.96609
0
LINE
8
BLACK
6
CONTINUOUS
10
5.76056
20
-2.96609
11
5.75998
21
-2.96901
0
LINE
8
BLACK
6
CONTINUOUS
10
5.75998
20
-2.96901
11
5.75998
21
-3.03099
0
LINE
8
BLACK
6
CONTINUOUS
10
5.75998
20
-3.03099
11
5.76056
21
-3.03391
0
LINE
8
BLACK
6
CONTINUOUS
10
5.76056
20
-3.03391
11
5.76278
21
-3.03722
0
LINE
8
BLACK
6
CONTINUOUS
10
5.76278
20
-3.03722
11
5.76609
21
-3.03944
0
LINE
8
BLACK
6
CONTINUOUS
10
5.76609
20
-3.03944
11
5.76901
21
-3.04002
0
LINE
8
BLACK
6
CONTINUOUS
10
5.76901
20
-3.04002
11
5.79999
21
-3.04002
0
LINE
8
BLACK
6
CONTINUOUS
10
5.79999
20
-3.04002
11
5.83099
21
-3.04002
0
LINE
8
BLACK
6
CONTINUOUS
10
5.83099
20
-3.04002
11
5.83239
21
-3.03974
0
LINE
8
BLACK
6
CONTINUOUS
10
5.83239
20
-3.03974
11
5.83343
21
-3.03953
0
LINE
8
BLACK
6
CONTINUOUS
10
5.83343
20
-3.03953
11
5.83343
21
-3.03953
0
LINE
8
BLACK
6
CONTINUOUS
10
5.83343
20
-3.03953
11
5.83391
21
-3.03944
0
LINE
8
BLACK
6
CONTINUOUS
10
5.83391
20
-3.03944
11
5.83432
21
-3.03917
0
LINE
8
BLACK
6
CONTINUOUS
10
5.83432
20
-3.03917
11
5.83432
21
-3.03917
0
LINE
8
BLACK
6
CONTINUOUS
10
5.83432
20
-3.03917
11
5.83682
21
-3.0375
0
LINE
8
BLACK
6
CONTINUOUS
10
5.83682
20
-3.0375
11
5.83722
21
-3.03722
0
LINE
8
BLACK
6
CONTINUOUS
10
5.83722
20
-3.03722
11
5.83944
21
-3.03391
0
LINE
8
BLACK
6
CONTINUOUS
10
5.83944
20
-3.03391
11
5.84002
21
-3.03099
0
LINE
8
BLACK
6
CONTINUOUS
10
5.84002
20
-3.03099
11
5.84002
21
-2.96901
0
LINE
8
BLACK
6
CONTINUOUS
10
5.84002
20
-2.96901
11
5.84002
21
-2.96901
0
LINE
8
BLACK
6
CONTINUOUS
10
5.84002
20
-2.96901
11
5.83944
21
-2.96609
0
LINE
8
BLACK
6
CONTINUOUS
10
5.83944
20
-2.96609
11
5.83722
21
-2.96278
0
LINE
8
BLACK
6
CONTINUOUS
10
5.73722
20
-2.96278
11
5.73391
21
-2.96056
0
LINE
8
BLACK
6
CONTINUOUS
10
5.73391
20
-2.96056
11
5.73099
21
-2.95998
0
LINE
8
BLACK
6
CONTINUOUS
10
5.73099
20
-2.95998
11
5.70001
21
-2.95998
0
LINE
8
BLACK
6
CONTINUOUS
10
5.70001
20
-2.95998
11
5.66901
21
-2.95998
0
LINE
8
BLACK
6
CONTINUOUS
10
5.66901
20
-2.95998
11
5.66761
21
-2.96026
0
LINE
8
BLACK
6
CONTINUOUS
10
5.66761
20
-2.96026
11
5.66657
21
-2.96047
0
LINE
8
BLACK
6
CONTINUOUS
10
5.66657
20
-2.96047
11
5.66657
21
-2.96047
0
LINE
8
BLACK
6
CONTINUOUS
10
5.66657
20
-2.96047
11
5.66609
21
-2.96056
0
LINE
8
BLACK
6
CONTINUOUS
10
5.66609
20
-2.96056
11
5.66568
21
-2.96083
0
LINE
8
BLACK
6
CONTINUOUS
10
5.66568
20
-2.96083
11
5.66568
21
-2.96083
0
LINE
8
BLACK
6
CONTINUOUS
10
5.66568
20
-2.96083
11
5.66331
21
-2.96242
0
LINE
8
BLACK
6
CONTINUOUS
10
5.66331
20
-2.96242
11
5.66278
21
-2.96278
0
LINE
8
BLACK
6
CONTINUOUS
10
5.66278
20
-2.96278
11
5.66056
21
-2.96609
0
LINE
8
BLACK
6
CONTINUOUS
10
5.66056
20
-2.96609
11
5.65998
21
-2.96901
0
LINE
8
BLACK
6
CONTINUOUS
10
5.65998
20
-2.96901
11
5.65998
21
-3.03099
0
LINE
8
BLACK
6
CONTINUOUS
10
5.65998
20
-3.03099
11
5.66056
21
-3.03391
0
LINE
8
BLACK
6
CONTINUOUS
10
5.66056
20
-3.03391
11
5.66278
21
-3.03722
0
LINE
8
BLACK
6
CONTINUOUS
10
5.66278
20
-3.03722
11
5.66609
21
-3.03944
0
LINE
8
BLACK
6
CONTINUOUS
10
5.66609
20
-3.03944
11
5.66901
21
-3.04002
0
LINE
8
BLACK
6
CONTINUOUS
10
5.66901
20
-3.04002
11
5.69999
21
-3.04002
0
LINE
8
BLACK
6
CONTINUOUS
10
5.69999
20
-3.04002
11
5.73099
21
-3.04002
0
LINE
8
BLACK
6
CONTINUOUS
10
5.73099
20
-3.04002
11
5.73239
21
-3.03974
0
LINE
8
BLACK
6
CONTINUOUS
10
5.73239
20
-3.03974
11
5.73343
21
-3.03953
0
LINE
8
BLACK
6
CONTINUOUS
10
5.73343
20
-3.03953
11
5.73343
21
-3.03953
0
LINE
8
BLACK
6
CONTINUOUS
10
5.73343
20
-3.03953
11
5.73391
21
-3.03944
0
LINE
8
BLACK
6
CONTINUOUS
10
5.73391
20
-3.03944
11
5.73432
21
-3.03917
0
LINE
8
BLACK
6
CONTINUOUS
10
5.73432
20
-3.03917
11
5.73432
21
-3.03917
0
LINE
8
BLACK
6
CONTINUOUS
10
5.73432
20
-3.03917
11
5.73682
21
-3.0375
0
LINE
8
BLACK
6
CONTINUOUS
10
5.73682
20
-3.0375
11
5.73722
21
-3.03722
0
LINE
8
BLACK
6
CONTINUOUS
10
5.73722
20
-3.03722
11
5.73944
21
-3.03391
0
LINE
8
BLACK
6
CONTINUOUS
10
5.73944
20
-3.03391
11
5.74002
21
-3.03099
0
LINE
8
BLACK
6
CONTINUOUS
10
5.74002
20
-3.03099
11
5.74002
21
-2.96901
0
LINE
8
BLACK
6
CONTINUOUS
10
5.74002
20
-2.96901
11
5.74002
21
-2.96901
0
LINE
8
BLACK
6
CONTINUOUS
10
5.74002
20
-2.96901
11
5.73944
21
-2.96609
0
LINE
8
BLACK
6
CONTINUOUS
10
5.73944
20
-2.96609
11
5.73722
21
-2.96278
0
LINE
8
BLACK
6
CONTINUOUS
10
5.54999
20
-2.96797
11
5.54977
21
-2.96597
0
LINE
8
BLACK
6
CONTINUOUS
10
5.54977
20
-2.96597
11
5.54963
21
-2.96537
0
LINE
8
BLACK
6
CONTINUOUS
10
5.54963
20
-2.96537
11
5.54785
21
-2.96063
0
LINE
8
BLACK
6
CONTINUOUS
10
5.54785
20
-2.96063
11
5.54751
21
-2.96001
0
LINE
8
BLACK
6
CONTINUOUS
10
5.54751
20
-2.96001
11
5.5445
21
-2.956
0
LINE
8
BLACK
6
CONTINUOUS
10
5.5445
20
-2.956
11
5.544
21
-2.9555
0
LINE
8
BLACK
6
CONTINUOUS
10
5.544
20
-2.9555
11
5.53999
21
-2.95249
0
LINE
8
BLACK
6
CONTINUOUS
10
5.53999
20
-2.95249
11
5.53937
21
-2.95215
0
LINE
8
BLACK
6
CONTINUOUS
10
5.53937
20
-2.95215
11
5.53463
21
-2.95037
0
LINE
8
BLACK
6
CONTINUOUS
10
5.53463
20
-2.95037
11
5.53403
21
-2.95023
0
LINE
8
BLACK
6
CONTINUOUS
10
5.53403
20
-2.95023
11
5.53203
21
-2.95001
0
LINE
8
BLACK
6
CONTINUOUS
10
5.53203
20
-2.95001
11
5.53176
21
-2.95
0
LINE
8
BLACK
6
CONTINUOUS
10
5.53176
20
-2.95
11
5.51071
21
-2.95
0
LINE
8
BLACK
6
CONTINUOUS
10
5.51071
20
-2.95
11
5.51011
21
-2.95018
0
LINE
8
BLACK
6
CONTINUOUS
10
5.51011
20
-2.95018
11
5.51007
21
-2.95023
0
LINE
8
BLACK
6
CONTINUOUS
10
5.51007
20
-2.95023
11
5.51
21
-2.95053
0
LINE
8
BLACK
6
CONTINUOUS
10
5.51
20
-2.95053
11
5.51
21
-2.97
0
LINE
8
BLACK
6
CONTINUOUS
10
5.51
20
-2.97
11
5.53
21
-2.97
0
LINE
8
BLACK
6
CONTINUOUS
10
5.53
20
-2.97
11
5.53
21
-2.99
0
LINE
8
BLACK
6
CONTINUOUS
10
5.53
20
-2.99
11
5.54929
21
-2.99
0
LINE
8
BLACK
6
CONTINUOUS
10
5.54929
20
-2.99
11
5.54989
21
-2.98982
0
LINE
8
BLACK
6
CONTINUOUS
10
5.54989
20
-2.98982
11
5.54993
21
-2.98977
0
LINE
8
BLACK
6
CONTINUOUS
10
5.54993
20
-2.98977
11
5.55
21
-2.98947
0
LINE
8
BLACK
6
CONTINUOUS
10
5.55
20
-2.98947
11
5.55
21
-2.96824
0
LINE
8
BLACK
6
CONTINUOUS
10
5.55
20
-2.96824
11
5.54999
21
-2.96797
0
LINE
8
BLACK
6
CONTINUOUS
10
5.26056
20
-3.03391
11
5.26278
21
-3.03722
0
LINE
8
BLACK
6
CONTINUOUS
10
5.26278
20
-3.03722
11
5.26609
21
-3.03944
0
LINE
8
BLACK
6
CONTINUOUS
10
5.26609
20
-3.03944
11
5.26901
21
-3.04002
0
LINE
8
BLACK
6
CONTINUOUS
10
5.26901
20
-3.04002
11
5.29999
21
-3.04002
0
LINE
8
BLACK
6
CONTINUOUS
10
5.29999
20
-3.04002
11
5.33099
21
-3.04002
0
LINE
8
BLACK
6
CONTINUOUS
10
5.33099
20
-3.04002
11
5.33239
21
-3.03974
0
LINE
8
BLACK
6
CONTINUOUS
10
5.33239
20
-3.03974
11
5.33343
21
-3.03953
0
LINE
8
BLACK
6
CONTINUOUS
10
5.33343
20
-3.03953
11
5.33343
21
-3.03953
0
LINE
8
BLACK
6
CONTINUOUS
10
5.33343
20
-3.03953
11
5.33391
21
-3.03944
0
LINE
8
BLACK
6
CONTINUOUS
10
5.33391
20
-3.03944
11
5.33432
21
-3.03917
0
LINE
8
BLACK
6
CONTINUOUS
10
5.33432
20
-3.03917
11
5.33432
21
-3.03917
0
LINE
8
BLACK
6
CONTINUOUS
10
5.33432
20
-3.03917
11
5.33682
21
-3.0375
0
LINE
8
BLACK
6
CONTINUOUS
10
5.33682
20
-3.0375
11
5.33722
21
-3.03722
0
LINE
8
BLACK
6
CONTINUOUS
10
5.33722
20
-3.03722
11
5.33944
21
-3.03391
0
LINE
8
BLACK
6
CONTINUOUS
10
5.33944
20
-3.03391
11
5.34002
21
-3.03099
0
LINE
8
BLACK
6
CONTINUOUS
10
5.34002
20
-3.03099
11
5.34002
21
-2.96901
0
LINE
8
BLACK
6
CONTINUOUS
10
5.34002
20
-2.96901
11
5.34002
21
-2.96901
0
LINE
8
BLACK
6
CONTINUOUS
10
5.34002
20
-2.96901
11
5.33944
21
-2.96609
0
LINE
8
BLACK
6
CONTINUOUS
10
5.33944
20
-2.96609
11
5.33722
21
-2.96278
0
LINE
8
BLACK
6
CONTINUOUS
10
5.33722
20
-2.96278
11
5.33391
21
-2.96056
0
LINE
8
BLACK
6
CONTINUOUS
10
5.33391
20
-2.96056
11
5.33099
21
-2.95998
0
LINE
8
BLACK
6
CONTINUOUS
10
5.33099
20
-2.95998
11
5.30001
21
-2.95998
0
LINE
8
BLACK
6
CONTINUOUS
10
5.30001
20
-2.95998
11
5.26901
21
-2.95998
0
LINE
8
BLACK
6
CONTINUOUS
10
5.26901
20
-2.95998
11
5.26761
21
-2.96026
0
LINE
8
BLACK
6
CONTINUOUS
10
5.26761
20
-2.96026
11
5.26657
21
-2.96047
0
LINE
8
BLACK
6
CONTINUOUS
10
5.26657
20
-2.96047
11
5.26657
21
-2.96047
0
LINE
8
BLACK
6
CONTINUOUS
10
5.26657
20
-2.96047
11
5.26609
21
-2.96056
0
LINE
8
BLACK
6
CONTINUOUS
10
5.26609
20
-2.96056
11
5.26568
21
-2.96083
0
LINE
8
BLACK
6
CONTINUOUS
10
5.26568
20
-2.96083
11
5.26568
21
-2.96083
0
LINE
8
BLACK
6
CONTINUOUS
10
5.26568
20
-2.96083
11
5.26331
21
-2.96242
0
LINE
8
BLACK
6
CONTINUOUS
10
5.26331
20
-2.96242
11
5.26278
21
-2.96278
0
LINE
8
BLACK
6
CONTINUOUS
10
5.26278
20
-2.96278
11
5.26056
21
-2.96609
0
LINE
8
BLACK
6
CONTINUOUS
10
5.26056
20
-2.96609
11
5.25998
21
-2.96901
0
LINE
8
BLACK
6
CONTINUOUS
10
5.25998
20
-2.96901
11
5.25998
21
-3.03099
0
LINE
8
BLACK
6
CONTINUOUS
10
5.25998
20
-3.03099
11
5.26056
21
-3.03391
0
LINE
8
BLACK
6
CONTINUOUS
10
5.08
20
-3.43
11
5.02
21
-3.43
0
LINE
8
BLACK
6
CONTINUOUS
10
5.02
20
-3.43
11
5.02
21
-3.37
0
LINE
8
BLACK
6
CONTINUOUS
10
5.02
20
-3.37
11
5.08
21
-3.37
0
LINE
8
BLACK
6
CONTINUOUS
10
5.08
20
-3.37
11
5.08
21
-3.43
0
LINE
8
BLACK
6
CONTINUOUS
10
4.98
20
-3.43
11
4.92
21
-3.43
0
LINE
8
BLACK
6
CONTINUOUS
10
4.92
20
-3.43
11
4.92
21
-3.37
0
LINE
8
BLACK
6
CONTINUOUS
10
4.92
20
-3.37
11
4.98
21
-3.37
0
LINE
8
BLACK
6
CONTINUOUS
10
4.98
20
-3.37
11
4.98
21
-3.43
0
LINE
8
BLACK
6
CONTINUOUS
10
5.93
20
-3.03
11
5.87
21
-3.03
0
LINE
8
BLACK
6
CONTINUOUS
10
5.87
20
-3.03
11
5.87
21
-2.97
0
LINE
8
BLACK
6
CONTINUOUS
10
5.87
20
-2.97
11
5.93
21
-2.97
0
LINE
8
BLACK
6
CONTINUOUS
10
5.93
20
-2.97
11
5.93
21
-3.03
0
LINE
8
BLACK
6
CONTINUOUS
10
5.83
20
-3.88
11
5.77
21
-3.88
0
LINE
8
BLACK
6
CONTINUOUS
10
5.77
20
-3.88
11
5.77
21
-3.82
0
LINE
8
BLACK
6
CONTINUOUS
10
5.77
20
-3.82
11
5.83
21
-3.82
0
LINE
8
BLACK
6
CONTINUOUS
10
5.83
20
-3.82
11
5.83
21
-3.88
0
LINE
8
BLACK
6
CONTINUOUS
10
5.33
20
-3.83
11
5.27
21
-3.83
0
LINE
8
BLACK
6
CONTINUOUS
10
5.27
20
-3.83
11
5.27
21
-3.77
0
LINE
8
BLACK
6
CONTINUOUS
10
5.27
20
-3.77
11
5.33
21
-3.77
0
LINE
8
BLACK
6
CONTINUOUS
10
5.33
20
-3.77
11
5.33
21
-3.83
0
LINE
8
BLACK
6
CONTINUOUS
10
5.83
20
-3.78
11
5.77
21
-3.78
0
LINE
8
BLACK
6
CONTINUOUS
10
5.77
20
-3.78
11
5.77
21
-3.72
0
LINE
8
BLACK
6
CONTINUOUS
10
5.77
20
-3.72
11
5.83
21
-3.72
0
LINE
8
BLACK
6
CONTINUOUS
10
5.83
20
-3.72
11
5.83
21
-3.78
0
LINE
8
BLACK
6
CONTINUOUS
10
6.28
20
-3.43
11
6.22
21
-3.43
0
LINE
8
BLACK
6
CONTINUOUS
10
6.22
20
-3.43
11
6.22
21
-3.37
0
LINE
8
BLACK
6
CONTINUOUS
10
6.22
20
-3.37
11
6.28
21
-3.37
0
LINE
8
BLACK
6
CONTINUOUS
10
6.28
20
-3.37
11
6.28
21
-3.43
0
LINE
8
BLACK
6
CONTINUOUS
10
6.18
20
-3.43
11
6.12
21
-3.43
0
LINE
8
BLACK
6
CONTINUOUS
10
6.12
20
-3.43
11
6.12
21
-3.37
0
LINE
8
BLACK
6
CONTINUOUS
10
6.12
20
-3.37
11
6.18
21
-3.37
0
LINE
8
BLACK
6
CONTINUOUS
10
6.18
20
-3.37
11
6.18
21
-3.43
0
LINE
8
BLACK
6
CONTINUOUS
10
5.55787
20
-3.15002
11
5.56226
21
-3.15226
0
LINE
8
BLACK
6
CONTINUOUS
10
5.56226
20
-3.15226
11
5.56574
21
-3.15574
0
LINE
8
BLACK
6
CONTINUOUS
10
5.56574
20
-3.15574
11
5.56798
21
-3.16013
0
LINE
8
BLACK
6
CONTINUOUS
10
5.56798
20
-3.16013
11
5.56875
21
-3.165
0
LINE
8
BLACK
6
CONTINUOUS
10
5.56875
20
-3.165
11
5.56798
21
-3.16987
0
LINE
8
BLACK
6
CONTINUOUS
10
5.56798
20
-3.16987
11
5.56574
21
-3.17426
0
LINE
8
BLACK
6
CONTINUOUS
10
5.56574
20
-3.17426
11
5.56226
21
-3.17774
0
LINE
8
BLACK
6
CONTINUOUS
10
5.56226
20
-3.17774
11
5.55787
21
-3.17998
0
LINE
8
BLACK
6
CONTINUOUS
10
5.55787
20
-3.17998
11
5.553
21
-3.18075
0
LINE
8
BLACK
6
CONTINUOUS
10
5.553
20
-3.18075
11
5.54902
21
-3.18012
0
LINE
8
BLACK
6
CONTINUOUS
10
5.54902
20
-3.18012
11
5.40787
21
-3.32126
0
LINE
8
BLACK
6
CONTINUOUS
10
5.40787
20
-3.32126
11
5.40787
21
-3.77
0
LINE
8
BLACK
6
CONTINUOUS
10
5.40787
20
-3.77
11
5.43
21
-3.77
0
LINE
8
BLACK
6
CONTINUOUS
10
5.43
20
-3.77
11
5.43
21
-3.83
0
LINE
8
BLACK
6
CONTINUOUS
10
5.43
20
-3.83
11
5.37
21
-3.83
0
LINE
8
BLACK
6
CONTINUOUS
10
5.37
20
-3.83
11
5.37
21
-3.77
0
LINE
8
BLACK
6
CONTINUOUS
10
5.37
20
-3.77
11
5.39213
21
-3.77
0
LINE
8
BLACK
6
CONTINUOUS
10
5.39213
20
-3.77
11
5.39213
21
-3.31799
0
LINE
8
BLACK
6
CONTINUOUS
10
5.39213
20
-3.31799
11
5.39242
21
-3.3167
0
LINE
8
BLACK
6
CONTINUOUS
10
5.39242
20
-3.3167
11
5.39257
21
-3.3154
0
LINE
8
BLACK
6
CONTINUOUS
10
5.39257
20
-3.3154
11
5.39281
21
-3.31501
0
LINE
8
BLACK
6
CONTINUOUS
10
5.39281
20
-3.31501
11
5.39291
21
-3.31457
0
LINE
8
BLACK
6
CONTINUOUS
10
5.39291
20
-3.31457
11
5.39373
21
-3.31355
0
LINE
8
BLACK
6
CONTINUOUS
10
5.39373
20
-3.31355
11
5.39443
21
-3.31243
0
LINE
8
BLACK
6
CONTINUOUS
10
5.39443
20
-3.31243
11
5.53788
21
-3.16898
0
LINE
8
BLACK
6
CONTINUOUS
10
5.53788
20
-3.16898
11
5.53725
21
-3.165
0
LINE
8
BLACK
6
CONTINUOUS
10
5.53725
20
-3.165
11
5.53802
21
-3.16013
0
LINE
8
BLACK
6
CONTINUOUS
10
5.53802
20
-3.16013
11
5.54026
21
-3.15574
0
LINE
8
BLACK
6
CONTINUOUS
10
5.54026
20
-3.15574
11
5.54374
21
-3.15226
0
LINE
8
BLACK
6
CONTINUOUS
10
5.54374
20
-3.15226
11
5.54813
21
-3.15002
0
LINE
8
BLACK
6
CONTINUOUS
10
5.54813
20
-3.15002
11
5.553
21
-3.14925
0
LINE
8
BLACK
6
CONTINUOUS
10
5.553
20
-3.14925
11
5.55787
21
-3.15002
0
LINE
8
BLACK
6
CONTINUOUS
10
5.43
20
-3.03
11
5.37
21
-3.03
0
LINE
8
BLACK
6
CONTINUOUS
10
5.37
20
-3.03
11
5.37
21
-2.97
0
LINE
8
BLACK
6
CONTINUOUS
10
5.37
20
-2.97
11
5.43
21
-2.97
0
LINE
8
BLACK
6
CONTINUOUS
10
5.43
20
-2.97
11
5.43
21
-3.03
0
LINE
8
BLACK
6
CONTINUOUS
10
5.83
20
-3.03
11
5.77
21
-3.03
0
LINE
8
BLACK
6
CONTINUOUS
10
5.77
20
-3.03
11
5.77
21
-2.97
0
LINE
8
BLACK
6
CONTINUOUS
10
5.77
20
-2.97
11
5.83
21
-2.97
0
LINE
8
BLACK
6
CONTINUOUS
10
5.83
20
-2.97
11
5.83
21
-3.03
0
LINE
8
BLACK
6
CONTINUOUS
10
5.73
20
-3.03
11
5.67
21
-3.03
0
LINE
8
BLACK
6
CONTINUOUS
10
5.67
20
-3.03
11
5.67
21
-2.97
0
LINE
8
BLACK
6
CONTINUOUS
10
5.67
20
-2.97
11
5.73
21
-2.97
0
LINE
8
BLACK
6
CONTINUOUS
10
5.73
20
-2.97
11
5.73
21
-3.03
0
LINE
8
BLACK
6
CONTINUOUS
10
5.33
20
-3.03
11
5.27
21
-3.03
0
LINE
8
BLACK
6
CONTINUOUS
10
5.27
20
-3.03
11
5.27
21
-2.97
0
LINE
8
BLACK
6
CONTINUOUS
10
5.27
20
-2.97
11
5.33
21
-2.97
0
LINE
8
BLACK
6
CONTINUOUS
10
5.33
20
-2.97
11
5.33
21
-3.03
0
CIRCLE
8
BLACK
10
5.607
20
-3.222
40
0.00787402
0
CIRCLE
8
BLACK
10
5.553
20
-3.165
40
0.00787402
  0
ENDSEC
  0
EOF
