  0
SECTION
  2
HEADER
  9
$ANGBASE
  50
0.0
  9
$ANGDIR
  70
1
  9
$MEASUREMENT
  70
0
  0
ENDSEC
  0
SECTION
  2
TABLES
  0
TABLE
  2
LTYPE
  70
4
  0
LTYPE
  5
40F
  2
CONTINUOUS
  70
0
  3
Solid line
  72
65
  73
0
  40
0.0
  0
LTYPE
  5
410
  2
DASHDOT
 70
0
  3
Dash Dot ____ _ ____ _
 72
65
 73
4
 40
2.0
 49
1.25
 49
-0.25
 49
0.25
 49
-0.25
  0
LTYPE
  5
411
  2
DASHED
 70
0
  3
Dashed __ __ __ __ __
 72
65
 73
2
 40
0.75
 49
0.5
 49
-0.25
  0
LTYPE
  5
43B
  2
DOTTED
 70
0
  3
Dotted .  .  .  .
 72
65
 73
2
 40
0.2
 49
0.0
 49
-0.2
  0
ENDTAB
  0
TABLE
  2
STYLE
  70
4
  0
STYLE
  2
KICAD
  70
0
  40
0
  41
1
  42
1
  50
0
  71
0
  3
isocp.shx
  0
STYLE
  2
KICADB
  70
0
  40
0
  41
1
  42
1
  50
0
  71
0
  3
isocp.shx
  0
STYLE
  2
KICADI
  70
0
  40
0
  41
1
  42
1
  50
15
  71
0
  3
isocp.shx
  0
STYLE
  2
KICADBI
  70
0
  40
0
  41
1
  42
1
  50
15
  71
0
  3
isocp.shx
  0
ENDTAB
  0
TABLE
  2
LAYER
  70
1
  0
LAYER
  2
BLACK
  70
0
  62
7
  6
CONTINUOUS
  0
ENDTAB
  0
ENDSEC
  0
SECTION
  2
ENTITIES
0
LINE
8
BLACK
6
CONTINUOUS
10
0.598255
20
0.713818
11
0.601448
21
0.711684
0
LINE
8
BLACK
6
CONTINUOUS
10
0.601448
20
0.711684
11
0.603581
21
0.708491
0
LINE
8
BLACK
6
CONTINUOUS
10
0.603581
20
0.708491
11
0.604331
21
0.704724
0
LINE
8
BLACK
6
CONTINUOUS
10
0.604331
20
0.704724
11
0.604331
21
0.625984
0
LINE
8
BLACK
6
CONTINUOUS
10
0.604331
20
0.625984
11
0.603581
21
0.622218
0
LINE
8
BLACK
6
CONTINUOUS
10
0.603581
20
0.622218
11
0.601448
21
0.619025
0
LINE
8
BLACK
6
CONTINUOUS
10
0.601448
20
0.619025
11
0.598255
21
0.616891
0
LINE
8
BLACK
6
CONTINUOUS
10
0.598255
20
0.616891
11
0.594488
21
0.616142
0
LINE
8
BLACK
6
CONTINUOUS
10
0.594488
20
0.616142
11
0.543307
21
0.616142
0
LINE
8
BLACK
6
CONTINUOUS
10
0.543307
20
0.616142
11
0.539541
21
0.616891
0
LINE
8
BLACK
6
CONTINUOUS
10
0.539541
20
0.616891
11
0.536347
21
0.619025
0
LINE
8
BLACK
6
CONTINUOUS
10
0.536347
20
0.619025
11
0.534214
21
0.622218
0
LINE
8
BLACK
6
CONTINUOUS
10
0.534214
20
0.622218
11
0.533465
21
0.625984
0
LINE
8
BLACK
6
CONTINUOUS
10
0.533465
20
0.625984
11
0.533465
21
0.704724
0
LINE
8
BLACK
6
CONTINUOUS
10
0.533465
20
0.704724
11
0.534214
21
0.708491
0
LINE
8
BLACK
6
CONTINUOUS
10
0.534214
20
0.708491
11
0.536347
21
0.711684
0
LINE
8
BLACK
6
CONTINUOUS
10
0.536347
20
0.711684
11
0.539541
21
0.713818
0
LINE
8
BLACK
6
CONTINUOUS
10
0.539541
20
0.713818
11
0.543307
21
0.714567
0
LINE
8
BLACK
6
CONTINUOUS
10
0.543307
20
0.714567
11
0.594488
21
0.714567
0
LINE
8
BLACK
6
CONTINUOUS
10
0.594488
20
0.714567
11
0.598255
21
0.713818
0
LINE
8
BLACK
6
CONTINUOUS
10
1.11794
20
0.732026
11
1.12113
21
0.729893
0
LINE
8
BLACK
6
CONTINUOUS
10
1.12113
20
0.729893
11
1.12327
21
0.7267
0
LINE
8
BLACK
6
CONTINUOUS
10
1.12327
20
0.7267
11
1.12402
21
0.722933
0
LINE
8
BLACK
6
CONTINUOUS
10
1.12402
20
0.722933
11
1.12402
21
0.702264
0
LINE
8
BLACK
6
CONTINUOUS
10
1.12402
20
0.702264
11
1.12327
21
0.698497
0
LINE
8
BLACK
6
CONTINUOUS
10
1.12327
20
0.698497
11
1.12113
21
0.695304
0
LINE
8
BLACK
6
CONTINUOUS
10
1.12113
20
0.695304
11
1.11794
21
0.69317
0
LINE
8
BLACK
6
CONTINUOUS
10
1.11794
20
0.69317
11
1.11417
21
0.692421
0
LINE
8
BLACK
6
CONTINUOUS
10
1.11417
20
0.692421
11
1.07874
21
0.692421
0
LINE
8
BLACK
6
CONTINUOUS
10
1.07874
20
0.692421
11
1.07497
21
0.69317
0
LINE
8
BLACK
6
CONTINUOUS
10
1.07497
20
0.69317
11
1.07178
21
0.695304
0
LINE
8
BLACK
6
CONTINUOUS
10
1.07178
20
0.695304
11
1.06965
21
0.698497
0
LINE
8
BLACK
6
CONTINUOUS
10
1.06965
20
0.698497
11
1.0689
21
0.702264
0
LINE
8
BLACK
6
CONTINUOUS
10
1.0689
20
0.702264
11
1.0689
21
0.722933
0
LINE
8
BLACK
6
CONTINUOUS
10
1.0689
20
0.722933
11
1.06965
21
0.7267
0
LINE
8
BLACK
6
CONTINUOUS
10
1.06965
20
0.7267
11
1.07178
21
0.729893
0
LINE
8
BLACK
6
CONTINUOUS
10
1.07178
20
0.729893
11
1.07497
21
0.732026
0
LINE
8
BLACK
6
CONTINUOUS
10
1.07497
20
0.732026
11
1.07874
21
0.732776
0
LINE
8
BLACK
6
CONTINUOUS
10
1.07874
20
0.732776
11
1.11417
21
0.732776
0
LINE
8
BLACK
6
CONTINUOUS
10
1.11417
20
0.732776
11
1.11794
21
0.732026
0
LINE
8
BLACK
6
CONTINUOUS
10
0.768648
20
0.813306
11
0.771842
21
0.811172
0
LINE
8
BLACK
6
CONTINUOUS
10
0.771842
20
0.811172
11
0.773975
21
0.807979
0
LINE
8
BLACK
6
CONTINUOUS
10
0.773975
20
0.807979
11
0.774724
21
0.804213
0
LINE
8
BLACK
6
CONTINUOUS
10
0.774724
20
0.804213
11
0.774724
21
0.737283
0
LINE
8
BLACK
6
CONTINUOUS
10
0.774724
20
0.737283
11
0.773975
21
0.733517
0
LINE
8
BLACK
6
CONTINUOUS
10
0.773975
20
0.733517
11
0.771842
21
0.730324
0
LINE
8
BLACK
6
CONTINUOUS
10
0.771842
20
0.730324
11
0.768648
21
0.72819
0
LINE
8
BLACK
6
CONTINUOUS
10
0.768648
20
0.72819
11
0.764882
21
0.727441
0
LINE
8
BLACK
6
CONTINUOUS
10
0.764882
20
0.727441
11
0.735354
21
0.727441
0
LINE
8
BLACK
6
CONTINUOUS
10
0.735354
20
0.727441
11
0.731588
21
0.72819
0
LINE
8
BLACK
6
CONTINUOUS
10
0.731588
20
0.72819
11
0.728395
21
0.730324
0
LINE
8
BLACK
6
CONTINUOUS
10
0.728395
20
0.730324
11
0.726261
21
0.733517
0
LINE
8
BLACK
6
CONTINUOUS
10
0.726261
20
0.733517
11
0.725512
21
0.737283
0
LINE
8
BLACK
6
CONTINUOUS
10
0.725512
20
0.737283
11
0.725512
21
0.804213
0
LINE
8
BLACK
6
CONTINUOUS
10
0.725512
20
0.804213
11
0.726261
21
0.807979
0
LINE
8
BLACK
6
CONTINUOUS
10
0.726261
20
0.807979
11
0.728395
21
0.811172
0
LINE
8
BLACK
6
CONTINUOUS
10
0.728395
20
0.811172
11
0.731588
21
0.813306
0
LINE
8
BLACK
6
CONTINUOUS
10
0.731588
20
0.813306
11
0.735354
21
0.814055
0
LINE
8
BLACK
6
CONTINUOUS
10
0.735354
20
0.814055
11
0.764882
21
0.814055
0
LINE
8
BLACK
6
CONTINUOUS
10
0.764882
20
0.814055
11
0.768648
21
0.813306
0
LINE
8
BLACK
6
CONTINUOUS
10
0.853294
20
0.813306
11
0.856487
21
0.811172
0
LINE
8
BLACK
6
CONTINUOUS
10
0.856487
20
0.811172
11
0.858621
21
0.807979
0
LINE
8
BLACK
6
CONTINUOUS
10
0.858621
20
0.807979
11
0.85937
21
0.804213
0
LINE
8
BLACK
6
CONTINUOUS
10
0.85937
20
0.804213
11
0.85937
21
0.737283
0
LINE
8
BLACK
6
CONTINUOUS
10
0.85937
20
0.737283
11
0.858621
21
0.733517
0
LINE
8
BLACK
6
CONTINUOUS
10
0.858621
20
0.733517
11
0.856487
21
0.730324
0
LINE
8
BLACK
6
CONTINUOUS
10
0.856487
20
0.730324
11
0.853294
21
0.72819
0
LINE
8
BLACK
6
CONTINUOUS
10
0.853294
20
0.72819
11
0.849528
21
0.727441
0
LINE
8
BLACK
6
CONTINUOUS
10
0.849528
20
0.727441
11
0.82
21
0.727441
0
LINE
8
BLACK
6
CONTINUOUS
10
0.82
20
0.727441
11
0.816233
21
0.72819
0
LINE
8
BLACK
6
CONTINUOUS
10
0.816233
20
0.72819
11
0.81304
21
0.730324
0
LINE
8
BLACK
6
CONTINUOUS
10
0.81304
20
0.730324
11
0.810907
21
0.733517
0
LINE
8
BLACK
6
CONTINUOUS
10
0.810907
20
0.733517
11
0.810157
21
0.737283
0
LINE
8
BLACK
6
CONTINUOUS
10
0.810157
20
0.737283
11
0.810157
21
0.804213
0
LINE
8
BLACK
6
CONTINUOUS
10
0.810157
20
0.804213
11
0.810907
21
0.807979
0
LINE
8
BLACK
6
CONTINUOUS
10
0.810907
20
0.807979
11
0.81304
21
0.811172
0
LINE
8
BLACK
6
CONTINUOUS
10
0.81304
20
0.811172
11
0.816233
21
0.813306
0
LINE
8
BLACK
6
CONTINUOUS
10
0.816233
20
0.813306
11
0.82
21
0.814055
0
LINE
8
BLACK
6
CONTINUOUS
10
0.82
20
0.814055
11
0.849528
21
0.814055
0
LINE
8
BLACK
6
CONTINUOUS
10
0.849528
20
0.814055
11
0.853294
21
0.813306
0
LINE
8
BLACK
6
CONTINUOUS
10
1.11794
20
0.803877
11
1.12113
21
0.801743
0
LINE
8
BLACK
6
CONTINUOUS
10
1.12113
20
0.801743
11
1.12327
21
0.79855
0
LINE
8
BLACK
6
CONTINUOUS
10
1.12327
20
0.79855
11
1.12402
21
0.794783
0
LINE
8
BLACK
6
CONTINUOUS
10
1.12402
20
0.794783
11
1.12402
21
0.774114
0
LINE
8
BLACK
6
CONTINUOUS
10
1.12402
20
0.774114
11
1.12327
21
0.770348
0
LINE
8
BLACK
6
CONTINUOUS
10
1.12327
20
0.770348
11
1.12113
21
0.767154
0
LINE
8
BLACK
6
CONTINUOUS
10
1.12113
20
0.767154
11
1.11794
21
0.765021
0
LINE
8
BLACK
6
CONTINUOUS
10
1.11794
20
0.765021
11
1.11417
21
0.764272
0
LINE
8
BLACK
6
CONTINUOUS
10
1.11417
20
0.764272
11
1.07874
21
0.764272
0
LINE
8
BLACK
6
CONTINUOUS
10
1.07874
20
0.764272
11
1.07497
21
0.765021
0
LINE
8
BLACK
6
CONTINUOUS
10
1.07497
20
0.765021
11
1.07178
21
0.767154
0
LINE
8
BLACK
6
CONTINUOUS
10
1.07178
20
0.767154
11
1.06965
21
0.770348
0
LINE
8
BLACK
6
CONTINUOUS
10
1.06965
20
0.770348
11
1.0689
21
0.774114
0
LINE
8
BLACK
6
CONTINUOUS
10
1.0689
20
0.774114
11
1.0689
21
0.794783
0
LINE
8
BLACK
6
CONTINUOUS
10
1.0689
20
0.794783
11
1.06965
21
0.79855
0
LINE
8
BLACK
6
CONTINUOUS
10
1.06965
20
0.79855
11
1.07178
21
0.801743
0
LINE
8
BLACK
6
CONTINUOUS
10
1.07178
20
0.801743
11
1.07497
21
0.803877
0
LINE
8
BLACK
6
CONTINUOUS
10
1.07497
20
0.803877
11
1.07874
21
0.804626
0
LINE
8
BLACK
6
CONTINUOUS
10
1.07874
20
0.804626
11
1.11417
21
0.804626
0
LINE
8
BLACK
6
CONTINUOUS
10
1.11417
20
0.804626
11
1.11794
21
0.803877
0
LINE
8
BLACK
6
CONTINUOUS
10
0.948648
20
0.822085
11
0.951842
21
0.819952
0
LINE
8
BLACK
6
CONTINUOUS
10
0.951842
20
0.819952
11
0.953975
21
0.816759
0
LINE
8
BLACK
6
CONTINUOUS
10
0.953975
20
0.816759
11
0.954724
21
0.812992
0
LINE
8
BLACK
6
CONTINUOUS
10
0.954724
20
0.812992
11
0.954724
21
0.775591
0
LINE
8
BLACK
6
CONTINUOUS
10
0.954724
20
0.775591
11
0.953975
21
0.771824
0
LINE
8
BLACK
6
CONTINUOUS
10
0.953975
20
0.771824
11
0.951842
21
0.768631
0
LINE
8
BLACK
6
CONTINUOUS
10
0.951842
20
0.768631
11
0.948648
21
0.766497
0
LINE
8
BLACK
6
CONTINUOUS
10
0.948648
20
0.766497
11
0.944882
21
0.765748
0
LINE
8
BLACK
6
CONTINUOUS
10
0.944882
20
0.765748
11
0.925197
21
0.765748
0
LINE
8
BLACK
6
CONTINUOUS
10
0.925197
20
0.765748
11
0.92143
21
0.766497
0
LINE
8
BLACK
6
CONTINUOUS
10
0.92143
20
0.766497
11
0.918237
21
0.768631
0
LINE
8
BLACK
6
CONTINUOUS
10
0.918237
20
0.768631
11
0.916104
21
0.771824
0
LINE
8
BLACK
6
CONTINUOUS
10
0.916104
20
0.771824
11
0.915354
21
0.775591
0
LINE
8
BLACK
6
CONTINUOUS
10
0.915354
20
0.775591
11
0.915354
21
0.812992
0
LINE
8
BLACK
6
CONTINUOUS
10
0.915354
20
0.812992
11
0.916104
21
0.816759
0
LINE
8
BLACK
6
CONTINUOUS
10
0.916104
20
0.816759
11
0.918237
21
0.819952
0
LINE
8
BLACK
6
CONTINUOUS
10
0.918237
20
0.819952
11
0.92143
21
0.822085
0
LINE
8
BLACK
6
CONTINUOUS
10
0.92143
20
0.822085
11
0.925197
21
0.822835
0
LINE
8
BLACK
6
CONTINUOUS
10
0.925197
20
0.822835
11
0.944882
21
0.822835
0
LINE
8
BLACK
6
CONTINUOUS
10
0.944882
20
0.822835
11
0.948648
21
0.822085
0
LINE
8
BLACK
6
CONTINUOUS
10
1.02345
20
0.822085
11
1.02664
21
0.819952
0
LINE
8
BLACK
6
CONTINUOUS
10
1.02664
20
0.819952
11
1.02878
21
0.816759
0
LINE
8
BLACK
6
CONTINUOUS
10
1.02878
20
0.816759
11
1.02953
21
0.812992
0
LINE
8
BLACK
6
CONTINUOUS
10
1.02953
20
0.812992
11
1.02953
21
0.775591
0
LINE
8
BLACK
6
CONTINUOUS
10
1.02953
20
0.775591
11
1.02878
21
0.771824
0
LINE
8
BLACK
6
CONTINUOUS
10
1.02878
20
0.771824
11
1.02664
21
0.768631
0
LINE
8
BLACK
6
CONTINUOUS
10
1.02664
20
0.768631
11
1.02345
21
0.766497
0
LINE
8
BLACK
6
CONTINUOUS
10
1.02345
20
0.766497
11
1.01969
21
0.765748
0
LINE
8
BLACK
6
CONTINUOUS
10
1.01969
20
0.765748
11
1
21
0.765748
0
LINE
8
BLACK
6
CONTINUOUS
10
1
20
0.765748
11
0.996233
21
0.766497
0
LINE
8
BLACK
6
CONTINUOUS
10
0.996233
20
0.766497
11
0.99304
21
0.768631
0
LINE
8
BLACK
6
CONTINUOUS
10
0.99304
20
0.768631
11
0.990907
21
0.771824
0
LINE
8
BLACK
6
CONTINUOUS
10
0.990907
20
0.771824
11
0.990157
21
0.775591
0
LINE
8
BLACK
6
CONTINUOUS
10
0.990157
20
0.775591
11
0.990157
21
0.812992
0
LINE
8
BLACK
6
CONTINUOUS
10
0.990157
20
0.812992
11
0.990907
21
0.816759
0
LINE
8
BLACK
6
CONTINUOUS
10
0.990907
20
0.816759
11
0.99304
21
0.819952
0
LINE
8
BLACK
6
CONTINUOUS
10
0.99304
20
0.819952
11
0.996233
21
0.822085
0
LINE
8
BLACK
6
CONTINUOUS
10
0.996233
20
0.822085
11
1
21
0.822835
0
LINE
8
BLACK
6
CONTINUOUS
10
1
20
0.822835
11
1.01969
21
0.822835
0
LINE
8
BLACK
6
CONTINUOUS
10
1.01969
20
0.822835
11
1.02345
21
0.822085
0
LINE
8
BLACK
6
CONTINUOUS
10
0.598255
20
0.871298
11
0.601448
21
0.869164
0
LINE
8
BLACK
6
CONTINUOUS
10
0.601448
20
0.869164
11
0.603581
21
0.865971
0
LINE
8
BLACK
6
CONTINUOUS
10
0.603581
20
0.865971
11
0.604331
21
0.862205
0
LINE
8
BLACK
6
CONTINUOUS
10
0.604331
20
0.862205
11
0.604331
21
0.783465
0
LINE
8
BLACK
6
CONTINUOUS
10
0.604331
20
0.783465
11
0.603581
21
0.779698
0
LINE
8
BLACK
6
CONTINUOUS
10
0.603581
20
0.779698
11
0.601448
21
0.776505
0
LINE
8
BLACK
6
CONTINUOUS
10
0.601448
20
0.776505
11
0.598255
21
0.774371
0
LINE
8
BLACK
6
CONTINUOUS
10
0.598255
20
0.774371
11
0.594488
21
0.773622
0
LINE
8
BLACK
6
CONTINUOUS
10
0.594488
20
0.773622
11
0.543307
21
0.773622
0
LINE
8
BLACK
6
CONTINUOUS
10
0.543307
20
0.773622
11
0.539541
21
0.774371
0
LINE
8
BLACK
6
CONTINUOUS
10
0.539541
20
0.774371
11
0.536347
21
0.776505
0
LINE
8
BLACK
6
CONTINUOUS
10
0.536347
20
0.776505
11
0.534214
21
0.779698
0
LINE
8
BLACK
6
CONTINUOUS
10
0.534214
20
0.779698
11
0.533465
21
0.783465
0
LINE
8
BLACK
6
CONTINUOUS
10
0.533465
20
0.783465
11
0.533465
21
0.862205
0
LINE
8
BLACK
6
CONTINUOUS
10
0.533465
20
0.862205
11
0.534214
21
0.865971
0
LINE
8
BLACK
6
CONTINUOUS
10
0.534214
20
0.865971
11
0.536347
21
0.869164
0
LINE
8
BLACK
6
CONTINUOUS
10
0.536347
20
0.869164
11
0.539541
21
0.871298
0
LINE
8
BLACK
6
CONTINUOUS
10
0.539541
20
0.871298
11
0.543307
21
0.872047
0
LINE
8
BLACK
6
CONTINUOUS
10
0.543307
20
0.872047
11
0.594488
21
0.872047
0
LINE
8
BLACK
6
CONTINUOUS
10
0.594488
20
0.872047
11
0.598255
21
0.871298
0
LINE
8
BLACK
6
CONTINUOUS
10
1.11794
20
0.870806
11
1.12113
21
0.868672
0
LINE
8
BLACK
6
CONTINUOUS
10
1.12113
20
0.868672
11
1.12327
21
0.865479
0
LINE
8
BLACK
6
CONTINUOUS
10
1.12327
20
0.865479
11
1.12402
21
0.861713
0
LINE
8
BLACK
6
CONTINUOUS
10
1.12402
20
0.861713
11
1.12402
21
0.841043
0
LINE
8
BLACK
6
CONTINUOUS
10
1.12402
20
0.841043
11
1.12327
21
0.837277
0
LINE
8
BLACK
6
CONTINUOUS
10
1.12327
20
0.837277
11
1.12113
21
0.834084
0
LINE
8
BLACK
6
CONTINUOUS
10
1.12113
20
0.834084
11
1.11794
21
0.83195
0
LINE
8
BLACK
6
CONTINUOUS
10
1.11794
20
0.83195
11
1.11417
21
0.831201
0
LINE
8
BLACK
6
CONTINUOUS
10
1.11417
20
0.831201
11
1.07874
21
0.831201
0
LINE
8
BLACK
6
CONTINUOUS
10
1.07874
20
0.831201
11
1.07497
21
0.83195
0
LINE
8
BLACK
6
CONTINUOUS
10
1.07497
20
0.83195
11
1.07178
21
0.834084
0
LINE
8
BLACK
6
CONTINUOUS
10
1.07178
20
0.834084
11
1.06965
21
0.837277
0
LINE
8
BLACK
6
CONTINUOUS
10
1.06965
20
0.837277
11
1.0689
21
0.841043
0
LINE
8
BLACK
6
CONTINUOUS
10
1.0689
20
0.841043
11
1.0689
21
0.861713
0
LINE
8
BLACK
6
CONTINUOUS
10
1.0689
20
0.861713
11
1.06965
21
0.865479
0
LINE
8
BLACK
6
CONTINUOUS
10
1.06965
20
0.865479
11
1.07178
21
0.868672
0
LINE
8
BLACK
6
CONTINUOUS
10
1.07178
20
0.868672
11
1.07497
21
0.870806
0
LINE
8
BLACK
6
CONTINUOUS
10
1.07497
20
0.870806
11
1.07874
21
0.871555
0
LINE
8
BLACK
6
CONTINUOUS
10
1.07874
20
0.871555
11
1.11417
21
0.871555
0
LINE
8
BLACK
6
CONTINUOUS
10
1.11417
20
0.871555
11
1.11794
21
0.870806
0
LINE
8
BLACK
6
CONTINUOUS
10
0.768819
20
0.838406
11
0.757008
21
0.838406
0
LINE
8
BLACK
6
CONTINUOUS
10
0.757008
20
0.838406
11
0.757008
21
0.857106
0
LINE
8
BLACK
6
CONTINUOUS
10
0.757008
20
0.857106
11
0.768819
21
0.857106
0
LINE
8
BLACK
6
CONTINUOUS
10
0.768819
20
0.857106
11
0.768819
21
0.838406
0
LINE
8
BLACK
6
CONTINUOUS
10
0.788504
20
0.838406
11
0.776693
21
0.838406
0
LINE
8
BLACK
6
CONTINUOUS
10
0.776693
20
0.838406
11
0.776693
21
0.857106
0
LINE
8
BLACK
6
CONTINUOUS
10
0.776693
20
0.857106
11
0.788504
21
0.857106
0
LINE
8
BLACK
6
CONTINUOUS
10
0.788504
20
0.857106
11
0.788504
21
0.838406
0
LINE
8
BLACK
6
CONTINUOUS
10
0.808189
20
0.838406
11
0.796378
21
0.838406
0
LINE
8
BLACK
6
CONTINUOUS
10
0.796378
20
0.838406
11
0.796378
21
0.857106
0
LINE
8
BLACK
6
CONTINUOUS
10
0.796378
20
0.857106
11
0.808189
21
0.857106
0
LINE
8
BLACK
6
CONTINUOUS
10
0.808189
20
0.857106
11
0.808189
21
0.838406
0
LINE
8
BLACK
6
CONTINUOUS
10
0.827874
20
0.838406
11
0.816063
21
0.838406
0
LINE
8
BLACK
6
CONTINUOUS
10
0.816063
20
0.838406
11
0.816063
21
0.857106
0
LINE
8
BLACK
6
CONTINUOUS
10
0.816063
20
0.857106
11
0.827874
21
0.857106
0
LINE
8
BLACK
6
CONTINUOUS
10
0.827874
20
0.857106
11
0.827874
21
0.838406
0
LINE
8
BLACK
6
CONTINUOUS
10
0.714908
20
0.877204
11
0.718101
21
0.87507
0
LINE
8
BLACK
6
CONTINUOUS
10
0.718101
20
0.87507
11
0.720235
21
0.871877
0
LINE
8
BLACK
6
CONTINUOUS
10
0.720235
20
0.871877
11
0.720984
21
0.86811
0
LINE
8
BLACK
6
CONTINUOUS
10
0.720984
20
0.86811
11
0.720984
21
0.848425
0
LINE
8
BLACK
6
CONTINUOUS
10
0.720984
20
0.848425
11
0.720235
21
0.844659
0
LINE
8
BLACK
6
CONTINUOUS
10
0.720235
20
0.844659
11
0.718101
21
0.841465
0
LINE
8
BLACK
6
CONTINUOUS
10
0.718101
20
0.841465
11
0.714908
21
0.839332
0
LINE
8
BLACK
6
CONTINUOUS
10
0.714908
20
0.839332
11
0.711142
21
0.838583
0
LINE
8
BLACK
6
CONTINUOUS
10
0.711142
20
0.838583
11
0.67374
21
0.838583
0
LINE
8
BLACK
6
CONTINUOUS
10
0.67374
20
0.838583
11
0.669974
21
0.839332
0
LINE
8
BLACK
6
CONTINUOUS
10
0.669974
20
0.839332
11
0.66678
21
0.841465
0
LINE
8
BLACK
6
CONTINUOUS
10
0.66678
20
0.841465
11
0.664647
21
0.844659
0
LINE
8
BLACK
6
CONTINUOUS
10
0.664647
20
0.844659
11
0.663898
21
0.848425
0
LINE
8
BLACK
6
CONTINUOUS
10
0.663898
20
0.848425
11
0.663898
21
0.86811
0
LINE
8
BLACK
6
CONTINUOUS
10
0.663898
20
0.86811
11
0.664647
21
0.871877
0
LINE
8
BLACK
6
CONTINUOUS
10
0.664647
20
0.871877
11
0.66678
21
0.87507
0
LINE
8
BLACK
6
CONTINUOUS
10
0.66678
20
0.87507
11
0.669974
21
0.877204
0
LINE
8
BLACK
6
CONTINUOUS
10
0.669974
20
0.877204
11
0.67374
21
0.877953
0
LINE
8
BLACK
6
CONTINUOUS
10
0.67374
20
0.877953
11
0.711142
21
0.877953
0
LINE
8
BLACK
6
CONTINUOUS
10
0.711142
20
0.877953
11
0.714908
21
0.877204
0
LINE
8
BLACK
6
CONTINUOUS
10
0.9142
20
0.882125
11
0.917393
21
0.879991
0
LINE
8
BLACK
6
CONTINUOUS
10
0.917393
20
0.879991
11
0.919526
21
0.876798
0
LINE
8
BLACK
6
CONTINUOUS
10
0.919526
20
0.876798
11
0.920276
21
0.873031
0
LINE
8
BLACK
6
CONTINUOUS
10
0.920276
20
0.873031
11
0.920276
21
0.853346
0
LINE
8
BLACK
6
CONTINUOUS
10
0.920276
20
0.853346
11
0.919526
21
0.84958
0
LINE
8
BLACK
6
CONTINUOUS
10
0.919526
20
0.84958
11
0.917393
21
0.846387
0
LINE
8
BLACK
6
CONTINUOUS
10
0.917393
20
0.846387
11
0.9142
21
0.844253
0
LINE
8
BLACK
6
CONTINUOUS
10
0.9142
20
0.844253
11
0.910433
21
0.843504
0
LINE
8
BLACK
6
CONTINUOUS
10
0.910433
20
0.843504
11
0.873031
21
0.843504
0
LINE
8
BLACK
6
CONTINUOUS
10
0.873031
20
0.843504
11
0.869265
21
0.844253
0
LINE
8
BLACK
6
CONTINUOUS
10
0.869265
20
0.844253
11
0.866072
21
0.846387
0
LINE
8
BLACK
6
CONTINUOUS
10
0.866072
20
0.846387
11
0.863938
21
0.84958
0
LINE
8
BLACK
6
CONTINUOUS
10
0.863938
20
0.84958
11
0.863189
21
0.853346
0
LINE
8
BLACK
6
CONTINUOUS
10
0.863189
20
0.853346
11
0.863189
21
0.873031
0
LINE
8
BLACK
6
CONTINUOUS
10
0.863189
20
0.873031
11
0.863938
21
0.876798
0
LINE
8
BLACK
6
CONTINUOUS
10
0.863938
20
0.876798
11
0.866072
21
0.879991
0
LINE
8
BLACK
6
CONTINUOUS
10
0.866072
20
0.879991
11
0.869265
21
0.882125
0
LINE
8
BLACK
6
CONTINUOUS
10
0.869265
20
0.882125
11
0.873031
21
0.882874
0
LINE
8
BLACK
6
CONTINUOUS
10
0.873031
20
0.882874
11
0.910433
21
0.882874
0
LINE
8
BLACK
6
CONTINUOUS
10
0.910433
20
0.882874
11
0.9142
21
0.882125
0
LINE
8
BLACK
6
CONTINUOUS
10
1.02345
20
0.88557
11
1.02664
21
0.883436
0
LINE
8
BLACK
6
CONTINUOUS
10
1.02664
20
0.883436
11
1.02878
21
0.880243
0
LINE
8
BLACK
6
CONTINUOUS
10
1.02878
20
0.880243
11
1.02953
21
0.876476
0
LINE
8
BLACK
6
CONTINUOUS
10
1.02953
20
0.876476
11
1.02953
21
0.855807
0
LINE
8
BLACK
6
CONTINUOUS
10
1.02953
20
0.855807
11
1.02878
21
0.852041
0
LINE
8
BLACK
6
CONTINUOUS
10
1.02878
20
0.852041
11
1.02664
21
0.848847
0
LINE
8
BLACK
6
CONTINUOUS
10
1.02664
20
0.848847
11
1.02345
21
0.846714
0
LINE
8
BLACK
6
CONTINUOUS
10
1.02345
20
0.846714
11
1.01969
21
0.845965
0
LINE
8
BLACK
6
CONTINUOUS
10
1.01969
20
0.845965
11
0.984252
21
0.845965
0
LINE
8
BLACK
6
CONTINUOUS
10
0.984252
20
0.845965
11
0.980485
21
0.846714
0
LINE
8
BLACK
6
CONTINUOUS
10
0.980485
20
0.846714
11
0.977292
21
0.848847
0
LINE
8
BLACK
6
CONTINUOUS
10
0.977292
20
0.848847
11
0.975159
21
0.852041
0
LINE
8
BLACK
6
CONTINUOUS
10
0.975159
20
0.852041
11
0.974409
21
0.855807
0
LINE
8
BLACK
6
CONTINUOUS
10
0.974409
20
0.855807
11
0.974409
21
0.876476
0
LINE
8
BLACK
6
CONTINUOUS
10
0.974409
20
0.876476
11
0.975159
21
0.880243
0
LINE
8
BLACK
6
CONTINUOUS
10
0.975159
20
0.880243
11
0.977292
21
0.883436
0
LINE
8
BLACK
6
CONTINUOUS
10
0.977292
20
0.883436
11
0.980485
21
0.88557
0
LINE
8
BLACK
6
CONTINUOUS
10
0.980485
20
0.88557
11
0.984252
21
0.886319
0
LINE
8
BLACK
6
CONTINUOUS
10
0.984252
20
0.886319
11
1.01969
21
0.886319
0
LINE
8
BLACK
6
CONTINUOUS
10
1.01969
20
0.886319
11
1.02345
21
0.88557
0
LINE
8
BLACK
6
CONTINUOUS
10
1.11794
20
0.942656
11
1.12113
21
0.940523
0
LINE
8
BLACK
6
CONTINUOUS
10
1.12113
20
0.940523
11
1.12327
21
0.93733
0
LINE
8
BLACK
6
CONTINUOUS
10
1.12327
20
0.93733
11
1.12402
21
0.933563
0
LINE
8
BLACK
6
CONTINUOUS
10
1.12402
20
0.933563
11
1.12402
21
0.912894
0
LINE
8
BLACK
6
CONTINUOUS
10
1.12402
20
0.912894
11
1.12327
21
0.909127
0
LINE
8
BLACK
6
CONTINUOUS
10
1.12327
20
0.909127
11
1.12113
21
0.905934
0
LINE
8
BLACK
6
CONTINUOUS
10
1.12113
20
0.905934
11
1.11794
21
0.9038
0
LINE
8
BLACK
6
CONTINUOUS
10
1.11794
20
0.9038
11
1.11417
21
0.903051
0
LINE
8
BLACK
6
CONTINUOUS
10
1.11417
20
0.903051
11
1.07874
21
0.903051
0
LINE
8
BLACK
6
CONTINUOUS
10
1.07874
20
0.903051
11
1.07497
21
0.9038
0
LINE
8
BLACK
6
CONTINUOUS
10
1.07497
20
0.9038
11
1.07178
21
0.905934
0
LINE
8
BLACK
6
CONTINUOUS
10
1.07178
20
0.905934
11
1.06965
21
0.909127
0
LINE
8
BLACK
6
CONTINUOUS
10
1.06965
20
0.909127
11
1.0689
21
0.912894
0
LINE
8
BLACK
6
CONTINUOUS
10
1.0689
20
0.912894
11
1.0689
21
0.933563
0
LINE
8
BLACK
6
CONTINUOUS
10
1.0689
20
0.933563
11
1.06965
21
0.93733
0
LINE
8
BLACK
6
CONTINUOUS
10
1.06965
20
0.93733
11
1.07178
21
0.940523
0
LINE
8
BLACK
6
CONTINUOUS
10
1.07178
20
0.940523
11
1.07497
21
0.942656
0
LINE
8
BLACK
6
CONTINUOUS
10
1.07497
20
0.942656
11
1.07874
21
0.943406
0
LINE
8
BLACK
6
CONTINUOUS
10
1.07874
20
0.943406
11
1.11417
21
0.943406
0
LINE
8
BLACK
6
CONTINUOUS
10
1.11417
20
0.943406
11
1.11794
21
0.942656
0
LINE
8
BLACK
6
CONTINUOUS
10
0.768819
20
0.90439
11
0.757008
21
0.90439
0
LINE
8
BLACK
6
CONTINUOUS
10
0.757008
20
0.90439
11
0.757008
21
0.923091
0
LINE
8
BLACK
6
CONTINUOUS
10
0.757008
20
0.923091
11
0.768819
21
0.923091
0
LINE
8
BLACK
6
CONTINUOUS
10
0.768819
20
0.923091
11
0.768819
21
0.90439
0
LINE
8
BLACK
6
CONTINUOUS
10
0.788504
20
0.90439
11
0.776693
21
0.90439
0
LINE
8
BLACK
6
CONTINUOUS
10
0.776693
20
0.90439
11
0.776693
21
0.923091
0
LINE
8
BLACK
6
CONTINUOUS
10
0.776693
20
0.923091
11
0.788504
21
0.923091
0
LINE
8
BLACK
6
CONTINUOUS
10
0.788504
20
0.923091
11
0.788504
21
0.90439
0
LINE
8
BLACK
6
CONTINUOUS
10
0.808189
20
0.90439
11
0.796378
21
0.90439
0
LINE
8
BLACK
6
CONTINUOUS
10
0.796378
20
0.90439
11
0.796378
21
0.923091
0
LINE
8
BLACK
6
CONTINUOUS
10
0.796378
20
0.923091
11
0.808189
21
0.923091
0
LINE
8
BLACK
6
CONTINUOUS
10
0.808189
20
0.923091
11
0.808189
21
0.90439
0
LINE
8
BLACK
6
CONTINUOUS
10
0.827874
20
0.90439
11
0.816063
21
0.90439
0
LINE
8
BLACK
6
CONTINUOUS
10
0.816063
20
0.90439
11
0.816063
21
0.923091
0
LINE
8
BLACK
6
CONTINUOUS
10
0.816063
20
0.923091
11
0.827874
21
0.923091
0
LINE
8
BLACK
6
CONTINUOUS
10
0.827874
20
0.923091
11
0.827874
21
0.90439
0
LINE
8
BLACK
6
CONTINUOUS
10
0.714908
20
0.952007
11
0.718101
21
0.949873
0
LINE
8
BLACK
6
CONTINUOUS
10
0.718101
20
0.949873
11
0.720235
21
0.94668
0
LINE
8
BLACK
6
CONTINUOUS
10
0.720235
20
0.94668
11
0.720984
21
0.942913
0
LINE
8
BLACK
6
CONTINUOUS
10
0.720984
20
0.942913
11
0.720984
21
0.923228
0
LINE
8
BLACK
6
CONTINUOUS
10
0.720984
20
0.923228
11
0.720235
21
0.919462
0
LINE
8
BLACK
6
CONTINUOUS
10
0.720235
20
0.919462
11
0.718101
21
0.916269
0
LINE
8
BLACK
6
CONTINUOUS
10
0.718101
20
0.916269
11
0.714908
21
0.914135
0
LINE
8
BLACK
6
CONTINUOUS
10
0.714908
20
0.914135
11
0.711142
21
0.913386
0
LINE
8
BLACK
6
CONTINUOUS
10
0.711142
20
0.913386
11
0.67374
21
0.913386
0
LINE
8
BLACK
6
CONTINUOUS
10
0.67374
20
0.913386
11
0.669974
21
0.914135
0
LINE
8
BLACK
6
CONTINUOUS
10
0.669974
20
0.914135
11
0.66678
21
0.916269
0
LINE
8
BLACK
6
CONTINUOUS
10
0.66678
20
0.916269
11
0.664647
21
0.919462
0
LINE
8
BLACK
6
CONTINUOUS
10
0.664647
20
0.919462
11
0.663898
21
0.923228
0
LINE
8
BLACK
6
CONTINUOUS
10
0.663898
20
0.923228
11
0.663898
21
0.942913
0
LINE
8
BLACK
6
CONTINUOUS
10
0.663898
20
0.942913
11
0.664647
21
0.94668
0
LINE
8
BLACK
6
CONTINUOUS
10
0.664647
20
0.94668
11
0.66678
21
0.949873
0
LINE
8
BLACK
6
CONTINUOUS
10
0.66678
20
0.949873
11
0.669974
21
0.952007
0
LINE
8
BLACK
6
CONTINUOUS
10
0.669974
20
0.952007
11
0.67374
21
0.952756
0
LINE
8
BLACK
6
CONTINUOUS
10
0.67374
20
0.952756
11
0.711142
21
0.952756
0
LINE
8
BLACK
6
CONTINUOUS
10
0.711142
20
0.952756
11
0.714908
21
0.952007
0
LINE
8
BLACK
6
CONTINUOUS
10
1.02345
20
0.95742
11
1.02664
21
0.955286
0
LINE
8
BLACK
6
CONTINUOUS
10
1.02664
20
0.955286
11
1.02878
21
0.952093
0
LINE
8
BLACK
6
CONTINUOUS
10
1.02878
20
0.952093
11
1.02953
21
0.948327
0
LINE
8
BLACK
6
CONTINUOUS
10
1.02953
20
0.948327
11
1.02953
21
0.927657
0
LINE
8
BLACK
6
CONTINUOUS
10
1.02953
20
0.927657
11
1.02878
21
0.923891
0
LINE
8
BLACK
6
CONTINUOUS
10
1.02878
20
0.923891
11
1.02664
21
0.920698
0
LINE
8
BLACK
6
CONTINUOUS
10
1.02664
20
0.920698
11
1.02345
21
0.918564
0
LINE
8
BLACK
6
CONTINUOUS
10
1.02345
20
0.918564
11
1.01969
21
0.917815
0
LINE
8
BLACK
6
CONTINUOUS
10
1.01969
20
0.917815
11
0.984252
21
0.917815
0
LINE
8
BLACK
6
CONTINUOUS
10
0.984252
20
0.917815
11
0.980485
21
0.918564
0
LINE
8
BLACK
6
CONTINUOUS
10
0.980485
20
0.918564
11
0.977292
21
0.920698
0
LINE
8
BLACK
6
CONTINUOUS
10
0.977292
20
0.920698
11
0.975159
21
0.923891
0
LINE
8
BLACK
6
CONTINUOUS
10
0.975159
20
0.923891
11
0.974409
21
0.927657
0
LINE
8
BLACK
6
CONTINUOUS
10
0.974409
20
0.927657
11
0.974409
21
0.948327
0
LINE
8
BLACK
6
CONTINUOUS
10
0.974409
20
0.948327
11
0.975159
21
0.952093
0
LINE
8
BLACK
6
CONTINUOUS
10
0.975159
20
0.952093
11
0.977292
21
0.955286
0
LINE
8
BLACK
6
CONTINUOUS
10
0.977292
20
0.955286
11
0.980485
21
0.95742
0
LINE
8
BLACK
6
CONTINUOUS
10
0.980485
20
0.95742
11
0.984252
21
0.958169
0
LINE
8
BLACK
6
CONTINUOUS
10
0.984252
20
0.958169
11
1.01969
21
0.958169
0
LINE
8
BLACK
6
CONTINUOUS
10
1.01969
20
0.958169
11
1.02345
21
0.95742
0
LINE
8
BLACK
6
CONTINUOUS
10
0.9142
20
0.956928
11
0.917393
21
0.954794
0
LINE
8
BLACK
6
CONTINUOUS
10
0.917393
20
0.954794
11
0.919526
21
0.951601
0
LINE
8
BLACK
6
CONTINUOUS
10
0.919526
20
0.951601
11
0.920276
21
0.947835
0
LINE
8
BLACK
6
CONTINUOUS
10
0.920276
20
0.947835
11
0.920276
21
0.92815
0
LINE
8
BLACK
6
CONTINUOUS
10
0.920276
20
0.92815
11
0.919526
21
0.924383
0
LINE
8
BLACK
6
CONTINUOUS
10
0.919526
20
0.924383
11
0.917393
21
0.92119
0
LINE
8
BLACK
6
CONTINUOUS
10
0.917393
20
0.92119
11
0.9142
21
0.919056
0
LINE
8
BLACK
6
CONTINUOUS
10
0.9142
20
0.919056
11
0.910433
21
0.918307
0
LINE
8
BLACK
6
CONTINUOUS
10
0.910433
20
0.918307
11
0.873031
21
0.918307
0
LINE
8
BLACK
6
CONTINUOUS
10
0.873031
20
0.918307
11
0.869265
21
0.919056
0
LINE
8
BLACK
6
CONTINUOUS
10
0.869265
20
0.919056
11
0.866072
21
0.92119
0
LINE
8
BLACK
6
CONTINUOUS
10
0.866072
20
0.92119
11
0.863938
21
0.924383
0
LINE
8
BLACK
6
CONTINUOUS
10
0.863938
20
0.924383
11
0.863189
21
0.92815
0
LINE
8
BLACK
6
CONTINUOUS
10
0.863189
20
0.92815
11
0.863189
21
0.947835
0
LINE
8
BLACK
6
CONTINUOUS
10
0.863189
20
0.947835
11
0.863938
21
0.951601
0
LINE
8
BLACK
6
CONTINUOUS
10
0.863938
20
0.951601
11
0.866072
21
0.954794
0
LINE
8
BLACK
6
CONTINUOUS
10
0.866072
20
0.954794
11
0.869265
21
0.956928
0
LINE
8
BLACK
6
CONTINUOUS
10
0.869265
20
0.956928
11
0.873031
21
0.957677
0
LINE
8
BLACK
6
CONTINUOUS
10
0.873031
20
0.957677
11
0.910433
21
0.957677
0
LINE
8
BLACK
6
CONTINUOUS
10
0.910433
20
0.957677
11
0.9142
21
0.956928
0
LINE
8
BLACK
6
CONTINUOUS
10
0.58792
20
1.06224
11
0.591113
21
1.06011
0
LINE
8
BLACK
6
CONTINUOUS
10
0.591113
20
1.06011
11
0.593247
21
1.05692
0
LINE
8
BLACK
6
CONTINUOUS
10
0.593247
20
1.05692
11
0.593996
21
1.05315
0
LINE
8
BLACK
6
CONTINUOUS
10
0.593996
20
1.05315
11
0.593996
21
1.01772
0
LINE
8
BLACK
6
CONTINUOUS
10
0.593996
20
1.01772
11
0.593247
21
1.01395
0
LINE
8
BLACK
6
CONTINUOUS
10
0.593247
20
1.01395
11
0.591113
21
1.01076
0
LINE
8
BLACK
6
CONTINUOUS
10
0.591113
20
1.01076
11
0.58792
21
1.00862
0
LINE
8
BLACK
6
CONTINUOUS
10
0.58792
20
1.00862
11
0.584154
21
1.00787
0
LINE
8
BLACK
6
CONTINUOUS
10
0.584154
20
1.00787
11
0.563484
21
1.00787
0
LINE
8
BLACK
6
CONTINUOUS
10
0.563484
20
1.00787
11
0.559718
21
1.00862
0
LINE
8
BLACK
6
CONTINUOUS
10
0.559718
20
1.00862
11
0.556525
21
1.01076
0
LINE
8
BLACK
6
CONTINUOUS
10
0.556525
20
1.01076
11
0.554391
21
1.01395
0
LINE
8
BLACK
6
CONTINUOUS
10
0.554391
20
1.01395
11
0.553642
21
1.01772
0
LINE
8
BLACK
6
CONTINUOUS
10
0.553642
20
1.01772
11
0.553642
21
1.05315
0
LINE
8
BLACK
6
CONTINUOUS
10
0.553642
20
1.05315
11
0.554391
21
1.05692
0
LINE
8
BLACK
6
CONTINUOUS
10
0.554391
20
1.05692
11
0.556525
21
1.06011
0
LINE
8
BLACK
6
CONTINUOUS
10
0.556525
20
1.06011
11
0.559718
21
1.06224
0
LINE
8
BLACK
6
CONTINUOUS
10
0.559718
20
1.06224
11
0.563484
21
1.06299
0
LINE
8
BLACK
6
CONTINUOUS
10
0.563484
20
1.06299
11
0.584154
21
1.06299
0
LINE
8
BLACK
6
CONTINUOUS
10
0.584154
20
1.06299
11
0.58792
21
1.06224
0
LINE
8
BLACK
6
CONTINUOUS
10
0.659771
20
1.06224
11
0.662964
21
1.06011
0
LINE
8
BLACK
6
CONTINUOUS
10
0.662964
20
1.06011
11
0.665097
21
1.05692
0
LINE
8
BLACK
6
CONTINUOUS
10
0.665097
20
1.05692
11
0.665846
21
1.05315
0
LINE
8
BLACK
6
CONTINUOUS
10
0.665846
20
1.05315
11
0.665846
21
1.01772
0
LINE
8
BLACK
6
CONTINUOUS
10
0.665846
20
1.01772
11
0.665097
21
1.01395
0
LINE
8
BLACK
6
CONTINUOUS
10
0.665097
20
1.01395
11
0.662964
21
1.01076
0
LINE
8
BLACK
6
CONTINUOUS
10
0.662964
20
1.01076
11
0.659771
21
1.00862
0
LINE
8
BLACK
6
CONTINUOUS
10
0.659771
20
1.00862
11
0.656004
21
1.00787
0
LINE
8
BLACK
6
CONTINUOUS
10
0.656004
20
1.00787
11
0.635335
21
1.00787
0
LINE
8
BLACK
6
CONTINUOUS
10
0.635335
20
1.00787
11
0.631568
21
1.00862
0
LINE
8
BLACK
6
CONTINUOUS
10
0.631568
20
1.00862
11
0.628375
21
1.01076
0
LINE
8
BLACK
6
CONTINUOUS
10
0.628375
20
1.01076
11
0.626241
21
1.01395
0
LINE
8
BLACK
6
CONTINUOUS
10
0.626241
20
1.01395
11
0.625492
21
1.01772
0
LINE
8
BLACK
6
CONTINUOUS
10
0.625492
20
1.01772
11
0.625492
21
1.05315
0
LINE
8
BLACK
6
CONTINUOUS
10
0.625492
20
1.05315
11
0.626241
21
1.05692
0
LINE
8
BLACK
6
CONTINUOUS
10
0.626241
20
1.05692
11
0.628375
21
1.06011
0
LINE
8
BLACK
6
CONTINUOUS
10
0.628375
20
1.06011
11
0.631568
21
1.06224
0
LINE
8
BLACK
6
CONTINUOUS
10
0.631568
20
1.06224
11
0.635335
21
1.06299
0
LINE
8
BLACK
6
CONTINUOUS
10
0.635335
20
1.06299
11
0.656004
21
1.06299
0
LINE
8
BLACK
6
CONTINUOUS
10
0.656004
20
1.06299
11
0.659771
21
1.06224
0
LINE
8
BLACK
6
CONTINUOUS
10
0.725715
20
1.06224
11
0.728909
21
1.06011
0
LINE
8
BLACK
6
CONTINUOUS
10
0.728909
20
1.06011
11
0.731042
21
1.05692
0
LINE
8
BLACK
6
CONTINUOUS
10
0.731042
20
1.05692
11
0.731791
21
1.05315
0
LINE
8
BLACK
6
CONTINUOUS
10
0.731791
20
1.05315
11
0.731791
21
1.01772
0
LINE
8
BLACK
6
CONTINUOUS
10
0.731791
20
1.01772
11
0.731042
21
1.01395
0
LINE
8
BLACK
6
CONTINUOUS
10
0.731042
20
1.01395
11
0.728909
21
1.01076
0
LINE
8
BLACK
6
CONTINUOUS
10
0.728909
20
1.01076
11
0.725715
21
1.00862
0
LINE
8
BLACK
6
CONTINUOUS
10
0.725715
20
1.00862
11
0.721949
21
1.00787
0
LINE
8
BLACK
6
CONTINUOUS
10
0.721949
20
1.00787
11
0.70128
21
1.00787
0
LINE
8
BLACK
6
CONTINUOUS
10
0.70128
20
1.00787
11
0.697513
21
1.00862
0
LINE
8
BLACK
6
CONTINUOUS
10
0.697513
20
1.00862
11
0.69432
21
1.01076
0
LINE
8
BLACK
6
CONTINUOUS
10
0.69432
20
1.01076
11
0.692186
21
1.01395
0
LINE
8
BLACK
6
CONTINUOUS
10
0.692186
20
1.01395
11
0.691437
21
1.01772
0
LINE
8
BLACK
6
CONTINUOUS
10
0.691437
20
1.01772
11
0.691437
21
1.05315
0
LINE
8
BLACK
6
CONTINUOUS
10
0.691437
20
1.05315
11
0.692186
21
1.05692
0
LINE
8
BLACK
6
CONTINUOUS
10
0.692186
20
1.05692
11
0.69432
21
1.06011
0
LINE
8
BLACK
6
CONTINUOUS
10
0.69432
20
1.06011
11
0.697513
21
1.06224
0
LINE
8
BLACK
6
CONTINUOUS
10
0.697513
20
1.06224
11
0.70128
21
1.06299
0
LINE
8
BLACK
6
CONTINUOUS
10
0.70128
20
1.06299
11
0.721949
21
1.06299
0
LINE
8
BLACK
6
CONTINUOUS
10
0.721949
20
1.06299
11
0.725715
21
1.06224
0
LINE
8
BLACK
6
CONTINUOUS
10
0.797566
20
1.06224
11
0.800759
21
1.06011
0
LINE
8
BLACK
6
CONTINUOUS
10
0.800759
20
1.06011
11
0.802893
21
1.05692
0
LINE
8
BLACK
6
CONTINUOUS
10
0.802893
20
1.05692
11
0.803642
21
1.05315
0
LINE
8
BLACK
6
CONTINUOUS
10
0.803642
20
1.05315
11
0.803642
21
1.01772
0
LINE
8
BLACK
6
CONTINUOUS
10
0.803642
20
1.01772
11
0.802893
21
1.01395
0
LINE
8
BLACK
6
CONTINUOUS
10
0.802893
20
1.01395
11
0.800759
21
1.01076
0
LINE
8
BLACK
6
CONTINUOUS
10
0.800759
20
1.01076
11
0.797566
21
1.00862
0
LINE
8
BLACK
6
CONTINUOUS
10
0.797566
20
1.00862
11
0.793799
21
1.00787
0
LINE
8
BLACK
6
CONTINUOUS
10
0.793799
20
1.00787
11
0.77313
21
1.00787
0
LINE
8
BLACK
6
CONTINUOUS
10
0.77313
20
1.00787
11
0.769363
21
1.00862
0
LINE
8
BLACK
6
CONTINUOUS
10
0.769363
20
1.00862
11
0.76617
21
1.01076
0
LINE
8
BLACK
6
CONTINUOUS
10
0.76617
20
1.01076
11
0.764037
21
1.01395
0
LINE
8
BLACK
6
CONTINUOUS
10
0.764037
20
1.01395
11
0.763287
21
1.01772
0
LINE
8
BLACK
6
CONTINUOUS
10
0.763287
20
1.01772
11
0.763287
21
1.05315
0
LINE
8
BLACK
6
CONTINUOUS
10
0.763287
20
1.05315
11
0.764037
21
1.05692
0
LINE
8
BLACK
6
CONTINUOUS
10
0.764037
20
1.05692
11
0.76617
21
1.06011
0
LINE
8
BLACK
6
CONTINUOUS
10
0.76617
20
1.06011
11
0.769363
21
1.06224
0
LINE
8
BLACK
6
CONTINUOUS
10
0.769363
20
1.06224
11
0.77313
21
1.06299
0
LINE
8
BLACK
6
CONTINUOUS
10
0.77313
20
1.06299
11
0.793799
21
1.06299
0
LINE
8
BLACK
6
CONTINUOUS
10
0.793799
20
1.06299
11
0.797566
21
1.06224
  0
ENDSEC
  0
EOF
