  0
SECTION
  2
HEADER
  9
$ANGBASE
  50
0.0
  9
$ANGDIR
  70
1
  9
$MEASUREMENT
  70
0
  0
ENDSEC
  0
SECTION
  2
TABLES
  0
TABLE
  2
LTYPE
  70
4
  0
LTYPE
  5
40F
  2
CONTINUOUS
  70
0
  3
Solid line
  72
65
  73
0
  40
0.0
  0
LTYPE
  5
410
  2
DASHDOT
 70
0
  3
Dash Dot ____ _ ____ _
 72
65
 73
4
 40
2.0
 49
1.25
 49
-0.25
 49
0.25
 49
-0.25
  0
LTYPE
  5
411
  2
DASHED
 70
0
  3
Dashed __ __ __ __ __
 72
65
 73
2
 40
0.75
 49
0.5
 49
-0.25
  0
LTYPE
  5
43B
  2
DOTTED
 70
0
  3
Dotted .  .  .  .
 72
65
 73
2
 40
0.2
 49
0.0
 49
-0.2
  0
ENDTAB
  0
TABLE
  2
STYLE
  70
4
  0
STYLE
  2
KICAD
  70
0
  40
0
  41
1
  42
1
  50
0
  71
0
  3
isocp.shx
  0
STYLE
  2
KICADB
  70
0
  40
0
  41
1
  42
1
  50
0
  71
0
  3
isocp.shx
  0
STYLE
  2
KICADI
  70
0
  40
0
  41
1
  42
1
  50
15
  71
0
  3
isocp.shx
  0
STYLE
  2
KICADBI
  70
0
  40
0
  41
1
  42
1
  50
15
  71
0
  3
isocp.shx
  0
ENDTAB
  0
TABLE
  2
LAYER
  70
1
  0
LAYER
  2
BLACK
  70
0
  62
7
  6
CONTINUOUS
  0
ENDTAB
  0
ENDSEC
  0
SECTION
  2
ENTITIES
0
LINE
8
BLACK
6
CONTINUOUS
10
5.02051
20
-3.68368
11
5.03387
21
-3.68685
0
LINE
8
BLACK
6
CONTINUOUS
10
5.03387
20
-3.68685
11
5.04678
21
-3.69155
0
LINE
8
BLACK
6
CONTINUOUS
10
5.04678
20
-3.69155
11
5.05906
21
-3.69771
0
LINE
8
BLACK
6
CONTINUOUS
10
5.05906
20
-3.69771
11
5.07053
21
-3.70526
0
LINE
8
BLACK
6
CONTINUOUS
10
5.07053
20
-3.70526
11
5.08105
21
-3.71409
0
LINE
8
BLACK
6
CONTINUOUS
10
5.08105
20
-3.71409
11
5.09048
21
-3.72408
0
LINE
8
BLACK
6
CONTINUOUS
10
5.09048
20
-3.72408
11
5.09868
21
-3.7351
0
LINE
8
BLACK
6
CONTINUOUS
10
5.09868
20
-3.7351
11
5.10555
21
-3.74699
0
LINE
8
BLACK
6
CONTINUOUS
10
5.10555
20
-3.74699
11
5.11099
21
-3.7596
0
LINE
8
BLACK
6
CONTINUOUS
10
5.11099
20
-3.7596
11
5.11493
21
-3.77276
0
LINE
8
BLACK
6
CONTINUOUS
10
5.11493
20
-3.77276
11
5.11731
21
-3.78629
0
LINE
8
BLACK
6
CONTINUOUS
10
5.11731
20
-3.78629
11
5.11811
21
-3.8
0
LINE
8
BLACK
6
CONTINUOUS
10
5.11811
20
-3.8
11
5.11731
21
-3.81371
0
LINE
8
BLACK
6
CONTINUOUS
10
5.11731
20
-3.81371
11
5.11493
21
-3.82724
0
LINE
8
BLACK
6
CONTINUOUS
10
5.11493
20
-3.82724
11
5.11099
21
-3.8404
0
LINE
8
BLACK
6
CONTINUOUS
10
5.11099
20
-3.8404
11
5.10555
21
-3.85301
0
LINE
8
BLACK
6
CONTINUOUS
10
5.10555
20
-3.85301
11
5.09868
21
-3.8649
0
LINE
8
BLACK
6
CONTINUOUS
10
5.09868
20
-3.8649
11
5.09048
21
-3.87592
0
LINE
8
BLACK
6
CONTINUOUS
10
5.09048
20
-3.87592
11
5.08105
21
-3.88591
0
LINE
8
BLACK
6
CONTINUOUS
10
5.08105
20
-3.88591
11
5.07053
21
-3.89474
0
LINE
8
BLACK
6
CONTINUOUS
10
5.07053
20
-3.89474
11
5.05906
21
-3.90229
0
LINE
8
BLACK
6
CONTINUOUS
10
5.05906
20
-3.90229
11
5.04678
21
-3.90845
0
LINE
8
BLACK
6
CONTINUOUS
10
5.04678
20
-3.90845
11
5.03387
21
-3.91315
0
LINE
8
BLACK
6
CONTINUOUS
10
5.03387
20
-3.91315
11
5.02051
21
-3.91632
0
LINE
8
BLACK
6
CONTINUOUS
10
5.02051
20
-3.91632
11
5.00687
21
-3.91791
0
LINE
8
BLACK
6
CONTINUOUS
10
5.00687
20
-3.91791
11
4.99313
21
-3.91791
0
LINE
8
BLACK
6
CONTINUOUS
10
4.99313
20
-3.91791
11
4.97949
21
-3.91632
0
LINE
8
BLACK
6
CONTINUOUS
10
4.97949
20
-3.91632
11
4.96613
21
-3.91315
0
LINE
8
BLACK
6
CONTINUOUS
10
4.96613
20
-3.91315
11
4.95322
21
-3.90845
0
LINE
8
BLACK
6
CONTINUOUS
10
4.95322
20
-3.90845
11
4.94094
21
-3.90229
0
LINE
8
BLACK
6
CONTINUOUS
10
4.94094
20
-3.90229
11
4.92947
21
-3.89474
0
LINE
8
BLACK
6
CONTINUOUS
10
4.92947
20
-3.89474
11
4.91895
21
-3.88591
0
LINE
8
BLACK
6
CONTINUOUS
10
4.91895
20
-3.88591
11
4.90952
21
-3.87592
0
LINE
8
BLACK
6
CONTINUOUS
10
4.90952
20
-3.87592
11
4.90132
21
-3.8649
0
LINE
8
BLACK
6
CONTINUOUS
10
4.90132
20
-3.8649
11
4.89445
21
-3.85301
0
LINE
8
BLACK
6
CONTINUOUS
10
4.89445
20
-3.85301
11
4.88901
21
-3.8404
0
LINE
8
BLACK
6
CONTINUOUS
10
4.88901
20
-3.8404
11
4.88507
21
-3.82724
0
LINE
8
BLACK
6
CONTINUOUS
10
4.88507
20
-3.82724
11
4.88269
21
-3.81371
0
LINE
8
BLACK
6
CONTINUOUS
10
4.88269
20
-3.81371
11
4.88189
21
-3.8
0
LINE
8
BLACK
6
CONTINUOUS
10
4.88189
20
-3.8
11
4.88269
21
-3.78629
0
LINE
8
BLACK
6
CONTINUOUS
10
4.88269
20
-3.78629
11
4.88507
21
-3.77276
0
LINE
8
BLACK
6
CONTINUOUS
10
4.88507
20
-3.77276
11
4.88901
21
-3.7596
0
LINE
8
BLACK
6
CONTINUOUS
10
4.88901
20
-3.7596
11
4.89445
21
-3.74699
0
LINE
8
BLACK
6
CONTINUOUS
10
4.89445
20
-3.74699
11
4.90132
21
-3.7351
0
LINE
8
BLACK
6
CONTINUOUS
10
4.90132
20
-3.7351
11
4.90952
21
-3.72408
0
LINE
8
BLACK
6
CONTINUOUS
10
4.90952
20
-3.72408
11
4.91895
21
-3.71409
0
LINE
8
BLACK
6
CONTINUOUS
10
4.91895
20
-3.71409
11
4.92947
21
-3.70526
0
LINE
8
BLACK
6
CONTINUOUS
10
4.92947
20
-3.70526
11
4.94094
21
-3.69771
0
LINE
8
BLACK
6
CONTINUOUS
10
4.94094
20
-3.69771
11
4.95322
21
-3.69155
0
LINE
8
BLACK
6
CONTINUOUS
10
4.95322
20
-3.69155
11
4.96613
21
-3.68685
0
LINE
8
BLACK
6
CONTINUOUS
10
4.96613
20
-3.68685
11
4.97949
21
-3.68368
0
LINE
8
BLACK
6
CONTINUOUS
10
4.97949
20
-3.68368
11
4.99313
21
-3.68209
0
LINE
8
BLACK
6
CONTINUOUS
10
4.99313
20
-3.68209
11
5.00687
21
-3.68209
0
LINE
8
BLACK
6
CONTINUOUS
10
5.00687
20
-3.68209
11
5.02051
21
-3.68368
0
LINE
8
BLACK
6
CONTINUOUS
10
6.22051
20
-3.68368
11
6.23387
21
-3.68685
0
LINE
8
BLACK
6
CONTINUOUS
10
6.23387
20
-3.68685
11
6.24678
21
-3.69155
0
LINE
8
BLACK
6
CONTINUOUS
10
6.24678
20
-3.69155
11
6.25906
21
-3.69771
0
LINE
8
BLACK
6
CONTINUOUS
10
6.25906
20
-3.69771
11
6.27053
21
-3.70526
0
LINE
8
BLACK
6
CONTINUOUS
10
6.27053
20
-3.70526
11
6.28105
21
-3.71409
0
LINE
8
BLACK
6
CONTINUOUS
10
6.28105
20
-3.71409
11
6.29048
21
-3.72408
0
LINE
8
BLACK
6
CONTINUOUS
10
6.29048
20
-3.72408
11
6.29868
21
-3.7351
0
LINE
8
BLACK
6
CONTINUOUS
10
6.29868
20
-3.7351
11
6.30555
21
-3.74699
0
LINE
8
BLACK
6
CONTINUOUS
10
6.30555
20
-3.74699
11
6.31099
21
-3.7596
0
LINE
8
BLACK
6
CONTINUOUS
10
6.31099
20
-3.7596
11
6.31493
21
-3.77276
0
LINE
8
BLACK
6
CONTINUOUS
10
6.31493
20
-3.77276
11
6.31731
21
-3.78629
0
LINE
8
BLACK
6
CONTINUOUS
10
6.31731
20
-3.78629
11
6.31811
21
-3.8
0
LINE
8
BLACK
6
CONTINUOUS
10
6.31811
20
-3.8
11
6.31731
21
-3.81371
0
LINE
8
BLACK
6
CONTINUOUS
10
6.31731
20
-3.81371
11
6.31493
21
-3.82724
0
LINE
8
BLACK
6
CONTINUOUS
10
6.31493
20
-3.82724
11
6.31099
21
-3.8404
0
LINE
8
BLACK
6
CONTINUOUS
10
6.31099
20
-3.8404
11
6.30555
21
-3.85301
0
LINE
8
BLACK
6
CONTINUOUS
10
6.30555
20
-3.85301
11
6.29868
21
-3.8649
0
LINE
8
BLACK
6
CONTINUOUS
10
6.29868
20
-3.8649
11
6.29048
21
-3.87592
0
LINE
8
BLACK
6
CONTINUOUS
10
6.29048
20
-3.87592
11
6.28105
21
-3.88591
0
LINE
8
BLACK
6
CONTINUOUS
10
6.28105
20
-3.88591
11
6.27053
21
-3.89474
0
LINE
8
BLACK
6
CONTINUOUS
10
6.27053
20
-3.89474
11
6.25906
21
-3.90229
0
LINE
8
BLACK
6
CONTINUOUS
10
6.25906
20
-3.90229
11
6.24678
21
-3.90845
0
LINE
8
BLACK
6
CONTINUOUS
10
6.24678
20
-3.90845
11
6.23387
21
-3.91315
0
LINE
8
BLACK
6
CONTINUOUS
10
6.23387
20
-3.91315
11
6.22051
21
-3.91632
0
LINE
8
BLACK
6
CONTINUOUS
10
6.22051
20
-3.91632
11
6.20687
21
-3.91791
0
LINE
8
BLACK
6
CONTINUOUS
10
6.20687
20
-3.91791
11
6.19313
21
-3.91791
0
LINE
8
BLACK
6
CONTINUOUS
10
6.19313
20
-3.91791
11
6.17949
21
-3.91632
0
LINE
8
BLACK
6
CONTINUOUS
10
6.17949
20
-3.91632
11
6.16613
21
-3.91315
0
LINE
8
BLACK
6
CONTINUOUS
10
6.16613
20
-3.91315
11
6.15322
21
-3.90845
0
LINE
8
BLACK
6
CONTINUOUS
10
6.15322
20
-3.90845
11
6.14094
21
-3.90229
0
LINE
8
BLACK
6
CONTINUOUS
10
6.14094
20
-3.90229
11
6.12947
21
-3.89474
0
LINE
8
BLACK
6
CONTINUOUS
10
6.12947
20
-3.89474
11
6.11895
21
-3.88591
0
LINE
8
BLACK
6
CONTINUOUS
10
6.11895
20
-3.88591
11
6.10952
21
-3.87592
0
LINE
8
BLACK
6
CONTINUOUS
10
6.10952
20
-3.87592
11
6.10132
21
-3.8649
0
LINE
8
BLACK
6
CONTINUOUS
10
6.10132
20
-3.8649
11
6.09445
21
-3.85301
0
LINE
8
BLACK
6
CONTINUOUS
10
6.09445
20
-3.85301
11
6.08901
21
-3.8404
0
LINE
8
BLACK
6
CONTINUOUS
10
6.08901
20
-3.8404
11
6.08507
21
-3.82724
0
LINE
8
BLACK
6
CONTINUOUS
10
6.08507
20
-3.82724
11
6.08269
21
-3.81371
0
LINE
8
BLACK
6
CONTINUOUS
10
6.08269
20
-3.81371
11
6.08189
21
-3.8
0
LINE
8
BLACK
6
CONTINUOUS
10
6.08189
20
-3.8
11
6.08269
21
-3.78629
0
LINE
8
BLACK
6
CONTINUOUS
10
6.08269
20
-3.78629
11
6.08507
21
-3.77276
0
LINE
8
BLACK
6
CONTINUOUS
10
6.08507
20
-3.77276
11
6.08901
21
-3.7596
0
LINE
8
BLACK
6
CONTINUOUS
10
6.08901
20
-3.7596
11
6.09445
21
-3.74699
0
LINE
8
BLACK
6
CONTINUOUS
10
6.09445
20
-3.74699
11
6.10132
21
-3.7351
0
LINE
8
BLACK
6
CONTINUOUS
10
6.10132
20
-3.7351
11
6.10952
21
-3.72408
0
LINE
8
BLACK
6
CONTINUOUS
10
6.10952
20
-3.72408
11
6.11895
21
-3.71409
0
LINE
8
BLACK
6
CONTINUOUS
10
6.11895
20
-3.71409
11
6.12947
21
-3.70526
0
LINE
8
BLACK
6
CONTINUOUS
10
6.12947
20
-3.70526
11
6.14094
21
-3.69771
0
LINE
8
BLACK
6
CONTINUOUS
10
6.14094
20
-3.69771
11
6.15322
21
-3.69155
0
LINE
8
BLACK
6
CONTINUOUS
10
6.15322
20
-3.69155
11
6.16613
21
-3.68685
0
LINE
8
BLACK
6
CONTINUOUS
10
6.16613
20
-3.68685
11
6.17949
21
-3.68368
0
LINE
8
BLACK
6
CONTINUOUS
10
6.17949
20
-3.68368
11
6.19313
21
-3.68209
0
LINE
8
BLACK
6
CONTINUOUS
10
6.19313
20
-3.68209
11
6.20687
21
-3.68209
0
LINE
8
BLACK
6
CONTINUOUS
10
6.20687
20
-3.68209
11
6.22051
21
-3.68368
0
LINE
8
BLACK
6
CONTINUOUS
10
5.73
20
-3.88
11
5.67
21
-3.88
0
LINE
8
BLACK
6
CONTINUOUS
10
5.67
20
-3.88
11
5.67
21
-3.82
0
LINE
8
BLACK
6
CONTINUOUS
10
5.67
20
-3.82
11
5.73
21
-3.82
0
LINE
8
BLACK
6
CONTINUOUS
10
5.73
20
-3.82
11
5.73
21
-3.88
0
LINE
8
BLACK
6
CONTINUOUS
10
5.785
20
-3.1
11
5.815
21
-3.1
0
LINE
8
BLACK
6
CONTINUOUS
10
5.815
20
-3.1
11
5.815
21
-3.0825
0
LINE
8
BLACK
6
CONTINUOUS
10
5.815
20
-3.0825
11
5.85
21
-3.0825
0
LINE
8
BLACK
6
CONTINUOUS
10
5.85
20
-3.0825
11
5.85
21
-3.1375
0
LINE
8
BLACK
6
CONTINUOUS
10
5.85
20
-3.1375
11
5.8425
21
-3.1375
0
LINE
8
BLACK
6
CONTINUOUS
10
5.8425
20
-3.1375
11
5.8425
21
-3.15836
0
LINE
8
BLACK
6
CONTINUOUS
10
5.8425
20
-3.15836
11
5.89457
21
-3.21043
0
LINE
8
BLACK
6
CONTINUOUS
10
5.89457
20
-3.21043
11
5.89674
21
-3.21367
0
LINE
8
BLACK
6
CONTINUOUS
10
5.89674
20
-3.21367
11
5.8975
21
-3.2175
0
LINE
8
BLACK
6
CONTINUOUS
10
5.8975
20
-3.2175
11
5.8975
21
-3.32336
0
LINE
8
BLACK
6
CONTINUOUS
10
5.8975
20
-3.32336
11
5.96414
21
-3.39
0
LINE
8
BLACK
6
CONTINUOUS
10
5.96414
20
-3.39
11
6.12
21
-3.39
0
LINE
8
BLACK
6
CONTINUOUS
10
6.12
20
-3.39
11
6.12
21
-3.37
0
LINE
8
BLACK
6
CONTINUOUS
10
6.12
20
-3.37
11
6.18
21
-3.37
0
LINE
8
BLACK
6
CONTINUOUS
10
6.18
20
-3.37
11
6.18
21
-3.39
0
LINE
8
BLACK
6
CONTINUOUS
10
6.18
20
-3.39
11
6.22
21
-3.39
0
LINE
8
BLACK
6
CONTINUOUS
10
6.22
20
-3.39
11
6.22
21
-3.37
0
LINE
8
BLACK
6
CONTINUOUS
10
6.22
20
-3.37
11
6.28
21
-3.37
0
LINE
8
BLACK
6
CONTINUOUS
10
6.28
20
-3.37
11
6.28
21
-3.43
0
LINE
8
BLACK
6
CONTINUOUS
10
6.28
20
-3.43
11
6.22
21
-3.43
0
LINE
8
BLACK
6
CONTINUOUS
10
6.22
20
-3.43
11
6.22
21
-3.41
0
LINE
8
BLACK
6
CONTINUOUS
10
6.22
20
-3.41
11
6.18
21
-3.41
0
LINE
8
BLACK
6
CONTINUOUS
10
6.18
20
-3.41
11
6.18
21
-3.43
0
LINE
8
BLACK
6
CONTINUOUS
10
6.18
20
-3.43
11
6.12
21
-3.43
0
LINE
8
BLACK
6
CONTINUOUS
10
6.12
20
-3.43
11
6.12
21
-3.41
0
LINE
8
BLACK
6
CONTINUOUS
10
6.12
20
-3.41
11
5.96
21
-3.41
0
LINE
8
BLACK
6
CONTINUOUS
10
5.96
20
-3.41
11
5.95617
21
-3.40924
0
LINE
8
BLACK
6
CONTINUOUS
10
5.95617
20
-3.40924
11
5.95293
21
-3.40707
0
LINE
8
BLACK
6
CONTINUOUS
10
5.95293
20
-3.40707
11
5.88336
21
-3.3375
0
LINE
8
BLACK
6
CONTINUOUS
10
5.88336
20
-3.3375
11
5.7975
21
-3.3375
0
LINE
8
BLACK
6
CONTINUOUS
10
5.7975
20
-3.3375
11
5.7975
21
-3.345
0
LINE
8
BLACK
6
CONTINUOUS
10
5.7975
20
-3.345
11
5.78
21
-3.345
0
LINE
8
BLACK
6
CONTINUOUS
10
5.78
20
-3.345
11
5.78
21
-3.55586
0
LINE
8
BLACK
6
CONTINUOUS
10
5.78
20
-3.55586
11
5.80707
21
-3.58293
0
LINE
8
BLACK
6
CONTINUOUS
10
5.80707
20
-3.58293
11
5.80924
21
-3.58617
0
LINE
8
BLACK
6
CONTINUOUS
10
5.80924
20
-3.58617
11
5.81
21
-3.59
0
LINE
8
BLACK
6
CONTINUOUS
10
5.81
20
-3.59
11
5.81
21
-3.59
0
LINE
8
BLACK
6
CONTINUOUS
10
5.81
20
-3.59
11
5.81
21
-3.72
0
LINE
8
BLACK
6
CONTINUOUS
10
5.81
20
-3.72
11
5.83
21
-3.72
0
LINE
8
BLACK
6
CONTINUOUS
10
5.83
20
-3.72
11
5.83
21
-3.78
0
LINE
8
BLACK
6
CONTINUOUS
10
5.83
20
-3.78
11
5.81
21
-3.78
0
LINE
8
BLACK
6
CONTINUOUS
10
5.81
20
-3.78
11
5.81
21
-3.82
0
LINE
8
BLACK
6
CONTINUOUS
10
5.81
20
-3.82
11
5.83
21
-3.82
0
LINE
8
BLACK
6
CONTINUOUS
10
5.83
20
-3.82
11
5.83
21
-3.88
0
LINE
8
BLACK
6
CONTINUOUS
10
5.83
20
-3.88
11
5.77
21
-3.88
0
LINE
8
BLACK
6
CONTINUOUS
10
5.77
20
-3.88
11
5.77
21
-3.82
0
LINE
8
BLACK
6
CONTINUOUS
10
5.77
20
-3.82
11
5.79
21
-3.82
0
LINE
8
BLACK
6
CONTINUOUS
10
5.79
20
-3.82
11
5.79
21
-3.78
0
LINE
8
BLACK
6
CONTINUOUS
10
5.79
20
-3.78
11
5.77
21
-3.78
0
LINE
8
BLACK
6
CONTINUOUS
10
5.77
20
-3.78
11
5.77
21
-3.72
0
LINE
8
BLACK
6
CONTINUOUS
10
5.77
20
-3.72
11
5.79
21
-3.72
0
LINE
8
BLACK
6
CONTINUOUS
10
5.79
20
-3.72
11
5.79
21
-3.59414
0
LINE
8
BLACK
6
CONTINUOUS
10
5.79
20
-3.59414
11
5.76293
21
-3.56707
0
LINE
8
BLACK
6
CONTINUOUS
10
5.76293
20
-3.56707
11
5.76293
21
-3.56707
0
LINE
8
BLACK
6
CONTINUOUS
10
5.76293
20
-3.56707
11
5.76076
21
-3.56383
0
LINE
8
BLACK
6
CONTINUOUS
10
5.76076
20
-3.56383
11
5.76
21
-3.56
0
LINE
8
BLACK
6
CONTINUOUS
10
5.76
20
-3.56
11
5.76
21
-3.345
0
LINE
8
BLACK
6
CONTINUOUS
10
5.76
20
-3.345
11
5.7425
21
-3.345
0
LINE
8
BLACK
6
CONTINUOUS
10
5.7425
20
-3.345
11
5.7425
21
-3.3375
0
LINE
8
BLACK
6
CONTINUOUS
10
5.7425
20
-3.3375
11
5.7175
21
-3.3375
0
LINE
8
BLACK
6
CONTINUOUS
10
5.7175
20
-3.3375
11
5.7175
21
-3.345
0
LINE
8
BLACK
6
CONTINUOUS
10
5.7175
20
-3.345
11
5.6625
21
-3.345
0
LINE
8
BLACK
6
CONTINUOUS
10
5.6625
20
-3.345
11
5.6625
21
-3.3375
0
LINE
8
BLACK
6
CONTINUOUS
10
5.6625
20
-3.3375
11
5.64701
21
-3.3375
0
LINE
8
BLACK
6
CONTINUOUS
10
5.64701
20
-3.3375
11
5.64633
21
-3.33818
0
LINE
8
BLACK
6
CONTINUOUS
10
5.64633
20
-3.33818
11
5.64459
21
-3.3389
0
LINE
8
BLACK
6
CONTINUOUS
10
5.64459
20
-3.3389
11
5.62543
21
-3.3389
0
LINE
8
BLACK
6
CONTINUOUS
10
5.62543
20
-3.3389
11
5.62543
21
-3.34234
0
LINE
8
BLACK
6
CONTINUOUS
10
5.62543
20
-3.34234
11
5.61362
21
-3.34234
0
LINE
8
BLACK
6
CONTINUOUS
10
5.61362
20
-3.34234
11
5.61362
21
-3.32364
0
LINE
8
BLACK
6
CONTINUOUS
10
5.61362
20
-3.32364
11
5.62543
21
-3.32364
0
LINE
8
BLACK
6
CONTINUOUS
10
5.62543
20
-3.32364
11
5.62543
21
-3.32709
0
LINE
8
BLACK
6
CONTINUOUS
10
5.62543
20
-3.32709
11
5.64093
21
-3.32709
0
LINE
8
BLACK
6
CONTINUOUS
10
5.64093
20
-3.32709
11
5.64093
21
-3.31996
0
LINE
8
BLACK
6
CONTINUOUS
10
5.64093
20
-3.31996
11
5.64165
21
-3.31822
0
LINE
8
BLACK
6
CONTINUOUS
10
5.64165
20
-3.31822
11
5.64339
21
-3.3175
0
LINE
8
BLACK
6
CONTINUOUS
10
5.64339
20
-3.3175
11
5.6625
21
-3.3175
0
LINE
8
BLACK
6
CONTINUOUS
10
5.6625
20
-3.3175
11
5.6625
21
-3.31
0
LINE
8
BLACK
6
CONTINUOUS
10
5.6625
20
-3.31
11
5.7175
21
-3.31
0
LINE
8
BLACK
6
CONTINUOUS
10
5.7175
20
-3.31
11
5.7175
21
-3.3175
0
LINE
8
BLACK
6
CONTINUOUS
10
5.7175
20
-3.3175
11
5.7425
21
-3.3175
0
LINE
8
BLACK
6
CONTINUOUS
10
5.7425
20
-3.3175
11
5.7425
21
-3.31
0
LINE
8
BLACK
6
CONTINUOUS
10
5.7425
20
-3.31
11
5.7975
21
-3.31
0
LINE
8
BLACK
6
CONTINUOUS
10
5.7975
20
-3.31
11
5.7975
21
-3.3175
0
LINE
8
BLACK
6
CONTINUOUS
10
5.7975
20
-3.3175
11
5.8775
21
-3.3175
0
LINE
8
BLACK
6
CONTINUOUS
10
5.8775
20
-3.3175
11
5.8775
21
-3.22164
0
LINE
8
BLACK
6
CONTINUOUS
10
5.8775
20
-3.22164
11
5.82543
21
-3.16957
0
LINE
8
BLACK
6
CONTINUOUS
10
5.82543
20
-3.16957
11
5.82426
21
-3.16782
0
LINE
8
BLACK
6
CONTINUOUS
10
5.82426
20
-3.16782
11
5.82326
21
-3.16633
0
LINE
8
BLACK
6
CONTINUOUS
10
5.82326
20
-3.16633
11
5.8225
21
-3.1625
0
LINE
8
BLACK
6
CONTINUOUS
10
5.8225
20
-3.1625
11
5.8225
21
-3.1375
0
LINE
8
BLACK
6
CONTINUOUS
10
5.8225
20
-3.1375
11
5.815
21
-3.1375
0
LINE
8
BLACK
6
CONTINUOUS
10
5.815
20
-3.1375
11
5.815
21
-3.12
0
LINE
8
BLACK
6
CONTINUOUS
10
5.815
20
-3.12
11
5.785
21
-3.12
0
LINE
8
BLACK
6
CONTINUOUS
10
5.785
20
-3.12
11
5.785
21
-3.1375
0
LINE
8
BLACK
6
CONTINUOUS
10
5.785
20
-3.1375
11
5.75
21
-3.1375
0
LINE
8
BLACK
6
CONTINUOUS
10
5.75
20
-3.1375
11
5.75
21
-3.0825
0
LINE
8
BLACK
6
CONTINUOUS
10
5.75
20
-3.0825
11
5.785
21
-3.0825
0
LINE
8
BLACK
6
CONTINUOUS
10
5.785
20
-3.0825
11
5.785
21
-3.1
0
LINE
8
BLACK
6
CONTINUOUS
10
5.93
20
-3.88
11
5.87
21
-3.88
0
LINE
8
BLACK
6
CONTINUOUS
10
5.87
20
-3.88
11
5.87
21
-3.82
0
LINE
8
BLACK
6
CONTINUOUS
10
5.87
20
-3.82
11
5.93
21
-3.82
0
LINE
8
BLACK
6
CONTINUOUS
10
5.93
20
-3.82
11
5.93
21
-3.88
0
LINE
8
BLACK
6
CONTINUOUS
10
5.5175
20
-3.3175
11
5.53661
21
-3.3175
0
LINE
8
BLACK
6
CONTINUOUS
10
5.53661
20
-3.3175
11
5.53835
21
-3.31822
0
LINE
8
BLACK
6
CONTINUOUS
10
5.53835
20
-3.31822
11
5.53907
21
-3.31996
0
LINE
8
BLACK
6
CONTINUOUS
10
5.53907
20
-3.31996
11
5.53907
21
-3.32709
0
LINE
8
BLACK
6
CONTINUOUS
10
5.53907
20
-3.32709
11
5.55457
21
-3.32709
0
LINE
8
BLACK
6
CONTINUOUS
10
5.55457
20
-3.32709
11
5.55457
21
-3.32364
0
LINE
8
BLACK
6
CONTINUOUS
10
5.55457
20
-3.32364
11
5.56638
21
-3.32364
0
LINE
8
BLACK
6
CONTINUOUS
10
5.56638
20
-3.32364
11
5.56638
21
-3.34234
0
LINE
8
BLACK
6
CONTINUOUS
10
5.56638
20
-3.34234
11
5.55457
21
-3.34234
0
LINE
8
BLACK
6
CONTINUOUS
10
5.55457
20
-3.34234
11
5.55457
21
-3.3389
0
LINE
8
BLACK
6
CONTINUOUS
10
5.55457
20
-3.3389
11
5.53541
21
-3.3389
0
LINE
8
BLACK
6
CONTINUOUS
10
5.53541
20
-3.3389
11
5.53367
21
-3.33818
0
LINE
8
BLACK
6
CONTINUOUS
10
5.53367
20
-3.33818
11
5.53299
21
-3.3375
0
LINE
8
BLACK
6
CONTINUOUS
10
5.53299
20
-3.3375
11
5.5175
21
-3.3375
0
LINE
8
BLACK
6
CONTINUOUS
10
5.5175
20
-3.3375
11
5.5175
21
-3.345
0
LINE
8
BLACK
6
CONTINUOUS
10
5.5175
20
-3.345
11
5.5
21
-3.345
0
LINE
8
BLACK
6
CONTINUOUS
10
5.5
20
-3.345
11
5.5
21
-3.38
0
LINE
8
BLACK
6
CONTINUOUS
10
5.5
20
-3.38
11
5.5
21
-3.38
0
LINE
8
BLACK
6
CONTINUOUS
10
5.5
20
-3.38
11
5.49924
21
-3.38383
0
LINE
8
BLACK
6
CONTINUOUS
10
5.49924
20
-3.38383
11
5.49707
21
-3.38707
0
LINE
8
BLACK
6
CONTINUOUS
10
5.49707
20
-3.38707
11
5.31
21
-3.57414
0
LINE
8
BLACK
6
CONTINUOUS
10
5.31
20
-3.57414
11
5.31
21
-3.77
0
LINE
8
BLACK
6
CONTINUOUS
10
5.31
20
-3.77
11
5.33
21
-3.77
0
LINE
8
BLACK
6
CONTINUOUS
10
5.33
20
-3.77
11
5.33
21
-3.83
0
LINE
8
BLACK
6
CONTINUOUS
10
5.33
20
-3.83
11
5.27
21
-3.83
0
LINE
8
BLACK
6
CONTINUOUS
10
5.27
20
-3.83
11
5.27
21
-3.77
0
LINE
8
BLACK
6
CONTINUOUS
10
5.27
20
-3.77
11
5.29
21
-3.77
0
LINE
8
BLACK
6
CONTINUOUS
10
5.29
20
-3.77
11
5.29
21
-3.57
0
LINE
8
BLACK
6
CONTINUOUS
10
5.29
20
-3.57
11
5.29076
21
-3.56617
0
LINE
8
BLACK
6
CONTINUOUS
10
5.29076
20
-3.56617
11
5.29293
21
-3.56293
0
LINE
8
BLACK
6
CONTINUOUS
10
5.29293
20
-3.56293
11
5.29293
21
-3.56293
0
LINE
8
BLACK
6
CONTINUOUS
10
5.29293
20
-3.56293
11
5.48
21
-3.37586
0
LINE
8
BLACK
6
CONTINUOUS
10
5.48
20
-3.37586
11
5.48
21
-3.345
0
LINE
8
BLACK
6
CONTINUOUS
10
5.48
20
-3.345
11
5.4625
21
-3.345
0
LINE
8
BLACK
6
CONTINUOUS
10
5.4625
20
-3.345
11
5.4625
21
-3.31
0
LINE
8
BLACK
6
CONTINUOUS
10
5.4625
20
-3.31
11
5.5175
21
-3.31
0
LINE
8
BLACK
6
CONTINUOUS
10
5.5175
20
-3.31
11
5.5175
21
-3.3175
0
LINE
8
BLACK
6
CONTINUOUS
10
5.43
20
-3.83
11
5.37
21
-3.83
0
LINE
8
BLACK
6
CONTINUOUS
10
5.37
20
-3.83
11
5.37
21
-3.77
0
LINE
8
BLACK
6
CONTINUOUS
10
5.37
20
-3.77
11
5.43
21
-3.77
0
LINE
8
BLACK
6
CONTINUOUS
10
5.43
20
-3.77
11
5.43
21
-3.83
0
LINE
8
BLACK
6
CONTINUOUS
10
5.53
20
-3.83
11
5.47
21
-3.83
0
LINE
8
BLACK
6
CONTINUOUS
10
5.47
20
-3.83
11
5.47
21
-3.77
0
LINE
8
BLACK
6
CONTINUOUS
10
5.47
20
-3.77
11
5.53
21
-3.77
0
LINE
8
BLACK
6
CONTINUOUS
10
5.53
20
-3.77
11
5.53
21
-3.83
0
LINE
8
BLACK
6
CONTINUOUS
10
5.73
20
-3.78
11
5.67
21
-3.78
0
LINE
8
BLACK
6
CONTINUOUS
10
5.67
20
-3.78
11
5.67
21
-3.72
0
LINE
8
BLACK
6
CONTINUOUS
10
5.67
20
-3.72
11
5.73
21
-3.72
0
LINE
8
BLACK
6
CONTINUOUS
10
5.73
20
-3.72
11
5.73
21
-3.78
0
LINE
8
BLACK
6
CONTINUOUS
10
5.93
20
-3.78
11
5.87
21
-3.78
0
LINE
8
BLACK
6
CONTINUOUS
10
5.87
20
-3.78
11
5.87
21
-3.72
0
LINE
8
BLACK
6
CONTINUOUS
10
5.87
20
-3.72
11
5.93
21
-3.72
0
LINE
8
BLACK
6
CONTINUOUS
10
5.93
20
-3.72
11
5.93
21
-3.78
0
LINE
8
BLACK
6
CONTINUOUS
10
4.98
20
-3.53
11
4.92
21
-3.53
0
LINE
8
BLACK
6
CONTINUOUS
10
4.92
20
-3.53
11
4.92
21
-3.47
0
LINE
8
BLACK
6
CONTINUOUS
10
4.92
20
-3.47
11
4.98
21
-3.47
0
LINE
8
BLACK
6
CONTINUOUS
10
4.98
20
-3.47
11
4.98
21
-3.53
0
LINE
8
BLACK
6
CONTINUOUS
10
5.08
20
-3.53
11
5.02
21
-3.53
0
LINE
8
BLACK
6
CONTINUOUS
10
5.02
20
-3.53
11
5.02
21
-3.47
0
LINE
8
BLACK
6
CONTINUOUS
10
5.02
20
-3.47
11
5.08
21
-3.47
0
LINE
8
BLACK
6
CONTINUOUS
10
5.08
20
-3.47
11
5.08
21
-3.53
0
LINE
8
BLACK
6
CONTINUOUS
10
6.18
20
-3.53
11
6.12
21
-3.53
0
LINE
8
BLACK
6
CONTINUOUS
10
6.12
20
-3.53
11
6.12
21
-3.47
0
LINE
8
BLACK
6
CONTINUOUS
10
6.12
20
-3.47
11
6.18
21
-3.47
0
LINE
8
BLACK
6
CONTINUOUS
10
6.18
20
-3.47
11
6.18
21
-3.53
0
LINE
8
BLACK
6
CONTINUOUS
10
6.28
20
-3.53
11
6.22
21
-3.53
0
LINE
8
BLACK
6
CONTINUOUS
10
6.22
20
-3.53
11
6.22
21
-3.47
0
LINE
8
BLACK
6
CONTINUOUS
10
6.22
20
-3.47
11
6.28
21
-3.47
0
LINE
8
BLACK
6
CONTINUOUS
10
6.28
20
-3.47
11
6.28
21
-3.53
0
LINE
8
BLACK
6
CONTINUOUS
10
5.58606
20
-3.34234
11
5.58508
21
-3.34234
0
LINE
8
BLACK
6
CONTINUOUS
10
5.58508
20
-3.34234
11
5.58508
21
-3.37752
0
LINE
8
BLACK
6
CONTINUOUS
10
5.58508
20
-3.37752
11
5.58495
21
-3.37839
0
LINE
8
BLACK
6
CONTINUOUS
10
5.58495
20
-3.37839
11
5.58497
21
-3.37857
0
LINE
8
BLACK
6
CONTINUOUS
10
5.58497
20
-3.37857
11
5.58491
21
-3.37866
0
LINE
8
BLACK
6
CONTINUOUS
10
5.58491
20
-3.37866
11
5.58488
21
-3.37891
0
LINE
8
BLACK
6
CONTINUOUS
10
5.58488
20
-3.37891
11
5.58422
21
-3.37993
0
LINE
8
BLACK
6
CONTINUOUS
10
5.58422
20
-3.37993
11
5.58364
21
-3.381
0
LINE
8
BLACK
6
CONTINUOUS
10
5.58364
20
-3.381
11
5.57228
21
-3.39235
0
LINE
8
BLACK
6
CONTINUOUS
10
5.57228
20
-3.39235
11
5.57228
21
-3.44346
0
LINE
8
BLACK
6
CONTINUOUS
10
5.57228
20
-3.44346
11
5.57153
21
-3.44723
0
LINE
8
BLACK
6
CONTINUOUS
10
5.57153
20
-3.44723
11
5.5694
21
-3.45042
0
LINE
8
BLACK
6
CONTINUOUS
10
5.5694
20
-3.45042
11
5.56621
21
-3.45256
0
LINE
8
BLACK
6
CONTINUOUS
10
5.56621
20
-3.45256
11
5.56244
21
-3.45331
0
LINE
8
BLACK
6
CONTINUOUS
10
5.56244
20
-3.45331
11
5.53291
21
-3.45331
0
LINE
8
BLACK
6
CONTINUOUS
10
5.53291
20
-3.45331
11
5.52915
21
-3.45256
0
LINE
8
BLACK
6
CONTINUOUS
10
5.52915
20
-3.45256
11
5.52595
21
-3.45042
0
LINE
8
BLACK
6
CONTINUOUS
10
5.52595
20
-3.45042
11
5.52382
21
-3.44723
0
LINE
8
BLACK
6
CONTINUOUS
10
5.52382
20
-3.44723
11
5.52307
21
-3.44346
0
LINE
8
BLACK
6
CONTINUOUS
10
5.52307
20
-3.44346
11
5.52307
21
-3.37654
0
LINE
8
BLACK
6
CONTINUOUS
10
5.52307
20
-3.37654
11
5.52382
21
-3.37277
0
LINE
8
BLACK
6
CONTINUOUS
10
5.52382
20
-3.37277
11
5.52595
21
-3.36958
0
LINE
8
BLACK
6
CONTINUOUS
10
5.52595
20
-3.36958
11
5.52915
21
-3.36744
0
LINE
8
BLACK
6
CONTINUOUS
10
5.52915
20
-3.36744
11
5.53291
21
-3.36669
0
LINE
8
BLACK
6
CONTINUOUS
10
5.53291
20
-3.36669
11
5.56244
21
-3.36669
0
LINE
8
BLACK
6
CONTINUOUS
10
5.56244
20
-3.36669
11
5.56621
21
-3.36744
0
LINE
8
BLACK
6
CONTINUOUS
10
5.56621
20
-3.36744
11
5.5694
21
-3.36958
0
LINE
8
BLACK
6
CONTINUOUS
10
5.5694
20
-3.36958
11
5.57153
21
-3.37277
0
LINE
8
BLACK
6
CONTINUOUS
10
5.57153
20
-3.37277
11
5.57228
21
-3.37654
0
LINE
8
BLACK
6
CONTINUOUS
10
5.57228
20
-3.37654
11
5.57228
21
-3.37843
0
LINE
8
BLACK
6
CONTINUOUS
10
5.57228
20
-3.37843
11
5.57524
21
-3.37548
0
LINE
8
BLACK
6
CONTINUOUS
10
5.57524
20
-3.37548
11
5.57524
21
-3.34234
0
LINE
8
BLACK
6
CONTINUOUS
10
5.57524
20
-3.34234
11
5.57425
21
-3.34234
0
LINE
8
BLACK
6
CONTINUOUS
10
5.57425
20
-3.34234
11
5.57425
21
-3.32364
0
LINE
8
BLACK
6
CONTINUOUS
10
5.57425
20
-3.32364
11
5.58606
21
-3.32364
0
LINE
8
BLACK
6
CONTINUOUS
10
5.58606
20
-3.32364
11
5.58606
21
-3.34234
0
LINE
8
BLACK
6
CONTINUOUS
10
5.60575
20
-3.34234
11
5.60476
21
-3.34234
0
LINE
8
BLACK
6
CONTINUOUS
10
5.60476
20
-3.34234
11
5.60476
21
-3.37548
0
LINE
8
BLACK
6
CONTINUOUS
10
5.60476
20
-3.37548
11
5.60772
21
-3.37843
0
LINE
8
BLACK
6
CONTINUOUS
10
5.60772
20
-3.37843
11
5.60772
21
-3.37654
0
LINE
8
BLACK
6
CONTINUOUS
10
5.60772
20
-3.37654
11
5.60847
21
-3.37277
0
LINE
8
BLACK
6
CONTINUOUS
10
5.60847
20
-3.37277
11
5.6106
21
-3.36958
0
LINE
8
BLACK
6
CONTINUOUS
10
5.6106
20
-3.36958
11
5.61379
21
-3.36744
0
LINE
8
BLACK
6
CONTINUOUS
10
5.61379
20
-3.36744
11
5.61756
21
-3.36669
0
LINE
8
BLACK
6
CONTINUOUS
10
5.61756
20
-3.36669
11
5.64709
21
-3.36669
0
LINE
8
BLACK
6
CONTINUOUS
10
5.64709
20
-3.36669
11
5.65085
21
-3.36744
0
LINE
8
BLACK
6
CONTINUOUS
10
5.65085
20
-3.36744
11
5.65405
21
-3.36958
0
LINE
8
BLACK
6
CONTINUOUS
10
5.65405
20
-3.36958
11
5.65618
21
-3.37277
0
LINE
8
BLACK
6
CONTINUOUS
10
5.65618
20
-3.37277
11
5.65693
21
-3.37654
0
LINE
8
BLACK
6
CONTINUOUS
10
5.65693
20
-3.37654
11
5.65693
21
-3.44346
0
LINE
8
BLACK
6
CONTINUOUS
10
5.65693
20
-3.44346
11
5.65618
21
-3.44723
0
LINE
8
BLACK
6
CONTINUOUS
10
5.65618
20
-3.44723
11
5.65405
21
-3.45042
0
LINE
8
BLACK
6
CONTINUOUS
10
5.65405
20
-3.45042
11
5.65085
21
-3.45256
0
LINE
8
BLACK
6
CONTINUOUS
10
5.65085
20
-3.45256
11
5.64709
21
-3.45331
0
LINE
8
BLACK
6
CONTINUOUS
10
5.64709
20
-3.45331
11
5.61756
21
-3.45331
0
LINE
8
BLACK
6
CONTINUOUS
10
5.61756
20
-3.45331
11
5.61379
21
-3.45256
0
LINE
8
BLACK
6
CONTINUOUS
10
5.61379
20
-3.45256
11
5.6106
21
-3.45042
0
LINE
8
BLACK
6
CONTINUOUS
10
5.6106
20
-3.45042
11
5.60847
21
-3.44723
0
LINE
8
BLACK
6
CONTINUOUS
10
5.60847
20
-3.44723
11
5.60772
21
-3.44346
0
LINE
8
BLACK
6
CONTINUOUS
10
5.60772
20
-3.44346
11
5.60772
21
-3.39235
0
LINE
8
BLACK
6
CONTINUOUS
10
5.60772
20
-3.39235
11
5.59636
21
-3.381
0
LINE
8
BLACK
6
CONTINUOUS
10
5.59636
20
-3.381
11
5.59584
21
-3.3803
0
LINE
8
BLACK
6
CONTINUOUS
10
5.59584
20
-3.3803
11
5.5957
21
-3.38018
0
LINE
8
BLACK
6
CONTINUOUS
10
5.5957
20
-3.38018
11
5.59567
21
-3.38008
0
LINE
8
BLACK
6
CONTINUOUS
10
5.59567
20
-3.38008
11
5.59552
21
-3.37988
0
LINE
8
BLACK
6
CONTINUOUS
10
5.59552
20
-3.37988
11
5.59526
21
-3.37869
0
LINE
8
BLACK
6
CONTINUOUS
10
5.59526
20
-3.37869
11
5.59492
21
-3.37752
0
LINE
8
BLACK
6
CONTINUOUS
10
5.59492
20
-3.37752
11
5.59492
21
-3.34234
0
LINE
8
BLACK
6
CONTINUOUS
10
5.59492
20
-3.34234
11
5.59394
21
-3.34234
0
LINE
8
BLACK
6
CONTINUOUS
10
5.59394
20
-3.34234
11
5.59394
21
-3.32364
0
LINE
8
BLACK
6
CONTINUOUS
10
5.59394
20
-3.32364
11
5.60575
21
-3.32364
0
LINE
8
BLACK
6
CONTINUOUS
10
5.60575
20
-3.32364
11
5.60575
21
-3.34234
0
LINE
8
BLACK
6
CONTINUOUS
10
4.98
20
-3.39
11
5.02
21
-3.39
0
LINE
8
BLACK
6
CONTINUOUS
10
5.02
20
-3.39
11
5.02
21
-3.37
0
LINE
8
BLACK
6
CONTINUOUS
10
5.02
20
-3.37
11
5.08
21
-3.37
0
LINE
8
BLACK
6
CONTINUOUS
10
5.08
20
-3.37
11
5.08
21
-3.43
0
LINE
8
BLACK
6
CONTINUOUS
10
5.08
20
-3.43
11
5.02
21
-3.43
0
LINE
8
BLACK
6
CONTINUOUS
10
5.02
20
-3.43
11
5.02
21
-3.41
0
LINE
8
BLACK
6
CONTINUOUS
10
5.02
20
-3.41
11
4.98
21
-3.41
0
LINE
8
BLACK
6
CONTINUOUS
10
4.98
20
-3.41
11
4.98
21
-3.43
0
LINE
8
BLACK
6
CONTINUOUS
10
4.98
20
-3.43
11
4.92
21
-3.43
0
LINE
8
BLACK
6
CONTINUOUS
10
4.92
20
-3.43
11
4.92
21
-3.37
0
LINE
8
BLACK
6
CONTINUOUS
10
4.92
20
-3.37
11
4.98
21
-3.37
0
LINE
8
BLACK
6
CONTINUOUS
10
4.98
20
-3.37
11
4.98
21
-3.39
0
LINE
8
BLACK
6
CONTINUOUS
10
4.98
20
-3.33
11
4.92
21
-3.33
0
LINE
8
BLACK
6
CONTINUOUS
10
4.92
20
-3.33
11
4.92
21
-3.27
0
LINE
8
BLACK
6
CONTINUOUS
10
4.92
20
-3.27
11
4.98
21
-3.27
0
LINE
8
BLACK
6
CONTINUOUS
10
4.98
20
-3.27
11
4.98
21
-3.33
0
LINE
8
BLACK
6
CONTINUOUS
10
5.08
20
-3.33
11
5.02
21
-3.33
0
LINE
8
BLACK
6
CONTINUOUS
10
5.02
20
-3.33
11
5.02
21
-3.27
0
LINE
8
BLACK
6
CONTINUOUS
10
5.02
20
-3.27
11
5.08
21
-3.27
0
LINE
8
BLACK
6
CONTINUOUS
10
5.08
20
-3.27
11
5.08
21
-3.33
0
LINE
8
BLACK
6
CONTINUOUS
10
6.18
20
-3.33
11
6.12
21
-3.33
0
LINE
8
BLACK
6
CONTINUOUS
10
6.12
20
-3.33
11
6.12
21
-3.27
0
LINE
8
BLACK
6
CONTINUOUS
10
6.12
20
-3.27
11
6.18
21
-3.27
0
LINE
8
BLACK
6
CONTINUOUS
10
6.18
20
-3.27
11
6.18
21
-3.33
0
LINE
8
BLACK
6
CONTINUOUS
10
6.28
20
-3.33
11
6.22
21
-3.33
0
LINE
8
BLACK
6
CONTINUOUS
10
6.22
20
-3.33
11
6.22
21
-3.27
0
LINE
8
BLACK
6
CONTINUOUS
10
6.22
20
-3.27
11
6.28
21
-3.27
0
LINE
8
BLACK
6
CONTINUOUS
10
6.28
20
-3.27
11
6.28
21
-3.33
0
LINE
8
BLACK
6
CONTINUOUS
10
5.43
20
-3.03
11
5.40787
21
-3.03
0
LINE
8
BLACK
6
CONTINUOUS
10
5.40787
20
-3.03
11
5.40787
21
-3.07674
0
LINE
8
BLACK
6
CONTINUOUS
10
5.40787
20
-3.07674
11
5.54557
21
-3.21443
0
LINE
8
BLACK
6
CONTINUOUS
10
5.54557
20
-3.21443
11
5.54627
21
-3.21555
0
LINE
8
BLACK
6
CONTINUOUS
10
5.54627
20
-3.21555
11
5.54709
21
-3.21658
0
LINE
8
BLACK
6
CONTINUOUS
10
5.54709
20
-3.21658
11
5.54719
21
-3.21702
0
LINE
8
BLACK
6
CONTINUOUS
10
5.54719
20
-3.21702
11
5.54743
21
-3.2174
0
LINE
8
BLACK
6
CONTINUOUS
10
5.54743
20
-3.2174
11
5.54758
21
-3.21871
0
LINE
8
BLACK
6
CONTINUOUS
10
5.54758
20
-3.21871
11
5.54787
21
-3.22
0
LINE
8
BLACK
6
CONTINUOUS
10
5.54787
20
-3.22
11
5.54787
21
-3.24674
0
LINE
8
BLACK
6
CONTINUOUS
10
5.54787
20
-3.24674
11
5.55879
21
-3.25766
0
LINE
8
BLACK
6
CONTINUOUS
10
5.55879
20
-3.25766
11
5.56638
21
-3.25766
0
LINE
8
BLACK
6
CONTINUOUS
10
5.56638
20
-3.25766
11
5.56638
21
-3.27636
0
LINE
8
BLACK
6
CONTINUOUS
10
5.56638
20
-3.27636
11
5.55457
21
-3.27636
0
LINE
8
BLACK
6
CONTINUOUS
10
5.55457
20
-3.27636
11
5.55457
21
-3.27446
0
LINE
8
BLACK
6
CONTINUOUS
10
5.55457
20
-3.27446
11
5.55441
21
-3.27444
0
LINE
8
BLACK
6
CONTINUOUS
10
5.55441
20
-3.27444
11
5.55144
21
-3.27258
0
LINE
8
BLACK
6
CONTINUOUS
10
5.55144
20
-3.27258
11
5.53443
21
-3.25557
0
LINE
8
BLACK
6
CONTINUOUS
10
5.53443
20
-3.25557
11
5.53373
21
-3.25445
0
LINE
8
BLACK
6
CONTINUOUS
10
5.53373
20
-3.25445
11
5.53291
21
-3.25342
0
LINE
8
BLACK
6
CONTINUOUS
10
5.53291
20
-3.25342
11
5.53281
21
-3.25298
0
LINE
8
BLACK
6
CONTINUOUS
10
5.53281
20
-3.25298
11
5.53257
21
-3.2526
0
LINE
8
BLACK
6
CONTINUOUS
10
5.53257
20
-3.2526
11
5.53242
21
-3.25129
0
LINE
8
BLACK
6
CONTINUOUS
10
5.53242
20
-3.25129
11
5.53213
21
-3.25
0
LINE
8
BLACK
6
CONTINUOUS
10
5.53213
20
-3.25
11
5.53213
21
-3.22326
0
LINE
8
BLACK
6
CONTINUOUS
10
5.53213
20
-3.22326
11
5.39443
21
-3.08557
0
LINE
8
BLACK
6
CONTINUOUS
10
5.39443
20
-3.08557
11
5.39373
21
-3.08445
0
LINE
8
BLACK
6
CONTINUOUS
10
5.39373
20
-3.08445
11
5.39291
21
-3.08342
0
LINE
8
BLACK
6
CONTINUOUS
10
5.39291
20
-3.08342
11
5.39281
21
-3.08298
0
LINE
8
BLACK
6
CONTINUOUS
10
5.39281
20
-3.08298
11
5.39257
21
-3.0826
0
LINE
8
BLACK
6
CONTINUOUS
10
5.39257
20
-3.0826
11
5.39242
21
-3.08129
0
LINE
8
BLACK
6
CONTINUOUS
10
5.39242
20
-3.08129
11
5.39213
21
-3.08
0
LINE
8
BLACK
6
CONTINUOUS
10
5.39213
20
-3.08
11
5.39213
21
-3.03
0
LINE
8
BLACK
6
CONTINUOUS
10
5.39213
20
-3.03
11
5.37
21
-3.03
0
LINE
8
BLACK
6
CONTINUOUS
10
5.37
20
-3.03
11
5.37
21
-2.97
0
LINE
8
BLACK
6
CONTINUOUS
10
5.37
20
-2.97
11
5.43
21
-2.97
0
LINE
8
BLACK
6
CONTINUOUS
10
5.43
20
-2.97
11
5.43
21
-3.03
0
LINE
8
BLACK
6
CONTINUOUS
10
5.56504
20
-3.18485
11
5.56943
21
-3.18709
0
LINE
8
BLACK
6
CONTINUOUS
10
5.56943
20
-3.18709
11
5.57291
21
-3.19057
0
LINE
8
BLACK
6
CONTINUOUS
10
5.57291
20
-3.19057
11
5.57515
21
-3.19496
0
LINE
8
BLACK
6
CONTINUOUS
10
5.57515
20
-3.19496
11
5.57592
21
-3.19983
0
LINE
8
BLACK
6
CONTINUOUS
10
5.57592
20
-3.19983
11
5.57526
21
-3.20395
0
LINE
8
BLACK
6
CONTINUOUS
10
5.57526
20
-3.20395
11
5.57709
21
-3.20625
0
LINE
8
BLACK
6
CONTINUOUS
10
5.57709
20
-3.20625
11
5.57787
21
-3.20966
0
LINE
8
BLACK
6
CONTINUOUS
10
5.57787
20
-3.20966
11
5.57787
21
-3.23243
0
LINE
8
BLACK
6
CONTINUOUS
10
5.57787
20
-3.23243
11
5.58573
21
-3.24028
0
LINE
8
BLACK
6
CONTINUOUS
10
5.58573
20
-3.24028
11
5.58643
21
-3.2414
0
LINE
8
BLACK
6
CONTINUOUS
10
5.58643
20
-3.2414
11
5.58725
21
-3.24243
0
LINE
8
BLACK
6
CONTINUOUS
10
5.58725
20
-3.24243
11
5.58735
21
-3.24287
0
LINE
8
BLACK
6
CONTINUOUS
10
5.58735
20
-3.24287
11
5.58759
21
-3.24325
0
LINE
8
BLACK
6
CONTINUOUS
10
5.58759
20
-3.24325
11
5.58774
21
-3.24456
0
LINE
8
BLACK
6
CONTINUOUS
10
5.58774
20
-3.24456
11
5.58803
21
-3.24585
0
LINE
8
BLACK
6
CONTINUOUS
10
5.58803
20
-3.24585
11
5.58803
21
-3.26701
0
LINE
8
BLACK
6
CONTINUOUS
10
5.58803
20
-3.26701
11
5.58725
21
-3.27042
0
LINE
8
BLACK
6
CONTINUOUS
10
5.58725
20
-3.27042
11
5.58606
21
-3.27191
0
LINE
8
BLACK
6
CONTINUOUS
10
5.58606
20
-3.27191
11
5.58606
21
-3.27636
0
LINE
8
BLACK
6
CONTINUOUS
10
5.58606
20
-3.27636
11
5.57425
21
-3.27636
0
LINE
8
BLACK
6
CONTINUOUS
10
5.57425
20
-3.27636
11
5.57425
21
-3.27191
0
LINE
8
BLACK
6
CONTINUOUS
10
5.57425
20
-3.27191
11
5.57306
21
-3.27042
0
LINE
8
BLACK
6
CONTINUOUS
10
5.57306
20
-3.27042
11
5.57228
21
-3.26701
0
LINE
8
BLACK
6
CONTINUOUS
10
5.57228
20
-3.26701
11
5.57228
21
-3.24911
0
LINE
8
BLACK
6
CONTINUOUS
10
5.57228
20
-3.24911
11
5.56443
21
-3.24126
0
LINE
8
BLACK
6
CONTINUOUS
10
5.56443
20
-3.24126
11
5.56373
21
-3.24014
0
LINE
8
BLACK
6
CONTINUOUS
10
5.56373
20
-3.24014
11
5.56291
21
-3.23911
0
LINE
8
BLACK
6
CONTINUOUS
10
5.56291
20
-3.23911
11
5.56281
21
-3.23867
0
LINE
8
BLACK
6
CONTINUOUS
10
5.56281
20
-3.23867
11
5.56257
21
-3.23829
0
LINE
8
BLACK
6
CONTINUOUS
10
5.56257
20
-3.23829
11
5.56242
21
-3.23698
0
LINE
8
BLACK
6
CONTINUOUS
10
5.56242
20
-3.23698
11
5.56213
21
-3.23569
0
LINE
8
BLACK
6
CONTINUOUS
10
5.56213
20
-3.23569
11
5.56213
21
-3.21527
0
LINE
8
BLACK
6
CONTINUOUS
10
5.56213
20
-3.21527
11
5.56017
21
-3.21558
0
LINE
8
BLACK
6
CONTINUOUS
10
5.56017
20
-3.21558
11
5.5553
21
-3.21481
0
LINE
8
BLACK
6
CONTINUOUS
10
5.5553
20
-3.21481
11
5.55091
21
-3.21257
0
LINE
8
BLACK
6
CONTINUOUS
10
5.55091
20
-3.21257
11
5.54743
21
-3.20909
0
LINE
8
BLACK
6
CONTINUOUS
10
5.54743
20
-3.20909
11
5.54519
21
-3.2047
0
LINE
8
BLACK
6
CONTINUOUS
10
5.54519
20
-3.2047
11
5.54442
21
-3.19983
0
LINE
8
BLACK
6
CONTINUOUS
10
5.54442
20
-3.19983
11
5.54519
21
-3.19496
0
LINE
8
BLACK
6
CONTINUOUS
10
5.54519
20
-3.19496
11
5.54743
21
-3.19057
0
LINE
8
BLACK
6
CONTINUOUS
10
5.54743
20
-3.19057
11
5.55091
21
-3.18709
0
LINE
8
BLACK
6
CONTINUOUS
10
5.55091
20
-3.18709
11
5.5553
21
-3.18485
0
LINE
8
BLACK
6
CONTINUOUS
10
5.5553
20
-3.18485
11
5.56017
21
-3.18408
0
LINE
8
BLACK
6
CONTINUOUS
10
5.56017
20
-3.18408
11
5.56504
21
-3.18485
0
LINE
8
BLACK
6
CONTINUOUS
10
5.60575
20
-3.27636
11
5.59394
21
-3.27636
0
LINE
8
BLACK
6
CONTINUOUS
10
5.59394
20
-3.27636
11
5.59394
21
-3.25766
0
LINE
8
BLACK
6
CONTINUOUS
10
5.59394
20
-3.25766
11
5.60575
21
-3.25766
0
LINE
8
BLACK
6
CONTINUOUS
10
5.60575
20
-3.25766
11
5.60575
21
-3.27636
0
LINE
8
BLACK
6
CONTINUOUS
10
5.83
20
-3.03
11
5.78114
21
-3.03
0
LINE
8
BLACK
6
CONTINUOUS
10
5.78114
20
-3.03
11
5.73787
21
-3.07326
0
LINE
8
BLACK
6
CONTINUOUS
10
5.73787
20
-3.07326
11
5.73787
21
-3.15
0
LINE
8
BLACK
6
CONTINUOUS
10
5.73787
20
-3.15
11
5.73758
21
-3.15129
0
LINE
8
BLACK
6
CONTINUOUS
10
5.73758
20
-3.15129
11
5.73743
21
-3.1526
0
LINE
8
BLACK
6
CONTINUOUS
10
5.73743
20
-3.1526
11
5.73719
21
-3.15298
0
LINE
8
BLACK
6
CONTINUOUS
10
5.73719
20
-3.15298
11
5.73709
21
-3.15342
0
LINE
8
BLACK
6
CONTINUOUS
10
5.73709
20
-3.15342
11
5.73627
21
-3.15445
0
LINE
8
BLACK
6
CONTINUOUS
10
5.73627
20
-3.15445
11
5.73557
21
-3.15557
0
LINE
8
BLACK
6
CONTINUOUS
10
5.73557
20
-3.15557
11
5.72557
21
-3.16557
0
LINE
8
BLACK
6
CONTINUOUS
10
5.72557
20
-3.16557
11
5.72445
21
-3.16627
0
LINE
8
BLACK
6
CONTINUOUS
10
5.72445
20
-3.16627
11
5.72342
21
-3.16709
0
LINE
8
BLACK
6
CONTINUOUS
10
5.72342
20
-3.16709
11
5.72298
21
-3.16719
0
LINE
8
BLACK
6
CONTINUOUS
10
5.72298
20
-3.16719
11
5.7226
21
-3.16743
0
LINE
8
BLACK
6
CONTINUOUS
10
5.7226
20
-3.16743
11
5.72129
21
-3.16758
0
LINE
8
BLACK
6
CONTINUOUS
10
5.72129
20
-3.16758
11
5.72
21
-3.16787
0
LINE
8
BLACK
6
CONTINUOUS
10
5.72
20
-3.16787
11
5.67326
21
-3.16787
0
LINE
8
BLACK
6
CONTINUOUS
10
5.67326
20
-3.16787
11
5.66807
21
-3.17307
0
LINE
8
BLACK
6
CONTINUOUS
10
5.66807
20
-3.17307
11
5.66695
21
-3.17377
0
LINE
8
BLACK
6
CONTINUOUS
10
5.66695
20
-3.17377
11
5.66592
21
-3.17459
0
LINE
8
BLACK
6
CONTINUOUS
10
5.66592
20
-3.17459
11
5.66548
21
-3.17469
0
LINE
8
BLACK
6
CONTINUOUS
10
5.66548
20
-3.17469
11
5.6651
21
-3.17493
0
LINE
8
BLACK
6
CONTINUOUS
10
5.6651
20
-3.17493
11
5.66379
21
-3.17508
0
LINE
8
BLACK
6
CONTINUOUS
10
5.66379
20
-3.17508
11
5.6625
21
-3.17537
0
LINE
8
BLACK
6
CONTINUOUS
10
5.6625
20
-3.17537
11
5.6475
21
-3.17537
0
LINE
8
BLACK
6
CONTINUOUS
10
5.6475
20
-3.17537
11
5.6475
21
-3.185
0
LINE
8
BLACK
6
CONTINUOUS
10
5.6475
20
-3.185
11
5.63787
21
-3.185
0
LINE
8
BLACK
6
CONTINUOUS
10
5.63787
20
-3.185
11
5.63787
21
-3.25654
0
LINE
8
BLACK
6
CONTINUOUS
10
5.63787
20
-3.25654
11
5.63758
21
-3.25782
0
LINE
8
BLACK
6
CONTINUOUS
10
5.63758
20
-3.25782
11
5.63743
21
-3.25914
0
LINE
8
BLACK
6
CONTINUOUS
10
5.63743
20
-3.25914
11
5.63719
21
-3.25952
0
LINE
8
BLACK
6
CONTINUOUS
10
5.63719
20
-3.25952
11
5.63709
21
-3.25995
0
LINE
8
BLACK
6
CONTINUOUS
10
5.63709
20
-3.25995
11
5.63627
21
-3.26098
0
LINE
8
BLACK
6
CONTINUOUS
10
5.63627
20
-3.26098
11
5.63557
21
-3.2621
0
LINE
8
BLACK
6
CONTINUOUS
10
5.63557
20
-3.2621
11
5.62543
21
-3.27224
0
LINE
8
BLACK
6
CONTINUOUS
10
5.62543
20
-3.27224
11
5.62543
21
-3.27636
0
LINE
8
BLACK
6
CONTINUOUS
10
5.62543
20
-3.27636
11
5.61362
21
-3.27636
0
LINE
8
BLACK
6
CONTINUOUS
10
5.61362
20
-3.27636
11
5.61362
21
-3.27196
0
LINE
8
BLACK
6
CONTINUOUS
10
5.61362
20
-3.27196
11
5.61286
21
-3.2712
0
LINE
8
BLACK
6
CONTINUOUS
10
5.61286
20
-3.2712
11
5.6117
21
-3.26789
0
LINE
8
BLACK
6
CONTINUOUS
10
5.6117
20
-3.26789
11
5.6121
21
-3.26441
0
LINE
8
BLACK
6
CONTINUOUS
10
5.6121
20
-3.26441
11
5.61362
21
-3.26198
0
LINE
8
BLACK
6
CONTINUOUS
10
5.61362
20
-3.26198
11
5.61362
21
-3.25766
0
LINE
8
BLACK
6
CONTINUOUS
10
5.61362
20
-3.25766
11
5.61774
21
-3.25766
0
LINE
8
BLACK
6
CONTINUOUS
10
5.61774
20
-3.25766
11
5.62213
21
-3.25327
0
LINE
8
BLACK
6
CONTINUOUS
10
5.62213
20
-3.25327
11
5.62213
21
-3.185
0
LINE
8
BLACK
6
CONTINUOUS
10
5.62213
20
-3.185
11
5.5925
21
-3.185
0
LINE
8
BLACK
6
CONTINUOUS
10
5.5925
20
-3.185
11
5.5925
21
-3.15
0
LINE
8
BLACK
6
CONTINUOUS
10
5.5925
20
-3.15
11
5.6475
21
-3.15
0
LINE
8
BLACK
6
CONTINUOUS
10
5.6475
20
-3.15
11
5.6475
21
-3.15963
0
LINE
8
BLACK
6
CONTINUOUS
10
5.6475
20
-3.15963
11
5.65924
21
-3.15963
0
LINE
8
BLACK
6
CONTINUOUS
10
5.65924
20
-3.15963
11
5.66443
21
-3.15443
0
LINE
8
BLACK
6
CONTINUOUS
10
5.66443
20
-3.15443
11
5.66555
21
-3.15373
0
LINE
8
BLACK
6
CONTINUOUS
10
5.66555
20
-3.15373
11
5.66658
21
-3.15291
0
LINE
8
BLACK
6
CONTINUOUS
10
5.66658
20
-3.15291
11
5.66702
21
-3.15281
0
LINE
8
BLACK
6
CONTINUOUS
10
5.66702
20
-3.15281
11
5.6674
21
-3.15257
0
LINE
8
BLACK
6
CONTINUOUS
10
5.6674
20
-3.15257
11
5.66871
21
-3.15242
0
LINE
8
BLACK
6
CONTINUOUS
10
5.66871
20
-3.15242
11
5.67
21
-3.15213
0
LINE
8
BLACK
6
CONTINUOUS
10
5.67
20
-3.15213
11
5.71674
21
-3.15213
0
LINE
8
BLACK
6
CONTINUOUS
10
5.71674
20
-3.15213
11
5.72213
21
-3.14674
0
LINE
8
BLACK
6
CONTINUOUS
10
5.72213
20
-3.14674
11
5.72213
21
-3.07
0
LINE
8
BLACK
6
CONTINUOUS
10
5.72213
20
-3.07
11
5.72242
21
-3.06871
0
LINE
8
BLACK
6
CONTINUOUS
10
5.72242
20
-3.06871
11
5.72257
21
-3.0674
0
LINE
8
BLACK
6
CONTINUOUS
10
5.72257
20
-3.0674
11
5.72281
21
-3.06702
0
LINE
8
BLACK
6
CONTINUOUS
10
5.72281
20
-3.06702
11
5.72291
21
-3.06658
0
LINE
8
BLACK
6
CONTINUOUS
10
5.72291
20
-3.06658
11
5.72373
21
-3.06555
0
LINE
8
BLACK
6
CONTINUOUS
10
5.72373
20
-3.06555
11
5.72443
21
-3.06443
0
LINE
8
BLACK
6
CONTINUOUS
10
5.72443
20
-3.06443
11
5.77
21
-3.01886
0
LINE
8
BLACK
6
CONTINUOUS
10
5.77
20
-3.01886
11
5.77
21
-2.97
0
LINE
8
BLACK
6
CONTINUOUS
10
5.77
20
-2.97
11
5.83
21
-2.97
0
LINE
8
BLACK
6
CONTINUOUS
10
5.83
20
-2.97
11
5.83
21
-3.03
0
LINE
8
BLACK
6
CONTINUOUS
10
5.5175
20
-3.27
11
5.4625
21
-3.27
0
LINE
8
BLACK
6
CONTINUOUS
10
5.4625
20
-3.27
11
5.4625
21
-3.235
0
LINE
8
BLACK
6
CONTINUOUS
10
5.4625
20
-3.235
11
5.5175
21
-3.235
0
LINE
8
BLACK
6
CONTINUOUS
10
5.5175
20
-3.235
11
5.5175
21
-3.27
0
LINE
8
BLACK
6
CONTINUOUS
10
5.7175
20
-3.27
11
5.6625
21
-3.27
0
LINE
8
BLACK
6
CONTINUOUS
10
5.6625
20
-3.27
11
5.6625
21
-3.235
0
LINE
8
BLACK
6
CONTINUOUS
10
5.6625
20
-3.235
11
5.7175
21
-3.235
0
LINE
8
BLACK
6
CONTINUOUS
10
5.7175
20
-3.235
11
5.7175
21
-3.27
0
LINE
8
BLACK
6
CONTINUOUS
10
5.7975
20
-3.27
11
5.7425
21
-3.27
0
LINE
8
BLACK
6
CONTINUOUS
10
5.7425
20
-3.27
11
5.7425
21
-3.235
0
LINE
8
BLACK
6
CONTINUOUS
10
5.7425
20
-3.235
11
5.7975
21
-3.235
0
LINE
8
BLACK
6
CONTINUOUS
10
5.7975
20
-3.235
11
5.7975
21
-3.27
0
LINE
8
BLACK
6
CONTINUOUS
10
5.60487
20
-3.20502
11
5.60926
21
-3.20726
0
LINE
8
BLACK
6
CONTINUOUS
10
5.60926
20
-3.20726
11
5.61274
21
-3.21074
0
LINE
8
BLACK
6
CONTINUOUS
10
5.61274
20
-3.21074
11
5.61498
21
-3.21513
0
LINE
8
BLACK
6
CONTINUOUS
10
5.61498
20
-3.21513
11
5.61575
21
-3.22
0
LINE
8
BLACK
6
CONTINUOUS
10
5.61575
20
-3.22
11
5.61498
21
-3.22487
0
LINE
8
BLACK
6
CONTINUOUS
10
5.61498
20
-3.22487
11
5.61274
21
-3.22926
0
LINE
8
BLACK
6
CONTINUOUS
10
5.61274
20
-3.22926
11
5.60926
21
-3.23274
0
LINE
8
BLACK
6
CONTINUOUS
10
5.60926
20
-3.23274
11
5.60487
21
-3.23498
0
LINE
8
BLACK
6
CONTINUOUS
10
5.60487
20
-3.23498
11
5.6
21
-3.23575
0
LINE
8
BLACK
6
CONTINUOUS
10
5.6
20
-3.23575
11
5.59513
21
-3.23498
0
LINE
8
BLACK
6
CONTINUOUS
10
5.59513
20
-3.23498
11
5.59074
21
-3.23274
0
LINE
8
BLACK
6
CONTINUOUS
10
5.59074
20
-3.23274
11
5.58726
21
-3.22926
0
LINE
8
BLACK
6
CONTINUOUS
10
5.58726
20
-3.22926
11
5.58502
21
-3.22487
0
LINE
8
BLACK
6
CONTINUOUS
10
5.58502
20
-3.22487
11
5.58425
21
-3.22
0
LINE
8
BLACK
6
CONTINUOUS
10
5.58425
20
-3.22
11
5.58502
21
-3.21513
0
LINE
8
BLACK
6
CONTINUOUS
10
5.58502
20
-3.21513
11
5.58726
21
-3.21074
0
LINE
8
BLACK
6
CONTINUOUS
10
5.58726
20
-3.21074
11
5.59074
21
-3.20726
0
LINE
8
BLACK
6
CONTINUOUS
10
5.59074
20
-3.20726
11
5.59513
21
-3.20502
0
LINE
8
BLACK
6
CONTINUOUS
10
5.59513
20
-3.20502
11
5.6
21
-3.20425
0
LINE
8
BLACK
6
CONTINUOUS
10
5.6
20
-3.20425
11
5.60487
21
-3.20502
0
LINE
8
BLACK
6
CONTINUOUS
10
5.73
20
-3.03
11
5.70037
21
-3.03
0
LINE
8
BLACK
6
CONTINUOUS
10
5.70037
20
-3.03
11
5.70037
21
-3.0825
0
LINE
8
BLACK
6
CONTINUOUS
10
5.70037
20
-3.0825
11
5.71
21
-3.0825
0
LINE
8
BLACK
6
CONTINUOUS
10
5.71
20
-3.0825
11
5.71
21
-3.1375
0
LINE
8
BLACK
6
CONTINUOUS
10
5.71
20
-3.1375
11
5.675
21
-3.1375
0
LINE
8
BLACK
6
CONTINUOUS
10
5.675
20
-3.1375
11
5.675
21
-3.0825
0
LINE
8
BLACK
6
CONTINUOUS
10
5.675
20
-3.0825
11
5.68463
21
-3.0825
0
LINE
8
BLACK
6
CONTINUOUS
10
5.68463
20
-3.0825
11
5.68463
21
-3.03
0
LINE
8
BLACK
6
CONTINUOUS
10
5.68463
20
-3.03
11
5.67
21
-3.03
0
LINE
8
BLACK
6
CONTINUOUS
10
5.67
20
-3.03
11
5.67
21
-2.97
0
LINE
8
BLACK
6
CONTINUOUS
10
5.67
20
-2.97
11
5.73
21
-2.97
0
LINE
8
BLACK
6
CONTINUOUS
10
5.73
20
-2.97
11
5.73
21
-3.03
0
LINE
8
BLACK
6
CONTINUOUS
10
5.93
20
-3.03
11
5.91537
21
-3.03
0
LINE
8
BLACK
6
CONTINUOUS
10
5.91537
20
-3.03
11
5.91537
21
-3.0825
0
LINE
8
BLACK
6
CONTINUOUS
10
5.91537
20
-3.0825
11
5.925
21
-3.0825
0
LINE
8
BLACK
6
CONTINUOUS
10
5.925
20
-3.0825
11
5.925
21
-3.1375
0
LINE
8
BLACK
6
CONTINUOUS
10
5.925
20
-3.1375
11
5.89
21
-3.1375
0
LINE
8
BLACK
6
CONTINUOUS
10
5.89
20
-3.1375
11
5.89
21
-3.0825
0
LINE
8
BLACK
6
CONTINUOUS
10
5.89
20
-3.0825
11
5.89963
21
-3.0825
0
LINE
8
BLACK
6
CONTINUOUS
10
5.89963
20
-3.0825
11
5.89963
21
-3.03
0
LINE
8
BLACK
6
CONTINUOUS
10
5.89963
20
-3.03
11
5.87
21
-3.03
0
LINE
8
BLACK
6
CONTINUOUS
10
5.87
20
-3.03
11
5.87
21
-2.97
0
LINE
8
BLACK
6
CONTINUOUS
10
5.87
20
-2.97
11
5.93
21
-2.97
0
LINE
8
BLACK
6
CONTINUOUS
10
5.93
20
-2.97
11
5.93
21
-3.03
0
LINE
8
BLACK
6
CONTINUOUS
10
5.02051
20
-2.88368
11
5.03387
21
-2.88685
0
LINE
8
BLACK
6
CONTINUOUS
10
5.03387
20
-2.88685
11
5.04678
21
-2.89155
0
LINE
8
BLACK
6
CONTINUOUS
10
5.04678
20
-2.89155
11
5.05906
21
-2.89771
0
LINE
8
BLACK
6
CONTINUOUS
10
5.05906
20
-2.89771
11
5.07053
21
-2.90526
0
LINE
8
BLACK
6
CONTINUOUS
10
5.07053
20
-2.90526
11
5.08105
21
-2.91409
0
LINE
8
BLACK
6
CONTINUOUS
10
5.08105
20
-2.91409
11
5.09048
21
-2.92408
0
LINE
8
BLACK
6
CONTINUOUS
10
5.09048
20
-2.92408
11
5.09868
21
-2.9351
0
LINE
8
BLACK
6
CONTINUOUS
10
5.09868
20
-2.9351
11
5.10555
21
-2.94699
0
LINE
8
BLACK
6
CONTINUOUS
10
5.10555
20
-2.94699
11
5.11099
21
-2.9596
0
LINE
8
BLACK
6
CONTINUOUS
10
5.11099
20
-2.9596
11
5.11493
21
-2.97276
0
LINE
8
BLACK
6
CONTINUOUS
10
5.11493
20
-2.97276
11
5.11731
21
-2.98629
0
LINE
8
BLACK
6
CONTINUOUS
10
5.11731
20
-2.98629
11
5.11811
21
-3
0
LINE
8
BLACK
6
CONTINUOUS
10
5.11811
20
-3
11
5.11731
21
-3.01371
0
LINE
8
BLACK
6
CONTINUOUS
10
5.11731
20
-3.01371
11
5.11493
21
-3.02724
0
LINE
8
BLACK
6
CONTINUOUS
10
5.11493
20
-3.02724
11
5.11099
21
-3.0404
0
LINE
8
BLACK
6
CONTINUOUS
10
5.11099
20
-3.0404
11
5.10555
21
-3.05301
0
LINE
8
BLACK
6
CONTINUOUS
10
5.10555
20
-3.05301
11
5.09868
21
-3.0649
0
LINE
8
BLACK
6
CONTINUOUS
10
5.09868
20
-3.0649
11
5.09048
21
-3.07592
0
LINE
8
BLACK
6
CONTINUOUS
10
5.09048
20
-3.07592
11
5.08105
21
-3.08591
0
LINE
8
BLACK
6
CONTINUOUS
10
5.08105
20
-3.08591
11
5.07053
21
-3.09474
0
LINE
8
BLACK
6
CONTINUOUS
10
5.07053
20
-3.09474
11
5.05906
21
-3.10229
0
LINE
8
BLACK
6
CONTINUOUS
10
5.05906
20
-3.10229
11
5.04678
21
-3.10845
0
LINE
8
BLACK
6
CONTINUOUS
10
5.04678
20
-3.10845
11
5.03387
21
-3.11315
0
LINE
8
BLACK
6
CONTINUOUS
10
5.03387
20
-3.11315
11
5.02051
21
-3.11632
0
LINE
8
BLACK
6
CONTINUOUS
10
5.02051
20
-3.11632
11
5.00687
21
-3.11791
0
LINE
8
BLACK
6
CONTINUOUS
10
5.00687
20
-3.11791
11
4.99313
21
-3.11791
0
LINE
8
BLACK
6
CONTINUOUS
10
4.99313
20
-3.11791
11
4.97949
21
-3.11632
0
LINE
8
BLACK
6
CONTINUOUS
10
4.97949
20
-3.11632
11
4.96613
21
-3.11315
0
LINE
8
BLACK
6
CONTINUOUS
10
4.96613
20
-3.11315
11
4.95322
21
-3.10845
0
LINE
8
BLACK
6
CONTINUOUS
10
4.95322
20
-3.10845
11
4.94094
21
-3.10229
0
LINE
8
BLACK
6
CONTINUOUS
10
4.94094
20
-3.10229
11
4.92947
21
-3.09474
0
LINE
8
BLACK
6
CONTINUOUS
10
4.92947
20
-3.09474
11
4.91895
21
-3.08591
0
LINE
8
BLACK
6
CONTINUOUS
10
4.91895
20
-3.08591
11
4.90952
21
-3.07592
0
LINE
8
BLACK
6
CONTINUOUS
10
4.90952
20
-3.07592
11
4.90132
21
-3.0649
0
LINE
8
BLACK
6
CONTINUOUS
10
4.90132
20
-3.0649
11
4.89445
21
-3.05301
0
LINE
8
BLACK
6
CONTINUOUS
10
4.89445
20
-3.05301
11
4.88901
21
-3.0404
0
LINE
8
BLACK
6
CONTINUOUS
10
4.88901
20
-3.0404
11
4.88507
21
-3.02724
0
LINE
8
BLACK
6
CONTINUOUS
10
4.88507
20
-3.02724
11
4.88269
21
-3.01371
0
LINE
8
BLACK
6
CONTINUOUS
10
4.88269
20
-3.01371
11
4.88189
21
-3
0
LINE
8
BLACK
6
CONTINUOUS
10
4.88189
20
-3
11
4.88269
21
-2.98629
0
LINE
8
BLACK
6
CONTINUOUS
10
4.88269
20
-2.98629
11
4.88507
21
-2.97276
0
LINE
8
BLACK
6
CONTINUOUS
10
4.88507
20
-2.97276
11
4.88901
21
-2.9596
0
LINE
8
BLACK
6
CONTINUOUS
10
4.88901
20
-2.9596
11
4.89445
21
-2.94699
0
LINE
8
BLACK
6
CONTINUOUS
10
4.89445
20
-2.94699
11
4.90132
21
-2.9351
0
LINE
8
BLACK
6
CONTINUOUS
10
4.90132
20
-2.9351
11
4.90952
21
-2.92408
0
LINE
8
BLACK
6
CONTINUOUS
10
4.90952
20
-2.92408
11
4.91895
21
-2.91409
0
LINE
8
BLACK
6
CONTINUOUS
10
4.91895
20
-2.91409
11
4.92947
21
-2.90526
0
LINE
8
BLACK
6
CONTINUOUS
10
4.92947
20
-2.90526
11
4.94094
21
-2.89771
0
LINE
8
BLACK
6
CONTINUOUS
10
4.94094
20
-2.89771
11
4.95322
21
-2.89155
0
LINE
8
BLACK
6
CONTINUOUS
10
4.95322
20
-2.89155
11
4.96613
21
-2.88685
0
LINE
8
BLACK
6
CONTINUOUS
10
4.96613
20
-2.88685
11
4.97949
21
-2.88368
0
LINE
8
BLACK
6
CONTINUOUS
10
4.97949
20
-2.88368
11
4.99313
21
-2.88209
0
LINE
8
BLACK
6
CONTINUOUS
10
4.99313
20
-2.88209
11
5.00687
21
-2.88209
0
LINE
8
BLACK
6
CONTINUOUS
10
5.00687
20
-2.88209
11
5.02051
21
-2.88368
0
LINE
8
BLACK
6
CONTINUOUS
10
6.22051
20
-2.88368
11
6.23387
21
-2.88685
0
LINE
8
BLACK
6
CONTINUOUS
10
6.23387
20
-2.88685
11
6.24678
21
-2.89155
0
LINE
8
BLACK
6
CONTINUOUS
10
6.24678
20
-2.89155
11
6.25906
21
-2.89771
0
LINE
8
BLACK
6
CONTINUOUS
10
6.25906
20
-2.89771
11
6.27053
21
-2.90526
0
LINE
8
BLACK
6
CONTINUOUS
10
6.27053
20
-2.90526
11
6.28105
21
-2.91409
0
LINE
8
BLACK
6
CONTINUOUS
10
6.28105
20
-2.91409
11
6.29048
21
-2.92408
0
LINE
8
BLACK
6
CONTINUOUS
10
6.29048
20
-2.92408
11
6.29868
21
-2.9351
0
LINE
8
BLACK
6
CONTINUOUS
10
6.29868
20
-2.9351
11
6.30555
21
-2.94699
0
LINE
8
BLACK
6
CONTINUOUS
10
6.30555
20
-2.94699
11
6.31099
21
-2.9596
0
LINE
8
BLACK
6
CONTINUOUS
10
6.31099
20
-2.9596
11
6.31493
21
-2.97276
0
LINE
8
BLACK
6
CONTINUOUS
10
6.31493
20
-2.97276
11
6.31731
21
-2.98629
0
LINE
8
BLACK
6
CONTINUOUS
10
6.31731
20
-2.98629
11
6.31811
21
-3
0
LINE
8
BLACK
6
CONTINUOUS
10
6.31811
20
-3
11
6.31731
21
-3.01371
0
LINE
8
BLACK
6
CONTINUOUS
10
6.31731
20
-3.01371
11
6.31493
21
-3.02724
0
LINE
8
BLACK
6
CONTINUOUS
10
6.31493
20
-3.02724
11
6.31099
21
-3.0404
0
LINE
8
BLACK
6
CONTINUOUS
10
6.31099
20
-3.0404
11
6.30555
21
-3.05301
0
LINE
8
BLACK
6
CONTINUOUS
10
6.30555
20
-3.05301
11
6.29868
21
-3.0649
0
LINE
8
BLACK
6
CONTINUOUS
10
6.29868
20
-3.0649
11
6.29048
21
-3.07592
0
LINE
8
BLACK
6
CONTINUOUS
10
6.29048
20
-3.07592
11
6.28105
21
-3.08591
0
LINE
8
BLACK
6
CONTINUOUS
10
6.28105
20
-3.08591
11
6.27053
21
-3.09474
0
LINE
8
BLACK
6
CONTINUOUS
10
6.27053
20
-3.09474
11
6.25906
21
-3.10229
0
LINE
8
BLACK
6
CONTINUOUS
10
6.25906
20
-3.10229
11
6.24678
21
-3.10845
0
LINE
8
BLACK
6
CONTINUOUS
10
6.24678
20
-3.10845
11
6.23387
21
-3.11315
0
LINE
8
BLACK
6
CONTINUOUS
10
6.23387
20
-3.11315
11
6.22051
21
-3.11632
0
LINE
8
BLACK
6
CONTINUOUS
10
6.22051
20
-3.11632
11
6.20687
21
-3.11791
0
LINE
8
BLACK
6
CONTINUOUS
10
6.20687
20
-3.11791
11
6.19313
21
-3.11791
0
LINE
8
BLACK
6
CONTINUOUS
10
6.19313
20
-3.11791
11
6.17949
21
-3.11632
0
LINE
8
BLACK
6
CONTINUOUS
10
6.17949
20
-3.11632
11
6.16613
21
-3.11315
0
LINE
8
BLACK
6
CONTINUOUS
10
6.16613
20
-3.11315
11
6.15322
21
-3.10845
0
LINE
8
BLACK
6
CONTINUOUS
10
6.15322
20
-3.10845
11
6.14094
21
-3.10229
0
LINE
8
BLACK
6
CONTINUOUS
10
6.14094
20
-3.10229
11
6.12947
21
-3.09474
0
LINE
8
BLACK
6
CONTINUOUS
10
6.12947
20
-3.09474
11
6.11895
21
-3.08591
0
LINE
8
BLACK
6
CONTINUOUS
10
6.11895
20
-3.08591
11
6.10952
21
-3.07592
0
LINE
8
BLACK
6
CONTINUOUS
10
6.10952
20
-3.07592
11
6.10132
21
-3.0649
0
LINE
8
BLACK
6
CONTINUOUS
10
6.10132
20
-3.0649
11
6.09445
21
-3.05301
0
LINE
8
BLACK
6
CONTINUOUS
10
6.09445
20
-3.05301
11
6.08901
21
-3.0404
0
LINE
8
BLACK
6
CONTINUOUS
10
6.08901
20
-3.0404
11
6.08507
21
-3.02724
0
LINE
8
BLACK
6
CONTINUOUS
10
6.08507
20
-3.02724
11
6.08269
21
-3.01371
0
LINE
8
BLACK
6
CONTINUOUS
10
6.08269
20
-3.01371
11
6.08189
21
-3
0
LINE
8
BLACK
6
CONTINUOUS
10
6.08189
20
-3
11
6.08269
21
-2.98629
0
LINE
8
BLACK
6
CONTINUOUS
10
6.08269
20
-2.98629
11
6.08507
21
-2.97276
0
LINE
8
BLACK
6
CONTINUOUS
10
6.08507
20
-2.97276
11
6.08901
21
-2.9596
0
LINE
8
BLACK
6
CONTINUOUS
10
6.08901
20
-2.9596
11
6.09445
21
-2.94699
0
LINE
8
BLACK
6
CONTINUOUS
10
6.09445
20
-2.94699
11
6.10132
21
-2.9351
0
LINE
8
BLACK
6
CONTINUOUS
10
6.10132
20
-2.9351
11
6.10952
21
-2.92408
0
LINE
8
BLACK
6
CONTINUOUS
10
6.10952
20
-2.92408
11
6.11895
21
-2.91409
0
LINE
8
BLACK
6
CONTINUOUS
10
6.11895
20
-2.91409
11
6.12947
21
-2.90526
0
LINE
8
BLACK
6
CONTINUOUS
10
6.12947
20
-2.90526
11
6.14094
21
-2.89771
0
LINE
8
BLACK
6
CONTINUOUS
10
6.14094
20
-2.89771
11
6.15322
21
-2.89155
0
LINE
8
BLACK
6
CONTINUOUS
10
6.15322
20
-2.89155
11
6.16613
21
-2.88685
0
LINE
8
BLACK
6
CONTINUOUS
10
6.16613
20
-2.88685
11
6.17949
21
-2.88368
0
LINE
8
BLACK
6
CONTINUOUS
10
6.17949
20
-2.88368
11
6.19313
21
-2.88209
0
LINE
8
BLACK
6
CONTINUOUS
10
6.19313
20
-2.88209
11
6.20687
21
-2.88209
0
LINE
8
BLACK
6
CONTINUOUS
10
6.20687
20
-2.88209
11
6.22051
21
-2.88368
0
LINE
8
BLACK
6
CONTINUOUS
10
5.6475
20
-3.11
11
5.5925
21
-3.11
0
LINE
8
BLACK
6
CONTINUOUS
10
5.5925
20
-3.11
11
5.5925
21
-3.075
0
LINE
8
BLACK
6
CONTINUOUS
10
5.5925
20
-3.075
11
5.6475
21
-3.075
0
LINE
8
BLACK
6
CONTINUOUS
10
5.6475
20
-3.075
11
5.6475
21
-3.11
0
LINE
8
BLACK
6
CONTINUOUS
10
5.33
20
-3.03
11
5.27
21
-3.03
0
LINE
8
BLACK
6
CONTINUOUS
10
5.27
20
-3.03
11
5.27
21
-2.97
0
LINE
8
BLACK
6
CONTINUOUS
10
5.27
20
-2.97
11
5.33
21
-2.97
0
LINE
8
BLACK
6
CONTINUOUS
10
5.33
20
-2.97
11
5.33
21
-3.03
0
LINE
8
BLACK
6
CONTINUOUS
10
5.53
20
-3.03
11
5.47
21
-3.03
0
LINE
8
BLACK
6
CONTINUOUS
10
5.47
20
-3.03
11
5.47
21
-2.97
0
LINE
8
BLACK
6
CONTINUOUS
10
5.47
20
-2.97
11
5.53
21
-2.97
0
LINE
8
BLACK
6
CONTINUOUS
10
5.53
20
-2.97
11
5.53
21
-3.03
0
CIRCLE
8
BLACK
10
5.9
20
-3
40
0.00688976
0
CIRCLE
8
BLACK
10
5.8
20
-3
40
0.00688976
0
CIRCLE
8
BLACK
10
5.7
20
-3
40
0.00688976
0
CIRCLE
8
BLACK
10
4.95
20
-3.3
40
0.00688976
0
CIRCLE
8
BLACK
10
5.05
20
-3.3
40
0.00688976
0
CIRCLE
8
BLACK
10
4.95
20
-3.4
40
0.00688976
0
CIRCLE
8
BLACK
10
5.05
20
-3.4
40
0.00688976
0
CIRCLE
8
BLACK
10
4.95
20
-3.5
40
0.00688976
0
CIRCLE
8
BLACK
10
5.05
20
-3.5
40
0.00688976
0
CIRCLE
8
BLACK
10
5
20
-3.8
40
0.00688976
0
CIRCLE
8
BLACK
10
6.2
20
-3
40
0.00688976
0
CIRCLE
8
BLACK
10
5.5
20
-3
40
0.00688976
0
CIRCLE
8
BLACK
10
5.4
20
-3
40
0.00688976
0
CIRCLE
8
BLACK
10
5.3
20
-3
40
0.00688976
0
CIRCLE
8
BLACK
10
5.5
20
-3.8
40
0.00688976
0
CIRCLE
8
BLACK
10
5.4
20
-3.8
40
0.00688976
0
CIRCLE
8
BLACK
10
5.3
20
-3.8
40
0.00688976
0
CIRCLE
8
BLACK
10
6.2
20
-3.8
40
0.00688976
0
CIRCLE
8
BLACK
10
5.9
20
-3.75
40
0.00688976
0
CIRCLE
8
BLACK
10
5.9
20
-3.85
40
0.00688976
0
CIRCLE
8
BLACK
10
5.8
20
-3.75
40
0.00688976
0
CIRCLE
8
BLACK
10
5.8
20
-3.85
40
0.00688976
0
CIRCLE
8
BLACK
10
5.7
20
-3.75
40
0.00688976
0
CIRCLE
8
BLACK
10
5.7
20
-3.85
40
0.00688976
0
CIRCLE
8
BLACK
10
5
20
-3
40
0.00688976
0
CIRCLE
8
BLACK
10
6.15
20
-3.3
40
0.00688976
0
CIRCLE
8
BLACK
10
6.25
20
-3.3
40
0.00688976
0
CIRCLE
8
BLACK
10
6.15
20
-3.4
40
0.00688976
0
CIRCLE
8
BLACK
10
6.25
20
-3.4
40
0.00688976
0
CIRCLE
8
BLACK
10
6.15
20
-3.5
40
0.00688976
0
CIRCLE
8
BLACK
10
6.25
20
-3.5
40
0.00688976
0
CIRCLE
8
BLACK
10
5.6
20
-3.22
40
0.00787402
0
CIRCLE
8
BLACK
10
5.56017
20
-3.19983
40
0.00787402
  0
ENDSEC
  0
EOF
