  0
SECTION
  2
HEADER
  9
$ANGBASE
  50
0.0
  9
$ANGDIR
  70
1
  9
$MEASUREMENT
  70
0
  0
ENDSEC
  0
SECTION
  2
TABLES
  0
TABLE
  2
LTYPE
  70
4
  0
LTYPE
  5
40F
  2
CONTINUOUS
  70
0
  3
Solid line
  72
65
  73
0
  40
0.0
  0
LTYPE
  5
410
  2
DASHDOT
 70
0
  3
Dash Dot ____ _ ____ _
 72
65
 73
4
 40
2.0
 49
1.25
 49
-0.25
 49
0.25
 49
-0.25
  0
LTYPE
  5
411
  2
DASHED
 70
0
  3
Dashed __ __ __ __ __
 72
65
 73
2
 40
0.75
 49
0.5
 49
-0.25
  0
LTYPE
  5
43B
  2
DOTTED
 70
0
  3
Dotted .  .  .  .
 72
65
 73
2
 40
0.2
 49
0.0
 49
-0.2
  0
ENDTAB
  0
TABLE
  2
STYLE
  70
4
  0
STYLE
  2
KICAD
  70
0
  40
0
  41
1
  42
1
  50
0
  71
0
  3
isocp.shx
  0
STYLE
  2
KICADB
  70
0
  40
0
  41
1
  42
1
  50
0
  71
0
  3
isocp.shx
  0
STYLE
  2
KICADI
  70
0
  40
0
  41
1
  42
1
  50
15
  71
0
  3
isocp.shx
  0
STYLE
  2
KICADBI
  70
0
  40
0
  41
1
  42
1
  50
15
  71
0
  3
isocp.shx
  0
ENDTAB
  0
TABLE
  2
LAYER
  70
1
  0
LAYER
  2
BLACK
  70
0
  62
7
  6
CONTINUOUS
  0
ENDTAB
  0
ENDSEC
  0
SECTION
  2
ENTITIES
0
LINE
8
BLACK
6
CONTINUOUS
10
5.57472
20
-3.46633
11
5.57489
21
-3.46631
0
LINE
8
BLACK
6
CONTINUOUS
10
5.57489
20
-3.46631
11
5.57558
21
-3.46682
0
LINE
8
BLACK
6
CONTINUOUS
10
5.57558
20
-3.46682
11
5.57633
21
-3.46725
0
LINE
8
BLACK
6
CONTINUOUS
10
5.57633
20
-3.46725
11
5.57638
21
-3.46741
0
LINE
8
BLACK
6
CONTINUOUS
10
5.57638
20
-3.46741
11
5.57652
21
-3.46751
0
LINE
8
BLACK
6
CONTINUOUS
10
5.57652
20
-3.46751
11
5.58011
21
-3.47289
0
LINE
8
BLACK
6
CONTINUOUS
10
5.58011
20
-3.47289
11
5.58331
21
-3.4761
0
LINE
8
BLACK
6
CONTINUOUS
10
5.58331
20
-3.4761
11
5.58663
21
-3.47776
0
LINE
8
BLACK
6
CONTINUOUS
10
5.58663
20
-3.47776
11
5.58746
21
-3.47837
0
LINE
8
BLACK
6
CONTINUOUS
10
5.58746
20
-3.47837
11
5.58826
21
-3.48022
0
LINE
8
BLACK
6
CONTINUOUS
10
5.58826
20
-3.48022
11
5.58768
21
-3.48216
0
LINE
8
BLACK
6
CONTINUOUS
10
5.58768
20
-3.48216
11
5.586
21
-3.48327
0
LINE
8
BLACK
6
CONTINUOUS
10
5.586
20
-3.48327
11
5.58399
21
-3.48304
0
LINE
8
BLACK
6
CONTINUOUS
10
5.58399
20
-3.48304
11
5.58024
21
-3.48116
0
LINE
8
BLACK
6
CONTINUOUS
10
5.58024
20
-3.48116
11
5.57953
21
-3.48064
0
LINE
8
BLACK
6
CONTINUOUS
10
5.57953
20
-3.48064
11
5.57948
21
-3.48061
0
LINE
8
BLACK
6
CONTINUOUS
10
5.57948
20
-3.48061
11
5.57702
21
-3.47815
0
LINE
8
BLACK
6
CONTINUOUS
10
5.57702
20
-3.47815
11
5.57702
21
-3.50557
0
LINE
8
BLACK
6
CONTINUOUS
10
5.57702
20
-3.50557
11
5.58531
21
-3.50557
0
LINE
8
BLACK
6
CONTINUOUS
10
5.58531
20
-3.50557
11
5.58632
21
-3.50574
0
LINE
8
BLACK
6
CONTINUOUS
10
5.58632
20
-3.50574
11
5.58787
21
-3.50704
0
LINE
8
BLACK
6
CONTINUOUS
10
5.58787
20
-3.50704
11
5.58822
21
-3.50903
0
LINE
8
BLACK
6
CONTINUOUS
10
5.58822
20
-3.50903
11
5.58721
21
-3.51078
0
LINE
8
BLACK
6
CONTINUOUS
10
5.58721
20
-3.51078
11
5.58531
21
-3.51147
0
LINE
8
BLACK
6
CONTINUOUS
10
5.58531
20
-3.51147
11
5.56282
21
-3.51147
0
LINE
8
BLACK
6
CONTINUOUS
10
5.56282
20
-3.51147
11
5.56181
21
-3.51129
0
LINE
8
BLACK
6
CONTINUOUS
10
5.56181
20
-3.51129
11
5.56026
21
-3.51
0
LINE
8
BLACK
6
CONTINUOUS
10
5.56026
20
-3.51
11
5.55991
21
-3.50801
0
LINE
8
BLACK
6
CONTINUOUS
10
5.55991
20
-3.50801
11
5.56092
21
-3.50626
0
LINE
8
BLACK
6
CONTINUOUS
10
5.56092
20
-3.50626
11
5.56282
21
-3.50557
0
LINE
8
BLACK
6
CONTINUOUS
10
5.56282
20
-3.50557
11
5.57111
21
-3.50557
0
LINE
8
BLACK
6
CONTINUOUS
10
5.57111
20
-3.50557
11
5.57111
21
-3.46915
0
LINE
8
BLACK
6
CONTINUOUS
10
5.57111
20
-3.46915
11
5.57129
21
-3.46814
0
LINE
8
BLACK
6
CONTINUOUS
10
5.57129
20
-3.46814
11
5.5714
21
-3.46801
0
LINE
8
BLACK
6
CONTINUOUS
10
5.5714
20
-3.46801
11
5.57142
21
-3.46784
0
LINE
8
BLACK
6
CONTINUOUS
10
5.57142
20
-3.46784
11
5.57204
21
-3.46725
0
LINE
8
BLACK
6
CONTINUOUS
10
5.57204
20
-3.46725
11
5.57259
21
-3.46659
0
LINE
8
BLACK
6
CONTINUOUS
10
5.57259
20
-3.46659
11
5.57276
21
-3.46656
0
LINE
8
BLACK
6
CONTINUOUS
10
5.57276
20
-3.46656
11
5.57288
21
-3.46644
0
LINE
8
BLACK
6
CONTINUOUS
10
5.57288
20
-3.46644
11
5.57373
21
-3.46639
0
LINE
8
BLACK
6
CONTINUOUS
10
5.57373
20
-3.46639
11
5.57458
21
-3.46624
0
LINE
8
BLACK
6
CONTINUOUS
10
5.57458
20
-3.46624
11
5.57472
21
-3.46633
0
LINE
8
BLACK
6
CONTINUOUS
10
5.61757
20
-3.46725
11
5.61826
21
-3.46915
0
LINE
8
BLACK
6
CONTINUOUS
10
5.61826
20
-3.46915
11
5.61826
21
-3.50852
0
LINE
8
BLACK
6
CONTINUOUS
10
5.61826
20
-3.50852
11
5.61819
21
-3.5089
0
LINE
8
BLACK
6
CONTINUOUS
10
5.61819
20
-3.5089
11
5.61822
21
-3.50903
0
LINE
8
BLACK
6
CONTINUOUS
10
5.61822
20
-3.50903
11
5.61815
21
-3.50915
0
LINE
8
BLACK
6
CONTINUOUS
10
5.61815
20
-3.50915
11
5.61808
21
-3.50953
0
LINE
8
BLACK
6
CONTINUOUS
10
5.61808
20
-3.50953
11
5.61759
21
-3.51012
0
LINE
8
BLACK
6
CONTINUOUS
10
5.61759
20
-3.51012
11
5.61721
21
-3.51078
0
LINE
8
BLACK
6
CONTINUOUS
10
5.61721
20
-3.51078
11
5.61696
21
-3.51087
0
LINE
8
BLACK
6
CONTINUOUS
10
5.61696
20
-3.51087
11
5.61679
21
-3.51108
0
LINE
8
BLACK
6
CONTINUOUS
10
5.61679
20
-3.51108
11
5.61603
21
-3.51121
0
LINE
8
BLACK
6
CONTINUOUS
10
5.61603
20
-3.51121
11
5.61531
21
-3.51147
0
LINE
8
BLACK
6
CONTINUOUS
10
5.61531
20
-3.51147
11
5.59656
21
-3.51147
0
LINE
8
BLACK
6
CONTINUOUS
10
5.59656
20
-3.51147
11
5.59555
21
-3.51129
0
LINE
8
BLACK
6
CONTINUOUS
10
5.59555
20
-3.51129
11
5.594
21
-3.51
0
LINE
8
BLACK
6
CONTINUOUS
10
5.594
20
-3.51
11
5.59365
21
-3.50801
0
LINE
8
BLACK
6
CONTINUOUS
10
5.59365
20
-3.50801
11
5.59466
21
-3.50626
0
LINE
8
BLACK
6
CONTINUOUS
10
5.59466
20
-3.50626
11
5.59656
21
-3.50557
0
LINE
8
BLACK
6
CONTINUOUS
10
5.59656
20
-3.50557
11
5.61236
21
-3.50557
0
LINE
8
BLACK
6
CONTINUOUS
10
5.61236
20
-3.50557
11
5.61236
21
-3.46915
0
LINE
8
BLACK
6
CONTINUOUS
10
5.61236
20
-3.46915
11
5.61253
21
-3.46814
0
LINE
8
BLACK
6
CONTINUOUS
10
5.61253
20
-3.46814
11
5.61383
21
-3.46659
0
LINE
8
BLACK
6
CONTINUOUS
10
5.61383
20
-3.46659
11
5.61582
21
-3.46624
0
LINE
8
BLACK
6
CONTINUOUS
10
5.61582
20
-3.46624
11
5.61757
21
-3.46725
0
LINE
8
BLACK
6
CONTINUOUS
10
5.60196
20
-3.45203
11
5.60265
21
-3.4537
0
LINE
8
BLACK
6
CONTINUOUS
10
5.60265
20
-3.4537
11
5.60196
21
-3.45537
0
LINE
8
BLACK
6
CONTINUOUS
10
5.60196
20
-3.45537
11
5.60029
21
-3.45606
0
LINE
8
BLACK
6
CONTINUOUS
10
5.60029
20
-3.45606
11
5.57971
21
-3.45606
0
LINE
8
BLACK
6
CONTINUOUS
10
5.57971
20
-3.45606
11
5.57804
21
-3.45537
0
LINE
8
BLACK
6
CONTINUOUS
10
5.57804
20
-3.45537
11
5.57735
21
-3.4537
0
LINE
8
BLACK
6
CONTINUOUS
10
5.57735
20
-3.4537
11
5.57804
21
-3.45203
0
LINE
8
BLACK
6
CONTINUOUS
10
5.57804
20
-3.45203
11
5.57971
21
-3.45134
0
LINE
8
BLACK
6
CONTINUOUS
10
5.57971
20
-3.45134
11
5.60029
21
-3.45134
0
LINE
8
BLACK
6
CONTINUOUS
10
5.60029
20
-3.45134
11
5.60196
21
-3.45203
0
LINE
8
BLACK
6
CONTINUOUS
10
5.60196
20
-3.36463
11
5.60265
21
-3.3663
0
LINE
8
BLACK
6
CONTINUOUS
10
5.60265
20
-3.3663
11
5.60196
21
-3.36797
0
LINE
8
BLACK
6
CONTINUOUS
10
5.60196
20
-3.36797
11
5.60029
21
-3.36866
0
LINE
8
BLACK
6
CONTINUOUS
10
5.60029
20
-3.36866
11
5.57971
21
-3.36866
0
LINE
8
BLACK
6
CONTINUOUS
10
5.57971
20
-3.36866
11
5.57804
21
-3.36797
0
LINE
8
BLACK
6
CONTINUOUS
10
5.57804
20
-3.36797
11
5.57735
21
-3.3663
0
LINE
8
BLACK
6
CONTINUOUS
10
5.57735
20
-3.3663
11
5.57804
21
-3.36463
0
LINE
8
BLACK
6
CONTINUOUS
10
5.57804
20
-3.36463
11
5.57971
21
-3.36394
0
LINE
8
BLACK
6
CONTINUOUS
10
5.57971
20
-3.36394
11
5.60029
21
-3.36394
0
LINE
8
BLACK
6
CONTINUOUS
10
5.60029
20
-3.36394
11
5.60196
21
-3.36463
0
LINE
8
BLACK
6
CONTINUOUS
10
5.72101
20
-3.34723
11
5.72256
21
-3.34852
0
LINE
8
BLACK
6
CONTINUOUS
10
5.72256
20
-3.34852
11
5.72291
21
-3.35051
0
LINE
8
BLACK
6
CONTINUOUS
10
5.72291
20
-3.35051
11
5.7219
21
-3.35226
0
LINE
8
BLACK
6
CONTINUOUS
10
5.7219
20
-3.35226
11
5.72
21
-3.35295
0
LINE
8
BLACK
6
CONTINUOUS
10
5.72
20
-3.35295
11
5.66
21
-3.35295
0
LINE
8
BLACK
6
CONTINUOUS
10
5.66
20
-3.35295
11
5.65899
21
-3.35277
0
LINE
8
BLACK
6
CONTINUOUS
10
5.65899
20
-3.35277
11
5.65744
21
-3.35148
0
LINE
8
BLACK
6
CONTINUOUS
10
5.65744
20
-3.35148
11
5.65709
21
-3.34949
0
LINE
8
BLACK
6
CONTINUOUS
10
5.65709
20
-3.34949
11
5.6581
21
-3.34774
0
LINE
8
BLACK
6
CONTINUOUS
10
5.6581
20
-3.34774
11
5.66
21
-3.34705
0
LINE
8
BLACK
6
CONTINUOUS
10
5.66
20
-3.34705
11
5.72
21
-3.34705
0
LINE
8
BLACK
6
CONTINUOUS
10
5.72
20
-3.34705
11
5.72101
21
-3.34723
0
LINE
8
BLACK
6
CONTINUOUS
10
5.52101
20
-3.34723
11
5.52256
21
-3.34852
0
LINE
8
BLACK
6
CONTINUOUS
10
5.52256
20
-3.34852
11
5.52291
21
-3.35051
0
LINE
8
BLACK
6
CONTINUOUS
10
5.52291
20
-3.35051
11
5.5219
21
-3.35226
0
LINE
8
BLACK
6
CONTINUOUS
10
5.5219
20
-3.35226
11
5.52
21
-3.35295
0
LINE
8
BLACK
6
CONTINUOUS
10
5.52
20
-3.35295
11
5.46
21
-3.35295
0
LINE
8
BLACK
6
CONTINUOUS
10
5.46
20
-3.35295
11
5.45899
21
-3.35277
0
LINE
8
BLACK
6
CONTINUOUS
10
5.45899
20
-3.35277
11
5.45744
21
-3.35148
0
LINE
8
BLACK
6
CONTINUOUS
10
5.45744
20
-3.35148
11
5.45709
21
-3.34949
0
LINE
8
BLACK
6
CONTINUOUS
10
5.45709
20
-3.34949
11
5.4581
21
-3.34774
0
LINE
8
BLACK
6
CONTINUOUS
10
5.4581
20
-3.34774
11
5.46
21
-3.34705
0
LINE
8
BLACK
6
CONTINUOUS
10
5.46
20
-3.34705
11
5.52
21
-3.34705
0
LINE
8
BLACK
6
CONTINUOUS
10
5.52
20
-3.34705
11
5.52101
21
-3.34723
0
LINE
8
BLACK
6
CONTINUOUS
10
5.80101
20
-3.34723
11
5.80256
21
-3.34852
0
LINE
8
BLACK
6
CONTINUOUS
10
5.80256
20
-3.34852
11
5.80291
21
-3.35051
0
LINE
8
BLACK
6
CONTINUOUS
10
5.80291
20
-3.35051
11
5.8019
21
-3.35226
0
LINE
8
BLACK
6
CONTINUOUS
10
5.8019
20
-3.35226
11
5.8
21
-3.35295
0
LINE
8
BLACK
6
CONTINUOUS
10
5.8
20
-3.35295
11
5.74
21
-3.35295
0
LINE
8
BLACK
6
CONTINUOUS
10
5.74
20
-3.35295
11
5.73899
21
-3.35277
0
LINE
8
BLACK
6
CONTINUOUS
10
5.73899
20
-3.35277
11
5.73744
21
-3.35148
0
LINE
8
BLACK
6
CONTINUOUS
10
5.73744
20
-3.35148
11
5.73709
21
-3.34949
0
LINE
8
BLACK
6
CONTINUOUS
10
5.73709
20
-3.34949
11
5.7381
21
-3.34774
0
LINE
8
BLACK
6
CONTINUOUS
10
5.7381
20
-3.34774
11
5.74
21
-3.34705
0
LINE
8
BLACK
6
CONTINUOUS
10
5.74
20
-3.34705
11
5.8
21
-3.34705
0
LINE
8
BLACK
6
CONTINUOUS
10
5.8
20
-3.34705
11
5.80101
21
-3.34723
0
LINE
8
BLACK
6
CONTINUOUS
10
5.63846
20
-3.32131
11
5.63921
21
-3.32362
0
LINE
8
BLACK
6
CONTINUOUS
10
5.63921
20
-3.32362
11
5.63921
21
-3.34232
0
LINE
8
BLACK
6
CONTINUOUS
10
5.63921
20
-3.34232
11
5.63846
21
-3.34464
0
LINE
8
BLACK
6
CONTINUOUS
10
5.63846
20
-3.34464
11
5.63649
21
-3.34607
0
LINE
8
BLACK
6
CONTINUOUS
10
5.63649
20
-3.34607
11
5.63406
21
-3.34607
0
LINE
8
BLACK
6
CONTINUOUS
10
5.63406
20
-3.34607
11
5.63209
21
-3.34464
0
LINE
8
BLACK
6
CONTINUOUS
10
5.63209
20
-3.34464
11
5.63134
21
-3.34232
0
LINE
8
BLACK
6
CONTINUOUS
10
5.63134
20
-3.34232
11
5.63134
21
-3.32362
0
LINE
8
BLACK
6
CONTINUOUS
10
5.63134
20
-3.32362
11
5.63209
21
-3.32131
0
LINE
8
BLACK
6
CONTINUOUS
10
5.63209
20
-3.32131
11
5.63406
21
-3.31988
0
LINE
8
BLACK
6
CONTINUOUS
10
5.63406
20
-3.31988
11
5.63649
21
-3.31988
0
LINE
8
BLACK
6
CONTINUOUS
10
5.63649
20
-3.31988
11
5.63846
21
-3.32131
0
LINE
8
BLACK
6
CONTINUOUS
10
5.63193
20
-3.28641
11
5.63256
21
-3.28641
0
LINE
8
BLACK
6
CONTINUOUS
10
5.63256
20
-3.28641
11
5.63306
21
-3.28678
0
LINE
8
BLACK
6
CONTINUOUS
10
5.63306
20
-3.28678
11
5.63365
21
-3.28697
0
LINE
8
BLACK
6
CONTINUOUS
10
5.63365
20
-3.28697
11
5.63402
21
-3.28748
0
LINE
8
BLACK
6
CONTINUOUS
10
5.63402
20
-3.28748
11
5.63452
21
-3.28784
0
LINE
8
BLACK
6
CONTINUOUS
10
5.63452
20
-3.28784
11
5.63472
21
-3.28844
0
LINE
8
BLACK
6
CONTINUOUS
10
5.63472
20
-3.28844
11
5.63508
21
-3.28894
0
LINE
8
BLACK
6
CONTINUOUS
10
5.63508
20
-3.28894
11
5.63508
21
-3.28956
0
LINE
8
BLACK
6
CONTINUOUS
10
5.63508
20
-3.28956
11
5.63528
21
-3.29016
0
LINE
8
BLACK
6
CONTINUOUS
10
5.63528
20
-3.29016
11
5.63528
21
-3.30984
0
LINE
8
BLACK
6
CONTINUOUS
10
5.63528
20
-3.30984
11
5.63508
21
-3.31044
0
LINE
8
BLACK
6
CONTINUOUS
10
5.63508
20
-3.31044
11
5.63508
21
-3.31106
0
LINE
8
BLACK
6
CONTINUOUS
10
5.63508
20
-3.31106
11
5.63472
21
-3.31156
0
LINE
8
BLACK
6
CONTINUOUS
10
5.63472
20
-3.31156
11
5.63452
21
-3.31216
0
LINE
8
BLACK
6
CONTINUOUS
10
5.63452
20
-3.31216
11
5.63402
21
-3.31252
0
LINE
8
BLACK
6
CONTINUOUS
10
5.63402
20
-3.31252
11
5.63365
21
-3.31303
0
LINE
8
BLACK
6
CONTINUOUS
10
5.63365
20
-3.31303
11
5.63306
21
-3.31322
0
LINE
8
BLACK
6
CONTINUOUS
10
5.63306
20
-3.31322
11
5.63256
21
-3.31359
0
LINE
8
BLACK
6
CONTINUOUS
10
5.63256
20
-3.31359
11
5.63193
21
-3.31359
0
LINE
8
BLACK
6
CONTINUOUS
10
5.63193
20
-3.31359
11
5.63134
21
-3.31378
0
LINE
8
BLACK
6
CONTINUOUS
10
5.63134
20
-3.31378
11
5.54866
21
-3.31378
0
LINE
8
BLACK
6
CONTINUOUS
10
5.54866
20
-3.31378
11
5.54807
21
-3.31359
0
LINE
8
BLACK
6
CONTINUOUS
10
5.54807
20
-3.31359
11
5.54744
21
-3.31359
0
LINE
8
BLACK
6
CONTINUOUS
10
5.54744
20
-3.31359
11
5.54694
21
-3.31322
0
LINE
8
BLACK
6
CONTINUOUS
10
5.54694
20
-3.31322
11
5.54635
21
-3.31303
0
LINE
8
BLACK
6
CONTINUOUS
10
5.54635
20
-3.31303
11
5.54598
21
-3.31252
0
LINE
8
BLACK
6
CONTINUOUS
10
5.54598
20
-3.31252
11
5.54548
21
-3.31216
0
LINE
8
BLACK
6
CONTINUOUS
10
5.54548
20
-3.31216
11
5.54528
21
-3.31156
0
LINE
8
BLACK
6
CONTINUOUS
10
5.54528
20
-3.31156
11
5.54492
21
-3.31106
0
LINE
8
BLACK
6
CONTINUOUS
10
5.54492
20
-3.31106
11
5.54492
21
-3.31044
0
LINE
8
BLACK
6
CONTINUOUS
10
5.54492
20
-3.31044
11
5.54472
21
-3.30984
0
LINE
8
BLACK
6
CONTINUOUS
10
5.54472
20
-3.30984
11
5.54472
21
-3.29016
0
LINE
8
BLACK
6
CONTINUOUS
10
5.54472
20
-3.29016
11
5.54492
21
-3.28956
0
LINE
8
BLACK
6
CONTINUOUS
10
5.54492
20
-3.28956
11
5.54492
21
-3.28894
0
LINE
8
BLACK
6
CONTINUOUS
10
5.54492
20
-3.28894
11
5.54528
21
-3.28844
0
LINE
8
BLACK
6
CONTINUOUS
10
5.54528
20
-3.28844
11
5.54548
21
-3.28784
0
LINE
8
BLACK
6
CONTINUOUS
10
5.54548
20
-3.28784
11
5.54598
21
-3.28748
0
LINE
8
BLACK
6
CONTINUOUS
10
5.54598
20
-3.28748
11
5.54635
21
-3.28697
0
LINE
8
BLACK
6
CONTINUOUS
10
5.54635
20
-3.28697
11
5.54694
21
-3.28678
0
LINE
8
BLACK
6
CONTINUOUS
10
5.54694
20
-3.28678
11
5.54744
21
-3.28641
0
LINE
8
BLACK
6
CONTINUOUS
10
5.54744
20
-3.28641
11
5.54807
21
-3.28641
0
LINE
8
BLACK
6
CONTINUOUS
10
5.54807
20
-3.28641
11
5.54866
21
-3.28622
0
LINE
8
BLACK
6
CONTINUOUS
10
5.54866
20
-3.28622
11
5.63134
21
-3.28622
0
LINE
8
BLACK
6
CONTINUOUS
10
5.63134
20
-3.28622
11
5.63193
21
-3.28641
0
LINE
8
BLACK
6
CONTINUOUS
10
5.5526
20
-3.29409
11
5.5526
21
-3.30591
0
LINE
8
BLACK
6
CONTINUOUS
10
5.5526
20
-3.30591
11
5.6274
21
-3.30591
0
LINE
8
BLACK
6
CONTINUOUS
10
5.6274
20
-3.30591
11
5.6274
21
-3.29409
0
LINE
8
BLACK
6
CONTINUOUS
10
5.6274
20
-3.29409
11
5.5526
21
-3.29409
0
LINE
8
BLACK
6
CONTINUOUS
10
5.80167
20
-3.27333
11
5.80236
21
-3.275
0
LINE
8
BLACK
6
CONTINUOUS
10
5.80236
20
-3.275
11
5.80236
21
-3.305
0
LINE
8
BLACK
6
CONTINUOUS
10
5.80236
20
-3.305
11
5.80167
21
-3.30667
0
LINE
8
BLACK
6
CONTINUOUS
10
5.80167
20
-3.30667
11
5.8
21
-3.30736
0
LINE
8
BLACK
6
CONTINUOUS
10
5.8
20
-3.30736
11
5.79833
21
-3.30667
0
LINE
8
BLACK
6
CONTINUOUS
10
5.79833
20
-3.30667
11
5.79764
21
-3.305
0
LINE
8
BLACK
6
CONTINUOUS
10
5.79764
20
-3.305
11
5.79764
21
-3.275
0
LINE
8
BLACK
6
CONTINUOUS
10
5.79764
20
-3.275
11
5.79833
21
-3.27333
0
LINE
8
BLACK
6
CONTINUOUS
10
5.79833
20
-3.27333
11
5.8
21
-3.27264
0
LINE
8
BLACK
6
CONTINUOUS
10
5.8
20
-3.27264
11
5.80167
21
-3.27333
0
LINE
8
BLACK
6
CONTINUOUS
10
5.52167
20
-3.27333
11
5.52236
21
-3.275
0
LINE
8
BLACK
6
CONTINUOUS
10
5.52236
20
-3.275
11
5.52236
21
-3.305
0
LINE
8
BLACK
6
CONTINUOUS
10
5.52236
20
-3.305
11
5.52167
21
-3.30667
0
LINE
8
BLACK
6
CONTINUOUS
10
5.52167
20
-3.30667
11
5.52
21
-3.30736
0
LINE
8
BLACK
6
CONTINUOUS
10
5.52
20
-3.30736
11
5.51833
21
-3.30667
0
LINE
8
BLACK
6
CONTINUOUS
10
5.51833
20
-3.30667
11
5.51764
21
-3.305
0
LINE
8
BLACK
6
CONTINUOUS
10
5.51764
20
-3.305
11
5.51764
21
-3.275
0
LINE
8
BLACK
6
CONTINUOUS
10
5.51764
20
-3.275
11
5.51833
21
-3.27333
0
LINE
8
BLACK
6
CONTINUOUS
10
5.51833
20
-3.27333
11
5.52
21
-3.27264
0
LINE
8
BLACK
6
CONTINUOUS
10
5.52
20
-3.27264
11
5.52167
21
-3.27333
0
LINE
8
BLACK
6
CONTINUOUS
10
5.74167
20
-3.27333
11
5.74236
21
-3.275
0
LINE
8
BLACK
6
CONTINUOUS
10
5.74236
20
-3.275
11
5.74236
21
-3.305
0
LINE
8
BLACK
6
CONTINUOUS
10
5.74236
20
-3.305
11
5.74167
21
-3.30667
0
LINE
8
BLACK
6
CONTINUOUS
10
5.74167
20
-3.30667
11
5.74
21
-3.30736
0
LINE
8
BLACK
6
CONTINUOUS
10
5.74
20
-3.30736
11
5.73833
21
-3.30667
0
LINE
8
BLACK
6
CONTINUOUS
10
5.73833
20
-3.30667
11
5.73764
21
-3.305
0
LINE
8
BLACK
6
CONTINUOUS
10
5.73764
20
-3.305
11
5.73764
21
-3.275
0
LINE
8
BLACK
6
CONTINUOUS
10
5.73764
20
-3.275
11
5.73833
21
-3.27333
0
LINE
8
BLACK
6
CONTINUOUS
10
5.73833
20
-3.27333
11
5.74
21
-3.27264
0
LINE
8
BLACK
6
CONTINUOUS
10
5.74
20
-3.27264
11
5.74167
21
-3.27333
0
LINE
8
BLACK
6
CONTINUOUS
10
5.46167
20
-3.27333
11
5.46236
21
-3.275
0
LINE
8
BLACK
6
CONTINUOUS
10
5.46236
20
-3.275
11
5.46236
21
-3.305
0
LINE
8
BLACK
6
CONTINUOUS
10
5.46236
20
-3.305
11
5.46167
21
-3.30667
0
LINE
8
BLACK
6
CONTINUOUS
10
5.46167
20
-3.30667
11
5.46
21
-3.30736
0
LINE
8
BLACK
6
CONTINUOUS
10
5.46
20
-3.30736
11
5.45833
21
-3.30667
0
LINE
8
BLACK
6
CONTINUOUS
10
5.45833
20
-3.30667
11
5.45764
21
-3.305
0
LINE
8
BLACK
6
CONTINUOUS
10
5.45764
20
-3.305
11
5.45764
21
-3.275
0
LINE
8
BLACK
6
CONTINUOUS
10
5.45764
20
-3.275
11
5.45833
21
-3.27333
0
LINE
8
BLACK
6
CONTINUOUS
10
5.45833
20
-3.27333
11
5.46
21
-3.27264
0
LINE
8
BLACK
6
CONTINUOUS
10
5.46
20
-3.27264
11
5.46167
21
-3.27333
0
LINE
8
BLACK
6
CONTINUOUS
10
5.66167
20
-3.27333
11
5.66236
21
-3.275
0
LINE
8
BLACK
6
CONTINUOUS
10
5.66236
20
-3.275
11
5.66236
21
-3.305
0
LINE
8
BLACK
6
CONTINUOUS
10
5.66236
20
-3.305
11
5.66167
21
-3.30667
0
LINE
8
BLACK
6
CONTINUOUS
10
5.66167
20
-3.30667
11
5.66
21
-3.30736
0
LINE
8
BLACK
6
CONTINUOUS
10
5.66
20
-3.30736
11
5.65833
21
-3.30667
0
LINE
8
BLACK
6
CONTINUOUS
10
5.65833
20
-3.30667
11
5.65764
21
-3.305
0
LINE
8
BLACK
6
CONTINUOUS
10
5.65764
20
-3.305
11
5.65764
21
-3.275
0
LINE
8
BLACK
6
CONTINUOUS
10
5.65764
20
-3.275
11
5.65833
21
-3.27333
0
LINE
8
BLACK
6
CONTINUOUS
10
5.65833
20
-3.27333
11
5.66
21
-3.27264
0
LINE
8
BLACK
6
CONTINUOUS
10
5.66
20
-3.27264
11
5.66167
21
-3.27333
0
LINE
8
BLACK
6
CONTINUOUS
10
5.72167
20
-3.27333
11
5.72236
21
-3.275
0
LINE
8
BLACK
6
CONTINUOUS
10
5.72236
20
-3.275
11
5.72236
21
-3.305
0
LINE
8
BLACK
6
CONTINUOUS
10
5.72236
20
-3.305
11
5.72167
21
-3.30667
0
LINE
8
BLACK
6
CONTINUOUS
10
5.72167
20
-3.30667
11
5.72
21
-3.30736
0
LINE
8
BLACK
6
CONTINUOUS
10
5.72
20
-3.30736
11
5.71833
21
-3.30667
0
LINE
8
BLACK
6
CONTINUOUS
10
5.71833
20
-3.30667
11
5.71764
21
-3.305
0
LINE
8
BLACK
6
CONTINUOUS
10
5.71764
20
-3.305
11
5.71764
21
-3.275
0
LINE
8
BLACK
6
CONTINUOUS
10
5.71764
20
-3.275
11
5.71833
21
-3.27333
0
LINE
8
BLACK
6
CONTINUOUS
10
5.71833
20
-3.27333
11
5.72
21
-3.27264
0
LINE
8
BLACK
6
CONTINUOUS
10
5.72
20
-3.27264
11
5.72167
21
-3.27333
0
LINE
8
BLACK
6
CONTINUOUS
10
5.80101
20
-3.22723
11
5.80256
21
-3.22852
0
LINE
8
BLACK
6
CONTINUOUS
10
5.80256
20
-3.22852
11
5.80291
21
-3.23051
0
LINE
8
BLACK
6
CONTINUOUS
10
5.80291
20
-3.23051
11
5.8019
21
-3.23226
0
LINE
8
BLACK
6
CONTINUOUS
10
5.8019
20
-3.23226
11
5.8
21
-3.23295
0
LINE
8
BLACK
6
CONTINUOUS
10
5.8
20
-3.23295
11
5.74
21
-3.23295
0
LINE
8
BLACK
6
CONTINUOUS
10
5.74
20
-3.23295
11
5.73899
21
-3.23277
0
LINE
8
BLACK
6
CONTINUOUS
10
5.73899
20
-3.23277
11
5.73744
21
-3.23148
0
LINE
8
BLACK
6
CONTINUOUS
10
5.73744
20
-3.23148
11
5.73709
21
-3.22949
0
LINE
8
BLACK
6
CONTINUOUS
10
5.73709
20
-3.22949
11
5.7381
21
-3.22774
0
LINE
8
BLACK
6
CONTINUOUS
10
5.7381
20
-3.22774
11
5.74
21
-3.22705
0
LINE
8
BLACK
6
CONTINUOUS
10
5.74
20
-3.22705
11
5.8
21
-3.22705
0
LINE
8
BLACK
6
CONTINUOUS
10
5.8
20
-3.22705
11
5.80101
21
-3.22723
0
LINE
8
BLACK
6
CONTINUOUS
10
5.72101
20
-3.22723
11
5.72256
21
-3.22852
0
LINE
8
BLACK
6
CONTINUOUS
10
5.72256
20
-3.22852
11
5.72291
21
-3.23051
0
LINE
8
BLACK
6
CONTINUOUS
10
5.72291
20
-3.23051
11
5.7219
21
-3.23226
0
LINE
8
BLACK
6
CONTINUOUS
10
5.7219
20
-3.23226
11
5.72
21
-3.23295
0
LINE
8
BLACK
6
CONTINUOUS
10
5.72
20
-3.23295
11
5.66
21
-3.23295
0
LINE
8
BLACK
6
CONTINUOUS
10
5.66
20
-3.23295
11
5.65899
21
-3.23277
0
LINE
8
BLACK
6
CONTINUOUS
10
5.65899
20
-3.23277
11
5.65744
21
-3.23148
0
LINE
8
BLACK
6
CONTINUOUS
10
5.65744
20
-3.23148
11
5.65709
21
-3.22949
0
LINE
8
BLACK
6
CONTINUOUS
10
5.65709
20
-3.22949
11
5.6581
21
-3.22774
0
LINE
8
BLACK
6
CONTINUOUS
10
5.6581
20
-3.22774
11
5.66
21
-3.22705
0
LINE
8
BLACK
6
CONTINUOUS
10
5.66
20
-3.22705
11
5.72
21
-3.22705
0
LINE
8
BLACK
6
CONTINUOUS
10
5.72
20
-3.22705
11
5.72101
21
-3.22723
0
LINE
8
BLACK
6
CONTINUOUS
10
5.52101
20
-3.22723
11
5.52256
21
-3.22852
0
LINE
8
BLACK
6
CONTINUOUS
10
5.52256
20
-3.22852
11
5.52291
21
-3.23051
0
LINE
8
BLACK
6
CONTINUOUS
10
5.52291
20
-3.23051
11
5.5219
21
-3.23226
0
LINE
8
BLACK
6
CONTINUOUS
10
5.5219
20
-3.23226
11
5.52
21
-3.23295
0
LINE
8
BLACK
6
CONTINUOUS
10
5.52
20
-3.23295
11
5.46
21
-3.23295
0
LINE
8
BLACK
6
CONTINUOUS
10
5.46
20
-3.23295
11
5.45899
21
-3.23277
0
LINE
8
BLACK
6
CONTINUOUS
10
5.45899
20
-3.23277
11
5.45744
21
-3.23148
0
LINE
8
BLACK
6
CONTINUOUS
10
5.45744
20
-3.23148
11
5.45709
21
-3.22949
0
LINE
8
BLACK
6
CONTINUOUS
10
5.45709
20
-3.22949
11
5.4581
21
-3.22774
0
LINE
8
BLACK
6
CONTINUOUS
10
5.4581
20
-3.22774
11
5.46
21
-3.22705
0
LINE
8
BLACK
6
CONTINUOUS
10
5.46
20
-3.22705
11
5.52
21
-3.22705
0
LINE
8
BLACK
6
CONTINUOUS
10
5.52
20
-3.22705
11
5.52101
21
-3.22723
0
LINE
8
BLACK
6
CONTINUOUS
10
5.65101
20
-3.18723
11
5.65256
21
-3.18852
0
LINE
8
BLACK
6
CONTINUOUS
10
5.65256
20
-3.18852
11
5.65291
21
-3.19051
0
LINE
8
BLACK
6
CONTINUOUS
10
5.65291
20
-3.19051
11
5.6519
21
-3.19226
0
LINE
8
BLACK
6
CONTINUOUS
10
5.6519
20
-3.19226
11
5.65
21
-3.19295
0
LINE
8
BLACK
6
CONTINUOUS
10
5.65
20
-3.19295
11
5.59
21
-3.19295
0
LINE
8
BLACK
6
CONTINUOUS
10
5.59
20
-3.19295
11
5.58899
21
-3.19277
0
LINE
8
BLACK
6
CONTINUOUS
10
5.58899
20
-3.19277
11
5.58744
21
-3.19148
0
LINE
8
BLACK
6
CONTINUOUS
10
5.58744
20
-3.19148
11
5.58709
21
-3.18949
0
LINE
8
BLACK
6
CONTINUOUS
10
5.58709
20
-3.18949
11
5.5881
21
-3.18774
0
LINE
8
BLACK
6
CONTINUOUS
10
5.5881
20
-3.18774
11
5.59
21
-3.18705
0
LINE
8
BLACK
6
CONTINUOUS
10
5.59
20
-3.18705
11
5.65
21
-3.18705
0
LINE
8
BLACK
6
CONTINUOUS
10
5.65
20
-3.18705
11
5.65101
21
-3.18723
0
LINE
8
BLACK
6
CONTINUOUS
10
5.59167
20
-3.11333
11
5.59236
21
-3.115
0
LINE
8
BLACK
6
CONTINUOUS
10
5.59236
20
-3.115
11
5.59236
21
-3.145
0
LINE
8
BLACK
6
CONTINUOUS
10
5.59236
20
-3.145
11
5.59167
21
-3.14667
0
LINE
8
BLACK
6
CONTINUOUS
10
5.59167
20
-3.14667
11
5.59
21
-3.14736
0
LINE
8
BLACK
6
CONTINUOUS
10
5.59
20
-3.14736
11
5.58833
21
-3.14667
0
LINE
8
BLACK
6
CONTINUOUS
10
5.58833
20
-3.14667
11
5.58764
21
-3.145
0
LINE
8
BLACK
6
CONTINUOUS
10
5.58764
20
-3.145
11
5.58764
21
-3.115
0
LINE
8
BLACK
6
CONTINUOUS
10
5.58764
20
-3.115
11
5.58833
21
-3.11333
0
LINE
8
BLACK
6
CONTINUOUS
10
5.58833
20
-3.11333
11
5.59
21
-3.11264
0
LINE
8
BLACK
6
CONTINUOUS
10
5.59
20
-3.11264
11
5.59167
21
-3.11333
0
LINE
8
BLACK
6
CONTINUOUS
10
5.65167
20
-3.11333
11
5.65236
21
-3.115
0
LINE
8
BLACK
6
CONTINUOUS
10
5.65236
20
-3.115
11
5.65236
21
-3.145
0
LINE
8
BLACK
6
CONTINUOUS
10
5.65236
20
-3.145
11
5.65167
21
-3.14667
0
LINE
8
BLACK
6
CONTINUOUS
10
5.65167
20
-3.14667
11
5.65
21
-3.14736
0
LINE
8
BLACK
6
CONTINUOUS
10
5.65
20
-3.14736
11
5.64833
21
-3.14667
0
LINE
8
BLACK
6
CONTINUOUS
10
5.64833
20
-3.14667
11
5.64764
21
-3.145
0
LINE
8
BLACK
6
CONTINUOUS
10
5.64764
20
-3.145
11
5.64764
21
-3.115
0
LINE
8
BLACK
6
CONTINUOUS
10
5.64764
20
-3.115
11
5.64833
21
-3.11333
0
LINE
8
BLACK
6
CONTINUOUS
10
5.64833
20
-3.11333
11
5.65
21
-3.11264
0
LINE
8
BLACK
6
CONTINUOUS
10
5.65
20
-3.11264
11
5.65167
21
-3.11333
0
LINE
8
BLACK
6
CONTINUOUS
10
5.67226
20
-3.0781
11
5.67295
21
-3.08
0
LINE
8
BLACK
6
CONTINUOUS
10
5.67295
20
-3.08
11
5.67295
21
-3.14
0
LINE
8
BLACK
6
CONTINUOUS
10
5.67295
20
-3.14
11
5.67277
21
-3.14101
0
LINE
8
BLACK
6
CONTINUOUS
10
5.67277
20
-3.14101
11
5.67148
21
-3.14256
0
LINE
8
BLACK
6
CONTINUOUS
10
5.67148
20
-3.14256
11
5.66949
21
-3.14291
0
LINE
8
BLACK
6
CONTINUOUS
10
5.66949
20
-3.14291
11
5.66774
21
-3.1419
0
LINE
8
BLACK
6
CONTINUOUS
10
5.66774
20
-3.1419
11
5.66705
21
-3.14
0
LINE
8
BLACK
6
CONTINUOUS
10
5.66705
20
-3.14
11
5.66705
21
-3.08
0
LINE
8
BLACK
6
CONTINUOUS
10
5.66705
20
-3.08
11
5.66723
21
-3.07899
0
LINE
8
BLACK
6
CONTINUOUS
10
5.66723
20
-3.07899
11
5.66852
21
-3.07744
0
LINE
8
BLACK
6
CONTINUOUS
10
5.66852
20
-3.07744
11
5.67051
21
-3.07709
0
LINE
8
BLACK
6
CONTINUOUS
10
5.67051
20
-3.07709
11
5.67226
21
-3.0781
0
LINE
8
BLACK
6
CONTINUOUS
10
5.81226
20
-3.0781
11
5.81295
21
-3.08
0
LINE
8
BLACK
6
CONTINUOUS
10
5.81295
20
-3.08
11
5.81295
21
-3.14
0
LINE
8
BLACK
6
CONTINUOUS
10
5.81295
20
-3.14
11
5.81277
21
-3.14101
0
LINE
8
BLACK
6
CONTINUOUS
10
5.81277
20
-3.14101
11
5.81148
21
-3.14256
0
LINE
8
BLACK
6
CONTINUOUS
10
5.81148
20
-3.14256
11
5.80949
21
-3.14291
0
LINE
8
BLACK
6
CONTINUOUS
10
5.80949
20
-3.14291
11
5.80774
21
-3.1419
0
LINE
8
BLACK
6
CONTINUOUS
10
5.80774
20
-3.1419
11
5.80705
21
-3.14
0
LINE
8
BLACK
6
CONTINUOUS
10
5.80705
20
-3.14
11
5.80705
21
-3.08
0
LINE
8
BLACK
6
CONTINUOUS
10
5.80705
20
-3.08
11
5.80723
21
-3.07899
0
LINE
8
BLACK
6
CONTINUOUS
10
5.80723
20
-3.07899
11
5.80852
21
-3.07744
0
LINE
8
BLACK
6
CONTINUOUS
10
5.80852
20
-3.07744
11
5.81051
21
-3.07709
0
LINE
8
BLACK
6
CONTINUOUS
10
5.81051
20
-3.07709
11
5.81226
21
-3.0781
0
LINE
8
BLACK
6
CONTINUOUS
10
5.93226
20
-3.0781
11
5.93295
21
-3.08
0
LINE
8
BLACK
6
CONTINUOUS
10
5.93295
20
-3.08
11
5.93295
21
-3.14
0
LINE
8
BLACK
6
CONTINUOUS
10
5.93295
20
-3.14
11
5.93277
21
-3.14101
0
LINE
8
BLACK
6
CONTINUOUS
10
5.93277
20
-3.14101
11
5.93148
21
-3.14256
0
LINE
8
BLACK
6
CONTINUOUS
10
5.93148
20
-3.14256
11
5.92949
21
-3.14291
0
LINE
8
BLACK
6
CONTINUOUS
10
5.92949
20
-3.14291
11
5.92774
21
-3.1419
0
LINE
8
BLACK
6
CONTINUOUS
10
5.92774
20
-3.1419
11
5.92705
21
-3.14
0
LINE
8
BLACK
6
CONTINUOUS
10
5.92705
20
-3.14
11
5.92705
21
-3.08
0
LINE
8
BLACK
6
CONTINUOUS
10
5.92705
20
-3.08
11
5.92723
21
-3.07899
0
LINE
8
BLACK
6
CONTINUOUS
10
5.92723
20
-3.07899
11
5.92852
21
-3.07744
0
LINE
8
BLACK
6
CONTINUOUS
10
5.92852
20
-3.07744
11
5.93051
21
-3.07709
0
LINE
8
BLACK
6
CONTINUOUS
10
5.93051
20
-3.07709
11
5.93226
21
-3.0781
0
LINE
8
BLACK
6
CONTINUOUS
10
5.79226
20
-3.0781
11
5.79295
21
-3.08
0
LINE
8
BLACK
6
CONTINUOUS
10
5.79295
20
-3.08
11
5.79295
21
-3.14
0
LINE
8
BLACK
6
CONTINUOUS
10
5.79295
20
-3.14
11
5.79277
21
-3.14101
0
LINE
8
BLACK
6
CONTINUOUS
10
5.79277
20
-3.14101
11
5.79148
21
-3.14256
0
LINE
8
BLACK
6
CONTINUOUS
10
5.79148
20
-3.14256
11
5.78949
21
-3.14291
0
LINE
8
BLACK
6
CONTINUOUS
10
5.78949
20
-3.14291
11
5.78774
21
-3.1419
0
LINE
8
BLACK
6
CONTINUOUS
10
5.78774
20
-3.1419
11
5.78705
21
-3.14
0
LINE
8
BLACK
6
CONTINUOUS
10
5.78705
20
-3.14
11
5.78705
21
-3.08
0
LINE
8
BLACK
6
CONTINUOUS
10
5.78705
20
-3.08
11
5.78723
21
-3.07899
0
LINE
8
BLACK
6
CONTINUOUS
10
5.78723
20
-3.07899
11
5.78852
21
-3.07744
0
LINE
8
BLACK
6
CONTINUOUS
10
5.78852
20
-3.07744
11
5.79051
21
-3.07709
0
LINE
8
BLACK
6
CONTINUOUS
10
5.79051
20
-3.07709
11
5.79226
21
-3.0781
0
LINE
8
BLACK
6
CONTINUOUS
10
5.88667
20
-3.13833
11
5.88736
21
-3.14
0
LINE
8
BLACK
6
CONTINUOUS
10
5.88736
20
-3.14
11
5.88667
21
-3.14167
0
LINE
8
BLACK
6
CONTINUOUS
10
5.88667
20
-3.14167
11
5.885
21
-3.14236
0
LINE
8
BLACK
6
CONTINUOUS
10
5.885
20
-3.14236
11
5.855
21
-3.14236
0
LINE
8
BLACK
6
CONTINUOUS
10
5.855
20
-3.14236
11
5.85333
21
-3.14167
0
LINE
8
BLACK
6
CONTINUOUS
10
5.85333
20
-3.14167
11
5.85264
21
-3.14
0
LINE
8
BLACK
6
CONTINUOUS
10
5.85264
20
-3.14
11
5.85333
21
-3.13833
0
LINE
8
BLACK
6
CONTINUOUS
10
5.85333
20
-3.13833
11
5.855
21
-3.13764
0
LINE
8
BLACK
6
CONTINUOUS
10
5.855
20
-3.13764
11
5.885
21
-3.13764
0
LINE
8
BLACK
6
CONTINUOUS
10
5.885
20
-3.13764
11
5.88667
21
-3.13833
0
LINE
8
BLACK
6
CONTINUOUS
10
5.74667
20
-3.13833
11
5.74736
21
-3.14
0
LINE
8
BLACK
6
CONTINUOUS
10
5.74736
20
-3.14
11
5.74667
21
-3.14167
0
LINE
8
BLACK
6
CONTINUOUS
10
5.74667
20
-3.14167
11
5.745
21
-3.14236
0
LINE
8
BLACK
6
CONTINUOUS
10
5.745
20
-3.14236
11
5.715
21
-3.14236
0
LINE
8
BLACK
6
CONTINUOUS
10
5.715
20
-3.14236
11
5.71333
21
-3.14167
0
LINE
8
BLACK
6
CONTINUOUS
10
5.71333
20
-3.14167
11
5.71264
21
-3.14
0
LINE
8
BLACK
6
CONTINUOUS
10
5.71264
20
-3.14
11
5.71333
21
-3.13833
0
LINE
8
BLACK
6
CONTINUOUS
10
5.71333
20
-3.13833
11
5.715
21
-3.13764
0
LINE
8
BLACK
6
CONTINUOUS
10
5.715
20
-3.13764
11
5.745
21
-3.13764
0
LINE
8
BLACK
6
CONTINUOUS
10
5.745
20
-3.13764
11
5.74667
21
-3.13833
0
LINE
8
BLACK
6
CONTINUOUS
10
5.88667
20
-3.07833
11
5.88736
21
-3.08
0
LINE
8
BLACK
6
CONTINUOUS
10
5.88736
20
-3.08
11
5.88667
21
-3.08167
0
LINE
8
BLACK
6
CONTINUOUS
10
5.88667
20
-3.08167
11
5.885
21
-3.08236
0
LINE
8
BLACK
6
CONTINUOUS
10
5.885
20
-3.08236
11
5.855
21
-3.08236
0
LINE
8
BLACK
6
CONTINUOUS
10
5.855
20
-3.08236
11
5.85333
21
-3.08167
0
LINE
8
BLACK
6
CONTINUOUS
10
5.85333
20
-3.08167
11
5.85264
21
-3.08
0
LINE
8
BLACK
6
CONTINUOUS
10
5.85264
20
-3.08
11
5.85333
21
-3.07833
0
LINE
8
BLACK
6
CONTINUOUS
10
5.85333
20
-3.07833
11
5.855
21
-3.07764
0
LINE
8
BLACK
6
CONTINUOUS
10
5.855
20
-3.07764
11
5.885
21
-3.07764
0
LINE
8
BLACK
6
CONTINUOUS
10
5.885
20
-3.07764
11
5.88667
21
-3.07833
0
LINE
8
BLACK
6
CONTINUOUS
10
5.74667
20
-3.07833
11
5.74736
21
-3.08
0
LINE
8
BLACK
6
CONTINUOUS
10
5.74736
20
-3.08
11
5.74667
21
-3.08167
0
LINE
8
BLACK
6
CONTINUOUS
10
5.74667
20
-3.08167
11
5.745
21
-3.08236
0
LINE
8
BLACK
6
CONTINUOUS
10
5.745
20
-3.08236
11
5.715
21
-3.08236
0
LINE
8
BLACK
6
CONTINUOUS
10
5.715
20
-3.08236
11
5.71333
21
-3.08167
0
LINE
8
BLACK
6
CONTINUOUS
10
5.71333
20
-3.08167
11
5.71264
21
-3.08
0
LINE
8
BLACK
6
CONTINUOUS
10
5.71264
20
-3.08
11
5.71333
21
-3.07833
0
LINE
8
BLACK
6
CONTINUOUS
10
5.71333
20
-3.07833
11
5.715
21
-3.07764
0
LINE
8
BLACK
6
CONTINUOUS
10
5.715
20
-3.07764
11
5.745
21
-3.07764
0
LINE
8
BLACK
6
CONTINUOUS
10
5.745
20
-3.07764
11
5.74667
21
-3.07833
0
LINE
8
BLACK
6
CONTINUOUS
10
5.65101
20
-3.06723
11
5.65256
21
-3.06852
0
LINE
8
BLACK
6
CONTINUOUS
10
5.65256
20
-3.06852
11
5.65291
21
-3.07051
0
LINE
8
BLACK
6
CONTINUOUS
10
5.65291
20
-3.07051
11
5.6519
21
-3.07226
0
LINE
8
BLACK
6
CONTINUOUS
10
5.6519
20
-3.07226
11
5.65
21
-3.07295
0
LINE
8
BLACK
6
CONTINUOUS
10
5.65
20
-3.07295
11
5.59
21
-3.07295
0
LINE
8
BLACK
6
CONTINUOUS
10
5.59
20
-3.07295
11
5.58899
21
-3.07277
0
LINE
8
BLACK
6
CONTINUOUS
10
5.58899
20
-3.07277
11
5.58744
21
-3.07148
0
LINE
8
BLACK
6
CONTINUOUS
10
5.58744
20
-3.07148
11
5.58709
21
-3.06949
0
LINE
8
BLACK
6
CONTINUOUS
10
5.58709
20
-3.06949
11
5.5881
21
-3.06774
0
LINE
8
BLACK
6
CONTINUOUS
10
5.5881
20
-3.06774
11
5.59
21
-3.06705
0
LINE
8
BLACK
6
CONTINUOUS
10
5.59
20
-3.06705
11
5.65
21
-3.06705
0
LINE
8
BLACK
6
CONTINUOUS
10
5.65
20
-3.06705
11
5.65101
21
-3.06723
  0
ENDSEC
  0
EOF
