  0
SECTION
  2
HEADER
  9
$ANGBASE
  50
0.0
  9
$ANGDIR
  70
1
  9
$MEASUREMENT
  70
0
  0
ENDSEC
  0
SECTION
  2
TABLES
  0
TABLE
  2
LTYPE
  70
4
  0
LTYPE
  5
40F
  2
CONTINUOUS
  70
0
  3
Solid line
  72
65
  73
0
  40
0.0
  0
LTYPE
  5
410
  2
DASHDOT
 70
0
  3
Dash Dot ____ _ ____ _
 72
65
 73
4
 40
2.0
 49
1.25
 49
-0.25
 49
0.25
 49
-0.25
  0
LTYPE
  5
411
  2
DASHED
 70
0
  3
Dashed __ __ __ __ __
 72
65
 73
2
 40
0.75
 49
0.5
 49
-0.25
  0
LTYPE
  5
43B
  2
DOTTED
 70
0
  3
Dotted .  .  .  .
 72
65
 73
2
 40
0.2
 49
0.0
 49
-0.2
  0
ENDTAB
  0
TABLE
  2
STYLE
  70
4
  0
STYLE
  2
KICAD
  70
0
  40
0
  41
1
  42
1
  50
0
  71
0
  3
isocp.shx
  0
STYLE
  2
KICADB
  70
0
  40
0
  41
1
  42
1
  50
0
  71
0
  3
isocp.shx
  0
STYLE
  2
KICADI
  70
0
  40
0
  41
1
  42
1
  50
15
  71
0
  3
isocp.shx
  0
STYLE
  2
KICADBI
  70
0
  40
0
  41
1
  42
1
  50
15
  71
0
  3
isocp.shx
  0
ENDTAB
  0
TABLE
  2
LAYER
  70
1
  0
LAYER
  2
BLACK
  70
0
  62
7
  6
CONTINUOUS
  0
ENDTAB
  0
ENDSEC
  0
SECTION
  2
ENTITIES
0
LINE
8
BLACK
6
CONTINUOUS
10
1.39038
20
1.39289
11
1.39051
21
1.39291
0
LINE
8
BLACK
6
CONTINUOUS
10
1.39051
20
1.39291
11
1.39063
21
1.39284
0
LINE
8
BLACK
6
CONTINUOUS
10
1.39063
20
1.39284
11
1.39101
21
1.39277
0
LINE
8
BLACK
6
CONTINUOUS
10
1.39101
20
1.39277
11
1.3916
21
1.39228
0
LINE
8
BLACK
6
CONTINUOUS
10
1.3916
20
1.39228
11
1.39226
21
1.3919
0
LINE
8
BLACK
6
CONTINUOUS
10
1.39226
20
1.3919
11
1.39235
21
1.39165
0
LINE
8
BLACK
6
CONTINUOUS
10
1.39235
20
1.39165
11
1.39256
21
1.39148
0
LINE
8
BLACK
6
CONTINUOUS
10
1.39256
20
1.39148
11
1.39269
21
1.39072
0
LINE
8
BLACK
6
CONTINUOUS
10
1.39269
20
1.39072
11
1.39295
21
1.39
0
LINE
8
BLACK
6
CONTINUOUS
10
1.39295
20
1.39
11
1.39295
21
0.21
0
LINE
8
BLACK
6
CONTINUOUS
10
1.39295
20
0.21
11
1.39289
21
0.209616
0
LINE
8
BLACK
6
CONTINUOUS
10
1.39289
20
0.209616
11
1.39291
21
0.209487
0
LINE
8
BLACK
6
CONTINUOUS
10
1.39291
20
0.209487
11
1.39284
21
0.209374
0
LINE
8
BLACK
6
CONTINUOUS
10
1.39284
20
0.209374
11
1.39277
21
0.20899
0
LINE
8
BLACK
6
CONTINUOUS
10
1.39277
20
0.20899
11
1.39228
21
0.208402
0
LINE
8
BLACK
6
CONTINUOUS
10
1.39228
20
0.208402
11
1.3919
21
0.207738
0
LINE
8
BLACK
6
CONTINUOUS
10
1.3919
20
0.207738
11
1.39165
21
0.207647
0
LINE
8
BLACK
6
CONTINUOUS
10
1.39165
20
0.207647
11
1.39148
21
0.207443
0
LINE
8
BLACK
6
CONTINUOUS
10
1.39148
20
0.207443
11
1.39072
21
0.20731
0
LINE
8
BLACK
6
CONTINUOUS
10
1.39072
20
0.20731
11
1.39
21
0.207047
0
LINE
8
BLACK
6
CONTINUOUS
10
1.39
20
0.207047
11
0.21
21
0.207047
0
LINE
8
BLACK
6
CONTINUOUS
10
0.21
20
0.207047
11
0.209616
21
0.207115
0
LINE
8
BLACK
6
CONTINUOUS
10
0.209616
20
0.207115
11
0.209487
21
0.207092
0
LINE
8
BLACK
6
CONTINUOUS
10
0.209487
20
0.207092
11
0.209374
21
0.207158
0
LINE
8
BLACK
6
CONTINUOUS
10
0.209374
20
0.207158
11
0.20899
21
0.207225
0
LINE
8
BLACK
6
CONTINUOUS
10
0.20899
20
0.207225
11
0.208402
21
0.207718
0
LINE
8
BLACK
6
CONTINUOUS
10
0.208402
20
0.207718
11
0.207738
21
0.208102
0
LINE
8
BLACK
6
CONTINUOUS
10
0.207738
20
0.208102
11
0.207647
21
0.208352
0
LINE
8
BLACK
6
CONTINUOUS
10
0.207647
20
0.208352
11
0.207443
21
0.208524
0
LINE
8
BLACK
6
CONTINUOUS
10
0.207443
20
0.208524
11
0.20731
21
0.209279
0
LINE
8
BLACK
6
CONTINUOUS
10
0.20731
20
0.209279
11
0.207047
21
0.21
0
LINE
8
BLACK
6
CONTINUOUS
10
0.207047
20
0.21
11
0.207047
21
1.39
0
LINE
8
BLACK
6
CONTINUOUS
10
0.207047
20
1.39
11
0.207115
21
1.39038
0
LINE
8
BLACK
6
CONTINUOUS
10
0.207115
20
1.39038
11
0.207092
21
1.39051
0
LINE
8
BLACK
6
CONTINUOUS
10
0.207092
20
1.39051
11
0.207158
21
1.39063
0
LINE
8
BLACK
6
CONTINUOUS
10
0.207158
20
1.39063
11
0.207225
21
1.39101
0
LINE
8
BLACK
6
CONTINUOUS
10
0.207225
20
1.39101
11
0.207718
21
1.3916
0
LINE
8
BLACK
6
CONTINUOUS
10
0.207718
20
1.3916
11
0.208102
21
1.39226
0
LINE
8
BLACK
6
CONTINUOUS
10
0.208102
20
1.39226
11
0.208352
21
1.39235
0
LINE
8
BLACK
6
CONTINUOUS
10
0.208352
20
1.39235
11
0.208524
21
1.39256
0
LINE
8
BLACK
6
CONTINUOUS
10
0.208524
20
1.39256
11
0.209279
21
1.39269
0
LINE
8
BLACK
6
CONTINUOUS
10
0.209279
20
1.39269
11
0.21
21
1.39295
0
LINE
8
BLACK
6
CONTINUOUS
10
0.21
20
1.39295
11
1.39
21
1.39295
0
LINE
8
BLACK
6
CONTINUOUS
10
1.39
20
1.39295
11
1.39038
21
1.39289
0
LINE
8
BLACK
6
CONTINUOUS
10
0.212953
20
1.38705
11
0.212953
21
0.212953
0
LINE
8
BLACK
6
CONTINUOUS
10
0.212953
20
0.212953
11
1.38705
21
0.212953
0
LINE
8
BLACK
6
CONTINUOUS
10
1.38705
20
0.212953
11
1.38705
21
1.38705
0
LINE
8
BLACK
6
CONTINUOUS
10
1.38705
20
1.38705
11
0.212953
21
1.38705
  0
ENDSEC
  0
EOF
