<?xml version='1.0' encoding='ASCII' standalone='yes'?>
<svg xmlns:svg="http://www.w3.org/2000/svg" xmlns="http://www.w3.org/2000/svg" xmlns:xlink="http://www.w3.org/1999/xlink" version="1.1" width="297.0022mm" height="210.0072mm" viewBox="0.0000 0.0000 297.0022 210.0072">
<title>SVG Image created as STEPBUBODC01-F_Fab.svg date 2023/09/20 21:19:54 </title>
  <desc>Image generated by PCBNEW </desc>
<g style="fill:#848484; fill-opacity:1.0000;stroke:#848484; stroke-opacity:1.0000; stroke-linecap:round; stroke-linejoin:round;" transform="translate(0 0) scale(1 1)">
</g>
<g style="fill:#848484; fill-opacity:0.0;  stroke:#848484; stroke-width:0.0000; stroke-opacity:1;  stroke-linecap:round; stroke-linejoin:round;">
</g>
<g style="fill:#848484; fill-opacity:0.0;  stroke:#848484; stroke-width:0.5311; stroke-opacity:1;  stroke-linecap:round; stroke-linejoin:round;">
<path style="fill:#848484; fill-opacity:0.0;  stroke:#848484; stroke-width:0.5311; stroke-opacity:1;  stroke-linecap:round; stroke-linejoin:round;fill:none" d="M 29.1496,50.4505 188.2194,50.4505 188.2194,209.5203 29.1496,209.5203 Z"/> 
</g>
<g style="fill:#848484; fill-opacity:0.01;  stroke:#848484; stroke-width:0.7967; stroke-opacity:1;  stroke-linecap:round; stroke-linejoin:round;">
<text x="108.6845" y="7.1644" textLength="52.4163" font-size="7.0816" lengthAdjust="spacingAndGlyphs" text-anchor="middle" opacity="0.01" style="font-family:monospace">29.9500 mm</text>
<g class="stroked-text"><desc>29.9500 mm</desc>
<path d="M84.1519 2.1191 L84.4048 1.8662 "/>
<path d="M84.4048 1.8662 L84.9106 1.6133 "/>
<path d="M84.9106 1.6133 L86.1752 1.6133 "/>
<path d="M86.1752 1.6133 L86.6810 1.8662 "/>
<path d="M86.6810 1.8662 L86.9339 2.1191 "/>
<path d="M86.9339 2.1191 L87.1868 2.6249 "/>
<path d="M87.1868 2.6249 L87.1868 3.1307 "/>
<path d="M87.1868 3.1307 L86.9339 3.8895 "/>
<path d="M86.9339 3.8895 L83.8990 6.9244 "/>
<path d="M83.8990 6.9244 L87.1868 6.9244 "/>
<path d="M89.7160 6.9244 L90.7276 6.9244 "/>
<path d="M90.7276 6.9244 L91.2334 6.6715 "/>
<path d="M91.2334 6.6715 L91.4864 6.4186 "/>
<path d="M91.4864 6.4186 L91.9922 5.6599 "/>
<path d="M91.9922 5.6599 L92.2451 4.6482 "/>
<path d="M92.2451 4.6482 L92.2451 2.6249 "/>
<path d="M92.2451 2.6249 L91.9922 2.1191 "/>
<path d="M91.9922 2.1191 L91.7393 1.8662 "/>
<path d="M91.7393 1.8662 L91.2334 1.6133 "/>
<path d="M91.2334 1.6133 L90.2218 1.6133 "/>
<path d="M90.2218 1.6133 L89.7160 1.8662 "/>
<path d="M89.7160 1.8662 L89.4631 2.1191 "/>
<path d="M89.4631 2.1191 L89.2101 2.6249 "/>
<path d="M89.2101 2.6249 L89.2101 3.8895 "/>
<path d="M89.2101 3.8895 L89.4631 4.3953 "/>
<path d="M89.4631 4.3953 L89.7160 4.6482 "/>
<path d="M89.7160 4.6482 L90.2218 4.9011 "/>
<path d="M90.2218 4.9011 L91.2334 4.9011 "/>
<path d="M91.2334 4.9011 L91.7393 4.6482 "/>
<path d="M91.7393 4.6482 L91.9922 4.3953 "/>
<path d="M91.9922 4.3953 L92.2451 3.8895 "/>
<path d="M94.5213 6.4186 L94.7742 6.6715 "/>
<path d="M94.7742 6.6715 L94.5213 6.9244 "/>
<path d="M94.5213 6.9244 L94.2684 6.6715 "/>
<path d="M94.2684 6.6715 L94.5213 6.4186 "/>
<path d="M94.5213 6.4186 L94.5213 6.9244 "/>
<path d="M97.3034 6.9244 L98.3150 6.9244 "/>
<path d="M98.3150 6.9244 L98.8208 6.6715 "/>
<path d="M98.8208 6.6715 L99.0738 6.4186 "/>
<path d="M99.0738 6.4186 L99.5796 5.6599 "/>
<path d="M99.5796 5.6599 L99.8325 4.6482 "/>
<path d="M99.8325 4.6482 L99.8325 2.6249 "/>
<path d="M99.8325 2.6249 L99.5796 2.1191 "/>
<path d="M99.5796 2.1191 L99.3267 1.8662 "/>
<path d="M99.3267 1.8662 L98.8208 1.6133 "/>
<path d="M98.8208 1.6133 L97.8092 1.6133 "/>
<path d="M97.8092 1.6133 L97.3034 1.8662 "/>
<path d="M97.3034 1.8662 L97.0505 2.1191 "/>
<path d="M97.0505 2.1191 L96.7975 2.6249 "/>
<path d="M96.7975 2.6249 L96.7975 3.8895 "/>
<path d="M96.7975 3.8895 L97.0505 4.3953 "/>
<path d="M97.0505 4.3953 L97.3034 4.6482 "/>
<path d="M97.3034 4.6482 L97.8092 4.9011 "/>
<path d="M97.8092 4.9011 L98.8208 4.9011 "/>
<path d="M98.8208 4.9011 L99.3267 4.6482 "/>
<path d="M99.3267 4.6482 L99.5796 4.3953 "/>
<path d="M99.5796 4.3953 L99.8325 3.8895 "/>
<path d="M104.6378 1.6133 L102.1087 1.6133 "/>
<path d="M102.1087 1.6133 L101.8558 4.1424 "/>
<path d="M101.8558 4.1424 L102.1087 3.8895 "/>
<path d="M102.1087 3.8895 L102.6145 3.6366 "/>
<path d="M102.6145 3.6366 L103.8791 3.6366 "/>
<path d="M103.8791 3.6366 L104.3849 3.8895 "/>
<path d="M104.3849 3.8895 L104.6378 4.1424 "/>
<path d="M104.6378 4.1424 L104.8908 4.6482 "/>
<path d="M104.8908 4.6482 L104.8908 5.9128 "/>
<path d="M104.8908 5.9128 L104.6378 6.4186 "/>
<path d="M104.6378 6.4186 L104.3849 6.6715 "/>
<path d="M104.3849 6.6715 L103.8791 6.9244 "/>
<path d="M103.8791 6.9244 L102.6145 6.9244 "/>
<path d="M102.6145 6.9244 L102.1087 6.6715 "/>
<path d="M102.1087 6.6715 L101.8558 6.4186 "/>
<path d="M108.1786 1.6133 L108.6845 1.6133 "/>
<path d="M108.6845 1.6133 L109.1903 1.8662 "/>
<path d="M109.1903 1.8662 L109.4432 2.1191 "/>
<path d="M109.4432 2.1191 L109.6961 2.6249 "/>
<path d="M109.6961 2.6249 L109.9490 3.6366 "/>
<path d="M109.9490 3.6366 L109.9490 4.9011 "/>
<path d="M109.9490 4.9011 L109.6961 5.9128 "/>
<path d="M109.6961 5.9128 L109.4432 6.4186 "/>
<path d="M109.4432 6.4186 L109.1903 6.6715 "/>
<path d="M109.1903 6.6715 L108.6845 6.9244 "/>
<path d="M108.6845 6.9244 L108.1786 6.9244 "/>
<path d="M108.1786 6.9244 L107.6728 6.6715 "/>
<path d="M107.6728 6.6715 L107.4199 6.4186 "/>
<path d="M107.4199 6.4186 L107.1670 5.9128 "/>
<path d="M107.1670 5.9128 L106.9141 4.9011 "/>
<path d="M106.9141 4.9011 L106.9141 3.6366 "/>
<path d="M106.9141 3.6366 L107.1670 2.6249 "/>
<path d="M107.1670 2.6249 L107.4199 2.1191 "/>
<path d="M107.4199 2.1191 L107.6728 1.8662 "/>
<path d="M107.6728 1.8662 L108.1786 1.6133 "/>
<path d="M113.2369 1.6133 L113.7427 1.6133 "/>
<path d="M113.7427 1.6133 L114.2486 1.8662 "/>
<path d="M114.2486 1.8662 L114.5015 2.1191 "/>
<path d="M114.5015 2.1191 L114.7544 2.6249 "/>
<path d="M114.7544 2.6249 L115.0073 3.6366 "/>
<path d="M115.0073 3.6366 L115.0073 4.9011 "/>
<path d="M115.0073 4.9011 L114.7544 5.9128 "/>
<path d="M114.7544 5.9128 L114.5015 6.4186 "/>
<path d="M114.5015 6.4186 L114.2486 6.6715 "/>
<path d="M114.2486 6.6715 L113.7427 6.9244 "/>
<path d="M113.7427 6.9244 L113.2369 6.9244 "/>
<path d="M113.2369 6.9244 L112.7311 6.6715 "/>
<path d="M112.7311 6.6715 L112.4782 6.4186 "/>
<path d="M112.4782 6.4186 L112.2252 5.9128 "/>
<path d="M112.2252 5.9128 L111.9723 4.9011 "/>
<path d="M111.9723 4.9011 L111.9723 3.6366 "/>
<path d="M111.9723 3.6366 L112.2252 2.6249 "/>
<path d="M112.2252 2.6249 L112.4782 2.1191 "/>
<path d="M112.4782 2.1191 L112.7311 1.8662 "/>
<path d="M112.7311 1.8662 L113.2369 1.6133 "/>
<path d="M121.3301 6.9244 L121.3301 3.3836 "/>
<path d="M121.3301 3.8895 L121.5830 3.6366 "/>
<path d="M121.5830 3.6366 L122.0889 3.3836 "/>
<path d="M122.0889 3.3836 L122.8476 3.3836 "/>
<path d="M122.8476 3.3836 L123.3534 3.6366 "/>
<path d="M123.3534 3.6366 L123.6063 4.1424 "/>
<path d="M123.6063 4.1424 L123.6063 6.9244 "/>
<path d="M123.6063 4.1424 L123.8593 3.6366 "/>
<path d="M123.8593 3.6366 L124.3651 3.3836 "/>
<path d="M124.3651 3.3836 L125.1238 3.3836 "/>
<path d="M125.1238 3.3836 L125.6297 3.6366 "/>
<path d="M125.6297 3.6366 L125.8826 4.1424 "/>
<path d="M125.8826 4.1424 L125.8826 6.9244 "/>
<path d="M128.4117 6.9244 L128.4117 3.3836 "/>
<path d="M128.4117 3.8895 L128.6646 3.6366 "/>
<path d="M128.6646 3.6366 L129.1704 3.3836 "/>
<path d="M129.1704 3.3836 L129.9292 3.3836 "/>
<path d="M129.9292 3.3836 L130.4350 3.6366 "/>
<path d="M130.4350 3.6366 L130.6879 4.1424 "/>
<path d="M130.6879 4.1424 L130.6879 6.9244 "/>
<path d="M130.6879 4.1424 L130.9408 3.6366 "/>
<path d="M130.9408 3.6366 L131.4467 3.3836 "/>
<path d="M131.4467 3.3836 L132.2054 3.3836 "/>
<path d="M132.2054 3.3836 L132.7112 3.6366 "/>
<path d="M132.7112 3.6366 L132.9641 4.1424 "/>
<path d="M132.9641 4.1424 L132.9641 6.9244 "/>
</g></g>
<g style="fill:#848484; fill-opacity:0.0;  stroke:#848484; stroke-width:0.5311; stroke-opacity:1;  stroke-linecap:round; stroke-linejoin:round;">
<path d="M29.1496 47.7949 L29.1496 7.5021 "/>
<path d="M188.2194 47.7949 L188.2194 7.5021 "/>
<path d="M29.1496 10.6167 L188.2194 10.6167 "/>
<path d="M29.1496 10.6167 L188.2194 10.6167 "/>
<path d="M29.1496 10.6167 L35.1326 7.5021 "/>
<path d="M29.1496 10.6167 L35.1326 13.7312 "/>
<path d="M188.2194 10.6167 L182.2363 13.7312 "/>
<path d="M188.2194 10.6167 L182.2363 7.5021 "/>
</g>
<g style="fill:#848484; fill-opacity:0.0;  stroke:#848484; stroke-width:0.7967; stroke-opacity:1;  stroke-linecap:round; stroke-linejoin:round;">
<g transform="rotate(-90.000000 242.1278 129.9854)">
<text x="242.1278" y="132.6410" textLength="52.4163" font-size="7.0816" lengthAdjust="spacingAndGlyphs" text-anchor="middle" opacity="0.01" style="font-family:monospace">29.9500 mm</text>
</g>
<g class="stroked-text"><desc>29.9500 mm</desc>
<path d="M239.7381 154.5180 L239.4852 154.2651 "/>
<path d="M239.4852 154.2651 L239.2323 153.7592 "/>
<path d="M239.2323 153.7592 L239.2323 152.4947 "/>
<path d="M239.2323 152.4947 L239.4852 151.9888 "/>
<path d="M239.4852 151.9888 L239.7381 151.7359 "/>
<path d="M239.7381 151.7359 L240.2439 151.4830 "/>
<path d="M240.2439 151.4830 L240.7497 151.4830 "/>
<path d="M240.7497 151.4830 L241.5085 151.7359 "/>
<path d="M241.5085 151.7359 L244.5434 154.7709 "/>
<path d="M244.5434 154.7709 L244.5434 151.4830 "/>
<path d="M244.5434 148.9539 L244.5434 147.9422 "/>
<path d="M244.5434 147.9422 L244.2905 147.4364 "/>
<path d="M244.2905 147.4364 L244.0376 147.1835 "/>
<path d="M244.0376 147.1835 L243.2789 146.6777 "/>
<path d="M243.2789 146.6777 L242.2672 146.4247 "/>
<path d="M242.2672 146.4247 L240.2439 146.4247 "/>
<path d="M240.2439 146.4247 L239.7381 146.6777 "/>
<path d="M239.7381 146.6777 L239.4852 146.9306 "/>
<path d="M239.4852 146.9306 L239.2323 147.4364 "/>
<path d="M239.2323 147.4364 L239.2323 148.4481 "/>
<path d="M239.2323 148.4481 L239.4852 148.9539 "/>
<path d="M239.4852 148.9539 L239.7381 149.2068 "/>
<path d="M239.7381 149.2068 L240.2439 149.4597 "/>
<path d="M240.2439 149.4597 L241.5085 149.4597 "/>
<path d="M241.5085 149.4597 L242.0143 149.2068 "/>
<path d="M242.0143 149.2068 L242.2672 148.9539 "/>
<path d="M242.2672 148.9539 L242.5201 148.4481 "/>
<path d="M242.5201 148.4481 L242.5201 147.4364 "/>
<path d="M242.5201 147.4364 L242.2672 146.9306 "/>
<path d="M242.2672 146.9306 L242.0143 146.6777 "/>
<path d="M242.0143 146.6777 L241.5085 146.4247 "/>
<path d="M244.0376 144.1485 L244.2905 143.8956 "/>
<path d="M244.2905 143.8956 L244.5434 144.1485 "/>
<path d="M244.5434 144.1485 L244.2905 144.4014 "/>
<path d="M244.2905 144.4014 L244.0376 144.1485 "/>
<path d="M244.0376 144.1485 L244.5434 144.1485 "/>
<path d="M244.5434 141.3665 L244.5434 140.3548 "/>
<path d="M244.5434 140.3548 L244.2905 139.8490 "/>
<path d="M244.2905 139.8490 L244.0376 139.5961 "/>
<path d="M244.0376 139.5961 L243.2789 139.0903 "/>
<path d="M243.2789 139.0903 L242.2672 138.8374 "/>
<path d="M242.2672 138.8374 L240.2439 138.8374 "/>
<path d="M240.2439 138.8374 L239.7381 139.0903 "/>
<path d="M239.7381 139.0903 L239.4852 139.3432 "/>
<path d="M239.4852 139.3432 L239.2323 139.8490 "/>
<path d="M239.2323 139.8490 L239.2323 140.8607 "/>
<path d="M239.2323 140.8607 L239.4852 141.3665 "/>
<path d="M239.4852 141.3665 L239.7381 141.6194 "/>
<path d="M239.7381 141.6194 L240.2439 141.8723 "/>
<path d="M240.2439 141.8723 L241.5085 141.8723 "/>
<path d="M241.5085 141.8723 L242.0143 141.6194 "/>
<path d="M242.0143 141.6194 L242.2672 141.3665 "/>
<path d="M242.2672 141.3665 L242.5201 140.8607 "/>
<path d="M242.5201 140.8607 L242.5201 139.8490 "/>
<path d="M242.5201 139.8490 L242.2672 139.3432 "/>
<path d="M242.2672 139.3432 L242.0143 139.0903 "/>
<path d="M242.0143 139.0903 L241.5085 138.8374 "/>
<path d="M239.2323 134.0320 L239.2323 136.5611 "/>
<path d="M239.2323 136.5611 L241.7614 136.8140 "/>
<path d="M241.7614 136.8140 L241.5085 136.5611 "/>
<path d="M241.5085 136.5611 L241.2556 136.0553 "/>
<path d="M241.2556 136.0553 L241.2556 134.7907 "/>
<path d="M241.2556 134.7907 L241.5085 134.2849 "/>
<path d="M241.5085 134.2849 L241.7614 134.0320 "/>
<path d="M241.7614 134.0320 L242.2672 133.7791 "/>
<path d="M242.2672 133.7791 L243.5318 133.7791 "/>
<path d="M243.5318 133.7791 L244.0376 134.0320 "/>
<path d="M244.0376 134.0320 L244.2905 134.2849 "/>
<path d="M244.2905 134.2849 L244.5434 134.7907 "/>
<path d="M244.5434 134.7907 L244.5434 136.0553 "/>
<path d="M244.5434 136.0553 L244.2905 136.5611 "/>
<path d="M244.2905 136.5611 L244.0376 136.8140 "/>
<path d="M239.2323 130.4912 L239.2323 129.9854 "/>
<path d="M239.2323 129.9854 L239.4852 129.4796 "/>
<path d="M239.4852 129.4796 L239.7381 129.2266 "/>
<path d="M239.7381 129.2266 L240.2439 128.9737 "/>
<path d="M240.2439 128.9737 L241.2556 128.7208 "/>
<path d="M241.2556 128.7208 L242.5201 128.7208 "/>
<path d="M242.5201 128.7208 L243.5318 128.9737 "/>
<path d="M243.5318 128.9737 L244.0376 129.2266 "/>
<path d="M244.0376 129.2266 L244.2905 129.4796 "/>
<path d="M244.2905 129.4796 L244.5434 129.9854 "/>
<path d="M244.5434 129.9854 L244.5434 130.4912 "/>
<path d="M244.5434 130.4912 L244.2905 130.9970 "/>
<path d="M244.2905 130.9970 L244.0376 131.2500 "/>
<path d="M244.0376 131.2500 L243.5318 131.5029 "/>
<path d="M243.5318 131.5029 L242.5201 131.7558 "/>
<path d="M242.5201 131.7558 L241.2556 131.7558 "/>
<path d="M241.2556 131.7558 L240.2439 131.5029 "/>
<path d="M240.2439 131.5029 L239.7381 131.2500 "/>
<path d="M239.7381 131.2500 L239.4852 130.9970 "/>
<path d="M239.4852 130.9970 L239.2323 130.4912 "/>
<path d="M239.2323 125.4329 L239.2323 124.9271 "/>
<path d="M239.2323 124.9271 L239.4852 124.4213 "/>
<path d="M239.4852 124.4213 L239.7381 124.1684 "/>
<path d="M239.7381 124.1684 L240.2439 123.9155 "/>
<path d="M240.2439 123.9155 L241.2556 123.6626 "/>
<path d="M241.2556 123.6626 L242.5201 123.6626 "/>
<path d="M242.5201 123.6626 L243.5318 123.9155 "/>
<path d="M243.5318 123.9155 L244.0376 124.1684 "/>
<path d="M244.0376 124.1684 L244.2905 124.4213 "/>
<path d="M244.2905 124.4213 L244.5434 124.9271 "/>
<path d="M244.5434 124.9271 L244.5434 125.4329 "/>
<path d="M244.5434 125.4329 L244.2905 125.9388 "/>
<path d="M244.2905 125.9388 L244.0376 126.1917 "/>
<path d="M244.0376 126.1917 L243.5318 126.4446 "/>
<path d="M243.5318 126.4446 L242.5201 126.6975 "/>
<path d="M242.5201 126.6975 L241.2556 126.6975 "/>
<path d="M241.2556 126.6975 L240.2439 126.4446 "/>
<path d="M240.2439 126.4446 L239.7381 126.1917 "/>
<path d="M239.7381 126.1917 L239.4852 125.9388 "/>
<path d="M239.4852 125.9388 L239.2323 125.4329 "/>
<path d="M244.5434 117.3397 L241.0026 117.3397 "/>
<path d="M241.5085 117.3397 L241.2556 117.0868 "/>
<path d="M241.2556 117.0868 L241.0026 116.5810 "/>
<path d="M241.0026 116.5810 L241.0026 115.8222 "/>
<path d="M241.0026 115.8222 L241.2556 115.3164 "/>
<path d="M241.2556 115.3164 L241.7614 115.0635 "/>
<path d="M241.7614 115.0635 L244.5434 115.0635 "/>
<path d="M241.7614 115.0635 L241.2556 114.8106 "/>
<path d="M241.2556 114.8106 L241.0026 114.3048 "/>
<path d="M241.0026 114.3048 L241.0026 113.5460 "/>
<path d="M241.0026 113.5460 L241.2556 113.0402 "/>
<path d="M241.2556 113.0402 L241.7614 112.7873 "/>
<path d="M241.7614 112.7873 L244.5434 112.7873 "/>
<path d="M244.5434 110.2582 L241.0026 110.2582 "/>
<path d="M241.5085 110.2582 L241.2556 110.0052 "/>
<path d="M241.2556 110.0052 L241.0026 109.4994 "/>
<path d="M241.0026 109.4994 L241.0026 108.7407 "/>
<path d="M241.0026 108.7407 L241.2556 108.2348 "/>
<path d="M241.2556 108.2348 L241.7614 107.9819 "/>
<path d="M241.7614 107.9819 L244.5434 107.9819 "/>
<path d="M241.7614 107.9819 L241.2556 107.7290 "/>
<path d="M241.2556 107.7290 L241.0026 107.2232 "/>
<path d="M241.0026 107.2232 L241.0026 106.4645 "/>
<path d="M241.0026 106.4645 L241.2556 105.9586 "/>
<path d="M241.2556 105.9586 L241.7614 105.7057 "/>
<path d="M241.7614 105.7057 L244.5434 105.7057 "/>
</g></g>
<g style="fill:#848484; fill-opacity:0.0;  stroke:#848484; stroke-width:0.5311; stroke-opacity:1;  stroke-linecap:round; stroke-linejoin:round;">
<path d="M190.8749 50.4505 L251.3502 50.4505 "/>
<path d="M190.8749 209.5203 L251.3502 209.5203 "/>
<path d="M248.2357 50.4505 L248.2357 209.5203 "/>
<path d="M248.2357 50.4505 L248.2357 209.5203 "/>
<path d="M248.2357 50.4505 L251.3503 56.4336 "/>
<path d="M248.2357 50.4505 L245.1211 56.4336 "/>
<path d="M248.2357 209.5203 L245.1211 203.5372 "/>
<path d="M248.2357 209.5203 L251.3503 203.5372 "/>
</g>
<g style="fill:#848484; fill-opacity:0.0;  stroke:#848484; stroke-width:0.7967; stroke-opacity:1;  stroke-linecap:round; stroke-linejoin:round;">
<g transform="rotate(-90.000000 223.0076 130.0119)">
<text x="223.0076" y="132.6675" textLength="52.4163" font-size="7.0816" lengthAdjust="spacingAndGlyphs" text-anchor="middle" opacity="0.01" style="font-family:monospace">20.3200 mm</text>
</g>
<g class="stroked-text"><desc>20.3200 mm</desc>
<path d="M220.6178 154.5445 L220.3649 154.2916 "/>
<path d="M220.3649 154.2916 L220.1120 153.7858 "/>
<path d="M220.1120 153.7858 L220.1120 152.5212 "/>
<path d="M220.1120 152.5212 L220.3649 152.0154 "/>
<path d="M220.3649 152.0154 L220.6178 151.7625 "/>
<path d="M220.6178 151.7625 L221.1237 151.5096 "/>
<path d="M221.1237 151.5096 L221.6295 151.5096 "/>
<path d="M221.6295 151.5096 L222.3882 151.7625 "/>
<path d="M222.3882 151.7625 L225.4232 154.7974 "/>
<path d="M225.4232 154.7974 L225.4232 151.5096 "/>
<path d="M220.1120 148.2217 L220.1120 147.7159 "/>
<path d="M220.1120 147.7159 L220.3649 147.2100 "/>
<path d="M220.3649 147.2100 L220.6178 146.9571 "/>
<path d="M220.6178 146.9571 L221.1237 146.7042 "/>
<path d="M221.1237 146.7042 L222.1353 146.4513 "/>
<path d="M222.1353 146.4513 L223.3999 146.4513 "/>
<path d="M223.3999 146.4513 L224.4115 146.7042 "/>
<path d="M224.4115 146.7042 L224.9174 146.9571 "/>
<path d="M224.9174 146.9571 L225.1703 147.2100 "/>
<path d="M225.1703 147.2100 L225.4232 147.7159 "/>
<path d="M225.4232 147.7159 L225.4232 148.2217 "/>
<path d="M225.4232 148.2217 L225.1703 148.7275 "/>
<path d="M225.1703 148.7275 L224.9174 148.9804 "/>
<path d="M224.9174 148.9804 L224.4115 149.2333 "/>
<path d="M224.4115 149.2333 L223.3999 149.4863 "/>
<path d="M223.3999 149.4863 L222.1353 149.4863 "/>
<path d="M222.1353 149.4863 L221.1237 149.2333 "/>
<path d="M221.1237 149.2333 L220.6178 148.9804 "/>
<path d="M220.6178 148.9804 L220.3649 148.7275 "/>
<path d="M220.3649 148.7275 L220.1120 148.2217 "/>
<path d="M224.9174 144.1751 L225.1703 143.9222 "/>
<path d="M225.1703 143.9222 L225.4232 144.1751 "/>
<path d="M225.4232 144.1751 L225.1703 144.4280 "/>
<path d="M225.1703 144.4280 L224.9174 144.1751 "/>
<path d="M224.9174 144.1751 L225.4232 144.1751 "/>
<path d="M220.1120 142.1518 L220.1120 138.8639 "/>
<path d="M220.1120 138.8639 L222.1353 140.6343 "/>
<path d="M222.1353 140.6343 L222.1353 139.8756 "/>
<path d="M222.1353 139.8756 L222.3882 139.3697 "/>
<path d="M222.3882 139.3697 L222.6411 139.1168 "/>
<path d="M222.6411 139.1168 L223.1470 138.8639 "/>
<path d="M223.1470 138.8639 L224.4115 138.8639 "/>
<path d="M224.4115 138.8639 L224.9174 139.1168 "/>
<path d="M224.9174 139.1168 L225.1703 139.3697 "/>
<path d="M225.1703 139.3697 L225.4232 139.8756 "/>
<path d="M225.4232 139.8756 L225.4232 141.3930 "/>
<path d="M225.4232 141.3930 L225.1703 141.8989 "/>
<path d="M225.1703 141.8989 L224.9174 142.1518 "/>
<path d="M220.6178 136.8406 L220.3649 136.5877 "/>
<path d="M220.3649 136.5877 L220.1120 136.0819 "/>
<path d="M220.1120 136.0819 L220.1120 134.8173 "/>
<path d="M220.1120 134.8173 L220.3649 134.3115 "/>
<path d="M220.3649 134.3115 L220.6178 134.0586 "/>
<path d="M220.6178 134.0586 L221.1237 133.8056 "/>
<path d="M221.1237 133.8056 L221.6295 133.8056 "/>
<path d="M221.6295 133.8056 L222.3882 134.0586 "/>
<path d="M222.3882 134.0586 L225.4232 137.0935 "/>
<path d="M225.4232 137.0935 L225.4232 133.8056 "/>
<path d="M220.1120 130.5178 L220.1120 130.0119 "/>
<path d="M220.1120 130.0119 L220.3649 129.5061 "/>
<path d="M220.3649 129.5061 L220.6178 129.2532 "/>
<path d="M220.6178 129.2532 L221.1237 129.0003 "/>
<path d="M221.1237 129.0003 L222.1353 128.7474 "/>
<path d="M222.1353 128.7474 L223.3999 128.7474 "/>
<path d="M223.3999 128.7474 L224.4115 129.0003 "/>
<path d="M224.4115 129.0003 L224.9174 129.2532 "/>
<path d="M224.9174 129.2532 L225.1703 129.5061 "/>
<path d="M225.1703 129.5061 L225.4232 130.0119 "/>
<path d="M225.4232 130.0119 L225.4232 130.5178 "/>
<path d="M225.4232 130.5178 L225.1703 131.0236 "/>
<path d="M225.1703 131.0236 L224.9174 131.2765 "/>
<path d="M224.9174 131.2765 L224.4115 131.5294 "/>
<path d="M224.4115 131.5294 L223.3999 131.7823 "/>
<path d="M223.3999 131.7823 L222.1353 131.7823 "/>
<path d="M222.1353 131.7823 L221.1237 131.5294 "/>
<path d="M221.1237 131.5294 L220.6178 131.2765 "/>
<path d="M220.6178 131.2765 L220.3649 131.0236 "/>
<path d="M220.3649 131.0236 L220.1120 130.5178 "/>
<path d="M220.1120 125.4595 L220.1120 124.9537 "/>
<path d="M220.1120 124.9537 L220.3649 124.4479 "/>
<path d="M220.3649 124.4479 L220.6178 124.1949 "/>
<path d="M220.6178 124.1949 L221.1237 123.9420 "/>
<path d="M221.1237 123.9420 L222.1353 123.6891 "/>
<path d="M222.1353 123.6891 L223.3999 123.6891 "/>
<path d="M223.3999 123.6891 L224.4115 123.9420 "/>
<path d="M224.4115 123.9420 L224.9174 124.1949 "/>
<path d="M224.9174 124.1949 L225.1703 124.4479 "/>
<path d="M225.1703 124.4479 L225.4232 124.9537 "/>
<path d="M225.4232 124.9537 L225.4232 125.4595 "/>
<path d="M225.4232 125.4595 L225.1703 125.9653 "/>
<path d="M225.1703 125.9653 L224.9174 126.2182 "/>
<path d="M224.9174 126.2182 L224.4115 126.4712 "/>
<path d="M224.4115 126.4712 L223.3999 126.7241 "/>
<path d="M223.3999 126.7241 L222.1353 126.7241 "/>
<path d="M222.1353 126.7241 L221.1237 126.4712 "/>
<path d="M221.1237 126.4712 L220.6178 126.2182 "/>
<path d="M220.6178 126.2182 L220.3649 125.9653 "/>
<path d="M220.3649 125.9653 L220.1120 125.4595 "/>
<path d="M225.4232 117.3663 L221.8824 117.3663 "/>
<path d="M222.3882 117.3663 L222.1353 117.1134 "/>
<path d="M222.1353 117.1134 L221.8824 116.6075 "/>
<path d="M221.8824 116.6075 L221.8824 115.8488 "/>
<path d="M221.8824 115.8488 L222.1353 115.3430 "/>
<path d="M222.1353 115.3430 L222.6411 115.0901 "/>
<path d="M222.6411 115.0901 L225.4232 115.0901 "/>
<path d="M222.6411 115.0901 L222.1353 114.8371 "/>
<path d="M222.1353 114.8371 L221.8824 114.3313 "/>
<path d="M221.8824 114.3313 L221.8824 113.5726 "/>
<path d="M221.8824 113.5726 L222.1353 113.0668 "/>
<path d="M222.1353 113.0668 L222.6411 112.8138 "/>
<path d="M222.6411 112.8138 L225.4232 112.8138 "/>
<path d="M225.4232 110.2847 L221.8824 110.2847 "/>
<path d="M222.3882 110.2847 L222.1353 110.0318 "/>
<path d="M222.1353 110.0318 L221.8824 109.5260 "/>
<path d="M221.8824 109.5260 L221.8824 108.7672 "/>
<path d="M221.8824 108.7672 L222.1353 108.2614 "/>
<path d="M222.1353 108.2614 L222.6411 108.0085 "/>
<path d="M222.6411 108.0085 L225.4232 108.0085 "/>
<path d="M222.6411 108.0085 L222.1353 107.7556 "/>
<path d="M222.1353 107.7556 L221.8824 107.2498 "/>
<path d="M221.8824 107.2498 L221.8824 106.4910 "/>
<path d="M221.8824 106.4910 L222.1353 105.9852 "/>
<path d="M222.1353 105.9852 L222.6411 105.7323 "/>
<path d="M222.6411 105.7323 L225.4232 105.7323 "/>
</g></g>
<g style="fill:#848484; fill-opacity:0.0;  stroke:#848484; stroke-width:0.5311; stroke-opacity:1;  stroke-linecap:round; stroke-linejoin:round;">
<path d="M165.2751 76.0504 L232.2300 76.0504 "/>
<path d="M165.2751 183.9735 L232.2300 183.9735 "/>
<path d="M229.1154 76.0504 L229.1154 183.9735 "/>
<path d="M229.1154 76.0504 L229.1154 183.9735 "/>
<path d="M229.1154 76.0504 L232.2300 82.0334 "/>
<path d="M229.1154 76.0504 L226.0008 82.0334 "/>
<path d="M229.1154 183.9735 L226.0008 177.9905 "/>
<path d="M229.1154 183.9735 L232.2300 177.9905 "/>
</g>
<g style="fill:#848484; fill-opacity:0.01;  stroke:#848484; stroke-width:0.7967; stroke-opacity:1;  stroke-linecap:round; stroke-linejoin:round;">
<text x="108.6579" y="25.7535" textLength="52.4163" font-size="7.0816" lengthAdjust="spacingAndGlyphs" text-anchor="middle" opacity="0.01" style="font-family:monospace">20.3200 mm</text>
<g class="stroked-text"><desc>20.3200 mm</desc>
<path d="M84.1253 20.7082 L84.3782 20.4553 "/>
<path d="M84.3782 20.4553 L84.8841 20.2024 "/>
<path d="M84.8841 20.2024 L86.1486 20.2024 "/>
<path d="M86.1486 20.2024 L86.6545 20.4553 "/>
<path d="M86.6545 20.4553 L86.9074 20.7082 "/>
<path d="M86.9074 20.7082 L87.1603 21.2140 "/>
<path d="M87.1603 21.2140 L87.1603 21.7199 "/>
<path d="M87.1603 21.7199 L86.9074 22.4786 "/>
<path d="M86.9074 22.4786 L83.8724 25.5136 "/>
<path d="M83.8724 25.5136 L87.1603 25.5136 "/>
<path d="M90.4482 20.2024 L90.9540 20.2024 "/>
<path d="M90.9540 20.2024 L91.4598 20.4553 "/>
<path d="M91.4598 20.4553 L91.7127 20.7082 "/>
<path d="M91.7127 20.7082 L91.9656 21.2140 "/>
<path d="M91.9656 21.2140 L92.2185 22.2257 "/>
<path d="M92.2185 22.2257 L92.2185 23.4902 "/>
<path d="M92.2185 23.4902 L91.9656 24.5019 "/>
<path d="M91.9656 24.5019 L91.7127 25.0077 "/>
<path d="M91.7127 25.0077 L91.4598 25.2606 "/>
<path d="M91.4598 25.2606 L90.9540 25.5136 "/>
<path d="M90.9540 25.5136 L90.4482 25.5136 "/>
<path d="M90.4482 25.5136 L89.9423 25.2606 "/>
<path d="M89.9423 25.2606 L89.6894 25.0077 "/>
<path d="M89.6894 25.0077 L89.4365 24.5019 "/>
<path d="M89.4365 24.5019 L89.1836 23.4902 "/>
<path d="M89.1836 23.4902 L89.1836 22.2257 "/>
<path d="M89.1836 22.2257 L89.4365 21.2140 "/>
<path d="M89.4365 21.2140 L89.6894 20.7082 "/>
<path d="M89.6894 20.7082 L89.9423 20.4553 "/>
<path d="M89.9423 20.4553 L90.4482 20.2024 "/>
<path d="M94.4948 25.0077 L94.7477 25.2606 "/>
<path d="M94.7477 25.2606 L94.4948 25.5136 "/>
<path d="M94.4948 25.5136 L94.2419 25.2606 "/>
<path d="M94.2419 25.2606 L94.4948 25.0077 "/>
<path d="M94.4948 25.0077 L94.4948 25.5136 "/>
<path d="M96.5181 20.2024 L99.8059 20.2024 "/>
<path d="M99.8059 20.2024 L98.0356 22.2257 "/>
<path d="M98.0356 22.2257 L98.7943 22.2257 "/>
<path d="M98.7943 22.2257 L99.3001 22.4786 "/>
<path d="M99.3001 22.4786 L99.5530 22.7315 "/>
<path d="M99.5530 22.7315 L99.8059 23.2373 "/>
<path d="M99.8059 23.2373 L99.8059 24.5019 "/>
<path d="M99.8059 24.5019 L99.5530 25.0077 "/>
<path d="M99.5530 25.0077 L99.3001 25.2606 "/>
<path d="M99.3001 25.2606 L98.7943 25.5136 "/>
<path d="M98.7943 25.5136 L97.2768 25.5136 "/>
<path d="M97.2768 25.5136 L96.7710 25.2606 "/>
<path d="M96.7710 25.2606 L96.5181 25.0077 "/>
<path d="M101.8293 20.7082 L102.0822 20.4553 "/>
<path d="M102.0822 20.4553 L102.5880 20.2024 "/>
<path d="M102.5880 20.2024 L103.8526 20.2024 "/>
<path d="M103.8526 20.2024 L104.3584 20.4553 "/>
<path d="M104.3584 20.4553 L104.6113 20.7082 "/>
<path d="M104.6113 20.7082 L104.8642 21.2140 "/>
<path d="M104.8642 21.2140 L104.8642 21.7199 "/>
<path d="M104.8642 21.7199 L104.6113 22.4786 "/>
<path d="M104.6113 22.4786 L101.5763 25.5136 "/>
<path d="M101.5763 25.5136 L104.8642 25.5136 "/>
<path d="M108.1521 20.2024 L108.6579 20.2024 "/>
<path d="M108.6579 20.2024 L109.1637 20.4553 "/>
<path d="M109.1637 20.4553 L109.4166 20.7082 "/>
<path d="M109.4166 20.7082 L109.6696 21.2140 "/>
<path d="M109.6696 21.2140 L109.9225 22.2257 "/>
<path d="M109.9225 22.2257 L109.9225 23.4902 "/>
<path d="M109.9225 23.4902 L109.6696 24.5019 "/>
<path d="M109.6696 24.5019 L109.4166 25.0077 "/>
<path d="M109.4166 25.0077 L109.1637 25.2606 "/>
<path d="M109.1637 25.2606 L108.6579 25.5136 "/>
<path d="M108.6579 25.5136 L108.1521 25.5136 "/>
<path d="M108.1521 25.5136 L107.6463 25.2606 "/>
<path d="M107.6463 25.2606 L107.3933 25.0077 "/>
<path d="M107.3933 25.0077 L107.1404 24.5019 "/>
<path d="M107.1404 24.5019 L106.8875 23.4902 "/>
<path d="M106.8875 23.4902 L106.8875 22.2257 "/>
<path d="M106.8875 22.2257 L107.1404 21.2140 "/>
<path d="M107.1404 21.2140 L107.3933 20.7082 "/>
<path d="M107.3933 20.7082 L107.6463 20.4553 "/>
<path d="M107.6463 20.4553 L108.1521 20.2024 "/>
<path d="M113.2103 20.2024 L113.7162 20.2024 "/>
<path d="M113.7162 20.2024 L114.2220 20.4553 "/>
<path d="M114.2220 20.4553 L114.4749 20.7082 "/>
<path d="M114.4749 20.7082 L114.7278 21.2140 "/>
<path d="M114.7278 21.2140 L114.9807 22.2257 "/>
<path d="M114.9807 22.2257 L114.9807 23.4902 "/>
<path d="M114.9807 23.4902 L114.7278 24.5019 "/>
<path d="M114.7278 24.5019 L114.4749 25.0077 "/>
<path d="M114.4749 25.0077 L114.2220 25.2606 "/>
<path d="M114.2220 25.2606 L113.7162 25.5136 "/>
<path d="M113.7162 25.5136 L113.2103 25.5136 "/>
<path d="M113.2103 25.5136 L112.7045 25.2606 "/>
<path d="M112.7045 25.2606 L112.4516 25.0077 "/>
<path d="M112.4516 25.0077 L112.1987 24.5019 "/>
<path d="M112.1987 24.5019 L111.9458 23.4902 "/>
<path d="M111.9458 23.4902 L111.9458 22.2257 "/>
<path d="M111.9458 22.2257 L112.1987 21.2140 "/>
<path d="M112.1987 21.2140 L112.4516 20.7082 "/>
<path d="M112.4516 20.7082 L112.7045 20.4553 "/>
<path d="M112.7045 20.4553 L113.2103 20.2024 "/>
<path d="M121.3036 25.5136 L121.3036 21.9728 "/>
<path d="M121.3036 22.4786 L121.5565 22.2257 "/>
<path d="M121.5565 22.2257 L122.0623 21.9728 "/>
<path d="M122.0623 21.9728 L122.8211 21.9728 "/>
<path d="M122.8211 21.9728 L123.3269 22.2257 "/>
<path d="M123.3269 22.2257 L123.5798 22.7315 "/>
<path d="M123.5798 22.7315 L123.5798 25.5136 "/>
<path d="M123.5798 22.7315 L123.8327 22.2257 "/>
<path d="M123.8327 22.2257 L124.3385 21.9728 "/>
<path d="M124.3385 21.9728 L125.0973 21.9728 "/>
<path d="M125.0973 21.9728 L125.6031 22.2257 "/>
<path d="M125.6031 22.2257 L125.8560 22.7315 "/>
<path d="M125.8560 22.7315 L125.8560 25.5136 "/>
<path d="M128.3851 25.5136 L128.3851 21.9728 "/>
<path d="M128.3851 22.4786 L128.6381 22.2257 "/>
<path d="M128.6381 22.2257 L129.1439 21.9728 "/>
<path d="M129.1439 21.9728 L129.9026 21.9728 "/>
<path d="M129.9026 21.9728 L130.4084 22.2257 "/>
<path d="M130.4084 22.2257 L130.6614 22.7315 "/>
<path d="M130.6614 22.7315 L130.6614 25.5136 "/>
<path d="M130.6614 22.7315 L130.9143 22.2257 "/>
<path d="M130.9143 22.2257 L131.4201 21.9728 "/>
<path d="M131.4201 21.9728 L132.1788 21.9728 "/>
<path d="M132.1788 21.9728 L132.6847 22.2257 "/>
<path d="M132.6847 22.2257 L132.9376 22.7315 "/>
<path d="M132.9376 22.7315 L132.9376 25.5136 "/>
</g></g>
<g style="fill:#848484; fill-opacity:0.0;  stroke:#848484; stroke-width:0.5311; stroke-opacity:1;  stroke-linecap:round; stroke-linejoin:round;">
<path d="M54.6963 73.3948 L54.6963 26.0912 "/>
<path d="M162.6195 73.3948 L162.6195 26.0912 "/>
<path d="M54.6963 29.2058 L162.6195 29.2058 "/>
<path d="M54.6963 29.2058 L162.6195 29.2058 "/>
<path d="M54.6963 29.2058 L60.6794 26.0912 "/>
<path d="M54.6963 29.2058 L60.6794 32.3204 "/>
<path d="M162.6195 29.2058 L156.6364 32.3204 "/>
<path d="M162.6195 29.2058 L156.6364 26.0912 "/>
</g>
<g style="fill:#848484; fill-opacity:0.01;  stroke:#848484; stroke-width:0.7967; stroke-opacity:1;  stroke-linecap:round; stroke-linejoin:round;">
<g transform="rotate(-90.000000 163.7879 125.8161)">
<text x="163.7879" y="128.4717" textLength="15.7439" font-size="7.0816" lengthAdjust="spacingAndGlyphs" text-anchor="middle" opacity="0.01" style="font-family:monospace">JP4</text>
</g>
<g class="stroked-text"><desc>JP4</desc>
<path d="M160.8924 130.2421 L164.6861 130.2421 "/>
<path d="M164.6861 130.2421 L165.4448 130.4950 "/>
<path d="M165.4448 130.4950 L165.9506 131.0008 "/>
<path d="M165.9506 131.0008 L166.2036 131.7596 "/>
<path d="M166.2036 131.7596 L166.2036 132.2654 "/>
<path d="M166.2036 127.7130 L160.8924 127.7130 "/>
<path d="M160.8924 127.7130 L160.8924 125.6897 "/>
<path d="M160.8924 125.6897 L161.1453 125.1838 "/>
<path d="M161.1453 125.1838 L161.3982 124.9309 "/>
<path d="M161.3982 124.9309 L161.9040 124.6780 "/>
<path d="M161.9040 124.6780 L162.6628 124.6780 "/>
<path d="M162.6628 124.6780 L163.1686 124.9309 "/>
<path d="M163.1686 124.9309 L163.4215 125.1838 "/>
<path d="M163.4215 125.1838 L163.6744 125.6897 "/>
<path d="M163.6744 125.6897 L163.6744 127.7130 "/>
<path d="M162.6628 120.1256 L166.2036 120.1256 "/>
<path d="M160.6395 121.3901 L164.4332 122.6547 "/>
<path d="M164.4332 122.6547 L164.4332 119.3668 "/>
</g><g transform="rotate(-90.000000 49.7569 128.5248)">
<text x="49.7569" y="131.1804" textLength="10.4327" font-size="7.0816" lengthAdjust="spacingAndGlyphs" text-anchor="middle" opacity="0.01" style="font-family:monospace">J2</text>
</g>
<g class="stroked-text"><desc>J2</desc>
<path d="M46.8614 130.2952 L50.6551 130.2952 "/>
<path d="M50.6551 130.2952 L51.4138 130.5481 "/>
<path d="M51.4138 130.5481 L51.9197 131.0539 "/>
<path d="M51.9197 131.0539 L52.1726 131.8127 "/>
<path d="M52.1726 131.8127 L52.1726 132.3185 "/>
<path d="M47.3672 128.0190 L47.1143 127.7661 "/>
<path d="M47.1143 127.7661 L46.8614 127.2602 "/>
<path d="M46.8614 127.2602 L46.8614 125.9957 "/>
<path d="M46.8614 125.9957 L47.1143 125.4899 "/>
<path d="M47.1143 125.4899 L47.3672 125.2369 "/>
<path d="M47.3672 125.2369 L47.8730 124.9840 "/>
<path d="M47.8730 124.9840 L48.3789 124.9840 "/>
<path d="M48.3789 124.9840 L49.1376 125.2369 "/>
<path d="M49.1376 125.2369 L52.1726 128.2719 "/>
<path d="M52.1726 128.2719 L52.1726 124.9840 "/>
</g><g transform="rotate(-90.000000 98.7260 75.1209)">
<text x="98.7260" y="77.7765" textLength="15.7439" font-size="7.0816" lengthAdjust="spacingAndGlyphs" text-anchor="middle" opacity="0.01" style="font-family:monospace">JP2</text>
</g>
<g class="stroked-text"><desc>JP2</desc>
<path d="M95.8304 79.5469 L99.6241 79.5469 "/>
<path d="M99.6241 79.5469 L100.3829 79.7998 "/>
<path d="M100.3829 79.7998 L100.8887 80.3056 "/>
<path d="M100.8887 80.3056 L101.1416 81.0644 "/>
<path d="M101.1416 81.0644 L101.1416 81.5702 "/>
<path d="M101.1416 77.0178 L95.8304 77.0178 "/>
<path d="M95.8304 77.0178 L95.8304 74.9945 "/>
<path d="M95.8304 74.9945 L96.0834 74.4886 "/>
<path d="M96.0834 74.4886 L96.3363 74.2357 "/>
<path d="M96.3363 74.2357 L96.8421 73.9828 "/>
<path d="M96.8421 73.9828 L97.6008 73.9828 "/>
<path d="M97.6008 73.9828 L98.1067 74.2357 "/>
<path d="M98.1067 74.2357 L98.3596 74.4886 "/>
<path d="M98.3596 74.4886 L98.6125 74.9945 "/>
<path d="M98.6125 74.9945 L98.6125 77.0178 "/>
<path d="M96.3363 71.9595 L96.0834 71.7066 "/>
<path d="M96.0834 71.7066 L95.8304 71.2008 "/>
<path d="M95.8304 71.2008 L95.8304 69.9362 "/>
<path d="M95.8304 69.9362 L96.0834 69.4304 "/>
<path d="M96.0834 69.4304 L96.3363 69.1775 "/>
<path d="M96.3363 69.1775 L96.8421 68.9245 "/>
<path d="M96.8421 68.9245 L97.3479 68.9245 "/>
<path d="M97.3479 68.9245 L98.1067 69.1775 "/>
<path d="M98.1067 69.1775 L101.1416 72.2124 "/>
<path d="M101.1416 72.2124 L101.1416 68.9245 "/>
</g><text x="113.1458" y="191.4623" textLength="10.4327" font-size="7.0816" lengthAdjust="spacingAndGlyphs" text-anchor="middle" opacity="0.01" style="font-family:monospace">J5</text>
<g class="stroked-text"><desc>J5</desc>
<path d="M111.3755 185.9111 L111.3755 189.7048 "/>
<path d="M111.3755 189.7048 L111.1225 190.4636 "/>
<path d="M111.1225 190.4636 L110.6167 190.9694 "/>
<path d="M110.6167 190.9694 L109.8580 191.2223 "/>
<path d="M109.8580 191.2223 L109.3521 191.2223 "/>
<path d="M116.4337 185.9111 L113.9046 185.9111 "/>
<path d="M113.9046 185.9111 L113.6517 188.4403 "/>
<path d="M113.6517 188.4403 L113.9046 188.1874 "/>
<path d="M113.9046 188.1874 L114.4104 187.9344 "/>
<path d="M114.4104 187.9344 L115.6750 187.9344 "/>
<path d="M115.6750 187.9344 L116.1808 188.1874 "/>
<path d="M116.1808 188.1874 L116.4337 188.4403 "/>
<path d="M116.4337 188.4403 L116.6866 188.9461 "/>
<path d="M116.6866 188.9461 L116.6866 190.2107 "/>
<path d="M116.6866 190.2107 L116.4337 190.7165 "/>
<path d="M116.4337 190.7165 L116.1808 190.9694 "/>
<path d="M116.1808 190.9694 L115.6750 191.2223 "/>
<path d="M115.6750 191.2223 L114.4104 191.2223 "/>
<path d="M114.4104 191.2223 L113.9046 190.9694 "/>
<path d="M113.9046 190.9694 L113.6517 190.7165 "/>
</g><g transform="rotate(-90.000000 112.2164 75.1209)">
<text x="112.2164" y="77.7765" textLength="15.7439" font-size="7.0816" lengthAdjust="spacingAndGlyphs" text-anchor="middle" opacity="0.01" style="font-family:monospace">JP1</text>
</g>
<g class="stroked-text"><desc>JP1</desc>
<path d="M109.3208 79.5469 L113.1145 79.5469 "/>
<path d="M113.1145 79.5469 L113.8733 79.7998 "/>
<path d="M113.8733 79.7998 L114.3791 80.3056 "/>
<path d="M114.3791 80.3056 L114.6320 81.0644 "/>
<path d="M114.6320 81.0644 L114.6320 81.5702 "/>
<path d="M114.6320 77.0178 L109.3208 77.0178 "/>
<path d="M109.3208 77.0178 L109.3208 74.9945 "/>
<path d="M109.3208 74.9945 L109.5738 74.4886 "/>
<path d="M109.5738 74.4886 L109.8267 74.2357 "/>
<path d="M109.8267 74.2357 L110.3325 73.9828 "/>
<path d="M110.3325 73.9828 L111.0912 73.9828 "/>
<path d="M111.0912 73.9828 L111.5971 74.2357 "/>
<path d="M111.5971 74.2357 L111.8500 74.4886 "/>
<path d="M111.8500 74.4886 L112.1029 74.9945 "/>
<path d="M112.1029 74.9945 L112.1029 77.0178 "/>
<path d="M114.6320 68.9245 L114.6320 71.9595 "/>
<path d="M114.6320 70.4420 L109.3208 70.4420 "/>
<path d="M109.3208 70.4420 L110.0796 70.9478 "/>
<path d="M110.0796 70.9478 L110.5854 71.4537 "/>
<path d="M110.5854 71.4537 L110.8383 71.9595 "/>
</g><text x="113.1458" y="164.4815" textLength="10.4327" font-size="7.0816" lengthAdjust="spacingAndGlyphs" text-anchor="middle" opacity="0.01" style="font-family:monospace">J6</text>
<g class="stroked-text"><desc>J6</desc>
<path d="M111.3755 158.9304 L111.3755 162.7240 "/>
<path d="M111.3755 162.7240 L111.1225 163.4828 "/>
<path d="M111.1225 163.4828 L110.6167 163.9886 "/>
<path d="M110.6167 163.9886 L109.8580 164.2415 "/>
<path d="M109.8580 164.2415 L109.3521 164.2415 "/>
<path d="M116.1808 158.9304 L115.1692 158.9304 "/>
<path d="M115.1692 158.9304 L114.6633 159.1833 "/>
<path d="M114.6633 159.1833 L114.4104 159.4362 "/>
<path d="M114.4104 159.4362 L113.9046 160.1949 "/>
<path d="M113.9046 160.1949 L113.6517 161.2066 "/>
<path d="M113.6517 161.2066 L113.6517 163.2299 "/>
<path d="M113.6517 163.2299 L113.9046 163.7357 "/>
<path d="M113.9046 163.7357 L114.1575 163.9886 "/>
<path d="M114.1575 163.9886 L114.6633 164.2415 "/>
<path d="M114.6633 164.2415 L115.6750 164.2415 "/>
<path d="M115.6750 164.2415 L116.1808 163.9886 "/>
<path d="M116.1808 163.9886 L116.4337 163.7357 "/>
<path d="M116.4337 163.7357 L116.6866 163.2299 "/>
<path d="M116.6866 163.2299 L116.6866 161.9653 "/>
<path d="M116.6866 161.9653 L116.4337 161.4595 "/>
<path d="M116.4337 161.4595 L116.1808 161.2066 "/>
<path d="M116.1808 161.2066 L115.6750 160.9537 "/>
<path d="M115.6750 160.9537 L114.6633 160.9537 "/>
<path d="M114.6633 160.9537 L114.1575 161.2066 "/>
<path d="M114.1575 161.2066 L113.9046 161.4595 "/>
<path d="M113.9046 161.4595 L113.6517 161.9653 "/>
</g></g>
<g style="fill:#848484; fill-opacity:0.0;  stroke:#848484; stroke-width:0.5311; stroke-opacity:1;  stroke-linecap:round; stroke-linejoin:round;">
<path d="M157.0427 108.9531 L160.4153 105.5805 "/>
<path d="M157.0427 146.0517 L157.0427 108.9531 "/>
<path d="M160.4153 105.5805 L170.5331 105.5805 "/>
<path d="M170.5331 105.5805 L170.5331 146.0517 "/>
<path d="M170.5331 146.0517 L157.0427 146.0517 "/>
<path d="M36.2665 115.0344 L43.0117 108.2892 "/>
<path d="M36.2665 148.7604 L36.2665 115.0344 "/>
<path d="M43.0117 108.2892 L63.2473 108.2892 "/>
<path d="M63.2473 108.2892 L63.2473 148.7604 "/>
<path d="M63.2473 148.7604 L36.2665 148.7604 "/>
</g>
<g style="fill:#848484; fill-opacity:0.0;  stroke:#848484; stroke-width:2.0236; stroke-opacity:1;  stroke-linecap:round; stroke-linejoin:round;">
<circle cx="54.6963" cy="183.9735" r="15.9322"/> 
<circle cx="162.6195" cy="183.9735" r="15.9322"/> 
</g>
<g style="fill:#848484; fill-opacity:0.0;  stroke:#848484; stroke-width:0.5311; stroke-opacity:1;  stroke-linecap:round; stroke-linejoin:round;">
<path d="M91.9808 65.0031 L95.3534 61.6305 "/>
<path d="M91.9808 88.6113 L91.9808 65.0031 "/>
<path d="M95.3534 61.6305 L105.4712 61.6305 "/>
<path d="M105.4712 61.6305 L105.4712 88.6113 "/>
<path d="M105.4712 88.6113 L91.9808 88.6113 "/>
</g>
<g style="fill:#848484; fill-opacity:0.0;  stroke:#848484; stroke-width:2.0236; stroke-opacity:1;  stroke-linecap:round; stroke-linejoin:round;">
<circle cx="162.6195" cy="76.0504" r="15.9322"/> 
</g>
<g style="fill:#848484; fill-opacity:0.0;  stroke:#848484; stroke-width:0.5311; stroke-opacity:1;  stroke-linecap:round; stroke-linejoin:round;">
<path d="M99.6555 202.2971 L92.9103 195.5519 "/>
<path d="M133.3814 202.2971 L99.6555 202.2971 "/>
<path d="M92.9103 195.5519 L92.9103 175.3163 "/>
<path d="M92.9103 175.3163 L133.3814 175.3163 "/>
<path d="M133.3814 175.3163 L133.3814 202.2971 "/>
<path d="M105.4712 65.0031 L108.8438 61.6305 "/>
<path d="M105.4712 88.6113 L105.4712 65.0031 "/>
<path d="M108.8438 61.6305 L118.9616 61.6305 "/>
<path d="M118.9616 61.6305 L118.9616 88.6113 "/>
<path d="M118.9616 88.6113 L105.4712 88.6113 "/>
</g>
<g style="fill:#848484; fill-opacity:0.0;  stroke:#848484; stroke-width:2.0236; stroke-opacity:1;  stroke-linecap:round; stroke-linejoin:round;">
<circle cx="54.6963" cy="76.0504" r="15.9322"/> 
</g>
<g style="fill:#848484; fill-opacity:0.0;  stroke:#848484; stroke-width:0.5311; stroke-opacity:1;  stroke-linecap:round; stroke-linejoin:round;">
<path d="M99.6555 175.3163 L92.9103 168.5711 "/>
<path d="M133.3814 175.3163 L99.6555 175.3163 "/>
<path d="M92.9103 168.5711 L92.9103 148.3355 "/>
<path d="M92.9103 148.3355 L133.3814 148.3355 "/>
<path d="M133.3814 148.3355 L133.3814 175.3163 "/>
<g>
</g>
<g>
</g>
<g>
</g>
<g>
</g>
<g>
</g>
<g>
</g>
<g>
</g>
<g>
</g>
<g>
</g>
<g>
</g>
<g>
</g>
<g>
</g>
<g>
</g>
<g>
</g>
<g>
</g>
<g>
</g>
<g>
</g>
<g>
</g>
<g>
</g>
<g>
</g>
<g>
</g>
<g>
</g>
<g>
</g>
<g>
</g>
<g>
</g>
<g>
</g>
</g> 
<svg:g><svg:g><svg:title>SVG Image created as STEPBUBODC01-Edge_Cuts.svg date 2023/09/20 21:19:54 </svg:title>
  <svg:desc>Image generated by PCBNEW </svg:desc>
<svg:g style="fill:#C2C200; fill-opacity:1.0000;stroke:#C2C200; stroke-opacity:1.0000; stroke-linecap:round; stroke-linejoin:round;" transform="translate(0 0) scale(1 1)">
</svg:g>
<svg:g style="fill:#C2C200; fill-opacity:0.0;  stroke:#C2C200; stroke-width:0.0000; stroke-opacity:1;  stroke-linecap:round; stroke-linejoin:round;">
</svg:g>
<svg:g style="fill:#C2C200; fill-opacity:0.0;  stroke:#C2C200; stroke-width:0.7967; stroke-opacity:1;  stroke-linecap:round; stroke-linejoin:round;">
<svg:path style="fill:#C2C200; fill-opacity:0.0;  stroke:#C2C200; stroke-width:0.7967; stroke-opacity:1;  stroke-linecap:round; stroke-linejoin:round;fill:none" d="M 29.0646,50.4186 188.2512,50.4186 188.2512,209.6053 29.0646,209.6053 Z"/> 
<svg:g>
</svg:g>
<svg:g>
</svg:g>
<svg:g>
</svg:g>
<svg:g>
</svg:g>
<svg:g>
</svg:g>
<svg:g>
</svg:g>
<svg:g>
</svg:g>
<svg:g>
</svg:g>
<svg:g>
</svg:g>
<svg:g>
</svg:g>
<svg:g>
</svg:g>
<svg:g>
</svg:g>
<svg:g>
</svg:g>
<svg:g>
</svg:g>
<svg:g>
</svg:g>
<svg:g>
</svg:g>
<svg:g>
</svg:g>
<svg:g>
</svg:g>
<svg:g>
</svg:g>
<svg:g>
</svg:g>
<svg:g>
</svg:g>
<svg:g>
</svg:g>
<svg:g>
</svg:g>
<svg:g>
</svg:g>
<svg:g>
</svg:g>
<svg:g>
</svg:g>
</svg:g> 
</svg:g></svg:g></svg>
