<?xml version='1.0' encoding='ASCII' standalone='yes'?>
<svg xmlns:svg="http://www.w3.org/2000/svg" xmlns="http://www.w3.org/2000/svg" xmlns:xlink="http://www.w3.org/1999/xlink" version="1.1" width="297.0022mm" height="210.0072mm" viewBox="0.0000 0.0000 297.0022 210.0072">
<title>SVG Image created as STEPBUBODC01-B_Fab.svg date 2023/09/17 11:36:17 </title>
  <desc>Image generated by PCBNEW </desc>
<g style="fill:#000084; fill-opacity:1.0000;stroke:#000084; stroke-opacity:1.0000; stroke-linecap:round; stroke-linejoin:round;" transform="translate(0 0) scale(1 1)">
</g>
<g style="fill:#000084; fill-opacity:0.0;  stroke:#000084; stroke-width:0.0000; stroke-opacity:1;  stroke-linecap:round; stroke-linejoin:round;">
</g>
<g style="fill:#000084; fill-opacity:0.01;  stroke:#000084; stroke-width:1.0457; stroke-opacity:1;  stroke-linecap:round; stroke-linejoin:round;">
<text x="157.7908" y="78.3022" transform="scale(-1 1) translate(-315.581643 0)" textLength="14.0263" font-size="9.2955" lengthAdjust="spacingAndGlyphs" text-anchor="middle" opacity="0.01" style="font-family:monospace">1k</text>
<g class="stroked-text"><desc>1k</desc>
<path d="M156.9609 77.9872 L152.9771 77.9872 "/>
<path d="M154.9690 77.9872 L154.9690 71.0155 "/>
<path d="M154.9690 71.0155 L154.3050 72.0115 "/>
<path d="M154.3050 72.0115 L153.6410 72.6755 "/>
<path d="M153.6410 72.6755 L152.9771 73.0074 "/>
<path d="M159.9487 77.9872 L159.9487 71.0155 "/>
<path d="M160.6127 75.3313 L162.6046 77.9872 "/>
<path d="M162.6046 73.3394 L159.9487 75.9953 "/>
</g></g>
<g style="fill:#000084; fill-opacity:0.01;  stroke:#000084; stroke-width:0.5577; stroke-opacity:1;  stroke-linecap:round; stroke-linejoin:round;">
<text x="157.7908" y="65.0561" transform="scale(-1 1) translate(-315.581643 0)" textLength="7.7817" font-size="4.6478" lengthAdjust="spacingAndGlyphs" text-anchor="middle" opacity="0.01" style="font-family:monospace">R4</text>
<g class="stroked-text"><desc>R4</desc>
<path d="M157.2099 64.8967 L156.0479 63.2368 "/>
<path d="M155.2180 64.8967 L155.2180 61.4109 "/>
<path d="M155.2180 61.4109 L156.5459 61.4109 "/>
<path d="M156.5459 61.4109 L156.8779 61.5769 "/>
<path d="M156.8779 61.5769 L157.0439 61.7429 "/>
<path d="M157.0439 61.7429 L157.2099 62.0749 "/>
<path d="M157.2099 62.0749 L157.2099 62.5729 "/>
<path d="M157.2099 62.5729 L157.0439 62.9048 "/>
<path d="M157.0439 62.9048 L156.8779 63.0708 "/>
<path d="M156.8779 63.0708 L156.5459 63.2368 "/>
<path d="M156.5459 63.2368 L155.2180 63.2368 "/>
<path d="M160.1977 62.5729 L160.1977 64.8967 "/>
<path d="M159.3677 61.2449 L158.5378 63.7348 "/>
<path d="M158.5378 63.7348 L160.6957 63.7348 "/>
</g></g>
<g style="fill:#000084; fill-opacity:0.01;  stroke:#000084; stroke-width:1.0457; stroke-opacity:1;  stroke-linecap:round; stroke-linejoin:round;">
<text x="182.1916" y="55.2957" transform="scale(-1 1) translate(-364.383183 0)" textLength="14.0263" font-size="9.2955" lengthAdjust="spacingAndGlyphs" text-anchor="middle" opacity="0.01" style="font-family:monospace">1k</text>
<g class="stroked-text"><desc>1k</desc>
<path d="M181.3616 54.9808 L177.3778 54.9808 "/>
<path d="M179.3697 54.9808 L179.3697 48.0091 "/>
<path d="M179.3697 48.0091 L178.7058 49.0051 "/>
<path d="M178.7058 49.0051 L178.0418 49.6690 "/>
<path d="M178.0418 49.6690 L177.3778 50.0010 "/>
<path d="M184.3495 54.9808 L184.3495 48.0091 "/>
<path d="M185.0135 52.3249 L187.0054 54.9808 "/>
<path d="M187.0054 50.3330 L184.3495 52.9889 "/>
</g></g>
<g style="fill:#000084; fill-opacity:0.01;  stroke:#000084; stroke-width:0.5577; stroke-opacity:1;  stroke-linecap:round; stroke-linejoin:round;">
<text x="182.1916" y="65.0561" transform="scale(-1 1) translate(-364.383183 0)" textLength="7.7817" font-size="4.6478" lengthAdjust="spacingAndGlyphs" text-anchor="middle" opacity="0.01" style="font-family:monospace">R5</text>
<g class="stroked-text"><desc>R5</desc>
<path d="M181.6106 64.8967 L180.4487 63.2368 "/>
<path d="M179.6187 64.8967 L179.6187 61.4109 "/>
<path d="M179.6187 61.4109 L180.9467 61.4109 "/>
<path d="M180.9467 61.4109 L181.2786 61.5769 "/>
<path d="M181.2786 61.5769 L181.4446 61.7429 "/>
<path d="M181.4446 61.7429 L181.6106 62.0749 "/>
<path d="M181.6106 62.0749 L181.6106 62.5729 "/>
<path d="M181.6106 62.5729 L181.4446 62.9048 "/>
<path d="M181.4446 62.9048 L181.2786 63.0708 "/>
<path d="M181.2786 63.0708 L180.9467 63.2368 "/>
<path d="M180.9467 63.2368 L179.6187 63.2368 "/>
<path d="M184.7645 61.4109 L183.1045 61.4109 "/>
<path d="M183.1045 61.4109 L182.9386 63.0708 "/>
<path d="M182.9386 63.0708 L183.1045 62.9048 "/>
<path d="M183.1045 62.9048 L183.4365 62.7388 "/>
<path d="M183.4365 62.7388 L184.2665 62.7388 "/>
<path d="M184.2665 62.7388 L184.5985 62.9048 "/>
<path d="M184.5985 62.9048 L184.7645 63.0708 "/>
<path d="M184.7645 63.0708 L184.9305 63.4028 "/>
<path d="M184.9305 63.4028 L184.9305 64.2328 "/>
<path d="M184.9305 64.2328 L184.7645 64.5648 "/>
<path d="M184.7645 64.5648 L184.5985 64.7308 "/>
<path d="M184.5985 64.7308 L184.2665 64.8967 "/>
<path d="M184.2665 64.8967 L183.4365 64.8967 "/>
<path d="M183.4365 64.8967 L183.1045 64.7308 "/>
<path d="M183.1045 64.7308 L182.9386 64.5648 "/>
</g></g>
<g style="fill:#000084; fill-opacity:0.0;  stroke:#000084; stroke-width:1.0457; stroke-opacity:1;  stroke-linecap:round; stroke-linejoin:round;">
<g transform="rotate(-90.000000 107.5078 89.5440)">
<text x="107.5078" y="93.0298" transform="scale(-1 1) translate(-215.015611 0)" textLength="27.3056" font-size="9.2955" lengthAdjust="spacingAndGlyphs" text-anchor="middle" opacity="0.01" style="font-family:monospace">511k</text>
</g>
<g class="stroked-text"><desc>511k</desc>
<path d="M111.3086 81.7424 L111.3086 78.4225 "/>
<path d="M111.3086 78.4225 L107.9888 78.0905 "/>
<path d="M107.9888 78.0905 L108.3208 78.4225 "/>
<path d="M108.3208 78.4225 L108.6528 79.0865 "/>
<path d="M108.6528 79.0865 L108.6528 80.7464 "/>
<path d="M108.6528 80.7464 L108.3208 81.4104 "/>
<path d="M108.3208 81.4104 L107.9888 81.7424 "/>
<path d="M107.9888 81.7424 L107.3248 82.0743 "/>
<path d="M107.3248 82.0743 L105.6649 82.0743 "/>
<path d="M105.6649 82.0743 L105.0009 81.7424 "/>
<path d="M105.0009 81.7424 L104.6690 81.4104 "/>
<path d="M104.6690 81.4104 L104.3370 80.7464 "/>
<path d="M104.3370 80.7464 L104.3370 79.0865 "/>
<path d="M104.3370 79.0865 L104.6690 78.4225 "/>
<path d="M104.6690 78.4225 L105.0009 78.0905 "/>
<path d="M104.3370 88.7140 L104.3370 84.7302 "/>
<path d="M104.3370 86.7221 L111.3086 86.7221 "/>
<path d="M111.3086 86.7221 L110.3127 86.0581 "/>
<path d="M110.3127 86.0581 L109.6487 85.3942 "/>
<path d="M109.6487 85.3942 L109.3167 84.7302 "/>
<path d="M104.3370 95.3537 L104.3370 91.3699 "/>
<path d="M104.3370 93.3618 L111.3086 93.3618 "/>
<path d="M111.3086 93.3618 L110.3127 92.6978 "/>
<path d="M110.3127 92.6978 L109.6487 92.0338 "/>
<path d="M109.6487 92.0338 L109.3167 91.3699 "/>
<path d="M104.3370 98.3415 L111.3086 98.3415 "/>
<path d="M106.9928 99.0055 L104.3370 100.9974 "/>
<path d="M108.9847 100.9974 L106.3289 98.3415 "/>
</g></g>
<g style="fill:#000084; fill-opacity:0.0;  stroke:#000084; stroke-width:0.5577; stroke-opacity:1;  stroke-linecap:round; stroke-linejoin:round;">
<g transform="rotate(-90.000000 96.0046 89.5440)">
<text x="96.0046" y="91.2869" transform="scale(-1 1) translate(-192.009171 0)" textLength="7.7817" font-size="4.6478" lengthAdjust="spacingAndGlyphs" text-anchor="middle" opacity="0.01" style="font-family:monospace">R2</text>
</g>
<g class="stroked-text"><desc>R2</desc>
<path d="M94.4210 88.9630 L96.0809 87.8011 "/>
<path d="M94.4210 86.9711 L97.9068 86.9711 "/>
<path d="M97.9068 86.9711 L97.9068 88.2990 "/>
<path d="M97.9068 88.2990 L97.7408 88.6310 "/>
<path d="M97.7408 88.6310 L97.5748 88.7970 "/>
<path d="M97.5748 88.7970 L97.2428 88.9630 "/>
<path d="M97.2428 88.9630 L96.7449 88.9630 "/>
<path d="M96.7449 88.9630 L96.4129 88.7970 "/>
<path d="M96.4129 88.7970 L96.2469 88.6310 "/>
<path d="M96.2469 88.6310 L96.0809 88.2990 "/>
<path d="M96.0809 88.2990 L96.0809 86.9711 "/>
<path d="M97.5748 90.2909 L97.7408 90.4569 "/>
<path d="M97.7408 90.4569 L97.9068 90.7889 "/>
<path d="M97.9068 90.7889 L97.9068 91.6189 "/>
<path d="M97.9068 91.6189 L97.7408 91.9508 "/>
<path d="M97.7408 91.9508 L97.5748 92.1168 "/>
<path d="M97.5748 92.1168 L97.2428 92.2828 "/>
<path d="M97.2428 92.2828 L96.9109 92.2828 "/>
<path d="M96.9109 92.2828 L96.4129 92.1168 "/>
<path d="M96.4129 92.1168 L94.4210 90.1249 "/>
<path d="M94.4210 90.1249 L94.4210 92.2828 "/>
</g></g>
<g style="fill:#000084; fill-opacity:0.01;  stroke:#000084; stroke-width:1.0457; stroke-opacity:1;  stroke-linecap:round; stroke-linejoin:round;">
<text x="117.9653" y="97.7879" transform="scale(-1 1) translate(-235.930557 0)" textLength="27.3056" font-size="9.2955" lengthAdjust="spacingAndGlyphs" text-anchor="middle" opacity="0.01" style="font-family:monospace">10uF</text>
<g class="stroked-text"><desc>10uF</desc>
<path d="M110.4957 97.4730 L106.5119 97.4730 "/>
<path d="M108.5038 97.4730 L108.5038 90.5013 "/>
<path d="M108.5038 90.5013 L107.8398 91.4973 "/>
<path d="M107.8398 91.4973 L107.1758 92.1612 "/>
<path d="M107.1758 92.1612 L106.5119 92.4932 "/>
<path d="M114.8114 90.5013 L115.4754 90.5013 "/>
<path d="M115.4754 90.5013 L116.1394 90.8333 "/>
<path d="M116.1394 90.8333 L116.4714 91.1653 "/>
<path d="M116.4714 91.1653 L116.8033 91.8292 "/>
<path d="M116.8033 91.8292 L117.1353 93.1572 "/>
<path d="M117.1353 93.1572 L117.1353 94.8171 "/>
<path d="M117.1353 94.8171 L116.8033 96.1450 "/>
<path d="M116.8033 96.1450 L116.4714 96.8090 "/>
<path d="M116.4714 96.8090 L116.1394 97.1410 "/>
<path d="M116.1394 97.1410 L115.4754 97.4730 "/>
<path d="M115.4754 97.4730 L114.8114 97.4730 "/>
<path d="M114.8114 97.4730 L114.1475 97.1410 "/>
<path d="M114.1475 97.1410 L113.8155 96.8090 "/>
<path d="M113.8155 96.8090 L113.4835 96.1450 "/>
<path d="M113.4835 96.1450 L113.1515 94.8171 "/>
<path d="M113.1515 94.8171 L113.1515 93.1572 "/>
<path d="M113.1515 93.1572 L113.4835 91.8292 "/>
<path d="M113.4835 91.8292 L113.8155 91.1653 "/>
<path d="M113.8155 91.1653 L114.1475 90.8333 "/>
<path d="M114.1475 90.8333 L114.8114 90.5013 "/>
<path d="M123.1110 92.8252 L123.1110 97.4730 "/>
<path d="M120.1232 92.8252 L120.1232 96.4770 "/>
<path d="M120.1232 96.4770 L120.4552 97.1410 "/>
<path d="M120.4552 97.1410 L121.1191 97.4730 "/>
<path d="M121.1191 97.4730 L122.1151 97.4730 "/>
<path d="M122.1151 97.4730 L122.7790 97.1410 "/>
<path d="M122.7790 97.1410 L123.1110 96.8090 "/>
<path d="M128.7547 93.8211 L126.4309 93.8211 "/>
<path d="M126.4309 97.4730 L126.4309 90.5013 "/>
<path d="M126.4309 90.5013 L129.7507 90.5013 "/>
</g></g>
<g style="fill:#000084; fill-opacity:0.01;  stroke:#000084; stroke-width:0.5577; stroke-opacity:1;  stroke-linecap:round; stroke-linejoin:round;">
<text x="117.9653" y="107.7574" transform="scale(-1 1) translate(-235.930557 0)" textLength="7.7817" font-size="4.6478" lengthAdjust="spacingAndGlyphs" text-anchor="middle" opacity="0.01" style="font-family:monospace">C3</text>
<g class="stroked-text"><desc>C3</desc>
<path d="M117.3843 107.2661 L117.2183 107.4321 "/>
<path d="M117.2183 107.4321 L116.7203 107.5981 "/>
<path d="M116.7203 107.5981 L116.3884 107.5981 "/>
<path d="M116.3884 107.5981 L115.8904 107.4321 "/>
<path d="M115.8904 107.4321 L115.5584 107.1001 "/>
<path d="M115.5584 107.1001 L115.3924 106.7681 "/>
<path d="M115.3924 106.7681 L115.2264 106.1042 "/>
<path d="M115.2264 106.1042 L115.2264 105.6062 "/>
<path d="M115.2264 105.6062 L115.3924 104.9422 "/>
<path d="M115.3924 104.9422 L115.5584 104.6102 "/>
<path d="M115.5584 104.6102 L115.8904 104.2783 "/>
<path d="M115.8904 104.2783 L116.3884 104.1123 "/>
<path d="M116.3884 104.1123 L116.7203 104.1123 "/>
<path d="M116.7203 104.1123 L117.2183 104.2783 "/>
<path d="M117.2183 104.2783 L117.3843 104.4442 "/>
<path d="M118.5463 104.1123 L120.7041 104.1123 "/>
<path d="M120.7041 104.1123 L119.5422 105.4402 "/>
<path d="M119.5422 105.4402 L120.0402 105.4402 "/>
<path d="M120.0402 105.4402 L120.3722 105.6062 "/>
<path d="M120.3722 105.6062 L120.5382 105.7722 "/>
<path d="M120.5382 105.7722 L120.7041 106.1042 "/>
<path d="M120.7041 106.1042 L120.7041 106.9341 "/>
<path d="M120.7041 106.9341 L120.5382 107.2661 "/>
<path d="M120.5382 107.2661 L120.3722 107.4321 "/>
<path d="M120.3722 107.4321 L120.0402 107.5981 "/>
<path d="M120.0402 107.5981 L119.0442 107.5981 "/>
<path d="M119.0442 107.5981 L118.7122 107.4321 "/>
<path d="M118.7122 107.4321 L118.5463 107.2661 "/>
</g></g>
<g style="fill:#000084; fill-opacity:0.0;  stroke:#000084; stroke-width:1.0457; stroke-opacity:1;  stroke-linecap:round; stroke-linejoin:round;">
<g transform="rotate(-90.000000 171.2984 114.9033)">
<text x="171.2984" y="118.3892" transform="scale(-1 1) translate(-342.596781 0)" textLength="16.3502" font-size="9.2955" lengthAdjust="spacingAndGlyphs" text-anchor="middle" opacity="0.01" style="font-family:monospace">M4</text>
</g>
<g class="stroked-text"><desc>M4</desc>
<path d="M168.1276 109.2596 L175.0992 109.2596 "/>
<path d="M175.0992 109.2596 L170.1195 111.5835 "/>
<path d="M170.1195 111.5835 L175.0992 113.9074 "/>
<path d="M175.0992 113.9074 L168.1276 113.9074 "/>
<path d="M172.7753 120.2151 L168.1276 120.2151 "/>
<path d="M175.4312 118.5552 L170.4514 116.8952 "/>
<path d="M170.4514 116.8952 L170.4514 121.2110 "/>
</g><g transform="rotate(-90.000000 206.8538 114.9033)">
<text x="206.8538" y="118.3892" transform="scale(-1 1) translate(-413.707597 0)" textLength="15.3542" font-size="9.2955" lengthAdjust="spacingAndGlyphs" text-anchor="middle" opacity="0.01" style="font-family:monospace">D1</text>
</g>
<g class="stroked-text"><desc>D1</desc>
<path d="M203.6830 109.7576 L210.6546 109.7576 "/>
<path d="M210.6546 109.7576 L210.6546 111.4175 "/>
<path d="M210.6546 111.4175 L210.3226 112.4135 "/>
<path d="M210.3226 112.4135 L209.6587 113.0774 "/>
<path d="M209.6587 113.0774 L208.9947 113.4094 "/>
<path d="M208.9947 113.4094 L207.6668 113.7414 "/>
<path d="M207.6668 113.7414 L206.6708 113.7414 "/>
<path d="M206.6708 113.7414 L205.3429 113.4094 "/>
<path d="M205.3429 113.4094 L204.6789 113.0774 "/>
<path d="M204.6789 113.0774 L204.0149 112.4135 "/>
<path d="M204.0149 112.4135 L203.6830 111.4175 "/>
<path d="M203.6830 111.4175 L203.6830 109.7576 "/>
<path d="M203.6830 120.3811 L203.6830 116.3973 "/>
<path d="M203.6830 118.3892 L210.6546 118.3892 "/>
<path d="M210.6546 118.3892 L209.6587 117.7252 "/>
<path d="M209.6587 117.7252 L208.9947 117.0612 "/>
<path d="M208.9947 117.0612 L208.6627 116.3973 "/>
</g><g transform="rotate(-90.000000 143.9695 87.1910)">
<text x="143.9695" y="90.6769" transform="scale(-1 1) translate(-287.939056 0)" textLength="27.3056" font-size="9.2955" lengthAdjust="spacingAndGlyphs" text-anchor="middle" opacity="0.01" style="font-family:monospace">47uF</text>
</g>
<g class="stroked-text"><desc>47uF</desc>
<path d="M145.4465 79.0574 L140.7987 79.0574 "/>
<path d="M148.1023 77.3975 L143.1226 75.7376 "/>
<path d="M143.1226 75.7376 L143.1226 80.0534 "/>
<path d="M147.7703 82.0453 L147.7703 86.6931 "/>
<path d="M147.7703 86.6931 L140.7987 83.7052 "/>
<path d="M145.4465 92.3368 L140.7987 92.3368 "/>
<path d="M145.4465 89.3489 L141.7946 89.3489 "/>
<path d="M141.7946 89.3489 L141.1307 89.6809 "/>
<path d="M141.1307 89.6809 L140.7987 90.3449 "/>
<path d="M140.7987 90.3449 L140.7987 91.3408 "/>
<path d="M140.7987 91.3408 L141.1307 92.0048 "/>
<path d="M141.1307 92.0048 L141.4627 92.3368 "/>
<path d="M144.4505 97.9805 L144.4505 95.6566 "/>
<path d="M140.7987 95.6566 L147.7703 95.6566 "/>
<path d="M147.7703 95.6566 L147.7703 98.9764 "/>
</g></g>
<g style="fill:#000084; fill-opacity:0.0;  stroke:#000084; stroke-width:0.5577; stroke-opacity:1;  stroke-linecap:round; stroke-linejoin:round;">
<g transform="rotate(-90.000000 132.2572 87.1910)">
<text x="132.2572" y="88.9339" transform="scale(-1 1) translate(-264.514316 0)" textLength="7.7817" font-size="4.6478" lengthAdjust="spacingAndGlyphs" text-anchor="middle" opacity="0.01" style="font-family:monospace">C2</text>
</g>
<g class="stroked-text"><desc>C2</desc>
<path d="M131.0055 86.6101 L130.8395 86.4441 "/>
<path d="M130.8395 86.4441 L130.6736 85.9461 "/>
<path d="M130.6736 85.9461 L130.6736 85.6141 "/>
<path d="M130.6736 85.6141 L130.8395 85.1161 "/>
<path d="M130.8395 85.1161 L131.1715 84.7842 "/>
<path d="M131.1715 84.7842 L131.5035 84.6182 "/>
<path d="M131.5035 84.6182 L132.1675 84.4522 "/>
<path d="M132.1675 84.4522 L132.6655 84.4522 "/>
<path d="M132.6655 84.4522 L133.3294 84.6182 "/>
<path d="M133.3294 84.6182 L133.6614 84.7842 "/>
<path d="M133.6614 84.7842 L133.9934 85.1161 "/>
<path d="M133.9934 85.1161 L134.1594 85.6141 "/>
<path d="M134.1594 85.6141 L134.1594 85.9461 "/>
<path d="M134.1594 85.9461 L133.9934 86.4441 "/>
<path d="M133.9934 86.4441 L133.8274 86.6101 "/>
<path d="M133.8274 87.9380 L133.9934 88.1040 "/>
<path d="M133.9934 88.1040 L134.1594 88.4360 "/>
<path d="M134.1594 88.4360 L134.1594 89.2659 "/>
<path d="M134.1594 89.2659 L133.9934 89.5979 "/>
<path d="M133.9934 89.5979 L133.8274 89.7639 "/>
<path d="M133.8274 89.7639 L133.4954 89.9299 "/>
<path d="M133.4954 89.9299 L133.1634 89.9299 "/>
<path d="M133.1634 89.9299 L132.6655 89.7639 "/>
<path d="M132.6655 89.7639 L130.6736 87.7720 "/>
<path d="M130.6736 87.7720 L130.6736 89.9299 "/>
</g></g>
<g style="fill:#000084; fill-opacity:0.0;  stroke:#000084; stroke-width:1.7708; stroke-opacity:1;  stroke-linecap:round; stroke-linejoin:round;">
<g transform="rotate(-90.000000 149.8397 90.7047)">
<text x="149.8397" y="95.1317" transform="scale(-1 1) translate(-299.679312 0)" textLength="21.2496" font-size="11.8053" lengthAdjust="spacingAndGlyphs" text-anchor="middle" opacity="0.01" style="font-family:monospace">U1</text>
</g>
<g class="stroked-text"><desc>U1</desc>
<path d="M154.6897 83.9588 L147.5222 83.9588 "/>
<path d="M147.5222 83.9588 L146.6790 84.3805 "/>
<path d="M146.6790 84.3805 L146.2573 84.8021 "/>
<path d="M146.2573 84.8021 L145.8357 85.6453 "/>
<path d="M145.8357 85.6453 L145.8357 87.3318 "/>
<path d="M145.8357 87.3318 L146.2573 88.1750 "/>
<path d="M146.2573 88.1750 L146.6790 88.5967 "/>
<path d="M146.6790 88.5967 L147.5222 89.0183 "/>
<path d="M147.5222 89.0183 L154.6897 89.0183 "/>
<path d="M145.8357 97.8723 L145.8357 92.8128 "/>
<path d="M145.8357 95.3425 L154.6897 95.3425 "/>
<path d="M154.6897 95.3425 L153.4249 94.4993 "/>
<path d="M153.4249 94.4993 L152.5816 93.6561 "/>
<path d="M152.5816 93.6561 L152.1600 92.8128 "/>
</g></g>
<g style="fill:#000084; fill-opacity:0.0;  stroke:#000084; stroke-width:1.0457; stroke-opacity:1;  stroke-linecap:round; stroke-linejoin:round;">
<g transform="rotate(-90.000000 84.5014 114.1190)">
<text x="84.5014" y="117.6049" transform="scale(-1 1) translate(-169.002730 0)" textLength="27.3056" font-size="9.2955" lengthAdjust="spacingAndGlyphs" text-anchor="middle" opacity="0.01" style="font-family:monospace">806k</text>
</g>
<g class="stroked-text"><desc>806k</desc>
<path d="M85.3143 103.9935 L85.6463 103.3296 "/>
<path d="M85.6463 103.3296 L85.9783 102.9976 "/>
<path d="M85.9783 102.9976 L86.6423 102.6656 "/>
<path d="M86.6423 102.6656 L86.9742 102.6656 "/>
<path d="M86.9742 102.6656 L87.6382 102.9976 "/>
<path d="M87.6382 102.9976 L87.9702 103.3296 "/>
<path d="M87.9702 103.3296 L88.3022 103.9935 "/>
<path d="M88.3022 103.9935 L88.3022 105.3215 "/>
<path d="M88.3022 105.3215 L87.9702 105.9854 "/>
<path d="M87.9702 105.9854 L87.6382 106.3174 "/>
<path d="M87.6382 106.3174 L86.9742 106.6494 "/>
<path d="M86.9742 106.6494 L86.6423 106.6494 "/>
<path d="M86.6423 106.6494 L85.9783 106.3174 "/>
<path d="M85.9783 106.3174 L85.6463 105.9854 "/>
<path d="M85.6463 105.9854 L85.3143 105.3215 "/>
<path d="M85.3143 105.3215 L85.3143 103.9935 "/>
<path d="M85.3143 103.9935 L84.9823 103.3296 "/>
<path d="M84.9823 103.3296 L84.6504 102.9976 "/>
<path d="M84.6504 102.9976 L83.9864 102.6656 "/>
<path d="M83.9864 102.6656 L82.6585 102.6656 "/>
<path d="M82.6585 102.6656 L81.9945 102.9976 "/>
<path d="M81.9945 102.9976 L81.6625 103.3296 "/>
<path d="M81.6625 103.3296 L81.3305 103.9935 "/>
<path d="M81.3305 103.9935 L81.3305 105.3215 "/>
<path d="M81.3305 105.3215 L81.6625 105.9854 "/>
<path d="M81.6625 105.9854 L81.9945 106.3174 "/>
<path d="M81.9945 106.3174 L82.6585 106.6494 "/>
<path d="M82.6585 106.6494 L83.9864 106.6494 "/>
<path d="M83.9864 106.6494 L84.6504 106.3174 "/>
<path d="M84.6504 106.3174 L84.9823 105.9854 "/>
<path d="M84.9823 105.9854 L85.3143 105.3215 "/>
<path d="M88.3022 110.9652 L88.3022 111.6292 "/>
<path d="M88.3022 111.6292 L87.9702 112.2931 "/>
<path d="M87.9702 112.2931 L87.6382 112.6251 "/>
<path d="M87.6382 112.6251 L86.9742 112.9571 "/>
<path d="M86.9742 112.9571 L85.6463 113.2891 "/>
<path d="M85.6463 113.2891 L83.9864 113.2891 "/>
<path d="M83.9864 113.2891 L82.6585 112.9571 "/>
<path d="M82.6585 112.9571 L81.9945 112.6251 "/>
<path d="M81.9945 112.6251 L81.6625 112.2931 "/>
<path d="M81.6625 112.2931 L81.3305 111.6292 "/>
<path d="M81.3305 111.6292 L81.3305 110.9652 "/>
<path d="M81.3305 110.9652 L81.6625 110.3012 "/>
<path d="M81.6625 110.3012 L81.9945 109.9692 "/>
<path d="M81.9945 109.9692 L82.6585 109.6373 "/>
<path d="M82.6585 109.6373 L83.9864 109.3053 "/>
<path d="M83.9864 109.3053 L85.6463 109.3053 "/>
<path d="M85.6463 109.3053 L86.9742 109.6373 "/>
<path d="M86.9742 109.6373 L87.6382 109.9692 "/>
<path d="M87.6382 109.9692 L87.9702 110.3012 "/>
<path d="M87.9702 110.3012 L88.3022 110.9652 "/>
<path d="M88.3022 119.2648 L88.3022 117.9368 "/>
<path d="M88.3022 117.9368 L87.9702 117.2729 "/>
<path d="M87.9702 117.2729 L87.6382 116.9409 "/>
<path d="M87.6382 116.9409 L86.6423 116.2769 "/>
<path d="M86.6423 116.2769 L85.3143 115.9449 "/>
<path d="M85.3143 115.9449 L82.6585 115.9449 "/>
<path d="M82.6585 115.9449 L81.9945 116.2769 "/>
<path d="M81.9945 116.2769 L81.6625 116.6089 "/>
<path d="M81.6625 116.6089 L81.3305 117.2729 "/>
<path d="M81.3305 117.2729 L81.3305 118.6008 "/>
<path d="M81.3305 118.6008 L81.6625 119.2648 "/>
<path d="M81.6625 119.2648 L81.9945 119.5967 "/>
<path d="M81.9945 119.5967 L82.6585 119.9287 "/>
<path d="M82.6585 119.9287 L84.3184 119.9287 "/>
<path d="M84.3184 119.9287 L84.9823 119.5967 "/>
<path d="M84.9823 119.5967 L85.3143 119.2648 "/>
<path d="M85.3143 119.2648 L85.6463 118.6008 "/>
<path d="M85.6463 118.6008 L85.6463 117.2729 "/>
<path d="M85.6463 117.2729 L85.3143 116.6089 "/>
<path d="M85.3143 116.6089 L84.9823 116.2769 "/>
<path d="M84.9823 116.2769 L84.3184 115.9449 "/>
<path d="M81.3305 122.9166 L88.3022 122.9166 "/>
<path d="M83.9864 123.5806 L81.3305 125.5724 "/>
<path d="M85.9783 125.5724 L83.3224 122.9166 "/>
</g></g>
<g style="fill:#000084; fill-opacity:0.0;  stroke:#000084; stroke-width:0.5577; stroke-opacity:1;  stroke-linecap:round; stroke-linejoin:round;">
<g transform="rotate(-90.000000 96.0046 114.1190)">
<text x="96.0046" y="115.8619" transform="scale(-1 1) translate(-192.009171 0)" textLength="7.7817" font-size="4.6478" lengthAdjust="spacingAndGlyphs" text-anchor="middle" opacity="0.01" style="font-family:monospace">R3</text>
</g>
<g class="stroked-text"><desc>R3</desc>
<path d="M94.4210 113.5381 L96.0809 112.3761 "/>
<path d="M94.4210 111.5462 L97.9068 111.5462 "/>
<path d="M97.9068 111.5462 L97.9068 112.8741 "/>
<path d="M97.9068 112.8741 L97.7408 113.2061 "/>
<path d="M97.7408 113.2061 L97.5748 113.3721 "/>
<path d="M97.5748 113.3721 L97.2428 113.5381 "/>
<path d="M97.2428 113.5381 L96.7449 113.5381 "/>
<path d="M96.7449 113.5381 L96.4129 113.3721 "/>
<path d="M96.4129 113.3721 L96.2469 113.2061 "/>
<path d="M96.2469 113.2061 L96.0809 112.8741 "/>
<path d="M96.0809 112.8741 L96.0809 111.5462 "/>
<path d="M97.9068 114.7000 L97.9068 116.8579 "/>
<path d="M97.9068 116.8579 L96.5789 115.6959 "/>
<path d="M96.5789 115.6959 L96.5789 116.1939 "/>
<path d="M96.5789 116.1939 L96.4129 116.5259 "/>
<path d="M96.4129 116.5259 L96.2469 116.6919 "/>
<path d="M96.2469 116.6919 L95.9149 116.8579 "/>
<path d="M95.9149 116.8579 L95.0849 116.8579 "/>
<path d="M95.0849 116.8579 L94.7530 116.6919 "/>
<path d="M94.7530 116.6919 L94.5870 116.5259 "/>
<path d="M94.5870 116.5259 L94.4210 116.1939 "/>
<path d="M94.4210 116.1939 L94.4210 115.1980 "/>
<path d="M94.4210 115.1980 L94.5870 114.8660 "/>
<path d="M94.5870 114.8660 L94.7530 114.7000 "/>
</g></g>
<g style="fill:#000084; fill-opacity:0.0;  stroke:#000084; stroke-width:1.0457; stroke-opacity:1;  stroke-linecap:round; stroke-linejoin:round;">
<g transform="rotate(-90.000000 179.2600 88.0625)">
<text x="179.2600" y="91.5483" transform="scale(-1 1) translate(-358.520026 0)" textLength="27.3056" font-size="9.2955" lengthAdjust="spacingAndGlyphs" text-anchor="middle" opacity="0.01" style="font-family:monospace">22uF</text>
</g>
<g class="stroked-text"><desc>22uF</desc>
<path d="M182.3969 76.6091 L182.7288 76.9411 "/>
<path d="M182.7288 76.9411 L183.0608 77.6050 "/>
<path d="M183.0608 77.6050 L183.0608 79.2649 "/>
<path d="M183.0608 79.2649 L182.7288 79.9289 "/>
<path d="M182.7288 79.9289 L182.3969 80.2609 "/>
<path d="M182.3969 80.2609 L181.7329 80.5929 "/>
<path d="M181.7329 80.5929 L181.0689 80.5929 "/>
<path d="M181.0689 80.5929 L180.0730 80.2609 "/>
<path d="M180.0730 80.2609 L176.0892 76.2771 "/>
<path d="M176.0892 76.2771 L176.0892 80.5929 "/>
<path d="M182.3969 83.2487 L182.7288 83.5807 "/>
<path d="M182.7288 83.5807 L183.0608 84.2447 "/>
<path d="M183.0608 84.2447 L183.0608 85.9046 "/>
<path d="M183.0608 85.9046 L182.7288 86.5686 "/>
<path d="M182.7288 86.5686 L182.3969 86.9005 "/>
<path d="M182.3969 86.9005 L181.7329 87.2325 "/>
<path d="M181.7329 87.2325 L181.0689 87.2325 "/>
<path d="M181.0689 87.2325 L180.0730 86.9005 "/>
<path d="M180.0730 86.9005 L176.0892 82.9168 "/>
<path d="M176.0892 82.9168 L176.0892 87.2325 "/>
<path d="M180.7369 93.2082 L176.0892 93.2082 "/>
<path d="M180.7369 90.2204 L177.0851 90.2204 "/>
<path d="M177.0851 90.2204 L176.4212 90.5524 "/>
<path d="M176.4212 90.5524 L176.0892 91.2163 "/>
<path d="M176.0892 91.2163 L176.0892 92.2123 "/>
<path d="M176.0892 92.2123 L176.4212 92.8762 "/>
<path d="M176.4212 92.8762 L176.7531 93.2082 "/>
<path d="M179.7410 98.8519 L179.7410 96.5281 "/>
<path d="M176.0892 96.5281 L183.0608 96.5281 "/>
<path d="M183.0608 96.5281 L183.0608 99.8479 "/>
</g></g>
<g style="fill:#000084; fill-opacity:0.0;  stroke:#000084; stroke-width:0.5577; stroke-opacity:1;  stroke-linecap:round; stroke-linejoin:round;">
<g transform="rotate(-90.000000 167.5476 88.0625)">
<text x="167.5476" y="89.8054" transform="scale(-1 1) translate(-335.095287 0)" textLength="7.7817" font-size="4.6478" lengthAdjust="spacingAndGlyphs" text-anchor="middle" opacity="0.01" style="font-family:monospace">C1</text>
</g>
<g class="stroked-text"><desc>C1</desc>
<path d="M166.2960 87.4815 L166.1300 87.3155 "/>
<path d="M166.1300 87.3155 L165.9640 86.8175 "/>
<path d="M165.9640 86.8175 L165.9640 86.4856 "/>
<path d="M165.9640 86.4856 L166.1300 85.9876 "/>
<path d="M166.1300 85.9876 L166.4620 85.6556 "/>
<path d="M166.4620 85.6556 L166.7940 85.4896 "/>
<path d="M166.7940 85.4896 L167.4580 85.3236 "/>
<path d="M167.4580 85.3236 L167.9559 85.3236 "/>
<path d="M167.9559 85.3236 L168.6199 85.4896 "/>
<path d="M168.6199 85.4896 L168.9519 85.6556 "/>
<path d="M168.9519 85.6556 L169.2839 85.9876 "/>
<path d="M169.2839 85.9876 L169.4499 86.4856 "/>
<path d="M169.4499 86.4856 L169.4499 86.8175 "/>
<path d="M169.4499 86.8175 L169.2839 87.3155 "/>
<path d="M169.2839 87.3155 L169.1179 87.4815 "/>
<path d="M165.9640 90.8014 L165.9640 88.8095 "/>
<path d="M165.9640 89.8054 L169.4499 89.8054 "/>
<path d="M169.4499 89.8054 L168.9519 89.4734 "/>
<path d="M168.9519 89.4734 L168.6199 89.1414 "/>
<path d="M168.6199 89.1414 L168.4539 88.8095 "/>
</g></g>
<g style="fill:#000084; fill-opacity:0.0;  stroke:#000084; stroke-width:1.0457; stroke-opacity:1;  stroke-linecap:round; stroke-linejoin:round;">
<g transform="rotate(-90.000000 124.2398 86.9296)">
<text x="124.2398" y="90.4154" transform="scale(-1 1) translate(-248.479524 0)" textLength="20.6660" font-size="9.2955" lengthAdjust="spacingAndGlyphs" text-anchor="middle" opacity="0.01" style="font-family:monospace">91k</text>
</g>
<g class="stroked-text"><desc>91k</desc>
<path d="M121.0689 79.4600 L121.0689 80.7879 "/>
<path d="M121.0689 80.7879 L121.4009 81.4519 "/>
<path d="M121.4009 81.4519 L121.7329 81.7839 "/>
<path d="M121.7329 81.7839 L122.7288 82.4478 "/>
<path d="M122.7288 82.4478 L124.0568 82.7798 "/>
<path d="M124.0568 82.7798 L126.7126 82.7798 "/>
<path d="M126.7126 82.7798 L127.3766 82.4478 "/>
<path d="M127.3766 82.4478 L127.7086 82.1158 "/>
<path d="M127.7086 82.1158 L128.0406 81.4519 "/>
<path d="M128.0406 81.4519 L128.0406 80.1239 "/>
<path d="M128.0406 80.1239 L127.7086 79.4600 "/>
<path d="M127.7086 79.4600 L127.3766 79.1280 "/>
<path d="M127.3766 79.1280 L126.7126 78.7960 "/>
<path d="M126.7126 78.7960 L125.0527 78.7960 "/>
<path d="M125.0527 78.7960 L124.3888 79.1280 "/>
<path d="M124.3888 79.1280 L124.0568 79.4600 "/>
<path d="M124.0568 79.4600 L123.7248 80.1239 "/>
<path d="M123.7248 80.1239 L123.7248 81.4519 "/>
<path d="M123.7248 81.4519 L124.0568 82.1158 "/>
<path d="M124.0568 82.1158 L124.3888 82.4478 "/>
<path d="M124.3888 82.4478 L125.0527 82.7798 "/>
<path d="M121.0689 89.4195 L121.0689 85.4357 "/>
<path d="M121.0689 87.4276 L128.0406 87.4276 "/>
<path d="M128.0406 87.4276 L127.0446 86.7636 "/>
<path d="M127.0446 86.7636 L126.3807 86.0996 "/>
<path d="M126.3807 86.0996 L126.0487 85.4357 "/>
<path d="M121.0689 92.4073 L128.0406 92.4073 "/>
<path d="M123.7248 93.0713 L121.0689 95.0632 "/>
<path d="M125.7167 95.0632 L123.0608 92.4073 "/>
</g></g>
<g style="fill:#000084; fill-opacity:0.0;  stroke:#000084; stroke-width:0.5577; stroke-opacity:1;  stroke-linecap:round; stroke-linejoin:round;">
<g transform="rotate(-90.000000 112.7365 86.9296)">
<text x="112.7365" y="88.6725" transform="scale(-1 1) translate(-225.473084 0)" textLength="7.7817" font-size="4.6478" lengthAdjust="spacingAndGlyphs" text-anchor="middle" opacity="0.01" style="font-family:monospace">R1</text>
</g>
<g class="stroked-text"><desc>R1</desc>
<path d="M111.1529 86.3486 L112.8129 85.1867 "/>
<path d="M111.1529 84.3567 L114.6388 84.3567 "/>
<path d="M114.6388 84.3567 L114.6388 85.6847 "/>
<path d="M114.6388 85.6847 L114.4728 86.0166 "/>
<path d="M114.4728 86.0166 L114.3068 86.1826 "/>
<path d="M114.3068 86.1826 L113.9748 86.3486 "/>
<path d="M113.9748 86.3486 L113.4768 86.3486 "/>
<path d="M113.4768 86.3486 L113.1448 86.1826 "/>
<path d="M113.1448 86.1826 L112.9788 86.0166 "/>
<path d="M112.9788 86.0166 L112.8129 85.6847 "/>
<path d="M112.8129 85.6847 L112.8129 84.3567 "/>
<path d="M111.1529 89.6685 L111.1529 87.6766 "/>
<path d="M111.1529 88.6725 L114.6388 88.6725 "/>
<path d="M114.6388 88.6725 L114.1408 88.3405 "/>
<path d="M114.1408 88.3405 L113.8088 88.0085 "/>
<path d="M113.8088 88.0085 L113.6428 87.6766 "/>
</g></g>
<g style="fill:#000084; fill-opacity:0.01;  stroke:#000084; stroke-width:0.6274; stroke-opacity:1;  stroke-linecap:round; stroke-linejoin:round;">
<text x="149.8397" y="112.3447" transform="scale(-1 1) translate(-299.679312 0)" textLength="8.6336" font-size="5.7632" lengthAdjust="spacingAndGlyphs" text-anchor="middle" opacity="0.01" style="font-family:monospace">L1</text>
<g class="stroked-text"><desc>L1</desc>
<path d="M149.1193 112.1505 L147.0610 112.1505 "/>
<path d="M147.0610 112.1505 L147.0610 107.8281 "/>
<path d="M152.8242 112.1505 L150.3542 112.1505 "/>
<path d="M151.5892 112.1505 L151.5892 107.8281 "/>
<path d="M151.5892 107.8281 L151.1776 108.4456 "/>
<path d="M151.1776 108.4456 L150.7659 108.8573 "/>
<path d="M150.7659 108.8573 L150.3542 109.0631 "/>
</g></g>
<g style="fill:#000084; fill-opacity:0.0;  stroke:#000084; stroke-width:0.6972; stroke-opacity:1;  stroke-linecap:round; stroke-linejoin:round;">
<path d="M150.8192 67.6704 L150.8192 58.9559 "/>
<path d="M150.8192 58.9559 L164.7625 58.9559 "/>
<path d="M164.7625 67.6704 L150.8192 67.6704 "/>
<path d="M164.7625 58.9559 L164.7625 67.6704 "/>
<path d="M189.1632 58.9559 L189.1632 67.6704 "/>
<path d="M189.1632 67.6704 L175.2199 67.6704 "/>
<path d="M175.2199 58.9559 L189.1632 58.9559 "/>
<path d="M175.2199 67.6704 L175.2199 58.9559 "/>
<path d="M100.3619 96.5156 L91.6473 96.5156 "/>
<path d="M91.6473 96.5156 L91.6473 82.5723 "/>
<path d="M100.3619 82.5723 L100.3619 96.5156 "/>
<path d="M91.6473 82.5723 L100.3619 82.5723 "/>
<path d="M124.9369 101.6572 L124.9369 110.3718 "/>
<path d="M124.9369 110.3718 L110.9936 110.3718 "/>
<path d="M110.9936 101.6572 L124.9369 101.6572 "/>
<path d="M110.9936 110.3718 L110.9936 101.6572 "/>
<path d="M178.9672 98.8685 L199.8821 98.8685 "/>
<path d="M189.4176 110.3757 L189.4176 104.0893 "/>
<path d="M189.4176 110.3757 L184.1937 118.3974 "/>
<path d="M189.4176 110.3757 L194.9956 118.3974 "/>
<path d="M194.9956 110.3757 L183.8395 110.3757 "/>
<path d="M184.1937 118.3974 L194.9956 118.3974 "/>
<path d="M189.4176 118.3974 L189.4176 125.3566 "/>
<path d="M178.9672 130.9381 L178.9672 98.8685 "/>
<path d="M199.8821 130.9381 L199.8821 98.8685 "/>
<path d="M199.8821 130.9381 L178.9672 130.9381 "/>
<path d="M136.6144 94.1627 L127.8999 94.1627 "/>
<path d="M127.8999 94.1627 L127.8999 80.2194 "/>
<path d="M136.6144 80.2194 L136.6144 94.1627 "/>
<path d="M127.8999 80.2194 L136.6144 80.2194 "/>
<path d="M157.1599 94.8877 L142.5194 94.8877 "/>
<path d="M146.0052 94.8877 L142.5194 91.4019 "/>
<path d="M142.5194 94.8877 L142.5194 86.5218 "/>
<path d="M157.1599 86.5218 L157.1599 94.8877 "/>
<path d="M142.5194 86.5218 L157.1599 86.5218 "/>
<path d="M91.6473 107.1474 L100.3619 107.1474 "/>
<path d="M100.3619 107.1474 L100.3619 121.0907 "/>
<path d="M91.6473 121.0907 L91.6473 107.1474 "/>
<path d="M100.3619 121.0907 L91.6473 121.0907 "/>
<path d="M171.9049 95.0341 L163.1904 95.0341 "/>
<path d="M163.1904 95.0341 L163.1904 81.0908 "/>
<path d="M171.9049 81.0908 L171.9049 95.0341 "/>
<path d="M163.1904 81.0908 L171.9049 81.0908 "/>
<path d="M117.0938 93.9012 L108.3793 93.9012 "/>
<path d="M108.3793 93.9012 L108.3793 79.9579 "/>
<path d="M117.0938 79.9579 L117.0938 93.9012 "/>
<path d="M108.3793 79.9579 L117.0938 79.9579 "/>
<path d="M158.5542 103.2119 L158.5542 117.1552 "/>
<path d="M158.5542 117.1552 L141.1251 117.1552 "/>
<path d="M141.1251 103.2119 L158.5542 103.2119 "/>
<path d="M141.1251 117.1552 L141.1251 103.2119 "/>
<g>
</g>
<g>
</g>
<g>
</g>
<g>
</g>
<g>
</g>
<g>
</g>
<g>
</g>
<g>
</g>
<g>
</g>
<g>
</g>
<g>
</g>
<g>
</g>
<g>
</g>
<g>
</g>
<g>
</g>
<g>
</g>
<g>
</g>
<g>
</g>
<g>
</g>
<g>
</g>
<g>
</g>
<g>
</g>
<g>
</g>
<g>
</g>
</g> 
<svg:g><svg:g><svg:title>SVG Image created as STEPBUBODC01-Edge_Cuts.svg date 2023/09/17 11:36:17 </svg:title>
  <svg:desc>Image generated by PCBNEW </svg:desc>
<svg:g style="fill:#C2C200; fill-opacity:1.0000;stroke:#C2C200; stroke-opacity:1.0000; stroke-linecap:round; stroke-linejoin:round;" transform="translate(0 0) scale(1 1)">
</svg:g>
<svg:g style="fill:#C2C200; fill-opacity:0.0;  stroke:#C2C200; stroke-width:0.0000; stroke-opacity:1;  stroke-linecap:round; stroke-linejoin:round;">
</svg:g>
<svg:g style="fill:#C2C200; fill-opacity:0.0;  stroke:#C2C200; stroke-width:1.0457; stroke-opacity:1;  stroke-linecap:round; stroke-linejoin:round;">
<svg:path style="fill:#C2C200; fill-opacity:0.0;  stroke:#C2C200; stroke-width:1.0457; stroke-opacity:1;  stroke-linecap:round; stroke-linejoin:round;fill:none" d="M 252.9782,0.5265 44.0240,0.5265 44.0240,209.4807 252.9782,209.4807 Z"/> 
<svg:g>
</svg:g>
<svg:g>
</svg:g>
<svg:g>
</svg:g>
<svg:g>
</svg:g>
<svg:g>
</svg:g>
<svg:g>
</svg:g>
<svg:g>
</svg:g>
<svg:g>
</svg:g>
<svg:g>
</svg:g>
<svg:g>
</svg:g>
<svg:g>
</svg:g>
<svg:g>
</svg:g>
<svg:g>
</svg:g>
<svg:g>
</svg:g>
<svg:g>
</svg:g>
<svg:g>
</svg:g>
<svg:g>
</svg:g>
<svg:g>
</svg:g>
<svg:g>
</svg:g>
<svg:g>
</svg:g>
<svg:g>
</svg:g>
<svg:g>
</svg:g>
<svg:g>
</svg:g>
<svg:g>
</svg:g>
</svg:g> 
</svg:g></svg:g></svg>
