<?xml version='1.0' encoding='ASCII' standalone='yes'?>
<svg xmlns:svg="http://www.w3.org/2000/svg" xmlns="http://www.w3.org/2000/svg" xmlns:xlink="http://www.w3.org/1999/xlink" version="1.1" width="297.0022mm" height="210.0072mm" viewBox="0.0000 0.0000 297.0022 210.0072">
<title>SVG Image created as STEPBUBODC01-B_Fab.svg date 2023/07/20 11:07:41 </title>
  <desc>Image generated by PCBNEW </desc>
<g style="fill:#000084; fill-opacity:1.0000;stroke:#000084; stroke-opacity:1.0000; stroke-linecap:round; stroke-linejoin:round;" transform="translate(0 0) scale(1 1)">
</g>
<g style="fill:#000084; fill-opacity:0.0;  stroke:#000084; stroke-width:0.0000; stroke-opacity:1;  stroke-linecap:round; stroke-linejoin:round;">
</g>
<g style="fill:#000084; fill-opacity:0.01;  stroke:#000084; stroke-width:0.7620; stroke-opacity:1;  stroke-linecap:round; stroke-linejoin:round;">
<text x="125.4631" y="53.1416" transform="scale(-1 1) translate(-250.926244 0)" textLength="8.0229" font-size="4.6548" lengthAdjust="spacingAndGlyphs" text-anchor="middle" opacity="0.01" style="font-family:monospace">R2</text>
<g class="stroked-text"><desc>R2</desc>
<path d="M124.8813 52.9714 L123.7176 51.3090 "/>
<path d="M122.8863 52.9714 L122.8863 49.4803 "/>
<path d="M122.8863 49.4803 L124.2163 49.4803 "/>
<path d="M124.2163 49.4803 L124.5488 49.6465 "/>
<path d="M124.5488 49.6465 L124.7150 49.8128 "/>
<path d="M124.7150 49.8128 L124.8813 50.1453 "/>
<path d="M124.8813 50.1453 L124.8813 50.6440 "/>
<path d="M124.8813 50.6440 L124.7150 50.9765 "/>
<path d="M124.7150 50.9765 L124.5488 51.1427 "/>
<path d="M124.5488 51.1427 L124.2163 51.3090 "/>
<path d="M124.2163 51.3090 L122.8863 51.3090 "/>
<path d="M126.2112 49.8128 L126.3775 49.6465 "/>
<path d="M126.3775 49.6465 L126.7100 49.4803 "/>
<path d="M126.7100 49.4803 L127.5412 49.4803 "/>
<path d="M127.5412 49.4803 L127.8737 49.6465 "/>
<path d="M127.8737 49.6465 L128.0399 49.8128 "/>
<path d="M128.0399 49.8128 L128.2062 50.1453 "/>
<path d="M128.2062 50.1453 L128.2062 50.4778 "/>
<path d="M128.2062 50.4778 L128.0399 50.9765 "/>
<path d="M128.0399 50.9765 L126.0450 52.9714 "/>
<path d="M126.0450 52.9714 L128.2062 52.9714 "/>
</g><text x="126.3492" y="58.0150" transform="scale(-1 1) translate(-252.698396 0)" textLength="14.0077" font-size="4.6548" lengthAdjust="spacingAndGlyphs" text-anchor="middle" opacity="0.01" style="font-family:monospace">511k</text>
<g class="stroked-text"><desc>511k</desc>
<path d="M122.4425 54.3537 L120.7800 54.3537 "/>
<path d="M120.7800 54.3537 L120.6138 56.0162 "/>
<path d="M120.6138 56.0162 L120.7800 55.8499 "/>
<path d="M120.7800 55.8499 L121.1125 55.6837 "/>
<path d="M121.1125 55.6837 L121.9437 55.6837 "/>
<path d="M121.9437 55.6837 L122.2762 55.8499 "/>
<path d="M122.2762 55.8499 L122.4425 56.0162 "/>
<path d="M122.4425 56.0162 L122.6087 56.3487 "/>
<path d="M122.6087 56.3487 L122.6087 57.1799 "/>
<path d="M122.6087 57.1799 L122.4425 57.5124 "/>
<path d="M122.4425 57.5124 L122.2762 57.6786 "/>
<path d="M122.2762 57.6786 L121.9437 57.8449 "/>
<path d="M121.9437 57.8449 L121.1125 57.8449 "/>
<path d="M121.1125 57.8449 L120.7800 57.6786 "/>
<path d="M120.7800 57.6786 L120.6138 57.5124 "/>
<path d="M125.9336 57.8449 L123.9387 57.8449 "/>
<path d="M124.9361 57.8449 L124.9361 54.3537 "/>
<path d="M124.9361 54.3537 L124.6036 54.8525 "/>
<path d="M124.6036 54.8525 L124.2711 55.1849 "/>
<path d="M124.2711 55.1849 L123.9387 55.3512 "/>
<path d="M129.2585 57.8449 L127.2635 57.8449 "/>
<path d="M128.2610 57.8449 L128.2610 54.3537 "/>
<path d="M128.2610 54.3537 L127.9285 54.8525 "/>
<path d="M127.9285 54.8525 L127.5960 55.1849 "/>
<path d="M127.5960 55.1849 L127.2635 55.3512 "/>
<path d="M130.7547 57.8449 L130.7547 54.3537 "/>
<path d="M131.0872 56.5149 L132.0846 57.8449 "/>
<path d="M132.0846 55.5174 L130.7547 56.8474 "/>
</g><g transform="rotate(-90.000000 116.1593 85.5099)">
<text x="116.1593" y="87.2555" transform="scale(-1 1) translate(-232.318649 0)" textLength="8.0229" font-size="4.6548" lengthAdjust="spacingAndGlyphs" text-anchor="middle" opacity="0.01" style="font-family:monospace">C3</text>
</g>
<g class="stroked-text"><desc>C3</desc>
<path d="M114.9164 84.9281 L114.7501 84.7618 "/>
<path d="M114.7501 84.7618 L114.5839 84.2631 "/>
<path d="M114.5839 84.2631 L114.5839 83.9306 "/>
<path d="M114.5839 83.9306 L114.7501 83.4319 "/>
<path d="M114.7501 83.4319 L115.0826 83.0994 "/>
<path d="M115.0826 83.0994 L115.4151 82.9331 "/>
<path d="M115.4151 82.9331 L116.0801 82.7669 "/>
<path d="M116.0801 82.7669 L116.5788 82.7669 "/>
<path d="M116.5788 82.7669 L117.2438 82.9331 "/>
<path d="M117.2438 82.9331 L117.5763 83.0994 "/>
<path d="M117.5763 83.0994 L117.9088 83.4319 "/>
<path d="M117.9088 83.4319 L118.0750 83.9306 "/>
<path d="M118.0750 83.9306 L118.0750 84.2631 "/>
<path d="M118.0750 84.2631 L117.9088 84.7618 "/>
<path d="M117.9088 84.7618 L117.7425 84.9281 "/>
<path d="M118.0750 86.0918 L118.0750 88.2530 "/>
<path d="M118.0750 88.2530 L116.7451 87.0893 "/>
<path d="M116.7451 87.0893 L116.7451 87.5880 "/>
<path d="M116.7451 87.5880 L116.5788 87.9205 "/>
<path d="M116.5788 87.9205 L116.4126 88.0867 "/>
<path d="M116.4126 88.0867 L116.0801 88.2530 "/>
<path d="M116.0801 88.2530 L115.2489 88.2530 "/>
<path d="M115.2489 88.2530 L114.9164 88.0867 "/>
<path d="M114.9164 88.0867 L114.7501 87.9205 "/>
<path d="M114.7501 87.9205 L114.5839 87.5880 "/>
<path d="M114.5839 87.5880 L114.5839 86.5905 "/>
<path d="M114.5839 86.5905 L114.7501 86.2580 "/>
<path d="M114.7501 86.2580 L114.9164 86.0918 "/>
</g><g transform="rotate(-90.000000 121.0327 84.6239)">
<text x="121.0327" y="86.3694" transform="scale(-1 1) translate(-242.065484 0)" textLength="14.0077" font-size="4.6548" lengthAdjust="spacingAndGlyphs" text-anchor="middle" opacity="0.01" style="font-family:monospace">10uF</text>
</g>
<g class="stroked-text"><desc>10uF</desc>
<path d="M119.4573 80.8833 L119.4573 78.8884 "/>
<path d="M119.4573 79.8859 L122.9484 79.8859 "/>
<path d="M122.9484 79.8859 L122.4497 79.5534 "/>
<path d="M122.4497 79.5534 L122.1172 79.2209 "/>
<path d="M122.1172 79.2209 L121.9510 78.8884 "/>
<path d="M122.9484 83.0445 L122.9484 83.3770 "/>
<path d="M122.9484 83.3770 L122.7822 83.7095 "/>
<path d="M122.7822 83.7095 L122.6160 83.8757 "/>
<path d="M122.6160 83.8757 L122.2835 84.0420 "/>
<path d="M122.2835 84.0420 L121.6185 84.2082 "/>
<path d="M121.6185 84.2082 L120.7873 84.2082 "/>
<path d="M120.7873 84.2082 L120.1223 84.0420 "/>
<path d="M120.1223 84.0420 L119.7898 83.8757 "/>
<path d="M119.7898 83.8757 L119.6235 83.7095 "/>
<path d="M119.6235 83.7095 L119.4573 83.3770 "/>
<path d="M119.4573 83.3770 L119.4573 83.0445 "/>
<path d="M119.4573 83.0445 L119.6235 82.7120 "/>
<path d="M119.6235 82.7120 L119.7898 82.5458 "/>
<path d="M119.7898 82.5458 L120.1223 82.3795 "/>
<path d="M120.1223 82.3795 L120.7873 82.2133 "/>
<path d="M120.7873 82.2133 L121.6185 82.2133 "/>
<path d="M121.6185 82.2133 L122.2835 82.3795 "/>
<path d="M122.2835 82.3795 L122.6160 82.5458 "/>
<path d="M122.6160 82.5458 L122.7822 82.7120 "/>
<path d="M122.7822 82.7120 L122.9484 83.0445 "/>
<path d="M121.7847 87.2006 L119.4573 87.2006 "/>
<path d="M121.7847 85.7044 L119.9560 85.7044 "/>
<path d="M119.9560 85.7044 L119.6235 85.8707 "/>
<path d="M119.6235 85.8707 L119.4573 86.2032 "/>
<path d="M119.4573 86.2032 L119.4573 86.7019 "/>
<path d="M119.4573 86.7019 L119.6235 87.0344 "/>
<path d="M119.6235 87.0344 L119.7898 87.2006 "/>
<path d="M121.2860 90.0268 L121.2860 88.8631 "/>
<path d="M119.4573 88.8631 L122.9484 88.8631 "/>
<path d="M122.9484 88.8631 L122.9484 90.5255 "/>
</g><g transform="rotate(-90.000000 130.3365 85.5099)">
<text x="130.3365" y="87.2555" transform="scale(-1 1) translate(-260.673079 0)" textLength="8.0229" font-size="4.6548" lengthAdjust="spacingAndGlyphs" text-anchor="middle" opacity="0.01" style="font-family:monospace">C2</text>
</g>
<g class="stroked-text"><desc>C2</desc>
<path d="M129.0936 84.9281 L128.9273 84.7618 "/>
<path d="M128.9273 84.7618 L128.7611 84.2631 "/>
<path d="M128.7611 84.2631 L128.7611 83.9306 "/>
<path d="M128.7611 83.9306 L128.9273 83.4319 "/>
<path d="M128.9273 83.4319 L129.2598 83.0994 "/>
<path d="M129.2598 83.0994 L129.5923 82.9331 "/>
<path d="M129.5923 82.9331 L130.2573 82.7669 "/>
<path d="M130.2573 82.7669 L130.7560 82.7669 "/>
<path d="M130.7560 82.7669 L131.4210 82.9331 "/>
<path d="M131.4210 82.9331 L131.7535 83.0994 "/>
<path d="M131.7535 83.0994 L132.0860 83.4319 "/>
<path d="M132.0860 83.4319 L132.2522 83.9306 "/>
<path d="M132.2522 83.9306 L132.2522 84.2631 "/>
<path d="M132.2522 84.2631 L132.0860 84.7618 "/>
<path d="M132.0860 84.7618 L131.9198 84.9281 "/>
<path d="M131.9198 86.2580 L132.0860 86.4243 "/>
<path d="M132.0860 86.4243 L132.2522 86.7568 "/>
<path d="M132.2522 86.7568 L132.2522 87.5880 "/>
<path d="M132.2522 87.5880 L132.0860 87.9205 "/>
<path d="M132.0860 87.9205 L131.9198 88.0867 "/>
<path d="M131.9198 88.0867 L131.5873 88.2530 "/>
<path d="M131.5873 88.2530 L131.2548 88.2530 "/>
<path d="M131.2548 88.2530 L130.7560 88.0867 "/>
<path d="M130.7560 88.0867 L128.7611 86.0918 "/>
<path d="M128.7611 86.0918 L128.7611 88.2530 "/>
</g><g transform="rotate(-90.000000 135.2100 84.6239)">
<text x="135.2100" y="86.3694" transform="scale(-1 1) translate(-270.419915 0)" textLength="14.0077" font-size="4.6548" lengthAdjust="spacingAndGlyphs" text-anchor="middle" opacity="0.01" style="font-family:monospace">47uF</text>
</g>
<g class="stroked-text"><desc>47uF</desc>
<path d="M135.9619 80.5509 L133.6345 80.5509 "/>
<path d="M137.2919 79.7196 L134.7982 78.8884 "/>
<path d="M134.7982 78.8884 L134.7982 81.0496 "/>
<path d="M137.1257 82.0471 L137.1257 84.3745 "/>
<path d="M137.1257 84.3745 L133.6345 82.8783 "/>
<path d="M135.9619 87.2006 L133.6345 87.2006 "/>
<path d="M135.9619 85.7044 L134.1333 85.7044 "/>
<path d="M134.1333 85.7044 L133.8008 85.8707 "/>
<path d="M133.8008 85.8707 L133.6345 86.2032 "/>
<path d="M133.6345 86.2032 L133.6345 86.7019 "/>
<path d="M133.6345 86.7019 L133.8008 87.0344 "/>
<path d="M133.8008 87.0344 L133.9670 87.2006 "/>
<path d="M135.4632 90.0268 L135.4632 88.8631 "/>
<path d="M133.6345 88.8631 L137.1257 88.8631 "/>
<path d="M137.1257 88.8631 L137.1257 90.5255 "/>
</g></g>
<g style="fill:#000084; fill-opacity:0.0;  stroke:#000084; stroke-width:1.7722; stroke-opacity:1;  stroke-linecap:round; stroke-linejoin:round;">
<g transform="rotate(-90.000000 150.2732 87.2821)">
<text x="150.2732" y="91.7125" transform="scale(-1 1) translate(-300.546497 0)" textLength="20.3797" font-size="11.8143" lengthAdjust="spacingAndGlyphs" text-anchor="middle" opacity="0.01" style="font-family:monospace">U1</text>
</g>
<g class="stroked-text"><desc>U1</desc>
<path d="M155.1270 80.5310 L147.9540 80.5310 "/>
<path d="M147.9540 80.5310 L147.1101 80.9530 "/>
<path d="M147.1101 80.9530 L146.6882 81.3749 "/>
<path d="M146.6882 81.3749 L146.2662 82.2188 "/>
<path d="M146.2662 82.2188 L146.2662 83.9066 "/>
<path d="M146.2662 83.9066 L146.6882 84.7504 "/>
<path d="M146.6882 84.7504 L147.1101 85.1724 "/>
<path d="M147.1101 85.1724 L147.9540 85.5943 "/>
<path d="M147.9540 85.5943 L155.1270 85.5943 "/>
<path d="M146.2662 94.4551 L146.2662 89.3918 "/>
<path d="M146.2662 91.9234 L155.1270 91.9234 "/>
<path d="M155.1270 91.9234 L153.8612 91.0795 "/>
<path d="M153.8612 91.0795 L153.0173 90.2357 "/>
<path d="M153.0173 90.2357 L152.5954 89.3918 "/>
</g></g>
<g style="fill:#000084; fill-opacity:0.01;  stroke:#000084; stroke-width:0.7620; stroke-opacity:1;  stroke-linecap:round; stroke-linejoin:round;">
<text x="100.6530" y="57.5720" transform="scale(-1 1) translate(-201.305991 0)" textLength="8.0229" font-size="4.6548" lengthAdjust="spacingAndGlyphs" text-anchor="middle" opacity="0.01" style="font-family:monospace">R3</text>
<g class="stroked-text"><desc>R3</desc>
<path d="M100.0711 57.4018 L98.9074 55.7394 "/>
<path d="M98.0762 57.4018 L98.0762 53.9107 "/>
<path d="M98.0762 53.9107 L99.4062 53.9107 "/>
<path d="M99.4062 53.9107 L99.7387 54.0769 "/>
<path d="M99.7387 54.0769 L99.9049 54.2432 "/>
<path d="M99.9049 54.2432 L100.0711 54.5757 "/>
<path d="M100.0711 54.5757 L100.0711 55.0744 "/>
<path d="M100.0711 55.0744 L99.9049 55.4069 "/>
<path d="M99.9049 55.4069 L99.7387 55.5731 "/>
<path d="M99.7387 55.5731 L99.4062 55.7394 "/>
<path d="M99.4062 55.7394 L98.0762 55.7394 "/>
<path d="M101.2349 53.9107 L103.3960 53.9107 "/>
<path d="M103.3960 53.9107 L102.2323 55.2406 "/>
<path d="M102.2323 55.2406 L102.7311 55.2406 "/>
<path d="M102.7311 55.2406 L103.0635 55.4069 "/>
<path d="M103.0635 55.4069 L103.2298 55.5731 "/>
<path d="M103.2298 55.5731 L103.3960 55.9056 "/>
<path d="M103.3960 55.9056 L103.3960 56.7368 "/>
<path d="M103.3960 56.7368 L103.2298 57.0693 "/>
<path d="M103.2298 57.0693 L103.0635 57.2356 "/>
<path d="M103.0635 57.2356 L102.7311 57.4018 "/>
<path d="M102.7311 57.4018 L101.7336 57.4018 "/>
<path d="M101.7336 57.4018 L101.4011 57.2356 "/>
<path d="M101.4011 57.2356 L101.2349 57.0693 "/>
</g><text x="99.7669" y="52.6985" transform="scale(-1 1) translate(-199.533839 0)" textLength="14.0077" font-size="4.6548" lengthAdjust="spacingAndGlyphs" text-anchor="middle" opacity="0.01" style="font-family:monospace">806k</text>
<g class="stroked-text"><desc>806k</desc>
<path d="M94.6965 50.5335 L94.3640 50.3672 "/>
<path d="M94.3640 50.3672 L94.1977 50.2010 "/>
<path d="M94.1977 50.2010 L94.0315 49.8685 "/>
<path d="M94.0315 49.8685 L94.0315 49.7022 "/>
<path d="M94.0315 49.7022 L94.1977 49.3698 "/>
<path d="M94.1977 49.3698 L94.3640 49.2035 "/>
<path d="M94.3640 49.2035 L94.6965 49.0373 "/>
<path d="M94.6965 49.0373 L95.3614 49.0373 "/>
<path d="M95.3614 49.0373 L95.6939 49.2035 "/>
<path d="M95.6939 49.2035 L95.8602 49.3698 "/>
<path d="M95.8602 49.3698 L96.0264 49.7022 "/>
<path d="M96.0264 49.7022 L96.0264 49.8685 "/>
<path d="M96.0264 49.8685 L95.8602 50.2010 "/>
<path d="M95.8602 50.2010 L95.6939 50.3672 "/>
<path d="M95.6939 50.3672 L95.3614 50.5335 "/>
<path d="M95.3614 50.5335 L94.6965 50.5335 "/>
<path d="M94.6965 50.5335 L94.3640 50.6997 "/>
<path d="M94.3640 50.6997 L94.1977 50.8660 "/>
<path d="M94.1977 50.8660 L94.0315 51.1984 "/>
<path d="M94.0315 51.1984 L94.0315 51.8634 "/>
<path d="M94.0315 51.8634 L94.1977 52.1959 "/>
<path d="M94.1977 52.1959 L94.3640 52.3622 "/>
<path d="M94.3640 52.3622 L94.6965 52.5284 "/>
<path d="M94.6965 52.5284 L95.3614 52.5284 "/>
<path d="M95.3614 52.5284 L95.6939 52.3622 "/>
<path d="M95.6939 52.3622 L95.8602 52.1959 "/>
<path d="M95.8602 52.1959 L96.0264 51.8634 "/>
<path d="M96.0264 51.8634 L96.0264 51.1984 "/>
<path d="M96.0264 51.1984 L95.8602 50.8660 "/>
<path d="M95.8602 50.8660 L95.6939 50.6997 "/>
<path d="M95.6939 50.6997 L95.3614 50.5335 "/>
<path d="M98.1876 49.0373 L98.5201 49.0373 "/>
<path d="M98.5201 49.0373 L98.8526 49.2035 "/>
<path d="M98.8526 49.2035 L99.0188 49.3698 "/>
<path d="M99.0188 49.3698 L99.1851 49.7022 "/>
<path d="M99.1851 49.7022 L99.3513 50.3672 "/>
<path d="M99.3513 50.3672 L99.3513 51.1984 "/>
<path d="M99.3513 51.1984 L99.1851 51.8634 "/>
<path d="M99.1851 51.8634 L99.0188 52.1959 "/>
<path d="M99.0188 52.1959 L98.8526 52.3622 "/>
<path d="M98.8526 52.3622 L98.5201 52.5284 "/>
<path d="M98.5201 52.5284 L98.1876 52.5284 "/>
<path d="M98.1876 52.5284 L97.8551 52.3622 "/>
<path d="M97.8551 52.3622 L97.6889 52.1959 "/>
<path d="M97.6889 52.1959 L97.5226 51.8634 "/>
<path d="M97.5226 51.8634 L97.3564 51.1984 "/>
<path d="M97.3564 51.1984 L97.3564 50.3672 "/>
<path d="M97.3564 50.3672 L97.5226 49.7022 "/>
<path d="M97.5226 49.7022 L97.6889 49.3698 "/>
<path d="M97.6889 49.3698 L97.8551 49.2035 "/>
<path d="M97.8551 49.2035 L98.1876 49.0373 "/>
<path d="M102.3437 49.0373 L101.6787 49.0373 "/>
<path d="M101.6787 49.0373 L101.3462 49.2035 "/>
<path d="M101.3462 49.2035 L101.1800 49.3698 "/>
<path d="M101.1800 49.3698 L100.8475 49.8685 "/>
<path d="M100.8475 49.8685 L100.6813 50.5335 "/>
<path d="M100.6813 50.5335 L100.6813 51.8634 "/>
<path d="M100.6813 51.8634 L100.8475 52.1959 "/>
<path d="M100.8475 52.1959 L101.0138 52.3622 "/>
<path d="M101.0138 52.3622 L101.3462 52.5284 "/>
<path d="M101.3462 52.5284 L102.0112 52.5284 "/>
<path d="M102.0112 52.5284 L102.3437 52.3622 "/>
<path d="M102.3437 52.3622 L102.5100 52.1959 "/>
<path d="M102.5100 52.1959 L102.6762 51.8634 "/>
<path d="M102.6762 51.8634 L102.6762 51.0322 "/>
<path d="M102.6762 51.0322 L102.5100 50.6997 "/>
<path d="M102.5100 50.6997 L102.3437 50.5335 "/>
<path d="M102.3437 50.5335 L102.0112 50.3672 "/>
<path d="M102.0112 50.3672 L101.3462 50.3672 "/>
<path d="M101.3462 50.3672 L101.0138 50.5335 "/>
<path d="M101.0138 50.5335 L100.8475 50.6997 "/>
<path d="M100.8475 50.6997 L100.6813 51.0322 "/>
<path d="M104.1724 52.5284 L104.1724 49.0373 "/>
<path d="M104.5049 51.1984 L105.5024 52.5284 "/>
<path d="M105.5024 50.2010 L104.1724 51.5309 "/>
</g><g transform="rotate(-90.000000 165.7796 85.5099)">
<text x="165.7796" y="87.2555" transform="scale(-1 1) translate(-331.559155 0)" textLength="8.0229" font-size="4.6548" lengthAdjust="spacingAndGlyphs" text-anchor="middle" opacity="0.01" style="font-family:monospace">C1</text>
</g>
<g class="stroked-text"><desc>C1</desc>
<path d="M164.5366 84.9281 L164.3704 84.7618 "/>
<path d="M164.3704 84.7618 L164.2041 84.2631 "/>
<path d="M164.2041 84.2631 L164.2041 83.9306 "/>
<path d="M164.2041 83.9306 L164.3704 83.4319 "/>
<path d="M164.3704 83.4319 L164.7029 83.0994 "/>
<path d="M164.7029 83.0994 L165.0354 82.9331 "/>
<path d="M165.0354 82.9331 L165.7003 82.7669 "/>
<path d="M165.7003 82.7669 L166.1991 82.7669 "/>
<path d="M166.1991 82.7669 L166.8641 82.9331 "/>
<path d="M166.8641 82.9331 L167.1965 83.0994 "/>
<path d="M167.1965 83.0994 L167.5290 83.4319 "/>
<path d="M167.5290 83.4319 L167.6953 83.9306 "/>
<path d="M167.6953 83.9306 L167.6953 84.2631 "/>
<path d="M167.6953 84.2631 L167.5290 84.7618 "/>
<path d="M167.5290 84.7618 L167.3628 84.9281 "/>
<path d="M164.2041 88.2530 L164.2041 86.2580 "/>
<path d="M164.2041 87.2555 L167.6953 87.2555 "/>
<path d="M167.6953 87.2555 L167.1965 86.9230 "/>
<path d="M167.1965 86.9230 L166.8641 86.5905 "/>
<path d="M166.8641 86.5905 L166.6978 86.2580 "/>
</g><g transform="rotate(-90.000000 170.6530 84.6239)">
<text x="170.6530" y="86.3694" transform="scale(-1 1) translate(-341.305991 0)" textLength="14.0077" font-size="4.6548" lengthAdjust="spacingAndGlyphs" text-anchor="middle" opacity="0.01" style="font-family:monospace">22uF</text>
</g>
<g class="stroked-text"><desc>22uF</desc>
<path d="M172.2362 78.8884 L172.4025 79.0547 "/>
<path d="M172.4025 79.0547 L172.5687 79.3871 "/>
<path d="M172.5687 79.3871 L172.5687 80.2184 "/>
<path d="M172.5687 80.2184 L172.4025 80.5509 "/>
<path d="M172.4025 80.5509 L172.2362 80.7171 "/>
<path d="M172.2362 80.7171 L171.9037 80.8833 "/>
<path d="M171.9037 80.8833 L171.5712 80.8833 "/>
<path d="M171.5712 80.8833 L171.0725 80.7171 "/>
<path d="M171.0725 80.7171 L169.0776 78.7222 "/>
<path d="M169.0776 78.7222 L169.0776 80.8833 "/>
<path d="M172.2362 82.2133 L172.4025 82.3795 "/>
<path d="M172.4025 82.3795 L172.5687 82.7120 "/>
<path d="M172.5687 82.7120 L172.5687 83.5433 "/>
<path d="M172.5687 83.5433 L172.4025 83.8757 "/>
<path d="M172.4025 83.8757 L172.2362 84.0420 "/>
<path d="M172.2362 84.0420 L171.9037 84.2082 "/>
<path d="M171.9037 84.2082 L171.5712 84.2082 "/>
<path d="M171.5712 84.2082 L171.0725 84.0420 "/>
<path d="M171.0725 84.0420 L169.0776 82.0471 "/>
<path d="M169.0776 82.0471 L169.0776 84.2082 "/>
<path d="M171.4050 87.2006 L169.0776 87.2006 "/>
<path d="M171.4050 85.7044 L169.5763 85.7044 "/>
<path d="M169.5763 85.7044 L169.2438 85.8707 "/>
<path d="M169.2438 85.8707 L169.0776 86.2032 "/>
<path d="M169.0776 86.2032 L169.0776 86.7019 "/>
<path d="M169.0776 86.7019 L169.2438 87.0344 "/>
<path d="M169.2438 87.0344 L169.4100 87.2006 "/>
<path d="M170.9063 90.0268 L170.9063 88.8631 "/>
<path d="M169.0776 88.8631 L172.5687 88.8631 "/>
<path d="M172.5687 88.8631 L172.5687 90.5255 "/>
</g><g transform="rotate(-90.000000 142.7416 57.1555)">
<text x="142.7416" y="58.9011" transform="scale(-1 1) translate(-285.483206 0)" textLength="8.0229" font-size="4.6548" lengthAdjust="spacingAndGlyphs" text-anchor="middle" opacity="0.01" style="font-family:monospace">R1</text>
</g>
<g class="stroked-text"><desc>R1</desc>
<path d="M141.1662 56.5736 L142.8286 55.4099 "/>
<path d="M141.1662 54.5787 L144.6573 54.5787 "/>
<path d="M144.6573 54.5787 L144.6573 55.9087 "/>
<path d="M144.6573 55.9087 L144.4911 56.2412 "/>
<path d="M144.4911 56.2412 L144.3248 56.4074 "/>
<path d="M144.3248 56.4074 L143.9923 56.5736 "/>
<path d="M143.9923 56.5736 L143.4936 56.5736 "/>
<path d="M143.4936 56.5736 L143.1611 56.4074 "/>
<path d="M143.1611 56.4074 L142.9949 56.2412 "/>
<path d="M142.9949 56.2412 L142.8286 55.9087 "/>
<path d="M142.8286 55.9087 L142.8286 54.5787 "/>
<path d="M141.1662 59.8985 L141.1662 57.9036 "/>
<path d="M141.1662 58.9011 L144.6573 58.9011 "/>
<path d="M144.6573 58.9011 L144.1586 58.5686 "/>
<path d="M144.1586 58.5686 L143.8261 58.2361 "/>
<path d="M143.8261 58.2361 L143.6598 57.9036 "/>
</g><g transform="rotate(-90.000000 147.6150 56.2694)">
<text x="147.6150" y="58.0150" transform="scale(-1 1) translate(-295.230041 0)" textLength="10.6828" font-size="4.6548" lengthAdjust="spacingAndGlyphs" text-anchor="middle" opacity="0.01" style="font-family:monospace">91k</text>
</g>
<g class="stroked-text"><desc>91k</desc>
<path d="M146.0396 52.5289 L146.0396 53.1939 "/>
<path d="M146.0396 53.1939 L146.2058 53.5264 "/>
<path d="M146.2058 53.5264 L146.3721 53.6926 "/>
<path d="M146.3721 53.6926 L146.8708 54.0251 "/>
<path d="M146.8708 54.0251 L147.5358 54.1914 "/>
<path d="M147.5358 54.1914 L148.8657 54.1914 "/>
<path d="M148.8657 54.1914 L149.1982 54.0251 "/>
<path d="M149.1982 54.0251 L149.3645 53.8589 "/>
<path d="M149.3645 53.8589 L149.5307 53.5264 "/>
<path d="M149.5307 53.5264 L149.5307 52.8614 "/>
<path d="M149.5307 52.8614 L149.3645 52.5289 "/>
<path d="M149.3645 52.5289 L149.1982 52.3627 "/>
<path d="M149.1982 52.3627 L148.8657 52.1964 "/>
<path d="M148.8657 52.1964 L148.0345 52.1964 "/>
<path d="M148.0345 52.1964 L147.7020 52.3627 "/>
<path d="M147.7020 52.3627 L147.5358 52.5289 "/>
<path d="M147.5358 52.5289 L147.3695 52.8614 "/>
<path d="M147.3695 52.8614 L147.3695 53.5264 "/>
<path d="M147.3695 53.5264 L147.5358 53.8589 "/>
<path d="M147.5358 53.8589 L147.7020 54.0251 "/>
<path d="M147.7020 54.0251 L148.0345 54.1914 "/>
<path d="M146.0396 57.5163 L146.0396 55.5213 "/>
<path d="M146.0396 56.5188 L149.5307 56.5188 "/>
<path d="M149.5307 56.5188 L149.0320 56.1863 "/>
<path d="M149.0320 56.1863 L148.6995 55.8538 "/>
<path d="M148.6995 55.8538 L148.5333 55.5213 "/>
<path d="M146.0396 59.0125 L149.5307 59.0125 "/>
<path d="M147.3695 59.3449 L146.0396 60.3424 "/>
<path d="M148.3670 60.3424 L147.0371 59.0125 "/>
</g></g>
<g style="fill:#000084; fill-opacity:0.01;  stroke:#000084; stroke-width:0.6279; stroke-opacity:1;  stroke-linecap:round; stroke-linejoin:round;">
<text x="150.2732" y="108.9386" transform="scale(-1 1) translate(-300.546497 0)" textLength="8.3262" font-size="5.7676" lengthAdjust="spacingAndGlyphs" text-anchor="middle" opacity="0.01" style="font-family:monospace">L1</text>
<g class="stroked-text"><desc>L1</desc>
<path d="M149.5523 108.7443 L147.4924 108.7443 "/>
<path d="M147.4924 108.7443 L147.4924 104.4185 "/>
<path d="M153.2601 108.7443 L150.7882 108.7443 "/>
<path d="M152.0241 108.7443 L152.0241 104.4185 "/>
<path d="M152.0241 104.4185 L151.6122 105.0365 "/>
<path d="M151.6122 105.0365 L151.2002 105.4485 "/>
<path d="M151.2002 105.4485 L150.7882 105.6545 "/>
</g></g>
<g style="fill:#000084; fill-opacity:0.0;  stroke:#000084; stroke-width:1.0465; stroke-opacity:1;  stroke-linecap:round; stroke-linejoin:round;">
<path d="M121.9188 58.9277 L114.8302 58.9277 "/>
<path d="M114.8302 48.2947 L121.9188 48.2947 "/>
<path d="M114.8302 58.9277 L114.8302 48.2947 "/>
<path d="M136.0960 58.9277 L129.0074 58.9277 "/>
<path d="M136.0960 48.2947 L136.0960 58.9277 "/>
<path d="M129.0074 48.2947 L136.0960 48.2947 "/>
<path d="M113.0581 96.1428 L113.0581 89.0542 "/>
<path d="M123.6910 74.8770 L123.6910 81.9656 "/>
<path d="M113.0581 74.8770 L123.6910 74.8770 "/>
<path d="M123.6910 89.0542 L123.6910 96.1428 "/>
<path d="M113.0581 81.9656 L113.0581 74.8770 "/>
<path d="M123.6910 96.1428 L113.0581 96.1428 "/>
<path d="M137.8682 74.8770 L137.8682 81.9656 "/>
<path d="M127.2353 74.8770 L137.8682 74.8770 "/>
<path d="M127.2353 81.9656 L127.2353 74.8770 "/>
<path d="M127.2353 96.1428 L127.2353 89.0542 "/>
<path d="M137.8682 96.1428 L127.2353 96.1428 "/>
<path d="M137.8682 89.0542 L137.8682 96.1428 "/>
</g>
<g style="fill:#000084; fill-opacity:0.0;  stroke:#000084; stroke-width:0.6977; stroke-opacity:1;  stroke-linecap:round; stroke-linejoin:round;">
<path d="M157.5991 83.0959 L157.5991 91.4683 "/>
<path d="M142.9474 91.4683 L142.9474 83.0959 "/>
<path d="M142.9474 83.0959 L157.5991 83.0959 "/>
<path d="M146.4359 91.4683 L142.9474 87.9798 "/>
<path d="M157.5991 91.4683 L142.9474 91.4683 "/>
</g>
<g style="fill:#000084; fill-opacity:0.0;  stroke:#000084; stroke-width:1.0465; stroke-opacity:1;  stroke-linecap:round; stroke-linejoin:round;">
<path d="M111.2859 48.2947 L111.2859 58.9277 "/>
<path d="M97.1087 58.9277 L90.0201 58.9277 "/>
<path d="M104.1973 48.2947 L111.2859 48.2947 "/>
<path d="M90.0201 48.2947 L97.1087 48.2947 "/>
<path d="M111.2859 58.9277 L104.1973 58.9277 "/>
<path d="M90.0201 58.9277 L90.0201 48.2947 "/>
<path d="M162.6783 74.8770 L173.3112 74.8770 "/>
<path d="M173.3112 74.8770 L173.3112 81.9656 "/>
<path d="M173.3112 96.1428 L162.6783 96.1428 "/>
<path d="M162.6783 81.9656 L162.6783 74.8770 "/>
<path d="M173.3112 89.0542 L173.3112 96.1428 "/>
<path d="M162.6783 96.1428 L162.6783 89.0542 "/>
<path d="M150.2732 67.7884 L139.6403 67.7884 "/>
<path d="M139.6403 67.7884 L139.6403 60.6998 "/>
<path d="M139.6403 53.6112 L139.6403 46.5226 "/>
<path d="M150.2732 60.6998 L150.2732 67.7884 "/>
<path d="M150.2732 46.5226 L150.2732 53.6112 "/>
<path d="M139.6403 46.5226 L150.2732 46.5226 "/>
</g>
<g style="fill:#000084; fill-opacity:0.0;  stroke:#000084; stroke-width:0.6977; stroke-opacity:1;  stroke-linecap:round; stroke-linejoin:round;">
<path d="M158.9945 99.7988 L158.9945 113.7527 "/>
<path d="M141.5520 113.7527 L141.5520 99.7988 "/>
<path d="M141.5520 99.7988 L158.9945 99.7988 "/>
<path d="M158.9945 113.7527 L141.5520 113.7527 "/>
<g>
</g>
<g>
</g>
<g>
</g>
<g>
</g>
<g>
</g>
<g>
</g>
<g>
</g>
<g>
</g>
<g>
</g>
<g>
</g>
<g>
</g>
<g>
</g>
<g>
</g>
<g>
</g>
<g>
</g>
<g>
</g>
<g>
</g>
<g>
</g>
<g>
</g>
<g>
</g>
<g>
</g>
</g> 
<svg:g><svg:g><svg:title>SVG Image created as STEPBUBODC01-Edge_Cuts.svg date 2023/07/20 11:07:41 </svg:title>
  <svg:desc>Image generated by PCBNEW </svg:desc>
<svg:g style="fill:#C2C200; fill-opacity:1.0000;stroke:#C2C200; stroke-opacity:1.0000; stroke-linecap:round; stroke-linejoin:round;" transform="translate(0 0) scale(1 1)">
</svg:g>
<svg:g style="fill:#C2C200; fill-opacity:0.0;  stroke:#C2C200; stroke-width:0.0000; stroke-opacity:1;  stroke-linecap:round; stroke-linejoin:round;">
</svg:g>
<svg:g style="fill:#C2C200; fill-opacity:0.0;  stroke:#C2C200; stroke-width:0.8861; stroke-opacity:1;  stroke-linecap:round; stroke-linejoin:round;">
<svg:path d="M288.5011 0.4466 L288.5011 209.5606 "/>
<svg:path d="M288.5011 209.5606 L8.5011 209.5606 "/>
<svg:path d="M8.5011 0.4466 L288.5011 0.4466 "/>
<svg:path d="M8.5011 209.5606 L8.5011 0.4466 "/>
<svg:g>
</svg:g>
<svg:g>
</svg:g>
<svg:g>
</svg:g>
<svg:g>
</svg:g>
<svg:g>
</svg:g>
<svg:g>
</svg:g>
<svg:g>
</svg:g>
<svg:g>
</svg:g>
<svg:g>
</svg:g>
<svg:g>
</svg:g>
<svg:g>
</svg:g>
<svg:g>
</svg:g>
<svg:g>
</svg:g>
<svg:g>
</svg:g>
<svg:g>
</svg:g>
<svg:g>
</svg:g>
<svg:g>
</svg:g>
<svg:g>
</svg:g>
<svg:g>
</svg:g>
<svg:g>
</svg:g>
<svg:g>
</svg:g>
</svg:g> 
</svg:g></svg:g></svg>
