<?xml version='1.0' encoding='ASCII' standalone='yes'?>
<svg xmlns:svg="http://www.w3.org/2000/svg" xmlns="http://www.w3.org/2000/svg" xmlns:xlink="http://www.w3.org/1999/xlink" version="1.1" width="297.0022mm" height="210.0072mm" viewBox="0.0000 0.0000 297.0022 210.0072">
<title>SVG Image created as STEPBUBODC01-F_Fab.svg date 2023/09/11 00:45:26 </title>
  <desc>Image generated by PCBNEW </desc>
<g style="fill:#848484; fill-opacity:1.0000;stroke:#848484; stroke-opacity:1.0000; stroke-linecap:round; stroke-linejoin:round;" transform="translate(0 0) scale(1 1)">
</g>
<g style="fill:#848484; fill-opacity:0.0;  stroke:#848484; stroke-width:0.0000; stroke-opacity:1;  stroke-linecap:round; stroke-linejoin:round;">
</g>
<g style="fill:#848484; fill-opacity:0.01;  stroke:#848484; stroke-width:1.0457; stroke-opacity:1;  stroke-linecap:round; stroke-linejoin:round;">
<g transform="rotate(-90.000000 220.8668 99.4960)">
<text x="220.8668" y="102.9818" textLength="20.6660" font-size="9.2955" lengthAdjust="spacingAndGlyphs" text-anchor="middle" opacity="0.01" style="font-family:monospace">JP4</text>
</g>
<g class="stroked-text"><desc>JP4</desc>
<path d="M217.0660 105.3057 L222.0457 105.3057 "/>
<path d="M222.0457 105.3057 L223.0417 105.6377 "/>
<path d="M223.0417 105.6377 L223.7057 106.3016 "/>
<path d="M223.7057 106.3016 L224.0377 107.2976 "/>
<path d="M224.0377 107.2976 L224.0377 107.9616 "/>
<path d="M224.0377 101.9859 L217.0660 101.9859 "/>
<path d="M217.0660 101.9859 L217.0660 99.3300 "/>
<path d="M217.0660 99.3300 L217.3980 98.6660 "/>
<path d="M217.3980 98.6660 L217.7300 98.3341 "/>
<path d="M217.7300 98.3341 L218.3939 98.0021 "/>
<path d="M218.3939 98.0021 L219.3899 98.0021 "/>
<path d="M219.3899 98.0021 L220.0538 98.3341 "/>
<path d="M220.0538 98.3341 L220.3858 98.6660 "/>
<path d="M220.3858 98.6660 L220.7178 99.3300 "/>
<path d="M220.7178 99.3300 L220.7178 101.9859 "/>
<path d="M219.3899 92.0264 L224.0377 92.0264 "/>
<path d="M216.7340 93.6863 L221.7138 95.3462 "/>
<path d="M221.7138 95.3462 L221.7138 91.0304 "/>
</g><g transform="rotate(-90.000000 71.1855 103.0515)">
<text x="71.1855" y="106.5374" textLength="13.6943" font-size="9.2955" lengthAdjust="spacingAndGlyphs" text-anchor="middle" opacity="0.01" style="font-family:monospace">J2</text>
</g>
<g class="stroked-text"><desc>J2</desc>
<path d="M67.3847 105.3754 L72.3645 105.3754 "/>
<path d="M72.3645 105.3754 L73.3604 105.7074 "/>
<path d="M73.3604 105.7074 L74.0244 106.3714 "/>
<path d="M74.0244 106.3714 L74.3564 107.3673 "/>
<path d="M74.3564 107.3673 L74.3564 108.0313 "/>
<path d="M68.0487 102.3876 L67.7167 102.0556 "/>
<path d="M67.7167 102.0556 L67.3847 101.3916 "/>
<path d="M67.3847 101.3916 L67.3847 99.7317 "/>
<path d="M67.3847 99.7317 L67.7167 99.0677 "/>
<path d="M67.7167 99.0677 L68.0487 98.7358 "/>
<path d="M68.0487 98.7358 L68.7126 98.4038 "/>
<path d="M68.7126 98.4038 L69.3766 98.4038 "/>
<path d="M69.3766 98.4038 L70.3726 98.7358 "/>
<path d="M70.3726 98.7358 L74.3564 102.7195 "/>
<path d="M74.3564 102.7195 L74.3564 98.4038 "/>
</g><g transform="rotate(-90.000000 135.4641 32.9516)">
<text x="135.4641" y="36.4374" textLength="20.6660" font-size="9.2955" lengthAdjust="spacingAndGlyphs" text-anchor="middle" opacity="0.01" style="font-family:monospace">JP2</text>
</g>
<g class="stroked-text"><desc>JP2</desc>
<path d="M131.6633 38.7613 L136.6431 38.7613 "/>
<path d="M136.6431 38.7613 L137.6390 39.0933 "/>
<path d="M137.6390 39.0933 L138.3030 39.7573 "/>
<path d="M138.3030 39.7573 L138.6350 40.7532 "/>
<path d="M138.6350 40.7532 L138.6350 41.4172 "/>
<path d="M138.6350 35.4415 L131.6633 35.4415 "/>
<path d="M131.6633 35.4415 L131.6633 32.7856 "/>
<path d="M131.6633 32.7856 L131.9953 32.1216 "/>
<path d="M131.9953 32.1216 L132.3273 31.7897 "/>
<path d="M132.3273 31.7897 L132.9912 31.4577 "/>
<path d="M132.9912 31.4577 L133.9872 31.4577 "/>
<path d="M133.9872 31.4577 L134.6512 31.7897 "/>
<path d="M134.6512 31.7897 L134.9831 32.1216 "/>
<path d="M134.9831 32.1216 L135.3151 32.7856 "/>
<path d="M135.3151 32.7856 L135.3151 35.4415 "/>
<path d="M132.3273 28.8018 L131.9953 28.4698 "/>
<path d="M131.9953 28.4698 L131.6633 27.8059 "/>
<path d="M131.6633 27.8059 L131.6633 26.1459 "/>
<path d="M131.6633 26.1459 L131.9953 25.4820 "/>
<path d="M131.9953 25.4820 L132.3273 25.1500 "/>
<path d="M132.3273 25.1500 L132.9912 24.8180 "/>
<path d="M132.9912 24.8180 L133.6552 24.8180 "/>
<path d="M133.6552 24.8180 L134.6512 25.1500 "/>
<path d="M134.6512 25.1500 L138.6350 29.1338 "/>
<path d="M138.6350 29.1338 L138.6350 24.8180 "/>
</g><text x="154.3921" y="185.6656" textLength="13.6943" font-size="9.2955" lengthAdjust="spacingAndGlyphs" text-anchor="middle" opacity="0.01" style="font-family:monospace">J5</text>
<g class="stroked-text"><desc>J5</desc>
<path d="M152.0683 178.3789 L152.0683 183.3587 "/>
<path d="M152.0683 183.3587 L151.7363 184.3546 "/>
<path d="M151.7363 184.3546 L151.0723 185.0186 "/>
<path d="M151.0723 185.0186 L150.0764 185.3506 "/>
<path d="M150.0764 185.3506 L149.4124 185.3506 "/>
<path d="M158.7079 178.3789 L155.3881 178.3789 "/>
<path d="M155.3881 178.3789 L155.0561 181.6988 "/>
<path d="M155.0561 181.6988 L155.3881 181.3668 "/>
<path d="M155.3881 181.3668 L156.0521 181.0348 "/>
<path d="M156.0521 181.0348 L157.7120 181.0348 "/>
<path d="M157.7120 181.0348 L158.3759 181.3668 "/>
<path d="M158.3759 181.3668 L158.7079 181.6988 "/>
<path d="M158.7079 181.6988 L159.0399 182.3627 "/>
<path d="M159.0399 182.3627 L159.0399 184.0226 "/>
<path d="M159.0399 184.0226 L158.7079 184.6866 "/>
<path d="M158.7079 184.6866 L158.3759 185.0186 "/>
<path d="M158.3759 185.0186 L157.7120 185.3506 "/>
<path d="M157.7120 185.3506 L156.0521 185.3506 "/>
<path d="M156.0521 185.3506 L155.3881 185.0186 "/>
<path d="M155.3881 185.0186 L155.0561 184.6866 "/>
</g><g transform="rotate(-90.000000 162.8278 33.0213)">
<text x="162.8278" y="36.5071" textLength="20.6660" font-size="9.2955" lengthAdjust="spacingAndGlyphs" text-anchor="middle" opacity="0.01" style="font-family:monospace">JP1</text>
</g>
<g class="stroked-text"><desc>JP1</desc>
<path d="M159.0270 38.8310 L164.0068 38.8310 "/>
<path d="M164.0068 38.8310 L165.0027 39.1630 "/>
<path d="M165.0027 39.1630 L165.6667 39.8270 "/>
<path d="M165.6667 39.8270 L165.9987 40.8229 "/>
<path d="M165.9987 40.8229 L165.9987 41.4869 "/>
<path d="M165.9987 35.5112 L159.0270 35.5112 "/>
<path d="M159.0270 35.5112 L159.0270 32.8553 "/>
<path d="M159.0270 32.8553 L159.3590 32.1914 "/>
<path d="M159.3590 32.1914 L159.6910 31.8594 "/>
<path d="M159.6910 31.8594 L160.3550 31.5274 "/>
<path d="M160.3550 31.5274 L161.3509 31.5274 "/>
<path d="M161.3509 31.5274 L162.0149 31.8594 "/>
<path d="M162.0149 31.8594 L162.3469 32.1914 "/>
<path d="M162.3469 32.1914 L162.6788 32.8553 "/>
<path d="M162.6788 32.8553 L162.6788 35.5112 "/>
<path d="M165.9987 24.8877 L165.9987 28.8715 "/>
<path d="M165.9987 26.8796 L159.0270 26.8796 "/>
<path d="M159.0270 26.8796 L160.0230 27.5436 "/>
<path d="M160.0230 27.5436 L160.6869 28.2076 "/>
<path d="M160.6869 28.2076 L161.0189 28.8715 "/>
</g><text x="154.3921" y="150.2496" textLength="13.6943" font-size="9.2955" lengthAdjust="spacingAndGlyphs" text-anchor="middle" opacity="0.01" style="font-family:monospace">J6</text>
<g class="stroked-text"><desc>J6</desc>
<path d="M152.0683 142.9630 L152.0683 147.9427 "/>
<path d="M152.0683 147.9427 L151.7363 148.9387 "/>
<path d="M151.7363 148.9387 L151.0723 149.6026 "/>
<path d="M151.0723 149.6026 L150.0764 149.9346 "/>
<path d="M150.0764 149.9346 L149.4124 149.9346 "/>
<path d="M158.3759 142.9630 L157.0480 142.9630 "/>
<path d="M157.0480 142.9630 L156.3840 143.2949 "/>
<path d="M156.3840 143.2949 L156.0521 143.6269 "/>
<path d="M156.0521 143.6269 L155.3881 144.6229 "/>
<path d="M155.3881 144.6229 L155.0561 145.9508 "/>
<path d="M155.0561 145.9508 L155.0561 148.6067 "/>
<path d="M155.0561 148.6067 L155.3881 149.2706 "/>
<path d="M155.3881 149.2706 L155.7201 149.6026 "/>
<path d="M155.7201 149.6026 L156.3840 149.9346 "/>
<path d="M156.3840 149.9346 L157.7120 149.9346 "/>
<path d="M157.7120 149.9346 L158.3759 149.6026 "/>
<path d="M158.3759 149.6026 L158.7079 149.2706 "/>
<path d="M158.7079 149.2706 L159.0399 148.6067 "/>
<path d="M159.0399 148.6067 L159.0399 146.9468 "/>
<path d="M159.0399 146.9468 L158.7079 146.2828 "/>
<path d="M158.7079 146.2828 L158.3759 145.9508 "/>
<path d="M158.3759 145.9508 L157.7120 145.6188 "/>
<path d="M157.7120 145.6188 L156.3840 145.6188 "/>
<path d="M156.3840 145.6188 L155.7201 145.9508 "/>
<path d="M155.7201 145.9508 L155.3881 146.2828 "/>
<path d="M155.3881 146.2828 L155.0561 146.9468 "/>
</g></g>
<g style="fill:#848484; fill-opacity:0.0;  stroke:#848484; stroke-width:0.6972; stroke-opacity:1;  stroke-linecap:round; stroke-linejoin:round;">
<path d="M212.0128 77.3610 L216.4398 72.9340 "/>
<path d="M212.0128 126.0580 L212.0128 77.3610 "/>
<path d="M216.4398 72.9340 L229.7208 72.9340 "/>
<path d="M229.7208 72.9340 L229.7208 126.0580 "/>
<path d="M229.7208 126.0580 L212.0128 126.0580 "/>
<path d="M53.4775 85.3435 L62.3315 76.4896 "/>
<path d="M53.4775 129.6135 L53.4775 85.3435 "/>
<path d="M62.3315 76.4896 L88.8935 76.4896 "/>
<path d="M88.8935 76.4896 L88.8935 129.6135 "/>
<path d="M88.8935 129.6135 L53.4775 129.6135 "/>
</g>
<g style="fill:#848484; fill-opacity:0.0;  stroke:#848484; stroke-width:2.6562; stroke-opacity:1;  stroke-linecap:round; stroke-linejoin:round;">
<circle cx="77.6692" cy="175.8355" r="20.9131"/> 
<circle cx="219.3331" cy="175.8355" r="20.9131"/> 
</g>
<g style="fill:#848484; fill-opacity:0.0;  stroke:#848484; stroke-width:0.6972; stroke-opacity:1;  stroke-linecap:round; stroke-linejoin:round;">
<path d="M126.6101 19.6706 L131.0371 15.2436 "/>
<path d="M126.6101 50.6596 L126.6101 19.6706 "/>
<path d="M131.0371 15.2436 L144.3181 15.2436 "/>
<path d="M144.3181 15.2436 L144.3181 50.6596 "/>
<path d="M144.3181 50.6596 L126.6101 50.6596 "/>
</g>
<g style="fill:#848484; fill-opacity:0.0;  stroke:#848484; stroke-width:2.6562; stroke-opacity:1;  stroke-linecap:round; stroke-linejoin:round;">
<circle cx="219.3331" cy="34.1716" r="20.9131"/> 
</g>
<g style="fill:#848484; fill-opacity:0.0;  stroke:#848484; stroke-width:0.6972; stroke-opacity:1;  stroke-linecap:round; stroke-linejoin:round;">
<path d="M136.6842 199.8877 L127.8302 191.0337 "/>
<path d="M180.9541 199.8877 L136.6842 199.8877 "/>
<path d="M127.8302 191.0337 L127.8302 164.4718 "/>
<path d="M127.8302 164.4718 L180.9541 164.4718 "/>
<path d="M180.9541 164.4718 L180.9541 199.8877 "/>
<path d="M153.9738 19.7403 L158.4008 15.3133 "/>
<path d="M153.9738 50.7293 L153.9738 19.7403 "/>
<path d="M158.4008 15.3133 L171.6818 15.3133 "/>
<path d="M171.6818 15.3133 L171.6818 50.7293 "/>
<path d="M171.6818 50.7293 L153.9738 50.7293 "/>
</g>
<g style="fill:#848484; fill-opacity:0.0;  stroke:#848484; stroke-width:2.6562; stroke-opacity:1;  stroke-linecap:round; stroke-linejoin:round;">
<circle cx="77.6692" cy="34.1716" r="20.9131"/> 
</g>
<g style="fill:#848484; fill-opacity:0.0;  stroke:#848484; stroke-width:0.6972; stroke-opacity:1;  stroke-linecap:round; stroke-linejoin:round;">
<path d="M136.6842 164.4718 L127.8302 155.6178 "/>
<path d="M180.9541 164.4718 L136.6842 164.4718 "/>
<path d="M127.8302 155.6178 L127.8302 129.0558 "/>
<path d="M127.8302 129.0558 L180.9541 129.0558 "/>
<path d="M180.9541 129.0558 L180.9541 164.4718 "/>
<g>
</g>
<g>
</g>
<g>
</g>
<g>
</g>
<g>
</g>
<g>
</g>
<g>
</g>
<g>
</g>
<g>
</g>
<g>
</g>
<g>
</g>
<g>
</g>
<g>
</g>
<g>
</g>
<g>
</g>
<g>
</g>
<g>
</g>
<g>
</g>
<g>
</g>
<g>
</g>
<g>
</g>
<g>
</g>
<g>
</g>
<g>
</g>
</g> 
<svg:g><svg:g><svg:title>SVG Image created as STEPBUBODC01-Edge_Cuts.svg date 2023/09/11 00:45:26 </svg:title>
  <svg:desc>Image generated by PCBNEW </svg:desc>
<svg:g style="fill:#C2C200; fill-opacity:1.0000;stroke:#C2C200; stroke-opacity:1.0000; stroke-linecap:round; stroke-linejoin:round;" transform="translate(0 0) scale(1 1)">
</svg:g>
<svg:g style="fill:#C2C200; fill-opacity:0.0;  stroke:#C2C200; stroke-width:0.0000; stroke-opacity:1;  stroke-linecap:round; stroke-linejoin:round;">
</svg:g>
<svg:g style="fill:#C2C200; fill-opacity:0.0;  stroke:#C2C200; stroke-width:1.0457; stroke-opacity:1;  stroke-linecap:round; stroke-linejoin:round;">
<svg:path style="fill:#C2C200; fill-opacity:0.0;  stroke:#C2C200; stroke-width:1.0457; stroke-opacity:1;  stroke-linecap:round; stroke-linejoin:round;fill:none" d="M 44.0240,0.5265 252.9782,0.5265 252.9782,209.4807 44.0240,209.4807 Z"/> 
<svg:g>
</svg:g>
<svg:g>
</svg:g>
<svg:g>
</svg:g>
<svg:g>
</svg:g>
<svg:g>
</svg:g>
<svg:g>
</svg:g>
<svg:g>
</svg:g>
<svg:g>
</svg:g>
<svg:g>
</svg:g>
<svg:g>
</svg:g>
<svg:g>
</svg:g>
<svg:g>
</svg:g>
<svg:g>
</svg:g>
<svg:g>
</svg:g>
<svg:g>
</svg:g>
<svg:g>
</svg:g>
<svg:g>
</svg:g>
<svg:g>
</svg:g>
<svg:g>
</svg:g>
<svg:g>
</svg:g>
<svg:g>
</svg:g>
<svg:g>
</svg:g>
<svg:g>
</svg:g>
<svg:g>
</svg:g>
</svg:g> 
</svg:g></svg:g></svg>
