<?xml version='1.0' encoding='ASCII' standalone='yes'?>
<svg xmlns:svg="http://www.w3.org/2000/svg" xmlns="http://www.w3.org/2000/svg" xmlns:xlink="http://www.w3.org/1999/xlink" version="1.1" width="297.0022mm" height="210.0072mm" viewBox="0.0000 0.0000 297.0022 210.0072">
<title>SVG Image created as STEPBUBODC01-B_Fab.svg date 2023/10/04 14:05:31 </title>
  <desc>Image generated by PCBNEW </desc>
<g style="fill:#000084; fill-opacity:1.0000;stroke:#000084; stroke-opacity:1.0000; stroke-linecap:round; stroke-linejoin:round;" transform="translate(0 0) scale(1 1)">
</g>
<g style="fill:#000084; fill-opacity:0.0;  stroke:#000084; stroke-width:0.0000; stroke-opacity:1;  stroke-linecap:round; stroke-linejoin:round;">
</g>
<g style="fill:#000084; fill-opacity:0.01;  stroke:#000084; stroke-width:0.5577; stroke-opacity:1;  stroke-linecap:round; stroke-linejoin:round;">
<text x="157.7908" y="65.0561" transform="scale(-1 1) translate(-315.581643 0)" textLength="7.7817" font-size="4.6478" lengthAdjust="spacingAndGlyphs" text-anchor="middle" opacity="0.01" style="font-family:monospace">R4</text>
<g class="stroked-text"><desc>R4</desc>
<path d="M157.2099 64.8967 L156.0479 63.2368 "/>
<path d="M155.2180 64.8967 L155.2180 61.4109 "/>
<path d="M155.2180 61.4109 L156.5459 61.4109 "/>
<path d="M156.5459 61.4109 L156.8779 61.5769 "/>
<path d="M156.8779 61.5769 L157.0439 61.7429 "/>
<path d="M157.0439 61.7429 L157.2099 62.0749 "/>
<path d="M157.2099 62.0749 L157.2099 62.5729 "/>
<path d="M157.2099 62.5729 L157.0439 62.9048 "/>
<path d="M157.0439 62.9048 L156.8779 63.0708 "/>
<path d="M156.8779 63.0708 L156.5459 63.2368 "/>
<path d="M156.5459 63.2368 L155.2180 63.2368 "/>
<path d="M160.1977 62.5729 L160.1977 64.8967 "/>
<path d="M159.3677 61.2449 L158.5378 63.7348 "/>
<path d="M158.5378 63.7348 L160.6957 63.7348 "/>
</g><text x="182.1916" y="65.0561" transform="scale(-1 1) translate(-364.383183 0)" textLength="7.7817" font-size="4.6478" lengthAdjust="spacingAndGlyphs" text-anchor="middle" opacity="0.01" style="font-family:monospace">R5</text>
<g class="stroked-text"><desc>R5</desc>
<path d="M181.6106 64.8967 L180.4487 63.2368 "/>
<path d="M179.6187 64.8967 L179.6187 61.4109 "/>
<path d="M179.6187 61.4109 L180.9467 61.4109 "/>
<path d="M180.9467 61.4109 L181.2786 61.5769 "/>
<path d="M181.2786 61.5769 L181.4446 61.7429 "/>
<path d="M181.4446 61.7429 L181.6106 62.0749 "/>
<path d="M181.6106 62.0749 L181.6106 62.5729 "/>
<path d="M181.6106 62.5729 L181.4446 62.9048 "/>
<path d="M181.4446 62.9048 L181.2786 63.0708 "/>
<path d="M181.2786 63.0708 L180.9467 63.2368 "/>
<path d="M180.9467 63.2368 L179.6187 63.2368 "/>
<path d="M184.7645 61.4109 L183.1045 61.4109 "/>
<path d="M183.1045 61.4109 L182.9386 63.0708 "/>
<path d="M182.9386 63.0708 L183.1045 62.9048 "/>
<path d="M183.1045 62.9048 L183.4365 62.7388 "/>
<path d="M183.4365 62.7388 L184.2665 62.7388 "/>
<path d="M184.2665 62.7388 L184.5985 62.9048 "/>
<path d="M184.5985 62.9048 L184.7645 63.0708 "/>
<path d="M184.7645 63.0708 L184.9305 63.4028 "/>
<path d="M184.9305 63.4028 L184.9305 64.2328 "/>
<path d="M184.9305 64.2328 L184.7645 64.5648 "/>
<path d="M184.7645 64.5648 L184.5985 64.7308 "/>
<path d="M184.5985 64.7308 L184.2665 64.8967 "/>
<path d="M184.2665 64.8967 L183.4365 64.8967 "/>
<path d="M183.4365 64.8967 L183.1045 64.7308 "/>
<path d="M183.1045 64.7308 L182.9386 64.5648 "/>
</g><g transform="rotate(-90.000000 96.0046 89.5440)">
<text x="96.0046" y="91.2869" transform="scale(-1 1) translate(-192.009171 0)" textLength="7.7817" font-size="4.6478" lengthAdjust="spacingAndGlyphs" text-anchor="middle" opacity="0.01" style="font-family:monospace">R2</text>
</g>
<g class="stroked-text"><desc>R2</desc>
<path d="M94.4210 88.9630 L96.0809 87.8011 "/>
<path d="M94.4210 86.9711 L97.9068 86.9711 "/>
<path d="M97.9068 86.9711 L97.9068 88.2990 "/>
<path d="M97.9068 88.2990 L97.7408 88.6310 "/>
<path d="M97.7408 88.6310 L97.5748 88.7970 "/>
<path d="M97.5748 88.7970 L97.2428 88.9630 "/>
<path d="M97.2428 88.9630 L96.7449 88.9630 "/>
<path d="M96.7449 88.9630 L96.4129 88.7970 "/>
<path d="M96.4129 88.7970 L96.2469 88.6310 "/>
<path d="M96.2469 88.6310 L96.0809 88.2990 "/>
<path d="M96.0809 88.2990 L96.0809 86.9711 "/>
<path d="M97.5748 90.2909 L97.7408 90.4569 "/>
<path d="M97.7408 90.4569 L97.9068 90.7889 "/>
<path d="M97.9068 90.7889 L97.9068 91.6189 "/>
<path d="M97.9068 91.6189 L97.7408 91.9508 "/>
<path d="M97.7408 91.9508 L97.5748 92.1168 "/>
<path d="M97.5748 92.1168 L97.2428 92.2828 "/>
<path d="M97.2428 92.2828 L96.9109 92.2828 "/>
<path d="M96.9109 92.2828 L96.4129 92.1168 "/>
<path d="M96.4129 92.1168 L94.4210 90.1249 "/>
<path d="M94.4210 90.1249 L94.4210 92.2828 "/>
</g><text x="117.9653" y="107.7574" transform="scale(-1 1) translate(-235.930557 0)" textLength="7.7817" font-size="4.6478" lengthAdjust="spacingAndGlyphs" text-anchor="middle" opacity="0.01" style="font-family:monospace">C3</text>
<g class="stroked-text"><desc>C3</desc>
<path d="M117.3843 107.2661 L117.2183 107.4321 "/>
<path d="M117.2183 107.4321 L116.7203 107.5981 "/>
<path d="M116.7203 107.5981 L116.3884 107.5981 "/>
<path d="M116.3884 107.5981 L115.8904 107.4321 "/>
<path d="M115.8904 107.4321 L115.5584 107.1001 "/>
<path d="M115.5584 107.1001 L115.3924 106.7681 "/>
<path d="M115.3924 106.7681 L115.2264 106.1042 "/>
<path d="M115.2264 106.1042 L115.2264 105.6062 "/>
<path d="M115.2264 105.6062 L115.3924 104.9422 "/>
<path d="M115.3924 104.9422 L115.5584 104.6102 "/>
<path d="M115.5584 104.6102 L115.8904 104.2783 "/>
<path d="M115.8904 104.2783 L116.3884 104.1123 "/>
<path d="M116.3884 104.1123 L116.7203 104.1123 "/>
<path d="M116.7203 104.1123 L117.2183 104.2783 "/>
<path d="M117.2183 104.2783 L117.3843 104.4442 "/>
<path d="M118.5463 104.1123 L120.7041 104.1123 "/>
<path d="M120.7041 104.1123 L119.5422 105.4402 "/>
<path d="M119.5422 105.4402 L120.0402 105.4402 "/>
<path d="M120.0402 105.4402 L120.3722 105.6062 "/>
<path d="M120.3722 105.6062 L120.5382 105.7722 "/>
<path d="M120.5382 105.7722 L120.7041 106.1042 "/>
<path d="M120.7041 106.1042 L120.7041 106.9341 "/>
<path d="M120.7041 106.9341 L120.5382 107.2661 "/>
<path d="M120.5382 107.2661 L120.3722 107.4321 "/>
<path d="M120.3722 107.4321 L120.0402 107.5981 "/>
<path d="M120.0402 107.5981 L119.0442 107.5981 "/>
<path d="M119.0442 107.5981 L118.7122 107.4321 "/>
<path d="M118.7122 107.4321 L118.5463 107.2661 "/>
</g></g>
<g style="fill:#000084; fill-opacity:0.0;  stroke:#000084; stroke-width:1.0457; stroke-opacity:1;  stroke-linecap:round; stroke-linejoin:round;">
<g transform="rotate(-90.000000 206.8538 114.9033)">
<text x="206.8538" y="118.3892" transform="scale(-1 1) translate(-413.707597 0)" textLength="15.3542" font-size="9.2955" lengthAdjust="spacingAndGlyphs" text-anchor="middle" opacity="0.01" style="font-family:monospace">D1</text>
</g>
<g class="stroked-text"><desc>D1</desc>
<path d="M203.6830 109.7576 L210.6546 109.7576 "/>
<path d="M210.6546 109.7576 L210.6546 111.4175 "/>
<path d="M210.6546 111.4175 L210.3226 112.4135 "/>
<path d="M210.3226 112.4135 L209.6587 113.0774 "/>
<path d="M209.6587 113.0774 L208.9947 113.4094 "/>
<path d="M208.9947 113.4094 L207.6668 113.7414 "/>
<path d="M207.6668 113.7414 L206.6708 113.7414 "/>
<path d="M206.6708 113.7414 L205.3429 113.4094 "/>
<path d="M205.3429 113.4094 L204.6789 113.0774 "/>
<path d="M204.6789 113.0774 L204.0149 112.4135 "/>
<path d="M204.0149 112.4135 L203.6830 111.4175 "/>
<path d="M203.6830 111.4175 L203.6830 109.7576 "/>
<path d="M203.6830 120.3811 L203.6830 116.3973 "/>
<path d="M203.6830 118.3892 L210.6546 118.3892 "/>
<path d="M210.6546 118.3892 L209.6587 117.7252 "/>
<path d="M209.6587 117.7252 L208.9947 117.0612 "/>
<path d="M208.9947 117.0612 L208.6627 116.3973 "/>
</g></g>
<g style="fill:#000084; fill-opacity:0.0;  stroke:#000084; stroke-width:0.5577; stroke-opacity:1;  stroke-linecap:round; stroke-linejoin:round;">
<g transform="rotate(-90.000000 132.2572 87.1910)">
<text x="132.2572" y="88.9339" transform="scale(-1 1) translate(-264.514316 0)" textLength="7.7817" font-size="4.6478" lengthAdjust="spacingAndGlyphs" text-anchor="middle" opacity="0.01" style="font-family:monospace">C2</text>
</g>
<g class="stroked-text"><desc>C2</desc>
<path d="M131.0055 86.6101 L130.8395 86.4441 "/>
<path d="M130.8395 86.4441 L130.6736 85.9461 "/>
<path d="M130.6736 85.9461 L130.6736 85.6141 "/>
<path d="M130.6736 85.6141 L130.8395 85.1161 "/>
<path d="M130.8395 85.1161 L131.1715 84.7842 "/>
<path d="M131.1715 84.7842 L131.5035 84.6182 "/>
<path d="M131.5035 84.6182 L132.1675 84.4522 "/>
<path d="M132.1675 84.4522 L132.6655 84.4522 "/>
<path d="M132.6655 84.4522 L133.3294 84.6182 "/>
<path d="M133.3294 84.6182 L133.6614 84.7842 "/>
<path d="M133.6614 84.7842 L133.9934 85.1161 "/>
<path d="M133.9934 85.1161 L134.1594 85.6141 "/>
<path d="M134.1594 85.6141 L134.1594 85.9461 "/>
<path d="M134.1594 85.9461 L133.9934 86.4441 "/>
<path d="M133.9934 86.4441 L133.8274 86.6101 "/>
<path d="M133.8274 87.9380 L133.9934 88.1040 "/>
<path d="M133.9934 88.1040 L134.1594 88.4360 "/>
<path d="M134.1594 88.4360 L134.1594 89.2659 "/>
<path d="M134.1594 89.2659 L133.9934 89.5979 "/>
<path d="M133.9934 89.5979 L133.8274 89.7639 "/>
<path d="M133.8274 89.7639 L133.4954 89.9299 "/>
<path d="M133.4954 89.9299 L133.1634 89.9299 "/>
<path d="M133.1634 89.9299 L132.6655 89.7639 "/>
<path d="M132.6655 89.7639 L130.6736 87.7720 "/>
<path d="M130.6736 87.7720 L130.6736 89.9299 "/>
</g></g>
<g style="fill:#000084; fill-opacity:0.0;  stroke:#000084; stroke-width:1.7708; stroke-opacity:1;  stroke-linecap:round; stroke-linejoin:round;">
<g transform="rotate(-90.000000 150.2719 77.5562)">
<text x="150.2719" y="81.9832" transform="scale(-1 1) translate(-300.543796 0)" textLength="21.2496" font-size="11.8053" lengthAdjust="spacingAndGlyphs" text-anchor="middle" opacity="0.01" style="font-family:monospace">U1</text>
</g>
<g class="stroked-text"><desc>U1</desc>
<path d="M155.1219 70.8103 L147.9544 70.8103 "/>
<path d="M147.9544 70.8103 L147.1112 71.2319 "/>
<path d="M147.1112 71.2319 L146.6896 71.6536 "/>
<path d="M146.6896 71.6536 L146.2680 72.4968 "/>
<path d="M146.2680 72.4968 L146.2680 74.1833 "/>
<path d="M146.2680 74.1833 L146.6896 75.0265 "/>
<path d="M146.6896 75.0265 L147.1112 75.4481 "/>
<path d="M147.1112 75.4481 L147.9544 75.8697 "/>
<path d="M147.9544 75.8697 L155.1219 75.8697 "/>
<path d="M146.2680 84.7237 L146.2680 79.6643 "/>
<path d="M146.2680 82.1940 L155.1219 82.1940 "/>
<path d="M155.1219 82.1940 L153.8571 81.3508 "/>
<path d="M153.8571 81.3508 L153.0139 80.5075 "/>
<path d="M153.0139 80.5075 L152.5922 79.6643 "/>
</g></g>
<g style="fill:#000084; fill-opacity:0.0;  stroke:#000084; stroke-width:0.5577; stroke-opacity:1;  stroke-linecap:round; stroke-linejoin:round;">
<g transform="rotate(-90.000000 96.0046 114.1190)">
<text x="96.0046" y="115.8619" transform="scale(-1 1) translate(-192.009171 0)" textLength="7.7817" font-size="4.6478" lengthAdjust="spacingAndGlyphs" text-anchor="middle" opacity="0.01" style="font-family:monospace">R3</text>
</g>
<g class="stroked-text"><desc>R3</desc>
<path d="M94.4210 113.5381 L96.0809 112.3761 "/>
<path d="M94.4210 111.5462 L97.9068 111.5462 "/>
<path d="M97.9068 111.5462 L97.9068 112.8741 "/>
<path d="M97.9068 112.8741 L97.7408 113.2061 "/>
<path d="M97.7408 113.2061 L97.5748 113.3721 "/>
<path d="M97.5748 113.3721 L97.2428 113.5381 "/>
<path d="M97.2428 113.5381 L96.7449 113.5381 "/>
<path d="M96.7449 113.5381 L96.4129 113.3721 "/>
<path d="M96.4129 113.3721 L96.2469 113.2061 "/>
<path d="M96.2469 113.2061 L96.0809 112.8741 "/>
<path d="M96.0809 112.8741 L96.0809 111.5462 "/>
<path d="M97.9068 114.7000 L97.9068 116.8579 "/>
<path d="M97.9068 116.8579 L96.5789 115.6959 "/>
<path d="M96.5789 115.6959 L96.5789 116.1939 "/>
<path d="M96.5789 116.1939 L96.4129 116.5259 "/>
<path d="M96.4129 116.5259 L96.2469 116.6919 "/>
<path d="M96.2469 116.6919 L95.9149 116.8579 "/>
<path d="M95.9149 116.8579 L95.0849 116.8579 "/>
<path d="M95.0849 116.8579 L94.7530 116.6919 "/>
<path d="M94.7530 116.6919 L94.5870 116.5259 "/>
<path d="M94.5870 116.5259 L94.4210 116.1939 "/>
<path d="M94.4210 116.1939 L94.4210 115.1980 "/>
<path d="M94.4210 115.1980 L94.5870 114.8660 "/>
<path d="M94.5870 114.8660 L94.7530 114.7000 "/>
</g><g transform="rotate(-90.000000 167.5476 88.0625)">
<text x="167.5476" y="89.8054" transform="scale(-1 1) translate(-335.095287 0)" textLength="7.7817" font-size="4.6478" lengthAdjust="spacingAndGlyphs" text-anchor="middle" opacity="0.01" style="font-family:monospace">C1</text>
</g>
<g class="stroked-text"><desc>C1</desc>
<path d="M166.2960 87.4815 L166.1300 87.3155 "/>
<path d="M166.1300 87.3155 L165.9640 86.8175 "/>
<path d="M165.9640 86.8175 L165.9640 86.4856 "/>
<path d="M165.9640 86.4856 L166.1300 85.9876 "/>
<path d="M166.1300 85.9876 L166.4620 85.6556 "/>
<path d="M166.4620 85.6556 L166.7940 85.4896 "/>
<path d="M166.7940 85.4896 L167.4580 85.3236 "/>
<path d="M167.4580 85.3236 L167.9559 85.3236 "/>
<path d="M167.9559 85.3236 L168.6199 85.4896 "/>
<path d="M168.6199 85.4896 L168.9519 85.6556 "/>
<path d="M168.9519 85.6556 L169.2839 85.9876 "/>
<path d="M169.2839 85.9876 L169.4499 86.4856 "/>
<path d="M169.4499 86.4856 L169.4499 86.8175 "/>
<path d="M169.4499 86.8175 L169.2839 87.3155 "/>
<path d="M169.2839 87.3155 L169.1179 87.4815 "/>
<path d="M165.9640 90.8014 L165.9640 88.8095 "/>
<path d="M165.9640 89.8054 L169.4499 89.8054 "/>
<path d="M169.4499 89.8054 L168.9519 89.4734 "/>
<path d="M168.9519 89.4734 L168.6199 89.1414 "/>
<path d="M168.6199 89.1414 L168.4539 88.8095 "/>
</g></g>
<g style="fill:#000084; fill-opacity:0.01;  stroke:#000084; stroke-width:0.4183; stroke-opacity:1;  stroke-linecap:round; stroke-linejoin:round;">
<text x="185.5903" y="150.4587" transform="scale(-1 1) translate(-371.180540 0)" textLength="9.8599" font-size="3.7182" lengthAdjust="spacingAndGlyphs" text-anchor="middle" opacity="0.01" style="font-family:monospace">FID1</text>
<g class="stroked-text"><desc>FID1</desc>
<path d="M182.6024 148.8720 L181.6729 148.8720 "/>
<path d="M181.6729 150.3327 L181.6729 147.5441 "/>
<path d="M181.6729 147.5441 L183.0008 147.5441 "/>
<path d="M184.0632 150.3327 L184.0632 147.5441 "/>
<path d="M185.3911 150.3327 L185.3911 147.5441 "/>
<path d="M185.3911 147.5441 L186.0551 147.5441 "/>
<path d="M186.0551 147.5441 L186.4534 147.6769 "/>
<path d="M186.4534 147.6769 L186.7190 147.9425 "/>
<path d="M186.7190 147.9425 L186.8518 148.2081 "/>
<path d="M186.8518 148.2081 L186.9846 148.7392 "/>
<path d="M186.9846 148.7392 L186.9846 149.1376 "/>
<path d="M186.9846 149.1376 L186.8518 149.6688 "/>
<path d="M186.8518 149.6688 L186.7190 149.9344 "/>
<path d="M186.7190 149.9344 L186.4534 150.2000 "/>
<path d="M186.4534 150.2000 L186.0551 150.3327 "/>
<path d="M186.0551 150.3327 L185.3911 150.3327 "/>
<path d="M189.6405 150.3327 L188.0470 150.3327 "/>
<path d="M188.8437 150.3327 L188.8437 147.5441 "/>
<path d="M188.8437 147.5441 L188.5781 147.9425 "/>
<path d="M188.5781 147.9425 L188.3125 148.2081 "/>
<path d="M188.3125 148.2081 L188.0470 148.3409 "/>
</g></g>
<g style="fill:#000084; fill-opacity:0.0;  stroke:#000084; stroke-width:0.5577; stroke-opacity:1;  stroke-linecap:round; stroke-linejoin:round;">
<g transform="rotate(-90.000000 112.7365 86.9296)">
<text x="112.7365" y="88.6725" transform="scale(-1 1) translate(-225.473084 0)" textLength="7.7817" font-size="4.6478" lengthAdjust="spacingAndGlyphs" text-anchor="middle" opacity="0.01" style="font-family:monospace">R1</text>
</g>
<g class="stroked-text"><desc>R1</desc>
<path d="M111.1529 86.3486 L112.8129 85.1867 "/>
<path d="M111.1529 84.3567 L114.6388 84.3567 "/>
<path d="M114.6388 84.3567 L114.6388 85.6847 "/>
<path d="M114.6388 85.6847 L114.4728 86.0166 "/>
<path d="M114.4728 86.0166 L114.3068 86.1826 "/>
<path d="M114.3068 86.1826 L113.9748 86.3486 "/>
<path d="M113.9748 86.3486 L113.4768 86.3486 "/>
<path d="M113.4768 86.3486 L113.1448 86.1826 "/>
<path d="M113.1448 86.1826 L112.9788 86.0166 "/>
<path d="M112.9788 86.0166 L112.8129 85.6847 "/>
<path d="M112.8129 85.6847 L112.8129 84.3567 "/>
<path d="M111.1529 89.6685 L111.1529 87.6766 "/>
<path d="M111.1529 88.6725 L114.6388 88.6725 "/>
<path d="M114.6388 88.6725 L114.1408 88.3405 "/>
<path d="M114.1408 88.3405 L113.8088 88.0085 "/>
<path d="M113.8088 88.0085 L113.6428 87.6766 "/>
</g></g>
<g style="fill:#000084; fill-opacity:0.01;  stroke:#000084; stroke-width:0.4183; stroke-opacity:1;  stroke-linecap:round; stroke-linejoin:round;">
<text x="115.8738" y="52.8557" transform="scale(-1 1) translate(-231.747568 0)" textLength="9.8599" font-size="3.7182" lengthAdjust="spacingAndGlyphs" text-anchor="middle" opacity="0.01" style="font-family:monospace">FID2</text>
<g class="stroked-text"><desc>FID2</desc>
<path d="M112.8859 51.2689 L111.9564 51.2689 "/>
<path d="M111.9564 52.7297 L111.9564 49.9410 "/>
<path d="M111.9564 49.9410 L113.2843 49.9410 "/>
<path d="M114.3467 52.7297 L114.3467 49.9410 "/>
<path d="M115.6746 52.7297 L115.6746 49.9410 "/>
<path d="M115.6746 49.9410 L116.3386 49.9410 "/>
<path d="M116.3386 49.9410 L116.7370 50.0738 "/>
<path d="M116.7370 50.0738 L117.0025 50.3394 "/>
<path d="M117.0025 50.3394 L117.1353 50.6050 "/>
<path d="M117.1353 50.6050 L117.2681 51.1362 "/>
<path d="M117.2681 51.1362 L117.2681 51.5345 "/>
<path d="M117.2681 51.5345 L117.1353 52.0657 "/>
<path d="M117.1353 52.0657 L117.0025 52.3313 "/>
<path d="M117.0025 52.3313 L116.7370 52.5969 "/>
<path d="M116.7370 52.5969 L116.3386 52.7297 "/>
<path d="M116.3386 52.7297 L115.6746 52.7297 "/>
<path d="M118.3305 50.2066 L118.4633 50.0738 "/>
<path d="M118.4633 50.0738 L118.7288 49.9410 "/>
<path d="M118.7288 49.9410 L119.3928 49.9410 "/>
<path d="M119.3928 49.9410 L119.6584 50.0738 "/>
<path d="M119.6584 50.0738 L119.7912 50.2066 "/>
<path d="M119.7912 50.2066 L119.9240 50.4722 "/>
<path d="M119.9240 50.4722 L119.9240 50.7378 "/>
<path d="M119.9240 50.7378 L119.7912 51.1362 "/>
<path d="M119.7912 51.1362 L118.1977 52.7297 "/>
<path d="M118.1977 52.7297 L119.9240 52.7297 "/>
</g></g>
<g style="fill:#000084; fill-opacity:0.01;  stroke:#000084; stroke-width:0.6274; stroke-opacity:1;  stroke-linecap:round; stroke-linejoin:round;">
<text x="149.8397" y="112.3447" transform="scale(-1 1) translate(-299.679312 0)" textLength="8.6336" font-size="5.7632" lengthAdjust="spacingAndGlyphs" text-anchor="middle" opacity="0.01" style="font-family:monospace">L1</text>
<g class="stroked-text"><desc>L1</desc>
<path d="M149.1193 112.1505 L147.0610 112.1505 "/>
<path d="M147.0610 112.1505 L147.0610 107.8281 "/>
<path d="M152.8242 112.1505 L150.3542 112.1505 "/>
<path d="M151.5892 112.1505 L151.5892 107.8281 "/>
<path d="M151.5892 107.8281 L151.1776 108.4456 "/>
<path d="M151.1776 108.4456 L150.7659 108.8573 "/>
<path d="M150.7659 108.8573 L150.3542 109.0631 "/>
</g></g>
<g style="fill:#000084; fill-opacity:0.0;  stroke:#000084; stroke-width:0.6972; stroke-opacity:1;  stroke-linecap:round; stroke-linejoin:round;">
<path d="M150.8192 67.6704 L150.8192 58.9559 "/>
<path d="M150.8192 58.9559 L164.7625 58.9559 "/>
<path d="M164.7625 67.6704 L150.8192 67.6704 "/>
<path d="M164.7625 58.9559 L164.7625 67.6704 "/>
<path d="M189.1632 58.9559 L189.1632 67.6704 "/>
<path d="M189.1632 67.6704 L175.2199 67.6704 "/>
<path d="M175.2199 58.9559 L189.1632 58.9559 "/>
<path d="M175.2199 67.6704 L175.2199 58.9559 "/>
<path d="M100.3619 96.5156 L91.6473 96.5156 "/>
<path d="M91.6473 96.5156 L91.6473 82.5723 "/>
<path d="M100.3619 82.5723 L100.3619 96.5156 "/>
<path d="M91.6473 82.5723 L100.3619 82.5723 "/>
<path d="M124.9369 101.6572 L124.9369 110.3718 "/>
<path d="M124.9369 110.3718 L110.9936 110.3718 "/>
<path d="M110.9936 101.6572 L124.9369 101.6572 "/>
<path d="M110.9936 110.3718 L110.9936 101.6572 "/>
<path d="M178.9672 98.8685 L199.8821 98.8685 "/>
<path d="M189.4176 110.3757 L189.4176 104.0893 "/>
<path d="M189.4176 110.3757 L184.1937 118.3974 "/>
<path d="M189.4176 110.3757 L194.9956 118.3974 "/>
<path d="M194.9956 110.3757 L183.8395 110.3757 "/>
<path d="M184.1937 118.3974 L194.9956 118.3974 "/>
<path d="M189.4176 118.3974 L189.4176 125.3566 "/>
<path d="M178.9672 130.9381 L178.9672 98.8685 "/>
<path d="M199.8821 130.9381 L199.8821 98.8685 "/>
<path d="M199.8821 130.9381 L178.9672 130.9381 "/>
<path d="M136.6144 94.1627 L127.8999 94.1627 "/>
<path d="M127.8999 94.1627 L127.8999 80.2194 "/>
<path d="M136.6144 80.2194 L136.6144 94.1627 "/>
<path d="M127.8999 80.2194 L136.6144 80.2194 "/>
<path d="M157.1599 94.8877 L142.5194 94.8877 "/>
<path d="M146.0052 94.8877 L142.5194 91.4019 "/>
<path d="M142.5194 94.8877 L142.5194 86.5218 "/>
<path d="M157.1599 86.5218 L157.1599 94.8877 "/>
<path d="M142.5194 86.5218 L157.1599 86.5218 "/>
<path d="M91.6473 107.1474 L100.3619 107.1474 "/>
<path d="M100.3619 107.1474 L100.3619 121.0907 "/>
<path d="M91.6473 121.0907 L91.6473 107.1474 "/>
<path d="M100.3619 121.0907 L91.6473 121.0907 "/>
<path d="M171.9049 95.0341 L163.1904 95.0341 "/>
<path d="M163.1904 95.0341 L163.1904 81.0908 "/>
<path d="M171.9049 81.0908 L171.9049 95.0341 "/>
<path d="M163.1904 81.0908 L171.9049 81.0908 "/>
<circle cx="185.5903" cy="149.0644" r="6.9716"/> 
<path d="M117.0938 93.9012 L108.3793 93.9012 "/>
<path d="M108.3793 93.9012 L108.3793 79.9579 "/>
<path d="M117.0938 79.9579 L117.0938 93.9012 "/>
<path d="M108.3793 79.9579 L117.0938 79.9579 "/>
<circle cx="115.8738" cy="51.4613" r="6.9716"/> 
<path d="M158.5542 103.2119 L158.5542 117.1552 "/>
<path d="M158.5542 117.1552 L141.1251 117.1552 "/>
<path d="M141.1251 103.2119 L158.5542 103.2119 "/>
<path d="M141.1251 117.1552 L141.1251 103.2119 "/>
<g>
</g>
<g>
</g>
<g>
</g>
<g>
</g>
<g>
</g>
<g>
</g>
<g>
</g>
<g>
</g>
<g>
</g>
<g>
</g>
<g>
</g>
<g>
</g>
<g>
</g>
<g>
</g>
<g>
</g>
<g>
</g>
<g>
</g>
<g>
</g>
<g>
</g>
<g>
</g>
<g>
</g>
<g>
</g>
<g>
</g>
<g>
</g>
<g>
</g>
<g>
</g>
</g> 
<svg:g><svg:g><svg:title>SVG Image created as STEPBUBODC01-Edge_Cuts.svg date 2023/10/04 14:05:31 </svg:title>
  <svg:desc>Image generated by PCBNEW </svg:desc>
<svg:g style="fill:#C2C200; fill-opacity:1.0000;stroke:#C2C200; stroke-opacity:1.0000; stroke-linecap:round; stroke-linejoin:round;" transform="translate(0 0) scale(1 1)">
</svg:g>
<svg:g style="fill:#C2C200; fill-opacity:0.0;  stroke:#C2C200; stroke-width:0.0000; stroke-opacity:1;  stroke-linecap:round; stroke-linejoin:round;">
</svg:g>
<svg:g style="fill:#C2C200; fill-opacity:0.0;  stroke:#C2C200; stroke-width:1.0457; stroke-opacity:1;  stroke-linecap:round; stroke-linejoin:round;">
<svg:path style="fill:#C2C200; fill-opacity:0.0;  stroke:#C2C200; stroke-width:1.0457; stroke-opacity:1;  stroke-linecap:round; stroke-linejoin:round;fill:none" d="M 252.9782,0.5265 44.0240,0.5265 44.0240,209.4807 252.9782,209.4807 Z"/> 
<svg:g>
</svg:g>
<svg:g>
</svg:g>
<svg:g>
</svg:g>
<svg:g>
</svg:g>
<svg:g>
</svg:g>
<svg:g>
</svg:g>
<svg:g>
</svg:g>
<svg:g>
</svg:g>
<svg:g>
</svg:g>
<svg:g>
</svg:g>
<svg:g>
</svg:g>
<svg:g>
</svg:g>
<svg:g>
</svg:g>
<svg:g>
</svg:g>
<svg:g>
</svg:g>
<svg:g>
</svg:g>
<svg:g>
</svg:g>
<svg:g>
</svg:g>
<svg:g>
</svg:g>
<svg:g>
</svg:g>
<svg:g>
</svg:g>
<svg:g>
</svg:g>
<svg:g>
</svg:g>
<svg:g>
</svg:g>
<svg:g>
</svg:g>
<svg:g>
</svg:g>
</svg:g> 
</svg:g></svg:g></svg>
