<!DOCTYPE svg PUBLIC "-//W3C//DTD SVG 1.1//EN" "http://www.w3.org/Graphics/SVG/1.1/DTD/svg11.dtd">
<svg xmlns="http://www.w3.org/2000/svg" version="1.1" width="50.259mm" height="40.099mm" viewBox="1171105.0 663105.0 502590.0 400990.0">
            <title>Picture generated by PcbDraw </title>
            <desc>Picture generated by PcbDraw</desc>
        <defs><clipPath id="cut-off"><path d=" M 1221740.0 1013460.0 L 1623060.0 1013460.0 L 1623060.0 713740.0 L 1221740.0 713740.0 L 1221740.0 1013460.0 " style="fill-rule: evenodd;"/></clipPath><mask id="pads-mask"><g style="fill:#ffffff; fill-opacity:0.0;  stroke:#ffffff; stroke-width:0.000000; stroke-opacity:1;  stroke-linecap:round; stroke-linejoin:round;">
<g style="fill:#ffffff; fill-opacity:1.0;  stroke:#ffffff; stroke-width:0.010000; stroke-opacity:1;  stroke-linecap:round; stroke-linejoin:round;">
<path style="fill:#ffffff; fill-opacity:1.0;  stroke:#ffffff; stroke-width:0.010000; stroke-opacity:1;  stroke-linecap:round; stroke-linejoin:round;fill-rule:evenodd;" d="M 1490980.000000,754380.000000 1506220.000000,754380.000000 1506220.000000,769620.000000 1490980.000000,769620.000000 Z"/> 
<path style="fill:#ffffff; fill-opacity:1.0;  stroke:#ffffff; stroke-width:0.010000; stroke-opacity:1;  stroke-linecap:round; stroke-linejoin:round;fill-rule:evenodd;" d="M 1465580.000000,754380.000000 1480820.000000,754380.000000 1480820.000000,769620.000000 1465580.000000,769620.000000 Z"/> 
<path style="fill:#ffffff; fill-opacity:1.0;  stroke:#ffffff; stroke-width:0.010000; stroke-opacity:1;  stroke-linecap:round; stroke-linejoin:round;fill-rule:evenodd;" d="M 1440180.000000,754380.000000 1455420.000000,754380.000000 1455420.000000,769620.000000 1440180.000000,769620.000000 Z"/> 
</g>
<g style="fill:#ffffff; fill-opacity:1.0;  stroke:#ffffff; stroke-width:0.010000; stroke-opacity:1;  stroke-linecap:round; stroke-linejoin:round;">
<path style="fill:#ffffff; fill-opacity:1.0;  stroke:#ffffff; stroke-width:0.010000; stroke-opacity:1;  stroke-linecap:round; stroke-linejoin:round;fill-rule:evenodd;" d="M 1249680.000000,845820.000000 1249680.000000,830580.000000 1264920.000000,830580.000000 1264920.000000,845820.000000 Z"/> 
<path style="fill:#ffffff; fill-opacity:1.0;  stroke:#ffffff; stroke-width:0.010000; stroke-opacity:1;  stroke-linecap:round; stroke-linejoin:round;fill-rule:evenodd;" d="M 1275080.000000,845820.000000 1275080.000000,830580.000000 1290320.000000,830580.000000 1290320.000000,845820.000000 Z"/> 
<path style="fill:#ffffff; fill-opacity:1.0;  stroke:#ffffff; stroke-width:0.010000; stroke-opacity:1;  stroke-linecap:round; stroke-linejoin:round;fill-rule:evenodd;" d="M 1249680.000000,871220.000000 1249680.000000,855980.000000 1264920.000000,855980.000000 1264920.000000,871220.000000 Z"/> 
<path style="fill:#ffffff; fill-opacity:1.0;  stroke:#ffffff; stroke-width:0.010000; stroke-opacity:1;  stroke-linecap:round; stroke-linejoin:round;fill-rule:evenodd;" d="M 1275080.000000,871220.000000 1275080.000000,855980.000000 1290320.000000,855980.000000 1290320.000000,871220.000000 Z"/> 
<path style="fill:#ffffff; fill-opacity:1.0;  stroke:#ffffff; stroke-width:0.010000; stroke-opacity:1;  stroke-linecap:round; stroke-linejoin:round;fill-rule:evenodd;" d="M 1249680.000000,896620.000000 1249680.000000,881380.000000 1264920.000000,881380.000000 1264920.000000,896620.000000 Z"/> 
<path style="fill:#ffffff; fill-opacity:1.0;  stroke:#ffffff; stroke-width:0.010000; stroke-opacity:1;  stroke-linecap:round; stroke-linejoin:round;fill-rule:evenodd;" d="M 1275080.000000,896620.000000 1275080.000000,881380.000000 1290320.000000,881380.000000 1290320.000000,896620.000000 Z"/> 
</g>
<g style="fill:#ffffff; fill-opacity:1.0;  stroke:#ffffff; stroke-width:0.010000; stroke-opacity:1;  stroke-linecap:round; stroke-linejoin:round;">
<circle cx="1270000.000000" cy="965200.000000" r="30000.000000"/> 
</g>
<g style="fill:#ffffff; fill-opacity:1.0;  stroke:#ffffff; stroke-width:0.010000; stroke-opacity:1;  stroke-linecap:round; stroke-linejoin:round;">
<circle cx="1574800.000000" cy="762000.000000" r="30000.000000"/> 
</g>
<g style="fill:#ffffff; fill-opacity:1.0;  stroke:#ffffff; stroke-width:0.010000; stroke-opacity:1;  stroke-linecap:round; stroke-linejoin:round;">
<path style="fill:#ffffff; fill-opacity:1.0;  stroke:#ffffff; stroke-width:0.010000; stroke-opacity:1;  stroke-linecap:round; stroke-linejoin:round;fill-rule:evenodd;" d="M 1389380.000000,754380.000000 1404620.000000,754380.000000 1404620.000000,769620.000000 1389380.000000,769620.000000 Z"/> 
<path style="fill:#ffffff; fill-opacity:1.0;  stroke:#ffffff; stroke-width:0.010000; stroke-opacity:1;  stroke-linecap:round; stroke-linejoin:round;fill-rule:evenodd;" d="M 1363980.000000,754380.000000 1379220.000000,754380.000000 1379220.000000,769620.000000 1363980.000000,769620.000000 Z"/> 
<path style="fill:#ffffff; fill-opacity:1.0;  stroke:#ffffff; stroke-width:0.010000; stroke-opacity:1;  stroke-linecap:round; stroke-linejoin:round;fill-rule:evenodd;" d="M 1338580.000000,754380.000000 1353820.000000,754380.000000 1353820.000000,769620.000000 1338580.000000,769620.000000 Z"/> 
</g>
<g style="fill:#ffffff; fill-opacity:1.0;  stroke:#ffffff; stroke-width:0.010000; stroke-opacity:1;  stroke-linecap:round; stroke-linejoin:round;">
<path style="fill:#ffffff; fill-opacity:1.0;  stroke:#ffffff; stroke-width:0.010000; stroke-opacity:1;  stroke-linecap:round; stroke-linejoin:round;fill-rule:evenodd;" d="M 1389380.000000,957580.000000 1404620.000000,957580.000000 1404620.000000,972820.000000 1389380.000000,972820.000000 Z"/> 
<path style="fill:#ffffff; fill-opacity:1.0;  stroke:#ffffff; stroke-width:0.010000; stroke-opacity:1;  stroke-linecap:round; stroke-linejoin:round;fill-rule:evenodd;" d="M 1363980.000000,957580.000000 1379220.000000,957580.000000 1379220.000000,972820.000000 1363980.000000,972820.000000 Z"/> 
<path style="fill:#ffffff; fill-opacity:1.0;  stroke:#ffffff; stroke-width:0.010000; stroke-opacity:1;  stroke-linecap:round; stroke-linejoin:round;fill-rule:evenodd;" d="M 1338580.000000,957580.000000 1353820.000000,957580.000000 1353820.000000,972820.000000 1338580.000000,972820.000000 Z"/> 
</g>
<g style="fill:#ffffff; fill-opacity:1.0;  stroke:#ffffff; stroke-width:0.010000; stroke-opacity:1;  stroke-linecap:round; stroke-linejoin:round;">
<circle cx="1574800.000000" cy="965200.000000" r="30000.000000"/> 
</g>
<g style="fill:#ffffff; fill-opacity:1.0;  stroke:#ffffff; stroke-width:0.010000; stroke-opacity:1;  stroke-linecap:round; stroke-linejoin:round;">
<path style="fill:#ffffff; fill-opacity:1.0;  stroke:#ffffff; stroke-width:0.010000; stroke-opacity:1;  stroke-linecap:round; stroke-linejoin:round;fill-rule:evenodd;" d="M 1490980.000000,944880.000000 1506220.000000,944880.000000 1506220.000000,960120.000000 1490980.000000,960120.000000 Z"/> 
<path style="fill:#ffffff; fill-opacity:1.0;  stroke:#ffffff; stroke-width:0.010000; stroke-opacity:1;  stroke-linecap:round; stroke-linejoin:round;fill-rule:evenodd;" d="M 1490980.000000,970280.000000 1506220.000000,970280.000000 1506220.000000,985520.000000 1490980.000000,985520.000000 Z"/> 
<path style="fill:#ffffff; fill-opacity:1.0;  stroke:#ffffff; stroke-width:0.010000; stroke-opacity:1;  stroke-linecap:round; stroke-linejoin:round;fill-rule:evenodd;" d="M 1465580.000000,944880.000000 1480820.000000,944880.000000 1480820.000000,960120.000000 1465580.000000,960120.000000 Z"/> 
<path style="fill:#ffffff; fill-opacity:1.0;  stroke:#ffffff; stroke-width:0.010000; stroke-opacity:1;  stroke-linecap:round; stroke-linejoin:round;fill-rule:evenodd;" d="M 1465580.000000,970280.000000 1480820.000000,970280.000000 1480820.000000,985520.000000 1465580.000000,985520.000000 Z"/> 
<path style="fill:#ffffff; fill-opacity:1.0;  stroke:#ffffff; stroke-width:0.010000; stroke-opacity:1;  stroke-linecap:round; stroke-linejoin:round;fill-rule:evenodd;" d="M 1440180.000000,944880.000000 1455420.000000,944880.000000 1455420.000000,960120.000000 1440180.000000,960120.000000 Z"/> 
<path style="fill:#ffffff; fill-opacity:1.0;  stroke:#ffffff; stroke-width:0.010000; stroke-opacity:1;  stroke-linecap:round; stroke-linejoin:round;fill-rule:evenodd;" d="M 1440180.000000,970280.000000 1455420.000000,970280.000000 1455420.000000,985520.000000 1440180.000000,985520.000000 Z"/> 
</g>
<g style="fill:#ffffff; fill-opacity:1.0;  stroke:#ffffff; stroke-width:0.010000; stroke-opacity:1;  stroke-linecap:round; stroke-linejoin:round;">
<circle cx="1270000.000000" cy="762000.000000" r="30000.000000"/> 
</g>
<g style="fill:#ffffff; fill-opacity:1.0;  stroke:#ffffff; stroke-width:0.010000; stroke-opacity:1;  stroke-linecap:round; stroke-linejoin:round;">
<path style="fill:#ffffff; fill-opacity:1.0;  stroke:#ffffff; stroke-width:0.010000; stroke-opacity:1;  stroke-linecap:round; stroke-linejoin:round;fill-rule:evenodd;" d="M 1554480.000000,845820.000000 1554480.000000,830580.000000 1569720.000000,830580.000000 1569720.000000,845820.000000 Z"/> 
<path style="fill:#ffffff; fill-opacity:1.0;  stroke:#ffffff; stroke-width:0.010000; stroke-opacity:1;  stroke-linecap:round; stroke-linejoin:round;fill-rule:evenodd;" d="M 1579880.000000,845820.000000 1579880.000000,830580.000000 1595120.000000,830580.000000 1595120.000000,845820.000000 Z"/> 
<path style="fill:#ffffff; fill-opacity:1.0;  stroke:#ffffff; stroke-width:0.010000; stroke-opacity:1;  stroke-linecap:round; stroke-linejoin:round;fill-rule:evenodd;" d="M 1554480.000000,871220.000000 1554480.000000,855980.000000 1569720.000000,855980.000000 1569720.000000,871220.000000 Z"/> 
<path style="fill:#ffffff; fill-opacity:1.0;  stroke:#ffffff; stroke-width:0.010000; stroke-opacity:1;  stroke-linecap:round; stroke-linejoin:round;fill-rule:evenodd;" d="M 1579880.000000,871220.000000 1579880.000000,855980.000000 1595120.000000,855980.000000 1595120.000000,871220.000000 Z"/> 
<path style="fill:#ffffff; fill-opacity:1.0;  stroke:#ffffff; stroke-width:0.010000; stroke-opacity:1;  stroke-linecap:round; stroke-linejoin:round;fill-rule:evenodd;" d="M 1554480.000000,896620.000000 1554480.000000,881380.000000 1569720.000000,881380.000000 1569720.000000,896620.000000 Z"/> 
<path style="fill:#ffffff; fill-opacity:1.0;  stroke:#ffffff; stroke-width:0.010000; stroke-opacity:1;  stroke-linecap:round; stroke-linejoin:round;fill-rule:evenodd;" d="M 1579880.000000,896620.000000 1579880.000000,881380.000000 1595120.000000,881380.000000 1595120.000000,896620.000000 Z"/> 
</g>
</g> 
</mask><mask id="pads-mask-silkscreen"><rect x="1221105.0" y="713105.0" width="402590.0" height="300990.0" fill="white"/><g style="fill:#000000; fill-opacity:0.0;  stroke:#000000; stroke-width:0.000000; stroke-opacity:1;  stroke-linecap:round; stroke-linejoin:round;">
<g style="fill:#000000; fill-opacity:1.0;  stroke:#000000; stroke-width:0.010000; stroke-opacity:1;  stroke-linecap:round; stroke-linejoin:round;">
<path style="fill:#000000; fill-opacity:1.0;  stroke:#000000; stroke-width:0.010000; stroke-opacity:1;  stroke-linecap:round; stroke-linejoin:round;fill-rule:evenodd;" d="M 1490980.000000,754380.000000 1506220.000000,754380.000000 1506220.000000,769620.000000 1490980.000000,769620.000000 Z"/> 
<path style="fill:#000000; fill-opacity:1.0;  stroke:#000000; stroke-width:0.010000; stroke-opacity:1;  stroke-linecap:round; stroke-linejoin:round;fill-rule:evenodd;" d="M 1465580.000000,754380.000000 1480820.000000,754380.000000 1480820.000000,769620.000000 1465580.000000,769620.000000 Z"/> 
<path style="fill:#000000; fill-opacity:1.0;  stroke:#000000; stroke-width:0.010000; stroke-opacity:1;  stroke-linecap:round; stroke-linejoin:round;fill-rule:evenodd;" d="M 1440180.000000,754380.000000 1455420.000000,754380.000000 1455420.000000,769620.000000 1440180.000000,769620.000000 Z"/> 
</g>
<g style="fill:#000000; fill-opacity:1.0;  stroke:#000000; stroke-width:0.010000; stroke-opacity:1;  stroke-linecap:round; stroke-linejoin:round;">
<path style="fill:#000000; fill-opacity:1.0;  stroke:#000000; stroke-width:0.010000; stroke-opacity:1;  stroke-linecap:round; stroke-linejoin:round;fill-rule:evenodd;" d="M 1249680.000000,845820.000000 1249680.000000,830580.000000 1264920.000000,830580.000000 1264920.000000,845820.000000 Z"/> 
<path style="fill:#000000; fill-opacity:1.0;  stroke:#000000; stroke-width:0.010000; stroke-opacity:1;  stroke-linecap:round; stroke-linejoin:round;fill-rule:evenodd;" d="M 1275080.000000,845820.000000 1275080.000000,830580.000000 1290320.000000,830580.000000 1290320.000000,845820.000000 Z"/> 
<path style="fill:#000000; fill-opacity:1.0;  stroke:#000000; stroke-width:0.010000; stroke-opacity:1;  stroke-linecap:round; stroke-linejoin:round;fill-rule:evenodd;" d="M 1249680.000000,871220.000000 1249680.000000,855980.000000 1264920.000000,855980.000000 1264920.000000,871220.000000 Z"/> 
<path style="fill:#000000; fill-opacity:1.0;  stroke:#000000; stroke-width:0.010000; stroke-opacity:1;  stroke-linecap:round; stroke-linejoin:round;fill-rule:evenodd;" d="M 1275080.000000,871220.000000 1275080.000000,855980.000000 1290320.000000,855980.000000 1290320.000000,871220.000000 Z"/> 
<path style="fill:#000000; fill-opacity:1.0;  stroke:#000000; stroke-width:0.010000; stroke-opacity:1;  stroke-linecap:round; stroke-linejoin:round;fill-rule:evenodd;" d="M 1249680.000000,896620.000000 1249680.000000,881380.000000 1264920.000000,881380.000000 1264920.000000,896620.000000 Z"/> 
<path style="fill:#000000; fill-opacity:1.0;  stroke:#000000; stroke-width:0.010000; stroke-opacity:1;  stroke-linecap:round; stroke-linejoin:round;fill-rule:evenodd;" d="M 1275080.000000,896620.000000 1275080.000000,881380.000000 1290320.000000,881380.000000 1290320.000000,896620.000000 Z"/> 
</g>
<g style="fill:#000000; fill-opacity:1.0;  stroke:#000000; stroke-width:0.010000; stroke-opacity:1;  stroke-linecap:round; stroke-linejoin:round;">
<circle cx="1270000.000000" cy="965200.000000" r="30000.000000"/> 
</g>
<g style="fill:#000000; fill-opacity:1.0;  stroke:#000000; stroke-width:0.010000; stroke-opacity:1;  stroke-linecap:round; stroke-linejoin:round;">
<circle cx="1574800.000000" cy="762000.000000" r="30000.000000"/> 
</g>
<g style="fill:#000000; fill-opacity:1.0;  stroke:#000000; stroke-width:0.010000; stroke-opacity:1;  stroke-linecap:round; stroke-linejoin:round;">
<path style="fill:#000000; fill-opacity:1.0;  stroke:#000000; stroke-width:0.010000; stroke-opacity:1;  stroke-linecap:round; stroke-linejoin:round;fill-rule:evenodd;" d="M 1389380.000000,754380.000000 1404620.000000,754380.000000 1404620.000000,769620.000000 1389380.000000,769620.000000 Z"/> 
<path style="fill:#000000; fill-opacity:1.0;  stroke:#000000; stroke-width:0.010000; stroke-opacity:1;  stroke-linecap:round; stroke-linejoin:round;fill-rule:evenodd;" d="M 1363980.000000,754380.000000 1379220.000000,754380.000000 1379220.000000,769620.000000 1363980.000000,769620.000000 Z"/> 
<path style="fill:#000000; fill-opacity:1.0;  stroke:#000000; stroke-width:0.010000; stroke-opacity:1;  stroke-linecap:round; stroke-linejoin:round;fill-rule:evenodd;" d="M 1338580.000000,754380.000000 1353820.000000,754380.000000 1353820.000000,769620.000000 1338580.000000,769620.000000 Z"/> 
</g>
<g style="fill:#000000; fill-opacity:1.0;  stroke:#000000; stroke-width:0.010000; stroke-opacity:1;  stroke-linecap:round; stroke-linejoin:round;">
<path style="fill:#000000; fill-opacity:1.0;  stroke:#000000; stroke-width:0.010000; stroke-opacity:1;  stroke-linecap:round; stroke-linejoin:round;fill-rule:evenodd;" d="M 1389380.000000,957580.000000 1404620.000000,957580.000000 1404620.000000,972820.000000 1389380.000000,972820.000000 Z"/> 
<path style="fill:#000000; fill-opacity:1.0;  stroke:#000000; stroke-width:0.010000; stroke-opacity:1;  stroke-linecap:round; stroke-linejoin:round;fill-rule:evenodd;" d="M 1363980.000000,957580.000000 1379220.000000,957580.000000 1379220.000000,972820.000000 1363980.000000,972820.000000 Z"/> 
<path style="fill:#000000; fill-opacity:1.0;  stroke:#000000; stroke-width:0.010000; stroke-opacity:1;  stroke-linecap:round; stroke-linejoin:round;fill-rule:evenodd;" d="M 1338580.000000,957580.000000 1353820.000000,957580.000000 1353820.000000,972820.000000 1338580.000000,972820.000000 Z"/> 
</g>
<g style="fill:#000000; fill-opacity:1.0;  stroke:#000000; stroke-width:0.010000; stroke-opacity:1;  stroke-linecap:round; stroke-linejoin:round;">
<circle cx="1574800.000000" cy="965200.000000" r="30000.000000"/> 
</g>
<g style="fill:#000000; fill-opacity:1.0;  stroke:#000000; stroke-width:0.010000; stroke-opacity:1;  stroke-linecap:round; stroke-linejoin:round;">
<path style="fill:#000000; fill-opacity:1.0;  stroke:#000000; stroke-width:0.010000; stroke-opacity:1;  stroke-linecap:round; stroke-linejoin:round;fill-rule:evenodd;" d="M 1490980.000000,944880.000000 1506220.000000,944880.000000 1506220.000000,960120.000000 1490980.000000,960120.000000 Z"/> 
<path style="fill:#000000; fill-opacity:1.0;  stroke:#000000; stroke-width:0.010000; stroke-opacity:1;  stroke-linecap:round; stroke-linejoin:round;fill-rule:evenodd;" d="M 1490980.000000,970280.000000 1506220.000000,970280.000000 1506220.000000,985520.000000 1490980.000000,985520.000000 Z"/> 
<path style="fill:#000000; fill-opacity:1.0;  stroke:#000000; stroke-width:0.010000; stroke-opacity:1;  stroke-linecap:round; stroke-linejoin:round;fill-rule:evenodd;" d="M 1465580.000000,944880.000000 1480820.000000,944880.000000 1480820.000000,960120.000000 1465580.000000,960120.000000 Z"/> 
<path style="fill:#000000; fill-opacity:1.0;  stroke:#000000; stroke-width:0.010000; stroke-opacity:1;  stroke-linecap:round; stroke-linejoin:round;fill-rule:evenodd;" d="M 1465580.000000,970280.000000 1480820.000000,970280.000000 1480820.000000,985520.000000 1465580.000000,985520.000000 Z"/> 
<path style="fill:#000000; fill-opacity:1.0;  stroke:#000000; stroke-width:0.010000; stroke-opacity:1;  stroke-linecap:round; stroke-linejoin:round;fill-rule:evenodd;" d="M 1440180.000000,944880.000000 1455420.000000,944880.000000 1455420.000000,960120.000000 1440180.000000,960120.000000 Z"/> 
<path style="fill:#000000; fill-opacity:1.0;  stroke:#000000; stroke-width:0.010000; stroke-opacity:1;  stroke-linecap:round; stroke-linejoin:round;fill-rule:evenodd;" d="M 1440180.000000,970280.000000 1455420.000000,970280.000000 1455420.000000,985520.000000 1440180.000000,985520.000000 Z"/> 
</g>
<g style="fill:#000000; fill-opacity:1.0;  stroke:#000000; stroke-width:0.010000; stroke-opacity:1;  stroke-linecap:round; stroke-linejoin:round;">
<circle cx="1270000.000000" cy="762000.000000" r="30000.000000"/> 
</g>
<g style="fill:#000000; fill-opacity:1.0;  stroke:#000000; stroke-width:0.010000; stroke-opacity:1;  stroke-linecap:round; stroke-linejoin:round;">
<path style="fill:#000000; fill-opacity:1.0;  stroke:#000000; stroke-width:0.010000; stroke-opacity:1;  stroke-linecap:round; stroke-linejoin:round;fill-rule:evenodd;" d="M 1554480.000000,845820.000000 1554480.000000,830580.000000 1569720.000000,830580.000000 1569720.000000,845820.000000 Z"/> 
<path style="fill:#000000; fill-opacity:1.0;  stroke:#000000; stroke-width:0.010000; stroke-opacity:1;  stroke-linecap:round; stroke-linejoin:round;fill-rule:evenodd;" d="M 1579880.000000,845820.000000 1579880.000000,830580.000000 1595120.000000,830580.000000 1595120.000000,845820.000000 Z"/> 
<path style="fill:#000000; fill-opacity:1.0;  stroke:#000000; stroke-width:0.010000; stroke-opacity:1;  stroke-linecap:round; stroke-linejoin:round;fill-rule:evenodd;" d="M 1554480.000000,871220.000000 1554480.000000,855980.000000 1569720.000000,855980.000000 1569720.000000,871220.000000 Z"/> 
<path style="fill:#000000; fill-opacity:1.0;  stroke:#000000; stroke-width:0.010000; stroke-opacity:1;  stroke-linecap:round; stroke-linejoin:round;fill-rule:evenodd;" d="M 1579880.000000,871220.000000 1579880.000000,855980.000000 1595120.000000,855980.000000 1595120.000000,871220.000000 Z"/> 
<path style="fill:#000000; fill-opacity:1.0;  stroke:#000000; stroke-width:0.010000; stroke-opacity:1;  stroke-linecap:round; stroke-linejoin:round;fill-rule:evenodd;" d="M 1554480.000000,896620.000000 1554480.000000,881380.000000 1569720.000000,881380.000000 1569720.000000,896620.000000 Z"/> 
<path style="fill:#000000; fill-opacity:1.0;  stroke:#000000; stroke-width:0.010000; stroke-opacity:1;  stroke-linecap:round; stroke-linejoin:round;fill-rule:evenodd;" d="M 1579880.000000,896620.000000 1579880.000000,881380.000000 1595120.000000,881380.000000 1595120.000000,896620.000000 Z"/> 
</g>
</g> 
</mask><mask id="hole-mask"><g><rect x="1221105.0" y="713105.0" fill="white" width="402590.0" height="300990.0"/><polyline stroke-linecap="round" stroke="black" stroke-width="8890.0" points="-0.0 0 0.0 0" transform="translate(1498600.0 762000.0) rotate(-270.0)"/><polyline stroke-linecap="round" stroke="black" stroke-width="8890.0" points="-0.0 0 0.0 0" transform="translate(1473200.0 762000.0) rotate(-270.0)"/><polyline stroke-linecap="round" stroke="black" stroke-width="8890.0" points="-0.0 0 0.0 0" transform="translate(1447800.0 762000.0) rotate(-270.0)"/><polyline stroke-linecap="round" stroke="black" stroke-width="8890.0" points="-0.0 0 0.0 0" transform="translate(1257300.0 838200.0) rotate(-0.0)"/><polyline stroke-linecap="round" stroke="black" stroke-width="8890.0" points="-0.0 0 0.0 0" transform="translate(1282700.0 838200.0) rotate(-0.0)"/><polyline stroke-linecap="round" stroke="black" stroke-width="8890.0" points="-0.0 0 0.0 0" transform="translate(1257300.0 863600.0) rotate(-0.0)"/><polyline stroke-linecap="round" stroke="black" stroke-width="8890.0" points="-0.0 0 0.0 0" transform="translate(1282700.0 863600.0) rotate(-0.0)"/><polyline stroke-linecap="round" stroke="black" stroke-width="8890.0" points="-0.0 0 0.0 0" transform="translate(1257300.0 889000.0) rotate(-0.0)"/><polyline stroke-linecap="round" stroke="black" stroke-width="8890.0" points="-0.0 0 0.0 0" transform="translate(1282700.0 889000.0) rotate(-0.0)"/><polyline stroke-linecap="round" stroke="black" stroke-width="30000.0" points="-0.0 0 0.0 0" transform="translate(1270000.0 965200.0) rotate(-0.0)"/><polyline stroke-linecap="round" stroke="black" stroke-width="30000.0" points="-0.0 0 0.0 0" transform="translate(1574800.0 762000.0) rotate(-0.0)"/><polyline stroke-linecap="round" stroke="black" stroke-width="8890.0" points="-0.0 0 0.0 0" transform="translate(1397000.0 762000.0) rotate(-270.0)"/><polyline stroke-linecap="round" stroke="black" stroke-width="8890.0" points="-0.0 0 0.0 0" transform="translate(1371600.0 762000.0) rotate(-270.0)"/><polyline stroke-linecap="round" stroke="black" stroke-width="8890.0" points="-0.0 0 0.0 0" transform="translate(1346200.0 762000.0) rotate(-270.0)"/><polyline stroke-linecap="round" stroke="black" stroke-width="8890.0" points="-0.0 0 0.0 0" transform="translate(1397000.0 965200.0) rotate(-270.0)"/><polyline stroke-linecap="round" stroke="black" stroke-width="8890.0" points="-0.0 0 0.0 0" transform="translate(1371600.0 965200.0) rotate(-270.0)"/><polyline stroke-linecap="round" stroke="black" stroke-width="8890.0" points="-0.0 0 0.0 0" transform="translate(1346200.0 965200.0) rotate(-270.0)"/><polyline stroke-linecap="round" stroke="black" stroke-width="30000.0" points="-0.0 0 0.0 0" transform="translate(1574800.0 965200.0) rotate(-0.0)"/><polyline stroke-linecap="round" stroke="black" stroke-width="8890.0" points="-0.0 0 0.0 0" transform="translate(1498600.0 952500.0) rotate(-270.0)"/><polyline stroke-linecap="round" stroke="black" stroke-width="8890.0" points="-0.0 0 0.0 0" transform="translate(1498600.0 977900.0) rotate(-270.0)"/><polyline stroke-linecap="round" stroke="black" stroke-width="8890.0" points="-0.0 0 0.0 0" transform="translate(1473200.0 952500.0) rotate(-270.0)"/><polyline stroke-linecap="round" stroke="black" stroke-width="8890.0" points="-0.0 0 0.0 0" transform="translate(1473200.0 977900.0) rotate(-270.0)"/><polyline stroke-linecap="round" stroke="black" stroke-width="8890.0" points="-0.0 0 0.0 0" transform="translate(1447800.0 952500.0) rotate(-270.0)"/><polyline stroke-linecap="round" stroke="black" stroke-width="8890.0" points="-0.0 0 0.0 0" transform="translate(1447800.0 977900.0) rotate(-270.0)"/><polyline stroke-linecap="round" stroke="black" stroke-width="30000.0" points="-0.0 0 0.0 0" transform="translate(1270000.0 762000.0) rotate(-0.0)"/><polyline stroke-linecap="round" stroke="black" stroke-width="8890.0" points="-0.0 0 0.0 0" transform="translate(1562100.0 838200.0) rotate(-0.0)"/><polyline stroke-linecap="round" stroke="black" stroke-width="8890.0" points="-0.0 0 0.0 0" transform="translate(1587500.0 838200.0) rotate(-0.0)"/><polyline stroke-linecap="round" stroke="black" stroke-width="8890.0" points="-0.0 0 0.0 0" transform="translate(1562100.0 863600.0) rotate(-0.0)"/><polyline stroke-linecap="round" stroke="black" stroke-width="8890.0" points="-0.0 0 0.0 0" transform="translate(1587500.0 863600.0) rotate(-0.0)"/><polyline stroke-linecap="round" stroke="black" stroke-width="8890.0" points="-0.0 0 0.0 0" transform="translate(1562100.0 889000.0) rotate(-0.0)"/><polyline stroke-linecap="round" stroke="black" stroke-width="8890.0" points="-0.0 0 0.0 0" transform="translate(1587500.0 889000.0) rotate(-0.0)"/><polyline stroke-linecap="round" stroke="black" stroke-width="4000.0" points="-0.0 0 0.0 0" transform="translate(1422400.0 817880.0) rotate(0)"/><polyline stroke-linecap="round" stroke="black" stroke-width="4000.0" points="-0.0 0 0.0 0" transform="translate(1412282.99 812757.01) rotate(0)"/></g></mask></defs><g transform="" id="boardContainer"><g id="substrate" clip-path="url(#cut-off)" mask="url(#hole-mask)"><g id="substrate-board" style="fill:#f1f4f3; stroke:#f1f4f3;"><path d=" M 1221740.0 1013460.0 L 1623060.0 1013460.0 L 1623060.0 713740.0 L 1221740.0 713740.0 L 1221740.0 1013460.0 " style="fill-rule: evenodd;"/><g style="fill-opacity: 0.0;stroke-width: 1270.000000;stroke-opacity: 1;stroke-linecap: round;stroke-linejoin: round">
<path d="M1221740 713740 L1221740 1013460 "/>
<path d="M1221740 1013460 L1623060 1013460 "/>
<path d="M1623060 713740 L1221740 713740 "/>
<path d="M1623060 1013460 L1623060 713740 "/>
</g> 
</g><g id="substrate-clad" style="fill:#72786c; stroke:#72786c;"><g style="fill-opacity: 0.0;stroke-width: 0.000000;stroke-opacity: 1;stroke-linecap: round;stroke-linejoin: round">
<g style="fill-opacity: 1.0;stroke-width: 0.010000;stroke-opacity: 1;stroke-linecap: round;stroke-linejoin: round">
<path style="fill-opacity: 1.0;stroke-width: 0.010000;stroke-opacity: 1;stroke-linecap: round;stroke-linejoin: round;fill-rule: evenodd" d="M 1490980.000000,754380.000000 1506220.000000,754380.000000 1506220.000000,769620.000000 1490980.000000,769620.000000 Z"/> 
<path style="fill-opacity: 1.0;stroke-width: 0.010000;stroke-opacity: 1;stroke-linecap: round;stroke-linejoin: round;fill-rule: evenodd" d="M 1465580.000000,754380.000000 1480820.000000,754380.000000 1480820.000000,769620.000000 1465580.000000,769620.000000 Z"/> 
<path style="fill-opacity: 1.0;stroke-width: 0.010000;stroke-opacity: 1;stroke-linecap: round;stroke-linejoin: round;fill-rule: evenodd" d="M 1440180.000000,754380.000000 1455420.000000,754380.000000 1455420.000000,769620.000000 1440180.000000,769620.000000 Z"/> 
</g>
<g style="fill-opacity: 1.0;stroke-width: 0.010000;stroke-opacity: 1;stroke-linecap: round;stroke-linejoin: round">
<path style="fill-opacity: 1.0;stroke-width: 0.010000;stroke-opacity: 1;stroke-linecap: round;stroke-linejoin: round;fill-rule: evenodd" d="M 1249680.000000,845820.000000 1249680.000000,830580.000000 1264920.000000,830580.000000 1264920.000000,845820.000000 Z"/> 
<path style="fill-opacity: 1.0;stroke-width: 0.010000;stroke-opacity: 1;stroke-linecap: round;stroke-linejoin: round;fill-rule: evenodd" d="M 1275080.000000,845820.000000 1275080.000000,830580.000000 1290320.000000,830580.000000 1290320.000000,845820.000000 Z"/> 
<path style="fill-opacity: 1.0;stroke-width: 0.010000;stroke-opacity: 1;stroke-linecap: round;stroke-linejoin: round;fill-rule: evenodd" d="M 1249680.000000,871220.000000 1249680.000000,855980.000000 1264920.000000,855980.000000 1264920.000000,871220.000000 Z"/> 
<path style="fill-opacity: 1.0;stroke-width: 0.010000;stroke-opacity: 1;stroke-linecap: round;stroke-linejoin: round;fill-rule: evenodd" d="M 1275080.000000,871220.000000 1275080.000000,855980.000000 1290320.000000,855980.000000 1290320.000000,871220.000000 Z"/> 
<path style="fill-opacity: 1.0;stroke-width: 0.010000;stroke-opacity: 1;stroke-linecap: round;stroke-linejoin: round;fill-rule: evenodd" d="M 1249680.000000,896620.000000 1249680.000000,881380.000000 1264920.000000,881380.000000 1264920.000000,896620.000000 Z"/> 
<path style="fill-opacity: 1.0;stroke-width: 0.010000;stroke-opacity: 1;stroke-linecap: round;stroke-linejoin: round;fill-rule: evenodd" d="M 1275080.000000,896620.000000 1275080.000000,881380.000000 1290320.000000,881380.000000 1290320.000000,896620.000000 Z"/> 
</g>
<g style="fill-opacity: 1.0;stroke-width: 0.010000;stroke-opacity: 1;stroke-linecap: round;stroke-linejoin: round">
<circle cx="1270000.000000" cy="965200.000000" r="30000.000000"/> 
</g>
<g style="fill-opacity: 1.0;stroke-width: 0.010000;stroke-opacity: 1;stroke-linecap: round;stroke-linejoin: round">
<circle cx="1574800.000000" cy="762000.000000" r="30000.000000"/> 
</g>
<g style="fill-opacity: 1.0;stroke-width: 0.010000;stroke-opacity: 1;stroke-linecap: round;stroke-linejoin: round">
<path style="fill-opacity: 1.0;stroke-width: 0.010000;stroke-opacity: 1;stroke-linecap: round;stroke-linejoin: round;fill-rule: evenodd" d="M 1389380.000000,754380.000000 1404620.000000,754380.000000 1404620.000000,769620.000000 1389380.000000,769620.000000 Z"/> 
<path style="fill-opacity: 1.0;stroke-width: 0.010000;stroke-opacity: 1;stroke-linecap: round;stroke-linejoin: round;fill-rule: evenodd" d="M 1363980.000000,754380.000000 1379220.000000,754380.000000 1379220.000000,769620.000000 1363980.000000,769620.000000 Z"/> 
<path style="fill-opacity: 1.0;stroke-width: 0.010000;stroke-opacity: 1;stroke-linecap: round;stroke-linejoin: round;fill-rule: evenodd" d="M 1338580.000000,754380.000000 1353820.000000,754380.000000 1353820.000000,769620.000000 1338580.000000,769620.000000 Z"/> 
</g>
<g style="fill-opacity: 1.0;stroke-width: 0.010000;stroke-opacity: 1;stroke-linecap: round;stroke-linejoin: round">
<path style="fill-opacity: 1.0;stroke-width: 0.010000;stroke-opacity: 1;stroke-linecap: round;stroke-linejoin: round;fill-rule: evenodd" d="M 1389380.000000,957580.000000 1404620.000000,957580.000000 1404620.000000,972820.000000 1389380.000000,972820.000000 Z"/> 
<path style="fill-opacity: 1.0;stroke-width: 0.010000;stroke-opacity: 1;stroke-linecap: round;stroke-linejoin: round;fill-rule: evenodd" d="M 1363980.000000,957580.000000 1379220.000000,957580.000000 1379220.000000,972820.000000 1363980.000000,972820.000000 Z"/> 
<path style="fill-opacity: 1.0;stroke-width: 0.010000;stroke-opacity: 1;stroke-linecap: round;stroke-linejoin: round;fill-rule: evenodd" d="M 1338580.000000,957580.000000 1353820.000000,957580.000000 1353820.000000,972820.000000 1338580.000000,972820.000000 Z"/> 
</g>
<g style="fill-opacity: 1.0;stroke-width: 0.010000;stroke-opacity: 1;stroke-linecap: round;stroke-linejoin: round">
<circle cx="1574800.000000" cy="965200.000000" r="30000.000000"/> 
</g>
<g style="fill-opacity: 1.0;stroke-width: 0.010000;stroke-opacity: 1;stroke-linecap: round;stroke-linejoin: round">
<path style="fill-opacity: 1.0;stroke-width: 0.010000;stroke-opacity: 1;stroke-linecap: round;stroke-linejoin: round;fill-rule: evenodd" d="M 1490980.000000,944880.000000 1506220.000000,944880.000000 1506220.000000,960120.000000 1490980.000000,960120.000000 Z"/> 
<path style="fill-opacity: 1.0;stroke-width: 0.010000;stroke-opacity: 1;stroke-linecap: round;stroke-linejoin: round;fill-rule: evenodd" d="M 1490980.000000,970280.000000 1506220.000000,970280.000000 1506220.000000,985520.000000 1490980.000000,985520.000000 Z"/> 
<path style="fill-opacity: 1.0;stroke-width: 0.010000;stroke-opacity: 1;stroke-linecap: round;stroke-linejoin: round;fill-rule: evenodd" d="M 1465580.000000,944880.000000 1480820.000000,944880.000000 1480820.000000,960120.000000 1465580.000000,960120.000000 Z"/> 
<path style="fill-opacity: 1.0;stroke-width: 0.010000;stroke-opacity: 1;stroke-linecap: round;stroke-linejoin: round;fill-rule: evenodd" d="M 1465580.000000,970280.000000 1480820.000000,970280.000000 1480820.000000,985520.000000 1465580.000000,985520.000000 Z"/> 
<path style="fill-opacity: 1.0;stroke-width: 0.010000;stroke-opacity: 1;stroke-linecap: round;stroke-linejoin: round;fill-rule: evenodd" d="M 1440180.000000,944880.000000 1455420.000000,944880.000000 1455420.000000,960120.000000 1440180.000000,960120.000000 Z"/> 
<path style="fill-opacity: 1.0;stroke-width: 0.010000;stroke-opacity: 1;stroke-linecap: round;stroke-linejoin: round;fill-rule: evenodd" d="M 1440180.000000,970280.000000 1455420.000000,970280.000000 1455420.000000,985520.000000 1440180.000000,985520.000000 Z"/> 
</g>
<g style="fill-opacity: 1.0;stroke-width: 0.010000;stroke-opacity: 1;stroke-linecap: round;stroke-linejoin: round">
<circle cx="1270000.000000" cy="762000.000000" r="30000.000000"/> 
</g>
<g style="fill-opacity: 1.0;stroke-width: 0.010000;stroke-opacity: 1;stroke-linecap: round;stroke-linejoin: round">
<path style="fill-opacity: 1.0;stroke-width: 0.010000;stroke-opacity: 1;stroke-linecap: round;stroke-linejoin: round;fill-rule: evenodd" d="M 1554480.000000,845820.000000 1554480.000000,830580.000000 1569720.000000,830580.000000 1569720.000000,845820.000000 Z"/> 
<path style="fill-opacity: 1.0;stroke-width: 0.010000;stroke-opacity: 1;stroke-linecap: round;stroke-linejoin: round;fill-rule: evenodd" d="M 1579880.000000,845820.000000 1579880.000000,830580.000000 1595120.000000,830580.000000 1595120.000000,845820.000000 Z"/> 
<path style="fill-opacity: 1.0;stroke-width: 0.010000;stroke-opacity: 1;stroke-linecap: round;stroke-linejoin: round;fill-rule: evenodd" d="M 1554480.000000,871220.000000 1554480.000000,855980.000000 1569720.000000,855980.000000 1569720.000000,871220.000000 Z"/> 
<path style="fill-opacity: 1.0;stroke-width: 0.010000;stroke-opacity: 1;stroke-linecap: round;stroke-linejoin: round;fill-rule: evenodd" d="M 1579880.000000,871220.000000 1579880.000000,855980.000000 1595120.000000,855980.000000 1595120.000000,871220.000000 Z"/> 
<path style="fill-opacity: 1.0;stroke-width: 0.010000;stroke-opacity: 1;stroke-linecap: round;stroke-linejoin: round;fill-rule: evenodd" d="M 1554480.000000,896620.000000 1554480.000000,881380.000000 1569720.000000,881380.000000 1569720.000000,896620.000000 Z"/> 
<path style="fill-opacity: 1.0;stroke-width: 0.010000;stroke-opacity: 1;stroke-linecap: round;stroke-linejoin: round;fill-rule: evenodd" d="M 1579880.000000,896620.000000 1579880.000000,881380.000000 1595120.000000,881380.000000 1595120.000000,896620.000000 Z"/> 
</g>
</g> 
</g><g id="substrate-copper" style="fill:#f8f8f7; stroke:#f8f8f7;"><g style="fill-opacity: 0.0;stroke-width: 0.000000;stroke-opacity: 1;stroke-linecap: round;stroke-linejoin: round">
<g style="fill-opacity: 1.0;stroke-width: 0.010000;stroke-opacity: 1;stroke-linecap: round;stroke-linejoin: round">
<path style="fill-opacity: 1.0;stroke-width: 0.010000;stroke-opacity: 1;stroke-linecap: round;stroke-linejoin: round;fill-rule: evenodd" d="M 1490980.000000,754380.000000 1506220.000000,754380.000000 1506220.000000,769620.000000 1490980.000000,769620.000000 Z"/> 
<path style="fill-opacity: 1.0;stroke-width: 0.010000;stroke-opacity: 1;stroke-linecap: round;stroke-linejoin: round;fill-rule: evenodd" d="M 1465580.000000,754380.000000 1480820.000000,754380.000000 1480820.000000,769620.000000 1465580.000000,769620.000000 Z"/> 
<path style="fill-opacity: 1.0;stroke-width: 0.010000;stroke-opacity: 1;stroke-linecap: round;stroke-linejoin: round;fill-rule: evenodd" d="M 1440180.000000,754380.000000 1455420.000000,754380.000000 1455420.000000,769620.000000 1440180.000000,769620.000000 Z"/> 
</g>
<g style="fill-opacity: 1.0;stroke-width: 0.010000;stroke-opacity: 1;stroke-linecap: round;stroke-linejoin: round">
<path style="fill-opacity: 1.0;stroke-width: 0.010000;stroke-opacity: 1;stroke-linecap: round;stroke-linejoin: round;fill-rule: evenodd" d="M 1249680.000000,845820.000000 1249680.000000,830580.000000 1264920.000000,830580.000000 1264920.000000,845820.000000 Z"/> 
<path style="fill-opacity: 1.0;stroke-width: 0.010000;stroke-opacity: 1;stroke-linecap: round;stroke-linejoin: round;fill-rule: evenodd" d="M 1275080.000000,845820.000000 1275080.000000,830580.000000 1290320.000000,830580.000000 1290320.000000,845820.000000 Z"/> 
<path style="fill-opacity: 1.0;stroke-width: 0.010000;stroke-opacity: 1;stroke-linecap: round;stroke-linejoin: round;fill-rule: evenodd" d="M 1249680.000000,871220.000000 1249680.000000,855980.000000 1264920.000000,855980.000000 1264920.000000,871220.000000 Z"/> 
<path style="fill-opacity: 1.0;stroke-width: 0.010000;stroke-opacity: 1;stroke-linecap: round;stroke-linejoin: round;fill-rule: evenodd" d="M 1275080.000000,871220.000000 1275080.000000,855980.000000 1290320.000000,855980.000000 1290320.000000,871220.000000 Z"/> 
<path style="fill-opacity: 1.0;stroke-width: 0.010000;stroke-opacity: 1;stroke-linecap: round;stroke-linejoin: round;fill-rule: evenodd" d="M 1249680.000000,896620.000000 1249680.000000,881380.000000 1264920.000000,881380.000000 1264920.000000,896620.000000 Z"/> 
<path style="fill-opacity: 1.0;stroke-width: 0.010000;stroke-opacity: 1;stroke-linecap: round;stroke-linejoin: round;fill-rule: evenodd" d="M 1275080.000000,896620.000000 1275080.000000,881380.000000 1290320.000000,881380.000000 1290320.000000,896620.000000 Z"/> 
</g>
<g style="fill-opacity: 1.0;stroke-width: 0.010000;stroke-opacity: 1;stroke-linecap: round;stroke-linejoin: round">
<circle cx="1270000.000000" cy="965200.000000" r="30000.000000"/> 
</g>
<g style="fill-opacity: 1.0;stroke-width: 0.010000;stroke-opacity: 1;stroke-linecap: round;stroke-linejoin: round">
<circle cx="1574800.000000" cy="762000.000000" r="30000.000000"/> 
</g>
<g style="fill-opacity: 1.0;stroke-width: 0.010000;stroke-opacity: 1;stroke-linecap: round;stroke-linejoin: round">
<path style="fill-opacity: 1.0;stroke-width: 0.010000;stroke-opacity: 1;stroke-linecap: round;stroke-linejoin: round;fill-rule: evenodd" d="M 1389380.000000,754380.000000 1404620.000000,754380.000000 1404620.000000,769620.000000 1389380.000000,769620.000000 Z"/> 
<path style="fill-opacity: 1.0;stroke-width: 0.010000;stroke-opacity: 1;stroke-linecap: round;stroke-linejoin: round;fill-rule: evenodd" d="M 1363980.000000,754380.000000 1379220.000000,754380.000000 1379220.000000,769620.000000 1363980.000000,769620.000000 Z"/> 
<path style="fill-opacity: 1.0;stroke-width: 0.010000;stroke-opacity: 1;stroke-linecap: round;stroke-linejoin: round;fill-rule: evenodd" d="M 1338580.000000,754380.000000 1353820.000000,754380.000000 1353820.000000,769620.000000 1338580.000000,769620.000000 Z"/> 
</g>
<g style="fill-opacity: 1.0;stroke-width: 0.010000;stroke-opacity: 1;stroke-linecap: round;stroke-linejoin: round">
<path style="fill-opacity: 1.0;stroke-width: 0.010000;stroke-opacity: 1;stroke-linecap: round;stroke-linejoin: round;fill-rule: evenodd" d="M 1389380.000000,957580.000000 1404620.000000,957580.000000 1404620.000000,972820.000000 1389380.000000,972820.000000 Z"/> 
<path style="fill-opacity: 1.0;stroke-width: 0.010000;stroke-opacity: 1;stroke-linecap: round;stroke-linejoin: round;fill-rule: evenodd" d="M 1363980.000000,957580.000000 1379220.000000,957580.000000 1379220.000000,972820.000000 1363980.000000,972820.000000 Z"/> 
<path style="fill-opacity: 1.0;stroke-width: 0.010000;stroke-opacity: 1;stroke-linecap: round;stroke-linejoin: round;fill-rule: evenodd" d="M 1338580.000000,957580.000000 1353820.000000,957580.000000 1353820.000000,972820.000000 1338580.000000,972820.000000 Z"/> 
</g>
<g style="fill-opacity: 1.0;stroke-width: 0.010000;stroke-opacity: 1;stroke-linecap: round;stroke-linejoin: round">
<circle cx="1574800.000000" cy="965200.000000" r="30000.000000"/> 
</g>
<g style="fill-opacity: 1.0;stroke-width: 0.010000;stroke-opacity: 1;stroke-linecap: round;stroke-linejoin: round">
<path style="fill-opacity: 1.0;stroke-width: 0.010000;stroke-opacity: 1;stroke-linecap: round;stroke-linejoin: round;fill-rule: evenodd" d="M 1490980.000000,944880.000000 1506220.000000,944880.000000 1506220.000000,960120.000000 1490980.000000,960120.000000 Z"/> 
<path style="fill-opacity: 1.0;stroke-width: 0.010000;stroke-opacity: 1;stroke-linecap: round;stroke-linejoin: round;fill-rule: evenodd" d="M 1490980.000000,970280.000000 1506220.000000,970280.000000 1506220.000000,985520.000000 1490980.000000,985520.000000 Z"/> 
<path style="fill-opacity: 1.0;stroke-width: 0.010000;stroke-opacity: 1;stroke-linecap: round;stroke-linejoin: round;fill-rule: evenodd" d="M 1465580.000000,944880.000000 1480820.000000,944880.000000 1480820.000000,960120.000000 1465580.000000,960120.000000 Z"/> 
<path style="fill-opacity: 1.0;stroke-width: 0.010000;stroke-opacity: 1;stroke-linecap: round;stroke-linejoin: round;fill-rule: evenodd" d="M 1465580.000000,970280.000000 1480820.000000,970280.000000 1480820.000000,985520.000000 1465580.000000,985520.000000 Z"/> 
<path style="fill-opacity: 1.0;stroke-width: 0.010000;stroke-opacity: 1;stroke-linecap: round;stroke-linejoin: round;fill-rule: evenodd" d="M 1440180.000000,944880.000000 1455420.000000,944880.000000 1455420.000000,960120.000000 1440180.000000,960120.000000 Z"/> 
<path style="fill-opacity: 1.0;stroke-width: 0.010000;stroke-opacity: 1;stroke-linecap: round;stroke-linejoin: round;fill-rule: evenodd" d="M 1440180.000000,970280.000000 1455420.000000,970280.000000 1455420.000000,985520.000000 1440180.000000,985520.000000 Z"/> 
</g>
<g style="fill-opacity: 1.0;stroke-width: 0.010000;stroke-opacity: 1;stroke-linecap: round;stroke-linejoin: round">
<circle cx="1270000.000000" cy="762000.000000" r="30000.000000"/> 
</g>
<g style="fill-opacity: 1.0;stroke-width: 0.010000;stroke-opacity: 1;stroke-linecap: round;stroke-linejoin: round">
<path style="fill-opacity: 1.0;stroke-width: 0.010000;stroke-opacity: 1;stroke-linecap: round;stroke-linejoin: round;fill-rule: evenodd" d="M 1554480.000000,845820.000000 1554480.000000,830580.000000 1569720.000000,830580.000000 1569720.000000,845820.000000 Z"/> 
<path style="fill-opacity: 1.0;stroke-width: 0.010000;stroke-opacity: 1;stroke-linecap: round;stroke-linejoin: round;fill-rule: evenodd" d="M 1579880.000000,845820.000000 1579880.000000,830580.000000 1595120.000000,830580.000000 1595120.000000,845820.000000 Z"/> 
<path style="fill-opacity: 1.0;stroke-width: 0.010000;stroke-opacity: 1;stroke-linecap: round;stroke-linejoin: round;fill-rule: evenodd" d="M 1554480.000000,871220.000000 1554480.000000,855980.000000 1569720.000000,855980.000000 1569720.000000,871220.000000 Z"/> 
<path style="fill-opacity: 1.0;stroke-width: 0.010000;stroke-opacity: 1;stroke-linecap: round;stroke-linejoin: round;fill-rule: evenodd" d="M 1579880.000000,871220.000000 1579880.000000,855980.000000 1595120.000000,855980.000000 1595120.000000,871220.000000 Z"/> 
<path style="fill-opacity: 1.0;stroke-width: 0.010000;stroke-opacity: 1;stroke-linecap: round;stroke-linejoin: round;fill-rule: evenodd" d="M 1554480.000000,896620.000000 1554480.000000,881380.000000 1569720.000000,881380.000000 1569720.000000,896620.000000 Z"/> 
<path style="fill-opacity: 1.0;stroke-width: 0.010000;stroke-opacity: 1;stroke-linecap: round;stroke-linejoin: round;fill-rule: evenodd" d="M 1579880.000000,896620.000000 1579880.000000,881380.000000 1595120.000000,881380.000000 1595120.000000,896620.000000 Z"/> 
</g>
<g style="fill-opacity: 1.0;stroke-width: 0.010000;stroke-opacity: 1;stroke-linecap: round;stroke-linejoin: round">
<circle cx="1422400.000000" cy="817880.000000" r="4000.000000"/> 
</g>
<g style="fill-opacity: 1.0;stroke-width: 0.010000;stroke-opacity: 1;stroke-linecap: round;stroke-linejoin: round">
<circle cx="1412282.990000" cy="812757.010000" r="4000.000000"/> 
</g>
<g style="fill-opacity: 0.0;stroke-width: 4000.000000;stroke-opacity: 1;stroke-linecap: round;stroke-linejoin: round">
<path d="M1371600 853440 L1412282 812757 "/>
<path d="M1371600 965200 L1371600 853440 "/>
</g>
</g> 
</g><g id="substrate-pads" style="fill:#c4c1ba; stroke:#c4c1ba;" mask="url(#pads-mask)"><g style="fill-opacity: 0.0;stroke-width: 0.000000;stroke-opacity: 1;stroke-linecap: round;stroke-linejoin: round">
<g style="fill-opacity: 1.0;stroke-width: 0.010000;stroke-opacity: 1;stroke-linecap: round;stroke-linejoin: round">
<path style="fill-opacity: 1.0;stroke-width: 0.010000;stroke-opacity: 1;stroke-linecap: round;stroke-linejoin: round;fill-rule: evenodd" d="M 1490980.000000,754380.000000 1506220.000000,754380.000000 1506220.000000,769620.000000 1490980.000000,769620.000000 Z"/> 
<path style="fill-opacity: 1.0;stroke-width: 0.010000;stroke-opacity: 1;stroke-linecap: round;stroke-linejoin: round;fill-rule: evenodd" d="M 1465580.000000,754380.000000 1480820.000000,754380.000000 1480820.000000,769620.000000 1465580.000000,769620.000000 Z"/> 
<path style="fill-opacity: 1.0;stroke-width: 0.010000;stroke-opacity: 1;stroke-linecap: round;stroke-linejoin: round;fill-rule: evenodd" d="M 1440180.000000,754380.000000 1455420.000000,754380.000000 1455420.000000,769620.000000 1440180.000000,769620.000000 Z"/> 
</g>
<g style="fill-opacity: 1.0;stroke-width: 0.010000;stroke-opacity: 1;stroke-linecap: round;stroke-linejoin: round">
<path style="fill-opacity: 1.0;stroke-width: 0.010000;stroke-opacity: 1;stroke-linecap: round;stroke-linejoin: round;fill-rule: evenodd" d="M 1249680.000000,845820.000000 1249680.000000,830580.000000 1264920.000000,830580.000000 1264920.000000,845820.000000 Z"/> 
<path style="fill-opacity: 1.0;stroke-width: 0.010000;stroke-opacity: 1;stroke-linecap: round;stroke-linejoin: round;fill-rule: evenodd" d="M 1275080.000000,845820.000000 1275080.000000,830580.000000 1290320.000000,830580.000000 1290320.000000,845820.000000 Z"/> 
<path style="fill-opacity: 1.0;stroke-width: 0.010000;stroke-opacity: 1;stroke-linecap: round;stroke-linejoin: round;fill-rule: evenodd" d="M 1249680.000000,871220.000000 1249680.000000,855980.000000 1264920.000000,855980.000000 1264920.000000,871220.000000 Z"/> 
<path style="fill-opacity: 1.0;stroke-width: 0.010000;stroke-opacity: 1;stroke-linecap: round;stroke-linejoin: round;fill-rule: evenodd" d="M 1275080.000000,871220.000000 1275080.000000,855980.000000 1290320.000000,855980.000000 1290320.000000,871220.000000 Z"/> 
<path style="fill-opacity: 1.0;stroke-width: 0.010000;stroke-opacity: 1;stroke-linecap: round;stroke-linejoin: round;fill-rule: evenodd" d="M 1249680.000000,896620.000000 1249680.000000,881380.000000 1264920.000000,881380.000000 1264920.000000,896620.000000 Z"/> 
<path style="fill-opacity: 1.0;stroke-width: 0.010000;stroke-opacity: 1;stroke-linecap: round;stroke-linejoin: round;fill-rule: evenodd" d="M 1275080.000000,896620.000000 1275080.000000,881380.000000 1290320.000000,881380.000000 1290320.000000,896620.000000 Z"/> 
</g>
<g style="fill-opacity: 1.0;stroke-width: 0.010000;stroke-opacity: 1;stroke-linecap: round;stroke-linejoin: round">
<circle cx="1270000.000000" cy="965200.000000" r="30000.000000"/> 
</g>
<g style="fill-opacity: 1.0;stroke-width: 0.010000;stroke-opacity: 1;stroke-linecap: round;stroke-linejoin: round">
<circle cx="1574800.000000" cy="762000.000000" r="30000.000000"/> 
</g>
<g style="fill-opacity: 1.0;stroke-width: 0.010000;stroke-opacity: 1;stroke-linecap: round;stroke-linejoin: round">
<path style="fill-opacity: 1.0;stroke-width: 0.010000;stroke-opacity: 1;stroke-linecap: round;stroke-linejoin: round;fill-rule: evenodd" d="M 1389380.000000,754380.000000 1404620.000000,754380.000000 1404620.000000,769620.000000 1389380.000000,769620.000000 Z"/> 
<path style="fill-opacity: 1.0;stroke-width: 0.010000;stroke-opacity: 1;stroke-linecap: round;stroke-linejoin: round;fill-rule: evenodd" d="M 1363980.000000,754380.000000 1379220.000000,754380.000000 1379220.000000,769620.000000 1363980.000000,769620.000000 Z"/> 
<path style="fill-opacity: 1.0;stroke-width: 0.010000;stroke-opacity: 1;stroke-linecap: round;stroke-linejoin: round;fill-rule: evenodd" d="M 1338580.000000,754380.000000 1353820.000000,754380.000000 1353820.000000,769620.000000 1338580.000000,769620.000000 Z"/> 
</g>
<g style="fill-opacity: 1.0;stroke-width: 0.010000;stroke-opacity: 1;stroke-linecap: round;stroke-linejoin: round">
<path style="fill-opacity: 1.0;stroke-width: 0.010000;stroke-opacity: 1;stroke-linecap: round;stroke-linejoin: round;fill-rule: evenodd" d="M 1389380.000000,957580.000000 1404620.000000,957580.000000 1404620.000000,972820.000000 1389380.000000,972820.000000 Z"/> 
<path style="fill-opacity: 1.0;stroke-width: 0.010000;stroke-opacity: 1;stroke-linecap: round;stroke-linejoin: round;fill-rule: evenodd" d="M 1363980.000000,957580.000000 1379220.000000,957580.000000 1379220.000000,972820.000000 1363980.000000,972820.000000 Z"/> 
<path style="fill-opacity: 1.0;stroke-width: 0.010000;stroke-opacity: 1;stroke-linecap: round;stroke-linejoin: round;fill-rule: evenodd" d="M 1338580.000000,957580.000000 1353820.000000,957580.000000 1353820.000000,972820.000000 1338580.000000,972820.000000 Z"/> 
</g>
<g style="fill-opacity: 1.0;stroke-width: 0.010000;stroke-opacity: 1;stroke-linecap: round;stroke-linejoin: round">
<circle cx="1574800.000000" cy="965200.000000" r="30000.000000"/> 
</g>
<g style="fill-opacity: 1.0;stroke-width: 0.010000;stroke-opacity: 1;stroke-linecap: round;stroke-linejoin: round">
<path style="fill-opacity: 1.0;stroke-width: 0.010000;stroke-opacity: 1;stroke-linecap: round;stroke-linejoin: round;fill-rule: evenodd" d="M 1490980.000000,944880.000000 1506220.000000,944880.000000 1506220.000000,960120.000000 1490980.000000,960120.000000 Z"/> 
<path style="fill-opacity: 1.0;stroke-width: 0.010000;stroke-opacity: 1;stroke-linecap: round;stroke-linejoin: round;fill-rule: evenodd" d="M 1490980.000000,970280.000000 1506220.000000,970280.000000 1506220.000000,985520.000000 1490980.000000,985520.000000 Z"/> 
<path style="fill-opacity: 1.0;stroke-width: 0.010000;stroke-opacity: 1;stroke-linecap: round;stroke-linejoin: round;fill-rule: evenodd" d="M 1465580.000000,944880.000000 1480820.000000,944880.000000 1480820.000000,960120.000000 1465580.000000,960120.000000 Z"/> 
<path style="fill-opacity: 1.0;stroke-width: 0.010000;stroke-opacity: 1;stroke-linecap: round;stroke-linejoin: round;fill-rule: evenodd" d="M 1465580.000000,970280.000000 1480820.000000,970280.000000 1480820.000000,985520.000000 1465580.000000,985520.000000 Z"/> 
<path style="fill-opacity: 1.0;stroke-width: 0.010000;stroke-opacity: 1;stroke-linecap: round;stroke-linejoin: round;fill-rule: evenodd" d="M 1440180.000000,944880.000000 1455420.000000,944880.000000 1455420.000000,960120.000000 1440180.000000,960120.000000 Z"/> 
<path style="fill-opacity: 1.0;stroke-width: 0.010000;stroke-opacity: 1;stroke-linecap: round;stroke-linejoin: round;fill-rule: evenodd" d="M 1440180.000000,970280.000000 1455420.000000,970280.000000 1455420.000000,985520.000000 1440180.000000,985520.000000 Z"/> 
</g>
<g style="fill-opacity: 1.0;stroke-width: 0.010000;stroke-opacity: 1;stroke-linecap: round;stroke-linejoin: round">
<circle cx="1270000.000000" cy="762000.000000" r="30000.000000"/> 
</g>
<g style="fill-opacity: 1.0;stroke-width: 0.010000;stroke-opacity: 1;stroke-linecap: round;stroke-linejoin: round">
<path style="fill-opacity: 1.0;stroke-width: 0.010000;stroke-opacity: 1;stroke-linecap: round;stroke-linejoin: round;fill-rule: evenodd" d="M 1554480.000000,845820.000000 1554480.000000,830580.000000 1569720.000000,830580.000000 1569720.000000,845820.000000 Z"/> 
<path style="fill-opacity: 1.0;stroke-width: 0.010000;stroke-opacity: 1;stroke-linecap: round;stroke-linejoin: round;fill-rule: evenodd" d="M 1579880.000000,845820.000000 1579880.000000,830580.000000 1595120.000000,830580.000000 1595120.000000,845820.000000 Z"/> 
<path style="fill-opacity: 1.0;stroke-width: 0.010000;stroke-opacity: 1;stroke-linecap: round;stroke-linejoin: round;fill-rule: evenodd" d="M 1554480.000000,871220.000000 1554480.000000,855980.000000 1569720.000000,855980.000000 1569720.000000,871220.000000 Z"/> 
<path style="fill-opacity: 1.0;stroke-width: 0.010000;stroke-opacity: 1;stroke-linecap: round;stroke-linejoin: round;fill-rule: evenodd" d="M 1579880.000000,871220.000000 1579880.000000,855980.000000 1595120.000000,855980.000000 1595120.000000,871220.000000 Z"/> 
<path style="fill-opacity: 1.0;stroke-width: 0.010000;stroke-opacity: 1;stroke-linecap: round;stroke-linejoin: round;fill-rule: evenodd" d="M 1554480.000000,896620.000000 1554480.000000,881380.000000 1569720.000000,881380.000000 1569720.000000,896620.000000 Z"/> 
<path style="fill-opacity: 1.0;stroke-width: 0.010000;stroke-opacity: 1;stroke-linecap: round;stroke-linejoin: round;fill-rule: evenodd" d="M 1579880.000000,896620.000000 1579880.000000,881380.000000 1595120.000000,881380.000000 1595120.000000,896620.000000 Z"/> 
</g>
<g style="fill-opacity: 1.0;stroke-width: 0.010000;stroke-opacity: 1;stroke-linecap: round;stroke-linejoin: round">
<circle cx="1422400.000000" cy="817880.000000" r="4000.000000"/> 
</g>
<g style="fill-opacity: 1.0;stroke-width: 0.010000;stroke-opacity: 1;stroke-linecap: round;stroke-linejoin: round">
<circle cx="1412282.990000" cy="812757.010000" r="4000.000000"/> 
</g>
<g style="fill-opacity: 0.0;stroke-width: 4000.000000;stroke-opacity: 1;stroke-linecap: round;stroke-linejoin: round">
<path d="M1371600 853440 L1412282 812757 "/>
<path d="M1371600 965200 L1371600 853440 "/>
</g>
</g> 
</g><g id="substrate-silk" style="fill:#0b1013; stroke:#0b1013;" mask="url(#pads-mask-silkscreen)"><g style="fill-opacity: 0.0;stroke-width: 1500.000000;stroke-opacity: 1;stroke-linecap: round;stroke-linejoin: round">
<text x="1473200.000000" y="934640.000000" textLength="89092.860000" font-size="13333.330000" lengthAdjust="spacingAndGlyphs" text-anchor="middle" opacity="0">POWER OUT</text>
<g class="stroked-text"><desc>POWER OUT</desc>
<path d="M1432009 934163 L1432009 924163 L1435819 924163 L1436771 924640 L1437247 925116 L1437723 926068 L1437723 927497 L1437247 928449 L1436771 928925 L1435819 929401 L1432009 929401 "/>
<path d="M1443914 924163 L1445819 924163 L1446771 924640 L1447723 925592 L1448200 927497 L1448200 930830 L1447723 932735 L1446771 933687 L1445819 934163 L1443914 934163 L1442961 933687 L1442009 932735 L1441533 930830 L1441533 927497 L1442009 925592 L1442961 924640 L1443914 924163 "/>
<path d="M1451533 924163 L1453914 934163 L1455819 927020 L1457723 934163 L1460104 924163 "/>
<path d="M1463914 928925 L1467247 928925 "/>
<path d="M1468676 934163 L1463914 934163 L1463914 924163 L1468676 924163 "/>
<path d="M1478676 934163 L1475342 929401 "/>
<path d="M1472961 934163 L1472961 924163 L1476771 924163 L1477723 924640 L1478200 925116 L1478676 926068 L1478676 927497 L1478200 928449 L1477723 928925 L1476771 929401 L1472961 929401 "/>
<path d="M1492485 924163 L1494390 924163 L1495342 924640 L1496295 925592 L1496771 927497 L1496771 930830 L1496295 932735 L1495342 933687 L1494390 934163 L1492485 934163 L1491533 933687 L1490580 932735 L1490104 930830 L1490104 927497 L1490580 925592 L1491533 924640 L1492485 924163 "/>
<path d="M1501057 924163 L1501057 932259 L1501533 933211 L1502009 933687 L1502961 934163 L1504866 934163 L1505819 933687 L1506295 933211 L1506771 932259 L1506771 924163 "/>
<path d="M1510104 924163 L1515819 924163 "/>
<path d="M1512961 934163 L1512961 924163 "/>
</g><text x="1422400.000000" y="860550.000000" textLength="126711.900000" font-size="13333.330000" lengthAdjust="spacingAndGlyphs" text-anchor="middle" opacity="0">STEPBUBODC01A</text>
<g class="stroked-text"><desc>STEPBUBODC01A</desc>
<path d="M1361923 859597 L1363352 860073 L1365733 860073 L1366685 859597 L1367161 859121 L1367638 858169 L1367638 857216 L1367161 856264 L1366685 855788 L1365733 855311 L1363828 854835 L1362876 854359 L1362400 853883 L1361923 852930 L1361923 851978 L1362400 851026 L1362876 850550 L1363828 850073 L1366209 850073 L1367638 850550 "/>
<path d="M1370495 850073 L1376209 850073 "/>
<path d="M1373352 860073 L1373352 850073 "/>
<path d="M1379542 854835 L1382876 854835 "/>
<path d="M1384304 860073 L1379542 860073 L1379542 850073 L1384304 850073 "/>
<path d="M1388590 860073 L1388590 850073 L1392400 850073 L1393352 850550 L1393828 851026 L1394304 851978 L1394304 853407 L1393828 854359 L1393352 854835 L1392400 855311 L1388590 855311 "/>
<path d="M1401923 854835 L1403352 855311 L1403828 855788 L1404304 856740 L1404304 858169 L1403828 859121 L1403352 859597 L1402400 860073 L1398590 860073 L1398590 850073 L1401923 850073 L1402876 850550 L1403352 851026 L1403828 851978 L1403828 852930 L1403352 853883 L1402876 854359 L1401923 854835 L1398590 854835 "/>
<path d="M1408590 850073 L1408590 858169 L1409066 859121 L1409542 859597 L1410495 860073 L1412400 860073 L1413352 859597 L1413828 859121 L1414304 858169 L1414304 850073 "/>
<path d="M1422400 854835 L1423828 855311 L1424304 855788 L1424780 856740 L1424780 858169 L1424304 859121 L1423828 859597 L1422876 860073 L1419066 860073 L1419066 850073 L1422400 850073 L1423352 850550 L1423828 851026 L1424304 851978 L1424304 852930 L1423828 853883 L1423352 854359 L1422400 854835 L1419066 854835 "/>
<path d="M1430971 850073 L1432876 850073 L1433828 850550 L1434780 851502 L1435257 853407 L1435257 856740 L1434780 858645 L1433828 859597 L1432876 860073 L1430971 860073 L1430019 859597 L1429066 858645 L1428590 856740 L1428590 853407 L1429066 851502 L1430019 850550 L1430971 850073 "/>
<path d="M1439542 860073 L1439542 850073 L1441923 850073 L1443352 850550 L1444304 851502 L1444780 852454 L1445257 854359 L1445257 855788 L1444780 857692 L1444304 858645 L1443352 859597 L1441923 860073 L1439542 860073 "/>
<path d="M1455257 859121 L1454780 859597 L1453352 860073 L1452400 860073 L1450971 859597 L1450019 858645 L1449542 857692 L1449066 855788 L1449066 854359 L1449542 852454 L1450019 851502 L1450971 850550 L1452400 850073 L1453352 850073 L1454780 850550 L1455257 851026 "/>
<path d="M1461447 850073 L1462400 850073 L1463352 850550 L1463828 851026 L1464304 851978 L1464780 853883 L1464780 856264 L1464304 858169 L1463828 859121 L1463352 859597 L1462400 860073 L1461447 860073 L1460495 859597 L1460019 859121 L1459542 858169 L1459066 856264 L1459066 853883 L1459542 851978 L1460019 851026 L1460495 850550 L1461447 850073 "/>
<path d="M1474304 860073 L1468590 860073 "/>
<path d="M1471447 860073 L1471447 850073 L1470495 851502 L1469542 852454 L1468590 852930 "/>
<path d="M1478114 857216 L1482876 857216 "/>
<path d="M1477161 860073 L1480495 850073 L1483828 860073 "/>
</g><text x="1422400.000000" y="876650.000000" textLength="40045.240000" font-size="13333.330000" lengthAdjust="spacingAndGlyphs" text-anchor="middle" opacity="0">MLAB</text>
<g class="stroked-text"><desc>MLAB</desc>
<path d="M1405733 876173 L1405733 866173 L1409066 873316 L1412400 866173 L1412400 876173 "/>
<path d="M1421923 876173 L1417161 876173 L1417161 866173 "/>
<path d="M1424780 873316 L1429542 873316 "/>
<path d="M1423828 876173 L1427161 866173 L1430495 876173 "/>
<path d="M1437161 870935 L1438590 871411 L1439066 871888 L1439542 872840 L1439542 874269 L1439066 875221 L1438590 875697 L1437638 876173 L1433828 876173 L1433828 866173 L1437161 866173 L1438114 866650 L1438590 867126 L1439066 868078 L1439066 869030 L1438590 869983 L1438114 870459 L1437161 870935 L1433828 870935 "/>
</g><text x="1473200.000000" y="789430.000000" textLength="87664.290000" font-size="13333.330000" lengthAdjust="spacingAndGlyphs" text-anchor="middle" opacity="0">+3.3V/+5V</text>
<g class="stroked-text"><desc>+3.3V/+5V</desc>
<path d="M1432723 785144 L1440342 785144 "/>
<path d="M1436533 788953 L1436533 781334 "/>
<path d="M1444152 778953 L1450342 778953 L1447009 782763 L1448438 782763 L1449390 783239 L1449866 783715 L1450342 784668 L1450342 787049 L1449866 788001 L1449390 788477 L1448438 788953 L1445580 788953 L1444628 788477 L1444152 788001 "/>
<path d="M1454628 788001 L1455104 788477 L1454628 788953 L1454152 788477 L1454628 788001 L1454628 788953 "/>
<path d="M1458438 778953 L1464628 778953 L1461295 782763 L1462723 782763 L1463676 783239 L1464152 783715 L1464628 784668 L1464628 787049 L1464152 788001 L1463676 788477 L1462723 788953 L1459866 788953 L1458914 788477 L1458438 788001 "/>
<path d="M1467485 778953 L1470819 788953 L1474152 778953 "/>
<path d="M1484628 778477 L1476057 791334 "/>
<path d="M1487961 785144 L1495580 785144 "/>
<path d="M1491771 788953 L1491771 781334 "/>
<path d="M1505104 778953 L1500342 778953 L1499866 783715 L1500342 783239 L1501295 782763 L1503676 782763 L1504628 783239 L1505104 783715 L1505580 784668 L1505580 787049 L1505104 788001 L1504628 788477 L1503676 788953 L1501295 788953 L1500342 788477 L1499866 788001 "/>
<path d="M1508438 778953 L1511771 788953 L1515104 778953 "/>
</g><text x="1473200.000000" y="805530.000000" textLength="69569.050000" font-size="13333.330000" lengthAdjust="spacingAndGlyphs" text-anchor="middle" opacity="0">OUT SEL.</text>
<g class="stroked-text"><desc>OUT SEL.</desc>
<path d="M1443676 795053 L1445580 795053 L1446533 795530 L1447485 796482 L1447961 798387 L1447961 801720 L1447485 803625 L1446533 804577 L1445580 805053 L1443676 805053 L1442723 804577 L1441771 803625 L1441295 801720 L1441295 798387 L1441771 796482 L1442723 795530 L1443676 795053 "/>
<path d="M1452247 795053 L1452247 803149 L1452723 804101 L1453200 804577 L1454152 805053 L1456057 805053 L1457009 804577 L1457485 804101 L1457961 803149 L1457961 795053 "/>
<path d="M1461295 795053 L1467009 795053 "/>
<path d="M1464152 805053 L1464152 795053 "/>
<path d="M1477485 804577 L1478914 805053 L1481295 805053 L1482247 804577 L1482723 804101 L1483200 803149 L1483200 802196 L1482723 801244 L1482247 800768 L1481295 800291 L1479390 799815 L1478438 799339 L1477961 798863 L1477485 797910 L1477485 796958 L1477961 796006 L1478438 795530 L1479390 795053 L1481771 795053 L1483200 795530 "/>
<path d="M1487485 799815 L1490819 799815 "/>
<path d="M1492247 805053 L1487485 805053 L1487485 795053 L1492247 795053 "/>
<path d="M1501295 805053 L1496533 805053 L1496533 795053 "/>
<path d="M1504628 804101 L1505104 804577 L1504628 805053 L1504152 804577 L1504628 804101 L1504628 805053 "/>
</g><text x="1371600.000000" y="789860.000000" textLength="56235.710000" font-size="13333.330000" lengthAdjust="spacingAndGlyphs" text-anchor="middle" opacity="0">EN/DIS</text>
<g class="stroked-text"><desc>EN/DIS</desc>
<path d="M1346838 784145 L1350171 784145 "/>
<path d="M1351600 789383 L1346838 789383 L1346838 779383 L1351600 779383 "/>
<path d="M1355885 789383 L1355885 779383 L1361600 789383 L1361600 779383 "/>
<path d="M1373504 778907 L1364933 791764 "/>
<path d="M1376838 789383 L1376838 779383 L1379219 779383 L1380647 779860 L1381600 780812 L1382076 781764 L1382552 783669 L1382552 785098 L1382076 787002 L1381600 787955 L1380647 788907 L1379219 789383 L1376838 789383 "/>
<path d="M1386838 789383 L1386838 779383 "/>
<path d="M1391123 788907 L1392552 789383 L1394933 789383 L1395885 788907 L1396361 788431 L1396838 787479 L1396838 786526 L1396361 785574 L1395885 785098 L1394933 784621 L1393028 784145 L1392076 783669 L1391600 783193 L1391123 782240 L1391123 781288 L1391600 780336 L1392076 779860 L1393028 779383 L1395409 779383 L1396838 779860 "/>
</g><g transform="rotate(-90.000000 1536700.000000 863600.000000)">
<text x="1536700.000000" y="868600.000000" textLength="89092.860000" font-size="13333.330000" lengthAdjust="spacingAndGlyphs" text-anchor="middle" opacity="0">POWER OUT</text>
</g>
<g class="stroked-text"><desc>POWER OUT</desc>
<path d="M1541223 904790 L1531223 904790 L1531223 900980 L1531700 900028 L1532176 899552 L1533128 899076 L1534557 899076 L1535509 899552 L1535985 900028 L1536461 900980 L1536461 904790 "/>
<path d="M1531223 892885 L1531223 890980 L1531700 890028 L1532652 889076 L1534557 888600 L1537890 888600 L1539795 889076 L1540747 890028 L1541223 890980 L1541223 892885 L1540747 893838 L1539795 894790 L1537890 895266 L1534557 895266 L1532652 894790 L1531700 893838 L1531223 892885 "/>
<path d="M1531223 885266 L1541223 882885 L1534080 880980 L1541223 879076 L1531223 876695 "/>
<path d="M1535985 872885 L1535985 869552 "/>
<path d="M1541223 868123 L1541223 872885 L1531223 872885 L1531223 868123 "/>
<path d="M1541223 858123 L1536461 861457 "/>
<path d="M1541223 863838 L1531223 863838 L1531223 860028 L1531700 859076 L1532176 858600 L1533128 858123 L1534557 858123 L1535509 858600 L1535985 859076 L1536461 860028 L1536461 863838 "/>
<path d="M1531223 844314 L1531223 842409 L1531700 841457 L1532652 840504 L1534557 840028 L1537890 840028 L1539795 840504 L1540747 841457 L1541223 842409 L1541223 844314 L1540747 845266 L1539795 846219 L1537890 846695 L1534557 846695 L1532652 846219 L1531700 845266 L1531223 844314 "/>
<path d="M1531223 835742 L1539319 835742 L1540271 835266 L1540747 834790 L1541223 833838 L1541223 831933 L1540747 830980 L1540271 830504 L1539319 830028 L1531223 830028 "/>
<path d="M1531223 826695 L1531223 820980 "/>
<path d="M1541223 823838 L1531223 823838 "/>
</g><g transform="rotate(-90.000000 1305130.000000 863600.000000)">
<text x="1305130.000000" y="868600.000000" textLength="75759.520000" font-size="13333.330000" lengthAdjust="spacingAndGlyphs" text-anchor="middle" opacity="0">POWER IN</text>
</g>
<g class="stroked-text"><desc>POWER IN</desc>
<path d="M1309653 898123 L1299653 898123 L1299653 894314 L1300130 893361 L1300606 892885 L1301558 892409 L1302987 892409 L1303939 892885 L1304415 893361 L1304891 894314 L1304891 898123 "/>
<path d="M1299653 886219 L1299653 884314 L1300130 883361 L1301082 882409 L1302987 881933 L1306320 881933 L1308225 882409 L1309177 883361 L1309653 884314 L1309653 886219 L1309177 887171 L1308225 888123 L1306320 888600 L1302987 888600 L1301082 888123 L1300130 887171 L1299653 886219 "/>
<path d="M1299653 878600 L1309653 876219 L1302510 874314 L1309653 872409 L1299653 870028 "/>
<path d="M1304415 866219 L1304415 862885 "/>
<path d="M1309653 861457 L1309653 866219 L1299653 866219 L1299653 861457 "/>
<path d="M1309653 851457 L1304891 854790 "/>
<path d="M1309653 857171 L1299653 857171 L1299653 853361 L1300130 852409 L1300606 851933 L1301558 851457 L1302987 851457 L1303939 851933 L1304415 852409 L1304891 853361 L1304891 857171 "/>
<path d="M1309653 839552 L1299653 839552 "/>
<path d="M1309653 834790 L1299653 834790 L1309653 829076 L1299653 829076 "/>
</g><g transform="rotate(-90.000000 1321230.000000 863600.000000)">
<text x="1321230.000000" y="868600.000000" textLength="70521.430000" font-size="13333.330000" lengthAdjust="spacingAndGlyphs" text-anchor="middle" opacity="0">1.6-5.5V</text>
</g>
<g class="stroked-text"><desc>1.6-5.5V</desc>
<path d="M1325753 890266 L1325753 895980 "/>
<path d="M1325753 893123 L1315753 893123 L1317182 894076 L1318134 895028 L1318610 895980 "/>
<path d="M1324801 885980 L1325277 885504 L1325753 885980 L1325277 886457 L1324801 885980 L1325753 885980 "/>
<path d="M1315753 876933 L1315753 878838 L1316230 879790 L1316706 880266 L1318134 881219 L1320039 881695 L1323849 881695 L1324801 881219 L1325277 880742 L1325753 879790 L1325753 877885 L1325277 876933 L1324801 876457 L1323849 875980 L1321468 875980 L1320515 876457 L1320039 876933 L1319563 877885 L1319563 879790 L1320039 880742 L1320515 881219 L1321468 881695 "/>
<path d="M1321944 871695 L1321944 864076 "/>
<path d="M1315753 854552 L1315753 859314 L1320515 859790 L1320039 859314 L1319563 858361 L1319563 855980 L1320039 855028 L1320515 854552 L1321468 854076 L1323849 854076 L1324801 854552 L1325277 855028 L1325753 855980 L1325753 858361 L1325277 859314 L1324801 859790 "/>
<path d="M1324801 849790 L1325277 849314 L1325753 849790 L1325277 850266 L1324801 849790 L1325753 849790 "/>
<path d="M1315753 840266 L1315753 845028 L1320515 845504 L1320039 845028 L1319563 844076 L1319563 841695 L1320039 840742 L1320515 840266 L1321468 839790 L1323849 839790 L1324801 840266 L1325277 840742 L1325753 841695 L1325753 844076 L1325277 845028 L1324801 845504 "/>
<path d="M1315753 836933 L1325753 833600 L1315753 830266 "/>
</g><text x="1371600.000000" y="944800.000000" textLength="81950.000000" font-size="13333.330000" lengthAdjust="spacingAndGlyphs" text-anchor="middle" opacity="0">MODE SEL.</text>
<g class="stroked-text"><desc>MODE SEL.</desc>
<path d="M1333980 944323 L1333980 934323 L1337314 941466 L1340647 934323 L1340647 944323 "/>
<path d="M1347314 934323 L1349219 934323 L1350171 934800 L1351123 935752 L1351600 937657 L1351600 940990 L1351123 942895 L1350171 943847 L1349219 944323 L1347314 944323 L1346361 943847 L1345409 942895 L1344933 940990 L1344933 937657 L1345409 935752 L1346361 934800 L1347314 934323 "/>
<path d="M1355885 944323 L1355885 934323 L1358266 934323 L1359695 934800 L1360647 935752 L1361123 936704 L1361600 938609 L1361600 940038 L1361123 941942 L1360647 942895 L1359695 943847 L1358266 944323 L1355885 944323 "/>
<path d="M1365885 939085 L1369219 939085 "/>
<path d="M1370647 944323 L1365885 944323 L1365885 934323 L1370647 934323 "/>
<path d="M1382076 943847 L1383504 944323 L1385885 944323 L1386838 943847 L1387314 943371 L1387790 942419 L1387790 941466 L1387314 940514 L1386838 940038 L1385885 939561 L1383980 939085 L1383028 938609 L1382552 938133 L1382076 937180 L1382076 936228 L1382552 935276 L1383028 934800 L1383980 934323 L1386361 934323 L1387790 934800 "/>
<path d="M1392076 939085 L1395409 939085 "/>
<path d="M1396838 944323 L1392076 944323 L1392076 934323 L1396838 934323 "/>
<path d="M1405885 944323 L1401123 944323 L1401123 934323 "/>
<path d="M1409219 943371 L1409695 943847 L1409219 944323 L1408742 943847 L1409219 943371 L1409219 944323 "/>
</g><text x="1371600.000000" y="993060.000000" textLength="75283.330000" font-size="13333.330000" lengthAdjust="spacingAndGlyphs" text-anchor="middle" opacity="0">PWM/PFM</text>
<g class="stroked-text"><desc>PWM/PFM</desc>
<path d="M1337314 992583 L1337314 982583 L1341123 982583 L1342076 983060 L1342552 983536 L1343028 984488 L1343028 985917 L1342552 986869 L1342076 987345 L1341123 987821 L1337314 987821 "/>
<path d="M1346361 982583 L1348742 992583 L1350647 985440 L1352552 992583 L1354933 982583 "/>
<path d="M1358742 992583 L1358742 982583 L1362076 989726 L1365409 982583 L1365409 992583 "/>
<path d="M1377314 982107 L1368742 994964 "/>
<path d="M1380647 992583 L1380647 982583 L1384457 982583 L1385409 983060 L1385885 983536 L1386361 984488 L1386361 985917 L1385885 986869 L1385409 987345 L1384457 987821 L1380647 987821 "/>
<path d="M1393980 987345 L1390647 987345 "/>
<path d="M1390647 992583 L1390647 982583 L1395409 982583 "/>
<path d="M1399219 992583 L1399219 982583 L1402552 989726 L1405885 982583 L1405885 992583 "/>
</g><path d="M1435100 749300 L1511300 749300 "/>
<path d="M1435100 774700 L1435100 749300 "/>
<path d="M1511300 749300 L1511300 774700 "/>
<path d="M1511300 774700 L1435100 774700 "/>
<path d="M1295400 901700 L1244600 901700 "/>
<path d="M1244600 901700 L1244600 825500 "/>
<path d="M1244600 825500 L1295400 825500 "/>
<path d="M1295400 825500 L1295400 901700 "/>
<path d="M1333500 774700 L1333500 749300 "/>
<path d="M1333500 749300 L1409700 749300 "/>
<path d="M1409700 774700 L1333500 774700 "/>
<path d="M1409700 749300 L1409700 774700 "/>
<path d="M1409700 977900 L1333500 977900 "/>
<path d="M1333500 977900 L1333500 952500 "/>
<path d="M1409700 952500 L1409700 977900 "/>
<path d="M1333500 952500 L1409700 952500 "/>
<path d="M1511300 990600 L1435100 990600 "/>
<path d="M1435100 990600 L1435100 939800 "/>
<path d="M1511300 939800 L1511300 990600 "/>
<path d="M1435100 939800 L1511300 939800 "/>
<path d="M1600200 825500 L1600200 901700 "/>
<path d="M1549400 901700 L1549400 825500 "/>
<path d="M1600200 901700 L1549400 901700 "/>
<path d="M1549400 825500 L1600200 825500 "/>
</g> 
</g><g id="substrate-outline" style="fill:#000000; stroke:#000000; stroke-width: 1500.0"><g style="fill-opacity: 0.0;stroke-opacity: 1;stroke-linecap: round;stroke-linejoin: round">
<path d="M1221740 713740 L1221740 1013460 "/>
<path d="M1221740 1013460 L1623060 1013460 "/>
<path d="M1623060 713740 L1221740 713740 "/>
<path d="M1623060 1013460 L1623060 713740 "/>
</g> 
<path d="M -4445.0 0.0 A 4445.0 4445.0 0 1 1 4445.0 0.0 L 4445.0 -0.0 A 4445.0 4445.0 0 1 1 -4445.0 -0.0 Z" transform="translate(1498600.0 762000.0) rotate(-270.0)"/><path d="M -4445.0 0.0 A 4445.0 4445.0 0 1 1 4445.0 0.0 L 4445.0 -0.0 A 4445.0 4445.0 0 1 1 -4445.0 -0.0 Z" transform="translate(1473200.0 762000.0) rotate(-270.0)"/><path d="M -4445.0 0.0 A 4445.0 4445.0 0 1 1 4445.0 0.0 L 4445.0 -0.0 A 4445.0 4445.0 0 1 1 -4445.0 -0.0 Z" transform="translate(1447800.0 762000.0) rotate(-270.0)"/><path d="M -4445.0 0.0 A 4445.0 4445.0 0 1 1 4445.0 0.0 L 4445.0 -0.0 A 4445.0 4445.0 0 1 1 -4445.0 -0.0 Z" transform="translate(1257300.0 838200.0) rotate(-0.0)"/><path d="M -4445.0 0.0 A 4445.0 4445.0 0 1 1 4445.0 0.0 L 4445.0 -0.0 A 4445.0 4445.0 0 1 1 -4445.0 -0.0 Z" transform="translate(1282700.0 838200.0) rotate(-0.0)"/><path d="M -4445.0 0.0 A 4445.0 4445.0 0 1 1 4445.0 0.0 L 4445.0 -0.0 A 4445.0 4445.0 0 1 1 -4445.0 -0.0 Z" transform="translate(1257300.0 863600.0) rotate(-0.0)"/><path d="M -4445.0 0.0 A 4445.0 4445.0 0 1 1 4445.0 0.0 L 4445.0 -0.0 A 4445.0 4445.0 0 1 1 -4445.0 -0.0 Z" transform="translate(1282700.0 863600.0) rotate(-0.0)"/><path d="M -4445.0 0.0 A 4445.0 4445.0 0 1 1 4445.0 0.0 L 4445.0 -0.0 A 4445.0 4445.0 0 1 1 -4445.0 -0.0 Z" transform="translate(1257300.0 889000.0) rotate(-0.0)"/><path d="M -4445.0 0.0 A 4445.0 4445.0 0 1 1 4445.0 0.0 L 4445.0 -0.0 A 4445.0 4445.0 0 1 1 -4445.0 -0.0 Z" transform="translate(1282700.0 889000.0) rotate(-0.0)"/><path d="M -15000.0 0.0 A 15000.0 15000.0 0 1 1 15000.0 0.0 L 15000.0 -0.0 A 15000.0 15000.0 0 1 1 -15000.0 -0.0 Z" transform="translate(1270000.0 965200.0) rotate(-0.0)"/><path d="M -15000.0 0.0 A 15000.0 15000.0 0 1 1 15000.0 0.0 L 15000.0 -0.0 A 15000.0 15000.0 0 1 1 -15000.0 -0.0 Z" transform="translate(1574800.0 762000.0) rotate(-0.0)"/><path d="M -4445.0 0.0 A 4445.0 4445.0 0 1 1 4445.0 0.0 L 4445.0 -0.0 A 4445.0 4445.0 0 1 1 -4445.0 -0.0 Z" transform="translate(1397000.0 762000.0) rotate(-270.0)"/><path d="M -4445.0 0.0 A 4445.0 4445.0 0 1 1 4445.0 0.0 L 4445.0 -0.0 A 4445.0 4445.0 0 1 1 -4445.0 -0.0 Z" transform="translate(1371600.0 762000.0) rotate(-270.0)"/><path d="M -4445.0 0.0 A 4445.0 4445.0 0 1 1 4445.0 0.0 L 4445.0 -0.0 A 4445.0 4445.0 0 1 1 -4445.0 -0.0 Z" transform="translate(1346200.0 762000.0) rotate(-270.0)"/><path d="M -4445.0 0.0 A 4445.0 4445.0 0 1 1 4445.0 0.0 L 4445.0 -0.0 A 4445.0 4445.0 0 1 1 -4445.0 -0.0 Z" transform="translate(1397000.0 965200.0) rotate(-270.0)"/><path d="M -4445.0 0.0 A 4445.0 4445.0 0 1 1 4445.0 0.0 L 4445.0 -0.0 A 4445.0 4445.0 0 1 1 -4445.0 -0.0 Z" transform="translate(1371600.0 965200.0) rotate(-270.0)"/><path d="M -4445.0 0.0 A 4445.0 4445.0 0 1 1 4445.0 0.0 L 4445.0 -0.0 A 4445.0 4445.0 0 1 1 -4445.0 -0.0 Z" transform="translate(1346200.0 965200.0) rotate(-270.0)"/><path d="M -15000.0 0.0 A 15000.0 15000.0 0 1 1 15000.0 0.0 L 15000.0 -0.0 A 15000.0 15000.0 0 1 1 -15000.0 -0.0 Z" transform="translate(1574800.0 965200.0) rotate(-0.0)"/><path d="M -4445.0 0.0 A 4445.0 4445.0 0 1 1 4445.0 0.0 L 4445.0 -0.0 A 4445.0 4445.0 0 1 1 -4445.0 -0.0 Z" transform="translate(1498600.0 952500.0) rotate(-270.0)"/><path d="M -4445.0 0.0 A 4445.0 4445.0 0 1 1 4445.0 0.0 L 4445.0 -0.0 A 4445.0 4445.0 0 1 1 -4445.0 -0.0 Z" transform="translate(1498600.0 977900.0) rotate(-270.0)"/><path d="M -4445.0 0.0 A 4445.0 4445.0 0 1 1 4445.0 0.0 L 4445.0 -0.0 A 4445.0 4445.0 0 1 1 -4445.0 -0.0 Z" transform="translate(1473200.0 952500.0) rotate(-270.0)"/><path d="M -4445.0 0.0 A 4445.0 4445.0 0 1 1 4445.0 0.0 L 4445.0 -0.0 A 4445.0 4445.0 0 1 1 -4445.0 -0.0 Z" transform="translate(1473200.0 977900.0) rotate(-270.0)"/><path d="M -4445.0 0.0 A 4445.0 4445.0 0 1 1 4445.0 0.0 L 4445.0 -0.0 A 4445.0 4445.0 0 1 1 -4445.0 -0.0 Z" transform="translate(1447800.0 952500.0) rotate(-270.0)"/><path d="M -4445.0 0.0 A 4445.0 4445.0 0 1 1 4445.0 0.0 L 4445.0 -0.0 A 4445.0 4445.0 0 1 1 -4445.0 -0.0 Z" transform="translate(1447800.0 977900.0) rotate(-270.0)"/><path d="M -15000.0 0.0 A 15000.0 15000.0 0 1 1 15000.0 0.0 L 15000.0 -0.0 A 15000.0 15000.0 0 1 1 -15000.0 -0.0 Z" transform="translate(1270000.0 762000.0) rotate(-0.0)"/><path d="M -4445.0 0.0 A 4445.0 4445.0 0 1 1 4445.0 0.0 L 4445.0 -0.0 A 4445.0 4445.0 0 1 1 -4445.0 -0.0 Z" transform="translate(1562100.0 838200.0) rotate(-0.0)"/><path d="M -4445.0 0.0 A 4445.0 4445.0 0 1 1 4445.0 0.0 L 4445.0 -0.0 A 4445.0 4445.0 0 1 1 -4445.0 -0.0 Z" transform="translate(1587500.0 838200.0) rotate(-0.0)"/><path d="M -4445.0 0.0 A 4445.0 4445.0 0 1 1 4445.0 0.0 L 4445.0 -0.0 A 4445.0 4445.0 0 1 1 -4445.0 -0.0 Z" transform="translate(1562100.0 863600.0) rotate(-0.0)"/><path d="M -4445.0 0.0 A 4445.0 4445.0 0 1 1 4445.0 0.0 L 4445.0 -0.0 A 4445.0 4445.0 0 1 1 -4445.0 -0.0 Z" transform="translate(1587500.0 863600.0) rotate(-0.0)"/><path d="M -4445.0 0.0 A 4445.0 4445.0 0 1 1 4445.0 0.0 L 4445.0 -0.0 A 4445.0 4445.0 0 1 1 -4445.0 -0.0 Z" transform="translate(1562100.0 889000.0) rotate(-0.0)"/><path d="M -4445.0 0.0 A 4445.0 4445.0 0 1 1 4445.0 0.0 L 4445.0 -0.0 A 4445.0 4445.0 0 1 1 -4445.0 -0.0 Z" transform="translate(1587500.0 889000.0) rotate(-0.0)"/><path d="M -2000.0 0.0 A 2000.0 2000.0 0 1 1 2000.0 0.0 L 2000.0 -0.0 A 2000.0 2000.0 0 1 1 -2000.0 -0.0 Z" transform="translate(1422400.0 817880.0) rotate(0)"/><path d="M -2000.0 0.0 A 2000.0 2000.0 0 1 1 2000.0 0.0 L 2000.0 -0.0 A 2000.0 2000.0 0 1 1 -2000.0 -0.0 Z" transform="translate(1412282.99 812757.01) rotate(0)"/></g></g></g><g transform="" id="componentContainer"><!--Mlab_Pin_Headers:Straight_1x03:J4--><g transform="translate(1473200.0 762000.0) scale(9999.997307694068, 10000.000130208029) rotate(90.0) translate(-1.3 -3.8399997)"><g id="pref_12_Mlab_Pin_Headers__Straight_1x03_HEADER_1x03"><g id="pref_13pin" style="display:inline">
    <rect style="opacity:1;fill:#000000;fill-opacity:1;fill-rule:nonzero;stroke:#141414;stroke-width:1.15387;stroke-linecap:round;stroke-linejoin:bevel;stroke-miterlimit:4;stroke-dasharray:none;stroke-opacity:1" id="pref_13rect4686" width="1.4461316" height="1.4461316" x="0.57693499" y="0.57693422"/>
    <rect y="1.0419546" x="1.0419546" height="0.51612419" width="0.51612419" id="pref_13rect156830" style="opacity:1;fill:#fcf23a;fill-opacity:1;fill-rule:nonzero;stroke:#eb9d02;stroke-width:0.123876;stroke-linecap:round;stroke-linejoin:bevel;stroke-miterlimit:4;stroke-dasharray:none;stroke-opacity:1"/>
  </g>
  <g transform="translate(0,2.5400174)" id="pref_13g13" style="display:inline">
    <rect style="opacity:1;fill:#000000;fill-opacity:1;fill-rule:nonzero;stroke:#141414;stroke-width:1.15387;stroke-linecap:round;stroke-linejoin:bevel;stroke-miterlimit:4;stroke-dasharray:none;stroke-opacity:1" id="pref_13rect9" width="1.4461316" height="1.4461316" x="0.57693499" y="0.57693422"/>
    <rect y="1.0419546" x="1.0419546" height="0.51612419" width="0.51612419" id="pref_13rect11" style="opacity:1;fill:#fcf23a;fill-opacity:1;fill-rule:nonzero;stroke:#eb9d02;stroke-width:0.123876;stroke-linecap:round;stroke-linejoin:bevel;stroke-miterlimit:4;stroke-dasharray:none;stroke-opacity:1"/>
  </g>
  <g transform="translate(0,5.0800174)" id="pref_13g19">
    <rect style="opacity:1;fill:#000000;fill-opacity:1;fill-rule:nonzero;stroke:#141414;stroke-width:1.15387;stroke-linecap:round;stroke-linejoin:bevel;stroke-miterlimit:4;stroke-dasharray:none;stroke-opacity:1" id="pref_13rect15" width="1.4461316" height="1.4461316" x="0.57693499" y="0.57693422"/>
    <rect y="1.0419546" x="1.0419546" height="0.51612419" width="0.51612419" id="pref_13rect17" style="opacity:1;fill:#fcf23a;fill-opacity:1;fill-rule:nonzero;stroke:#eb9d02;stroke-width:0.123876;stroke-linecap:round;stroke-linejoin:bevel;stroke-miterlimit:4;stroke-dasharray:none;stroke-opacity:1"/>
  </g>
  </g></g><!--Mlab_Pin_Headers:Straight_2x03:J2--><g transform="translate(1270000.0 863600.0) scale(9999.998832685189, 9999.999479166896) rotate(-0.0) translate(-2.5699999 -3.8399999)"><g id="pref_12_Mlab_Pin_Headers__Straight_2x03_HEADER_2x03_PARALLEL"><g id="pref_14pin" style="display:inline">
    <rect style="opacity:1;fill:#000000;fill-opacity:1;fill-rule:nonzero;stroke:#141414;stroke-width:1.15387;stroke-linecap:round;stroke-linejoin:bevel;stroke-miterlimit:4;stroke-dasharray:none;stroke-opacity:1" id="pref_14rect4686" width="1.4461316" height="1.4461316" x="0.57693499" y="0.57693422"/>
    <rect y="1.0419546" x="1.0419546" height="0.51612419" width="0.51612419" id="pref_14rect156830" style="opacity:1;fill:#fcf23a;fill-opacity:1;fill-rule:nonzero;stroke:#eb9d02;stroke-width:0.123876;stroke-linecap:round;stroke-linejoin:bevel;stroke-miterlimit:4;stroke-dasharray:none;stroke-opacity:1"/>
  </g>
  <g transform="translate(0,2.5400024)" id="pref_14g13" style="display:inline">
    <rect style="opacity:1;fill:#000000;fill-opacity:1;fill-rule:nonzero;stroke:#141414;stroke-width:1.15387;stroke-linecap:round;stroke-linejoin:bevel;stroke-miterlimit:4;stroke-dasharray:none;stroke-opacity:1" id="pref_14rect9" width="1.4461316" height="1.4461316" x="0.57693499" y="0.57693422"/>
    <rect y="1.0419546" x="1.0419546" height="0.51612419" width="0.51612419" id="pref_14rect11" style="opacity:1;fill:#fcf23a;fill-opacity:1;fill-rule:nonzero;stroke:#eb9d02;stroke-width:0.123876;stroke-linecap:round;stroke-linejoin:bevel;stroke-miterlimit:4;stroke-dasharray:none;stroke-opacity:1"/>
  </g>
  <g transform="translate(0,5.0800024)" id="pref_14g19">
    <rect style="opacity:1;fill:#000000;fill-opacity:1;fill-rule:nonzero;stroke:#141414;stroke-width:1.15387;stroke-linecap:round;stroke-linejoin:bevel;stroke-miterlimit:4;stroke-dasharray:none;stroke-opacity:1" id="pref_14rect15" width="1.4461316" height="1.4461316" x="0.57693499" y="0.57693422"/>
    <rect y="1.0419546" x="1.0419546" height="0.51612419" width="0.51612419" id="pref_14rect17" style="opacity:1;fill:#fcf23a;fill-opacity:1;fill-rule:nonzero;stroke:#eb9d02;stroke-width:0.123876;stroke-linecap:round;stroke-linejoin:bevel;stroke-miterlimit:4;stroke-dasharray:none;stroke-opacity:1"/>
  </g>
  <g transform="translate(0,99.060003)" id="pref_14g241" style="display:inline">
    <rect style="display:inline;fill:#000000;fill-opacity:1;fill-rule:nonzero;stroke:#141414;stroke-width:1.15387;stroke-linecap:round;stroke-linejoin:bevel;stroke-miterlimit:4;stroke-dasharray:none;stroke-opacity:1" id="pref_14rect4686-3" width="1.4461316" height="1.4461316" x="3.116935" y="-98.483063"/>
    <rect y="-98.018044" x="3.5819547" height="0.51612419" width="0.51612419" id="pref_14rect156830-6" style="display:inline;fill:#fcf23a;fill-opacity:1;fill-rule:nonzero;stroke:#eb9d02;stroke-width:0.123876;stroke-linecap:round;stroke-linejoin:bevel;stroke-miterlimit:4;stroke-dasharray:none;stroke-opacity:1"/>
    <rect style="display:inline;fill:#000000;fill-opacity:1;fill-rule:nonzero;stroke:#141414;stroke-width:1.15387;stroke-linecap:round;stroke-linejoin:bevel;stroke-miterlimit:4;stroke-dasharray:none;stroke-opacity:1" id="pref_14rect9-5" width="1.4461316" height="1.4461316" x="3.116935" y="-95.943069"/>
    <rect y="-95.478043" x="3.5819547" height="0.51612419" width="0.51612419" id="pref_14rect11-3" style="display:inline;fill:#fcf23a;fill-opacity:1;fill-rule:nonzero;stroke:#eb9d02;stroke-width:0.123876;stroke-linecap:round;stroke-linejoin:bevel;stroke-miterlimit:4;stroke-dasharray:none;stroke-opacity:1"/>
    <rect style="fill:#000000;fill-opacity:1;fill-rule:nonzero;stroke:#141414;stroke-width:1.15387;stroke-linecap:round;stroke-linejoin:bevel;stroke-miterlimit:4;stroke-dasharray:none;stroke-opacity:1" id="pref_14rect15-5" width="1.4461316" height="1.4461316" x="3.116935" y="-93.403069"/>
    <rect y="-92.938042" x="3.5819547" height="0.51612419" width="0.51612419" id="pref_14rect17-6" style="fill:#fcf23a;fill-opacity:1;fill-rule:nonzero;stroke:#eb9d02;stroke-width:0.123876;stroke-linecap:round;stroke-linejoin:bevel;stroke-miterlimit:4;stroke-dasharray:none;stroke-opacity:1"/>
  </g>
  </g></g><!--Mlab_Mechanical:MountingHole_3mm:H3--><g transform="translate(1270000.0 965200.0) scale(10000.0, 10000.0) rotate(-0.0) translate(-0.75 -0.75)"><g id="pref_12_Mlab_Mechanical__MountingHole_3mm_MountingHole_Pad"><defs xmlns:xlink="http://www.w3.org/1999/xlink" id="pref_15defs13">
    <linearGradient id="pref_15linearGradient13300">
      <stop style="stop-color:#e5e5e5;stop-opacity:1;" offset="0" id="pref_15stop13298"/>
    </linearGradient>
    <linearGradient id="pref_15linearGradient10336">
      <stop style="stop-color:#cfcfcf;stop-opacity:1" offset="0" id="pref_15stop10332"/>
      <stop style="stop-color:#cdcdcd;stop-opacity:0" offset="1" id="pref_15stop10334"/>
    </linearGradient>
    <linearGradient id="pref_15linearGradient9067">
      <stop style="stop-color:#d3d3d3;stop-opacity:1;" offset="0" id="pref_15stop9051"/>
      <stop style="stop-color:#c8c8c8;stop-opacity:1;" offset="0.1656336" id="pref_15stop9053"/>
      <stop style="stop-color:#d8d8d8;stop-opacity:0.52030832" offset="0.29162589" id="pref_15stop9055"/>
      <stop style="stop-color:#c6c6c6;stop-opacity:0.51711833" offset="0.38067153" id="pref_15stop9057"/>
      <stop style="stop-color:#bbbbbb;stop-opacity:0.45933419" offset="0.51505035" id="pref_15stop9059"/>
      <stop style="stop-color:#8e8e8e;stop-opacity:0.47450981" offset="0.5970481" id="pref_15stop9061"/>
      <stop style="stop-color:#656565;stop-opacity:0.56470591" offset="0.7681157" id="pref_15stop9063"/>
      <stop style="stop-color:#606060;stop-opacity:0.28235294;" offset="0.95913506" id="pref_15stop9743"/>
      <stop style="stop-color:#b5b5b5;stop-opacity:0.21568628" offset="1" id="pref_15stop9065"/>
    </linearGradient>
    <linearGradient id="pref_15linearGradient3692">
      <stop style="stop-color:#e4e4e4;stop-opacity:1" offset="0" id="pref_15stop6926"/>
      <stop style="stop-color:#e5e5e5;stop-opacity:1" offset="0.1656336" id="pref_15stop6928"/>
      <stop style="stop-color:#f5f5f5;stop-opacity:1" offset="0.29162589" id="pref_15stop6930"/>
      <stop style="stop-color:#c6c6c6;stop-opacity:1;" offset="0.38067153" id="pref_15stop6932"/>
      <stop style="stop-color:#dddddd;stop-opacity:1" offset="0.57577699" id="pref_15stop6934"/>
      <stop style="stop-color:#f2f2f2;stop-opacity:1" offset="0.66836077" id="pref_15stop6936"/>
      <stop style="stop-color:#ebebeb;stop-opacity:1" offset="0.79280978" id="pref_15stop6938"/>
      <stop style="stop-color:#efefef;stop-opacity:1" offset="1" id="pref_15stop6940"/>
    </linearGradient>
    <linearGradient id="pref_15linearGradient5758">
      <stop style="stop-color:#f6f6f6;stop-opacity:0.89019608" offset="0" id="pref_15stop5754"/>
      <stop style="stop-color:#646464;stop-opacity:0.9921568" offset="1" id="pref_15stop5756"/>
    </linearGradient>
    <linearGradient id="pref_15linearGradient3692-7">
      <stop style="stop-color:#d3d3d3;stop-opacity:1;" offset="0" id="pref_15stop3688"/>
      <stop style="stop-color:#c8c8c8;stop-opacity:1;" offset="0.1656336" id="pref_15stop4378"/>
      <stop style="stop-color:#ededed;stop-opacity:1" offset="0.29162589" id="pref_15stop4444"/>
      <stop style="stop-color:#c6c6c6;stop-opacity:1;" offset="0.38067153" id="pref_15stop4376"/>
      <stop style="stop-color:#dbdbdb;stop-opacity:1" offset="0.57577699" id="pref_15stop4308"/>
      <stop style="stop-color:#c8c8c8;stop-opacity:1" offset="0.66836077" id="pref_15stop4242"/>
      <stop style="stop-color:#b8b8b8;stop-opacity:1;" offset="0.79280978" id="pref_15stop4310"/>
      <stop style="stop-color:#aeaeae;stop-opacity:1" offset="1" id="pref_15stop3690"/>
    </linearGradient>
    <linearGradient id="pref_15linearGradient3156">
      <stop style="stop-color:#d3d3d3;stop-opacity:1;" offset="0" id="pref_15stop3152"/>
      <stop style="stop-color:#d3d3d3;stop-opacity:0.89019608;" offset="0.93029171" id="pref_15stop3290"/>
      <stop style="stop-color:#757575;stop-opacity:1" offset="1" id="pref_15stop3154"/>
    </linearGradient>
    <radialGradient xlink:href="#pref_15linearGradient3156" id="pref_15radialGradient3160" cx="0.75" cy="0.75" fx="0.75" fy="0.75" r="2.75" gradientUnits="userSpaceOnUse" gradientTransform="matrix(0.96363636,0,0,0.96363636,0.02727275,0.02727275)"/>
    <linearGradient xlink:href="#pref_15linearGradient3692-7" id="pref_15linearGradient3694" x1="-0.69187778" y1="-1.1810942" x2="2.8737183" y2="2.1900826" gradientUnits="userSpaceOnUse" gradientTransform="matrix(0.92592591,0,0,0.92592591,0.05555555,0.05555555)"/>
    <linearGradient xlink:href="#pref_15linearGradient5758" id="pref_15linearGradient5760" x1="-15.456677" y1="-15.474042" x2="-4.6413889" y2="-6.7602329" gradientUnits="userSpaceOnUse"/>
    <linearGradient xlink:href="#pref_15linearGradient3692" id="pref_15linearGradient6924" gradientUnits="userSpaceOnUse" x1="1.4987922" y1="4.3924975" x2="-1.0811033" y2="-3.0084407"/>
    <radialGradient xlink:href="#pref_15linearGradient9067" id="pref_15radialGradient8763" cx="0.75" cy="0.75" fx="0.75" fy="0.75" r="2.5" gradientUnits="userSpaceOnUse"/>
    <radialGradient xlink:href="#pref_15linearGradient10336" id="pref_15radialGradient10338" cx="-9.3072596" cy="-12.247526" fx="-9.3072596" fy="-12.247526" r="5.7490053" gradientTransform="matrix(0.25618062,-0.83918687,0.82829029,0.2528542,1.5718983,-16.37084)" gradientUnits="userSpaceOnUse"/>
  </defs>
  <circle style="opacity:1;fill:url(#pref_15linearGradient6924);fill-opacity:1;stroke:#cecece;stroke-width:0.05;stroke-miterlimit:4;stroke-dasharray:none;stroke-opacity:1" id="pref_15path6642" cx="0.75" cy="0.75" r="3.5"/>
  <circle style="fill:url(#pref_15radialGradient3160);fill-opacity:1;stroke-width:0.0358194" id="pref_15path1030-6" cx="0.75" cy="0.75" r="2.6500001"/>
  <circle style="opacity:1;fill:url(#pref_15linearGradient3694);fill-opacity:1;stroke-width:0.033792" id="pref_15path1030" cx="0.75" cy="0.75" r="2.5"/>
  <circle style="fill:url(#pref_15radialGradient8763);fill-opacity:1;stroke-width:0.034;stroke-miterlimit:4;stroke-dasharray:none" id="pref_15path1030-7" cx="0.75" cy="0.75" r="2.5"/>
  <path xmlns:sodipodi="http://sodipodi.sourceforge.net/DTD/sodipodi-0.dtd" sodipodi:type="star" style="opacity:1;fill:#b6b6b6;fill-opacity:1;stroke:url(#pref_15linearGradient5760);stroke-width:0.398303;stroke-miterlimit:4;stroke-dasharray:none;stroke-opacity:1" id="pref_15path1288-3" sodipodi:sides="6" sodipodi:cx="-9.9017067" sodipodi:cy="-10.789671" sodipodi:r1="5.7490053" sodipodi:r2="4.9787846" sodipodi:arg1="1.0471976" sodipodi:arg2="1.5707963" transform="matrix(0.24392497,0.05945068,-0.05945068,0.24392497,2.5238203,3.9705334)" d="m -7.0272043,-5.8108862 -5.7490057,-2e-7 -2.874502,-4.9787846 2.874503,-4.978785 5.7490052,1e-6 2.8745024,4.978784 z"/>
  <path xmlns:sodipodi="http://sodipodi.sourceforge.net/DTD/sodipodi-0.dtd" sodipodi:type="star" style="opacity:1;fill:url(#pref_15radialGradient10338);fill-opacity:1;stroke:none;stroke-width:0.398303;stroke-miterlimit:4;stroke-dasharray:none;stroke-opacity:1" id="pref_15path1288-3-6" sodipodi:sides="6" sodipodi:cx="-9.9017067" sodipodi:cy="-10.789671" sodipodi:r1="5.7490053" sodipodi:r2="4.9787846" sodipodi:arg1="1.0471976" sodipodi:arg2="1.5707963" transform="matrix(0.24487282,0.0596817,-0.0596817,0.24487282,2.5307131,3.9830479)" d="m -7.0272043,-5.8108862 -5.7490057,-2e-7 -2.874502,-4.9787846 2.874503,-4.978785 5.7490052,1e-6 2.8745024,4.978784 z"/>
</g></g><!--Mlab_Mechanical:MountingHole_3mm:H4--><g transform="translate(1574800.0 762000.0) scale(10000.0, 10000.0) rotate(-0.0) translate(-0.75 -0.75)"><use xmlns:xlink="http://www.w3.org/1999/xlink" xlink:href="#pref_12_Mlab_Mechanical__MountingHole_3mm_MountingHole_Pad"/></g><!--Mlab_Pin_Headers:Straight_1x03:J1--><g transform="translate(1371600.0 762000.0) scale(9999.997307694068, 10000.000130208029) rotate(90.0) translate(-1.3 -3.8399997)"><use xmlns:xlink="http://www.w3.org/1999/xlink" xlink:href="#pref_12_Mlab_Pin_Headers__Straight_1x03_HEADER_1x03"/></g><!--Mlab_Pin_Headers:Straight_1x03:J3--><g transform="translate(1371600.0 965200.0) scale(9999.997307694068, 10000.000130208029) rotate(90.0) translate(-1.3 -3.8399997)"><use xmlns:xlink="http://www.w3.org/1999/xlink" xlink:href="#pref_12_Mlab_Pin_Headers__Straight_1x03_HEADER_1x03"/></g><!--Mlab_Mechanical:MountingHole_3mm:H2--><g transform="translate(1574800.0 965200.0) scale(10000.0, 10000.0) rotate(-0.0) translate(-0.75 -0.75)"><use xmlns:xlink="http://www.w3.org/1999/xlink" xlink:href="#pref_12_Mlab_Mechanical__MountingHole_3mm_MountingHole_Pad"/></g><!--Mlab_Pin_Headers:Straight_2x03:J5--><g transform="translate(1473200.0 965200.0) scale(9999.998832685189, 9999.999479166896) rotate(90.0) translate(-2.5699999 -3.8399999)"><use xmlns:xlink="http://www.w3.org/1999/xlink" xlink:href="#pref_12_Mlab_Pin_Headers__Straight_2x03_HEADER_2x03_PARALLEL"/></g><!--Mlab_Mechanical:MountingHole_3mm:H1--><g transform="translate(1270000.0 762000.0) scale(10000.0, 10000.0) rotate(-0.0) translate(-0.75 -0.75)"><use xmlns:xlink="http://www.w3.org/1999/xlink" xlink:href="#pref_12_Mlab_Mechanical__MountingHole_3mm_MountingHole_Pad"/></g><!--Mlab_Pin_Headers:Straight_2x03:J6--><g transform="translate(1574800.0 863600.0) scale(9999.998832685189, 9999.999479166896) rotate(-0.0) translate(-2.5699999 -3.8399999)"><use xmlns:xlink="http://www.w3.org/1999/xlink" xlink:href="#pref_12_Mlab_Pin_Headers__Straight_2x03_HEADER_2x03_PARALLEL"/></g></g></svg>