<?xml version='1.0' encoding='ASCII' standalone='yes'?>
<svg xmlns:svg="http://www.w3.org/2000/svg" xmlns="http://www.w3.org/2000/svg" xmlns:xlink="http://www.w3.org/1999/xlink" version="1.1" width="297.0022mm" height="210.0072mm" viewBox="0.0000 0.0000 297.0022 210.0072">
<title>SVG Image created as STEPBUBODC01-B_Fab.svg date 2023/09/20 21:01:25 </title>
  <desc>Image generated by PCBNEW </desc>
<g style="fill:#000084; fill-opacity:1.0000;stroke:#000084; stroke-opacity:1.0000; stroke-linecap:round; stroke-linejoin:round;" transform="translate(0 0) scale(1 1)">
</g>
<g style="fill:#000084; fill-opacity:0.0;  stroke:#000084; stroke-width:0.0000; stroke-opacity:1;  stroke-linecap:round; stroke-linejoin:round;">
</g>
<g style="fill:#000084; fill-opacity:0.01;  stroke:#000084; stroke-width:1.0457; stroke-opacity:1;  stroke-linecap:round; stroke-linejoin:round;">
<text x="139.2114" y="78.3022" transform="scale(-1 1) translate(-278.422757 0)" textLength="14.0263" font-size="9.2955" lengthAdjust="spacingAndGlyphs" text-anchor="middle" opacity="0.01" style="font-family:monospace">1k</text>
<g class="stroked-text"><desc>1k</desc>
<path d="M140.0413 77.9872 L144.0251 77.9872 "/>
<path d="M142.0332 77.9872 L142.0332 71.0155 "/>
<path d="M142.0332 71.0155 L142.6972 72.0115 "/>
<path d="M142.6972 72.0115 L143.3612 72.6755 "/>
<path d="M143.3612 72.6755 L144.0251 73.0074 "/>
<path d="M137.0535 77.9872 L137.0535 71.0155 "/>
<path d="M136.3895 75.3313 L134.3976 77.9872 "/>
<path d="M134.3976 73.3394 L137.0535 75.9953 "/>
</g></g>
<g style="fill:#000084; fill-opacity:0.01;  stroke:#000084; stroke-width:0.5577; stroke-opacity:1;  stroke-linecap:round; stroke-linejoin:round;">
<text x="139.2114" y="65.0561" transform="scale(-1 1) translate(-278.422757 0)" textLength="7.7817" font-size="4.6478" lengthAdjust="spacingAndGlyphs" text-anchor="middle" opacity="0.01" style="font-family:monospace">R4</text>
<g class="stroked-text"><desc>R4</desc>
<path d="M139.7923 64.8967 L140.9543 63.2368 "/>
<path d="M141.7842 64.8967 L141.7842 61.4109 "/>
<path d="M141.7842 61.4109 L140.4563 61.4109 "/>
<path d="M140.4563 61.4109 L140.1243 61.5769 "/>
<path d="M140.1243 61.5769 L139.9583 61.7429 "/>
<path d="M139.9583 61.7429 L139.7923 62.0749 "/>
<path d="M139.7923 62.0749 L139.7923 62.5729 "/>
<path d="M139.7923 62.5729 L139.9583 62.9048 "/>
<path d="M139.9583 62.9048 L140.1243 63.0708 "/>
<path d="M140.1243 63.0708 L140.4563 63.2368 "/>
<path d="M140.4563 63.2368 L141.7842 63.2368 "/>
<path d="M136.8045 62.5729 L136.8045 64.8967 "/>
<path d="M137.6345 61.2449 L138.4644 63.7348 "/>
<path d="M138.4644 63.7348 L136.3065 63.7348 "/>
</g></g>
<g style="fill:#000084; fill-opacity:0.01;  stroke:#000084; stroke-width:1.0457; stroke-opacity:1;  stroke-linecap:round; stroke-linejoin:round;">
<text x="114.8106" y="55.2957" transform="scale(-1 1) translate(-229.621217 0)" textLength="14.0263" font-size="9.2955" lengthAdjust="spacingAndGlyphs" text-anchor="middle" opacity="0.01" style="font-family:monospace">1k</text>
<g class="stroked-text"><desc>1k</desc>
<path d="M115.6406 54.9808 L119.6244 54.9808 "/>
<path d="M117.6325 54.9808 L117.6325 48.0091 "/>
<path d="M117.6325 48.0091 L118.2964 49.0051 "/>
<path d="M118.2964 49.0051 L118.9604 49.6690 "/>
<path d="M118.9604 49.6690 L119.6244 50.0010 "/>
<path d="M112.6527 54.9808 L112.6527 48.0091 "/>
<path d="M111.9887 52.3249 L109.9968 54.9808 "/>
<path d="M109.9968 50.3330 L112.6527 52.9889 "/>
</g></g>
<g style="fill:#000084; fill-opacity:0.01;  stroke:#000084; stroke-width:0.5577; stroke-opacity:1;  stroke-linecap:round; stroke-linejoin:round;">
<text x="114.8106" y="65.0561" transform="scale(-1 1) translate(-229.621217 0)" textLength="7.7817" font-size="4.6478" lengthAdjust="spacingAndGlyphs" text-anchor="middle" opacity="0.01" style="font-family:monospace">R5</text>
<g class="stroked-text"><desc>R5</desc>
<path d="M115.3916 64.8967 L116.5535 63.2368 "/>
<path d="M117.3835 64.8967 L117.3835 61.4109 "/>
<path d="M117.3835 61.4109 L116.0555 61.4109 "/>
<path d="M116.0555 61.4109 L115.7236 61.5769 "/>
<path d="M115.7236 61.5769 L115.5576 61.7429 "/>
<path d="M115.5576 61.7429 L115.3916 62.0749 "/>
<path d="M115.3916 62.0749 L115.3916 62.5729 "/>
<path d="M115.3916 62.5729 L115.5576 62.9048 "/>
<path d="M115.5576 62.9048 L115.7236 63.0708 "/>
<path d="M115.7236 63.0708 L116.0555 63.2368 "/>
<path d="M116.0555 63.2368 L117.3835 63.2368 "/>
<path d="M112.2377 61.4109 L113.8977 61.4109 "/>
<path d="M113.8977 61.4109 L114.0636 63.0708 "/>
<path d="M114.0636 63.0708 L113.8977 62.9048 "/>
<path d="M113.8977 62.9048 L113.5657 62.7388 "/>
<path d="M113.5657 62.7388 L112.7357 62.7388 "/>
<path d="M112.7357 62.7388 L112.4037 62.9048 "/>
<path d="M112.4037 62.9048 L112.2377 63.0708 "/>
<path d="M112.2377 63.0708 L112.0717 63.4028 "/>
<path d="M112.0717 63.4028 L112.0717 64.2328 "/>
<path d="M112.0717 64.2328 L112.2377 64.5648 "/>
<path d="M112.2377 64.5648 L112.4037 64.7308 "/>
<path d="M112.4037 64.7308 L112.7357 64.8967 "/>
<path d="M112.7357 64.8967 L113.5657 64.8967 "/>
<path d="M113.5657 64.8967 L113.8977 64.7308 "/>
<path d="M113.8977 64.7308 L114.0636 64.5648 "/>
</g></g>
<g style="fill:#000084; fill-opacity:0.0;  stroke:#000084; stroke-width:1.0457; stroke-opacity:1;  stroke-linecap:round; stroke-linejoin:round;">
<g transform="rotate(-90.000000 189.4944 89.5440)">
<text x="189.4944" y="93.0298" transform="scale(-1 1) translate(-378.988789 0)" textLength="27.3056" font-size="9.2955" lengthAdjust="spacingAndGlyphs" text-anchor="middle" opacity="0.01" style="font-family:monospace">511k</text>
</g>
<g class="stroked-text"><desc>511k</desc>
<path d="M185.6936 81.7424 L185.6936 78.4225 "/>
<path d="M185.6936 78.4225 L189.0134 78.0905 "/>
<path d="M189.0134 78.0905 L188.6814 78.4225 "/>
<path d="M188.6814 78.4225 L188.3494 79.0865 "/>
<path d="M188.3494 79.0865 L188.3494 80.7464 "/>
<path d="M188.3494 80.7464 L188.6814 81.4104 "/>
<path d="M188.6814 81.4104 L189.0134 81.7424 "/>
<path d="M189.0134 81.7424 L189.6774 82.0743 "/>
<path d="M189.6774 82.0743 L191.3373 82.0743 "/>
<path d="M191.3373 82.0743 L192.0013 81.7424 "/>
<path d="M192.0013 81.7424 L192.3332 81.4104 "/>
<path d="M192.3332 81.4104 L192.6652 80.7464 "/>
<path d="M192.6652 80.7464 L192.6652 79.0865 "/>
<path d="M192.6652 79.0865 L192.3332 78.4225 "/>
<path d="M192.3332 78.4225 L192.0013 78.0905 "/>
<path d="M192.6652 88.7140 L192.6652 84.7302 "/>
<path d="M192.6652 86.7221 L185.6936 86.7221 "/>
<path d="M185.6936 86.7221 L186.6895 86.0581 "/>
<path d="M186.6895 86.0581 L187.3535 85.3942 "/>
<path d="M187.3535 85.3942 L187.6855 84.7302 "/>
<path d="M192.6652 95.3537 L192.6652 91.3699 "/>
<path d="M192.6652 93.3618 L185.6936 93.3618 "/>
<path d="M185.6936 93.3618 L186.6895 92.6978 "/>
<path d="M186.6895 92.6978 L187.3535 92.0338 "/>
<path d="M187.3535 92.0338 L187.6855 91.3699 "/>
<path d="M192.6652 98.3415 L185.6936 98.3415 "/>
<path d="M190.0094 99.0055 L192.6652 100.9974 "/>
<path d="M188.0175 100.9974 L190.6733 98.3415 "/>
</g></g>
<g style="fill:#000084; fill-opacity:0.0;  stroke:#000084; stroke-width:0.5577; stroke-opacity:1;  stroke-linecap:round; stroke-linejoin:round;">
<g transform="rotate(-90.000000 200.9976 89.5440)">
<text x="200.9976" y="91.2869" transform="scale(-1 1) translate(-401.995229 0)" textLength="7.7817" font-size="4.6478" lengthAdjust="spacingAndGlyphs" text-anchor="middle" opacity="0.01" style="font-family:monospace">R2</text>
</g>
<g class="stroked-text"><desc>R2</desc>
<path d="M202.5812 88.9630 L200.9213 87.8011 "/>
<path d="M202.5812 86.9711 L199.0954 86.9711 "/>
<path d="M199.0954 86.9711 L199.0954 88.2990 "/>
<path d="M199.0954 88.2990 L199.2614 88.6310 "/>
<path d="M199.2614 88.6310 L199.4274 88.7970 "/>
<path d="M199.4274 88.7970 L199.7594 88.9630 "/>
<path d="M199.7594 88.9630 L200.2573 88.9630 "/>
<path d="M200.2573 88.9630 L200.5893 88.7970 "/>
<path d="M200.5893 88.7970 L200.7553 88.6310 "/>
<path d="M200.7553 88.6310 L200.9213 88.2990 "/>
<path d="M200.9213 88.2990 L200.9213 86.9711 "/>
<path d="M199.4274 90.2909 L199.2614 90.4569 "/>
<path d="M199.2614 90.4569 L199.0954 90.7889 "/>
<path d="M199.0954 90.7889 L199.0954 91.6189 "/>
<path d="M199.0954 91.6189 L199.2614 91.9508 "/>
<path d="M199.2614 91.9508 L199.4274 92.1168 "/>
<path d="M199.4274 92.1168 L199.7594 92.2828 "/>
<path d="M199.7594 92.2828 L200.0913 92.2828 "/>
<path d="M200.0913 92.2828 L200.5893 92.1168 "/>
<path d="M200.5893 92.1168 L202.5812 90.1249 "/>
<path d="M202.5812 90.1249 L202.5812 92.2828 "/>
</g></g>
<g style="fill:#000084; fill-opacity:0.01;  stroke:#000084; stroke-width:1.0457; stroke-opacity:1;  stroke-linecap:round; stroke-linejoin:round;">
<text x="179.0369" y="97.7879" transform="scale(-1 1) translate(-358.073843 0)" textLength="27.3056" font-size="9.2955" lengthAdjust="spacingAndGlyphs" text-anchor="middle" opacity="0.01" style="font-family:monospace">10uF</text>
<g class="stroked-text"><desc>10uF</desc>
<path d="M186.5065 97.4730 L190.4903 97.4730 "/>
<path d="M188.4984 97.4730 L188.4984 90.5013 "/>
<path d="M188.4984 90.5013 L189.1624 91.4973 "/>
<path d="M189.1624 91.4973 L189.8264 92.1612 "/>
<path d="M189.8264 92.1612 L190.4903 92.4932 "/>
<path d="M182.1908 90.5013 L181.5268 90.5013 "/>
<path d="M181.5268 90.5013 L180.8628 90.8333 "/>
<path d="M180.8628 90.8333 L180.5308 91.1653 "/>
<path d="M180.5308 91.1653 L180.1989 91.8292 "/>
<path d="M180.1989 91.8292 L179.8669 93.1572 "/>
<path d="M179.8669 93.1572 L179.8669 94.8171 "/>
<path d="M179.8669 94.8171 L180.1989 96.1450 "/>
<path d="M180.1989 96.1450 L180.5308 96.8090 "/>
<path d="M180.5308 96.8090 L180.8628 97.1410 "/>
<path d="M180.8628 97.1410 L181.5268 97.4730 "/>
<path d="M181.5268 97.4730 L182.1908 97.4730 "/>
<path d="M182.1908 97.4730 L182.8547 97.1410 "/>
<path d="M182.8547 97.1410 L183.1867 96.8090 "/>
<path d="M183.1867 96.8090 L183.5187 96.1450 "/>
<path d="M183.5187 96.1450 L183.8507 94.8171 "/>
<path d="M183.8507 94.8171 L183.8507 93.1572 "/>
<path d="M183.8507 93.1572 L183.5187 91.8292 "/>
<path d="M183.5187 91.8292 L183.1867 91.1653 "/>
<path d="M183.1867 91.1653 L182.8547 90.8333 "/>
<path d="M182.8547 90.8333 L182.1908 90.5013 "/>
<path d="M173.8912 92.8252 L173.8912 97.4730 "/>
<path d="M176.8790 92.8252 L176.8790 96.4770 "/>
<path d="M176.8790 96.4770 L176.5470 97.1410 "/>
<path d="M176.5470 97.1410 L175.8831 97.4730 "/>
<path d="M175.8831 97.4730 L174.8871 97.4730 "/>
<path d="M174.8871 97.4730 L174.2232 97.1410 "/>
<path d="M174.2232 97.1410 L173.8912 96.8090 "/>
<path d="M168.2475 93.8211 L170.5713 93.8211 "/>
<path d="M170.5713 97.4730 L170.5713 90.5013 "/>
<path d="M170.5713 90.5013 L167.2515 90.5013 "/>
</g></g>
<g style="fill:#000084; fill-opacity:0.01;  stroke:#000084; stroke-width:0.5577; stroke-opacity:1;  stroke-linecap:round; stroke-linejoin:round;">
<text x="179.0369" y="107.7574" transform="scale(-1 1) translate(-358.073843 0)" textLength="7.7817" font-size="4.6478" lengthAdjust="spacingAndGlyphs" text-anchor="middle" opacity="0.01" style="font-family:monospace">C3</text>
<g class="stroked-text"><desc>C3</desc>
<path d="M179.6179 107.2661 L179.7839 107.4321 "/>
<path d="M179.7839 107.4321 L180.2819 107.5981 "/>
<path d="M180.2819 107.5981 L180.6138 107.5981 "/>
<path d="M180.6138 107.5981 L181.1118 107.4321 "/>
<path d="M181.1118 107.4321 L181.4438 107.1001 "/>
<path d="M181.4438 107.1001 L181.6098 106.7681 "/>
<path d="M181.6098 106.7681 L181.7758 106.1042 "/>
<path d="M181.7758 106.1042 L181.7758 105.6062 "/>
<path d="M181.7758 105.6062 L181.6098 104.9422 "/>
<path d="M181.6098 104.9422 L181.4438 104.6102 "/>
<path d="M181.4438 104.6102 L181.1118 104.2783 "/>
<path d="M181.1118 104.2783 L180.6138 104.1123 "/>
<path d="M180.6138 104.1123 L180.2819 104.1123 "/>
<path d="M180.2819 104.1123 L179.7839 104.2783 "/>
<path d="M179.7839 104.2783 L179.6179 104.4442 "/>
<path d="M178.4559 104.1123 L176.2981 104.1123 "/>
<path d="M176.2981 104.1123 L177.4600 105.4402 "/>
<path d="M177.4600 105.4402 L176.9620 105.4402 "/>
<path d="M176.9620 105.4402 L176.6300 105.6062 "/>
<path d="M176.6300 105.6062 L176.4640 105.7722 "/>
<path d="M176.4640 105.7722 L176.2981 106.1042 "/>
<path d="M176.2981 106.1042 L176.2981 106.9341 "/>
<path d="M176.2981 106.9341 L176.4640 107.2661 "/>
<path d="M176.4640 107.2661 L176.6300 107.4321 "/>
<path d="M176.6300 107.4321 L176.9620 107.5981 "/>
<path d="M176.9620 107.5981 L177.9580 107.5981 "/>
<path d="M177.9580 107.5981 L178.2900 107.4321 "/>
<path d="M178.2900 107.4321 L178.4559 107.2661 "/>
</g></g>
<g style="fill:#000084; fill-opacity:0.0;  stroke:#000084; stroke-width:1.0457; stroke-opacity:1;  stroke-linecap:round; stroke-linejoin:round;">
<g transform="rotate(-90.000000 125.7038 114.9033)">
<text x="125.7038" y="118.3892" transform="scale(-1 1) translate(-251.407619 0)" textLength="16.3502" font-size="9.2955" lengthAdjust="spacingAndGlyphs" text-anchor="middle" opacity="0.01" style="font-family:monospace">M4</text>
</g>
<g class="stroked-text"><desc>M4</desc>
<path d="M128.8746 109.2596 L121.9030 109.2596 "/>
<path d="M121.9030 109.2596 L126.8827 111.5835 "/>
<path d="M126.8827 111.5835 L121.9030 113.9074 "/>
<path d="M121.9030 113.9074 L128.8746 113.9074 "/>
<path d="M124.2269 120.2151 L128.8746 120.2151 "/>
<path d="M121.5710 118.5552 L126.5508 116.8952 "/>
<path d="M126.5508 116.8952 L126.5508 121.2110 "/>
</g><g transform="rotate(-90.000000 90.1484 114.9033)">
<text x="90.1484" y="118.3892" transform="scale(-1 1) translate(-180.296803 0)" textLength="15.3542" font-size="9.2955" lengthAdjust="spacingAndGlyphs" text-anchor="middle" opacity="0.01" style="font-family:monospace">D1</text>
</g>
<g class="stroked-text"><desc>D1</desc>
<path d="M93.3192 109.7576 L86.3476 109.7576 "/>
<path d="M86.3476 109.7576 L86.3476 111.4175 "/>
<path d="M86.3476 111.4175 L86.6796 112.4135 "/>
<path d="M86.6796 112.4135 L87.3435 113.0774 "/>
<path d="M87.3435 113.0774 L88.0075 113.4094 "/>
<path d="M88.0075 113.4094 L89.3354 113.7414 "/>
<path d="M89.3354 113.7414 L90.3314 113.7414 "/>
<path d="M90.3314 113.7414 L91.6593 113.4094 "/>
<path d="M91.6593 113.4094 L92.3233 113.0774 "/>
<path d="M92.3233 113.0774 L92.9873 112.4135 "/>
<path d="M92.9873 112.4135 L93.3192 111.4175 "/>
<path d="M93.3192 111.4175 L93.3192 109.7576 "/>
<path d="M93.3192 120.3811 L93.3192 116.3973 "/>
<path d="M93.3192 118.3892 L86.3476 118.3892 "/>
<path d="M86.3476 118.3892 L87.3435 117.7252 "/>
<path d="M87.3435 117.7252 L88.0075 117.0612 "/>
<path d="M88.0075 117.0612 L88.3395 116.3973 "/>
</g><g transform="rotate(-90.000000 153.0327 87.1910)">
<text x="153.0327" y="90.6769" transform="scale(-1 1) translate(-306.065344 0)" textLength="27.3056" font-size="9.2955" lengthAdjust="spacingAndGlyphs" text-anchor="middle" opacity="0.01" style="font-family:monospace">47uF</text>
</g>
<g class="stroked-text"><desc>47uF</desc>
<path d="M151.5557 79.0574 L156.2035 79.0574 "/>
<path d="M148.8999 77.3975 L153.8796 75.7376 "/>
<path d="M153.8796 75.7376 L153.8796 80.0534 "/>
<path d="M149.2319 82.0453 L149.2319 86.6931 "/>
<path d="M149.2319 86.6931 L156.2035 83.7052 "/>
<path d="M151.5557 92.3368 L156.2035 92.3368 "/>
<path d="M151.5557 89.3489 L155.2076 89.3489 "/>
<path d="M155.2076 89.3489 L155.8715 89.6809 "/>
<path d="M155.8715 89.6809 L156.2035 90.3449 "/>
<path d="M156.2035 90.3449 L156.2035 91.3408 "/>
<path d="M156.2035 91.3408 L155.8715 92.0048 "/>
<path d="M155.8715 92.0048 L155.5395 92.3368 "/>
<path d="M152.5517 97.9805 L152.5517 95.6566 "/>
<path d="M156.2035 95.6566 L149.2319 95.6566 "/>
<path d="M149.2319 95.6566 L149.2319 98.9764 "/>
</g></g>
<g style="fill:#000084; fill-opacity:0.0;  stroke:#000084; stroke-width:0.5577; stroke-opacity:1;  stroke-linecap:round; stroke-linejoin:round;">
<g transform="rotate(-90.000000 164.7450 87.1910)">
<text x="164.7450" y="88.9339" transform="scale(-1 1) translate(-329.490084 0)" textLength="7.7817" font-size="4.6478" lengthAdjust="spacingAndGlyphs" text-anchor="middle" opacity="0.01" style="font-family:monospace">C2</text>
</g>
<g class="stroked-text"><desc>C2</desc>
<path d="M165.9967 86.6101 L166.1627 86.4441 "/>
<path d="M166.1627 86.4441 L166.3286 85.9461 "/>
<path d="M166.3286 85.9461 L166.3286 85.6141 "/>
<path d="M166.3286 85.6141 L166.1627 85.1161 "/>
<path d="M166.1627 85.1161 L165.8307 84.7842 "/>
<path d="M165.8307 84.7842 L165.4987 84.6182 "/>
<path d="M165.4987 84.6182 L164.8347 84.4522 "/>
<path d="M164.8347 84.4522 L164.3367 84.4522 "/>
<path d="M164.3367 84.4522 L163.6728 84.6182 "/>
<path d="M163.6728 84.6182 L163.3408 84.7842 "/>
<path d="M163.3408 84.7842 L163.0088 85.1161 "/>
<path d="M163.0088 85.1161 L162.8428 85.6141 "/>
<path d="M162.8428 85.6141 L162.8428 85.9461 "/>
<path d="M162.8428 85.9461 L163.0088 86.4441 "/>
<path d="M163.0088 86.4441 L163.1748 86.6101 "/>
<path d="M163.1748 87.9380 L163.0088 88.1040 "/>
<path d="M163.0088 88.1040 L162.8428 88.4360 "/>
<path d="M162.8428 88.4360 L162.8428 89.2659 "/>
<path d="M162.8428 89.2659 L163.0088 89.5979 "/>
<path d="M163.0088 89.5979 L163.1748 89.7639 "/>
<path d="M163.1748 89.7639 L163.5068 89.9299 "/>
<path d="M163.5068 89.9299 L163.8388 89.9299 "/>
<path d="M163.8388 89.9299 L164.3367 89.7639 "/>
<path d="M164.3367 89.7639 L166.3286 87.7720 "/>
<path d="M166.3286 87.7720 L166.3286 89.9299 "/>
</g></g>
<g style="fill:#000084; fill-opacity:0.0;  stroke:#000084; stroke-width:1.7708; stroke-opacity:1;  stroke-linecap:round; stroke-linejoin:round;">
<g transform="rotate(-90.000000 147.1625 90.7047)">
<text x="147.1625" y="95.1317" transform="scale(-1 1) translate(-294.325088 0)" textLength="21.2496" font-size="11.8053" lengthAdjust="spacingAndGlyphs" text-anchor="middle" opacity="0.01" style="font-family:monospace">U1</text>
</g>
<g class="stroked-text"><desc>U1</desc>
<path d="M142.3125 83.9588 L149.4800 83.9588 "/>
<path d="M149.4800 83.9588 L150.3232 84.3805 "/>
<path d="M150.3232 84.3805 L150.7449 84.8021 "/>
<path d="M150.7449 84.8021 L151.1665 85.6453 "/>
<path d="M151.1665 85.6453 L151.1665 87.3318 "/>
<path d="M151.1665 87.3318 L150.7449 88.1750 "/>
<path d="M150.7449 88.1750 L150.3232 88.5967 "/>
<path d="M150.3232 88.5967 L149.4800 89.0183 "/>
<path d="M149.4800 89.0183 L142.3125 89.0183 "/>
<path d="M151.1665 97.8723 L151.1665 92.8128 "/>
<path d="M151.1665 95.3425 L142.3125 95.3425 "/>
<path d="M142.3125 95.3425 L143.5773 94.4993 "/>
<path d="M143.5773 94.4993 L144.4206 93.6561 "/>
<path d="M144.4206 93.6561 L144.8422 92.8128 "/>
</g></g>
<g style="fill:#000084; fill-opacity:0.0;  stroke:#000084; stroke-width:1.0457; stroke-opacity:1;  stroke-linecap:round; stroke-linejoin:round;">
<g transform="rotate(-90.000000 212.5008 114.1190)">
<text x="212.5008" y="117.6049" transform="scale(-1 1) translate(-425.001670 0)" textLength="27.3056" font-size="9.2955" lengthAdjust="spacingAndGlyphs" text-anchor="middle" opacity="0.01" style="font-family:monospace">806k</text>
</g>
<g class="stroked-text"><desc>806k</desc>
<path d="M211.6879 103.9935 L211.3559 103.3296 "/>
<path d="M211.3559 103.3296 L211.0239 102.9976 "/>
<path d="M211.0239 102.9976 L210.3599 102.6656 "/>
<path d="M210.3599 102.6656 L210.0280 102.6656 "/>
<path d="M210.0280 102.6656 L209.3640 102.9976 "/>
<path d="M209.3640 102.9976 L209.0320 103.3296 "/>
<path d="M209.0320 103.3296 L208.7000 103.9935 "/>
<path d="M208.7000 103.9935 L208.7000 105.3215 "/>
<path d="M208.7000 105.3215 L209.0320 105.9854 "/>
<path d="M209.0320 105.9854 L209.3640 106.3174 "/>
<path d="M209.3640 106.3174 L210.0280 106.6494 "/>
<path d="M210.0280 106.6494 L210.3599 106.6494 "/>
<path d="M210.3599 106.6494 L211.0239 106.3174 "/>
<path d="M211.0239 106.3174 L211.3559 105.9854 "/>
<path d="M211.3559 105.9854 L211.6879 105.3215 "/>
<path d="M211.6879 105.3215 L211.6879 103.9935 "/>
<path d="M211.6879 103.9935 L212.0199 103.3296 "/>
<path d="M212.0199 103.3296 L212.3518 102.9976 "/>
<path d="M212.3518 102.9976 L213.0158 102.6656 "/>
<path d="M213.0158 102.6656 L214.3437 102.6656 "/>
<path d="M214.3437 102.6656 L215.0077 102.9976 "/>
<path d="M215.0077 102.9976 L215.3397 103.3296 "/>
<path d="M215.3397 103.3296 L215.6717 103.9935 "/>
<path d="M215.6717 103.9935 L215.6717 105.3215 "/>
<path d="M215.6717 105.3215 L215.3397 105.9854 "/>
<path d="M215.3397 105.9854 L215.0077 106.3174 "/>
<path d="M215.0077 106.3174 L214.3437 106.6494 "/>
<path d="M214.3437 106.6494 L213.0158 106.6494 "/>
<path d="M213.0158 106.6494 L212.3518 106.3174 "/>
<path d="M212.3518 106.3174 L212.0199 105.9854 "/>
<path d="M212.0199 105.9854 L211.6879 105.3215 "/>
<path d="M208.7000 110.9652 L208.7000 111.6292 "/>
<path d="M208.7000 111.6292 L209.0320 112.2931 "/>
<path d="M209.0320 112.2931 L209.3640 112.6251 "/>
<path d="M209.3640 112.6251 L210.0280 112.9571 "/>
<path d="M210.0280 112.9571 L211.3559 113.2891 "/>
<path d="M211.3559 113.2891 L213.0158 113.2891 "/>
<path d="M213.0158 113.2891 L214.3437 112.9571 "/>
<path d="M214.3437 112.9571 L215.0077 112.6251 "/>
<path d="M215.0077 112.6251 L215.3397 112.2931 "/>
<path d="M215.3397 112.2931 L215.6717 111.6292 "/>
<path d="M215.6717 111.6292 L215.6717 110.9652 "/>
<path d="M215.6717 110.9652 L215.3397 110.3012 "/>
<path d="M215.3397 110.3012 L215.0077 109.9692 "/>
<path d="M215.0077 109.9692 L214.3437 109.6373 "/>
<path d="M214.3437 109.6373 L213.0158 109.3053 "/>
<path d="M213.0158 109.3053 L211.3559 109.3053 "/>
<path d="M211.3559 109.3053 L210.0280 109.6373 "/>
<path d="M210.0280 109.6373 L209.3640 109.9692 "/>
<path d="M209.3640 109.9692 L209.0320 110.3012 "/>
<path d="M209.0320 110.3012 L208.7000 110.9652 "/>
<path d="M208.7000 119.2648 L208.7000 117.9368 "/>
<path d="M208.7000 117.9368 L209.0320 117.2729 "/>
<path d="M209.0320 117.2729 L209.3640 116.9409 "/>
<path d="M209.3640 116.9409 L210.3599 116.2769 "/>
<path d="M210.3599 116.2769 L211.6879 115.9449 "/>
<path d="M211.6879 115.9449 L214.3437 115.9449 "/>
<path d="M214.3437 115.9449 L215.0077 116.2769 "/>
<path d="M215.0077 116.2769 L215.3397 116.6089 "/>
<path d="M215.3397 116.6089 L215.6717 117.2729 "/>
<path d="M215.6717 117.2729 L215.6717 118.6008 "/>
<path d="M215.6717 118.6008 L215.3397 119.2648 "/>
<path d="M215.3397 119.2648 L215.0077 119.5967 "/>
<path d="M215.0077 119.5967 L214.3437 119.9287 "/>
<path d="M214.3437 119.9287 L212.6838 119.9287 "/>
<path d="M212.6838 119.9287 L212.0199 119.5967 "/>
<path d="M212.0199 119.5967 L211.6879 119.2648 "/>
<path d="M211.6879 119.2648 L211.3559 118.6008 "/>
<path d="M211.3559 118.6008 L211.3559 117.2729 "/>
<path d="M211.3559 117.2729 L211.6879 116.6089 "/>
<path d="M211.6879 116.6089 L212.0199 116.2769 "/>
<path d="M212.0199 116.2769 L212.6838 115.9449 "/>
<path d="M215.6717 122.9166 L208.7000 122.9166 "/>
<path d="M213.0158 123.5806 L215.6717 125.5724 "/>
<path d="M211.0239 125.5724 L213.6798 122.9166 "/>
</g></g>
<g style="fill:#000084; fill-opacity:0.0;  stroke:#000084; stroke-width:0.5577; stroke-opacity:1;  stroke-linecap:round; stroke-linejoin:round;">
<g transform="rotate(-90.000000 200.9976 114.1190)">
<text x="200.9976" y="115.8619" transform="scale(-1 1) translate(-401.995229 0)" textLength="7.7817" font-size="4.6478" lengthAdjust="spacingAndGlyphs" text-anchor="middle" opacity="0.01" style="font-family:monospace">R3</text>
</g>
<g class="stroked-text"><desc>R3</desc>
<path d="M202.5812 113.5381 L200.9213 112.3761 "/>
<path d="M202.5812 111.5462 L199.0954 111.5462 "/>
<path d="M199.0954 111.5462 L199.0954 112.8741 "/>
<path d="M199.0954 112.8741 L199.2614 113.2061 "/>
<path d="M199.2614 113.2061 L199.4274 113.3721 "/>
<path d="M199.4274 113.3721 L199.7594 113.5381 "/>
<path d="M199.7594 113.5381 L200.2573 113.5381 "/>
<path d="M200.2573 113.5381 L200.5893 113.3721 "/>
<path d="M200.5893 113.3721 L200.7553 113.2061 "/>
<path d="M200.7553 113.2061 L200.9213 112.8741 "/>
<path d="M200.9213 112.8741 L200.9213 111.5462 "/>
<path d="M199.0954 114.7000 L199.0954 116.8579 "/>
<path d="M199.0954 116.8579 L200.4233 115.6959 "/>
<path d="M200.4233 115.6959 L200.4233 116.1939 "/>
<path d="M200.4233 116.1939 L200.5893 116.5259 "/>
<path d="M200.5893 116.5259 L200.7553 116.6919 "/>
<path d="M200.7553 116.6919 L201.0873 116.8579 "/>
<path d="M201.0873 116.8579 L201.9173 116.8579 "/>
<path d="M201.9173 116.8579 L202.2492 116.6919 "/>
<path d="M202.2492 116.6919 L202.4152 116.5259 "/>
<path d="M202.4152 116.5259 L202.5812 116.1939 "/>
<path d="M202.5812 116.1939 L202.5812 115.1980 "/>
<path d="M202.5812 115.1980 L202.4152 114.8660 "/>
<path d="M202.4152 114.8660 L202.2492 114.7000 "/>
</g></g>
<g style="fill:#000084; fill-opacity:0.0;  stroke:#000084; stroke-width:1.0457; stroke-opacity:1;  stroke-linecap:round; stroke-linejoin:round;">
<g transform="rotate(-90.000000 117.7422 88.0625)">
<text x="117.7422" y="91.5483" transform="scale(-1 1) translate(-235.484374 0)" textLength="27.3056" font-size="9.2955" lengthAdjust="spacingAndGlyphs" text-anchor="middle" opacity="0.01" style="font-family:monospace">22uF</text>
</g>
<g class="stroked-text"><desc>22uF</desc>
<path d="M114.6053 76.6091 L114.2734 76.9411 "/>
<path d="M114.2734 76.9411 L113.9414 77.6050 "/>
<path d="M113.9414 77.6050 L113.9414 79.2649 "/>
<path d="M113.9414 79.2649 L114.2734 79.9289 "/>
<path d="M114.2734 79.9289 L114.6053 80.2609 "/>
<path d="M114.6053 80.2609 L115.2693 80.5929 "/>
<path d="M115.2693 80.5929 L115.9333 80.5929 "/>
<path d="M115.9333 80.5929 L116.9292 80.2609 "/>
<path d="M116.9292 80.2609 L120.9130 76.2771 "/>
<path d="M120.9130 76.2771 L120.9130 80.5929 "/>
<path d="M114.6053 83.2487 L114.2734 83.5807 "/>
<path d="M114.2734 83.5807 L113.9414 84.2447 "/>
<path d="M113.9414 84.2447 L113.9414 85.9046 "/>
<path d="M113.9414 85.9046 L114.2734 86.5686 "/>
<path d="M114.2734 86.5686 L114.6053 86.9005 "/>
<path d="M114.6053 86.9005 L115.2693 87.2325 "/>
<path d="M115.2693 87.2325 L115.9333 87.2325 "/>
<path d="M115.9333 87.2325 L116.9292 86.9005 "/>
<path d="M116.9292 86.9005 L120.9130 82.9168 "/>
<path d="M120.9130 82.9168 L120.9130 87.2325 "/>
<path d="M116.2653 93.2082 L120.9130 93.2082 "/>
<path d="M116.2653 90.2204 L119.9171 90.2204 "/>
<path d="M119.9171 90.2204 L120.5810 90.5524 "/>
<path d="M120.5810 90.5524 L120.9130 91.2163 "/>
<path d="M120.9130 91.2163 L120.9130 92.2123 "/>
<path d="M120.9130 92.2123 L120.5810 92.8762 "/>
<path d="M120.5810 92.8762 L120.2491 93.2082 "/>
<path d="M117.2612 98.8519 L117.2612 96.5281 "/>
<path d="M120.9130 96.5281 L113.9414 96.5281 "/>
<path d="M113.9414 96.5281 L113.9414 99.8479 "/>
</g></g>
<g style="fill:#000084; fill-opacity:0.0;  stroke:#000084; stroke-width:0.5577; stroke-opacity:1;  stroke-linecap:round; stroke-linejoin:round;">
<g transform="rotate(-90.000000 129.4546 88.0625)">
<text x="129.4546" y="89.8054" transform="scale(-1 1) translate(-258.909113 0)" textLength="7.7817" font-size="4.6478" lengthAdjust="spacingAndGlyphs" text-anchor="middle" opacity="0.01" style="font-family:monospace">C1</text>
</g>
<g class="stroked-text"><desc>C1</desc>
<path d="M130.7062 87.4815 L130.8722 87.3155 "/>
<path d="M130.8722 87.3155 L131.0382 86.8175 "/>
<path d="M131.0382 86.8175 L131.0382 86.4856 "/>
<path d="M131.0382 86.4856 L130.8722 85.9876 "/>
<path d="M130.8722 85.9876 L130.5402 85.6556 "/>
<path d="M130.5402 85.6556 L130.2082 85.4896 "/>
<path d="M130.2082 85.4896 L129.5442 85.3236 "/>
<path d="M129.5442 85.3236 L129.0463 85.3236 "/>
<path d="M129.0463 85.3236 L128.3823 85.4896 "/>
<path d="M128.3823 85.4896 L128.0503 85.6556 "/>
<path d="M128.0503 85.6556 L127.7183 85.9876 "/>
<path d="M127.7183 85.9876 L127.5523 86.4856 "/>
<path d="M127.5523 86.4856 L127.5523 86.8175 "/>
<path d="M127.5523 86.8175 L127.7183 87.3155 "/>
<path d="M127.7183 87.3155 L127.8843 87.4815 "/>
<path d="M131.0382 90.8014 L131.0382 88.8095 "/>
<path d="M131.0382 89.8054 L127.5523 89.8054 "/>
<path d="M127.5523 89.8054 L128.0503 89.4734 "/>
<path d="M128.0503 89.4734 L128.3823 89.1414 "/>
<path d="M128.3823 89.1414 L128.5483 88.8095 "/>
</g></g>
<g style="fill:#000084; fill-opacity:0.01;  stroke:#000084; stroke-width:0.4183; stroke-opacity:1;  stroke-linecap:round; stroke-linejoin:round;">
<text x="111.4119" y="150.4587" transform="scale(-1 1) translate(-222.823860 0)" textLength="9.8599" font-size="3.7182" lengthAdjust="spacingAndGlyphs" text-anchor="middle" opacity="0.01" style="font-family:monospace">FID1</text>
<g class="stroked-text"><desc>FID1</desc>
<path d="M114.3998 148.8720 L115.3293 148.8720 "/>
<path d="M115.3293 150.3327 L115.3293 147.5441 "/>
<path d="M115.3293 147.5441 L114.0014 147.5441 "/>
<path d="M112.9390 150.3327 L112.9390 147.5441 "/>
<path d="M111.6111 150.3327 L111.6111 147.5441 "/>
<path d="M111.6111 147.5441 L110.9471 147.5441 "/>
<path d="M110.9471 147.5441 L110.5488 147.6769 "/>
<path d="M110.5488 147.6769 L110.2832 147.9425 "/>
<path d="M110.2832 147.9425 L110.1504 148.2081 "/>
<path d="M110.1504 148.2081 L110.0176 148.7392 "/>
<path d="M110.0176 148.7392 L110.0176 149.1376 "/>
<path d="M110.0176 149.1376 L110.1504 149.6688 "/>
<path d="M110.1504 149.6688 L110.2832 149.9344 "/>
<path d="M110.2832 149.9344 L110.5488 150.2000 "/>
<path d="M110.5488 150.2000 L110.9471 150.3327 "/>
<path d="M110.9471 150.3327 L111.6111 150.3327 "/>
<path d="M107.3617 150.3327 L108.9552 150.3327 "/>
<path d="M108.1585 150.3327 L108.1585 147.5441 "/>
<path d="M108.1585 147.5441 L108.4241 147.9425 "/>
<path d="M108.4241 147.9425 L108.6897 148.2081 "/>
<path d="M108.6897 148.2081 L108.9552 148.3409 "/>
</g></g>
<g style="fill:#000084; fill-opacity:0.0;  stroke:#000084; stroke-width:1.0457; stroke-opacity:1;  stroke-linecap:round; stroke-linejoin:round;">
<g transform="rotate(-90.000000 172.7624 86.9296)">
<text x="172.7624" y="90.4154" transform="scale(-1 1) translate(-345.524876 0)" textLength="20.6660" font-size="9.2955" lengthAdjust="spacingAndGlyphs" text-anchor="middle" opacity="0.01" style="font-family:monospace">91k</text>
</g>
<g class="stroked-text"><desc>91k</desc>
<path d="M175.9333 79.4600 L175.9333 80.7879 "/>
<path d="M175.9333 80.7879 L175.6013 81.4519 "/>
<path d="M175.6013 81.4519 L175.2693 81.7839 "/>
<path d="M175.2693 81.7839 L174.2734 82.4478 "/>
<path d="M174.2734 82.4478 L172.9454 82.7798 "/>
<path d="M172.9454 82.7798 L170.2896 82.7798 "/>
<path d="M170.2896 82.7798 L169.6256 82.4478 "/>
<path d="M169.6256 82.4478 L169.2936 82.1158 "/>
<path d="M169.2936 82.1158 L168.9616 81.4519 "/>
<path d="M168.9616 81.4519 L168.9616 80.1239 "/>
<path d="M168.9616 80.1239 L169.2936 79.4600 "/>
<path d="M169.2936 79.4600 L169.6256 79.1280 "/>
<path d="M169.6256 79.1280 L170.2896 78.7960 "/>
<path d="M170.2896 78.7960 L171.9495 78.7960 "/>
<path d="M171.9495 78.7960 L172.6134 79.1280 "/>
<path d="M172.6134 79.1280 L172.9454 79.4600 "/>
<path d="M172.9454 79.4600 L173.2774 80.1239 "/>
<path d="M173.2774 80.1239 L173.2774 81.4519 "/>
<path d="M173.2774 81.4519 L172.9454 82.1158 "/>
<path d="M172.9454 82.1158 L172.6134 82.4478 "/>
<path d="M172.6134 82.4478 L171.9495 82.7798 "/>
<path d="M175.9333 89.4195 L175.9333 85.4357 "/>
<path d="M175.9333 87.4276 L168.9616 87.4276 "/>
<path d="M168.9616 87.4276 L169.9576 86.7636 "/>
<path d="M169.9576 86.7636 L170.6215 86.0996 "/>
<path d="M170.6215 86.0996 L170.9535 85.4357 "/>
<path d="M175.9333 92.4073 L168.9616 92.4073 "/>
<path d="M173.2774 93.0713 L175.9333 95.0632 "/>
<path d="M171.2855 95.0632 L173.9414 92.4073 "/>
</g></g>
<g style="fill:#000084; fill-opacity:0.0;  stroke:#000084; stroke-width:0.5577; stroke-opacity:1;  stroke-linecap:round; stroke-linejoin:round;">
<g transform="rotate(-90.000000 184.2657 86.9296)">
<text x="184.2657" y="88.6725" transform="scale(-1 1) translate(-368.531316 0)" textLength="7.7817" font-size="4.6478" lengthAdjust="spacingAndGlyphs" text-anchor="middle" opacity="0.01" style="font-family:monospace">R1</text>
</g>
<g class="stroked-text"><desc>R1</desc>
<path d="M185.8493 86.3486 L184.1893 85.1867 "/>
<path d="M185.8493 84.3567 L182.3634 84.3567 "/>
<path d="M182.3634 84.3567 L182.3634 85.6847 "/>
<path d="M182.3634 85.6847 L182.5294 86.0166 "/>
<path d="M182.5294 86.0166 L182.6954 86.1826 "/>
<path d="M182.6954 86.1826 L183.0274 86.3486 "/>
<path d="M183.0274 86.3486 L183.5254 86.3486 "/>
<path d="M183.5254 86.3486 L183.8574 86.1826 "/>
<path d="M183.8574 86.1826 L184.0234 86.0166 "/>
<path d="M184.0234 86.0166 L184.1893 85.6847 "/>
<path d="M184.1893 85.6847 L184.1893 84.3567 "/>
<path d="M185.8493 89.6685 L185.8493 87.6766 "/>
<path d="M185.8493 88.6725 L182.3634 88.6725 "/>
<path d="M182.3634 88.6725 L182.8614 88.3405 "/>
<path d="M182.8614 88.3405 L183.1934 88.0085 "/>
<path d="M183.1934 88.0085 L183.3594 87.6766 "/>
</g></g>
<g style="fill:#000084; fill-opacity:0.01;  stroke:#000084; stroke-width:0.4183; stroke-opacity:1;  stroke-linecap:round; stroke-linejoin:round;">
<text x="181.1284" y="52.8557" transform="scale(-1 1) translate(-362.256832 0)" textLength="9.8599" font-size="3.7182" lengthAdjust="spacingAndGlyphs" text-anchor="middle" opacity="0.01" style="font-family:monospace">FID2</text>
<g class="stroked-text"><desc>FID2</desc>
<path d="M184.1163 51.2689 L185.0458 51.2689 "/>
<path d="M185.0458 52.7297 L185.0458 49.9410 "/>
<path d="M185.0458 49.9410 L183.7179 49.9410 "/>
<path d="M182.6555 52.7297 L182.6555 49.9410 "/>
<path d="M181.3276 52.7297 L181.3276 49.9410 "/>
<path d="M181.3276 49.9410 L180.6636 49.9410 "/>
<path d="M180.6636 49.9410 L180.2652 50.0738 "/>
<path d="M180.2652 50.0738 L179.9997 50.3394 "/>
<path d="M179.9997 50.3394 L179.8669 50.6050 "/>
<path d="M179.8669 50.6050 L179.7341 51.1362 "/>
<path d="M179.7341 51.1362 L179.7341 51.5345 "/>
<path d="M179.7341 51.5345 L179.8669 52.0657 "/>
<path d="M179.8669 52.0657 L179.9997 52.3313 "/>
<path d="M179.9997 52.3313 L180.2652 52.5969 "/>
<path d="M180.2652 52.5969 L180.6636 52.7297 "/>
<path d="M180.6636 52.7297 L181.3276 52.7297 "/>
<path d="M178.6717 50.2066 L178.5389 50.0738 "/>
<path d="M178.5389 50.0738 L178.2734 49.9410 "/>
<path d="M178.2734 49.9410 L177.6094 49.9410 "/>
<path d="M177.6094 49.9410 L177.3438 50.0738 "/>
<path d="M177.3438 50.0738 L177.2110 50.2066 "/>
<path d="M177.2110 50.2066 L177.0782 50.4722 "/>
<path d="M177.0782 50.4722 L177.0782 50.7378 "/>
<path d="M177.0782 50.7378 L177.2110 51.1362 "/>
<path d="M177.2110 51.1362 L178.8045 52.7297 "/>
<path d="M178.8045 52.7297 L177.0782 52.7297 "/>
</g></g>
<g style="fill:#000084; fill-opacity:0.01;  stroke:#000084; stroke-width:0.6274; stroke-opacity:1;  stroke-linecap:round; stroke-linejoin:round;">
<text x="147.1625" y="112.3447" transform="scale(-1 1) translate(-294.325088 0)" textLength="8.6336" font-size="5.7632" lengthAdjust="spacingAndGlyphs" text-anchor="middle" opacity="0.01" style="font-family:monospace">L1</text>
<g class="stroked-text"><desc>L1</desc>
<path d="M147.8829 112.1505 L149.9412 112.1505 "/>
<path d="M149.9412 112.1505 L149.9412 107.8281 "/>
<path d="M144.1780 112.1505 L146.6480 112.1505 "/>
<path d="M145.4130 112.1505 L145.4130 107.8281 "/>
<path d="M145.4130 107.8281 L145.8246 108.4456 "/>
<path d="M145.8246 108.4456 L146.2363 108.8573 "/>
<path d="M146.2363 108.8573 L146.6480 109.0631 "/>
</g></g>
<g style="fill:#000084; fill-opacity:0.0;  stroke:#000084; stroke-width:0.6972; stroke-opacity:1;  stroke-linecap:round; stroke-linejoin:round;">
<path d="M146.1830 67.6704 L146.1830 58.9559 "/>
<path d="M146.1830 58.9559 L132.2397 58.9559 "/>
<path d="M132.2397 67.6704 L146.1830 67.6704 "/>
<path d="M132.2397 58.9559 L132.2397 67.6704 "/>
<path d="M107.8390 58.9559 L107.8390 67.6704 "/>
<path d="M107.8390 67.6704 L121.7823 67.6704 "/>
<path d="M121.7823 58.9559 L107.8390 58.9559 "/>
<path d="M121.7823 67.6704 L121.7823 58.9559 "/>
<path d="M196.6403 96.5156 L205.3549 96.5156 "/>
<path d="M205.3549 96.5156 L205.3549 82.5723 "/>
<path d="M196.6403 82.5723 L196.6403 96.5156 "/>
<path d="M205.3549 82.5723 L196.6403 82.5723 "/>
<path d="M172.0653 101.6572 L172.0653 110.3718 "/>
<path d="M172.0653 110.3718 L186.0086 110.3718 "/>
<path d="M186.0086 101.6572 L172.0653 101.6572 "/>
<path d="M186.0086 110.3718 L186.0086 101.6572 "/>
<path d="M118.0350 98.8685 L97.1201 98.8685 "/>
<path d="M107.5846 110.3757 L107.5846 104.0893 "/>
<path d="M107.5846 110.3757 L112.8085 118.3974 "/>
<path d="M107.5846 110.3757 L102.0066 118.3974 "/>
<path d="M102.0066 110.3757 L113.1627 110.3757 "/>
<path d="M112.8085 118.3974 L102.0066 118.3974 "/>
<path d="M107.5846 118.3974 L107.5846 125.3566 "/>
<path d="M118.0350 130.9381 L118.0350 98.8685 "/>
<path d="M97.1201 130.9381 L97.1201 98.8685 "/>
<path d="M97.1201 130.9381 L118.0350 130.9381 "/>
<path d="M160.3878 94.1627 L169.1023 94.1627 "/>
<path d="M169.1023 94.1627 L169.1023 80.2194 "/>
<path d="M160.3878 80.2194 L160.3878 94.1627 "/>
<path d="M169.1023 80.2194 L160.3878 80.2194 "/>
<path d="M139.8423 94.8877 L154.4828 94.8877 "/>
<path d="M150.9970 94.8877 L154.4828 91.4019 "/>
<path d="M154.4828 94.8877 L154.4828 86.5218 "/>
<path d="M139.8423 86.5218 L139.8423 94.8877 "/>
<path d="M154.4828 86.5218 L139.8423 86.5218 "/>
<path d="M205.3549 107.1474 L196.6403 107.1474 "/>
<path d="M196.6403 107.1474 L196.6403 121.0907 "/>
<path d="M205.3549 121.0907 L205.3549 107.1474 "/>
<path d="M196.6403 121.0907 L205.3549 121.0907 "/>
<path d="M125.0973 95.0341 L133.8118 95.0341 "/>
<path d="M133.8118 95.0341 L133.8118 81.0908 "/>
<path d="M125.0973 81.0908 L125.0973 95.0341 "/>
<path d="M133.8118 81.0908 L125.0973 81.0908 "/>
<circle cx="111.4119" cy="149.0644" r="6.9716"/> 
<path d="M179.9084 93.9012 L188.6229 93.9012 "/>
<path d="M188.6229 93.9012 L188.6229 79.9579 "/>
<path d="M179.9084 79.9579 L179.9084 93.9012 "/>
<path d="M188.6229 79.9579 L179.9084 79.9579 "/>
<circle cx="181.1284" cy="51.4613" r="6.9716"/> 
<path d="M138.4480 103.2119 L138.4480 117.1552 "/>
<path d="M138.4480 117.1552 L155.8771 117.1552 "/>
<path d="M155.8771 103.2119 L138.4480 103.2119 "/>
<path d="M155.8771 117.1552 L155.8771 103.2119 "/>
<g>
</g>
<g>
</g>
<g>
</g>
<g>
</g>
<g>
</g>
<g>
</g>
<g>
</g>
<g>
</g>
<g>
</g>
<g>
</g>
<g>
</g>
<g>
</g>
<g>
</g>
<g>
</g>
<g>
</g>
<g>
</g>
<g>
</g>
<g>
</g>
<g>
</g>
<g>
</g>
<g>
</g>
<g>
</g>
<g>
</g>
<g>
</g>
<g>
</g>
<g>
</g>
</g> 
<svg:g><svg:g><svg:title>SVG Image created as STEPBUBODC01-Edge_Cuts.svg date 2023/09/20 21:01:25 </svg:title>
  <svg:desc>Image generated by PCBNEW </svg:desc>
<svg:g style="fill:#C2C200; fill-opacity:1.0000;stroke:#C2C200; stroke-opacity:1.0000; stroke-linecap:round; stroke-linejoin:round;" transform="translate(0 0) scale(1 1)">
</svg:g>
<svg:g style="fill:#C2C200; fill-opacity:0.0;  stroke:#C2C200; stroke-width:0.0000; stroke-opacity:1;  stroke-linecap:round; stroke-linejoin:round;">
</svg:g>
<svg:g style="fill:#C2C200; fill-opacity:0.0;  stroke:#C2C200; stroke-width:1.0457; stroke-opacity:1;  stroke-linecap:round; stroke-linejoin:round;">
<svg:path style="fill:#C2C200; fill-opacity:0.0;  stroke:#C2C200; stroke-width:1.0457; stroke-opacity:1;  stroke-linecap:round; stroke-linejoin:round;fill:none" d="M 44.0240,0.5265 252.9782,0.5265 252.9782,209.4807 44.0240,209.4807 Z"/> 
<svg:g>
</svg:g>
<svg:g>
</svg:g>
<svg:g>
</svg:g>
<svg:g>
</svg:g>
<svg:g>
</svg:g>
<svg:g>
</svg:g>
<svg:g>
</svg:g>
<svg:g>
</svg:g>
<svg:g>
</svg:g>
<svg:g>
</svg:g>
<svg:g>
</svg:g>
<svg:g>
</svg:g>
<svg:g>
</svg:g>
<svg:g>
</svg:g>
<svg:g>
</svg:g>
<svg:g>
</svg:g>
<svg:g>
</svg:g>
<svg:g>
</svg:g>
<svg:g>
</svg:g>
<svg:g>
</svg:g>
<svg:g>
</svg:g>
<svg:g>
</svg:g>
<svg:g>
</svg:g>
<svg:g>
</svg:g>
<svg:g>
</svg:g>
<svg:g>
</svg:g>
</svg:g> 
</svg:g></svg:g></svg>
