<?xml version='1.0' encoding='ASCII' standalone='yes'?>
<svg xmlns:svg="http://www.w3.org/2000/svg" xmlns="http://www.w3.org/2000/svg" xmlns:xlink="http://www.w3.org/1999/xlink" version="1.1" width="297.0022mm" height="210.0072mm" viewBox="0.0000 0.0000 297.0022 210.0072">
<title>SVG Image created as STEPBUBODC01-B_Fab.svg date 2023/07/05 13:08:54 </title>
  <desc>Image generated by PCBNEW </desc>
<g style="fill:#000084; fill-opacity:1.0000;stroke:#000084; stroke-opacity:1.0000; stroke-linecap:round; stroke-linejoin:round;" transform="translate(0 0) scale(1 1)">
</g>
<g style="fill:#000084; fill-opacity:0.0;  stroke:#000084; stroke-width:0.0000; stroke-opacity:1;  stroke-linecap:round; stroke-linejoin:round;">
</g>
<g style="fill:#000084; fill-opacity:0.01;  stroke:#000084; stroke-width:0.7620; stroke-opacity:1;  stroke-linecap:round; stroke-linejoin:round;">
<text x="171.5391" y="53.1416" transform="scale(-1 1) translate(-343.078156 0)" textLength="8.0229" font-size="4.6548" lengthAdjust="spacingAndGlyphs" text-anchor="middle" opacity="0.01" style="font-family:monospace">R2</text>
<g class="stroked-text"><desc>R2</desc>
<path d="M172.1209 52.9714 L173.2846 51.3090 "/>
<path d="M174.1159 52.9714 L174.1159 49.4803 "/>
<path d="M174.1159 49.4803 L172.7859 49.4803 "/>
<path d="M172.7859 49.4803 L172.4534 49.6465 "/>
<path d="M172.4534 49.6465 L172.2872 49.8128 "/>
<path d="M172.2872 49.8128 L172.1209 50.1453 "/>
<path d="M172.1209 50.1453 L172.1209 50.6440 "/>
<path d="M172.1209 50.6440 L172.2872 50.9765 "/>
<path d="M172.2872 50.9765 L172.4534 51.1427 "/>
<path d="M172.4534 51.1427 L172.7859 51.3090 "/>
<path d="M172.7859 51.3090 L174.1159 51.3090 "/>
<path d="M170.7910 49.8128 L170.6247 49.6465 "/>
<path d="M170.6247 49.6465 L170.2922 49.4803 "/>
<path d="M170.2922 49.4803 L169.4610 49.4803 "/>
<path d="M169.4610 49.4803 L169.1285 49.6465 "/>
<path d="M169.1285 49.6465 L168.9623 49.8128 "/>
<path d="M168.9623 49.8128 L168.7960 50.1453 "/>
<path d="M168.7960 50.1453 L168.7960 50.4778 "/>
<path d="M168.7960 50.4778 L168.9623 50.9765 "/>
<path d="M168.9623 50.9765 L170.9572 52.9714 "/>
<path d="M170.9572 52.9714 L168.7960 52.9714 "/>
</g><text x="170.6530" y="58.0150" transform="scale(-1 1) translate(-341.306004 0)" textLength="14.0077" font-size="4.6548" lengthAdjust="spacingAndGlyphs" text-anchor="middle" opacity="0.01" style="font-family:monospace">511k</text>
<g class="stroked-text"><desc>511k</desc>
<path d="M174.5597 54.3537 L176.2222 54.3537 "/>
<path d="M176.2222 54.3537 L176.3884 56.0162 "/>
<path d="M176.3884 56.0162 L176.2222 55.8499 "/>
<path d="M176.2222 55.8499 L175.8897 55.6837 "/>
<path d="M175.8897 55.6837 L175.0585 55.6837 "/>
<path d="M175.0585 55.6837 L174.7260 55.8499 "/>
<path d="M174.7260 55.8499 L174.5597 56.0162 "/>
<path d="M174.5597 56.0162 L174.3935 56.3487 "/>
<path d="M174.3935 56.3487 L174.3935 57.1799 "/>
<path d="M174.3935 57.1799 L174.5597 57.5124 "/>
<path d="M174.5597 57.5124 L174.7260 57.6786 "/>
<path d="M174.7260 57.6786 L175.0585 57.8449 "/>
<path d="M175.0585 57.8449 L175.8897 57.8449 "/>
<path d="M175.8897 57.8449 L176.2222 57.6786 "/>
<path d="M176.2222 57.6786 L176.3884 57.5124 "/>
<path d="M171.0686 57.8449 L173.0635 57.8449 "/>
<path d="M172.0661 57.8449 L172.0661 54.3537 "/>
<path d="M172.0661 54.3537 L172.3986 54.8525 "/>
<path d="M172.3986 54.8525 L172.7311 55.1849 "/>
<path d="M172.7311 55.1849 L173.0635 55.3512 "/>
<path d="M167.7437 57.8449 L169.7387 57.8449 "/>
<path d="M168.7412 57.8449 L168.7412 54.3537 "/>
<path d="M168.7412 54.3537 L169.0737 54.8525 "/>
<path d="M169.0737 54.8525 L169.4062 55.1849 "/>
<path d="M169.4062 55.1849 L169.7387 55.3512 "/>
<path d="M166.2475 57.8449 L166.2475 54.3537 "/>
<path d="M165.9150 56.5149 L164.9176 57.8449 "/>
<path d="M164.9176 55.5174 L166.2475 56.8474 "/>
</g><g transform="rotate(-90.000000 180.8429 85.5099)">
<text x="180.8429" y="87.2555" transform="scale(-1 1) translate(-361.685751 0)" textLength="8.0229" font-size="4.6548" lengthAdjust="spacingAndGlyphs" text-anchor="middle" opacity="0.01" style="font-family:monospace">C3</text>
</g>
<g class="stroked-text"><desc>C3</desc>
<path d="M182.0858 84.9281 L182.2521 84.7618 "/>
<path d="M182.2521 84.7618 L182.4183 84.2631 "/>
<path d="M182.4183 84.2631 L182.4183 83.9306 "/>
<path d="M182.4183 83.9306 L182.2521 83.4319 "/>
<path d="M182.2521 83.4319 L181.9196 83.0994 "/>
<path d="M181.9196 83.0994 L181.5871 82.9331 "/>
<path d="M181.5871 82.9331 L180.9221 82.7669 "/>
<path d="M180.9221 82.7669 L180.4234 82.7669 "/>
<path d="M180.4234 82.7669 L179.7584 82.9331 "/>
<path d="M179.7584 82.9331 L179.4259 83.0994 "/>
<path d="M179.4259 83.0994 L179.0934 83.4319 "/>
<path d="M179.0934 83.4319 L178.9272 83.9306 "/>
<path d="M178.9272 83.9306 L178.9272 84.2631 "/>
<path d="M178.9272 84.2631 L179.0934 84.7618 "/>
<path d="M179.0934 84.7618 L179.2597 84.9281 "/>
<path d="M178.9272 86.0918 L178.9272 88.2530 "/>
<path d="M178.9272 88.2530 L180.2571 87.0893 "/>
<path d="M180.2571 87.0893 L180.2571 87.5880 "/>
<path d="M180.2571 87.5880 L180.4234 87.9205 "/>
<path d="M180.4234 87.9205 L180.5896 88.0867 "/>
<path d="M180.5896 88.0867 L180.9221 88.2530 "/>
<path d="M180.9221 88.2530 L181.7533 88.2530 "/>
<path d="M181.7533 88.2530 L182.0858 88.0867 "/>
<path d="M182.0858 88.0867 L182.2521 87.9205 "/>
<path d="M182.2521 87.9205 L182.4183 87.5880 "/>
<path d="M182.4183 87.5880 L182.4183 86.5905 "/>
<path d="M182.4183 86.5905 L182.2521 86.2580 "/>
<path d="M182.2521 86.2580 L182.0858 86.0918 "/>
</g><g transform="rotate(-90.000000 175.9695 84.6239)">
<text x="175.9695" y="86.3694" transform="scale(-1 1) translate(-351.938916 0)" textLength="14.0077" font-size="4.6548" lengthAdjust="spacingAndGlyphs" text-anchor="middle" opacity="0.01" style="font-family:monospace">10uF</text>
</g>
<g class="stroked-text"><desc>10uF</desc>
<path d="M177.5449 80.8833 L177.5449 78.8884 "/>
<path d="M177.5449 79.8859 L174.0538 79.8859 "/>
<path d="M174.0538 79.8859 L174.5525 79.5534 "/>
<path d="M174.5525 79.5534 L174.8850 79.2209 "/>
<path d="M174.8850 79.2209 L175.0512 78.8884 "/>
<path d="M174.0538 83.0445 L174.0538 83.3770 "/>
<path d="M174.0538 83.3770 L174.2200 83.7095 "/>
<path d="M174.2200 83.7095 L174.3862 83.8757 "/>
<path d="M174.3862 83.8757 L174.7187 84.0420 "/>
<path d="M174.7187 84.0420 L175.3837 84.2082 "/>
<path d="M175.3837 84.2082 L176.2149 84.2082 "/>
<path d="M176.2149 84.2082 L176.8799 84.0420 "/>
<path d="M176.8799 84.0420 L177.2124 83.8757 "/>
<path d="M177.2124 83.8757 L177.3787 83.7095 "/>
<path d="M177.3787 83.7095 L177.5449 83.3770 "/>
<path d="M177.5449 83.3770 L177.5449 83.0445 "/>
<path d="M177.5449 83.0445 L177.3787 82.7120 "/>
<path d="M177.3787 82.7120 L177.2124 82.5458 "/>
<path d="M177.2124 82.5458 L176.8799 82.3795 "/>
<path d="M176.8799 82.3795 L176.2149 82.2133 "/>
<path d="M176.2149 82.2133 L175.3837 82.2133 "/>
<path d="M175.3837 82.2133 L174.7187 82.3795 "/>
<path d="M174.7187 82.3795 L174.3862 82.5458 "/>
<path d="M174.3862 82.5458 L174.2200 82.7120 "/>
<path d="M174.2200 82.7120 L174.0538 83.0445 "/>
<path d="M175.2175 87.2006 L177.5449 87.2006 "/>
<path d="M175.2175 85.7044 L177.0462 85.7044 "/>
<path d="M177.0462 85.7044 L177.3787 85.8707 "/>
<path d="M177.3787 85.8707 L177.5449 86.2032 "/>
<path d="M177.5449 86.2032 L177.5449 86.7019 "/>
<path d="M177.5449 86.7019 L177.3787 87.0344 "/>
<path d="M177.3787 87.0344 L177.2124 87.2006 "/>
<path d="M175.7162 90.0268 L175.7162 88.8631 "/>
<path d="M177.5449 88.8631 L174.0538 88.8631 "/>
<path d="M174.0538 88.8631 L174.0538 90.5255 "/>
</g><g transform="rotate(-90.000000 166.6657 85.5099)">
<text x="166.6657" y="87.2555" transform="scale(-1 1) translate(-333.331321 0)" textLength="8.0229" font-size="4.6548" lengthAdjust="spacingAndGlyphs" text-anchor="middle" opacity="0.01" style="font-family:monospace">C2</text>
</g>
<g class="stroked-text"><desc>C2</desc>
<path d="M167.9086 84.9281 L168.0749 84.7618 "/>
<path d="M168.0749 84.7618 L168.2411 84.2631 "/>
<path d="M168.2411 84.2631 L168.2411 83.9306 "/>
<path d="M168.2411 83.9306 L168.0749 83.4319 "/>
<path d="M168.0749 83.4319 L167.7424 83.0994 "/>
<path d="M167.7424 83.0994 L167.4099 82.9331 "/>
<path d="M167.4099 82.9331 L166.7449 82.7669 "/>
<path d="M166.7449 82.7669 L166.2462 82.7669 "/>
<path d="M166.2462 82.7669 L165.5812 82.9331 "/>
<path d="M165.5812 82.9331 L165.2487 83.0994 "/>
<path d="M165.2487 83.0994 L164.9162 83.4319 "/>
<path d="M164.9162 83.4319 L164.7500 83.9306 "/>
<path d="M164.7500 83.9306 L164.7500 84.2631 "/>
<path d="M164.7500 84.2631 L164.9162 84.7618 "/>
<path d="M164.9162 84.7618 L165.0824 84.9281 "/>
<path d="M165.0824 86.2580 L164.9162 86.4243 "/>
<path d="M164.9162 86.4243 L164.7500 86.7568 "/>
<path d="M164.7500 86.7568 L164.7500 87.5880 "/>
<path d="M164.7500 87.5880 L164.9162 87.9205 "/>
<path d="M164.9162 87.9205 L165.0824 88.0867 "/>
<path d="M165.0824 88.0867 L165.4149 88.2530 "/>
<path d="M165.4149 88.2530 L165.7474 88.2530 "/>
<path d="M165.7474 88.2530 L166.2462 88.0867 "/>
<path d="M166.2462 88.0867 L168.2411 86.0918 "/>
<path d="M168.2411 86.0918 L168.2411 88.2530 "/>
</g><g transform="rotate(-90.000000 161.7922 84.6239)">
<text x="161.7922" y="86.3694" transform="scale(-1 1) translate(-323.584485 0)" textLength="14.0077" font-size="4.6548" lengthAdjust="spacingAndGlyphs" text-anchor="middle" opacity="0.01" style="font-family:monospace">47uF</text>
</g>
<g class="stroked-text"><desc>47uF</desc>
<path d="M161.0403 80.5509 L163.3677 80.5509 "/>
<path d="M159.7103 79.7196 L162.2040 78.8884 "/>
<path d="M162.2040 78.8884 L162.2040 81.0496 "/>
<path d="M159.8765 82.0471 L159.8765 84.3745 "/>
<path d="M159.8765 84.3745 L163.3677 82.8783 "/>
<path d="M161.0403 87.2006 L163.3677 87.2006 "/>
<path d="M161.0403 85.7044 L162.8689 85.7044 "/>
<path d="M162.8689 85.7044 L163.2014 85.8707 "/>
<path d="M163.2014 85.8707 L163.3677 86.2032 "/>
<path d="M163.3677 86.2032 L163.3677 86.7019 "/>
<path d="M163.3677 86.7019 L163.2014 87.0344 "/>
<path d="M163.2014 87.0344 L163.0352 87.2006 "/>
<path d="M161.5390 90.0268 L161.5390 88.8631 "/>
<path d="M163.3677 88.8631 L159.8765 88.8631 "/>
<path d="M159.8765 88.8631 L159.8765 90.5255 "/>
</g></g>
<g style="fill:#000084; fill-opacity:0.0;  stroke:#000084; stroke-width:1.7722; stroke-opacity:1;  stroke-linecap:round; stroke-linejoin:round;">
<g transform="rotate(-90.000000 146.7290 87.2821)">
<text x="146.7290" y="91.7125" transform="scale(-1 1) translate(-293.457903 0)" textLength="20.3797" font-size="11.8143" lengthAdjust="spacingAndGlyphs" text-anchor="middle" opacity="0.01" style="font-family:monospace">U1</text>
</g>
<g class="stroked-text"><desc>U1</desc>
<path d="M141.8752 80.5310 L149.0482 80.5310 "/>
<path d="M149.0482 80.5310 L149.8921 80.9530 "/>
<path d="M149.8921 80.9530 L150.3140 81.3749 "/>
<path d="M150.3140 81.3749 L150.7360 82.2188 "/>
<path d="M150.7360 82.2188 L150.7360 83.9066 "/>
<path d="M150.7360 83.9066 L150.3140 84.7504 "/>
<path d="M150.3140 84.7504 L149.8921 85.1724 "/>
<path d="M149.8921 85.1724 L149.0482 85.5943 "/>
<path d="M149.0482 85.5943 L141.8752 85.5943 "/>
<path d="M150.7360 94.4551 L150.7360 89.3918 "/>
<path d="M150.7360 91.9234 L141.8752 91.9234 "/>
<path d="M141.8752 91.9234 L143.1410 91.0795 "/>
<path d="M143.1410 91.0795 L143.9849 90.2357 "/>
<path d="M143.9849 90.2357 L144.4068 89.3918 "/>
</g></g>
<g style="fill:#000084; fill-opacity:0.01;  stroke:#000084; stroke-width:0.7620; stroke-opacity:1;  stroke-linecap:round; stroke-linejoin:round;">
<text x="196.3492" y="57.5720" transform="scale(-1 1) translate(-392.698409 0)" textLength="8.0229" font-size="4.6548" lengthAdjust="spacingAndGlyphs" text-anchor="middle" opacity="0.01" style="font-family:monospace">R3</text>
<g class="stroked-text"><desc>R3</desc>
<path d="M196.9311 57.4018 L198.0948 55.7394 "/>
<path d="M198.9260 57.4018 L198.9260 53.9107 "/>
<path d="M198.9260 53.9107 L197.5960 53.9107 "/>
<path d="M197.5960 53.9107 L197.2635 54.0769 "/>
<path d="M197.2635 54.0769 L197.0973 54.2432 "/>
<path d="M197.0973 54.2432 L196.9311 54.5757 "/>
<path d="M196.9311 54.5757 L196.9311 55.0744 "/>
<path d="M196.9311 55.0744 L197.0973 55.4069 "/>
<path d="M197.0973 55.4069 L197.2635 55.5731 "/>
<path d="M197.2635 55.5731 L197.5960 55.7394 "/>
<path d="M197.5960 55.7394 L198.9260 55.7394 "/>
<path d="M195.7673 53.9107 L193.6062 53.9107 "/>
<path d="M193.6062 53.9107 L194.7699 55.2406 "/>
<path d="M194.7699 55.2406 L194.2711 55.2406 "/>
<path d="M194.2711 55.2406 L193.9387 55.4069 "/>
<path d="M193.9387 55.4069 L193.7724 55.5731 "/>
<path d="M193.7724 55.5731 L193.6062 55.9056 "/>
<path d="M193.6062 55.9056 L193.6062 56.7368 "/>
<path d="M193.6062 56.7368 L193.7724 57.0693 "/>
<path d="M193.7724 57.0693 L193.9387 57.2356 "/>
<path d="M193.9387 57.2356 L194.2711 57.4018 "/>
<path d="M194.2711 57.4018 L195.2686 57.4018 "/>
<path d="M195.2686 57.4018 L195.6011 57.2356 "/>
<path d="M195.6011 57.2356 L195.7673 57.0693 "/>
</g><text x="197.2353" y="52.6985" transform="scale(-1 1) translate(-394.470561 0)" textLength="14.0077" font-size="4.6548" lengthAdjust="spacingAndGlyphs" text-anchor="middle" opacity="0.01" style="font-family:monospace">806k</text>
<g class="stroked-text"><desc>806k</desc>
<path d="M202.3057 50.5335 L202.6382 50.3672 "/>
<path d="M202.6382 50.3672 L202.8045 50.2010 "/>
<path d="M202.8045 50.2010 L202.9707 49.8685 "/>
<path d="M202.9707 49.8685 L202.9707 49.7022 "/>
<path d="M202.9707 49.7022 L202.8045 49.3698 "/>
<path d="M202.8045 49.3698 L202.6382 49.2035 "/>
<path d="M202.6382 49.2035 L202.3057 49.0373 "/>
<path d="M202.3057 49.0373 L201.6408 49.0373 "/>
<path d="M201.6408 49.0373 L201.3083 49.2035 "/>
<path d="M201.3083 49.2035 L201.1420 49.3698 "/>
<path d="M201.1420 49.3698 L200.9758 49.7022 "/>
<path d="M200.9758 49.7022 L200.9758 49.8685 "/>
<path d="M200.9758 49.8685 L201.1420 50.2010 "/>
<path d="M201.1420 50.2010 L201.3083 50.3672 "/>
<path d="M201.3083 50.3672 L201.6408 50.5335 "/>
<path d="M201.6408 50.5335 L202.3057 50.5335 "/>
<path d="M202.3057 50.5335 L202.6382 50.6997 "/>
<path d="M202.6382 50.6997 L202.8045 50.8660 "/>
<path d="M202.8045 50.8660 L202.9707 51.1984 "/>
<path d="M202.9707 51.1984 L202.9707 51.8634 "/>
<path d="M202.9707 51.8634 L202.8045 52.1959 "/>
<path d="M202.8045 52.1959 L202.6382 52.3622 "/>
<path d="M202.6382 52.3622 L202.3057 52.5284 "/>
<path d="M202.3057 52.5284 L201.6408 52.5284 "/>
<path d="M201.6408 52.5284 L201.3083 52.3622 "/>
<path d="M201.3083 52.3622 L201.1420 52.1959 "/>
<path d="M201.1420 52.1959 L200.9758 51.8634 "/>
<path d="M200.9758 51.8634 L200.9758 51.1984 "/>
<path d="M200.9758 51.1984 L201.1420 50.8660 "/>
<path d="M201.1420 50.8660 L201.3083 50.6997 "/>
<path d="M201.3083 50.6997 L201.6408 50.5335 "/>
<path d="M198.8146 49.0373 L198.4821 49.0373 "/>
<path d="M198.4821 49.0373 L198.1496 49.2035 "/>
<path d="M198.1496 49.2035 L197.9834 49.3698 "/>
<path d="M197.9834 49.3698 L197.8171 49.7022 "/>
<path d="M197.8171 49.7022 L197.6509 50.3672 "/>
<path d="M197.6509 50.3672 L197.6509 51.1984 "/>
<path d="M197.6509 51.1984 L197.8171 51.8634 "/>
<path d="M197.8171 51.8634 L197.9834 52.1959 "/>
<path d="M197.9834 52.1959 L198.1496 52.3622 "/>
<path d="M198.1496 52.3622 L198.4821 52.5284 "/>
<path d="M198.4821 52.5284 L198.8146 52.5284 "/>
<path d="M198.8146 52.5284 L199.1471 52.3622 "/>
<path d="M199.1471 52.3622 L199.3133 52.1959 "/>
<path d="M199.3133 52.1959 L199.4796 51.8634 "/>
<path d="M199.4796 51.8634 L199.6458 51.1984 "/>
<path d="M199.6458 51.1984 L199.6458 50.3672 "/>
<path d="M199.6458 50.3672 L199.4796 49.7022 "/>
<path d="M199.4796 49.7022 L199.3133 49.3698 "/>
<path d="M199.3133 49.3698 L199.1471 49.2035 "/>
<path d="M199.1471 49.2035 L198.8146 49.0373 "/>
<path d="M194.6585 49.0373 L195.3235 49.0373 "/>
<path d="M195.3235 49.0373 L195.6560 49.2035 "/>
<path d="M195.6560 49.2035 L195.8222 49.3698 "/>
<path d="M195.8222 49.3698 L196.1547 49.8685 "/>
<path d="M196.1547 49.8685 L196.3209 50.5335 "/>
<path d="M196.3209 50.5335 L196.3209 51.8634 "/>
<path d="M196.3209 51.8634 L196.1547 52.1959 "/>
<path d="M196.1547 52.1959 L195.9884 52.3622 "/>
<path d="M195.9884 52.3622 L195.6560 52.5284 "/>
<path d="M195.6560 52.5284 L194.9910 52.5284 "/>
<path d="M194.9910 52.5284 L194.6585 52.3622 "/>
<path d="M194.6585 52.3622 L194.4922 52.1959 "/>
<path d="M194.4922 52.1959 L194.3260 51.8634 "/>
<path d="M194.3260 51.8634 L194.3260 51.0322 "/>
<path d="M194.3260 51.0322 L194.4922 50.6997 "/>
<path d="M194.4922 50.6997 L194.6585 50.5335 "/>
<path d="M194.6585 50.5335 L194.9910 50.3672 "/>
<path d="M194.9910 50.3672 L195.6560 50.3672 "/>
<path d="M195.6560 50.3672 L195.9884 50.5335 "/>
<path d="M195.9884 50.5335 L196.1547 50.6997 "/>
<path d="M196.1547 50.6997 L196.3209 51.0322 "/>
<path d="M192.8298 52.5284 L192.8298 49.0373 "/>
<path d="M192.4973 51.1984 L191.4998 52.5284 "/>
<path d="M191.4998 50.2010 L192.8298 51.5309 "/>
</g><g transform="rotate(-90.000000 131.2226 85.5099)">
<text x="131.2226" y="87.2555" transform="scale(-1 1) translate(-262.445245 0)" textLength="8.0229" font-size="4.6548" lengthAdjust="spacingAndGlyphs" text-anchor="middle" opacity="0.01" style="font-family:monospace">C1</text>
</g>
<g class="stroked-text"><desc>C1</desc>
<path d="M132.4656 84.9281 L132.6318 84.7618 "/>
<path d="M132.6318 84.7618 L132.7981 84.2631 "/>
<path d="M132.7981 84.2631 L132.7981 83.9306 "/>
<path d="M132.7981 83.9306 L132.6318 83.4319 "/>
<path d="M132.6318 83.4319 L132.2993 83.0994 "/>
<path d="M132.2993 83.0994 L131.9668 82.9331 "/>
<path d="M131.9668 82.9331 L131.3019 82.7669 "/>
<path d="M131.3019 82.7669 L130.8031 82.7669 "/>
<path d="M130.8031 82.7669 L130.1381 82.9331 "/>
<path d="M130.1381 82.9331 L129.8057 83.0994 "/>
<path d="M129.8057 83.0994 L129.4732 83.4319 "/>
<path d="M129.4732 83.4319 L129.3069 83.9306 "/>
<path d="M129.3069 83.9306 L129.3069 84.2631 "/>
<path d="M129.3069 84.2631 L129.4732 84.7618 "/>
<path d="M129.4732 84.7618 L129.6394 84.9281 "/>
<path d="M132.7981 88.2530 L132.7981 86.2580 "/>
<path d="M132.7981 87.2555 L129.3069 87.2555 "/>
<path d="M129.3069 87.2555 L129.8057 86.9230 "/>
<path d="M129.8057 86.9230 L130.1381 86.5905 "/>
<path d="M130.1381 86.5905 L130.3044 86.2580 "/>
</g><g transform="rotate(-90.000000 126.3492 84.6239)">
<text x="126.3492" y="86.3694" transform="scale(-1 1) translate(-252.698409 0)" textLength="14.0077" font-size="4.6548" lengthAdjust="spacingAndGlyphs" text-anchor="middle" opacity="0.01" style="font-family:monospace">22uF</text>
</g>
<g class="stroked-text"><desc>22uF</desc>
<path d="M124.7660 78.8884 L124.5997 79.0547 "/>
<path d="M124.5997 79.0547 L124.4335 79.3871 "/>
<path d="M124.4335 79.3871 L124.4335 80.2184 "/>
<path d="M124.4335 80.2184 L124.5997 80.5509 "/>
<path d="M124.5997 80.5509 L124.7660 80.7171 "/>
<path d="M124.7660 80.7171 L125.0985 80.8833 "/>
<path d="M125.0985 80.8833 L125.4310 80.8833 "/>
<path d="M125.4310 80.8833 L125.9297 80.7171 "/>
<path d="M125.9297 80.7171 L127.9246 78.7222 "/>
<path d="M127.9246 78.7222 L127.9246 80.8833 "/>
<path d="M124.7660 82.2133 L124.5997 82.3795 "/>
<path d="M124.5997 82.3795 L124.4335 82.7120 "/>
<path d="M124.4335 82.7120 L124.4335 83.5433 "/>
<path d="M124.4335 83.5433 L124.5997 83.8757 "/>
<path d="M124.5997 83.8757 L124.7660 84.0420 "/>
<path d="M124.7660 84.0420 L125.0985 84.2082 "/>
<path d="M125.0985 84.2082 L125.4310 84.2082 "/>
<path d="M125.4310 84.2082 L125.9297 84.0420 "/>
<path d="M125.9297 84.0420 L127.9246 82.0471 "/>
<path d="M127.9246 82.0471 L127.9246 84.2082 "/>
<path d="M125.5972 87.2006 L127.9246 87.2006 "/>
<path d="M125.5972 85.7044 L127.4259 85.7044 "/>
<path d="M127.4259 85.7044 L127.7584 85.8707 "/>
<path d="M127.7584 85.8707 L127.9246 86.2032 "/>
<path d="M127.9246 86.2032 L127.9246 86.7019 "/>
<path d="M127.9246 86.7019 L127.7584 87.0344 "/>
<path d="M127.7584 87.0344 L127.5922 87.2006 "/>
<path d="M126.0959 90.0268 L126.0959 88.8631 "/>
<path d="M127.9246 88.8631 L124.4335 88.8631 "/>
<path d="M124.4335 88.8631 L124.4335 90.5255 "/>
</g><g transform="rotate(-90.000000 154.2606 57.1555)">
<text x="154.2606" y="58.9011" transform="scale(-1 1) translate(-308.521194 0)" textLength="8.0229" font-size="4.6548" lengthAdjust="spacingAndGlyphs" text-anchor="middle" opacity="0.01" style="font-family:monospace">R1</text>
</g>
<g class="stroked-text"><desc>R1</desc>
<path d="M155.8360 56.5736 L154.1736 55.4099 "/>
<path d="M155.8360 54.5787 L152.3449 54.5787 "/>
<path d="M152.3449 54.5787 L152.3449 55.9087 "/>
<path d="M152.3449 55.9087 L152.5111 56.2412 "/>
<path d="M152.5111 56.2412 L152.6774 56.4074 "/>
<path d="M152.6774 56.4074 L153.0099 56.5736 "/>
<path d="M153.0099 56.5736 L153.5086 56.5736 "/>
<path d="M153.5086 56.5736 L153.8411 56.4074 "/>
<path d="M153.8411 56.4074 L154.0073 56.2412 "/>
<path d="M154.0073 56.2412 L154.1736 55.9087 "/>
<path d="M154.1736 55.9087 L154.1736 54.5787 "/>
<path d="M155.8360 59.8985 L155.8360 57.9036 "/>
<path d="M155.8360 58.9011 L152.3449 58.9011 "/>
<path d="M152.3449 58.9011 L152.8436 58.5686 "/>
<path d="M152.8436 58.5686 L153.1761 58.2361 "/>
<path d="M153.1761 58.2361 L153.3424 57.9036 "/>
</g><g transform="rotate(-90.000000 149.3872 56.2694)">
<text x="149.3872" y="58.0150" transform="scale(-1 1) translate(-298.774359 0)" textLength="10.6828" font-size="4.6548" lengthAdjust="spacingAndGlyphs" text-anchor="middle" opacity="0.01" style="font-family:monospace">91k</text>
</g>
<g class="stroked-text"><desc>91k</desc>
<path d="M150.9626 52.5289 L150.9626 53.1939 "/>
<path d="M150.9626 53.1939 L150.7964 53.5264 "/>
<path d="M150.7964 53.5264 L150.6301 53.6926 "/>
<path d="M150.6301 53.6926 L150.1314 54.0251 "/>
<path d="M150.1314 54.0251 L149.4664 54.1914 "/>
<path d="M149.4664 54.1914 L148.1365 54.1914 "/>
<path d="M148.1365 54.1914 L147.8040 54.0251 "/>
<path d="M147.8040 54.0251 L147.6377 53.8589 "/>
<path d="M147.6377 53.8589 L147.4715 53.5264 "/>
<path d="M147.4715 53.5264 L147.4715 52.8614 "/>
<path d="M147.4715 52.8614 L147.6377 52.5289 "/>
<path d="M147.6377 52.5289 L147.8040 52.3627 "/>
<path d="M147.8040 52.3627 L148.1365 52.1964 "/>
<path d="M148.1365 52.1964 L148.9677 52.1964 "/>
<path d="M148.9677 52.1964 L149.3002 52.3627 "/>
<path d="M149.3002 52.3627 L149.4664 52.5289 "/>
<path d="M149.4664 52.5289 L149.6327 52.8614 "/>
<path d="M149.6327 52.8614 L149.6327 53.5264 "/>
<path d="M149.6327 53.5264 L149.4664 53.8589 "/>
<path d="M149.4664 53.8589 L149.3002 54.0251 "/>
<path d="M149.3002 54.0251 L148.9677 54.1914 "/>
<path d="M150.9626 57.5163 L150.9626 55.5213 "/>
<path d="M150.9626 56.5188 L147.4715 56.5188 "/>
<path d="M147.4715 56.5188 L147.9702 56.1863 "/>
<path d="M147.9702 56.1863 L148.3027 55.8538 "/>
<path d="M148.3027 55.8538 L148.4689 55.5213 "/>
<path d="M150.9626 59.0125 L147.4715 59.0125 "/>
<path d="M149.6327 59.3449 L150.9626 60.3424 "/>
<path d="M148.6352 60.3424 L149.9651 59.0125 "/>
</g></g>
<g style="fill:#000084; fill-opacity:0.01;  stroke:#000084; stroke-width:0.6279; stroke-opacity:1;  stroke-linecap:round; stroke-linejoin:round;">
<text x="146.7290" y="108.9386" transform="scale(-1 1) translate(-293.457903 0)" textLength="8.3262" font-size="5.7676" lengthAdjust="spacingAndGlyphs" text-anchor="middle" opacity="0.01" style="font-family:monospace">L1</text>
<g class="stroked-text"><desc>L1</desc>
<path d="M147.4499 108.7443 L149.5098 108.7443 "/>
<path d="M149.5098 108.7443 L149.5098 104.4185 "/>
<path d="M143.7421 108.7443 L146.2140 108.7443 "/>
<path d="M144.9781 108.7443 L144.9781 104.4185 "/>
<path d="M144.9781 104.4185 L145.3900 105.0365 "/>
<path d="M145.3900 105.0365 L145.8020 105.4485 "/>
<path d="M145.8020 105.4485 L146.2140 105.6545 "/>
</g></g>
<g style="fill:#000084; fill-opacity:0.0;  stroke:#000084; stroke-width:1.0465; stroke-opacity:1;  stroke-linecap:round; stroke-linejoin:round;">
<path d="M175.0834 58.9277 L182.1720 58.9277 "/>
<path d="M182.1720 48.2947 L175.0834 48.2947 "/>
<path d="M182.1720 58.9277 L182.1720 48.2947 "/>
<path d="M160.9062 58.9277 L167.9948 58.9277 "/>
<path d="M160.9062 48.2947 L160.9062 58.9277 "/>
<path d="M167.9948 48.2947 L160.9062 48.2947 "/>
<path d="M183.9441 96.1428 L183.9441 89.0542 "/>
<path d="M173.3112 74.8770 L173.3112 81.9656 "/>
<path d="M183.9441 74.8770 L173.3112 74.8770 "/>
<path d="M173.3112 89.0542 L173.3112 96.1428 "/>
<path d="M183.9441 81.9656 L183.9441 74.8770 "/>
<path d="M173.3112 96.1428 L183.9441 96.1428 "/>
<path d="M159.1340 74.8770 L159.1340 81.9656 "/>
<path d="M169.7669 74.8770 L159.1340 74.8770 "/>
<path d="M169.7669 81.9656 L169.7669 74.8770 "/>
<path d="M169.7669 96.1428 L169.7669 89.0542 "/>
<path d="M159.1340 96.1428 L169.7669 96.1428 "/>
<path d="M159.1340 89.0542 L159.1340 96.1428 "/>
</g>
<g style="fill:#000084; fill-opacity:0.0;  stroke:#000084; stroke-width:0.6977; stroke-opacity:1;  stroke-linecap:round; stroke-linejoin:round;">
<path d="M139.4031 83.0959 L139.4031 91.4683 "/>
<path d="M154.0548 91.4683 L154.0548 83.0959 "/>
<path d="M154.0548 83.0959 L139.4031 83.0959 "/>
<path d="M150.5663 91.4683 L154.0548 87.9798 "/>
<path d="M139.4031 91.4683 L154.0548 91.4683 "/>
</g>
<g style="fill:#000084; fill-opacity:0.0;  stroke:#000084; stroke-width:1.0465; stroke-opacity:1;  stroke-linecap:round; stroke-linejoin:round;">
<path d="M185.7163 48.2947 L185.7163 58.9277 "/>
<path d="M199.8935 58.9277 L206.9821 58.9277 "/>
<path d="M192.8049 48.2947 L185.7163 48.2947 "/>
<path d="M206.9821 48.2947 L199.8935 48.2947 "/>
<path d="M185.7163 58.9277 L192.8049 58.9277 "/>
<path d="M206.9821 58.9277 L206.9821 48.2947 "/>
<path d="M134.3239 74.8770 L123.6910 74.8770 "/>
<path d="M123.6910 74.8770 L123.6910 81.9656 "/>
<path d="M123.6910 96.1428 L134.3239 96.1428 "/>
<path d="M134.3239 81.9656 L134.3239 74.8770 "/>
<path d="M123.6910 89.0542 L123.6910 96.1428 "/>
<path d="M134.3239 96.1428 L134.3239 89.0542 "/>
<path d="M146.7290 67.7884 L157.3619 67.7884 "/>
<path d="M157.3619 67.7884 L157.3619 60.6998 "/>
<path d="M157.3619 53.6112 L157.3619 46.5226 "/>
<path d="M146.7290 60.6998 L146.7290 67.7884 "/>
<path d="M146.7290 46.5226 L146.7290 53.6112 "/>
<path d="M157.3619 46.5226 L146.7290 46.5226 "/>
</g>
<g style="fill:#000084; fill-opacity:0.0;  stroke:#000084; stroke-width:0.6977; stroke-opacity:1;  stroke-linecap:round; stroke-linejoin:round;">
<path d="M138.0077 99.7988 L138.0077 113.7527 "/>
<path d="M155.4502 113.7527 L155.4502 99.7988 "/>
<path d="M155.4502 99.7988 L138.0077 99.7988 "/>
<path d="M138.0077 113.7527 L155.4502 113.7527 "/>
<g>
</g>
<g>
</g>
<g>
</g>
<g>
</g>
<g>
</g>
<g>
</g>
<g>
</g>
<g>
</g>
<g>
</g>
<g>
</g>
<g>
</g>
<g>
</g>
<g>
</g>
<g>
</g>
<g>
</g>
<g>
</g>
<g>
</g>
<g>
</g>
<g>
</g>
<g>
</g>
<g>
</g>
</g> 
<svg:g><svg:g><svg:title>SVG Image created as STEPBUBODC01-Edge_Cuts.svg date 2023/07/05 13:08:54 </svg:title>
  <svg:desc>Image generated by PCBNEW </svg:desc>
<svg:g style="fill:#C2C200; fill-opacity:1.0000;stroke:#C2C200; stroke-opacity:1.0000; stroke-linecap:round; stroke-linejoin:round;" transform="translate(0 0) scale(1 1)">
</svg:g>
<svg:g style="fill:#C2C200; fill-opacity:0.0;  stroke:#C2C200; stroke-width:0.0000; stroke-opacity:1;  stroke-linecap:round; stroke-linejoin:round;">
</svg:g>
<svg:g style="fill:#C2C200; fill-opacity:0.0;  stroke:#C2C200; stroke-width:0.8861; stroke-opacity:1;  stroke-linecap:round; stroke-linejoin:round;">
<svg:path d="M8.5011 0.4466 L8.5011 209.5606 "/>
<svg:path d="M8.5011 209.5606 L288.5011 209.5606 "/>
<svg:path d="M288.5011 0.4466 L8.5011 0.4466 "/>
<svg:path d="M288.5011 209.5606 L288.5011 0.4466 "/>
<svg:g>
</svg:g>
<svg:g>
</svg:g>
<svg:g>
</svg:g>
<svg:g>
</svg:g>
<svg:g>
</svg:g>
<svg:g>
</svg:g>
<svg:g>
</svg:g>
<svg:g>
</svg:g>
<svg:g>
</svg:g>
<svg:g>
</svg:g>
<svg:g>
</svg:g>
<svg:g>
</svg:g>
<svg:g>
</svg:g>
<svg:g>
</svg:g>
<svg:g>
</svg:g>
<svg:g>
</svg:g>
<svg:g>
</svg:g>
<svg:g>
</svg:g>
<svg:g>
</svg:g>
<svg:g>
</svg:g>
<svg:g>
</svg:g>
</svg:g> 
</svg:g></svg:g></svg>
