<?xml version='1.0' encoding='ASCII' standalone='yes'?>
<svg xmlns:svg="http://www.w3.org/2000/svg" xmlns="http://www.w3.org/2000/svg" xmlns:xlink="http://www.w3.org/1999/xlink" version="1.1" width="297.0022mm" height="210.0072mm" viewBox="0.0000 0.0000 297.0022 210.0072">
<title>SVG Image created as STEPBUBODC01-F_Fab.svg date 2023/07/05 14:50:16 </title>
  <desc>Image generated by PCBNEW </desc>
<g style="fill:#848484; fill-opacity:1.0000;stroke:#848484; stroke-opacity:1.0000; stroke-linecap:round; stroke-linejoin:round;" transform="translate(0 0) scale(1 1)">
</g>
<g style="fill:#848484; fill-opacity:0.0;  stroke:#848484; stroke-width:0.0000; stroke-opacity:1;  stroke-linecap:round; stroke-linejoin:round;">
</g>
<g style="fill:#848484; fill-opacity:0.0;  stroke:#848484; stroke-width:1.0465; stroke-opacity:1;  stroke-linecap:round; stroke-linejoin:round;">
<path d="M86.4758 25.2568 L86.4758 42.9783 "/>
<path d="M86.4758 42.9783 L139.6403 42.9783 "/>
<path d="M139.6403 42.9783 L139.6403 25.2568 "/>
<path d="M139.6403 25.2568 L86.4758 25.2568 "/>
<path d="M237.1087 78.4213 L237.1087 131.5859 "/>
<path d="M237.1087 131.5859 L272.5517 131.5859 "/>
<path d="M272.5517 78.4213 L237.1087 78.4213 "/>
<path d="M272.5517 131.5859 L272.5517 78.4213 "/>
</g>
<g style="fill:#848484; fill-opacity:0.0;  stroke:#848484; stroke-width:2.6582; stroke-opacity:1;  stroke-linecap:round; stroke-linejoin:round;">
<circle cx="254.8302" cy="175.8897" r="20.9291"/> 
<circle cx="42.1720" cy="34.1175" r="20.9291"/> 
</g>
<g style="fill:#848484; fill-opacity:0.0;  stroke:#848484; stroke-width:1.0465; stroke-opacity:1;  stroke-linecap:round; stroke-linejoin:round;">
<path d="M210.5264 42.9783 L210.5264 25.2568 "/>
<path d="M210.5264 25.2568 L157.3619 25.2568 "/>
<path d="M157.3619 42.9783 L210.5264 42.9783 "/>
<path d="M157.3619 25.2568 L157.3619 42.9783 "/>
<path d="M157.3619 167.0289 L157.3619 184.7504 "/>
<path d="M210.5264 184.7504 L210.5264 167.0289 "/>
<path d="M157.3619 184.7504 L210.5264 184.7504 "/>
<path d="M210.5264 167.0289 L157.3619 167.0289 "/>
</g>
<g style="fill:#848484; fill-opacity:0.0;  stroke:#848484; stroke-width:2.6582; stroke-opacity:1;  stroke-linecap:round; stroke-linejoin:round;">
<circle cx="42.1720" cy="175.8897" r="20.9291"/> 
</g>
<g style="fill:#848484; fill-opacity:0.0;  stroke:#848484; stroke-width:1.0465; stroke-opacity:1;  stroke-linecap:round; stroke-linejoin:round;">
<path d="M139.6403 193.6112 L139.6403 158.1682 "/>
<path d="M86.4758 158.1682 L86.4758 193.6112 "/>
<path d="M139.6403 158.1682 L86.4758 158.1682 "/>
<path d="M86.4758 193.6112 L139.6403 193.6112 "/>
</g>
<g style="fill:#848484; fill-opacity:0.0;  stroke:#848484; stroke-width:2.6582; stroke-opacity:1;  stroke-linecap:round; stroke-linejoin:round;">
<circle cx="254.8302" cy="34.1175" r="20.9291"/> 
</g>
<g style="fill:#848484; fill-opacity:0.0;  stroke:#848484; stroke-width:1.0465; stroke-opacity:1;  stroke-linecap:round; stroke-linejoin:round;">
<path d="M24.4505 78.4213 L24.4505 131.5859 "/>
<path d="M59.8935 131.5859 L59.8935 78.4213 "/>
<path d="M24.4505 131.5859 L59.8935 131.5859 "/>
<path d="M59.8935 78.4213 L24.4505 78.4213 "/>
<g>
</g>
<g>
</g>
<g>
</g>
<g>
</g>
<g>
</g>
<g>
</g>
<g>
</g>
<g>
</g>
<g>
</g>
<g>
</g>
<g>
</g>
<g>
</g>
<g>
</g>
<g>
</g>
<g>
</g>
<g>
</g>
<g>
</g>
<g>
</g>
<g>
</g>
<g>
</g>
<g>
</g>
</g> 
<svg:g><svg:g><svg:title>SVG Image created as STEPBUBODC01-Edge_Cuts.svg date 2023/07/05 14:50:16 </svg:title>
  <svg:desc>Image generated by PCBNEW </svg:desc>
<svg:g style="fill:#C2C200; fill-opacity:1.0000;stroke:#C2C200; stroke-opacity:1.0000; stroke-linecap:round; stroke-linejoin:round;" transform="translate(0 0) scale(1 1)">
</svg:g>
<svg:g style="fill:#C2C200; fill-opacity:0.0;  stroke:#C2C200; stroke-width:0.0000; stroke-opacity:1;  stroke-linecap:round; stroke-linejoin:round;">
</svg:g>
<svg:g style="fill:#C2C200; fill-opacity:0.0;  stroke:#C2C200; stroke-width:0.8861; stroke-opacity:1;  stroke-linecap:round; stroke-linejoin:round;">
<svg:path d="M288.5011 0.4466 L288.5011 209.5606 "/>
<svg:path d="M288.5011 209.5606 L8.5011 209.5606 "/>
<svg:path d="M8.5011 0.4466 L288.5011 0.4466 "/>
<svg:path d="M8.5011 209.5606 L8.5011 0.4466 "/>
<svg:g>
</svg:g>
<svg:g>
</svg:g>
<svg:g>
</svg:g>
<svg:g>
</svg:g>
<svg:g>
</svg:g>
<svg:g>
</svg:g>
<svg:g>
</svg:g>
<svg:g>
</svg:g>
<svg:g>
</svg:g>
<svg:g>
</svg:g>
<svg:g>
</svg:g>
<svg:g>
</svg:g>
<svg:g>
</svg:g>
<svg:g>
</svg:g>
<svg:g>
</svg:g>
<svg:g>
</svg:g>
<svg:g>
</svg:g>
<svg:g>
</svg:g>
<svg:g>
</svg:g>
<svg:g>
</svg:g>
<svg:g>
</svg:g>
</svg:g> 
</svg:g></svg:g></svg>
