<?xml version='1.0' encoding='ASCII' standalone='yes'?>
<svg xmlns:svg="http://www.w3.org/2000/svg" xmlns="http://www.w3.org/2000/svg" xmlns:xlink="http://www.w3.org/1999/xlink" version="1.1" width="29.700220cm" height="21.000720cm" viewBox="0 0 2970022 2100072">
<title>SVG Picture created as STEPBUBODC01-B_Fab.svg date 2023/07/05 12:11:51 </title>
  <desc>Picture generated by PCBNEW </desc>
<g style="fill:#000084; fill-opacity:1.000000;stroke:#000084; stroke-opacity:1.000000; stroke-linecap:round; stroke-linejoin:round;" transform="translate(0 0) scale(1 1)">
</g>
<g style="fill:#000084; fill-opacity:0.0;  stroke:#000084; stroke-width:0.000000; stroke-opacity:1;  stroke-linecap:round; stroke-linejoin:round;">
</g>
<g style="fill:#000084; fill-opacity:0.01;  stroke:#000084; stroke-width:7620.253165; stroke-opacity:1;  stroke-linecap:round; stroke-linejoin:round;">
<text x="1715390.780425" y="531415.748031" transform="scale(-1 1) translate(-3430781.560849 0)" textLength="68160.241204" font-size="46548.499950" lengthAdjust="spacingAndGlyphs" text-anchor="middle" opacity="0.01" style="font-family:monospace">R2</text>
<g class="stroked-text"><desc>R2</desc>
<path d="M1721209 529753 L1732846 513128 "/>
<path d="M1741158 529753 L1741158 494841 L1727859 494841 L1724534 496504 L1722871 498166 L1721209 501491 L1721209 506478 L1722871 509803 L1724534 511466 L1727859 513128 L1741158 513128 "/>
<path d="M1707909 498166 L1706247 496504 L1702922 494841 L1694610 494841 L1691285 496504 L1689622 498166 L1687960 501491 L1687960 504816 L1689622 509803 L1709572 529753 L1687960 529753 "/>
</g><text x="1706530.020931" y="580149.925247" transform="scale(-1 1) translate(-3413060.041862 0)" textLength="118102.132961" font-size="46548.499950" lengthAdjust="spacingAndGlyphs" text-anchor="middle" opacity="0.01" style="font-family:monospace">511k</text>
<g class="stroked-text"><desc>511k</desc>
<path d="M1745597 543576 L1762221 543576 L1763884 560200 L1762221 558538 L1758897 556875 L1750584 556875 L1747259 558538 L1745597 560200 L1743935 563525 L1743935 571837 L1745597 575162 L1747259 576824 L1750584 578487 L1758897 578487 L1762221 576824 L1763884 575162 "/>
<path d="M1710686 578487 L1730635 578487 "/>
<path d="M1720660 578487 L1720660 543576 L1723985 548563 L1727310 551888 L1730635 553550 "/>
<path d="M1677437 578487 L1697386 578487 "/>
<path d="M1687411 578487 L1687411 543576 L1690736 548563 L1694061 551888 L1697386 553550 "/>
<path d="M1662475 578487 L1662475 543576 "/>
<path d="M1659150 565187 L1649175 578487 "/>
<path d="M1649175 555213 L1662475 568512 "/>
</g><g transform="rotate(-90.000000 1808428.755108 855099.292335)">
<text x="1808428.755108" y="872554.988538" transform="scale(-1 1) translate(-3616857.510216 0)" textLength="58253.981860" font-size="46548.499950" lengthAdjust="spacingAndGlyphs" text-anchor="middle" opacity="0.01" style="font-family:monospace">C3</text>
</g>
<g class="stroked-text"><desc>C3</desc>
<path d="M1820897 849280 L1822559 847618 L1824221 842630 L1824221 839306 L1822559 834318 L1819234 830993 L1815909 829331 L1809259 827668 L1804272 827668 L1797622 829331 L1794297 830993 L1790973 834318 L1789310 839306 L1789310 842630 L1790973 847618 L1792635 849280 "/>
<path d="M1789310 860917 L1789310 882529 L1802610 870892 L1802610 875879 L1804272 879204 L1805935 880867 L1809259 882529 L1817572 882529 L1820897 880867 L1822559 879204 L1824221 875879 L1824221 865905 L1822559 862580 L1820897 860917 "/>
</g><g transform="rotate(-90.000000 1759694.577893 846238.532842)">
<text x="1759694.577893" y="863694.229044" transform="scale(-1 1) translate(-3519389.155786 0)" textLength="118102.132961" font-size="46548.499950" lengthAdjust="spacingAndGlyphs" text-anchor="middle" opacity="0.01" style="font-family:monospace">10uF</text>
</g>
<g class="stroked-text"><desc>10uF</desc>
<path d="M1775487 808833 L1775487 788884 "/>
<path d="M1775487 798858 L1740576 798858 L1745563 795533 L1748888 792208 L1750551 788884 "/>
<path d="M1740576 830445 L1740576 833770 L1742238 837095 L1743901 838757 L1747226 840419 L1753875 842082 L1762188 842082 L1768837 840419 L1772162 838757 L1773825 837095 L1775487 833770 L1775487 830445 L1773825 827120 L1772162 825457 L1768837 823795 L1762188 822133 L1753875 822133 L1747226 823795 L1743901 825457 L1742238 827120 L1740576 830445 "/>
<path d="M1752213 872006 L1775487 872006 "/>
<path d="M1752213 857044 L1770500 857044 L1773825 858706 L1775487 862031 L1775487 867019 L1773825 870343 L1772162 872006 "/>
<path d="M1757200 900268 L1757200 888630 "/>
<path d="M1775487 888630 L1740576 888630 L1740576 905255 "/>
</g><g transform="rotate(-90.000000 1666656.603209 855099.292335)">
<text x="1666656.603209" y="872554.988538" transform="scale(-1 1) translate(-3333313.206419 0)" textLength="58253.981860" font-size="46548.499950" lengthAdjust="spacingAndGlyphs" text-anchor="middle" opacity="0.01" style="font-family:monospace">C2</text>
</g>
<g class="stroked-text"><desc>C2</desc>
<path d="M1679124 849280 L1680787 847618 L1682449 842630 L1682449 839306 L1680787 834318 L1677462 830993 L1674137 829331 L1667487 827668 L1662500 827668 L1655850 829331 L1652525 830993 L1649200 834318 L1647538 839306 L1647538 842630 L1649200 847618 L1650863 849280 "/>
<path d="M1650863 862580 L1649200 864242 L1647538 867567 L1647538 875879 L1649200 879204 L1650863 880867 L1654188 882529 L1657513 882529 L1662500 880867 L1682449 860917 L1682449 882529 "/>
</g><g transform="rotate(-90.000000 1617922.425994 846238.532842)">
<text x="1617922.425994" y="863694.229044" transform="scale(-1 1) translate(-3235844.851988 0)" textLength="118102.132961" font-size="46548.499950" lengthAdjust="spacingAndGlyphs" text-anchor="middle" opacity="0.01" style="font-family:monospace">47uF</text>
</g>
<g class="stroked-text"><desc>47uF</desc>
<path d="M1610441 805508 L1633715 805508 "/>
<path d="M1597141 797196 L1622078 788884 L1622078 810495 "/>
<path d="M1598804 820470 L1598804 843744 L1633715 828782 "/>
<path d="M1610441 872006 L1633715 872006 "/>
<path d="M1610441 857044 L1628728 857044 L1632053 858706 L1633715 862031 L1633715 867019 L1632053 870343 L1630390 872006 "/>
<path d="M1615428 900268 L1615428 888630 "/>
<path d="M1633715 888630 L1598804 888630 L1598804 905255 "/>
</g></g>
<g style="fill:#000084; fill-opacity:0.0;  stroke:#000084; stroke-width:17721.518987; stroke-opacity:1;  stroke-linecap:round; stroke-linejoin:round;">
<g transform="rotate(-90.000000 1467289.514602 872820.811323)">
<text x="1467289.514602" y="917124.608791" transform="scale(-1 1) translate(-2934579.029204 0)" textLength="167308.860759" font-size="118143.436659" lengthAdjust="spacingAndGlyphs" text-anchor="middle" opacity="0.01" style="font-family:monospace">U1</text>
</g>
<g class="stroked-text"><desc>U1</desc>
<path d="M1418766 805310 L1490496 805310 L1498935 809529 L1503154 813749 L1507373 822187 L1507373 839065 L1503154 847504 L1498935 851723 L1490496 855943 L1418766 855943 "/>
<path d="M1507373 944550 L1507373 893917 "/>
<path d="M1507373 919234 L1418766 919234 L1431424 910795 L1439863 902356 L1444082 893917 "/>
</g></g>
<g style="fill:#000084; fill-opacity:0.01;  stroke:#000084; stroke-width:7620.253165; stroke-opacity:1;  stroke-linecap:round; stroke-linejoin:round;">
<text x="1963492.046247" y="575719.545500" transform="scale(-1 1) translate(-3926984.092495 0)" textLength="45122.336290" font-size="46548.499950" lengthAdjust="spacingAndGlyphs" text-anchor="middle" opacity="0.01" style="font-family:monospace">R3</text>
<g class="stroked-text"><desc>R3</desc>
<path d="M1969310 574057 L1980947 557432 "/>
<path d="M1989259 574057 L1989259 539145 L1975960 539145 L1972635 540808 L1970973 542470 L1969310 545795 L1969310 550782 L1970973 554107 L1972635 555770 L1975960 557432 L1989259 557432 "/>
<path d="M1957673 539145 L1936061 539145 L1947698 552445 L1942711 552445 L1939386 554107 L1937724 555770 L1936061 559095 L1936061 567407 L1937724 570732 L1939386 572394 L1942711 574057 L1952686 574057 L1956010 572394 L1957673 570732 "/>
</g><text x="1972352.805741" y="526985.368285" transform="scale(-1 1) translate(-3944705.611482 0)" textLength="118102.132961" font-size="46548.499950" lengthAdjust="spacingAndGlyphs" text-anchor="middle" opacity="0.01" style="font-family:monospace">806k</text>
<g class="stroked-text"><desc>806k</desc>
<path d="M2023057 505373 L2026382 503711 L2028044 502048 L2029707 498723 L2029707 497061 L2028044 493736 L2026382 492073 L2023057 490411 L2016407 490411 L2013082 492073 L2011420 493736 L2009757 497061 L2009757 498723 L2011420 502048 L2013082 503711 L2016407 505373 L2023057 505373 L2026382 507035 L2028044 508698 L2029707 512023 L2029707 518673 L2028044 521998 L2026382 523660 L2023057 525322 L2016407 525322 L2013082 523660 L2011420 521998 L2009757 518673 L2009757 512023 L2011420 508698 L2013082 507035 L2016407 505373 "/>
<path d="M1988146 490411 L1984821 490411 L1981496 492073 L1979833 493736 L1978171 497061 L1976508 503711 L1976508 512023 L1978171 518673 L1979833 521998 L1981496 523660 L1984821 525322 L1988146 525322 L1991470 523660 L1993133 521998 L1994795 518673 L1996458 512023 L1996458 503711 L1994795 497061 L1993133 493736 L1991470 492073 L1988146 490411 "/>
<path d="M1946584 490411 L1953234 490411 L1956559 492073 L1958221 493736 L1961546 498723 L1963209 505373 L1963209 518673 L1961546 521998 L1959884 523660 L1956559 525322 L1949909 525322 L1946584 523660 L1944922 521998 L1943259 518673 L1943259 510360 L1944922 507035 L1946584 505373 L1949909 503711 L1956559 503711 L1959884 505373 L1961546 507035 L1963209 510360 "/>
<path d="M1928297 525322 L1928297 490411 "/>
<path d="M1924972 512023 L1914998 525322 "/>
<path d="M1914998 502048 L1928297 515348 "/>
</g><g transform="rotate(-90.000000 1312226.223463 855099.292335)">
<text x="1312226.223463" y="872554.988538" transform="scale(-1 1) translate(-2624452.446925 0)" textLength="58253.981860" font-size="46548.499950" lengthAdjust="spacingAndGlyphs" text-anchor="middle" opacity="0.01" style="font-family:monospace">C1</text>
</g>
<g class="stroked-text"><desc>C1</desc>
<path d="M1324694 849280 L1326356 847618 L1328019 842630 L1328019 839306 L1326356 834318 L1323032 830993 L1319707 829331 L1313057 827668 L1308070 827668 L1301420 829331 L1298095 830993 L1294770 834318 L1293108 839306 L1293108 842630 L1294770 847618 L1296432 849280 "/>
<path d="M1328019 882529 L1328019 862580 "/>
<path d="M1328019 872554 L1293108 872554 L1298095 869230 L1301420 865905 L1303082 862580 "/>
</g><g transform="rotate(-90.000000 1263492.046247 846238.532842)">
<text x="1263492.046247" y="863694.229044" transform="scale(-1 1) translate(-2526984.092495 0)" textLength="118102.132961" font-size="46548.499950" lengthAdjust="spacingAndGlyphs" text-anchor="middle" opacity="0.01" style="font-family:monospace">22uF</text>
</g>
<g class="stroked-text"><desc>22uF</desc>
<path d="M1247698 788884 L1246036 790546 L1244373 793871 L1244373 802183 L1246036 805508 L1247698 807170 L1251023 808833 L1254348 808833 L1259335 807170 L1279285 787221 L1279285 808833 "/>
<path d="M1247698 822133 L1246036 823795 L1244373 827120 L1244373 835432 L1246036 838757 L1247698 840419 L1251023 842082 L1254348 842082 L1259335 840419 L1279285 820470 L1279285 842082 "/>
<path d="M1256010 872006 L1279285 872006 "/>
<path d="M1256010 857044 L1274297 857044 L1277622 858706 L1279285 862031 L1279285 867019 L1277622 870343 L1275960 872006 "/>
<path d="M1260998 900268 L1260998 888630 "/>
<path d="M1279285 888630 L1244373 888630 L1244373 905255 "/>
</g><g transform="rotate(-90.000000 1542605.970298 571554.988538)">
<text x="1542605.970298" y="589010.684740" transform="scale(-1 1) translate(-3085211.940596 0)" textLength="58253.981860" font-size="46548.499950" lengthAdjust="spacingAndGlyphs" text-anchor="middle" opacity="0.01" style="font-family:monospace">R1</text>
</g>
<g class="stroked-text"><desc>R1</desc>
<path d="M1558399 565736 L1541774 554099 "/>
<path d="M1558399 545786 L1523487 545786 L1523487 559086 L1525150 562411 L1526812 564073 L1530137 565736 L1535124 565736 L1538449 564073 L1540112 562411 L1541774 559086 L1541774 545786 "/>
<path d="M1558399 598985 L1558399 579035 "/>
<path d="M1558399 589010 L1523487 589010 L1528475 585685 L1531800 582360 L1533462 579035 "/>
</g><g transform="rotate(-90.000000 1493871.793083 562694.229044)">
<text x="1493871.793083" y="580149.925247" transform="scale(-1 1) translate(-2987743.586166 0)" textLength="84853.144623" font-size="46548.499950" lengthAdjust="spacingAndGlyphs" text-anchor="middle" opacity="0.01" style="font-family:monospace">91k</text>
</g>
<g class="stroked-text"><desc>91k</desc>
<path d="M1509665 525289 L1509665 531938 L1508002 535263 L1506340 536926 L1501352 540251 L1494702 541913 L1481403 541913 L1478078 540251 L1476416 538588 L1474753 535263 L1474753 528614 L1476416 525289 L1478078 523626 L1481403 521964 L1489715 521964 L1493040 523626 L1494702 525289 L1496365 528614 L1496365 535263 L1494702 538588 L1493040 540251 L1489715 541913 "/>
<path d="M1509665 575162 L1509665 555213 "/>
<path d="M1509665 565187 L1474753 565187 L1479740 561862 L1483065 558538 L1484728 555213 "/>
<path d="M1509665 590124 L1474753 590124 "/>
<path d="M1496365 593449 L1509665 603424 "/>
<path d="M1486390 603424 L1499690 590124 "/>
</g></g>
<g style="fill:#000084; fill-opacity:0.01;  stroke:#000084; stroke-width:6279.278381; stroke-opacity:1;  stroke-linecap:round; stroke-linejoin:round;">
<text x="1467289.514602" y="1089386.145719" transform="scale(-1 1) translate(-2934579.029204 0)" textLength="66308.830858" font-size="57676.288249" lengthAdjust="spacingAndGlyphs" text-anchor="middle" opacity="0.01" style="font-family:monospace">L1</text>
<g class="stroked-text"><desc>L1</desc>
<path d="M1474499 1087326 L1495097 1087326 L1495097 1044069 "/>
<path d="M1437421 1087326 L1462139 1087326 "/>
<path d="M1449780 1087326 L1449780 1044069 L1453900 1050248 L1458020 1054368 L1462139 1056428 "/>
</g></g>
<g style="fill:#000084; fill-opacity:0.0;  stroke:#000084; stroke-width:10465.463969; stroke-opacity:1;  stroke-linecap:round; stroke-linejoin:round;">
<path d="M1750833 589276 L1821719 589276 "/>
<path d="M1821719 482947 L1750833 482947 "/>
<path d="M1821719 589276 L1821719 482947 "/>
<path d="M1609061 589276 L1679947 589276 "/>
<path d="M1609061 482947 L1609061 589276 "/>
<path d="M1679947 482947 L1609061 482947 "/>
<path d="M1839441 961428 L1839441 890542 "/>
<path d="M1733112 748770 L1733112 819656 "/>
<path d="M1839441 748770 L1733112 748770 "/>
<path d="M1733112 890542 L1733112 961428 "/>
<path d="M1839441 819656 L1839441 748770 "/>
<path d="M1733112 961428 L1839441 961428 "/>
<path d="M1591340 748770 L1591340 819656 "/>
<path d="M1697669 748770 L1591340 748770 "/>
<path d="M1697669 819656 L1697669 748770 "/>
<path d="M1697669 961428 L1697669 890542 "/>
<path d="M1591340 961428 L1697669 961428 "/>
<path d="M1591340 890542 L1591340 961428 "/>
</g>
<g style="fill:#000084; fill-opacity:0.0;  stroke:#000084; stroke-width:6976.975979; stroke-opacity:1;  stroke-linecap:round; stroke-linejoin:round;">
<path d="M1394031 830958 L1394031 914682 "/>
<path d="M1540547 914682 L1540547 830958 "/>
<path d="M1540547 830958 L1394031 830958 "/>
<path d="M1505662 914682 L1540547 879797 "/>
<path d="M1394031 914682 L1540547 914682 "/>
</g>
<g style="fill:#000084; fill-opacity:0.0;  stroke:#000084; stroke-width:10465.463969; stroke-opacity:1;  stroke-linecap:round; stroke-linejoin:round;">
<path d="M1857162 482947 L1857162 589276 "/>
<path d="M1998935 589276 L2069821 589276 "/>
<path d="M1928049 482947 L1857162 482947 "/>
<path d="M2069821 482947 L1998935 482947 "/>
<path d="M1857162 589276 L1928049 589276 "/>
<path d="M2069821 589276 L2069821 482947 "/>
<path d="M1343238 748770 L1236909 748770 "/>
<path d="M1236909 748770 L1236909 819656 "/>
<path d="M1236909 961428 L1343238 961428 "/>
<path d="M1343238 819656 L1343238 748770 "/>
<path d="M1236909 890542 L1236909 961428 "/>
<path d="M1343238 961428 L1343238 890542 "/>
<path d="M1467289 677884 L1573618 677884 "/>
<path d="M1573618 677884 L1573618 606998 "/>
<path d="M1573618 536111 L1573618 465225 "/>
<path d="M1467289 606998 L1467289 677884 "/>
<path d="M1467289 465225 L1467289 536111 "/>
<path d="M1573618 465225 L1467289 465225 "/>
</g>
<g style="fill:#000084; fill-opacity:0.0;  stroke:#000084; stroke-width:6976.975979; stroke-opacity:1;  stroke-linecap:round; stroke-linejoin:round;">
<path d="M1380077 997987 L1380077 1137527 "/>
<path d="M1554501 1137527 L1554501 997987 "/>
<path d="M1554501 997987 L1380077 997987 "/>
<path d="M1380077 1137527 L1554501 1137527 "/>
<g>
</g>
<g>
</g>
<g>
</g>
<g>
</g>
<g>
</g>
<g>
</g>
<g>
</g>
<g>
</g>
<g>
</g>
<g>
</g>
<g>
</g>
<g>
</g>
<g>
</g>
<g>
</g>
<g>
</g>
<g>
</g>
<g>
</g>
<g>
</g>
<g>
</g>
<g>
</g>
<g>
</g>
</g> 
<svg:g><svg:g><svg:title>SVG Picture created as STEPBUBODC01-Edge_Cuts.svg date 2023/07/05 12:11:51 </svg:title>
  <svg:desc>Picture generated by PCBNEW </svg:desc>
<svg:g style="fill:#C2C200; fill-opacity:1.000000;stroke:#C2C200; stroke-opacity:1.000000; stroke-linecap:round; stroke-linejoin:round;" transform="translate(0 0) scale(1 1)">
</svg:g>
<svg:g style="fill:#C2C200; fill-opacity:0.0;  stroke:#C2C200; stroke-width:0.000000; stroke-opacity:1;  stroke-linecap:round; stroke-linejoin:round;">
</svg:g>
<svg:g style="fill:#C2C200; fill-opacity:0.0;  stroke:#C2C200; stroke-width:8860.759494; stroke-opacity:1;  stroke-linecap:round; stroke-linejoin:round;">
<svg:path d="M85011 4466 L85011 2095605 "/>
<svg:path d="M85011 2095605 L2885011 2095605 "/>
<svg:path d="M2885011 4466 L85011 4466 "/>
<svg:path d="M2885011 2095605 L2885011 4466 "/>
<svg:g>
</svg:g>
<svg:g>
</svg:g>
<svg:g>
</svg:g>
<svg:g>
</svg:g>
<svg:g>
</svg:g>
<svg:g>
</svg:g>
<svg:g>
</svg:g>
<svg:g>
</svg:g>
<svg:g>
</svg:g>
<svg:g>
</svg:g>
<svg:g>
</svg:g>
<svg:g>
</svg:g>
<svg:g>
</svg:g>
<svg:g>
</svg:g>
<svg:g>
</svg:g>
<svg:g>
</svg:g>
<svg:g>
</svg:g>
<svg:g>
</svg:g>
<svg:g>
</svg:g>
<svg:g>
</svg:g>
<svg:g>
</svg:g>
</svg:g> 
</svg:g></svg:g></svg>
