<?xml version='1.0' encoding='ASCII' standalone='yes'?>
<svg xmlns:svg="http://www.w3.org/2000/svg" xmlns="http://www.w3.org/2000/svg" xmlns:xlink="http://www.w3.org/1999/xlink" version="1.1" width="29.700220cm" height="21.000720cm" viewBox="0 0 2970022 2100072">
<title>SVG Picture created as STEPBUBODC01-F_Fab.svg date 2023/07/05 12:11:51 </title>
  <desc>Picture generated by PCBNEW </desc>
<g style="fill:#848484; fill-opacity:1.000000;stroke:#848484; stroke-opacity:1.000000; stroke-linecap:round; stroke-linejoin:round;" transform="translate(0 0) scale(1 1)">
</g>
<g style="fill:#848484; fill-opacity:0.0;  stroke:#848484; stroke-width:0.000000; stroke-opacity:1;  stroke-linecap:round; stroke-linejoin:round;">
</g>
<g style="fill:#848484; fill-opacity:0.0;  stroke:#848484; stroke-width:10465.463969; stroke-opacity:1;  stroke-linecap:round; stroke-linejoin:round;">
<path d="M864757 252567 L864757 429782 "/>
<path d="M864757 429782 L1396403 429782 "/>
<path d="M1396403 429782 L1396403 252567 "/>
<path d="M1396403 252567 L864757 252567 "/>
<path d="M2371086 784213 L2371086 1315858 "/>
<path d="M2371086 1315858 L2725517 1315858 "/>
<path d="M2725517 784213 L2371086 784213 "/>
<path d="M2725517 1315858 L2725517 784213 "/>
</g>
<g style="fill:#848484; fill-opacity:0.0;  stroke:#848484; stroke-width:26582.278481; stroke-opacity:1;  stroke-linecap:round; stroke-linejoin:round;">
<circle cx="2548302.105651" cy="1758896.760690" r="209291.139241"/> 
<circle cx="421719.827170" cy="341175.241702" r="209291.139241"/> 
</g>
<g style="fill:#848484; fill-opacity:0.0;  stroke:#848484; stroke-width:10465.463969; stroke-opacity:1;  stroke-linecap:round; stroke-linejoin:round;">
<path d="M2105264 429782 L2105264 252567 "/>
<path d="M2105264 252567 L1573618 252567 "/>
<path d="M1573618 429782 L2105264 429782 "/>
<path d="M1573618 252567 L1573618 429782 "/>
<path d="M1573618 1670289 L1573618 1847504 "/>
<path d="M2105264 1847504 L2105264 1670289 "/>
<path d="M1573618 1847504 L2105264 1847504 "/>
<path d="M2105264 1670289 L1573618 1670289 "/>
</g>
<g style="fill:#848484; fill-opacity:0.0;  stroke:#848484; stroke-width:26582.278481; stroke-opacity:1;  stroke-linecap:round; stroke-linejoin:round;">
<circle cx="421719.827170" cy="1758896.760690" r="209291.139241"/> 
</g>
<g style="fill:#848484; fill-opacity:0.0;  stroke:#848484; stroke-width:10465.463969; stroke-opacity:1;  stroke-linecap:round; stroke-linejoin:round;">
<path d="M1396403 1936111 L1396403 1581681 "/>
<path d="M864757 1581681 L864757 1936111 "/>
<path d="M1396403 1581681 L864757 1581681 "/>
<path d="M864757 1936111 L1396403 1936111 "/>
</g>
<g style="fill:#848484; fill-opacity:0.0;  stroke:#848484; stroke-width:26582.278481; stroke-opacity:1;  stroke-linecap:round; stroke-linejoin:round;">
<circle cx="2548302.105651" cy="341175.241702" r="209291.139241"/> 
</g>
<g style="fill:#848484; fill-opacity:0.0;  stroke:#848484; stroke-width:10465.463969; stroke-opacity:1;  stroke-linecap:round; stroke-linejoin:round;">
<path d="M244504 784213 L244504 1315858 "/>
<path d="M598935 1315858 L598935 784213 "/>
<path d="M244504 1315858 L598935 1315858 "/>
<path d="M598935 784213 L244504 784213 "/>
<g>
</g>
<g>
</g>
<g>
</g>
<g>
</g>
<g>
</g>
<g>
</g>
<g>
</g>
<g>
</g>
<g>
</g>
<g>
</g>
<g>
</g>
<g>
</g>
<g>
</g>
<g>
</g>
<g>
</g>
<g>
</g>
<g>
</g>
<g>
</g>
<g>
</g>
<g>
</g>
<g>
</g>
</g> 
<svg:g><svg:g><svg:title>SVG Picture created as STEPBUBODC01-Edge_Cuts.svg date 2023/07/05 12:11:51 </svg:title>
  <svg:desc>Picture generated by PCBNEW </svg:desc>
<svg:g style="fill:#C2C200; fill-opacity:1.000000;stroke:#C2C200; stroke-opacity:1.000000; stroke-linecap:round; stroke-linejoin:round;" transform="translate(0 0) scale(1 1)">
</svg:g>
<svg:g style="fill:#C2C200; fill-opacity:0.0;  stroke:#C2C200; stroke-width:0.000000; stroke-opacity:1;  stroke-linecap:round; stroke-linejoin:round;">
</svg:g>
<svg:g style="fill:#C2C200; fill-opacity:0.0;  stroke:#C2C200; stroke-width:8860.759494; stroke-opacity:1;  stroke-linecap:round; stroke-linejoin:round;">
<svg:path d="M2885010 4466 L2885010 2095605 "/>
<svg:path d="M2885010 2095605 L85010 2095605 "/>
<svg:path d="M85010 4466 L2885010 4466 "/>
<svg:path d="M85010 2095605 L85010 4466 "/>
<svg:g>
</svg:g>
<svg:g>
</svg:g>
<svg:g>
</svg:g>
<svg:g>
</svg:g>
<svg:g>
</svg:g>
<svg:g>
</svg:g>
<svg:g>
</svg:g>
<svg:g>
</svg:g>
<svg:g>
</svg:g>
<svg:g>
</svg:g>
<svg:g>
</svg:g>
<svg:g>
</svg:g>
<svg:g>
</svg:g>
<svg:g>
</svg:g>
<svg:g>
</svg:g>
<svg:g>
</svg:g>
<svg:g>
</svg:g>
<svg:g>
</svg:g>
<svg:g>
</svg:g>
<svg:g>
</svg:g>
<svg:g>
</svg:g>
</svg:g> 
</svg:g></svg:g></svg>
