<?xml version='1.0' encoding='ASCII' standalone='yes'?>
<svg xmlns:svg="http://www.w3.org/2000/svg" xmlns="http://www.w3.org/2000/svg" xmlns:xlink="http://www.w3.org/1999/xlink" version="1.1" width="297.0022mm" height="210.0072mm" viewBox="0.0000 0.0000 297.0022 210.0072">
<title>SVG Image created as STEPBUBODC01-F_Fab.svg date 2023/09/20 21:01:25 </title>
  <desc>Image generated by PCBNEW </desc>
<g style="fill:#848484; fill-opacity:1.0000;stroke:#848484; stroke-opacity:1.0000; stroke-linecap:round; stroke-linejoin:round;" transform="translate(0 0) scale(1 1)">
</g>
<g style="fill:#848484; fill-opacity:0.0;  stroke:#848484; stroke-width:0.0000; stroke-opacity:1;  stroke-linecap:round; stroke-linejoin:round;">
</g>
<g style="fill:#848484; fill-opacity:0.0;  stroke:#848484; stroke-width:0.5311; stroke-opacity:1;  stroke-linecap:round; stroke-linejoin:round;">
<path style="fill:#848484; fill-opacity:0.0;  stroke:#848484; stroke-width:0.5311; stroke-opacity:1;  stroke-linecap:round; stroke-linejoin:round;fill:none" d="M 267.8526,50.4505 108.7828,50.4505 108.7828,209.5203 267.8526,209.5203 Z"/> 
</g>
<g style="fill:#848484; fill-opacity:0.01;  stroke:#848484; stroke-width:0.7967; stroke-opacity:1;  stroke-linecap:round; stroke-linejoin:round;">
<text x="188.3177" y="7.1644" textLength="52.4163" font-size="7.0816" lengthAdjust="spacingAndGlyphs" text-anchor="middle" opacity="0.01" style="font-family:monospace">29.9500 mm</text>
<g class="stroked-text"><desc>29.9500 mm</desc>
<path d="M212.8503 2.1191 L212.5974 1.8662 "/>
<path d="M212.5974 1.8662 L212.0916 1.6133 "/>
<path d="M212.0916 1.6133 L210.8270 1.6133 "/>
<path d="M210.8270 1.6133 L210.3212 1.8662 "/>
<path d="M210.3212 1.8662 L210.0683 2.1191 "/>
<path d="M210.0683 2.1191 L209.8154 2.6249 "/>
<path d="M209.8154 2.6249 L209.8154 3.1307 "/>
<path d="M209.8154 3.1307 L210.0683 3.8895 "/>
<path d="M210.0683 3.8895 L213.1032 6.9244 "/>
<path d="M213.1032 6.9244 L209.8154 6.9244 "/>
<path d="M207.2862 6.9244 L206.2746 6.9244 "/>
<path d="M206.2746 6.9244 L205.7688 6.6715 "/>
<path d="M205.7688 6.6715 L205.5158 6.4186 "/>
<path d="M205.5158 6.4186 L205.0100 5.6599 "/>
<path d="M205.0100 5.6599 L204.7571 4.6482 "/>
<path d="M204.7571 4.6482 L204.7571 2.6249 "/>
<path d="M204.7571 2.6249 L205.0100 2.1191 "/>
<path d="M205.0100 2.1191 L205.2629 1.8662 "/>
<path d="M205.2629 1.8662 L205.7688 1.6133 "/>
<path d="M205.7688 1.6133 L206.7804 1.6133 "/>
<path d="M206.7804 1.6133 L207.2862 1.8662 "/>
<path d="M207.2862 1.8662 L207.5391 2.1191 "/>
<path d="M207.5391 2.1191 L207.7921 2.6249 "/>
<path d="M207.7921 2.6249 L207.7921 3.8895 "/>
<path d="M207.7921 3.8895 L207.5391 4.3953 "/>
<path d="M207.5391 4.3953 L207.2862 4.6482 "/>
<path d="M207.2862 4.6482 L206.7804 4.9011 "/>
<path d="M206.7804 4.9011 L205.7688 4.9011 "/>
<path d="M205.7688 4.9011 L205.2629 4.6482 "/>
<path d="M205.2629 4.6482 L205.0100 4.3953 "/>
<path d="M205.0100 4.3953 L204.7571 3.8895 "/>
<path d="M202.4809 6.4186 L202.2280 6.6715 "/>
<path d="M202.2280 6.6715 L202.4809 6.9244 "/>
<path d="M202.4809 6.9244 L202.7338 6.6715 "/>
<path d="M202.7338 6.6715 L202.4809 6.4186 "/>
<path d="M202.4809 6.4186 L202.4809 6.9244 "/>
<path d="M199.6988 6.9244 L198.6872 6.9244 "/>
<path d="M198.6872 6.9244 L198.1814 6.6715 "/>
<path d="M198.1814 6.6715 L197.9284 6.4186 "/>
<path d="M197.9284 6.4186 L197.4226 5.6599 "/>
<path d="M197.4226 5.6599 L197.1697 4.6482 "/>
<path d="M197.1697 4.6482 L197.1697 2.6249 "/>
<path d="M197.1697 2.6249 L197.4226 2.1191 "/>
<path d="M197.4226 2.1191 L197.6755 1.8662 "/>
<path d="M197.6755 1.8662 L198.1814 1.6133 "/>
<path d="M198.1814 1.6133 L199.1930 1.6133 "/>
<path d="M199.1930 1.6133 L199.6988 1.8662 "/>
<path d="M199.6988 1.8662 L199.9517 2.1191 "/>
<path d="M199.9517 2.1191 L200.2047 2.6249 "/>
<path d="M200.2047 2.6249 L200.2047 3.8895 "/>
<path d="M200.2047 3.8895 L199.9517 4.3953 "/>
<path d="M199.9517 4.3953 L199.6988 4.6482 "/>
<path d="M199.6988 4.6482 L199.1930 4.9011 "/>
<path d="M199.1930 4.9011 L198.1814 4.9011 "/>
<path d="M198.1814 4.9011 L197.6755 4.6482 "/>
<path d="M197.6755 4.6482 L197.4226 4.3953 "/>
<path d="M197.4226 4.3953 L197.1697 3.8895 "/>
<path d="M192.3644 1.6133 L194.8935 1.6133 "/>
<path d="M194.8935 1.6133 L195.1464 4.1424 "/>
<path d="M195.1464 4.1424 L194.8935 3.8895 "/>
<path d="M194.8935 3.8895 L194.3877 3.6366 "/>
<path d="M194.3877 3.6366 L193.1231 3.6366 "/>
<path d="M193.1231 3.6366 L192.6173 3.8895 "/>
<path d="M192.6173 3.8895 L192.3644 4.1424 "/>
<path d="M192.3644 4.1424 L192.1114 4.6482 "/>
<path d="M192.1114 4.6482 L192.1114 5.9128 "/>
<path d="M192.1114 5.9128 L192.3644 6.4186 "/>
<path d="M192.3644 6.4186 L192.6173 6.6715 "/>
<path d="M192.6173 6.6715 L193.1231 6.9244 "/>
<path d="M193.1231 6.9244 L194.3877 6.9244 "/>
<path d="M194.3877 6.9244 L194.8935 6.6715 "/>
<path d="M194.8935 6.6715 L195.1464 6.4186 "/>
<path d="M188.8236 1.6133 L188.3177 1.6133 "/>
<path d="M188.3177 1.6133 L187.8119 1.8662 "/>
<path d="M187.8119 1.8662 L187.5590 2.1191 "/>
<path d="M187.5590 2.1191 L187.3061 2.6249 "/>
<path d="M187.3061 2.6249 L187.0532 3.6366 "/>
<path d="M187.0532 3.6366 L187.0532 4.9011 "/>
<path d="M187.0532 4.9011 L187.3061 5.9128 "/>
<path d="M187.3061 5.9128 L187.5590 6.4186 "/>
<path d="M187.5590 6.4186 L187.8119 6.6715 "/>
<path d="M187.8119 6.6715 L188.3177 6.9244 "/>
<path d="M188.3177 6.9244 L188.8236 6.9244 "/>
<path d="M188.8236 6.9244 L189.3294 6.6715 "/>
<path d="M189.3294 6.6715 L189.5823 6.4186 "/>
<path d="M189.5823 6.4186 L189.8352 5.9128 "/>
<path d="M189.8352 5.9128 L190.0881 4.9011 "/>
<path d="M190.0881 4.9011 L190.0881 3.6366 "/>
<path d="M190.0881 3.6366 L189.8352 2.6249 "/>
<path d="M189.8352 2.6249 L189.5823 2.1191 "/>
<path d="M189.5823 2.1191 L189.3294 1.8662 "/>
<path d="M189.3294 1.8662 L188.8236 1.6133 "/>
<path d="M183.7653 1.6133 L183.2595 1.6133 "/>
<path d="M183.2595 1.6133 L182.7536 1.8662 "/>
<path d="M182.7536 1.8662 L182.5007 2.1191 "/>
<path d="M182.5007 2.1191 L182.2478 2.6249 "/>
<path d="M182.2478 2.6249 L181.9949 3.6366 "/>
<path d="M181.9949 3.6366 L181.9949 4.9011 "/>
<path d="M181.9949 4.9011 L182.2478 5.9128 "/>
<path d="M182.2478 5.9128 L182.5007 6.4186 "/>
<path d="M182.5007 6.4186 L182.7536 6.6715 "/>
<path d="M182.7536 6.6715 L183.2595 6.9244 "/>
<path d="M183.2595 6.9244 L183.7653 6.9244 "/>
<path d="M183.7653 6.9244 L184.2711 6.6715 "/>
<path d="M184.2711 6.6715 L184.5240 6.4186 "/>
<path d="M184.5240 6.4186 L184.7770 5.9128 "/>
<path d="M184.7770 5.9128 L185.0299 4.9011 "/>
<path d="M185.0299 4.9011 L185.0299 3.6366 "/>
<path d="M185.0299 3.6366 L184.7770 2.6249 "/>
<path d="M184.7770 2.6249 L184.5240 2.1191 "/>
<path d="M184.5240 2.1191 L184.2711 1.8662 "/>
<path d="M184.2711 1.8662 L183.7653 1.6133 "/>
<path d="M175.6721 6.9244 L175.6721 3.3836 "/>
<path d="M175.6721 3.8895 L175.4192 3.6366 "/>
<path d="M175.4192 3.6366 L174.9133 3.3836 "/>
<path d="M174.9133 3.3836 L174.1546 3.3836 "/>
<path d="M174.1546 3.3836 L173.6488 3.6366 "/>
<path d="M173.6488 3.6366 L173.3959 4.1424 "/>
<path d="M173.3959 4.1424 L173.3959 6.9244 "/>
<path d="M173.3959 4.1424 L173.1429 3.6366 "/>
<path d="M173.1429 3.6366 L172.6371 3.3836 "/>
<path d="M172.6371 3.3836 L171.8784 3.3836 "/>
<path d="M171.8784 3.3836 L171.3725 3.6366 "/>
<path d="M171.3725 3.6366 L171.1196 4.1424 "/>
<path d="M171.1196 4.1424 L171.1196 6.9244 "/>
<path d="M168.5905 6.9244 L168.5905 3.3836 "/>
<path d="M168.5905 3.8895 L168.3376 3.6366 "/>
<path d="M168.3376 3.6366 L167.8318 3.3836 "/>
<path d="M167.8318 3.3836 L167.0730 3.3836 "/>
<path d="M167.0730 3.3836 L166.5672 3.6366 "/>
<path d="M166.5672 3.6366 L166.3143 4.1424 "/>
<path d="M166.3143 4.1424 L166.3143 6.9244 "/>
<path d="M166.3143 4.1424 L166.0614 3.6366 "/>
<path d="M166.0614 3.6366 L165.5555 3.3836 "/>
<path d="M165.5555 3.3836 L164.7968 3.3836 "/>
<path d="M164.7968 3.3836 L164.2910 3.6366 "/>
<path d="M164.2910 3.6366 L164.0381 4.1424 "/>
<path d="M164.0381 4.1424 L164.0381 6.9244 "/>
</g></g>
<g style="fill:#848484; fill-opacity:0.0;  stroke:#848484; stroke-width:0.5311; stroke-opacity:1;  stroke-linecap:round; stroke-linejoin:round;">
<path d="M267.8526 47.7949 L267.8526 7.5021 "/>
<path d="M108.7828 47.7949 L108.7828 7.5021 "/>
<path d="M267.8526 10.6167 L108.7828 10.6167 "/>
<path d="M267.8526 10.6167 L108.7828 10.6167 "/>
<path d="M267.8526 10.6167 L261.8696 7.5021 "/>
<path d="M267.8526 10.6167 L261.8696 13.7312 "/>
<path d="M108.7828 10.6167 L114.7659 13.7312 "/>
<path d="M108.7828 10.6167 L114.7659 7.5021 "/>
</g>
<g style="fill:#848484; fill-opacity:0.0;  stroke:#848484; stroke-width:0.7967; stroke-opacity:1;  stroke-linecap:round; stroke-linejoin:round;">
<g transform="rotate(-90.000000 54.8744 129.9854)">
<text x="54.8744" y="132.6410" textLength="52.4163" font-size="7.0816" lengthAdjust="spacingAndGlyphs" text-anchor="middle" opacity="0.01" style="font-family:monospace">29.9500 mm</text>
</g>
<g class="stroked-text"><desc>29.9500 mm</desc>
<path d="M57.2641 154.5180 L57.5170 154.2651 "/>
<path d="M57.5170 154.2651 L57.7699 153.7592 "/>
<path d="M57.7699 153.7592 L57.7699 152.4947 "/>
<path d="M57.7699 152.4947 L57.5170 151.9888 "/>
<path d="M57.5170 151.9888 L57.2641 151.7359 "/>
<path d="M57.2641 151.7359 L56.7583 151.4830 "/>
<path d="M56.7583 151.4830 L56.2525 151.4830 "/>
<path d="M56.2525 151.4830 L55.4937 151.7359 "/>
<path d="M55.4937 151.7359 L52.4588 154.7709 "/>
<path d="M52.4588 154.7709 L52.4588 151.4830 "/>
<path d="M52.4588 148.9539 L52.4588 147.9422 "/>
<path d="M52.4588 147.9422 L52.7117 147.4364 "/>
<path d="M52.7117 147.4364 L52.9646 147.1835 "/>
<path d="M52.9646 147.1835 L53.7233 146.6777 "/>
<path d="M53.7233 146.6777 L54.7350 146.4247 "/>
<path d="M54.7350 146.4247 L56.7583 146.4247 "/>
<path d="M56.7583 146.4247 L57.2641 146.6777 "/>
<path d="M57.2641 146.6777 L57.5170 146.9306 "/>
<path d="M57.5170 146.9306 L57.7699 147.4364 "/>
<path d="M57.7699 147.4364 L57.7699 148.4481 "/>
<path d="M57.7699 148.4481 L57.5170 148.9539 "/>
<path d="M57.5170 148.9539 L57.2641 149.2068 "/>
<path d="M57.2641 149.2068 L56.7583 149.4597 "/>
<path d="M56.7583 149.4597 L55.4937 149.4597 "/>
<path d="M55.4937 149.4597 L54.9879 149.2068 "/>
<path d="M54.9879 149.2068 L54.7350 148.9539 "/>
<path d="M54.7350 148.9539 L54.4821 148.4481 "/>
<path d="M54.4821 148.4481 L54.4821 147.4364 "/>
<path d="M54.4821 147.4364 L54.7350 146.9306 "/>
<path d="M54.7350 146.9306 L54.9879 146.6777 "/>
<path d="M54.9879 146.6777 L55.4937 146.4247 "/>
<path d="M52.9646 144.1485 L52.7117 143.8956 "/>
<path d="M52.7117 143.8956 L52.4588 144.1485 "/>
<path d="M52.4588 144.1485 L52.7117 144.4014 "/>
<path d="M52.7117 144.4014 L52.9646 144.1485 "/>
<path d="M52.9646 144.1485 L52.4588 144.1485 "/>
<path d="M52.4588 141.3665 L52.4588 140.3548 "/>
<path d="M52.4588 140.3548 L52.7117 139.8490 "/>
<path d="M52.7117 139.8490 L52.9646 139.5961 "/>
<path d="M52.9646 139.5961 L53.7233 139.0903 "/>
<path d="M53.7233 139.0903 L54.7350 138.8374 "/>
<path d="M54.7350 138.8374 L56.7583 138.8374 "/>
<path d="M56.7583 138.8374 L57.2641 139.0903 "/>
<path d="M57.2641 139.0903 L57.5170 139.3432 "/>
<path d="M57.5170 139.3432 L57.7699 139.8490 "/>
<path d="M57.7699 139.8490 L57.7699 140.8607 "/>
<path d="M57.7699 140.8607 L57.5170 141.3665 "/>
<path d="M57.5170 141.3665 L57.2641 141.6194 "/>
<path d="M57.2641 141.6194 L56.7583 141.8723 "/>
<path d="M56.7583 141.8723 L55.4937 141.8723 "/>
<path d="M55.4937 141.8723 L54.9879 141.6194 "/>
<path d="M54.9879 141.6194 L54.7350 141.3665 "/>
<path d="M54.7350 141.3665 L54.4821 140.8607 "/>
<path d="M54.4821 140.8607 L54.4821 139.8490 "/>
<path d="M54.4821 139.8490 L54.7350 139.3432 "/>
<path d="M54.7350 139.3432 L54.9879 139.0903 "/>
<path d="M54.9879 139.0903 L55.4937 138.8374 "/>
<path d="M57.7699 134.0320 L57.7699 136.5611 "/>
<path d="M57.7699 136.5611 L55.2408 136.8140 "/>
<path d="M55.2408 136.8140 L55.4937 136.5611 "/>
<path d="M55.4937 136.5611 L55.7466 136.0553 "/>
<path d="M55.7466 136.0553 L55.7466 134.7907 "/>
<path d="M55.7466 134.7907 L55.4937 134.2849 "/>
<path d="M55.4937 134.2849 L55.2408 134.0320 "/>
<path d="M55.2408 134.0320 L54.7350 133.7791 "/>
<path d="M54.7350 133.7791 L53.4704 133.7791 "/>
<path d="M53.4704 133.7791 L52.9646 134.0320 "/>
<path d="M52.9646 134.0320 L52.7117 134.2849 "/>
<path d="M52.7117 134.2849 L52.4588 134.7907 "/>
<path d="M52.4588 134.7907 L52.4588 136.0553 "/>
<path d="M52.4588 136.0553 L52.7117 136.5611 "/>
<path d="M52.7117 136.5611 L52.9646 136.8140 "/>
<path d="M57.7699 130.4912 L57.7699 129.9854 "/>
<path d="M57.7699 129.9854 L57.5170 129.4796 "/>
<path d="M57.5170 129.4796 L57.2641 129.2266 "/>
<path d="M57.2641 129.2266 L56.7583 128.9737 "/>
<path d="M56.7583 128.9737 L55.7466 128.7208 "/>
<path d="M55.7466 128.7208 L54.4821 128.7208 "/>
<path d="M54.4821 128.7208 L53.4704 128.9737 "/>
<path d="M53.4704 128.9737 L52.9646 129.2266 "/>
<path d="M52.9646 129.2266 L52.7117 129.4796 "/>
<path d="M52.7117 129.4796 L52.4588 129.9854 "/>
<path d="M52.4588 129.9854 L52.4588 130.4912 "/>
<path d="M52.4588 130.4912 L52.7117 130.9970 "/>
<path d="M52.7117 130.9970 L52.9646 131.2500 "/>
<path d="M52.9646 131.2500 L53.4704 131.5029 "/>
<path d="M53.4704 131.5029 L54.4821 131.7558 "/>
<path d="M54.4821 131.7558 L55.7466 131.7558 "/>
<path d="M55.7466 131.7558 L56.7583 131.5029 "/>
<path d="M56.7583 131.5029 L57.2641 131.2500 "/>
<path d="M57.2641 131.2500 L57.5170 130.9970 "/>
<path d="M57.5170 130.9970 L57.7699 130.4912 "/>
<path d="M57.7699 125.4329 L57.7699 124.9271 "/>
<path d="M57.7699 124.9271 L57.5170 124.4213 "/>
<path d="M57.5170 124.4213 L57.2641 124.1684 "/>
<path d="M57.2641 124.1684 L56.7583 123.9155 "/>
<path d="M56.7583 123.9155 L55.7466 123.6626 "/>
<path d="M55.7466 123.6626 L54.4821 123.6626 "/>
<path d="M54.4821 123.6626 L53.4704 123.9155 "/>
<path d="M53.4704 123.9155 L52.9646 124.1684 "/>
<path d="M52.9646 124.1684 L52.7117 124.4213 "/>
<path d="M52.7117 124.4213 L52.4588 124.9271 "/>
<path d="M52.4588 124.9271 L52.4588 125.4329 "/>
<path d="M52.4588 125.4329 L52.7117 125.9388 "/>
<path d="M52.7117 125.9388 L52.9646 126.1917 "/>
<path d="M52.9646 126.1917 L53.4704 126.4446 "/>
<path d="M53.4704 126.4446 L54.4821 126.6975 "/>
<path d="M54.4821 126.6975 L55.7466 126.6975 "/>
<path d="M55.7466 126.6975 L56.7583 126.4446 "/>
<path d="M56.7583 126.4446 L57.2641 126.1917 "/>
<path d="M57.2641 126.1917 L57.5170 125.9388 "/>
<path d="M57.5170 125.9388 L57.7699 125.4329 "/>
<path d="M52.4588 117.3397 L55.9996 117.3397 "/>
<path d="M55.4937 117.3397 L55.7466 117.0868 "/>
<path d="M55.7466 117.0868 L55.9996 116.5810 "/>
<path d="M55.9996 116.5810 L55.9996 115.8222 "/>
<path d="M55.9996 115.8222 L55.7466 115.3164 "/>
<path d="M55.7466 115.3164 L55.2408 115.0635 "/>
<path d="M55.2408 115.0635 L52.4588 115.0635 "/>
<path d="M55.2408 115.0635 L55.7466 114.8106 "/>
<path d="M55.7466 114.8106 L55.9996 114.3048 "/>
<path d="M55.9996 114.3048 L55.9996 113.5460 "/>
<path d="M55.9996 113.5460 L55.7466 113.0402 "/>
<path d="M55.7466 113.0402 L55.2408 112.7873 "/>
<path d="M55.2408 112.7873 L52.4588 112.7873 "/>
<path d="M52.4588 110.2582 L55.9996 110.2582 "/>
<path d="M55.4937 110.2582 L55.7466 110.0052 "/>
<path d="M55.7466 110.0052 L55.9996 109.4994 "/>
<path d="M55.9996 109.4994 L55.9996 108.7407 "/>
<path d="M55.9996 108.7407 L55.7466 108.2348 "/>
<path d="M55.7466 108.2348 L55.2408 107.9819 "/>
<path d="M55.2408 107.9819 L52.4588 107.9819 "/>
<path d="M55.2408 107.9819 L55.7466 107.7290 "/>
<path d="M55.7466 107.7290 L55.9996 107.2232 "/>
<path d="M55.9996 107.2232 L55.9996 106.4645 "/>
<path d="M55.9996 106.4645 L55.7466 105.9586 "/>
<path d="M55.7466 105.9586 L55.2408 105.7057 "/>
<path d="M55.2408 105.7057 L52.4588 105.7057 "/>
</g></g>
<g style="fill:#848484; fill-opacity:0.0;  stroke:#848484; stroke-width:0.5311; stroke-opacity:1;  stroke-linecap:round; stroke-linejoin:round;">
<path d="M106.1273 50.4505 L45.6520 50.4505 "/>
<path d="M106.1273 209.5203 L45.6520 209.5203 "/>
<path d="M48.7665 50.4505 L48.7665 209.5203 "/>
<path d="M48.7665 50.4505 L48.7665 209.5203 "/>
<path d="M48.7665 50.4505 L45.6519 56.4336 "/>
<path d="M48.7665 50.4505 L51.8811 56.4336 "/>
<path d="M48.7665 209.5203 L51.8811 203.5372 "/>
<path d="M48.7665 209.5203 L45.6519 203.5372 "/>
</g>
<g style="fill:#848484; fill-opacity:0.0;  stroke:#848484; stroke-width:0.7967; stroke-opacity:1;  stroke-linecap:round; stroke-linejoin:round;">
<g transform="rotate(-90.000000 73.9946 130.0119)">
<text x="73.9946" y="132.6675" textLength="52.4163" font-size="7.0816" lengthAdjust="spacingAndGlyphs" text-anchor="middle" opacity="0.01" style="font-family:monospace">20.3200 mm</text>
</g>
<g class="stroked-text"><desc>20.3200 mm</desc>
<path d="M76.3844 154.5445 L76.6373 154.2916 "/>
<path d="M76.6373 154.2916 L76.8902 153.7858 "/>
<path d="M76.8902 153.7858 L76.8902 152.5212 "/>
<path d="M76.8902 152.5212 L76.6373 152.0154 "/>
<path d="M76.6373 152.0154 L76.3844 151.7625 "/>
<path d="M76.3844 151.7625 L75.8785 151.5096 "/>
<path d="M75.8785 151.5096 L75.3727 151.5096 "/>
<path d="M75.3727 151.5096 L74.6140 151.7625 "/>
<path d="M74.6140 151.7625 L71.5790 154.7974 "/>
<path d="M71.5790 154.7974 L71.5790 151.5096 "/>
<path d="M76.8902 148.2217 L76.8902 147.7159 "/>
<path d="M76.8902 147.7159 L76.6373 147.2100 "/>
<path d="M76.6373 147.2100 L76.3844 146.9571 "/>
<path d="M76.3844 146.9571 L75.8785 146.7042 "/>
<path d="M75.8785 146.7042 L74.8669 146.4513 "/>
<path d="M74.8669 146.4513 L73.6023 146.4513 "/>
<path d="M73.6023 146.4513 L72.5907 146.7042 "/>
<path d="M72.5907 146.7042 L72.0848 146.9571 "/>
<path d="M72.0848 146.9571 L71.8319 147.2100 "/>
<path d="M71.8319 147.2100 L71.5790 147.7159 "/>
<path d="M71.5790 147.7159 L71.5790 148.2217 "/>
<path d="M71.5790 148.2217 L71.8319 148.7275 "/>
<path d="M71.8319 148.7275 L72.0848 148.9804 "/>
<path d="M72.0848 148.9804 L72.5907 149.2333 "/>
<path d="M72.5907 149.2333 L73.6023 149.4863 "/>
<path d="M73.6023 149.4863 L74.8669 149.4863 "/>
<path d="M74.8669 149.4863 L75.8785 149.2333 "/>
<path d="M75.8785 149.2333 L76.3844 148.9804 "/>
<path d="M76.3844 148.9804 L76.6373 148.7275 "/>
<path d="M76.6373 148.7275 L76.8902 148.2217 "/>
<path d="M72.0848 144.1751 L71.8319 143.9222 "/>
<path d="M71.8319 143.9222 L71.5790 144.1751 "/>
<path d="M71.5790 144.1751 L71.8319 144.4280 "/>
<path d="M71.8319 144.4280 L72.0848 144.1751 "/>
<path d="M72.0848 144.1751 L71.5790 144.1751 "/>
<path d="M76.8902 142.1518 L76.8902 138.8639 "/>
<path d="M76.8902 138.8639 L74.8669 140.6343 "/>
<path d="M74.8669 140.6343 L74.8669 139.8756 "/>
<path d="M74.8669 139.8756 L74.6140 139.3697 "/>
<path d="M74.6140 139.3697 L74.3611 139.1168 "/>
<path d="M74.3611 139.1168 L73.8552 138.8639 "/>
<path d="M73.8552 138.8639 L72.5907 138.8639 "/>
<path d="M72.5907 138.8639 L72.0848 139.1168 "/>
<path d="M72.0848 139.1168 L71.8319 139.3697 "/>
<path d="M71.8319 139.3697 L71.5790 139.8756 "/>
<path d="M71.5790 139.8756 L71.5790 141.3930 "/>
<path d="M71.5790 141.3930 L71.8319 141.8989 "/>
<path d="M71.8319 141.8989 L72.0848 142.1518 "/>
<path d="M76.3844 136.8406 L76.6373 136.5877 "/>
<path d="M76.6373 136.5877 L76.8902 136.0819 "/>
<path d="M76.8902 136.0819 L76.8902 134.8173 "/>
<path d="M76.8902 134.8173 L76.6373 134.3115 "/>
<path d="M76.6373 134.3115 L76.3844 134.0586 "/>
<path d="M76.3844 134.0586 L75.8785 133.8056 "/>
<path d="M75.8785 133.8056 L75.3727 133.8056 "/>
<path d="M75.3727 133.8056 L74.6140 134.0586 "/>
<path d="M74.6140 134.0586 L71.5790 137.0935 "/>
<path d="M71.5790 137.0935 L71.5790 133.8056 "/>
<path d="M76.8902 130.5178 L76.8902 130.0119 "/>
<path d="M76.8902 130.0119 L76.6373 129.5061 "/>
<path d="M76.6373 129.5061 L76.3844 129.2532 "/>
<path d="M76.3844 129.2532 L75.8785 129.0003 "/>
<path d="M75.8785 129.0003 L74.8669 128.7474 "/>
<path d="M74.8669 128.7474 L73.6023 128.7474 "/>
<path d="M73.6023 128.7474 L72.5907 129.0003 "/>
<path d="M72.5907 129.0003 L72.0848 129.2532 "/>
<path d="M72.0848 129.2532 L71.8319 129.5061 "/>
<path d="M71.8319 129.5061 L71.5790 130.0119 "/>
<path d="M71.5790 130.0119 L71.5790 130.5178 "/>
<path d="M71.5790 130.5178 L71.8319 131.0236 "/>
<path d="M71.8319 131.0236 L72.0848 131.2765 "/>
<path d="M72.0848 131.2765 L72.5907 131.5294 "/>
<path d="M72.5907 131.5294 L73.6023 131.7823 "/>
<path d="M73.6023 131.7823 L74.8669 131.7823 "/>
<path d="M74.8669 131.7823 L75.8785 131.5294 "/>
<path d="M75.8785 131.5294 L76.3844 131.2765 "/>
<path d="M76.3844 131.2765 L76.6373 131.0236 "/>
<path d="M76.6373 131.0236 L76.8902 130.5178 "/>
<path d="M76.8902 125.4595 L76.8902 124.9537 "/>
<path d="M76.8902 124.9537 L76.6373 124.4479 "/>
<path d="M76.6373 124.4479 L76.3844 124.1949 "/>
<path d="M76.3844 124.1949 L75.8785 123.9420 "/>
<path d="M75.8785 123.9420 L74.8669 123.6891 "/>
<path d="M74.8669 123.6891 L73.6023 123.6891 "/>
<path d="M73.6023 123.6891 L72.5907 123.9420 "/>
<path d="M72.5907 123.9420 L72.0848 124.1949 "/>
<path d="M72.0848 124.1949 L71.8319 124.4479 "/>
<path d="M71.8319 124.4479 L71.5790 124.9537 "/>
<path d="M71.5790 124.9537 L71.5790 125.4595 "/>
<path d="M71.5790 125.4595 L71.8319 125.9653 "/>
<path d="M71.8319 125.9653 L72.0848 126.2182 "/>
<path d="M72.0848 126.2182 L72.5907 126.4712 "/>
<path d="M72.5907 126.4712 L73.6023 126.7241 "/>
<path d="M73.6023 126.7241 L74.8669 126.7241 "/>
<path d="M74.8669 126.7241 L75.8785 126.4712 "/>
<path d="M75.8785 126.4712 L76.3844 126.2182 "/>
<path d="M76.3844 126.2182 L76.6373 125.9653 "/>
<path d="M76.6373 125.9653 L76.8902 125.4595 "/>
<path d="M71.5790 117.3663 L75.1198 117.3663 "/>
<path d="M74.6140 117.3663 L74.8669 117.1134 "/>
<path d="M74.8669 117.1134 L75.1198 116.6075 "/>
<path d="M75.1198 116.6075 L75.1198 115.8488 "/>
<path d="M75.1198 115.8488 L74.8669 115.3430 "/>
<path d="M74.8669 115.3430 L74.3611 115.0901 "/>
<path d="M74.3611 115.0901 L71.5790 115.0901 "/>
<path d="M74.3611 115.0901 L74.8669 114.8371 "/>
<path d="M74.8669 114.8371 L75.1198 114.3313 "/>
<path d="M75.1198 114.3313 L75.1198 113.5726 "/>
<path d="M75.1198 113.5726 L74.8669 113.0668 "/>
<path d="M74.8669 113.0668 L74.3611 112.8138 "/>
<path d="M74.3611 112.8138 L71.5790 112.8138 "/>
<path d="M71.5790 110.2847 L75.1198 110.2847 "/>
<path d="M74.6140 110.2847 L74.8669 110.0318 "/>
<path d="M74.8669 110.0318 L75.1198 109.5260 "/>
<path d="M75.1198 109.5260 L75.1198 108.7672 "/>
<path d="M75.1198 108.7672 L74.8669 108.2614 "/>
<path d="M74.8669 108.2614 L74.3611 108.0085 "/>
<path d="M74.3611 108.0085 L71.5790 108.0085 "/>
<path d="M74.3611 108.0085 L74.8669 107.7556 "/>
<path d="M74.8669 107.7556 L75.1198 107.2498 "/>
<path d="M75.1198 107.2498 L75.1198 106.4910 "/>
<path d="M75.1198 106.4910 L74.8669 105.9852 "/>
<path d="M74.8669 105.9852 L74.3611 105.7323 "/>
<path d="M74.3611 105.7323 L71.5790 105.7323 "/>
</g></g>
<g style="fill:#848484; fill-opacity:0.0;  stroke:#848484; stroke-width:0.5311; stroke-opacity:1;  stroke-linecap:round; stroke-linejoin:round;">
<path d="M131.7271 76.0504 L64.7722 76.0504 "/>
<path d="M131.7271 183.9735 L64.7722 183.9735 "/>
<path d="M67.8868 76.0504 L67.8868 183.9735 "/>
<path d="M67.8868 76.0504 L67.8868 183.9735 "/>
<path d="M67.8868 76.0504 L64.7722 82.0334 "/>
<path d="M67.8868 76.0504 L71.0014 82.0334 "/>
<path d="M67.8868 183.9735 L71.0014 177.9905 "/>
<path d="M67.8868 183.9735 L64.7722 177.9905 "/>
</g>
<g style="fill:#848484; fill-opacity:0.01;  stroke:#848484; stroke-width:0.7967; stroke-opacity:1;  stroke-linecap:round; stroke-linejoin:round;">
<text x="188.3443" y="25.7535" textLength="52.4163" font-size="7.0816" lengthAdjust="spacingAndGlyphs" text-anchor="middle" opacity="0.01" style="font-family:monospace">20.3200 mm</text>
<g class="stroked-text"><desc>20.3200 mm</desc>
<path d="M212.8769 20.7082 L212.6240 20.4553 "/>
<path d="M212.6240 20.4553 L212.1181 20.2024 "/>
<path d="M212.1181 20.2024 L210.8536 20.2024 "/>
<path d="M210.8536 20.2024 L210.3477 20.4553 "/>
<path d="M210.3477 20.4553 L210.0948 20.7082 "/>
<path d="M210.0948 20.7082 L209.8419 21.2140 "/>
<path d="M209.8419 21.2140 L209.8419 21.7199 "/>
<path d="M209.8419 21.7199 L210.0948 22.4786 "/>
<path d="M210.0948 22.4786 L213.1298 25.5136 "/>
<path d="M213.1298 25.5136 L209.8419 25.5136 "/>
<path d="M206.5540 20.2024 L206.0482 20.2024 "/>
<path d="M206.0482 20.2024 L205.5424 20.4553 "/>
<path d="M205.5424 20.4553 L205.2895 20.7082 "/>
<path d="M205.2895 20.7082 L205.0366 21.2140 "/>
<path d="M205.0366 21.2140 L204.7837 22.2257 "/>
<path d="M204.7837 22.2257 L204.7837 23.4902 "/>
<path d="M204.7837 23.4902 L205.0366 24.5019 "/>
<path d="M205.0366 24.5019 L205.2895 25.0077 "/>
<path d="M205.2895 25.0077 L205.5424 25.2606 "/>
<path d="M205.5424 25.2606 L206.0482 25.5136 "/>
<path d="M206.0482 25.5136 L206.5540 25.5136 "/>
<path d="M206.5540 25.5136 L207.0599 25.2606 "/>
<path d="M207.0599 25.2606 L207.3128 25.0077 "/>
<path d="M207.3128 25.0077 L207.5657 24.5019 "/>
<path d="M207.5657 24.5019 L207.8186 23.4902 "/>
<path d="M207.8186 23.4902 L207.8186 22.2257 "/>
<path d="M207.8186 22.2257 L207.5657 21.2140 "/>
<path d="M207.5657 21.2140 L207.3128 20.7082 "/>
<path d="M207.3128 20.7082 L207.0599 20.4553 "/>
<path d="M207.0599 20.4553 L206.5540 20.2024 "/>
<path d="M202.5074 25.0077 L202.2545 25.2606 "/>
<path d="M202.2545 25.2606 L202.5074 25.5136 "/>
<path d="M202.5074 25.5136 L202.7603 25.2606 "/>
<path d="M202.7603 25.2606 L202.5074 25.0077 "/>
<path d="M202.5074 25.0077 L202.5074 25.5136 "/>
<path d="M200.4841 20.2024 L197.1963 20.2024 "/>
<path d="M197.1963 20.2024 L198.9666 22.2257 "/>
<path d="M198.9666 22.2257 L198.2079 22.2257 "/>
<path d="M198.2079 22.2257 L197.7021 22.4786 "/>
<path d="M197.7021 22.4786 L197.4492 22.7315 "/>
<path d="M197.4492 22.7315 L197.1963 23.2373 "/>
<path d="M197.1963 23.2373 L197.1963 24.5019 "/>
<path d="M197.1963 24.5019 L197.4492 25.0077 "/>
<path d="M197.4492 25.0077 L197.7021 25.2606 "/>
<path d="M197.7021 25.2606 L198.2079 25.5136 "/>
<path d="M198.2079 25.5136 L199.7254 25.5136 "/>
<path d="M199.7254 25.5136 L200.2312 25.2606 "/>
<path d="M200.2312 25.2606 L200.4841 25.0077 "/>
<path d="M195.1729 20.7082 L194.9200 20.4553 "/>
<path d="M194.9200 20.4553 L194.4142 20.2024 "/>
<path d="M194.4142 20.2024 L193.1496 20.2024 "/>
<path d="M193.1496 20.2024 L192.6438 20.4553 "/>
<path d="M192.6438 20.4553 L192.3909 20.7082 "/>
<path d="M192.3909 20.7082 L192.1380 21.2140 "/>
<path d="M192.1380 21.2140 L192.1380 21.7199 "/>
<path d="M192.1380 21.7199 L192.3909 22.4786 "/>
<path d="M192.3909 22.4786 L195.4259 25.5136 "/>
<path d="M195.4259 25.5136 L192.1380 25.5136 "/>
<path d="M188.8501 20.2024 L188.3443 20.2024 "/>
<path d="M188.3443 20.2024 L187.8385 20.4553 "/>
<path d="M187.8385 20.4553 L187.5856 20.7082 "/>
<path d="M187.5856 20.7082 L187.3326 21.2140 "/>
<path d="M187.3326 21.2140 L187.0797 22.2257 "/>
<path d="M187.0797 22.2257 L187.0797 23.4902 "/>
<path d="M187.0797 23.4902 L187.3326 24.5019 "/>
<path d="M187.3326 24.5019 L187.5856 25.0077 "/>
<path d="M187.5856 25.0077 L187.8385 25.2606 "/>
<path d="M187.8385 25.2606 L188.3443 25.5136 "/>
<path d="M188.3443 25.5136 L188.8501 25.5136 "/>
<path d="M188.8501 25.5136 L189.3559 25.2606 "/>
<path d="M189.3559 25.2606 L189.6089 25.0077 "/>
<path d="M189.6089 25.0077 L189.8618 24.5019 "/>
<path d="M189.8618 24.5019 L190.1147 23.4902 "/>
<path d="M190.1147 23.4902 L190.1147 22.2257 "/>
<path d="M190.1147 22.2257 L189.8618 21.2140 "/>
<path d="M189.8618 21.2140 L189.6089 20.7082 "/>
<path d="M189.6089 20.7082 L189.3559 20.4553 "/>
<path d="M189.3559 20.4553 L188.8501 20.2024 "/>
<path d="M183.7919 20.2024 L183.2860 20.2024 "/>
<path d="M183.2860 20.2024 L182.7802 20.4553 "/>
<path d="M182.7802 20.4553 L182.5273 20.7082 "/>
<path d="M182.5273 20.7082 L182.2744 21.2140 "/>
<path d="M182.2744 21.2140 L182.0215 22.2257 "/>
<path d="M182.0215 22.2257 L182.0215 23.4902 "/>
<path d="M182.0215 23.4902 L182.2744 24.5019 "/>
<path d="M182.2744 24.5019 L182.5273 25.0077 "/>
<path d="M182.5273 25.0077 L182.7802 25.2606 "/>
<path d="M182.7802 25.2606 L183.2860 25.5136 "/>
<path d="M183.2860 25.5136 L183.7919 25.5136 "/>
<path d="M183.7919 25.5136 L184.2977 25.2606 "/>
<path d="M184.2977 25.2606 L184.5506 25.0077 "/>
<path d="M184.5506 25.0077 L184.8035 24.5019 "/>
<path d="M184.8035 24.5019 L185.0564 23.4902 "/>
<path d="M185.0564 23.4902 L185.0564 22.2257 "/>
<path d="M185.0564 22.2257 L184.8035 21.2140 "/>
<path d="M184.8035 21.2140 L184.5506 20.7082 "/>
<path d="M184.5506 20.7082 L184.2977 20.4553 "/>
<path d="M184.2977 20.4553 L183.7919 20.2024 "/>
<path d="M175.6986 25.5136 L175.6986 21.9728 "/>
<path d="M175.6986 22.4786 L175.4457 22.2257 "/>
<path d="M175.4457 22.2257 L174.9399 21.9728 "/>
<path d="M174.9399 21.9728 L174.1811 21.9728 "/>
<path d="M174.1811 21.9728 L173.6753 22.2257 "/>
<path d="M173.6753 22.2257 L173.4224 22.7315 "/>
<path d="M173.4224 22.7315 L173.4224 25.5136 "/>
<path d="M173.4224 22.7315 L173.1695 22.2257 "/>
<path d="M173.1695 22.2257 L172.6637 21.9728 "/>
<path d="M172.6637 21.9728 L171.9049 21.9728 "/>
<path d="M171.9049 21.9728 L171.3991 22.2257 "/>
<path d="M171.3991 22.2257 L171.1462 22.7315 "/>
<path d="M171.1462 22.7315 L171.1462 25.5136 "/>
<path d="M168.6171 25.5136 L168.6171 21.9728 "/>
<path d="M168.6171 22.4786 L168.3641 22.2257 "/>
<path d="M168.3641 22.2257 L167.8583 21.9728 "/>
<path d="M167.8583 21.9728 L167.0996 21.9728 "/>
<path d="M167.0996 21.9728 L166.5938 22.2257 "/>
<path d="M166.5938 22.2257 L166.3408 22.7315 "/>
<path d="M166.3408 22.7315 L166.3408 25.5136 "/>
<path d="M166.3408 22.7315 L166.0879 22.2257 "/>
<path d="M166.0879 22.2257 L165.5821 21.9728 "/>
<path d="M165.5821 21.9728 L164.8234 21.9728 "/>
<path d="M164.8234 21.9728 L164.3175 22.2257 "/>
<path d="M164.3175 22.2257 L164.0646 22.7315 "/>
<path d="M164.0646 22.7315 L164.0646 25.5136 "/>
</g></g>
<g style="fill:#848484; fill-opacity:0.0;  stroke:#848484; stroke-width:0.5311; stroke-opacity:1;  stroke-linecap:round; stroke-linejoin:round;">
<path d="M242.3059 73.3948 L242.3059 26.0912 "/>
<path d="M134.3827 73.3948 L134.3827 26.0912 "/>
<path d="M242.3059 29.2058 L134.3827 29.2058 "/>
<path d="M242.3059 29.2058 L134.3827 29.2058 "/>
<path d="M242.3059 29.2058 L236.3228 26.0912 "/>
<path d="M242.3059 29.2058 L236.3228 32.3204 "/>
<path d="M134.3827 29.2058 L140.3658 32.3204 "/>
<path d="M134.3827 29.2058 L140.3658 26.0912 "/>
</g>
<g style="fill:#848484; fill-opacity:0.01;  stroke:#848484; stroke-width:0.7967; stroke-opacity:1;  stroke-linecap:round; stroke-linejoin:round;">
<g transform="rotate(-90.000000 133.2143 125.8161)">
<text x="133.2143" y="128.4717" textLength="15.7439" font-size="7.0816" lengthAdjust="spacingAndGlyphs" text-anchor="middle" opacity="0.01" style="font-family:monospace">JP4</text>
</g>
<g class="stroked-text"><desc>JP4</desc>
<path d="M136.1098 130.2421 L132.3161 130.2421 "/>
<path d="M132.3161 130.2421 L131.5574 130.4950 "/>
<path d="M131.5574 130.4950 L131.0516 131.0008 "/>
<path d="M131.0516 131.0008 L130.7986 131.7596 "/>
<path d="M130.7986 131.7596 L130.7986 132.2654 "/>
<path d="M130.7986 127.7130 L136.1098 127.7130 "/>
<path d="M136.1098 127.7130 L136.1098 125.6897 "/>
<path d="M136.1098 125.6897 L135.8569 125.1838 "/>
<path d="M135.8569 125.1838 L135.6040 124.9309 "/>
<path d="M135.6040 124.9309 L135.0982 124.6780 "/>
<path d="M135.0982 124.6780 L134.3394 124.6780 "/>
<path d="M134.3394 124.6780 L133.8336 124.9309 "/>
<path d="M133.8336 124.9309 L133.5807 125.1838 "/>
<path d="M133.5807 125.1838 L133.3278 125.6897 "/>
<path d="M133.3278 125.6897 L133.3278 127.7130 "/>
<path d="M134.3394 120.1256 L130.7986 120.1256 "/>
<path d="M136.3627 121.3901 L132.5690 122.6547 "/>
<path d="M132.5690 122.6547 L132.5690 119.3668 "/>
</g><g transform="rotate(-90.000000 247.2453 128.5248)">
<text x="247.2453" y="131.1804" textLength="10.4327" font-size="7.0816" lengthAdjust="spacingAndGlyphs" text-anchor="middle" opacity="0.01" style="font-family:monospace">J2</text>
</g>
<g class="stroked-text"><desc>J2</desc>
<path d="M250.1408 130.2952 L246.3471 130.2952 "/>
<path d="M246.3471 130.2952 L245.5884 130.5481 "/>
<path d="M245.5884 130.5481 L245.0825 131.0539 "/>
<path d="M245.0825 131.0539 L244.8296 131.8127 "/>
<path d="M244.8296 131.8127 L244.8296 132.3185 "/>
<path d="M249.6350 128.0190 L249.8879 127.7661 "/>
<path d="M249.8879 127.7661 L250.1408 127.2602 "/>
<path d="M250.1408 127.2602 L250.1408 125.9957 "/>
<path d="M250.1408 125.9957 L249.8879 125.4899 "/>
<path d="M249.8879 125.4899 L249.6350 125.2369 "/>
<path d="M249.6350 125.2369 L249.1292 124.9840 "/>
<path d="M249.1292 124.9840 L248.6233 124.9840 "/>
<path d="M248.6233 124.9840 L247.8646 125.2369 "/>
<path d="M247.8646 125.2369 L244.8296 128.2719 "/>
<path d="M244.8296 128.2719 L244.8296 124.9840 "/>
</g><g transform="rotate(-90.000000 198.2762 75.1209)">
<text x="198.2762" y="77.7765" textLength="15.7439" font-size="7.0816" lengthAdjust="spacingAndGlyphs" text-anchor="middle" opacity="0.01" style="font-family:monospace">JP2</text>
</g>
<g class="stroked-text"><desc>JP2</desc>
<path d="M201.1718 79.5469 L197.3781 79.5469 "/>
<path d="M197.3781 79.5469 L196.6193 79.7998 "/>
<path d="M196.6193 79.7998 L196.1135 80.3056 "/>
<path d="M196.1135 80.3056 L195.8606 81.0644 "/>
<path d="M195.8606 81.0644 L195.8606 81.5702 "/>
<path d="M195.8606 77.0178 L201.1718 77.0178 "/>
<path d="M201.1718 77.0178 L201.1718 74.9945 "/>
<path d="M201.1718 74.9945 L200.9188 74.4886 "/>
<path d="M200.9188 74.4886 L200.6659 74.2357 "/>
<path d="M200.6659 74.2357 L200.1601 73.9828 "/>
<path d="M200.1601 73.9828 L199.4014 73.9828 "/>
<path d="M199.4014 73.9828 L198.8955 74.2357 "/>
<path d="M198.8955 74.2357 L198.6426 74.4886 "/>
<path d="M198.6426 74.4886 L198.3897 74.9945 "/>
<path d="M198.3897 74.9945 L198.3897 77.0178 "/>
<path d="M200.6659 71.9595 L200.9188 71.7066 "/>
<path d="M200.9188 71.7066 L201.1718 71.2008 "/>
<path d="M201.1718 71.2008 L201.1718 69.9362 "/>
<path d="M201.1718 69.9362 L200.9188 69.4304 "/>
<path d="M200.9188 69.4304 L200.6659 69.1775 "/>
<path d="M200.6659 69.1775 L200.1601 68.9245 "/>
<path d="M200.1601 68.9245 L199.6543 68.9245 "/>
<path d="M199.6543 68.9245 L198.8955 69.1775 "/>
<path d="M198.8955 69.1775 L195.8606 72.2124 "/>
<path d="M195.8606 72.2124 L195.8606 68.9245 "/>
</g><text x="183.8564" y="191.4623" textLength="10.4327" font-size="7.0816" lengthAdjust="spacingAndGlyphs" text-anchor="middle" opacity="0.01" style="font-family:monospace">J5</text>
<g class="stroked-text"><desc>J5</desc>
<path d="M185.6267 185.9111 L185.6267 189.7048 "/>
<path d="M185.6267 189.7048 L185.8797 190.4636 "/>
<path d="M185.8797 190.4636 L186.3855 190.9694 "/>
<path d="M186.3855 190.9694 L187.1442 191.2223 "/>
<path d="M187.1442 191.2223 L187.6501 191.2223 "/>
<path d="M180.5685 185.9111 L183.0976 185.9111 "/>
<path d="M183.0976 185.9111 L183.3505 188.4403 "/>
<path d="M183.3505 188.4403 L183.0976 188.1874 "/>
<path d="M183.0976 188.1874 L182.5918 187.9344 "/>
<path d="M182.5918 187.9344 L181.3272 187.9344 "/>
<path d="M181.3272 187.9344 L180.8214 188.1874 "/>
<path d="M180.8214 188.1874 L180.5685 188.4403 "/>
<path d="M180.5685 188.4403 L180.3156 188.9461 "/>
<path d="M180.3156 188.9461 L180.3156 190.2107 "/>
<path d="M180.3156 190.2107 L180.5685 190.7165 "/>
<path d="M180.5685 190.7165 L180.8214 190.9694 "/>
<path d="M180.8214 190.9694 L181.3272 191.2223 "/>
<path d="M181.3272 191.2223 L182.5918 191.2223 "/>
<path d="M182.5918 191.2223 L183.0976 190.9694 "/>
<path d="M183.0976 190.9694 L183.3505 190.7165 "/>
</g><g transform="rotate(-90.000000 184.7858 75.1209)">
<text x="184.7858" y="77.7765" textLength="15.7439" font-size="7.0816" lengthAdjust="spacingAndGlyphs" text-anchor="middle" opacity="0.01" style="font-family:monospace">JP1</text>
</g>
<g class="stroked-text"><desc>JP1</desc>
<path d="M187.6814 79.5469 L183.8877 79.5469 "/>
<path d="M183.8877 79.5469 L183.1289 79.7998 "/>
<path d="M183.1289 79.7998 L182.6231 80.3056 "/>
<path d="M182.6231 80.3056 L182.3702 81.0644 "/>
<path d="M182.3702 81.0644 L182.3702 81.5702 "/>
<path d="M182.3702 77.0178 L187.6814 77.0178 "/>
<path d="M187.6814 77.0178 L187.6814 74.9945 "/>
<path d="M187.6814 74.9945 L187.4284 74.4886 "/>
<path d="M187.4284 74.4886 L187.1755 74.2357 "/>
<path d="M187.1755 74.2357 L186.6697 73.9828 "/>
<path d="M186.6697 73.9828 L185.9110 73.9828 "/>
<path d="M185.9110 73.9828 L185.4051 74.2357 "/>
<path d="M185.4051 74.2357 L185.1522 74.4886 "/>
<path d="M185.1522 74.4886 L184.8993 74.9945 "/>
<path d="M184.8993 74.9945 L184.8993 77.0178 "/>
<path d="M182.3702 68.9245 L182.3702 71.9595 "/>
<path d="M182.3702 70.4420 L187.6814 70.4420 "/>
<path d="M187.6814 70.4420 L186.9226 70.9478 "/>
<path d="M186.9226 70.9478 L186.4168 71.4537 "/>
<path d="M186.4168 71.4537 L186.1639 71.9595 "/>
</g><text x="183.8564" y="164.4815" textLength="10.4327" font-size="7.0816" lengthAdjust="spacingAndGlyphs" text-anchor="middle" opacity="0.01" style="font-family:monospace">J6</text>
<g class="stroked-text"><desc>J6</desc>
<path d="M185.6267 158.9304 L185.6267 162.7240 "/>
<path d="M185.6267 162.7240 L185.8797 163.4828 "/>
<path d="M185.8797 163.4828 L186.3855 163.9886 "/>
<path d="M186.3855 163.9886 L187.1442 164.2415 "/>
<path d="M187.1442 164.2415 L187.6501 164.2415 "/>
<path d="M180.8214 158.9304 L181.8330 158.9304 "/>
<path d="M181.8330 158.9304 L182.3389 159.1833 "/>
<path d="M182.3389 159.1833 L182.5918 159.4362 "/>
<path d="M182.5918 159.4362 L183.0976 160.1949 "/>
<path d="M183.0976 160.1949 L183.3505 161.2066 "/>
<path d="M183.3505 161.2066 L183.3505 163.2299 "/>
<path d="M183.3505 163.2299 L183.0976 163.7357 "/>
<path d="M183.0976 163.7357 L182.8447 163.9886 "/>
<path d="M182.8447 163.9886 L182.3389 164.2415 "/>
<path d="M182.3389 164.2415 L181.3272 164.2415 "/>
<path d="M181.3272 164.2415 L180.8214 163.9886 "/>
<path d="M180.8214 163.9886 L180.5685 163.7357 "/>
<path d="M180.5685 163.7357 L180.3156 163.2299 "/>
<path d="M180.3156 163.2299 L180.3156 161.9653 "/>
<path d="M180.3156 161.9653 L180.5685 161.4595 "/>
<path d="M180.5685 161.4595 L180.8214 161.2066 "/>
<path d="M180.8214 161.2066 L181.3272 160.9537 "/>
<path d="M181.3272 160.9537 L182.3389 160.9537 "/>
<path d="M182.3389 160.9537 L182.8447 161.2066 "/>
<path d="M182.8447 161.2066 L183.0976 161.4595 "/>
<path d="M183.0976 161.4595 L183.3505 161.9653 "/>
</g></g>
<g style="fill:#848484; fill-opacity:0.0;  stroke:#848484; stroke-width:0.5311; stroke-opacity:1;  stroke-linecap:round; stroke-linejoin:round;">
<path d="M139.9595 108.9531 L136.5869 105.5805 "/>
<path d="M139.9595 146.0517 L139.9595 108.9531 "/>
<path d="M136.5869 105.5805 L126.4691 105.5805 "/>
<path d="M126.4691 105.5805 L126.4691 146.0517 "/>
<path d="M126.4691 146.0517 L139.9595 146.0517 "/>
<path d="M260.7357 115.0344 L253.9905 108.2892 "/>
<path d="M260.7357 148.7604 L260.7357 115.0344 "/>
<path d="M253.9905 108.2892 L233.7549 108.2892 "/>
<path d="M233.7549 108.2892 L233.7549 148.7604 "/>
<path d="M233.7549 148.7604 L260.7357 148.7604 "/>
</g>
<g style="fill:#848484; fill-opacity:0.0;  stroke:#848484; stroke-width:2.0236; stroke-opacity:1;  stroke-linecap:round; stroke-linejoin:round;">
<circle cx="242.3059" cy="183.9735" r="15.9322"/> 
<circle cx="134.3827" cy="183.9735" r="15.9322"/> 
</g>
<g style="fill:#848484; fill-opacity:0.0;  stroke:#848484; stroke-width:0.5311; stroke-opacity:1;  stroke-linecap:round; stroke-linejoin:round;">
<path d="M205.0214 65.0031 L201.6488 61.6305 "/>
<path d="M205.0214 88.6113 L205.0214 65.0031 "/>
<path d="M201.6488 61.6305 L191.5310 61.6305 "/>
<path d="M191.5310 61.6305 L191.5310 88.6113 "/>
<path d="M191.5310 88.6113 L205.0214 88.6113 "/>
</g>
<g style="fill:#848484; fill-opacity:0.0;  stroke:#848484; stroke-width:2.0236; stroke-opacity:1;  stroke-linecap:round; stroke-linejoin:round;">
<circle cx="134.3827" cy="76.0504" r="15.9322"/> 
</g>
<g style="fill:#848484; fill-opacity:0.0;  stroke:#848484; stroke-width:0.5311; stroke-opacity:1;  stroke-linecap:round; stroke-linejoin:round;">
<path d="M197.3467 202.2971 L204.0919 195.5519 "/>
<path d="M163.6208 202.2971 L197.3467 202.2971 "/>
<path d="M204.0919 195.5519 L204.0919 175.3163 "/>
<path d="M204.0919 175.3163 L163.6208 175.3163 "/>
<path d="M163.6208 175.3163 L163.6208 202.2971 "/>
<path d="M191.5310 65.0031 L188.1584 61.6305 "/>
<path d="M191.5310 88.6113 L191.5310 65.0031 "/>
<path d="M188.1584 61.6305 L178.0406 61.6305 "/>
<path d="M178.0406 61.6305 L178.0406 88.6113 "/>
<path d="M178.0406 88.6113 L191.5310 88.6113 "/>
</g>
<g style="fill:#848484; fill-opacity:0.0;  stroke:#848484; stroke-width:2.0236; stroke-opacity:1;  stroke-linecap:round; stroke-linejoin:round;">
<circle cx="242.3059" cy="76.0504" r="15.9322"/> 
</g>
<g style="fill:#848484; fill-opacity:0.0;  stroke:#848484; stroke-width:0.5311; stroke-opacity:1;  stroke-linecap:round; stroke-linejoin:round;">
<path d="M197.3467 175.3163 L204.0919 168.5711 "/>
<path d="M163.6208 175.3163 L197.3467 175.3163 "/>
<path d="M204.0919 168.5711 L204.0919 148.3355 "/>
<path d="M204.0919 148.3355 L163.6208 148.3355 "/>
<path d="M163.6208 148.3355 L163.6208 175.3163 "/>
<g>
</g>
<g>
</g>
<g>
</g>
<g>
</g>
<g>
</g>
<g>
</g>
<g>
</g>
<g>
</g>
<g>
</g>
<g>
</g>
<g>
</g>
<g>
</g>
<g>
</g>
<g>
</g>
<g>
</g>
<g>
</g>
<g>
</g>
<g>
</g>
<g>
</g>
<g>
</g>
<g>
</g>
<g>
</g>
<g>
</g>
<g>
</g>
<g>
</g>
<g>
</g>
</g> 
<svg:g><svg:g><svg:title>SVG Image created as STEPBUBODC01-Edge_Cuts.svg date 2023/09/20 21:01:25 </svg:title>
  <svg:desc>Image generated by PCBNEW </svg:desc>
<svg:g style="fill:#C2C200; fill-opacity:1.0000;stroke:#C2C200; stroke-opacity:1.0000; stroke-linecap:round; stroke-linejoin:round;" transform="translate(0 0) scale(1 1)">
</svg:g>
<svg:g style="fill:#C2C200; fill-opacity:0.0;  stroke:#C2C200; stroke-width:0.0000; stroke-opacity:1;  stroke-linecap:round; stroke-linejoin:round;">
</svg:g>
<svg:g style="fill:#C2C200; fill-opacity:0.0;  stroke:#C2C200; stroke-width:0.7967; stroke-opacity:1;  stroke-linecap:round; stroke-linejoin:round;">
<svg:path style="fill:#C2C200; fill-opacity:0.0;  stroke:#C2C200; stroke-width:0.7967; stroke-opacity:1;  stroke-linecap:round; stroke-linejoin:round;fill:none" d="M 267.9376,50.4186 108.7510,50.4186 108.7510,209.6053 267.9376,209.6053 Z"/> 
<svg:g>
</svg:g>
<svg:g>
</svg:g>
<svg:g>
</svg:g>
<svg:g>
</svg:g>
<svg:g>
</svg:g>
<svg:g>
</svg:g>
<svg:g>
</svg:g>
<svg:g>
</svg:g>
<svg:g>
</svg:g>
<svg:g>
</svg:g>
<svg:g>
</svg:g>
<svg:g>
</svg:g>
<svg:g>
</svg:g>
<svg:g>
</svg:g>
<svg:g>
</svg:g>
<svg:g>
</svg:g>
<svg:g>
</svg:g>
<svg:g>
</svg:g>
<svg:g>
</svg:g>
<svg:g>
</svg:g>
<svg:g>
</svg:g>
<svg:g>
</svg:g>
<svg:g>
</svg:g>
<svg:g>
</svg:g>
<svg:g>
</svg:g>
<svg:g>
</svg:g>
</svg:g> 
</svg:g></svg:g></svg>
