%TF.GenerationSoftware,KiCad,Pcbnew,7.0.7-7.0.7~ubuntu23.04.1*%
%TF.CreationDate,2023-09-24T08:52:34+00:00*%
%TF.ProjectId,STEPBUBODC01,53544550-4255-4424-9f44-4330312e6b69,rev?*%
%TF.SameCoordinates,Original*%
%TF.FileFunction,Soldermask,Bot*%
%TF.FilePolarity,Negative*%
%FSLAX46Y46*%
G04 Gerber Fmt 4.6, Leading zero omitted, Abs format (unit mm)*
G04 Created by KiCad (PCBNEW 7.0.7-7.0.7~ubuntu23.04.1) date 2023-09-24 08:52:34*
%MOMM*%
%LPD*%
G01*
G04 APERTURE LIST*
G04 Aperture macros list*
%AMRoundRect*
0 Rectangle with rounded corners*
0 $1 Rounding radius*
0 $2 $3 $4 $5 $6 $7 $8 $9 X,Y pos of 4 corners*
0 Add a 4 corners polygon primitive as box body*
4,1,4,$2,$3,$4,$5,$6,$7,$8,$9,$2,$3,0*
0 Add four circle primitives for the rounded corners*
1,1,$1+$1,$2,$3*
1,1,$1+$1,$4,$5*
1,1,$1+$1,$6,$7*
1,1,$1+$1,$8,$9*
0 Add four rect primitives between the rounded corners*
20,1,$1+$1,$2,$3,$4,$5,0*
20,1,$1+$1,$4,$5,$6,$7,0*
20,1,$1+$1,$6,$7,$8,$9,0*
20,1,$1+$1,$8,$9,$2,$3,0*%
G04 Aperture macros list end*
%ADD10RoundRect,0.200000X-0.850000X-0.850000X0.850000X-0.850000X0.850000X0.850000X-0.850000X0.850000X0*%
%ADD11O,2.100000X2.100000*%
%ADD12C,6.400000*%
%ADD13RoundRect,0.200000X0.850000X-0.850000X0.850000X0.850000X-0.850000X0.850000X-0.850000X-0.850000X0*%
%ADD14RoundRect,0.450000X0.262500X0.450000X-0.262500X0.450000X-0.262500X-0.450000X0.262500X-0.450000X0*%
%ADD15RoundRect,0.450000X-0.262500X-0.450000X0.262500X-0.450000X0.262500X0.450000X-0.262500X0.450000X0*%
%ADD16RoundRect,0.450000X0.450000X-0.262500X0.450000X0.262500X-0.450000X0.262500X-0.450000X-0.262500X0*%
%ADD17RoundRect,0.450000X-0.250000X-0.475000X0.250000X-0.475000X0.250000X0.475000X-0.250000X0.475000X0*%
%ADD18RoundRect,0.450000X-0.650000X1.000000X-0.650000X-1.000000X0.650000X-1.000000X0.650000X1.000000X0*%
%ADD19RoundRect,0.450000X0.475000X-0.250000X0.475000X0.250000X-0.475000X0.250000X-0.475000X-0.250000X0*%
%ADD20RoundRect,0.200000X-0.150000X-0.335000X0.150000X-0.335000X0.150000X0.335000X-0.150000X0.335000X0*%
%ADD21RoundRect,0.450000X-0.450000X0.262500X-0.450000X-0.262500X0.450000X-0.262500X0.450000X0.262500X0*%
%ADD22C,2.000000*%
%ADD23RoundRect,0.450000X-0.375000X-0.850000X0.375000X-0.850000X0.375000X0.850000X-0.375000X0.850000X0*%
G04 APERTURE END LIST*
D10*
%TO.C,JP4*%
X30700000Y23650000D03*
D11*
X30700000Y21110000D03*
X30700000Y18570000D03*
%TD*%
D10*
%TO.C,J2*%
X7960000Y23140000D03*
D11*
X10500000Y23140000D03*
X7960000Y20600000D03*
X10500000Y20600000D03*
X7960000Y18060000D03*
X10500000Y18060000D03*
%TD*%
D12*
%TO.C,H3*%
X10160001Y10160000D03*
%TD*%
%TO.C,H4*%
X30480001Y10160000D03*
%TD*%
D10*
%TO.C,JP2*%
X18450000Y31925000D03*
D11*
X18450000Y29385000D03*
%TD*%
D12*
%TO.C,H2*%
X30480001Y30480000D03*
%TD*%
D13*
%TO.C,J5*%
X18625000Y7980000D03*
D11*
X18625000Y10520000D03*
X21165000Y7980000D03*
X21165000Y10520000D03*
X23705000Y7980000D03*
X23705000Y10520000D03*
%TD*%
D10*
%TO.C,JP1*%
X20990000Y31925000D03*
D11*
X20990000Y29385000D03*
%TD*%
D12*
%TO.C,H1*%
X10160001Y30480000D03*
%TD*%
D13*
%TO.C,J6*%
X18625000Y13060000D03*
D11*
X18625000Y15600000D03*
X21165000Y13060000D03*
X21165000Y15600000D03*
X23705000Y13060000D03*
X23705000Y15600000D03*
%TD*%
D14*
%TO.C,R4*%
X19900000Y26300000D03*
X18075000Y26300000D03*
%TD*%
D15*
%TO.C,R5*%
X14575000Y26300000D03*
X16400000Y26300000D03*
%TD*%
D16*
%TO.C,R2*%
X27850000Y21625000D03*
X27850000Y23450000D03*
%TD*%
D17*
%TO.C,C3*%
X23750000Y20175000D03*
X25650000Y20175000D03*
%TD*%
D18*
%TO.C,D1*%
X14450000Y20900000D03*
X14450000Y16900000D03*
%TD*%
D19*
%TO.C,C2*%
X22650000Y21925000D03*
X22650000Y23825000D03*
%TD*%
D20*
%TO.C,U1*%
X20878000Y21631000D03*
X20378000Y21631000D03*
X19878000Y21631000D03*
X19378000Y21631000D03*
X19378000Y23111000D03*
X19878000Y23111000D03*
X20378000Y23111000D03*
X20878000Y23111000D03*
%TD*%
D21*
%TO.C,R3*%
X27850000Y19925000D03*
X27850000Y18100000D03*
%TD*%
D19*
%TO.C,C1*%
X17588000Y21800000D03*
X17588000Y23700000D03*
%TD*%
D22*
%TO.C,FID1*%
X15000000Y14000000D03*
%TD*%
D16*
%TO.C,R1*%
X25450000Y22000000D03*
X25450000Y23825000D03*
%TD*%
D22*
%TO.C,FID2*%
X25000000Y28000000D03*
%TD*%
D23*
%TO.C,L1*%
X19053000Y19577000D03*
X21203000Y19577000D03*
%TD*%
M02*
