%TF.GenerationSoftware,KiCad,Pcbnew,7.0.5.1-1-g8f565ef7f0-dirty-deb11*%
%TF.CreationDate,2023-07-20T11:06:55+00:00*%
%TF.ProjectId,STEPBUBODC01,53544550-4255-4424-9f44-4330312e6b69,rev?*%
%TF.SameCoordinates,Original*%
%TF.FileFunction,Copper,L2,Bot*%
%TF.FilePolarity,Positive*%
%FSLAX46Y46*%
G04 Gerber Fmt 4.6, Leading zero omitted, Abs format (unit mm)*
G04 Created by KiCad (PCBNEW 7.0.5.1-1-g8f565ef7f0-dirty-deb11) date 2023-07-20 11:06:55*
%MOMM*%
%LPD*%
G01*
G04 APERTURE LIST*
G04 Aperture macros list*
%AMRoundRect*
0 Rectangle with rounded corners*
0 $1 Rounding radius*
0 $2 $3 $4 $5 $6 $7 $8 $9 X,Y pos of 4 corners*
0 Add a 4 corners polygon primitive as box body*
4,1,4,$2,$3,$4,$5,$6,$7,$8,$9,$2,$3,0*
0 Add four circle primitives for the rounded corners*
1,1,$1+$1,$2,$3*
1,1,$1+$1,$4,$5*
1,1,$1+$1,$6,$7*
1,1,$1+$1,$8,$9*
0 Add four rect primitives between the rounded corners*
20,1,$1+$1,$2,$3,$4,$5,0*
20,1,$1+$1,$4,$5,$6,$7,0*
20,1,$1+$1,$6,$7,$8,$9,0*
20,1,$1+$1,$8,$9,$2,$3,0*%
G04 Aperture macros list end*
%TA.AperFunction,ComponentPad*%
%ADD10R,1.524000X1.524000*%
%TD*%
%TA.AperFunction,ComponentPad*%
%ADD11C,6.000000*%
%TD*%
%TA.AperFunction,SMDPad,CuDef*%
%ADD12R,0.889000X1.397000*%
%TD*%
%TA.AperFunction,SMDPad,CuDef*%
%ADD13R,1.397000X0.889000*%
%TD*%
%TA.AperFunction,SMDPad,CuDef*%
%ADD14R,0.300000X0.475000*%
%TD*%
%TA.AperFunction,SMDPad,CuDef*%
%ADD15RoundRect,0.250000X-0.375000X-0.850000X0.375000X-0.850000X0.375000X0.850000X-0.375000X0.850000X0*%
%TD*%
%TA.AperFunction,ViaPad*%
%ADD16C,0.800000*%
%TD*%
%TA.AperFunction,Conductor*%
%ADD17C,0.508000*%
%TD*%
%TA.AperFunction,Conductor*%
%ADD18C,0.250000*%
%TD*%
%TA.AperFunction,Conductor*%
%ADD19C,0.400000*%
%TD*%
G04 APERTURE END LIST*
D10*
%TO.P,J4,1*%
%TO.N,Net-(J4-Pad1)*%
X149860000Y-76200000D03*
%TO.P,J4,2*%
%TO.N,/FB*%
X147320000Y-76200000D03*
%TO.P,J4,3*%
%TO.N,Net-(J4-Pad3)*%
X144780000Y-76200000D03*
%TD*%
%TO.P,J2,1*%
%TO.N,GND*%
X125730000Y-83820000D03*
%TO.P,J2,2*%
X128270000Y-83820000D03*
%TO.P,J2,3*%
%TO.N,Net-(F1-Pad1)*%
X125730000Y-86360000D03*
%TO.P,J2,4*%
X128270000Y-86360000D03*
%TO.P,J2,5*%
%TO.N,GND*%
X125730000Y-88900000D03*
%TO.P,J2,6*%
X128270000Y-88900000D03*
%TD*%
D11*
%TO.P,H3,1,1*%
%TO.N,GND*%
X127000000Y-96520000D03*
%TD*%
%TO.P,H4,1,1*%
%TO.N,GND*%
X157480000Y-76200000D03*
%TD*%
D10*
%TO.P,J1,1*%
%TO.N,GND*%
X139700000Y-76200000D03*
%TO.P,J1,2*%
%TO.N,/en*%
X137160000Y-76200000D03*
%TO.P,J1,3*%
%TO.N,/V_in*%
X134620000Y-76200000D03*
%TD*%
%TO.P,J3,1*%
%TO.N,GND*%
X139700000Y-96520000D03*
%TO.P,J3,2*%
%TO.N,/mod*%
X137160000Y-96520000D03*
%TO.P,J3,3*%
%TO.N,/V_in*%
X134620000Y-96520000D03*
%TD*%
D11*
%TO.P,H2,1,1*%
%TO.N,GND*%
X157480000Y-96520000D03*
%TD*%
D10*
%TO.P,J5,1*%
%TO.N,GND*%
X149860000Y-95250000D03*
%TO.P,J5,2*%
X149860000Y-97790000D03*
%TO.P,J5,3*%
%TO.N,/V_out*%
X147320000Y-95250000D03*
%TO.P,J5,4*%
X147320000Y-97790000D03*
%TO.P,J5,5*%
%TO.N,GND*%
X144780000Y-95250000D03*
%TO.P,J5,6*%
X144780000Y-97790000D03*
%TD*%
D11*
%TO.P,H1,1,1*%
%TO.N,GND*%
X127000000Y-76200000D03*
%TD*%
D10*
%TO.P,J6,1*%
%TO.N,GND*%
X156210000Y-83820000D03*
%TO.P,J6,2*%
X158750000Y-83820000D03*
%TO.P,J6,3*%
%TO.N,/V_out*%
X156210000Y-86360000D03*
%TO.P,J6,4*%
X158750000Y-86360000D03*
%TO.P,J6,5*%
%TO.N,GND*%
X156210000Y-88900000D03*
%TO.P,J6,6*%
X158750000Y-88900000D03*
%TD*%
D12*
%TO.P,R2,1*%
%TO.N,/V_out*%
X146494500Y-78994000D03*
%TO.P,R2,2*%
%TO.N,Net-(J4-Pad3)*%
X144589500Y-78994000D03*
%TD*%
D13*
%TO.P,C3,1*%
%TO.N,/V_out*%
X146558000Y-84518500D03*
%TO.P,C3,2*%
%TO.N,GND*%
X146558000Y-82613500D03*
%TD*%
%TO.P,C2,1*%
%TO.N,/V_out*%
X144526000Y-84518500D03*
%TO.P,C2,2*%
%TO.N,GND*%
X144526000Y-82613500D03*
%TD*%
D14*
%TO.P,U1,1,VOUT*%
%TO.N,/V_out*%
X142736000Y-84658000D03*
%TO.P,U1,2,LX2*%
%TO.N,Net-(L1-Pad2)*%
X142236000Y-84658000D03*
%TO.P,U1,3,LX1*%
%TO.N,Net-(L1-Pad1)*%
X141736000Y-84658000D03*
%TO.P,U1,4,VIN*%
%TO.N,/V_in*%
X141236000Y-84658000D03*
%TO.P,U1,5,EN*%
%TO.N,/en*%
X141236000Y-82982000D03*
%TO.P,U1,6,MODE*%
%TO.N,/mod*%
X141736000Y-82982000D03*
%TO.P,U1,7,GND*%
%TO.N,GND*%
X142236000Y-82982000D03*
%TO.P,U1,8,FB*%
%TO.N,/FB*%
X142736000Y-82982000D03*
%TD*%
D12*
%TO.P,R3,1*%
%TO.N,/V_out*%
X148145500Y-78994000D03*
%TO.P,R3,2*%
%TO.N,Net-(J4-Pad1)*%
X150050500Y-78994000D03*
%TD*%
D13*
%TO.P,C1,1*%
%TO.N,/V_in*%
X139446000Y-84518500D03*
%TO.P,C1,2*%
%TO.N,GND*%
X139446000Y-82613500D03*
%TD*%
%TO.P,R1,1*%
%TO.N,/FB*%
X142748000Y-80454500D03*
%TO.P,R1,2*%
%TO.N,GND*%
X142748000Y-78549500D03*
%TD*%
D15*
%TO.P,L1,1,1*%
%TO.N,Net-(L1-Pad1)*%
X140911000Y-86614000D03*
%TO.P,L1,2,2*%
%TO.N,Net-(L1-Pad2)*%
X143061000Y-86614000D03*
%TD*%
D16*
%TO.N,*%
X142240000Y-81788000D03*
%TO.N,/mod*%
X141228299Y-81275701D03*
%TD*%
D17*
%TO.N,/V_in*%
X139446000Y-85852000D02*
X139446000Y-84518500D01*
X134620000Y-90678000D02*
X139446000Y-85852000D01*
X134620000Y-96520000D02*
X134620000Y-90678000D01*
%TO.N,/V_out*%
X146558000Y-84518500D02*
X146558000Y-90424000D01*
X146558000Y-90424000D02*
X147320000Y-91186000D01*
X156210000Y-86360000D02*
X158750000Y-86360000D01*
D18*
X144386500Y-84658000D02*
X144526000Y-84518500D01*
D17*
X149542500Y-84518500D02*
X149542500Y-81724500D01*
X147320000Y-91186000D02*
X147320000Y-95250000D01*
X149542500Y-84518500D02*
X151384000Y-86360000D01*
X149542500Y-81724500D02*
X148145500Y-80327500D01*
X148145500Y-78994000D02*
X146494500Y-78994000D01*
X147320000Y-95250000D02*
X147320000Y-97790000D01*
X151384000Y-86360000D02*
X156210000Y-86360000D01*
X146558000Y-84518500D02*
X149542500Y-84518500D01*
X148145500Y-80327500D02*
X148145500Y-78994000D01*
D19*
%TO.N,/en*%
X140716000Y-82550000D02*
X140716000Y-81788000D01*
X137160000Y-78232000D02*
X137160000Y-76200000D01*
D18*
X141236000Y-82982000D02*
X141148000Y-82982000D01*
D19*
X140716000Y-81788000D02*
X137160000Y-78232000D01*
X141148000Y-82982000D02*
X140716000Y-82550000D01*
D17*
%TO.N,Net-(F1-Pad1)*%
X128270000Y-86360000D02*
X125730000Y-86360000D01*
D19*
%TO.N,/mod*%
X141736000Y-82444500D02*
X141736000Y-82982000D01*
D18*
X141228299Y-81275701D02*
X141478000Y-81525402D01*
D19*
X141478000Y-81525402D02*
X141478000Y-82186500D01*
X141478000Y-82186500D02*
X141736000Y-82444500D01*
D18*
%TO.N,Net-(J4-Pad1)*%
X150050500Y-76390500D02*
X149860000Y-76200000D01*
D19*
X150050500Y-78994000D02*
X150050500Y-76390500D01*
%TO.N,/FB*%
X143002000Y-82716000D02*
X142736000Y-82982000D01*
D18*
X142748000Y-80454500D02*
X143002000Y-80708500D01*
D19*
X145542000Y-77978000D02*
X145542000Y-80010000D01*
X145288000Y-80264000D02*
X144018000Y-80264000D01*
X145542000Y-80010000D02*
X145288000Y-80264000D01*
X144018000Y-80264000D02*
X143827500Y-80454500D01*
X143002000Y-80708500D02*
X143002000Y-82716000D01*
X143827500Y-80454500D02*
X142748000Y-80454500D01*
X147320000Y-76200000D02*
X145542000Y-77978000D01*
D18*
%TO.N,Net-(J4-Pad3)*%
X144589500Y-76390500D02*
X144780000Y-76200000D01*
D19*
X144589500Y-78994000D02*
X144589500Y-76390500D01*
D18*
%TO.N,Net-(L1-Pad1)*%
X140911000Y-86614000D02*
X141736000Y-85789000D01*
X141736000Y-85789000D02*
X141736000Y-84658000D01*
%TO.N,Net-(L1-Pad2)*%
X142236000Y-85789000D02*
X142236000Y-84658000D01*
X143061000Y-86614000D02*
X142236000Y-85789000D01*
%TD*%
%TA.AperFunction,Conductor*%
%TO.N,/V_out*%
G36*
X146793694Y-84282806D02*
G01*
X146812000Y-84327000D01*
X146812000Y-84710000D01*
X146793694Y-84754194D01*
X146749500Y-84772500D01*
X143434000Y-84772500D01*
X143416806Y-84789694D01*
X143372612Y-84808000D01*
X142703000Y-84808000D01*
X142658806Y-84789694D01*
X142640500Y-84745500D01*
X142640499Y-84570500D01*
X142658805Y-84526306D01*
X142702999Y-84508000D01*
X143279500Y-84508000D01*
X143279500Y-84327000D01*
X143297806Y-84282806D01*
X143342000Y-84264500D01*
X146749500Y-84264500D01*
X146793694Y-84282806D01*
G37*
%TD.AperFunction*%
%TD*%
%TA.AperFunction,Conductor*%
%TO.N,/V_in*%
G36*
X140674194Y-84282806D02*
G01*
X140692500Y-84327000D01*
X140692500Y-84508000D01*
X141269000Y-84508000D01*
X141313194Y-84526306D01*
X141331500Y-84570500D01*
X141331501Y-84745500D01*
X141313195Y-84789694D01*
X141269001Y-84808000D01*
X140599388Y-84808000D01*
X140555194Y-84789694D01*
X140538000Y-84772500D01*
X139254500Y-84772500D01*
X139210306Y-84754194D01*
X139192000Y-84710000D01*
X139192000Y-84327000D01*
X139210306Y-84282806D01*
X139254500Y-84264500D01*
X140630000Y-84264500D01*
X140674194Y-84282806D01*
G37*
%TD.AperFunction*%
%TD*%
M02*
