M48
; DRILL file {KiCad 7.0.7-7.0.7~ubuntu23.04.1} date Wed Sep 20 21:00:44 2023
; FORMAT={3:3/ absolute / metric / suppress leading zeros}
; #@! TF.CreationDate,2023-09-20T21:00:44+00:00
; #@! TF.GenerationSoftware,Kicad,Pcbnew,7.0.7-7.0.7~ubuntu23.04.1
; #@! TF.FileFunction,Plated,1,2,PTH
FMAT,2
METRIC,TZ
; #@! TA.AperFunction,Plated,PTH,ViaDrill
T1C0.400
; #@! TA.AperFunction,Plated,PTH,ComponentDrill
T2C1.000
; #@! TA.AperFunction,Plated,PTH,ComponentDrill
T3C3.000
%
G90
G05
T1
X15000Y18900
X16800Y24800
X17800Y24800
X21300Y25200
X22200Y25200
X24525Y22700
T2
X7960Y23140
X7960Y20600
X7960Y18060
X10500Y23140
X10500Y20600
X10500Y18060
X18450Y31925
X18450Y29385
X18625Y15600
X18625Y13060
X18625Y10520
X18625Y7980
X20990Y31925
X20990Y29385
X21165Y15600
X21165Y13060
X21165Y10520
X21165Y7980
X23705Y15600
X23705Y13060
X23705Y10520
X23705Y7980
X30700Y23650
X30700Y21110
X30700Y18570
T3
X10160Y30480
X10160Y10160
X30480Y30480
X30480Y10160
T0
M30
