%TF.GenerationSoftware,KiCad,Pcbnew,7.0.7-7.0.7~ubuntu23.04.1*%
%TF.CreationDate,2023-10-04T14:04:52+00:00*%
%TF.ProjectId,STEPBUBODC01,53544550-4255-4424-9f44-4330312e6b69,rev?*%
%TF.SameCoordinates,Original*%
%TF.FileFunction,Copper,L1,Top*%
%TF.FilePolarity,Positive*%
%FSLAX46Y46*%
G04 Gerber Fmt 4.6, Leading zero omitted, Abs format (unit mm)*
G04 Created by KiCad (PCBNEW 7.0.7-7.0.7~ubuntu23.04.1) date 2023-10-04 14:04:52*
%MOMM*%
%LPD*%
G01*
G04 APERTURE LIST*
%TA.AperFunction,ComponentPad*%
%ADD10R,1.700000X1.700000*%
%TD*%
%TA.AperFunction,ComponentPad*%
%ADD11O,1.700000X1.700000*%
%TD*%
%TA.AperFunction,ComponentPad*%
%ADD12C,6.000000*%
%TD*%
%TA.AperFunction,ViaPad*%
%ADD13C,0.800000*%
%TD*%
%TA.AperFunction,Conductor*%
%ADD14C,0.250000*%
%TD*%
G04 APERTURE END LIST*
D10*
%TO.P,JP4,1,A*%
%TO.N,/SEL_3v3*%
X30700000Y23650000D03*
D11*
%TO.P,JP4,2,C*%
%TO.N,/FB*%
X30700000Y21110000D03*
%TO.P,JP4,3,B*%
%TO.N,/SEL_5v*%
X30700000Y18570000D03*
%TD*%
D10*
%TO.P,J2,1*%
%TO.N,GND*%
X7960000Y23140000D03*
D11*
%TO.P,J2,2*%
X10500000Y23140000D03*
%TO.P,J2,3*%
%TO.N,/V_in*%
X7960000Y20600000D03*
%TO.P,J2,4*%
X10500000Y20600000D03*
%TO.P,J2,5*%
%TO.N,GND*%
X7960000Y18060000D03*
%TO.P,J2,6*%
X10500000Y18060000D03*
%TD*%
D12*
%TO.P,H3,1,1*%
%TO.N,GND*%
X10160001Y10160000D03*
%TD*%
%TO.P,H4,1,1*%
%TO.N,GND*%
X30480001Y10160000D03*
%TD*%
D10*
%TO.P,JP2,1,A*%
%TO.N,GND*%
X18450000Y31925000D03*
D11*
%TO.P,JP2,2,B*%
%TO.N,/en*%
X18450000Y29385000D03*
%TD*%
D12*
%TO.P,H2,1,1*%
%TO.N,GND*%
X30480001Y30480000D03*
%TD*%
D10*
%TO.P,J5,1*%
%TO.N,GND*%
X18625000Y7980000D03*
D11*
%TO.P,J5,2*%
X18625000Y10520000D03*
%TO.P,J5,3*%
%TO.N,/V_out*%
X21165000Y7980000D03*
%TO.P,J5,4*%
X21165000Y10520000D03*
%TO.P,J5,5*%
%TO.N,GND*%
X23705000Y7980000D03*
%TO.P,J5,6*%
X23705000Y10520000D03*
%TD*%
D10*
%TO.P,JP1,1,A*%
%TO.N,GND*%
X20990000Y31925000D03*
D11*
%TO.P,JP1,2,B*%
%TO.N,/mod*%
X20990000Y29385000D03*
%TD*%
D12*
%TO.P,H1,1,1*%
%TO.N,GND*%
X10160001Y30480000D03*
%TD*%
D10*
%TO.P,J6,1*%
%TO.N,GND*%
X18625000Y13060000D03*
D11*
%TO.P,J6,2*%
X18625000Y15600000D03*
%TO.P,J6,3*%
%TO.N,/V_out*%
X21165000Y13060000D03*
%TO.P,J6,4*%
X21165000Y15600000D03*
%TO.P,J6,5*%
%TO.N,GND*%
X23705000Y13060000D03*
%TO.P,J6,6*%
X23705000Y15600000D03*
%TD*%
D13*
%TO.N,GND*%
X15000000Y18900000D03*
X17800000Y24800000D03*
X21300000Y25200000D03*
X16800000Y24800000D03*
X22200000Y25200000D03*
%TO.N,/FB*%
X24525000Y22700000D03*
%TD*%
D14*
%TO.N,/FB*%
X29685000Y22125000D02*
X29475000Y22125000D01*
X29475000Y22125000D02*
X25100000Y22125000D01*
X25100000Y22125000D02*
X24525000Y22700000D01*
X30700000Y21110000D02*
X29685000Y22125000D01*
%TD*%
%TA.AperFunction,Conductor*%
%TO.N,GND*%
G36*
X34787195Y34787194D02*
G01*
X34805501Y34743000D01*
X34805501Y5897000D01*
X34787195Y5852806D01*
X34743001Y5834500D01*
X5897000Y5834500D01*
X5852806Y5852806D01*
X5834500Y5897000D01*
X5834500Y7110302D01*
X17575000Y7110302D01*
X17586603Y7051966D01*
X17586605Y7051962D01*
X17630808Y6985809D01*
X17696961Y6941606D01*
X17696965Y6941604D01*
X17755301Y6930001D01*
X17755302Y6930000D01*
X18325000Y6930000D01*
X18325000Y7470081D01*
X18343306Y7514275D01*
X18387500Y7532581D01*
X18413461Y7526934D01*
X18482685Y7495320D01*
X18518202Y7490214D01*
X18589235Y7480000D01*
X18589237Y7480000D01*
X18660765Y7480000D01*
X18714038Y7487660D01*
X18767315Y7495320D01*
X18836537Y7526934D01*
X18884341Y7528640D01*
X18919352Y7496045D01*
X18925000Y7470081D01*
X18925000Y6930000D01*
X19494698Y6930000D01*
X19494698Y6930001D01*
X19553034Y6941604D01*
X19553038Y6941606D01*
X19619191Y6985809D01*
X19663394Y7051962D01*
X19663396Y7051966D01*
X19674999Y7110302D01*
X19675000Y7110302D01*
X19675000Y7680000D01*
X19140572Y7680000D01*
X19096378Y7698306D01*
X19078072Y7742500D01*
X19083720Y7768463D01*
X19084489Y7770152D01*
X19084493Y7770156D01*
X19125000Y7908111D01*
X19125000Y7980000D01*
X20109417Y7980000D01*
X20129699Y7774070D01*
X20129700Y7774065D01*
X20189766Y7576051D01*
X20189768Y7576046D01*
X20287311Y7393556D01*
X20287319Y7393545D01*
X20418297Y7233946D01*
X20418590Y7233590D01*
X20578550Y7102315D01*
X20578553Y7102314D01*
X20578555Y7102312D01*
X20653912Y7062033D01*
X20761046Y7004768D01*
X20959066Y6944700D01*
X21108316Y6930000D01*
X21164999Y6924417D01*
X21164999Y6924418D01*
X21165000Y6924417D01*
X21370934Y6944700D01*
X21568954Y7004768D01*
X21751450Y7102315D01*
X21911410Y7233590D01*
X22042685Y7393550D01*
X22140232Y7576046D01*
X22171766Y7680000D01*
X22698756Y7680000D01*
X22730233Y7576237D01*
X22827728Y7393834D01*
X22827732Y7393828D01*
X22958945Y7233946D01*
X23118827Y7102733D01*
X23118833Y7102729D01*
X23301236Y7005233D01*
X23301239Y7005232D01*
X23405000Y6973757D01*
X23405000Y7470081D01*
X23423306Y7514275D01*
X23467500Y7532581D01*
X23493461Y7526934D01*
X23562685Y7495320D01*
X23598202Y7490214D01*
X23669235Y7480000D01*
X23669237Y7480000D01*
X23740765Y7480000D01*
X23794038Y7487660D01*
X23847315Y7495320D01*
X23916537Y7526934D01*
X23964341Y7528640D01*
X23999352Y7496045D01*
X24005000Y7470081D01*
X24005000Y6973758D01*
X24108760Y7005232D01*
X24108763Y7005233D01*
X24291166Y7102729D01*
X24291172Y7102733D01*
X24451054Y7233946D01*
X24582267Y7393828D01*
X24582271Y7393834D01*
X24679766Y7576237D01*
X24711244Y7680000D01*
X24220572Y7680000D01*
X24176378Y7698306D01*
X24158072Y7742500D01*
X24163720Y7768463D01*
X24164489Y7770152D01*
X24164493Y7770156D01*
X24205000Y7908111D01*
X24205000Y8051889D01*
X24205000Y8051891D01*
X24204999Y8051892D01*
X24164493Y8189843D01*
X24163720Y8191537D01*
X24163681Y8192609D01*
X24163234Y8194133D01*
X24163623Y8194248D01*
X24162013Y8239342D01*
X24194609Y8274352D01*
X24220572Y8280000D01*
X24711243Y8280000D01*
X24711243Y8280001D01*
X24679766Y8383764D01*
X24582271Y8566167D01*
X24582267Y8566173D01*
X24451054Y8726055D01*
X24291172Y8857268D01*
X24291166Y8857272D01*
X24108763Y8954767D01*
X24005000Y8986244D01*
X24005000Y8489920D01*
X23986694Y8445726D01*
X23942500Y8427420D01*
X23916537Y8433068D01*
X23847316Y8464680D01*
X23847313Y8464681D01*
X23740765Y8480000D01*
X23740763Y8480000D01*
X23669237Y8480000D01*
X23669235Y8480000D01*
X23562686Y8464681D01*
X23562683Y8464680D01*
X23493463Y8433068D01*
X23445658Y8431361D01*
X23410648Y8463957D01*
X23405000Y8489920D01*
X23405000Y8986244D01*
X23404999Y8986244D01*
X23301236Y8954767D01*
X23118833Y8857272D01*
X23118827Y8857268D01*
X22958945Y8726055D01*
X22827732Y8566173D01*
X22827728Y8566167D01*
X22730233Y8383764D01*
X22698756Y8280001D01*
X22698757Y8280000D01*
X23189428Y8280000D01*
X23233622Y8261694D01*
X23251928Y8217500D01*
X23246280Y8191537D01*
X23245506Y8189843D01*
X23205000Y8051892D01*
X23205000Y7908109D01*
X23245506Y7770158D01*
X23246280Y7768463D01*
X23246318Y7767392D01*
X23246766Y7765867D01*
X23246376Y7765753D01*
X23247987Y7720658D01*
X23215391Y7685648D01*
X23189428Y7680000D01*
X22698756Y7680000D01*
X22171766Y7680000D01*
X22200300Y7774066D01*
X22220583Y7980000D01*
X22200300Y8185934D01*
X22140232Y8383954D01*
X22082967Y8491088D01*
X22042688Y8566445D01*
X22042686Y8566447D01*
X22042685Y8566450D01*
X22003622Y8614049D01*
X21911411Y8726409D01*
X21911408Y8726412D01*
X21751455Y8857681D01*
X21751453Y8857682D01*
X21751450Y8857685D01*
X21751448Y8857687D01*
X21751444Y8857689D01*
X21568954Y8955232D01*
X21568949Y8955234D01*
X21370935Y9015300D01*
X21370930Y9015301D01*
X21165000Y9035583D01*
X20959069Y9015301D01*
X20959064Y9015300D01*
X20761050Y8955234D01*
X20761045Y8955232D01*
X20578555Y8857689D01*
X20578544Y8857681D01*
X20418591Y8726412D01*
X20418588Y8726409D01*
X20287319Y8566456D01*
X20287311Y8566445D01*
X20189768Y8383955D01*
X20189766Y8383950D01*
X20129700Y8185936D01*
X20129699Y8185931D01*
X20109417Y7980001D01*
X20109417Y7980000D01*
X19125000Y7980000D01*
X19125000Y8051889D01*
X19125000Y8051891D01*
X19124999Y8051892D01*
X19084493Y8189843D01*
X19083720Y8191537D01*
X19083681Y8192609D01*
X19083234Y8194133D01*
X19083623Y8194248D01*
X19082013Y8239342D01*
X19114609Y8274352D01*
X19140572Y8280000D01*
X19675000Y8280000D01*
X19675000Y8849698D01*
X19674999Y8849699D01*
X19663396Y8908035D01*
X19663394Y8908039D01*
X19619191Y8974192D01*
X19553038Y9018395D01*
X19553034Y9018397D01*
X19494698Y9030000D01*
X18925000Y9030000D01*
X18925000Y8489920D01*
X18906694Y8445726D01*
X18862500Y8427420D01*
X18836537Y8433068D01*
X18767316Y8464680D01*
X18767313Y8464681D01*
X18660765Y8480000D01*
X18660763Y8480000D01*
X18589237Y8480000D01*
X18589235Y8480000D01*
X18482686Y8464681D01*
X18482683Y8464680D01*
X18413463Y8433068D01*
X18365658Y8431361D01*
X18330648Y8463957D01*
X18325000Y8489920D01*
X18325000Y9030000D01*
X17755302Y9030000D01*
X17696965Y9018397D01*
X17696961Y9018395D01*
X17630808Y8974192D01*
X17586605Y8908039D01*
X17586603Y8908035D01*
X17575000Y8849699D01*
X17575000Y8280000D01*
X18109428Y8280000D01*
X18153622Y8261694D01*
X18171928Y8217500D01*
X18166280Y8191537D01*
X18165506Y8189843D01*
X18125000Y8051892D01*
X18125000Y7908109D01*
X18165506Y7770158D01*
X18166280Y7768463D01*
X18166318Y7767392D01*
X18166766Y7765867D01*
X18166376Y7765753D01*
X18167987Y7720658D01*
X18135391Y7685648D01*
X18109428Y7680000D01*
X17575000Y7680000D01*
X17575000Y7110302D01*
X5834500Y7110302D01*
X5834500Y10220000D01*
X17618756Y10220000D01*
X17650233Y10116237D01*
X17747728Y9933834D01*
X17747732Y9933828D01*
X17878945Y9773946D01*
X18038827Y9642733D01*
X18038833Y9642729D01*
X18221236Y9545233D01*
X18221239Y9545232D01*
X18325000Y9513757D01*
X18325000Y10010081D01*
X18343306Y10054275D01*
X18387500Y10072581D01*
X18413461Y10066934D01*
X18482685Y10035320D01*
X18518202Y10030214D01*
X18589235Y10020000D01*
X18589237Y10020000D01*
X18660765Y10020000D01*
X18714038Y10027660D01*
X18767315Y10035320D01*
X18836537Y10066934D01*
X18884341Y10068640D01*
X18919352Y10036045D01*
X18925000Y10010081D01*
X18925000Y9513758D01*
X19028760Y9545232D01*
X19028763Y9545233D01*
X19211166Y9642729D01*
X19211172Y9642733D01*
X19371054Y9773946D01*
X19502267Y9933828D01*
X19502271Y9933834D01*
X19599766Y10116237D01*
X19631244Y10220000D01*
X19140572Y10220000D01*
X19096378Y10238306D01*
X19078072Y10282500D01*
X19083720Y10308463D01*
X19084489Y10310152D01*
X19084493Y10310156D01*
X19125000Y10448111D01*
X19125000Y10520000D01*
X20109417Y10520000D01*
X20129699Y10314070D01*
X20129700Y10314065D01*
X20189766Y10116051D01*
X20189768Y10116046D01*
X20287311Y9933556D01*
X20287319Y9933545D01*
X20418297Y9773946D01*
X20418590Y9773590D01*
X20578550Y9642315D01*
X20578553Y9642314D01*
X20578555Y9642312D01*
X20653912Y9602033D01*
X20761046Y9544768D01*
X20959066Y9484700D01*
X21165000Y9464417D01*
X21370934Y9484700D01*
X21568954Y9544768D01*
X21751450Y9642315D01*
X21911410Y9773590D01*
X22042685Y9933550D01*
X22140232Y10116046D01*
X22171766Y10220000D01*
X22698756Y10220000D01*
X22730233Y10116237D01*
X22827728Y9933834D01*
X22827732Y9933828D01*
X22958945Y9773946D01*
X23118827Y9642733D01*
X23118833Y9642729D01*
X23301236Y9545233D01*
X23301239Y9545232D01*
X23405000Y9513757D01*
X23405000Y10010081D01*
X23423306Y10054275D01*
X23467500Y10072581D01*
X23493461Y10066934D01*
X23562685Y10035320D01*
X23598202Y10030214D01*
X23669235Y10020000D01*
X23669237Y10020000D01*
X23740765Y10020000D01*
X23794038Y10027660D01*
X23847315Y10035320D01*
X23916537Y10066934D01*
X23964341Y10068640D01*
X23999352Y10036045D01*
X24005000Y10010081D01*
X24005000Y9513758D01*
X24108760Y9545232D01*
X24108763Y9545233D01*
X24291166Y9642729D01*
X24291172Y9642733D01*
X24451054Y9773946D01*
X24582267Y9933828D01*
X24582271Y9933834D01*
X24679766Y10116237D01*
X24711244Y10220000D01*
X24220572Y10220000D01*
X24176378Y10238306D01*
X24158072Y10282500D01*
X24163720Y10308463D01*
X24164489Y10310152D01*
X24164493Y10310156D01*
X24205000Y10448111D01*
X24205000Y10591889D01*
X24205000Y10591891D01*
X24204999Y10591892D01*
X24164493Y10729843D01*
X24163720Y10731537D01*
X24163681Y10732609D01*
X24163234Y10734133D01*
X24163623Y10734248D01*
X24162013Y10779342D01*
X24194609Y10814352D01*
X24220572Y10820000D01*
X24711243Y10820000D01*
X24711243Y10820001D01*
X24679766Y10923764D01*
X24582271Y11106167D01*
X24582267Y11106173D01*
X24451054Y11266055D01*
X24291172Y11397268D01*
X24291166Y11397272D01*
X24108763Y11494767D01*
X24005000Y11526244D01*
X24005000Y11029920D01*
X23986694Y10985726D01*
X23942500Y10967420D01*
X23916537Y10973068D01*
X23847316Y11004680D01*
X23847313Y11004681D01*
X23740765Y11020000D01*
X23740763Y11020000D01*
X23669237Y11020000D01*
X23669235Y11020000D01*
X23562686Y11004681D01*
X23562683Y11004680D01*
X23493463Y10973068D01*
X23445658Y10971361D01*
X23410648Y11003957D01*
X23405000Y11029920D01*
X23405000Y11526244D01*
X23404999Y11526244D01*
X23301236Y11494767D01*
X23118833Y11397272D01*
X23118827Y11397268D01*
X22958945Y11266055D01*
X22827732Y11106173D01*
X22827728Y11106167D01*
X22730233Y10923764D01*
X22698756Y10820001D01*
X22698757Y10820000D01*
X23189428Y10820000D01*
X23233622Y10801694D01*
X23251928Y10757500D01*
X23246280Y10731537D01*
X23245506Y10729843D01*
X23205000Y10591892D01*
X23205000Y10448109D01*
X23245506Y10310158D01*
X23246280Y10308463D01*
X23246318Y10307392D01*
X23246766Y10305867D01*
X23246376Y10305753D01*
X23247987Y10260658D01*
X23215391Y10225648D01*
X23189428Y10220000D01*
X22698756Y10220000D01*
X22171766Y10220000D01*
X22200300Y10314066D01*
X22220583Y10520000D01*
X22200300Y10725934D01*
X22140232Y10923954D01*
X22082967Y11031088D01*
X22042688Y11106445D01*
X22042686Y11106447D01*
X22042685Y11106450D01*
X22003622Y11154049D01*
X21911411Y11266409D01*
X21911408Y11266412D01*
X21751455Y11397681D01*
X21751453Y11397682D01*
X21751450Y11397685D01*
X21751448Y11397687D01*
X21751444Y11397689D01*
X21568954Y11495232D01*
X21568949Y11495234D01*
X21370935Y11555300D01*
X21370930Y11555301D01*
X21165000Y11575583D01*
X20959069Y11555301D01*
X20959064Y11555300D01*
X20761050Y11495234D01*
X20761045Y11495232D01*
X20578555Y11397689D01*
X20578544Y11397681D01*
X20418591Y11266412D01*
X20418588Y11266409D01*
X20287319Y11106456D01*
X20287311Y11106445D01*
X20189768Y10923955D01*
X20189766Y10923950D01*
X20129700Y10725936D01*
X20129699Y10725931D01*
X20109417Y10520001D01*
X20109417Y10520000D01*
X19125000Y10520000D01*
X19125000Y10591889D01*
X19125000Y10591891D01*
X19124999Y10591892D01*
X19084493Y10729843D01*
X19083720Y10731537D01*
X19083681Y10732609D01*
X19083234Y10734133D01*
X19083623Y10734248D01*
X19082013Y10779342D01*
X19114609Y10814352D01*
X19140572Y10820000D01*
X19631243Y10820000D01*
X19631243Y10820001D01*
X19599766Y10923764D01*
X19502271Y11106167D01*
X19502267Y11106173D01*
X19371054Y11266055D01*
X19211172Y11397268D01*
X19211166Y11397272D01*
X19028763Y11494767D01*
X18925000Y11526244D01*
X18925000Y11029920D01*
X18906694Y10985726D01*
X18862500Y10967420D01*
X18836537Y10973068D01*
X18767316Y11004680D01*
X18767313Y11004681D01*
X18660765Y11020000D01*
X18660763Y11020000D01*
X18589237Y11020000D01*
X18589235Y11020000D01*
X18482686Y11004681D01*
X18482683Y11004680D01*
X18413463Y10973068D01*
X18365658Y10971361D01*
X18330648Y11003957D01*
X18325000Y11029920D01*
X18325000Y11526244D01*
X18324999Y11526244D01*
X18221236Y11494767D01*
X18038833Y11397272D01*
X18038827Y11397268D01*
X17878945Y11266055D01*
X17747732Y11106173D01*
X17747728Y11106167D01*
X17650233Y10923764D01*
X17618756Y10820001D01*
X17618757Y10820000D01*
X18109428Y10820000D01*
X18153622Y10801694D01*
X18171928Y10757500D01*
X18166280Y10731537D01*
X18165506Y10729843D01*
X18125000Y10591892D01*
X18125000Y10448109D01*
X18165506Y10310158D01*
X18166280Y10308463D01*
X18166318Y10307392D01*
X18166766Y10305867D01*
X18166376Y10305753D01*
X18167987Y10260658D01*
X18135391Y10225648D01*
X18109428Y10220000D01*
X17618756Y10220000D01*
X5834500Y10220000D01*
X5834500Y12190302D01*
X17575000Y12190302D01*
X17586603Y12131966D01*
X17586605Y12131962D01*
X17630808Y12065809D01*
X17696961Y12021606D01*
X17696965Y12021604D01*
X17755301Y12010001D01*
X17755302Y12010000D01*
X18325000Y12010000D01*
X18325000Y12550081D01*
X18343306Y12594275D01*
X18387500Y12612581D01*
X18413461Y12606934D01*
X18482685Y12575320D01*
X18518202Y12570214D01*
X18589235Y12560000D01*
X18589237Y12560000D01*
X18660765Y12560000D01*
X18714038Y12567660D01*
X18767315Y12575320D01*
X18836537Y12606934D01*
X18884341Y12608640D01*
X18919352Y12576045D01*
X18925000Y12550081D01*
X18925000Y12010000D01*
X19494698Y12010000D01*
X19494698Y12010001D01*
X19553034Y12021604D01*
X19553038Y12021606D01*
X19619191Y12065809D01*
X19663394Y12131962D01*
X19663396Y12131966D01*
X19674999Y12190302D01*
X19675000Y12190302D01*
X19675000Y12760000D01*
X19140572Y12760000D01*
X19096378Y12778306D01*
X19078072Y12822500D01*
X19083720Y12848463D01*
X19084489Y12850152D01*
X19084493Y12850156D01*
X19125000Y12988111D01*
X19125000Y13060000D01*
X20109417Y13060000D01*
X20129699Y12854070D01*
X20129700Y12854065D01*
X20189766Y12656051D01*
X20189768Y12656046D01*
X20287311Y12473556D01*
X20287319Y12473545D01*
X20418297Y12313946D01*
X20418590Y12313590D01*
X20578550Y12182315D01*
X20578553Y12182314D01*
X20578555Y12182312D01*
X20653912Y12142033D01*
X20761046Y12084768D01*
X20959066Y12024700D01*
X21108316Y12010000D01*
X21164999Y12004417D01*
X21164999Y12004418D01*
X21165000Y12004417D01*
X21370934Y12024700D01*
X21568954Y12084768D01*
X21751450Y12182315D01*
X21911410Y12313590D01*
X22042685Y12473550D01*
X22140232Y12656046D01*
X22171766Y12760000D01*
X22698756Y12760000D01*
X22730233Y12656237D01*
X22827728Y12473834D01*
X22827732Y12473828D01*
X22958945Y12313946D01*
X23118827Y12182733D01*
X23118833Y12182729D01*
X23301236Y12085233D01*
X23301239Y12085232D01*
X23405000Y12053757D01*
X23405000Y12550081D01*
X23423306Y12594275D01*
X23467500Y12612581D01*
X23493461Y12606934D01*
X23562685Y12575320D01*
X23598202Y12570214D01*
X23669235Y12560000D01*
X23669237Y12560000D01*
X23740765Y12560000D01*
X23794038Y12567660D01*
X23847315Y12575320D01*
X23916537Y12606934D01*
X23964341Y12608640D01*
X23999352Y12576045D01*
X24005000Y12550081D01*
X24005000Y12053758D01*
X24108760Y12085232D01*
X24108763Y12085233D01*
X24291166Y12182729D01*
X24291172Y12182733D01*
X24451054Y12313946D01*
X24582267Y12473828D01*
X24582271Y12473834D01*
X24679766Y12656237D01*
X24711244Y12760000D01*
X24220572Y12760000D01*
X24176378Y12778306D01*
X24158072Y12822500D01*
X24163720Y12848463D01*
X24164489Y12850152D01*
X24164493Y12850156D01*
X24205000Y12988111D01*
X24205000Y13131889D01*
X24205000Y13131891D01*
X24204999Y13131892D01*
X24164493Y13269843D01*
X24163720Y13271537D01*
X24163681Y13272609D01*
X24163234Y13274133D01*
X24163623Y13274248D01*
X24162013Y13319342D01*
X24194609Y13354352D01*
X24220572Y13360000D01*
X24711243Y13360000D01*
X24711243Y13360001D01*
X24679766Y13463764D01*
X24582271Y13646167D01*
X24582267Y13646173D01*
X24451054Y13806055D01*
X24291172Y13937268D01*
X24291166Y13937272D01*
X24108763Y14034767D01*
X24005000Y14066244D01*
X24005000Y13569920D01*
X23986694Y13525726D01*
X23942500Y13507420D01*
X23916537Y13513068D01*
X23847316Y13544680D01*
X23847313Y13544681D01*
X23740765Y13560000D01*
X23740763Y13560000D01*
X23669237Y13560000D01*
X23669235Y13560000D01*
X23562686Y13544681D01*
X23562683Y13544680D01*
X23493463Y13513068D01*
X23445658Y13511361D01*
X23410648Y13543957D01*
X23405000Y13569920D01*
X23405000Y14066244D01*
X23404999Y14066244D01*
X23301236Y14034767D01*
X23118833Y13937272D01*
X23118827Y13937268D01*
X22958945Y13806055D01*
X22827732Y13646173D01*
X22827728Y13646167D01*
X22730233Y13463764D01*
X22698756Y13360001D01*
X22698757Y13360000D01*
X23189428Y13360000D01*
X23233622Y13341694D01*
X23251928Y13297500D01*
X23246280Y13271537D01*
X23245506Y13269843D01*
X23205000Y13131892D01*
X23205000Y12988109D01*
X23245506Y12850158D01*
X23246280Y12848463D01*
X23246318Y12847392D01*
X23246766Y12845867D01*
X23246376Y12845753D01*
X23247987Y12800658D01*
X23215391Y12765648D01*
X23189428Y12760000D01*
X22698756Y12760000D01*
X22171766Y12760000D01*
X22200300Y12854066D01*
X22220583Y13060000D01*
X22200300Y13265934D01*
X22140232Y13463954D01*
X22082967Y13571088D01*
X22042688Y13646445D01*
X22042686Y13646447D01*
X22042685Y13646450D01*
X22003622Y13694049D01*
X21911411Y13806409D01*
X21911408Y13806412D01*
X21751455Y13937681D01*
X21751453Y13937682D01*
X21751450Y13937685D01*
X21751448Y13937687D01*
X21751444Y13937689D01*
X21568954Y14035232D01*
X21568949Y14035234D01*
X21370935Y14095300D01*
X21370930Y14095301D01*
X21165000Y14115583D01*
X20959069Y14095301D01*
X20959064Y14095300D01*
X20761050Y14035234D01*
X20761045Y14035232D01*
X20578555Y13937689D01*
X20578544Y13937681D01*
X20418591Y13806412D01*
X20418588Y13806409D01*
X20287319Y13646456D01*
X20287311Y13646445D01*
X20189768Y13463955D01*
X20189766Y13463950D01*
X20129700Y13265936D01*
X20129699Y13265931D01*
X20109417Y13060001D01*
X20109417Y13060000D01*
X19125000Y13060000D01*
X19125000Y13131889D01*
X19125000Y13131891D01*
X19124999Y13131892D01*
X19084493Y13269843D01*
X19083720Y13271537D01*
X19083681Y13272609D01*
X19083234Y13274133D01*
X19083623Y13274248D01*
X19082013Y13319342D01*
X19114609Y13354352D01*
X19140572Y13360000D01*
X19675000Y13360000D01*
X19675000Y13929698D01*
X19674999Y13929699D01*
X19663396Y13988035D01*
X19663394Y13988039D01*
X19619191Y14054192D01*
X19553038Y14098395D01*
X19553034Y14098397D01*
X19494698Y14110000D01*
X18925000Y14110000D01*
X18925000Y13569920D01*
X18906694Y13525726D01*
X18862500Y13507420D01*
X18836537Y13513068D01*
X18767316Y13544680D01*
X18767313Y13544681D01*
X18660765Y13560000D01*
X18660763Y13560000D01*
X18589237Y13560000D01*
X18589235Y13560000D01*
X18482686Y13544681D01*
X18482683Y13544680D01*
X18413463Y13513068D01*
X18365658Y13511361D01*
X18330648Y13543957D01*
X18325000Y13569920D01*
X18325000Y14110000D01*
X17755302Y14110000D01*
X17696965Y14098397D01*
X17696961Y14098395D01*
X17630808Y14054192D01*
X17586605Y13988039D01*
X17586603Y13988035D01*
X17575000Y13929699D01*
X17575000Y13360000D01*
X18109428Y13360000D01*
X18153622Y13341694D01*
X18171928Y13297500D01*
X18166280Y13271537D01*
X18165506Y13269843D01*
X18125000Y13131892D01*
X18125000Y12988109D01*
X18165506Y12850158D01*
X18166280Y12848463D01*
X18166318Y12847392D01*
X18166766Y12845867D01*
X18166376Y12845753D01*
X18167987Y12800658D01*
X18135391Y12765648D01*
X18109428Y12760000D01*
X17575000Y12760000D01*
X17575000Y12190302D01*
X5834500Y12190302D01*
X5834500Y15300000D01*
X17618756Y15300000D01*
X17650233Y15196237D01*
X17747728Y15013834D01*
X17747732Y15013828D01*
X17878945Y14853946D01*
X18038827Y14722733D01*
X18038833Y14722729D01*
X18221236Y14625233D01*
X18221239Y14625232D01*
X18325000Y14593757D01*
X18325000Y15090081D01*
X18343306Y15134275D01*
X18387500Y15152581D01*
X18413461Y15146934D01*
X18482685Y15115320D01*
X18518202Y15110214D01*
X18589235Y15100000D01*
X18589237Y15100000D01*
X18660765Y15100000D01*
X18714038Y15107660D01*
X18767315Y15115320D01*
X18836537Y15146934D01*
X18884341Y15148640D01*
X18919352Y15116045D01*
X18925000Y15090081D01*
X18925000Y14593758D01*
X19028760Y14625232D01*
X19028763Y14625233D01*
X19211166Y14722729D01*
X19211172Y14722733D01*
X19371054Y14853946D01*
X19502267Y15013828D01*
X19502271Y15013834D01*
X19599766Y15196237D01*
X19631244Y15300000D01*
X19140572Y15300000D01*
X19096378Y15318306D01*
X19078072Y15362500D01*
X19083720Y15388463D01*
X19084489Y15390152D01*
X19084493Y15390156D01*
X19125000Y15528111D01*
X19125000Y15600000D01*
X20109417Y15600000D01*
X20129699Y15394070D01*
X20129700Y15394065D01*
X20189766Y15196051D01*
X20189768Y15196046D01*
X20287311Y15013556D01*
X20287319Y15013545D01*
X20418297Y14853946D01*
X20418590Y14853590D01*
X20578550Y14722315D01*
X20578553Y14722314D01*
X20578555Y14722312D01*
X20653912Y14682033D01*
X20761046Y14624768D01*
X20959066Y14564700D01*
X21113516Y14549488D01*
X21164999Y14544417D01*
X21164999Y14544418D01*
X21165000Y14544417D01*
X21370934Y14564700D01*
X21568954Y14624768D01*
X21751450Y14722315D01*
X21911410Y14853590D01*
X22042685Y15013550D01*
X22140232Y15196046D01*
X22171766Y15300000D01*
X22698756Y15300000D01*
X22730233Y15196237D01*
X22827728Y15013834D01*
X22827732Y15013828D01*
X22958945Y14853946D01*
X23118827Y14722733D01*
X23118833Y14722729D01*
X23301236Y14625233D01*
X23301239Y14625232D01*
X23405000Y14593757D01*
X23405000Y15090081D01*
X23423306Y15134275D01*
X23467500Y15152581D01*
X23493461Y15146934D01*
X23562685Y15115320D01*
X23598202Y15110214D01*
X23669235Y15100000D01*
X23669237Y15100000D01*
X23740765Y15100000D01*
X23794038Y15107660D01*
X23847315Y15115320D01*
X23916537Y15146934D01*
X23964341Y15148640D01*
X23999352Y15116045D01*
X24005000Y15090081D01*
X24005000Y14593758D01*
X24108760Y14625232D01*
X24108763Y14625233D01*
X24291166Y14722729D01*
X24291172Y14722733D01*
X24451054Y14853946D01*
X24582267Y15013828D01*
X24582271Y15013834D01*
X24679766Y15196237D01*
X24711244Y15300000D01*
X24220572Y15300000D01*
X24176378Y15318306D01*
X24158072Y15362500D01*
X24163720Y15388463D01*
X24164489Y15390152D01*
X24164493Y15390156D01*
X24205000Y15528111D01*
X24205000Y15671889D01*
X24205000Y15671891D01*
X24204999Y15671892D01*
X24164493Y15809843D01*
X24163720Y15811537D01*
X24163681Y15812609D01*
X24163234Y15814133D01*
X24163623Y15814248D01*
X24162013Y15859342D01*
X24194609Y15894352D01*
X24220572Y15900000D01*
X24711243Y15900000D01*
X24711243Y15900001D01*
X24679766Y16003764D01*
X24582271Y16186167D01*
X24582267Y16186173D01*
X24451054Y16346055D01*
X24291172Y16477268D01*
X24291166Y16477272D01*
X24108763Y16574767D01*
X24005000Y16606244D01*
X24005000Y16109920D01*
X23986694Y16065726D01*
X23942500Y16047420D01*
X23916537Y16053068D01*
X23847316Y16084680D01*
X23847313Y16084681D01*
X23740765Y16100000D01*
X23740763Y16100000D01*
X23669237Y16100000D01*
X23669235Y16100000D01*
X23562686Y16084681D01*
X23562683Y16084680D01*
X23493463Y16053068D01*
X23445658Y16051361D01*
X23410648Y16083957D01*
X23405000Y16109920D01*
X23405000Y16606244D01*
X23404999Y16606244D01*
X23301236Y16574767D01*
X23118833Y16477272D01*
X23118827Y16477268D01*
X22958945Y16346055D01*
X22827732Y16186173D01*
X22827728Y16186167D01*
X22730233Y16003764D01*
X22698756Y15900001D01*
X22698757Y15900000D01*
X23189428Y15900000D01*
X23233622Y15881694D01*
X23251928Y15837500D01*
X23246280Y15811537D01*
X23245506Y15809843D01*
X23205000Y15671892D01*
X23205000Y15528109D01*
X23245506Y15390158D01*
X23246280Y15388463D01*
X23246318Y15387392D01*
X23246766Y15385867D01*
X23246376Y15385753D01*
X23247987Y15340658D01*
X23215391Y15305648D01*
X23189428Y15300000D01*
X22698756Y15300000D01*
X22171766Y15300000D01*
X22200300Y15394066D01*
X22220583Y15600000D01*
X22200300Y15805934D01*
X22140232Y16003954D01*
X22082967Y16111088D01*
X22042688Y16186445D01*
X22042686Y16186447D01*
X22042685Y16186450D01*
X22003622Y16234049D01*
X21911411Y16346409D01*
X21911408Y16346412D01*
X21751455Y16477681D01*
X21751453Y16477682D01*
X21751450Y16477685D01*
X21751448Y16477687D01*
X21751444Y16477689D01*
X21568954Y16575232D01*
X21568949Y16575234D01*
X21370935Y16635300D01*
X21370930Y16635301D01*
X21165000Y16655583D01*
X20959069Y16635301D01*
X20959064Y16635300D01*
X20761050Y16575234D01*
X20761045Y16575232D01*
X20578555Y16477689D01*
X20578544Y16477681D01*
X20418591Y16346412D01*
X20418588Y16346409D01*
X20287319Y16186456D01*
X20287311Y16186445D01*
X20189768Y16003955D01*
X20189766Y16003950D01*
X20129700Y15805936D01*
X20129699Y15805931D01*
X20109417Y15600001D01*
X20109417Y15600000D01*
X19125000Y15600000D01*
X19125000Y15671889D01*
X19125000Y15671891D01*
X19124999Y15671892D01*
X19084493Y15809843D01*
X19083720Y15811537D01*
X19083681Y15812609D01*
X19083234Y15814133D01*
X19083623Y15814248D01*
X19082013Y15859342D01*
X19114609Y15894352D01*
X19140572Y15900000D01*
X19631243Y15900000D01*
X19631243Y15900001D01*
X19599766Y16003764D01*
X19502271Y16186167D01*
X19502267Y16186173D01*
X19371054Y16346055D01*
X19211172Y16477268D01*
X19211166Y16477272D01*
X19028763Y16574767D01*
X18925000Y16606244D01*
X18925000Y16109920D01*
X18906694Y16065726D01*
X18862500Y16047420D01*
X18836537Y16053068D01*
X18767316Y16084680D01*
X18767313Y16084681D01*
X18660765Y16100000D01*
X18660763Y16100000D01*
X18589237Y16100000D01*
X18589235Y16100000D01*
X18482686Y16084681D01*
X18482683Y16084680D01*
X18413463Y16053068D01*
X18365658Y16051361D01*
X18330648Y16083957D01*
X18325000Y16109920D01*
X18325000Y16606244D01*
X18324999Y16606244D01*
X18221236Y16574767D01*
X18038833Y16477272D01*
X18038827Y16477268D01*
X17878945Y16346055D01*
X17747732Y16186173D01*
X17747728Y16186167D01*
X17650233Y16003764D01*
X17618756Y15900001D01*
X17618757Y15900000D01*
X18109428Y15900000D01*
X18153622Y15881694D01*
X18171928Y15837500D01*
X18166280Y15811537D01*
X18165506Y15809843D01*
X18125000Y15671892D01*
X18125000Y15528109D01*
X18165506Y15390158D01*
X18166280Y15388463D01*
X18166318Y15387392D01*
X18166766Y15385867D01*
X18166376Y15385753D01*
X18167987Y15340658D01*
X18135391Y15305648D01*
X18109428Y15300000D01*
X17618756Y15300000D01*
X5834500Y15300000D01*
X5834500Y17760000D01*
X6953756Y17760000D01*
X6985233Y17656237D01*
X7082728Y17473834D01*
X7082732Y17473828D01*
X7213945Y17313946D01*
X7373827Y17182733D01*
X7373833Y17182729D01*
X7556236Y17085233D01*
X7556239Y17085232D01*
X7660000Y17053757D01*
X7660000Y17550081D01*
X7678306Y17594275D01*
X7722500Y17612581D01*
X7748461Y17606934D01*
X7817685Y17575320D01*
X7853202Y17570214D01*
X7924235Y17560000D01*
X7924237Y17560000D01*
X7995765Y17560000D01*
X8049038Y17567660D01*
X8102315Y17575320D01*
X8171537Y17606934D01*
X8219341Y17608640D01*
X8254352Y17576045D01*
X8260000Y17550081D01*
X8260000Y17053758D01*
X8363760Y17085232D01*
X8363763Y17085233D01*
X8546166Y17182729D01*
X8546172Y17182733D01*
X8706054Y17313946D01*
X8837267Y17473828D01*
X8837271Y17473834D01*
X8934766Y17656237D01*
X8966244Y17760000D01*
X9493756Y17760000D01*
X9525233Y17656237D01*
X9622728Y17473834D01*
X9622732Y17473828D01*
X9753945Y17313946D01*
X9913827Y17182733D01*
X9913833Y17182729D01*
X10096236Y17085233D01*
X10096239Y17085232D01*
X10200000Y17053757D01*
X10200000Y17550081D01*
X10218306Y17594275D01*
X10262500Y17612581D01*
X10288461Y17606934D01*
X10357685Y17575320D01*
X10393202Y17570214D01*
X10464235Y17560000D01*
X10464237Y17560000D01*
X10535765Y17560000D01*
X10589038Y17567660D01*
X10642315Y17575320D01*
X10711537Y17606934D01*
X10759341Y17608640D01*
X10794352Y17576045D01*
X10800000Y17550081D01*
X10800000Y17053758D01*
X10903760Y17085232D01*
X10903763Y17085233D01*
X11086166Y17182729D01*
X11086172Y17182733D01*
X11246054Y17313946D01*
X11377267Y17473828D01*
X11377271Y17473834D01*
X11474766Y17656237D01*
X11506244Y17760000D01*
X11015572Y17760000D01*
X10971378Y17778306D01*
X10953072Y17822500D01*
X10958720Y17848463D01*
X10959489Y17850152D01*
X10959493Y17850156D01*
X11000000Y17988111D01*
X11000000Y18131889D01*
X11000000Y18131890D01*
X11000000Y18131891D01*
X10999999Y18131892D01*
X10959493Y18269844D01*
X10959491Y18269847D01*
X10958720Y18271537D01*
X10958681Y18272609D01*
X10958234Y18274133D01*
X10958623Y18274248D01*
X10957013Y18319342D01*
X10989609Y18354352D01*
X11015572Y18360000D01*
X11506243Y18360000D01*
X11506243Y18360001D01*
X11474766Y18463764D01*
X11417983Y18570000D01*
X29644417Y18570000D01*
X29664699Y18364070D01*
X29664700Y18364065D01*
X29724766Y18166051D01*
X29724768Y18166046D01*
X29822311Y17983556D01*
X29822313Y17983552D01*
X29822315Y17983550D01*
X29953590Y17823590D01*
X30113550Y17692315D01*
X30113553Y17692314D01*
X30113555Y17692312D01*
X30181047Y17656237D01*
X30296046Y17594768D01*
X30494066Y17534700D01*
X30648516Y17519488D01*
X30699999Y17514417D01*
X30699999Y17514418D01*
X30700000Y17514417D01*
X30905934Y17534700D01*
X31103954Y17594768D01*
X31286450Y17692315D01*
X31446410Y17823590D01*
X31577685Y17983550D01*
X31675232Y18166046D01*
X31735300Y18364066D01*
X31755583Y18570000D01*
X31735300Y18775934D01*
X31675232Y18973954D01*
X31577685Y19156450D01*
X31446410Y19316410D01*
X31286450Y19447685D01*
X31286448Y19447687D01*
X31286444Y19447689D01*
X31103954Y19545232D01*
X31103949Y19545234D01*
X30905935Y19605300D01*
X30905930Y19605301D01*
X30700000Y19625583D01*
X30494069Y19605301D01*
X30494064Y19605300D01*
X30296050Y19545234D01*
X30296045Y19545232D01*
X30113555Y19447689D01*
X30113544Y19447681D01*
X29953591Y19316412D01*
X29953588Y19316409D01*
X29822319Y19156456D01*
X29822311Y19156445D01*
X29724768Y18973955D01*
X29724766Y18973950D01*
X29664700Y18775936D01*
X29664699Y18775931D01*
X29644417Y18570001D01*
X29644417Y18570000D01*
X11417983Y18570000D01*
X11377271Y18646167D01*
X11377267Y18646173D01*
X11246054Y18806055D01*
X11086172Y18937268D01*
X11086166Y18937272D01*
X10903763Y19034767D01*
X10800000Y19066244D01*
X10800000Y18569920D01*
X10781694Y18525726D01*
X10737500Y18507420D01*
X10711537Y18513068D01*
X10642316Y18544680D01*
X10642313Y18544681D01*
X10535765Y18560000D01*
X10535763Y18560000D01*
X10464237Y18560000D01*
X10464235Y18560000D01*
X10357686Y18544681D01*
X10357683Y18544680D01*
X10288463Y18513068D01*
X10240658Y18511361D01*
X10205648Y18543957D01*
X10200000Y18569920D01*
X10200000Y19066244D01*
X10199999Y19066244D01*
X10096236Y19034767D01*
X9913833Y18937272D01*
X9913827Y18937268D01*
X9753945Y18806055D01*
X9622732Y18646173D01*
X9622728Y18646167D01*
X9525233Y18463764D01*
X9493756Y18360001D01*
X9493757Y18360000D01*
X9984428Y18360000D01*
X10028622Y18341694D01*
X10046928Y18297500D01*
X10041280Y18271537D01*
X10040506Y18269843D01*
X10000000Y18131892D01*
X10000000Y17988109D01*
X10040506Y17850158D01*
X10041280Y17848463D01*
X10041318Y17847392D01*
X10041766Y17845867D01*
X10041376Y17845753D01*
X10042987Y17800658D01*
X10010391Y17765648D01*
X9984428Y17760000D01*
X9493756Y17760000D01*
X8966244Y17760000D01*
X8475572Y17760000D01*
X8431378Y17778306D01*
X8413072Y17822500D01*
X8418720Y17848463D01*
X8419489Y17850152D01*
X8419493Y17850156D01*
X8460000Y17988111D01*
X8460000Y18131889D01*
X8460000Y18131890D01*
X8460000Y18131891D01*
X8459999Y18131892D01*
X8419493Y18269844D01*
X8419491Y18269847D01*
X8418720Y18271537D01*
X8418681Y18272609D01*
X8418234Y18274133D01*
X8418623Y18274248D01*
X8417013Y18319342D01*
X8449609Y18354352D01*
X8475572Y18360000D01*
X8966243Y18360000D01*
X8966243Y18360001D01*
X8934766Y18463764D01*
X8837271Y18646167D01*
X8837267Y18646173D01*
X8706054Y18806055D01*
X8546172Y18937268D01*
X8546166Y18937272D01*
X8363763Y19034767D01*
X8260000Y19066244D01*
X8260000Y18569920D01*
X8241694Y18525726D01*
X8197500Y18507420D01*
X8171537Y18513068D01*
X8102316Y18544680D01*
X8102313Y18544681D01*
X7995765Y18560000D01*
X7995763Y18560000D01*
X7924237Y18560000D01*
X7924235Y18560000D01*
X7817686Y18544681D01*
X7817683Y18544680D01*
X7748463Y18513068D01*
X7700658Y18511361D01*
X7665648Y18543957D01*
X7660000Y18569920D01*
X7660000Y19066244D01*
X7659999Y19066244D01*
X7556236Y19034767D01*
X7373833Y18937272D01*
X7373827Y18937268D01*
X7213945Y18806055D01*
X7082732Y18646173D01*
X7082728Y18646167D01*
X6985233Y18463764D01*
X6953756Y18360001D01*
X6953757Y18360000D01*
X7444428Y18360000D01*
X7488622Y18341694D01*
X7506928Y18297500D01*
X7501280Y18271537D01*
X7500506Y18269843D01*
X7460000Y18131892D01*
X7460000Y17988109D01*
X7500506Y17850158D01*
X7501280Y17848463D01*
X7501318Y17847392D01*
X7501766Y17845867D01*
X7501376Y17845753D01*
X7502987Y17800658D01*
X7470391Y17765648D01*
X7444428Y17760000D01*
X6953756Y17760000D01*
X5834500Y17760000D01*
X5834500Y20600000D01*
X6904417Y20600000D01*
X6924699Y20394070D01*
X6924700Y20394065D01*
X6984766Y20196051D01*
X6984768Y20196046D01*
X7082311Y20013556D01*
X7082313Y20013552D01*
X7082315Y20013550D01*
X7213590Y19853590D01*
X7373550Y19722315D01*
X7373553Y19722314D01*
X7373555Y19722312D01*
X7448912Y19682033D01*
X7556046Y19624768D01*
X7754066Y19564700D01*
X7908516Y19549488D01*
X7959999Y19544417D01*
X7959999Y19544418D01*
X7960000Y19544417D01*
X8165934Y19564700D01*
X8363954Y19624768D01*
X8546450Y19722315D01*
X8706410Y19853590D01*
X8837685Y20013550D01*
X8935232Y20196046D01*
X8995300Y20394066D01*
X9015583Y20600000D01*
X9444417Y20600000D01*
X9464699Y20394070D01*
X9464700Y20394065D01*
X9524766Y20196051D01*
X9524768Y20196046D01*
X9622311Y20013556D01*
X9622313Y20013552D01*
X9622315Y20013550D01*
X9753590Y19853590D01*
X9913550Y19722315D01*
X9913553Y19722314D01*
X9913555Y19722312D01*
X9988912Y19682033D01*
X10096046Y19624768D01*
X10294066Y19564700D01*
X10500000Y19544417D01*
X10705934Y19564700D01*
X10903954Y19624768D01*
X11086450Y19722315D01*
X11246410Y19853590D01*
X11377685Y20013550D01*
X11475232Y20196046D01*
X11535300Y20394066D01*
X11555583Y20600000D01*
X11535300Y20805934D01*
X11475232Y21003954D01*
X11377685Y21186450D01*
X11246410Y21346410D01*
X11086450Y21477685D01*
X11086448Y21477687D01*
X11086444Y21477689D01*
X10903954Y21575232D01*
X10903949Y21575234D01*
X10705935Y21635300D01*
X10705930Y21635301D01*
X10500000Y21655583D01*
X10294069Y21635301D01*
X10294064Y21635300D01*
X10096050Y21575234D01*
X10096045Y21575232D01*
X9913555Y21477689D01*
X9913544Y21477681D01*
X9753591Y21346412D01*
X9753588Y21346409D01*
X9622319Y21186456D01*
X9622311Y21186445D01*
X9524768Y21003955D01*
X9524766Y21003950D01*
X9464700Y20805936D01*
X9464699Y20805931D01*
X9444417Y20600001D01*
X9444417Y20600000D01*
X9015583Y20600000D01*
X8995300Y20805934D01*
X8935232Y21003954D01*
X8837685Y21186450D01*
X8706410Y21346410D01*
X8546450Y21477685D01*
X8546448Y21477687D01*
X8546444Y21477689D01*
X8363954Y21575232D01*
X8363949Y21575234D01*
X8165935Y21635300D01*
X8165930Y21635301D01*
X7960000Y21655583D01*
X7754069Y21635301D01*
X7754064Y21635300D01*
X7556050Y21575234D01*
X7556045Y21575232D01*
X7373555Y21477689D01*
X7373544Y21477681D01*
X7213591Y21346412D01*
X7213588Y21346409D01*
X7082319Y21186456D01*
X7082311Y21186445D01*
X6984768Y21003955D01*
X6984766Y21003950D01*
X6924700Y20805936D01*
X6924699Y20805931D01*
X6904417Y20600001D01*
X6904417Y20600000D01*
X5834500Y20600000D01*
X5834500Y22270302D01*
X6910000Y22270302D01*
X6921603Y22211966D01*
X6921605Y22211962D01*
X6965808Y22145809D01*
X7031961Y22101606D01*
X7031965Y22101604D01*
X7090301Y22090001D01*
X7090302Y22090000D01*
X7660000Y22090000D01*
X7660000Y22630081D01*
X7678306Y22674275D01*
X7722500Y22692581D01*
X7748461Y22686934D01*
X7817685Y22655320D01*
X7853202Y22650214D01*
X7924235Y22640000D01*
X7924237Y22640000D01*
X7995765Y22640000D01*
X8049038Y22647660D01*
X8102315Y22655320D01*
X8171537Y22686934D01*
X8219341Y22688640D01*
X8254352Y22656045D01*
X8260000Y22630081D01*
X8260000Y22090000D01*
X8829698Y22090000D01*
X8829698Y22090001D01*
X8888034Y22101604D01*
X8888038Y22101606D01*
X8954191Y22145809D01*
X8998394Y22211962D01*
X8998396Y22211966D01*
X9009999Y22270302D01*
X9010000Y22270302D01*
X9010000Y22840000D01*
X9493756Y22840000D01*
X9525233Y22736237D01*
X9622728Y22553834D01*
X9622732Y22553828D01*
X9753945Y22393946D01*
X9913827Y22262733D01*
X9913833Y22262729D01*
X10096236Y22165233D01*
X10096239Y22165232D01*
X10200000Y22133757D01*
X10200000Y22630081D01*
X10218306Y22674275D01*
X10262500Y22692581D01*
X10288461Y22686934D01*
X10357685Y22655320D01*
X10393202Y22650214D01*
X10464235Y22640000D01*
X10464237Y22640000D01*
X10535765Y22640000D01*
X10589038Y22647660D01*
X10642315Y22655320D01*
X10711537Y22686934D01*
X10759341Y22688640D01*
X10794352Y22656045D01*
X10800000Y22630081D01*
X10800000Y22133758D01*
X10903760Y22165232D01*
X10903763Y22165233D01*
X11086166Y22262729D01*
X11086172Y22262733D01*
X11246054Y22393946D01*
X11377267Y22553828D01*
X11377271Y22553834D01*
X11455397Y22699999D01*
X23919318Y22699999D01*
X23939954Y22543245D01*
X23939957Y22543235D01*
X24000462Y22397162D01*
X24000464Y22397159D01*
X24096717Y22271718D01*
X24174594Y22211962D01*
X24222159Y22175464D01*
X24368238Y22114956D01*
X24368242Y22114956D01*
X24368244Y22114955D01*
X24524998Y22094318D01*
X24525000Y22094318D01*
X24525001Y22094318D01*
X24550110Y22097625D01*
X24622886Y22107206D01*
X24669092Y22094826D01*
X24675239Y22089436D01*
X24858829Y21905845D01*
X24860661Y21903845D01*
X24887544Y21871807D01*
X24887546Y21871805D01*
X24923768Y21850892D01*
X24926052Y21849438D01*
X24960316Y21825446D01*
X24966411Y21823813D01*
X24981486Y21817570D01*
X24986955Y21814412D01*
X24986958Y21814412D01*
X24986959Y21814411D01*
X25028136Y21807151D01*
X25030793Y21806562D01*
X25071193Y21795736D01*
X25112859Y21799382D01*
X25115581Y21799500D01*
X29446525Y21799500D01*
X29524286Y21799500D01*
X29568480Y21781194D01*
X29730638Y21619036D01*
X29748944Y21574842D01*
X29741565Y21545381D01*
X29724767Y21513953D01*
X29664700Y21315936D01*
X29664699Y21315931D01*
X29644417Y21110001D01*
X29644417Y21110000D01*
X29664699Y20904070D01*
X29664700Y20904065D01*
X29724766Y20706051D01*
X29724768Y20706046D01*
X29822311Y20523556D01*
X29822313Y20523552D01*
X29822315Y20523550D01*
X29953590Y20363590D01*
X30113550Y20232315D01*
X30113553Y20232314D01*
X30113555Y20232312D01*
X30181395Y20196051D01*
X30296046Y20134768D01*
X30494066Y20074700D01*
X30648516Y20059488D01*
X30699999Y20054417D01*
X30699999Y20054418D01*
X30700000Y20054417D01*
X30905934Y20074700D01*
X31103954Y20134768D01*
X31286450Y20232315D01*
X31446410Y20363590D01*
X31577685Y20523550D01*
X31675232Y20706046D01*
X31735300Y20904066D01*
X31755583Y21110000D01*
X31735300Y21315934D01*
X31675232Y21513954D01*
X31577685Y21696450D01*
X31486836Y21807151D01*
X31446411Y21856409D01*
X31446408Y21856412D01*
X31286455Y21987681D01*
X31286453Y21987682D01*
X31286450Y21987685D01*
X31286448Y21987687D01*
X31286444Y21987689D01*
X31103954Y22085232D01*
X31103949Y22085234D01*
X30905935Y22145300D01*
X30905930Y22145301D01*
X30700000Y22165583D01*
X30494069Y22145301D01*
X30494064Y22145300D01*
X30296047Y22085233D01*
X30264619Y22068435D01*
X30217014Y22063748D01*
X30190964Y22079362D01*
X30094861Y22175465D01*
X29926168Y22344158D01*
X29924337Y22346157D01*
X29897455Y22378194D01*
X29861233Y22399108D01*
X29858933Y22400573D01*
X29824684Y22424554D01*
X29824680Y22424556D01*
X29818582Y22426190D01*
X29803516Y22432430D01*
X29798045Y22435588D01*
X29798042Y22435589D01*
X29774449Y22439749D01*
X29756859Y22442851D01*
X29754205Y22443440D01*
X29713808Y22454265D01*
X29678505Y22451176D01*
X29672144Y22450619D01*
X29669423Y22450500D01*
X25260714Y22450500D01*
X25216520Y22468806D01*
X25135565Y22549761D01*
X25117259Y22593955D01*
X25117794Y22602114D01*
X25118982Y22611133D01*
X25130682Y22700000D01*
X25125911Y22736237D01*
X25120117Y22780252D01*
X29649500Y22780252D01*
X29661132Y22721770D01*
X29661133Y22721768D01*
X29705447Y22655448D01*
X29771767Y22611134D01*
X29771769Y22611133D01*
X29830252Y22599500D01*
X31569748Y22599500D01*
X31628231Y22611133D01*
X31694552Y22655448D01*
X31738867Y22721769D01*
X31750500Y22780252D01*
X31750500Y24519748D01*
X31738867Y24578231D01*
X31738866Y24578233D01*
X31694552Y24644553D01*
X31628232Y24688867D01*
X31628230Y24688868D01*
X31569748Y24700500D01*
X29830252Y24700500D01*
X29771769Y24688868D01*
X29771767Y24688867D01*
X29705447Y24644553D01*
X29661133Y24578233D01*
X29661132Y24578231D01*
X29649500Y24519749D01*
X29649500Y22780252D01*
X25120117Y22780252D01*
X25110045Y22856756D01*
X25110044Y22856758D01*
X25110044Y22856762D01*
X25049536Y23002841D01*
X25027139Y23032030D01*
X24953282Y23128283D01*
X24827841Y23224536D01*
X24827838Y23224538D01*
X24681765Y23285043D01*
X24681755Y23285046D01*
X24525002Y23305682D01*
X24524998Y23305682D01*
X24368244Y23285046D01*
X24368234Y23285043D01*
X24222161Y23224538D01*
X24222158Y23224536D01*
X24096717Y23128283D01*
X24000464Y23002842D01*
X24000462Y23002839D01*
X23939957Y22856766D01*
X23939954Y22856756D01*
X23919318Y22700002D01*
X23919318Y22699999D01*
X11455397Y22699999D01*
X11474766Y22736237D01*
X11506244Y22840000D01*
X11015572Y22840000D01*
X10971378Y22858306D01*
X10953072Y22902500D01*
X10958720Y22928463D01*
X10959489Y22930152D01*
X10959493Y22930156D01*
X11000000Y23068111D01*
X11000000Y23211889D01*
X11000000Y23211890D01*
X11000000Y23211891D01*
X10999999Y23211892D01*
X10959493Y23349844D01*
X10959491Y23349847D01*
X10958720Y23351537D01*
X10958681Y23352609D01*
X10958234Y23354133D01*
X10958623Y23354248D01*
X10957013Y23399342D01*
X10989609Y23434352D01*
X11015572Y23440000D01*
X11506243Y23440000D01*
X11506243Y23440001D01*
X11474766Y23543764D01*
X11377271Y23726167D01*
X11377267Y23726173D01*
X11246054Y23886055D01*
X11086172Y24017268D01*
X11086166Y24017272D01*
X10903763Y24114767D01*
X10800000Y24146244D01*
X10800000Y23649920D01*
X10781694Y23605726D01*
X10737500Y23587420D01*
X10711537Y23593068D01*
X10642316Y23624680D01*
X10642313Y23624681D01*
X10535765Y23640000D01*
X10535763Y23640000D01*
X10464237Y23640000D01*
X10464235Y23640000D01*
X10357686Y23624681D01*
X10357683Y23624680D01*
X10288463Y23593068D01*
X10240658Y23591361D01*
X10205648Y23623957D01*
X10200000Y23649920D01*
X10200000Y24146244D01*
X10199999Y24146244D01*
X10096236Y24114767D01*
X9913833Y24017272D01*
X9913827Y24017268D01*
X9753945Y23886055D01*
X9622732Y23726173D01*
X9622728Y23726167D01*
X9525233Y23543764D01*
X9493756Y23440001D01*
X9493757Y23440000D01*
X9984428Y23440000D01*
X10028622Y23421694D01*
X10046928Y23377500D01*
X10041280Y23351537D01*
X10040506Y23349843D01*
X10000000Y23211892D01*
X10000000Y23068109D01*
X10040506Y22930158D01*
X10041280Y22928463D01*
X10041318Y22927392D01*
X10041766Y22925867D01*
X10041376Y22925753D01*
X10042987Y22880658D01*
X10010391Y22845648D01*
X9984428Y22840000D01*
X9493756Y22840000D01*
X9010000Y22840000D01*
X8475572Y22840000D01*
X8431378Y22858306D01*
X8413072Y22902500D01*
X8418720Y22928463D01*
X8419489Y22930152D01*
X8419493Y22930156D01*
X8460000Y23068111D01*
X8460000Y23211889D01*
X8460000Y23211890D01*
X8460000Y23211891D01*
X8459999Y23211892D01*
X8419493Y23349844D01*
X8419491Y23349847D01*
X8418720Y23351537D01*
X8418681Y23352609D01*
X8418234Y23354133D01*
X8418623Y23354248D01*
X8417013Y23399342D01*
X8449609Y23434352D01*
X8475572Y23440000D01*
X9010000Y23440000D01*
X9010000Y24009698D01*
X9009999Y24009699D01*
X8998396Y24068035D01*
X8998394Y24068039D01*
X8954191Y24134192D01*
X8888038Y24178395D01*
X8888034Y24178397D01*
X8829698Y24190000D01*
X8260000Y24190000D01*
X8260000Y23649920D01*
X8241694Y23605726D01*
X8197500Y23587420D01*
X8171537Y23593068D01*
X8102316Y23624680D01*
X8102313Y23624681D01*
X7995765Y23640000D01*
X7995763Y23640000D01*
X7924237Y23640000D01*
X7924235Y23640000D01*
X7817686Y23624681D01*
X7817683Y23624680D01*
X7748463Y23593068D01*
X7700658Y23591361D01*
X7665648Y23623957D01*
X7660000Y23649920D01*
X7660000Y24190000D01*
X7090302Y24190000D01*
X7031965Y24178397D01*
X7031961Y24178395D01*
X6965808Y24134192D01*
X6921605Y24068039D01*
X6921603Y24068035D01*
X6910000Y24009699D01*
X6910000Y23440000D01*
X7444428Y23440000D01*
X7488622Y23421694D01*
X7506928Y23377500D01*
X7501280Y23351537D01*
X7500506Y23349843D01*
X7460000Y23211892D01*
X7460000Y23068109D01*
X7500506Y22930158D01*
X7501280Y22928463D01*
X7501318Y22927392D01*
X7501766Y22925867D01*
X7501376Y22925753D01*
X7502987Y22880658D01*
X7470391Y22845648D01*
X7444428Y22840000D01*
X6910000Y22840000D01*
X6910000Y22270302D01*
X5834500Y22270302D01*
X5834500Y29385000D01*
X17394417Y29385000D01*
X17414699Y29179070D01*
X17414700Y29179065D01*
X17474766Y28981051D01*
X17474768Y28981046D01*
X17572311Y28798556D01*
X17572313Y28798552D01*
X17572315Y28798550D01*
X17703590Y28638590D01*
X17863550Y28507315D01*
X17863553Y28507314D01*
X17863555Y28507312D01*
X17938912Y28467033D01*
X18046046Y28409768D01*
X18244066Y28349700D01*
X18450000Y28329417D01*
X18655934Y28349700D01*
X18853954Y28409768D01*
X19036450Y28507315D01*
X19196410Y28638590D01*
X19327685Y28798550D01*
X19425232Y28981046D01*
X19485300Y29179066D01*
X19505583Y29385000D01*
X19934417Y29385000D01*
X19954699Y29179070D01*
X19954700Y29179065D01*
X20014766Y28981051D01*
X20014768Y28981046D01*
X20112311Y28798556D01*
X20112313Y28798552D01*
X20112315Y28798550D01*
X20243590Y28638590D01*
X20403550Y28507315D01*
X20403553Y28507314D01*
X20403555Y28507312D01*
X20478912Y28467033D01*
X20586046Y28409768D01*
X20784066Y28349700D01*
X20990000Y28329417D01*
X21195934Y28349700D01*
X21393954Y28409768D01*
X21576450Y28507315D01*
X21736410Y28638590D01*
X21867685Y28798550D01*
X21965232Y28981046D01*
X22025300Y29179066D01*
X22045583Y29385000D01*
X22025300Y29590934D01*
X21965232Y29788954D01*
X21867685Y29971450D01*
X21736410Y30131410D01*
X21576450Y30262685D01*
X21576448Y30262687D01*
X21576444Y30262689D01*
X21393954Y30360232D01*
X21393949Y30360234D01*
X21195935Y30420300D01*
X21195930Y30420301D01*
X20990000Y30440583D01*
X20784069Y30420301D01*
X20784064Y30420300D01*
X20586050Y30360234D01*
X20586045Y30360232D01*
X20403555Y30262689D01*
X20403544Y30262681D01*
X20243591Y30131412D01*
X20243588Y30131409D01*
X20112319Y29971456D01*
X20112311Y29971445D01*
X20014768Y29788955D01*
X20014766Y29788950D01*
X19954700Y29590936D01*
X19954699Y29590931D01*
X19934417Y29385001D01*
X19934417Y29385000D01*
X19505583Y29385000D01*
X19485300Y29590934D01*
X19425232Y29788954D01*
X19327685Y29971450D01*
X19196410Y30131410D01*
X19036450Y30262685D01*
X19036448Y30262687D01*
X19036444Y30262689D01*
X18853954Y30360232D01*
X18853949Y30360234D01*
X18655935Y30420300D01*
X18655930Y30420301D01*
X18450000Y30440583D01*
X18244069Y30420301D01*
X18244064Y30420300D01*
X18046050Y30360234D01*
X18046045Y30360232D01*
X17863555Y30262689D01*
X17863544Y30262681D01*
X17703591Y30131412D01*
X17703588Y30131409D01*
X17572319Y29971456D01*
X17572311Y29971445D01*
X17474768Y29788955D01*
X17474766Y29788950D01*
X17414700Y29590936D01*
X17414699Y29590931D01*
X17394417Y29385001D01*
X17394417Y29385000D01*
X5834500Y29385000D01*
X5834500Y31055302D01*
X17400000Y31055302D01*
X17411603Y30996966D01*
X17411605Y30996962D01*
X17455808Y30930809D01*
X17521961Y30886606D01*
X17521965Y30886604D01*
X17580301Y30875001D01*
X17580302Y30875000D01*
X18150000Y30875000D01*
X18150000Y31415081D01*
X18168306Y31459275D01*
X18212500Y31477581D01*
X18238461Y31471934D01*
X18307685Y31440320D01*
X18343202Y31435214D01*
X18414235Y31425000D01*
X18414237Y31425000D01*
X18485765Y31425000D01*
X18539038Y31432660D01*
X18592315Y31440320D01*
X18661537Y31471934D01*
X18709341Y31473640D01*
X18744352Y31441045D01*
X18750000Y31415081D01*
X18750000Y30875000D01*
X19319698Y30875000D01*
X19319698Y30875001D01*
X19378034Y30886604D01*
X19378038Y30886606D01*
X19444191Y30930809D01*
X19488394Y30996962D01*
X19488396Y30996966D01*
X19499999Y31055302D01*
X19500000Y31055302D01*
X19940000Y31055302D01*
X19951603Y30996966D01*
X19951605Y30996962D01*
X19995808Y30930809D01*
X20061961Y30886606D01*
X20061965Y30886604D01*
X20120301Y30875001D01*
X20120302Y30875000D01*
X20690000Y30875000D01*
X20690000Y31415081D01*
X20708306Y31459275D01*
X20752500Y31477581D01*
X20778461Y31471934D01*
X20847685Y31440320D01*
X20883202Y31435214D01*
X20954235Y31425000D01*
X20954237Y31425000D01*
X21025765Y31425000D01*
X21079038Y31432660D01*
X21132315Y31440320D01*
X21201537Y31471934D01*
X21249341Y31473640D01*
X21284352Y31441045D01*
X21290000Y31415081D01*
X21290000Y30875000D01*
X21859698Y30875000D01*
X21859698Y30875001D01*
X21918034Y30886604D01*
X21918038Y30886606D01*
X21984191Y30930809D01*
X22028394Y30996962D01*
X22028396Y30996966D01*
X22039999Y31055302D01*
X22040000Y31055302D01*
X22040000Y31625000D01*
X21505572Y31625000D01*
X21461378Y31643306D01*
X21443072Y31687500D01*
X21448720Y31713463D01*
X21449489Y31715152D01*
X21449493Y31715156D01*
X21490000Y31853111D01*
X21490000Y31996889D01*
X21490000Y31996891D01*
X21489999Y31996892D01*
X21449493Y32134843D01*
X21448720Y32136537D01*
X21448681Y32137609D01*
X21448234Y32139133D01*
X21448623Y32139248D01*
X21447013Y32184342D01*
X21479609Y32219352D01*
X21505572Y32225000D01*
X22040000Y32225000D01*
X22040000Y32794698D01*
X22039999Y32794699D01*
X22028396Y32853035D01*
X22028394Y32853039D01*
X21984191Y32919192D01*
X21918038Y32963395D01*
X21918034Y32963397D01*
X21859698Y32975000D01*
X21290000Y32975000D01*
X21290000Y32434920D01*
X21271694Y32390726D01*
X21227500Y32372420D01*
X21201537Y32378068D01*
X21132316Y32409680D01*
X21132313Y32409681D01*
X21025765Y32425000D01*
X21025763Y32425000D01*
X20954237Y32425000D01*
X20954235Y32425000D01*
X20847686Y32409681D01*
X20847683Y32409680D01*
X20778463Y32378068D01*
X20730658Y32376361D01*
X20695648Y32408957D01*
X20690000Y32434920D01*
X20690000Y32975000D01*
X20120302Y32975000D01*
X20061965Y32963397D01*
X20061961Y32963395D01*
X19995808Y32919192D01*
X19951605Y32853039D01*
X19951603Y32853035D01*
X19940000Y32794699D01*
X19940000Y32225000D01*
X20474428Y32225000D01*
X20518622Y32206694D01*
X20536928Y32162500D01*
X20531280Y32136537D01*
X20530506Y32134843D01*
X20490000Y31996892D01*
X20490000Y31853109D01*
X20530506Y31715158D01*
X20531280Y31713463D01*
X20531318Y31712392D01*
X20531766Y31710867D01*
X20531376Y31710753D01*
X20532987Y31665658D01*
X20500391Y31630648D01*
X20474428Y31625000D01*
X19940000Y31625000D01*
X19940000Y31055302D01*
X19500000Y31055302D01*
X19500000Y31625000D01*
X18965572Y31625000D01*
X18921378Y31643306D01*
X18903072Y31687500D01*
X18908720Y31713463D01*
X18909489Y31715152D01*
X18909493Y31715156D01*
X18950000Y31853111D01*
X18950000Y31996889D01*
X18950000Y31996891D01*
X18949999Y31996892D01*
X18909493Y32134843D01*
X18908720Y32136537D01*
X18908681Y32137609D01*
X18908234Y32139133D01*
X18908623Y32139248D01*
X18907013Y32184342D01*
X18939609Y32219352D01*
X18965572Y32225000D01*
X19500000Y32225000D01*
X19500000Y32794698D01*
X19499999Y32794699D01*
X19488396Y32853035D01*
X19488394Y32853039D01*
X19444191Y32919192D01*
X19378038Y32963395D01*
X19378034Y32963397D01*
X19319698Y32975000D01*
X18750000Y32975000D01*
X18750000Y32434920D01*
X18731694Y32390726D01*
X18687500Y32372420D01*
X18661537Y32378068D01*
X18592316Y32409680D01*
X18592313Y32409681D01*
X18485765Y32425000D01*
X18485763Y32425000D01*
X18414237Y32425000D01*
X18414235Y32425000D01*
X18307686Y32409681D01*
X18307683Y32409680D01*
X18238463Y32378068D01*
X18190658Y32376361D01*
X18155648Y32408957D01*
X18150000Y32434920D01*
X18150000Y32975000D01*
X17580302Y32975000D01*
X17521965Y32963397D01*
X17521961Y32963395D01*
X17455808Y32919192D01*
X17411605Y32853039D01*
X17411603Y32853035D01*
X17400000Y32794699D01*
X17400000Y32225000D01*
X17934428Y32225000D01*
X17978622Y32206694D01*
X17996928Y32162500D01*
X17991280Y32136537D01*
X17990506Y32134843D01*
X17950000Y31996892D01*
X17950000Y31853109D01*
X17990506Y31715158D01*
X17991280Y31713463D01*
X17991318Y31712392D01*
X17991766Y31710867D01*
X17991376Y31710753D01*
X17992987Y31665658D01*
X17960391Y31630648D01*
X17934428Y31625000D01*
X17400000Y31625000D01*
X17400000Y31055302D01*
X5834500Y31055302D01*
X5834500Y34743000D01*
X5852806Y34787194D01*
X5897000Y34805500D01*
X34743001Y34805500D01*
X34787195Y34787194D01*
G37*
%TD.AperFunction*%
%TD*%
M02*
