%TF.GenerationSoftware,KiCad,Pcbnew,7.0.7-7.0.7~ubuntu23.04.1*%
%TF.CreationDate,2023-09-17T11:34:19+00:00*%
%TF.ProjectId,STEPBUBODC01,53544550-4255-4424-9f44-4330312e6b69,rev?*%
%TF.SameCoordinates,Original*%
%TF.FileFunction,Legend,Top*%
%TF.FilePolarity,Positive*%
%FSLAX46Y46*%
G04 Gerber Fmt 4.6, Leading zero omitted, Abs format (unit mm)*
G04 Created by KiCad (PCBNEW 7.0.7-7.0.7~ubuntu23.04.1) date 2023-09-17 11:34:19*
%MOMM*%
%LPD*%
G01*
G04 APERTURE LIST*
%ADD10C,0.150000*%
%ADD11C,0.200000*%
%ADD12C,0.120000*%
G04 APERTURE END LIST*
D10*
X25300000Y17000000D02*
X25300000Y6500000D01*
X17000000Y17000000D02*
X17000000Y6500000D01*
X17000000Y33600000D02*
X23900000Y33600000D01*
D11*
X16052381Y22900400D02*
X16195238Y22852781D01*
X16195238Y22852781D02*
X16433333Y22852781D01*
X16433333Y22852781D02*
X16528571Y22900400D01*
X16528571Y22900400D02*
X16576190Y22948020D01*
X16576190Y22948020D02*
X16623809Y23043258D01*
X16623809Y23043258D02*
X16623809Y23138496D01*
X16623809Y23138496D02*
X16576190Y23233734D01*
X16576190Y23233734D02*
X16528571Y23281353D01*
X16528571Y23281353D02*
X16433333Y23328972D01*
X16433333Y23328972D02*
X16242857Y23376591D01*
X16242857Y23376591D02*
X16147619Y23424210D01*
X16147619Y23424210D02*
X16100000Y23471829D01*
X16100000Y23471829D02*
X16052381Y23567067D01*
X16052381Y23567067D02*
X16052381Y23662305D01*
X16052381Y23662305D02*
X16100000Y23757543D01*
X16100000Y23757543D02*
X16147619Y23805162D01*
X16147619Y23805162D02*
X16242857Y23852781D01*
X16242857Y23852781D02*
X16480952Y23852781D01*
X16480952Y23852781D02*
X16623809Y23805162D01*
X16909524Y23852781D02*
X17480952Y23852781D01*
X17195238Y22852781D02*
X17195238Y23852781D01*
X17814286Y23376591D02*
X18147619Y23376591D01*
X18290476Y22852781D02*
X17814286Y22852781D01*
X17814286Y22852781D02*
X17814286Y23852781D01*
X17814286Y23852781D02*
X18290476Y23852781D01*
X18719048Y22852781D02*
X18719048Y23852781D01*
X18719048Y23852781D02*
X19100000Y23852781D01*
X19100000Y23852781D02*
X19195238Y23805162D01*
X19195238Y23805162D02*
X19242857Y23757543D01*
X19242857Y23757543D02*
X19290476Y23662305D01*
X19290476Y23662305D02*
X19290476Y23519448D01*
X19290476Y23519448D02*
X19242857Y23424210D01*
X19242857Y23424210D02*
X19195238Y23376591D01*
X19195238Y23376591D02*
X19100000Y23328972D01*
X19100000Y23328972D02*
X18719048Y23328972D01*
X20052381Y23376591D02*
X20195238Y23328972D01*
X20195238Y23328972D02*
X20242857Y23281353D01*
X20242857Y23281353D02*
X20290476Y23186115D01*
X20290476Y23186115D02*
X20290476Y23043258D01*
X20290476Y23043258D02*
X20242857Y22948020D01*
X20242857Y22948020D02*
X20195238Y22900400D01*
X20195238Y22900400D02*
X20100000Y22852781D01*
X20100000Y22852781D02*
X19719048Y22852781D01*
X19719048Y22852781D02*
X19719048Y23852781D01*
X19719048Y23852781D02*
X20052381Y23852781D01*
X20052381Y23852781D02*
X20147619Y23805162D01*
X20147619Y23805162D02*
X20195238Y23757543D01*
X20195238Y23757543D02*
X20242857Y23662305D01*
X20242857Y23662305D02*
X20242857Y23567067D01*
X20242857Y23567067D02*
X20195238Y23471829D01*
X20195238Y23471829D02*
X20147619Y23424210D01*
X20147619Y23424210D02*
X20052381Y23376591D01*
X20052381Y23376591D02*
X19719048Y23376591D01*
X20719048Y23852781D02*
X20719048Y23043258D01*
X20719048Y23043258D02*
X20766667Y22948020D01*
X20766667Y22948020D02*
X20814286Y22900400D01*
X20814286Y22900400D02*
X20909524Y22852781D01*
X20909524Y22852781D02*
X21100000Y22852781D01*
X21100000Y22852781D02*
X21195238Y22900400D01*
X21195238Y22900400D02*
X21242857Y22948020D01*
X21242857Y22948020D02*
X21290476Y23043258D01*
X21290476Y23043258D02*
X21290476Y23852781D01*
X22100000Y23376591D02*
X22242857Y23328972D01*
X22242857Y23328972D02*
X22290476Y23281353D01*
X22290476Y23281353D02*
X22338095Y23186115D01*
X22338095Y23186115D02*
X22338095Y23043258D01*
X22338095Y23043258D02*
X22290476Y22948020D01*
X22290476Y22948020D02*
X22242857Y22900400D01*
X22242857Y22900400D02*
X22147619Y22852781D01*
X22147619Y22852781D02*
X21766667Y22852781D01*
X21766667Y22852781D02*
X21766667Y23852781D01*
X21766667Y23852781D02*
X22100000Y23852781D01*
X22100000Y23852781D02*
X22195238Y23805162D01*
X22195238Y23805162D02*
X22242857Y23757543D01*
X22242857Y23757543D02*
X22290476Y23662305D01*
X22290476Y23662305D02*
X22290476Y23567067D01*
X22290476Y23567067D02*
X22242857Y23471829D01*
X22242857Y23471829D02*
X22195238Y23424210D01*
X22195238Y23424210D02*
X22100000Y23376591D01*
X22100000Y23376591D02*
X21766667Y23376591D01*
X22957143Y23852781D02*
X23147619Y23852781D01*
X23147619Y23852781D02*
X23242857Y23805162D01*
X23242857Y23805162D02*
X23338095Y23709924D01*
X23338095Y23709924D02*
X23385714Y23519448D01*
X23385714Y23519448D02*
X23385714Y23186115D01*
X23385714Y23186115D02*
X23338095Y22995639D01*
X23338095Y22995639D02*
X23242857Y22900400D01*
X23242857Y22900400D02*
X23147619Y22852781D01*
X23147619Y22852781D02*
X22957143Y22852781D01*
X22957143Y22852781D02*
X22861905Y22900400D01*
X22861905Y22900400D02*
X22766667Y22995639D01*
X22766667Y22995639D02*
X22719048Y23186115D01*
X22719048Y23186115D02*
X22719048Y23519448D01*
X22719048Y23519448D02*
X22766667Y23709924D01*
X22766667Y23709924D02*
X22861905Y23805162D01*
X22861905Y23805162D02*
X22957143Y23852781D01*
X23814286Y22852781D02*
X23814286Y23852781D01*
X23814286Y23852781D02*
X24052381Y23852781D01*
X24052381Y23852781D02*
X24195238Y23805162D01*
X24195238Y23805162D02*
X24290476Y23709924D01*
X24290476Y23709924D02*
X24338095Y23614686D01*
X24338095Y23614686D02*
X24385714Y23424210D01*
X24385714Y23424210D02*
X24385714Y23281353D01*
X24385714Y23281353D02*
X24338095Y23090877D01*
X24338095Y23090877D02*
X24290476Y22995639D01*
X24290476Y22995639D02*
X24195238Y22900400D01*
X24195238Y22900400D02*
X24052381Y22852781D01*
X24052381Y22852781D02*
X23814286Y22852781D01*
X25385714Y22948020D02*
X25338095Y22900400D01*
X25338095Y22900400D02*
X25195238Y22852781D01*
X25195238Y22852781D02*
X25100000Y22852781D01*
X25100000Y22852781D02*
X24957143Y22900400D01*
X24957143Y22900400D02*
X24861905Y22995639D01*
X24861905Y22995639D02*
X24814286Y23090877D01*
X24814286Y23090877D02*
X24766667Y23281353D01*
X24766667Y23281353D02*
X24766667Y23424210D01*
X24766667Y23424210D02*
X24814286Y23614686D01*
X24814286Y23614686D02*
X24861905Y23709924D01*
X24861905Y23709924D02*
X24957143Y23805162D01*
X24957143Y23805162D02*
X25100000Y23852781D01*
X25100000Y23852781D02*
X25195238Y23852781D01*
X25195238Y23852781D02*
X25338095Y23805162D01*
X25338095Y23805162D02*
X25385714Y23757543D01*
X26004762Y23852781D02*
X26100000Y23852781D01*
X26100000Y23852781D02*
X26195238Y23805162D01*
X26195238Y23805162D02*
X26242857Y23757543D01*
X26242857Y23757543D02*
X26290476Y23662305D01*
X26290476Y23662305D02*
X26338095Y23471829D01*
X26338095Y23471829D02*
X26338095Y23233734D01*
X26338095Y23233734D02*
X26290476Y23043258D01*
X26290476Y23043258D02*
X26242857Y22948020D01*
X26242857Y22948020D02*
X26195238Y22900400D01*
X26195238Y22900400D02*
X26100000Y22852781D01*
X26100000Y22852781D02*
X26004762Y22852781D01*
X26004762Y22852781D02*
X25909524Y22900400D01*
X25909524Y22900400D02*
X25861905Y22948020D01*
X25861905Y22948020D02*
X25814286Y23043258D01*
X25814286Y23043258D02*
X25766667Y23233734D01*
X25766667Y23233734D02*
X25766667Y23471829D01*
X25766667Y23471829D02*
X25814286Y23662305D01*
X25814286Y23662305D02*
X25861905Y23757543D01*
X25861905Y23757543D02*
X25909524Y23805162D01*
X25909524Y23805162D02*
X26004762Y23852781D01*
X27290476Y22852781D02*
X26719048Y22852781D01*
X27004762Y22852781D02*
X27004762Y23852781D01*
X27004762Y23852781D02*
X26909524Y23709924D01*
X26909524Y23709924D02*
X26814286Y23614686D01*
X26814286Y23614686D02*
X26719048Y23567067D01*
X27671429Y23138496D02*
X28147619Y23138496D01*
X27576191Y22852781D02*
X27909524Y23852781D01*
X27909524Y23852781D02*
X28242857Y22852781D01*
X17028571Y22147543D02*
X17076190Y22195162D01*
X17076190Y22195162D02*
X17171428Y22242781D01*
X17171428Y22242781D02*
X17409523Y22242781D01*
X17409523Y22242781D02*
X17504761Y22195162D01*
X17504761Y22195162D02*
X17552380Y22147543D01*
X17552380Y22147543D02*
X17599999Y22052305D01*
X17599999Y22052305D02*
X17599999Y21957067D01*
X17599999Y21957067D02*
X17552380Y21814210D01*
X17552380Y21814210D02*
X16980952Y21242781D01*
X16980952Y21242781D02*
X17599999Y21242781D01*
X18219047Y22242781D02*
X18314285Y22242781D01*
X18314285Y22242781D02*
X18409523Y22195162D01*
X18409523Y22195162D02*
X18457142Y22147543D01*
X18457142Y22147543D02*
X18504761Y22052305D01*
X18504761Y22052305D02*
X18552380Y21861829D01*
X18552380Y21861829D02*
X18552380Y21623734D01*
X18552380Y21623734D02*
X18504761Y21433258D01*
X18504761Y21433258D02*
X18457142Y21338020D01*
X18457142Y21338020D02*
X18409523Y21290400D01*
X18409523Y21290400D02*
X18314285Y21242781D01*
X18314285Y21242781D02*
X18219047Y21242781D01*
X18219047Y21242781D02*
X18123809Y21290400D01*
X18123809Y21290400D02*
X18076190Y21338020D01*
X18076190Y21338020D02*
X18028571Y21433258D01*
X18028571Y21433258D02*
X17980952Y21623734D01*
X17980952Y21623734D02*
X17980952Y21861829D01*
X17980952Y21861829D02*
X18028571Y22052305D01*
X18028571Y22052305D02*
X18076190Y22147543D01*
X18076190Y22147543D02*
X18123809Y22195162D01*
X18123809Y22195162D02*
X18219047Y22242781D01*
X18933333Y22147543D02*
X18980952Y22195162D01*
X18980952Y22195162D02*
X19076190Y22242781D01*
X19076190Y22242781D02*
X19314285Y22242781D01*
X19314285Y22242781D02*
X19409523Y22195162D01*
X19409523Y22195162D02*
X19457142Y22147543D01*
X19457142Y22147543D02*
X19504761Y22052305D01*
X19504761Y22052305D02*
X19504761Y21957067D01*
X19504761Y21957067D02*
X19457142Y21814210D01*
X19457142Y21814210D02*
X18885714Y21242781D01*
X18885714Y21242781D02*
X19504761Y21242781D01*
X19838095Y22242781D02*
X20457142Y22242781D01*
X20457142Y22242781D02*
X20123809Y21861829D01*
X20123809Y21861829D02*
X20266666Y21861829D01*
X20266666Y21861829D02*
X20361904Y21814210D01*
X20361904Y21814210D02*
X20409523Y21766591D01*
X20409523Y21766591D02*
X20457142Y21671353D01*
X20457142Y21671353D02*
X20457142Y21433258D01*
X20457142Y21433258D02*
X20409523Y21338020D01*
X20409523Y21338020D02*
X20361904Y21290400D01*
X20361904Y21290400D02*
X20266666Y21242781D01*
X20266666Y21242781D02*
X19980952Y21242781D01*
X19980952Y21242781D02*
X19885714Y21290400D01*
X19885714Y21290400D02*
X19838095Y21338020D01*
X21647619Y21242781D02*
X21647619Y22242781D01*
X21647619Y22242781D02*
X21980952Y21528496D01*
X21980952Y21528496D02*
X22314285Y22242781D01*
X22314285Y22242781D02*
X22314285Y21242781D01*
X23266666Y21242781D02*
X22790476Y21242781D01*
X22790476Y21242781D02*
X22790476Y22242781D01*
X23552381Y21528496D02*
X24028571Y21528496D01*
X23457143Y21242781D02*
X23790476Y22242781D01*
X23790476Y22242781D02*
X24123809Y21242781D01*
X24790476Y21766591D02*
X24933333Y21718972D01*
X24933333Y21718972D02*
X24980952Y21671353D01*
X24980952Y21671353D02*
X25028571Y21576115D01*
X25028571Y21576115D02*
X25028571Y21433258D01*
X25028571Y21433258D02*
X24980952Y21338020D01*
X24980952Y21338020D02*
X24933333Y21290400D01*
X24933333Y21290400D02*
X24838095Y21242781D01*
X24838095Y21242781D02*
X24457143Y21242781D01*
X24457143Y21242781D02*
X24457143Y22242781D01*
X24457143Y22242781D02*
X24790476Y22242781D01*
X24790476Y22242781D02*
X24885714Y22195162D01*
X24885714Y22195162D02*
X24933333Y22147543D01*
X24933333Y22147543D02*
X24980952Y22052305D01*
X24980952Y22052305D02*
X24980952Y21957067D01*
X24980952Y21957067D02*
X24933333Y21861829D01*
X24933333Y21861829D02*
X24885714Y21814210D01*
X24885714Y21814210D02*
X24790476Y21766591D01*
X24790476Y21766591D02*
X24457143Y21766591D01*
X25457143Y21338020D02*
X25504762Y21290400D01*
X25504762Y21290400D02*
X25457143Y21242781D01*
X25457143Y21242781D02*
X25409524Y21290400D01*
X25409524Y21290400D02*
X25457143Y21338020D01*
X25457143Y21338020D02*
X25457143Y21242781D01*
X26361904Y21290400D02*
X26266666Y21242781D01*
X26266666Y21242781D02*
X26076190Y21242781D01*
X26076190Y21242781D02*
X25980952Y21290400D01*
X25980952Y21290400D02*
X25933333Y21338020D01*
X25933333Y21338020D02*
X25885714Y21433258D01*
X25885714Y21433258D02*
X25885714Y21718972D01*
X25885714Y21718972D02*
X25933333Y21814210D01*
X25933333Y21814210D02*
X25980952Y21861829D01*
X25980952Y21861829D02*
X26076190Y21909448D01*
X26076190Y21909448D02*
X26266666Y21909448D01*
X26266666Y21909448D02*
X26361904Y21861829D01*
X26695238Y21909448D02*
X27219047Y21909448D01*
X27219047Y21909448D02*
X26695238Y21242781D01*
X26695238Y21242781D02*
X27219047Y21242781D01*
D10*
X32274819Y17829762D02*
X32274819Y17353572D01*
X32274819Y17353572D02*
X32751009Y17305953D01*
X32751009Y17305953D02*
X32703390Y17353572D01*
X32703390Y17353572D02*
X32655771Y17448810D01*
X32655771Y17448810D02*
X32655771Y17686905D01*
X32655771Y17686905D02*
X32703390Y17782143D01*
X32703390Y17782143D02*
X32751009Y17829762D01*
X32751009Y17829762D02*
X32846247Y17877381D01*
X32846247Y17877381D02*
X33084342Y17877381D01*
X33084342Y17877381D02*
X33179580Y17829762D01*
X33179580Y17829762D02*
X33227200Y17782143D01*
X33227200Y17782143D02*
X33274819Y17686905D01*
X33274819Y17686905D02*
X33274819Y17448810D01*
X33274819Y17448810D02*
X33227200Y17353572D01*
X33227200Y17353572D02*
X33179580Y17305953D01*
X32274819Y18163096D02*
X33274819Y18496429D01*
X33274819Y18496429D02*
X32274819Y18829762D01*
X32227200Y20639286D02*
X33512914Y19782144D01*
X32274819Y21639287D02*
X32274819Y22258334D01*
X32274819Y22258334D02*
X32655771Y21925001D01*
X32655771Y21925001D02*
X32655771Y22067858D01*
X32655771Y22067858D02*
X32703390Y22163096D01*
X32703390Y22163096D02*
X32751009Y22210715D01*
X32751009Y22210715D02*
X32846247Y22258334D01*
X32846247Y22258334D02*
X33084342Y22258334D01*
X33084342Y22258334D02*
X33179580Y22210715D01*
X33179580Y22210715D02*
X33227200Y22163096D01*
X33227200Y22163096D02*
X33274819Y22067858D01*
X33274819Y22067858D02*
X33274819Y21782144D01*
X33274819Y21782144D02*
X33227200Y21686906D01*
X33227200Y21686906D02*
X33179580Y21639287D01*
X33179580Y22686906D02*
X33227200Y22734525D01*
X33227200Y22734525D02*
X33274819Y22686906D01*
X33274819Y22686906D02*
X33227200Y22639287D01*
X33227200Y22639287D02*
X33179580Y22686906D01*
X33179580Y22686906D02*
X33274819Y22686906D01*
X32274819Y23067858D02*
X32274819Y23686905D01*
X32274819Y23686905D02*
X32655771Y23353572D01*
X32655771Y23353572D02*
X32655771Y23496429D01*
X32655771Y23496429D02*
X32703390Y23591667D01*
X32703390Y23591667D02*
X32751009Y23639286D01*
X32751009Y23639286D02*
X32846247Y23686905D01*
X32846247Y23686905D02*
X33084342Y23686905D01*
X33084342Y23686905D02*
X33179580Y23639286D01*
X33179580Y23639286D02*
X33227200Y23591667D01*
X33227200Y23591667D02*
X33274819Y23496429D01*
X33274819Y23496429D02*
X33274819Y23210715D01*
X33274819Y23210715D02*
X33227200Y23115477D01*
X33227200Y23115477D02*
X33179580Y23067858D01*
X32274819Y23972620D02*
X33274819Y24305953D01*
X33274819Y24305953D02*
X32274819Y24639286D01*
X33884819Y17972620D02*
X33884819Y18163096D01*
X33884819Y18163096D02*
X33932438Y18258334D01*
X33932438Y18258334D02*
X34027676Y18353572D01*
X34027676Y18353572D02*
X34218152Y18401191D01*
X34218152Y18401191D02*
X34551485Y18401191D01*
X34551485Y18401191D02*
X34741961Y18353572D01*
X34741961Y18353572D02*
X34837200Y18258334D01*
X34837200Y18258334D02*
X34884819Y18163096D01*
X34884819Y18163096D02*
X34884819Y17972620D01*
X34884819Y17972620D02*
X34837200Y17877382D01*
X34837200Y17877382D02*
X34741961Y17782144D01*
X34741961Y17782144D02*
X34551485Y17734525D01*
X34551485Y17734525D02*
X34218152Y17734525D01*
X34218152Y17734525D02*
X34027676Y17782144D01*
X34027676Y17782144D02*
X33932438Y17877382D01*
X33932438Y17877382D02*
X33884819Y17972620D01*
X33884819Y18829763D02*
X34694342Y18829763D01*
X34694342Y18829763D02*
X34789580Y18877382D01*
X34789580Y18877382D02*
X34837200Y18925001D01*
X34837200Y18925001D02*
X34884819Y19020239D01*
X34884819Y19020239D02*
X34884819Y19210715D01*
X34884819Y19210715D02*
X34837200Y19305953D01*
X34837200Y19305953D02*
X34789580Y19353572D01*
X34789580Y19353572D02*
X34694342Y19401191D01*
X34694342Y19401191D02*
X33884819Y19401191D01*
X33884819Y19734525D02*
X33884819Y20305953D01*
X34884819Y20020239D02*
X33884819Y20020239D01*
X34837200Y21353573D02*
X34884819Y21496430D01*
X34884819Y21496430D02*
X34884819Y21734525D01*
X34884819Y21734525D02*
X34837200Y21829763D01*
X34837200Y21829763D02*
X34789580Y21877382D01*
X34789580Y21877382D02*
X34694342Y21925001D01*
X34694342Y21925001D02*
X34599104Y21925001D01*
X34599104Y21925001D02*
X34503866Y21877382D01*
X34503866Y21877382D02*
X34456247Y21829763D01*
X34456247Y21829763D02*
X34408628Y21734525D01*
X34408628Y21734525D02*
X34361009Y21544049D01*
X34361009Y21544049D02*
X34313390Y21448811D01*
X34313390Y21448811D02*
X34265771Y21401192D01*
X34265771Y21401192D02*
X34170533Y21353573D01*
X34170533Y21353573D02*
X34075295Y21353573D01*
X34075295Y21353573D02*
X33980057Y21401192D01*
X33980057Y21401192D02*
X33932438Y21448811D01*
X33932438Y21448811D02*
X33884819Y21544049D01*
X33884819Y21544049D02*
X33884819Y21782144D01*
X33884819Y21782144D02*
X33932438Y21925001D01*
X34361009Y22353573D02*
X34361009Y22686906D01*
X34884819Y22829763D02*
X34884819Y22353573D01*
X34884819Y22353573D02*
X33884819Y22353573D01*
X33884819Y22353573D02*
X33884819Y22829763D01*
X34884819Y23734525D02*
X34884819Y23258335D01*
X34884819Y23258335D02*
X33884819Y23258335D01*
X34789580Y24067859D02*
X34837200Y24115478D01*
X34837200Y24115478D02*
X34884819Y24067859D01*
X34884819Y24067859D02*
X34837200Y24020240D01*
X34837200Y24020240D02*
X34789580Y24067859D01*
X34789580Y24067859D02*
X34884819Y24067859D01*
X6503811Y46902991D02*
X6837144Y46902991D01*
X6980001Y46379181D02*
X6503811Y46379181D01*
X6503811Y46379181D02*
X6503811Y47379181D01*
X6503811Y47379181D02*
X6980001Y47379181D01*
X7408573Y46379181D02*
X7408573Y47379181D01*
X7408573Y47379181D02*
X7980001Y46379181D01*
X7980001Y46379181D02*
X7980001Y47379181D01*
X9170477Y47426800D02*
X8313335Y46141086D01*
X9503811Y46379181D02*
X9503811Y47379181D01*
X9503811Y47379181D02*
X9741906Y47379181D01*
X9741906Y47379181D02*
X9884763Y47331562D01*
X9884763Y47331562D02*
X9980001Y47236324D01*
X9980001Y47236324D02*
X10027620Y47141086D01*
X10027620Y47141086D02*
X10075239Y46950610D01*
X10075239Y46950610D02*
X10075239Y46807753D01*
X10075239Y46807753D02*
X10027620Y46617277D01*
X10027620Y46617277D02*
X9980001Y46522039D01*
X9980001Y46522039D02*
X9884763Y46426800D01*
X9884763Y46426800D02*
X9741906Y46379181D01*
X9741906Y46379181D02*
X9503811Y46379181D01*
X10503811Y46379181D02*
X10503811Y47379181D01*
X10932382Y46426800D02*
X11075239Y46379181D01*
X11075239Y46379181D02*
X11313334Y46379181D01*
X11313334Y46379181D02*
X11408572Y46426800D01*
X11408572Y46426800D02*
X11456191Y46474420D01*
X11456191Y46474420D02*
X11503810Y46569658D01*
X11503810Y46569658D02*
X11503810Y46664896D01*
X11503810Y46664896D02*
X11456191Y46760134D01*
X11456191Y46760134D02*
X11408572Y46807753D01*
X11408572Y46807753D02*
X11313334Y46855372D01*
X11313334Y46855372D02*
X11122858Y46902991D01*
X11122858Y46902991D02*
X11027620Y46950610D01*
X11027620Y46950610D02*
X10980001Y46998229D01*
X10980001Y46998229D02*
X10932382Y47093467D01*
X10932382Y47093467D02*
X10932382Y47188705D01*
X10932382Y47188705D02*
X10980001Y47283943D01*
X10980001Y47283943D02*
X11027620Y47331562D01*
X11027620Y47331562D02*
X11122858Y47379181D01*
X11122858Y47379181D02*
X11360953Y47379181D01*
X11360953Y47379181D02*
X11503810Y47331562D01*
X17105952Y17395181D02*
X17105952Y18395181D01*
X17105952Y18395181D02*
X17486904Y18395181D01*
X17486904Y18395181D02*
X17582142Y18347562D01*
X17582142Y18347562D02*
X17629761Y18299943D01*
X17629761Y18299943D02*
X17677380Y18204705D01*
X17677380Y18204705D02*
X17677380Y18061848D01*
X17677380Y18061848D02*
X17629761Y17966610D01*
X17629761Y17966610D02*
X17582142Y17918991D01*
X17582142Y17918991D02*
X17486904Y17871372D01*
X17486904Y17871372D02*
X17105952Y17871372D01*
X18296428Y18395181D02*
X18486904Y18395181D01*
X18486904Y18395181D02*
X18582142Y18347562D01*
X18582142Y18347562D02*
X18677380Y18252324D01*
X18677380Y18252324D02*
X18724999Y18061848D01*
X18724999Y18061848D02*
X18724999Y17728515D01*
X18724999Y17728515D02*
X18677380Y17538039D01*
X18677380Y17538039D02*
X18582142Y17442800D01*
X18582142Y17442800D02*
X18486904Y17395181D01*
X18486904Y17395181D02*
X18296428Y17395181D01*
X18296428Y17395181D02*
X18201190Y17442800D01*
X18201190Y17442800D02*
X18105952Y17538039D01*
X18105952Y17538039D02*
X18058333Y17728515D01*
X18058333Y17728515D02*
X18058333Y18061848D01*
X18058333Y18061848D02*
X18105952Y18252324D01*
X18105952Y18252324D02*
X18201190Y18347562D01*
X18201190Y18347562D02*
X18296428Y18395181D01*
X19058333Y18395181D02*
X19296428Y17395181D01*
X19296428Y17395181D02*
X19486904Y18109467D01*
X19486904Y18109467D02*
X19677380Y17395181D01*
X19677380Y17395181D02*
X19915476Y18395181D01*
X20296428Y17918991D02*
X20629761Y17918991D01*
X20772618Y17395181D02*
X20296428Y17395181D01*
X20296428Y17395181D02*
X20296428Y18395181D01*
X20296428Y18395181D02*
X20772618Y18395181D01*
X21772618Y17395181D02*
X21439285Y17871372D01*
X21201190Y17395181D02*
X21201190Y18395181D01*
X21201190Y18395181D02*
X21582142Y18395181D01*
X21582142Y18395181D02*
X21677380Y18347562D01*
X21677380Y18347562D02*
X21724999Y18299943D01*
X21724999Y18299943D02*
X21772618Y18204705D01*
X21772618Y18204705D02*
X21772618Y18061848D01*
X21772618Y18061848D02*
X21724999Y17966610D01*
X21724999Y17966610D02*
X21677380Y17918991D01*
X21677380Y17918991D02*
X21582142Y17871372D01*
X21582142Y17871372D02*
X21201190Y17871372D01*
X23153571Y18395181D02*
X23344047Y18395181D01*
X23344047Y18395181D02*
X23439285Y18347562D01*
X23439285Y18347562D02*
X23534523Y18252324D01*
X23534523Y18252324D02*
X23582142Y18061848D01*
X23582142Y18061848D02*
X23582142Y17728515D01*
X23582142Y17728515D02*
X23534523Y17538039D01*
X23534523Y17538039D02*
X23439285Y17442800D01*
X23439285Y17442800D02*
X23344047Y17395181D01*
X23344047Y17395181D02*
X23153571Y17395181D01*
X23153571Y17395181D02*
X23058333Y17442800D01*
X23058333Y17442800D02*
X22963095Y17538039D01*
X22963095Y17538039D02*
X22915476Y17728515D01*
X22915476Y17728515D02*
X22915476Y18061848D01*
X22915476Y18061848D02*
X22963095Y18252324D01*
X22963095Y18252324D02*
X23058333Y18347562D01*
X23058333Y18347562D02*
X23153571Y18395181D01*
X24010714Y18395181D02*
X24010714Y17585658D01*
X24010714Y17585658D02*
X24058333Y17490420D01*
X24058333Y17490420D02*
X24105952Y17442800D01*
X24105952Y17442800D02*
X24201190Y17395181D01*
X24201190Y17395181D02*
X24391666Y17395181D01*
X24391666Y17395181D02*
X24486904Y17442800D01*
X24486904Y17442800D02*
X24534523Y17490420D01*
X24534523Y17490420D02*
X24582142Y17585658D01*
X24582142Y17585658D02*
X24582142Y18395181D01*
X24915476Y18395181D02*
X25486904Y18395181D01*
X25201190Y17395181D02*
X25201190Y18395181D01*
X17661905Y26868991D02*
X17995238Y26868991D01*
X18138095Y26345181D02*
X17661905Y26345181D01*
X17661905Y26345181D02*
X17661905Y27345181D01*
X17661905Y27345181D02*
X18138095Y27345181D01*
X18566667Y26345181D02*
X18566667Y27345181D01*
X18566667Y27345181D02*
X19138095Y26345181D01*
X19138095Y26345181D02*
X19138095Y27345181D01*
X17704761Y20537705D02*
X18161904Y20537705D01*
X17933332Y19737705D02*
X17933332Y20537705D01*
X18428571Y19737705D02*
X18428571Y20537705D01*
X18428571Y20537705D02*
X18733333Y20537705D01*
X18733333Y20537705D02*
X18809523Y20499610D01*
X18809523Y20499610D02*
X18847618Y20461515D01*
X18847618Y20461515D02*
X18885714Y20385324D01*
X18885714Y20385324D02*
X18885714Y20271039D01*
X18885714Y20271039D02*
X18847618Y20194848D01*
X18847618Y20194848D02*
X18809523Y20156753D01*
X18809523Y20156753D02*
X18733333Y20118658D01*
X18733333Y20118658D02*
X18428571Y20118658D01*
X19190475Y19775800D02*
X19304761Y19737705D01*
X19304761Y19737705D02*
X19495237Y19737705D01*
X19495237Y19737705D02*
X19571428Y19775800D01*
X19571428Y19775800D02*
X19609523Y19813896D01*
X19609523Y19813896D02*
X19647618Y19890086D01*
X19647618Y19890086D02*
X19647618Y19966277D01*
X19647618Y19966277D02*
X19609523Y20042467D01*
X19609523Y20042467D02*
X19571428Y20080562D01*
X19571428Y20080562D02*
X19495237Y20118658D01*
X19495237Y20118658D02*
X19342856Y20156753D01*
X19342856Y20156753D02*
X19266666Y20194848D01*
X19266666Y20194848D02*
X19228571Y20232943D01*
X19228571Y20232943D02*
X19190475Y20309134D01*
X19190475Y20309134D02*
X19190475Y20385324D01*
X19190475Y20385324D02*
X19228571Y20461515D01*
X19228571Y20461515D02*
X19266666Y20499610D01*
X19266666Y20499610D02*
X19342856Y20537705D01*
X19342856Y20537705D02*
X19533333Y20537705D01*
X19533333Y20537705D02*
X19647618Y20499610D01*
X20333333Y20537705D02*
X20180952Y20537705D01*
X20180952Y20537705D02*
X20104761Y20499610D01*
X20104761Y20499610D02*
X20066666Y20461515D01*
X20066666Y20461515D02*
X19990476Y20347229D01*
X19990476Y20347229D02*
X19952380Y20194848D01*
X19952380Y20194848D02*
X19952380Y19890086D01*
X19952380Y19890086D02*
X19990476Y19813896D01*
X19990476Y19813896D02*
X20028571Y19775800D01*
X20028571Y19775800D02*
X20104761Y19737705D01*
X20104761Y19737705D02*
X20257142Y19737705D01*
X20257142Y19737705D02*
X20333333Y19775800D01*
X20333333Y19775800D02*
X20371428Y19813896D01*
X20371428Y19813896D02*
X20409523Y19890086D01*
X20409523Y19890086D02*
X20409523Y20080562D01*
X20409523Y20080562D02*
X20371428Y20156753D01*
X20371428Y20156753D02*
X20333333Y20194848D01*
X20333333Y20194848D02*
X20257142Y20232943D01*
X20257142Y20232943D02*
X20104761Y20232943D01*
X20104761Y20232943D02*
X20028571Y20194848D01*
X20028571Y20194848D02*
X19990476Y20156753D01*
X19990476Y20156753D02*
X19952380Y20080562D01*
X20676190Y20537705D02*
X21171428Y20537705D01*
X21171428Y20537705D02*
X20904762Y20232943D01*
X20904762Y20232943D02*
X21019047Y20232943D01*
X21019047Y20232943D02*
X21095238Y20194848D01*
X21095238Y20194848D02*
X21133333Y20156753D01*
X21133333Y20156753D02*
X21171428Y20080562D01*
X21171428Y20080562D02*
X21171428Y19890086D01*
X21171428Y19890086D02*
X21133333Y19813896D01*
X21133333Y19813896D02*
X21095238Y19775800D01*
X21095238Y19775800D02*
X21019047Y19737705D01*
X21019047Y19737705D02*
X20790476Y19737705D01*
X20790476Y19737705D02*
X20714285Y19775800D01*
X20714285Y19775800D02*
X20676190Y19813896D01*
X21933333Y19737705D02*
X21476190Y19737705D01*
X21704762Y19737705D02*
X21704762Y20537705D01*
X21704762Y20537705D02*
X21628571Y20423420D01*
X21628571Y20423420D02*
X21552381Y20347229D01*
X21552381Y20347229D02*
X21476190Y20309134D01*
X22428572Y20537705D02*
X22504762Y20537705D01*
X22504762Y20537705D02*
X22580953Y20499610D01*
X22580953Y20499610D02*
X22619048Y20461515D01*
X22619048Y20461515D02*
X22657143Y20385324D01*
X22657143Y20385324D02*
X22695238Y20232943D01*
X22695238Y20232943D02*
X22695238Y20042467D01*
X22695238Y20042467D02*
X22657143Y19890086D01*
X22657143Y19890086D02*
X22619048Y19813896D01*
X22619048Y19813896D02*
X22580953Y19775800D01*
X22580953Y19775800D02*
X22504762Y19737705D01*
X22504762Y19737705D02*
X22428572Y19737705D01*
X22428572Y19737705D02*
X22352381Y19775800D01*
X22352381Y19775800D02*
X22314286Y19813896D01*
X22314286Y19813896D02*
X22276191Y19890086D01*
X22276191Y19890086D02*
X22238095Y20042467D01*
X22238095Y20042467D02*
X22238095Y20232943D01*
X22238095Y20232943D02*
X22276191Y20385324D01*
X22276191Y20385324D02*
X22314286Y20461515D01*
X22314286Y20461515D02*
X22352381Y20499610D01*
X22352381Y20499610D02*
X22428572Y20537705D01*
X23190477Y20537705D02*
X23266667Y20537705D01*
X23266667Y20537705D02*
X23342858Y20499610D01*
X23342858Y20499610D02*
X23380953Y20461515D01*
X23380953Y20461515D02*
X23419048Y20385324D01*
X23419048Y20385324D02*
X23457143Y20232943D01*
X23457143Y20232943D02*
X23457143Y20042467D01*
X23457143Y20042467D02*
X23419048Y19890086D01*
X23419048Y19890086D02*
X23380953Y19813896D01*
X23380953Y19813896D02*
X23342858Y19775800D01*
X23342858Y19775800D02*
X23266667Y19737705D01*
X23266667Y19737705D02*
X23190477Y19737705D01*
X23190477Y19737705D02*
X23114286Y19775800D01*
X23114286Y19775800D02*
X23076191Y19813896D01*
X23076191Y19813896D02*
X23038096Y19890086D01*
X23038096Y19890086D02*
X23000000Y20042467D01*
X23000000Y20042467D02*
X23000000Y20232943D01*
X23000000Y20232943D02*
X23038096Y20385324D01*
X23038096Y20385324D02*
X23076191Y20461515D01*
X23076191Y20461515D02*
X23114286Y20499610D01*
X23114286Y20499610D02*
X23190477Y20537705D01*
X23952382Y20537705D02*
X24028572Y20537705D01*
X24028572Y20537705D02*
X24104763Y20499610D01*
X24104763Y20499610D02*
X24142858Y20461515D01*
X24142858Y20461515D02*
X24180953Y20385324D01*
X24180953Y20385324D02*
X24219048Y20232943D01*
X24219048Y20232943D02*
X24219048Y20042467D01*
X24219048Y20042467D02*
X24180953Y19890086D01*
X24180953Y19890086D02*
X24142858Y19813896D01*
X24142858Y19813896D02*
X24104763Y19775800D01*
X24104763Y19775800D02*
X24028572Y19737705D01*
X24028572Y19737705D02*
X23952382Y19737705D01*
X23952382Y19737705D02*
X23876191Y19775800D01*
X23876191Y19775800D02*
X23838096Y19813896D01*
X23838096Y19813896D02*
X23800001Y19890086D01*
X23800001Y19890086D02*
X23761905Y20042467D01*
X23761905Y20042467D02*
X23761905Y20232943D01*
X23761905Y20232943D02*
X23800001Y20385324D01*
X23800001Y20385324D02*
X23838096Y20461515D01*
X23838096Y20461515D02*
X23876191Y20499610D01*
X23876191Y20499610D02*
X23952382Y20537705D01*
X5988866Y17536780D02*
X5988866Y18298684D01*
X5988866Y20298685D02*
X5988866Y21060589D01*
X6369819Y20679637D02*
X5607914Y20679637D01*
X5988866Y23060590D02*
X5988866Y23822494D01*
X13249819Y17122620D02*
X12249819Y17122620D01*
X12249819Y17122620D02*
X12249819Y17503572D01*
X12249819Y17503572D02*
X12297438Y17598810D01*
X12297438Y17598810D02*
X12345057Y17646429D01*
X12345057Y17646429D02*
X12440295Y17694048D01*
X12440295Y17694048D02*
X12583152Y17694048D01*
X12583152Y17694048D02*
X12678390Y17646429D01*
X12678390Y17646429D02*
X12726009Y17598810D01*
X12726009Y17598810D02*
X12773628Y17503572D01*
X12773628Y17503572D02*
X12773628Y17122620D01*
X12249819Y18313096D02*
X12249819Y18503572D01*
X12249819Y18503572D02*
X12297438Y18598810D01*
X12297438Y18598810D02*
X12392676Y18694048D01*
X12392676Y18694048D02*
X12583152Y18741667D01*
X12583152Y18741667D02*
X12916485Y18741667D01*
X12916485Y18741667D02*
X13106961Y18694048D01*
X13106961Y18694048D02*
X13202200Y18598810D01*
X13202200Y18598810D02*
X13249819Y18503572D01*
X13249819Y18503572D02*
X13249819Y18313096D01*
X13249819Y18313096D02*
X13202200Y18217858D01*
X13202200Y18217858D02*
X13106961Y18122620D01*
X13106961Y18122620D02*
X12916485Y18075001D01*
X12916485Y18075001D02*
X12583152Y18075001D01*
X12583152Y18075001D02*
X12392676Y18122620D01*
X12392676Y18122620D02*
X12297438Y18217858D01*
X12297438Y18217858D02*
X12249819Y18313096D01*
X12249819Y19075001D02*
X13249819Y19313096D01*
X13249819Y19313096D02*
X12535533Y19503572D01*
X12535533Y19503572D02*
X13249819Y19694048D01*
X13249819Y19694048D02*
X12249819Y19932143D01*
X12726009Y20313096D02*
X12726009Y20646429D01*
X13249819Y20789286D02*
X13249819Y20313096D01*
X13249819Y20313096D02*
X12249819Y20313096D01*
X12249819Y20313096D02*
X12249819Y20789286D01*
X13249819Y21789286D02*
X12773628Y21455953D01*
X13249819Y21217858D02*
X12249819Y21217858D01*
X12249819Y21217858D02*
X12249819Y21598810D01*
X12249819Y21598810D02*
X12297438Y21694048D01*
X12297438Y21694048D02*
X12345057Y21741667D01*
X12345057Y21741667D02*
X12440295Y21789286D01*
X12440295Y21789286D02*
X12583152Y21789286D01*
X12583152Y21789286D02*
X12678390Y21741667D01*
X12678390Y21741667D02*
X12726009Y21694048D01*
X12726009Y21694048D02*
X12773628Y21598810D01*
X12773628Y21598810D02*
X12773628Y21217858D01*
X13249819Y22979763D02*
X12249819Y22979763D01*
X13249819Y23455953D02*
X12249819Y23455953D01*
X12249819Y23455953D02*
X13249819Y24027381D01*
X13249819Y24027381D02*
X12249819Y24027381D01*
X14859819Y17908334D02*
X14859819Y17336906D01*
X14859819Y17622620D02*
X13859819Y17622620D01*
X13859819Y17622620D02*
X14002676Y17527382D01*
X14002676Y17527382D02*
X14097914Y17432144D01*
X14097914Y17432144D02*
X14145533Y17336906D01*
X14764580Y18336906D02*
X14812200Y18384525D01*
X14812200Y18384525D02*
X14859819Y18336906D01*
X14859819Y18336906D02*
X14812200Y18289287D01*
X14812200Y18289287D02*
X14764580Y18336906D01*
X14764580Y18336906D02*
X14859819Y18336906D01*
X13859819Y19241667D02*
X13859819Y19051191D01*
X13859819Y19051191D02*
X13907438Y18955953D01*
X13907438Y18955953D02*
X13955057Y18908334D01*
X13955057Y18908334D02*
X14097914Y18813096D01*
X14097914Y18813096D02*
X14288390Y18765477D01*
X14288390Y18765477D02*
X14669342Y18765477D01*
X14669342Y18765477D02*
X14764580Y18813096D01*
X14764580Y18813096D02*
X14812200Y18860715D01*
X14812200Y18860715D02*
X14859819Y18955953D01*
X14859819Y18955953D02*
X14859819Y19146429D01*
X14859819Y19146429D02*
X14812200Y19241667D01*
X14812200Y19241667D02*
X14764580Y19289286D01*
X14764580Y19289286D02*
X14669342Y19336905D01*
X14669342Y19336905D02*
X14431247Y19336905D01*
X14431247Y19336905D02*
X14336009Y19289286D01*
X14336009Y19289286D02*
X14288390Y19241667D01*
X14288390Y19241667D02*
X14240771Y19146429D01*
X14240771Y19146429D02*
X14240771Y18955953D01*
X14240771Y18955953D02*
X14288390Y18860715D01*
X14288390Y18860715D02*
X14336009Y18813096D01*
X14336009Y18813096D02*
X14431247Y18765477D01*
X14478866Y19765477D02*
X14478866Y20527381D01*
X13859819Y21479762D02*
X13859819Y21003572D01*
X13859819Y21003572D02*
X14336009Y20955953D01*
X14336009Y20955953D02*
X14288390Y21003572D01*
X14288390Y21003572D02*
X14240771Y21098810D01*
X14240771Y21098810D02*
X14240771Y21336905D01*
X14240771Y21336905D02*
X14288390Y21432143D01*
X14288390Y21432143D02*
X14336009Y21479762D01*
X14336009Y21479762D02*
X14431247Y21527381D01*
X14431247Y21527381D02*
X14669342Y21527381D01*
X14669342Y21527381D02*
X14764580Y21479762D01*
X14764580Y21479762D02*
X14812200Y21432143D01*
X14812200Y21432143D02*
X14859819Y21336905D01*
X14859819Y21336905D02*
X14859819Y21098810D01*
X14859819Y21098810D02*
X14812200Y21003572D01*
X14812200Y21003572D02*
X14764580Y20955953D01*
X14764580Y21955953D02*
X14812200Y22003572D01*
X14812200Y22003572D02*
X14859819Y21955953D01*
X14859819Y21955953D02*
X14812200Y21908334D01*
X14812200Y21908334D02*
X14764580Y21955953D01*
X14764580Y21955953D02*
X14859819Y21955953D01*
X13859819Y22908333D02*
X13859819Y22432143D01*
X13859819Y22432143D02*
X14336009Y22384524D01*
X14336009Y22384524D02*
X14288390Y22432143D01*
X14288390Y22432143D02*
X14240771Y22527381D01*
X14240771Y22527381D02*
X14240771Y22765476D01*
X14240771Y22765476D02*
X14288390Y22860714D01*
X14288390Y22860714D02*
X14336009Y22908333D01*
X14336009Y22908333D02*
X14431247Y22955952D01*
X14431247Y22955952D02*
X14669342Y22955952D01*
X14669342Y22955952D02*
X14764580Y22908333D01*
X14764580Y22908333D02*
X14812200Y22860714D01*
X14812200Y22860714D02*
X14859819Y22765476D01*
X14859819Y22765476D02*
X14859819Y22527381D01*
X14859819Y22527381D02*
X14812200Y22432143D01*
X14812200Y22432143D02*
X14764580Y22384524D01*
X13859819Y23241667D02*
X14859819Y23575000D01*
X14859819Y23575000D02*
X13859819Y23908333D01*
X20690476Y26345181D02*
X20690476Y27345181D01*
X20690476Y27345181D02*
X21023809Y26630896D01*
X21023809Y26630896D02*
X21357142Y27345181D01*
X21357142Y27345181D02*
X21357142Y26345181D01*
X22023809Y27345181D02*
X22214285Y27345181D01*
X22214285Y27345181D02*
X22309523Y27297562D01*
X22309523Y27297562D02*
X22404761Y27202324D01*
X22404761Y27202324D02*
X22452380Y27011848D01*
X22452380Y27011848D02*
X22452380Y26678515D01*
X22452380Y26678515D02*
X22404761Y26488039D01*
X22404761Y26488039D02*
X22309523Y26392800D01*
X22309523Y26392800D02*
X22214285Y26345181D01*
X22214285Y26345181D02*
X22023809Y26345181D01*
X22023809Y26345181D02*
X21928571Y26392800D01*
X21928571Y26392800D02*
X21833333Y26488039D01*
X21833333Y26488039D02*
X21785714Y26678515D01*
X21785714Y26678515D02*
X21785714Y27011848D01*
X21785714Y27011848D02*
X21833333Y27202324D01*
X21833333Y27202324D02*
X21928571Y27297562D01*
X21928571Y27297562D02*
X22023809Y27345181D01*
X22880952Y26345181D02*
X22880952Y27345181D01*
X22880952Y27345181D02*
X23119047Y27345181D01*
X23119047Y27345181D02*
X23261904Y27297562D01*
X23261904Y27297562D02*
X23357142Y27202324D01*
X23357142Y27202324D02*
X23404761Y27107086D01*
X23404761Y27107086D02*
X23452380Y26916610D01*
X23452380Y26916610D02*
X23452380Y26773753D01*
X23452380Y26773753D02*
X23404761Y26583277D01*
X23404761Y26583277D02*
X23357142Y26488039D01*
X23357142Y26488039D02*
X23261904Y26392800D01*
X23261904Y26392800D02*
X23119047Y26345181D01*
X23119047Y26345181D02*
X22880952Y26345181D01*
X23880952Y26868991D02*
X24214285Y26868991D01*
X24357142Y26345181D02*
X23880952Y26345181D01*
X23880952Y26345181D02*
X23880952Y27345181D01*
X23880952Y27345181D02*
X24357142Y27345181D01*
X18036779Y6011134D02*
X18798684Y6011134D01*
X20798684Y6011134D02*
X21560589Y6011134D01*
X21179636Y5630181D02*
X21179636Y6392086D01*
X23560589Y6011134D02*
X24322494Y6011134D01*
X19638095Y34897562D02*
X19542857Y34945181D01*
X19542857Y34945181D02*
X19400000Y34945181D01*
X19400000Y34945181D02*
X19257143Y34897562D01*
X19257143Y34897562D02*
X19161905Y34802324D01*
X19161905Y34802324D02*
X19114286Y34707086D01*
X19114286Y34707086D02*
X19066667Y34516610D01*
X19066667Y34516610D02*
X19066667Y34373753D01*
X19066667Y34373753D02*
X19114286Y34183277D01*
X19114286Y34183277D02*
X19161905Y34088039D01*
X19161905Y34088039D02*
X19257143Y33992800D01*
X19257143Y33992800D02*
X19400000Y33945181D01*
X19400000Y33945181D02*
X19495238Y33945181D01*
X19495238Y33945181D02*
X19638095Y33992800D01*
X19638095Y33992800D02*
X19685714Y34040420D01*
X19685714Y34040420D02*
X19685714Y34373753D01*
X19685714Y34373753D02*
X19495238Y34373753D01*
X20114286Y33945181D02*
X20114286Y34945181D01*
X20114286Y34945181D02*
X20685714Y33945181D01*
X20685714Y33945181D02*
X20685714Y34945181D01*
X21161905Y33945181D02*
X21161905Y34945181D01*
X21161905Y34945181D02*
X21400000Y34945181D01*
X21400000Y34945181D02*
X21542857Y34897562D01*
X21542857Y34897562D02*
X21638095Y34802324D01*
X21638095Y34802324D02*
X21685714Y34707086D01*
X21685714Y34707086D02*
X21733333Y34516610D01*
X21733333Y34516610D02*
X21733333Y34373753D01*
X21733333Y34373753D02*
X21685714Y34183277D01*
X21685714Y34183277D02*
X21638095Y34088039D01*
X21638095Y34088039D02*
X21542857Y33992800D01*
X21542857Y33992800D02*
X21400000Y33945181D01*
X21400000Y33945181D02*
X21161905Y33945181D01*
D12*
%TO.C,JP4*%
X29370000Y24980000D02*
X30700000Y24980000D01*
X29370000Y23650000D02*
X29370000Y24980000D01*
X29370000Y22380000D02*
X29370000Y17240000D01*
X29370000Y22380000D02*
X32030000Y22380000D01*
X29370000Y17240000D02*
X32030000Y17240000D01*
X32030000Y22380000D02*
X32030000Y17240000D01*
%TO.C,J2*%
X6630000Y24470000D02*
X7960000Y24470000D01*
X6630000Y23140000D02*
X6630000Y24470000D01*
X6630000Y21870000D02*
X6630000Y16730000D01*
X6630000Y21870000D02*
X9230000Y21870000D01*
X6630000Y16730000D02*
X11830000Y16730000D01*
X9230000Y24470000D02*
X11830000Y24470000D01*
X9230000Y21870000D02*
X9230000Y24470000D01*
X11830000Y24470000D02*
X11830000Y16730000D01*
%TO.C,JP2*%
X17120000Y33255000D02*
X18450000Y33255000D01*
X17120000Y31925000D02*
X17120000Y33255000D01*
X17120000Y30655000D02*
X17120000Y28055000D01*
X17120000Y30655000D02*
X19780000Y30655000D01*
X17120000Y28055000D02*
X19780000Y28055000D01*
X19780000Y30655000D02*
X19780000Y28055000D01*
%TO.C,J5*%
X17295000Y6650000D02*
X17295000Y7980000D01*
X18625000Y6650000D02*
X17295000Y6650000D01*
X19895000Y6650000D02*
X25035000Y6650000D01*
X19895000Y6650000D02*
X19895000Y9250000D01*
X25035000Y6650000D02*
X25035000Y11850000D01*
X17295000Y9250000D02*
X17295000Y11850000D01*
X19895000Y9250000D02*
X17295000Y9250000D01*
X17295000Y11850000D02*
X25035000Y11850000D01*
%TO.C,JP1*%
X21045000Y33245000D02*
X22375000Y33245000D01*
X21045000Y31915000D02*
X21045000Y33245000D01*
X21045000Y30645000D02*
X21045000Y28045000D01*
X21045000Y30645000D02*
X23705000Y30645000D01*
X21045000Y28045000D02*
X23705000Y28045000D01*
X23705000Y30645000D02*
X23705000Y28045000D01*
%TO.C,J6*%
X17295000Y11730000D02*
X17295000Y13060000D01*
X18625000Y11730000D02*
X17295000Y11730000D01*
X19895000Y11730000D02*
X25035000Y11730000D01*
X19895000Y11730000D02*
X19895000Y14330000D01*
X25035000Y11730000D02*
X25035000Y16930000D01*
X17295000Y14330000D02*
X17295000Y16930000D01*
X19895000Y14330000D02*
X17295000Y14330000D01*
X17295000Y16930000D02*
X25035000Y16930000D01*
%TD*%
M02*
