%TF.GenerationSoftware,KiCad,Pcbnew,7.0.7-7.0.7~ubuntu23.04.1*%
%TF.CreationDate,2023-09-24T08:52:34+00:00*%
%TF.ProjectId,STEPBUBODC01,53544550-4255-4424-9f44-4330312e6b69,rev?*%
%TF.SameCoordinates,Original*%
%TF.FileFunction,Copper,L2,Bot*%
%TF.FilePolarity,Positive*%
%FSLAX46Y46*%
G04 Gerber Fmt 4.6, Leading zero omitted, Abs format (unit mm)*
G04 Created by KiCad (PCBNEW 7.0.7-7.0.7~ubuntu23.04.1) date 2023-09-24 08:52:34*
%MOMM*%
%LPD*%
G01*
G04 APERTURE LIST*
G04 Aperture macros list*
%AMRoundRect*
0 Rectangle with rounded corners*
0 $1 Rounding radius*
0 $2 $3 $4 $5 $6 $7 $8 $9 X,Y pos of 4 corners*
0 Add a 4 corners polygon primitive as box body*
4,1,4,$2,$3,$4,$5,$6,$7,$8,$9,$2,$3,0*
0 Add four circle primitives for the rounded corners*
1,1,$1+$1,$2,$3*
1,1,$1+$1,$4,$5*
1,1,$1+$1,$6,$7*
1,1,$1+$1,$8,$9*
0 Add four rect primitives between the rounded corners*
20,1,$1+$1,$2,$3,$4,$5,0*
20,1,$1+$1,$4,$5,$6,$7,0*
20,1,$1+$1,$6,$7,$8,$9,0*
20,1,$1+$1,$8,$9,$2,$3,0*%
G04 Aperture macros list end*
%TA.AperFunction,ComponentPad*%
%ADD10R,1.700000X1.700000*%
%TD*%
%TA.AperFunction,ComponentPad*%
%ADD11O,1.700000X1.700000*%
%TD*%
%TA.AperFunction,ComponentPad*%
%ADD12C,6.000000*%
%TD*%
%TA.AperFunction,SMDPad,CuDef*%
%ADD13RoundRect,0.250000X0.262500X0.450000X-0.262500X0.450000X-0.262500X-0.450000X0.262500X-0.450000X0*%
%TD*%
%TA.AperFunction,SMDPad,CuDef*%
%ADD14RoundRect,0.250000X-0.262500X-0.450000X0.262500X-0.450000X0.262500X0.450000X-0.262500X0.450000X0*%
%TD*%
%TA.AperFunction,SMDPad,CuDef*%
%ADD15RoundRect,0.250000X0.450000X-0.262500X0.450000X0.262500X-0.450000X0.262500X-0.450000X-0.262500X0*%
%TD*%
%TA.AperFunction,SMDPad,CuDef*%
%ADD16RoundRect,0.250000X-0.250000X-0.475000X0.250000X-0.475000X0.250000X0.475000X-0.250000X0.475000X0*%
%TD*%
%TA.AperFunction,SMDPad,CuDef*%
%ADD17RoundRect,0.250000X-0.650000X1.000000X-0.650000X-1.000000X0.650000X-1.000000X0.650000X1.000000X0*%
%TD*%
%TA.AperFunction,SMDPad,CuDef*%
%ADD18RoundRect,0.250000X0.475000X-0.250000X0.475000X0.250000X-0.475000X0.250000X-0.475000X-0.250000X0*%
%TD*%
%TA.AperFunction,SMDPad,CuDef*%
%ADD19R,0.300000X0.670000*%
%TD*%
%TA.AperFunction,SMDPad,CuDef*%
%ADD20RoundRect,0.250000X-0.450000X0.262500X-0.450000X-0.262500X0.450000X-0.262500X0.450000X0.262500X0*%
%TD*%
%TA.AperFunction,SMDPad,CuDef*%
%ADD21C,1.000000*%
%TD*%
%TA.AperFunction,SMDPad,CuDef*%
%ADD22RoundRect,0.250000X-0.375000X-0.850000X0.375000X-0.850000X0.375000X0.850000X-0.375000X0.850000X0*%
%TD*%
%TA.AperFunction,ViaPad*%
%ADD23C,0.800000*%
%TD*%
%TA.AperFunction,Conductor*%
%ADD24C,0.250000*%
%TD*%
G04 APERTURE END LIST*
D10*
%TO.P,JP4,1,A*%
%TO.N,/SEL_3v3*%
X30700000Y23650000D03*
D11*
%TO.P,JP4,2,C*%
%TO.N,/FB*%
X30700000Y21110000D03*
%TO.P,JP4,3,B*%
%TO.N,/SEL_5v*%
X30700000Y18570000D03*
%TD*%
D10*
%TO.P,J2,1*%
%TO.N,GND*%
X7960000Y23140000D03*
D11*
%TO.P,J2,2*%
X10500000Y23140000D03*
%TO.P,J2,3*%
%TO.N,/V_in*%
X7960000Y20600000D03*
%TO.P,J2,4*%
X10500000Y20600000D03*
%TO.P,J2,5*%
%TO.N,GND*%
X7960000Y18060000D03*
%TO.P,J2,6*%
X10500000Y18060000D03*
%TD*%
D12*
%TO.P,H3,1,1*%
%TO.N,GND*%
X10160001Y10160000D03*
%TD*%
%TO.P,H4,1,1*%
%TO.N,GND*%
X30480001Y10160000D03*
%TD*%
D10*
%TO.P,JP2,1,A*%
%TO.N,GND*%
X18450000Y31925000D03*
D11*
%TO.P,JP2,2,B*%
%TO.N,/en*%
X18450000Y29385000D03*
%TD*%
D12*
%TO.P,H2,1,1*%
%TO.N,GND*%
X30480001Y30480000D03*
%TD*%
D10*
%TO.P,J5,1*%
%TO.N,GND*%
X18625000Y7980000D03*
D11*
%TO.P,J5,2*%
X18625000Y10520000D03*
%TO.P,J5,3*%
%TO.N,/V_out*%
X21165000Y7980000D03*
%TO.P,J5,4*%
X21165000Y10520000D03*
%TO.P,J5,5*%
%TO.N,GND*%
X23705000Y7980000D03*
%TO.P,J5,6*%
X23705000Y10520000D03*
%TD*%
D10*
%TO.P,JP1,1,A*%
%TO.N,GND*%
X20990000Y31925000D03*
D11*
%TO.P,JP1,2,B*%
%TO.N,/mod*%
X20990000Y29385000D03*
%TD*%
D12*
%TO.P,H1,1,1*%
%TO.N,GND*%
X10160001Y30480000D03*
%TD*%
D10*
%TO.P,J6,1*%
%TO.N,GND*%
X18625000Y13060000D03*
D11*
%TO.P,J6,2*%
X18625000Y15600000D03*
%TO.P,J6,3*%
%TO.N,/V_out*%
X21165000Y13060000D03*
%TO.P,J6,4*%
X21165000Y15600000D03*
%TO.P,J6,5*%
%TO.N,GND*%
X23705000Y13060000D03*
%TO.P,J6,6*%
X23705000Y15600000D03*
%TD*%
D13*
%TO.P,R4,1*%
%TO.N,/mod*%
X19900000Y26300000D03*
%TO.P,R4,2*%
%TO.N,/V_in*%
X18075000Y26300000D03*
%TD*%
D14*
%TO.P,R5,1*%
%TO.N,/en*%
X14575000Y26300000D03*
%TO.P,R5,2*%
%TO.N,/V_in*%
X16400000Y26300000D03*
%TD*%
D15*
%TO.P,R2,1*%
%TO.N,/V_out*%
X27850000Y21625000D03*
%TO.P,R2,2*%
%TO.N,/SEL_3v3*%
X27850000Y23450000D03*
%TD*%
D16*
%TO.P,C3,1*%
%TO.N,/V_out*%
X23750000Y20175000D03*
%TO.P,C3,2*%
%TO.N,GND*%
X25650000Y20175000D03*
%TD*%
D17*
%TO.P,D1,1,K*%
%TO.N,/V_in*%
X14450000Y20900000D03*
%TO.P,D1,2,A*%
%TO.N,GND*%
X14450000Y16900000D03*
%TD*%
D18*
%TO.P,C2,1*%
%TO.N,/V_out*%
X22650000Y21925000D03*
%TO.P,C2,2*%
%TO.N,GND*%
X22650000Y23825000D03*
%TD*%
D19*
%TO.P,U1,1,VOUT*%
%TO.N,/V_out*%
X20878000Y21631000D03*
%TO.P,U1,2,LX2*%
%TO.N,Net-(U1-LX2)*%
X20378000Y21631000D03*
%TO.P,U1,3,LX1*%
%TO.N,Net-(U1-LX1)*%
X19878000Y21631000D03*
%TO.P,U1,4,VIN*%
%TO.N,/V_in*%
X19378000Y21631000D03*
%TO.P,U1,5,EN*%
%TO.N,/en*%
X19378000Y23111000D03*
%TO.P,U1,6,MODE*%
%TO.N,/mod*%
X19878000Y23111000D03*
%TO.P,U1,7,GND*%
%TO.N,GND*%
X20378000Y23111000D03*
%TO.P,U1,8,FB*%
%TO.N,/FB*%
X20878000Y23111000D03*
%TD*%
D20*
%TO.P,R3,1*%
%TO.N,/V_out*%
X27850000Y19925000D03*
%TO.P,R3,2*%
%TO.N,/SEL_5v*%
X27850000Y18100000D03*
%TD*%
D18*
%TO.P,C1,1*%
%TO.N,/V_in*%
X17588000Y21800000D03*
%TO.P,C1,2*%
%TO.N,GND*%
X17588000Y23700000D03*
%TD*%
D21*
%TO.P,FID1,*%
%TO.N,*%
X15000000Y14000000D03*
%TD*%
D15*
%TO.P,R1,1*%
%TO.N,/FB*%
X25450000Y22000000D03*
%TO.P,R1,2*%
%TO.N,GND*%
X25450000Y23825000D03*
%TD*%
D21*
%TO.P,FID2,*%
%TO.N,*%
X25000000Y28000000D03*
%TD*%
D22*
%TO.P,L1,1,1*%
%TO.N,Net-(U1-LX1)*%
X19053000Y19577000D03*
%TO.P,L1,2,2*%
%TO.N,Net-(U1-LX2)*%
X21203000Y19577000D03*
%TD*%
D23*
%TO.N,GND*%
X15000000Y18900000D03*
X17800000Y24800000D03*
X21300000Y25200000D03*
X16800000Y24800000D03*
X22200000Y25200000D03*
%TO.N,/FB*%
X24525000Y22700000D03*
%TD*%
D24*
%TO.N,/V_in*%
X18075000Y26300000D02*
X16600000Y26300000D01*
X14450000Y24150000D02*
X14450000Y22075000D01*
X16600000Y26300000D02*
X14450000Y24150000D01*
%TO.N,GND*%
X28192500Y29800500D02*
X28002000Y29991000D01*
%TO.N,/V_out*%
X26125000Y18325000D02*
X24200000Y18325000D01*
X27850000Y19925000D02*
X27725000Y19925000D01*
X27850000Y21625000D02*
X27850000Y19925000D01*
X27725000Y19925000D02*
X26125000Y18325000D01*
%TO.N,/en*%
X19062500Y25237500D02*
X19062500Y27093750D01*
X18756250Y27400000D02*
X15675000Y27400000D01*
X19378000Y24922000D02*
X19062500Y25237500D01*
X15675000Y27400000D02*
X14575000Y26300000D01*
X19062500Y27093750D02*
X18756250Y27400000D01*
X18500000Y29335000D02*
X18500000Y27400000D01*
X19378000Y23209000D02*
X19378000Y24922000D01*
%TO.N,/mod*%
X19878000Y23209000D02*
X19878000Y26278000D01*
X19900000Y27250000D02*
X20990000Y28340000D01*
X19900000Y26300000D02*
X19900000Y27250000D01*
X19878000Y26278000D02*
X19900000Y26300000D01*
X20990000Y28340000D02*
X20990000Y29385000D01*
%TO.N,/FB*%
X24750000Y22700000D02*
X25450000Y22000000D01*
X24225000Y23000000D02*
X21700000Y23000000D01*
X21700000Y23000000D02*
X21491000Y23209000D01*
X24525000Y22700000D02*
X24225000Y23000000D01*
X21491000Y23209000D02*
X20878000Y23209000D01*
X24525000Y22700000D02*
X24750000Y22700000D01*
%TO.N,/SEL_3v3*%
X28050000Y23650000D02*
X30700000Y23650000D01*
X27850000Y23450000D02*
X28050000Y23650000D01*
%TO.N,/SEL_5v*%
X27850000Y18100000D02*
X28320000Y18570000D01*
X28320000Y18570000D02*
X30700000Y18570000D01*
%TD*%
%TA.AperFunction,Conductor*%
%TO.N,GND*%
G36*
X34787195Y34787194D02*
G01*
X34805501Y34743000D01*
X34805501Y5897000D01*
X34787195Y5852806D01*
X34743001Y5834500D01*
X5897000Y5834500D01*
X5852806Y5852806D01*
X5834500Y5897000D01*
X5834500Y14000000D01*
X13994659Y14000000D01*
X14013975Y13803870D01*
X14013976Y13803868D01*
X14071186Y13615273D01*
X14071187Y13615272D01*
X14164086Y13441468D01*
X14164090Y13441462D01*
X14289117Y13289117D01*
X14441462Y13164090D01*
X14441464Y13164089D01*
X14441467Y13164087D01*
X14486690Y13139915D01*
X14615273Y13071186D01*
X14803868Y13013976D01*
X14901934Y13004318D01*
X14999999Y12994659D01*
X14999999Y12994660D01*
X15000000Y12994659D01*
X15196132Y13013976D01*
X15384727Y13071186D01*
X15558538Y13164090D01*
X15710883Y13289117D01*
X15835910Y13441462D01*
X15928814Y13615273D01*
X15986024Y13803868D01*
X16005341Y14000000D01*
X15986024Y14196132D01*
X15928814Y14384727D01*
X15835910Y14558538D01*
X15710883Y14710883D01*
X15558538Y14835910D01*
X15558532Y14835914D01*
X15449018Y14894450D01*
X15384727Y14928814D01*
X15260935Y14966366D01*
X15196130Y14986025D01*
X15000000Y15005341D01*
X14803869Y14986025D01*
X14683325Y14949458D01*
X14615273Y14928814D01*
X14615271Y14928814D01*
X14615271Y14928813D01*
X14441467Y14835914D01*
X14441461Y14835910D01*
X14289117Y14710883D01*
X14164090Y14558539D01*
X14164086Y14558533D01*
X14071187Y14384729D01*
X14013975Y14196131D01*
X13994659Y14000001D01*
X13994659Y14000000D01*
X5834500Y14000000D01*
X5834500Y16600000D01*
X13350001Y16600000D01*
X13350001Y15845792D01*
X13352850Y15815396D01*
X13397654Y15687354D01*
X13397654Y15687353D01*
X13478208Y15578209D01*
X13587353Y15497655D01*
X13715392Y15452852D01*
X13715397Y15452851D01*
X13745800Y15450001D01*
X14149999Y15450001D01*
X14150000Y15450002D01*
X14150000Y16600000D01*
X14750000Y16600000D01*
X14750000Y15450001D01*
X15154208Y15450001D01*
X15184604Y15452851D01*
X15312646Y15497655D01*
X15312647Y15497655D01*
X15421791Y15578209D01*
X15502345Y15687353D01*
X15502345Y15687354D01*
X15547148Y15815393D01*
X15547149Y15815398D01*
X15550000Y15845801D01*
X15550000Y16600000D01*
X14750000Y16600000D01*
X14150000Y16600000D01*
X13350001Y16600000D01*
X5834500Y16600000D01*
X5834500Y19886993D01*
X6307670Y19886993D01*
X6307864Y19878451D01*
X6308569Y19865789D01*
X6309329Y19857241D01*
X6325619Y19724126D01*
X6328817Y19707297D01*
X6328817Y19707296D01*
X6328818Y19707294D01*
X6337249Y19674789D01*
X6342633Y19658529D01*
X6363057Y19608234D01*
X6392343Y19536116D01*
X6392342Y19536116D01*
X6399830Y19520683D01*
X6405210Y19511237D01*
X6416443Y19491513D01*
X6425887Y19477214D01*
X6425892Y19477207D01*
X6425893Y19477206D01*
X6425893Y19477205D01*
X6446853Y19449618D01*
X6505831Y19371992D01*
X6505833Y19371990D01*
X6505832Y19371990D01*
X6511289Y19365714D01*
X6517071Y19359064D01*
X6540729Y19335231D01*
X6553574Y19323895D01*
X6658202Y19243176D01*
X6672428Y19233628D01*
X6672433Y19233625D01*
X6672432Y19233625D01*
X6685870Y19225840D01*
X6701483Y19216795D01*
X6716840Y19209203D01*
X6838895Y19158585D01*
X6838897Y19158584D01*
X6855110Y19153082D01*
X6855109Y19153083D01*
X6855115Y19153081D01*
X6864726Y19150512D01*
X6887548Y19144411D01*
X6887548Y19144412D01*
X6887559Y19144409D01*
X6904373Y19141085D01*
X6904375Y19141085D01*
X6904384Y19141083D01*
X7012729Y19127015D01*
X7037343Y19123818D01*
X7045847Y19122997D01*
X7058511Y19122194D01*
X7067089Y19121935D01*
X7067089Y19121936D01*
X7067090Y19121935D01*
X7471776Y19123085D01*
X7516022Y19104905D01*
X7534454Y19060763D01*
X7516274Y19016517D01*
X7501416Y19005465D01*
X7373833Y18937272D01*
X7373827Y18937268D01*
X7213945Y18806055D01*
X7082732Y18646173D01*
X7082728Y18646167D01*
X6985233Y18463764D01*
X6953756Y18360001D01*
X6953757Y18360000D01*
X7444428Y18360000D01*
X7488622Y18341694D01*
X7506928Y18297500D01*
X7501280Y18271537D01*
X7500506Y18269843D01*
X7460000Y18131892D01*
X7460000Y17988109D01*
X7500506Y17850158D01*
X7501280Y17848463D01*
X7501318Y17847392D01*
X7501766Y17845867D01*
X7501376Y17845753D01*
X7502987Y17800658D01*
X7470391Y17765648D01*
X7444428Y17760000D01*
X6953756Y17760000D01*
X6985233Y17656237D01*
X7082728Y17473834D01*
X7082732Y17473828D01*
X7213945Y17313946D01*
X7373827Y17182733D01*
X7373833Y17182729D01*
X7556236Y17085233D01*
X7556239Y17085232D01*
X7660000Y17053757D01*
X7660000Y17550081D01*
X7678306Y17594275D01*
X7722500Y17612581D01*
X7748461Y17606934D01*
X7817685Y17575320D01*
X7853202Y17570214D01*
X7924235Y17560000D01*
X7924237Y17560000D01*
X7995765Y17560000D01*
X8049038Y17567660D01*
X8102315Y17575320D01*
X8171537Y17606934D01*
X8219341Y17608640D01*
X8254352Y17576045D01*
X8260000Y17550081D01*
X8260000Y17053758D01*
X8363760Y17085232D01*
X8363763Y17085233D01*
X8546166Y17182729D01*
X8546172Y17182733D01*
X8706054Y17313946D01*
X8837267Y17473828D01*
X8837271Y17473834D01*
X8934766Y17656237D01*
X8966244Y17760000D01*
X8475572Y17760000D01*
X8431378Y17778306D01*
X8413072Y17822500D01*
X8418720Y17848463D01*
X8419489Y17850152D01*
X8419493Y17850156D01*
X8460000Y17988111D01*
X8460000Y18131889D01*
X8460000Y18131890D01*
X8460000Y18131891D01*
X8459999Y18131892D01*
X8419493Y18269844D01*
X8419491Y18269847D01*
X8418720Y18271537D01*
X8418681Y18272609D01*
X8418234Y18274133D01*
X8418623Y18274248D01*
X8417013Y18319342D01*
X8449609Y18354352D01*
X8475572Y18360000D01*
X8966243Y18360000D01*
X8966243Y18360001D01*
X8934766Y18463764D01*
X8837271Y18646167D01*
X8837267Y18646173D01*
X8706054Y18806055D01*
X8546172Y18937268D01*
X8546166Y18937272D01*
X8413421Y19008225D01*
X8383074Y19045202D01*
X8387763Y19092807D01*
X8424740Y19123154D01*
X8442699Y19125845D01*
X10025352Y19130342D01*
X10069598Y19112162D01*
X10088030Y19068020D01*
X10069850Y19023774D01*
X10054992Y19012722D01*
X9913833Y18937272D01*
X9913827Y18937268D01*
X9753945Y18806055D01*
X9622732Y18646173D01*
X9622728Y18646167D01*
X9525233Y18463764D01*
X9493756Y18360001D01*
X9493757Y18360000D01*
X9984428Y18360000D01*
X10028622Y18341694D01*
X10046928Y18297500D01*
X10041280Y18271537D01*
X10040506Y18269843D01*
X10000000Y18131892D01*
X10000000Y17988109D01*
X10040506Y17850158D01*
X10041280Y17848463D01*
X10041318Y17847392D01*
X10041766Y17845867D01*
X10041376Y17845753D01*
X10042987Y17800658D01*
X10010391Y17765648D01*
X9984428Y17760000D01*
X9493756Y17760000D01*
X9525233Y17656237D01*
X9622728Y17473834D01*
X9622732Y17473828D01*
X9753945Y17313946D01*
X9913827Y17182733D01*
X9913833Y17182729D01*
X10096236Y17085233D01*
X10096239Y17085232D01*
X10200000Y17053757D01*
X10200000Y17550081D01*
X10218306Y17594275D01*
X10262500Y17612581D01*
X10288461Y17606934D01*
X10357685Y17575320D01*
X10393202Y17570214D01*
X10464235Y17560000D01*
X10464237Y17560000D01*
X10535765Y17560000D01*
X10589038Y17567660D01*
X10642315Y17575320D01*
X10711537Y17606934D01*
X10759341Y17608640D01*
X10794352Y17576045D01*
X10800000Y17550081D01*
X10800000Y17053758D01*
X10903760Y17085232D01*
X10903763Y17085233D01*
X11086166Y17182729D01*
X11086172Y17182733D01*
X11107212Y17200000D01*
X13350000Y17200000D01*
X14150000Y17200000D01*
X14150000Y18350000D01*
X14750000Y18350000D01*
X14750000Y17200000D01*
X15549999Y17200000D01*
X15549999Y17954209D01*
X15547149Y17984605D01*
X15502345Y18112647D01*
X15502345Y18112648D01*
X15421791Y18221792D01*
X15312646Y18302346D01*
X15184607Y18347149D01*
X15184602Y18347150D01*
X15154199Y18350000D01*
X14750000Y18350000D01*
X14150000Y18350000D01*
X13745791Y18350000D01*
X13715395Y18347150D01*
X13587353Y18302346D01*
X13587352Y18302346D01*
X13478208Y18221792D01*
X13397654Y18112648D01*
X13397654Y18112647D01*
X13352851Y17984608D01*
X13352850Y17984603D01*
X13350000Y17954200D01*
X13350000Y17200000D01*
X11107212Y17200000D01*
X11246054Y17313946D01*
X11377267Y17473828D01*
X11377271Y17473834D01*
X11474766Y17656237D01*
X11506244Y17760000D01*
X11015572Y17760000D01*
X10971378Y17778306D01*
X10953072Y17822500D01*
X10958720Y17848463D01*
X10959489Y17850152D01*
X10959493Y17850156D01*
X11000000Y17988111D01*
X11000000Y18131889D01*
X11000000Y18131890D01*
X11000000Y18131891D01*
X10999999Y18131892D01*
X10959493Y18269844D01*
X10959491Y18269847D01*
X10958720Y18271537D01*
X10958681Y18272609D01*
X10958234Y18274133D01*
X10958623Y18274248D01*
X10957013Y18319342D01*
X10989609Y18354352D01*
X11015572Y18360000D01*
X11506243Y18360000D01*
X11506243Y18360001D01*
X11474766Y18463764D01*
X11377271Y18646167D01*
X11377267Y18646173D01*
X11246054Y18806055D01*
X11086172Y18937268D01*
X11086166Y18937272D01*
X10939988Y19015405D01*
X10909641Y19052382D01*
X10914330Y19099987D01*
X10951307Y19130334D01*
X10969266Y19133025D01*
X13413477Y19139970D01*
X13421299Y19140228D01*
X13427085Y19140594D01*
X13432873Y19140960D01*
X13440668Y19141690D01*
X13478444Y19146379D01*
X13553999Y19155755D01*
X13557283Y19156206D01*
X13559308Y19156498D01*
X13560660Y19156692D01*
X13655913Y19191026D01*
X13696885Y19215714D01*
X13771748Y19283884D01*
X13778222Y19297655D01*
X13814820Y19375504D01*
X13814820Y19375506D01*
X13814825Y19375515D01*
X13820243Y19397364D01*
X13821405Y19402045D01*
X13849811Y19440533D01*
X13882067Y19449500D01*
X15154262Y19449500D01*
X15154266Y19449500D01*
X15184699Y19452354D01*
X15312882Y19497207D01*
X15422150Y19577850D01*
X15502793Y19687118D01*
X15547646Y19815301D01*
X15550500Y19845734D01*
X15550500Y20483000D01*
X15568806Y20527194D01*
X15613000Y20545500D01*
X18165013Y20545500D01*
X18209207Y20527194D01*
X18227513Y20483000D01*
X18227500Y20482456D01*
X18227500Y20481267D01*
X18227500Y20481266D01*
X18227500Y18672734D01*
X18228282Y18664395D01*
X18230353Y18642304D01*
X18230354Y18642299D01*
X18275207Y18514118D01*
X18275207Y18514117D01*
X18296732Y18484952D01*
X18355850Y18404850D01*
X18465118Y18324207D01*
X18593301Y18279354D01*
X18623734Y18276500D01*
X18623738Y18276500D01*
X19482262Y18276500D01*
X19482266Y18276500D01*
X19512699Y18279354D01*
X19560250Y18295993D01*
X19580893Y18299500D01*
X19613000Y18299500D01*
X19691643Y18315143D01*
X19726291Y18329495D01*
X19784581Y18366121D01*
X19837505Y18440709D01*
X19851857Y18475357D01*
X19867500Y18554000D01*
X19867500Y18608402D01*
X19871008Y18629045D01*
X19875644Y18642295D01*
X19875645Y18642299D01*
X19875646Y18642301D01*
X19878500Y18672734D01*
X19878500Y20410756D01*
X19895404Y20453502D01*
X19912742Y20471996D01*
X20084117Y20654796D01*
X20127697Y20674517D01*
X20172458Y20657645D01*
X20178219Y20651461D01*
X20231163Y20586300D01*
X20342507Y20449262D01*
X20356500Y20409851D01*
X20356500Y18554000D01*
X20372142Y18475359D01*
X20386492Y18440716D01*
X20386495Y18440709D01*
X20386497Y18440706D01*
X20386499Y18440703D01*
X20423121Y18382418D01*
X20468810Y18350000D01*
X20497709Y18329495D01*
X20532357Y18315143D01*
X20611000Y18299500D01*
X20675107Y18299500D01*
X20695749Y18295993D01*
X20743301Y18279354D01*
X20773734Y18276500D01*
X20773738Y18276500D01*
X21632262Y18276500D01*
X21632266Y18276500D01*
X21662699Y18279354D01*
X21790882Y18324207D01*
X21900150Y18404850D01*
X21980793Y18514118D01*
X22025646Y18642301D01*
X22028500Y18672734D01*
X22028500Y20481266D01*
X22025646Y20511699D01*
X22025644Y20511703D01*
X22024834Y20515416D01*
X22026848Y20515857D01*
X22029142Y20557065D01*
X22064793Y20588958D01*
X22112555Y20586300D01*
X22121622Y20580956D01*
X22218156Y20512493D01*
X22243615Y20471996D01*
X22244500Y20461513D01*
X22244500Y18316328D01*
X22226194Y18272134D01*
X22209741Y18260322D01*
X20240597Y17284952D01*
X20236397Y17282749D01*
X20233424Y17281101D01*
X20229727Y17279052D01*
X20225594Y17276634D01*
X20067950Y17179399D01*
X20067941Y17179393D01*
X20067943Y17179395D01*
X20064184Y17176829D01*
X20060072Y17174020D01*
X20043219Y17161328D01*
X20037893Y17156916D01*
X20035878Y17155246D01*
X20035879Y17155247D01*
X19900371Y17031955D01*
X19900372Y17031955D01*
X19900370Y17031953D01*
X19893619Y17025211D01*
X19879392Y17009623D01*
X19873307Y17002300D01*
X19873307Y17002301D01*
X19873302Y17002294D01*
X19762871Y16856121D01*
X19757486Y16848262D01*
X19757483Y16848257D01*
X19757483Y16848258D01*
X19746379Y16830321D01*
X19741741Y16821986D01*
X19741740Y16821984D01*
X19660171Y16657946D01*
X19660168Y16657939D01*
X19656326Y16649220D01*
X19648717Y16629529D01*
X19645695Y16620479D01*
X19645695Y16620480D01*
X19641665Y16606244D01*
X19595789Y16444206D01*
X19595789Y16444205D01*
X19593616Y16434901D01*
X19593617Y16434903D01*
X19589777Y16414164D01*
X19589777Y16414161D01*
X19589776Y16414158D01*
X19588478Y16404724D01*
X19588478Y16404725D01*
X19575842Y16265247D01*
X19553623Y16222885D01*
X19507958Y16208641D01*
X19465596Y16230860D01*
X19465284Y16231236D01*
X19371054Y16346055D01*
X19211172Y16477268D01*
X19211166Y16477272D01*
X19028763Y16574767D01*
X18925000Y16606244D01*
X18925000Y16109920D01*
X18906694Y16065726D01*
X18862500Y16047420D01*
X18836537Y16053068D01*
X18767316Y16084680D01*
X18767313Y16084681D01*
X18660765Y16100000D01*
X18660763Y16100000D01*
X18589237Y16100000D01*
X18589235Y16100000D01*
X18482686Y16084681D01*
X18482683Y16084680D01*
X18413463Y16053068D01*
X18365658Y16051361D01*
X18330648Y16083957D01*
X18325000Y16109920D01*
X18325000Y16606244D01*
X18324999Y16606244D01*
X18221236Y16574767D01*
X18038833Y16477272D01*
X18038827Y16477268D01*
X17878945Y16346055D01*
X17747732Y16186173D01*
X17747728Y16186167D01*
X17650233Y16003764D01*
X17618756Y15900001D01*
X17618757Y15900000D01*
X18109428Y15900000D01*
X18153622Y15881694D01*
X18171928Y15837500D01*
X18166280Y15811537D01*
X18165506Y15809843D01*
X18125000Y15671892D01*
X18125000Y15528109D01*
X18165506Y15390158D01*
X18166280Y15388463D01*
X18166318Y15387392D01*
X18166766Y15385867D01*
X18166376Y15385753D01*
X18167987Y15340658D01*
X18135391Y15305648D01*
X18109428Y15300000D01*
X17618756Y15300000D01*
X17650233Y15196237D01*
X17747728Y15013834D01*
X17747732Y15013828D01*
X17878945Y14853946D01*
X18038827Y14722733D01*
X18038833Y14722729D01*
X18221236Y14625233D01*
X18221239Y14625232D01*
X18325000Y14593757D01*
X18325000Y15090081D01*
X18343306Y15134275D01*
X18387500Y15152581D01*
X18413461Y15146934D01*
X18482685Y15115320D01*
X18518202Y15110214D01*
X18589235Y15100000D01*
X18589237Y15100000D01*
X18660765Y15100000D01*
X18714038Y15107660D01*
X18767315Y15115320D01*
X18836537Y15146934D01*
X18884341Y15148640D01*
X18919352Y15116045D01*
X18925000Y15090081D01*
X18925000Y14593758D01*
X19028760Y14625232D01*
X19028763Y14625233D01*
X19211166Y14722729D01*
X19211172Y14722733D01*
X19371057Y14853948D01*
X19463316Y14966366D01*
X19505503Y14988916D01*
X19551278Y14975030D01*
X19573828Y14932843D01*
X19574129Y14926869D01*
X19575975Y14170142D01*
X19557777Y14125904D01*
X19513627Y14107490D01*
X19501285Y14108690D01*
X19494697Y14110000D01*
X18925000Y14110000D01*
X18925000Y13569920D01*
X18906694Y13525726D01*
X18862500Y13507420D01*
X18836537Y13513068D01*
X18767316Y13544680D01*
X18767313Y13544681D01*
X18660765Y13560000D01*
X18660763Y13560000D01*
X18589237Y13560000D01*
X18589235Y13560000D01*
X18482686Y13544681D01*
X18482683Y13544680D01*
X18413463Y13513068D01*
X18365658Y13511361D01*
X18330648Y13543957D01*
X18325000Y13569920D01*
X18325000Y14110000D01*
X17755302Y14110000D01*
X17696965Y14098397D01*
X17696961Y14098395D01*
X17630808Y14054192D01*
X17586605Y13988039D01*
X17586603Y13988035D01*
X17575000Y13929699D01*
X17575000Y13360000D01*
X18109428Y13360000D01*
X18153622Y13341694D01*
X18171928Y13297500D01*
X18166280Y13271537D01*
X18165506Y13269843D01*
X18125000Y13131892D01*
X18125000Y12988109D01*
X18165506Y12850158D01*
X18166280Y12848463D01*
X18166318Y12847392D01*
X18166766Y12845867D01*
X18166376Y12845753D01*
X18167987Y12800658D01*
X18135391Y12765648D01*
X18109428Y12760000D01*
X17575000Y12760000D01*
X17575000Y12190302D01*
X17586603Y12131966D01*
X17586605Y12131962D01*
X17630808Y12065809D01*
X17696961Y12021606D01*
X17696965Y12021604D01*
X17755301Y12010001D01*
X17755302Y12010000D01*
X18325000Y12010000D01*
X18325000Y12550081D01*
X18343306Y12594275D01*
X18387500Y12612581D01*
X18413461Y12606934D01*
X18482685Y12575320D01*
X18518202Y12570214D01*
X18589235Y12560000D01*
X18589237Y12560000D01*
X18660765Y12560000D01*
X18714038Y12567660D01*
X18767315Y12575320D01*
X18836537Y12606934D01*
X18884341Y12608640D01*
X18919352Y12576045D01*
X18925000Y12550081D01*
X18925000Y12010000D01*
X19494697Y12010000D01*
X19506692Y12012386D01*
X19553609Y12003054D01*
X19580185Y11963281D01*
X19581386Y11951239D01*
X19583262Y11182308D01*
X19565064Y11138070D01*
X19520914Y11119656D01*
X19476676Y11137854D01*
X19472449Y11142506D01*
X19371054Y11266055D01*
X19211172Y11397268D01*
X19211166Y11397272D01*
X19028763Y11494767D01*
X18925000Y11526244D01*
X18925000Y11029920D01*
X18906694Y10985726D01*
X18862500Y10967420D01*
X18836537Y10973068D01*
X18767316Y11004680D01*
X18767313Y11004681D01*
X18660765Y11020000D01*
X18660763Y11020000D01*
X18589237Y11020000D01*
X18589235Y11020000D01*
X18482686Y11004681D01*
X18482683Y11004680D01*
X18413463Y10973068D01*
X18365658Y10971361D01*
X18330648Y11003957D01*
X18325000Y11029920D01*
X18325000Y11526244D01*
X18324999Y11526244D01*
X18221236Y11494767D01*
X18038833Y11397272D01*
X18038827Y11397268D01*
X17878945Y11266055D01*
X17747732Y11106173D01*
X17747728Y11106167D01*
X17650233Y10923764D01*
X17618756Y10820001D01*
X17618757Y10820000D01*
X18109428Y10820000D01*
X18153622Y10801694D01*
X18171928Y10757500D01*
X18166280Y10731537D01*
X18165506Y10729843D01*
X18125000Y10591892D01*
X18125000Y10448109D01*
X18165506Y10310158D01*
X18166280Y10308463D01*
X18166318Y10307392D01*
X18166766Y10305867D01*
X18166376Y10305753D01*
X18167987Y10260658D01*
X18135391Y10225648D01*
X18109428Y10220000D01*
X17618756Y10220000D01*
X17650233Y10116237D01*
X17747728Y9933834D01*
X17747732Y9933828D01*
X17878945Y9773946D01*
X18038827Y9642733D01*
X18038833Y9642729D01*
X18221236Y9545233D01*
X18221239Y9545232D01*
X18325000Y9513757D01*
X18325000Y10010081D01*
X18343306Y10054275D01*
X18387500Y10072581D01*
X18413461Y10066934D01*
X18482685Y10035320D01*
X18518202Y10030214D01*
X18589235Y10020000D01*
X18589237Y10020000D01*
X18660765Y10020000D01*
X18714038Y10027660D01*
X18767315Y10035320D01*
X18836537Y10066934D01*
X18884341Y10068640D01*
X18919352Y10036045D01*
X18925000Y10010081D01*
X18925000Y9513758D01*
X19028760Y9545232D01*
X19028763Y9545233D01*
X19211166Y9642729D01*
X19211172Y9642733D01*
X19371054Y9773946D01*
X19475670Y9901419D01*
X19517857Y9923968D01*
X19563633Y9910082D01*
X19586182Y9867895D01*
X19586483Y9861921D01*
X19588371Y9087676D01*
X19570173Y9043438D01*
X19526023Y9025024D01*
X19513679Y9026225D01*
X19494701Y9030000D01*
X18925000Y9030000D01*
X18925000Y8489920D01*
X18906694Y8445726D01*
X18862500Y8427420D01*
X18836537Y8433068D01*
X18767316Y8464680D01*
X18767313Y8464681D01*
X18660765Y8480000D01*
X18660763Y8480000D01*
X18589237Y8480000D01*
X18589235Y8480000D01*
X18482686Y8464681D01*
X18482683Y8464680D01*
X18413463Y8433068D01*
X18365658Y8431361D01*
X18330648Y8463957D01*
X18325000Y8489920D01*
X18325000Y9030000D01*
X17755302Y9030000D01*
X17696965Y9018397D01*
X17696961Y9018395D01*
X17630808Y8974192D01*
X17586605Y8908039D01*
X17586603Y8908035D01*
X17575000Y8849699D01*
X17575000Y8280000D01*
X18109428Y8280000D01*
X18153622Y8261694D01*
X18171928Y8217500D01*
X18166280Y8191537D01*
X18165506Y8189843D01*
X18125000Y8051892D01*
X18125000Y7908109D01*
X18165506Y7770158D01*
X18166280Y7768463D01*
X18166318Y7767392D01*
X18166766Y7765867D01*
X18166376Y7765753D01*
X18167987Y7720658D01*
X18135391Y7685648D01*
X18109428Y7680000D01*
X17575000Y7680000D01*
X17575000Y7110302D01*
X17586603Y7051966D01*
X17586605Y7051962D01*
X17630808Y6985809D01*
X17696961Y6941606D01*
X17696965Y6941604D01*
X17755301Y6930001D01*
X17755302Y6930000D01*
X18325000Y6930000D01*
X18325000Y7470081D01*
X18343306Y7514275D01*
X18387500Y7532581D01*
X18413461Y7526934D01*
X18482685Y7495320D01*
X18518202Y7490214D01*
X18589235Y7480000D01*
X18589237Y7480000D01*
X18660765Y7480000D01*
X18714038Y7487660D01*
X18767315Y7495320D01*
X18836537Y7526934D01*
X18884341Y7528640D01*
X18919352Y7496045D01*
X18925000Y7470081D01*
X18925000Y6930000D01*
X19494698Y6930000D01*
X19494698Y6930001D01*
X19553034Y6941604D01*
X19553038Y6941606D01*
X19619191Y6985809D01*
X19637141Y7012671D01*
X19676915Y7039247D01*
X19723831Y7029915D01*
X19744098Y7007652D01*
X19787408Y6927474D01*
X19792643Y6918830D01*
X19792651Y6918817D01*
X19792653Y6918815D01*
X19805200Y6900231D01*
X19811274Y6892126D01*
X19811278Y6892122D01*
X19811278Y6892121D01*
X19935483Y6742362D01*
X19935483Y6742363D01*
X19935490Y6742355D01*
X19940892Y6736458D01*
X19942333Y6734886D01*
X19958277Y6719117D01*
X19965826Y6712354D01*
X19965825Y6712354D01*
X20116989Y6589798D01*
X20125167Y6583810D01*
X20125167Y6583811D01*
X20143891Y6571473D01*
X20147037Y6569615D01*
X20152600Y6566330D01*
X20152599Y6566331D01*
X20152601Y6566330D01*
X20152608Y6566326D01*
X20219315Y6531246D01*
X20324818Y6475764D01*
X20324819Y6475764D01*
X20333987Y6471505D01*
X20333985Y6471506D01*
X20333994Y6471503D01*
X20333997Y6471501D01*
X20354781Y6463064D01*
X20358733Y6461683D01*
X20364339Y6459722D01*
X20364338Y6459723D01*
X20364349Y6459719D01*
X20518659Y6414175D01*
X20550982Y6404635D01*
X20560813Y6402252D01*
X20560821Y6402251D01*
X20560823Y6402250D01*
X20582855Y6398049D01*
X20584489Y6397821D01*
X20592889Y6396643D01*
X20592888Y6396644D01*
X20658184Y6390760D01*
X20788776Y6378991D01*
X20793831Y6378661D01*
X20801969Y6378331D01*
X20807030Y6378250D01*
X20807031Y6378251D01*
X20807033Y6378250D01*
X21451666Y6383857D01*
X21666546Y6385725D01*
X21671604Y6385893D01*
X21679760Y6386367D01*
X21684840Y6386788D01*
X21881010Y6407971D01*
X21881010Y6407970D01*
X21891042Y6409559D01*
X21891043Y6409559D01*
X21891048Y6409561D01*
X21891054Y6409561D01*
X21898619Y6411146D01*
X21913076Y6414174D01*
X21913075Y6414174D01*
X21922912Y6416748D01*
X22109062Y6475418D01*
X22110427Y6475925D01*
X22118585Y6478946D01*
X22118594Y6478950D01*
X22118594Y6478949D01*
X22139264Y6487790D01*
X22139263Y6487790D01*
X22148398Y6492243D01*
X22148399Y6492243D01*
X22163263Y6500423D01*
X22319415Y6586353D01*
X22328062Y6591684D01*
X22346609Y6604425D01*
X22354692Y6610587D01*
X22503883Y6736458D01*
X22510210Y6742355D01*
X22511312Y6743382D01*
X22511311Y6743380D01*
X22526991Y6759517D01*
X22526993Y6759518D01*
X22533702Y6767141D01*
X22533701Y6767140D01*
X22655256Y6919870D01*
X22661181Y6928120D01*
X22673388Y6947022D01*
X22678474Y6955824D01*
X22767652Y7129455D01*
X22771843Y7138715D01*
X22780096Y7159647D01*
X22783350Y7169264D01*
X22801720Y7233946D01*
X22809501Y7261343D01*
X22839183Y7298853D01*
X22886697Y7304388D01*
X22917935Y7283916D01*
X22958945Y7233946D01*
X23118827Y7102733D01*
X23118833Y7102729D01*
X23301236Y7005233D01*
X23301239Y7005232D01*
X23405000Y6973757D01*
X23405000Y7470081D01*
X23423306Y7514275D01*
X23467500Y7532581D01*
X23493461Y7526934D01*
X23562685Y7495320D01*
X23598202Y7490214D01*
X23669235Y7480000D01*
X23669237Y7480000D01*
X23740765Y7480000D01*
X23794038Y7487660D01*
X23847315Y7495320D01*
X23916537Y7526934D01*
X23964341Y7528640D01*
X23999352Y7496045D01*
X24005000Y7470081D01*
X24005000Y6973758D01*
X24108760Y7005232D01*
X24108763Y7005233D01*
X24291166Y7102729D01*
X24291172Y7102733D01*
X24451054Y7233946D01*
X24582267Y7393828D01*
X24582271Y7393834D01*
X24679766Y7576237D01*
X24711244Y7680000D01*
X24220572Y7680000D01*
X24176378Y7698306D01*
X24158072Y7742500D01*
X24163720Y7768463D01*
X24164489Y7770152D01*
X24164493Y7770156D01*
X24205000Y7908111D01*
X24205000Y8051889D01*
X24205000Y8051891D01*
X24204999Y8051892D01*
X24164493Y8189843D01*
X24163720Y8191537D01*
X24163681Y8192609D01*
X24163234Y8194133D01*
X24163623Y8194248D01*
X24162013Y8239342D01*
X24194609Y8274352D01*
X24220572Y8280000D01*
X24711243Y8280000D01*
X24711243Y8280001D01*
X24679766Y8383764D01*
X24582271Y8566167D01*
X24582267Y8566173D01*
X24451054Y8726055D01*
X24291172Y8857268D01*
X24291166Y8857272D01*
X24108763Y8954767D01*
X24005000Y8986244D01*
X24005000Y8489920D01*
X23986694Y8445726D01*
X23942500Y8427420D01*
X23916537Y8433068D01*
X23847316Y8464680D01*
X23847313Y8464681D01*
X23740765Y8480000D01*
X23740763Y8480000D01*
X23669237Y8480000D01*
X23669235Y8480000D01*
X23562686Y8464681D01*
X23562683Y8464680D01*
X23493463Y8433068D01*
X23445658Y8431361D01*
X23410648Y8463957D01*
X23405000Y8489920D01*
X23405000Y8986244D01*
X23404999Y8986244D01*
X23301236Y8954767D01*
X23118833Y8857272D01*
X23118827Y8857268D01*
X22958944Y8726054D01*
X22948517Y8713349D01*
X22906329Y8690801D01*
X22860554Y8704688D01*
X22838006Y8746876D01*
X22837718Y8751723D01*
X22817445Y9770463D01*
X22834867Y9815009D01*
X22878688Y9834191D01*
X22923238Y9816768D01*
X22928245Y9811353D01*
X22958945Y9773946D01*
X23118827Y9642733D01*
X23118833Y9642729D01*
X23301236Y9545233D01*
X23301239Y9545232D01*
X23405000Y9513757D01*
X23405000Y10010081D01*
X23423306Y10054275D01*
X23467500Y10072581D01*
X23493461Y10066934D01*
X23562685Y10035320D01*
X23598202Y10030214D01*
X23669235Y10020000D01*
X23669237Y10020000D01*
X23740765Y10020000D01*
X23794038Y10027660D01*
X23847315Y10035320D01*
X23916537Y10066934D01*
X23964341Y10068640D01*
X23999352Y10036045D01*
X24005000Y10010081D01*
X24005000Y9513758D01*
X24108760Y9545232D01*
X24108763Y9545233D01*
X24291166Y9642729D01*
X24291172Y9642733D01*
X24451054Y9773946D01*
X24582267Y9933828D01*
X24582271Y9933834D01*
X24679766Y10116237D01*
X24711244Y10220000D01*
X24220572Y10220000D01*
X24176378Y10238306D01*
X24158072Y10282500D01*
X24163720Y10308463D01*
X24164489Y10310152D01*
X24164493Y10310156D01*
X24205000Y10448111D01*
X24205000Y10591889D01*
X24205000Y10591891D01*
X24204999Y10591892D01*
X24164493Y10729843D01*
X24163720Y10731537D01*
X24163681Y10732609D01*
X24163234Y10734133D01*
X24163623Y10734248D01*
X24162013Y10779342D01*
X24194609Y10814352D01*
X24220572Y10820000D01*
X24711243Y10820000D01*
X24711243Y10820001D01*
X24679766Y10923764D01*
X24582271Y11106167D01*
X24582267Y11106173D01*
X24451054Y11266055D01*
X24291172Y11397268D01*
X24291166Y11397272D01*
X24108763Y11494767D01*
X24005000Y11526244D01*
X24005000Y11029920D01*
X23986694Y10985726D01*
X23942500Y10967420D01*
X23916537Y10973068D01*
X23847316Y11004680D01*
X23847313Y11004681D01*
X23740765Y11020000D01*
X23740763Y11020000D01*
X23669237Y11020000D01*
X23669235Y11020000D01*
X23562686Y11004681D01*
X23562683Y11004680D01*
X23493463Y10973068D01*
X23445658Y10971361D01*
X23410648Y11003957D01*
X23405000Y11029920D01*
X23405000Y11526244D01*
X23404999Y11526244D01*
X23301236Y11494767D01*
X23118833Y11397272D01*
X23118827Y11397268D01*
X22958945Y11266055D01*
X22899168Y11193217D01*
X22856981Y11170668D01*
X22811205Y11184554D01*
X22788656Y11226741D01*
X22788368Y11231605D01*
X22765642Y12373581D01*
X22783065Y12418130D01*
X22826886Y12437312D01*
X22871436Y12419889D01*
X22876443Y12414474D01*
X22958945Y12313946D01*
X23118827Y12182733D01*
X23118833Y12182729D01*
X23301236Y12085233D01*
X23301239Y12085232D01*
X23405000Y12053757D01*
X23405000Y12550081D01*
X23423306Y12594275D01*
X23467500Y12612581D01*
X23493461Y12606934D01*
X23562685Y12575320D01*
X23598202Y12570214D01*
X23669235Y12560000D01*
X23669237Y12560000D01*
X23740765Y12560000D01*
X23794038Y12567660D01*
X23847315Y12575320D01*
X23916537Y12606934D01*
X23964341Y12608640D01*
X23999352Y12576045D01*
X24005000Y12550081D01*
X24005000Y12053758D01*
X24108760Y12085232D01*
X24108763Y12085233D01*
X24291166Y12182729D01*
X24291172Y12182733D01*
X24451054Y12313946D01*
X24582267Y12473828D01*
X24582271Y12473834D01*
X24679766Y12656237D01*
X24711244Y12760000D01*
X24220572Y12760000D01*
X24176378Y12778306D01*
X24158072Y12822500D01*
X24163720Y12848463D01*
X24164489Y12850152D01*
X24164493Y12850156D01*
X24205000Y12988111D01*
X24205000Y13131889D01*
X24205000Y13131891D01*
X24204999Y13131892D01*
X24164493Y13269843D01*
X24163720Y13271537D01*
X24163681Y13272609D01*
X24163234Y13274133D01*
X24163623Y13274248D01*
X24162013Y13319342D01*
X24194609Y13354352D01*
X24220572Y13360000D01*
X24711243Y13360000D01*
X24711243Y13360001D01*
X24679766Y13463764D01*
X24582271Y13646167D01*
X24582267Y13646173D01*
X24451054Y13806055D01*
X24291172Y13937268D01*
X24291166Y13937272D01*
X24108763Y14034767D01*
X24005000Y14066244D01*
X24005000Y13569920D01*
X23986694Y13525726D01*
X23942500Y13507420D01*
X23916537Y13513068D01*
X23847316Y13544680D01*
X23847313Y13544681D01*
X23740765Y13560000D01*
X23740763Y13560000D01*
X23669237Y13560000D01*
X23669235Y13560000D01*
X23562686Y13544681D01*
X23562683Y13544680D01*
X23493463Y13513068D01*
X23445658Y13511361D01*
X23410648Y13543957D01*
X23405000Y13569920D01*
X23405000Y14066244D01*
X23404999Y14066244D01*
X23301236Y14034767D01*
X23118833Y13937272D01*
X23118827Y13937268D01*
X22958945Y13806055D01*
X22849817Y13673083D01*
X22807630Y13650534D01*
X22761854Y13664420D01*
X22739305Y13706607D01*
X22739017Y13711459D01*
X22713832Y14977035D01*
X22731254Y15021581D01*
X22775075Y15040763D01*
X22819625Y15023340D01*
X22825677Y15016115D01*
X22825784Y15016202D01*
X22958945Y14853946D01*
X23118827Y14722733D01*
X23118833Y14722729D01*
X23301236Y14625233D01*
X23301239Y14625232D01*
X23405000Y14593757D01*
X23405000Y15090081D01*
X23423306Y15134275D01*
X23467500Y15152581D01*
X23493461Y15146934D01*
X23562685Y15115320D01*
X23598202Y15110214D01*
X23669235Y15100000D01*
X23669237Y15100000D01*
X23740765Y15100000D01*
X23794038Y15107660D01*
X23847315Y15115320D01*
X23916537Y15146934D01*
X23964341Y15148640D01*
X23999352Y15116045D01*
X24005000Y15090081D01*
X24005000Y14593758D01*
X24108760Y14625232D01*
X24108763Y14625233D01*
X24291166Y14722729D01*
X24291172Y14722733D01*
X24451054Y14853946D01*
X24582267Y15013828D01*
X24582271Y15013834D01*
X24679766Y15196237D01*
X24711244Y15300000D01*
X24220572Y15300000D01*
X24176378Y15318306D01*
X24158072Y15362500D01*
X24163720Y15388463D01*
X24164489Y15390152D01*
X24164493Y15390156D01*
X24205000Y15528111D01*
X24205000Y15671889D01*
X24205000Y15671891D01*
X24204999Y15671892D01*
X24164493Y15809843D01*
X24163720Y15811537D01*
X24163681Y15812609D01*
X24163234Y15814133D01*
X24163623Y15814248D01*
X24162013Y15859342D01*
X24194609Y15894352D01*
X24220572Y15900000D01*
X24711243Y15900000D01*
X24711243Y15900001D01*
X24679766Y16003764D01*
X24582271Y16186167D01*
X24582267Y16186173D01*
X24451054Y16346055D01*
X24291172Y16477268D01*
X24291166Y16477272D01*
X24108763Y16574767D01*
X24005000Y16606244D01*
X24005000Y16109920D01*
X23986694Y16065726D01*
X23942500Y16047420D01*
X23916537Y16053068D01*
X23847316Y16084680D01*
X23847313Y16084681D01*
X23740765Y16100000D01*
X23740763Y16100000D01*
X23669237Y16100000D01*
X23669235Y16100000D01*
X23562686Y16084681D01*
X23562683Y16084680D01*
X23493463Y16053068D01*
X23445658Y16051361D01*
X23410648Y16083957D01*
X23405000Y16109920D01*
X23405000Y16606244D01*
X23404999Y16606244D01*
X23301236Y16574767D01*
X23118833Y16477272D01*
X23118827Y16477268D01*
X22958945Y16346055D01*
X22827732Y16186173D01*
X22827730Y16186170D01*
X22807566Y16148445D01*
X22770588Y16118099D01*
X22722983Y16122788D01*
X22692637Y16159766D01*
X22689959Y16176658D01*
X22683164Y16518112D01*
X22700587Y16562660D01*
X22707752Y16569051D01*
X23384712Y17085233D01*
X24206690Y17711991D01*
X24210353Y17714919D01*
X24211775Y17716111D01*
X24216148Y17719772D01*
X24218337Y17721694D01*
X24219723Y17722909D01*
X24329237Y17823589D01*
X24354828Y17847115D01*
X24361479Y17853819D01*
X24361480Y17853819D01*
X24375509Y17869325D01*
X24375510Y17869325D01*
X24381530Y17876626D01*
X24454943Y17974502D01*
X24496106Y17998872D01*
X24504942Y17999500D01*
X26109423Y17999500D01*
X26112144Y17999382D01*
X26132321Y17997616D01*
X26153805Y17995736D01*
X26153805Y17995737D01*
X26153807Y17995736D01*
X26194227Y18006568D01*
X26196843Y18007148D01*
X26238045Y18014412D01*
X26243508Y18017568D01*
X26258584Y18023812D01*
X26264684Y18025446D01*
X26298950Y18049441D01*
X26301229Y18050892D01*
X26337455Y18071806D01*
X26364349Y18103858D01*
X26366160Y18105836D01*
X26890510Y18630186D01*
X26934702Y18648490D01*
X26978896Y18630184D01*
X26997202Y18585990D01*
X26993695Y18565348D01*
X26952354Y18447202D01*
X26952353Y18447197D01*
X26949500Y18416763D01*
X26949500Y17783238D01*
X26952353Y17752804D01*
X26952354Y17752799D01*
X26997207Y17624618D01*
X26997207Y17624617D01*
X27008999Y17608640D01*
X27077850Y17515350D01*
X27187118Y17434707D01*
X27315301Y17389854D01*
X27345734Y17387000D01*
X27345738Y17387000D01*
X28354262Y17387000D01*
X28354266Y17387000D01*
X28384699Y17389854D01*
X28512882Y17434707D01*
X28622150Y17515350D01*
X28702793Y17624618D01*
X28747646Y17752801D01*
X28750500Y17783234D01*
X28750500Y18182001D01*
X28768806Y18226194D01*
X28813000Y18244500D01*
X29654616Y18244500D01*
X29698810Y18226194D01*
X29714425Y18200142D01*
X29719928Y18182000D01*
X29724768Y18166046D01*
X29769533Y18082296D01*
X29822311Y17983556D01*
X29822319Y17983545D01*
X29953588Y17823592D01*
X29953591Y17823589D01*
X30039847Y17752801D01*
X30113550Y17692315D01*
X30113553Y17692314D01*
X30113555Y17692312D01*
X30181047Y17656237D01*
X30296046Y17594768D01*
X30494066Y17534700D01*
X30648516Y17519488D01*
X30699999Y17514417D01*
X30699999Y17514418D01*
X30700000Y17514417D01*
X30905934Y17534700D01*
X31103954Y17594768D01*
X31286450Y17692315D01*
X31446410Y17823590D01*
X31577685Y17983550D01*
X31675232Y18166046D01*
X31735300Y18364066D01*
X31755583Y18570000D01*
X31735300Y18775934D01*
X31675232Y18973954D01*
X31596134Y19121935D01*
X31577688Y19156445D01*
X31577686Y19156447D01*
X31577685Y19156450D01*
X31528161Y19216795D01*
X31446411Y19316409D01*
X31446408Y19316412D01*
X31286455Y19447681D01*
X31286453Y19447682D01*
X31286450Y19447685D01*
X31286448Y19447687D01*
X31286444Y19447689D01*
X31103954Y19545232D01*
X31103949Y19545234D01*
X30905935Y19605300D01*
X30905930Y19605301D01*
X30700000Y19625583D01*
X30494069Y19605301D01*
X30494064Y19605300D01*
X30296050Y19545234D01*
X30296045Y19545232D01*
X30113555Y19447689D01*
X30113544Y19447681D01*
X29953591Y19316412D01*
X29953588Y19316409D01*
X29822319Y19156456D01*
X29822311Y19156445D01*
X29724766Y18973950D01*
X29714425Y18939858D01*
X29684079Y18902880D01*
X29654616Y18895500D01*
X28335566Y18895500D01*
X28332844Y18895619D01*
X28326524Y18896172D01*
X28291192Y18899264D01*
X28250792Y18888439D01*
X28248131Y18887849D01*
X28206956Y18880589D01*
X28201483Y18877429D01*
X28186417Y18871189D01*
X28180314Y18869554D01*
X28146060Y18845569D01*
X28143761Y18844105D01*
X28121857Y18831458D01*
X28107545Y18823194D01*
X28107544Y18823193D01*
X28104394Y18821374D01*
X28073142Y18813000D01*
X27345734Y18813000D01*
X27336124Y18812099D01*
X27315303Y18810147D01*
X27315298Y18810146D01*
X27197153Y18768805D01*
X27149393Y18771488D01*
X27117518Y18807156D01*
X27120201Y18854916D01*
X27132315Y18871990D01*
X27454019Y19193694D01*
X27498214Y19212000D01*
X28354262Y19212000D01*
X28354266Y19212000D01*
X28384699Y19214854D01*
X28512882Y19259707D01*
X28622150Y19340350D01*
X28702793Y19449618D01*
X28747646Y19577801D01*
X28750500Y19608234D01*
X28750500Y20241766D01*
X28747646Y20272199D01*
X28702793Y20400382D01*
X28679428Y20432040D01*
X28663589Y20453502D01*
X28622150Y20509650D01*
X28512882Y20590293D01*
X28512881Y20590293D01*
X28384701Y20635146D01*
X28384696Y20635147D01*
X28364699Y20637022D01*
X28354266Y20638000D01*
X28354262Y20638000D01*
X28238000Y20638000D01*
X28193806Y20656306D01*
X28175500Y20700500D01*
X28175500Y20849500D01*
X28193806Y20893694D01*
X28238000Y20912000D01*
X28354262Y20912000D01*
X28354266Y20912000D01*
X28384699Y20914854D01*
X28512882Y20959707D01*
X28622150Y21040350D01*
X28673554Y21110000D01*
X29644417Y21110000D01*
X29664699Y20904070D01*
X29664700Y20904065D01*
X29724766Y20706051D01*
X29724768Y20706046D01*
X29822311Y20523556D01*
X29822319Y20523545D01*
X29923395Y20400382D01*
X29953590Y20363590D01*
X30113550Y20232315D01*
X30113553Y20232314D01*
X30113555Y20232312D01*
X30188912Y20192033D01*
X30296046Y20134768D01*
X30494066Y20074700D01*
X30648516Y20059488D01*
X30699999Y20054417D01*
X30699999Y20054418D01*
X30700000Y20054417D01*
X30905934Y20074700D01*
X31103954Y20134768D01*
X31286450Y20232315D01*
X31446410Y20363590D01*
X31577685Y20523550D01*
X31675232Y20706046D01*
X31735300Y20904066D01*
X31755583Y21110000D01*
X31735300Y21315934D01*
X31675232Y21513954D01*
X31601016Y21652801D01*
X31577688Y21696445D01*
X31577686Y21696447D01*
X31577685Y21696450D01*
X31446410Y21856410D01*
X31443579Y21858733D01*
X31286455Y21987681D01*
X31286453Y21987682D01*
X31286450Y21987685D01*
X31286448Y21987687D01*
X31286444Y21987689D01*
X31103954Y22085232D01*
X31103949Y22085234D01*
X30905935Y22145300D01*
X30905930Y22145301D01*
X30700000Y22165583D01*
X30494069Y22145301D01*
X30494064Y22145300D01*
X30296050Y22085234D01*
X30296045Y22085232D01*
X30113555Y21987689D01*
X30113544Y21987681D01*
X29953591Y21856412D01*
X29953588Y21856409D01*
X29822319Y21696456D01*
X29822311Y21696445D01*
X29724768Y21513955D01*
X29724766Y21513950D01*
X29664700Y21315936D01*
X29664699Y21315931D01*
X29644417Y21110001D01*
X29644417Y21110000D01*
X28673554Y21110000D01*
X28702793Y21149618D01*
X28747646Y21277801D01*
X28750500Y21308234D01*
X28750500Y21941766D01*
X28747646Y21972199D01*
X28746699Y21974904D01*
X28740948Y21991342D01*
X28702793Y22100382D01*
X28692822Y22113892D01*
X28669509Y22145480D01*
X28622150Y22209650D01*
X28512882Y22290293D01*
X28512881Y22290293D01*
X28384701Y22335146D01*
X28384696Y22335147D01*
X28364699Y22337022D01*
X28354266Y22338000D01*
X27345734Y22338000D01*
X27336124Y22337099D01*
X27315303Y22335147D01*
X27315298Y22335146D01*
X27187117Y22290293D01*
X27187116Y22290293D01*
X27077850Y22209650D01*
X26997207Y22100384D01*
X26997207Y22100383D01*
X26952354Y21972202D01*
X26952353Y21972197D01*
X26949500Y21941763D01*
X26949500Y21308238D01*
X26952353Y21277804D01*
X26952354Y21277799D01*
X26997207Y21149618D01*
X26997207Y21149617D01*
X27033827Y21099999D01*
X27077850Y21040350D01*
X27187118Y20959707D01*
X27315301Y20914854D01*
X27345734Y20912000D01*
X27462000Y20912000D01*
X27506194Y20893694D01*
X27524500Y20849500D01*
X27524500Y20700500D01*
X27506194Y20656306D01*
X27462000Y20638000D01*
X27345734Y20638000D01*
X27336124Y20637099D01*
X27315303Y20635147D01*
X27315298Y20635146D01*
X27187117Y20590293D01*
X27187116Y20590293D01*
X27077850Y20509650D01*
X26997207Y20400384D01*
X26997207Y20400383D01*
X26952354Y20272202D01*
X26952353Y20272197D01*
X26949500Y20241763D01*
X26949500Y19635714D01*
X26931194Y19591520D01*
X26008480Y18668806D01*
X25964286Y18650500D01*
X24743000Y18650500D01*
X24698806Y18668806D01*
X24680500Y18713000D01*
X24680500Y19399706D01*
X24680213Y19407385D01*
X24679227Y19420534D01*
X24678904Y19424359D01*
X24678904Y19424363D01*
X24650318Y19511237D01*
X24625630Y19552209D01*
X24603606Y19577801D01*
X24580726Y19604388D01*
X24580725Y19604389D01*
X24580724Y19604390D01*
X24499082Y19645606D01*
X24497949Y19645887D01*
X24497569Y19646167D01*
X24495791Y19646827D01*
X24495981Y19647340D01*
X24459464Y19674297D01*
X24450500Y19706548D01*
X24450500Y19875000D01*
X24950001Y19875000D01*
X24950001Y19645792D01*
X24952850Y19615396D01*
X24997654Y19487354D01*
X24997654Y19487353D01*
X25078208Y19378209D01*
X25187353Y19297655D01*
X25315392Y19252852D01*
X25315396Y19252851D01*
X25345784Y19250002D01*
X25345799Y19250001D01*
X25349999Y19250002D01*
X25350000Y19250002D01*
X25350000Y19875000D01*
X25950000Y19875000D01*
X25950000Y19250001D01*
X25954208Y19250001D01*
X25984604Y19252851D01*
X26112646Y19297655D01*
X26112647Y19297655D01*
X26221791Y19378209D01*
X26302345Y19487353D01*
X26302345Y19487354D01*
X26347148Y19615393D01*
X26347149Y19615398D01*
X26350000Y19645801D01*
X26350000Y19875000D01*
X25950000Y19875000D01*
X25350000Y19875000D01*
X24950001Y19875000D01*
X24450500Y19875000D01*
X24450500Y20475000D01*
X24950000Y20475000D01*
X25350000Y20475000D01*
X25350000Y21100000D01*
X25950000Y21100000D01*
X25950000Y20475000D01*
X26349999Y20475000D01*
X26349999Y20704209D01*
X26347149Y20734605D01*
X26302345Y20862647D01*
X26302345Y20862648D01*
X26221791Y20971792D01*
X26112646Y21052346D01*
X25984607Y21097149D01*
X25984602Y21097150D01*
X25954199Y21100000D01*
X25950000Y21100000D01*
X25350000Y21100000D01*
X25349999Y21100001D01*
X25345804Y21100000D01*
X25345796Y21099999D01*
X25315395Y21097150D01*
X25187353Y21052346D01*
X25187352Y21052346D01*
X25078208Y20971792D01*
X24997654Y20862648D01*
X24997654Y20862647D01*
X24952851Y20734608D01*
X24952850Y20734603D01*
X24950000Y20704200D01*
X24950000Y20475000D01*
X24450500Y20475000D01*
X24450500Y20704263D01*
X24450332Y20706051D01*
X24447646Y20734699D01*
X24402793Y20862882D01*
X24392004Y20877500D01*
X24331333Y20959707D01*
X24322150Y20972150D01*
X24322149Y20972151D01*
X24280886Y21002605D01*
X24256198Y21043578D01*
X24255500Y21052892D01*
X24255500Y21060259D01*
X24240105Y21138294D01*
X24240104Y21138300D01*
X23944346Y21858733D01*
X23942310Y21863365D01*
X23938855Y21870728D01*
X23936595Y21875250D01*
X23844511Y22048733D01*
X23844512Y22048733D01*
X23841567Y22053676D01*
X23839324Y22057441D01*
X23826928Y22076100D01*
X23820922Y22084240D01*
X23697292Y22235612D01*
X23668790Y22264234D01*
X23582706Y22335146D01*
X23544482Y22366633D01*
X23528964Y22385666D01*
X23527795Y22387877D01*
X23527794Y22387878D01*
X23527793Y22387882D01*
X23447150Y22497150D01*
X23370354Y22553828D01*
X23359670Y22561713D01*
X23334982Y22602685D01*
X23346497Y22649114D01*
X23387469Y22673802D01*
X23396784Y22674500D01*
X23867864Y22674500D01*
X23912058Y22656194D01*
X23929829Y22620158D01*
X23939954Y22543245D01*
X23939957Y22543235D01*
X24000462Y22397162D01*
X24000464Y22397159D01*
X24096717Y22271718D01*
X24222158Y22175465D01*
X24222161Y22175463D01*
X24237301Y22169192D01*
X24368238Y22114956D01*
X24368244Y22114956D01*
X24368245Y22114955D01*
X24419645Y22108189D01*
X24495157Y22098247D01*
X24536584Y22074330D01*
X24549500Y22036282D01*
X24549500Y21683238D01*
X24552353Y21652804D01*
X24552354Y21652799D01*
X24597207Y21524618D01*
X24597207Y21524617D01*
X24619019Y21495063D01*
X24677850Y21415350D01*
X24787118Y21334707D01*
X24915301Y21289854D01*
X24945734Y21287000D01*
X24945738Y21287000D01*
X25954262Y21287000D01*
X25954266Y21287000D01*
X25984699Y21289854D01*
X26112882Y21334707D01*
X26222150Y21415350D01*
X26302793Y21524618D01*
X26347646Y21652801D01*
X26350500Y21683234D01*
X26350500Y22316766D01*
X26347646Y22347199D01*
X26346643Y22350064D01*
X26333410Y22387882D01*
X26302793Y22475382D01*
X26297203Y22482956D01*
X26252708Y22543245D01*
X26222150Y22584650D01*
X26112882Y22665293D01*
X26086570Y22674500D01*
X25984701Y22710146D01*
X25984696Y22710147D01*
X25964699Y22712022D01*
X25954266Y22713000D01*
X25954262Y22713000D01*
X25223214Y22713000D01*
X25179020Y22731306D01*
X25133607Y22776720D01*
X25115838Y22812755D01*
X25110045Y22856755D01*
X25110044Y22856756D01*
X25110044Y22856762D01*
X25049536Y23002841D01*
X25042543Y23011954D01*
X25030163Y23058158D01*
X25054080Y23099585D01*
X25092128Y23112501D01*
X25150000Y23112501D01*
X25150000Y23525000D01*
X25750000Y23525000D01*
X25750000Y23112501D01*
X25954208Y23112501D01*
X25984604Y23115351D01*
X26035710Y23133234D01*
X26949500Y23133234D01*
X26949971Y23128209D01*
X26952353Y23102804D01*
X26952354Y23102799D01*
X26997207Y22974618D01*
X26997207Y22974617D01*
X27010061Y22957201D01*
X27077850Y22865350D01*
X27187118Y22784707D01*
X27315301Y22739854D01*
X27345734Y22737000D01*
X27345738Y22737000D01*
X28354262Y22737000D01*
X28354266Y22737000D01*
X28384699Y22739854D01*
X28512882Y22784707D01*
X28622150Y22865350D01*
X28702793Y22974618D01*
X28747646Y23102801D01*
X28750500Y23133234D01*
X28750500Y23262001D01*
X28768806Y23306194D01*
X28813000Y23324500D01*
X29587000Y23324500D01*
X29631194Y23306194D01*
X29649500Y23262000D01*
X29649500Y22780252D01*
X29661132Y22721770D01*
X29661133Y22721768D01*
X29705447Y22655448D01*
X29771767Y22611134D01*
X29771769Y22611133D01*
X29830252Y22599500D01*
X31569748Y22599500D01*
X31628231Y22611133D01*
X31694552Y22655448D01*
X31738867Y22721769D01*
X31750500Y22780252D01*
X31750500Y24519748D01*
X31750022Y24522149D01*
X31738867Y24578231D01*
X31738866Y24578233D01*
X31694552Y24644553D01*
X31628232Y24688867D01*
X31628230Y24688868D01*
X31569748Y24700500D01*
X29830252Y24700500D01*
X29771769Y24688868D01*
X29771767Y24688867D01*
X29705447Y24644553D01*
X29661133Y24578233D01*
X29661132Y24578231D01*
X29649500Y24519749D01*
X29649500Y24038000D01*
X29631194Y23993806D01*
X29587000Y23975500D01*
X28697356Y23975500D01*
X28653162Y23993806D01*
X28647069Y24000886D01*
X28623013Y24033480D01*
X28622150Y24034650D01*
X28512882Y24115293D01*
X28485138Y24125001D01*
X28384701Y24160146D01*
X28384696Y24160147D01*
X28364699Y24162022D01*
X28354266Y24163000D01*
X27345734Y24163000D01*
X27336124Y24162099D01*
X27315303Y24160147D01*
X27315298Y24160146D01*
X27187117Y24115293D01*
X27187116Y24115293D01*
X27077850Y24034650D01*
X26997207Y23925384D01*
X26997207Y23925383D01*
X26952354Y23797202D01*
X26952353Y23797197D01*
X26950233Y23774592D01*
X26949500Y23766766D01*
X26949500Y23133234D01*
X26035710Y23133234D01*
X26112646Y23160155D01*
X26112647Y23160155D01*
X26221791Y23240709D01*
X26302345Y23349853D01*
X26302345Y23349854D01*
X26347148Y23477893D01*
X26347149Y23477898D01*
X26350000Y23508301D01*
X26350000Y23525000D01*
X25750000Y23525000D01*
X25150000Y23525000D01*
X24550001Y23525000D01*
X24550001Y23508292D01*
X24552850Y23477896D01*
X24584018Y23388824D01*
X24581335Y23341064D01*
X24545667Y23309189D01*
X24529041Y23306365D01*
X24529061Y23306217D01*
X24525121Y23305699D01*
X24525025Y23305682D01*
X24524997Y23305682D01*
X24406784Y23290120D01*
X24370459Y23299007D01*
X24369637Y23297244D01*
X24364680Y23299556D01*
X24358582Y23301190D01*
X24343516Y23307430D01*
X24338045Y23310588D01*
X24338042Y23310589D01*
X24314449Y23314749D01*
X24296859Y23317851D01*
X24294205Y23318440D01*
X24253808Y23329265D01*
X24218505Y23326176D01*
X24212144Y23325619D01*
X24209423Y23325500D01*
X23602536Y23325500D01*
X23558342Y23343806D01*
X23540036Y23388000D01*
X23543543Y23408642D01*
X23572148Y23490393D01*
X23572149Y23490398D01*
X23575000Y23520801D01*
X23575000Y23525000D01*
X21725000Y23525000D01*
X21713566Y23513566D01*
X21669372Y23495261D01*
X21633524Y23506566D01*
X21630684Y23508554D01*
X21630683Y23508555D01*
X21630682Y23508555D01*
X21630680Y23508556D01*
X21624582Y23510190D01*
X21609516Y23516430D01*
X21604045Y23519588D01*
X21604042Y23519589D01*
X21573354Y23525000D01*
X21562859Y23526851D01*
X21560205Y23527440D01*
X21519808Y23538265D01*
X21484505Y23535176D01*
X21478144Y23534619D01*
X21475423Y23534500D01*
X21243412Y23534500D01*
X21199218Y23552806D01*
X21191446Y23562276D01*
X21172553Y23590551D01*
X21172549Y23590555D01*
X21106232Y23634867D01*
X21106230Y23634868D01*
X21047748Y23646500D01*
X20708252Y23646500D01*
X20649769Y23634867D01*
X20649768Y23634867D01*
X20643732Y23633666D01*
X20643371Y23635477D01*
X20612527Y23635479D01*
X20612073Y23633195D01*
X20547698Y23646000D01*
X20528000Y23646000D01*
X20528000Y23472360D01*
X20527849Y23469294D01*
X20527500Y23465749D01*
X20527500Y22756244D01*
X20527849Y22752694D01*
X20527999Y22749635D01*
X20527999Y22576001D01*
X20528000Y22576000D01*
X20547698Y22576000D01*
X20547698Y22576001D01*
X20612074Y22588805D01*
X20612529Y22586516D01*
X20643370Y22586524D01*
X20643731Y22588334D01*
X20649768Y22587134D01*
X20649769Y22587133D01*
X20708252Y22575500D01*
X21047748Y22575500D01*
X21106231Y22587133D01*
X21172552Y22631448D01*
X21216867Y22697769D01*
X21228500Y22756252D01*
X21228500Y22821000D01*
X21246806Y22865194D01*
X21291000Y22883500D01*
X21330286Y22883500D01*
X21374480Y22865194D01*
X21458829Y22780845D01*
X21460661Y22778845D01*
X21487544Y22746807D01*
X21487546Y22746805D01*
X21523768Y22725892D01*
X21526052Y22724438D01*
X21556306Y22703254D01*
X21560316Y22700446D01*
X21566411Y22698813D01*
X21581486Y22692570D01*
X21586955Y22689412D01*
X21586958Y22689412D01*
X21586959Y22689411D01*
X21628136Y22682151D01*
X21630793Y22681562D01*
X21671193Y22670736D01*
X21712859Y22674382D01*
X21715581Y22674500D01*
X21903216Y22674500D01*
X21947410Y22656194D01*
X21965716Y22612000D01*
X21947410Y22567806D01*
X21940330Y22561713D01*
X21852849Y22497150D01*
X21822210Y22455635D01*
X21781238Y22430947D01*
X21778340Y22430579D01*
X21735607Y22426169D01*
X21652480Y22388035D01*
X21652477Y22388033D01*
X21614558Y22358936D01*
X21614560Y22358937D01*
X21606096Y22351515D01*
X21604446Y22350067D01*
X21526098Y22271718D01*
X21478186Y22223806D01*
X21433992Y22205500D01*
X21276950Y22205500D01*
X21275038Y22205492D01*
X21275029Y22205491D01*
X21186067Y22184309D01*
X21186062Y22184307D01*
X21155432Y22169203D01*
X21155412Y22169192D01*
X21149417Y22165146D01*
X21102544Y22155601D01*
X21102266Y22155656D01*
X21047748Y22166500D01*
X20708252Y22166500D01*
X20649769Y22154867D01*
X20649768Y22154867D01*
X20643732Y22153666D01*
X20643317Y22155752D01*
X20612683Y22155752D01*
X20612268Y22153666D01*
X20606231Y22154867D01*
X20547748Y22166500D01*
X20208252Y22166500D01*
X20149769Y22154867D01*
X20149768Y22154867D01*
X20143732Y22153666D01*
X20143317Y22155752D01*
X20112683Y22155752D01*
X20112268Y22153666D01*
X20106231Y22154867D01*
X20047748Y22166500D01*
X19708252Y22166500D01*
X19649769Y22154867D01*
X19649768Y22154867D01*
X19643732Y22153666D01*
X19643317Y22155752D01*
X19612683Y22155752D01*
X19612268Y22153666D01*
X19606231Y22154867D01*
X19547748Y22166500D01*
X19396536Y22166500D01*
X19352342Y22184806D01*
X19335878Y22213939D01*
X19330498Y22235607D01*
X19330196Y22236821D01*
X19330048Y22237582D01*
X19329816Y22238357D01*
X19286714Y22329977D01*
X19267791Y22347199D01*
X19211831Y22398128D01*
X19171682Y22422305D01*
X19137120Y22439747D01*
X19137119Y22439748D01*
X19137116Y22439749D01*
X19037814Y22459500D01*
X18954761Y22459500D01*
X18910567Y22477806D01*
X18905957Y22482956D01*
X18824601Y22584650D01*
X18752134Y22675234D01*
X18745829Y22682541D01*
X18736505Y22692568D01*
X18732920Y22696424D01*
X18726076Y22703254D01*
X18624000Y22797809D01*
X18623999Y22797810D01*
X18593814Y22821859D01*
X18578495Y22832301D01*
X18545066Y22851613D01*
X18545067Y22851613D01*
X18439557Y22902500D01*
X18428332Y22907914D01*
X18428327Y22907916D01*
X18392398Y22922055D01*
X18374695Y22927540D01*
X18374696Y22927539D01*
X18374693Y22927540D01*
X18357788Y22931428D01*
X18337094Y22936186D01*
X18337089Y22936187D01*
X18337088Y22936187D01*
X18309788Y22940358D01*
X18268866Y22965129D01*
X18257445Y23011581D01*
X18282114Y23052428D01*
X18384792Y23128209D01*
X18465345Y23237353D01*
X18465345Y23237354D01*
X18510148Y23365393D01*
X18510149Y23365398D01*
X18513000Y23395801D01*
X18513000Y23400000D01*
X16663001Y23400000D01*
X16663001Y23395792D01*
X16665850Y23365396D01*
X16710654Y23237354D01*
X16710654Y23237353D01*
X16791208Y23128209D01*
X16861166Y23076576D01*
X16885854Y23035604D01*
X16874339Y22989175D01*
X16833367Y22964487D01*
X16823882Y22963789D01*
X16651286Y22964259D01*
X16651253Y22964260D01*
X16638689Y22964295D01*
X16619486Y22964347D01*
X16598119Y22968175D01*
X15368783Y23419473D01*
X15355293Y23423761D01*
X15266113Y23447854D01*
X15262042Y23448764D01*
X15254976Y23450344D01*
X15232940Y23454261D01*
X15221622Y23455763D01*
X15129573Y23463881D01*
X15115428Y23464500D01*
X15115427Y23464500D01*
X14838000Y23464500D01*
X14793806Y23482806D01*
X14775500Y23527000D01*
X14775500Y23989286D01*
X14779938Y24000000D01*
X16663000Y24000000D01*
X17287999Y24000000D01*
X17287999Y24000001D01*
X17887999Y24000001D01*
X17888000Y24000000D01*
X18512999Y24000000D01*
X18512999Y24004209D01*
X18510149Y24034605D01*
X18465345Y24162647D01*
X18465345Y24162648D01*
X18384791Y24271792D01*
X18275646Y24352346D01*
X18147607Y24397149D01*
X18147602Y24397150D01*
X18117199Y24400000D01*
X17888000Y24400000D01*
X17887999Y24000001D01*
X17287999Y24000001D01*
X17288000Y24400000D01*
X17058791Y24400000D01*
X17028395Y24397150D01*
X16900353Y24352346D01*
X16900352Y24352346D01*
X16791208Y24271792D01*
X16710654Y24162648D01*
X16710654Y24162647D01*
X16665851Y24034608D01*
X16665850Y24034603D01*
X16663000Y24004200D01*
X16663000Y24000000D01*
X14779938Y24000000D01*
X14793806Y24033480D01*
X16141521Y25381194D01*
X16185715Y25399500D01*
X16716762Y25399500D01*
X16716766Y25399500D01*
X16747199Y25402354D01*
X16875382Y25447207D01*
X16984650Y25527850D01*
X17065293Y25637118D01*
X17110146Y25765301D01*
X17113000Y25795734D01*
X17113000Y25912000D01*
X17131306Y25956194D01*
X17175500Y25974500D01*
X17299500Y25974500D01*
X17343694Y25956194D01*
X17362000Y25912000D01*
X17362000Y25795738D01*
X17364853Y25765304D01*
X17364854Y25765299D01*
X17409707Y25637118D01*
X17409707Y25637117D01*
X17412999Y25632657D01*
X17490350Y25527850D01*
X17599618Y25447207D01*
X17727801Y25402354D01*
X17758234Y25399500D01*
X17758238Y25399500D01*
X18391762Y25399500D01*
X18391766Y25399500D01*
X18422199Y25402354D01*
X18550382Y25447207D01*
X18637386Y25511420D01*
X18683815Y25522934D01*
X18724787Y25498246D01*
X18737000Y25461132D01*
X18737000Y25253078D01*
X18736881Y25250353D01*
X18733236Y25208693D01*
X18733235Y25208692D01*
X18744060Y25168295D01*
X18744651Y25165633D01*
X18751911Y25124458D01*
X18751912Y25124455D01*
X18755070Y25118984D01*
X18761310Y25103918D01*
X18762944Y25097820D01*
X18762946Y25097816D01*
X18786927Y25063567D01*
X18788392Y25061267D01*
X18799944Y25041260D01*
X18809306Y25025045D01*
X18841345Y24998161D01*
X18843344Y24996330D01*
X19034193Y24805481D01*
X19034194Y24805480D01*
X19052500Y24761286D01*
X19052500Y23563196D01*
X19041967Y23528473D01*
X19039133Y23524233D01*
X19039132Y23524231D01*
X19027500Y23465749D01*
X19027500Y22756252D01*
X19039132Y22697770D01*
X19039133Y22697768D01*
X19083447Y22631448D01*
X19149767Y22587134D01*
X19149769Y22587133D01*
X19208252Y22575500D01*
X19547748Y22575500D01*
X19606231Y22587133D01*
X19606231Y22587134D01*
X19612269Y22588334D01*
X19612685Y22586242D01*
X19643316Y22586246D01*
X19643732Y22588334D01*
X19649768Y22587134D01*
X19649769Y22587133D01*
X19708252Y22575500D01*
X20047748Y22575500D01*
X20106231Y22587133D01*
X20106231Y22587134D01*
X20112269Y22588334D01*
X20112630Y22586518D01*
X20143471Y22586522D01*
X20143926Y22588805D01*
X20208301Y22576001D01*
X20208302Y22576000D01*
X20227999Y22576000D01*
X20227999Y22749641D01*
X20228150Y22752712D01*
X20228498Y22756246D01*
X20228500Y22756252D01*
X20228500Y23465748D01*
X20228500Y23465749D01*
X20228151Y23469294D01*
X20228000Y23472360D01*
X20228000Y23646000D01*
X20221806Y23652194D01*
X20203500Y23696388D01*
X20203500Y24125000D01*
X21725000Y24125000D01*
X22349999Y24125000D01*
X22349999Y24125001D01*
X22949999Y24125001D01*
X22950000Y24125000D01*
X23574999Y24125000D01*
X24550000Y24125000D01*
X25150000Y24125000D01*
X25150000Y24537500D01*
X25750000Y24537500D01*
X25750000Y24125000D01*
X26349999Y24125000D01*
X26349999Y24141709D01*
X26347149Y24172105D01*
X26302345Y24300147D01*
X26302345Y24300148D01*
X26221791Y24409292D01*
X26112646Y24489846D01*
X25984607Y24534649D01*
X25984602Y24534650D01*
X25954199Y24537500D01*
X25750000Y24537500D01*
X25150000Y24537500D01*
X24945791Y24537500D01*
X24915395Y24534650D01*
X24787353Y24489846D01*
X24787352Y24489846D01*
X24678208Y24409292D01*
X24597654Y24300148D01*
X24597654Y24300147D01*
X24552851Y24172108D01*
X24552850Y24172103D01*
X24550000Y24141700D01*
X24550000Y24125000D01*
X23574999Y24125000D01*
X23574999Y24129209D01*
X23572149Y24159605D01*
X23527345Y24287647D01*
X23527345Y24287648D01*
X23446791Y24396792D01*
X23337646Y24477346D01*
X23209607Y24522149D01*
X23209602Y24522150D01*
X23179199Y24525000D01*
X22950000Y24525000D01*
X22949999Y24125001D01*
X22349999Y24125001D01*
X22350000Y24525000D01*
X22120791Y24525000D01*
X22090395Y24522150D01*
X21962353Y24477346D01*
X21962352Y24477346D01*
X21853208Y24396792D01*
X21772654Y24287648D01*
X21772654Y24287647D01*
X21727851Y24159608D01*
X21727850Y24159603D01*
X21725000Y24129200D01*
X21725000Y24125000D01*
X20203500Y24125000D01*
X20203500Y25342717D01*
X20221806Y25386911D01*
X20245358Y25401710D01*
X20247198Y25402354D01*
X20247199Y25402354D01*
X20375382Y25447207D01*
X20484650Y25527850D01*
X20565293Y25637118D01*
X20610146Y25765301D01*
X20613000Y25795734D01*
X20613000Y26804266D01*
X20610146Y26834699D01*
X20565293Y26962882D01*
X20484650Y27072150D01*
X20375382Y27152793D01*
X20371613Y27155575D01*
X20372679Y27157021D01*
X20346287Y27188876D01*
X20350753Y27236503D01*
X20361813Y27251489D01*
X21110324Y28000000D01*
X23994659Y28000000D01*
X24013975Y27803870D01*
X24024161Y27770292D01*
X24071186Y27615273D01*
X24071187Y27615272D01*
X24164086Y27441468D01*
X24164090Y27441462D01*
X24289117Y27289117D01*
X24441462Y27164090D01*
X24441464Y27164089D01*
X24441467Y27164087D01*
X24443052Y27163240D01*
X24615273Y27071186D01*
X24803868Y27013976D01*
X24901933Y27004318D01*
X24999999Y26994659D01*
X24999999Y26994660D01*
X25000000Y26994659D01*
X25196132Y27013976D01*
X25384727Y27071186D01*
X25558538Y27164090D01*
X25710883Y27289117D01*
X25835910Y27441462D01*
X25928814Y27615273D01*
X25986024Y27803868D01*
X26005341Y28000000D01*
X25986024Y28196132D01*
X25928814Y28384727D01*
X25835910Y28558538D01*
X25710883Y28710883D01*
X25558538Y28835910D01*
X25558532Y28835914D01*
X25449018Y28894450D01*
X25384727Y28928814D01*
X25264184Y28965381D01*
X25196130Y28986025D01*
X25000000Y29005341D01*
X24803869Y28986025D01*
X24683325Y28949458D01*
X24615273Y28928814D01*
X24615271Y28928814D01*
X24615271Y28928813D01*
X24441467Y28835914D01*
X24441461Y28835910D01*
X24289117Y28710883D01*
X24164090Y28558539D01*
X24164086Y28558533D01*
X24080041Y28401293D01*
X24071186Y28384727D01*
X24066962Y28370803D01*
X24013975Y28196131D01*
X23994659Y28000001D01*
X23994659Y28000000D01*
X21110324Y28000000D01*
X21209165Y28098841D01*
X21211144Y28100654D01*
X21243194Y28127545D01*
X21264108Y28163771D01*
X21265559Y28166050D01*
X21289554Y28200316D01*
X21291188Y28206416D01*
X21297432Y28221492D01*
X21300588Y28226955D01*
X21307851Y28268152D01*
X21308433Y28270778D01*
X21319264Y28311193D01*
X21317214Y28334619D01*
X21331597Y28380238D01*
X21361332Y28399873D01*
X21393954Y28409768D01*
X21576450Y28507315D01*
X21736410Y28638590D01*
X21867685Y28798550D01*
X21965232Y28981046D01*
X22025300Y29179066D01*
X22045583Y29385000D01*
X22025300Y29590934D01*
X21965232Y29788954D01*
X21867685Y29971450D01*
X21736410Y30131410D01*
X21576450Y30262685D01*
X21576448Y30262687D01*
X21576444Y30262689D01*
X21393954Y30360232D01*
X21393949Y30360234D01*
X21195935Y30420300D01*
X21195930Y30420301D01*
X20990000Y30440583D01*
X20784069Y30420301D01*
X20784064Y30420300D01*
X20586050Y30360234D01*
X20586045Y30360232D01*
X20403555Y30262689D01*
X20403544Y30262681D01*
X20243591Y30131412D01*
X20243588Y30131409D01*
X20112319Y29971456D01*
X20112311Y29971445D01*
X20014768Y29788955D01*
X20014766Y29788950D01*
X19954700Y29590936D01*
X19954699Y29590931D01*
X19934417Y29385001D01*
X19934417Y29385000D01*
X19954699Y29179070D01*
X19954700Y29179065D01*
X20014766Y28981051D01*
X20014768Y28981046D01*
X20112311Y28798556D01*
X20112313Y28798552D01*
X20112315Y28798550D01*
X20243590Y28638590D01*
X20403550Y28507315D01*
X20403553Y28507314D01*
X20403555Y28507312D01*
X20520454Y28444828D01*
X20550801Y28407851D01*
X20546112Y28360246D01*
X20535186Y28345514D01*
X19680853Y27491181D01*
X19678843Y27489339D01*
X19646807Y27462457D01*
X19646806Y27462455D01*
X19625896Y27426242D01*
X19624432Y27423944D01*
X19600446Y27389686D01*
X19598811Y27383583D01*
X19592571Y27368517D01*
X19589411Y27363043D01*
X19582151Y27321877D01*
X19581562Y27319216D01*
X19570735Y27278807D01*
X19572858Y27254541D01*
X19558473Y27208920D01*
X19531239Y27190102D01*
X19454473Y27163240D01*
X19406713Y27165922D01*
X19374837Y27201590D01*
X19374468Y27203001D01*
X19373088Y27206790D01*
X19373088Y27206795D01*
X19369930Y27212264D01*
X19363687Y27227339D01*
X19362054Y27233434D01*
X19359905Y27236503D01*
X19338062Y27267698D01*
X19336607Y27269982D01*
X19325559Y27289117D01*
X19315694Y27306205D01*
X19283653Y27333091D01*
X19281642Y27334934D01*
X19154119Y27462457D01*
X18997418Y27619158D01*
X18995587Y27621157D01*
X18968705Y27653194D01*
X18932483Y27674108D01*
X18930183Y27675573D01*
X18895934Y27699554D01*
X18895930Y27699556D01*
X18889832Y27701190D01*
X18874766Y27707430D01*
X18869292Y27710590D01*
X18866614Y27711565D01*
X18864932Y27713107D01*
X18864564Y27713319D01*
X18864611Y27713401D01*
X18831352Y27743887D01*
X18825500Y27770292D01*
X18825500Y28357099D01*
X18843806Y28401293D01*
X18858534Y28412217D01*
X19036450Y28507315D01*
X19196410Y28638590D01*
X19327685Y28798550D01*
X19425232Y28981046D01*
X19485300Y29179066D01*
X19505583Y29385000D01*
X19485300Y29590934D01*
X19425232Y29788954D01*
X19327685Y29971450D01*
X19196410Y30131410D01*
X19036450Y30262685D01*
X19036448Y30262687D01*
X19036444Y30262689D01*
X18853954Y30360232D01*
X18853949Y30360234D01*
X18655935Y30420300D01*
X18655930Y30420301D01*
X18450000Y30440583D01*
X18244069Y30420301D01*
X18244064Y30420300D01*
X18046050Y30360234D01*
X18046045Y30360232D01*
X17863555Y30262689D01*
X17863544Y30262681D01*
X17703591Y30131412D01*
X17703588Y30131409D01*
X17572319Y29971456D01*
X17572311Y29971445D01*
X17474768Y29788955D01*
X17474766Y29788950D01*
X17414700Y29590936D01*
X17414699Y29590931D01*
X17394417Y29385001D01*
X17394417Y29385000D01*
X17414699Y29179070D01*
X17414700Y29179065D01*
X17474766Y28981051D01*
X17474768Y28981046D01*
X17572311Y28798556D01*
X17572313Y28798552D01*
X17572315Y28798550D01*
X17703590Y28638590D01*
X17863550Y28507315D01*
X17863553Y28507314D01*
X17863555Y28507312D01*
X17904328Y28485519D01*
X18046046Y28409768D01*
X18130143Y28384259D01*
X18167120Y28353913D01*
X18174500Y28324450D01*
X18174500Y27788000D01*
X18156194Y27743806D01*
X18112000Y27725500D01*
X15690577Y27725500D01*
X15687855Y27725619D01*
X15681494Y27726176D01*
X15646192Y27729265D01*
X15605784Y27718438D01*
X15603123Y27717849D01*
X15561957Y27710589D01*
X15556483Y27707429D01*
X15541417Y27701189D01*
X15535314Y27699554D01*
X15501056Y27675568D01*
X15498758Y27674104D01*
X15462545Y27653195D01*
X15435659Y27621155D01*
X15433817Y27619145D01*
X15016728Y27202056D01*
X14972534Y27183750D01*
X14951893Y27187257D01*
X14922204Y27197645D01*
X14922196Y27197647D01*
X14900499Y27199681D01*
X14891766Y27200500D01*
X14258234Y27200500D01*
X14249501Y27199681D01*
X14227803Y27197647D01*
X14227798Y27197646D01*
X14099617Y27152793D01*
X14099616Y27152793D01*
X13990350Y27072150D01*
X13909707Y26962884D01*
X13909707Y26962883D01*
X13864854Y26834702D01*
X13864853Y26834697D01*
X13862000Y26804263D01*
X13862000Y25795738D01*
X13864853Y25765304D01*
X13864854Y25765299D01*
X13909707Y25637118D01*
X13909707Y25637117D01*
X13912999Y25632657D01*
X13990350Y25527850D01*
X14099618Y25447207D01*
X14227801Y25402354D01*
X14258234Y25399500D01*
X14258238Y25399500D01*
X14891762Y25399500D01*
X14891766Y25399500D01*
X14922199Y25402354D01*
X15050382Y25447207D01*
X15159650Y25527850D01*
X15240293Y25637118D01*
X15285146Y25765301D01*
X15288000Y25795734D01*
X15288000Y26526788D01*
X15306305Y26570980D01*
X15580306Y26844981D01*
X15624500Y26863286D01*
X15668694Y26844980D01*
X15687000Y26800786D01*
X15687000Y25873215D01*
X15668694Y25829021D01*
X14230853Y24391181D01*
X14228843Y24389339D01*
X14196807Y24362457D01*
X14196806Y24362455D01*
X14175896Y24326242D01*
X14174432Y24323944D01*
X14150446Y24289686D01*
X14148811Y24283583D01*
X14142571Y24268517D01*
X14139411Y24263043D01*
X14132151Y24221877D01*
X14131562Y24219216D01*
X14120735Y24178808D01*
X14124381Y24137148D01*
X14124500Y24134423D01*
X14124500Y23527000D01*
X14106194Y23482806D01*
X14062000Y23464500D01*
X12890692Y23464500D01*
X12880997Y23464137D01*
X12861998Y23462714D01*
X12852344Y23461626D01*
X12803493Y23454261D01*
X12714074Y23440780D01*
X12676233Y23432140D01*
X12676226Y23432139D01*
X12676222Y23432137D01*
X12676223Y23432137D01*
X12658425Y23426644D01*
X12648458Y23422731D01*
X12622335Y23412474D01*
X12622329Y23412472D01*
X12622326Y23412470D01*
X12596440Y23400000D01*
X12505006Y23355955D01*
X12494425Y23349844D01*
X12471418Y23336557D01*
X12471417Y23336557D01*
X12456017Y23326055D01*
X12456018Y23326055D01*
X12436631Y23310589D01*
X12425690Y23301861D01*
X12323204Y23206732D01*
X12316341Y23199868D01*
X12303392Y23185906D01*
X12297059Y23178544D01*
X11912760Y22696423D01*
X11443761Y22108043D01*
X11401900Y22084895D01*
X11394888Y22084500D01*
X11002237Y22084500D01*
X10958043Y22102806D01*
X10939737Y22147000D01*
X10958043Y22191194D01*
X10972775Y22202120D01*
X11086166Y22262729D01*
X11086172Y22262733D01*
X11246054Y22393946D01*
X11377267Y22553828D01*
X11377271Y22553834D01*
X11474766Y22736237D01*
X11506244Y22840000D01*
X11015572Y22840000D01*
X10971378Y22858306D01*
X10953072Y22902500D01*
X10958720Y22928463D01*
X10959489Y22930152D01*
X10959493Y22930156D01*
X11000000Y23068111D01*
X11000000Y23211889D01*
X11000000Y23211890D01*
X11000000Y23211891D01*
X10999999Y23211892D01*
X10959493Y23349844D01*
X10959491Y23349847D01*
X10958720Y23351537D01*
X10958681Y23352609D01*
X10958234Y23354133D01*
X10958623Y23354248D01*
X10957013Y23399342D01*
X10989609Y23434352D01*
X11015572Y23440000D01*
X11506243Y23440000D01*
X11506243Y23440001D01*
X11474766Y23543764D01*
X11377271Y23726167D01*
X11377267Y23726173D01*
X11246054Y23886055D01*
X11086172Y24017268D01*
X11086166Y24017272D01*
X10903763Y24114767D01*
X10800000Y24146244D01*
X10800000Y23649920D01*
X10781694Y23605726D01*
X10737500Y23587420D01*
X10711537Y23593068D01*
X10642316Y23624680D01*
X10642313Y23624681D01*
X10535765Y23640000D01*
X10535763Y23640000D01*
X10464237Y23640000D01*
X10464235Y23640000D01*
X10357686Y23624681D01*
X10357683Y23624680D01*
X10288463Y23593068D01*
X10240658Y23591361D01*
X10205648Y23623957D01*
X10200000Y23649920D01*
X10200000Y24146244D01*
X10199999Y24146244D01*
X10096236Y24114767D01*
X9913833Y24017272D01*
X9913827Y24017268D01*
X9753945Y23886055D01*
X9622732Y23726173D01*
X9622728Y23726167D01*
X9525233Y23543764D01*
X9493756Y23440001D01*
X9493757Y23440000D01*
X9984428Y23440000D01*
X10028622Y23421694D01*
X10046928Y23377500D01*
X10041280Y23351537D01*
X10040506Y23349843D01*
X10000000Y23211892D01*
X10000000Y23068109D01*
X10040506Y22930158D01*
X10041280Y22928463D01*
X10041318Y22927392D01*
X10041766Y22925867D01*
X10041376Y22925753D01*
X10042987Y22880658D01*
X10010391Y22845648D01*
X9984428Y22840000D01*
X9493756Y22840000D01*
X9525233Y22736237D01*
X9622728Y22553834D01*
X9622732Y22553828D01*
X9753945Y22393946D01*
X9913827Y22262733D01*
X9913833Y22262729D01*
X10027225Y22202120D01*
X10057572Y22165143D01*
X10052883Y22117538D01*
X10015906Y22087191D01*
X9997763Y22084500D01*
X9030157Y22084500D01*
X8985963Y22102806D01*
X8967657Y22147000D01*
X8978190Y22181723D01*
X8998394Y22211962D01*
X8998396Y22211966D01*
X9009999Y22270302D01*
X9010000Y22270302D01*
X9010000Y22840000D01*
X8475572Y22840000D01*
X8431378Y22858306D01*
X8413072Y22902500D01*
X8418720Y22928463D01*
X8419489Y22930152D01*
X8419493Y22930156D01*
X8460000Y23068111D01*
X8460000Y23211889D01*
X8460000Y23211890D01*
X8460000Y23211891D01*
X8459999Y23211892D01*
X8419493Y23349844D01*
X8419491Y23349847D01*
X8418720Y23351537D01*
X8418681Y23352609D01*
X8418234Y23354133D01*
X8418623Y23354248D01*
X8417013Y23399342D01*
X8449609Y23434352D01*
X8475572Y23440000D01*
X9010000Y23440000D01*
X9010000Y24009698D01*
X9009999Y24009699D01*
X8998396Y24068035D01*
X8998394Y24068039D01*
X8954191Y24134192D01*
X8888038Y24178395D01*
X8888034Y24178397D01*
X8829698Y24190000D01*
X8260000Y24190000D01*
X8260000Y23649920D01*
X8241694Y23605726D01*
X8197500Y23587420D01*
X8171537Y23593068D01*
X8102316Y23624680D01*
X8102313Y23624681D01*
X7995765Y23640000D01*
X7995763Y23640000D01*
X7924237Y23640000D01*
X7924235Y23640000D01*
X7817686Y23624681D01*
X7817683Y23624680D01*
X7748463Y23593068D01*
X7700658Y23591361D01*
X7665648Y23623957D01*
X7660000Y23649920D01*
X7660000Y24190000D01*
X7090302Y24190000D01*
X7031965Y24178397D01*
X7031961Y24178395D01*
X6965808Y24134192D01*
X6921605Y24068039D01*
X6921603Y24068035D01*
X6910000Y24009699D01*
X6910000Y23440000D01*
X7444428Y23440000D01*
X7488622Y23421694D01*
X7506928Y23377500D01*
X7501280Y23351537D01*
X7500506Y23349843D01*
X7460000Y23211892D01*
X7460000Y23068109D01*
X7500506Y22930158D01*
X7501280Y22928463D01*
X7501318Y22927392D01*
X7501766Y22925867D01*
X7501376Y22925753D01*
X7502987Y22880658D01*
X7470391Y22845648D01*
X7444428Y22840000D01*
X6910000Y22840000D01*
X6910000Y22270302D01*
X6921603Y22211966D01*
X6921605Y22211962D01*
X6955785Y22160808D01*
X6965117Y22113892D01*
X6938541Y22074118D01*
X6915933Y22064771D01*
X6913845Y22064358D01*
X6902856Y22062187D01*
X6870878Y22053677D01*
X6862878Y22050981D01*
X6854880Y22048285D01*
X6854878Y22048284D01*
X6854877Y22048284D01*
X6734448Y21998760D01*
X6719291Y21991342D01*
X6690591Y21974904D01*
X6676516Y21965577D01*
X6578043Y21890682D01*
X6572857Y21886737D01*
X6572858Y21886737D01*
X6560118Y21875670D01*
X6560112Y21875664D01*
X6560111Y21875664D01*
X6536603Y21852394D01*
X6536604Y21852394D01*
X6525410Y21839771D01*
X6525403Y21839762D01*
X6525402Y21839762D01*
X6445512Y21736922D01*
X6445513Y21736923D01*
X6441727Y21731335D01*
X6436051Y21722955D01*
X6419315Y21694419D01*
X6411740Y21679334D01*
X6411737Y21679328D01*
X6411735Y21679323D01*
X6411735Y21679322D01*
X6360993Y21559430D01*
X6360993Y21559429D01*
X6355439Y21543492D01*
X6355439Y21543493D01*
X6346601Y21511610D01*
X6346601Y21511609D01*
X6346600Y21511604D01*
X6343157Y21495071D01*
X6338134Y21459500D01*
X6331901Y21415351D01*
X6324685Y21364246D01*
X6323780Y21355879D01*
X6322838Y21343418D01*
X6322476Y21334966D01*
X6320682Y21159500D01*
X6314607Y20565418D01*
X6311920Y20302653D01*
X6309240Y20040500D01*
X6307670Y19886993D01*
X5834500Y19886993D01*
X5834500Y31055302D01*
X17400000Y31055302D01*
X17411603Y30996966D01*
X17411605Y30996962D01*
X17455808Y30930809D01*
X17521961Y30886606D01*
X17521965Y30886604D01*
X17580301Y30875001D01*
X17580302Y30875000D01*
X18150000Y30875000D01*
X18150000Y31415081D01*
X18168306Y31459275D01*
X18212500Y31477581D01*
X18238461Y31471934D01*
X18307685Y31440320D01*
X18343202Y31435214D01*
X18414235Y31425000D01*
X18414237Y31425000D01*
X18485765Y31425000D01*
X18539038Y31432660D01*
X18592315Y31440320D01*
X18661537Y31471934D01*
X18709341Y31473640D01*
X18744352Y31441045D01*
X18750000Y31415081D01*
X18750000Y30875000D01*
X19319698Y30875000D01*
X19319698Y30875001D01*
X19378034Y30886604D01*
X19378038Y30886606D01*
X19444191Y30930809D01*
X19488394Y30996962D01*
X19488396Y30996966D01*
X19499999Y31055302D01*
X19500000Y31055302D01*
X19940000Y31055302D01*
X19951603Y30996966D01*
X19951605Y30996962D01*
X19995808Y30930809D01*
X20061961Y30886606D01*
X20061965Y30886604D01*
X20120301Y30875001D01*
X20120302Y30875000D01*
X20690000Y30875000D01*
X20690000Y31415081D01*
X20708306Y31459275D01*
X20752500Y31477581D01*
X20778461Y31471934D01*
X20847685Y31440320D01*
X20883202Y31435214D01*
X20954235Y31425000D01*
X20954237Y31425000D01*
X21025765Y31425000D01*
X21079038Y31432660D01*
X21132315Y31440320D01*
X21201537Y31471934D01*
X21249341Y31473640D01*
X21284352Y31441045D01*
X21290000Y31415081D01*
X21290000Y30875000D01*
X21859698Y30875000D01*
X21859698Y30875001D01*
X21918034Y30886604D01*
X21918038Y30886606D01*
X21984191Y30930809D01*
X22028394Y30996962D01*
X22028396Y30996966D01*
X22039999Y31055302D01*
X22040000Y31055302D01*
X22040000Y31625000D01*
X21505572Y31625000D01*
X21461378Y31643306D01*
X21443072Y31687500D01*
X21448720Y31713463D01*
X21449489Y31715152D01*
X21449493Y31715156D01*
X21490000Y31853111D01*
X21490000Y31996889D01*
X21490000Y31996891D01*
X21489999Y31996892D01*
X21449493Y32134843D01*
X21448720Y32136537D01*
X21448681Y32137609D01*
X21448234Y32139133D01*
X21448623Y32139248D01*
X21447013Y32184342D01*
X21479609Y32219352D01*
X21505572Y32225000D01*
X22040000Y32225000D01*
X22040000Y32794698D01*
X22039999Y32794699D01*
X22028396Y32853035D01*
X22028394Y32853039D01*
X21984191Y32919192D01*
X21918038Y32963395D01*
X21918034Y32963397D01*
X21859698Y32975000D01*
X21290000Y32975000D01*
X21290000Y32434920D01*
X21271694Y32390726D01*
X21227500Y32372420D01*
X21201537Y32378068D01*
X21132316Y32409680D01*
X21132313Y32409681D01*
X21025765Y32425000D01*
X21025763Y32425000D01*
X20954237Y32425000D01*
X20954235Y32425000D01*
X20847686Y32409681D01*
X20847683Y32409680D01*
X20778463Y32378068D01*
X20730658Y32376361D01*
X20695648Y32408957D01*
X20690000Y32434920D01*
X20690000Y32975000D01*
X20120302Y32975000D01*
X20061965Y32963397D01*
X20061961Y32963395D01*
X19995808Y32919192D01*
X19951605Y32853039D01*
X19951603Y32853035D01*
X19940000Y32794699D01*
X19940000Y32225000D01*
X20474428Y32225000D01*
X20518622Y32206694D01*
X20536928Y32162500D01*
X20531280Y32136537D01*
X20530506Y32134843D01*
X20490000Y31996892D01*
X20490000Y31853109D01*
X20530506Y31715158D01*
X20531280Y31713463D01*
X20531318Y31712392D01*
X20531766Y31710867D01*
X20531376Y31710753D01*
X20532987Y31665658D01*
X20500391Y31630648D01*
X20474428Y31625000D01*
X19940000Y31625000D01*
X19940000Y31055302D01*
X19500000Y31055302D01*
X19500000Y31625000D01*
X18965572Y31625000D01*
X18921378Y31643306D01*
X18903072Y31687500D01*
X18908720Y31713463D01*
X18909489Y31715152D01*
X18909493Y31715156D01*
X18950000Y31853111D01*
X18950000Y31996889D01*
X18950000Y31996891D01*
X18949999Y31996892D01*
X18909493Y32134843D01*
X18908720Y32136537D01*
X18908681Y32137609D01*
X18908234Y32139133D01*
X18908623Y32139248D01*
X18907013Y32184342D01*
X18939609Y32219352D01*
X18965572Y32225000D01*
X19500000Y32225000D01*
X19500000Y32794698D01*
X19499999Y32794699D01*
X19488396Y32853035D01*
X19488394Y32853039D01*
X19444191Y32919192D01*
X19378038Y32963395D01*
X19378034Y32963397D01*
X19319698Y32975000D01*
X18750000Y32975000D01*
X18750000Y32434920D01*
X18731694Y32390726D01*
X18687500Y32372420D01*
X18661537Y32378068D01*
X18592316Y32409680D01*
X18592313Y32409681D01*
X18485765Y32425000D01*
X18485763Y32425000D01*
X18414237Y32425000D01*
X18414235Y32425000D01*
X18307686Y32409681D01*
X18307683Y32409680D01*
X18238463Y32378068D01*
X18190658Y32376361D01*
X18155648Y32408957D01*
X18150000Y32434920D01*
X18150000Y32975000D01*
X17580302Y32975000D01*
X17521965Y32963397D01*
X17521961Y32963395D01*
X17455808Y32919192D01*
X17411605Y32853039D01*
X17411603Y32853035D01*
X17400000Y32794699D01*
X17400000Y32225000D01*
X17934428Y32225000D01*
X17978622Y32206694D01*
X17996928Y32162500D01*
X17991280Y32136537D01*
X17990506Y32134843D01*
X17950000Y31996892D01*
X17950000Y31853109D01*
X17990506Y31715158D01*
X17991280Y31713463D01*
X17991318Y31712392D01*
X17991766Y31710867D01*
X17991376Y31710753D01*
X17992987Y31665658D01*
X17960391Y31630648D01*
X17934428Y31625000D01*
X17400000Y31625000D01*
X17400000Y31055302D01*
X5834500Y31055302D01*
X5834500Y34743000D01*
X5852806Y34787194D01*
X5897000Y34805500D01*
X34743001Y34805500D01*
X34787195Y34787194D01*
G37*
%TD.AperFunction*%
%TD*%
%TA.AperFunction,Conductor*%
%TO.N,/V_out*%
G36*
X23538131Y22105620D02*
G01*
X23649070Y21969787D01*
X23658561Y21958166D01*
X23665359Y21947934D01*
X23753896Y21781135D01*
X23755203Y21778350D01*
X23884929Y21462353D01*
X24050000Y21060257D01*
X24050000Y19250001D01*
X24054208Y19250001D01*
X24084604Y19252851D01*
X24212646Y19297655D01*
X24212647Y19297655D01*
X24321791Y19378209D01*
X24362213Y19432976D01*
X24403185Y19457664D01*
X24449614Y19446149D01*
X24474302Y19405177D01*
X24475000Y19395862D01*
X24475000Y18671478D01*
X24474868Y18668608D01*
X24458673Y18492944D01*
X24456575Y18481662D01*
X24409711Y18316077D01*
X24405585Y18305369D01*
X24329240Y18151149D01*
X24323226Y18141375D01*
X24219969Y18003711D01*
X24212270Y17995202D01*
X24186554Y17971560D01*
X24082390Y17875800D01*
X24080219Y17873982D01*
X23385833Y17344512D01*
X22878560Y16957716D01*
X22878552Y16957710D01*
X22475000Y16650000D01*
X22485097Y16142615D01*
X22485097Y16142609D01*
X22654847Y7612607D01*
X22654756Y7609518D01*
X22639792Y7420435D01*
X22637609Y7408290D01*
X22587057Y7230300D01*
X22582531Y7218821D01*
X22497997Y7054233D01*
X22491303Y7043867D01*
X22376082Y6899096D01*
X22367483Y6890247D01*
X22226061Y6770931D01*
X22215890Y6763944D01*
X22053785Y6674738D01*
X22042441Y6669886D01*
X21865975Y6614268D01*
X21853897Y6611738D01*
X21665312Y6591374D01*
X21662227Y6591195D01*
X20807778Y6583764D01*
X20804700Y6583889D01*
X20616375Y6600860D01*
X20604293Y6603164D01*
X20427381Y6655379D01*
X20415983Y6660006D01*
X20252736Y6745854D01*
X20242465Y6752622D01*
X20099181Y6868790D01*
X20090435Y6877440D01*
X20010551Y6973758D01*
X19972684Y7019416D01*
X19965805Y7029605D01*
X19878137Y7191900D01*
X19873387Y7203237D01*
X19819203Y7379565D01*
X19816768Y7391610D01*
X19797699Y7579755D01*
X19797542Y7582809D01*
X19797469Y7612607D01*
X19797305Y7680000D01*
X20158756Y7680000D01*
X20190233Y7576237D01*
X20287728Y7393834D01*
X20287732Y7393828D01*
X20418945Y7233946D01*
X20578827Y7102733D01*
X20578833Y7102729D01*
X20761236Y7005233D01*
X20761239Y7005232D01*
X20865000Y6973757D01*
X20865000Y7470081D01*
X20883306Y7514275D01*
X20927500Y7532581D01*
X20953461Y7526934D01*
X21022685Y7495320D01*
X21058202Y7490214D01*
X21129235Y7480000D01*
X21129237Y7480000D01*
X21200765Y7480000D01*
X21254038Y7487660D01*
X21307315Y7495320D01*
X21376537Y7526934D01*
X21424341Y7528640D01*
X21459352Y7496045D01*
X21465000Y7470081D01*
X21465000Y6973758D01*
X21568760Y7005232D01*
X21568763Y7005233D01*
X21751166Y7102729D01*
X21751172Y7102733D01*
X21911054Y7233946D01*
X22042267Y7393828D01*
X22042271Y7393834D01*
X22139766Y7576237D01*
X22171244Y7680000D01*
X21680572Y7680000D01*
X21636378Y7698306D01*
X21618072Y7742500D01*
X21623720Y7768463D01*
X21624489Y7770152D01*
X21624493Y7770156D01*
X21665000Y7908111D01*
X21665000Y8051889D01*
X21665000Y8051891D01*
X21664999Y8051892D01*
X21624493Y8189843D01*
X21623720Y8191537D01*
X21623681Y8192609D01*
X21623234Y8194133D01*
X21623623Y8194248D01*
X21622013Y8239342D01*
X21654609Y8274352D01*
X21680572Y8280000D01*
X22171243Y8280000D01*
X22171243Y8280001D01*
X22139766Y8383764D01*
X22042271Y8566167D01*
X22042267Y8566173D01*
X21911054Y8726055D01*
X21751172Y8857268D01*
X21751166Y8857272D01*
X21568763Y8954767D01*
X21465000Y8986244D01*
X21465000Y8489920D01*
X21446694Y8445726D01*
X21402500Y8427420D01*
X21376537Y8433068D01*
X21307316Y8464680D01*
X21307313Y8464681D01*
X21200765Y8480000D01*
X21200763Y8480000D01*
X21129237Y8480000D01*
X21129235Y8480000D01*
X21022686Y8464681D01*
X21022683Y8464680D01*
X20953463Y8433068D01*
X20905658Y8431361D01*
X20870648Y8463957D01*
X20865000Y8489920D01*
X20865000Y8986244D01*
X20864999Y8986244D01*
X20761236Y8954767D01*
X20578833Y8857272D01*
X20578827Y8857268D01*
X20418945Y8726055D01*
X20287732Y8566173D01*
X20287728Y8566167D01*
X20190233Y8383764D01*
X20158756Y8280001D01*
X20158757Y8280000D01*
X20649428Y8280000D01*
X20693622Y8261694D01*
X20711928Y8217500D01*
X20706280Y8191537D01*
X20705506Y8189843D01*
X20665000Y8051892D01*
X20665000Y7908109D01*
X20705506Y7770158D01*
X20706280Y7768463D01*
X20706318Y7767392D01*
X20706766Y7765867D01*
X20706376Y7765753D01*
X20707987Y7720658D01*
X20675391Y7685648D01*
X20649428Y7680000D01*
X20158756Y7680000D01*
X19797305Y7680000D01*
X19791110Y10220000D01*
X20158756Y10220000D01*
X20190233Y10116237D01*
X20287728Y9933834D01*
X20287732Y9933828D01*
X20418945Y9773946D01*
X20578827Y9642733D01*
X20578833Y9642729D01*
X20761236Y9545233D01*
X20761239Y9545232D01*
X20865000Y9513757D01*
X20865000Y10010081D01*
X20883306Y10054275D01*
X20927500Y10072581D01*
X20953461Y10066934D01*
X21022685Y10035320D01*
X21058202Y10030214D01*
X21129235Y10020000D01*
X21129237Y10020000D01*
X21200765Y10020000D01*
X21254038Y10027660D01*
X21307315Y10035320D01*
X21376537Y10066934D01*
X21424341Y10068640D01*
X21459352Y10036045D01*
X21465000Y10010081D01*
X21465000Y9513758D01*
X21568760Y9545232D01*
X21568763Y9545233D01*
X21751166Y9642729D01*
X21751172Y9642733D01*
X21911054Y9773946D01*
X22042267Y9933828D01*
X22042271Y9933834D01*
X22139766Y10116237D01*
X22171244Y10220000D01*
X21680572Y10220000D01*
X21636378Y10238306D01*
X21618072Y10282500D01*
X21623720Y10308463D01*
X21624489Y10310152D01*
X21624493Y10310156D01*
X21665000Y10448111D01*
X21665000Y10591889D01*
X21665000Y10591891D01*
X21664999Y10591892D01*
X21624493Y10729843D01*
X21623720Y10731537D01*
X21623681Y10732609D01*
X21623234Y10734133D01*
X21623623Y10734248D01*
X21622013Y10779342D01*
X21654609Y10814352D01*
X21680572Y10820000D01*
X22171243Y10820000D01*
X22171243Y10820001D01*
X22139766Y10923764D01*
X22042271Y11106167D01*
X22042267Y11106173D01*
X21911054Y11266055D01*
X21751172Y11397268D01*
X21751166Y11397272D01*
X21568763Y11494767D01*
X21465000Y11526244D01*
X21465000Y11029920D01*
X21446694Y10985726D01*
X21402500Y10967420D01*
X21376537Y10973068D01*
X21307316Y11004680D01*
X21307313Y11004681D01*
X21200765Y11020000D01*
X21200763Y11020000D01*
X21129237Y11020000D01*
X21129235Y11020000D01*
X21022686Y11004681D01*
X21022683Y11004680D01*
X20953463Y10973068D01*
X20905658Y10971361D01*
X20870648Y11003957D01*
X20865000Y11029920D01*
X20865000Y11526244D01*
X20864999Y11526244D01*
X20761236Y11494767D01*
X20578833Y11397272D01*
X20578827Y11397268D01*
X20418945Y11266055D01*
X20287732Y11106173D01*
X20287728Y11106167D01*
X20190233Y10923764D01*
X20158756Y10820001D01*
X20158757Y10820000D01*
X20649428Y10820000D01*
X20693622Y10801694D01*
X20711928Y10757500D01*
X20706280Y10731537D01*
X20705506Y10729843D01*
X20665000Y10591892D01*
X20665000Y10448109D01*
X20705506Y10310158D01*
X20706280Y10308463D01*
X20706318Y10307392D01*
X20706766Y10305867D01*
X20706376Y10305753D01*
X20707987Y10260658D01*
X20675391Y10225648D01*
X20649428Y10220000D01*
X20158756Y10220000D01*
X19791110Y10220000D01*
X19787924Y11526244D01*
X19784915Y12760000D01*
X20158756Y12760000D01*
X20190233Y12656237D01*
X20287728Y12473834D01*
X20287732Y12473828D01*
X20418945Y12313946D01*
X20578827Y12182733D01*
X20578833Y12182729D01*
X20761236Y12085233D01*
X20761239Y12085232D01*
X20865000Y12053757D01*
X20865000Y12550081D01*
X20883306Y12594275D01*
X20927500Y12612581D01*
X20953461Y12606934D01*
X21022685Y12575320D01*
X21058202Y12570214D01*
X21129235Y12560000D01*
X21129237Y12560000D01*
X21200765Y12560000D01*
X21254038Y12567660D01*
X21307315Y12575320D01*
X21376537Y12606934D01*
X21424341Y12608640D01*
X21459352Y12576045D01*
X21465000Y12550081D01*
X21465000Y12053758D01*
X21568760Y12085232D01*
X21568763Y12085233D01*
X21751166Y12182729D01*
X21751172Y12182733D01*
X21911054Y12313946D01*
X22042267Y12473828D01*
X22042271Y12473834D01*
X22139766Y12656237D01*
X22171244Y12760000D01*
X21680572Y12760000D01*
X21636378Y12778306D01*
X21618072Y12822500D01*
X21623720Y12848463D01*
X21624489Y12850152D01*
X21624493Y12850156D01*
X21665000Y12988111D01*
X21665000Y13131889D01*
X21665000Y13131891D01*
X21664999Y13131892D01*
X21624493Y13269843D01*
X21623720Y13271537D01*
X21623681Y13272609D01*
X21623234Y13274133D01*
X21623623Y13274248D01*
X21622013Y13319342D01*
X21654609Y13354352D01*
X21680572Y13360000D01*
X22171243Y13360000D01*
X22171243Y13360001D01*
X22139766Y13463764D01*
X22042271Y13646167D01*
X22042267Y13646173D01*
X21911054Y13806055D01*
X21751172Y13937268D01*
X21751166Y13937272D01*
X21568763Y14034767D01*
X21465000Y14066244D01*
X21465000Y13569920D01*
X21446694Y13525726D01*
X21402500Y13507420D01*
X21376537Y13513068D01*
X21307316Y13544680D01*
X21307313Y13544681D01*
X21200765Y13560000D01*
X21200763Y13560000D01*
X21129237Y13560000D01*
X21129235Y13560000D01*
X21022686Y13544681D01*
X21022683Y13544680D01*
X20953463Y13513068D01*
X20905658Y13511361D01*
X20870648Y13543957D01*
X20865000Y13569920D01*
X20865000Y14066244D01*
X20864999Y14066244D01*
X20761236Y14034767D01*
X20578833Y13937272D01*
X20578827Y13937268D01*
X20418945Y13806055D01*
X20287732Y13646173D01*
X20287728Y13646167D01*
X20190233Y13463764D01*
X20158756Y13360001D01*
X20158757Y13360000D01*
X20649428Y13360000D01*
X20693622Y13341694D01*
X20711928Y13297500D01*
X20706280Y13271537D01*
X20705506Y13269843D01*
X20665000Y13131892D01*
X20665000Y12988109D01*
X20705506Y12850158D01*
X20706280Y12848463D01*
X20706318Y12847392D01*
X20706766Y12845867D01*
X20706376Y12845753D01*
X20707987Y12800658D01*
X20675391Y12765648D01*
X20649428Y12760000D01*
X20158756Y12760000D01*
X19784915Y12760000D01*
X19778720Y15300000D01*
X20158756Y15300000D01*
X20190233Y15196237D01*
X20287728Y15013834D01*
X20287732Y15013828D01*
X20418945Y14853946D01*
X20578827Y14722733D01*
X20578833Y14722729D01*
X20761236Y14625233D01*
X20761239Y14625232D01*
X20865000Y14593757D01*
X20865000Y15090081D01*
X20883306Y15134275D01*
X20927500Y15152581D01*
X20953461Y15146934D01*
X21022685Y15115320D01*
X21058202Y15110214D01*
X21129235Y15100000D01*
X21129237Y15100000D01*
X21200765Y15100000D01*
X21254038Y15107660D01*
X21307315Y15115320D01*
X21376537Y15146934D01*
X21424341Y15148640D01*
X21459352Y15116045D01*
X21465000Y15090081D01*
X21465000Y14593758D01*
X21568760Y14625232D01*
X21568763Y14625233D01*
X21751166Y14722729D01*
X21751172Y14722733D01*
X21911054Y14853946D01*
X22042267Y15013828D01*
X22042271Y15013834D01*
X22139766Y15196237D01*
X22171244Y15300000D01*
X21680572Y15300000D01*
X21636378Y15318306D01*
X21618072Y15362500D01*
X21623720Y15388463D01*
X21624489Y15390152D01*
X21624493Y15390156D01*
X21665000Y15528111D01*
X21665000Y15671889D01*
X21665000Y15671891D01*
X21664999Y15671892D01*
X21624493Y15809843D01*
X21623720Y15811537D01*
X21623681Y15812609D01*
X21623234Y15814133D01*
X21623623Y15814248D01*
X21622013Y15859342D01*
X21654609Y15894352D01*
X21680572Y15900000D01*
X22171243Y15900000D01*
X22171243Y15900001D01*
X22139766Y16003764D01*
X22042271Y16186167D01*
X22042267Y16186173D01*
X21911054Y16346055D01*
X21751172Y16477268D01*
X21751166Y16477272D01*
X21568763Y16574767D01*
X21465000Y16606244D01*
X21465000Y16109920D01*
X21446694Y16065726D01*
X21402500Y16047420D01*
X21376537Y16053068D01*
X21307316Y16084680D01*
X21307313Y16084681D01*
X21200765Y16100000D01*
X21200763Y16100000D01*
X21129237Y16100000D01*
X21129235Y16100000D01*
X21022686Y16084681D01*
X21022683Y16084680D01*
X20953463Y16053068D01*
X20905658Y16051361D01*
X20870648Y16083957D01*
X20865000Y16109920D01*
X20865000Y16606244D01*
X20864999Y16606244D01*
X20761236Y16574767D01*
X20578833Y16477272D01*
X20578827Y16477268D01*
X20418945Y16346055D01*
X20287732Y16186173D01*
X20287728Y16186167D01*
X20190233Y16003764D01*
X20158756Y15900001D01*
X20158757Y15900000D01*
X20649428Y15900000D01*
X20693622Y15881694D01*
X20711928Y15837500D01*
X20706280Y15811537D01*
X20705506Y15809843D01*
X20665000Y15671892D01*
X20665000Y15528109D01*
X20705506Y15390158D01*
X20706280Y15388463D01*
X20706318Y15387392D01*
X20706766Y15385867D01*
X20706376Y15385753D01*
X20707987Y15340658D01*
X20675391Y15305648D01*
X20649428Y15300000D01*
X20158756Y15300000D01*
X19778720Y15300000D01*
X19776522Y16201239D01*
X19776649Y16204136D01*
X19792710Y16381436D01*
X19794816Y16392810D01*
X19842124Y16559910D01*
X19846296Y16570707D01*
X19885725Y16650000D01*
X19923622Y16726214D01*
X19929709Y16736047D01*
X20034397Y16874617D01*
X20042196Y16883163D01*
X20170655Y17000042D01*
X20179891Y17006998D01*
X20331438Y17100472D01*
X20333937Y17101857D01*
X21893861Y17874529D01*
X21893863Y17874531D01*
X22450000Y18150000D01*
X22450000Y19875000D01*
X23050001Y19875000D01*
X23050001Y19645792D01*
X23052850Y19615396D01*
X23097654Y19487354D01*
X23097654Y19487353D01*
X23178208Y19378209D01*
X23287353Y19297655D01*
X23415392Y19252852D01*
X23415396Y19252851D01*
X23445784Y19250002D01*
X23445799Y19250001D01*
X23449999Y19250002D01*
X23450000Y19250002D01*
X23450000Y19875000D01*
X23050001Y19875000D01*
X22450000Y19875000D01*
X22450000Y20475000D01*
X23050000Y20475000D01*
X23450000Y20475000D01*
X23450000Y21100000D01*
X23449999Y21100001D01*
X23445804Y21100000D01*
X23445796Y21099999D01*
X23415395Y21097150D01*
X23287353Y21052346D01*
X23287352Y21052346D01*
X23178208Y20971792D01*
X23097654Y20862648D01*
X23097654Y20862647D01*
X23052851Y20734608D01*
X23052850Y20734603D01*
X23050000Y20704200D01*
X23050000Y20475000D01*
X22450000Y20475000D01*
X22450000Y20600000D01*
X22097502Y20849999D01*
X22097501Y20850000D01*
X22004888Y20915683D01*
X22004889Y20915683D01*
X22004886Y20915685D01*
X21745001Y21100000D01*
X21426395Y21100000D01*
X21254504Y21100000D01*
X21210310Y21118306D01*
X21192004Y21162500D01*
X21202538Y21197224D01*
X21216393Y21217961D01*
X21216396Y21217966D01*
X21227999Y21276302D01*
X21228000Y21276302D01*
X21228000Y21481000D01*
X20795500Y21481000D01*
X20751306Y21499306D01*
X20733000Y21543500D01*
X20733000Y21625000D01*
X21725001Y21625000D01*
X21725001Y21620792D01*
X21727850Y21590396D01*
X21772654Y21462354D01*
X21772654Y21462353D01*
X21853208Y21353209D01*
X21962353Y21272655D01*
X22090392Y21227852D01*
X22090397Y21227851D01*
X22120800Y21225001D01*
X22349999Y21225001D01*
X22350000Y21225002D01*
X22350000Y21625000D01*
X22950000Y21625000D01*
X22950000Y21225001D01*
X23179208Y21225001D01*
X23209604Y21227851D01*
X23337646Y21272655D01*
X23337647Y21272655D01*
X23446791Y21353209D01*
X23527345Y21462353D01*
X23527345Y21462354D01*
X23572148Y21590393D01*
X23572149Y21590398D01*
X23575000Y21620801D01*
X23575000Y21625000D01*
X22950000Y21625000D01*
X22350000Y21625000D01*
X21725001Y21625000D01*
X20733000Y21625000D01*
X20733000Y21718500D01*
X20751306Y21762694D01*
X20795500Y21781000D01*
X21228000Y21781000D01*
X21228000Y21940693D01*
X21246306Y21984887D01*
X21276953Y22000000D01*
X21545001Y22000000D01*
X21745000Y22200000D01*
X21777581Y22225000D01*
X23393209Y22225000D01*
X23538131Y22105620D01*
G37*
%TD.AperFunction*%
%TD*%
%TA.AperFunction,Conductor*%
%TO.N,/V_in*%
G36*
X15112493Y23204880D02*
G01*
X15193139Y23197768D01*
X15203939Y23195848D01*
X15282109Y23174729D01*
X15284720Y23173899D01*
X16562000Y22705000D01*
X16650158Y22704762D01*
X16650170Y22704760D01*
X16710675Y22704596D01*
X18155870Y22700664D01*
X18165130Y22699948D01*
X18297897Y22679664D01*
X18315601Y22674179D01*
X18432333Y22617879D01*
X18447653Y22607436D01*
X18546182Y22516166D01*
X18552513Y22509358D01*
X18598123Y22452346D01*
X18800000Y22200000D01*
X19037814Y22200000D01*
X19077963Y22175823D01*
X19089489Y22129397D01*
X19079652Y22103973D01*
X19039605Y22044039D01*
X19039603Y22044035D01*
X19028000Y21985699D01*
X19028000Y21781000D01*
X19406500Y21781000D01*
X19450694Y21762694D01*
X19469000Y21718500D01*
X19469000Y21543500D01*
X19450694Y21499306D01*
X19406500Y21481000D01*
X19028000Y21481000D01*
X19028000Y21347022D01*
X19009694Y21302828D01*
X19004214Y21300146D01*
X18900000Y21300000D01*
X18756778Y21168227D01*
X18756775Y21168224D01*
X18506948Y20938364D01*
X18503939Y20935922D01*
X18411209Y20869745D01*
X18397615Y20862391D01*
X18296931Y20823119D01*
X18281947Y20819326D01*
X18263666Y20817049D01*
X18168899Y20805240D01*
X18165038Y20805000D01*
X15362001Y20805000D01*
X15175000Y20800000D01*
X14950000Y20600000D01*
X13350001Y20600000D01*
X13350001Y19845792D01*
X13352850Y19815396D01*
X13397654Y19687354D01*
X13397654Y19687353D01*
X13478208Y19578209D01*
X13549783Y19525383D01*
X13574471Y19484411D01*
X13562956Y19437982D01*
X13521984Y19413294D01*
X13520367Y19413072D01*
X13412591Y19399696D01*
X13408827Y19399458D01*
X7070643Y19381446D01*
X7066525Y19381707D01*
X6946289Y19397321D01*
X6930396Y19401569D01*
X6842593Y19437982D01*
X6824161Y19445626D01*
X6809930Y19453871D01*
X6770343Y19484411D01*
X6718866Y19524125D01*
X6707277Y19535800D01*
X6637699Y19627379D01*
X6629558Y19641674D01*
X6586287Y19748230D01*
X6582157Y19764153D01*
X6575886Y19815396D01*
X6567429Y19884503D01*
X6567200Y19888615D01*
X6568480Y20013828D01*
X6571406Y20300000D01*
X6953756Y20300000D01*
X6985233Y20196237D01*
X7082728Y20013834D01*
X7082732Y20013828D01*
X7213945Y19853946D01*
X7373827Y19722733D01*
X7373833Y19722729D01*
X7556236Y19625233D01*
X7556239Y19625232D01*
X7660000Y19593757D01*
X7660000Y20090081D01*
X7678306Y20134275D01*
X7722500Y20152581D01*
X7748461Y20146934D01*
X7817685Y20115320D01*
X7853202Y20110214D01*
X7924235Y20100000D01*
X7924237Y20100000D01*
X7995765Y20100000D01*
X8049038Y20107660D01*
X8102315Y20115320D01*
X8171537Y20146934D01*
X8219341Y20148640D01*
X8254352Y20116045D01*
X8260000Y20090081D01*
X8260000Y19593758D01*
X8363760Y19625232D01*
X8363763Y19625233D01*
X8546166Y19722729D01*
X8546172Y19722733D01*
X8706054Y19853946D01*
X8837267Y20013828D01*
X8837271Y20013834D01*
X8934766Y20196237D01*
X8966244Y20300000D01*
X9493756Y20300000D01*
X9525233Y20196237D01*
X9622728Y20013834D01*
X9622732Y20013828D01*
X9753945Y19853946D01*
X9913827Y19722733D01*
X9913833Y19722729D01*
X10096236Y19625233D01*
X10096239Y19625232D01*
X10200000Y19593757D01*
X10200000Y20090081D01*
X10218306Y20134275D01*
X10262500Y20152581D01*
X10288461Y20146934D01*
X10357685Y20115320D01*
X10393202Y20110214D01*
X10464235Y20100000D01*
X10464237Y20100000D01*
X10535765Y20100000D01*
X10589038Y20107660D01*
X10642315Y20115320D01*
X10711537Y20146934D01*
X10759341Y20148640D01*
X10794352Y20116045D01*
X10800000Y20090081D01*
X10800000Y19593758D01*
X10903760Y19625232D01*
X10903763Y19625233D01*
X11086166Y19722729D01*
X11086172Y19722733D01*
X11246054Y19853946D01*
X11377267Y20013828D01*
X11377271Y20013834D01*
X11474766Y20196237D01*
X11506244Y20300000D01*
X11015572Y20300000D01*
X10971378Y20318306D01*
X10953072Y20362500D01*
X10958720Y20388463D01*
X10959489Y20390152D01*
X10959493Y20390156D01*
X11000000Y20528111D01*
X11000000Y20671889D01*
X11000000Y20671890D01*
X11000000Y20671891D01*
X10999999Y20671892D01*
X10959493Y20809843D01*
X10958720Y20811537D01*
X10958681Y20812609D01*
X10958234Y20814133D01*
X10958623Y20814248D01*
X10957013Y20859342D01*
X10989609Y20894352D01*
X11015572Y20900000D01*
X11506243Y20900000D01*
X11506243Y20900001D01*
X11474766Y21003764D01*
X11377271Y21186167D01*
X11377267Y21186173D01*
X11365919Y21200000D01*
X13350000Y21200000D01*
X14150000Y21200000D01*
X14150000Y22350000D01*
X14750000Y22350000D01*
X14750000Y21200000D01*
X15549999Y21200000D01*
X15549999Y21500000D01*
X16663001Y21500000D01*
X16663001Y21495792D01*
X16665850Y21465396D01*
X16710654Y21337354D01*
X16710654Y21337353D01*
X16791208Y21228209D01*
X16900353Y21147655D01*
X17028392Y21102852D01*
X17028397Y21102851D01*
X17058800Y21100001D01*
X17287999Y21100001D01*
X17288000Y21100002D01*
X17288000Y21500000D01*
X17888000Y21500000D01*
X17888000Y21100001D01*
X18117208Y21100001D01*
X18147604Y21102851D01*
X18275646Y21147655D01*
X18275647Y21147655D01*
X18384791Y21228209D01*
X18465345Y21337353D01*
X18465345Y21337354D01*
X18510148Y21465393D01*
X18510149Y21465398D01*
X18513000Y21495801D01*
X18513000Y21500000D01*
X17888000Y21500000D01*
X17288000Y21500000D01*
X16663001Y21500000D01*
X15549999Y21500000D01*
X15549999Y21954209D01*
X15547149Y21984605D01*
X15506770Y22100000D01*
X16663000Y22100000D01*
X17287999Y22100000D01*
X17287999Y22100001D01*
X17887999Y22100001D01*
X17888000Y22100000D01*
X18512999Y22100000D01*
X18512999Y22104209D01*
X18510149Y22134605D01*
X18465345Y22262647D01*
X18465345Y22262648D01*
X18384791Y22371792D01*
X18275646Y22452346D01*
X18147607Y22497149D01*
X18147602Y22497150D01*
X18117199Y22500000D01*
X17888000Y22500000D01*
X17887999Y22100001D01*
X17287999Y22100001D01*
X17288000Y22500000D01*
X17058791Y22500000D01*
X17028395Y22497150D01*
X16900353Y22452346D01*
X16900352Y22452346D01*
X16791208Y22371792D01*
X16710654Y22262648D01*
X16710654Y22262647D01*
X16665851Y22134608D01*
X16665850Y22134603D01*
X16663000Y22104200D01*
X16663000Y22100000D01*
X15506770Y22100000D01*
X15502345Y22112647D01*
X15502345Y22112648D01*
X15421791Y22221792D01*
X15312646Y22302346D01*
X15184607Y22347149D01*
X15184602Y22347150D01*
X15154199Y22350000D01*
X14750000Y22350000D01*
X14150000Y22350000D01*
X13745791Y22350000D01*
X13715395Y22347150D01*
X13587353Y22302346D01*
X13587352Y22302346D01*
X13478208Y22221792D01*
X13397654Y22112648D01*
X13397654Y22112647D01*
X13352851Y21984608D01*
X13352850Y21984603D01*
X13350000Y21954200D01*
X13350000Y21200000D01*
X11365919Y21200000D01*
X11246054Y21346055D01*
X11086172Y21477268D01*
X11086166Y21477272D01*
X10903763Y21574767D01*
X10800000Y21606244D01*
X10800000Y21109920D01*
X10781694Y21065726D01*
X10737500Y21047420D01*
X10711537Y21053068D01*
X10642316Y21084680D01*
X10642313Y21084681D01*
X10535765Y21100000D01*
X10535763Y21100000D01*
X10464237Y21100000D01*
X10464235Y21100000D01*
X10357686Y21084681D01*
X10357683Y21084680D01*
X10288463Y21053068D01*
X10240658Y21051361D01*
X10205648Y21083957D01*
X10200000Y21109920D01*
X10200000Y21606244D01*
X10199999Y21606244D01*
X10096236Y21574767D01*
X9913833Y21477272D01*
X9913827Y21477268D01*
X9753945Y21346055D01*
X9622732Y21186173D01*
X9622728Y21186167D01*
X9525233Y21003764D01*
X9493756Y20900001D01*
X9493757Y20900000D01*
X9984428Y20900000D01*
X10028622Y20881694D01*
X10046928Y20837500D01*
X10041280Y20811537D01*
X10040506Y20809843D01*
X10000000Y20671892D01*
X10000000Y20528109D01*
X10040506Y20390158D01*
X10041280Y20388463D01*
X10041318Y20387392D01*
X10041766Y20385867D01*
X10041376Y20385753D01*
X10042987Y20340658D01*
X10010391Y20305648D01*
X9984428Y20300000D01*
X9493756Y20300000D01*
X8966244Y20300000D01*
X8475572Y20300000D01*
X8431378Y20318306D01*
X8413072Y20362500D01*
X8418720Y20388463D01*
X8419489Y20390152D01*
X8419493Y20390156D01*
X8460000Y20528111D01*
X8460000Y20671889D01*
X8460000Y20671890D01*
X8460000Y20671891D01*
X8459999Y20671892D01*
X8419493Y20809843D01*
X8418720Y20811537D01*
X8418681Y20812609D01*
X8418234Y20814133D01*
X8418623Y20814248D01*
X8417013Y20859342D01*
X8449609Y20894352D01*
X8475572Y20900000D01*
X8966243Y20900000D01*
X8966243Y20900001D01*
X8934766Y21003764D01*
X8837271Y21186167D01*
X8837267Y21186173D01*
X8706054Y21346055D01*
X8546172Y21477268D01*
X8546166Y21477272D01*
X8363763Y21574767D01*
X8260000Y21606244D01*
X8260000Y21109920D01*
X8241694Y21065726D01*
X8197500Y21047420D01*
X8171537Y21053068D01*
X8102316Y21084680D01*
X8102313Y21084681D01*
X7995765Y21100000D01*
X7995763Y21100000D01*
X7924237Y21100000D01*
X7924235Y21100000D01*
X7817686Y21084681D01*
X7817683Y21084680D01*
X7748463Y21053068D01*
X7700658Y21051361D01*
X7665648Y21083957D01*
X7660000Y21109920D01*
X7660000Y21606244D01*
X7659999Y21606244D01*
X7556236Y21574767D01*
X7373833Y21477272D01*
X7373827Y21477268D01*
X7213945Y21346055D01*
X7082732Y21186173D01*
X7082728Y21186167D01*
X6985233Y21003764D01*
X6953756Y20900001D01*
X6953757Y20900000D01*
X7444428Y20900000D01*
X7488622Y20881694D01*
X7506928Y20837500D01*
X7501280Y20811537D01*
X7500506Y20809843D01*
X7460000Y20671892D01*
X7460000Y20528109D01*
X7500506Y20390158D01*
X7501280Y20388463D01*
X7501318Y20387392D01*
X7501766Y20385867D01*
X7501376Y20385753D01*
X7502987Y20340658D01*
X7470391Y20305648D01*
X7444428Y20300000D01*
X6953756Y20300000D01*
X6571406Y20300000D01*
X6581919Y21328083D01*
X6582225Y21332133D01*
X6582963Y21337354D01*
X6598928Y21450430D01*
X6603257Y21466049D01*
X6647429Y21570421D01*
X6655625Y21584396D01*
X6725162Y21673908D01*
X6736674Y21685303D01*
X6826891Y21753920D01*
X6840944Y21761969D01*
X6945768Y21805075D01*
X6961430Y21809243D01*
X7079897Y21824737D01*
X7083949Y21825000D01*
X11309138Y21825000D01*
X11309143Y21825000D01*
X11550000Y21825000D01*
X12251449Y22705000D01*
X12496954Y23012997D01*
X12503301Y23019840D01*
X12602230Y23111667D01*
X12617625Y23122166D01*
X12734954Y23178685D01*
X12752759Y23184180D01*
X12853248Y23199330D01*
X12886228Y23204302D01*
X12895545Y23205000D01*
X15109751Y23205000D01*
X15112493Y23204880D01*
G37*
%TD.AperFunction*%
%TD*%
%TA.AperFunction,Conductor*%
%TO.N,Net-(U1-LX2)*%
G36*
X20513148Y21790648D02*
G01*
X20527500Y21756000D01*
X20527500Y21276252D01*
X20539133Y21217769D01*
X20553741Y21195907D01*
X20561999Y21168685D01*
X20561999Y21105000D01*
X20923246Y20924377D01*
X21334913Y20718544D01*
X21359485Y20690212D01*
X21362000Y20674717D01*
X21362000Y18554000D01*
X21347648Y18519352D01*
X21313000Y18505000D01*
X20611000Y18505000D01*
X20576352Y18519352D01*
X20562000Y18554000D01*
X20562000Y20505000D01*
X20399500Y20705000D01*
X20252832Y20885514D01*
X20242123Y20921454D01*
X20242404Y20923364D01*
X20242498Y20924367D01*
X20242500Y20924377D01*
X20242500Y21228716D01*
X20242004Y21238798D01*
X20240073Y21258400D01*
X20238593Y21268377D01*
X20238583Y21268427D01*
X20237941Y21271659D01*
X20237000Y21281214D01*
X20237000Y21756000D01*
X20251352Y21790648D01*
X20286000Y21805000D01*
X20478500Y21805000D01*
X20513148Y21790648D01*
G37*
%TD.AperFunction*%
%TD*%
%TA.AperFunction,Conductor*%
%TO.N,Net-(U1-LX1)*%
G36*
X20013148Y21790648D02*
G01*
X20027500Y21756000D01*
X20027500Y21276249D01*
X20036058Y21233229D01*
X20037000Y21223669D01*
X20037000Y20924377D01*
X20023747Y20890864D01*
X19662000Y20505001D01*
X19662000Y18554000D01*
X19647648Y18519352D01*
X19613000Y18505000D01*
X18911000Y18505000D01*
X18876352Y18519352D01*
X18862000Y18554000D01*
X18862000Y20674717D01*
X18876352Y20709365D01*
X18889084Y20718543D01*
X19662000Y21105000D01*
X19662000Y21120794D01*
X19670258Y21148016D01*
X19672550Y21151448D01*
X19672552Y21151448D01*
X19716867Y21217769D01*
X19728500Y21276252D01*
X19728500Y21756000D01*
X19742852Y21790648D01*
X19777500Y21805000D01*
X19978500Y21805000D01*
X20013148Y21790648D01*
G37*
%TD.AperFunction*%
%TD*%
M02*
