M48
; DRILL file {KiCad 7.0.5.1-1-g8f565ef7f0-dirty-deb11} date Thu Jul 20 11:56:14 2023
; FORMAT={3:3/ absolute / metric / suppress leading zeros}
; #@! TF.CreationDate,2023-07-20T11:56:14+00:00
; #@! TF.GenerationSoftware,Kicad,Pcbnew,7.0.5.1-1-g8f565ef7f0-dirty-deb11
; #@! TF.FileFunction,Plated,1,2,PTH
FMAT,2
METRIC,TZ
; #@! TA.AperFunction,Plated,PTH,ViaDrill
T1C0.400
; #@! TA.AperFunction,Plated,PTH,ComponentDrill
T2C0.889
; #@! TA.AperFunction,Plated,PTH,ComponentDrill
T3C3.000
%
G90
G05
T1
X141228Y-81276
X142240Y-81788
T2
X125730Y-83820
X125730Y-86360
X125730Y-88900
X128270Y-83820
X128270Y-86360
X128270Y-88900
X134620Y-76200
X134620Y-96520
X137160Y-76200
X137160Y-96520
X139700Y-76200
X139700Y-96520
X144780Y-76200
X144780Y-95250
X144780Y-97790
X147320Y-76200
X147320Y-95250
X147320Y-97790
X149860Y-76200
X149860Y-95250
X149860Y-97790
X156210Y-83820
X156210Y-86360
X156210Y-88900
X158750Y-83820
X158750Y-86360
X158750Y-88900
T3
X127000Y-76200
X127000Y-96520
X157480Y-76200
X157480Y-96520
T0
M30
